<svg width="16" height="16" viewBox="0 0 16 16" fill="none" xmlns="http://www.w3.org/2000/svg">
<g clip-path="url(#clip0_36251_6782)">
<path d="M11.4783 0.793813C10.4266 0.28525 9.24667 0 8.00008 0C6.75348 0 5.57358 0.28525 4.52183 0.793813L3.82617 8L4.52183 15.2062C5.57358 15.7147 6.75348 16 8.00008 16C9.24667 16 10.4266 15.7147 11.4783 15.2062L12.174 8L11.4783 0.793813Z" fill="#F0F0F0"/>
<path d="M4.52175 0.793945C1.84578 2.08788 0 4.82816 0 7.99985C0 11.1715 1.84578 13.9118 4.52175 15.2058V0.793945Z" fill="#6DA544"/>
<path d="M11.4785 0.793945V15.2058C14.1545 13.9118 16.0003 11.1715 16.0003 7.99985C16.0003 4.8282 14.1545 2.08788 11.4785 0.793945Z" fill="#6DA544"/>
<path d="M10.087 10.4339L8.00005 3.8252L5.91309 10.4339H7.4783V12.173H8.5218V10.4339H10.087Z" fill="#6DA544"/>
</g>
<defs>
<clipPath id="clip0_36251_6782">
<rect width="16" height="16" fill="white"/>
</clipPath>
</defs>
</svg>
