<svg width="16" height="16" viewBox="0 0 16 16" fill="none" xmlns="http://www.w3.org/2000/svg">
<g clip-path="url(#clip0_36251_6880)">
<path d="M8 16C12.4183 16 16 12.4183 16 8C16 3.58172 12.4183 0 8 0C3.58172 0 0 3.58172 0 8C0 12.4183 3.58172 16 8 16Z" fill="#FFDA44"/>
<path d="M16 8.00029C16 5.25463 14.6166 2.83232 12.509 1.3916H3.49103C1.38344 2.83232 0 5.25463 0 8.00029C0 10.746 1.38344 13.1683 3.49103 14.609H12.509C14.6166 13.1683 16 10.746 16 8.00029Z" fill="#A2001D"/>
<path d="M6.26172 5.91311H9.73997V4.52183L9.04432 4.86964L8.00085 3.82617L6.95738 4.86964L6.26172 4.52183V5.91311Z" fill="#FFDA44"/>
<path d="M11.1311 7.99997H9.39259C9.46077 7.88203 9.5004 7.74556 9.5004 7.59956C9.5004 7.15622 9.14099 6.79688 8.69771 6.79688C8.39143 6.79688 8.12543 6.9685 7.99009 7.22069C7.85474 6.96847 7.58874 6.79688 7.28246 6.79688C6.83918 6.79688 6.47977 7.15622 6.47977 7.59956C6.47977 7.74559 6.51946 7.88206 6.58759 7.99997H4.87012C4.87012 8.53194 5.33346 8.96316 5.8654 8.96316H5.83334C5.83334 9.3995 6.12355 9.76794 6.52146 9.88628L5.73968 10.6681L6.47752 11.406L7.52418 10.3593C7.56518 10.3743 7.60759 10.3863 7.65143 10.3946L7.01899 11.8226C7.32205 11.9458 7.65327 12.0142 8.00062 12.0142C8.34793 12.0142 8.67915 11.9458 8.98224 11.8226L8.34981 10.3946C8.39362 10.3864 8.43602 10.3743 8.47699 10.3593L9.52365 11.406L10.2615 10.6681L9.47965 9.88631C9.87752 9.76791 10.1678 9.39953 10.1678 8.96319H10.1357C10.6677 8.96316 11.1311 8.53194 11.1311 7.99997Z" fill="#FFDA44"/>
<path d="M8.00056 8.52148L6.87012 9.0432V10.0867L8.00056 10.7823L9.131 10.0867V9.0432L8.00056 8.52148Z" fill="#6DA544"/>
<path d="M9.131 7.99902H6.87012V9.39034H9.131V7.99902Z" fill="#0052B4"/>
</g>
<defs>
<clipPath id="clip0_36251_6880">
<rect width="16" height="16" fill="white"/>
</clipPath>
</defs>
</svg>
