<svg width="16" height="16" viewBox="0 0 16 16" fill="none" xmlns="http://www.w3.org/2000/svg">
<g clip-path="url(#clip0_36251_6947)">
<path d="M8 16C12.4183 16 16 12.4183 16 8C16 3.58172 12.4183 0 8 0C3.58172 0 0 3.58172 0 8C0 12.4183 3.58172 16 8 16Z" fill="#FCFCFC"/>
<path d="M3.30413 7.4195L2.43457 5.84191L3.30413 4.28906L4.1737 5.84191L3.30413 7.4195Z" fill="#A2001D"/>
<path d="M1.56488 7.4195L0.695312 5.84191L1.56488 4.28906L2.43444 5.84191L1.56488 7.4195Z" fill="#A2001D"/>
<path d="M3.30413 11.7095L2.43457 10.1319L3.30413 8.5791L4.1737 10.1319L3.30413 11.7095Z" fill="#A2001D"/>
<path d="M1.56488 11.7095L0.695312 10.1319L1.56488 8.5791L2.43444 10.1319L1.56488 11.7095Z" fill="#A2001D"/>
<path d="M4.17295 1.55291L3.92677 1.11328C3.4852 1.37491 3.07105 1.67781 2.68945 2.01669L3.30339 3.13047L4.17295 1.55291Z" fill="#A2001D"/>
<path d="M3.30403 12.8701L2.68359 13.9781C3.06484 14.3174 3.47872 14.6208 3.92009 14.883L4.17362 14.423L3.30403 12.8701Z" fill="#A2001D"/>
<path d="M4.86914 10.0869V15.3639C5.83067 15.7732 6.88858 16 7.99958 16C11.4393 16 14.3716 13.829 15.502 10.7825L4.86914 10.0869Z" fill="#6DA544"/>
<path d="M15.502 10.7826C15.8236 9.91594 15.9996 8.97856 15.9996 8C15.9996 3.58175 12.4178 0 7.99958 0C6.88867 0 5.83067 0.226656 4.86914 0.635875V10.7826H15.502V10.7826Z" fill="#A2001D"/>
</g>
<defs>
<clipPath id="clip0_36251_6947">
<rect width="16" height="16" fill="white"/>
</clipPath>
</defs>
</svg>
