<svg width="16" height="16" viewBox="0 0 16 16" fill="none" xmlns="http://www.w3.org/2000/svg">
<g clip-path="url(#clip0_36251_6803)">
<path d="M8.0005 0C12.4187 0 16.0005 3.58175 16.0005 8C16.0005 12.4183 12.4187 16 8.0005 16C8.0005 15.6522 6.95703 8 6.95703 8L8.0005 0Z" fill="#F0F0F0"/>
<path d="M8 16C3.58175 16 0 12.4183 0 8C0 3.58175 3.58175 0 8 0" fill="#496E2D"/>
<path d="M9.71941 6.46582L9.06303 7.37035L8 7.0256L8.65744 7.92935L8.00113 8.83389L9.06375 8.48792L9.72119 9.39164L9.7205 8.2741L10.7832 7.9281L9.72016 7.58342L9.71941 6.46582Z" fill="#D80027"/>
<path d="M8.66388 10.2613C7.41525 10.2613 6.403 9.24902 6.403 8.0004C6.403 6.75177 7.41525 5.73952 8.66388 5.73952C9.05319 5.73952 9.41954 5.83796 9.73935 6.01127C9.2376 5.52062 8.55147 5.21777 7.79432 5.21777C6.2575 5.21777 5.01172 6.46359 5.01172 8.00037C5.01172 9.53715 6.25753 10.783 7.79432 10.783C8.5515 10.783 9.23763 10.4801 9.73935 9.98946C9.41954 10.1628 9.05319 10.2613 8.66388 10.2613Z" fill="#D80027"/>
</g>
<defs>
<clipPath id="clip0_36251_6803">
<rect width="16" height="16" fill="white"/>
</clipPath>
</defs>
</svg>
