<svg width="16" height="16" viewBox="0 0 16 16" fill="none" xmlns="http://www.w3.org/2000/svg">
<g clip-path="url(#clip0_36251_6927)">
<path d="M8 16C12.4183 16 16 12.4183 16 8C16 3.58172 12.4183 0 8 0C3.58172 0 0 3.58172 0 8C0 12.4183 3.58172 16 8 16Z" fill="#F0F0F0"/>
<path d="M2.34314 13.6575C-0.781047 10.5333 -0.781047 5.46797 2.34314 2.34375C2.34292 2.34409 6.95655 8.00063 6.95655 8.00063L2.34314 13.6575Z" fill="black"/>
<path d="M6.95707 7.99959L1.06157 4.01562C0.878789 4.33334 0.717602 4.66497 0.579102 5.00822L3.56376 7.99963L0.579195 10.9912C0.71757 11.3342 0.878602 11.6656 1.06126 11.9831L6.95707 7.99959Z" fill="#FFDA44"/>
<path d="M15.9321 6.95703H6.95614L2.34289 2.34375C1.84577 2.84087 1.41386 3.40309 1.06086 4.01656L5.03708 8.0005L1.06055 11.9839C1.41355 12.5976 1.84564 13.16 2.34289 13.6572L6.95614 9.04397H15.9321C15.9766 8.70241 15.9998 8.35416 15.9998 8.0005C15.9998 7.64684 15.9766 7.29859 15.9321 6.95703Z" fill="#6DA544"/>
<path d="M3.12891 14.3451C4.47794 15.3821 6.16659 15.999 7.99959 15.999C11.6958 15.999 14.806 13.4921 15.724 10.0859H7.38813L3.12891 14.3451Z" fill="#0052B4"/>
<path d="M15.724 5.91205C14.806 2.50593 11.6958 -0.000976562 7.99959 -0.000976562C6.16659 -0.000976562 4.47794 0.61593 3.12891 1.65287L7.38809 5.91205H15.724Z" fill="#D80027"/>
</g>
<defs>
<clipPath id="clip0_36251_6927">
<rect width="16" height="16" fill="white"/>
</clipPath>
</defs>
</svg>
