<svg width="16" height="16" viewBox="0 0 16 16" fill="none" xmlns="http://www.w3.org/2000/svg">
<g clip-path="url(#clip0_36251_6899)">
<path d="M16 8C16 12.4183 12.4183 16 8 16C3.58175 16 0 12.4183 0 8C0 8.00191 8 0.000875 8 0C12.4183 0 16 3.58175 16 8Z" fill="#0052B4"/>
<path d="M7.97852 7.99996H7.99996C7.99996 7.99276 7.99996 7.98575 7.99996 7.97852C7.99282 7.98568 7.98568 7.99282 7.97852 7.99996Z" fill="#F0F0F0"/>
<path d="M8 4.17391C8 2.76625 8 1.84391 8 0H7.99865C3.58097 0.00075 0 3.58216 0 8H4.1739V5.64966L6.52425 8H7.97862C7.98575 7.99287 7.99287 7.98575 8.00003 7.97859C8.00003 7.43963 8.00003 6.95872 8.00003 6.52431L5.64962 4.17391H8Z" fill="#F0F0F0"/>
<path d="M4.04782 1.04297C2.7966 1.75544 1.75638 2.79563 1.04395 4.04685V7.99951H3.13091V3.13V3.12994H8.00048C8.00048 2.47172 8.00048 1.84466 8.00048 1.04297H4.04782V1.04297Z" fill="#D80027"/>
<path d="M8.0009 7.01611L5.15855 4.17383H4.1748V4.17389L8.00084 7.99989H8.0009C8.0009 7.99989 8.0009 7.32155 8.0009 7.01611Z" fill="#D80027"/>
<path d="M12.5217 4.86901L11.4782 5.21685L10.4347 4.86901L10.0869 3.99945L10.4347 3.12988H12.5217L12.1739 3.99945L12.5217 4.86901Z" fill="#ACABB1"/>
<path d="M9.04297 4.86914V8.69521C9.04297 10.559 11.4778 11.13 11.4778 11.13C11.4778 11.13 13.9125 10.559 13.9125 8.69521V4.86914H9.04297Z" fill="#338AF3"/>
<path d="M9.2627 9.60111C9.86119 10.7501 11.478 11.1295 11.478 11.1295C11.478 11.1295 13.0948 10.7501 13.6933 9.60111L11.478 5.91211L9.2627 9.60111Z" fill="#6DA544"/>
<path d="M13.9125 8.65655L11.4778 4.86914L9.04297 8.65658V8.6952C9.04297 9.04014 9.12653 9.3407 9.26244 9.60164L11.4778 6.15555L13.6931 9.60161C13.829 9.34064 13.9125 9.04011 13.9125 8.69517V8.65655Z" fill="#FFDA44"/>
</g>
<defs>
<clipPath id="clip0_36251_6899">
<rect width="16" height="16" fill="white"/>
</clipPath>
</defs>
</svg>
