<svg width="16" height="16" viewBox="0 0 16 16" fill="none" xmlns="http://www.w3.org/2000/svg">
<g clip-path="url(#clip0_36251_6840)">
<path d="M7.9998 15.9986C12.4174 15.9986 15.9986 12.4174 15.9986 7.9998C15.9986 3.58217 12.4174 0.000976562 7.9998 0.000976562C3.58217 0.000976562 0.000976562 3.58217 0.000976562 7.9998C0.000976562 12.4174 3.58217 15.9986 7.9998 15.9986Z" fill="#F0F0F0"/>
<path d="M1.07326 4.00098C0.712221 4.62624 0.445902 5.27994 0.268555 5.9458L13.6457 13.6691C14.1336 13.1826 14.5666 12.625 14.9276 11.9998L1.07326 4.00098Z" fill="black"/>
<path d="M11.9992 1.0728C8.7986 -0.775018 4.85226 -0.159161 2.35449 2.33127L15.7316 10.0545C16.6395 6.64627 15.1997 2.92065 11.9992 1.0728Z" fill="#FFDA44"/>
<path d="M4.0002 14.9261C7.20071 16.774 11.1471 16.1581 13.6448 13.6677L0.267716 5.94434C-0.640148 9.35269 0.799633 13.0783 4.0002 14.9261Z" fill="#FFDA44"/>
<path d="M10.2605 7.131C10.2605 8.37943 9.24845 9.39154 7.99999 9.39154C6.75152 9.39154 5.73944 8.37946 5.73944 7.131C5.73944 6.74174 5.83785 6.37545 6.01117 6.05566C5.52062 6.55733 5.21777 7.24334 5.21777 8.00042C5.21777 9.53698 6.46339 10.7826 7.99999 10.7826C9.53658 10.7826 10.7822 9.53702 10.7822 8.00042C10.7822 7.24334 10.4794 6.55733 9.98881 6.05566C10.1621 6.37551 10.2605 6.74174 10.2605 7.131Z" fill="#D80027"/>
<path d="M8.52185 4.52246H7.47852V9.7391H8.52185V4.52246Z" fill="#D80027"/>
<path d="M9.73848 5.56543H6.26074C6.26074 5.80553 6.4699 6.00016 6.70997 6.00016H6.69547C6.69547 6.24026 6.89013 6.43488 7.1302 6.43488C7.1302 6.67498 7.32486 6.86961 7.56493 6.86961H8.43436C8.67446 6.86961 8.86908 6.67498 8.86908 6.43488C9.10918 6.43488 9.30381 6.24026 9.30381 6.00016H9.28934C9.52935 6.00013 9.73848 5.80556 9.73848 5.56543Z" fill="#D80027"/>
<path d="M10.4353 10.0869H5.56641V11.1303H10.4353V10.0869Z" fill="#D80027"/>
<path d="M11.1296 10.4336H9.04297V11.4769H11.1296V10.4336Z" fill="#D80027"/>
<path d="M6.95676 10.4346H4.87012V11.4779H6.95676V10.4346Z" fill="#D80027"/>
</g>
<defs>
<clipPath id="clip0_36251_6840">
<rect width="16" height="16" fill="white"/>
</clipPath>
</defs>
</svg>
