<svg width="16" height="16" viewBox="0 0 16 16" fill="none" xmlns="http://www.w3.org/2000/svg">
<g clip-path="url(#clip0_36251_7007)">
<path d="M8 16C12.4183 16 16 12.4183 16 8C16 3.58172 12.4183 0 8 0C3.58172 0 0 3.58172 0 8C0 12.4183 3.58172 16 8 16Z" fill="#496E2D"/>
<path d="M11.1304 7.99902H8V15.999C8.93512 15.999 9.83253 15.8381 10.6667 15.5432L11.1304 7.99902Z" fill="#D80027"/>
<path d="M13.3339 13.9623C14.9704 12.4975 16.0006 10.3692 16.0006 8H12.8701L13.3339 13.9623Z" fill="#FF9811"/>
<path d="M10.667 8V15.5442C11.6607 15.1929 12.5642 14.6511 13.3337 13.9623V8H10.667Z" fill="black"/>
<path d="M14.783 5.21714H12.6961C12.6961 4.83295 12.3846 4.52148 12.0004 4.52148C11.6162 4.52148 11.3047 4.83295 11.3047 5.21714H9.21777C9.21777 5.60136 9.55243 5.9128 9.93659 5.9128H9.91343C9.91343 6.29702 10.2248 6.60845 10.6091 6.60845C10.6091 6.99267 10.9205 7.30411 11.3047 7.30411H12.6961C13.0802 7.30411 13.3917 6.99267 13.3917 6.60845C13.7759 6.60845 14.0874 6.29702 14.0874 5.9128H14.0642C14.4484 5.91277 14.783 5.60133 14.783 5.21714Z" fill="#FF9811"/>
</g>
<defs>
<clipPath id="clip0_36251_7007">
<rect width="16" height="16" fill="white"/>
</clipPath>
</defs>
</svg>
