<svg width="16" height="16" viewBox="0 0 16 16" fill="none" xmlns="http://www.w3.org/2000/svg">
<g clip-path="url(#clip0_36251_6792)">
<path d="M16 8C16 12.4183 12.4183 16 8 16C3.58175 16 0 12.4183 0 8C2.74781 5.25219 5.07825 2.92175 8 0C12.4183 0 16 3.58175 16 8Z" fill="#D80027"/>
<path d="M8 8C8 3.58175 8 3.06087 8 0C3.58175 0 0 3.58175 0 8H8Z" fill="#0052B4"/>
<path d="M6.40699 5.21777L6.53652 5.61637H6.95559L6.61652 5.86265L6.74605 6.26124L6.40699 6.0149L6.06793 6.26124L6.19746 5.86265L5.8584 5.61637H6.27746L6.40699 5.21777Z" fill="#F0F0F0"/>
<path d="M4.30299 2.08789L4.51883 2.75223H5.21733L4.6522 3.1627L4.86811 3.82702L4.30299 3.41642L3.73789 3.82702L3.95377 3.1627L3.38867 2.75223H4.08711L4.30299 2.08789Z" fill="#F0F0F0"/>
<path d="M6.3899 2.78418L6.60574 3.44856H7.30421L6.73912 3.85902L6.95496 4.52334L6.3899 4.11274L5.82481 4.52334L6.04068 3.85902L5.47559 3.44856H6.17402L6.3899 2.78418Z" fill="#F0F0F0"/>
<path d="M4.74048 5.56641L4.95636 6.23075H5.6548L5.0897 6.64122L5.30558 7.30553L4.74048 6.89497L4.17539 7.30553L4.39127 6.64122L3.82617 6.23075H4.52464L4.74048 5.56641Z" fill="#F0F0F0"/>
<path d="M2.91135 3.82715L3.12723 4.49149H3.8257L3.26057 4.90196L3.47645 5.56627L2.91135 5.15571L2.34629 5.56627L2.56213 4.90196L1.99707 4.49149H2.69551L2.91135 3.82715Z" fill="#F0F0F0"/>
</g>
<defs>
<clipPath id="clip0_36251_6792">
<rect width="16" height="16" fill="white"/>
</clipPath>
</defs>
</svg>
