<svg width="16" height="16" viewBox="0 0 16 16" fill="none" xmlns="http://www.w3.org/2000/svg">
<g clip-path="url(#clip0_36251_6785)">
<path d="M15.7244 10.0868C15.9037 9.42137 16 8.72193 16 7.99984C16 7.27774 15.9037 6.5783 15.7244 5.91287L7.30434 0.0302734C5.74119 0.164961 4.30672 0.749023 3.13044 1.6528L0.275594 5.91287C0.09625 6.5783 0 7.27774 0 7.99984C0 8.71771 0.0950938 9.4133 0.272438 10.0752L3.13041 14.3469C4.30669 15.2506 5.74116 15.8347 7.30431 15.9694L15.7244 10.0868Z" fill="#FFDA44"/>
<path d="M0.275391 10.0869C0.738266 11.8044 1.75842 13.2929 3.13023 14.347V10.0869H0.275391Z" fill="#0052B4"/>
<path d="M7.30371 15.9695C7.53302 15.9893 7.76493 16 7.99937 16C11.6956 16 14.8058 13.493 15.7238 10.0869H7.30371V15.9695Z" fill="#0052B4"/>
<path d="M15.7238 5.91303C14.8058 2.50691 11.6956 0 7.99937 0C7.76493 0 7.53302 0.0106875 7.30371 0.0304375V5.91303H15.7238V5.91303Z" fill="#0052B4"/>
<path d="M3.13023 1.65332C1.75842 2.70738 0.738266 4.19591 0.275391 5.91338H3.13023V1.65332Z" fill="#0052B4"/>
<path d="M15.9323 6.95583H6.26091H6.26088V0.189453C5.52156 0.353391 4.82066 0.619109 4.17391 0.972016V6.9558H0.0677188C0.0231875 7.29739 0 7.64564 0 7.9993C0 8.35295 0.0231875 8.7012 0.0677188 9.04277H4.17387H4.17391V15.0265C4.82066 15.3794 5.52156 15.6452 6.26088 15.8091V9.04286V9.0428H15.9323C15.9768 8.7012 16 8.35295 16 7.9993C16 7.64564 15.9768 7.29739 15.9323 6.95583Z" fill="#D80027"/>
</g>
<defs>
<clipPath id="clip0_36251_6785">
<rect width="16" height="16" fill="white"/>
</clipPath>
</defs>
</svg>
