<svg width="16" height="16" viewBox="0 0 16 16" fill="none" xmlns="http://www.w3.org/2000/svg">
<g clip-path="url(#clip0_36251_6781)">
<path d="M10.7823 0.497594C9.91568 0.176031 8.9783 0 7.99974 0C7.02117 0 6.0838 0.176031 5.21714 0.497594L4.52148 8L5.21714 15.5024C6.0838 15.824 7.02117 16 7.99974 16C8.9783 16 9.91568 15.824 10.7823 15.5024L11.478 8L10.7823 0.497594Z" fill="#FFDA44"/>
<path d="M15.9996 8.00042C15.9996 4.56073 13.8286 1.62836 10.7822 0.498047V15.5029C13.8286 14.3725 15.9996 11.4402 15.9996 8.00042Z" fill="#D80027"/>
<path d="M0 7.99944C0 11.4392 2.171 14.3715 5.21741 15.5019V0.49707C2.171 1.62738 0 4.55976 0 7.99944Z" fill="#6DA544"/>
</g>
<defs>
<clipPath id="clip0_36251_6781">
<rect width="16" height="16" fill="white"/>
</clipPath>
</defs>
</svg>
