<svg width="16" height="16" viewBox="0 0 16 16" fill="none" xmlns="http://www.w3.org/2000/svg">
<g clip-path="url(#clip0_36251_6837)">
<path d="M8 16C12.4183 16 16 12.4183 16 8C16 3.58172 12.4183 0 8 0C3.58172 0 0 3.58172 0 8C0 12.4183 3.58172 16 8 16Z" fill="#F0F0F0"/>
<path d="M8 0C3.58175 0 0 3.58175 0 8C0 8.97856 0.176031 9.91597 0.497594 10.7826H15.5024C15.824 9.91597 16 8.97856 16 8C16 3.58175 12.4183 0 8 0Z" fill="#0052B4"/>
<path d="M8.00045 0C4.56073 0 1.62839 2.171 0.498047 5.21741H15.5029C14.3725 2.171 11.4402 0 8.00045 0Z" fill="#D80027"/>
<path d="M2.06934 4.52246V8.51327C2.06934 10.7834 5.03499 11.479 5.03499 11.479C5.03499 11.479 8.00062 10.7834 8.00062 8.51327V4.52246H2.06934Z" fill="#D80027"/>
<path d="M3.29492 5.21783H6.7732V3.82652L6.07755 4.17433L5.03408 3.13086L3.99058 4.17433L3.29492 3.82652V5.21783Z" fill="#FFDA44"/>
<path d="M7.30398 9.06849L5.0431 6.80762L2.78223 9.06849L3.52007 9.80634L5.0431 8.28331L6.56613 9.80634L7.30398 9.06849Z" fill="#FFDA44"/>
<path d="M7.30398 6.95649H6.2491C6.30841 6.85412 6.34291 6.73555 6.34291 6.60874C6.34291 6.22449 6.03144 5.91309 5.64726 5.91309C5.38179 5.91309 5.15126 6.06177 5.03398 6.28037C4.91669 6.0618 4.68616 5.91309 4.42069 5.91309C4.03651 5.91309 3.72504 6.22449 3.72504 6.60874C3.72504 6.73555 3.75954 6.85415 3.81885 6.95649H2.78223C2.78223 7.34071 3.11688 7.65215 3.50104 7.65215H3.47788C3.47788 8.03637 3.78932 8.3478 4.17354 8.3478C4.17354 8.68799 4.41785 8.97062 4.74051 9.03112L4.19238 10.2687C4.45507 10.3755 4.74213 10.4348 5.04313 10.4348C5.34413 10.4348 5.63119 10.3755 5.89388 10.2687L5.34576 9.03112C5.66841 8.97068 5.91273 8.68802 5.91273 8.3478C6.29694 8.3478 6.60838 8.03637 6.60838 7.65215H6.58523C6.96935 7.65215 7.30398 7.34068 7.30398 6.95649Z" fill="#F0F0F0"/>
</g>
<defs>
<clipPath id="clip0_36251_6837">
<rect width="16" height="16" fill="white"/>
</clipPath>
</defs>
</svg>
