<svg width="16" height="16" viewBox="0 0 16 16" fill="none" xmlns="http://www.w3.org/2000/svg">
<g clip-path="url(#clip0_36251_6839)">
<path d="M16 8C16 12.4183 12.4183 16 8 16C3.58175 16 0 12.4183 0 8C0 8.00191 8 0.000875 8 0C12.4183 0 16 3.58175 16 8Z" fill="#0052B4"/>
<path d="M7.97852 7.99996H7.99996C7.99996 7.99276 7.99996 7.98575 7.99996 7.97852C7.99282 7.98568 7.98568 7.99282 7.97852 7.99996Z" fill="#F0F0F0"/>
<path d="M8 4.17391C8 2.76625 8 1.84391 8 0H7.99865C3.58097 0.00075 0 3.58216 0 8H4.1739V5.64966L6.52425 8H7.97862C7.98575 7.99287 7.99287 7.98575 8.00003 7.97859C8.00003 7.43963 8.00003 6.95872 8.00003 6.52431L5.64962 4.17391H8Z" fill="#F0F0F0"/>
<path d="M4.04684 1.04297C2.79563 1.75544 1.75541 2.79563 1.04297 4.04685V7.99951H3.12994V3.13V3.12994H7.9995C7.9995 2.47172 7.9995 1.84466 7.9995 1.04297H4.04684V1.04297Z" fill="#D80027"/>
<path d="M7.99894 7.01611L5.1566 4.17383H4.17285V4.17389L7.99888 7.99989H7.99894C7.99894 7.99989 7.99894 7.32155 7.99894 7.01611Z" fill="#D80027"/>
<path d="M13.5298 9.17092C13.7598 8.85442 13.9135 8.46792 13.9135 7.99986V4.52161C13.6228 4.73998 13.2616 4.86942 12.87 4.86942C12.3011 4.86942 11.796 4.5962 11.4787 4.17383C11.1614 4.5962 10.6563 4.86942 10.0874 4.86942C9.69585 4.86942 9.3346 4.73995 9.04395 4.52167V7.99986C9.04395 8.46792 9.1976 8.85442 9.42763 9.17092H13.5298Z" fill="#F3F3F3"/>
<path d="M12.806 7.35427C12.9167 7.08408 13.0029 6.68918 13.0029 6.49265C13.0029 6.17687 12.5912 5.9209 12.5912 5.9209C12.5912 5.9209 12.1795 6.17687 12.1795 6.49265C12.1795 6.68921 12.2656 7.08412 12.3763 7.35427L12.1387 7.89086C12.2784 7.94768 12.431 7.97924 12.5912 7.97924C12.7514 7.97924 12.904 7.94765 13.0437 7.89086L12.806 7.35427Z" fill="#FF9811"/>
<path d="M11.1974 5.61765C10.9081 5.65684 10.523 5.77981 10.3528 5.87806C10.0794 6.03596 10.0635 6.52043 10.0635 6.52043C10.0635 6.52043 10.491 6.74896 10.7645 6.59109C10.9347 6.4928 11.2336 6.2208 11.4121 5.9898L11.9958 5.9273C11.9751 5.77799 11.926 5.62996 11.846 5.4913C11.7659 5.35265 11.6623 5.23615 11.5432 5.14355L11.1974 5.61765Z" fill="#FF9811"/>
<path d="M10.4967 7.88046C10.6752 8.11134 10.9742 8.38331 11.1444 8.48162C11.4179 8.63949 11.8454 8.41102 11.8454 8.41102C11.8454 8.41102 11.8295 7.92649 11.5561 7.76859C11.3858 7.6703 11.0008 7.54746 10.7115 7.50834L10.3656 7.03418C10.2466 7.12674 10.143 7.2433 10.0629 7.38184C9.98284 7.52056 9.93384 7.66852 9.91309 7.81793L10.4967 7.88046Z" fill="#FF9811"/>
<path d="M9.34082 9.04395C9.99045 10.0863 11.478 10.4352 11.478 10.4352C11.478 10.4352 12.9655 10.0863 13.6151 9.04395H9.34082Z" fill="#338AF3"/>
</g>
<defs>
<clipPath id="clip0_36251_6839">
<rect width="16" height="16" fill="white"/>
</clipPath>
</defs>
</svg>
