<svg width="16" height="16" viewBox="0 0 16 16" fill="none" xmlns="http://www.w3.org/2000/svg">
<g clip-path="url(#clip0_36251_6907)">
<path d="M8 16C12.4183 16 16 12.4183 16 8C16 3.58172 12.4183 0 8 0C3.58172 0 0 3.58172 0 8C0 12.4183 3.58172 16 8 16Z" fill="#F0F0F0"/>
<path d="M4.32346 11.1309L2.34277 13.657C3.7904 15.1048 5.79018 16.0004 7.99937 16.0004C11.3066 16.0004 14.1445 13.9933 15.3628 11.1309H4.32346Z" fill="#FFDA44"/>
<path d="M15.3753 4.89853C14.1637 2.02069 11.3177 0 7.99937 0C5.79018 0 3.7904 0.895594 2.34277 2.34341L4.34621 4.89853H15.3753Z" fill="#496E2D"/>
<path d="M1.73926 5.88379V10.0867H15.7246C15.904 9.42132 16.0001 8.72182 16.0001 7.99973C16.0001 7.26717 15.9014 6.55779 15.717 5.88379H1.73926Z" fill="black"/>
<path d="M2.34314 2.34277C-0.781047 5.46696 -0.781047 10.5323 2.34314 13.6565C3.63417 12.3655 4.87583 11.1238 8.00001 7.99965L2.34314 2.34277Z" fill="#A2001D"/>
<path d="M3.23829 5.91309L3.75626 7.50734H5.43269L4.07651 8.49271L4.59444 10.087L3.23829 9.10168L1.88207 10.087L2.40013 8.49271L1.04395 7.50734H2.72026L3.23829 5.91309Z" fill="#FFDA44"/>
<path d="M4.75368 8H1.72168V9.39131H4.75368V8Z" fill="#F0F0F0"/>
<path d="M5.32802 6.40502L4.83612 5.91309L3.23774 7.51146L1.63937 5.91309L1.14746 6.40502L2.74724 8.00196L1.14746 9.60177L1.63937 10.087L3.23774 8.49152L4.83612 10.087L5.32802 9.60177L3.72824 8.00196L5.32802 6.40502Z" fill="black"/>
</g>
<defs>
<clipPath id="clip0_36251_6907">
<rect width="16" height="16" fill="white"/>
</clipPath>
</defs>
</svg>
