<svg width="16" height="16" viewBox="0 0 16 16" fill="none" xmlns="http://www.w3.org/2000/svg">
<g clip-path="url(#clip0_36251_6963)">
<path d="M7.99998 16C12.4183 16 16 12.4183 16 7.99998C16 3.58172 12.4183 0 7.99998 0C3.58172 0 0 3.58172 0 7.99998C0 12.4183 3.58172 16 7.99998 16Z" fill="#FFDA44"/>
<path d="M6.26067 1.39062H3.49082C3.36807 1.47453 3.24795 1.56188 3.13023 1.65228L2.43457 7.99929L3.13023 14.3463C3.24795 14.4367 3.36807 14.5241 3.49082 14.608H6.26067V1.39062Z" fill="#FF9811"/>
<path d="M0 8.00036C0 10.5862 1.22713 12.885 3.13044 14.3474V1.65332C1.22713 3.11576 0 5.41458 0 8.00036Z" fill="#6DA544"/>
<path d="M12.8691 4.87695V5.07729L12.8766 5.07842L12.8691 4.87695Z" fill="#FFDA44"/>
<path d="M15.3627 10.0863H13.8554L13.2177 10.7819V12.1732H11.8264V11.4776H12.5221V10.0863H9.39163V10.9558H8.69597V9.29861C8.48253 9.10755 8.34816 8.83002 8.34816 8.52105V3.99932C8.34816 3.42304 8.81535 2.95585 9.39163 2.95585V9.39064H10.7829L11.2603 8.9928C11.1769 8.7942 11.1308 8.57611 11.1308 8.34717V7.3037H10.0873V5.21676H12.1742C12.1742 4.86894 12.696 4.5211 12.696 4.5211C12.696 4.5211 13.2177 4.86891 13.2177 5.21676V5.73851V7.30373C13.6047 7.30833 14.2195 7.29829 14.8837 7.30373C14.7092 6.99873 14.609 6.63682 14.609 6.26026C14.609 5.64648 14.874 5.09466 15.2958 4.71279C14.6878 3.36544 13.7176 2.21663 12.5093 1.39062H7.30469V14.608H12.5093C13.9787 13.6036 15.0958 12.122 15.6378 10.3865L15.3627 10.0863Z" fill="#A2001D"/>
</g>
<defs>
<clipPath id="clip0_36251_6963">
<rect width="16" height="16" fill="white"/>
</clipPath>
</defs>
</svg>
