<svg width="16" height="16" viewBox="0 0 16 16" fill="none" xmlns="http://www.w3.org/2000/svg">
<g clip-path="url(#clip0_36251_6797)">
<path d="M0.49707 10.7835C1.62741 13.8299 4.55976 16.0009 7.99948 16.0009C11.4392 16.0009 14.3715 13.8299 15.5019 10.7835L7.99948 10.0879L0.49707 10.7835Z" fill="#FFDA44"/>
<path d="M7.99948 0C4.55976 0 1.62741 2.171 0.49707 5.21741L7.99948 5.91303L15.5019 5.21737C14.3715 2.171 11.4392 0 7.99948 0Z" fill="black"/>
<path d="M0.497594 5.2168C0.176031 6.08345 0 7.02083 0 7.99939C0 8.97795 0.176031 9.91533 0.497594 10.782H15.5024C15.824 9.91533 16 8.97795 16 7.99939C16 7.02083 15.824 6.08345 15.5024 5.2168H0.497594Z" fill="#D80027"/>
</g>
<defs>
<clipPath id="clip0_36251_6797">
<rect width="16" height="16" fill="white"/>
</clipPath>
</defs>
</svg>
