<svg width="16" height="16" viewBox="0 0 16 16" fill="none" xmlns="http://www.w3.org/2000/svg">
<g clip-path="url(#clip0_36251_6911)">
<path d="M8 16C12.4183 16 16 12.4183 16 8C16 3.58172 12.4183 0 8 0C3.58172 0 0 3.58172 0 8C0 12.4183 3.58172 16 8 16Z" fill="#FFDA44"/>
<path d="M4.87088 5.21643H15.5037C14.3734 2.17002 11.441 -0.000976562 8.00132 -0.000976562C5.79213 -0.000976562 3.79235 0.894617 2.34473 2.34243L4.87088 5.21643Z" fill="#338AF3"/>
<path d="M4.86991 10.7812H15.5027C14.3724 13.8277 11.44 15.9987 8.00034 15.9987C5.79116 15.9987 3.79138 15.1031 2.34375 13.6553L4.86991 10.7812Z" fill="#338AF3"/>
<path d="M2.34314 2.34277C-0.781047 5.46696 -0.781047 10.5323 2.34314 13.6565C3.63417 12.3655 4.87583 11.1238 8.00001 7.99965L2.34314 2.34277Z" fill="black"/>
</g>
<defs>
<clipPath id="clip0_36251_6911">
<rect width="16" height="16" fill="white"/>
</clipPath>
</defs>
</svg>
