<svg width="16" height="16" viewBox="0 0 16 16" fill="none" xmlns="http://www.w3.org/2000/svg">
<g clip-path="url(#clip0_36251_6793)">
<path d="M15.2062 11.4772C15.7147 10.4255 16 9.24551 16 7.99895C16 6.75239 15.7147 5.57242 15.2062 4.5207L8 4.17285L0.793813 4.52066C0.28525 5.57242 0 6.75239 0 7.99895C0 9.24551 0.28525 10.4255 0.793813 11.4772L8 11.825L15.2062 11.4772Z" fill="#FFDA44"/>
<path d="M8.00013 0C4.82844 0 2.08795 1.84578 0.793945 4.52175H15.2063C13.9123 1.84578 11.1718 0 8.00013 0Z" fill="black"/>
<path d="M8.00013 15.9993C4.82844 15.9993 2.08795 14.1535 0.793945 11.4775H15.2063C13.9123 14.1535 11.1718 15.9993 8.00013 15.9993Z" fill="#0052B4"/>
<path d="M15.6222 5.56543H0.377781C0.132719 6.33321 0 7.15118 0 8.00021C0 8.84924 0.132719 9.66721 0.377781 10.435H15.6222C15.8673 9.66721 16 8.84924 16 8.00021C16 7.15118 15.8673 6.33321 15.6222 5.56543Z" fill="#A2001D"/>
<path d="M13.217 7.65234H2.78223V8.348H13.217V7.65234Z" fill="#FFDA44"/>
<path d="M11.826 6.26074H4.17383V6.9564H11.826V6.26074Z" fill="#FFDA44"/>
<path d="M11.8758 8.00005C11.8758 8.00005 10.087 10.087 8.00006 10.087C5.91312 10.087 5.91309 8.00005 5.91309 8.00005C5.91309 8.00005 5.91309 5.91309 8.00006 5.91309C10.087 5.91309 11.8758 8.00005 11.8758 8.00005Z" fill="#F0F0F0"/>
<path d="M7.9998 10.087C5.91284 10.087 4.12402 8.00005 4.12402 8.00005C4.12402 8.00005 5.91284 5.91309 7.9998 5.91309" fill="black"/>
<path d="M7.30405 7.30469H6.6084V8.696H7.30405V7.30469Z" fill="#F0F0F0"/>
<path d="M9.39097 7.30469H8.69531V8.696H9.39097V7.30469Z" fill="black"/>
<path d="M2.78257 8.696C3.16677 8.696 3.47823 8.38454 3.47823 8.00034C3.47823 7.61614 3.16677 7.30469 2.78257 7.30469C2.39837 7.30469 2.08691 7.61614 2.08691 8.00034C2.08691 8.38454 2.39837 8.696 2.78257 8.696Z" fill="#0052B4"/>
<path d="M13.2181 8.696C13.6023 8.696 13.9138 8.38454 13.9138 8.00034C13.9138 7.61614 13.6023 7.30469 13.2181 7.30469C12.8339 7.30469 12.5225 7.61614 12.5225 8.00034C12.5225 8.38454 12.8339 8.696 13.2181 8.696Z" fill="#0052B4"/>
</g>
<defs>
<clipPath id="clip0_36251_6793">
<rect width="16" height="16" fill="white"/>
</clipPath>
</defs>
</svg>
