<svg width="16" height="16" viewBox="0 0 16 16" fill="none" xmlns="http://www.w3.org/2000/svg">
<g clip-path="url(#clip0_36251_6848)">
<path d="M0 7.99908C0 8.54705 0.05525 9.08211 0.160219 9.59908L8 10.086L15.8398 9.59908C15.9448 9.08211 16 8.54705 16 7.99908C16 7.45111 15.9447 6.91605 15.8398 6.39908L8 5.91211L0.160219 6.39908C0.05525 6.91605 0 7.45111 0 7.99908Z" fill="#0052B4"/>
<path d="M15.8397 9.59961H0.160156C0.901375 13.2512 4.12966 15.9996 7.99994 15.9996C11.8702 15.9996 15.0985 13.2512 15.8397 9.59961Z" fill="#F0F0F0"/>
<path d="M0.160156 6.4H15.8398C15.0985 2.74844 11.8703 0 7.99994 0C4.12959 0 0.901375 2.74844 0.160156 6.4Z" fill="black"/>
<path d="M11.478 6.39966H4.52148L5.94274 5.7311L5.18589 4.3547L6.72917 4.64985L6.9248 3.09082L7.99974 4.23751L9.07474 3.09082L9.27024 4.64985L10.8136 4.3547L10.0568 5.73116L11.478 6.39966Z" fill="#FFDA44"/>
<path d="M0 8.00048C0 12.4187 3.58175 16.0005 8 16.0005L1.59987 3.2002C0.595375 4.53735 0 6.19932 0 8.00048Z" fill="#A2001D"/>
<path d="M8 15.9995C12.4183 15.9995 16 12.4178 16 7.9995C16 6.19834 15.4046 4.53638 14.4001 3.19922L8 15.9995Z" fill="#A2001D"/>
</g>
<defs>
<clipPath id="clip0_36251_6848">
<rect width="16" height="16" fill="white"/>
</clipPath>
</defs>
</svg>
