<svg width="16" height="16" viewBox="0 0 16 16" fill="none" xmlns="http://www.w3.org/2000/svg">
<g clip-path="url(#clip0_36251_6887)">
<path d="M10.7832 0.497625C9.91649 0.176031 8.97909 0 8.00049 0C7.02196 0 6.08459 0.176031 5.21796 0.497562L4.87012 8L5.21793 15.5024C6.08459 15.824 7.02196 16 8.00049 16C8.97912 16 9.91649 15.824 10.7832 15.5024L11.131 8L10.7832 0.497625Z" fill="#FFDA44"/>
<path d="M0 8.00048C0 11.4402 2.171 14.3725 5.21741 15.5029V0.498047C2.171 1.62842 0 4.56073 0 8.00048Z" fill="#D80027"/>
<path d="M15.9996 8.00048C15.9996 4.56073 13.8286 1.62842 10.7822 0.498047V15.5029C13.8286 14.3725 15.9996 11.4402 15.9996 8.00048Z" fill="#6DA544"/>
</g>
<defs>
<clipPath id="clip0_36251_6887">
<rect width="16" height="16" fill="white"/>
</clipPath>
</defs>
</svg>
