<svg width="16" height="16" viewBox="0 0 16 16" fill="none" xmlns="http://www.w3.org/2000/svg">
<g clip-path="url(#clip0_36251_6852)">
<path d="M0 8C0 3.58175 3.58175 0 8 0C12.4183 0 16 3.58175 16 8" fill="#D80027"/>
<path d="M10.782 7.44L9.64495 7.97478L10.2505 9.076L9.0158 8.83978L8.85936 10.087L7.99939 9.16969L7.13939 10.087L6.98298 8.83978L5.74833 9.07594L6.3538 7.97478L5.2168 7.44L6.3538 6.90513L5.74833 5.80403L6.98295 6.04016L7.13942 4.79297L7.99939 5.71025L8.85939 4.79297L9.0158 6.04016L10.2505 5.80403L9.64505 6.90522L10.782 7.44Z" fill="#FFDA44"/>
<path d="M10.087 2.60866H8.52181C8.52181 2.32057 8.28818 2.08691 8.00005 2.08691C7.71193 2.08691 7.4783 2.32054 7.4783 2.60866H5.91309C5.91309 2.89679 6.16409 3.13041 6.45221 3.13041H6.4348C6.4348 3.41854 6.66837 3.65216 6.95655 3.65216C6.95655 3.94029 7.19012 4.17391 7.4783 4.17391H8.52177C8.80987 4.17391 9.04352 3.94032 9.04352 3.65216C9.33162 3.65216 9.56527 3.41857 9.56527 3.13041H9.54787C9.83602 3.13041 10.087 2.89682 10.087 2.60866Z" fill="#FFDA44"/>
<path d="M16 8C16 12.4182 12.4183 16 8 16C3.58175 16 0 12.4182 0 8C0.347813 8 16 8 16 8Z" fill="#F0F0F0"/>
<path d="M8.00094 16.0003C10.5016 16.0003 12.7339 14.8527 14.201 13.0557C13.9371 12.8758 13.7947 12.585 13.3342 12.585C12.6675 12.585 12.6675 13.1945 12.0009 13.1945C11.3342 13.1945 11.3342 12.585 10.6676 12.585C10.0009 12.585 10.0009 13.1945 9.33425 13.1945C8.66756 13.1945 8.66753 12.585 8.00081 12.585C7.33416 12.585 7.33416 13.1945 6.66753 13.1945C6.00097 13.1945 6.00097 12.585 5.33431 12.585C4.66759 12.585 4.66759 13.1945 4.00087 13.1945C3.33416 13.1945 3.33416 12.585 2.66744 12.585C2.207 12.585 2.06453 12.8757 1.80078 13.0556C3.26778 14.8527 5.50022 16.0003 8.00094 16.0003Z" fill="#0052B4"/>
<path d="M14.6669 9.02069C14.0002 9.02069 14.0002 8.41113 13.3336 8.41113C12.6669 8.41113 12.6669 9.02069 12.0003 9.02069C11.3336 9.02069 11.3336 8.41113 10.667 8.41113C10.0003 8.41113 10.0003 9.02069 9.33365 9.02069C8.66696 9.02069 8.66693 8.41113 8.00021 8.41113C7.33355 8.41113 7.33355 9.02069 6.66693 9.02069C6.00037 9.02069 6.00037 8.41113 5.33371 8.41113C4.66699 8.41113 4.66699 9.02069 4.00027 9.02069C3.33355 9.02069 3.33355 8.41113 2.66684 8.41113C2.00027 8.41113 2.00027 9.02069 1.33362 9.02069C0.670555 9.02069 0.666711 8.41785 0.0107422 8.41141C0.0292109 8.77735 0.0728984 9.1366 0.138961 9.48791C0.670336 9.566 0.716867 10.0873 1.33365 10.0873C2.0003 10.0873 2.0003 9.47785 2.66687 9.47785C3.33359 9.47785 3.33359 10.0873 4.0003 10.0873C4.66702 10.0873 4.66702 9.47785 5.33374 9.47785C6.0004 9.47785 6.0004 10.0873 6.66696 10.0873C7.33362 10.0873 7.33362 9.47785 8.00024 9.47785C8.66696 9.47785 8.66696 10.0873 9.33368 10.0873C10.0004 10.0873 10.0004 9.47785 10.667 9.47785C11.3337 9.47785 11.3337 10.0873 12.0003 10.0873C12.6669 10.0873 12.667 9.47785 13.3336 9.47785C14.0003 9.47785 14.0003 10.0873 14.6669 10.0873C15.2838 10.0873 15.3303 9.56604 15.8617 9.48794C15.9278 9.1366 15.9714 8.77738 15.99 8.41144C15.3339 8.41791 15.33 9.02069 14.6669 9.02069Z" fill="#0052B4"/>
<path d="M13.3338 10.498C12.6672 10.498 12.6672 11.1076 12.0005 11.1076C11.3339 11.1076 11.3339 10.498 10.6673 10.498C10.0006 10.498 10.0006 11.1076 9.33392 11.1076C8.6672 11.1076 8.6672 10.498 8.00048 10.498C7.33383 10.498 7.33383 11.1076 6.6672 11.1076C6.00064 11.1076 6.00064 10.498 5.33398 10.498C4.66727 10.498 4.66727 11.1076 4.00055 11.1076C3.33383 11.1076 3.33383 10.498 2.66711 10.498C2.00055 10.498 2.00055 11.1076 1.33389 11.1076C0.857547 11.1076 0.721484 10.7965 0.439453 10.6187C0.627203 11.1612 0.871453 11.6772 1.16561 12.1596C1.21677 12.169 1.27245 12.1743 1.33389 12.1743C2.00055 12.1743 2.00055 11.5648 2.66711 11.5648C3.33383 11.5648 3.33383 12.1743 4.00055 12.1743C4.66727 12.1743 4.66727 11.5648 5.33398 11.5648C6.00064 11.5648 6.00064 12.1743 6.6672 12.1743C7.33386 12.1743 7.33386 11.5648 8.00048 11.5648C8.6672 11.5648 8.6672 12.1743 9.33392 12.1743C10.0006 12.1743 10.0006 11.5648 10.6673 11.5648C11.3339 11.5648 11.3339 12.1743 12.0005 12.1743C12.6672 12.1743 12.6672 11.5648 13.3338 11.5648C14.0005 11.5648 14.0005 12.1743 14.6672 12.1743C14.7287 12.1743 14.7844 12.169 14.8355 12.1596C15.1297 11.6772 15.3739 11.1612 15.5617 10.6188C15.2797 10.7964 15.1436 11.1076 14.6672 11.1076C14.0005 11.1076 14.0005 10.498 13.3338 10.498Z" fill="#0052B4"/>
<path d="M15.9752 7.3669C15.3336 7.38205 15.3248 7.97577 14.6666 7.97577C13.9999 7.97577 13.9999 7.36621 13.3332 7.36621C12.6666 7.36621 12.6666 7.97577 11.9999 7.97577C11.3333 7.97577 11.3333 7.36621 10.6667 7.36621C10 7.36621 10 7.97577 9.33331 7.97577C8.66662 7.97577 8.66659 7.36621 7.99988 7.36621C7.33322 7.36621 7.33322 7.97577 6.66659 7.97577C6.00003 7.97577 6.00003 7.36621 5.33337 7.36621C4.66666 7.36621 4.66666 7.97577 3.99994 7.97577C3.33322 7.97577 3.33322 7.36621 2.6665 7.36621C1.99994 7.36621 1.99994 7.97577 1.33328 7.97577C0.675188 7.97577 0.666281 7.38212 0.0247812 7.3669C0.0085 7.57546 0 7.78621 0 7.99893C0 8.14465 0.004125 8.28943 0.0119063 8.43321C0.666375 8.44056 0.670719 9.0424 1.33331 9.0424C1.99997 9.0424 1.99997 8.4329 2.66653 8.4329C3.33325 8.4329 3.33325 9.0424 3.99997 9.0424C4.66669 9.0424 4.66669 8.4329 5.33341 8.4329C6.00006 8.4329 6.00006 9.0424 6.66663 9.0424C7.33328 9.0424 7.33328 8.4329 7.99991 8.4329C8.66662 8.4329 8.66662 9.0424 9.33334 9.0424C10.0001 9.0424 10.0001 8.4329 10.6667 8.4329C11.3333 8.4329 11.3333 9.0424 12 9.0424C12.6666 9.0424 12.6666 8.4329 13.3333 8.4329C14 8.4329 14 9.0424 14.6666 9.0424C15.3292 9.0424 15.3336 8.44056 15.9882 8.43321C15.9959 8.2894 16 8.14465 16 7.99893C16 7.78621 15.9915 7.57546 15.9752 7.3669Z" fill="#F0F0F0"/>
</g>
<defs>
<clipPath id="clip0_36251_6852">
<rect width="16" height="16" fill="white"/>
</clipPath>
</defs>
</svg>
