<svg width="16" height="16" viewBox="0 0 16 16" fill="none" xmlns="http://www.w3.org/2000/svg">
<g clip-path="url(#clip0_36251_6946)">
<path d="M13.9623 13.3333C15.2292 11.9179 16 10.0491 16 7.99995C16 5.95082 15.2292 4.08198 13.9622 2.6666L8 2.08691L2.03775 2.6666C0.770781 4.08198 0 5.95082 0 7.99995C0 10.0491 0.77075 11.9179 2.03772 13.3333L8 13.913L13.9623 13.3333Z" fill="#FFDA44"/>
<path d="M2.03809 2.66666H13.9626C12.4978 1.03019 10.3695 0 8.00034 0C5.63118 0 3.5029 1.03019 2.03809 2.66666Z" fill="black"/>
<path d="M0 8.00067L8 8.69632L16 8.00067C16 7.06554 15.839 6.16811 15.5441 5.33398H0.455875C0.160969 6.16811 0 7.06554 0 8.00067Z" fill="#D80027"/>
<path d="M0.455875 10.6667H15.5442C15.839 9.83254 16 8.93513 16 8H0C0 8.93513 0.160969 9.83254 0.455875 10.6667Z" fill="black"/>
<path d="M13.9626 13.333H2.03809C3.5029 14.9695 5.63118 15.9997 8.00037 15.9997C10.3696 15.9997 12.4978 14.9695 13.9626 13.333Z" fill="#D80027"/>
<path d="M10.6692 8.00062C10.6692 9.47509 9.47411 10.6702 7.99964 10.6702C6.52517 10.6702 5.33008 9.47509 5.33008 8.00062C5.33008 6.52615 6.52517 5.33105 7.99964 5.33105C9.47411 5.33105 10.6692 6.52615 10.6692 8.00062Z" fill="#F0F0F0"/>
<path d="M8.97791 8.13609L7.99994 7.71231C7.99994 7.71231 8.22875 6.95284 8.24094 6.90087C8.24985 6.8629 8.2546 6.82331 8.2546 6.78262C8.2546 6.63852 8.19619 6.50809 8.10175 6.41371L8.34769 6.16777C8.19035 6.01043 7.97294 5.91309 7.73281 5.91309C7.49269 5.91309 7.27528 6.0104 7.11794 6.16777L7.36388 6.41371C7.26944 6.50812 7.21106 6.63856 7.21106 6.78262C7.21106 6.83531 7.21903 6.88609 7.23356 6.93406L6.86328 7.30431H7.53628C7.53628 7.30431 7.25803 7.72224 7.10613 8.06546C6.95422 8.40865 7.10822 8.82762 7.45928 8.98368L7.66228 9.0739L7.99994 9.39128V9.73909L7.65213 10.0869H8.34779V9.39125L8.66519 9.07384H9.32169C9.32485 9.06731 9.32816 9.06093 9.33116 9.05425C9.48713 8.70321 9.32901 8.29209 8.97791 8.13609Z" fill="black"/>
</g>
<defs>
<clipPath id="clip0_36251_6946">
<rect width="16" height="16" fill="white"/>
</clipPath>
</defs>
</svg>
