<svg width="16" height="16" viewBox="0 0 16 16" fill="none" xmlns="http://www.w3.org/2000/svg">
<g clip-path="url(#clip0_36251_6987)">
<path d="M8 16C12.4183 16 16 12.4183 16 8C16 3.58172 12.4183 0 8 0C3.58172 0 0 3.58172 0 8C0 12.4183 3.58172 16 8 16Z" fill="#F0F0F0"/>
<path d="M7.65234 7.99908H16.0002C16.0002 7.27698 15.9039 6.57755 15.7246 5.91211H7.65234V7.99908Z" fill="#D80027"/>
<path d="M7.65234 3.82525H14.826C14.3362 3.02612 13.7102 2.31978 12.9801 1.73828H7.65234V3.82525Z" fill="#D80027"/>
<path d="M7.99944 15.9989C9.88222 15.9989 11.6127 15.3481 12.9793 14.2598H3.01953C4.38612 15.3481 6.11666 15.9989 7.99944 15.9989Z" fill="#D80027"/>
<path d="M1.17398 12.1729H14.8256C15.2188 11.5314 15.5236 10.8301 15.7242 10.0859H0.275391C0.475922 10.8301 0.780828 11.5314 1.17398 12.1729Z" fill="#D80027"/>
<path d="M8 8C8 3.58175 8 3.06087 8 0C3.58175 0 0 3.58175 0 8H8Z" fill="#0052B4"/>
<path d="M5.31968 6.84659C4.22712 6.84659 3.34143 5.96088 3.34143 4.86834C3.34143 3.77581 4.22715 2.89009 5.31968 2.89009C5.66034 2.89009 5.98087 2.97625 6.26071 3.12787C5.82171 2.69859 5.22134 2.43359 4.55881 2.43359C3.21415 2.43359 2.12402 3.52369 2.12402 4.86838C2.12402 6.21306 3.21415 7.30316 4.55881 7.30316C5.22134 7.30316 5.82171 7.03816 6.26071 6.60888C5.98087 6.76044 5.66037 6.84659 5.31968 6.84659Z" fill="#FFDA44"/>
<path d="M5.87732 3.47754L6.22854 4.21198L7.02169 4.02873L6.66651 4.7612L7.30438 5.26704L6.51019 5.44607L6.51241 6.26016L5.87732 5.75085L5.24219 6.26016L5.24438 5.44607L4.4502 5.26704L5.08807 4.7612L4.73285 4.02873L5.52607 4.21198L5.87732 3.47754Z" fill="#FFDA44"/>
</g>
<defs>
<clipPath id="clip0_36251_6987">
<rect width="16" height="16" fill="white"/>
</clipPath>
</defs>
</svg>
