<svg width="16" height="16" viewBox="0 0 16 16" fill="none" xmlns="http://www.w3.org/2000/svg">
<g clip-path="url(#clip0_36251_6902)">
<path d="M16 7.99958C16 7.02101 15.824 6.08361 15.5024 5.21698L8 4.86914L0.497594 5.21695C0.176031 6.08361 0 7.02101 0 7.99958C0 8.97814 0.176031 9.91554 0.497594 10.7822L8 11.13L15.5024 10.7822C15.824 9.91554 16 8.97814 16 7.99958Z" fill="#D80027"/>
<path d="M8.00045 15.9996C11.4402 15.9996 14.3725 13.8286 15.5029 10.7822H0.498047C1.62839 13.8286 4.56073 15.9996 8.00045 15.9996Z" fill="#6DA544"/>
<path d="M0.498047 5.21643H15.5029C14.3725 2.17002 11.4402 -0.000976562 8.00045 -0.000976562C4.56073 -0.000976562 1.62839 2.17002 0.498047 5.21643Z" fill="#338AF3"/>
<path d="M8.17364 10.2603C6.92501 10.2603 5.91276 9.24805 5.91276 7.99942C5.91276 6.7508 6.92501 5.73855 8.17364 5.73855C8.56295 5.73855 8.92929 5.83698 9.2491 6.0103C8.74736 5.51964 8.06123 5.2168 7.30408 5.2168C5.76726 5.2168 4.52148 6.46261 4.52148 7.99939C4.52148 9.53617 5.7673 10.782 7.30408 10.782C8.06126 10.782 8.74739 10.4791 9.2491 9.98848C8.92929 10.1619 8.56295 10.2603 8.17364 10.2603Z" fill="#F0F0F0"/>
<path d="M9.91288 6.43359L10.2123 7.27581L11.0197 6.892L10.6359 7.69931L11.4781 7.99881L10.6359 8.29831L11.0197 9.10562L10.2123 8.72181L9.91288 9.56403L9.61344 8.72181L8.80609 9.10562L9.18991 8.29831L8.34766 7.99881L9.18991 7.69931L8.80609 6.892L9.61344 7.27581L9.91288 6.43359Z" fill="#F0F0F0"/>
</g>
<defs>
<clipPath id="clip0_36251_6902">
<rect width="16" height="16" fill="white"/>
</clipPath>
</defs>
</svg>
