<svg width="16" height="16" viewBox="0 0 16 16" fill="none" xmlns="http://www.w3.org/2000/svg">
<g clip-path="url(#clip0_36251_6921)">
<path d="M8.00055 0C7.02199 0 6.08458 0.176031 5.21796 0.497594L4.87012 8L5.21793 15.5024C6.08458 15.824 7.02199 16 8.00055 16C8.97911 16 9.91652 15.824 10.7831 15.5024L11.131 8L10.7832 0.497594C9.91652 0.176031 8.97911 0 8.00055 0Z" fill="#FFDA44"/>
<path d="M16.0006 8.00045C16.0006 4.56073 13.8296 1.62839 10.7832 0.498047V15.5029C13.8296 14.3725 16.0006 11.4402 16.0006 8.00045Z" fill="#D80027"/>
<path d="M5.21741 15.5029V0.498047C2.171 1.62839 0 4.56073 0 8.00045C0 11.4402 2.171 14.3725 5.21741 15.5029Z" fill="#0052B4"/>
</g>
<defs>
<clipPath id="clip0_36251_6921">
<rect width="16" height="16" fill="white"/>
</clipPath>
</defs>
</svg>
