<svg width="16" height="16" viewBox="0 0 16 16" fill="none" xmlns="http://www.w3.org/2000/svg">
<g clip-path="url(#clip0_36251_6786)">
<path d="M8 16C12.4183 16 16 12.4183 16 8C16 3.58172 12.4183 0 8 0C3.58172 0 0 3.58172 0 8C0 12.4183 3.58172 16 8 16Z" fill="#F0F0F0"/>
<path d="M2.34388 2.34288C0.629351 4.05741 -0.143993 6.3566 0.0232882 8.59866L8.59963 0.0223193C6.35757 -0.144993 4.05841 0.628351 2.34388 2.34288Z" fill="#FFDA44"/>
<path d="M2.85645 14.1261C5.9996 16.7706 10.6983 16.6142 13.6568 13.6557C16.6152 10.6973 16.7716 5.99859 14.1271 2.85547L2.85645 14.1261Z" fill="#0052B4"/>
<path d="M7.97169 7.67811L8.6611 7.30467L7.97169 6.93124C7.81072 5.88558 6.98454 5.05936 5.93888 4.89842L5.56541 4.20898L5.19197 4.89839C4.14635 5.05933 3.32016 5.88555 3.15916 6.9312L2.46973 7.30467L3.15913 7.67811C3.3201 8.72377 4.14629 9.54999 5.19194 9.71092L5.56541 10.4004L5.93885 9.71095C6.98454 9.54999 7.81072 8.72377 7.97169 7.67811ZM5.56544 8.69599C4.79704 8.69599 4.17413 8.07311 4.17413 7.30467C4.17413 6.53624 4.79701 5.91336 5.56544 5.91336C6.33388 5.91336 6.95675 6.53624 6.95675 7.30467C6.95675 8.07311 6.33385 8.69599 5.56544 8.69599Z" fill="black"/>
<path d="M5.56479 6.26074L5.86601 6.78246H6.46848L6.16723 7.30421L6.46848 7.82596H5.86601L5.56479 8.34768L5.26357 7.82596H4.66113L4.96235 7.30421L4.66113 6.78246H5.26357L5.56479 6.26074Z" fill="#D80027"/>
</g>
<defs>
<clipPath id="clip0_36251_6786">
<rect width="16" height="16" fill="white"/>
</clipPath>
</defs>
</svg>
