<svg width="16" height="16" viewBox="0 0 16 16" fill="none" xmlns="http://www.w3.org/2000/svg">
<g clip-path="url(#clip0_36251_6942)">
<path d="M15.5024 10.7833C15.824 9.91668 16 8.97927 16 8.00071C16 7.02215 15.824 6.08474 15.5024 5.21812L8 4.52246L0.497594 5.21812C0.176 6.08474 0 7.02215 0 8.00071C0 8.97927 0.176 9.91668 0.497594 10.7833L8 11.479L15.5024 10.7833Z" fill="#6DA544"/>
<path d="M15.5029 5.21741C14.3725 2.171 11.4402 0 8.00045 0C4.56073 0 1.62839 2.171 0.498047 5.21741H15.5029Z" fill="#FFDA44"/>
<path d="M8.00045 16.0006C11.4402 16.0006 14.3725 13.8296 15.5029 10.7832H0.498047C1.62839 13.8296 4.56073 16.0006 8.00045 16.0006Z" fill="#D80027"/>
</g>
<defs>
<clipPath id="clip0_36251_6942">
<rect width="16" height="16" fill="white"/>
</clipPath>
</defs>
</svg>
