<svg width="16" height="16" viewBox="0 0 16 16" fill="none" xmlns="http://www.w3.org/2000/svg">
<g clip-path="url(#clip0_36251_6846)">
<path d="M8 16C12.4183 16 16 12.4183 16 8C16 3.58172 12.4183 0 8 0C3.58172 0 0 3.58172 0 8C0 12.4183 3.58172 16 8 16Z" fill="#F0F0F0"/>
<path d="M13.4001 2.09803C11.9769 0.795156 10.0813 0 7.99977 0C7.65902 0 7.32324 0.0214688 6.99368 0.0628125L3.13021 4.52175L0.25293 10.0041C0.438805 10.7248 0.722992 11.4058 1.08965 12.0328L7.99977 8L13.4001 2.09803Z" fill="#FFDA44"/>
<path d="M14.6605 12.4316L3.46777 14.5916C4.75618 15.4792 6.31737 15.9992 8.00018 15.9992C10.779 15.9992 13.2264 14.5822 14.6605 12.4316Z" fill="#6DA544"/>
<path d="M13.4017 2.09863L1.09473 12.04C1.41663 12.589 1.80204 13.0963 2.24101 13.5515L16.0003 7.99954C16.0003 5.66332 14.9987 3.5612 13.4017 2.09863Z" fill="#D80027"/>
<path d="M0 7.99969C0 8.69178 0.0879375 9.36331 0.253156 10.0038L6.99391 0.0625C3.05056 0.557312 0 3.92219 0 7.99969Z" fill="#0052B4"/>
</g>
<defs>
<clipPath id="clip0_36251_6846">
<rect width="16" height="16" fill="white"/>
</clipPath>
</defs>
</svg>
