<svg width="16" height="16" viewBox="0 0 16 16" fill="none" xmlns="http://www.w3.org/2000/svg">
<g clip-path="url(#clip0_36251_6957)">
<path d="M8 16C12.4183 16 16 12.4183 16 8C16 3.58172 12.4183 0 8 0C3.58172 0 0 3.58172 0 8C0 12.4183 3.58172 16 8 16Z" fill="#6DA544"/>
<path d="M12.2806 11.4785L12.5001 11.9375L12.9959 11.823L12.7739 12.2808L13.1725 12.597L12.6761 12.7088L12.6775 13.2177L12.2806 12.8993L11.8836 13.2177L11.885 12.7088L11.3887 12.597L11.7873 12.2808L11.5653 11.823L12.061 11.9375L12.2806 11.4785Z" fill="#FFDA44"/>
<path d="M10.2386 6.60742L10.4581 7.06645L10.9539 6.95186L10.7319 7.40973L11.1305 7.72586L10.6342 7.83773L10.6356 8.34655L10.2386 8.02823L9.84165 8.34655L9.84299 7.83773L9.34668 7.72586L9.74533 7.40973L9.5233 6.95186L10.0191 7.06645L10.2386 6.60742Z" fill="#FFDA44"/>
<path d="M12.2805 3.8252L12.5001 4.28423L12.9958 4.1696L12.7739 4.62748L13.1725 4.94363L12.6761 5.05548L12.6775 5.56432L12.2805 5.24598L11.8836 5.56432L11.885 5.05548L11.3887 4.94363L11.7873 4.62748L11.5653 4.1696L12.061 4.28423L12.2805 3.8252Z" fill="#FFDA44"/>
<path d="M14.0648 5.91406L14.2843 6.37309L14.7801 6.2585L14.558 6.71637L14.9567 7.0325L14.4604 7.14437L14.4617 7.65322L14.0648 7.33487L13.6678 7.65322L13.6692 7.14437L13.1729 7.0325L13.5715 6.71637L13.3495 6.2585L13.8452 6.37309L14.0648 5.91406Z" fill="#FFDA44"/>
<path d="M12.7891 8.34766L12.9618 8.87912H13.5206L13.0685 9.20756L13.2412 9.73897L12.7891 9.41056L12.337 9.73897L12.5097 9.20756L12.0576 8.87912H12.6164L12.7891 8.34766Z" fill="#FFDA44"/>
<path d="M8.86899 10.2603C7.62033 10.2603 6.60808 9.24805 6.60808 7.99942C6.60808 6.7508 7.6203 5.73855 8.86899 5.73855C9.2583 5.73855 9.62465 5.83702 9.94446 6.0103C9.44274 5.51961 8.75664 5.2168 7.99936 5.2168C6.46261 5.2168 5.2168 6.46261 5.2168 7.99939C5.2168 9.53617 6.46261 10.782 7.99936 10.782C8.75661 10.782 9.44274 10.4792 9.94443 9.98848C9.62465 10.1618 9.2583 10.2603 8.86899 10.2603Z" fill="#FFDA44"/>
<path d="M5.03053 3.13023C4.78991 2.71448 4.34069 2.43457 3.82581 2.43457C3.31094 2.43457 2.86172 2.71448 2.62109 3.13023H5.03053Z" fill="#FFDA44"/>
<path d="M5.0352 3.13867L3.82585 4.34801L2.61651 3.13867C2.50091 3.34152 2.43457 3.57611 2.43457 3.8263C2.43457 4.5947 3.05748 5.21761 3.82588 5.21761C4.59429 5.21761 5.2172 4.59473 5.2172 3.8263C5.21716 3.57611 5.15079 3.34152 5.0352 3.13867Z" fill="#FFDA44"/>
<path d="M3.47852 4V5.17356C3.58967 5.20215 3.70624 5.21737 3.82633 5.21737C3.94642 5.21737 4.06299 5.20212 4.17414 5.17356V4H3.47852Z" fill="#A2001D"/>
</g>
<defs>
<clipPath id="clip0_36251_6957">
<rect width="16" height="16" fill="white"/>
</clipPath>
</defs>
</svg>
