<svg width="16" height="16" viewBox="0 0 16 16" fill="none" xmlns="http://www.w3.org/2000/svg">
<g clip-path="url(#clip0_36251_6913)">
<path d="M7.30497 7.30469C7.30497 7.30469 2.34844 13.6584 2.34375 13.6572C3.79144 15.1049 5.79147 16.0004 8.00062 16.0004C12.4189 16.0004 16.0006 12.4186 16.0006 8.00034L7.30497 7.30469Z" fill="#338AF3"/>
<path d="M7.30497 8C7.30497 8 2.34844 2.34203 2.34375 2.34316C3.79144 0.895438 5.79147 0 8.00062 0C12.4189 0 16.0006 3.58175 16.0006 8H7.30497Z" fill="#6DA544"/>
<path d="M2.34314 2.34375C-0.781047 5.46794 -0.781047 10.5333 2.34314 13.6575C2.34292 13.6588 16 8.00063 16 8.00063L2.34314 2.34375Z" fill="#D80027"/>
<path d="M4.17322 4.69531C2.63888 4.69531 1.39062 5.94359 1.39062 7.4779V8.52137C1.39062 10.0557 2.63891 11.304 4.17322 11.304C5.70753 11.304 6.95581 10.0557 6.95581 8.52137V7.4779C6.95584 5.94359 5.70756 4.69531 4.17322 4.69531ZM5.91234 8.5214C5.91234 9.29865 5.39978 9.95831 4.69494 10.1805V9.04315L5.43319 8.3049L4.69534 7.56706L4.69494 7.30447V6.95622H3.6515V7.99965L2.91375 8.73737L3.6515 9.47509V10.1805C2.94666 9.95834 2.43409 9.29868 2.43409 8.52143V7.47797C2.43409 6.519 3.21428 5.73884 4.17322 5.73884C5.13216 5.73884 5.91234 6.51903 5.91234 7.47797V8.5214V8.5214Z" fill="#FFDA44"/>
</g>
<defs>
<clipPath id="clip0_36251_6913">
<rect width="16" height="16" fill="white"/>
</clipPath>
</defs>
</svg>
