<svg width="16" height="16" viewBox="0 0 16 16" fill="none" xmlns="http://www.w3.org/2000/svg">
<g clip-path="url(#clip0_36251_6917)">
<path d="M8 16C12.4183 16 16 12.4183 16 8C16 3.58172 12.4183 0 8 0C3.58172 0 0 3.58172 0 8C0 12.4183 3.58172 16 8 16Z" fill="#F0F0F0"/>
<path d="M7.99898 0C5.38173 0 3.05813 1.25697 1.59863 3.2H14.3993C12.9398 1.25697 10.6162 0 7.99898 0Z" fill="#D80027"/>
<path d="M7.99898 15.9998C10.6162 15.9998 12.9398 14.7428 14.3993 12.7998H1.59863C3.05813 14.7428 5.38173 15.9998 7.99898 15.9998Z" fill="#D80027"/>
<path d="M-0.000976562 8.00039C-0.000976562 8.54836 0.0542734 9.08342 0.159242 9.60039H15.8389C15.9438 9.08342 15.999 8.54836 15.999 8.00039C15.999 7.45242 15.9438 6.91736 15.8388 6.40039H0.159242C0.0542734 6.91736 -0.000976562 7.45242 -0.000976562 8.00039Z" fill="#D80027"/>
<path d="M2.34314 2.34375C-0.781047 5.46794 -0.781047 10.5333 2.34314 13.6575C3.63417 12.3665 4.87583 11.1248 8.00001 8.00063L2.34314 2.34375Z" fill="#0052B4"/>
<path d="M3.23829 5.91211L3.75626 7.50636H5.43269L4.07651 8.49173L4.59444 10.086L3.23829 9.1007L1.88207 10.086L2.40013 8.49173L1.04395 7.50636H2.72026L3.23829 5.91211Z" fill="#F0F0F0"/>
</g>
<defs>
<clipPath id="clip0_36251_6917">
<rect width="16" height="16" fill="white"/>
</clipPath>
</defs>
</svg>
