<svg width="16" height="16" viewBox="0 0 16 16" fill="none" xmlns="http://www.w3.org/2000/svg">
<g clip-path="url(#clip0_36251_6940)">
<path d="M16 8C16 12.4183 12.4183 16 8 16C3.58175 16 0 12.4183 0 8C0 8.00191 8 0.000875 8 0C12.4183 0 16 3.58175 16 8Z" fill="#0052B4"/>
<path d="M7.97852 8.00094H7.99996C7.99996 7.99374 7.99996 7.98672 7.99996 7.97949C7.99282 7.98666 7.98568 7.9938 7.97852 8.00094Z" fill="#F0F0F0"/>
<path d="M8 4.17391C8 2.76625 8 1.84391 8 0H7.99865C3.581 0.00075 0 3.58216 0 8H4.1739V5.64966L6.52428 8H7.97862C7.98575 7.99287 7.99287 7.98575 8.00003 7.97859C8.00003 7.43963 8.00003 6.95872 8.00003 6.52431L5.64962 4.17391H8Z" fill="#F0F0F0"/>
<path d="M4.04684 1.04297C2.79562 1.75544 1.75544 2.79563 1.04297 4.04684V7.9995H3.12994V3.13V3.12994H7.9995C7.9995 2.47172 7.9995 1.84466 7.9995 1.04297H4.04684V1.04297Z" fill="#D80027"/>
<path d="M7.99989 7.01611L5.15761 4.17383H4.17383V4.17389L7.99983 7.99989H7.99989C7.99989 7.99989 7.99989 7.32154 7.99989 7.01611Z" fill="#D80027"/>
<path d="M12.87 9.39062V9.73844H10.0874V9.39062H9.04395V10.7819H9.7396V11.1298H13.2179V10.7819H13.9135V9.39062H12.87Z" fill="#FFDA44"/>
<path d="M9.04395 4.17383V7.99992C9.04395 9.86364 11.4787 10.4347 11.4787 10.4347C11.4787 10.4347 13.9135 9.86364 13.9135 7.99992V4.17383H9.04395Z" fill="#338AF3"/>
<path d="M11.4786 7.0293C10.8699 7.0293 10.8699 7.58583 10.2613 7.58583C9.6526 7.58583 9.6526 7.0293 9.04395 7.0293V8.0032C9.6526 8.0032 9.6526 8.55973 10.2613 8.55973C10.8699 8.55973 10.8699 8.0032 11.4786 8.0032C12.0873 8.0032 12.0873 8.55973 12.696 8.55973C13.3048 8.55973 13.3048 8.0032 13.9135 8.0032V7.0293C13.3048 7.0293 13.3048 7.58583 12.696 7.58583C12.0873 7.58583 12.0873 7.0293 11.4786 7.0293Z" fill="#F3F3F3"/>
<path d="M11.4786 5.0791C10.8699 5.0791 10.8699 5.63563 10.2613 5.63563C9.6526 5.63563 9.6526 5.0791 9.04395 5.0791V6.05301C9.6526 6.05301 9.6526 6.60954 10.2613 6.60954C10.8699 6.60954 10.8699 6.05301 11.4786 6.05301C12.0873 6.05301 12.0873 6.60954 12.696 6.60954C13.3048 6.60954 13.3048 6.05301 13.9135 6.05301V5.0791C13.3048 5.0791 13.3048 5.63563 12.696 5.63563C12.0873 5.63563 12.0873 5.0791 11.4786 5.0791Z" fill="#F3F3F3"/>
</g>
<defs>
<clipPath id="clip0_36251_6940">
<rect width="16" height="16" fill="white"/>
</clipPath>
</defs>
</svg>
