<svg width="16" height="16" viewBox="0 0 16 16" fill="none" xmlns="http://www.w3.org/2000/svg">
<g clip-path="url(#clip0_36251_6938)">
<path d="M11.4783 0.793813C10.4266 0.28525 9.24664 0 8.00008 0C6.75352 0 5.57358 0.28525 4.52183 0.793813L3.82617 8L4.52183 15.2062C5.57358 15.7147 6.75352 16 8.00008 16C9.24664 16 10.4266 15.7147 11.4783 15.2062L12.174 8L11.4783 0.793813Z" fill="#FFDA44"/>
<path d="M4.52175 0.793945C1.84581 2.08788 0 4.82816 0 7.99985C0 11.1715 1.84581 13.9118 4.52175 15.2058V0.793945Z" fill="#0052B4"/>
<path d="M11.4785 0.793945V15.2058C14.1545 13.9118 16.0003 11.1715 16.0003 7.99985C16.0003 4.8282 14.1545 2.08788 11.4785 0.793945Z" fill="#0052B4"/>
<path d="M10.4349 4.86851L10.9015 5.10182L10.4349 4.86851L9.96816 4.6352C9.94004 4.69148 9.3307 5.93126 9.23116 7.82504H8.52182V4.86851L8.00007 4.17285L7.47832 4.86851V7.82504H6.76898C6.66941 5.93126 6.0601 4.69148 6.03195 4.6352L5.09863 5.10185C5.10507 5.11466 5.73923 6.40545 5.73923 8.34679V8.86854H7.47835V11.8251H8.52182V8.86854H10.2609V8.34676C10.2609 7.34307 10.4346 6.51545 10.5803 5.99788C10.7392 5.43351 10.9005 5.10391 10.9021 5.10063L10.4349 4.86851Z" fill="black"/>
</g>
<defs>
<clipPath id="clip0_36251_6938">
<rect width="16" height="16" fill="white"/>
</clipPath>
</defs>
</svg>
