<svg width="16" height="16" viewBox="0 0 16 16" fill="none" xmlns="http://www.w3.org/2000/svg">
<g clip-path="url(#clip0_36251_6979)">
<path d="M0.793813 4.52183C0.28525 5.57358 0 6.75349 0 8.00008C0 9.24668 0.28525 10.4266 0.793813 11.4783L8 12.174L15.2062 11.4783C15.7147 10.4266 16 9.24668 16 8.00008C16 6.75349 15.7147 5.57358 15.2062 4.52183L8 3.82617L0.793813 4.52183Z" fill="#F0F0F0"/>
<path d="M0.793945 11.4785C2.08788 14.1545 4.82816 16.0003 7.99985 16.0003C11.1715 16.0003 13.9118 14.1545 15.2058 11.4785H0.793945Z" fill="#6DA544"/>
<path d="M0.793945 4.52175H15.2058C13.9118 1.84578 11.1715 0 7.99985 0C4.8282 0 2.08788 1.84578 0.793945 4.52175Z" fill="#FF9811"/>
<path d="M8.00037 10.783C9.53715 10.783 10.783 9.53715 10.783 8.00037C10.783 6.46358 9.53715 5.21777 8.00037 5.21777C6.46358 5.21777 5.21777 6.46358 5.21777 8.00037C5.21777 9.53715 6.46358 10.783 8.00037 10.783Z" fill="#FF9811"/>
</g>
<defs>
<clipPath id="clip0_36251_6979">
<rect width="16" height="16" fill="white"/>
</clipPath>
</defs>
</svg>
