<svg width="16" height="16" viewBox="0 0 16 16" fill="none" xmlns="http://www.w3.org/2000/svg">
<g clip-path="url(#clip0_36251_7002)">
<path d="M15.2062 11.4783C15.7148 10.4266 16 9.24668 16 8.00008C16 6.75349 15.7148 5.57358 15.2062 4.52183L8 3.82617L0.793813 4.52183C0.285219 5.57358 0 6.75349 0 8.00008C0 9.24668 0.285219 10.4266 0.793813 11.4783L8 12.174L15.2062 11.4783Z" fill="#0052B4"/>
<path d="M8.00013 16.0003C11.1718 16.0003 13.9123 14.1545 15.2063 11.4785H0.793945C2.08795 14.1545 4.82844 16.0003 8.00013 16.0003Z" fill="#D80027"/>
<path d="M13.8543 9.57113L13.4317 9.90131L13.6151 10.4051L13.1705 10.1053L12.748 10.4354L12.8957 9.91997L12.4512 9.62009L12.9871 9.60141L13.135 9.08594L13.3184 9.58981L13.8543 9.57113Z" fill="#F0F0F0"/>
<path d="M12.7724 7.6963L12.4883 8.15108L12.833 8.56176L12.3126 8.4322L12.0285 8.88686L11.991 8.35195L11.4707 8.22217L11.968 8.02126L11.9306 7.48633L12.2752 7.89717L12.7724 7.6963Z" fill="#F0F0F0"/>
<path d="M11.1146 6.30566L11.0032 6.8302L11.4675 7.09832L10.9343 7.15454L10.8228 7.67892L10.6046 7.1891L10.0713 7.24507L10.4699 6.88626L10.2518 6.39645L10.7161 6.66451L11.1146 6.30566Z" fill="#F0F0F0"/>
<path d="M9.08157 5.56543L9.15629 6.09646L9.68432 6.18952L9.20238 6.42471L9.27704 6.95571L8.90454 6.56996L8.42248 6.80502L8.67429 6.33149L8.30176 5.9458L8.82988 6.0389L9.08157 5.56543Z" fill="#F0F0F0"/>
<path d="M6.91815 5.56543L7.16993 6.0389L7.69793 5.94574L7.32552 6.33159L7.57718 6.80508L7.09524 6.56996L6.72268 6.95562L6.7974 6.42471L6.31543 6.18965L6.84352 6.09646L6.91815 5.56543Z" fill="#F0F0F0"/>
<path d="M4.88409 6.30566L5.28266 6.66451L5.74694 6.39645L5.52891 6.88645L5.92738 7.2452L5.39409 7.1891L5.17591 7.67892L5.06456 7.15445L4.53125 7.09845L4.99563 6.83026L4.88409 6.30566Z" fill="#F0F0F0"/>
<path d="M3.22648 7.6962L3.72376 7.89708L4.06833 7.48633L4.03105 8.02136L4.52817 8.22227L4.00789 8.35193L3.97042 8.88677L3.68636 8.43211L3.16602 8.56177L3.5107 8.15099L3.22648 7.6962Z" fill="#F0F0F0"/>
<path d="M2.14453 9.57106L2.68053 9.58975L2.86384 9.08594L3.01181 9.60144L3.54766 9.62016L3.10309 9.92003L3.25084 10.4355L2.82834 10.1053L2.38375 10.4051L2.56716 9.90125L2.14453 9.57106Z" fill="#F0F0F0"/>
<path d="M15.2063 4.52175C13.9123 1.84578 11.1718 0 8.00013 0C4.82844 0 2.08795 1.84578 0.793945 4.52175H15.2063Z" fill="#FFDA44"/>
</g>
<defs>
<clipPath id="clip0_36251_7002">
<rect width="16" height="16" fill="white"/>
</clipPath>
</defs>
</svg>
