<svg width="16" height="16" viewBox="0 0 16 16" fill="none" xmlns="http://www.w3.org/2000/svg">
<g clip-path="url(#clip0_36251_6827)">
<path d="M8 16C12.4183 16 16 12.4183 16 8C16 3.58172 12.4183 0 8 0C3.58172 0 0 3.58172 0 8C0 12.4183 3.58172 16 8 16Z" fill="#F0F0F0"/>
<path d="M0 7.99994C0 11.0323 1.68716 13.6704 4.17391 15.0272V0.972656C1.68716 2.3295 0 4.96759 0 7.99994Z" fill="#F0F0F0"/>
<path d="M7.99992 0.000976562C6.61398 0.000976562 5.31042 0.35357 4.17383 0.973695V15.0282C5.31042 15.6484 6.61398 16.001 7.99992 16.001C12.4182 16.001 15.9999 12.4192 15.9999 8.00098C15.9999 3.58273 12.4182 0.000976562 7.99992 0.000976562Z" fill="#496E2D"/>
<path d="M11.4201 9.32526C10.408 10.0565 8.99473 9.82892 8.26348 8.81685C7.53217 7.80473 7.75983 6.39144 8.77192 5.66019C9.08748 5.43219 9.44205 5.29741 9.80277 5.25057C9.1088 5.14679 8.3752 5.30316 7.76155 5.74657C6.51592 6.64663 6.2357 8.38604 7.13573 9.63173C8.03576 10.8773 9.7752 11.1576 11.0209 10.2574C11.6346 9.81404 12.0134 9.16676 12.1327 8.47523C11.975 8.80291 11.7357 9.09723 11.4201 9.32526Z" fill="#F0F0F0"/>
<path d="M11.3773 5.21875L11.9474 5.83316L12.7079 5.48091L12.2997 6.21291L12.8698 6.82737L12.0474 6.66534L11.6392 7.3974L11.5392 6.56522L10.7168 6.40319L11.4773 6.05094L11.3773 5.21875Z" fill="#F0F0F0"/>
</g>
<defs>
<clipPath id="clip0_36251_6827">
<rect width="16" height="16" fill="white"/>
</clipPath>
</defs>
</svg>
