<svg width="16" height="16" viewBox="0 0 16 16" fill="none" xmlns="http://www.w3.org/2000/svg">
<g clip-path="url(#clip0_36251_6863)">
<path d="M13.6569 13.6568C10.5327 16.781 5.46739 16.781 2.34314 13.6568C-0.781051 10.5326 -0.781051 5.46731 2.34317 2.34309C5.46736 -0.781095 10.0408 -0.289189 13.165 2.83503C16.2891 5.95921 16.781 10.5326 13.6569 13.6568Z" fill="black"/>
<path d="M2.34277 2.34311C5.46696 -0.781074 10.5322 -0.781012 13.6565 2.34314C16.7807 5.46733 16.7807 10.5326 13.6565 13.6569" fill="#A2001D"/>
<path d="M6.11402 10.7832L6.24352 11.1818H6.66262L6.32355 11.4281L6.45309 11.8267L6.11402 11.5804L5.77496 11.8267L5.90446 11.4281L5.56543 11.1818H5.98449L6.11402 10.7832Z" fill="#F0F0F0"/>
<path d="M5.04322 6.95703L5.25913 7.62134H5.95756L5.39247 8.03187L5.60831 8.69618L5.04322 8.28559L4.47816 8.69618L4.69403 8.03187L4.12891 7.62134H4.82741L5.04322 6.95703Z" fill="#F0F0F0"/>
<path d="M5.04322 11.8262L5.25906 12.4905H5.95756L5.39241 12.901L5.60831 13.5653L5.04322 13.1547L4.47816 13.5653L4.69397 12.901L4.12891 12.4905H4.82731L5.04322 11.8262Z" fill="#F0F0F0"/>
<path d="M7.08616 8.69629L7.30206 9.3606H8.0005L7.43541 9.7711L7.65125 10.4354L7.08616 10.0248L6.52109 10.4354L6.73697 9.7711L6.17188 9.3606H6.87035L7.08616 8.69629Z" fill="#F0F0F0"/>
<path d="M3.00123 8.69629L3.21713 9.3606H3.91554L3.35048 9.7711L3.56629 10.4354L3.00123 10.0248L2.43613 10.4354L2.65204 9.7711L2.08691 9.3606H2.78538L3.00123 8.69629Z" fill="#F0F0F0"/>
<path d="M13.3919 5.92448C13.0344 5.56695 12.5698 5.35573 12.0706 5.31945L13.565 4.15717C12.9698 3.56202 12.1721 3.29323 11.3938 3.35008C11.3006 3.0152 11.1229 2.69889 10.8596 2.43555L10.2693 3.61611C10.2306 3.54555 10.1815 3.47914 10.1217 3.41936C9.78211 3.07977 9.23155 3.07977 8.89198 3.41936C8.55242 3.75895 8.55236 4.30952 8.89198 4.64911C8.95176 4.70889 9.0182 4.75792 9.08876 4.79667L7.9082 5.38695C8.17161 5.65039 8.48814 5.82817 8.8232 5.9213C8.76617 6.69967 9.03467 7.49723 9.62986 8.09242L10.9355 6.41373C11.0337 6.31702 11.1634 6.26361 11.3014 6.26361C11.4408 6.26361 11.5718 6.31786 11.6703 6.41645C11.7689 6.51498 11.8232 6.64602 11.8232 6.78536C11.8232 6.92473 11.7689 7.05573 11.6703 7.1543L12.1623 7.64623C12.3922 7.4163 12.5188 7.11058 12.5188 6.78539C12.5188 6.51933 12.4339 6.26639 12.2773 6.05727C12.5056 6.11823 12.7214 6.23767 12.9001 6.41645C13.4426 6.95892 13.4426 7.84161 12.9001 8.38405L13.392 8.87598C13.7862 8.4818 14.0033 7.95773 14.0033 7.40027C14.0032 6.84273 13.7861 6.31867 13.3919 5.92448Z" fill="#FFDA44"/>
</g>
<defs>
<clipPath id="clip0_36251_6863">
<rect width="16" height="16" fill="white"/>
</clipPath>
</defs>
</svg>
