<svg width="16" height="16" viewBox="0 0 16 16" fill="none" xmlns="http://www.w3.org/2000/svg">
<g clip-path="url(#clip0_36251_6871)">
<path d="M7.99958 16C8.97814 16 9.91554 15.824 10.7822 15.5024L11.13 8L10.7822 0.497594C9.91554 0.176031 8.97814 0 7.99958 0C7.02101 0 6.08361 0.176031 5.21698 0.497594L4.86914 8L5.21695 15.5024C6.08361 15.824 7.02101 16 7.99958 16Z" fill="#0052B4"/>
<path d="M0 7.99948C0 11.4392 2.171 14.3715 5.21741 15.5019V0.49707C2.171 1.62741 0 4.55976 0 7.99948Z" fill="#A2001D"/>
<path d="M10.7822 0.49707V15.5019C13.8286 14.3715 15.9996 11.4392 15.9996 7.99948C15.9996 4.55976 13.8286 1.62741 10.7822 0.49707Z" fill="#A2001D"/>
<path d="M4.52085 8H3.8252V10.7826H4.52085V8Z" fill="#FFDA44"/>
<path d="M1.73863 8H1.04297V10.7826H1.73863V8Z" fill="#FFDA44"/>
<path d="M2.78159 9.73897C3.16579 9.73897 3.47725 9.42752 3.47725 9.04331C3.47725 8.65911 3.16579 8.34766 2.78159 8.34766C2.39739 8.34766 2.08594 8.65911 2.08594 9.04331C2.08594 9.42752 2.39739 9.73897 2.78159 9.73897Z" fill="#FFDA44"/>
<path d="M2.78238 6.95637C2.97447 6.95637 3.1302 6.80065 3.1302 6.60855C3.1302 6.41646 2.97447 6.26074 2.78238 6.26074C2.59029 6.26074 2.43457 6.41646 2.43457 6.60855C2.43457 6.80065 2.59029 6.95637 2.78238 6.95637Z" fill="#FFDA44"/>
<path d="M3.47725 10.0859H2.08594V10.7816H3.47725V10.0859Z" fill="#FFDA44"/>
<path d="M3.47725 7.30371H2.08594V7.99936H3.47725V7.30371Z" fill="#FFDA44"/>
<path d="M2.78273 4.17383L3.0291 4.93195H3.82623L3.18138 5.40052L3.42757 6.15864L2.78273 5.69008L2.13791 6.15864L2.3841 5.40052L1.73926 4.93195H2.53638L2.78273 4.17383Z" fill="#FFDA44"/>
</g>
<defs>
<clipPath id="clip0_36251_6871">
<rect width="16" height="16" fill="white"/>
</clipPath>
</defs>
</svg>
