<svg width="16" height="16" viewBox="0 0 16 16" fill="none" xmlns="http://www.w3.org/2000/svg">
<g clip-path="url(#clip0_36251_6893)">
<path d="M15.5024 10.7823C15.824 9.9157 16 8.97829 16 7.99973C16 7.02117 15.824 6.08383 15.5024 5.21714L8 4.52148L0.497594 5.21714C0.176031 6.08383 0 7.02117 0 7.99973C0 8.97829 0.176031 9.9157 0.497594 10.7823L8 11.478L15.5024 10.7823Z" fill="#F0F0F0"/>
<path d="M8.00049 15.9996C11.4402 15.9996 14.3725 13.8286 15.5029 10.7822H0.498047C1.62842 13.8286 4.56073 15.9996 8.00049 15.9996Z" fill="#D80027"/>
<path d="M8.00048 0C4.56073 0 1.62842 2.171 0.498047 5.21741H15.5029C14.3725 2.171 11.4402 0 8.00048 0Z" fill="#D80027"/>
</g>
<defs>
<clipPath id="clip0_36251_6893">
<rect width="16" height="16" fill="white"/>
</clipPath>
</defs>
</svg>
