<svg width="16" height="16" viewBox="0 0 16 16" fill="none" xmlns="http://www.w3.org/2000/svg">
<g clip-path="url(#clip0_36251_6990)">
<path d="M11.8264 0.972719C10.6898 0.352594 9.3862 0 8.00027 0C6.61433 0 5.31077 0.352594 4.17417 0.972719L3.47852 8L4.17417 15.0273C5.31077 15.6474 6.61433 16 8.00027 16C9.3862 16 10.6898 15.6474 11.8264 15.0273L12.522 8L11.8264 0.972719Z" fill="#FFDA44"/>
<path d="M4.17391 15.0272V0.972656C1.68716 2.32953 0 4.96763 0 7.99997C0 11.0323 1.68716 13.6704 4.17391 15.0272Z" fill="#338AF3"/>
<path d="M16.0001 7.99997C16.0001 4.96762 14.3129 2.32953 11.8262 0.972656V15.0272C14.3129 13.6704 16.0001 11.0323 16.0001 7.99997Z" fill="#6DA544"/>
<path d="M6.26146 10.086L4.87012 7.99908L6.26143 5.91211L7.65281 7.99908L6.26146 10.086Z" fill="#6DA544"/>
<path d="M9.73994 10.086L8.34863 7.99908L9.73994 5.91211L11.1313 7.99908L9.73994 10.086Z" fill="#6DA544"/>
<path d="M8.00069 12.8692L6.60938 10.7823L8.00069 8.69531L9.392 10.7823L8.00069 12.8692Z" fill="#6DA544"/>
</g>
<defs>
<clipPath id="clip0_36251_6990">
<rect width="16" height="16" fill="white"/>
</clipPath>
</defs>
</svg>
