<svg width="16" height="16" viewBox="0 0 16 16" fill="none" xmlns="http://www.w3.org/2000/svg">
<g clip-path="url(#clip0_36251_6823)">
<path d="M15.111 4.33208C14.7413 3.61586 14.2568 2.94361 13.6564 2.34323C13.056 1.74283 12.3838 1.2583 11.6676 0.888672L6.03166 6.03261L0.887695 11.6685C1.25735 12.3847 1.74188 13.057 2.34226 13.6574C2.94263 14.2578 3.61491 14.7423 4.3311 15.112L9.96701 9.96798L15.111 4.33208Z" fill="#FFDA44"/>
<path d="M2.34271 13.6569C2.6783 13.9925 3.0364 14.2918 3.41199 14.5553L14.5552 3.41199C14.2918 3.0364 13.9925 2.6783 13.6569 2.34271C13.3212 2.00712 12.9632 1.70784 12.5876 1.44434L1.44434 12.5876C1.7078 12.9631 2.00709 13.3213 2.34271 13.6569Z" fill="#D80027"/>
<path d="M2.34294 2.34287C-0.181028 4.86684 -0.665559 8.6574 0.888379 11.6682L11.6683 0.888341C8.65744 -0.665565 4.86688 -0.180971 2.34294 2.34287Z" fill="#338AF3"/>
<path d="M13.6573 13.6563C16.1812 11.1324 16.6657 7.34184 15.1119 4.33105L4.33203 15.1109C7.34281 16.6648 11.1334 16.1803 13.6573 13.6563Z" fill="#338AF3"/>
<path d="M4.26332 2.43457L4.69501 3.76323H6.09201L4.96182 4.58435L5.39351 5.91298L4.26332 5.09182L3.13307 5.91298L3.56482 4.58435L2.43457 3.76323H3.83157L4.26332 2.43457Z" fill="#FFDA44"/>
</g>
<defs>
<clipPath id="clip0_36251_6823">
<rect width="16" height="16" fill="white"/>
</clipPath>
</defs>
</svg>
