<svg width="16" height="16" viewBox="0 0 16 16" fill="none" xmlns="http://www.w3.org/2000/svg">
<g clip-path="url(#clip0_36251_7008)">
<path d="M8 16C12.4183 16 16 12.4183 16 8C16 3.58172 12.4183 0 8 0C3.58172 0 0 3.58172 0 8C0 12.4183 3.58172 16 8 16Z" fill="#F0F0F0"/>
<path d="M15.2351 4.58147C14.8287 3.72291 14.274 2.94844 13.604 2.29079L8.00085 1.73926L2.39773 2.29082C2.37985 2.30835 2.36241 2.32629 2.34473 2.34401L4.58223 4.58151L8.00085 4.68591L15.2351 4.58147Z" fill="#FFDA44"/>
<path d="M2.34375 13.6566C2.37319 13.6861 2.40256 13.7155 2.43244 13.7445L7.99997 14.2613L13.5674 13.7445C14.2443 13.0883 14.8058 12.3138 15.218 11.4539L4.8695 11.1309C3.97909 12.0213 2.95209 13.0482 2.34375 13.6566Z" fill="#FFDA44"/>
<path d="M15.9202 6.87174L6.6084 6.6084L7.99971 7.99971C7.58762 8.4118 6.97243 9.02699 6.6084 9.39102L15.9153 9.16246C15.9706 8.78281 15.9997 8.39468 15.9997 7.99971C15.9997 7.61677 15.9722 7.24034 15.9202 6.87174Z" fill="black"/>
<path d="M7.99961 0C5.81748 0 3.8398 0.874063 2.39648 2.29069H13.6027C12.1594 0.874063 10.1817 0 7.99961 0Z" fill="#6DA544"/>
<path d="M6.87174 6.87272H15.9202C15.806 6.064 15.5711 5.29419 15.234 4.58203H4.58105L6.87174 6.87272Z" fill="#D80027"/>
<path d="M4.5459 11.4547H15.2174C15.5585 10.7431 15.7971 9.97322 15.9149 9.16406H6.83659C5.94949 10.0512 5.19768 10.803 4.5459 11.4547Z" fill="#D80027"/>
<path d="M8.00009 16C10.1643 16 12.1274 15.1403 13.5676 13.7441H2.43262C3.87274 15.1403 5.83587 16 8.00009 16Z" fill="#6DA544"/>
<path d="M2.85637 1.87305C2.67852 2.02248 2.50693 2.17914 2.34277 2.34323L7.99965 8.00011L2.34277 13.657C2.5069 13.8211 2.67852 13.9777 2.85637 14.1272L8.98343 8.00011L2.85637 1.87305Z" fill="black"/>
<path d="M3.21677 5.91211L3.73474 7.50636H5.41115L4.05496 8.49173L4.57296 10.086L3.21677 9.1007L1.86055 10.086L2.37862 8.49173L1.02246 7.50636H2.69877L3.21677 5.91211Z" fill="#D80027"/>
<path d="M4.64155 8.12933L3.29162 7.65108C3.29162 7.65108 3.19187 6.71536 3.18584 6.68364C3.14002 6.4423 2.92793 6.25977 2.67324 6.25977C2.38512 6.25977 2.15149 6.49336 2.15149 6.78151C2.15149 6.8293 2.15846 6.87533 2.17049 6.91933L1.79199 7.30036C1.79199 7.30036 2.24155 7.30036 2.46499 7.30036C2.46499 7.99889 1.94374 7.99889 1.94374 8.69454L2.2329 9.3902H3.97202L4.2619 8.69454H4.26177C4.2908 8.62779 4.30843 8.55895 4.31571 8.49017C4.56559 8.38911 4.64155 8.12933 4.64155 8.12933Z" fill="#FFDA44"/>
</g>
<defs>
<clipPath id="clip0_36251_7008">
<rect width="16" height="16" fill="white"/>
</clipPath>
</defs>
</svg>
