<svg width="16" height="16" viewBox="0 0 16 16" fill="none" xmlns="http://www.w3.org/2000/svg">
<g clip-path="url(#clip0_36251_6985)">
<path d="M8 16C12.4183 16 16 12.4183 16 8C16 3.58172 12.4183 0 8 0C3.58172 0 0 3.58172 0 8C0 12.4183 3.58172 16 8 16Z" fill="#F0F0F0"/>
<path d="M0.972656 4.17488H15.0272C13.6704 1.68813 11.0323 0.000976562 7.99994 0.000976562C4.96759 0.000976562 2.3295 1.68813 0.972656 4.17488Z" fill="#D80027"/>
<path d="M7.99994 16.0001C11.0323 16.0001 13.6704 14.3129 15.0272 11.8262H0.972656C2.3295 14.3129 4.96759 16.0001 7.99994 16.0001Z" fill="#D80027"/>
<path d="M10.783 7.99939C10.783 9.5362 9.53715 10.4342 8.00037 10.4342C6.46359 10.4342 5.21777 9.5362 5.21777 7.99939C5.21777 6.46258 6.46359 5.2168 8.00037 5.2168C9.53715 5.2168 10.783 6.46258 10.783 7.99939Z" fill="#FFDA44"/>
<path d="M10.783 8C10.783 9.53682 9.53715 10.7826 8.00037 10.7826C6.46359 10.7826 5.21777 9.53682 5.21777 8" fill="#0052B4"/>
<path d="M6.9564 7.30371H6.26074V8.69502H6.9564V7.30371Z" fill="#D80027"/>
<path d="M9.73862 7.30469H9.04297V8.69599H9.73862V7.30469Z" fill="#D80027"/>
<path d="M8.348 6.26074H7.65234V8.69553H8.348V6.26074Z" fill="#D80027"/>
</g>
<defs>
<clipPath id="clip0_36251_6985">
<rect width="16" height="16" fill="white"/>
</clipPath>
</defs>
</svg>
