<svg width="16" height="16" viewBox="0 0 16 16" fill="none" xmlns="http://www.w3.org/2000/svg">
<g clip-path="url(#clip0_36251_6844)">
<path d="M8 16C12.4183 16 16 12.4183 16 8C16 3.58172 12.4183 0 8 0C3.58172 0 0 3.58172 0 8C0 12.4183 3.58172 16 8 16Z" fill="#338AF3"/>
<path d="M8.00002 3.47852L8.34533 4.54139H9.46296L8.55883 5.1983L8.90414 6.26114L8.00002 5.60427L7.09586 6.26114L7.44127 5.1983L6.53711 4.54139H7.65471L8.00002 3.47852Z" fill="#F0F0F0"/>
<path d="M3.47852 8.00011L4.54139 7.65474V6.53711L5.1983 7.4413L6.26114 7.09595L5.60427 8.00011L6.26114 8.90418L5.1983 8.5588L4.54139 9.46296V8.34539L3.47852 8.00011Z" fill="#F0F0F0"/>
<path d="M8.00008 12.5229L7.65474 11.46H6.53711L7.4413 10.8031L7.09595 9.74023L8.00008 10.3971L8.90418 9.74023L8.5588 10.8031L9.46296 11.46H8.34539L8.00008 12.5229Z" fill="#F0F0F0"/>
<path d="M12.5219 8.00002L11.459 8.34536V9.46296L10.8021 8.5588L9.73926 8.90414L10.3961 8.00002L9.73926 7.09592L10.8021 7.4413L11.459 6.53711V7.65471L12.5219 8.00002Z" fill="#F0F0F0"/>
</g>
<defs>
<clipPath id="clip0_36251_6844">
<rect width="16" height="16" fill="white"/>
</clipPath>
</defs>
</svg>
