<svg width="16" height="16" viewBox="0 0 16 16" fill="none" xmlns="http://www.w3.org/2000/svg">
<g clip-path="url(#clip0_36251_6833)">
<path d="M0 8C0 3.58175 3.58175 0 8 0C12.4183 0 16 3.58175 16 8C15.6522 8 8 9.04347 8 9.04347L0 8Z" fill="#F0F0F0"/>
<path d="M16 8C16 12.4183 12.4183 16 8 16C3.58175 16 0 12.4183 0 8" fill="#D80027"/>
<path d="M5.56535 11.826C7.67845 11.826 9.39145 10.113 9.39145 7.99992C9.39145 5.88683 7.67845 4.17383 5.56535 4.17383C3.45226 4.17383 1.73926 5.88683 1.73926 7.99992C1.73926 10.113 3.45226 11.826 5.56535 11.826Z" fill="#F0F0F0"/>
<path d="M1.73926 7.99992C1.73926 5.88689 3.45226 4.17383 5.56535 4.17383C7.67848 4.17383 9.39145 5.88686 9.39145 7.99992" fill="#D80027"/>
</g>
<defs>
<clipPath id="clip0_36251_6833">
<rect width="16" height="16" fill="white"/>
</clipPath>
</defs>
</svg>
