<svg width="16" height="16" viewBox="0 0 16 16" fill="none" xmlns="http://www.w3.org/2000/svg">
<g clip-path="url(#clip0_36251_6884)">
<path d="M16 8C16 12.4183 12.4183 16 8 16C3.58175 16 0 12.4183 0 8C0 8.00187 8 0.00090625 8 0C12.4183 0 16 3.58175 16 8Z" fill="#0052B4"/>
<path d="M7.97852 7.99996H7.99996C7.99996 7.9927 7.99996 7.98575 7.99996 7.97852C7.99283 7.98568 7.98569 7.99282 7.97852 7.99996Z" fill="#F0F0F0"/>
<path d="M8 4.17488C8 2.76723 8 1.84482 8 0.000976562H7.99865C3.581 0.00169531 0 3.5831 0 8.00094H4.1739V5.65057L6.52428 8.00094H7.97862C7.98578 7.99382 7.9929 7.98669 8.00003 7.97954C8.00003 7.44057 8.00003 6.95966 8.00003 6.52529L5.64962 4.17488H8Z" fill="#F0F0F0"/>
<path d="M4.04782 1.04395C2.7966 1.75641 1.75641 2.7966 1.04395 4.04782V8.00048H3.13091V3.13095V3.13091H8.00048C8.00048 2.4727 8.00048 1.84563 8.00048 1.04395H4.04782V1.04395Z" fill="#D80027"/>
<path d="M8.00086 7.01707L5.15858 4.17482H4.1748C4.1748 4.17479 4.1748 4.17482 4.1748 4.17482L8.00083 8.00085H8.00086C8.00086 8.00085 8.00086 7.32257 8.00086 7.01707Z" fill="#D80027"/>
<path d="M4.82486 9.39062L5.26392 10.3087L6.25539 10.0795L5.81139 10.9952L6.6087 11.6275L5.61598 11.8512L5.61877 12.8689L4.82486 12.2322L4.03098 12.8689L4.03377 11.8512L3.04102 11.6275L3.83836 10.9952L3.3943 10.0795L4.38583 10.3087L4.82486 9.39062Z" fill="#F0F0F0"/>
<path d="M11.9778 11.1299L12.1974 11.5889L12.6931 11.4743L12.4711 11.9322L12.8698 12.2483L12.3734 12.3602L12.3748 12.869L11.9778 12.5507L11.5809 12.869L11.5823 12.3602L11.0859 12.2483L11.4846 11.9322L11.2626 11.4743L11.7583 11.5889L11.9778 11.1299Z" fill="#F0F0F0"/>
<path d="M9.93588 6.26172L10.1554 6.72078L10.6511 6.60616L10.4291 7.064L10.8278 7.38016L10.3314 7.49203L10.3328 8.00084L9.93588 7.6825L9.53894 8.00084L9.54029 7.49203L9.04395 7.38016L9.4426 7.064L9.2206 6.60616L9.71635 6.72078L9.93588 6.26172Z" fill="#F0F0F0"/>
<path d="M11.9778 3.47852L12.1974 3.93758L12.6931 3.82298L12.4711 4.28083L12.8697 4.59695L12.3734 4.70886L12.3748 5.21767L11.9778 4.89933L11.5809 5.21767L11.5823 4.70886L11.0859 4.59695L11.4846 4.28083L11.2626 3.82298L11.7583 3.93758L11.9778 3.47852Z" fill="#F0F0F0"/>
<path d="M13.7611 5.56543L13.9806 6.02449L14.4763 5.90987L14.2543 6.36771L14.653 6.68387L14.1566 6.79577L14.158 7.30455L13.7611 6.98624L13.3641 7.30455L13.3655 6.79577L12.8691 6.68387L13.2678 6.36771L13.0458 5.90987L13.5415 6.02449L13.7611 5.56543Z" fill="#F0F0F0"/>
<path d="M12.4864 8L12.659 8.53144H13.2178L12.7657 8.85991L12.9384 9.39131L12.4864 9.06288L12.0343 9.39131L12.2069 8.85991L11.7549 8.53144H12.3137L12.4864 8Z" fill="#F0F0F0"/>
</g>
<defs>
<clipPath id="clip0_36251_6884">
<rect width="16" height="16" fill="white"/>
</clipPath>
</defs>
</svg>
