<svg width="16" height="16" viewBox="0 0 16 16" fill="none" xmlns="http://www.w3.org/2000/svg">
<g clip-path="url(#clip0_36251_6831)">
<path d="M16 8C16 12.4183 12.4183 16 8 16C3.58175 16 0 12.4183 0 8C0 8.00191 8 0.000875 8 0C12.4183 0 16 3.58175 16 8Z" fill="#0052B4"/>
<path d="M7.97852 7.99996H7.99996C7.99996 7.99276 7.99996 7.98575 7.99996 7.97852C7.99282 7.98568 7.98568 7.99282 7.97852 7.99996Z" fill="#F0F0F0"/>
<path d="M8 4.17391C8 2.76625 8 1.84391 8 0H7.99865C3.58097 0.00075 0 3.58216 0 8H4.1739V5.64966L6.52425 8H7.97862C7.98575 7.99287 7.99287 7.98575 8.00003 7.97859C8.00003 7.43963 8.00003 6.95872 8.00003 6.52431L5.64962 4.17391H8Z" fill="#F0F0F0"/>
<path d="M4.04684 1.04297C2.79563 1.75544 1.75541 2.79563 1.04297 4.04684V7.9995H3.12994V3.13V3.12994H7.9995C7.9995 2.47172 7.9995 1.84466 7.9995 1.04297H4.04684V1.04297Z" fill="#D80027"/>
<path d="M11.4787 8L9.31641 10.1623C9.72166 10.9439 10.5375 11.4782 11.4787 11.4782C12.4198 11.4782 13.2357 10.9439 13.641 10.1623L11.4787 8Z" fill="#FFDA44"/>
<path d="M7.99992 7.01611L5.15758 4.17383H4.17383V4.17389L7.99986 7.99989H7.99992C7.99992 7.99989 7.99992 7.32155 7.99992 7.01611Z" fill="#D80027"/>
<path d="M9.04395 4.17383V7.99989V7.99992C9.04398 9.86364 11.4787 10.4347 11.4787 10.4347C11.4787 10.4347 13.9135 9.86364 13.9135 7.99992V7.99989V4.17383H9.04395Z" fill="#6DA544"/>
<path d="M11.9995 5.91309H10.9561V8.69568H11.9995V5.91309Z" fill="#F0F0F0"/>
<path d="M11.4778 6.43413C11.766 6.43413 11.9996 6.20053 11.9996 5.91238C11.9996 5.62422 11.766 5.39062 11.4778 5.39062C11.1896 5.39062 10.9561 5.62422 10.9561 5.91238C10.9561 6.20053 11.1896 6.43413 11.4778 6.43413Z" fill="#A2001D"/>
<path d="M10.4359 4.87012H9.74023V5.56577H10.4359V4.87012Z" fill="#FFDA44"/>
<path d="M10.4349 6.43457H9.73926V7.13023H10.4349V6.43457Z" fill="#FFDA44"/>
<path d="M10.4349 8.00098H9.73926V8.69663H10.4349V8.00098Z" fill="#FFDA44"/>
<path d="M13.2171 4.87109H12.5215V5.56675H13.2171V4.87109Z" fill="#FFDA44"/>
<path d="M13.2171 6.43555H12.5215V7.1312H13.2171V6.43555Z" fill="#FFDA44"/>
<path d="M13.2171 8H12.5215V8.69566H13.2171V8Z" fill="#FFDA44"/>
</g>
<defs>
<clipPath id="clip0_36251_6831">
<rect width="16" height="16" fill="white"/>
</clipPath>
</defs>
</svg>
