<svg width="16" height="16" viewBox="0 0 16 16" fill="none" xmlns="http://www.w3.org/2000/svg">
<g clip-path="url(#clip0_36251_6789)">
<path d="M8 16C12.4183 16 16 12.4183 16 8C16 3.58172 12.4183 0 8 0C3.58172 0 0 3.58172 0 8C0 12.4183 3.58172 16 8 16Z" fill="#F0F0F0"/>
<path d="M15.9996 7.99948C15.9996 4.55976 13.8286 1.62741 10.7822 0.49707V15.5019C13.8286 14.3715 15.9996 11.4392 15.9996 7.99948Z" fill="#D80027"/>
<path d="M0 7.99948C0 11.4392 2.171 14.3715 5.21741 15.5019V0.49707C2.171 1.62741 0 4.55976 0 7.99948Z" fill="#6DA544"/>
</g>
<defs>
<clipPath id="clip0_36251_6789">
<rect width="16" height="16" fill="white"/>
</clipPath>
</defs>
</svg>
