<svg width="16" height="16" viewBox="0 0 16 16" fill="none" xmlns="http://www.w3.org/2000/svg">
<g clip-path="url(#clip0_36251_6992)">
<path d="M2.34216 13.6569C-0.782023 10.5327 -0.782023 5.46737 2.34216 2.34315C5.46635 -0.781066 10.5317 -0.781035 13.6559 2.34315C13.6559 2.34425 15.7799 9.53243 12.6557 12.6567C9.53154 15.7809 2.34435 13.6591 2.34216 13.6569Z" fill="#FFDA44"/>
<path d="M2.34277 13.6565C5.46696 16.7807 10.5323 16.7807 13.6565 13.6565C16.7807 10.5323 16.7807 5.46699 13.6565 2.34277L2.34277 13.6565Z" fill="#FF9811"/>
<path d="M12.5258 4.5212V3.12988H9.85902L9.65527 3.3336C8.93061 4.05826 9.05252 4.90363 9.14152 5.52088C9.22405 6.09348 9.23395 6.31282 9.02102 6.52579C8.80808 6.7387 8.58867 6.72882 8.01614 6.64623C7.39889 6.55726 6.55355 6.43535 5.82889 7.15998C5.10427 7.8846 5.22623 8.72991 5.3153 9.34713C5.39789 9.91966 5.40783 10.139 5.19495 10.3519C4.98205 10.5647 4.76264 10.5548 4.19023 10.4722C3.96705 10.44 3.73627 10.4067 3.48989 10.404L3.47461 11.7952C3.6288 11.7969 3.80502 11.8223 3.99158 11.8493C4.21245 11.8812 4.46245 11.9172 4.72577 11.9172C4.99864 11.9172 5.2857 11.8783 5.5692 11.7559V12.8691H7.65617V11.8256H6.6127V11.1299H7.30836V10.0865H6.75236C6.77873 9.74891 6.73236 9.42566 6.69236 9.14854C6.60977 8.57601 6.59983 8.35666 6.8127 8.14385C7.02564 7.93091 7.24495 7.94079 7.81758 8.02335C8.26736 8.0882 8.83823 8.17013 9.39533 7.92963V9.04298H11.4823V7.99951H10.4388V7.30385H11.1345V6.26038H10.5785C10.6049 5.92279 10.5586 5.59957 10.5186 5.32235C10.4609 4.92232 10.4387 4.6947 10.5032 4.52123H12.5258V4.5212V4.5212Z" fill="#F0F0F0"/>
</g>
<defs>
<clipPath id="clip0_36251_6992">
<rect width="16" height="16" fill="white"/>
</clipPath>
</defs>
</svg>
