<svg width="16" height="16" viewBox="0 0 16 16" fill="none" xmlns="http://www.w3.org/2000/svg">
<g clip-path="url(#clip0_36251_6779)">
<path d="M8 16C12.4183 16 16 12.4183 16 8C16 3.58172 12.4183 0 8 0C3.58172 0 0 3.58172 0 8C0 12.4183 3.58172 16 8 16Z" fill="#F0F0F0"/>
<path d="M7.99987 0C4.69252 0 1.85415 2.00706 0.635742 4.86956H15.364C14.1456 2.00706 11.3072 0 7.99987 0Z" fill="#A2001D"/>
<path d="M7.99987 16.0004C11.3072 16.0004 14.1456 13.9934 15.364 11.1309H0.635742C1.85415 13.9934 4.69252 16.0004 7.99987 16.0004Z" fill="#496E2D"/>
<path d="M15.7244 5.91309H0.275594C0.09625 6.57849 0 7.27796 0 8.00005C0 8.72215 0.09625 9.42162 0.275594 10.087H15.7244C15.9038 9.42162 16 8.72215 16 8.00005C16 7.27796 15.9037 6.57849 15.7244 5.91309Z" fill="#0052B4"/>
</g>
<defs>
<clipPath id="clip0_36251_6779">
<rect width="16" height="16" fill="white"/>
</clipPath>
</defs>
</svg>
