<svg width="16" height="16" viewBox="0 0 16 16" fill="none" xmlns="http://www.w3.org/2000/svg">
<g clip-path="url(#clip0_36251_6813)">
<path d="M8 16C12.4183 16 16 12.4183 16 8C16 3.58172 12.4183 0 8 0C3.58172 0 0 3.58172 0 8C0 12.4183 3.58172 16 8 16Z" fill="#6DA544"/>
<path d="M8.00029 3.13086L14.609 8.00042L8.00029 12.87L1.3916 8.00042L8.00029 3.13086Z" fill="#FFDA44"/>
<path d="M8.00037 10.782C9.53715 10.782 10.783 9.53618 10.783 7.99939C10.783 6.46261 9.53715 5.2168 8.00037 5.2168C6.46358 5.2168 5.21777 6.46261 5.21777 7.99939C5.21777 9.53618 6.46358 10.782 8.00037 10.782Z" fill="#F0F0F0"/>
<path d="M6.60915 7.8252C6.12528 7.8252 5.65831 7.89879 5.21875 8.03535C5.23822 9.55535 6.47584 10.7817 8.00047 10.7817C8.94322 10.7817 9.77584 10.3124 10.2792 9.59522C9.41803 8.51719 8.093 7.8252 6.60915 7.8252Z" fill="#0052B4"/>
<path d="M10.7314 8.53252C10.7649 8.35989 10.783 8.1818 10.783 7.99939C10.783 6.46258 9.5372 5.2168 8.00042 5.2168C6.85373 5.2168 5.86936 5.91058 5.44336 6.90114C5.81992 6.82311 6.2098 6.78202 6.60914 6.78202C8.22529 6.78199 9.68736 7.4538 10.7314 8.53252Z" fill="#0052B4"/>
</g>
<defs>
<clipPath id="clip0_36251_6813">
<rect width="16" height="16" fill="white"/>
</clipPath>
</defs>
</svg>
