<svg width="16" height="16" viewBox="0 0 16 16" fill="none" xmlns="http://www.w3.org/2000/svg">
<g clip-path="url(#clip0_36251_6962)">
<path d="M10.7823 0.497562C9.91564 0.176031 8.97829 4.15929e-09 7.99973 4.15929e-09C7.02117 -3.12458e-05 6.0838 0.176031 5.21714 0.497562L4.52148 7.99997L5.21714 15.5024C6.08376 15.824 7.02114 16 7.99973 16C8.97826 16 9.91567 15.824 10.7823 15.5024L11.4779 8L10.7823 0.497562Z" fill="#FFDA44"/>
<path d="M15.9996 7.99948C15.9996 4.55979 13.8286 1.62738 10.7822 0.49707V15.5019C13.8286 14.3715 15.9996 11.4392 15.9996 7.99948Z" fill="#D80027"/>
<path d="M0 7.99941C0 11.4392 2.171 14.3715 5.21734 15.5019L5.21738 0.49707C2.171 1.62738 0 4.5597 0 7.99941Z" fill="#0052B4"/>
</g>
<defs>
<clipPath id="clip0_36251_6962">
<rect width="16" height="16" fill="white"/>
</clipPath>
</defs>
</svg>
