<svg width="16" height="16" viewBox="0 0 16 16" fill="none" xmlns="http://www.w3.org/2000/svg">
<g clip-path="url(#clip0_36251_7005)">
<path d="M0.793813 4.52085C0.28525 5.5726 0 6.75251 0 7.9991C0 9.2457 0.28525 10.4256 0.793813 11.4774L8 12.173L15.2062 11.4774C15.7147 10.4256 16 9.2457 16 7.9991C16 6.75251 15.7147 5.5726 15.2062 4.52085L8 3.8252L0.793813 4.52085Z" fill="#F0F0F0"/>
<path d="M0.793945 11.4785C2.08788 14.1545 4.8282 16.0003 7.99985 16.0003C11.1715 16.0003 13.9118 14.1545 15.2058 11.4785H0.793945Z" fill="#496E2D"/>
<path d="M0.793945 4.52175H15.2058C13.9118 1.84578 11.1715 0 7.99985 0C4.82816 0 2.08788 1.84578 0.793945 4.52175Z" fill="black"/>
<path d="M2.34314 2.34375C-0.781047 5.46794 -0.781047 10.5333 2.34314 13.6575C3.63417 12.3665 4.87583 11.1248 8.00002 8.00063L2.34314 2.34375Z" fill="#D80027"/>
<path d="M10.0874 8.00021C10.0874 6.83465 10.9066 5.86093 12.0005 5.62205C11.8324 5.58534 11.6579 5.56543 11.4787 5.56543C10.134 5.56543 9.04395 6.65549 9.04395 8.00021C9.04395 9.34493 10.134 10.435 11.4787 10.435C11.6579 10.435 11.8323 10.4151 12.0005 10.3784C10.9066 10.1395 10.0874 9.16577 10.0874 8.00021Z" fill="#D80027"/>
<path d="M12.1025 6.43555L12.4479 7.49848H13.5655L12.6613 8.1553L13.0067 9.21817L12.1025 8.5613L11.1984 9.21817L11.5438 8.1553L10.6396 7.49848H11.7572L12.1025 6.43555Z" fill="#D80027"/>
</g>
<defs>
<clipPath id="clip0_36251_7005">
<rect width="16" height="16" fill="white"/>
</clipPath>
</defs>
</svg>
