<svg width="16" height="16" viewBox="0 0 16 16" fill="none" xmlns="http://www.w3.org/2000/svg">
<g clip-path="url(#clip0_36251_6816)">
<path d="M8 16C12.4183 16 16 12.4183 16 8C16 3.58172 12.4183 0 8 0C3.58172 0 0 3.58172 0 8C0 12.4183 3.58172 16 8 16Z" fill="#F0F0F0"/>
<path d="M14.3469 12.8712L9.47585 8.00016H9.47582L14.3469 3.12901C14.1369 2.85601 13.907 2.59335 13.657 2.34326C13.4069 2.0932 13.1443 1.86335 12.8713 1.65332L8.00016 6.52441L8.00013 6.52445L3.12904 1.65332C2.85607 1.86338 2.59338 2.09316 2.34329 2.34326C2.0932 2.59335 1.86338 2.85601 1.65335 3.12901L6.52445 8.00007L6.52448 8.0001L1.65332 12.8713C1.86341 13.1443 2.09323 13.4069 2.34326 13.657C2.59335 13.9071 2.85598 14.1369 3.12901 14.3469L8.00013 9.47585L8.00016 9.47582L12.8713 14.3469C13.1442 14.1369 13.4069 13.907 13.657 13.657C13.9071 13.4069 14.1369 13.1442 14.3469 12.8712Z" fill="#D80027"/>
<path d="M6.6084 2.43541L7.99971 2.78323L9.39102 2.43541V1.25282L8.83449 1.53107L7.99971 0.696289L7.16493 1.53107L6.6084 1.25282V2.43541Z" fill="#FFDA44"/>
<path d="M6.6084 2.43555V3.30517C6.6084 4.37017 7.99971 4.69648 7.99971 4.69648C7.99971 4.69648 9.39102 4.37014 9.39102 3.30517V2.43555H6.6084Z" fill="#D80027"/>
</g>
<defs>
<clipPath id="clip0_36251_6816">
<rect width="16" height="16" fill="white"/>
</clipPath>
</defs>
</svg>
