<svg width="16" height="16" viewBox="0 0 16 16" fill="none" xmlns="http://www.w3.org/2000/svg">
<g clip-path="url(#clip0_36251_6903)">
<path d="M16 8C16 12.4183 12.4183 16 8 16C3.58175 16 0 12.4183 0 8C0 8.00191 8 0.000875 8 0C12.4183 0 16 3.58175 16 8Z" fill="#0052B4"/>
<path d="M7.97852 8.00094H7.99996C7.99996 7.99374 7.99996 7.98672 7.99996 7.97949C7.99282 7.98666 7.98568 7.9938 7.97852 8.00094Z" fill="#F0F0F0"/>
<path d="M8 4.17391C8 2.76625 8 1.84391 8 0H7.99866C3.58097 0.00075 0 3.58216 0 8H4.17391V5.64966L6.52425 8H7.97862C7.98575 7.99287 7.99288 7.98575 8.00003 7.97859C8.00003 7.43963 8.00003 6.95872 8.00003 6.52431L5.64962 4.17391H8Z" fill="#F0F0F0"/>
<path d="M11.4782 5.91251C12.2466 5.91251 12.8695 5.2896 12.8695 4.5212C12.8695 3.7528 12.2466 3.12988 11.4782 3.12988C10.7098 3.12988 10.0869 3.7528 10.0869 4.5212C10.0869 5.2896 10.7098 5.91251 11.4782 5.91251Z" fill="#6DA544"/>
<path d="M4.04684 1.04395C2.79563 1.75641 1.75541 2.7966 1.04297 4.04782V8.00048H3.12994V3.13098V3.13091H7.9995C7.9995 2.4727 7.9995 1.84563 7.9995 1.04395H4.04684V1.04395Z" fill="#D80027"/>
<path d="M7.99894 7.01611L5.1566 4.17383H4.17285V4.17389L7.99888 7.99989H7.99894C7.99894 7.99989 7.99894 7.32154 7.99894 7.01611Z" fill="#D80027"/>
<path d="M13.9125 4.17383H9.04297V6.26079H13.9125V4.17383Z" fill="#D80027"/>
<path d="M9.04395 9.39062V10.7819H9.77594C10.2149 11.2121 10.8156 11.4776 11.4787 11.4776C12.1418 11.4776 12.7426 11.2121 13.1815 10.7819H13.2178H13.9135V9.39062H9.04395Z" fill="#FFDA44"/>
<path d="M9.04395 5.91211V7.99908C9.04395 9.8628 11.4787 10.4339 11.4787 10.4339C11.4787 10.4339 13.9135 9.8628 13.9135 7.99908V5.91211H9.04395V5.91211Z" fill="#338AF3"/>
<path d="M11.4786 7.02734C10.8699 7.02734 10.8699 7.58387 10.2613 7.58387C9.6526 7.58387 9.6526 7.02734 9.04395 7.02734V8.00125C9.6526 8.00125 9.6526 8.55778 10.2613 8.55778C10.8699 8.55778 10.8699 8.00125 11.4786 8.00125C12.0873 8.00125 12.0873 8.55778 12.696 8.55778C13.3048 8.55778 13.3048 8.00125 13.9135 8.00125V7.02734C13.3048 7.02734 13.3048 7.58387 12.696 7.58387C12.0873 7.58387 12.0873 7.02734 11.4786 7.02734Z" fill="#F3F3F3"/>
<path d="M11.4786 5.07812C10.8699 5.07812 10.8699 5.63466 10.2613 5.63466C9.6526 5.63466 9.6526 5.07812 9.04395 5.07812V6.05203C9.6526 6.05203 9.6526 6.60856 10.2613 6.60856C10.8699 6.60856 10.8699 6.05203 11.4786 6.05203C12.0873 6.05203 12.0873 6.60856 12.696 6.60856C13.3048 6.60856 13.3048 6.05203 13.9135 6.05203V5.07812C13.3048 5.07812 13.3048 5.63466 12.696 5.63466C12.0873 5.63466 12.0873 5.07812 11.4786 5.07812Z" fill="#F3F3F3"/>
</g>
<defs>
<clipPath id="clip0_36251_6903">
<rect width="16" height="16" fill="white"/>
</clipPath>
</defs>
</svg>
