<svg width="16" height="16" viewBox="0 0 16 16" fill="none" xmlns="http://www.w3.org/2000/svg">
<g clip-path="url(#clip0_36251_6850)">
<path d="M8 16C12.4183 16 16 12.4183 16 8C16 3.58172 12.4183 0 8 0C3.58172 0 0 3.58172 0 8C0 12.4183 3.58172 16 8 16Z" fill="#F0F0F0"/>
<path d="M9.56543 15.8457C12.728 15.2183 15.2193 12.727 15.8467 9.56445H9.56543V15.8457Z" fill="#496E2D"/>
<path d="M0.15332 9.56445C0.780664 12.727 3.27198 15.2183 6.43457 15.8457V9.56445H0.15332Z" fill="#496E2D"/>
<path d="M15.8467 6.43457C15.2193 3.27201 12.728 0.780695 9.56543 0.15332V6.43457H15.8467Z" fill="#496E2D"/>
<path d="M6.43457 0.15332C3.27198 0.780695 0.780664 3.27201 0.15332 6.43457H6.43457V0.15332Z" fill="#496E2D"/>
<path d="M7.47804 9.56543H6.43457V15.8467C6.7751 15.9142 7.12344 15.96 7.47804 15.9828V9.56543Z" fill="#FFDA44"/>
<path d="M7.47804 6.43495V0.0175781C7.12344 0.0403906 6.77507 0.0861719 6.43457 0.153703V6.43495H7.47804Z" fill="#FFDA44"/>
<path d="M8.52201 0.0174062C8.34945 0.00625 8.17561 0 8.00026 0C7.82492 0 7.65108 0.00625 7.47852 0.0174062V6.43481H8.52198V0.0174062H8.52201Z" fill="black"/>
<path d="M7.47852 15.9828C7.65108 15.994 7.82492 16.0002 8.00026 16.0002C8.17561 16.0002 8.34945 15.994 8.52201 15.9828V9.56543H7.47855V15.9828H7.47852Z" fill="black"/>
<path d="M6.43495 7.47901V6.43555H0.153703C0.0861406 6.77611 0.0403906 7.12442 0.0175781 7.47901H6.43495Z" fill="#FFDA44"/>
<path d="M9.56543 7.47901H15.9828C15.96 7.12442 15.9142 6.77611 15.8467 6.43555H9.56546V7.47901H9.56543Z" fill="#FFDA44"/>
<path d="M9.56543 8.52202H15.9828C15.994 8.34949 16.0002 8.17561 16.0002 8.00027C16.0002 7.82492 15.994 7.65105 15.9828 7.47852H9.56543V8.52202Z" fill="black"/>
<path d="M0.0174062 7.47852C0.00628125 7.65105 0 7.82492 0 8.00027C0 8.17561 0.00628125 8.34949 0.0174062 8.52202H6.43481V7.47855H0.0174062V7.47852Z" fill="black"/>
<path d="M7.99992 11.826C10.113 11.826 11.826 10.113 11.826 7.99992C11.826 5.88683 10.113 4.17383 7.99992 4.17383C5.88683 4.17383 4.17383 5.88683 4.17383 7.99992C4.17383 10.113 5.88683 11.826 7.99992 11.826Z" fill="#D80027"/>
<path d="M8.87135 8.42663C8.58676 7.85748 8.21685 7.2806 8.21685 7.2806C8.21685 7.2806 8.22604 7.01795 8.22604 6.86145C8.22604 6.6257 8.03491 6.43457 7.79916 6.43457C7.57582 6.43457 7.39282 6.60616 7.37416 6.82463C7.19854 6.8361 7.05957 6.98179 7.05957 7.16029C7.05957 7.29007 7.1331 7.40254 7.24073 7.45876C7.29423 7.33363 7.39898 7.23595 7.52854 7.19141C7.54966 7.2087 7.57235 7.22413 7.59657 7.23723L7.65126 7.26341C7.65126 7.26341 7.44848 7.83501 7.44848 8.14207C7.44848 9.00532 8.01766 9.27154 8.01766 9.27154V9.28045L7.73307 9.56501H8.30222V8.99582L8.58682 9.28041C8.58932 9.27507 9.12588 8.93573 8.87135 8.42663Z" fill="#496E2D"/>
<path d="M7.99973 4.86914L8.12923 5.2677H8.54829L8.20926 5.51405L8.33879 5.91261L7.99973 5.6663L7.66067 5.91261L7.7902 5.51405L7.45117 5.2677H7.87023L7.99973 4.86914Z" fill="#496E2D"/>
<path d="M6.15976 5.4678L6.49876 5.71415L6.83782 5.46777L6.70832 5.8664L7.04738 6.11268L6.62829 6.11271L6.49879 6.51128L6.36926 6.11271L5.9502 6.11268L6.28923 5.86634L6.15976 5.4678Z" fill="#496E2D"/>
<path d="M5.02246 7.03235H5.44149L5.57102 6.63379L5.70052 7.03235L6.11961 7.03232L5.78058 7.2787L5.91012 7.67726L5.57102 7.43092L5.23199 7.67723L5.36146 7.27867L5.02246 7.03235Z" fill="#496E2D"/>
<path d="M5.02246 8.96714L5.36146 8.72086L5.23196 8.32227L5.57102 8.56861L5.91009 8.32227L5.78059 8.72083L6.11965 8.96717L5.70052 8.9672L5.57102 9.36573L5.44149 8.96714H5.02246Z" fill="#496E2D"/>
<path d="M6.15979 10.5317L6.28926 10.1332L5.9502 9.88688H6.36929L6.49882 9.48828L6.62832 9.88685H7.04741L6.70835 10.1332L6.83785 10.5318L6.49879 10.2854L6.15979 10.5317Z" fill="#496E2D"/>
<path d="M7.99973 11.1304L7.87023 10.7319H7.45117L7.7902 10.4855L7.66067 10.0869L7.99973 10.3332L8.33876 10.0869L8.20926 10.4855L8.54829 10.7319L8.12923 10.7319L7.99973 11.1304Z" fill="#496E2D"/>
<path d="M9.83977 10.5317L9.50077 10.2854L9.16174 10.5318L9.29121 10.1332L8.95215 9.88687L9.37124 9.88684L9.50071 9.48828L9.63027 9.88687H10.0493L9.71031 10.1332L9.83977 10.5317Z" fill="#496E2D"/>
<path d="M10.9771 8.96711H10.558L10.4285 9.36571L10.299 8.96718H9.87988L10.2189 8.7208L10.0894 8.32227L10.4285 8.56858L10.7675 8.32227L10.6381 8.72083L10.9771 8.96711Z" fill="#496E2D"/>
<path d="M10.9771 7.03232L10.6381 7.27864L10.7675 7.6772L10.4285 7.43089L10.0894 7.67726L10.2189 7.27867L9.87988 7.03235L10.299 7.03229L10.4285 6.63379L10.558 7.03232H10.9771Z" fill="#496E2D"/>
<path d="M9.83977 5.46777L9.71031 5.86631L10.0493 6.11265H9.63027L9.50077 6.51125L9.37124 6.11268L8.95215 6.11271L9.29121 5.86631L9.16171 5.4678L9.50077 5.71409L9.83977 5.46777Z" fill="#496E2D"/>
</g>
<defs>
<clipPath id="clip0_36251_6850">
<rect width="16" height="16" fill="white"/>
</clipPath>
</defs>
</svg>
