<svg width="16" height="16" viewBox="0 0 16 16" fill="none" xmlns="http://www.w3.org/2000/svg">
<g clip-path="url(#clip0_36251_7000)">
<path d="M0.37775 5.56562C0.132688 6.33337 -3.12445e-05 7.15127 5.51734e-09 8.0003C-3.12445e-05 8.84937 0.132719 9.66734 0.377781 10.4351L8 10.783L15.6222 10.4351C15.8673 9.66737 16 8.84937 16 8.00037C16 7.1513 15.8673 6.33337 15.6222 5.56559L8 5.21777L0.37775 5.56562Z" fill="#F0F0F0"/>
<path d="M15.6225 5.56461L8.00024 5.2168L0.377992 5.56461C0.305367 5.79223 0.242836 6.02433 0.19043 6.26026H15.8099C15.7576 6.0243 15.6951 5.79217 15.6225 5.56461Z" fill="#D80027"/>
<path d="M0.19043 9.73828C0.242773 9.97422 0.305305 10.2063 0.37793 10.4339L0.37868 10.4339L8.00012 10.7817L15.6223 10.4339C15.695 10.2063 15.7575 9.97422 15.8099 9.73828H0.19043V9.73828Z" fill="#D80027"/>
<path d="M8.00012 16.0008C11.5694 16.0008 14.5922 13.6632 15.6223 10.4355H0.37793C1.40809 13.6631 4.43096 16.0008 8.00012 16.0008Z" fill="#6DA544"/>
<path d="M8.00015 -0.000976562C4.43096 -0.000945312 1.40815 2.33665 0.37793 5.56424L15.6223 5.56427C14.5922 2.33662 11.5694 -0.00100781 8.00015 -0.000976562Z" fill="#338AF3"/>
<path d="M3.65519 3.30347C3.65519 2.55419 4.18178 1.92825 4.885 1.77469C4.77694 1.75106 4.66478 1.73828 4.54959 1.73828C3.68516 1.73828 2.98438 2.43903 2.98438 3.3035C2.98438 4.16797 3.68509 4.86872 4.54959 4.86872C4.66478 4.86872 4.7769 4.85591 4.885 4.83231C4.18181 4.67869 3.65519 4.05275 3.65519 3.30347Z" fill="#F0F0F0"/>
<path d="M5.81021 4.01465L5.91614 4.34074H6.25902L5.98164 4.54231L6.08758 4.8684L5.81021 4.66687L5.53277 4.8684L5.63874 4.54231L5.36133 4.34074H5.7042L5.81021 4.01465Z" fill="#F0F0F0"/>
<path d="M6.90487 4.01465L7.01084 4.34074H7.35371L7.0763 4.54231L7.18227 4.8684L6.90487 4.66687L6.62746 4.8684L6.73343 4.54231L6.45605 4.34074H6.7989L6.90487 4.01465Z" fill="#F0F0F0"/>
<path d="M7.99868 4.01465L8.10462 4.34074H8.44753L8.17012 4.54231L8.27606 4.8684L7.99868 4.66687L7.72124 4.8684L7.82724 4.54231L7.5498 4.34074H7.89271L7.99868 4.01465Z" fill="#F0F0F0"/>
<path d="M9.09341 4.01465L9.19937 4.34074H9.54222L9.26484 4.54231L9.37081 4.8684L9.09341 4.66687L8.81597 4.8684L8.92197 4.54231L8.64453 4.34074H8.98741L9.09341 4.01465Z" fill="#F0F0F0"/>
<path d="M10.1881 4.01465L10.294 4.34074H10.6369L10.3595 4.54231L10.4655 4.8684L10.1881 4.66687L9.91066 4.8684L10.0166 4.54231L9.73926 4.34074H10.0821L10.1881 4.01465Z" fill="#F0F0F0"/>
<path d="M6.90487 2.87695L7.01084 3.20302H7.35371L7.0763 3.40461L7.18227 3.73067L6.90487 3.52914L6.62746 3.73067L6.73343 3.40461L6.45605 3.20302H6.7989L6.90487 2.87695Z" fill="#F0F0F0"/>
<path d="M7.99868 2.87598L8.10462 3.20204H8.44753L8.17012 3.40363L8.27606 3.7297L7.99868 3.52816L7.72124 3.7297L7.82724 3.40363L7.5498 3.20204H7.89271L7.99868 2.87598Z" fill="#F0F0F0"/>
<path d="M9.09341 2.87598L9.19937 3.20204H9.54222L9.26484 3.40363L9.37081 3.7297L9.09341 3.52816L8.81597 3.7297L8.92197 3.40363L8.64453 3.20204H8.98741L9.09341 2.87598Z" fill="#F0F0F0"/>
<path d="M10.1881 2.87695L10.294 3.20302H10.6369L10.3595 3.40461L10.4655 3.73067L10.1881 3.52914L9.91066 3.73067L10.0166 3.40461L9.73926 3.20302H10.0821L10.1881 2.87695Z" fill="#F0F0F0"/>
<path d="M7.99868 1.73828L8.10462 2.06441H8.44753L8.17012 2.26594L8.27606 2.59206L7.99868 2.39053L7.72124 2.59206L7.82724 2.26594L7.5498 2.06441H7.89271L7.99868 1.73828Z" fill="#F0F0F0"/>
<path d="M9.09341 1.73828L9.19937 2.06441H9.54222L9.26484 2.26594L9.37081 2.59206L9.09341 2.39053L8.81597 2.59206L8.92197 2.26594L8.64453 2.06441H8.98741L9.09341 1.73828Z" fill="#F0F0F0"/>
<path d="M10.1881 1.73828L10.294 2.06441H10.6369L10.3595 2.26594L10.4655 2.59206L10.1881 2.39053L9.91066 2.59206L10.0166 2.26594L9.73926 2.06441H10.0821L10.1881 1.73828Z" fill="#F0F0F0"/>
</g>
<defs>
<clipPath id="clip0_36251_7000">
<rect width="16" height="16" fill="white"/>
</clipPath>
</defs>
</svg>
