<svg width="16" height="16" viewBox="0 0 16 16" fill="none" xmlns="http://www.w3.org/2000/svg">
<g clip-path="url(#clip0_36251_6821)">
<path d="M4.52183 15.2062C5.57358 15.7147 6.75348 16 8.00008 16C9.24667 16 10.4266 15.7147 11.4783 15.2062L12.174 8L11.4783 0.793813C10.4266 0.28525 9.24667 0 8.00008 0C6.75348 0 5.57358 0.28525 4.52183 0.793813L3.82617 8L4.52183 15.2062Z" fill="#FFDA44"/>
<path d="M11.4775 15.2067C14.1535 13.9128 15.9993 11.1725 15.9993 8.00083C15.9993 4.82917 14.1535 2.08886 11.4775 0.794922V15.2067Z" fill="#D80027"/>
<path d="M4.52175 15.2058V0.793945C1.84578 2.08788 0 4.82816 0 7.99985C0 11.1715 1.84578 13.9118 4.52175 15.2058Z" fill="#0052B4"/>
<path d="M8 10.7816C8 9.50502 8 7.99902 8 7.99902H10.087V9.04249C10.087 9.22377 9.73915 9.88802 8.88062 10.4338C8.55547 10.6406 8.21887 10.7071 8 10.7816Z" fill="#D80027"/>
<path d="M8.00005 5.91211H5.91309V7.99908H8.00005V5.91211Z" fill="#D80027"/>
<path d="M9.04384 5.21714C9.04384 4.83292 8.73237 4.52148 8.34818 4.52148C8.2213 4.52148 8.10274 4.55598 8.00037 4.6153C7.89796 4.55598 7.77943 4.52148 7.65255 4.52148C7.26837 4.52148 6.9569 4.83292 6.9569 5.21714H5.21777V8.69536C5.21777 9.99024 6.24609 10.7391 7.05249 11.1273C6.99215 11.2303 6.9569 11.3499 6.9569 11.478C6.9569 11.8622 7.26837 12.1737 7.65255 12.1737C7.77943 12.1737 7.89799 12.1392 8.00037 12.0799C8.10277 12.1392 8.2213 12.1737 8.34818 12.1737C8.73237 12.1737 9.04384 11.8622 9.04384 11.478C9.04384 11.3499 9.00859 11.2303 8.94821 11.1273C9.75462 10.7391 10.783 9.99027 10.783 8.69536V5.21714H9.04384ZM9.73949 8.69536C9.73949 8.87664 9.73949 9.42824 8.88099 9.97405C8.5558 10.1808 8.21924 10.3149 8.00037 10.3894C7.78149 10.3149 7.44493 10.1808 7.11974 9.97405C6.26124 9.42824 6.26124 8.87664 6.26124 8.69536V6.26061H9.73949V8.69536Z" fill="#FF9811"/>
</g>
<defs>
<clipPath id="clip0_36251_6821">
<rect width="16" height="16" fill="white"/>
</clipPath>
</defs>
</svg>
