<svg width="16" height="16" viewBox="0 0 16 16" fill="none" xmlns="http://www.w3.org/2000/svg">
<g clip-path="url(#clip0_36251_6814)">
<path d="M8 16C12.4183 16 16 12.4183 16 8C16 3.58172 12.4183 0 8 0C3.58172 0 0 3.58172 0 8C0 12.4183 3.58172 16 8 16Z" fill="#F0F0F0"/>
<path d="M7.30497 8C7.30497 8 2.34844 13.658 2.34375 13.6568C3.79144 15.1046 5.79147 16 8.00062 16C12.4189 16 16.0006 12.4183 16.0006 8H7.30497Z" fill="#D80027"/>
<path d="M2.34314 2.34375C-0.781047 5.46794 -0.781047 10.5333 2.34314 13.6575C3.63417 12.3665 4.87583 11.1248 8.00002 8.00063L2.34314 2.34375Z" fill="#0052B4"/>
</g>
<defs>
<clipPath id="clip0_36251_6814">
<rect width="16" height="16" fill="white"/>
</clipPath>
</defs>
</svg>
