<svg width="16" height="16" viewBox="0 0 16 16" fill="none" xmlns="http://www.w3.org/2000/svg">
<g clip-path="url(#clip0_36251_6961)">
<path d="M16 8C16 12.4183 12.4183 16 8 16C3.58175 16 0 12.4183 0 8C0 8.00191 8 0.000875 8 0C12.4183 0 16 3.58175 16 8Z" fill="#0052B4"/>
<path d="M7.97852 8.00094H7.99996C7.99996 7.99374 7.99996 7.98672 7.99996 7.97949C7.99283 7.98666 7.98569 7.9938 7.97852 8.00094Z" fill="#F0F0F0"/>
<path d="M8 4.17391C8 2.76625 8 1.84391 8 0H7.99865C3.581 0.00075 0 3.58216 0 8H4.1739V5.64966L6.52428 8H7.97862C7.98575 7.99287 7.9929 7.98575 8.00003 7.97859C8.00003 7.43963 8.00003 6.95872 8.00003 6.52431L5.64962 4.17391H8Z" fill="#F0F0F0"/>
<path d="M4.04782 1.04297C2.7966 1.75544 1.75641 2.79563 1.04395 4.04684V7.9995H3.13091V3.13V3.12994H8.00048C8.00048 2.47172 8.00048 1.84466 8.00048 1.04297H4.04782V1.04297Z" fill="#D80027"/>
<path d="M8.00086 7.01611L5.15858 4.17383C5.15858 4.17383 4.1748 4.17389 4.1748 4.17383V4.17389L8.00083 7.99989H8.00086C8.00086 7.99989 8.00086 7.32155 8.00086 7.01611Z" fill="#D80027"/>
<path d="M13.8545 5.93652L14.0272 6.46796H14.586L14.1339 6.7964L14.3066 7.3278L13.8545 6.9994L13.4025 7.3278L13.5751 6.7964L13.123 6.46796H13.6818L13.8545 5.93652Z" fill="#D80027"/>
<path d="M11.857 9.76172L12.116 10.5589H12.9541L12.276 11.0515L12.5351 11.8487L11.857 11.356L11.1788 11.8487L11.4379 11.0515L10.7598 10.5589H11.5979L11.857 9.76172Z" fill="#D80027"/>
<path d="M11.9328 3.50098L12.1487 4.16532H12.8472L12.2821 4.57579L12.4979 5.2401L11.9328 4.82951L11.3678 5.2401L11.5836 4.57579L11.0186 4.16532H11.717L11.9328 3.50098Z" fill="#D80027"/>
<path d="M10.0103 5.91309L10.2693 6.71027H11.1075L10.4293 7.2029L10.6884 8.00006L10.0103 7.5074L9.33215 8.00006L9.59121 7.2029L8.91309 6.71027H9.75124L10.0103 5.91309Z" fill="#D80027"/>
</g>
<defs>
<clipPath id="clip0_36251_6961">
<rect width="16" height="16" fill="white"/>
</clipPath>
</defs>
</svg>
