<svg width="16" height="16" viewBox="0 0 16 16" fill="none" xmlns="http://www.w3.org/2000/svg">
<g clip-path="url(#clip0_36251_6799)">
<path d="M8 16C12.4183 16 16 12.4183 16 8C16 6.65741 15.6687 5.39231 15.0843 4.28125L7.99059 8.00937L11.7188 0.915688C10.6077 0.33125 9.34259 0 8 0C3.58175 0 0 3.58175 0 8C0 10.2092 0.895438 12.2092 2.34313 13.6569C3.79084 15.1046 5.79084 16 8 16Z" fill="#0052B4"/>
<path d="M15.0761 4.28961C14.7099 3.59261 14.2338 2.9382 13.6477 2.35214C13.0616 1.76608 12.4073 1.28998 11.7103 0.923828L2.33398 13.6659L15.0761 4.28961Z" fill="#F0F0F0"/>
<path d="M2.33398 13.6663L15.0761 4.29001C14.7099 3.59301 14.2338 2.9386 13.6477 2.35254L2.33398 13.6663Z" fill="#FF9811"/>
<path d="M6.94723 4.69064L5.97023 5.1502L6.49051 6.09645L5.42957 5.89348L5.29513 6.96523L4.55613 6.17695L3.81713 6.96523L3.68276 5.89348L2.62182 6.09639L3.14204 5.15017L2.16504 4.69064L3.14207 4.23105L2.62182 3.28486L3.6827 3.48777L3.81716 2.41602L4.55613 3.2043L5.29513 2.41602L5.42957 3.48777L6.49054 3.28486L5.97026 4.23108L6.94723 4.69064Z" fill="#F0F0F0"/>
</g>
<defs>
<clipPath id="clip0_36251_6799">
<rect width="16" height="16" fill="white"/>
</clipPath>
</defs>
</svg>
