<svg width="16" height="16" viewBox="0 0 16 16" fill="none" xmlns="http://www.w3.org/2000/svg">
<g clip-path="url(#clip0_36251_6984)">
<path d="M16 8C16 12.4183 12.4183 16 8 16C3.58175 16 0 12.4183 0 8C0 8.00191 8 0.000875 8 0C12.4183 0 16 3.58175 16 8Z" fill="#0052B4"/>
<path d="M7.97852 7.99996H7.99996C7.99996 7.99276 7.99996 7.98575 7.99996 7.97852C7.99282 7.98568 7.98568 7.99282 7.97852 7.99996Z" fill="#F0F0F0"/>
<path d="M8 4.17391C8 2.76625 8 1.84391 8 0H7.99865C3.58097 0.00075 0 3.58216 0 8H4.1739V5.64966L6.52425 8H7.97862C7.98575 7.99287 7.99287 7.98575 8.00003 7.97859C8.00003 7.43963 8.00003 6.95872 8.00003 6.52431L5.64962 4.17391H8Z" fill="#F0F0F0"/>
<path d="M4.04782 1.04297C2.7966 1.75544 1.75638 2.79563 1.04395 4.04685V7.99951H3.13091V3.13V3.12994H8.00048C8.00048 2.47172 8.00048 1.84466 8.00048 1.04297H4.04782V1.04297Z" fill="#D80027"/>
<path d="M7.99992 7.01611L5.15758 4.17383H4.17383V4.17389L7.99986 7.99989H7.99992C7.99992 7.99989 7.99992 7.32155 7.99992 7.01611Z" fill="#D80027"/>
<path d="M10.7832 8L10.9312 8.4555H11.4101L11.0227 8.737L11.1707 9.19253L10.7832 8.911L10.3957 9.19253L10.5437 8.737L10.1562 8.4555H10.6352L10.7832 8Z" fill="#F0F0F0"/>
<path d="M8.81559 8.81461L9.24231 9.03202L9.58099 8.69336L9.50606 9.16642L9.93281 9.38386L9.45974 9.45873L9.38484 9.93186L9.16737 9.50508L8.69434 9.58002L9.03306 9.24136L8.81559 8.81461Z" fill="#F0F0F0"/>
<path d="M8 10.7821L8.4555 10.6341L8.45556 10.1553L8.737 10.5427L9.19254 10.3946L8.911 10.7821L9.19254 11.1697L8.737 11.0217L8.45556 11.4091V10.9302L8 10.7821Z" fill="#F0F0F0"/>
<path d="M8.81559 12.75L9.03299 12.3233L8.69434 11.9847L9.1674 12.0596L9.38484 11.6328L9.45974 12.1059L9.93281 12.1808L9.50606 12.3982L9.58099 12.8713L9.24231 12.5326L8.81559 12.75Z" fill="#F0F0F0"/>
<path d="M10.7832 13.5656L10.6352 13.11H10.1562L10.5437 12.8285L10.3957 12.373L10.7832 12.6545L11.1707 12.373L11.0227 12.8285L11.4102 13.11H10.9313L10.7832 13.5656Z" fill="#F0F0F0"/>
<path d="M12.75 12.75L12.3233 12.5327L11.9847 12.8713L12.0596 12.3982L11.6328 12.1808L12.1059 12.1059L12.1808 11.6328L12.3982 12.0596L12.8713 11.9847L12.5326 12.3233L12.75 12.75Z" fill="#F0F0F0"/>
<path d="M13.5656 10.7821L13.11 10.9302V11.4091L12.8285 11.0216L12.373 11.1697L12.6546 10.7821L12.373 10.3946L12.8285 10.5427L13.11 10.1553V10.6341L13.5656 10.7821Z" fill="#F0F0F0"/>
<path d="M12.75 8.81559L12.5327 9.24231L12.8713 9.58096L12.3982 9.50602L12.1808 9.93281L12.1059 9.45968L11.6328 9.38477L12.0596 9.16737L11.9847 8.69434L12.3233 9.03296L12.75 8.81559Z" fill="#F0F0F0"/>
</g>
<defs>
<clipPath id="clip0_36251_6984">
<rect width="16" height="16" fill="white"/>
</clipPath>
</defs>
</svg>
