<svg width="16" height="16" viewBox="0 0 16 16" fill="none" xmlns="http://www.w3.org/2000/svg">
<g clip-path="url(#clip0_36251_6798)">
<path d="M8 16C12.4183 16 16 12.4183 16 8C16 3.58172 12.4183 0 8 0C3.58172 0 0 3.58172 0 8C0 12.4183 3.58172 16 8 16Z" fill="#FFDA44"/>
<path d="M12.8699 1.65375C11.521 0.616844 9.83237 0 7.99944 0C6.1665 0 4.47787 0.616875 3.12891 1.65375L7.99944 6.52425L12.8699 1.65375Z" fill="#6DA544"/>
<path d="M1.65372 3.12891C0.616875 4.47788 0 6.16647 0 7.99941C0 9.83234 0.616875 11.521 1.65375 12.87L6.52428 7.99941L1.65372 3.12891Z" fill="black"/>
<path d="M3.12891 14.3461C4.47791 15.383 6.1665 15.9998 7.99944 15.9998C9.83237 15.9998 11.521 15.383 12.87 14.3461L7.99944 9.47559L3.12891 14.3461Z" fill="#6DA544"/>
<path d="M14.3461 12.8699C15.383 11.5209 15.9998 9.83234 15.9998 7.99941C15.9998 6.16647 15.383 4.47787 14.3461 3.12891L9.47559 7.99941L14.3461 12.8699Z" fill="black"/>
</g>
<defs>
<clipPath id="clip0_36251_6798">
<rect width="16" height="16" fill="white"/>
</clipPath>
</defs>
</svg>
