<svg width="16" height="16" viewBox="0 0 16 16" fill="none" xmlns="http://www.w3.org/2000/svg">
<g clip-path="url(#clip0_36251_6900)">
<path d="M8 16C12.4183 16 16 12.4183 16 8C16 3.58172 12.4183 0 8 0C3.58172 0 0 3.58172 0 8C0 12.4183 3.58172 16 8 16Z" fill="#F0F0F0"/>
<path d="M15.5024 5.21783H6.95653V3.13086H2.78259V5.21783H0.497594C0.176031 6.08445 0 7.02186 0 8.00042C0 8.97898 0.176031 9.91635 0.497594 10.783L8 11.4787L15.5024 10.783C15.824 9.91635 16 8.97898 16 8.00042C16 7.02186 15.824 6.08445 15.5024 5.21783Z" fill="#0052B4"/>
<path d="M8.00045 15.9996C11.4402 15.9996 14.3725 13.8286 15.5029 10.7822H0.498047C1.62839 13.8286 4.56073 15.9996 8.00045 15.9996Z" fill="#D80027"/>
<path d="M2.78223 5.21695V5.91258C2.78223 7.51011 4.86919 7.99958 4.86919 7.99958C4.86919 7.99958 6.95616 7.51011 6.95616 5.91258V5.21695L6.26051 5.91261L4.86919 4.86914L3.47788 5.91261L2.78223 5.21695Z" fill="#F0F0F0"/>
</g>
<defs>
<clipPath id="clip0_36251_6900">
<rect width="16" height="16" fill="white"/>
</clipPath>
</defs>
</svg>
