<svg width="16" height="16" viewBox="0 0 16 16" fill="none" xmlns="http://www.w3.org/2000/svg">
<g clip-path="url(#clip0_36251_6853)">
<path d="M11.4783 0.793813C10.4266 0.28525 9.24664 0 8.00008 0C6.75352 0 5.57358 0.28525 4.52183 0.793813L3.82617 8L4.52183 15.2062C5.57358 15.7147 6.75352 16 8.00008 16C9.24664 16 10.4266 15.7147 11.4783 15.2062L12.174 8L11.4783 0.793813Z" fill="#FFDA44"/>
<path d="M4.52175 0.794922C1.84581 2.08889 0 4.82917 0 8.00083C0 11.1725 1.84581 13.9128 4.52175 15.2067V0.794922Z" fill="#0052B4"/>
<path d="M11.4785 0.794922V15.2067C14.1545 13.9128 16.0003 11.1725 16.0003 8.00083C16.0003 4.82917 14.1545 2.08889 11.4785 0.794922Z" fill="#D80027"/>
<path d="M10.782 6.29534H8.86895C8.86895 5.81509 8.47964 5.42578 7.99939 5.42578C7.51914 5.42578 7.12983 5.81509 7.12983 6.29534H5.2168C5.2168 6.76819 5.6287 7.15147 6.10148 7.15147H6.07298C6.07298 7.62434 6.4563 8.00769 6.92917 8.00769C6.92917 8.42634 7.22986 8.77422 7.62698 8.84859L6.9523 10.3718C7.27558 10.5032 7.62889 10.5762 7.99939 10.5762C8.36986 10.5762 8.7232 10.5032 9.04645 10.3718L8.3718 8.84859C8.76892 8.77422 9.06961 8.42634 9.06961 8.00769C9.54249 8.00769 9.9258 7.62434 9.9258 7.15147H9.89727C10.3701 7.15147 10.782 6.76816 10.782 6.29534Z" fill="#FF9811"/>
<path d="M7.99958 7.47852L6.86914 8.00027V9.04374L7.99958 9.7394L9.13001 9.04374V8.00027L7.99958 7.47852Z" fill="#0052B4"/>
<path d="M9.13001 6.95605H6.86914V7.99953H9.13001V6.95605Z" fill="#D80027"/>
</g>
<defs>
<clipPath id="clip0_36251_6853">
<rect width="16" height="16" fill="white"/>
</clipPath>
</defs>
</svg>
