<svg width="16" height="16" viewBox="0 0 16 16" fill="none" xmlns="http://www.w3.org/2000/svg">
<g clip-path="url(#clip0_36251_6847)">
<path d="M8 16C12.4183 16 16 12.4183 16 8C16 3.58172 12.4183 0 8 0C3.58172 0 0 3.58172 0 8C0 12.4183 3.58172 16 8 16Z" fill="#FFDA44"/>
<path d="M2.34265 13.6574C2.67824 13.993 3.0363 14.2923 3.4119 14.5558L14.5547 3.41291C14.2913 3.03731 13.992 2.67925 13.6564 2.34366C13.3207 2.00806 12.9627 1.70881 12.5871 1.44531L1.44434 12.5882C1.70777 12.9637 2.00709 13.3218 2.34265 13.6574Z" fill="black"/>
<path d="M2.34282 2.34278C-0.180997 4.86665 -0.665528 8.657 0.888316 11.6677L11.6678 0.888309C8.65704 -0.665535 4.86666 -0.180972 2.34282 2.34278Z" fill="#6DA544"/>
<path d="M13.6569 13.657C16.1808 11.1332 16.6653 7.34275 15.1115 4.33203L4.33203 15.1115C7.34269 16.6653 11.1331 16.1808 13.6569 13.657Z" fill="#338AF3"/>
</g>
<defs>
<clipPath id="clip0_36251_6847">
<rect width="16" height="16" fill="white"/>
</clipPath>
</defs>
</svg>
