<svg width="16" height="16" viewBox="0 0 16 16" fill="none" xmlns="http://www.w3.org/2000/svg">
<g clip-path="url(#clip0_36251_6999)">
<path d="M0.793813 4.52183C0.28525 5.57358 0 6.75349 0 8.00008C0 9.24668 0.28525 10.4266 0.793813 11.4783L8 12.174L15.2062 11.4783C15.7147 10.4266 16 9.24668 16 8.00008C16 6.75349 15.7147 5.57358 15.2062 4.52183L8 3.82617L0.793813 4.52183Z" fill="#F0F0F0"/>
<path d="M0.793945 11.4775C2.08788 14.1535 4.82816 15.9993 7.99985 15.9993C11.1715 15.9993 13.9118 14.1535 15.2058 11.4775H0.793945Z" fill="black"/>
<path d="M0.793945 4.52175H15.2058C13.9118 1.84578 11.1715 0 7.99985 0C4.82816 0 2.08788 1.84578 0.793945 4.52175Z" fill="#D80027"/>
<path d="M2.34314 2.34277C-0.781047 5.46696 -0.781047 10.5323 2.34314 13.6565C3.63417 12.3655 4.87583 11.1238 8.00002 7.99965L2.34314 2.34277Z" fill="#496E2D"/>
</g>
<defs>
<clipPath id="clip0_36251_6999">
<rect width="16" height="16" fill="white"/>
</clipPath>
</defs>
</svg>
