<svg width="16" height="16" viewBox="0 0 16 16" fill="none" xmlns="http://www.w3.org/2000/svg">
<g clip-path="url(#clip0_36251_6948)">
<path d="M13.6569 13.6575C10.5327 16.7817 5.46736 16.7817 2.34315 13.6575C-0.781065 10.5333 -0.781034 5.46797 2.34315 2.34375C2.58909 2.58966 8.73786 7.26274 8.73786 7.26274L13.6569 13.6575Z" fill="#0052B4"/>
<path d="M2.34375 2.34314C5.46793 -0.781045 10.5333 -0.781045 13.6575 2.34314C16.7817 5.46732 16.7817 10.5327 13.6575 13.6569" fill="#6DA544"/>
<path d="M8.00005 10.087C9.15265 10.087 10.087 9.15265 10.087 8.00005C10.087 6.84745 9.15265 5.91309 8.00005 5.91309C6.84745 5.91309 5.91309 6.84745 5.91309 8.00005C5.91309 9.15265 6.84745 10.087 8.00005 10.087Z" fill="#FFDA44"/>
<path d="M2.97885 11.4785L3.19838 11.9375L3.6941 11.823L3.4721 12.2808L3.87079 12.597L3.37441 12.7088L3.37579 13.2176L2.97885 12.8993L2.58191 13.2176L2.58329 12.7088L2.08691 12.597L2.4856 12.2808L2.26357 11.823L2.75932 11.9375L2.97885 11.4785Z" fill="#F0F0F0"/>
<path d="M1.54327 7.65137L1.7628 8.1104L2.25852 7.99577L2.03655 8.45365L2.43518 8.7698L1.93883 8.88165L1.94021 9.39049L1.54327 9.07218L1.14637 9.39049L1.14771 8.88165L0.651367 8.7698L1.05002 8.45365L0.828023 7.99577L1.32374 8.1104L1.54327 7.65137Z" fill="#F0F0F0"/>
<path d="M2.97882 4.52148L3.19835 4.98051L3.69407 4.86589L3.4721 5.32376L3.87075 5.63992L3.37438 5.75176L3.37576 6.26061L2.97882 5.94229L2.58188 6.26061L2.58326 5.75176L2.08691 5.63992L2.48554 5.32376L2.26354 4.86589L2.75929 4.98051L2.97882 4.52148Z" fill="#F0F0F0"/>
<path d="M4.763 6.95703L4.98253 7.41606L5.47828 7.30144L5.25625 7.75934L5.6549 8.07546L5.15856 8.18734L5.1599 8.69615L4.763 8.37784L4.36606 8.69615L4.36744 8.18734L3.87109 8.07546L4.26972 7.75934L4.04775 7.30144L4.54347 7.41606L4.763 6.95703Z" fill="#F0F0F0"/>
<path d="M3.48827 9.04297L3.66096 9.57441H4.21971L3.76765 9.90284L3.94033 10.4342L3.48827 10.1058L3.03621 10.4342L3.2089 9.90284L2.75684 9.57441H3.31559L3.48827 9.04297Z" fill="#F0F0F0"/>
<path d="M7.99964 9.39181H8.6953C8.6953 9.39181 8.99673 8.85853 8.6953 8.34834L9.39095 7.65269L9.04314 6.95703H8.69533C8.69533 6.95703 8.52142 7.47878 7.82577 7.47878C7.13012 7.47878 6.95621 6.95703 6.95621 6.95703H6.6084L6.95621 7.65269L6.6084 8.34834L6.95621 8.69615C6.95621 8.69615 7.30402 8.0005 7.99968 8.34834C7.99964 8.34834 8.2953 8.78312 7.99964 9.39181Z" fill="#6DA544"/>
<path d="M13.1922 4.38147C13.2086 4.29601 13.2173 4.20785 13.2173 4.1176C13.2173 3.49885 12.8133 2.97476 12.2548 2.79395C12.4255 3.14082 12.5217 3.53094 12.5217 3.94369C12.5217 4.08288 12.5105 4.21944 12.4895 4.35272C12.4054 4.21732 12.2974 4.0936 12.1655 3.98863C11.6686 3.59326 10.9896 3.58279 10.4876 3.91576C10.8752 4.00038 11.2499 4.17241 11.5814 4.43613C11.8409 4.64263 12.0506 4.92194 12.2111 5.19157L10.0869 5.85672C12.1739 6.20453 13.913 4.81325 13.913 4.81325C13.7203 4.42788 13.421 4.36288 13.1922 4.38147Z" fill="#FFDA44"/>
</g>
<defs>
<clipPath id="clip0_36251_6948">
<rect width="16" height="16" fill="white"/>
</clipPath>
</defs>
</svg>
