<svg width="16" height="16" viewBox="0 0 16 16" fill="none" xmlns="http://www.w3.org/2000/svg">
<g clip-path="url(#clip0_36251_6858)">
<path d="M0 8C0 3.58175 3.58175 0 8 0C12.4183 0 16 3.58175 16 8C15.6522 8 8 9.04347 8 9.04347L0 8Z" fill="#D80027"/>
<path d="M16 8.00098C16 12.4192 12.4183 16.001 8 16.001C3.58175 16.001 0 12.4192 0 8.00098" fill="#6DA544"/>
<path d="M7.99955 5.2168L8.60383 7.07673H10.5597L8.97742 8.2263L9.58173 10.0864L7.99955 8.93683L6.41733 10.0864L7.02173 8.2263L5.43945 7.07673H7.3952L7.99955 5.2168Z" fill="#FFDA44"/>
</g>
<defs>
<clipPath id="clip0_36251_6858">
<rect width="16" height="16" fill="white"/>
</clipPath>
</defs>
</svg>
