<svg width="16" height="16" viewBox="0 0 16 16" fill="none" xmlns="http://www.w3.org/2000/svg">
<g clip-path="url(#clip0_36251_6876)">
<path d="M0 8.00027C0 9.3862 0.352594 10.6898 0.972719 11.8264L8 12.522L15.0273 11.8264C15.6474 10.6898 16 9.3862 16 8.00027C16 6.61433 15.6474 5.31077 15.0273 4.17417L8 3.47852L0.972719 4.17417C0.352594 5.31077 0 6.61433 0 8.00027Z" fill="#D80027"/>
<path d="M0.972656 4.17391H15.0272C13.6704 1.68716 11.0323 0 7.99994 0C4.96759 0 2.3295 1.68716 0.972656 4.17391Z" fill="#0052B4"/>
<path d="M7.99994 16.0001C11.0323 16.0001 13.6704 14.3129 15.0272 11.8262H0.972656C2.3295 14.3129 4.96759 16.0001 7.99994 16.0001Z" fill="#0052B4"/>
<path d="M10.7833 9.56472V8.52125H10.0877V7.12994L9.39203 6.43428L8.69637 7.12994V5.73862L8.00071 5.04297L7.30506 5.73862V7.12994L6.6094 6.43428L5.91374 7.12994V8.52125H5.21812V9.56472H4.52246V10.6082H11.479V9.56472H10.7833Z" fill="#F0F0F0"/>
</g>
<defs>
<clipPath id="clip0_36251_6876">
<rect width="16" height="16" fill="white"/>
</clipPath>
</defs>
</svg>
