<svg width="16" height="16" viewBox="0 0 16 16" fill="none" xmlns="http://www.w3.org/2000/svg">
<g clip-path="url(#clip0_36251_6936)">
<path d="M8 16C12.4183 16 16 12.4183 16 8C16 3.58172 12.4183 0 8 0C3.58172 0 0 3.58172 0 8C0 12.4183 3.58172 16 8 16Z" fill="#F0F0F0"/>
<path d="M10.783 7.99939C10.783 8.69505 9.53715 10.4342 8.00037 10.4342C6.46359 10.4342 5.21777 8.69505 5.21777 7.99939C5.21777 6.46258 6.46359 5.2168 8.00037 5.2168C9.53715 5.2168 10.783 6.46258 10.783 7.99939Z" fill="#D80027"/>
<path d="M10.783 8C10.783 9.53681 9.53715 10.7826 8.00037 10.7826C6.46359 10.7826 5.21777 9.53681 5.21777 8" fill="#0052B4"/>
<path d="M11.689 9.72212L10.9512 10.46L11.4431 10.9519L12.1809 10.214L11.689 9.72212Z" fill="black"/>
<path d="M10.4585 10.9516L9.7207 11.6895L10.2126 12.1814L10.9504 11.4435L10.4585 10.9516Z" fill="black"/>
<path d="M13.1646 11.1967L12.4268 11.9346L12.9187 12.4265L13.6565 11.6886L13.1646 11.1967Z" fill="black"/>
<path d="M11.9351 12.4272L11.1973 13.165L11.6892 13.6569L12.427 12.9191L11.9351 12.4272Z" fill="black"/>
<path d="M12.4273 10.4594L11.6895 11.1973L12.1814 11.6892L12.9192 10.9513L12.4273 10.4594Z" fill="black"/>
<path d="M11.1978 11.6899L10.46 12.4277L10.9519 12.9196L11.6897 12.1818L11.1978 11.6899Z" fill="black"/>
<path d="M10.4592 3.57149L12.4268 5.53906L12.9187 5.04716L10.9511 3.07959L10.4592 3.57149Z" fill="black"/>
<path d="M9.72212 4.31099L10.46 5.04883L10.9518 4.55695L10.214 3.81911L9.72212 4.31099Z" fill="black"/>
<path d="M10.9516 5.54049L11.6895 6.27832L12.1813 5.78644L11.4435 5.04861L10.9516 5.54049Z" fill="black"/>
<path d="M11.1967 2.83443L11.9346 3.57227L12.4265 3.08037L11.6886 2.34253L11.1967 2.83443Z" fill="black"/>
<path d="M12.4272 4.0649L13.165 4.80273L13.6569 4.31084L12.9191 3.573L12.4272 4.0649Z" fill="black"/>
<path d="M4.80253 13.1648L2.83496 11.1973L2.34306 11.6892L4.31063 13.6567L4.80253 13.1648Z" fill="black"/>
<path d="M5.54057 12.4263L4.80273 11.6885L4.31086 12.1804L5.04869 12.9182L5.54057 12.4263Z" fill="black"/>
<path d="M4.3101 11.1968L3.57227 10.459L3.08037 10.9509L3.8182 11.6887L4.3101 11.1968Z" fill="black"/>
<path d="M6.27812 11.6893L4.31055 9.72168L3.81865 10.2136L5.78622 12.1811L6.27812 11.6893Z" fill="black"/>
<path d="M2.83516 4.80351L4.80273 2.83594L4.31084 2.34404L2.34326 4.31161L2.83516 4.80351Z" fill="black"/>
<path d="M3.57247 5.53984L5.54004 3.57227L5.04814 3.08037L3.08057 5.04794L3.57247 5.53984Z" fill="black"/>
<path d="M4.31075 6.27812L6.27832 4.31055L5.78644 3.81867L3.81887 5.78624L4.31075 6.27812Z" fill="black"/>
</g>
<defs>
<clipPath id="clip0_36251_6936">
<rect width="16" height="16" fill="white"/>
</clipPath>
</defs>
</svg>
