<svg width="16" height="16" viewBox="0 0 16 16" fill="none" xmlns="http://www.w3.org/2000/svg">
<g clip-path="url(#clip0_36251_6795)">
<path d="M8 16C12.4183 16 16 12.4183 16 8C16 3.58172 12.4183 0 8 0C3.58172 0 0 3.58172 0 8C0 12.4183 3.58172 16 8 16Z" fill="#F0F0F0"/>
<path d="M7.9996 0C5.16304 0 2.67148 1.47634 1.25098 3.70247L12.0997 14.8703C14.4354 13.4733 15.9996 10.9195 15.9996 8C15.9996 3.58175 12.4179 0 7.9996 0Z" fill="#FFDA44"/>
<path d="M16.0001 7.9997C16.0001 5.92402 15.2095 4.03314 13.9131 2.61133V13.3881C15.2095 11.9663 16.0001 10.0754 16.0001 7.9997Z" fill="#0052B4"/>
<path d="M9.99341 15.0585L10.8314 15.0579L11.0899 14.2608L11.3493 15.0576L11.7696 15.0574C12.0273 14.9194 12.2766 14.7678 12.5165 14.6033L1.39653 3.4834C1.21328 3.75077 1.04616 4.02996 0.895875 4.31934L0.994687 4.62284L1.83266 4.6223L1.15503 5.11527L1.41447 5.91212L0.736219 5.41999L0.331687 5.71424C0.116031 6.43849 0 7.20565 0 7.99993C0 12.4182 3.58175 15.9999 8 15.9999C8.93412 15.9999 9.83072 15.8396 10.6641 15.5452L9.99341 15.0585ZM1.78434 7.65212L2.04278 6.85499L1.36459 6.3628L2.20256 6.36227L2.46103 5.56512L2.72047 6.36196L3.55844 6.36143L2.88078 6.8544L3.14022 7.65124L2.46197 7.15912L1.78434 7.65212ZM3.51012 9.39124L3.76856 8.59412L3.09037 8.10193L3.92834 8.1014L4.18681 7.30424L4.44625 8.10109L5.28422 8.10056L4.60659 8.59352L4.86603 9.39037L4.18778 8.89824L3.51012 9.39124ZM5.23587 11.1304L5.49431 10.3332L4.81612 9.84105L5.65409 9.84052L5.91256 9.04337L6.172 9.84021L7.00997 9.83968L6.33234 10.3326L6.59178 11.1295L5.91353 10.6373L5.23587 11.1304ZM7.63928 12.3765L6.96162 12.8695L7.22006 12.0724L6.54187 11.5802L7.37984 11.5796L7.63834 10.7825L7.89778 11.5793L8.73575 11.5788L8.05812 12.0718L8.31756 12.8686L7.63928 12.3765ZM8.68741 14.6086L8.94584 13.8115L8.26766 13.3193L9.10562 13.3188L9.36409 12.5216L9.62353 13.3185L10.4615 13.3179L9.78387 13.8109L10.0433 14.6077L9.36506 14.1156L8.68741 14.6086Z" fill="#0052B4"/>
</g>
<defs>
<clipPath id="clip0_36251_6795">
<rect width="16" height="16" fill="white"/>
</clipPath>
</defs>
</svg>
