<svg width="16" height="16" viewBox="0 0 16 16" fill="none" xmlns="http://www.w3.org/2000/svg">
<g clip-path="url(#clip0_36251_6830)">
<path d="M0 8C0 3.58175 3.58175 0 8 0C12.4183 0 16 3.58175 16 8C15.6522 8 8 9.04347 8 9.04347L0 8Z" fill="#D80027"/>
<path d="M16 8C16 12.4182 12.4183 16 8 16C3.58175 16 0 12.4182 0 8" fill="black"/>
<path d="M6.90234 6.36211L7.58053 6.8543L7.32209 7.65142L7.99978 7.15842L8.67803 7.65061L8.41859 6.85374L9.09622 6.3608L8.25825 6.3613L7.99878 5.56445L7.74031 6.36158L6.90234 6.36211Z" fill="#FFDA44"/>
<path d="M9.99961 4.53555C9.3692 4.17158 8.67992 3.9998 7.99961 4.00098V5.04423C8.50245 5.04333 9.01189 5.1702 9.47786 5.43926C10.8897 6.25439 11.3751 8.06614 10.56 9.47795C9.74489 10.8898 7.93317 11.3752 6.52133 10.5601C6.11002 10.3226 5.77798 10.0002 5.53323 9.62811L4.66211 10.2032C4.99327 10.7066 5.44314 11.1425 5.99961 11.4637C7.90973 12.5665 10.3609 11.9098 11.4637 9.99964C12.5665 8.08951 11.9097 5.63836 9.99961 4.53555Z" fill="#FFDA44"/>
<path d="M5.69265 7.30371C5.41609 7.8093 5.60178 8.4434 6.10734 8.71996L9.49637 10.5718C9.2659 10.9931 9.38831 11.5059 9.80959 11.7364L10.7251 12.2371C11.1463 12.4676 11.6748 12.3129 11.9053 11.8916L12.4061 10.9761L5.69265 7.30371Z" fill="#FFDA44"/>
</g>
<defs>
<clipPath id="clip0_36251_6830">
<rect width="16" height="16" fill="white"/>
</clipPath>
</defs>
</svg>
