<svg width="16" height="16" viewBox="0 0 16 16" fill="none" xmlns="http://www.w3.org/2000/svg">
<g clip-path="url(#clip0_36251_6978)">
<path d="M0 7.99958C0 8.97814 0.176031 9.91551 0.497594 10.7822L8 11.13L15.5024 10.7822C15.824 9.91551 16 8.97814 16 7.99958C16 7.02101 15.824 6.08364 15.5024 5.21698L8 4.86914L0.497594 5.21695C0.176031 6.08364 0 7.02101 0 7.99958Z" fill="#D80027"/>
<path d="M7.99948 0C4.55976 0 1.62741 2.171 0.49707 5.21741H15.5019C14.3715 2.171 11.4392 0 7.99948 0Z" fill="black"/>
<path d="M15.5019 10.7832H0.49707C1.62741 13.8296 4.55976 16.0006 7.99948 16.0006C11.4392 16.0006 14.3715 13.8296 15.5019 10.7832Z" fill="#496E2D"/>
<path d="M10.3906 3.82638L9.41359 3.36682L9.93387 2.4206L8.87293 2.62357L8.73849 1.55176L7.99949 2.34004L7.26052 1.55176L7.12605 2.62357L6.06515 2.4206L6.58543 3.36682L5.6084 3.82638H10.3906Z" fill="#D80027"/>
</g>
<defs>
<clipPath id="clip0_36251_6978">
<rect width="16" height="16" fill="white"/>
</clipPath>
</defs>
</svg>
