<svg width="16" height="16" viewBox="0 0 16 16" fill="none" xmlns="http://www.w3.org/2000/svg">
<g clip-path="url(#clip0_36251_6939)">
<path d="M8 16C12.4183 16 16 12.4183 16 8C16 3.58172 12.4183 0 8 0C3.58172 0 0 3.58172 0 8C0 12.4183 3.58172 16 8 16Z" fill="#D80027"/>
<path d="M4.37813 4.86719L5.06875 6.99219H7.30313L5.49688 8.30781L6.1875 10.4328L4.37813 9.12031L2.56875 10.4328L3.2625 8.30781L1.45312 6.99219H3.6875L4.37813 4.86719Z" fill="#FFDA44"/>
<path d="M9.48399 12.3898L8.95586 11.7398L8.17461 12.043L8.62774 11.3398L8.09961 10.6867L8.90899 10.9023L9.36524 10.1992L9.40899 11.0367L10.2215 11.2523L9.43711 11.5523L9.48399 12.3898Z" fill="#FFDA44"/>
<path d="M10.534 10.4836L10.784 9.6836L10.0996 9.19922L10.9371 9.18672L11.184 8.38672L11.4559 9.18047L12.2934 9.17109L11.6215 9.6711L11.8902 10.4648L11.2059 9.98047L10.534 10.4836Z" fill="#FFDA44"/>
<path d="M11.9504 5.87148L11.5816 6.62461L12.1816 7.20899L11.3535 7.09024L10.9848 7.84024L10.841 7.01524L10.0098 6.89649L10.7535 6.50586L10.6098 5.67773L11.2098 6.26211L11.9504 5.87148Z" fill="#FFDA44"/>
<path d="M9.50645 3.58984L9.44395 4.42422L10.2221 4.73985L9.40645 4.93985L9.34707 5.77735L8.90645 5.06485L8.09082 5.26485L8.63145 4.62422L8.1877 3.91484L8.96582 4.23047L9.50645 3.58984Z" fill="#FFDA44"/>
</g>
<defs>
<clipPath id="clip0_36251_6939">
<rect width="16" height="16" fill="white"/>
</clipPath>
</defs>
</svg>
