<svg width="16" height="16" viewBox="0 0 16 16" fill="none" xmlns="http://www.w3.org/2000/svg">
<g clip-path="url(#clip0_36251_6882)">
<path d="M7.30399 8.69566C7.30399 8.69566 2.34746 2.34203 2.34277 2.34316C3.79046 0.895438 5.79049 0 7.99965 0C12.4179 0 15.9996 3.58175 15.9996 8L7.30399 8.69566Z" fill="#D80027"/>
<path d="M7.30399 8C7.30399 8 2.34746 13.658 2.34277 13.6568C3.79046 15.1046 5.79049 16 7.99965 16C12.4179 16 15.9996 12.4182 15.9996 8H7.30399Z" fill="#0052B4"/>
<path d="M2.34314 2.34277C-0.781047 5.46696 -0.781047 10.5323 2.34314 13.6565C3.63417 12.3655 4.87583 11.1238 8.00002 7.99965L2.34314 2.34277Z" fill="#F0F0F0"/>
<path d="M0.877461 8C0.873086 8.05744 0.870117 8.11531 0.870117 8.17387C0.870117 9.4225 1.88237 10.4347 3.13099 10.4347C4.37962 10.4347 5.39187 9.4225 5.39187 8.17387C5.39187 8.11531 5.3889 8.05741 5.38452 8H0.877461Z" fill="#FFDA44"/>
<path d="M3.1312 6.95577C3.5154 6.95577 3.82686 6.64431 3.82686 6.26011C3.82686 5.87591 3.5154 5.56445 3.1312 5.56445C2.747 5.56445 2.43555 5.87591 2.43555 6.26011C2.43555 6.64431 2.747 6.95577 3.1312 6.95577Z" fill="#FFDA44"/>
<path d="M1.56543 6.08691V8.34778C1.56543 9.54591 3.13065 9.913 3.13065 9.913C3.13065 9.913 4.69587 9.54591 4.69587 8.34778V6.08691H1.56543V6.08691Z" fill="#D80027"/>
<path d="M3.13109 9.18463C2.84071 9.08013 2.26074 8.81307 2.26074 8.34744V6.78223H3.9999V8.34744C3.9999 8.8146 3.41999 9.08101 3.13109 9.18463Z" fill="#338AF3"/>
<path d="M3.47894 7.65163V7.30379L3.13113 7.12988L2.78328 7.30379V7.65163L2.60938 7.82554V8.5212H3.65288V7.82554L3.47894 7.65163Z" fill="#F3F3F3"/>
</g>
<defs>
<clipPath id="clip0_36251_6882">
<rect width="16" height="16" fill="white"/>
</clipPath>
</defs>
</svg>
