<svg width="16" height="16" viewBox="0 0 16 16" fill="none" xmlns="http://www.w3.org/2000/svg">
<g clip-path="url(#clip0_36251_6854)">
<path d="M8 16C12.4183 16 16 12.4183 16 8C16 3.58172 12.4183 0 8 0C3.58172 0 0 3.58172 0 8C0 12.4183 3.58172 16 8 16Z" fill="#F0F0F0"/>
<path d="M0 8C0 12.4183 3.58175 16 8 16C8 12.9577 8 8 8 8C8 8 2.78259 8 0 8Z" fill="#0052B4"/>
<path d="M8 0C12.4183 0 16 3.58175 16 8C12.9577 8 8 8 8 8C8 8 8 2.78259 8 0Z" fill="#D80027"/>
<path d="M4.76273 2.7832L5.28077 4.37752H6.95711L5.60092 5.36283L6.11892 6.95714L4.76273 5.9718L3.40655 6.95714L3.92455 5.36283L2.56836 4.37752H4.2447L4.76273 2.7832Z" fill="#0052B4"/>
<path d="M11.2383 9.04297L11.7564 10.6373H13.4327L12.0765 11.6226L12.5945 13.2169L11.2383 12.2316L9.88213 13.2169L10.4001 11.6226L9.04395 10.6373H10.7203L11.2383 9.04297Z" fill="#D80027"/>
</g>
<defs>
<clipPath id="clip0_36251_6854">
<rect width="16" height="16" fill="white"/>
</clipPath>
</defs>
</svg>
