<svg width="16" height="16" viewBox="0 0 16 16" fill="none" xmlns="http://www.w3.org/2000/svg">
<g clip-path="url(#clip0_36251_6873)">
<path d="M3.49121 14.6087C4.77515 15.4864 6.32755 16.0001 8.00018 16.0001C9.6728 16.0001 11.2252 15.4864 12.5091 14.6087L8.00018 13.9131L3.49121 14.6087Z" fill="#D80027"/>
<path d="M12.5091 1.39131C11.2252 0.513656 9.6728 0 8.00018 0C6.32755 0 4.77509 0.513656 3.49121 1.39131L8.00018 2.08697L12.5091 1.39131Z" fill="#D80027"/>
<path d="M3.49121 14.6087C4.77515 15.4864 6.32755 16.0001 8.00018 16.0001C9.6728 16.0001 11.2252 15.4864 12.5091 14.6087L8.00018 13.9131L3.49121 14.6087Z" fill="#D80027"/>
<path d="M12.5091 1.39131C11.2252 0.513656 9.6728 0 8.00018 0C6.32755 0 4.77509 0.513656 3.49121 1.39131L8.00018 2.08697L12.5091 1.39131Z" fill="#D80027"/>
<path d="M15.9804 7.4776C15.7909 5.00853 14.2906 2.60803 12.5097 1.39062H3.4918C1.5188 2.73941 0.180453 4.94841 0.0175781 7.4776L8.00077 7.99935L15.9804 7.4776Z" fill="#0052B4"/>
<path d="M0.0166016 8.52175C0.179477 11.051 1.51779 13.2599 3.49079 14.6087H12.5087C14.4818 13.26 15.8201 11.051 15.9829 8.52175L7.99979 8L0.0166016 8.52175Z" fill="#0052B4"/>
<path d="M15.9796 7.4787H8.52175V1.04395H7.47828V7.4787H0.0168437C0.00575 7.6512 0 7.82517 0 8.00048C0 8.17576 0.00571875 8.3497 0.0168125 8.5222H7.47828V14.957H8.52175V8.5222H15.9832C15.9943 8.3497 16 8.17576 16 8.00048C16 7.82645 15.993 7.65242 15.9796 7.4787Z" fill="#D80027"/>
<path d="M3.13086 8.00014L8.00039 4.93945L12.87 8.00014L8.00039 11.0609L3.13086 8.00014Z" fill="#F0F0F0"/>
<path d="M5.2168 9.39166H11.4776L10.0864 7.30469L9.3907 8.00034L8.69505 7.65253L7.99939 8.696H6.60808L5.91242 8.00034L5.2168 9.39166Z" fill="#6DA544"/>
<path d="M7.99996 5.91211L8.17264 6.44352H8.73136L8.27933 6.77198L8.45202 7.30342L7.99996 6.97498L7.5479 7.30342L7.72058 6.77198L7.26855 6.44352H7.82727L7.99996 5.91211Z" fill="#FFDA44"/>
<path d="M8.0001 4.06445L1.73926 7.99964L8.0001 11.9348L14.261 7.99964L8.0001 4.06445ZM3.70013 7.99964L8.0001 5.29692L12.3001 7.99964L8.0001 10.7024L3.70013 7.99964Z" fill="#D80027"/>
</g>
<defs>
<clipPath id="clip0_36251_6873">
<rect width="16" height="16" fill="white"/>
</clipPath>
</defs>
</svg>
