<svg width="16" height="16" viewBox="0 0 16 16" fill="none" xmlns="http://www.w3.org/2000/svg">
<g clip-path="url(#clip0_36251_6975)">
<path d="M8 16C12.4183 16 16 12.4183 16 8C16 3.58172 12.4183 0 8 0C3.58172 0 0 3.58172 0 8C0 12.4183 3.58172 16 8 16Z" fill="#F0F0F0"/>
<path d="M15.9993 7.97656H7.32707C5.60529 9.69837 4.5641 11.0277 3.50098 12.0908L8.02273 12.4983L15.0394 11.8026C15.6518 10.6715 15.9995 9.37625 15.9995 7.99972C15.9995 7.99197 15.9993 7.98431 15.9993 7.97656Z" fill="#D80027"/>
<path d="M3.50181 4.15075H15.0147C13.6541 1.67675 11.0232 0 8.00034 0C5.79706 0 3.80219 0.890969 2.35547 2.332L3.50181 4.15075Z" fill="#FFDA44"/>
<path d="M3.84852 11.8027C3.12934 12.5219 2.8514 13.1245 2.33105 13.6448C3.77965 15.0994 5.78418 15.9998 7.99924 15.9998C11.041 15.9998 13.6861 14.3022 15.0391 11.8027H3.84852Z" fill="#0052B4"/>
<path d="M2.34314 2.32031C-0.781047 5.4445 -0.781047 10.5098 2.34314 13.6341C3.63417 12.343 4.87583 11.1014 8.00001 7.97719L2.34314 2.32031Z" fill="#6DA544"/>
<path d="M2.10991 7.9758C2.10991 6.81024 2.92906 5.83652 4.02294 5.59764C3.85481 5.56092 3.68037 5.54102 3.50119 5.54102C2.15647 5.54102 1.06641 6.63108 1.06641 7.9758C1.06641 9.32052 2.15647 10.4106 3.50119 10.4106C3.68034 10.4106 3.85478 10.3907 4.02294 10.354C2.92906 10.1151 2.10991 9.14136 2.10991 7.9758Z" fill="#F0F0F0"/>
<path d="M3.99586 5.88867L4.12539 6.28723H4.54445L4.20539 6.53358L4.33492 6.93214L3.99586 6.68583L3.6568 6.93214L3.78633 6.53358L3.44727 6.28723H3.86633L3.99586 5.88867Z" fill="#F0F0F0"/>
<path d="M3.99586 6.93262L4.12539 7.33121H4.54445L4.20539 7.57752L4.33492 7.97612L3.99586 7.72977L3.6568 7.97612L3.78633 7.57752L3.44727 7.33121H3.86633L3.99586 6.93262Z" fill="#F0F0F0"/>
<path d="M3.99586 7.97559L4.12539 8.37415H4.54445L4.20539 8.62049L4.33492 9.01905L3.99586 8.77271L3.6568 9.01905L3.78633 8.62049L3.44727 8.37415H3.86633L3.99586 7.97559Z" fill="#F0F0F0"/>
<path d="M3.99586 9.01953L4.12539 9.41809H4.54445L4.20539 9.66444L4.33492 10.063L3.99586 9.81669L3.6568 10.063L3.78633 9.66444L3.44727 9.41809H3.86633L3.99586 9.01953Z" fill="#F0F0F0"/>
</g>
<defs>
<clipPath id="clip0_36251_6975">
<rect width="16" height="16" fill="white"/>
</clipPath>
</defs>
</svg>
