<svg width="16" height="16" viewBox="0 0 16 16" fill="none" xmlns="http://www.w3.org/2000/svg">
<g clip-path="url(#clip0_36251_6857)">
<path d="M8 16C12.4183 16 16 12.4183 16 8C16 3.58172 12.4183 0 8 0C3.58172 0 0 3.58172 0 8C0 12.4183 3.58172 16 8 16Z" fill="#F0F0F0"/>
<path d="M8.00013 -0.000976562C4.82844 -0.000976562 2.08795 1.8448 0.793945 4.52077H15.2063C13.9123 1.8448 11.1718 -0.000976562 8.00013 -0.000976562Z" fill="#338AF3"/>
<path d="M8.00013 15.9993C11.1718 15.9993 13.9123 14.1535 15.2063 11.4775H0.793945C2.08795 14.1535 4.82844 15.9993 8.00013 15.9993Z" fill="#338AF3"/>
<path d="M10.3906 8.00018L9.41356 8.45977L9.93384 9.40599L8.8729 9.20302L8.73846 10.2748L7.99949 9.48652L7.26049 10.2748L7.12609 9.20302L6.06515 9.40596L6.5854 8.45974L5.6084 8.00018L6.58543 7.54058L6.06515 6.5944L7.12605 6.79733L7.26052 5.72559L7.99949 6.51384L8.73849 5.72559L8.8729 6.79733L9.93387 6.5944L9.41359 7.54062L10.3906 8.00018Z" fill="#FFDA44"/>
</g>
<defs>
<clipPath id="clip0_36251_6857">
<rect width="16" height="16" fill="white"/>
</clipPath>
</defs>
</svg>
