<svg width="16" height="16" viewBox="0 0 16 16" fill="none" xmlns="http://www.w3.org/2000/svg">
<g clip-path="url(#clip0_36251_6878)">
<path d="M7.99939 0C7.27733 0 6.57783 0.09625 5.91242 0.275594L5.2168 8L5.91245 15.7244C6.57783 15.9037 7.27733 16 7.99939 16C12.4176 16 15.9994 12.4183 15.9994 8C15.9994 3.58175 12.4176 0 7.99939 0Z" fill="#FFDA44"/>
<path d="M5.2168 8L5.91245 15.7244C6.57783 15.9038 7.27733 16 7.99939 16C12.4176 16 15.9994 12.4183 15.9994 8H5.2168Z" fill="#6DA544"/>
<path d="M0 7.99994C0 11.0323 1.68719 13.6704 4.17391 15.0272V0.972656C1.68719 2.32947 0 4.96759 0 7.99994Z" fill="#D80027"/>
<path d="M0 7.9998C0 11.696 2.50691 14.8062 5.91303 15.7242V0.275391C2.50691 1.19339 0 4.30358 0 7.9998Z" fill="#D80027"/>
<path d="M3.02345 5.91211L3.54141 7.50636H5.21785L3.86166 8.49173L4.3796 10.086L3.02345 9.1007L1.66723 10.086L2.18529 8.49173L0.829102 7.50636H2.50545L3.02345 5.91211Z" fill="black"/>
</g>
<defs>
<clipPath id="clip0_36251_6878">
<rect width="16" height="16" fill="white"/>
</clipPath>
</defs>
</svg>
