<svg width="16" height="16" viewBox="0 0 16 16" fill="none" xmlns="http://www.w3.org/2000/svg">
<g clip-path="url(#clip0_36251_6967)">
<path d="M8 16C12.4183 16 16 12.4183 16 8C16 3.58172 12.4183 0 8 0C3.58172 0 0 3.58172 0 8C0 12.4183 3.58172 16 8 16Z" fill="#F0F0F0"/>
<path d="M15.9323 6.9568H6.26091H6.26088V0.19043C5.52156 0.354367 4.82066 0.620086 4.17391 0.972992V6.95674V6.95677H0.0677188C0.0231875 7.29837 0 7.64662 0 8.00027C0 8.35393 0.0231875 8.70218 0.0677188 9.04374H4.17387H4.17391V15.0275C4.82066 15.3804 5.52156 15.6462 6.26088 15.8101V9.04384V9.04377H15.9323C15.9768 8.70218 16 8.35393 16 8.00027C16 7.64662 15.9768 7.29837 15.9323 6.9568Z" fill="#0052B4"/>
</g>
<defs>
<clipPath id="clip0_36251_6967">
<rect width="16" height="16" fill="white"/>
</clipPath>
</defs>
</svg>
