<svg width="16" height="16" viewBox="0 0 16 16" fill="none" xmlns="http://www.w3.org/2000/svg">
<g clip-path="url(#clip0_36251_6993)">
<path d="M8 16C12.4183 16 16 12.4183 16 8C16 3.58172 12.4183 0 8 0C3.58172 0 0 3.58172 0 8C0 12.4183 3.58172 16 8 16Z" fill="#F0F0F0"/>
<path d="M15.5024 5.21777H0.497594C0.176031 6.08443 0 7.0218 0 8.00037C0 8.97893 0.176031 9.91631 0.497594 10.783H15.5024C15.824 9.91631 16 8.97893 16 8.00037C16 7.0218 15.824 6.08443 15.5024 5.21777Z" fill="#D80027"/>
<path d="M8.00093 0C5.57621 0 3.40362 1.07888 1.93652 2.78259H14.0653C12.5982 1.07888 10.4256 0 8.00093 0Z" fill="#0052B4"/>
<path d="M14.0644 13.2178H1.93555C3.40264 14.9215 5.57523 16.0004 7.99995 16.0004C10.4247 16.0004 12.5973 14.9215 14.0644 13.2178Z" fill="#0052B4"/>
</g>
<defs>
<clipPath id="clip0_36251_6993">
<rect width="16" height="16" fill="white"/>
</clipPath>
</defs>
</svg>
