<svg width="16" height="16" viewBox="0 0 16 16" fill="none" xmlns="http://www.w3.org/2000/svg">
<g clip-path="url(#clip0_36251_6951)">
<path d="M8 16C12.4183 16 16 12.4183 16 8C16 3.58172 12.4183 0 8 0C3.58172 0 0 3.58172 0 8C0 12.4183 3.58172 16 8 16Z" fill="#F0F0F0"/>
<path d="M8.00045 0C4.56073 0 1.62839 2.171 0.498047 5.21741H15.5029C14.3725 2.171 11.4402 0 8.00045 0Z" fill="#D80027"/>
<path d="M8.00045 16.0006C11.4402 16.0006 14.3725 13.8296 15.5029 10.7832H0.498047C1.62839 13.8296 4.56073 16.0006 8.00045 16.0006Z" fill="#338AF3"/>
</g>
<defs>
<clipPath id="clip0_36251_6951">
<rect width="16" height="16" fill="white"/>
</clipPath>
</defs>
</svg>
