<svg width="16" height="16" viewBox="0 0 16 16" fill="none" xmlns="http://www.w3.org/2000/svg">
<g clip-path="url(#clip0_36251_6784)">
<path d="M8 16C12.4183 16 16 12.4183 16 8C16 3.58172 12.4183 0 8 0C3.58172 0 0 3.58172 0 8C0 12.4183 3.58172 16 8 16Z" fill="#F0F0F0"/>
<path d="M15.5024 5.21777H0.497562C0.176031 6.08446 0 7.0218 0 8.00037C0 8.97893 0.176031 9.91634 0.497562 10.783H15.5024C15.824 9.91634 16 8.97893 16 8.00037C16 7.0218 15.824 6.08446 15.5024 5.21777Z" fill="#A2001D"/>
<path d="M8.02269 16.0007C10.7628 16.0007 13.1808 14.6228 14.6226 12.5225H1.42285C2.86466 14.6228 5.2826 16.0007 8.02269 16.0007Z" fill="#6DA544"/>
<path d="M8.02269 0C10.7628 0 13.1808 1.37788 14.6226 3.47825H1.42285C2.86466 1.37788 5.2826 0 8.02269 0Z" fill="#6DA544"/>
<path d="M8.00003 5.21777L8.69069 7.3434H10.9258L9.11759 8.65727L9.80831 10.783L8.00003 9.46924L6.19175 10.783L6.8825 8.65727L5.07422 7.3434H7.30938L8.00003 5.21777Z" fill="#FFDA44"/>
</g>
<defs>
<clipPath id="clip0_36251_6784">
<rect width="16" height="16" fill="white"/>
</clipPath>
</defs>
</svg>
