<svg width="16" height="16" viewBox="0 0 16 16" fill="none" xmlns="http://www.w3.org/2000/svg">
<g clip-path="url(#clip0_36251_6968)">
<path d="M8 16C12.4183 16 16 12.4183 16 8C16 3.58172 12.4183 0 8 0C3.58172 0 0 3.58172 0 8C0 12.4183 3.58172 16 8 16Z" fill="#F0F0F0"/>
<path d="M10.5987 5.91312H9.55201C9.56066 6.02815 9.56557 6.14421 9.56557 6.26093C9.56557 7.03481 9.37213 7.7849 9.03491 8.31884C8.93088 8.48353 8.75607 8.71609 8.52207 8.87296V5.91309H7.4786V8.87296C7.24463 8.71609 7.06979 8.48356 6.96576 8.31884C6.62851 7.7849 6.4351 7.03481 6.4351 6.26093C6.4351 6.14421 6.44004 6.02812 6.44866 5.91312H5.40198C5.39526 6.02759 5.3916 6.14352 5.3916 6.26093C5.3916 8.40643 6.53748 10.087 8.00029 10.087C9.4631 10.087 10.609 8.40643 10.609 6.26093C10.609 6.14352 10.6054 6.02759 10.5987 5.91312Z" fill="#D80027"/>
<path d="M3.30448 3.82512H4.34795V4.52077H5.39141V3.82512H6.43488V4.52077H7.47835V3.82512H8.52182V4.52077H9.56529V3.82512H10.6088V4.52077H11.6522V3.82512H12.6957V4.52077H15.2062C13.9123 1.8448 11.1718 -0.000976562 8.00013 -0.000976562C4.82848 -0.000976562 2.08795 1.8448 0.793945 4.52077H3.30448V3.82512Z" fill="#6DA544"/>
<path d="M12.6958 11.4775V12.1732H11.6523V11.4775H10.6089V12.1732H9.56538V11.4775H8.52191V12.1732H7.47844V11.4775H6.43498V12.1732H5.39151V11.4775H4.34795V12.1732H3.30448V11.4775H0.793945C2.08795 14.1535 4.82844 15.9993 8.00013 15.9993C11.1718 15.9993 13.9123 14.1535 15.2063 11.4775H12.6958Z" fill="#D80027"/>
</g>
<defs>
<clipPath id="clip0_36251_6968">
<rect width="16" height="16" fill="white"/>
</clipPath>
</defs>
</svg>
