<svg width="16" height="16" viewBox="0 0 16 16" fill="none" xmlns="http://www.w3.org/2000/svg">
<g clip-path="url(#clip0_36251_6796)">
<path d="M8 16C12.4183 16 16 12.4183 16 8C16 3.58172 12.4183 0 8 0C3.58172 0 0 3.58172 0 8C0 12.4183 3.58172 16 8 16Z" fill="#FFDA44"/>
<path d="M8.00032 16.0004C10.6253 16.0004 12.955 14.736 14.4137 12.7832H1.58691C3.04566 14.736 5.37532 16.0004 8.00032 16.0004Z" fill="#0052B4"/>
<path d="M16 8C16 3.58175 12.4183 0 8 0C3.58175 0 0 3.58175 0 8C0 8.94603 0.164656 9.8535 0.466125 10.6959H15.5338C15.8353 9.8535 16 8.94603 16 8Z" fill="#0052B4"/>
<path d="M5.47605 5.13086L5.90771 6.45936H7.30471L6.17455 7.28055L6.60621 8.60911L5.47605 7.78798L4.3459 8.60911L4.77762 7.28055L3.64746 6.45936H5.0444L5.47605 5.13086Z" fill="#F0F0F0"/>
<path d="M3.07662 3.73926L3.33562 4.53638H4.17384L3.49574 5.02907L3.75474 5.82623L3.07662 5.33354L2.39852 5.82623L2.65755 5.02907L1.97949 4.53638H2.81768L3.07662 3.73926Z" fill="#F0F0F0"/>
</g>
<defs>
<clipPath id="clip0_36251_6796">
<rect width="16" height="16" fill="white"/>
</clipPath>
</defs>
</svg>
