<svg width="16" height="16" viewBox="0 0 16 16" fill="none" xmlns="http://www.w3.org/2000/svg">
<g clip-path="url(#clip0_36251_6806)">
<path d="M0 7.99958C0 8.97814 0.176031 9.91552 0.497594 10.7822L8 11.13L15.5024 10.7822C15.824 9.91552 16 8.97814 16 7.99958C16 7.02102 15.824 6.08364 15.5024 5.21698L8 4.86914L0.497594 5.21695C0.176031 6.08364 0 7.02102 0 7.99958Z" fill="#FFDA44"/>
<path d="M7.99948 0C4.55976 0 1.62741 2.171 0.49707 5.21741H15.5019C14.3715 2.171 11.4392 0 7.99948 0Z" fill="#D80027"/>
<path d="M15.5029 10.7832H0.498047C1.62839 13.8296 4.56073 16.0006 8.00045 16.0006C11.4402 16.0006 14.3725 13.8296 15.5029 10.7832Z" fill="#496E2D"/>
<path d="M7.99997 5.21777L8.69059 7.3434H10.9258L9.11763 8.65724L9.80825 10.783L7.99997 9.46921L6.19169 10.783L6.88244 8.65724L5.07422 7.3434H7.30934L7.99997 5.21777Z" fill="black"/>
</g>
<defs>
<clipPath id="clip0_36251_6806">
<rect width="16" height="16" fill="white"/>
</clipPath>
</defs>
</svg>
