<svg width="16" height="16" viewBox="0 0 16 16" fill="none" xmlns="http://www.w3.org/2000/svg">
<g clip-path="url(#clip0_36251_6916)">
<path d="M15.5024 10.7833C15.824 9.91668 16 8.97928 16 8.00071C16 7.02215 15.824 6.08474 15.5024 5.21812L8 4.52246L0.497594 5.21812C0.176031 6.08474 0 7.02215 0 8.00071C0 8.97928 0.176031 9.91668 0.497594 10.7833L8 11.479L15.5024 10.7833Z" fill="#6DA544"/>
<path d="M15.5019 5.21741C14.3715 2.171 11.4392 0 7.99948 0C4.55976 0 1.62741 2.171 0.49707 5.21741H15.5019Z" fill="#FFDA44"/>
<path d="M7.99948 15.9996C11.4392 15.9996 14.3715 13.8286 15.5019 10.7822H0.49707C1.62741 13.8286 4.55976 15.9996 7.99948 15.9996Z" fill="#D80027"/>
<path d="M13.4865 6.76892H9.29562L8.00056 2.7832L6.70549 6.76892H2.51465L5.90512 9.23223L4.61005 13.218L8.00056 10.7832L11.3911 13.218L10.096 9.2322L13.4865 6.76892Z" fill="#F0F0F0"/>
</g>
<defs>
<clipPath id="clip0_36251_6916">
<rect width="16" height="16" fill="white"/>
</clipPath>
</defs>
</svg>
