<svg width="16" height="16" viewBox="0 0 16 16" fill="none" xmlns="http://www.w3.org/2000/svg">
<g clip-path="url(#clip0_36251_6826)">
<path d="M0.972656 4.17391L7.99994 4.86956L15.0272 4.17391C13.6704 1.68716 11.0323 0 7.99994 0C4.96759 0 2.3295 1.68716 0.972656 4.17391Z" fill="#D80027"/>
<path d="M0.972719 11.8255L8 12.5211L15.0273 11.8255C15.6474 10.6889 16 9.3853 16 7.99937L8 7.30371L0 7.99937C0 9.3853 0.352594 10.6889 0.972719 11.8255Z" fill="#FFDA44"/>
<path d="M0.972719 4.17383C0.352594 5.31042 0 6.61398 0 7.99992H16C16 6.61398 15.6474 5.31042 15.0273 4.17383H8H0.972719Z" fill="#0052B4"/>
<path d="M7.99994 16.0001C11.0323 16.0001 13.6704 14.3129 15.0272 11.8262H0.972656C2.3295 14.3129 4.96759 16.0001 7.99994 16.0001Z" fill="#6DA544"/>
</g>
<defs>
<clipPath id="clip0_36251_6826">
<rect width="16" height="16" fill="white"/>
</clipPath>
</defs>
</svg>
