<svg width="16" height="16" viewBox="0 0 16 16" fill="none" xmlns="http://www.w3.org/2000/svg">
<g clip-path="url(#clip0_36251_6794)">
<path d="M8 16C12.4183 16 16 12.4183 16 8C16 3.58172 12.4183 0 8 0C3.58172 0 0 3.58172 0 8C0 12.4183 3.58172 16 8 16Z" fill="#D80027"/>
<path d="M12.522 5.93767H9.6243C9.80317 5.75036 9.91327 5.49677 9.91327 5.2173C9.91327 4.64102 9.44608 4.17383 8.8698 4.17383C8.50673 4.17383 8.18714 4.35933 8.00023 4.64061C7.81333 4.35933 7.4937 4.17383 7.13067 4.17383C6.55439 4.17383 6.0872 4.64102 6.0872 5.2173C6.0872 5.49677 6.1973 5.75039 6.37617 5.93767H3.47852C3.47852 6.70608 4.1478 7.32895 4.91614 7.32895H4.86977C4.86977 8.09739 5.49267 8.7203 6.26111 8.7203C6.26111 8.96917 6.3267 9.20249 6.4412 9.40449L5.28714 10.5586L6.17258 11.444L7.42858 10.188C7.47777 10.206 7.52867 10.2205 7.58123 10.2303L6.82227 11.9439L8.00023 13.2173L9.1782 11.9439L8.41923 10.2303C8.47183 10.2204 8.5227 10.206 8.57189 10.1879L9.82789 11.4439L10.7133 10.5585L9.55923 9.40439C9.67377 9.20242 9.73936 8.96908 9.73936 8.7202C10.5078 8.7202 11.1307 8.09733 11.1307 7.32886H11.0843C11.8527 7.32892 12.522 6.70608 12.522 5.93767Z" fill="black"/>
</g>
<defs>
<clipPath id="clip0_36251_6794">
<rect width="16" height="16" fill="white"/>
</clipPath>
</defs>
</svg>
