<svg width="16" height="16" viewBox="0 0 16 16" fill="none" xmlns="http://www.w3.org/2000/svg">
<g clip-path="url(#clip0_36251_6894)">
<path d="M8 16C12.4183 16 16 12.4183 16 8C16 3.58172 12.4183 0 8 0C3.58172 0 0 3.58172 0 8C0 12.4183 3.58172 16 8 16Z" fill="#F0F0F0"/>
<path d="M16.0003 8.00013C16.0003 4.82844 14.1545 2.08795 11.4785 0.793945V15.2063C14.1545 13.9123 16.0003 11.1718 16.0003 8.00013Z" fill="#D80027"/>
<path d="M0 8.00013C0 11.1718 1.84578 13.9123 4.52175 15.2063V0.793945C1.84578 2.08795 0 4.82844 0 8.00013Z" fill="#D80027"/>
<path d="M9.39168 9.04466L10.783 8.349L10.0873 8.00119V7.30553L8.69602 8.00119L9.39168 6.60987H8.69602L8.00037 5.56641L7.30471 6.60987H6.60905L7.30471 8.00119L5.9134 7.30553V8.00119L5.21777 8.349L6.60905 9.04466L6.26124 9.74031H7.65255V10.7838H8.34818V9.74031H9.73949L9.39168 9.04466Z" fill="#D80027"/>
</g>
<defs>
<clipPath id="clip0_36251_6894">
<rect width="16" height="16" fill="white"/>
</clipPath>
</defs>
</svg>
