<svg width="16" height="16" viewBox="0 0 16 16" fill="none" xmlns="http://www.w3.org/2000/svg">
<g clip-path="url(#clip0_36251_6783)">
<path d="M8 16C12.4183 16 16 12.4183 16 8C16 3.58172 12.4183 0 8 0C3.58172 0 0 3.58172 0 8C0 12.4183 3.58172 16 8 16Z" fill="#F0F0F0"/>
<path d="M8.00013 -0.000976562C4.82845 -0.000976562 2.08795 1.8448 0.793945 4.52077H15.2063C13.9123 1.8448 11.1718 -0.000976562 8.00013 -0.000976562Z" fill="#0052B4"/>
<path d="M8.00013 15.9993C11.1718 15.9993 13.9123 14.1535 15.2063 11.4775H0.793945C2.08795 14.1535 4.82844 15.9993 8.00013 15.9993Z" fill="#0052B4"/>
<path d="M6.39355 8.349L8.00012 5.56641L9.60668 8.349H6.39355Z" fill="#FFDA44"/>
<path d="M10.087 9.26628L8.00005 10.3098L5.91309 9.26628V7.875H10.087V9.26628Z" fill="#6DA544"/>
<path d="M9.96793 5.68457L9.23009 6.42242C9.54481 6.73713 9.7395 7.17192 9.7395 7.65217C9.7395 8.61267 8.96084 9.39129 8.00037 9.39129C7.0399 9.39129 6.26124 8.61264 6.26124 7.65217C6.26124 7.17192 6.45593 6.73713 6.77065 6.42242L6.03281 5.68457C5.52921 6.18807 5.21777 6.88373 5.21777 7.65217C5.21777 9.18898 6.46359 10.4348 8.00037 10.4348C9.53715 10.4348 10.783 9.18895 10.783 7.65217C10.7829 6.88373 10.4715 6.18807 9.96793 5.68457Z" fill="#FFDA44"/>
</g>
<defs>
<clipPath id="clip0_36251_6783">
<rect width="16" height="16" fill="white"/>
</clipPath>
</defs>
</svg>
