<svg width="16" height="16" viewBox="0 0 16 16" fill="none" xmlns="http://www.w3.org/2000/svg">
<g clip-path="url(#clip0_36251_6915)">
<path d="M8 16C12.4183 16 16 12.4183 16 8C16 3.58172 12.4183 0 8 0C3.58172 0 0 3.58172 0 8C0 12.4183 3.58172 16 8 16Z" fill="#F0F0F0"/>
<path d="M1.8291 2.90863H14.1719C13.716 2.3566 13.1872 1.86707 12.6007 1.4541H3.40026C2.81373 1.86701 2.28501 2.35657 1.8291 2.90863Z" fill="#F0F0F0"/>
<path d="M0 8.00069C0 8.24591 0.0116563 8.48835 0.03325 8.72797H15.9668C15.9883 8.48835 16 8.24591 16 8.00069C16 7.75547 15.9883 7.51303 15.9668 7.27344H0.03325C0.0116563 7.51303 0 7.75547 0 8.00069Z" fill="#F0F0F0"/>
<path d="M0.872883 11.6361H15.1281C15.3637 11.1753 15.5558 10.6887 15.6993 10.1816H0.301758C0.445164 10.6887 0.637352 11.1754 0.872883 11.6361Z" fill="#F0F0F0"/>
<path d="M3.40026 14.5454H12.6007C13.1872 14.1324 13.7159 13.6429 14.1718 13.0908H1.8291C2.28501 13.6428 2.81373 14.1324 3.40026 14.5454Z" fill="#F0F0F0"/>
<path d="M0.301758 5.81879H15.6993C15.5559 5.31166 15.3637 4.82504 15.1282 4.36426H0.872914C0.637383 4.82504 0.445195 5.31166 0.301758 5.81879Z" fill="#F0F0F0"/>
<path d="M3.82617 1.45453H12.6003C11.299 0.538344 9.71248 0 8.00008 0C6.95661 0 5.12742 0.538344 3.82617 1.45453Z" fill="#D80027"/>
<path d="M7.65234 4.36371H15.1278C14.8617 3.8433 14.5404 3.35584 14.1715 2.90918H7.65234V4.36371Z" fill="#D80027"/>
<path d="M7.65234 7.27191H15.9669C15.9219 6.77247 15.8315 6.2861 15.6989 5.81738H7.65234V7.27191Z" fill="#D80027"/>
<path d="M0.301203 10.1821H15.6987C15.8313 9.71338 15.9217 9.22697 15.9667 8.72754H0.0332031C0.0782031 9.22697 0.168641 9.71335 0.301203 10.1821Z" fill="#D80027"/>
<path d="M1.82832 13.0912H14.1711C14.54 12.6445 14.8613 12.1571 15.1273 11.6367H0.87207C1.1381 12.1571 1.45941 12.6446 1.82832 13.0912Z" fill="#D80027"/>
<path d="M7.99963 16.0004C9.71204 16.0004 11.2986 15.4621 12.5999 14.5459H3.39941C4.70066 15.4621 6.28723 16.0004 7.99963 16.0004Z" fill="#D80027"/>
<path d="M0.301172 5.81819C0.168609 6.28694 0.0782031 6.77328 0.0332031 7.27272H7.99995V0C4.33808 0 1.25092 2.46038 0.301172 5.81819Z" fill="#0052B4"/>
<path d="M4.7627 2.08691L5.28067 3.68113H6.95711L5.60092 4.66651L6.11886 6.26082L4.7627 5.27551L3.40648 6.26082L3.92455 4.66651L2.56836 3.68113H4.2447L4.7627 2.08691Z" fill="#F0F0F0"/>
</g>
<defs>
<clipPath id="clip0_36251_6915">
<rect width="16" height="16" fill="white"/>
</clipPath>
</defs>
</svg>
