<svg width="16" height="16" viewBox="0 0 16 16" fill="none" xmlns="http://www.w3.org/2000/svg">
<g clip-path="url(#clip0_36251_6965)">
<path d="M16 7.9995C16 5.25385 14.6166 2.83156 12.509 1.39081L8 1.04297L3.49103 1.39078C1.38344 2.83156 0 5.25388 0 7.9995C0 10.7452 1.38344 13.1674 3.49103 14.6082L8 14.956L12.509 14.6082C14.6166 13.1674 16 10.7452 16 7.9995Z" fill="#0052B4"/>
<path d="M12.5101 1.39131C11.2262 0.513625 9.67378 0 8.00116 0C6.32856 0 4.77609 0.513625 3.49219 1.39131H12.5101Z" fill="#A2001D"/>
<path d="M3.49121 14.6084C4.77509 15.4861 6.32759 15.9997 8.00018 15.9997C9.67281 15.9997 11.2252 15.4861 12.5091 14.6084H3.49121Z" fill="#A2001D"/>
<path d="M7.99993 11.826C10.113 11.826 11.826 10.113 11.826 7.99993C11.826 5.88683 10.113 4.17383 7.99993 4.17383C5.88683 4.17383 4.17383 5.88683 4.17383 7.99993C4.17383 10.113 5.88683 11.826 7.99993 11.826Z" fill="#F0F0F0"/>
<path d="M7.99958 11.13C9.72848 11.13 11.13 9.72847 11.13 7.99958C11.13 6.27069 9.72848 4.86914 7.99958 4.86914C6.27069 4.86914 4.86914 6.27069 4.86914 7.99958C4.86914 9.72847 6.27069 11.13 7.99958 11.13Z" fill="#6DA544"/>
<path d="M8.00005 10.086C9.15266 10.086 10.087 9.15168 10.087 7.99908C10.087 6.84648 9.15266 5.91211 8.00005 5.91211C6.84745 5.91211 5.91309 6.84648 5.91309 7.99908C5.91309 9.15168 6.84745 10.086 8.00005 10.086Z" fill="#F0F0F0"/>
<path d="M7.99958 7.47852L6.86914 8.00027V8.86983L7.99958 9.56549L9.13001 8.86983V8.00027L7.99958 7.47852Z" fill="#0052B4"/>
<path d="M9.13001 6.95703H6.86914V8.0005H9.13001V6.95703Z" fill="#FFDA44"/>
</g>
<defs>
<clipPath id="clip0_36251_6965">
<rect width="16" height="16" fill="white"/>
</clipPath>
</defs>
</svg>
