<svg width="16" height="16" viewBox="0 0 16 16" fill="none" xmlns="http://www.w3.org/2000/svg">
<g clip-path="url(#clip0_36251_6994)">
<path d="M15.5024 10.7833C15.824 9.91668 16 8.97927 16 8.00071C16 7.02215 15.824 6.0848 15.5024 5.21812L8 4.52246L0.497594 5.21812C0.176031 6.0848 0 7.02215 0 8.00071C0 8.97927 0.176031 9.91668 0.497594 10.7833L8 11.479L15.5024 10.7833Z" fill="#FFDA44"/>
<path d="M8.00049 15.9996C11.4402 15.9996 14.3725 13.8286 15.5029 10.7822H0.498047C1.62842 13.8286 4.56073 15.9996 8.00049 15.9996Z" fill="#0052B4"/>
<path d="M8.00049 0.000976562C4.56073 0.000976562 1.62842 2.17198 0.498047 5.21838H15.5029C14.3725 2.17198 11.4402 0.000976562 8.00049 0.000976562Z" fill="#6DA544"/>
</g>
<defs>
<clipPath id="clip0_36251_6994">
<rect width="16" height="16" fill="white"/>
</clipPath>
</defs>
</svg>
