<svg width="16" height="16" viewBox="0 0 16 16" fill="none" xmlns="http://www.w3.org/2000/svg">
<g clip-path="url(#clip0_36251_6835)">
<path d="M8 16C12.4183 16 16 12.4183 16 8C16 3.58172 12.4183 0 8 0C3.58172 0 0 3.58172 0 8C0 12.4183 3.58172 16 8 16Z" fill="#F0F0F0"/>
<path d="M16.0003 7.99916C16.0003 4.82747 14.1545 2.08697 11.4785 0.792969V15.2053C14.1545 13.9113 16.0003 11.1708 16.0003 7.99916Z" fill="#D80027"/>
<path d="M0 8.00013C0 11.1718 1.84578 13.9123 4.52175 15.2063V0.793945C1.84578 2.08795 0 4.82844 0 8.00013Z" fill="#6DA544"/>
<path d="M5.91309 7.99937C5.91309 9.15196 6.84746 10.0863 8.00005 10.0863C9.15265 10.0863 10.087 9.15196 10.087 7.99937V7.30371H5.91309V7.99937Z" fill="#6DA544"/>
<path d="M10.7821 6.60874H8.69508C8.69508 6.22455 8.38361 5.91309 7.99942 5.91309C7.61524 5.91309 7.30377 6.22455 7.30377 6.60874H5.2168C5.2168 6.99296 5.55145 7.3044 5.93561 7.3044H5.91245C5.91245 7.68861 6.22389 8.00005 6.60811 8.00005C6.60811 8.38427 6.91955 8.69571 7.30377 8.69571H8.69508C9.0793 8.69571 9.39074 8.38427 9.39074 8.00005C9.77496 8.00005 10.0864 7.68861 10.0864 7.3044H10.0632C10.4474 7.3044 10.7821 6.99296 10.7821 6.60874Z" fill="#FF9811"/>
</g>
<defs>
<clipPath id="clip0_36251_6835">
<rect width="16" height="16" fill="white"/>
</clipPath>
</defs>
</svg>
