<svg width="16" height="16" viewBox="0 0 16 16" fill="none" xmlns="http://www.w3.org/2000/svg">
<g clip-path="url(#clip0_36251_6904)">
<path d="M8 16C12.4183 16 16 12.4183 16 8C16 3.58172 12.4183 0 8 0C3.58172 0 0 3.58172 0 8C0 12.4183 3.58172 16 8 16Z" fill="#F0F0F0"/>
<path d="M4.86991 5.21741H15.5027C14.3724 2.171 11.44 0 8.00034 0C5.79116 0 3.79138 0.895594 2.34375 2.34341L4.86991 5.21741Z" fill="#6DA544"/>
<path d="M4.86991 10.7832H15.5027C14.3724 13.8296 11.44 16.0006 8.00034 16.0006C5.79116 16.0006 3.79138 15.105 2.34375 13.6572L4.86991 10.7832Z" fill="#D80027"/>
<path d="M2.34314 2.34375C-0.781047 5.46794 -0.781047 10.5333 2.34314 13.6575C3.63417 12.3665 4.87583 11.1248 8.00002 8.00063L2.34314 2.34375Z" fill="#0052B4"/>
<path d="M9.3916 6.6084V8.34752C9.3916 9.41252 10.7829 9.73887 10.7829 9.73887C10.7829 9.73887 12.1742 9.41252 12.1742 8.34752V6.6084H9.3916Z" fill="#DEDDE0"/>
<path d="M11.1302 8.03516H10.4346V9.04384H11.1302V8.03516Z" fill="#786145"/>
<path d="M11.4784 7.65269C11.4784 7.26847 11.1669 6.95703 10.7827 6.95703C10.3985 6.95703 10.0871 7.26847 10.0871 7.65269C9.89498 7.65269 9.73926 7.80841 9.73926 8.0005C9.73926 8.1926 9.89498 8.34832 10.0871 8.34832C10.2011 8.34832 11.3643 8.34832 11.4784 8.34832C11.6705 8.34832 11.8262 8.1926 11.8262 8.0005C11.8262 7.80841 11.6705 7.65269 11.4784 7.65269Z" fill="#6DA544"/>
</g>
<defs>
<clipPath id="clip0_36251_6904">
<rect width="16" height="16" fill="white"/>
</clipPath>
</defs>
</svg>
