<svg width="16" height="16" viewBox="0 0 16 16" fill="none" xmlns="http://www.w3.org/2000/svg">
<g clip-path="url(#clip0_36251_6778)">
<path d="M16 7.99958C16 7.02101 15.824 6.08361 15.5024 5.21698L8 4.86914L0.497594 5.21695C0.176031 6.08361 0 7.02101 0 7.99958C0 8.97814 0.176031 9.91554 0.497594 10.7822L8 11.13L15.5024 10.7822C15.824 9.91554 16 8.97814 16 7.99958Z" fill="#F0F0F0"/>
<path d="M8.00045 15.9996C11.4402 15.9996 14.3725 13.8286 15.5029 10.7822H0.498047C1.62839 13.8286 4.56073 15.9996 8.00045 15.9996Z" fill="#0052B4"/>
<path d="M0.49707 5.21741H15.5019C14.3715 2.171 11.4392 0 7.99948 0C4.55976 0 1.62741 2.171 0.49707 5.21741Z" fill="#D80027"/>
<path d="M10.0866 5.56567H8.69531L8.92722 3.82652L9.85472 3.13086L10.7822 3.82652V5.21783L10.0866 5.56567Z" fill="#338AF3"/>
<path d="M5.91242 5.56665H7.30373L7.07183 3.82749L6.1443 3.13184L5.2168 3.82749V5.2188L5.91242 5.56665Z" fill="#338AF3"/>
<path d="M8.92738 5.56567H7.07227V3.82652L7.99983 3.13086L8.92738 3.82652V5.56567Z" fill="#0052B4"/>
<path d="M5.2168 5.2168V9.04286C5.2168 9.95389 5.65686 10.7641 6.33561 11.272L6.82258 11.1501L7.43708 11.7683C7.6188 11.8058 7.80683 11.8255 7.99942 11.8255C8.19099 11.8255 8.37808 11.806 8.55883 11.7689L9.2603 11.1849L9.66318 11.2709C10.3416 10.763 10.782 9.95364 10.782 9.04286V5.2168H5.2168Z" fill="#F0F0F0"/>
<path d="M6.33081 5.2168H5.21777V6.32983H6.33081V5.2168Z" fill="#D80027"/>
<path d="M8.55737 5.2168H7.44434V6.32983H8.55737V5.2168Z" fill="#D80027"/>
<path d="M10.783 5.2168H9.66992V6.32983H10.783V5.2168Z" fill="#D80027"/>
<path d="M7.44408 6.33008H6.33105V7.44311H7.44408V6.33008Z" fill="#D80027"/>
<path d="M9.66967 6.3291H8.55664V7.44213H9.66967V6.3291Z" fill="#D80027"/>
<path d="M6.33081 7.44238H5.21777V8.55541H6.33081V7.44238Z" fill="#D80027"/>
<path d="M7.44408 8.55664H6.33105V9.66967H7.44408V8.55664Z" fill="#D80027"/>
<path d="M8.55737 7.44141H7.44434V8.55444H8.55737V7.44141Z" fill="#D80027"/>
<path d="M10.783 7.44238H9.66992V8.55541H10.783V7.44238Z" fill="#D80027"/>
<path d="M9.66967 8.55566H8.55664V9.66869H9.66967V8.55566Z" fill="#D80027"/>
<path d="M8.55737 9.66895H7.44434V10.782H8.55737V9.66895Z" fill="#D80027"/>
<path d="M6.33028 9.66895H5.28906C5.38456 10.0827 5.57231 10.4613 5.82975 10.782H6.33028V9.66895V9.66895Z" fill="#D80027"/>
<path d="M9.66992 10.782H10.1704C10.4279 10.4613 10.6156 10.0827 10.7111 9.66895H9.66992V10.782V10.782Z" fill="#D80027"/>
<path d="M6.33105 10.7812V11.2669C6.65477 11.5105 7.03308 11.6852 7.44408 11.769V10.7812H6.33105V10.7812Z" fill="#D80027"/>
<path d="M8.55664 10.7812V11.769C8.96767 11.6852 9.34595 11.5105 9.66967 11.2669V10.7812H8.55664V10.7812Z" fill="#D80027"/>
</g>
<defs>
<clipPath id="clip0_36251_6778">
<rect width="16" height="16" fill="white"/>
</clipPath>
</defs>
</svg>
