<svg width="16" height="16" viewBox="0 0 16 16" fill="none" xmlns="http://www.w3.org/2000/svg">
<g clip-path="url(#clip0_36251_6964)">
<path d="M8 16C12.4183 16 16 12.4183 16 8C16 3.58172 12.4183 0 8 0C3.58172 0 0 3.58172 0 8C0 12.4183 3.58172 16 8 16Z" fill="#F0F0F0"/>
<path d="M4.52148 10.7812L5.21714 15.5011C6.08377 15.8227 7.02117 15.9987 7.99973 15.9987C11.4394 15.9987 14.3718 13.8277 15.5021 10.7812H4.52148Z" fill="black"/>
<path d="M4.52148 5.21741L5.21714 0.497531C6.08377 0.175937 7.02117 0 7.99973 0C11.4394 0 14.3718 2.171 15.5021 5.21741H4.52148Z" fill="#6DA544"/>
<path d="M0 8.00045C0 11.4402 2.17103 14.3725 5.21741 15.5029V0.498047C2.17103 1.62839 0 4.56073 0 8.00045Z" fill="#A2001D"/>
</g>
<defs>
<clipPath id="clip0_36251_6964">
<rect width="16" height="16" fill="white"/>
</clipPath>
</defs>
</svg>
