<svg width="16" height="16" viewBox="0 0 16 16" fill="none" xmlns="http://www.w3.org/2000/svg">
<g clip-path="url(#clip0_36251_6776)">
<path d="M11.4783 0.793813C10.4266 0.28525 9.24664 0 8.00008 0C6.75352 0 5.57358 0.28525 4.52183 0.793813L3.82617 8L4.52183 15.2062C5.57358 15.7147 6.75352 16 8.00008 16C9.24664 16 10.4266 15.7147 11.4783 15.2062L12.174 8L11.4783 0.793813Z" fill="#D80027"/>
<path d="M4.52175 0.793945C1.84581 2.08791 0 4.8282 0 7.99985C0 11.1715 1.84581 13.9118 4.52175 15.2058V0.793945Z" fill="black"/>
<path d="M11.4785 0.793945V15.2058C14.1545 13.9118 16.0003 11.1715 16.0003 7.99985C16.0003 4.8282 14.1545 2.08791 11.4785 0.793945Z" fill="#496E2D"/>
<path d="M7.99939 5.21777C6.46258 5.21777 5.2168 6.46359 5.2168 8.00037C5.2168 9.53715 6.46261 10.783 7.99939 10.783C9.53617 10.783 10.782 9.53715 10.782 8.00037C10.782 6.46359 9.5362 5.21777 7.99939 5.21777ZM7.99939 9.73949C7.03889 9.73949 6.26027 8.96084 6.26027 8.00037C6.26027 7.0399 7.03892 6.26124 7.99939 6.26124C8.95986 6.26124 9.73852 7.0399 9.73852 8.00037C9.73852 8.96084 8.95989 9.73949 7.99939 9.73949Z" fill="#FFDA44"/>
<path d="M7.99937 6.95703C7.61515 6.95703 7.30371 7.26847 7.30371 7.65269V8.69616H8.69503V7.65269C8.69503 7.26847 8.38359 6.95703 7.99937 6.95703Z" fill="#FFDA44"/>
</g>
<defs>
<clipPath id="clip0_36251_6776">
<rect width="16" height="16" fill="white"/>
</clipPath>
</defs>
</svg>
