<svg width="16" height="16" viewBox="0 0 16 16" fill="none" xmlns="http://www.w3.org/2000/svg">
<g clip-path="url(#clip0_36251_6949)">
<path d="M8 16C12.4183 16 16 12.4183 16 8C16 3.58172 12.4183 0 8 0C3.58172 0 0 3.58172 0 8C0 12.4183 3.58172 16 8 16Z" fill="#F0F0F0"/>
<path d="M15.6517 7.99984L15.9317 6.95637C15.8852 6.60071 15.8154 6.25234 15.724 5.9129H7.30388V0.0302734C6.94888 0.0608359 6.6006 0.114867 6.26041 0.190305L4.8691 1.0433L4.17344 0.973086C3.80735 1.17284 3.45857 1.40034 3.12998 1.6528V5.91287H0.275133C0.183664 6.25231 0.113914 6.60068 0.0674141 6.95634L0.347352 7.99984L0.0673828 9.04331C0.113883 9.39896 0.183633 9.74734 0.275102 10.0868H3.12995V14.3468C3.45854 14.5993 3.80735 14.8268 4.17341 15.0266L5.21688 14.9563L6.26035 15.8093C6.60057 15.8847 6.94885 15.9388 7.30382 15.9694V10.0868H15.7239C15.8154 9.74737 15.8851 9.39899 15.9316 9.04334L15.6517 7.99984Z" fill="#0052B4"/>
<path d="M15.9323 6.9568H6.26091H6.26088V0.19043C5.52156 0.354367 4.82066 0.620086 4.17391 0.972992V6.95677H0.0677188C0.02325 7.29837 0 7.64662 0 8.00027C0 8.35393 0.02325 8.70218 0.0677188 9.04374H4.17387H4.17391V15.0275C4.82066 15.3804 5.52156 15.6462 6.26088 15.8101V9.04384V9.04377H15.9323C15.9768 8.70218 16 8.35393 16 8.00027C16 7.64662 15.9768 7.29837 15.9323 6.9568Z" fill="#D80027"/>
</g>
<defs>
<clipPath id="clip0_36251_6949">
<rect width="16" height="16" fill="white"/>
</clipPath>
</defs>
</svg>
