<svg width="16" height="16" viewBox="0 0 16 16" fill="none" xmlns="http://www.w3.org/2000/svg">
<g clip-path="url(#clip0_36251_6838)">
<path d="M0.793813 4.52085C0.28525 5.5726 0 6.75254 0 7.9991C0 9.24567 0.28525 10.4256 0.793813 11.4774L8 12.173L15.2062 11.4774C15.7147 10.4256 16 9.24567 16 7.9991C16 6.75254 15.7147 5.5726 15.2062 4.52085L8 3.8252L0.793813 4.52085Z" fill="#F0F0F0"/>
<path d="M0.793945 11.4785C2.08791 14.1545 4.8282 16.0003 7.99985 16.0003C11.1715 16.0003 13.9118 14.1545 15.2058 11.4785H0.793945Z" fill="#6DA544"/>
<path d="M0.793945 4.52175H15.2058C13.9118 1.84581 11.1715 0 7.99985 0C4.8282 0 2.08791 1.84581 0.793945 4.52175Z" fill="#D80027"/>
<path d="M6.6084 10.0878H9.39102V8.90516L8.83449 9.18341L7.99971 8.34863L7.16493 9.18341L6.6084 8.90516V10.0878Z" fill="#FFDA44"/>
<path d="M5.01637 8.69531L5.1459 9.09388H5.56496L5.2259 9.34022L5.35543 9.73878L5.01637 9.49247L4.6773 9.73878L4.80684 9.34022L4.46777 9.09388H4.88684L5.01637 8.69531Z" fill="#FFDA44"/>
<path d="M5.41773 7.30469L5.54727 7.70325H5.96633L5.62727 7.9496L5.75677 8.34816L5.41773 8.10185L5.07867 8.34816L5.2082 7.9496L4.86914 7.70325H5.2882L5.41773 7.30469Z" fill="#FFDA44"/>
<path d="M6.56519 6.26172L6.69472 6.66028H7.11375L6.77476 6.90663L6.90422 7.30519L6.56519 7.05888L6.22616 7.30519L6.35566 6.90663L6.0166 6.66028H6.43569L6.56519 6.26172Z" fill="#FFDA44"/>
<path d="M10.9832 8.69531L10.8536 9.09388H10.4346L10.7736 9.34022L10.6441 9.73878L10.9832 9.49247L11.3222 9.73878L11.1927 9.34022L11.5318 9.09388H11.1127L10.9832 8.69531Z" fill="#FFDA44"/>
<path d="M10.5818 7.30469L10.4523 7.70325H10.0332L10.3723 7.9496L10.2427 8.34816L10.5818 8.10185L10.9209 8.34816L10.7913 7.9496L11.1304 7.70325H10.7113L10.5818 7.30469Z" fill="#FFDA44"/>
<path d="M9.43431 6.26172L9.30477 6.66028H8.88574L9.22474 6.90663L9.09524 7.30519L9.43431 7.05888L9.77334 7.30519L9.64384 6.90663L9.98287 6.66028H9.56381L9.43431 6.26172Z" fill="#FFDA44"/>
<path d="M7.99977 5.73926L8.1293 6.13782H8.54836L8.2093 6.38416L8.33883 6.78273L7.99977 6.53641L7.6607 6.78273L7.79023 6.38416L7.45117 6.13782H7.87023L7.99977 5.73926Z" fill="#FFDA44"/>
</g>
<defs>
<clipPath id="clip0_36251_6838">
<rect width="16" height="16" fill="white"/>
</clipPath>
</defs>
</svg>
