<svg width="16" height="16" viewBox="0 0 16 16" fill="none" xmlns="http://www.w3.org/2000/svg">
<g clip-path="url(#clip0_36251_6818)">
<path d="M8 16C12.4183 16 16 12.4183 16 8C16 3.58172 12.4183 0 8 0C3.58172 0 0 3.58172 0 8C0 12.4183 3.58172 16 8 16Z" fill="#F0F0F0"/>
<path d="M0 7.99994C0 11.0323 1.68719 13.6704 4.1739 15.0272V0.972656C1.68719 2.32947 0 4.96759 0 7.99994Z" fill="#D80027"/>
<path d="M15.5024 10.783C15.824 9.9163 16 8.97893 16 8.00037C16 7.0218 15.824 6.0844 15.5024 5.21777H0.497625C0.176031 6.0844 0 7.0218 0 8.00037C0 8.97893 0.176031 9.9163 0.497625 10.783L8 11.4786L15.5024 10.783Z" fill="#D80027"/>
<path d="M8.00042 15.9996C11.4402 15.9996 14.3725 13.8286 15.5029 10.7822H0.498047C1.62836 13.8286 4.56073 15.9996 8.00042 15.9996Z" fill="#6DA544"/>
<path d="M0 7.9998C0 11.696 2.50691 14.8062 5.91303 15.7242V0.275391C2.50691 1.19339 0 4.30358 0 7.9998Z" fill="#D80027"/>
<path d="M4.89407 3.52105L4.15622 2.7832L3.66435 3.27514L3.17248 2.7832L2.43463 3.52105L2.92654 4.01295L2.43457 4.50489L3.17241 5.24273L3.66432 4.7508L4.15622 5.24273L4.89407 4.50489L4.40216 4.01295L4.89407 3.52105Z" fill="#F0F0F0"/>
</g>
<defs>
<clipPath id="clip0_36251_6818">
<rect width="16" height="16" fill="white"/>
</clipPath>
</defs>
</svg>
