<svg width="16" height="16" viewBox="0 0 16 16" fill="none" xmlns="http://www.w3.org/2000/svg">
<g clip-path="url(#clip0_36251_6881)">
<path d="M8 16C12.4183 16 16 12.4183 16 8C16 3.58172 12.4183 0 8 0C3.58172 0 0 3.58172 0 8C0 12.4183 3.58172 16 8 16Z" fill="#F0F0F0"/>
<path d="M15.9996 8.0014C15.9996 4.56171 13.8286 1.62934 10.7822 0.499023V15.5039C13.8286 14.3735 15.9996 11.4411 15.9996 8.0014Z" fill="#D80027"/>
<path d="M0 8.00042C0 11.4402 2.171 14.3725 5.21741 15.5029V0.498047C2.171 1.62836 0 4.56073 0 8.00042Z" fill="#D80027"/>
</g>
<defs>
<clipPath id="clip0_36251_6881">
<rect width="16" height="16" fill="white"/>
</clipPath>
</defs>
</svg>
