<svg width="16" height="16" viewBox="0 0 16 16" fill="none" xmlns="http://www.w3.org/2000/svg">
<g clip-path="url(#clip0_36251_6855)">
<path d="M15.5024 10.7833C15.824 9.91665 16 8.97927 16 8.00071C16 7.02215 15.824 6.08477 15.5024 5.21812L8 4.52246L0.497594 5.21812C0.176 6.08477 0 7.02215 0 8.00071C0 8.97927 0.176 9.91665 0.497594 10.7833L8 11.479L15.5024 10.7833Z" fill="#F0F0F0"/>
<path d="M7.99951 16.0006C11.4392 16.0006 14.3716 13.8296 15.5019 10.7832H0.49707C1.62745 13.8296 4.55976 16.0006 7.99951 16.0006Z" fill="#338AF3"/>
<path d="M7.99951 0C4.55976 0 1.62745 2.171 0.49707 5.21741H15.5019C14.3716 2.171 11.4392 0 7.99951 0Z" fill="#6DA544"/>
</g>
<defs>
<clipPath id="clip0_36251_6855">
<rect width="16" height="16" fill="white"/>
</clipPath>
</defs>
</svg>
