<svg width="16" height="16" viewBox="0 0 16 16" fill="none" xmlns="http://www.w3.org/2000/svg">
<g clip-path="url(#clip0_36251_6815)">
<path d="M8 16C12.4183 16 16 12.4183 16 8C16 3.58172 12.4183 0 8 0C3.58172 0 0 3.58172 0 8C0 12.4183 3.58172 16 8 16Z" fill="#F9F9F9"/>
<path d="M7.99951 16.0006C11.4392 16.0006 14.3716 13.8296 15.5019 10.7832H0.49707C1.62745 13.8296 4.55976 16.0006 7.99951 16.0006Z" fill="#D80027"/>
<path d="M11.1304 6.60886V5.56539H11.4782V4.86973H10.7825V5.21758H10.0869V4.86973H9.39124V5.56539H9.73905V6.60886H9.04339V4.17414H9.39124V3.47852H8.69558V3.82627H8.34774V3.47852H7.65211V3.82627H7.30427V3.47852H6.60861V4.17414H6.95645V6.60886H6.2608V5.56539H6.60861V4.86973H5.91295V5.21758H5.21733V4.86973H4.52167V5.56539H4.86948V6.60886H4.17383V9.39148H11.826V6.60886H11.1304Z" fill="#D80027"/>
<path d="M7.99968 9.04297C7.4234 9.04297 6.95621 9.51016 6.95621 10.0864C6.95621 10.5407 7.24665 10.9271 7.65187 11.0703V12.5213H6.6084V13.9126H8.34752V11.0703C8.75274 10.9271 9.04318 10.5408 9.04318 10.0865C9.04315 9.51019 8.57596 9.04297 7.99968 9.04297ZM7.99968 10.4343C7.80759 10.4343 7.65187 10.2785 7.65187 10.0865C7.65187 9.89438 7.80759 9.73866 7.99968 9.73866C8.19177 9.73866 8.34749 9.89438 8.34749 10.0865C8.34749 10.2785 8.19177 10.4343 7.99968 10.4343Z" fill="#FFDA44"/>
</g>
<defs>
<clipPath id="clip0_36251_6815">
<rect width="16" height="16" fill="white"/>
</clipPath>
</defs>
</svg>
