<svg width="16" height="16" viewBox="0 0 16 16" fill="none" xmlns="http://www.w3.org/2000/svg">
<g clip-path="url(#clip0_36251_7004)">
<path d="M8 16C12.4183 16 16 12.4183 16 8C16 3.58172 12.4183 0 8 0C3.58172 0 0 3.58172 0 8C0 12.4183 3.58172 16 8 16Z" fill="#FCFCFC"/>
<path d="M9.35888 5.58915C9.35888 4.83878 8.75056 4.23047 8.00016 4.23047C7.24975 4.23047 6.64144 4.83878 6.64144 5.58915H3.65234C3.65234 6.32793 4.29591 6.9269 5.03469 6.9269H4.99019C4.99019 7.66575 5.58906 8.26474 6.32797 8.26474C6.32797 8.9189 6.79778 9.46246 7.41825 9.57865L7.41478 9.58646H8.58556L8.5821 9.57865C9.2026 9.4624 9.67238 8.91887 9.67238 8.26474C10.4113 8.26474 11.0102 7.66575 11.0102 6.9269H10.9656C11.7044 6.9269 12.348 6.32793 12.348 5.58915H9.35888V5.58915Z" fill="#FFDA44"/>
<path d="M7.40298 9.44824L6.56055 11.3502C7.00505 11.5309 7.49089 11.6313 8.0003 11.6313C8.5097 11.6313 8.99554 11.5309 9.44001 11.3502L8.59761 9.44824H7.40298Z" fill="#FFDA44"/>
<path d="M6.26074 6.25684V8.59718C6.26074 9.92836 7.99986 10.3363 7.99986 10.3363C7.99986 10.3363 9.73899 9.92836 9.73899 8.59718V6.25684H6.26074Z" fill="#F0F0F0"/>
<path d="M1.93984 8.05664L2.88043 10.6874L3.81124 8.05664H4.52162L3.16456 11.5349H2.59627L1.22949 8.05664H1.93984Z" fill="#338AF3"/>
<path d="M12.8691 11.5349V8.05664H13.5452V11.5349H12.8691Z" fill="#338AF3"/>
<path d="M6.95605 7.0127V9.84876C7.19515 10.0247 7.4524 10.1458 7.65171 10.2233V7.0127H6.95605Z" fill="#D80027"/>
<path d="M9.04234 7.0127V9.84876C8.80324 10.0247 8.54599 10.1458 8.34668 10.2233V7.0127H9.04234Z" fill="#D80027"/>
<path d="M9.73899 6.25684H6.26074V7.36046H9.73899V6.25684Z" fill="#0052B4"/>
</g>
<defs>
<clipPath id="clip0_36251_7004">
<rect width="16" height="16" fill="white"/>
</clipPath>
</defs>
</svg>
