<svg width="16" height="16" viewBox="0 0 16 16" fill="none" xmlns="http://www.w3.org/2000/svg">
<g clip-path="url(#clip0_36251_6933)">
<path d="M16 7.99952C16 12.4178 12.4183 15.9995 8 15.9995C3.58175 15.9995 0 12.4178 0 7.99952C0.347813 7.99952 8 6.95605 8 6.95605L16 7.99952Z" fill="#D80027"/>
<path d="M0 8C0 3.58175 3.58175 0 8 0C12.4183 0 16 3.58175 16 8" fill="#0052B4"/>
<path d="M5.91316 5.56466C5.91316 4.98838 5.44597 4.5212 4.86969 4.5212C4.60235 4.5212 4.35869 4.62182 4.17404 4.7871V4.17335H4.52185V3.4777H4.17404V3.12988H3.47838V3.4777H3.13057V4.17335H3.47838V4.7871C3.29373 4.62182 3.05007 4.5212 2.78273 4.5212C2.20644 4.5212 1.73926 4.98838 1.73926 5.56466C1.73926 5.87363 1.87366 6.15113 2.08707 6.34223V6.95598H5.56532V6.34223C5.77879 6.15113 5.91316 5.87363 5.91316 5.56466Z" fill="#FFDA44"/>
</g>
<defs>
<clipPath id="clip0_36251_6933">
<rect width="16" height="16" fill="white"/>
</clipPath>
</defs>
</svg>
