<svg width="16" height="16" viewBox="0 0 16 16" fill="none" xmlns="http://www.w3.org/2000/svg">
<g clip-path="url(#clip0_36251_6889)">
<path d="M16 8C16 12.4183 12.4183 16 8 16C3.58175 16 0 12.4183 0 8C0 8.00191 8 0.000875 8 0C12.4183 0 16 3.58175 16 8Z" fill="#0052B4"/>
<path d="M7.97852 7.99898H7.99996C7.99996 7.99178 7.99996 7.98477 7.99996 7.97754C7.99282 7.98471 7.98568 7.99185 7.97852 7.99898Z" fill="#F0F0F0"/>
<path d="M8 4.17391C8 2.76625 8 1.84391 8 0H7.99865C3.58097 0.00075 0 3.58216 0 8H4.1739V5.64966L6.52425 8H7.97862C7.98575 7.99287 7.99287 7.98575 8.00003 7.97859C8.00003 7.43963 8.00003 6.95872 8.00003 6.52431L5.64962 4.17391H8Z" fill="#F0F0F0"/>
<path d="M4.04782 1.04297C2.7966 1.75544 1.75638 2.79563 1.04395 4.04684V7.9995H3.13091V3.13V3.12994H8.00048C8.00048 2.47172 8.00048 1.84466 8.00048 1.04297H4.04782V1.04297Z" fill="#D80027"/>
<path d="M8.0009 7.01611L5.15855 4.17383H4.1748V4.17389L8.00084 7.99989H8.0009C8.0009 7.99989 8.0009 7.32154 8.0009 7.01611Z" fill="#D80027"/>
<path d="M9.04297 4.17383V7.99989C9.04297 9.86364 11.4778 10.4347 11.4778 10.4347C11.4778 10.4347 13.9125 9.86364 13.9125 7.99989V4.17383H9.04297Z" fill="#338AF3"/>
<path d="M9.04297 8C9.04297 9.86376 11.4778 10.4348 11.4778 10.4348C11.4778 10.4348 13.9125 9.86376 13.9125 8H9.04297V8Z" fill="#A2001D"/>
<path d="M12.5215 5.91248H11.8258V5.2168H11.1302V5.91248H10.4346V6.60811H11.1302V8.69505H11.8258V6.60811H12.5215V5.91248Z" fill="black"/>
</g>
<defs>
<clipPath id="clip0_36251_6889">
<rect width="16" height="16" fill="white"/>
</clipPath>
</defs>
</svg>
