<svg width="16" height="16" viewBox="0 0 16 16" fill="none" xmlns="http://www.w3.org/2000/svg">
<g clip-path="url(#clip0_36251_6960)">
<path d="M8 16C12.4183 16 16 12.4183 16 8C16 3.58172 12.4183 0 8 0C3.58172 0 0 3.58172 0 8C0 12.4183 3.58172 16 8 16Z" fill="#496E2D"/>
<path d="M9.39083 7.66741C9.19445 7.66741 9.00802 7.70656 8.83489 7.76888C8.92973 7.5575 8.99333 7.32231 8.99333 7.07116C8.99333 6.07737 7.99955 5.33203 7.99955 5.33203C7.99955 5.33203 7.00577 6.07737 7.00577 7.07116C7.00577 7.32228 7.06936 7.5575 7.1642 7.76888C6.99105 7.70663 6.80461 7.66741 6.60827 7.66741C5.61448 7.66741 4.86914 8.66119 4.86914 8.66119C4.86914 8.66119 5.61448 9.655 6.60827 9.655C7.19092 9.655 7.68786 9.3135 7.99958 9.03081C8.3113 9.31347 8.80823 9.655 9.39089 9.655C10.3847 9.655 11.13 8.66119 11.13 8.66119C11.13 8.66119 10.3846 7.66741 9.39083 7.66741Z" fill="#F0F0F0"/>
<path d="M8.00042 3.12988L8.2057 3.76163H8.86998L8.33264 4.15213L8.53776 4.78388L8.00042 4.39338L7.46308 4.78388L7.6682 4.15213L7.13086 3.76163H7.79514L8.00042 3.12988Z" fill="#FFDA44"/>
<path d="M5.47374 4.23438L5.86868 4.58994L6.3289 4.32425L6.11277 4.80972L6.50768 5.16534L5.97918 5.10978L5.76305 5.59525L5.65249 5.07547L5.12402 5.01991L5.58421 4.75416L5.47374 4.23438Z" fill="#FFDA44"/>
<path d="M3.625 6.08412L4.14481 6.19459L4.41053 5.73438L4.46609 6.26284L4.98584 6.3734L4.50041 6.58956L4.55597 7.118L4.20031 6.72315L3.71488 6.93928L3.98059 6.47903L3.625 6.08412Z" fill="#FFDA44"/>
<path d="M10.5261 4.23438L10.1312 4.58994L9.67097 4.32425L9.88706 4.80972L9.49219 5.16534L10.0207 5.10978L10.2368 5.59525L10.3474 5.07547L10.8758 5.01991L10.4157 4.75416L10.5261 4.23438Z" fill="#FFDA44"/>
<path d="M12.3755 6.08412L11.8557 6.19459L11.59 5.73438L11.5344 6.26284L11.0146 6.3734L11.5001 6.58956L11.4445 7.118L11.8002 6.72315L12.2856 6.93928L12.0199 6.47903L12.3755 6.08412Z" fill="#FFDA44"/>
<path d="M8.0001 12.437C8.78951 12.437 9.51713 12.1736 10.1008 11.7305H5.89941C6.4831 12.1736 7.21069 12.437 8.0001 12.437Z" fill="#F0F0F0"/>
<path d="M4.81152 10.3496C4.92193 10.6023 5.06193 10.839 5.22637 11.0561H10.7738C10.9382 10.839 11.0782 10.6023 11.1886 10.3496H4.81152Z" fill="#F0F0F0"/>
</g>
<defs>
<clipPath id="clip0_36251_6960">
<rect width="16" height="16" fill="white"/>
</clipPath>
</defs>
</svg>
