<svg width="16" height="16" viewBox="0 0 16 16" fill="none" xmlns="http://www.w3.org/2000/svg">
<g clip-path="url(#clip0_36251_6996)">
<path d="M8 16C12.4183 16 16 12.4183 16 8C16 3.58172 12.4183 0 8 0C3.58172 0 0 3.58172 0 8C0 12.4183 3.58172 16 8 16Z" fill="#D80027"/>
<path d="M13.217 4.17383H2.78223V11.826H13.217V4.17383Z" fill="#6DA544"/>
<path d="M9.2879 10.2603C8.03927 10.2603 7.02702 9.24805 7.02702 7.99942C7.02702 6.7508 8.03927 5.73855 9.2879 5.73855C9.67721 5.73855 10.0436 5.83698 10.3634 6.0103C9.86165 5.51964 9.17556 5.2168 8.41834 5.2168C6.88159 5.2168 5.63574 6.46261 5.63574 7.99939C5.63574 9.53617 6.88159 10.782 8.41834 10.782C9.17556 10.782 9.86168 10.4791 10.3634 9.98848C10.0436 10.1619 9.67721 10.2603 9.2879 10.2603Z" fill="#F0F0F0"/>
</g>
<defs>
<clipPath id="clip0_36251_6996">
<rect width="16" height="16" fill="white"/>
</clipPath>
</defs>
</svg>
