<svg width="16" height="16" viewBox="0 0 16 16" fill="none" xmlns="http://www.w3.org/2000/svg">
<g clip-path="url(#clip0_36251_7009)">
<path fill-rule="evenodd" clip-rule="evenodd" d="M8 0C12.418 0 16 3.58203 16 8C16 12.418 12.418 16 8 16C3.58203 16 0 12.418 0 8C0 3.58203 3.58203 0 8 0Z" fill="#2394E0"/>
<path fill-rule="evenodd" clip-rule="evenodd" d="M1.53125 12.1325C1.0599 11.4176 0.707031 10.6169 0.5 9.75879L1.90885 10.4385L1.91667 10.859C1.91667 11.014 1.65365 11.3421 1.56901 11.4671L1.53125 12.1325ZM10.1966 0.846029C12.8815 1.73796 14.8958 4.10124 15.2839 6.97884L15.0299 6.9515C14.9844 7.14681 14.9427 7.15072 14.9427 7.38509C14.9427 7.59212 15.2031 7.73014 15.2031 8.16634C15.2031 8.28353 14.9284 8.5166 14.9167 8.55827L14.5091 8.0804V8.68848L14.4479 8.68587L14.3385 7.56348L14.1107 7.63509L13.8398 6.80046L12.9479 7.73275L12.9375 8.41504L12.6458 8.61035L12.3359 6.86035L12.151 6.99577L11.7318 6.42936L11.1055 6.44759L10.8659 6.17285L10.6198 6.24056L10.1367 5.68717L10.043 5.75098L10.3424 6.5166H10.6901V6.34342H10.8633C10.9883 6.68978 11.1237 6.48405 11.1237 6.69108C11.1237 7.41374 10.2318 7.94499 9.64714 8.0804C9.67839 8.21061 9.66667 8.34082 9.82031 8.34082C10.1471 8.34082 9.98437 8.28353 10.3411 8.25358C10.3242 8.99186 9.49479 9.87337 9.14062 10.4215L9.29948 11.5531C9.34115 11.7992 8.78906 12.0583 8.60156 12.3356L8.69141 12.7692L8.4375 12.8721C8.39323 13.3174 7.96094 13.8109 7.47526 13.8109H6.95443C6.95443 13.2015 6.51953 12.3304 6.51953 11.8994C6.51953 11.5335 6.69271 11.484 6.69271 11.0309C6.69271 10.6117 6.25911 10.0114 6.25911 9.90202V9.2067H5.91146C5.85937 9.01269 5.89193 8.94629 5.65104 8.94629H5.5638C5.1849 8.94629 5.2487 9.11947 4.86849 9.11947H4.52083C4.20703 9.11947 3.65234 8.11426 3.65234 7.99056V6.94889C3.65234 6.49967 4.0638 6.01009 4.34766 5.81999V5.38639L4.73828 4.98926L4.95573 4.9528C5.42187 4.9528 5.36589 4.69238 5.65104 4.69238H6.43229V5.30046L7.29167 5.66764L7.3724 5.29655C7.76172 5.3877 7.86328 5.56087 8.34245 5.56087H8.51562C8.84505 5.56087 8.86328 5.12337 8.86328 4.77962L8.16797 4.84863L7.86458 4.18978L7.5638 4.26921C7.61849 4.50488 7.64714 4.40723 7.64714 4.60645C7.64714 4.72363 7.55078 4.73665 7.47266 4.77962L7.17187 4.0166L6.52474 3.55436L6.4388 3.639L6.98958 4.21842C6.91667 4.42676 6.90755 5.02702 6.60417 4.60645L6.88802 4.46973L6.17969 3.72754L5.75521 3.8929L5.33594 4.29395C5.29167 4.61686 5.20443 4.77962 4.86589 4.77962C4.64062 4.77962 4.77604 4.72103 4.43099 4.69238V3.82389H5.21224L4.95833 3.24577L4.86458 3.30306V3.12858L6.13411 2.54395C6.11068 2.36165 6.08073 2.45931 6.08073 2.26009C6.08073 2.24837 6.16536 2.08822 6.16797 2.08561L6.49609 2.29004L6.41797 1.91634L5.91146 2.02051L5.81771 1.56608C6.21875 1.35514 7.10286 0.610352 7.38411 0.610352H7.64453C7.91927 0.610352 8.65365 0.881185 8.77344 1.04395L8.07682 0.973633L8.59375 1.39941L8.64323 1.21712L9.02865 1.11165L9.03385 0.870768H9.20833V1.13118L10.1966 0.846029Z" fill="#A1E367"/>
</g>
<defs>
<clipPath id="clip0_36251_7009">
<rect width="16" height="16" fill="white"/>
</clipPath>
</defs>
</svg>
