<svg width="16" height="16" viewBox="0 0 16 16" fill="none" xmlns="http://www.w3.org/2000/svg">
<g clip-path="url(#clip0_36251_6919)">
<path d="M7.99999 0C7.40268 0 6.82084 0.0660313 6.2609 0.190156L5.91309 7.99997L6.2609 15.8098C6.82087 15.9339 7.40271 16 7.99999 16C12.4183 16 16 12.4182 16 7.99997C16 3.58172 12.4183 0 7.99999 0Z" fill="#496E2D"/>
<path d="M2.08694 2.6123C0.790562 4.03405 0 5.92499 0 8.00068C0 10.0764 0.790594 11.9673 2.08697 13.3891L2.43478 8.00068L2.08694 2.6123Z" fill="#496E2D"/>
<path d="M11.7014 6.03486C12.095 4.9378 11.6528 3.74464 10.7039 3.15039C10.8746 3.17261 11.0454 3.2128 11.2141 3.27327C12.4798 3.72739 13.1377 5.12152 12.6836 6.3872C12.2295 7.65298 10.8353 8.31086 9.56963 7.85673C9.40097 7.79623 9.2435 7.71858 9.09766 7.62723C10.208 7.77183 11.3078 7.13192 11.7014 6.03486Z" fill="#F0F0F0"/>
<path d="M9.51839 2.84961L9.17636 3.29155L8.65045 3.10283L8.96502 3.56464L8.62305 4.00651L9.15945 3.85008L9.47408 4.31183L9.49096 3.75333L10.0274 3.59686L9.50149 3.4082L9.51839 2.84961Z" fill="#F0F0F0"/>
<path d="M10.4422 4.29102L10.1002 4.73292L9.57428 4.5442L9.88887 5.00602L9.54688 5.44789L10.0833 5.29139L10.3979 5.75323L10.4148 5.1947L10.9512 5.0382L10.4253 4.84952L10.4422 4.29102Z" fill="#F0F0F0"/>
<path d="M7.88948 3.37305L7.54745 3.81492L7.02155 3.62627L7.33614 4.08805L6.99414 4.52995L7.53051 4.37348L7.84514 4.83527L7.86208 4.27677L8.39848 4.1203L7.87258 3.93158L7.88948 3.37305Z" fill="#F0F0F0"/>
<path d="M7.8524 5.02344L7.5104 5.46534L6.98447 5.27666L7.29909 5.73847L6.95703 6.18034L7.4935 6.02391L7.80809 6.48566L7.825 5.92716L8.36143 5.77069L7.83547 5.58197L7.8524 5.02344Z" fill="#F0F0F0"/>
<path d="M9.42174 5.58691L9.07971 6.02879L8.5538 5.8401L8.86843 6.30191L8.52637 6.74376L9.06284 6.58732L9.37743 7.04913L9.39434 6.49057L9.93078 6.33413L9.40481 6.14545L9.42174 5.58691Z" fill="#F0F0F0"/>
<path d="M2.08691 2.61187V13.3886C3.17691 14.5841 4.62473 15.4474 6.26082 15.8101V0.19043C4.62469 0.553117 3.17694 1.4164 2.08691 2.61187Z" fill="#D80027"/>
<path d="M3.67925 4.21182L2.98047 3.69126V2.9551L3.67925 2.43457H4.66753L5.36631 2.9551V3.69126L4.66753 4.21182H3.67925Z" fill="#F0F0F0"/>
<path d="M4.17341 2.43457H3.67925L2.98047 2.9551V3.31501H4.17341V2.43457Z" fill="#FF9811"/>
<path d="M4.17383 4.21055H4.66795L5.36674 3.68999V3.31445H4.17383V4.21055Z" fill="#FF9811"/>
<path d="M3.67925 13.5663L2.98047 13.0457V12.3096L3.67925 11.7891H4.66753L5.36631 12.3096V13.0457L4.66753 13.5663H3.67925Z" fill="#F0F0F0"/>
<path d="M4.17341 11.7891H3.67925L2.98047 12.3096V12.6695H4.17341V11.7891Z" fill="#FF9811"/>
<path d="M4.17383 13.567H4.66795L5.36674 13.0464V12.6709H4.17383V13.567Z" fill="#FF9811"/>
<path d="M3.67925 8.88858L2.98047 8.36802V7.63189L3.67925 7.11133H4.66753L5.36631 7.63189V8.36802L4.66753 8.88858H3.67925Z" fill="#496E2D"/>
<path d="M5.39081 10.0341H5.08643V9.72975H4.55159L4.1734 9.35156L3.79524 9.72975H3.2604V10.0341H2.95605V10.6428H3.2604V10.9471H3.79521L4.17343 11.3253L4.55159 10.9471H5.08643V10.6428H5.39081V10.0341Z" fill="#496E2D"/>
<path d="M5.39081 5.35737H5.08643V5.05299H4.55159L4.1734 4.6748L3.79524 5.05299H3.2604V5.35737H2.95605V5.96605H3.2604V6.2704H3.79521L4.17343 6.64865L4.55159 6.2704H5.08643V5.96605H5.39081V5.35737Z" fill="#496E2D"/>
<path d="M4.52183 7.65332H3.82617V8.34898H4.52183V7.65332Z" fill="#D80027"/>
<path d="M4.17398 6.01008C4.36607 6.01008 4.52179 5.85436 4.52179 5.66227C4.52179 5.47017 4.36607 5.31445 4.17398 5.31445C3.98189 5.31445 3.82617 5.47017 3.82617 5.66227C3.82617 5.85436 3.98189 6.01008 4.17398 6.01008Z" fill="#D80027"/>
<path d="M4.17398 10.6878C4.36607 10.6878 4.52179 10.5321 4.52179 10.34C4.52179 10.1479 4.36607 9.99219 4.17398 9.99219C3.98189 9.99219 3.82617 10.1479 3.82617 10.34C3.82617 10.5321 3.98189 10.6878 4.17398 10.6878Z" fill="#D80027"/>
</g>
<defs>
<clipPath id="clip0_36251_6919">
<rect width="16" height="16" fill="white"/>
</clipPath>
</defs>
</svg>
