<svg width="16" height="16" viewBox="0 0 16 16" fill="none" xmlns="http://www.w3.org/2000/svg">
<g clip-path="url(#clip0_36251_6997)">
<path d="M16 8C16 12.4183 12.4183 16 8 16C3.58175 16 0 12.4183 0 8C0 8.00191 8 0.000875 8 0C12.4183 0 16 3.58175 16 8Z" fill="#FFDA44"/>
<path d="M8.00037 3.82617V6.52439L5.21777 3.82617H8.00037Z" fill="#0052B4"/>
<path d="M4.17398 7.99957H6.52433L4.17398 4.86914L3.82617 7.30392L4.17398 7.99957Z" fill="#0052B4"/>
<path d="M7.97852 7.99995H7.99996C7.99996 7.99276 7.99996 7.98575 7.99996 7.97852C7.99282 7.98568 7.98568 7.99282 7.97852 7.99995Z" fill="#F0F0F0"/>
<path d="M8 4.17391C8 2.76625 8 1.84391 8 0H7.99865C3.58097 0.00075 0 3.58216 0 8H4.1739V5.64966L6.52425 8H7.97862C7.98575 7.99287 7.99287 7.98575 8.00003 7.97859C8.00003 7.43963 8.00003 6.95872 8.00003 6.52431L5.64962 4.17391H8Z" fill="#F0F0F0"/>
<path d="M7.99894 7.01611L5.1566 4.17383H4.17285V4.17389L7.99888 7.99989H7.99894C7.99894 7.99989 7.99894 7.32155 7.99894 7.01611Z" fill="#D80027"/>
<path d="M4.04684 1.04297C3.73844 1.21859 3.44297 1.41431 3.16197 1.62797H3.49022L2.62266 2.25841L2.95397 3.27831L2.08641 2.648L1.99409 2.71509C1.63388 3.12416 1.3145 3.57003 1.04297 4.04684V7.9995H3.12994V3.13V3.12994H7.9995C7.9995 2.47172 7.9995 1.84466 7.9995 1.04297H4.04684V1.04297Z" fill="#D80027"/>
<path d="M3.41767 1.44336C3.33138 1.50377 3.24632 1.56586 3.16254 1.62958L2.62332 2.26002L2.08707 2.64958L1.99398 2.7172C1.79754 2.94033 1.61332 3.17445 1.44238 3.41861C1.63723 3.51317 1.85595 3.56633 2.08707 3.56633C2.90351 3.56633 3.56532 2.90452 3.56532 2.08808C3.56538 1.85689 3.51226 1.63823 3.41767 1.44336Z" fill="#0052B4"/>
<path d="M1.99316 2.71653L2.08626 2.64891L2.95382 3.27925L2.62248 2.25934L3.48998 1.62891H3.16166C2.73685 1.952 2.34538 2.3165 1.99316 2.71653Z" fill="#FFDA44"/>
<path d="M5.52935 1.3916L5.70204 1.92301H6.26079L5.80876 2.25148L5.98135 2.78288L5.52935 2.45444L5.07732 2.78288L5.24988 2.25148L4.79785 1.92301H5.35663L5.52935 1.3916Z" fill="#FFDA44"/>
<path d="M2.08694 4.87012L2.25963 5.40152H2.81838L2.36638 5.73002L2.53897 6.26143L2.08694 5.93296L1.63488 6.26143L1.80747 5.73002L1.35547 5.40152H1.91422L2.08694 4.87012Z" fill="#FFDA44"/>
</g>
<defs>
<clipPath id="clip0_36251_6997">
<rect width="16" height="16" fill="white"/>
</clipPath>
</defs>
</svg>
