<svg width="16" height="16" viewBox="0 0 16 16" fill="none" xmlns="http://www.w3.org/2000/svg">
<g clip-path="url(#clip0_36251_6971)">
<path d="M8 16C12.4183 16 16 12.4183 16 8C16 3.58172 12.4183 0 8 0C3.58172 0 0 3.58172 0 8C0 12.4183 3.58172 16 8 16Z" fill="#F0F0F0"/>
<path d="M15.5024 10.782C15.824 9.91533 16 8.97795 16 7.99939C16 7.02083 15.824 6.08345 15.5024 5.2168H0.497594C0.176031 6.08345 0 7.02083 0 7.99939C0 8.97795 0.176031 9.91533 0.497594 10.782L8 11.4776L15.5024 10.782Z" fill="#0052B4"/>
<path d="M8.00045 15.9996C11.4402 15.9996 14.3725 13.8286 15.5029 10.7822H0.498047C1.62839 13.8286 4.56073 15.9996 8.00045 15.9996Z" fill="#D80027"/>
</g>
<defs>
<clipPath id="clip0_36251_6971">
<rect width="16" height="16" fill="white"/>
</clipPath>
</defs>
</svg>
