<svg width="16" height="16" viewBox="0 0 16 16" fill="none" xmlns="http://www.w3.org/2000/svg">
<g clip-path="url(#clip0_36251_6845)">
<path d="M8 16C12.4183 16 16 12.4183 16 8C16 3.58172 12.4183 0 8 0C3.58172 0 0 3.58172 0 8C0 12.4183 3.58172 16 8 16Z" fill="#F0F0F0"/>
<path d="M4.86991 5.21741H15.5027C14.3724 2.171 11.44 0 8.00034 0C5.79116 0 3.79138 0.895594 2.34375 2.34341L4.86991 5.21741Z" fill="black"/>
<path d="M4.86991 10.7822H15.5027C14.3724 13.8286 11.44 15.9996 8.00034 15.9996C5.79116 15.9996 3.79138 15.104 2.34375 13.6562L4.86991 10.7822Z" fill="#6DA544"/>
<path d="M2.34314 2.34277C-0.781047 5.46696 -0.781047 10.5323 2.34314 13.6565C3.63417 12.3655 4.87583 11.1238 8.00002 7.99965L2.34314 2.34277Z" fill="#D80027"/>
</g>
<defs>
<clipPath id="clip0_36251_6845">
<rect width="16" height="16" fill="white"/>
</clipPath>
</defs>
</svg>
