<svg width="16" height="16" viewBox="0 0 16 16" fill="none" xmlns="http://www.w3.org/2000/svg">
<g clip-path="url(#clip0_36251_6843)">
<path d="M8 16C12.4183 16 16 12.4183 16 8C16 3.58172 12.4183 0 8 0C3.58172 0 0 3.58172 0 8C0 12.4183 3.58172 16 8 16Z" fill="#F0F0F0"/>
<path d="M8.00013 0C4.82845 0 2.08795 1.84578 0.793945 4.52175H15.2063C13.9123 1.84578 11.1718 0 8.00013 0Z" fill="black"/>
<path d="M8.00013 16.0003C4.82845 16.0003 2.08795 14.1545 0.793945 11.4785H15.2063C13.9123 14.1545 11.1718 16.0003 8.00013 16.0003Z" fill="#496E2D"/>
<path d="M15.6222 5.56445H0.377781C0.132719 6.33223 0 7.1502 0 7.99923C0 8.84827 0.132719 9.66623 0.377781 10.434H15.6222C15.8673 9.66623 16 8.84827 16 7.99923C16 7.1502 15.8673 6.33223 15.6222 5.56445Z" fill="#A2001D"/>
<path d="M10.491 3.69705L9.54357 3.25977L7.99988 6.75511L6.45619 3.25977L5.50879 3.69705L7.42529 8.00014L5.50879 12.3032L6.45619 12.7405L7.99988 9.24517L9.54357 12.7405L10.491 12.3032L8.57447 8.00014L10.491 3.69705Z" fill="#F0F0F0"/>
<path d="M8.64338 4.1093C8.27663 3.70877 7.99991 3.47852 7.99991 3.47852C7.99991 3.47852 7.7232 3.70873 7.35645 4.1093V11.8912C7.7232 12.2918 7.99991 12.522 7.99991 12.522C7.99991 12.522 8.27663 12.2918 8.64338 11.8912V4.1093Z" fill="#F0F0F0"/>
<path d="M6.26074 5.60126V10.3985C6.6483 11.0852 7.12265 11.6481 7.47815 12.0213V3.97852C7.12265 4.35167 6.64827 4.91458 6.26074 5.60126Z" fill="#A2001D"/>
<path d="M9.73889 5.60126C9.3513 4.91455 8.87699 4.35167 8.52148 3.97852V12.0213C8.87695 11.6481 9.3513 11.0852 9.73889 10.3985V5.60126Z" fill="#A2001D"/>
<path d="M9.73926 5.60059V10.3978C10.1316 9.70255 10.4349 8.8804 10.4349 7.99924C10.4349 7.11809 10.1316 6.2959 9.73926 5.60059Z" fill="black"/>
<path d="M6.26109 5.60059V10.3978C5.86874 9.70255 5.56543 8.8804 5.56543 7.99924C5.56543 7.11809 5.86874 6.2959 6.26109 5.60059Z" fill="black"/>
</g>
<defs>
<clipPath id="clip0_36251_6843">
<rect width="16" height="16" fill="white"/>
</clipPath>
</defs>
</svg>
