<svg width="16" height="16" viewBox="0 0 16 16" fill="none" xmlns="http://www.w3.org/2000/svg">
<g clip-path="url(#clip0_36251_6972)">
<path d="M8 16C12.4183 16 16 12.4183 16 8C16 3.58172 12.4183 0 8 0C3.58172 0 0 3.58172 0 8C0 12.4183 3.58172 16 8 16Z" fill="#F0F0F0"/>
<path d="M14.284 6.43499H11.6521C11.6521 5.95475 11.2628 5.56543 10.7826 5.56543L10.0869 6.95673C10.0869 6.95673 10.829 9.04369 10.8058 9.04369H11.6753C12.1556 9.04369 12.5449 8.6544 12.5449 8.17413C13.0251 8.17413 13.4144 7.78484 13.4144 7.30458H13.3855C13.8657 7.30454 14.284 6.91526 14.284 6.43499Z" fill="#ACABB1"/>
<path d="M1.71582 6.43499H4.3477C4.3477 5.95475 4.73702 5.56543 5.21726 5.56543L5.91292 6.95673C5.91292 6.95673 5.17087 9.04369 5.19408 9.04369H4.32452C3.84425 9.04369 3.45497 8.6544 3.45497 8.17413C2.9747 8.17413 2.58541 7.78484 2.58541 7.30458H2.61437C2.1341 7.30454 1.71582 6.91526 1.71582 6.43499Z" fill="#ACABB1"/>
<path d="M10.7827 11.1309V11.4787H5.21747V11.1309H3.82617V12.5222H5.21747V12.87H10.7827V12.5222H12.174V11.1309H10.7827Z" fill="#FFDA44"/>
<path d="M5.2168 5.56559V9.04382C5.2168 11.1738 7.99939 11.8264 7.99939 11.8264C7.99939 11.8264 10.782 11.1738 10.782 9.04382V5.56559L7.99939 5.21777L5.2168 5.56559Z" fill="#0052B4"/>
<path d="M10.782 6.95605H5.2168V9.04301H10.782V6.95605Z" fill="#D80027"/>
<path d="M9.39068 3.82652V4.34827L9.04287 4.52219L8.69505 4.17434V3.13086H7.30376V4.17434L6.95594 4.52219L6.60809 4.34827V3.82652H5.2168V5.56564H10.782V3.82652H9.39068Z" fill="#FFDA44"/>
</g>
<defs>
<clipPath id="clip0_36251_6972">
<rect width="16" height="16" fill="white"/>
</clipPath>
</defs>
</svg>
