<svg width="16" height="16" viewBox="0 0 16 16" fill="none" xmlns="http://www.w3.org/2000/svg">
<g clip-path="url(#clip0_36251_6954)">
<path d="M0 7.99973C0 8.97829 0.176031 9.91567 0.497594 10.7823L8 11.478L15.5024 10.7823C15.824 9.91567 16 8.97829 16 7.99973C16 7.02117 15.824 6.0838 15.5024 5.21714L8 4.52148L0.497594 5.21714C0.176031 6.0838 0 7.02117 0 7.99973Z" fill="#FFDA44"/>
<path d="M15.5038 5.21741C14.3735 2.17103 11.4411 0 8.00143 0C4.56171 0 1.62937 2.17103 0.499023 5.21741H15.5038Z" fill="#D80027"/>
<path d="M0.498047 10.7832C1.62839 13.8296 4.56073 16.0006 8.00045 16.0006C11.4402 16.0006 14.3725 13.8296 15.5029 10.7832H0.498047Z" fill="#D80027"/>
</g>
<defs>
<clipPath id="clip0_36251_6954">
<rect width="16" height="16" fill="white"/>
</clipPath>
</defs>
</svg>
