<svg width="16" height="16" viewBox="0 0 16 16" fill="none" xmlns="http://www.w3.org/2000/svg">
<g clip-path="url(#clip0_36251_6970)">
<path d="M8 16C12.4183 16 16 12.4183 16 8C16 3.58172 12.4183 0 8 0C3.58172 0 0 3.58172 0 8C0 12.4183 3.58172 16 8 16Z" fill="#F0F0F0"/>
<path d="M8.00013 0C4.82844 0 2.08795 1.84578 0.793945 4.52175H15.2063C13.9123 1.84578 11.1718 0 8.00013 0Z" fill="#338AF3"/>
<path d="M8.00013 16.0013C11.1718 16.0013 13.9123 14.1555 15.2063 11.4795H0.793945C2.08795 14.1555 4.82844 16.0013 8.00013 16.0013Z" fill="#338AF3"/>
<path d="M8.00021 5.56543C6.65552 5.56543 5.56543 6.65552 5.56543 8.00021C5.56543 9.3449 6.65552 10.435 8.00021 10.435C9.3449 10.435 10.435 9.3449 10.435 8.00021C10.435 6.65552 9.3449 5.56543 8.00021 5.56543ZM8.00021 9.39152C7.23184 9.39152 6.6089 8.76865 6.6089 8.00021C6.6089 7.23177 7.2318 6.6089 8.00021 6.6089C8.76862 6.6089 9.39152 7.23177 9.39152 8.00021C9.39152 8.76865 8.76859 9.39152 8.00021 9.39152Z" fill="#FFDA44"/>
<path d="M9.20506 8.34781L8.00012 8L6.79518 8.34781L6.39355 9.04347H9.60665L9.20506 8.34781Z" fill="#0052B4"/>
<path d="M7.99957 6.26074L7.19629 7.65205L7.99957 7.99987L8.80285 7.65205L7.99957 6.26074Z" fill="#338AF3"/>
<path d="M6.79492 8.34699H9.2048L8.80314 7.65137H7.19658L6.79492 8.34699Z" fill="#6DA544"/>
</g>
<defs>
<clipPath id="clip0_36251_6970">
<rect width="16" height="16" fill="white"/>
</clipPath>
</defs>
</svg>
