<svg width="16" height="16" viewBox="0 0 16 16" fill="none" xmlns="http://www.w3.org/2000/svg">
<g clip-path="url(#clip0_36251_6935)">
<path d="M8 16C12.4183 16 16 12.4183 16 8C16 3.58172 12.4183 0 8 0C3.58172 0 0 3.58172 0 8C0 12.4183 3.58172 16 8 16Z" fill="#FFDA44"/>
<path d="M9.21663 15.908C10.5178 15.7095 11.7154 15.1972 12.7309 14.4512L8 8L9.21663 15.908Z" fill="#D80027"/>
<path d="M6.78284 0.0917969C5.48174 0.290297 4.28405 0.802672 3.26855 1.54858L7.99949 7.99983L6.78284 0.0917969Z" fill="#D80027"/>
<path d="M3.26855 14.4512C4.28399 15.1971 5.48168 15.7095 6.78277 15.9081L7.99949 8L3.26855 14.4512Z" fill="#D80027"/>
<path d="M1.54858 3.26855C0.802641 4.28405 0.290328 5.48171 0.0917969 6.78284L7.99983 7.99949L1.54858 3.26855Z" fill="#D80027"/>
<path d="M0.0917969 9.21663C0.290297 10.5178 0.802672 11.7154 1.54861 12.7309L7.99983 8L0.0917969 9.21663Z" fill="#D80027"/>
<path d="M15.908 6.78281C15.7095 5.48171 15.1972 4.28402 14.4512 3.26855L8 7.99947L15.908 6.78281Z" fill="#D80027"/>
<path d="M12.7309 1.54855C11.7154 0.802641 10.5178 0.290297 9.21663 0.0917969L8 7.99983L12.7309 1.54855Z" fill="#D80027"/>
<path d="M14.4513 12.7309C15.1972 11.7154 15.7095 10.5177 15.9081 9.21666L8 8L14.4513 12.7309Z" fill="#D80027"/>
<path d="M7.99939 10.783C9.53618 10.783 10.782 9.53715 10.782 8.00037C10.782 6.46358 9.53618 5.21777 7.99939 5.21777C6.46261 5.21777 5.2168 6.46358 5.2168 8.00037C5.2168 9.53715 6.46261 10.783 7.99939 10.783Z" fill="#D80027"/>
<path d="M8.00005 10.086C9.15266 10.086 10.087 9.15168 10.087 7.99908C10.087 6.84648 9.15266 5.91211 8.00005 5.91211C6.84745 5.91211 5.91309 6.84648 5.91309 7.99908C5.91309 9.15168 6.84745 10.086 8.00005 10.086Z" fill="#FFDA44"/>
</g>
<defs>
<clipPath id="clip0_36251_6935">
<rect width="16" height="16" fill="white"/>
</clipPath>
</defs>
</svg>
