<svg width="16" height="16" viewBox="0 0 16 16" fill="none" xmlns="http://www.w3.org/2000/svg">
<g clip-path="url(#clip0_36251_6804)">
<path d="M0.37775 5.56461C0.132687 6.33239 -3.12445e-05 7.1503 5.51734e-09 7.99939C-3.12445e-05 8.84842 0.132688 9.66636 0.377781 10.4342L8 10.782L15.6222 10.4342C15.8672 9.66636 16 8.84839 16 7.99942C16 7.15036 15.8672 6.33239 15.6222 5.56461L7.99997 5.2168L0.37775 5.56461Z" fill="#F0F0F0"/>
<path d="M16 8.00072C16 7.52612 15.9584 7.06125 15.8792 6.60938H0.120875C0.0415625 7.06125 0 7.52606 0 8.00068C0 8.47531 0.0415938 8.94012 0.120875 9.392H15.8792C15.9584 8.94009 16 8.47528 16 8.00072Z" fill="black"/>
<path d="M8.00015 15.9998C11.5694 15.9998 14.5922 13.6622 15.6223 10.4346H0.37793C1.40809 13.6622 4.43093 15.9998 8.00015 15.9998Z" fill="#338AF3"/>
<path d="M8.00018 1.25323e-09C4.43096 1.25323e-09 1.40815 2.33759 0.37793 5.56516L15.6223 5.56519C14.5922 2.33759 11.5694 -6.24988e-05 8.00018 1.25323e-09Z" fill="#338AF3"/>
</g>
<defs>
<clipPath id="clip0_36251_6804">
<rect width="16" height="16" fill="white"/>
</clipPath>
</defs>
</svg>
