<svg width="16" height="16" viewBox="0 0 16 16" fill="none" xmlns="http://www.w3.org/2000/svg">
<g clip-path="url(#clip0_36251_6824)">
<path d="M8 16C12.4183 16 16 12.4183 16 8C16 3.58172 12.4183 0 8 0C3.58172 0 0 3.58172 0 8C0 12.4183 3.58172 16 8 16Z" fill="#F0F0F0"/>
<path d="M8 5.91314H15.7244C15.5238 5.16895 15.2189 4.46767 14.8258 3.82617H8V5.91314Z" fill="#338AF3"/>
<path d="M3.02071 14.2608H12.9805C13.7106 13.6793 14.3367 12.973 14.8264 12.1738H1.1748C1.66452 12.973 2.29065 13.6793 3.02071 14.2608Z" fill="#338AF3"/>
<path d="M2.78321 1.93555C2.15427 2.47714 1.61055 3.11492 1.1748 3.82605H2.78321V1.93555Z" fill="#338AF3"/>
<path d="M8 8.00005C8 7.18518 8 6.50321 8 5.91309H4.86956V8.00005H2.78259V5.91309H0.275594C0.09625 6.57852 0 7.27796 0 8.00005C0 8.72215 0.09625 9.42159 0.275594 10.087H15.7244C15.9037 9.42159 16 8.72215 16 8.00005H8Z" fill="#338AF3"/>
<path d="M8.00055 0.000976562C6.88965 0.000976562 5.83168 0.227633 4.87012 0.636852V3.82707H8.00055C8.00055 3.09857 8.00055 2.47898 8.00055 1.7401H12.9805C11.6139 0.651727 9.88334 0.000976562 8.00055 0.000976562Z" fill="#338AF3"/>
</g>
<defs>
<clipPath id="clip0_36251_6824">
<rect width="16" height="16" fill="white"/>
</clipPath>
</defs>
</svg>
