<svg width="16" height="16" viewBox="0 0 16 16" fill="none" xmlns="http://www.w3.org/2000/svg">
<g clip-path="url(#clip0_36251_6817)">
<path d="M8 16C12.4183 16 16 12.4183 16 8C16 3.58172 12.4183 0 8 0C3.58172 0 0 3.58172 0 8C0 12.4183 3.58172 16 8 16Z" fill="#496E2D"/>
<path d="M7.99939 9.24302C6.66733 9.24302 5.55452 8.30683 5.28148 7.05667C5.23955 7.24886 5.2168 7.44814 5.2168 7.65295C5.2168 9.1898 6.46258 10.4355 7.99939 10.4355C9.5362 10.4355 10.782 9.18977 10.782 7.65295C10.782 7.44814 10.7592 7.24886 10.7173 7.05664C10.4443 8.30686 9.33145 9.24302 7.99939 9.24302Z" fill="#FFDA44"/>
<path d="M7.9995 5.56543L8.2585 6.36259H9.09672L8.41862 6.85524L8.67762 7.6524L7.9995 7.15971L7.32141 7.6524L7.58044 6.85524L6.90234 6.36259H7.7405L7.9995 5.56543Z" fill="#FFDA44"/>
</g>
<defs>
<clipPath id="clip0_36251_6817">
<rect width="16" height="16" fill="white"/>
</clipPath>
</defs>
</svg>
