<svg width="16" height="16" viewBox="0 0 16 16" fill="none" xmlns="http://www.w3.org/2000/svg">
<g clip-path="url(#clip0_36251_6875)">
<path d="M8 16C12.4183 16 16 12.4183 16 8C16 3.58172 12.4183 0 8 0C3.58172 0 0 3.58172 0 8C0 12.4183 3.58172 16 8 16Z" fill="#FFDA44"/>
<path d="M7.99995 16.0004C10.4247 16.0004 12.5973 14.9215 14.0644 13.2178H1.93555C3.40264 14.9215 5.57523 16.0004 7.99995 16.0004Z" fill="#338AF3"/>
<path d="M16 8C16 3.58175 12.4183 0 8 0C3.58175 0 0 3.58175 0 8C0 8.72209 0.09625 9.42153 0.275594 10.087H15.7244C15.9038 9.42153 16 8.72209 16 8Z" fill="#338AF3"/>
<path d="M0.635742 11.1309C0.789961 11.4932 0.970242 11.8417 1.17402 12.1743H14.8256C15.0294 11.8417 15.2097 11.4932 15.364 11.1309H0.635742Z" fill="#338AF3"/>
<path d="M3.66554 5.04611L2.10254 4.3563L3.66554 3.66648L4.35532 2.10352L5.0451 3.66648L6.60807 4.3563L5.0451 5.04611L4.35532 6.60908L3.66554 5.04611Z" fill="#F0F0F0"/>
<path d="M4.35616 2.96484L4.78213 3.93013L5.74744 4.35616L4.78213 4.78216L4.35616 5.74744L3.93013 4.78216L2.96484 4.35616L3.93013 3.93013L4.35616 2.96484Z" fill="#D80027"/>
</g>
<defs>
<clipPath id="clip0_36251_6875">
<rect width="16" height="16" fill="white"/>
</clipPath>
</defs>
</svg>
