<svg width="16" height="16" viewBox="0 0 16 16" fill="none" xmlns="http://www.w3.org/2000/svg">
<g clip-path="url(#clip0_36251_6980)">
<path d="M0 7.99937C0 9.3853 0.352594 10.6889 0.972719 11.8255L8 12.5211L15.0273 11.8255C15.6474 10.6889 16 9.3853 16 7.99937L8 7.30371L0 7.99937Z" fill="#FFDA44"/>
<path d="M15.0273 4.17391C13.6704 1.68716 11.0323 0 8 0C4.96766 0 2.32956 1.68716 0.972719 4.17391C0.352594 5.3105 0 6.61406 0 8H16C16 6.61406 15.6474 5.3105 15.0273 4.17391Z" fill="#338AF3"/>
<path d="M7.99994 16.0001C11.0323 16.0001 13.6704 14.3129 15.0272 11.8262H0.972656C2.3295 14.3129 4.96759 16.0001 7.99994 16.0001Z" fill="#496E2D"/>
<path d="M9.04297 4.68179L10.02 5.14138L9.49975 6.08763L10.5607 5.88469L10.6951 6.95641L11.4341 6.16816L12.1731 6.95641L12.3075 5.88469L13.3684 6.08757L12.8482 5.14135L13.8252 4.68179L12.8481 4.22226L13.3684 3.27601L12.3075 3.47894L12.173 2.40723L11.4341 3.19548L10.6951 2.40723L10.5607 3.47894L9.49972 3.27601L10.02 4.22229L9.04297 4.68179Z" fill="#FFDA44"/>
</g>
<defs>
<clipPath id="clip0_36251_6980">
<rect width="16" height="16" fill="white"/>
</clipPath>
</defs>
</svg>
