<svg width="16" height="16" viewBox="0 0 16 16" fill="none" xmlns="http://www.w3.org/2000/svg">
<g clip-path="url(#clip0_36251_6901)">
<path d="M8 16C12.4183 16 16 12.4183 16 8C16 3.58172 12.4183 0 8 0C3.58172 0 0 3.58172 0 8C0 12.4183 3.58172 16 8 16Z" fill="#D80027"/>
<path d="M7.99993 11.826C10.113 11.826 11.826 10.113 11.826 7.99992C11.826 5.88683 10.113 4.17383 7.99993 4.17383C5.88683 4.17383 4.17383 5.88683 4.17383 7.99992C4.17383 10.113 5.88683 11.826 7.99993 11.826Z" fill="#F0F0F0"/>
<path d="M8.47098 6.53711L9.12735 7.44164L10.1904 7.09695L9.53298 8.00071L10.1893 8.90521L9.1266 8.55921L8.4692 9.46296L8.46988 8.34542L7.40723 7.99942L8.47029 7.65474L8.47098 6.53711Z" fill="#D80027"/>
<path d="M8.86895 10.2603C7.62033 10.2603 6.60808 9.24805 6.60808 7.99942C6.60808 6.7508 7.62033 5.73855 8.86895 5.73855C9.25827 5.73855 9.62461 5.83698 9.94442 6.0103C9.4427 5.51964 8.75661 5.2168 7.99939 5.2168C6.46264 5.2168 5.2168 6.46261 5.2168 7.99939C5.2168 9.53617 6.46264 10.782 7.99939 10.782C8.75661 10.782 9.44273 10.4791 9.94442 9.98848C9.62461 10.1619 9.25827 10.2603 8.86895 10.2603Z" fill="#D80027"/>
</g>
<defs>
<clipPath id="clip0_36251_6901">
<rect width="16" height="16" fill="white"/>
</clipPath>
</defs>
</svg>
