<svg width="16" height="16" viewBox="0 0 16 16" fill="none" xmlns="http://www.w3.org/2000/svg">
<g clip-path="url(#clip0_36251_6925)">
<path d="M8 16C12.4183 16 16 12.4183 16 8C16 3.58172 12.4183 0 8 0C3.58172 0 0 3.58172 0 8C0 12.4183 3.58172 16 8 16Z" fill="#F0F0F0"/>
<path d="M2.34268 13.6573C2.67827 13.9929 3.03634 14.2922 3.41193 14.5557L14.5547 3.41291C14.2912 3.03731 13.992 2.67925 13.6563 2.34366C13.3207 2.00806 12.9627 1.70881 12.5871 1.44531L1.44434 12.5881C1.7078 12.9637 2.00709 13.3217 2.34268 13.6573Z" fill="#A2001D"/>
<path d="M2.34383 2.34278C-0.180045 4.86665 -0.664545 8.65703 0.889299 11.6677L11.6687 0.888309C8.65805 -0.665535 4.86764 -0.180972 2.34383 2.34278Z" fill="#0052B4"/>
<path d="M13.6569 13.657C16.1808 11.1332 16.6653 7.34275 15.1115 4.33203L4.33203 15.1115C7.34269 16.6653 11.1331 16.1808 13.6569 13.657Z" fill="#496E2D"/>
<path d="M6.60839 4.52056L5.71195 4.94222L6.18933 5.81041L5.21592 5.62422L5.09255 6.6075L4.41455 5.88428L3.73652 6.6075L3.6132 5.62422L2.63977 5.81038L3.11711 4.94219L2.2207 4.52056L3.11714 4.09888L2.63977 3.23075L3.61317 3.41694L3.73655 2.43359L4.41455 3.15684L5.09258 2.43359L5.21592 3.41694L6.18933 3.23075L5.71202 4.09891L6.60839 4.52056Z" fill="#FFDA44"/>
</g>
<defs>
<clipPath id="clip0_36251_6925">
<rect width="16" height="16" fill="white"/>
</clipPath>
</defs>
</svg>
