<svg width="16" height="16" viewBox="0 0 16 16" fill="none" xmlns="http://www.w3.org/2000/svg">
<g clip-path="url(#clip0_36251_6905)">
<path d="M16 8C16 12.4183 12.4183 16 8 16C3.58175 16 0 12.4183 0 8C0 3.58175 8 0 8 0C8 0 16 3.58175 16 8Z" fill="#A2001D"/>
<path d="M0 8C0 3.58175 3.58175 0 8 0C12.4183 0 16 3.58175 16 8" fill="#0052B4"/>
<path d="M10.782 10.087L7.99939 9.73918L5.2168 10.087V5.91309H10.782V10.087Z" fill="#F0F0F0"/>
<path d="M7.99971 9.73868C8.76811 9.73868 9.39102 9.11577 9.39102 8.34737C9.39102 7.57897 8.76811 6.95605 7.99971 6.95605C7.23131 6.95605 6.6084 7.57897 6.6084 8.34737C6.6084 9.11577 7.23131 9.73868 7.99971 9.73868Z" fill="#0052B4"/>
<path d="M8.00035 9.04366C8.38455 9.04366 8.696 8.7322 8.696 8.348C8.696 7.9638 8.38455 7.65234 8.00035 7.65234C7.61614 7.65234 7.30469 7.9638 7.30469 8.348C7.30469 8.7322 7.61614 9.04366 8.00035 9.04366Z" fill="#A2001D"/>
<path d="M6.95605 6.60938H9.04299L7.99952 7.65287L6.95605 6.60938Z" fill="#6DA544"/>
<path d="M8.348 7.30371H7.65234V9.39068H8.348V7.30371Z" fill="#FFDA44"/>
<path d="M9.11242 9.18359H6.8863L5.2168 10.088H10.782L9.11242 9.18359Z" fill="#6DA544"/>
</g>
<defs>
<clipPath id="clip0_36251_6905">
<rect width="16" height="16" fill="white"/>
</clipPath>
</defs>
</svg>
