<svg width="16" height="16" viewBox="0 0 16 16" fill="none" xmlns="http://www.w3.org/2000/svg">
<g clip-path="url(#clip0_36251_6956)">
<path d="M10.7823 0.497594C9.91568 0.176031 8.9783 0 7.99974 0C7.02117 0 6.0838 0.176031 5.21714 0.497594L4.52148 8L5.21714 15.5024C6.0838 15.824 7.02117 16 7.99974 16C8.9783 16 9.91568 15.824 10.7823 15.5024L11.478 8L10.7823 0.497594Z" fill="#FFDA44"/>
<path d="M15.9996 7.99944C15.9996 4.55976 13.8286 1.62738 10.7822 0.49707V15.5019C13.8286 14.3715 15.9996 11.4392 15.9996 7.99944Z" fill="#D80027"/>
<path d="M0 8.00042C0 11.4402 2.171 14.3725 5.21741 15.5029V0.498047C2.171 1.62836 0 4.56073 0 8.00042Z" fill="black"/>
</g>
<defs>
<clipPath id="clip0_36251_6956">
<rect width="16" height="16" fill="white"/>
</clipPath>
</defs>
</svg>
