<svg width="16" height="16" viewBox="0 0 16 16" fill="none" xmlns="http://www.w3.org/2000/svg">
<g clip-path="url(#clip0_36251_6810)">
<path d="M8 16C12.4183 16 16 12.4183 16 8C16 3.58172 12.4183 0 8 0C3.58172 0 0 3.58172 0 8C0 12.4183 3.58172 16 8 16Z" fill="#FFDA44"/>
<path d="M4.87088 5.21741H15.5037C14.3734 2.171 11.441 0 8.00132 0C5.79213 0 3.79235 0.895594 2.34473 2.34341L4.87088 5.21741Z" fill="#6DA544"/>
<path d="M4.86991 10.7832H15.5027C14.3724 13.8296 11.44 16.0006 8.00034 16.0006C5.79116 16.0006 3.79137 15.105 2.34375 13.6572L4.86991 10.7832Z" fill="#6DA544"/>
<path d="M2.34314 2.34277C-0.781047 5.46696 -0.781047 10.5323 2.34314 13.6565C3.63417 12.3655 4.87583 11.1238 8.00002 7.99965L2.34314 2.34277Z" fill="#D80027"/>
<path d="M10.1582 6.6084L10.5036 7.67127H11.6211L10.717 8.32815L11.0623 9.39102L10.1582 8.73412L9.25409 9.39102L9.5994 8.32815L8.69531 7.67127H9.81287L10.1582 6.6084Z" fill="black"/>
<path d="M13.6368 6.6084L13.9821 7.67127H15.0996L14.1956 8.32815L14.5409 9.39102L13.6368 8.73412L12.7326 9.39102L13.078 8.32815L12.1738 7.67127H13.2914L13.6368 6.6084Z" fill="black"/>
</g>
<defs>
<clipPath id="clip0_36251_6810">
<rect width="16" height="16" fill="white"/>
</clipPath>
</defs>
</svg>
