<svg width="16" height="16" viewBox="0 0 16 16" fill="none" xmlns="http://www.w3.org/2000/svg">
<g clip-path="url(#clip0_36251_6851)">
<path d="M3.49121 14.6078C4.77509 15.4854 6.32759 15.9991 8.00018 15.9991C9.67277 15.9991 11.2252 15.4854 12.5091 14.6078L8.00018 13.9121L3.49121 14.6078Z" fill="#D80027"/>
<path d="M12.5101 1.39131C11.2262 0.513656 9.67375 0 8.00116 0C6.32856 0 4.77606 0.513656 3.49219 1.39131L8.00116 2.08697L12.5101 1.39131Z" fill="#D80027"/>
<path d="M16 8.00029C16 5.3531 14.4151 2.69466 12.509 1.3916H3.49103C1.38344 2.83235 0 5.25466 0 8.00029C0 10.746 1.38344 13.1682 3.49103 14.609H12.509C14.6166 13.1682 16 10.746 16 8.00029Z" fill="#0052B4"/>
<path d="M7.54686 13.0504C7.43755 12.9566 4.86914 10.7239 4.86914 8.00047C4.86914 5.27706 7.43752 3.04428 7.54686 2.95056L7.99958 2.5625L8.4523 2.95053C8.56161 3.04428 11.13 5.27703 11.13 8.00047C11.13 10.7239 8.56164 12.9567 8.4523 13.0504L7.99958 13.4384L7.54686 13.0504Z" fill="#D80027"/>
<path d="M10.435 8.00027C10.435 5.56548 8.00021 3.47852 8.00021 3.47852C8.00021 3.47852 5.56543 5.56555 5.56543 8.00027C5.56543 8.74511 5.79346 9.45727 6.10977 10.0872H9.89065C10.207 9.45727 10.435 8.74511 10.435 8.00027Z" fill="#338AF3"/>
<path d="M10.435 8C10.435 8.74484 10.207 9.457 9.89065 10.087L8.00021 10.4348L6.10977 10.087C5.79346 9.45703 5.56543 8.74484 5.56543 8H10.435Z" fill="#0052B4"/>
<path d="M7.99981 12.5217C7.99981 12.5217 9.17256 11.5162 9.89024 10.0869H6.10938C6.82706 11.5162 7.99981 12.5217 7.99981 12.5217Z" fill="#FFDA44"/>
<path d="M6.43457 6.6084H9.56501L7.99979 8.17362L6.43457 6.6084Z" fill="#6DA544"/>
<path d="M8.52198 7.65137H7.47852V10.7818H8.52198V7.65137Z" fill="#A2001D"/>
</g>
<defs>
<clipPath id="clip0_36251_6851">
<rect width="16" height="16" fill="white"/>
</clipPath>
</defs>
</svg>
