<svg width="16" height="16" viewBox="0 0 16 16" fill="none" xmlns="http://www.w3.org/2000/svg">
<g clip-path="url(#clip0_36251_6983)">
<path d="M16 8C16 12.4183 12.4183 16 8 16C3.58175 16 0 12.4183 0 8C0 8.00191 8 0.000875 8 0C12.4183 0 16 3.58175 16 8Z" fill="#D80027"/>
<path d="M8.00037 3.82617V6.52439L5.21777 3.82617H8.00037Z" fill="#0052B4"/>
<path d="M4.17398 7.99958H6.52433L4.17398 4.86914L3.82617 7.30392L4.17398 7.99958Z" fill="#0052B4"/>
<path d="M7.97852 8.00094H7.99996C7.99996 7.99374 7.99996 7.98672 7.99996 7.97949C7.99282 7.98666 7.98568 7.9938 7.97852 8.00094Z" fill="#F0F0F0"/>
<path d="M7.99902 4.17391C7.99902 2.76625 7.99902 1.84391 7.99902 0H7.99768C3.57999 0.00075 -0.000976562 3.58216 -0.000976562 8H4.17293V5.64966L6.52327 8H7.97765C7.98477 7.99287 7.9919 7.98575 7.99905 7.97859C7.99905 7.43963 7.99905 6.95872 7.99905 6.52431L5.64865 4.17391H7.99902Z" fill="#F0F0F0"/>
<path d="M4.04684 1.04395C2.79563 1.75641 1.75541 2.7966 1.04297 4.04782V8.3483H3.12994V3.13098V3.13092H8.34731C8.34731 2.4727 8.34731 1.84563 8.34731 1.04395H4.04684V1.04395Z" fill="#D80027"/>
<path d="M8.31698 7.33411L5.1566 4.17383H4.17285V4.17389L8.31688 8.31792H8.31695C8.31698 8.31795 8.31698 7.63961 8.31698 7.33411Z" fill="#D80027"/>
<path d="M9.04395 4.17383V7.99989C9.04395 9.86364 13.9135 9.86364 13.9135 7.99989V4.17383H9.04395Z" fill="#F3F3F3"/>
<path d="M9.04395 8.00003V8C9.04395 9.86375 11.4787 10.4348 11.4787 10.4348C11.4787 10.4348 13.9135 9.86375 13.9135 8V8.00003H9.04395Z" fill="#6DA544"/>
<path d="M11.4781 6.46973L10.3477 6.95669V8.00016L11.4781 8.69581L12.6085 8.00016V6.95669L11.4781 6.46973Z" fill="#A2001D"/>
<path d="M12.6085 5.91211H10.3477V6.95558H12.6085V5.91211Z" fill="#338AF3"/>
</g>
<defs>
<clipPath id="clip0_36251_6983">
<rect width="16" height="16" fill="white"/>
</clipPath>
</defs>
</svg>
