<svg width="16" height="16" viewBox="0 0 16 16" fill="none" xmlns="http://www.w3.org/2000/svg">
<g clip-path="url(#clip0_36251_6808)">
<path d="M8 16C12.4183 16 16 12.4183 16 8C16 3.58172 12.4183 0 8 0C3.58172 0 0 3.58172 0 8C0 12.4183 3.58172 16 8 16Z" fill="#F0F0F0"/>
<path d="M15.9309 6.95731C15.7102 5.27024 14.9524 3.64006 13.6563 2.34396C12.3602 1.04787 10.73 0.290023 9.04297 0.0693359L9.043 6.95731H15.9309Z" fill="#0052B4"/>
<path d="M6.95633 0.0703125C5.26927 0.291 3.63905 1.04881 2.34295 2.34491C1.04689 3.64103 0.289047 5.27125 0.0683594 6.95834L6.95636 6.95831L6.95633 0.0703125Z" fill="#0052B4"/>
<path d="M0.0683594 9.04492C0.289047 10.732 1.04689 12.3622 2.34295 13.6583C3.63905 14.9544 5.26923 15.7122 6.95636 15.9329L6.95633 9.04498L0.0683594 9.04492Z" fill="#0052B4"/>
<path d="M9.04297 15.9329C10.73 15.7122 12.3602 14.9544 13.6563 13.6583C14.9524 12.3622 15.7102 10.732 15.9309 9.04492H9.04297V15.9329Z" fill="#0052B4"/>
<path d="M10.731 5.07713C10.731 4.97075 10.8175 4.88428 10.9239 4.88428H11.3372C11.9904 4.88428 12.5219 4.35285 12.5219 3.69963C12.5219 3.04641 11.9904 2.51494 11.3372 2.51494H10.9447C10.8166 2.41872 10.6448 2.35938 10.4552 2.35938C10.0598 2.35938 9.73929 2.61578 9.73929 2.93209C9.73929 3.24534 10.0537 3.49947 10.4438 3.50441L10.4436 3.50669H11.3372C11.4436 3.50669 11.53 3.59319 11.53 3.69956C11.53 3.80594 11.4436 3.89241 11.3372 3.89241H10.9239C10.2707 3.89241 9.73926 4.42385 9.73926 5.07706C9.73926 5.73028 10.2706 6.26175 10.9239 6.26175H12.5219V5.26994H10.9239C10.8175 5.26997 10.731 5.1835 10.731 5.07713Z" fill="#F0F0F0"/>
<path d="M4.47027 5.07713C4.47027 4.97075 4.55673 4.88428 4.66314 4.88428H5.07639C5.72964 4.88428 6.26111 4.35285 6.26111 3.69963C6.26111 3.04641 5.72967 2.51494 5.07639 2.51494H4.68395C4.55586 2.41872 4.38402 2.35938 4.19445 2.35938C3.79905 2.35938 3.47852 2.61578 3.47852 2.93209C3.47852 3.24534 3.79292 3.49947 4.18305 3.50441L4.18286 3.50669H5.07642C5.18283 3.50669 5.2693 3.59319 5.2693 3.69956C5.2693 3.80594 5.18283 3.89241 5.07642 3.89241H4.66317C4.00992 3.89241 3.47852 4.42385 3.47852 5.07706C3.47852 5.73028 4.00989 6.26175 4.66317 6.26175H6.26108V5.26994H4.66314C4.55673 5.26997 4.47027 5.1835 4.47027 5.07713Z" fill="#F0F0F0"/>
<path d="M10.7311 12.458C10.7311 12.3516 10.8175 12.2651 10.9239 12.2651H11.3372C11.9905 12.2651 12.5219 11.7337 12.5219 11.0805C12.5219 10.4273 11.9905 9.8958 11.3372 9.8958H10.9448C10.8167 9.79958 10.6448 9.74023 10.4553 9.74023C10.0598 9.74023 9.73929 9.99667 9.73929 10.313C9.73929 10.6262 10.0537 10.8803 10.4438 10.8853L10.4436 10.8875H11.3372C11.4436 10.8875 11.53 10.974 11.53 11.0804C11.53 11.1868 11.4436 11.2733 11.3372 11.2733H10.9239C10.2707 11.2733 9.73926 11.8047 9.73926 12.4579C9.73926 13.1111 10.2706 13.6426 10.9239 13.6426H12.5219V12.6508H10.9239C10.8175 12.6509 10.7311 12.5643 10.7311 12.458Z" fill="#F0F0F0"/>
<path d="M4.4703 12.458C4.4703 12.3516 4.55676 12.2651 4.66317 12.2651H5.07642C5.72967 12.2651 6.26114 11.7337 6.26114 11.0805C6.26114 10.4273 5.7297 9.8958 5.07642 9.8958H4.68398C4.55589 9.79958 4.38405 9.74023 4.19448 9.74023C3.79905 9.74023 3.47852 9.99667 3.47852 10.313C3.47852 10.6262 3.79292 10.8803 4.18305 10.8853L4.18286 10.8875H5.07642C5.18283 10.8875 5.2693 10.974 5.2693 11.0804C5.2693 11.1868 5.18283 11.2733 5.07642 11.2733H4.66317C4.00992 11.2733 3.47852 11.8047 3.47852 12.4579C3.47852 13.1111 4.00989 13.6426 4.66317 13.6426H6.26111V12.6508H4.66317C4.55676 12.6509 4.4703 12.5643 4.4703 12.458Z" fill="#F0F0F0"/>
</g>
<defs>
<clipPath id="clip0_36251_6808">
<rect width="16" height="16" fill="white"/>
</clipPath>
</defs>
</svg>
