<svg width="16" height="16" viewBox="0 0 16 16" fill="none" xmlns="http://www.w3.org/2000/svg">
<g clip-path="url(#clip0_36251_6787)">
<path d="M7.99997 15.9999C12.4182 15.9999 15.9999 12.4182 15.9999 7.99997C15.9999 3.58171 12.4182 0 7.99997 0C3.58171 0 0 3.58171 0 7.99997C0 12.4182 3.58171 15.9999 7.99997 15.9999Z" fill="#F0F0F0"/>
<path d="M7.99995 0C5.3827 0 3.05914 1.25697 1.59961 3.2H14.4003C12.9408 1.25694 10.6172 0 7.99995 0Z" fill="#0052B4"/>
<path d="M7.99995 15.9998C10.6172 15.9998 12.9408 14.7428 14.4003 12.7998H1.59961C3.05911 14.7429 5.3827 15.9998 7.99995 15.9998Z" fill="#0052B4"/>
<path d="M0 7.99942C0 8.54739 0.05525 9.08245 0.160219 9.59942H15.8398C15.9448 9.08245 16 8.54739 16 7.99942C16 7.45145 15.9447 6.91638 15.8398 6.39941H0.160219C0.05525 6.91638 0 7.45145 0 7.99942Z" fill="#0052B4"/>
<path d="M2.34312 2.34277C-0.781039 5.46693 -0.781039 10.5323 2.34312 13.6565C3.63415 12.3655 4.87577 11.1238 7.99996 7.99965L2.34312 2.34277Z" fill="#D80027"/>
<path d="M3.23731 5.91309L3.75525 7.5073H5.43169L4.07553 8.49268L4.59347 10.0869L3.23731 9.10162L1.88109 10.0869L2.39916 8.49268L1.04297 7.5073H2.71928L3.23731 5.91309Z" fill="#F0F0F0"/>
</g>
<defs>
<clipPath id="clip0_36251_6787">
<rect width="16" height="16" fill="white"/>
</clipPath>
</defs>
</svg>
