<svg width="16" height="16" viewBox="0 0 16 16" fill="none" xmlns="http://www.w3.org/2000/svg">
<g clip-path="url(#clip0_36251_6937)">
<path d="M16 8C16 12.4183 12.4183 16 8.00003 16C3.58175 16 0 12.4183 0 8C0 8.00191 8.00003 0.000875 8.00003 0C12.4183 0 16 3.58175 16 8Z" fill="#338AF3"/>
<path d="M3.82617 8.00037H6.52436L4.17398 5.21777L3.82617 6.26124V8.00037Z" fill="#0052B4"/>
<path d="M8.0004 6.52439L5.21777 3.82617H8.00037L8.0004 6.52439Z" fill="#0052B4"/>
<path d="M7.97852 7.99898H7.99996C7.99996 7.99178 7.99996 7.98477 7.99996 7.97754C7.99282 7.98471 7.98568 7.99185 7.97852 7.99898Z" fill="#F0F0F0"/>
<path d="M8.00003 4.17391C8.00003 2.76625 8.00003 1.84388 8.00003 0H7.99869C3.581 0.00075 0 3.58216 0 8H4.17394V5.64966L6.52428 8H7.97866C7.98578 7.99287 7.99291 7.98575 8.00006 7.97859C8.00006 7.43963 8.00006 6.95872 8.00006 6.52431L5.64962 4.17391H8.00003Z" fill="#F0F0F0"/>
<path d="M4.04782 1.04297C2.7966 1.75544 1.75641 2.79563 1.04395 4.04684V7.9995H3.13091V3.13V3.12994H8.00048C8.00048 2.47172 8.00048 1.84466 8.00048 1.04297H4.04782V1.04297Z" fill="#D80027"/>
<path d="M8.0009 7.01611L5.15856 4.17383H4.1748V4.17389L8.00084 7.99989H8.0009C8.0009 7.99989 8.0009 7.32154 8.0009 7.01611Z" fill="#D80027"/>
<path d="M8.73143 13.2168L8.90412 13.7482H9.4629L9.01087 14.0767L9.18356 14.6081L8.73143 14.2797L8.27941 14.6081L8.45209 14.0767L8 13.7482H8.55875L8.73143 13.2168Z" fill="#FFDA44"/>
<path d="M13.1817 9.73926L13.3543 10.2707H13.9131L13.4611 10.5992L13.6338 11.1306L13.1817 10.8022L12.7296 11.1306L12.9023 10.5992L12.4502 10.2707H13.009L13.1817 9.73926Z" fill="#FFDA44"/>
<path d="M14.2969 4.52148L14.4696 5.05292H15.0283L14.5763 5.38136L14.749 5.91277L14.2969 5.58436L13.8448 5.91277L14.0175 5.38136L13.5654 5.05292H14.1242L14.2969 4.52148Z" fill="#FFDA44"/>
<path d="M14.5733 8.34766L14.7459 8.87912H15.3047L14.8527 9.20756L15.0254 9.73897L14.5733 9.41056L14.1212 9.73897L14.2939 9.20756L13.8418 8.87912H14.4006L14.5733 8.34766Z" fill="#FFDA44"/>
<path d="M9.53298 11.9675L10.0309 12.2213L10.426 11.8262L10.3387 12.378L10.8365 12.6317L10.2846 12.7191L10.1972 13.271L9.94354 12.7731L9.3916 12.8606L9.7867 12.4655L9.53298 11.9675Z" fill="#FFDA44"/>
<path d="M9.53298 9.88066L10.0309 10.1343L10.426 9.73926L10.3387 10.2911L10.8365 10.5448L10.2846 10.6322L10.1972 11.1841L9.94354 10.6863L9.3916 10.7737L9.7867 10.3786L9.53298 9.88066Z" fill="#FFDA44"/>
<path d="M11.2722 11.2175L11.7702 11.4713L12.1653 11.0762L12.0779 11.628L12.5758 11.8817L12.0238 11.9691L11.9364 12.5211L11.6828 12.0231L11.1309 12.1106L11.526 11.7155L11.2722 11.2175Z" fill="#FFDA44"/>
<path d="M11.2722 6.7498L11.7702 7.00349L12.1653 6.6084L12.0779 7.16027L12.5758 7.41393L12.0238 7.50136L11.9364 8.05327L11.6828 7.55539L11.1309 7.64283L11.526 7.24774L11.2722 6.7498Z" fill="#FFDA44"/>
<path d="M12.9578 6.69609L13.4557 6.94978L13.8508 6.55469L13.7634 7.10656L14.2613 7.36022L13.7094 7.44766L13.622 7.99956L13.3683 7.50169L12.8164 7.58912L13.2115 7.19403L12.9578 6.69609Z" fill="#FFDA44"/>
</g>
<defs>
<clipPath id="clip0_36251_6937">
<rect width="16" height="16" fill="white"/>
</clipPath>
</defs>
</svg>
