<svg width="16" height="16" viewBox="0 0 16 16" fill="none" xmlns="http://www.w3.org/2000/svg">
<g clip-path="url(#clip0_36251_6825)">
<path d="M8 16C12.4183 16 16 12.4183 16 8C16 3.58172 12.4183 0 8 0C3.58172 0 0 3.58172 0 8C0 12.4183 3.58172 16 8 16Z" fill="#F0F0F0"/>
<path d="M4.86991 5.21741H15.5027C14.3724 2.171 11.44 0 8.00034 0C5.79116 0 3.79137 0.895594 2.34375 2.34341L4.86991 5.21741Z" fill="black"/>
<path d="M4.86991 10.7832H15.5027C14.3724 13.8296 11.44 16.0006 8.00034 16.0006C5.79116 16.0006 3.79137 15.105 2.34375 13.6572L4.86991 10.7832Z" fill="#6DA544"/>
<path d="M2.34314 2.34277C-0.781047 5.46696 -0.781047 10.5323 2.34314 13.6565C3.63417 12.3655 4.87583 11.1238 8.00002 7.99965L2.34314 2.34277Z" fill="#D80027"/>
<path d="M3.17545 6.26074L3.61448 7.17883L4.60601 6.94968L4.16195 7.86533L4.95929 8.49764L3.96657 8.72136L3.96932 9.73899L3.17545 9.10233L2.38154 9.73899L2.38432 8.72136L1.3916 8.49764L2.18891 7.86533L1.74491 6.94968L2.73638 7.17883L3.17545 6.26074Z" fill="#F0F0F0"/>
</g>
<defs>
<clipPath id="clip0_36251_6825">
<rect width="16" height="16" fill="white"/>
</clipPath>
</defs>
</svg>
