<svg width="16" height="16" viewBox="0 0 16 16" fill="none" xmlns="http://www.w3.org/2000/svg">
<g clip-path="url(#clip0_36251_6989)">
<path d="M8 16C12.4183 16 16 12.4183 16 8C16 3.58172 12.4183 0 8 0C3.58172 0 0 3.58172 0 8C0 12.4183 3.58172 16 8 16Z" fill="#F0F0F0"/>
<path d="M8 0.000979526C7.99253 -0.00464547 -0.00212458 7.99889 4.23548e-07 8.00098C4.23548e-07 3.58273 3.58175 0.000979526 8 0.000979526Z" fill="#D80027"/>
<path d="M8 2.96362e-06C8.00747 -0.00562204 16.0021 7.99788 16 8C16 3.58175 12.4183 2.96362e-06 8 2.96362e-06Z" fill="#D80027"/>
<path d="M8 16C7.99253 16.0056 -0.00212458 8.00213 4.23548e-07 8C4.23548e-07 12.4183 3.58175 16 8 16Z" fill="#0052B4"/>
<path d="M8 16C8.00747 16.0056 16.0021 8.00213 16 8C16 12.4183 12.4183 16 8 16Z" fill="#0052B4"/>
<path d="M8.00002 4.17383L8.86339 6.83099H11.6573L9.39696 8.47318L10.2603 11.1304L8.00002 9.48815L5.73971 11.1304L6.60308 8.47318L4.34277 6.83099H7.13665L8.00002 4.17383Z" fill="#FFDA44"/>
</g>
<defs>
<clipPath id="clip0_36251_6989">
<rect width="16" height="16" fill="white"/>
</clipPath>
</defs>
</svg>
