<svg width="16" height="16" viewBox="0 0 16 16" fill="none" xmlns="http://www.w3.org/2000/svg">
<g clip-path="url(#clip0_36251_6834)">
<path d="M8 16C12.4183 16 16 12.4183 16 8C16 3.58172 12.4183 0 8 0C3.58172 0 0 3.58172 0 8C0 12.4183 3.58172 16 8 16Z" fill="#338AF3"/>
<path d="M12.522 8.08691H3.47852C3.47852 8.71126 4.0223 9.21735 4.64658 9.21735H4.60895C4.60895 9.8417 5.11505 10.3478 5.73939 10.3478C5.73939 10.9721 6.24548 11.4782 6.86983 11.4782H9.1307C9.75505 11.4782 10.2611 10.9721 10.2611 10.3478C10.8855 10.3478 11.3916 9.8417 11.3916 9.21735H11.354C11.9782 9.21735 12.522 8.71126 12.522 8.08691Z" fill="#FFDA44"/>
<path d="M11.131 6.60938C11.131 8.33825 9.72943 9.73981 8.00055 9.73981C6.27165 9.73981 4.87012 8.33825 4.87012 6.60938" fill="#338AF3"/>
<path d="M10.3906 6.60858L9.41356 7.06817L9.93384 8.01443L8.8729 7.81146L8.73846 8.88321L7.99949 8.09493L7.26049 8.88321L7.12609 7.81146L6.06515 8.01436L6.5854 7.06814L5.6084 6.60858L6.58543 6.14902L6.06515 5.2028L7.12605 5.40574L7.26052 4.33398L7.99949 5.12227L8.73849 4.33398L8.8729 5.40574L9.93387 5.2028L9.41359 6.14905L10.3906 6.60858Z" fill="#FFDA44"/>
</g>
<defs>
<clipPath id="clip0_36251_6834">
<rect width="16" height="16" fill="white"/>
</clipPath>
</defs>
</svg>
