<svg width="16" height="16" viewBox="0 0 16 16" fill="none" xmlns="http://www.w3.org/2000/svg">
<g clip-path="url(#clip0_36251_6977)">
<path d="M8 16C12.4183 16 16 12.4183 16 8C16 3.58172 12.4183 0 8 0C3.58172 0 0 3.58172 0 8C0 12.4183 3.58172 16 8 16Z" fill="#F0F0F0"/>
<path d="M7.99948 0C4.55976 0 1.62741 2.171 0.49707 5.21741H15.5019C14.3715 2.171 11.4392 0 7.99948 0Z" fill="#A2001D"/>
<path d="M8.00045 16.0006C11.4402 16.0006 14.3725 13.8296 15.5029 10.7832H0.498047C1.62839 13.8296 4.56073 16.0006 8.00045 16.0006Z" fill="black"/>
<path d="M6.0866 7.47928C6.08223 7.47928 6.07794 7.47956 6.07357 7.47963V7.47928H4.54429C4.62182 7.17972 4.89363 6.95753 5.21704 6.95753V5.91406C4.25807 5.91406 3.47791 6.69425 3.47791 7.65319V8.50538V8.52278H6.07357C6.07944 8.52278 6.08407 8.52278 6.0866 8.52278C6.18251 8.52278 6.26051 8.60081 6.26051 8.69669V9.0445H2.78223V10.088H7.30398V8.69666C7.30398 8.02541 6.75785 7.47928 6.0866 7.47928Z" fill="#496E2D"/>
<path d="M8.69581 9.04352V5.91309H7.65234V10.087H9.39147V9.04352H8.69581Z" fill="#496E2D"/>
<path d="M12.1731 9.04356V5.91309H11.1296V9.04356H10.7817V8.00009H9.73828V10.0871H12.8687V9.04356H12.1731Z" fill="#496E2D"/>
</g>
<defs>
<clipPath id="clip0_36251_6977">
<rect width="16" height="16" fill="white"/>
</clipPath>
</defs>
</svg>
