<svg width="16" height="16" viewBox="0 0 16 16" fill="none" xmlns="http://www.w3.org/2000/svg">
<g clip-path="url(#clip0_36251_6896)">
<path d="M8 16C12.4183 16 16 12.4183 16 8C16 3.58172 12.4183 0 8 0C3.58172 0 0 3.58172 0 8C0 12.4183 3.58172 16 8 16Z" fill="#F0F0F0"/>
<path d="M8.00015 -0.000976562C6.58574 -0.000976562 5.25737 0.366586 4.10449 1.01065V14.9874C5.2574 15.6315 6.58574 15.999 8.00015 15.999C12.4184 15.999 16.0002 12.4173 16.0002 7.99902C16.0002 3.58077 12.4184 -0.000976562 8.00015 -0.000976562Z" fill="#6DA544"/>
<path d="M4.12818 0.999023C3.6249 1.27793 3.15496 1.60943 2.72562 1.9863C2.76902 1.94824 2.81287 1.91062 2.85705 1.87349L8.98409 8.00056L2.85702 14.1276C2.8128 14.0905 2.76899 14.0529 2.72559 14.0148C3.15493 14.3917 3.6249 14.7232 4.12815 15.0021L16.0003 8.00056L4.12818 0.999023Z" fill="#F0F0F0"/>
<path d="M3.45257 1.41797C3.2086 1.58691 2.97429 1.76869 2.75101 1.96297L8.00038 7.99978L2.75098 14.0366C2.97426 14.2309 3.20857 14.4127 3.45254 14.5816L14.6309 7.99978L3.45257 1.41797Z" fill="#FFDA44"/>
<path d="M2.85637 1.87305C2.67852 2.02248 2.5069 2.17914 2.34277 2.34323L7.304 8.00011L2.34277 13.657C2.5069 13.8211 2.67849 13.9778 2.85637 14.1272L8.98343 8.00011L2.85637 1.87305Z" fill="black"/>
<path d="M2.34314 2.34277C-0.781047 5.46696 -0.781047 10.5323 2.34314 13.6565C3.63417 12.3655 4.87583 11.1238 8.00002 7.99965L2.34314 2.34277Z" fill="#D80027"/>
</g>
<defs>
<clipPath id="clip0_36251_6896">
<rect width="16" height="16" fill="white"/>
</clipPath>
</defs>
</svg>
