<svg width="16" height="16" viewBox="0 0 16 16" fill="none" xmlns="http://www.w3.org/2000/svg">
<g clip-path="url(#clip0_36251_6828)">
<path d="M11.4783 0.793813C10.4266 0.28525 9.24664 0 8.00008 0C6.75351 0 5.57358 0.28525 4.52183 0.793813L3.82617 8L4.52183 15.2062C5.57358 15.7147 6.75351 16 8.00008 16C9.24664 16 10.4266 15.7147 11.4783 15.2062L12.174 8L11.4783 0.793813Z" fill="#FFDA44"/>
<path d="M7.99997 5.21777L8.69059 7.3434H10.9258L9.11759 8.65724L9.80825 10.783L7.99997 9.46921L6.19169 10.783L6.88247 8.65724L5.07422 7.3434H7.30931L7.99997 5.21777Z" fill="#496E2D"/>
<path d="M4.52175 0.793945C1.84581 2.08791 0 4.8282 0 7.99985C0 11.1715 1.84581 13.9118 4.52175 15.2058V0.793945Z" fill="#496E2D"/>
<path d="M11.4785 0.793945V15.2058C14.1545 13.9118 16.0003 11.1715 16.0003 7.99985C16.0003 4.8282 14.1545 2.08791 11.4785 0.793945Z" fill="#D80027"/>
</g>
<defs>
<clipPath id="clip0_36251_6828">
<rect width="16" height="16" fill="white"/>
</clipPath>
</defs>
</svg>
