<svg width="16" height="16" viewBox="0 0 16 16" fill="none" xmlns="http://www.w3.org/2000/svg">
<g clip-path="url(#clip0_36251_6864)">
<path d="M8 16C12.4183 16 16 12.4183 16 8C16 3.58172 12.4183 0 8 0C3.58172 0 0 3.58172 0 8C0 12.4183 3.58172 16 8 16Z" fill="#F0F0F0"/>
<path d="M0 8.00003C0 3.58175 3.58175 0 8 0C12.4183 0 16 3.58175 16 8.00003" fill="#D80027"/>
<path d="M4.86967 4.17401C4.86967 3.00845 5.68883 2.03476 6.7827 1.79585C6.61458 1.75916 6.44017 1.73926 6.26095 1.73926C4.91623 1.73926 3.82617 2.82932 3.82617 4.17404C3.82617 5.51876 4.91623 6.60882 6.26095 6.60882C6.44011 6.60882 6.61455 6.58891 6.7827 6.5522C5.68883 6.31329 4.86967 5.3396 4.86967 4.17401Z" fill="#F0F0F0"/>
<path d="M7.99999 1.91309L8.17268 2.44449H8.73146L8.27937 2.77296L8.45206 3.30437L7.99999 2.97596L7.54793 3.30437L7.72062 2.77296L7.26855 2.44449H7.82731L7.99999 1.91309Z" fill="#F0F0F0"/>
<path d="M6.64458 2.95605L6.81724 3.48749H7.37602L6.92396 3.81593L7.09665 4.34734L6.64458 4.01893L6.19246 4.34734L6.36518 3.81593L5.91309 3.48749H6.47187L6.64458 2.95605Z" fill="#F0F0F0"/>
<path d="M9.35546 2.95605L9.52818 3.48749H10.0869L9.63484 3.81593L9.80756 4.34734L9.35546 4.01893L8.9034 4.34734L9.07609 3.81593L8.62402 3.48749H9.18278L9.35546 2.95605Z" fill="#F0F0F0"/>
<path d="M8.83398 4.52246L9.00666 5.0539H9.56541L9.11335 5.38234L9.28604 5.91374L8.83398 5.58534L8.38191 5.91374L8.5546 5.38234L8.10254 5.0539H8.66126L8.83398 4.52246Z" fill="#F0F0F0"/>
<path d="M7.16604 4.52246L7.33869 5.0539H7.89751L7.44541 5.38234L7.61813 5.91374L7.16604 5.58534L6.71394 5.91374L6.88663 5.38234L6.43457 5.0539H6.99335L7.16604 4.52246Z" fill="#F0F0F0"/>
</g>
<defs>
<clipPath id="clip0_36251_6864">
<rect width="16" height="16" fill="white"/>
</clipPath>
</defs>
</svg>
