<svg width="16" height="16" viewBox="0 0 16 16" fill="none" xmlns="http://www.w3.org/2000/svg">
<g clip-path="url(#clip0_36251_6923)">
<path d="M8 16C12.4183 16 16 12.4183 16 8C16 3.58172 12.4183 0 8 0C3.58172 0 0 3.58172 0 8C0 12.4183 3.58172 16 8 16Z" fill="#D80027"/>
<path d="M8.82647 6.0516C8.64466 6.80782 8.32163 6.6636 8.1631 7.3231C7.22925 7.09857 6.65413 6.1595 6.87866 5.2256C7.1031 4.29175 8.04225 3.71663 8.97613 3.94116C8.65904 5.26013 8.98913 5.37525 8.82647 6.0516Z" fill="#F0F0F0"/>
<path d="M6.40329 6.61182C7.06632 7.01838 6.82932 7.2811 7.4075 7.63569C6.90538 8.45447 5.8346 8.71119 5.01579 8.2091C4.19701 7.70701 3.94022 6.63616 4.44235 5.81738C5.59879 6.52651 5.81019 6.24816 6.40329 6.61182Z" fill="#F0F0F0"/>
<path d="M6.18761 9.08986C6.7792 8.58492 6.95573 8.89148 7.47164 8.45117C8.09523 9.1817 8.00848 10.2795 7.27798 10.903C6.54742 11.5266 5.44967 11.4398 4.82617 10.7093C5.85786 9.82861 5.65845 9.54145 6.18761 9.08986Z" fill="#F0F0F0"/>
<path d="M8.47732 10.061C8.17982 9.3423 8.52595 9.26905 8.2666 8.6424C9.15407 8.27512 10.1713 8.6968 10.5386 9.58427C10.9059 10.4717 10.4842 11.489 9.5967 11.8563C9.07804 10.6029 8.74338 10.7038 8.47732 10.061Z" fill="#F0F0F0"/>
<path d="M10.1082 8.18254C9.33276 8.24339 9.36998 7.89151 8.69389 7.94458C8.61879 6.98711 9.33423 6.14989 10.2918 6.07473C11.2493 5.99976 12.0864 6.71514 12.1615 7.6727C10.8091 7.77873 10.8016 8.1282 10.1082 8.18254Z" fill="#F0F0F0"/>
</g>
<defs>
<clipPath id="clip0_36251_6923">
<rect width="16" height="16" fill="white"/>
</clipPath>
</defs>
</svg>
