<svg width="16" height="16" viewBox="0 0 16 16" fill="none" xmlns="http://www.w3.org/2000/svg">
<g clip-path="url(#clip0_36251_6859)">
<path d="M8 16C12.4183 16 16 12.4183 16 8C16 3.58172 12.4183 0 8 0C3.58172 0 0 3.58172 0 8C0 12.4183 3.58172 16 8 16Z" fill="#F0F0F0"/>
<path d="M0.275391 10.0879C1.01408 12.8286 3.17211 14.9867 5.91286 15.7254V10.0879H0.275391Z" fill="#D80027"/>
<path d="M5.91283 0.275391C3.17211 1.01405 1.01405 3.17211 0.275391 5.91283H5.91286V0.275391H5.91283Z" fill="#0052B4"/>
<path d="M15.7244 5.91283C14.9857 3.17211 12.8276 1.01405 10.0869 0.275391V5.91286H15.7244V5.91283Z" fill="#D80027"/>
<path d="M10.0869 15.7244C12.8276 14.9857 14.9857 12.8277 15.7244 10.0869H10.0869V15.7244Z" fill="#0052B4"/>
<path d="M10.087 8.00005C10.087 9.15268 9.15268 10.087 8.00005 10.087C6.84746 10.087 5.91309 9.15268 5.91309 8.00005C5.91309 6.84743 8.00005 5.91309 8.00005 5.91309C8.00005 5.91309 10.087 6.84743 10.087 8.00005Z" fill="#496E2D"/>
<path d="M5.91309 8.00006C5.91309 6.84743 6.84746 5.91309 8.00005 5.91309C9.15268 5.91309 10.087 6.84743 10.087 8.00006" fill="#0052B4"/>
<path d="M6.82617 6.95605V8.2604C6.82617 8.90874 7.35174 9.4343 8.00008 9.4343C8.64842 9.4343 9.17399 8.90874 9.17399 8.2604V6.95605H6.82617Z" fill="#D80027"/>
</g>
<defs>
<clipPath id="clip0_36251_6859">
<rect width="16" height="16" fill="white"/>
</clipPath>
</defs>
</svg>
