<svg width="16" height="16" viewBox="0 0 16 16" fill="none" xmlns="http://www.w3.org/2000/svg">
<g clip-path="url(#clip0_36251_6800)">
<path d="M8 16C12.4183 16 16 12.4183 16 8C16 3.58172 12.4183 0 8 0C3.58172 0 0 3.58172 0 8C0 12.4183 3.58172 16 8 16Z" fill="#338AF3"/>
<path d="M7.74771 13.0375C7.53205 13.0271 7.35362 12.8869 7.28371 12.6966C7.16024 12.8577 6.94805 12.9387 6.73902 12.8848C6.52962 12.8309 6.38321 12.6577 6.35293 12.4566C6.19918 12.5895 5.97518 12.6256 5.78146 12.5307C5.58737 12.4354 5.47887 12.2361 5.48999 12.0333C5.31296 12.1328 5.08618 12.123 4.9154 11.9908C4.74496 11.8587 4.67852 11.642 4.72999 11.4454C4.53659 11.5073 4.31677 11.4524 4.1759 11.2886C4.03502 11.1251 4.01343 10.8993 4.10321 10.7174C3.90146 10.739 3.69696 10.6409 3.5919 10.4524C3.48649 10.2639 3.51087 10.0382 3.63571 9.87775C3.43362 9.85828 3.25274 9.72088 3.18805 9.51497C3.12302 9.30906 3.19259 9.09272 3.34737 8.96088C3.15327 8.901 3.0044 8.72988 2.98249 8.51531C2.96059 8.30072 3.0719 8.1035 3.24962 8.00541C3.07187 7.908 2.95987 7.71081 2.98109 7.49653C2.98109 7.49653 2.98109 7.49653 2.98143 7.49653C3.00265 7.28156 3.15152 7.11013 3.34524 7.04956C3.19046 6.9181 3.12021 6.70209 3.18455 6.49616C3.2489 6.28991 3.4294 6.15216 3.63152 6.13197C3.50665 5.97197 3.48162 5.74619 3.5863 5.55738C3.69099 5.36884 3.89552 5.27041 4.09762 5.29163C4.00718 5.10972 4.0284 4.88397 4.16893 4.71981C4.30912 4.556 4.52893 4.50069 4.72268 4.56191C4.67049 4.36572 4.73659 4.14869 4.90702 4.01619C5.07712 3.88363 5.3039 3.87353 5.48093 3.97231C5.46946 3.76956 5.57762 3.57022 5.77137 3.47456C5.96477 3.37925 6.18912 3.41475 6.34318 3.54759C6.37274 3.34659 6.51918 3.17269 6.72821 3.11838C6.9369 3.06413 7.14909 3.14447 7.2729 3.30516C7.3428 3.11491 7.5209 2.97438 7.73655 2.96359C7.95187 2.9525 8.14315 3.0735 8.23221 3.25547C8.33865 3.08294 8.54109 2.98069 8.7543 3.01303C8.96787 3.04503 9.13171 3.20222 9.18249 3.39878C9.32162 3.25056 9.54074 3.19181 9.74318 3.26622C9.94596 3.341 10.0746 3.52813 10.0844 3.73125C10.2503 3.61441 10.4771 3.60081 10.6604 3.71491C10.8437 3.82866 10.9317 4.03769 10.9004 4.23838C11.0865 4.15734 11.3112 4.18969 11.4677 4.33784C11.6242 4.48638 11.6687 4.70863 11.5978 4.89888C11.7964 4.85678 12.01 4.93331 12.1338 5.11034C12.2576 5.28703 12.2566 5.51381 12.1491 5.686C12.3519 5.68459 12.5456 5.80288 12.6316 6.00078C12.7171 6.19903 12.6701 6.42131 12.53 6.56844C12.7293 6.60809 12.8952 6.76288 12.939 6.97435C12.9825 7.18581 12.8917 7.39347 12.7251 7.50931C12.9116 7.58831 13.043 7.77297 13.0434 7.98863C13.0434 7.99103 13.0434 7.99316 13.0434 7.99559C13.0434 7.997 13.0434 7.99872 13.0434 8.00013C13.0434 8.21575 12.9126 8.40081 12.7261 8.48047C12.8931 8.59563 12.9846 8.80325 12.9411 9.01472C12.898 9.22619 12.7324 9.38135 12.5331 9.42169C12.6736 9.56847 12.7213 9.79038 12.6361 9.989C12.5509 10.1873 12.3571 10.3059 12.154 10.3048C12.2618 10.477 12.2636 10.7038 12.1401 10.8808C12.0166 11.0579 11.8034 11.1351 11.6048 11.0933C11.6761 11.2833 11.6319 11.5059 11.4757 11.6548C11.3192 11.8033 11.0949 11.836 10.9088 11.7556C10.9404 11.956 10.8528 12.1654 10.6698 12.2798C10.4868 12.3943 10.2601 12.381 10.0938 12.2645C10.0844 12.4676 9.9564 12.6551 9.75399 12.7303C9.75399 12.7303 9.75399 12.7303 9.75365 12.7303C9.55121 12.805 9.33209 12.7466 9.19262 12.5988C9.14252 12.7957 8.97905 12.9532 8.76549 12.9859C8.55227 13.0183 8.34949 12.9167 8.24271 12.7442C8.15784 12.9192 7.97837 13.0381 7.77384 13.0381C7.76512 13.0382 7.75643 13.0379 7.74771 13.0375Z" fill="#F3F3F3"/>
<path d="M7.99974 11.479C9.92072 11.479 11.478 9.92169 11.478 8.00071C11.478 6.07973 9.92072 4.52246 7.99974 4.52246C6.07875 4.52246 4.52148 6.07973 4.52148 8.00071C4.52148 9.92169 6.07875 11.479 7.99974 11.479Z" fill="#338AF3"/>
<path d="M8.76102 6.81971C8.9319 6.69296 9.04315 6.49037 9.04315 6.26124V5.91343C9.04315 5.52921 8.73171 5.21777 8.34749 5.21777H7.65187C7.26765 5.21777 6.95621 5.52921 6.95621 5.91343V6.26124C6.95621 6.49037 7.06746 6.69296 7.23834 6.81971L6.6084 13.2177C6.6084 13.2177 6.95621 13.5656 7.99971 13.5656C9.04321 13.5656 9.39102 13.2177 9.39102 13.2177L8.76102 6.81971Z" fill="#BDBCC1"/>
<path d="M8.00049 5.2168L8.6048 7.07673H10.5606L8.97839 8.22636L9.58268 10.0864L8.00049 8.93683L6.41824 10.0864L7.02265 8.22636L5.44043 7.07673H7.39615L8.00049 5.2168Z" fill="#F0F0F0"/>
</g>
<defs>
<clipPath id="clip0_36251_6800">
<rect width="16" height="16" fill="white"/>
</clipPath>
</defs>
</svg>
