<svg width="16" height="16" viewBox="0 0 16 16" fill="none" xmlns="http://www.w3.org/2000/svg">
<g clip-path="url(#clip0_36251_6890)">
<path d="M8 16C12.4183 16 16 12.4183 16 8C16 3.58172 12.4183 0 8 0C3.58172 0 0 3.58172 0 8C0 12.4183 3.58172 16 8 16Z" fill="#F0F0F0"/>
<path d="M8.00062 0V8L2.34375 13.6569C3.79147 15.1046 5.79147 16 8.00062 16C12.4189 16 16.0006 12.4183 16.0006 8C16.0006 3.58175 8.00062 0 8.00062 0Z" fill="#D80027"/>
<path d="M8.00062 0C5.79147 0 3.79147 0.895438 2.34375 2.34313C4.30656 4.30594 5.00334 5.00275 8.00062 8H16.0006C16.0006 3.58175 12.4189 0 8.00062 0Z" fill="#0052B4"/>
<path d="M5.47848 8.00018L4.50148 7.54062L5.02176 6.5944L3.96082 6.79737L3.82638 5.72559L3.08738 6.51384L2.34841 5.72559L2.21394 6.79737L1.15304 6.59437L1.67332 7.54062L0.696289 8.00018L1.67332 8.45975L1.15304 9.40596L2.21404 9.20303L2.34838 10.2748L3.08738 9.48653L3.82638 10.2748L3.96082 9.20303L5.02169 9.406L4.50144 8.45978L5.47848 8.00018Z" fill="#FFDA44"/>
<path d="M2.13453 3.13086L2.45966 3.58533L2.99231 3.41661L2.6605 3.86623L2.98563 4.3207L2.45544 4.14411L2.12366 4.5937L2.12781 4.03495L1.59766 3.85833L2.13041 3.68961L2.13453 3.13086Z" fill="#FFDA44"/>
<path d="M2.13453 11.4072L2.45966 11.8617L2.99231 11.6929L2.6605 12.1426L2.98563 12.5971L2.45544 12.4205L2.12366 12.8701L2.12781 12.3113L1.59766 12.1347L2.13041 11.966L2.13453 11.4072Z" fill="#FFDA44"/>
<path d="M6.77087 7.26953L6.44577 7.724L5.91309 7.55522L6.2449 8.00488L5.91977 8.45938L6.44996 8.28275L6.78177 8.73235L6.77759 8.17363L7.30774 7.997L6.77502 7.82828L6.77087 7.26953Z" fill="#FFDA44"/>
</g>
<defs>
<clipPath id="clip0_36251_6890">
<rect width="16" height="16" fill="white"/>
</clipPath>
</defs>
</svg>
