<svg width="16" height="16" viewBox="0 0 16 16" fill="none" xmlns="http://www.w3.org/2000/svg">
<g clip-path="url(#clip0_36251_6842)">
<path d="M8 16C12.4183 16 16 12.4183 16 8C16 3.58172 12.4183 0 8 0C3.58172 0 0 3.58172 0 8C0 12.4183 3.58172 16 8 16Z" fill="#FFDA44"/>
<path d="M3.49121 1.39131C4.77512 0.513625 6.32755 0 8.00018 0C9.6728 0 11.2252 0.513625 12.5091 1.39131L8.00018 1.73913L3.49121 1.39131Z" fill="#A2001D"/>
<path d="M8.00062 7.99982L7.49005 7.48926L7.35449 7.7321L8.00062 7.99982Z" fill="#0052B4"/>
<path d="M2.34314 2.34375C-0.781047 5.46794 -0.781047 10.5333 2.34314 13.6575C3.63417 12.3665 4.87583 11.1248 8.00002 8.00063L2.34314 2.34375Z" fill="#496E2D"/>
<path d="M13.6569 2.34473C16.7811 5.46891 16.7811 10.5343 13.6569 13.6585C12.3658 12.3674 11.1242 11.1258 8 8.0016L13.6569 2.34473Z" fill="#496E2D"/>
<path d="M8.00037 10.782C9.53715 10.782 10.783 9.53618 10.783 7.99939C10.783 6.46261 9.53715 5.2168 8.00037 5.2168C6.46358 5.2168 5.21777 6.46261 5.21777 7.99939C5.21777 9.53618 6.46358 10.782 8.00037 10.782Z" fill="#A2001D"/>
<path d="M7.99977 5.21777L8.62348 7.13743H10.6422L9.00911 8.32409L9.63283 10.2438L7.99977 9.0574L6.36664 10.2438L6.99048 8.32409L5.35742 7.13743H7.37598L7.99977 5.21777Z" fill="#FFDA44"/>
<path d="M8.00288 0H7.99753C5.78963 0.00071875 3.79084 0.895813 2.34375 2.34275H13.6567C12.2095 0.895813 10.2108 0.00071875 8.00288 0Z" fill="#A2001D"/>
<path d="M2.34375 13.6572C3.79144 15.1047 5.79125 15.9999 8.00016 15.9999C10.2091 15.9999 12.2089 15.1047 13.6566 13.6572H2.34375Z" fill="#A2001D"/>
<path d="M8.00074 0.869141L8.13027 1.2677H8.54934L8.2103 1.51405L8.33984 1.91261L8.00074 1.6663L7.66171 1.91261L7.79124 1.51405L7.45215 1.2677H7.87121L8.00074 0.869141Z" fill="#FFDA44"/>
<path d="M6.06031 0.869141L6.18984 1.2677H6.60891L6.26988 1.51405L6.39941 1.91261L6.06031 1.6663L5.72131 1.91261L5.85081 1.51405L5.51172 1.2677H5.93078L6.06031 0.869141Z" fill="#FFDA44"/>
<path d="M9.9402 0.869141L10.0697 1.2677H10.4888L10.1498 1.51405L10.2793 1.91261L9.9402 1.6663L9.60116 1.91261L9.7307 1.51405L9.3916 1.2677H9.81066L9.9402 0.869141Z" fill="#FFDA44"/>
<path d="M8.00074 14.0859L8.13027 14.4845H8.54934L8.2103 14.7308L8.33984 15.1294L8.00074 14.8831L7.66171 15.1294L7.79124 14.7308L7.45215 14.4845H7.87121L8.00074 14.0859Z" fill="#FFDA44"/>
<path d="M6.06031 14.0859L6.18984 14.4845H6.60891L6.26988 14.7308L6.39941 15.1294L6.06031 14.8831L5.72131 15.1294L5.85081 14.7308L5.51172 14.4845H5.93078L6.06031 14.0859Z" fill="#FFDA44"/>
<path d="M9.9402 14.0859L10.0697 14.4845H10.4888L10.1498 14.7308L10.2793 15.1294L9.9402 14.8831L9.60116 15.1294L9.7307 14.7308L9.3916 14.4845H9.81066L9.9402 14.0859Z" fill="#FFDA44"/>
<path d="M2.43808 7.86795C2.64355 8.19261 2.54699 8.62233 2.22233 8.82783C1.89771 9.03333 1.46796 8.93677 1.26246 8.61211C0.890426 8.02436 1.10614 7.06445 1.10614 7.06445C1.10614 7.06445 2.06602 7.28017 2.43808 7.86795Z" fill="#FFDA44"/>
<path d="M2.03531 8.88117C2.22741 8.88117 2.38313 8.72545 2.38313 8.53336C2.38313 8.34127 2.22741 8.18555 2.03531 8.18555C1.84322 8.18555 1.6875 8.34127 1.6875 8.53336C1.6875 8.72545 1.84322 8.88117 2.03531 8.88117Z" fill="#A2001D"/>
</g>
<defs>
<clipPath id="clip0_36251_6842">
<rect width="16" height="16" fill="white"/>
</clipPath>
</defs>
</svg>
