<svg width="16" height="16" viewBox="0 0 16 16" fill="none" xmlns="http://www.w3.org/2000/svg">
<g clip-path="url(#clip0_36251_6891)">
<path d="M8 16C12.4183 16 16 12.4183 16 8C16 3.58172 12.4183 0 8 0C3.58172 0 0 3.58172 0 8C0 12.4183 3.58172 16 8 16Z" fill="#F0F0F0"/>
<path d="M8 15.9994C12.4183 15.9994 16 12.4176 16 7.99939C16 7.02083 15.824 6.08342 15.5024 5.2168H0.497594C0.176031 6.08342 0 7.02083 0 7.99939C0 12.4176 3.58175 15.9994 8 15.9994Z" fill="#0052B4"/>
<path d="M8.00045 15.9996C11.4402 15.9996 14.3725 13.8286 15.5029 10.7822H0.498047C1.62839 13.8286 4.56073 15.9996 8.00045 15.9996Z" fill="#D80027"/>
<path d="M2.06836 4.52148V8.5123C2.06836 10.7824 5.03402 11.478 5.03402 11.478C5.03402 11.478 7.99964 10.7824 7.99964 8.5123V4.52148H2.06836Z" fill="#F0F0F0"/>
<path d="M2.76465 4.52148V8.5123C2.76465 8.7788 2.82384 9.03049 2.94109 9.26645C4.10465 9.26645 5.84377 9.26645 7.12818 9.26645C7.24543 9.03052 7.30462 8.7788 7.30462 8.5123V4.52148H2.76465Z" fill="#D80027"/>
<path d="M6.42615 7.30373H5.38271V6.60808H6.07837V5.91242H5.38271V5.2168H4.68706V5.91242H3.99143V6.60808H4.68706V7.30373H3.64355V7.99939H4.68706V8.69505H5.38271V7.99939H6.42615V7.30373Z" fill="#F0F0F0"/>
<path d="M3.88927 10.2376C4.33755 10.5193 4.79812 10.6829 5.0339 10.7557C5.26968 10.6829 5.73024 10.5193 6.17852 10.2376C6.63059 9.9535 6.94749 9.62857 7.12743 9.26653C6.92896 9.12613 6.68681 9.04331 6.42521 9.04331C6.32996 9.04331 6.23743 9.05459 6.14846 9.07531C5.95993 8.64694 5.53196 8.34766 5.03393 8.34766C4.5359 8.34766 4.1079 8.64694 3.9194 9.07531C3.83043 9.05459 3.73787 9.04331 3.64265 9.04331C3.38105 9.04331 3.1389 9.12613 2.94043 9.26653C3.12027 9.62853 3.43718 9.95347 3.88927 10.2376Z" fill="#0052B4"/>
</g>
<defs>
<clipPath id="clip0_36251_6891">
<rect width="16" height="16" fill="white"/>
</clipPath>
</defs>
</svg>
