<svg width="16" height="16" viewBox="0 0 16 16" fill="none" xmlns="http://www.w3.org/2000/svg">
<g clip-path="url(#clip0_36251_6934)">
<path d="M8 16C12.4183 16 16 12.4183 16 8C16 3.58172 12.4183 0 8 0C3.58172 0 0 3.58172 0 8C0 12.4183 3.58172 16 8 16Z" fill="#0052B4"/>
<path d="M8 16C12.4183 16 16 12.4183 16 8C16 3.58172 12.4183 0 8 0C3.58172 0 0 3.58172 0 8C0 12.4183 3.58172 16 8 16Z" fill="#FFDA44"/>
<path d="M8.00078 0C3.81691 0 0.383844 3.21191 0.03125 7.30434H15.9703C15.6177 3.21191 12.1847 0 8.00078 0Z" fill="#0052B4"/>
<path d="M7.99981 16.0006C12.1837 16.0006 15.6167 12.7887 15.9694 8.69629H0.0302734C0.382867 12.7887 3.81593 16.0006 7.99981 16.0006Z" fill="#0052B4"/>
<path d="M6.60842 10.7832L5.71198 11.2049L6.18933 12.0731L5.21592 11.8869L5.09258 12.8702L4.41455 12.147L3.73655 12.8702L3.6132 11.8869L2.63977 12.073L3.11714 11.2049L2.2207 10.7832L3.11717 10.3616L2.63977 9.49345L3.61317 9.67963L3.73658 8.69629L4.41455 9.41951L5.09261 8.69629L5.21592 9.67963L6.18936 9.49345L5.71202 10.3616L6.60842 10.7832Z" fill="#F0F0F0"/>
</g>
<defs>
<clipPath id="clip0_36251_6934">
<rect width="16" height="16" fill="white"/>
</clipPath>
</defs>
</svg>
