<svg width="16" height="16" viewBox="0 0 16 16" fill="none" xmlns="http://www.w3.org/2000/svg">
<g clip-path="url(#clip0_36251_6950)">
<path d="M8 16C12.4183 16 16 12.4183 16 8C16 3.58172 12.4183 0 8 0C3.58172 0 0 3.58172 0 8C0 12.4183 3.58172 16 8 16Z" fill="#F0F0F0"/>
<path d="M8.00013 -0.000976562C4.82844 -0.000976562 2.08795 1.8448 0.793945 4.52077H15.2063C13.9123 1.8448 11.1718 -0.000976562 8.00013 -0.000976562Z" fill="#FF9811"/>
<path d="M8.00013 15.9993C11.1718 15.9993 13.9123 14.1535 15.2063 11.4775H0.793945C2.08795 14.1535 4.82844 15.9993 8.00013 15.9993Z" fill="#6DA544"/>
<path d="M8.00037 10.782C9.53715 10.782 10.783 9.53618 10.783 7.99939C10.783 6.46261 9.53715 5.2168 8.00037 5.2168C6.46358 5.2168 5.21777 6.46261 5.21777 7.99939C5.21777 9.53618 6.46358 10.782 8.00037 10.782Z" fill="#0052B4"/>
<path d="M7.99986 9.73899C8.96036 9.73899 9.73899 8.96036 9.73899 7.99986C9.73899 7.03937 8.96036 6.26074 7.99986 6.26074C7.03937 6.26074 6.26074 7.03937 6.26074 7.99986C6.26074 8.96036 7.03937 9.73899 7.99986 9.73899Z" fill="#F0F0F0"/>
<path d="M8.00014 5.85352L8.53667 7.07033L9.85867 6.92655L9.07317 7.99958L9.85867 9.07261L8.53667 8.92883L8.00014 10.1456L7.4636 8.92883L6.1416 9.07258L6.9271 7.99958L6.1416 6.92655L7.4636 7.07033L8.00014 5.85352Z" fill="#0052B4"/>
</g>
<defs>
<clipPath id="clip0_36251_6950">
<rect width="16" height="16" fill="white"/>
</clipPath>
</defs>
</svg>
