<svg width="16" height="16" viewBox="0 0 16 16" fill="none" xmlns="http://www.w3.org/2000/svg">
<g clip-path="url(#clip0_36251_6930)">
<path d="M8 16C12.4183 16 16 12.4183 16 8C16 3.58172 12.4183 0 8 0C3.58172 0 0 3.58172 0 8C0 12.4183 3.58172 16 8 16Z" fill="#F0F0F0"/>
<path d="M16 7.9998C16 12.4181 12.4183 15.9998 8 15.9998C3.58175 15.9998 0 12.4181 0 7.9998C0 3.58155 8 7.9998 8 7.9998C8 7.9998 14.055 7.9998 16 7.9998Z" fill="#D80027"/>
<path d="M0 8C0 3.58175 3.58175 0 8 0C8 3.04234 8 8 8 8C8 8 2.78259 8 0 8Z" fill="#0052B4"/>
<path d="M4.76176 2.78223L5.27979 4.37654H6.95613L5.59994 5.36185L6.11795 6.95616L4.76176 5.97082L3.40557 6.95616L3.92357 5.36185L2.56738 4.37654H4.24373L4.76176 2.78223Z" fill="#F0F0F0"/>
</g>
<defs>
<clipPath id="clip0_36251_6930">
<rect width="16" height="16" fill="white"/>
</clipPath>
</defs>
</svg>
