<svg width="16" height="16" viewBox="0 0 16 16" fill="none" xmlns="http://www.w3.org/2000/svg">
<g clip-path="url(#clip0_36251_6866)">
<path d="M16 7.99958C16 7.02101 15.824 6.08361 15.5024 5.21698L8 4.86914L0.497594 5.21695C0.176031 6.08361 0 7.02101 0 7.99958C0 8.97814 0.176031 9.91554 0.497594 10.7822L8 11.13L15.5024 10.7822C15.824 9.91554 16 8.97814 16 7.99958Z" fill="#0052B4"/>
<path d="M8.00045 15.9996C11.4402 15.9996 14.3725 13.8286 15.5029 10.7822H0.498047C1.62839 13.8286 4.56073 15.9996 8.00045 15.9996Z" fill="#FF9811"/>
<path d="M0.49707 5.21741H15.5019C14.3715 2.171 11.4392 0 7.99948 0C4.55976 0 1.62741 2.171 0.49707 5.21741Z" fill="#D80027"/>
</g>
<defs>
<clipPath id="clip0_36251_6866">
<rect width="16" height="16" fill="white"/>
</clipPath>
</defs>
</svg>
