<svg width="16" height="16" viewBox="0 0 16 16" fill="none" xmlns="http://www.w3.org/2000/svg">
<g clip-path="url(#clip0_36251_6998)">
<path d="M7.99998 16C12.4183 16 16 12.4183 16 7.99998C16 3.58172 12.4183 0 7.99998 0C3.58172 0 0 3.58172 0 7.99998C0 12.4183 3.58172 16 7.99998 16Z" fill="#FFDA44"/>
<path d="M2.3436 13.6573C2.67919 13.9929 3.03728 14.2922 3.41288 14.5557L14.5557 3.41294C14.2922 3.03732 13.9929 2.67925 13.6573 2.34366C13.3217 2.00806 12.9636 1.70884 12.588 1.44531L1.44531 12.5881C1.70875 12.9637 2.008 13.3217 2.3436 13.6573Z" fill="black"/>
<path d="M2.34284 2.34374C-0.181006 4.86759 -0.665539 8.658 0.88834 11.6687L11.6677 0.889297C8.65707 -0.664549 4.8666 -0.180017 2.34284 2.34374Z" fill="#6DA544"/>
<path d="M13.657 13.657C16.1808 11.1332 16.6653 7.34276 15.1115 4.33203L4.33203 15.1115C7.34272 16.6653 11.1331 16.1808 13.657 13.657Z" fill="#D80027"/>
<path d="M5.08615 9.43869L5.83296 9.81922L6.42565 9.22656L6.29453 10.0543L7.04131 10.4349L6.21346 10.566L6.08234 11.3938L5.70184 10.647L4.87402 10.7782L5.46668 10.1855L5.08615 9.43869Z" fill="#F0F0F0"/>
<path d="M9.43673 5.08713L10.1835 5.46766L10.7762 4.875L10.6451 5.70278L11.3919 6.08334L10.5641 6.21447L10.433 7.04228L10.0524 6.2955L9.22461 6.4266L9.81727 5.83394L9.43673 5.08713Z" fill="#F0F0F0"/>
</g>
<defs>
<clipPath id="clip0_36251_6998">
<rect width="16" height="16" fill="white"/>
</clipPath>
</defs>
</svg>
