<svg width="16" height="16" viewBox="0 0 16 16" fill="none" xmlns="http://www.w3.org/2000/svg">
<g clip-path="url(#clip0_36251_6888)">
<path d="M8 16C12.4183 16 16 12.4183 16 8C16 3.58172 12.4183 0 8 0C3.58172 0 0 3.58172 0 8C0 12.4183 3.58172 16 8 16Z" fill="#F0F0F0"/>
<path d="M7.9998 0C4.30358 0 1.19339 2.50691 0.275391 5.91303H15.7242C14.8062 2.50691 11.696 0 7.9998 0Z" fill="#A2001D"/>
<path d="M7.9998 16C11.696 16 14.8062 13.493 15.7242 10.0869H0.275391C1.19339 13.493 4.30358 16 7.9998 16Z" fill="#A2001D"/>
</g>
<defs>
<clipPath id="clip0_36251_6888">
<rect width="16" height="16" fill="white"/>
</clipPath>
</defs>
</svg>
