<svg width="16" height="16" viewBox="0 0 16 16" fill="none" xmlns="http://www.w3.org/2000/svg">
<g clip-path="url(#clip0_36251_6865)">
<path d="M8 16C12.4183 16 16 12.4183 16 8C16 3.58172 12.4183 0 8 0C3.58172 0 0 3.58172 0 8C0 12.4183 3.58172 16 8 16Z" fill="#FFDA44"/>
<path d="M8.00016 0C7.99434 6.25e-05 7.65234 3.2 7.65234 3.2H14.4005C12.941 1.25697 10.6174 0 8.00016 0Z" fill="#496E2D"/>
<path d="M7.99995 15.9998C10.6172 15.9998 12.9408 14.7428 14.4003 12.7998H1.59961C3.05911 14.7428 5.3827 15.9998 7.99995 15.9998Z" fill="#496E2D"/>
<path d="M15.84 6.40039H7.65234L8.00016 9.60038H15.84C15.945 9.08342 16.0002 8.54835 16.0002 8.00039C16.0002 7.45242 15.9449 6.91736 15.84 6.40039Z" fill="#496E2D"/>
<path d="M8 9.6C8 7.93044 8 1.87825 8 0C3.58175 0 0 3.58175 0 8C0 8.54797 0.05525 9.08303 0.160187 9.6H8Z" fill="#D80027"/>
<path d="M4.41404 3.8252L4.93204 5.41941H6.60845L5.25229 6.40482L5.77023 7.9991L4.41404 7.01379L3.05785 7.9991L3.57588 6.40482L2.21973 5.41941H3.89607L4.41404 3.8252Z" fill="#F0F0F0"/>
</g>
<defs>
<clipPath id="clip0_36251_6865">
<rect width="16" height="16" fill="white"/>
</clipPath>
</defs>
</svg>
