<svg width="16" height="16" viewBox="0 0 16 16" fill="none" xmlns="http://www.w3.org/2000/svg">
<g clip-path="url(#clip0_36251_6931)">
<path d="M0 7.99973C0 8.97836 0.176031 9.91573 0.497625 10.7824L8 11.478L15.5024 10.7824C15.824 9.91573 16 8.97833 16 7.99973C16 7.03458 15.829 6.10936 15.5158 5.2527L8 4.52148L0.484188 5.25273C0.170969 6.10936 0 7.03458 0 7.99973Z" fill="#FFDA44"/>
<path d="M7.99948 16.0006C11.4392 16.0006 14.3715 13.8296 15.5019 10.7832H0.49707C1.62741 13.8296 4.55976 16.0006 7.99948 16.0006Z" fill="#D80027"/>
<path d="M8.00045 0C4.56073 0 1.62839 2.171 0.498047 5.21741H15.5029C14.3725 2.171 11.4402 0 8.00045 0Z" fill="#6DA544"/>
<path d="M7.99992 11.827C10.113 11.827 11.826 10.114 11.826 8.0009C11.826 5.8878 10.113 4.1748 7.99992 4.1748C5.88683 4.1748 4.17383 5.8878 4.17383 8.0009C4.17383 10.114 5.88683 11.827 7.99992 11.827Z" fill="#0052B4"/>
<path d="M7.99901 5.03809L8.6897 7.16377H10.9284L9.11654 8.47755L9.81266 10.6096L7.99901 9.28952L6.18813 10.6071L6.88145 8.47755L5.07129 7.16377H7.30832L7.99901 5.03809Z" fill="#FFDA44"/>
<path d="M10.7538 8.52961L8.56272 7.81761L9.91688 5.95386L9.35413 5.54492L7.99991 7.4088L6.64581 5.54495L6.083 5.95383L7.43712 7.81773L5.24609 8.52958L5.46103 9.19123L7.65216 8.47933V10.7831H8.34778V8.4793L10.5388 9.19123L10.7538 8.52961Z" fill="#FFDA44"/>
</g>
<defs>
<clipPath id="clip0_36251_6931">
<rect width="16" height="16" fill="white"/>
</clipPath>
</defs>
</svg>
