<svg width="16" height="16" viewBox="0 0 16 16" fill="none" xmlns="http://www.w3.org/2000/svg">
<g clip-path="url(#clip0_36251_6995)">
<path d="M8 16C12.4183 16 16 12.4183 16 8C16 3.58172 12.4183 0 8 0C3.58172 0 0 3.58172 0 8C0 12.4183 3.58172 16 8 16Z" fill="#D80027"/>
<path d="M10.9621 5.36294L10.3967 7.38078L8.70013 7.0675L7.60807 4.81641L4.65785 5.86331L4.4252 5.20769L3.65332 5.11259L4.23491 6.75162L6.2652 6.23241L6.84216 7.85831L5.43866 9.92962L7.82045 11.9611L7.36901 12.4903L7.67257 13.2064L8.80126 11.8832L7.33645 10.3845L8.45604 9.0719L10.9516 9.25172L11.52 6.17328L12.2041 6.29962L12.6725 5.67869L10.9621 5.36294Z" fill="#F0F0F0"/>
</g>
<defs>
<clipPath id="clip0_36251_6995">
<rect width="16" height="16" fill="white"/>
</clipPath>
</defs>
</svg>
