<svg width="16" height="16" viewBox="0 0 16 16" fill="none" xmlns="http://www.w3.org/2000/svg">
<g clip-path="url(#clip0_36251_6801)">
<path d="M16 7.99952C16 12.4178 12.4183 15.9995 8 15.9995C3.58175 15.9995 0 12.4178 0 7.99952C0.347813 7.99952 8 6.95605 8 6.95605L16 7.99952Z" fill="#338AF3"/>
<path d="M0 8C0 3.58175 3.58175 0 8 0C12.4183 0 16 3.58175 16 8" fill="#F0F0F0"/>
<path d="M11.1754 5.52051L7.99989 8.69604L4.82439 5.52051C4.41373 6.1301 4.17383 6.86382 4.17383 7.65254V8.69601C4.17383 10.3715 5.25648 11.7988 6.75889 12.3154C6.55836 12.7084 6.59217 13.1989 6.88601 13.5656C7.27626 13.2528 7.68029 12.929 8.02304 12.6544C8.36579 12.929 8.76986 13.2528 9.16008 13.5656C9.45736 13.1946 9.48873 12.6968 9.28029 12.3014C10.7622 11.7736 11.8259 10.3568 11.8259 8.69601V7.65257C11.826 6.86382 11.586 6.13013 11.1754 5.52051Z" fill="#6DA544"/>
<path d="M7.99939 11.4778C6.46505 11.4778 5.2168 10.2295 5.2168 8.6952V7.65173C5.2168 6.11739 6.46508 4.86914 7.99939 4.86914C9.5337 4.86914 10.782 6.11742 10.782 7.65173V8.6952C10.782 10.2295 9.53373 11.4778 7.99939 11.4778Z" fill="#FFDA44"/>
<path d="M9.73899 8.69567V7.65221C9.73899 6.69324 8.9588 5.91309 7.99986 5.91309C7.04093 5.91309 6.26074 6.69327 6.26074 7.65221V8.69567L7.99986 9.04349L9.73899 8.69567Z" fill="#338AF3"/>
<path d="M6.26074 8.69531C6.26074 9.65428 7.04093 10.4344 7.99986 10.4344C8.9588 10.4344 9.73899 9.65425 9.73899 8.69531H6.26074Z" fill="#6DA544"/>
<path d="M10.087 4.86935C10.087 4.29307 9.61981 3.82588 9.04353 3.82588C8.77618 3.82588 8.53253 3.92651 8.34787 4.09179V3.47804H8.69568V2.78238H8.34787V2.43457H7.65221V2.78238H7.3044V3.47804H7.65221V4.09179C7.46756 3.92651 7.22387 3.82588 6.95656 3.82588C6.38027 3.82588 5.91309 4.29307 5.91309 4.86935C5.91309 5.17832 6.04749 5.45582 6.2609 5.64692V6.26067H9.73915V5.64692C9.95259 5.45582 10.087 5.17832 10.087 4.86935Z" fill="#FFDA44"/>
</g>
<defs>
<clipPath id="clip0_36251_6801">
<rect width="16" height="16" fill="white"/>
</clipPath>
</defs>
</svg>
