<svg width="16" height="16" viewBox="0 0 16 16" fill="none" xmlns="http://www.w3.org/2000/svg">
<g clip-path="url(#clip0_36251_6841)">
<path d="M7.30399 8.69566C7.30399 8.69566 2.34746 2.34203 2.34277 2.34316C3.79046 0.895438 5.79049 0 7.99965 0C12.4179 0 15.9996 3.58175 15.9996 8L7.30399 8.69566Z" fill="#338AF3"/>
<path d="M7.30399 8C7.30399 8 2.34746 13.658 2.34277 13.6568C3.79046 15.1046 5.79049 16 7.99965 16C12.4179 16 15.9996 12.4183 15.9996 8H7.30399Z" fill="#6DA544"/>
<path d="M2.34314 2.34277C-0.781047 5.46696 -0.781047 10.5323 2.34314 13.6565C3.63417 12.3655 4.87583 11.1238 8.00001 7.99965L2.34314 2.34277Z" fill="#F0F0F0"/>
<path d="M3.23731 5.91309L3.75528 7.50734H5.43172L4.07553 8.49271L4.59347 10.087L3.23731 9.10168L1.88109 10.087L2.39916 8.49271L1.04297 7.50734H2.71928L3.23731 5.91309Z" fill="#D80027"/>
</g>
<defs>
<clipPath id="clip0_36251_6841">
<rect width="16" height="16" fill="white"/>
</clipPath>
</defs>
</svg>
