<svg width="16" height="16" viewBox="0 0 16 16" fill="none" xmlns="http://www.w3.org/2000/svg">
<g clip-path="url(#clip0_36251_6870)">
<path d="M8 16C12.4183 16 16 12.4183 16 8C16 3.58172 12.4183 0 8 0C3.58172 0 0 3.58172 0 8C0 12.4183 3.58172 16 8 16Z" fill="#D80027"/>
<path d="M11.9117 8.00007L10.3131 8.752L11.1644 10.3003L9.42838 9.96819L9.20851 11.7218L7.99929 10.4321L6.79016 11.7218L6.5702 9.96819L4.83432 10.3003L5.68557 8.75194L4.08691 8.00007L5.68557 7.24816L4.83432 5.69979L6.57013 6.03197L6.79023 4.27832L7.99929 5.56804L9.20857 4.27832L9.42838 6.03197L11.1645 5.69979L10.3132 7.24826L11.9117 8.00007Z" fill="#FFDA44"/>
<path d="M8.00021 10.434C9.3449 10.434 10.435 9.34393 10.435 7.99923C10.435 6.65454 9.3449 5.56445 8.00021 5.56445C6.65552 5.56445 5.56543 6.65454 5.56543 7.99923C5.56543 9.34393 6.65552 10.434 8.00021 10.434Z" fill="#D80027"/>
<path d="M6.78309 8.00098C6.72444 8.00098 6.66653 8.00398 6.60938 8.00966C6.61147 8.34688 6.73347 8.65554 6.93497 8.89532C7.04247 8.60604 7.20297 8.34226 7.40538 8.11651C7.21206 8.04216 7.00234 8.00098 6.78309 8.00098Z" fill="#FFDA44"/>
<path d="M7.53223 9.31169C7.67848 9.36394 7.83595 9.3926 8.0002 9.3926C8.16445 9.3926 8.32192 9.36394 8.46817 9.31169C8.38845 8.99881 8.22385 8.7195 8.0002 8.5C7.77654 8.71947 7.61195 8.99881 7.53223 9.31169Z" fill="#FFDA44"/>
<path d="M9.20559 7.30525C8.96502 6.88944 8.51574 6.60938 8.00074 6.60938C7.48574 6.60938 7.03646 6.88941 6.7959 7.30525C7.23446 7.30747 7.64571 7.42672 8.00074 7.63262C8.35577 7.42672 8.76696 7.30747 9.20559 7.30525Z" fill="#FFDA44"/>
<path d="M8.5957 8.11651C8.79811 8.34223 8.95861 8.60601 9.06611 8.89532C9.26761 8.65554 9.38962 8.34688 9.39171 8.00966C9.33452 8.00394 9.27661 8.00098 9.21799 8.00098C8.9988 8.00095 8.78908 8.04213 8.5957 8.11651Z" fill="#FFDA44"/>
</g>
<defs>
<clipPath id="clip0_36251_6870">
<rect width="16" height="16" fill="white"/>
</clipPath>
</defs>
</svg>
