<svg width="16" height="16" viewBox="0 0 16 16" fill="none" xmlns="http://www.w3.org/2000/svg">
<g clip-path="url(#clip0_36251_7001)">
<path d="M16 8.00061C16 7.64696 15.9768 7.29871 15.9323 6.95715H6.95644C5.32204 5.32284 2.34301 2.344 2.34314 2.34375C-0.781045 5.46793 -0.781045 10.5332 2.34314 13.6575L6.95653 9.04411H15.9323C15.9767 8.70252 16 8.35427 16 8.00061Z" fill="black"/>
<path d="M15.9972 8.18164C15.9969 8.19709 15.9965 8.21261 15.9961 8.22806C15.9965 8.21255 15.9968 8.19709 15.9972 8.18164Z" fill="#F0F0F0"/>
<path d="M15.9899 8.40039C15.9892 8.41569 15.9881 8.43092 15.9873 8.44619C15.9881 8.43095 15.9891 8.41569 15.9899 8.40039Z" fill="#F0F0F0"/>
<path d="M15.9786 8.5752C15.977 8.59769 15.9754 8.62019 15.9736 8.64263C15.9754 8.62019 15.977 8.59769 15.9786 8.5752Z" fill="#F0F0F0"/>
<path d="M15.9521 7.12793C15.9551 7.15471 15.958 7.18147 15.9607 7.20832C15.958 7.18144 15.9551 7.15471 15.9521 7.12793Z" fill="#F0F0F0"/>
<path d="M15.9873 7.55273C15.9881 7.568 15.9892 7.58324 15.9899 7.59853C15.9892 7.58324 15.9881 7.56797 15.9873 7.55273Z" fill="#F0F0F0"/>
<path d="M15.9961 7.77051C15.9965 7.78596 15.9968 7.80148 15.9972 7.81693C15.9969 7.80142 15.9965 7.78596 15.9961 7.77051Z" fill="#F0F0F0"/>
<path d="M15.9736 7.35645C15.9754 7.37888 15.977 7.40138 15.9786 7.42388C15.977 7.40138 15.9754 7.37888 15.9736 7.35645Z" fill="#F0F0F0"/>
<path d="M15.932 6.95649C15.9356 6.98389 15.9387 7.01145 15.942 7.03892C15.4672 3.07387 12.0927 0 7.9997 0C5.79052 0 3.79049 0.895467 2.34277 2.34325L6.95601 6.95652H15.932V6.95649Z" fill="#D80027"/>
<path d="M15.932 9.04337H6.95601L2.34277 13.6567C3.79049 15.1044 5.79052 15.9999 7.9997 15.9999C12.0927 15.9999 15.4672 12.926 15.942 8.96094C15.9387 8.98841 15.9355 9.01597 15.932 9.04337Z" fill="#6DA544"/>
<path d="M15.9607 8.79199C15.958 8.81884 15.9551 8.84559 15.9521 8.87238C15.9551 8.84559 15.9581 8.81887 15.9607 8.79199Z" fill="#F0F0F0"/>
<path d="M15.9795 7.4248C15.9825 7.4676 15.9853 7.5105 15.9876 7.55349C15.9852 7.5105 15.9825 7.4676 15.9795 7.4248Z" fill="black"/>
<path d="M15.9424 7.03906C15.946 7.06875 15.9494 7.0985 15.9526 7.12828C15.9493 7.0985 15.9459 7.06878 15.9424 7.03906Z" fill="black"/>
<path d="M15.9609 7.20801C15.9658 7.2577 15.9702 7.30752 15.9742 7.35753C15.9703 7.30752 15.9658 7.25767 15.9609 7.20801Z" fill="black"/>
<path d="M16.0003 8C16.0003 8.0609 15.9994 8.12155 15.998 8.18207C15.9994 8.12152 16.0003 8.06087 16.0003 8Z" fill="black"/>
<path d="M15.9876 8.44531C15.9852 8.4883 15.9825 8.5312 15.9795 8.574C15.9825 8.5312 15.9852 8.4883 15.9876 8.44531Z" fill="black"/>
<path d="M15.9742 8.64258C15.9702 8.69252 15.9658 8.74237 15.9609 8.79203C15.9658 8.74237 15.9703 8.69252 15.9742 8.64258Z" fill="black"/>
<path d="M15.9526 8.87207C15.9494 8.90185 15.946 8.93157 15.9424 8.96129C15.9459 8.9316 15.9493 8.90185 15.9526 8.87207Z" fill="black"/>
<path d="M15.998 7.81836C15.9994 7.87892 16.0003 7.9396 16.0003 8.00043C16.0003 7.9396 15.9994 7.87892 15.998 7.81836Z" fill="black"/>
<path d="M15.9902 7.59863C15.993 7.65594 15.9952 7.71346 15.9968 7.77107C15.9952 7.71343 15.9931 7.65594 15.9902 7.59863Z" fill="black"/>
<path d="M15.9968 8.22754C15.9952 8.28516 15.9931 8.34268 15.9902 8.39998C15.9931 8.34265 15.9952 8.28516 15.9968 8.22754Z" fill="black"/>
<path d="M15.9932 7.6491H6.66333L1.87093 2.85742C1.71602 3.0208 1.54812 3.24892 1.44427 3.41139L6.02736 7.99688L1.44043 12.5839C1.53124 12.7455 1.72909 12.9846 1.86799 13.1402L6.66342 8.34476H15.9943C15.9992 8.22938 16.0008 8.11351 16.0008 7.99694C16.0008 7.84076 15.9965 7.7256 15.9932 7.6491Z" fill="#FFDA44"/>
<path d="M1.94376 9.70561V9.03551C2.61244 9.03551 3.15641 8.49148 3.15641 7.82286C3.15641 7.34977 2.7715 6.96489 2.29844 6.96489C1.97616 6.96489 1.71394 7.22708 1.71394 7.54942C1.71394 7.75552 1.8816 7.9232 2.08772 7.9232C2.20422 7.9232 2.29901 7.82836 2.29901 7.71186H2.96907C2.96907 8.19789 2.57369 8.59326 2.08776 8.59326C1.51216 8.5933 1.04395 8.12498 1.04395 7.54948C1.04395 6.8577 1.60676 6.29492 2.29847 6.29492C3.14104 6.29492 3.82653 6.98042 3.82653 7.82295C3.8265 8.86098 2.98191 9.70561 1.94376 9.70561Z" fill="#FFDA44"/>
</g>
<defs>
<clipPath id="clip0_36251_7001">
<rect width="16" height="16" fill="white"/>
</clipPath>
</defs>
</svg>
