<svg width="16" height="16" viewBox="0 0 16 16" fill="none" xmlns="http://www.w3.org/2000/svg">
<g clip-path="url(#clip0_36251_6860)">
<path d="M8 16C12.4183 16 16 12.4183 16 8C16 3.58172 12.4183 0 8 0C3.58172 0 0 3.58172 0 8C0 12.4183 3.58172 16 8 16Z" fill="#F0F0F0"/>
<path d="M15.9993 8.00013C15.9993 4.82844 14.1535 2.08795 11.4775 0.793945V15.2063C14.1535 13.9123 15.9993 11.1718 15.9993 8.00013Z" fill="#338AF3"/>
<path d="M0 8.00013C0 11.1718 1.84578 13.9123 4.52175 15.2063V0.793945C1.84578 2.08795 0 4.82845 0 8.00013Z" fill="#338AF3"/>
<path d="M10.0903 9.35218L8.73765 7.99949L10.0252 6.71184L9.9669 6.03177L9.59827 5.66309L7.99977 7.26159L6.40127 5.66309L6.03265 6.03177L5.9743 6.71184L7.2619 7.99949L5.90918 9.35218L6.64705 10.09L7.99977 8.73734L9.35249 10.09L10.0903 9.35218Z" fill="#ACABB1"/>
<path d="M9.96796 6.0332L9.23012 6.77105C9.54484 7.08577 9.73952 7.52055 9.73952 8.0008C9.73952 8.9613 8.96087 9.73993 8.0004 9.73993C7.03993 9.73993 6.26124 8.9613 6.26124 8.0008C6.26124 7.52055 6.45593 7.08577 6.77065 6.77105L6.0328 6.0332C5.52921 6.5367 5.21777 7.23236 5.21777 8.0008C5.21777 9.53761 6.46359 10.7834 8.00037 10.7834C9.53715 10.7834 10.783 9.53758 10.783 8.0008C10.783 7.23239 10.4715 6.53673 9.96796 6.0332Z" fill="#6DA544"/>
</g>
<defs>
<clipPath id="clip0_36251_6860">
<rect width="16" height="16" fill="white"/>
</clipPath>
</defs>
</svg>
