<svg width="16" height="16" viewBox="0 0 16 16" fill="none" xmlns="http://www.w3.org/2000/svg">
<g clip-path="url(#clip0_36251_6879)">
<path d="M15.2063 4.52175C13.9123 1.84578 11.1718 0 8.00013 0C4.82844 0 2.08795 1.84578 0.793945 4.52175L8.00013 5.21741L15.2063 4.52175Z" fill="#D80027"/>
<path d="M0.793945 11.4779C2.08795 14.1538 4.82844 15.9996 8.00013 15.9996C11.1718 15.9996 13.9123 14.1538 15.2063 11.4779L8.00013 10.7822L0.793945 11.4779Z" fill="#D80027"/>
<path d="M15.2062 4.52148H0.793813C0.28525 5.5732 0 6.75314 0 7.99974C0 9.24633 0.28525 10.4263 0.793813 11.478H15.2062C15.7148 10.4263 16 9.24633 16 7.99974C16 6.75314 15.7148 5.5732 15.2062 4.52148Z" fill="#0052B4"/>
<path d="M8.00037 10.782C9.53715 10.782 10.783 9.53617 10.783 7.99939C10.783 6.46261 9.53715 5.2168 8.00037 5.2168C6.46358 5.2168 5.21777 6.46261 5.21777 7.99939C5.21777 9.53617 6.46358 10.782 8.00037 10.782Z" fill="#F0F0F0"/>
</g>
<defs>
<clipPath id="clip0_36251_6879">
<rect width="16" height="16" fill="white"/>
</clipPath>
</defs>
</svg>
