<svg width="16" height="16" viewBox="0 0 16 16" fill="none" xmlns="http://www.w3.org/2000/svg">
<g clip-path="url(#clip0_36251_6812)">
<path d="M8 16C12.4183 16 16 12.4183 16 8C16 3.58172 12.4183 0 8 0C3.58172 0 0 3.58172 0 8C0 12.4183 3.58172 16 8 16Z" fill="#F0F0F0"/>
<path d="M11.8811 1.0035C10.7316 0.3645 9.40844 0 8 0C3.58206 0 0.0005625 3.58119 0 7.99906L5.56522 5.21741L11.8811 1.0035Z" fill="#0052B4"/>
<path d="M0 8.00098C0.0005625 12.4188 3.58206 16 8 16C9.40844 16 10.7316 15.6356 11.8811 14.9965L5.56522 10.7826L0 8.00098Z" fill="#0052B4"/>
<path d="M12.5478 1.41847C12.3329 1.26975 12.1103 1.13144 11.8808 1.00391L0 7.99934C0 7.99966 0 7.99997 0 8.00028C0 8.00059 0 8.00094 0 8.00122L11.8809 14.9966C12.1103 14.8691 12.3329 14.7308 12.5478 14.5821L1.36944 8.00028L12.5478 1.41847Z" fill="#D80027"/>
<path d="M13.9125 7.7017H12.9595C13.2073 7.4042 13.192 6.96161 12.9129 6.68252C13.2086 6.38686 13.2086 5.90745 12.9129 5.61173L12.8951 5.62961C13.1907 5.33395 13.2086 4.83667 12.9129 4.54102L8.62988 8.82402C8.92557 9.11974 9.39657 9.1162 9.69223 8.82052L9.77466 8.74517L11.8255 8.55873V9.4408H12.5212V8.49549L13.5647 8.40064L13.9125 7.7017Z" fill="#A2001D"/>
<path d="M8.69591 9.7396L8 9.39179L8.69591 9.04395H13.2176V9.7396H8.69591Z" fill="#FFDA44"/>
</g>
<defs>
<clipPath id="clip0_36251_6812">
<rect width="16" height="16" fill="white"/>
</clipPath>
</defs>
</svg>
