<svg width="16" height="16" viewBox="0 0 16 16" fill="none" xmlns="http://www.w3.org/2000/svg">
<g clip-path="url(#clip0_36251_6819)">
<path d="M8 16C12.4183 16 16 12.4183 16 8C16 3.58172 12.4183 0 8 0C3.58172 0 0 3.58172 0 8C0 12.4183 3.58172 16 8 16Z" fill="#6DA544"/>
<path d="M4.52246 9.56445C4.52246 10.1407 4.98965 10.6079 5.56593 10.6079H8.69637C8.69637 11.0882 9.08568 11.4775 9.56593 11.4775H10.6094C11.0897 11.4775 11.479 11.0882 11.479 10.6079V9.56445H4.52246Z" fill="#F0F0F0"/>
<path d="M11.5658 4.52148V6.95626C11.5658 7.33985 11.2537 7.65192 10.8701 7.65192V8.69538C11.8291 8.69538 12.6092 7.9152 12.6092 6.95626V4.52148H11.5658V4.52148Z" fill="#F0F0F0"/>
<path d="M4.08726 6.95626C4.08726 7.33985 3.7752 7.65192 3.3916 7.65192V8.69538C4.35057 8.69538 5.13073 7.9152 5.13073 6.95626V4.52148H4.08726V6.95626Z" fill="#F0F0F0"/>
<path d="M11.0444 4.52148H10.001V6.95627H11.0444V4.52148Z" fill="#F0F0F0"/>
<path d="M8.43494 5.9128C8.43494 6.0087 8.35691 6.0867 8.26104 6.0867C8.16516 6.0867 8.08713 6.00867 8.08713 5.9128V4.52148H7.04366V5.9128C7.04366 6.0087 6.96563 6.0867 6.86975 6.0867C6.77388 6.0867 6.69585 6.00867 6.69585 5.9128V4.52148H5.65234V5.9128C5.65234 6.58408 6.19847 7.1302 6.86975 7.1302C7.12828 7.1302 7.36803 7.04895 7.56541 6.91095C7.76275 7.04892 8.00254 7.1302 8.26107 7.1302C8.31313 7.1302 8.36432 7.12655 8.41466 7.12014C8.34072 7.4248 8.06635 7.65192 7.73932 7.65192V8.69539C8.69829 8.69539 9.47844 7.9152 9.47844 6.95626V5.9128V4.52148H8.43497V5.9128H8.43494Z" fill="#F0F0F0"/>
<path d="M7.21756 7.65137H5.65234V8.69483H7.21756V7.65137Z" fill="#F0F0F0"/>
</g>
<defs>
<clipPath id="clip0_36251_6819">
<rect width="16" height="16" fill="white"/>
</clipPath>
</defs>
</svg>
