<svg width="16" height="16" viewBox="0 0 16 16" fill="none" xmlns="http://www.w3.org/2000/svg">
<g clip-path="url(#clip0_36251_6820)">
<path d="M8 16C12.4183 16 16 12.4183 16 8C16 3.58172 12.4183 0 8 0C3.58172 0 0 3.58172 0 8C0 12.4183 3.58172 16 8 16Z" fill="#F0F0F0"/>
<path d="M7.99948 0C4.55976 0 1.62741 2.171 0.49707 5.21741H15.5019C14.3715 2.171 11.4392 0 7.99948 0Z" fill="#D80027"/>
<path d="M7.99948 16.0006C11.4392 16.0006 14.3715 13.8296 15.5019 10.7832H0.49707C1.62741 13.8296 4.55976 16.0006 7.99948 16.0006Z" fill="black"/>
<path d="M4.7798 6.08691L5.21145 7.41542H6.60842L5.47826 8.2366L5.90995 9.56517L4.7798 8.74407L3.64964 9.56517L4.08133 8.2366L2.95117 7.41542H4.34814L4.7798 6.08691Z" fill="#6DA544"/>
<path d="M11.2192 6.08691L11.6509 7.41542H13.0479L11.9177 8.2366L12.3494 9.56517L11.2192 8.74407L10.0891 9.56517L10.5208 8.2366L9.39062 7.41542H10.7876L11.2192 6.08691Z" fill="#6DA544"/>
</g>
<defs>
<clipPath id="clip0_36251_6820">
<rect width="16" height="16" fill="white"/>
</clipPath>
</defs>
</svg>
