<svg width="16" height="16" viewBox="0 0 16 16" fill="none" xmlns="http://www.w3.org/2000/svg">
<g clip-path="url(#clip0_36251_6892)">
<path d="M4.33208 0.888672C3.61589 1.25833 2.94361 1.74286 2.34323 2.34323C1.74283 2.94364 1.2583 3.61592 0.888672 4.33211L6.03264 9.96802L11.6685 15.112C12.3848 14.7423 13.057 14.2578 13.6574 13.6575C14.2578 13.057 14.7423 12.3848 15.112 11.6686L9.96802 6.03264L4.33208 0.888672Z" fill="#F0F0F0"/>
<path d="M13.6569 13.6569C13.9925 13.3213 14.2918 12.9632 14.5553 12.5876L3.41202 1.44434C3.03643 1.7078 2.67834 2.00712 2.34274 2.34271C2.00715 2.6783 1.70784 3.0364 1.44434 3.41202L12.5876 14.5553C12.9632 14.2918 13.3213 13.9925 13.6569 13.6569Z" fill="black"/>
<path d="M2.34287 13.6574C4.86684 16.1813 8.65737 16.6658 11.6682 15.1119L0.888341 4.33203C-0.665565 7.34284 -0.180971 11.1334 2.34287 13.6574Z" fill="#D80027"/>
<path d="M13.6573 2.34291C11.1334 -0.181025 7.34284 -0.665525 4.33203 0.888319L15.1119 11.6683C16.6658 8.65745 16.1813 4.86685 13.6573 2.34291Z" fill="#D80027"/>
</g>
<defs>
<clipPath id="clip0_36251_6892">
<rect width="16" height="16" fill="white"/>
</clipPath>
</defs>
</svg>
