<svg width="16" height="16" viewBox="0 0 16 16" fill="none" xmlns="http://www.w3.org/2000/svg">
<g clip-path="url(#clip0_36251_6924)">
<path d="M0.793813 4.52183C0.28525 5.57358 0 6.75349 0 8.00008C0 9.24668 0.28525 10.4266 0.793813 11.4783L8 12.174L15.2062 11.4783C15.7147 10.4266 16 9.24668 16 8.00008C16 6.75349 15.7147 5.57358 15.2062 4.52183L8 3.82617L0.793813 4.52183Z" fill="black"/>
<path d="M0.793945 11.4785C2.08788 14.1545 4.82816 16.0003 7.99985 16.0003C11.1715 16.0003 13.9118 14.1545 15.2058 11.4785H0.793945Z" fill="#496E2D"/>
<path d="M0.793945 4.52175H15.2058C13.9118 1.84578 11.1715 0 7.99985 0C4.82816 0 2.08788 1.84578 0.793945 4.52175Z" fill="#D80027"/>
<path d="M9.86261 6.53613L10.519 7.44067L11.582 7.09598L10.9246 7.99973L11.5809 8.90423L10.5183 8.55823L9.86083 9.46198L9.86151 8.34445L8.79883 7.99845L9.86189 7.65376L9.86261 6.53613Z" fill="#F0F0F0"/>
<path d="M8.0711 10.2603C6.82248 10.2603 5.81023 9.24805 5.81023 7.99942C5.81023 6.7508 6.82248 5.73855 8.0711 5.73855C8.46041 5.73855 8.82676 5.83698 9.14657 6.0103C8.64482 5.51964 7.9587 5.2168 7.20154 5.2168C5.66473 5.2168 4.41895 6.46261 4.41895 7.99939C4.41895 9.53617 5.66476 10.782 7.20154 10.782C7.95873 10.782 8.64485 10.4791 9.14657 9.98848C8.82673 10.1619 8.46044 10.2603 8.0711 10.2603Z" fill="#F0F0F0"/>
</g>
<defs>
<clipPath id="clip0_36251_6924">
<rect width="16" height="16" fill="white"/>
</clipPath>
</defs>
</svg>
