<svg width="16" height="16" viewBox="0 0 16 16" fill="none" xmlns="http://www.w3.org/2000/svg">
<g clip-path="url(#clip0_36251_6958)">
<path d="M16 8C16 12.4183 12.4183 16 8 16C3.58175 16 0 12.4183 0 8C0 8.00191 8 0.000875 8 0C12.4183 0 16 3.58175 16 8Z" fill="#338AF3"/>
<path d="M8.00037 3.82617V6.52439L5.21777 3.82617H8.00037Z" fill="#0052B4"/>
<path d="M4.17398 8.00055H6.52436L4.17398 4.87012L3.82617 7.30489L4.17398 8.00055Z" fill="#0052B4"/>
<path d="M7.97852 7.99995H7.99996C7.99996 7.99276 7.99996 7.98575 7.99996 7.97852C7.99282 7.98568 7.98568 7.99282 7.97852 7.99995Z" fill="#F0F0F0"/>
<path d="M8 4.17488C8 2.76723 8 1.84488 8 0.000976562H7.99865C3.581 0.00172656 0 3.58313 0 8.00098H4.1739V5.65063L6.52428 8.00098H7.97865C7.98578 7.99385 7.9929 7.98673 8.00006 7.97957C8.00006 7.4406 8.00006 6.9597 8.00006 6.52529L5.64962 4.17488H8Z" fill="#F0F0F0"/>
<path d="M4.04684 1.04395C2.79563 1.75641 1.75544 2.7966 1.04297 4.04782V8.00048H3.12994V3.13098V3.13092H7.9995C7.9995 2.4727 7.9995 1.84563 7.9995 1.04395H4.04684V1.04395Z" fill="#D80027"/>
<path d="M7.99989 7.01611L5.15761 4.17383H4.17383V4.17389L7.99983 7.99989H7.99989C7.99989 7.99989 7.99989 7.32154 7.99989 7.01611Z" fill="#D80027"/>
<path d="M9.04395 5.21812V8.00068C9.04395 9.86443 11.4787 10.4355 11.4787 10.4355C11.4787 10.4355 13.9135 9.86443 13.9135 8.00068V5.21812L11.4787 4.52246L9.04395 5.21812Z" fill="#F3F3F3"/>
<path d="M13.9135 5.2173V4.17383H9.04395V5.2173H11.1308V7.30429H9.04395V7.99989C9.04395 7.99992 9.04395 7.99995 9.04395 7.99995L11.1308 7.99998V10.328C11.3408 10.4023 11.4787 10.4347 11.4787 10.4347C11.4787 10.4347 11.6166 10.4023 11.8265 10.328V7.99995H13.9135V7.99989V7.30426H11.8265V5.21726H13.9135V5.2173Z" fill="#D80027"/>
</g>
<defs>
<clipPath id="clip0_36251_6958">
<rect width="16" height="16" fill="white"/>
</clipPath>
</defs>
</svg>
