<svg width="16" height="16" viewBox="0 0 16 16" fill="none" xmlns="http://www.w3.org/2000/svg">
<g clip-path="url(#clip0_36251_6914)">
<path d="M8 16C12.4183 16 16 12.4183 16 8C16 3.58172 12.4183 0 8 0C3.58172 0 0 3.58172 0 8C0 12.4183 3.58172 16 8 16Z" fill="#F0F0F0"/>
<path d="M8.00013 15.9983C11.1718 15.9983 13.9123 14.1525 15.2063 11.4766H0.793945C2.08795 14.1525 4.82844 15.9983 8.00013 15.9983Z" fill="#338AF3"/>
<path d="M8.00111 -0.000976562C4.82942 -0.000976562 2.08892 1.8448 0.794922 4.52077H15.2073C13.9133 1.8448 11.1728 -0.000976562 8.00111 -0.000976562Z" fill="#338AF3"/>
<path d="M4.92336 5.21582L5.18236 6.01298H6.02052L5.34245 6.5056L5.60148 7.30276L4.92336 6.8101L4.24523 7.30276L4.50427 6.5056L3.82617 6.01298H4.66433L4.92336 5.21582Z" fill="#338AF3"/>
<path d="M4.92336 8.69531L5.18236 9.4925H6.02052L5.34245 9.98513L5.60148 10.7823L4.92336 10.2896L4.24523 10.7823L4.50427 9.98513L3.82617 9.4925H4.66433L4.92336 8.69531Z" fill="#338AF3"/>
<path d="M11.0767 5.21582L11.3357 6.01298H12.1739L11.4958 6.5056L11.7548 7.30276L11.0767 6.8101L10.3986 7.30276L10.6576 6.5056L9.97949 6.01298H10.8177L11.0767 5.21582Z" fill="#338AF3"/>
<path d="M11.0767 8.69434L11.3357 9.49153H12.1739L11.4958 9.98415L11.7548 10.7813L11.0767 10.2886L10.3986 10.7813L10.6576 9.98415L9.97949 9.49153H10.8177L11.0767 8.69434Z" fill="#338AF3"/>
<path d="M7.99953 6.95508L8.25856 7.75227H9.09672L8.41862 8.24489L8.67765 9.04202L7.99953 8.54936L7.32141 9.04202L7.58044 8.24489L6.90234 7.75227H7.7405L7.99953 6.95508Z" fill="#338AF3"/>
</g>
<defs>
<clipPath id="clip0_36251_6914">
<rect width="16" height="16" fill="white"/>
</clipPath>
</defs>
</svg>
