<svg width="16" height="16" viewBox="0 0 16 16" fill="none" xmlns="http://www.w3.org/2000/svg">
<g clip-path="url(#clip0_36251_6943)">
<path d="M8 16C12.4183 16 16 12.4183 16 8C16 3.58172 12.4183 0 8 0C3.58172 0 0 3.58172 0 8C0 12.4183 3.58172 16 8 16Z" fill="#F0F0F0"/>
<path d="M15.9528 8.86898C15.9528 8.86892 15.9528 8.86886 15.9528 8.86873L7.17956 0.0410156C6.78378 0.0813594 6.3965 0.150547 6.01991 0.246453C2.55931 1.12755 0 7.99942 0 7.99942C0 7.99942 11.1999 15.4943 12.4777 14.6295C12.7333 14.4565 12.9784 14.2691 13.2118 14.0685L8.01234 8.86898H15.9528Z" fill="#0052B4"/>
<path d="M13.913 8.00007L6.13266 0.219727C2.61525 1.06088 0 4.22482 0 8.00007C0 12.4183 3.58175 16.0001 8 16.0001C9.67591 16.0001 11.2312 15.4844 12.5165 14.6035L5.91303 8.00007H13.913Z" fill="#D80027"/>
<path d="M7.60839 11.8117L6.63136 11.3522L7.15164 10.406L6.0907 10.6089L5.95627 9.53711L5.2173 10.3254L4.47833 9.53711L4.34386 10.6089L3.28295 10.4059L3.80323 11.3522L2.82617 11.8117L3.80323 12.2713L3.28295 13.2175L4.34392 13.0146L4.4783 14.0863L5.2173 13.298L5.95627 14.0863L6.0907 13.0146L7.15161 13.2175L6.63133 12.2713L7.60839 11.8117Z" fill="#F0F0F0"/>
<path d="M6.95582 4.4366L6.2452 4.10238L6.6236 3.41416L5.85195 3.56179L5.75416 2.78223L5.2167 3.35557L4.67923 2.78223L4.58141 3.56179L3.80976 3.41416L4.1882 4.10238L3.47754 4.4366L5.2167 4.78447L6.95582 4.4366Z" fill="#F0F0F0"/>
<path d="M7.3048 4.4375C7.3048 5.59009 6.37042 6.52447 5.21783 6.52447C4.06523 6.52447 3.13086 5.59009 3.13086 4.4375" fill="#F0F0F0"/>
</g>
<defs>
<clipPath id="clip0_36251_6943">
<rect width="16" height="16" fill="white"/>
</clipPath>
</defs>
</svg>
