<svg width="16" height="16" viewBox="0 0 16 16" fill="none" xmlns="http://www.w3.org/2000/svg">
<g clip-path="url(#clip0_36251_6777)">
<path d="M16 8.00055C16 7.02199 15.824 6.08458 15.5024 5.21796L8 4.87012L0.497594 5.21793C0.176 6.08458 0 7.02199 0 8.00055C0 8.97911 0.176 9.91652 0.497594 10.7831L8 11.131L15.5024 10.7832C15.824 9.91652 16 8.97911 16 8.00055Z" fill="#FFDA44"/>
<path d="M8.00045 16.0006C11.4402 16.0006 14.3725 13.8296 15.5029 10.7832H0.498047C1.62839 13.8296 4.56073 16.0006 8.00045 16.0006Z" fill="#6DA544"/>
<path d="M0.49707 5.21741H15.5019C14.3715 2.171 11.4392 0 7.99948 0C4.55976 0 1.62741 2.171 0.49707 5.21741Z" fill="#D80027"/>
</g>
<defs>
<clipPath id="clip0_36251_6777">
<rect width="16" height="16" fill="white"/>
</clipPath>
</defs>
</svg>
