<svg width="16" height="16" viewBox="0 0 16 16" fill="none" xmlns="http://www.w3.org/2000/svg">
<g clip-path="url(#clip0_36251_6822)">
<path d="M8 16C12.4183 16 16 12.4183 16 8C16 3.58172 12.4183 0 8 0C3.58172 0 0 3.58172 0 8C0 12.4183 3.58172 16 8 16Z" fill="#F0F0F0"/>
<path d="M14.6669 8.95722C14.0002 8.95722 14.0002 8.34766 13.3336 8.34766C12.6669 8.34766 12.6669 8.95722 12.0003 8.95722C11.3336 8.95722 11.3336 8.34766 10.667 8.34766C10.0003 8.34766 10.0003 8.95722 9.33365 8.95722C8.66696 8.95722 8.66693 8.34766 8.00021 8.34766C7.33356 8.34766 7.33356 8.95722 6.66693 8.95722C6.00037 8.95722 6.00037 8.34766 5.33371 8.34766C4.66699 8.34766 4.66699 8.95722 4.00027 8.95722C3.33356 8.95722 3.33356 8.34766 2.66684 8.34766C2.00027 8.34766 2.00027 8.95722 1.33362 8.95722C0.670555 8.95722 0.666711 8.35438 0.0107422 8.34794C0.0292109 8.71385 0.0728984 9.07313 0.138961 9.42447C0.670336 9.5025 0.716867 10.0239 1.33368 10.0239C2.00034 10.0239 2.00034 9.41435 2.6669 9.41435C3.33362 9.41435 3.33362 10.0239 4.00034 10.0239C4.66706 10.0239 4.66706 9.41435 5.33377 9.41435C6.00043 9.41435 6.00043 10.0239 6.66699 10.0239C7.33365 10.0239 7.33365 9.41435 8.00027 9.41435C8.66699 9.41435 8.66699 10.0239 9.33371 10.0239C10.0004 10.0239 10.0004 9.41435 10.6671 9.41435C11.3337 9.41435 11.3337 10.0239 12.0003 10.0239C12.667 10.0239 12.667 9.41435 13.3336 9.41435C14.0003 9.41435 14.0003 10.0239 14.667 10.0239C15.2838 10.0239 15.3303 9.50254 15.8617 9.42447C15.9278 9.0731 15.9715 8.71388 15.99 8.34794C15.3339 8.35441 15.33 8.95722 14.6669 8.95722Z" fill="#0052B4"/>
<path d="M13.3335 10.4346C12.6669 10.4346 12.6669 11.0441 12.0002 11.0441C11.3336 11.0441 11.3336 10.4346 10.667 10.4346C10.0003 10.4346 10.0003 11.0441 9.33361 11.0441C8.66689 11.0441 8.66689 10.4346 8.00017 10.4346C7.33352 10.4346 7.33352 11.0441 6.66689 11.0441C6.00033 11.0441 6.00033 10.4346 5.33367 10.4346C4.66695 10.4346 4.66695 11.0441 4.00023 11.0441C3.33352 11.0441 3.33352 10.4346 2.6668 10.4346C2.00023 10.4346 2.00023 11.0441 1.33358 11.0441C0.842484 11.0441 0.712828 10.7136 0.412109 10.5394C0.594234 11.0838 0.833453 11.6019 1.12236 12.087C1.18492 12.1021 1.25448 12.1108 1.33355 12.1108C2.0002 12.1108 2.0002 11.5013 2.66677 11.5013C3.33348 11.5013 3.33348 12.1108 4.0002 12.1108C4.66692 12.1108 4.66692 11.5013 5.33364 11.5013C6.0003 11.5013 6.0003 12.1108 6.66686 12.1108C7.33352 12.1108 7.33352 11.5013 8.00014 11.5013C8.66686 11.5013 8.66686 12.1108 9.33358 12.1108C10.0003 12.1108 10.0003 11.5013 10.6669 11.5013C11.3336 11.5013 11.3336 12.1108 12.0002 12.1108C12.6668 12.1108 12.6669 11.5013 13.3335 11.5013C14.0002 11.5013 14.0002 12.1108 14.6668 12.1108C14.746 12.1108 14.8156 12.1021 14.8782 12.087C15.1671 11.6019 15.4063 11.0838 15.5884 10.5395C15.2877 10.7136 15.158 11.0442 14.6668 11.0442C14.0002 11.0441 14.0002 10.4346 13.3335 10.4346Z" fill="#0052B4"/>
<path d="M15.8141 6.27927C15.3268 6.38043 15.2647 6.8703 14.6668 6.8703C14.0001 6.8703 14.0001 6.26074 13.3334 6.26074C12.6668 6.26074 12.6668 6.8703 12.0002 6.8703C11.3335 6.8703 11.3335 6.26074 10.6669 6.26074C10.0002 6.26074 10.0002 6.8703 9.33353 6.8703C8.66684 6.8703 8.66681 6.26074 8.00009 6.26074C7.63988 6.26074 7.47425 6.43868 7.29297 6.6023V7.66896C7.47425 7.50536 7.63984 7.32746 8.00009 7.32746C8.66681 7.32746 8.66681 7.93696 9.33353 7.93696C10.0002 7.93696 10.0003 7.32746 10.6669 7.32746C11.3335 7.32746 11.3335 7.93696 12.0002 7.93696C12.6668 7.93696 12.6668 7.32746 13.3334 7.32746C14.0002 7.32746 14.0002 7.93696 14.6668 7.93696C15.2836 7.93696 15.3302 7.41565 15.8616 7.33758C15.8956 7.33758 15.9337 7.33724 15.9727 7.33677C15.9431 6.97699 15.8897 6.62399 15.8141 6.27927Z" fill="#0052B4"/>
<path d="M15.2297 4.57098C15.0915 4.68702 14.9318 4.78339 14.6668 4.78339C14.0001 4.78339 14.0001 4.17383 13.3334 4.17383C12.6668 4.17383 12.6668 4.78339 12.0002 4.78339C11.3335 4.78339 11.3335 4.17383 10.6669 4.17383C10.0002 4.17383 10.0002 4.78339 9.33353 4.78339C8.66684 4.78339 8.66681 4.17383 8.00009 4.17383C7.63987 4.17383 7.47425 4.35177 7.29297 4.51539V5.58205C7.47425 5.41845 7.63984 5.24055 8.00009 5.24055C8.66681 5.24055 8.66681 5.85005 9.33353 5.85005C10.0002 5.85005 10.0002 5.24055 10.6668 5.24055C11.3335 5.24055 11.3335 5.85005 12.0001 5.85005C12.6668 5.85005 12.6668 5.24055 13.3334 5.24055C14.0001 5.24055 14.0001 5.85005 14.6668 5.85005C15.1398 5.85005 15.2776 5.54364 15.5557 5.36545C15.4609 5.09367 15.3521 4.82852 15.2297 4.57098Z" fill="#0052B4"/>
<path d="M13.3904 2.08854C13.3719 2.08754 13.3531 2.08691 13.3335 2.08691C12.6668 2.08691 12.6668 2.69648 12.0002 2.69648C11.3335 2.69648 11.3335 2.08691 10.6669 2.08691C10.0003 2.08691 10.0003 2.69648 9.33353 2.69648C8.66681 2.69648 8.66681 2.08691 8.00009 2.08691C7.63987 2.08691 7.47425 2.26485 7.29297 2.42848V3.49513C7.47425 3.33154 7.63984 3.15363 8.00009 3.15363C8.66681 3.15363 8.66681 3.76313 9.33353 3.76313C10.0003 3.76313 10.0003 3.15363 10.6669 3.15363C11.3335 3.15363 11.3335 3.76313 12.0002 3.76313C12.6668 3.76313 12.6668 3.15363 13.3334 3.15363C14.0002 3.15363 14.0002 3.76313 14.6668 3.76313C14.7078 3.76313 14.7462 3.7607 14.7825 3.75635C14.3953 3.13873 13.9264 2.57757 13.3904 2.08854Z" fill="#0052B4"/>
<path d="M10.0452 0.264125C9.86222 0.42875 9.69684 0.609562 9.33375 0.609562C8.66703 0.609562 8.66703 6.25e-05 8.00034 0H8.00022C7.65547 3.125e-05 7.48903 0.163062 7.31641 0.320531V1.38722C7.489 1.22975 7.6555 1.06669 8.00034 1.06669C8.66706 1.06669 8.66706 1.67619 9.33378 1.67619C10.0005 1.67619 10.0005 1.06669 10.6671 1.06669C11.3338 1.06669 11.3338 1.67619 12.0004 1.67619C12.2801 1.67619 12.4424 1.56881 12.5859 1.44425C11.8254 0.911281 10.9679 0.507344 10.0452 0.264125Z" fill="#0052B4"/>
<path d="M9.33386 15.218C8.66714 15.218 8.66714 14.6084 8.00042 14.6084C7.33376 14.6084 7.33376 15.218 6.66713 15.218C6.00057 15.218 6.00057 14.6084 5.33392 14.6084C4.82326 14.6084 4.70348 14.9657 4.37598 15.1332C5.2791 15.593 6.2812 15.8861 7.34182 15.9726C7.50585 15.8227 7.67248 15.6751 8.00042 15.6751C8.32845 15.6751 8.49507 15.8227 8.65914 15.9726C9.71979 15.8861 10.722 15.593 11.6251 15.1332C11.2975 14.9658 11.1778 14.6084 10.6672 14.6084C10.0006 14.6084 10.0006 15.218 9.33386 15.218Z" fill="#0052B4"/>
<path d="M12.0008 13.131C11.3342 13.131 11.3342 12.5215 10.6675 12.5215C10.0009 12.5215 10.0009 13.131 9.3342 13.131C8.66748 13.131 8.66749 12.5215 8.00077 12.5215C7.33411 12.5215 7.33411 13.131 6.66748 13.131C6.00092 13.131 6.00092 12.5215 5.33427 12.5215C4.66755 12.5215 4.66755 13.131 4.00083 13.131C3.33411 13.131 3.33411 12.5215 2.66739 12.5215C2.18798 12.5215 2.05336 12.8368 1.76758 13.0138C1.9467 13.2363 2.13714 13.4492 2.33867 13.6511C2.42895 13.6125 2.53489 13.5882 2.66736 13.5882C3.33408 13.5882 3.33408 14.1977 4.0008 14.1977C4.66752 14.1977 4.66752 13.5882 5.33424 13.5882C6.00089 13.5882 6.00089 14.1977 6.66745 14.1977C7.33411 14.1977 7.33411 13.5882 8.00074 13.5882C8.66745 13.5882 8.66745 14.1977 9.33417 14.1977C10.0009 14.1977 10.0009 13.5882 10.6675 13.5882C11.3341 13.5882 11.3342 14.1977 12.0008 14.1977C12.6674 14.1977 12.6675 13.5882 13.3341 13.5882C13.4667 13.5882 13.5726 13.6125 13.663 13.6511C13.8645 13.4492 14.055 13.2363 14.2341 13.0139C13.9483 12.8369 13.8137 12.5215 13.3341 12.5215C12.6675 12.5215 12.6675 13.131 12.0008 13.131Z" fill="#0052B4"/>
<path d="M7.97852 7.99996H7.99996C7.99996 7.99276 7.99996 7.98575 7.99996 7.97852C7.99282 7.98568 7.98568 7.99282 7.97852 7.99996Z" fill="#F0F0F0"/>
<path d="M8.00037 4.17398V6.52439L5.21777 3.82617L8.00037 4.17398Z" fill="#0052B4"/>
<path d="M4.17402 7.99957H6.52433L4.17398 4.86914L3.82617 7.30392L4.17402 7.99957Z" fill="#0052B4"/>
<path d="M8 4.17391C8 2.76625 8 1.84391 8 0H7.99865C3.581 0.00075 0 3.58216 0 8H4.17393V5.64966L6.52425 8H7.97862C7.98575 7.99287 7.99287 7.98575 8.00003 7.97859C8.00003 7.43963 8.00003 6.95872 8.00003 6.52431L5.64962 4.17391H8Z" fill="#F0F0F0"/>
<path d="M4.04782 1.04297C2.7966 1.75544 1.75641 2.79563 1.04395 4.04684V7.9995H3.13091V3.13V3.12994H8.00048C8.00048 2.47172 8.00048 1.84466 8.00048 1.04297H4.04782V1.04297Z" fill="#D80027"/>
<path d="M7.99992 7.01611L5.15758 4.17383H4.17383V4.17389L7.99986 7.99989H7.99992C7.99992 7.99989 7.99992 7.32155 7.99992 7.01611Z" fill="#D80027"/>
<path d="M10.4346 4.17383H13.565L11.9998 5.73905L10.4346 4.17383Z" fill="#6DA544"/>
<path d="M12.348 5.39062H11.6523V7.30366H12.348V5.39062Z" fill="#A2001D"/>
<path d="M12.347 10.4346H11.6514V12.3476H12.347V10.4346Z" fill="#A2001D"/>
<path d="M14.087 9.39181C14.087 8.81553 13.6198 8.34834 13.0435 8.34834C12.7762 8.34834 12.5325 8.44897 12.3479 8.61425V8.0005H12.6957V7.30484H12.3479V6.95703H11.6522V7.30484H11.3044V8.0005H11.6522V8.61425C11.4676 8.44897 11.2239 8.34834 10.9566 8.34834C10.3803 8.34834 9.91309 8.81553 9.91309 9.39181C9.91309 9.70078 10.0475 9.97828 10.2609 10.1694V10.7831H13.7391V10.1694C13.9526 9.97828 14.087 9.70078 14.087 9.39181Z" fill="#FFDA44"/>
<path d="M13.0431 9.04297C12.9334 9.04297 12.8566 9.09116 12.8115 9.13153L12.3475 9.54687H11.6519L11.1879 9.13153C11.1427 9.09116 11.0659 9.04297 10.9562 9.04297C10.7644 9.04297 10.6084 9.199 10.6084 9.39078C10.6084 9.52587 10.6812 9.61122 10.7246 9.65012L10.9562 9.8575V10.0864H13.0432V9.8575L13.2748 9.65012C13.3182 9.61125 13.3911 9.52587 13.3911 9.39078C13.391 9.199 13.235 9.04297 13.0431 9.04297Z" fill="#D80027"/>
</g>
<defs>
<clipPath id="clip0_36251_6822">
<rect width="16" height="16" fill="white"/>
</clipPath>
</defs>
</svg>
