<svg width="16" height="16" viewBox="0 0 16 16" fill="none" xmlns="http://www.w3.org/2000/svg">
<g clip-path="url(#clip0_36251_6928)">
<path d="M16 8C16 12.4183 12.4183 16 8 16C3.58175 16 0 12.4183 0 8C0 8.00191 8 0.000875 8 0C12.4183 0 16 3.58175 16 8Z" fill="#0052B4"/>
<path d="M7.97949 7.99898H8.00094C8.00094 7.99178 8.00094 7.98477 8.00094 7.97754C7.9938 7.98471 7.98666 7.99185 7.97949 7.99898Z" fill="#F0F0F0"/>
<path d="M8.00098 4.17391C8.00098 2.76625 8.00098 1.84391 8.00098 0H7.99963C3.58195 0.00075 0.000976562 3.58216 0.000976562 8H4.17488V5.64966L6.52523 8H7.9796C7.98673 7.99287 7.99385 7.98575 8.00101 7.97859C8.00101 7.43963 8.00101 6.95872 8.00101 6.52431L5.6506 4.17391H8.00098Z" fill="#F0F0F0"/>
<path d="M4.04782 1.04297C2.7966 1.75544 1.75638 2.79563 1.04395 4.04684V7.9995H3.13091V3.13V3.12994H8.00048C8.00048 2.47172 8.00048 1.84466 8.00048 1.04297H4.04782V1.04297Z" fill="#D80027"/>
<path d="M8.0009 7.01513L5.15855 4.17285H4.1748V4.17291L8.00083 7.99891H8.0009C8.0009 7.99891 8.0009 7.32057 8.0009 7.01513Z" fill="#D80027"/>
<path d="M9.04297 4.17383V7.99989C9.04297 9.86364 11.4777 10.4347 11.4777 10.4347C11.4777 10.4347 13.9125 9.86364 13.9125 7.99989V4.17383H9.04297Z" fill="#FFDA44"/>
<path d="M11.1306 5.5648C11.1306 5.94902 10.8191 6.95611 10.4349 6.95611C10.0507 6.95611 9.73926 5.94902 9.73926 5.5648C9.73926 5.18058 10.4349 4.86914 10.4349 4.86914C10.4349 4.86914 11.1306 5.18058 11.1306 5.5648Z" fill="#FF9811"/>
<path d="M12.9765 6.32245C13.0887 6.04855 13.176 5.64817 13.176 5.44886C13.176 5.12867 12.7586 4.86914 12.7586 4.86914C12.7586 4.86914 12.3412 5.1287 12.3412 5.44886C12.3412 5.64817 12.4285 6.04855 12.5408 6.32245L12.2998 6.86652C12.4414 6.92408 12.5962 6.95608 12.7586 6.95608C12.9209 6.95608 13.0757 6.92408 13.2174 6.86652L12.9765 6.32245Z" fill="#A2001D"/>
<path d="M10.9572 8.00016C10.9572 8.00016 10.6094 8.69581 10.6094 9.39147C10.6094 9.39147 11.6528 9.39147 12.3485 9.39147C12.3485 8.69581 12.0007 8.00016 12.0007 8.00016L11.4789 7.65234L10.9572 8.00016Z" fill="#6DA544"/>
<path d="M12.0005 8.00034V7.82644C12.0005 7.53831 11.7669 7.30469 11.4788 7.30469C11.1907 7.30469 10.957 7.53828 10.957 7.82644V8.00034H12.0005Z" fill="#D80027"/>
</g>
<defs>
<clipPath id="clip0_36251_6928">
<rect width="16" height="16" fill="white"/>
</clipPath>
</defs>
</svg>
