<svg width="16" height="16" viewBox="0 0 16 16" fill="none" xmlns="http://www.w3.org/2000/svg">
<g clip-path="url(#clip0_36251_6909)">
<path d="M13.6576 13.6566C16.6579 10.6562 16.7764 5.8661 14.0142 2.72363L8.00048 7.99947L2.72461 14.0132C5.86707 16.7754 10.6572 16.6569 13.6576 13.6566Z" fill="#496E2D"/>
<path d="M2.34292 2.34293C5.34326 -0.657404 10.1334 -0.775873 13.2759 1.98628L7.99997 8.00008L1.98629 13.2759C-0.775888 10.1334 -0.657389 5.34327 2.34292 2.34293Z" fill="#0052B4"/>
<path d="M13.2759 1.98633L1.98633 13.2759C2.10045 13.4058 2.21895 13.5332 2.34298 13.6571C2.46698 13.7811 2.59439 13.8996 2.72426 14.0138L14.0138 2.7242C13.8996 2.59433 13.7811 2.46695 13.6571 2.34292C13.5332 2.21898 13.4057 2.10045 13.2759 1.98633Z" fill="#FFDA44"/>
<path d="M3.37112 2.7832L3.54383 3.31467H4.10262L3.65055 3.64308L3.82321 4.17454L3.37112 3.84608L2.91902 4.17454L3.09174 3.64308L2.63965 3.31467H3.19846L3.37112 2.7832Z" fill="#F0F0F0"/>
<path d="M6.22561 2.78223L6.39833 3.31369H6.95708L6.50502 3.6421L6.6777 4.17357L6.22561 3.8451L5.77352 4.17357L5.94623 3.6421L5.49414 3.31369H6.05292L6.22561 2.78223Z" fill="#F0F0F0"/>
<path d="M3.37112 5.56543L3.54383 6.0969H4.10262L3.65055 6.42533L3.82321 6.9568L3.37112 6.62833L2.91902 6.9568L3.09174 6.42533L2.63965 6.0969H3.19846L3.37112 5.56543Z" fill="#F0F0F0"/>
<path d="M6.22561 5.56445L6.39833 6.09592H6.95708L6.50502 6.42436L6.6777 6.95582L6.22561 6.62736L5.77352 6.95582L5.94623 6.42436L5.49414 6.09592H6.05292L6.22561 5.56445Z" fill="#F0F0F0"/>
<path d="M4.7979 4.17383L4.97062 4.70529H5.52937L5.07731 5.03373L5.25 5.5652L4.7979 5.23673L4.34581 5.5652L4.5185 5.03373L4.06641 4.70529H4.62522L4.7979 4.17383Z" fill="#F0F0F0"/>
</g>
<defs>
<clipPath id="clip0_36251_6909">
<rect width="16" height="16" fill="white"/>
</clipPath>
</defs>
</svg>
