<svg width="16" height="16" viewBox="0 0 16 16" fill="none" xmlns="http://www.w3.org/2000/svg">
<g clip-path="url(#clip0_36251_6945)">
<path d="M8 16C12.4183 16 16 12.4183 16 8C16 3.58172 12.4183 0 8 0C3.58172 0 0 3.58172 0 8C0 12.4183 3.58172 16 8 16Z" fill="#F0F0F0"/>
<path d="M15.3763 4.89853C14.1647 2.02069 11.3187 0 8.00034 0C5.79116 0 3.79138 0.895594 2.34375 2.34341L4.34719 4.89853H15.3763Z" fill="black"/>
<path d="M4.36991 11.0723L2.34375 13.6564C3.79138 15.1042 5.79116 15.9998 8.00034 15.9998C11.3299 15.9998 14.184 13.9656 15.3886 11.0723H4.36991Z" fill="#496E2D"/>
<path d="M1.73926 5.88379V10.0867H15.7246C15.904 9.42131 16.0001 8.72182 16.0001 7.99972C16.0001 7.26716 15.9014 6.55779 15.717 5.88379H1.73926Z" fill="#A2001D"/>
<path d="M2.34314 2.34277C-0.781047 5.46696 -0.781047 10.5323 2.34314 13.6565C3.63417 12.3655 4.87583 11.1238 8.00002 7.99965L2.34314 2.34277Z" fill="#0052B4"/>
<path d="M2.6056 6.01074L3.58201 7.37327L5.17976 6.86562L4.18567 8.2154L5.16207 9.578L3.5712 9.04965L2.57707 10.3994L2.58801 8.72306L0.99707 8.19465L2.5947 7.68702L2.6056 6.01074Z" fill="#FFDA44"/>
</g>
<defs>
<clipPath id="clip0_36251_6945">
<rect width="16" height="16" fill="white"/>
</clipPath>
</defs>
</svg>
