<svg width="16" height="16" viewBox="0 0 16 16" fill="none" xmlns="http://www.w3.org/2000/svg">
<path d="M10.6665 13.3335C10.4958 13.3335 10.3252 13.2682 10.1952 13.1382C9.93449 12.8775 9.93449 12.4562 10.1952 12.1955L12.3905 10.0002H3.99984C3.63118 10.0002 3.33318 9.70152 3.33318 9.33352C3.33318 8.96552 3.63118 8.66685 3.99984 8.66685H13.9998C14.2692 8.66685 14.5132 8.82948 14.6159 9.07815C14.7192 9.32748 14.6619 9.61421 14.4712 9.80487L11.1379 13.1382C11.0079 13.2682 10.8372 13.3335 10.6665 13.3335ZM12.6665 6.00019C12.6665 5.63219 12.3685 5.33352 11.9998 5.33352H3.60922L5.80453 3.13821C6.0652 2.87754 6.0652 2.45617 5.80453 2.1955C5.54386 1.93483 5.12249 1.93483 4.86182 2.1955L1.52849 5.52883C1.33782 5.7195 1.28046 6.00623 1.38379 6.25556C1.48646 6.50489 1.73051 6.66685 1.99984 6.66685H11.9998C12.3685 6.66685 12.6665 6.36819 12.6665 6.00019Z" fill="#3B3B3E"/>
</svg>
