<svg width="16" height="16" viewBox="0 0 16 16" fill="none" xmlns="http://www.w3.org/2000/svg">
<path d="M3.99986 11.3338C3.8292 11.3338 3.65851 11.2685 3.52851 11.1385C3.26784 10.8779 3.26784 10.4565 3.52851 10.1958L5.72382 8.00051L3.52851 5.8052C3.26784 5.54453 3.26784 5.12316 3.52851 4.86249C3.78917 4.60183 4.21055 4.60183 4.47122 4.86249L7.13788 7.52916C7.39855 7.78983 7.39855 8.2112 7.13788 8.47187L4.47122 11.1385C4.34122 11.2685 4.17053 11.3338 3.99986 11.3338ZM12.4712 11.1385C12.7319 10.8779 12.7319 10.4565 12.4712 10.1958L10.2759 8.00051L12.4712 5.8052C12.7319 5.54453 12.7319 5.12316 12.4712 4.86249C12.2105 4.60183 11.7892 4.60183 11.5285 4.86249L8.86184 7.52916C8.60117 7.78983 8.60117 8.2112 8.86184 8.47187L11.5285 11.1385C11.6585 11.2685 11.8292 11.3338 11.9999 11.3338C12.1705 11.3338 12.3412 11.2685 12.4712 11.1385Z" fill="#3B3B3E"/>
</svg>
