<svg width="16" height="16" viewBox="0 0 16 16" fill="none" xmlns="http://www.w3.org/2000/svg">
<path d="M7.99967 1.33398C4.31767 1.33398 1.33301 4.31865 1.33301 8.00065C1.33301 11.6827 4.31767 14.6673 7.99967 14.6673C11.6817 14.6673 14.6663 11.6827 14.6663 8.00065C14.6663 4.31865 11.6817 1.33398 7.99967 1.33398ZM6.16634 5.33398C6.62634 5.33398 6.99967 5.70732 6.99967 6.16732C6.99967 6.62732 6.62634 7.00065 6.16634 7.00065C5.70634 7.00065 5.33301 6.62732 5.33301 6.16732C5.33301 5.70732 5.70634 5.33398 6.16634 5.33398ZM9.83301 10.6673C9.37301 10.6673 8.99967 10.294 8.99967 9.83398C8.99967 9.37398 9.37301 9.00065 9.83301 9.00065C10.293 9.00065 10.6663 9.37398 10.6663 9.83398C10.6663 10.294 10.293 10.6673 9.83301 10.6673ZM11.0197 5.68734L5.68636 11.0207C5.58903 11.118 5.46101 11.1673 5.33301 11.1673C5.20501 11.1673 5.07699 11.1187 4.97965 11.0207C4.78432 10.8253 4.78432 10.5086 4.97965 10.3133L10.313 4.97998C10.5083 4.78465 10.825 4.78465 11.0203 4.97998C11.2157 5.17531 11.215 5.492 11.0197 5.68734Z" fill="#3B3B3E"/>
</svg>
