<svg width="16" height="16" viewBox="0 0 16 16" fill="none" xmlns="http://www.w3.org/2000/svg">
<path d="M11.75 2H4.25C2.75 2 2 2.75 2 4.25V11.75C2 13.25 2.75 14 4.25 14H11.75C13.25 14 14 13.25 14 11.75V4.25C14 2.75 13.25 2 11.75 2ZM9.02002 9.64665C9.21535 9.84198 9.21535 10.1587 9.02002 10.354C8.92269 10.4513 8.79467 10.5007 8.66667 10.5007C8.53867 10.5007 8.41065 10.452 8.31331 10.354L6.31331 8.354C6.11798 8.15867 6.11798 7.84198 6.31331 7.64665L8.31331 5.64665C8.50865 5.45131 8.82534 5.45131 9.02067 5.64665C9.216 5.84198 9.216 6.15867 9.02067 6.354L7.37402 8.00065L9.02002 9.64665Z" fill="#3B3B3E"/>
</svg>
