<svg width="16" height="16" viewBox="0 0 16 16" fill="none" xmlns="http://www.w3.org/2000/svg">
<path d="M14.5 5.31869C14.5 4.29868 14.1027 3.33999 13.3813 2.61865C12.66 1.89732 11.7013 1.5 10.6813 1.5C9.66132 1.5 8.70203 1.89732 7.98136 2.61865L5.29997 5.29997L2.62004 7.97998C2.61937 7.98065 2.61932 7.98128 2.61865 7.98128C2.43799 8.16195 2.27801 8.35727 2.13867 8.56527C2.12467 8.58593 2.11734 8.61003 2.104 8.6307C1.98267 8.82003 1.87334 9.01599 1.788 9.22266C1.77867 9.24466 1.776 9.26867 1.76733 9.29134C1.68533 9.50001 1.61666 9.71405 1.57332 9.93538C1.57066 9.94805 1.572 9.96194 1.56934 9.97461C1.52667 10.2053 1.5 10.4413 1.5 10.6813C1.5 10.682 1.5 10.6826 1.5 10.6839C1.5 10.6846 1.5 10.6854 1.5 10.6867C1.5 10.9267 1.526 11.1627 1.56934 11.3934C1.572 11.4061 1.57066 11.42 1.57332 11.4326C1.60199 11.5773 1.65535 11.714 1.70068 11.8534C1.88402 12.4214 2.18399 12.948 2.61865 13.382C2.78732 13.5507 2.97197 13.6987 3.16463 13.8307C3.17663 13.8394 3.1873 13.8514 3.1993 13.8594C3.29463 13.9234 3.4 13.966 3.5 14.0207C3.618 14.0853 3.73131 14.1593 3.85531 14.2106C3.96931 14.2579 4.09133 14.282 4.20866 14.318C4.32799 14.354 4.44333 14.4019 4.566 14.4259C4.81133 14.4746 5.0627 14.5 5.31803 14.5H5.31869H5.31934C5.41334 14.5 5.50263 14.4793 5.5953 14.4727C5.75463 14.4613 5.91532 14.4566 6.06999 14.4259C6.09132 14.4213 6.1113 14.4114 6.1333 14.4067C6.8333 14.2547 7.47665 13.9119 7.99731 13.3979C8.00398 13.3913 8.0127 13.3867 8.01937 13.38L10.6993 10.7L13.3807 8.01872C14.1027 7.29738 14.5 6.33802 14.5 5.31869ZM5.41333 8.88672L4.90666 9.39339C4.46666 9.83339 4.25331 10.4401 4.31331 11.0601C4.33998 11.3401 4.14003 11.5799 3.8667 11.6133H3.81331C3.55998 11.6133 3.34665 11.42 3.31999 11.16C3.22665 10.24 3.5467 9.34002 4.20003 8.68669L4.70671 8.18001C4.90671 7.98668 5.22 7.98668 5.41333 8.18001C5.61333 8.37335 5.61333 8.69339 5.41333 8.88672ZM9.99268 9.99268L6.00667 6.00667L8.68799 3.32536C9.22066 2.79336 9.928 2.5 10.6807 2.5C11.4333 2.5 12.1407 2.79336 12.6733 3.32536C13.206 3.85802 13.4987 4.56537 13.4987 5.31803C13.4987 6.0707 13.206 6.77804 12.6733 7.31071L9.99268 9.99268Z" fill="#3B3B3E"/>
</svg>
