<svg width="16" height="16" viewBox="0 0 16 16" fill="none" xmlns="http://www.w3.org/2000/svg">
<path d="M11.3337 2H4.66699C3.33366 2 2.66699 2.66667 2.66699 4V12C2.66699 13.3333 3.33366 14 4.66699 14H11.3337C12.667 14 13.3337 13.3333 13.3337 12V4C13.3337 2.66667 12.667 2 11.3337 2ZM5.33366 12C4.96566 12 4.66699 11.7013 4.66699 11.3333C4.66699 10.9653 4.96566 10.6667 5.33366 10.6667C5.70166 10.6667 6.00033 10.9653 6.00033 11.3333C6.00033 11.7013 5.70166 12 5.33366 12ZM5.33366 10C4.96566 10 4.66699 9.70133 4.66699 9.33333C4.66699 8.96533 4.96566 8.66667 5.33366 8.66667C5.70166 8.66667 6.00033 8.96533 6.00033 9.33333C6.00033 9.70133 5.70166 10 5.33366 10ZM8.00033 12C7.63233 12 7.33366 11.7013 7.33366 11.3333C7.33366 10.9653 7.63233 10.6667 8.00033 10.6667C8.36833 10.6667 8.66699 10.9653 8.66699 11.3333C8.66699 11.7013 8.36833 12 8.00033 12ZM8.00033 10C7.63233 10 7.33366 9.70133 7.33366 9.33333C7.33366 8.96533 7.63233 8.66667 8.00033 8.66667C8.36833 8.66667 8.66699 8.96533 8.66699 9.33333C8.66699 9.70133 8.36833 10 8.00033 10ZM10.667 12C10.299 12 10.0003 11.7013 10.0003 11.3333C10.0003 10.9653 10.299 10.6667 10.667 10.6667C11.035 10.6667 11.3337 10.9653 11.3337 11.3333C11.3337 11.7013 11.035 12 10.667 12ZM10.667 10C10.299 10 10.0003 9.70133 10.0003 9.33333C10.0003 8.96533 10.299 8.66667 10.667 8.66667C11.035 8.66667 11.3337 8.96533 11.3337 9.33333C11.3337 9.70133 11.035 10 10.667 10ZM11.3337 5.66667C11.3337 6.33333 11.0003 6.66667 10.3337 6.66667H5.66699C5.00033 6.66667 4.66699 6.33333 4.66699 5.66667V5C4.66699 4.33333 5.00033 4 5.66699 4H10.3337C11.0003 4 11.3337 4.33333 11.3337 5V5.66667Z" fill="#3B3B3E"/>
</svg>
