<svg width="16" height="16" viewBox="0 0 16 16" fill="none" xmlns="http://www.w3.org/2000/svg">
<path d="M12 3.99967H11.1667V2.99967C11.1667 2.35967 10.64 1.83301 10 1.83301H6C5.36 1.83301 4.83333 2.35967 4.83333 2.99967V3.99967H4C2.66667 3.99967 2 4.66634 2 5.99967V11.9997C2 13.333 2.66667 13.9997 4 13.9997H12C13.3333 13.9997 14 13.333 14 11.9997V5.99967C14 4.66634 13.3333 3.99967 12 3.99967ZM4 9.66634C3.632 9.66634 3.33333 9.36767 3.33333 8.99967C3.33333 8.63167 3.632 8.33301 4 8.33301C4.368 8.33301 4.66667 8.63167 4.66667 8.99967C4.66667 9.36767 4.368 9.66634 4 9.66634ZM8 10.9997C6.89533 10.9997 6 10.1043 6 8.99967C6 7.89501 6.89533 6.99967 8 6.99967C9.10467 6.99967 10 7.89501 10 8.99967C10 10.1043 9.10467 10.9997 8 10.9997ZM5.83333 3.99967V2.99967C5.83333 2.90634 5.90667 2.83301 6 2.83301H10C10.0933 2.83301 10.1667 2.90634 10.1667 2.99967V3.99967H5.83333ZM12 9.66634C11.632 9.66634 11.3333 9.36767 11.3333 8.99967C11.3333 8.63167 11.632 8.33301 12 8.33301C12.368 8.33301 12.6667 8.63167 12.6667 8.99967C12.6667 9.36767 12.368 9.66634 12 9.66634Z" fill="#3B3B3E"/>
</svg>
