<svg width="16" height="16" viewBox="0 0 16 16" fill="none" xmlns="http://www.w3.org/2000/svg">
<path d="M13.1385 7.1379C13.0085 7.2679 12.8378 7.33322 12.6672 7.33322C12.4965 7.33322 12.3258 7.2679 12.1958 7.1379L8.66718 3.60926V13.9999C8.66718 14.3679 8.36918 14.6665 8.00051 14.6665C7.63185 14.6665 7.33385 14.3679 7.33385 13.9999V3.60926L3.8052 7.1379C3.54453 7.39857 3.12316 7.39857 2.86249 7.1379C2.60183 6.87724 2.60183 6.45586 2.86249 6.19519L7.52851 1.52918C7.59051 1.46718 7.66379 1.41848 7.74579 1.38448C7.90846 1.31715 8.09257 1.31715 8.25523 1.38448C8.33723 1.41848 8.41052 1.46718 8.47252 1.52918L13.1385 6.19519C13.3992 6.45586 13.3992 6.87724 13.1385 7.1379Z" fill="#3B3B3E"/>
</svg>
