<svg width="16" height="16" viewBox="0 0 16 16" fill="none" xmlns="http://www.w3.org/2000/svg">
<path d="M2.00097 7.8667C1.98297 7.8667 1.96434 7.86601 1.94567 7.86401C1.67101 7.83401 1.47301 7.58666 1.50301 7.31266C1.74501 5.10133 3.07966 3.19668 5.07299 2.21802C5.22766 2.14202 5.41165 2.15134 5.55765 2.24268C5.70432 2.33401 5.79365 2.49465 5.79365 2.66732V4.70068C5.79365 4.97668 5.56965 5.20068 5.29365 5.20068C5.01765 5.20068 4.79365 4.97668 4.79365 4.70068V3.54004C3.51165 4.43204 2.67097 5.83264 2.49763 7.42131C2.46963 7.67664 2.2523 7.8667 2.00097 7.8667ZM10.9276 13.782C12.921 12.804 14.2556 10.8993 14.4976 8.68734C14.5276 8.41267 14.3296 8.16599 14.055 8.13599C13.7776 8.10732 13.5337 8.30403 13.5037 8.57869C13.3303 10.1674 12.4896 11.568 11.2076 12.46V11.2993C11.2076 11.0233 10.9836 10.7993 10.7076 10.7993C10.4316 10.7993 10.2076 11.0233 10.2076 11.2993V13.3327C10.2076 13.5053 10.297 13.666 10.4436 13.7573C10.5243 13.8073 10.6156 13.8327 10.7076 13.8327C10.7823 13.8333 10.8576 13.8166 10.9276 13.782ZM13.3337 3V5.66667C13.3337 6.33333 13.0003 6.66667 12.3337 6.66667H8.33365C7.66699 6.66667 7.33365 6.33333 7.33365 5.66667V3C7.33365 2.33333 7.66699 2 8.33365 2H12.3337C13.0003 2 13.3337 2.33333 13.3337 3ZM11.167 4.33333C11.167 3.87333 10.7937 3.5 10.3337 3.5C9.87365 3.5 9.50032 3.87333 9.50032 4.33333C9.50032 4.79333 9.87365 5.16667 10.3337 5.16667C10.7937 5.16667 11.167 4.79333 11.167 4.33333ZM8.66699 10.3333V13C8.66699 13.6667 8.33365 14 7.66699 14H3.66699C3.00032 14 2.66699 13.6667 2.66699 13V10.3333C2.66699 9.66667 3.00032 9.33333 3.66699 9.33333H7.66699C8.33365 9.33333 8.66699 9.66667 8.66699 10.3333ZM6.50032 11.6667C6.50032 11.2067 6.12699 10.8333 5.66699 10.8333C5.20699 10.8333 4.83365 11.2067 4.83365 11.6667C4.83365 12.1267 5.20699 12.5 5.66699 12.5C6.12699 12.5 6.50032 12.1267 6.50032 11.6667Z" fill="#3B3B3E"/>
</svg>
