<svg width="16" height="16" viewBox="0 0 16 16" fill="none" xmlns="http://www.w3.org/2000/svg">
<path d="M9.83301 4V2.5L12.833 5.5H11.333C10.2797 5.5 9.83301 5.05333 9.83301 4ZM13.333 6.5V12C13.333 13.3333 12.6663 14 11.333 14H5.33301C3.99967 14 3.33301 13.3333 3.33301 12V4C3.33301 2.66667 3.99967 2 5.33301 2H8.83301V4C8.83301 5.61333 9.71967 6.5 11.333 6.5H13.333ZM10.4437 8.62134L9.28174 8.456C9.19707 8.444 9.1236 8.392 9.08626 8.31667L8.58301 7.318C8.48101 7.11534 8.18631 7.11534 8.08431 7.318L7.58105 8.31667C7.54305 8.392 7.46974 8.444 7.38574 8.456L6.22363 8.62134C6.0103 8.65134 5.92575 8.90867 6.07975 9.056L6.9196 9.85733C6.98093 9.916 7.00897 10.0007 6.9943 10.0833L6.80241 11.1793C6.76308 11.402 7.00173 11.572 7.20573 11.4673L8.21305 10.9493C8.28905 10.9107 8.37893 10.9107 8.45426 10.9493L9.4624 11.468C9.6664 11.5727 9.90441 11.4033 9.86507 11.1807L9.67301 10.0833C9.65835 10.0007 9.68639 9.916 9.74772 9.85733L10.5877 9.056C10.7417 8.90867 10.657 8.652 10.4437 8.62134Z" fill="#3B3B3E"/>
</svg>
