<svg width="16" height="16" viewBox="0 0 16 16" fill="none" xmlns="http://www.w3.org/2000/svg">
<path d="M14 6.5C13.7267 6.5 13.5 6.72667 13.5 7V7.5H12.302C12.2073 6.678 11.8827 5.92801 11.3947 5.31201L12.24 4.46663L12.5933 4.81999C12.6933 4.91332 12.82 4.96663 12.9467 4.96663C13.08 4.96663 13.2066 4.91332 13.3066 4.81999C13.5 4.61999 13.5 4.30661 13.3066 4.11328L11.8866 2.69336C11.6933 2.50003 11.38 2.50003 11.18 2.69336C10.9867 2.89336 10.9867 3.20674 11.18 3.40674L11.5334 3.75993L10.688 4.60531C10.072 4.11731 9.32133 3.79275 8.5 3.69808V2.5H9C9.27333 2.5 9.5 2.27333 9.5 2C9.5 1.72667 9.27333 1.5 9 1.5H7C6.72667 1.5 6.5 1.72667 6.5 2C6.5 2.27333 6.72667 2.5 7 2.5H7.5V3.69808C6.678 3.79275 5.92801 4.11731 5.31201 4.60531L4.46663 3.75993L4.81999 3.40674C5.01332 3.20674 5.01332 2.89336 4.81999 2.69336C4.61999 2.50003 4.3067 2.50003 4.11336 2.69336L2.69336 4.11328C2.50003 4.30661 2.50003 4.61999 2.69336 4.81999C2.79336 4.91332 2.91997 4.96663 3.0533 4.96663C3.17997 4.96663 3.30666 4.91332 3.40666 4.81999L3.76001 4.46663L4.60531 5.31201C4.11731 5.92801 3.79266 6.67867 3.698 7.5H2.5V7C2.5 6.72667 2.27333 6.5 2 6.5C1.72667 6.5 1.5 6.72667 1.5 7V9C1.5 9.27333 1.72667 9.5 2 9.5C2.27333 9.5 2.5 9.27333 2.5 9V8.5H3.698C3.79266 9.322 4.11731 10.072 4.60531 10.688L3.76001 11.5334L3.40666 11.18C3.20666 10.9867 2.89336 10.9867 2.69336 11.18C2.50003 11.38 2.50003 11.6934 2.69336 11.8867L4.11336 13.3066C4.2067 13.4 4.3333 13.4466 4.46663 13.4466C4.5933 13.4466 4.71999 13.4 4.81999 13.3066C5.01332 13.1066 5.01332 12.7933 4.81999 12.5933L4.46663 12.2401L5.31201 11.3947C5.92801 11.8827 6.67867 12.2073 7.5 12.3019V13.5H7C6.72667 13.5 6.5 13.7267 6.5 14C6.5 14.2733 6.72667 14.5 7 14.5H9C9.27333 14.5 9.5 14.2733 9.5 14C9.5 13.7267 9.27333 13.5 9 13.5H8.5V12.3019C9.322 12.2073 10.072 11.8827 10.688 11.3947L11.5334 12.2401L11.18 12.5933C10.9867 12.7933 10.9867 13.1066 11.18 13.3066C11.28 13.4 11.4067 13.4466 11.5334 13.4466C11.6667 13.4466 11.7933 13.4 11.8866 13.3066L13.3066 11.8867C13.5 11.6934 13.5 11.38 13.3066 11.18C13.1066 10.9867 12.7933 10.9867 12.5933 11.18L12.24 11.5334L11.3947 10.688C11.8827 10.072 12.2073 9.32133 12.302 8.5H13.5V9C13.5 9.27333 13.7267 9.5 14 9.5C14.2733 9.5 14.5 9.27333 14.5 9V7C14.5 6.72667 14.2733 6.5 14 6.5ZM6 8.83333C5.54 8.83333 5.16667 8.46 5.16667 8C5.16667 7.54 5.54 7.16667 6 7.16667C6.46 7.16667 6.83333 7.54 6.83333 8C6.83333 8.46 6.46 8.83333 6 8.83333ZM8.66667 9.83333C8.39067 9.83333 8.16667 9.60933 8.16667 9.33333C8.16667 9.05733 8.39067 8.83333 8.66667 8.83333C8.94267 8.83333 9.16667 9.05733 9.16667 9.33333C9.16667 9.60933 8.94267 9.83333 8.66667 9.83333ZM9.33333 7.33333C8.96533 7.33333 8.66667 7.03467 8.66667 6.66667C8.66667 6.29867 8.96533 6 9.33333 6C9.70133 6 10 6.29867 10 6.66667C10 7.03467 9.70133 7.33333 9.33333 7.33333Z" fill="#3B3B3E"/>
</svg>
