<svg width="16" height="16" viewBox="0 0 16 16" fill="none" xmlns="http://www.w3.org/2000/svg">
<path d="M13.3332 3.33366V10.0003C13.3332 10.3683 13.0352 10.667 12.6665 10.667C12.2979 10.667 11.9999 10.3683 11.9999 10.0003V4.94303L4.47122 12.4717C4.34122 12.6017 4.17053 12.667 3.99986 12.667C3.8292 12.667 3.65851 12.6017 3.52851 12.4717C3.26784 12.211 3.26784 11.7896 3.52851 11.529L11.0572 4.00033H5.99986C5.6312 4.00033 5.3332 3.70166 5.3332 3.33366C5.3332 2.96566 5.6312 2.66699 5.99986 2.66699H12.6665C12.7532 2.66699 12.8399 2.68493 12.9212 2.71826C13.0846 2.7856 13.2146 2.91561 13.2819 3.07894C13.3159 3.16027 13.3332 3.24699 13.3332 3.33366Z" fill="#3B3B3E"/>
</svg>
