<svg width="16" height="16" viewBox="0 0 16 16" fill="none" xmlns="http://www.w3.org/2000/svg">
<path d="M7.99967 1.33301C4.31767 1.33301 1.33301 4.31767 1.33301 7.99967C1.33301 11.6817 4.31767 14.6663 7.99967 14.6663C11.6817 14.6663 14.6663 11.6817 14.6663 7.99967C14.6663 4.31767 11.6817 1.33301 7.99967 1.33301ZM5.83301 10.6663C5.83301 10.9423 5.60901 11.1663 5.33301 11.1663C5.05701 11.1663 4.83301 10.9423 4.83301 10.6663V7.33301C4.83301 7.05701 5.05701 6.83301 5.33301 6.83301C5.60901 6.83301 5.83301 7.05701 5.83301 7.33301V10.6663ZM8.49967 10.6663C8.49967 10.9423 8.27567 11.1663 7.99967 11.1663C7.72367 11.1663 7.49967 10.9423 7.49967 10.6663V5.33301C7.49967 5.05701 7.72367 4.83301 7.99967 4.83301C8.27567 4.83301 8.49967 5.05701 8.49967 5.33301V10.6663ZM11.1663 10.6663C11.1663 10.9423 10.9423 11.1663 10.6663 11.1663C10.3903 11.1663 10.1663 10.9423 10.1663 10.6663V8.66634C10.1663 8.39034 10.3903 8.16634 10.6663 8.16634C10.9423 8.16634 11.1663 8.39034 11.1663 8.66634V10.6663Z" fill="#3B3B3E"/>
</svg>
