<svg width="16" height="16" viewBox="0 0 16 16" fill="none" xmlns="http://www.w3.org/2000/svg">
<path d="M9.49967 6.66634C9.49967 7.12567 9.12567 7.49967 8.66634 7.49967H7.16634V5.83301H8.66634C9.12567 5.83301 9.49967 6.20701 9.49967 6.66634ZM14.6663 7.99967C14.6663 11.6817 11.6817 14.6663 7.99967 14.6663C4.31767 14.6663 1.33301 11.6817 1.33301 7.99967C1.33301 4.31767 4.31767 1.33301 7.99967 1.33301C11.6817 1.33301 14.6663 4.31767 14.6663 7.99967ZM10.4997 6.66634C10.4997 5.65501 9.67767 4.83301 8.66634 4.83301H6.66634C6.39034 4.83301 6.16634 5.05701 6.16634 5.33301V10.6663C6.16634 10.9423 6.39034 11.1663 6.66634 11.1663C6.94234 11.1663 7.16634 10.9423 7.16634 10.6663V8.49967H8.66634C9.67767 8.49967 10.4997 7.67767 10.4997 6.66634Z" fill="#3B3B3E"/>
</svg>
