<svg width="16" height="16" viewBox="0 0 16 16" fill="none" xmlns="http://www.w3.org/2000/svg">
<path d="M8.5 4V2.5L11.5 5.5H10C8.94667 5.5 8.5 5.05333 8.5 4ZM8.93327 13.6933C9.0266 13.8267 8.9266 14 8.7666 14H4C2.66667 14 2 13.3333 2 12V4C2 2.66667 2.66667 2 4 2H7.5V4C7.5 5.61333 8.38667 6.5 10 6.5H12V9.31333C12 9.48667 11.7667 9.54667 11.6667 9.60667C11.3867 9.44 11.0466 9.33333 10.64 9.33333C9.92664 9.34 9.30672 9.62001 8.88672 10.1333C8.40672 10.7267 8.22672 11.56 8.39339 12.4267C8.48672 12.9 8.6866 13.3267 8.93327 13.6933ZM4.16667 8C4.16667 8.276 4.39067 8.5 4.66667 8.5H9.33333C9.60933 8.5 9.83333 8.276 9.83333 8C9.83333 7.724 9.60933 7.5 9.33333 7.5H4.66667C4.39067 7.5 4.16667 7.724 4.16667 8ZM7.83333 10.6667C7.83333 10.3907 7.60933 10.1667 7.33333 10.1667H4.66667C4.39067 10.1667 4.16667 10.3907 4.16667 10.6667C4.16667 10.9427 4.39067 11.1667 4.66667 11.1667H7.33333C7.60933 11.1667 7.83333 10.9427 7.83333 10.6667ZM12.7007 10.3333C11.9287 10.33 11.6693 11.0953 11.6693 11.0953C11.6693 11.0953 11.41 10.33 10.638 10.3333C9.60069 10.338 9.19338 11.29 9.38005 12.236C9.68471 13.778 11.6693 14.6667 11.6693 14.6667C11.6693 14.6667 13.6547 13.7787 13.9587 12.236C14.1453 11.29 13.74 10.338 12.7007 10.3333Z" fill="#3B3B3E"/>
</svg>
