<svg width="16" height="16" viewBox="0 0 16 16" fill="none" xmlns="http://www.w3.org/2000/svg">
<path d="M14.3532 2.35352L2.35321 14.3535C2.25587 14.4509 2.12785 14.5002 1.99985 14.5002C1.87185 14.5002 1.74383 14.4515 1.6465 14.3535C1.45117 14.1582 1.45117 13.8415 1.6465 13.6462L6.29319 8.99952H3.33319C3.19985 8.99952 3.07984 8.91953 3.0265 8.79953C2.97317 8.67953 2.99986 8.53953 3.08652 8.44619L9.08652 1.77953C9.17986 1.67286 9.31985 1.63953 9.45318 1.68619C9.57985 1.73953 9.66652 1.85952 9.66652 1.99952V5.62552L13.6465 1.64552C13.8418 1.45019 14.1585 1.45019 14.3539 1.64552C14.5485 1.84152 14.5485 2.15885 14.3532 2.35352ZM12.6665 7.00019H11.3332C11.2445 7.00019 11.1599 7.03552 11.0972 7.09752L6.43052 11.7642C6.36785 11.8269 6.33319 11.9115 6.33319 12.0002V14.0002C6.33319 14.1382 6.41784 14.2622 6.54718 14.3115C6.58651 14.3262 6.62652 14.3335 6.66652 14.3335C6.75919 14.3335 6.84986 14.2949 6.91453 14.2229L12.9145 7.55619C13.0025 7.45819 13.0252 7.31819 12.9712 7.19753C12.9172 7.07753 12.7979 7.00019 12.6665 7.00019Z" fill="#3B3B3E"/>
</svg>
