<svg width="16" height="16" viewBox="0 0 16 16" fill="none" xmlns="http://www.w3.org/2000/svg">
<path d="M2 14V4C2 2.66667 2.66667 2 4 2H12C13.3333 2 14 2.66667 14 4V10C14 11.3333 13.3333 12 12 12H4L2 14ZM8 4.33333C6.52733 4.33333 5.33333 5.52733 5.33333 7C5.33333 8.47267 6.52733 9.66667 8 9.66667C9.47267 9.66667 10.6667 8.47267 10.6667 7C10.6667 5.52733 9.47267 4.33333 8 4.33333ZM8.90267 7.43066L8.33333 6.86133V6C8.33333 5.816 8.184 5.66667 8 5.66667C7.816 5.66667 7.66667 5.816 7.66667 6V7C7.66667 7.08867 7.702 7.17334 7.764 7.236L8.43066 7.90267C8.496 7.968 8.58133 8 8.66667 8C8.752 8 8.83734 7.96734 8.90267 7.90267C9.03267 7.772 9.03267 7.56133 8.90267 7.43066Z" fill="#3B3B3E"/>
</svg>
