<svg width="16" height="16" viewBox="0 0 16 16" fill="none" xmlns="http://www.w3.org/2000/svg">
<path d="M2 8.453C2.51333 8.941 3.20734 9.35636 4.03601 9.66569C4.11334 9.69436 4.16667 9.76767 4.16667 9.85034V11.795C4.16667 11.9377 4.018 12.0384 3.88733 11.9817C2.72333 11.481 2 10.7057 2 9.66634V8.453ZM7.5 10.5083V12.443C7.5 12.557 7.40266 12.6503 7.28866 12.6457C6.58866 12.6183 5.92467 12.5397 5.32467 12.4137C5.23133 12.3943 5.16667 12.3103 5.16667 12.215V10.2597C5.16667 10.1324 5.28065 10.0403 5.40531 10.067C5.99798 10.1957 6.63799 10.2797 7.30933 10.311C7.41533 10.317 7.5 10.4023 7.5 10.5083ZM10.8333 10.2603V12.2157C10.8333 12.311 10.7693 12.395 10.6753 12.4143C10.0747 12.5403 9.41068 12.619 8.71134 12.6463C8.59734 12.651 8.5 12.5577 8.5 12.4437V10.509C8.5 10.403 8.58467 10.3177 8.69067 10.3123C9.36267 10.281 10.002 10.197 10.5947 10.0684C10.7194 10.041 10.8333 10.133 10.8333 10.2603ZM14 8.453V9.66634C14 10.7057 13.2767 11.481 12.1127 11.9817C11.982 12.0377 11.8333 11.937 11.8333 11.795V9.85034C11.8333 9.76767 11.8867 9.69436 11.964 9.66569C12.7927 9.35636 13.4867 8.941 14 8.453ZM2 6.33301C2 7.98967 4.686 9.33301 8 9.33301C11.314 9.33301 14 7.98967 14 6.33301C14 4.67634 11.314 3.33301 8 3.33301C4.686 3.33301 2 4.67634 2 6.33301Z" fill="#3B3B3E"/>
</svg>
