<svg width="16" height="16" viewBox="0 0 16 16" fill="none" xmlns="http://www.w3.org/2000/svg">
<path d="M12 2H4C2.66667 2 2 2.66667 2 4V9.33333C2 10.6667 2.66667 11.3333 4 11.3333H4.29334C4.41334 11.3333 4.51333 11.22 4.49333 11.1C4.43999 10.7667 4.36 10.44 4.25334 10.1067C3.50667 9.89334 2.99334 9.10667 3.22001 8.26C3.40001 7.6 4.04001 7.16667 4.72001 7.16667H4.83333V5.66667C4.83333 4.84 5.50667 4.16667 6.33333 4.16667H9.66667C10.4933 4.16667 11.1667 4.84 11.1667 5.66667V7.16667H11.28C11.9667 7.16667 12.6 7.6 12.78 8.26C13.0067 9.10667 12.5 9.89334 11.7467 10.1067C11.6467 10.44 11.56 10.7667 11.5067 11.1C11.4867 11.22 11.5867 11.3333 11.7067 11.3333H12C13.3333 11.3333 14 10.6667 14 9.33333V4C14 2.66667 13.3333 2 12 2ZM10.1667 5.66667C10.1667 5.39333 9.94 5.16667 9.66667 5.16667H6.33333C6.06 5.16667 5.83333 5.39333 5.83333 5.66667V7.16667H10.1667V5.66667ZM9.66667 5.16667H6.33333C6.06 5.16667 5.83333 5.39333 5.83333 5.66667V6.96666C5.83333 7.08 5.91999 7.16667 6.03333 7.16667H9.96668C10.08 7.16667 10.1667 7.08 10.1667 6.96666V5.66667C10.1667 5.39333 9.94 5.16667 9.66667 5.16667V5.16667ZM11.3333 8.16667H4.66667C4.39333 8.16667 4.16667 8.39333 4.16667 8.66667C4.16667 8.94 4.39333 9.16667 4.66667 9.16667H4.98665C5.57332 10.74 5.70667 11.9933 5.50667 13.9467C5.48001 14.22 5.67333 14.4667 5.95333 14.5H6C6.25333 14.5 6.47333 14.3067 6.5 14.0533C6.53333 13.74 6.55332 13.4467 6.57332 13.1667H7.5V14C7.5 14.2733 7.72667 14.5 8 14.5C8.27333 14.5 8.5 14.2733 8.5 14V13.1667H9.43335C9.45335 13.4467 9.47334 13.74 9.50667 14.0533C9.53334 14.3067 9.74667 14.5 10 14.5H10.0533C10.3267 14.4667 10.5267 14.22 10.5 13.9467C10.3 11.9933 10.4333 10.74 11.0133 9.16667H11.3333C11.6133 9.16667 11.8333 8.94 11.8333 8.66667C11.8333 8.39333 11.6133 8.16667 11.3333 8.16667V8.16667ZM7.5 12.1667H6.58667C6.58 11.82 6.56665 11.4867 6.52665 11.1667H7.5V12.1667ZM7.5 10.1667H6.34001C6.26667 9.84 6.17334 9.50667 6.05334 9.16667H7.5V10.1667ZM9.41333 12.1667H8.5V11.1667H9.47998C9.43998 11.4867 9.42 11.82 9.41333 12.1667ZM9.66667 10.1667H8.5V9.16667H9.94666C9.83332 9.50667 9.74 9.84 9.66667 10.1667Z" fill="#3B3B3E"/>
</svg>
