<svg width="16" height="16" viewBox="0 0 16 16" fill="none" xmlns="http://www.w3.org/2000/svg">
<path d="M7.99967 1.33301C4.31767 1.33301 1.33301 4.31767 1.33301 7.99967C1.33301 11.6817 4.31767 14.6663 7.99967 14.6663C11.6817 14.6663 14.6663 11.6817 14.6663 7.99967C14.6663 4.31767 11.6817 1.33301 7.99967 1.33301ZM7.49967 11.333C7.49967 11.535 7.37775 11.7178 7.19108 11.7951C7.12908 11.8211 7.06434 11.833 6.99967 11.833C6.86967 11.833 6.74165 11.7824 6.64632 11.6864L4.64632 9.68636C4.45099 9.49103 4.45099 9.17434 4.64632 8.979C4.84165 8.78367 5.15834 8.78367 5.35368 8.979L6.50033 10.1257V5.99967C6.50033 5.72367 6.72433 5.49967 7.00033 5.49967C7.27633 5.49967 7.50033 5.72367 7.50033 5.99967V11.333H7.49967ZM11.353 7.01969C11.1577 7.21503 10.841 7.21503 10.6457 7.01969L9.49902 5.87305V9.99967C9.49902 10.2757 9.27502 10.4997 8.99902 10.4997C8.72302 10.4997 8.49902 10.2757 8.49902 9.99967V4.66634C8.49902 4.46434 8.62095 4.2816 8.80762 4.20426C8.99428 4.12693 9.20971 4.16965 9.35238 4.31299L11.3524 6.31299C11.5484 6.50832 11.5484 6.82436 11.353 7.01969Z" fill="#3B3B3E"/>
</svg>
