<svg width="16" height="16" viewBox="0 0 16 16" fill="none" xmlns="http://www.w3.org/2000/svg">
<path d="M12 2H4C2.66667 2 2 2.66667 2 4V14L4 12H12C13.3333 12 14 11.3333 14 10V4C14 2.66667 13.3333 2 12 2ZM10.6167 6.86198C10.2687 8.64131 8 9.66602 8 9.66602C8 9.66602 5.7313 8.64131 5.3833 6.86198C5.16997 5.77065 5.63597 4.672 6.82064 4.66667C7.7033 4.66267 7.99935 5.54533 7.99935 5.54533C7.99935 5.54533 8.29539 4.662 9.17806 4.66667C10.3661 4.67267 10.83 5.77065 10.6167 6.86198Z" fill="#3B3B3E"/>
</svg>
