<svg width="16" height="16" viewBox="0 0 16 16" fill="none" xmlns="http://www.w3.org/2000/svg">
<path d="M13.5942 11.7918C13.6742 11.8918 13.6895 12.0292 13.6342 12.1445C13.5788 12.2598 13.4622 12.3332 13.3335 12.3332H6.66684C6.53218 12.3332 6.41019 12.2518 6.35886 12.1272C6.30686 12.0025 6.33551 11.8592 6.43084 11.7638L11.7642 6.4305C11.8602 6.3345 12.0028 6.3065 12.1275 6.3585C12.2522 6.40983 12.3335 6.53183 12.3335 6.6665V8.33317C12.3335 10.1945 13.5815 11.7758 13.5942 11.7918ZM14.3535 1.6465C14.1582 1.45117 13.8415 1.45117 13.6462 1.6465L11.6388 3.65383C10.8468 2.43317 9.48352 1.6665 7.99818 1.6665C5.61152 1.6665 3.66485 3.61317 3.66485 5.99983V8.33317C3.66485 10.1865 2.41817 11.7732 2.40484 11.7932C2.32484 11.8932 2.31151 12.0265 2.36484 12.1465C2.41818 12.2598 2.53818 12.3332 2.66485 12.3332H2.95884L1.64552 13.6465C1.45019 13.8418 1.45019 14.1585 1.64552 14.3538C1.74286 14.4512 1.87084 14.5005 1.99884 14.5005C2.12684 14.5005 2.25486 14.4518 2.35219 14.3538L14.3522 2.35384C14.5489 2.1585 14.5489 1.84117 14.3535 1.6465ZM9.1535 12.9998H6.84686C6.72752 12.9998 6.61751 13.0638 6.55751 13.1672C6.49751 13.2705 6.49885 13.3985 6.55885 13.5012C6.86285 14.0218 7.40151 14.3332 8.00018 14.3332C8.59884 14.3332 9.1375 14.0218 9.4415 13.5012C9.5015 13.3985 9.50218 13.2705 9.44285 13.1672C9.38351 13.0638 9.27283 12.9998 9.1535 12.9998Z" fill="#3B3B3E"/>
</svg>
