<svg width="16" height="16" viewBox="0 0 16 16" fill="none" xmlns="http://www.w3.org/2000/svg">
<path d="M11.3337 2H4.66699C3.33366 2 2.66699 2.66667 2.66699 4V12.414C2.66699 12.9633 3.29431 13.2767 3.73364 12.9473L4.63965 12.268C5.03765 11.9693 5.59502 12.0093 5.94702 12.3607L7.29297 13.7067C7.68364 14.0973 8.31703 14.0973 8.70703 13.7067L10.053 12.3607C10.405 12.0087 10.9624 11.9693 11.3604 12.268L12.2664 12.9473C12.7057 13.2767 13.333 12.9633 13.333 12.414V4C13.3337 2.66667 12.667 2 11.3337 2ZM5.33366 9.16667C5.05766 9.16667 4.83366 8.94267 4.83366 8.66667C4.83366 8.39067 5.05766 8.16667 5.33366 8.16667C5.60966 8.16667 5.83366 8.39067 5.83366 8.66667C5.83366 8.94267 5.60966 9.16667 5.33366 9.16667ZM5.33366 6.5C5.05766 6.5 4.83366 6.276 4.83366 6C4.83366 5.724 5.05766 5.5 5.33366 5.5C5.60966 5.5 5.83366 5.724 5.83366 6C5.83366 6.276 5.60966 6.5 5.33366 6.5ZM10.667 9.16667H7.33366C7.05766 9.16667 6.83366 8.94267 6.83366 8.66667C6.83366 8.39067 7.05766 8.16667 7.33366 8.16667H10.667C10.943 8.16667 11.167 8.39067 11.167 8.66667C11.167 8.94267 10.943 9.16667 10.667 9.16667ZM10.667 6.5H7.33366C7.05766 6.5 6.83366 6.276 6.83366 6C6.83366 5.724 7.05766 5.5 7.33366 5.5H10.667C10.943 5.5 11.167 5.724 11.167 6C11.167 6.276 10.943 6.5 10.667 6.5Z" fill="#3B3B3E"/>
</svg>
