<svg width="16" height="16" viewBox="0 0 16 16" fill="none" xmlns="http://www.w3.org/2000/svg">
<path d="M13.8 6.5H2.20003C2.08937 6.5 2 6.58937 2 6.70003V12C2 13.3333 2.66667 14 4 14H12C13.3333 14 14 13.3333 14 12V6.70003C14 6.58937 13.9106 6.5 13.8 6.5ZM6.88737 12.5H5.50065V11.1133L7.97396 8.62663L9.37402 10.0267L6.88737 12.5ZM10.3333 9.06608L9.84001 9.55941L8.43994 8.15934L8.93327 7.66602C9.1466 7.44602 9.50005 7.44601 9.72005 7.65934L10.34 8.2793C10.554 8.49996 10.554 8.85275 10.3333 9.06608ZM14 5V5.29997C14 5.41063 13.9106 5.5 13.8 5.5H2.20003C2.08937 5.5 2 5.41063 2 5.29997V5C2 3.66667 2.66667 3 4 3H4.83333V2C4.83333 1.72667 5.06 1.5 5.33333 1.5C5.60667 1.5 5.83333 1.72667 5.83333 2V3H10.1667V2C10.1667 1.72667 10.3933 1.5 10.6667 1.5C10.94 1.5 11.1667 1.72667 11.1667 2V3H12C13.3333 3 14 3.66667 14 5Z" fill="#3B3B3E"/>
</svg>
