<svg width="16" height="16" viewBox="0 0 16 16" fill="none" xmlns="http://www.w3.org/2000/svg">
<path d="M14.5 4V12C14.5 12.276 14.276 12.5 14 12.5C13.724 12.5 13.5 12.276 13.5 12V9.0306L10.096 11.7194C9.24536 12.3914 8 11.7807 8 10.6914V8.0127C7.99667 8.39203 7.83067 8.76933 7.50334 9.02799L4.09603 11.7194C3.24536 12.3914 2 11.7807 2 10.6914V5.30859C2 4.21926 3.2447 3.6086 4.09603 4.2806L7.50334 6.97135C7.83067 7.23002 7.99667 7.60862 8 7.98796V5.30859C8 4.21926 9.2447 3.6086 10.096 4.2806L13.5 6.9694V4C13.5 3.724 13.724 3.5 14 3.5C14.276 3.5 14.5 3.724 14.5 4Z" fill="#3B3B3E"/>
</svg>
