<svg width="16" height="16" viewBox="0 0 16 16" fill="none" xmlns="http://www.w3.org/2000/svg">
<path d="M12.2738 2.42699C12.1138 2.26033 11.8938 2.16699 11.6671 2.16699H4.33379C4.10712 2.16699 3.88714 2.26033 3.72714 2.42699C3.56714 2.59366 3.48712 2.82033 3.50046 3.047L4.02711 11.487C4.11378 12.887 5.17378 13.827 6.66045 13.827H9.32712C10.8138 13.827 11.8738 12.887 11.9605 11.4803L12.4938 3.04032C12.5071 2.81366 12.4271 2.58699 12.2671 2.41366L12.2738 2.42699ZM11.4938 3.16699L11.3405 5.65366C10.9138 5.78032 9.89379 5.96032 8.12712 5.52032C6.57379 5.13366 5.35378 5.24032 4.65378 5.37366L4.5138 3.17366H11.4938V3.16699Z" fill="#3B3B3E"/>
</svg>
