<svg width="16" height="16" viewBox="0 0 16 16" fill="none" xmlns="http://www.w3.org/2000/svg">
<path d="M14 6.99967V11.6663C14 12.7797 13.4467 13.333 12.3333 13.333H5.66667C4.77333 13.333 4.23999 12.9797 4.07332 12.2597C4.24666 12.313 4.44667 12.333 4.66667 12.333H11.3333C12.4467 12.333 13 11.7797 13 10.6663V5.99967C13 5.77967 12.98 5.57966 12.9267 5.40633C13.6467 5.573 14 6.10634 14 6.99967ZM12 4.99967V9.66634C12 10.7777 11.4447 11.333 10.3333 11.333H3.66667C2.55533 11.333 2 10.7777 2 9.66634V4.99967C2 3.88834 2.55533 3.33301 3.66667 3.33301H10.3333C11.4447 3.33301 12 3.88834 12 4.99967ZM4.33333 7.33236C4.33333 6.96436 4.03467 6.66569 3.66667 6.66569C3.29867 6.66569 3 6.96436 3 7.33236C3 7.70036 3.29867 7.99902 3.66667 7.99902C4.03467 7.99902 4.33333 7.70102 4.33333 7.33236ZM8.66667 7.33301C8.66667 6.41234 7.92067 5.66634 7 5.66634C6.07933 5.66634 5.33333 6.41234 5.33333 7.33301C5.33333 8.25367 6.07933 8.99967 7 8.99967C7.92067 8.99967 8.66667 8.25367 8.66667 7.33301ZM11 7.33236C11 6.96436 10.7013 6.66569 10.3333 6.66569C9.96533 6.66569 9.66667 6.96436 9.66667 7.33236C9.66667 7.70036 9.96533 7.99902 10.3333 7.99902C10.7013 7.99902 11 7.70102 11 7.33236Z" fill="#3B3B3E"/>
</svg>
