<svg width="16" height="16" viewBox="0 0 16 16" fill="none" xmlns="http://www.w3.org/2000/svg">
<path d="M5.58634 6.28634C5.57301 6.27967 5.56635 6.26635 5.55302 6.25968L2.953 3.65299C1.93967 4.81966 1.33301 6.33967 1.33301 7.99967C1.33301 9.65967 1.93967 11.1797 2.953 12.3464L5.55302 9.73966C5.55969 9.72633 5.57301 9.71968 5.58634 9.71301C5.24634 9.23301 5.03967 8.63301 5.03967 7.99967C5.03967 7.36634 5.24634 6.76634 5.58634 6.28634ZM7.99967 1.33301C6.33967 1.33301 4.82633 1.93966 3.65967 2.94633L6.25968 5.55302C6.27302 5.56635 6.27967 5.57968 6.28634 5.59302C6.76634 5.24635 7.35967 5.03967 7.99967 5.03967C8.63967 5.03967 9.23302 5.24634 9.71969 5.58634C9.72635 5.57301 9.733 5.56635 9.74634 5.55302L12.3464 2.94633C11.1864 1.93966 9.66634 1.33301 7.99967 1.33301ZM13.053 3.65299L10.453 6.25968C10.4397 6.26635 10.433 6.27967 10.4197 6.28634C10.7597 6.76634 10.9663 7.36634 10.9663 7.99967C10.9663 8.63301 10.7597 9.23301 10.4197 9.71301C10.433 9.71968 10.4397 9.72633 10.453 9.73966L13.053 12.3464C14.0597 11.1797 14.6663 9.65967 14.6663 7.99967C14.6663 6.33967 14.0597 4.81966 13.053 3.65299ZM9.71969 10.413C9.23302 10.753 8.63967 10.9597 7.99967 10.9597C7.35967 10.9597 6.76634 10.753 6.28634 10.4063C6.27967 10.4197 6.27302 10.433 6.25968 10.4463L3.65967 13.053C4.82633 14.0597 6.33967 14.6663 7.99967 14.6663C9.66634 14.6663 11.1864 14.0597 12.3464 13.053L9.74634 10.4463C9.733 10.433 9.72635 10.4263 9.71969 10.413Z" fill="#3B3B3E"/>
</svg>
