<svg width="16" height="16" viewBox="0 0 16 16" fill="none" xmlns="http://www.w3.org/2000/svg">
<path d="M7.99967 1.33301C4.31767 1.33301 1.33301 4.31767 1.33301 7.99967C1.33301 11.6817 4.31767 14.6663 7.99967 14.6663C11.6817 14.6663 14.6663 11.6817 14.6663 7.99967C14.6663 4.31767 11.6817 1.33301 7.99967 1.33301ZM11.3463 7.88835C11.2537 7.88835 11.1657 7.87166 11.0803 7.84766L10.0837 8.8444C10.107 8.92973 10.1237 9.01768 10.1237 9.11035C10.1237 9.66302 9.67634 10.1104 9.12368 10.1104C8.57101 10.1104 8.12034 9.66302 8.12034 9.11035C8.12034 9.02435 8.13434 8.94165 8.15501 8.86165L7.14701 7.85433C7.06768 7.87433 6.98634 7.88835 6.90167 7.88835C6.80901 7.88835 6.72101 7.87164 6.63568 7.84831L5.63902 8.8444C5.66235 8.92973 5.67902 9.01768 5.67902 9.11035C5.67902 9.66302 5.23168 10.1104 4.67902 10.1104C4.12635 10.1104 3.67568 9.66302 3.67568 9.11035C3.67568 8.55768 4.12034 8.11035 4.67234 8.11035H4.67902C4.76435 8.11035 4.84567 8.12437 4.92501 8.14437L5.933 7.13631C5.91234 7.05698 5.89834 6.97435 5.89834 6.88835C5.89834 6.33568 6.343 5.88835 6.895 5.88835H6.90167C7.45434 5.88835 7.90167 6.33568 7.90167 6.88835C7.90167 6.98101 7.88501 7.06904 7.86167 7.15438L8.85634 8.14909C8.93968 8.12642 9.02634 8.11035 9.117 8.11035H9.12368C9.20901 8.11035 9.29034 8.12437 9.36967 8.14437L10.3777 7.13631C10.357 7.05631 10.343 6.97435 10.343 6.88835C10.343 6.33568 10.7877 5.88835 11.3397 5.88835H11.3463C11.899 5.88835 12.3463 6.33568 12.3463 6.88835C12.3463 7.44101 11.899 7.88835 11.3463 7.88835Z" fill="#3B3B3E"/>
</svg>
