<svg width="16" height="16" viewBox="0 0 16 16" fill="none" xmlns="http://www.w3.org/2000/svg">
<path d="M13.9997 5.00002H11.7703L12.313 2.82802C12.4023 2.47068 12.185 2.10868 11.8277 2.01934C11.4717 1.93134 11.1083 2.14667 11.019 2.50467L10.395 4.99934H7.10301L7.64567 2.82735C7.735 2.47001 7.51767 2.10803 7.16034 2.01869C6.80434 1.93069 6.44101 2.14602 6.35167 2.50402L5.72767 4.99867H3.33301C2.96501 4.99867 2.66634 5.29734 2.66634 5.66534C2.66634 6.03334 2.96501 6.33201 3.33301 6.33201H5.39567L4.56234 9.66534H1.99967C1.63167 9.66534 1.33301 9.96401 1.33301 10.332C1.33301 10.7 1.63167 10.9987 1.99967 10.9987H4.22901L3.68634 13.1707C3.59701 13.528 3.81434 13.89 4.17168 13.9793C4.22634 13.9927 4.28034 13.9993 4.33434 13.9993C4.63301 13.9993 4.90434 13.7973 4.98034 13.494L5.60434 10.9993H8.89634L8.35368 13.1713C8.26434 13.5287 8.48168 13.8907 8.83901 13.98C8.89368 13.9933 8.94768 14 9.00168 14C9.30034 14 9.57167 13.798 9.64767 13.4947L10.2717 11H12.6663C13.0343 11 13.333 10.7013 13.333 10.3333C13.333 9.96535 13.0343 9.66668 12.6663 9.66668H10.6037L11.437 6.33335H13.9997C14.3677 6.33335 14.6663 6.03468 14.6663 5.66668C14.6663 5.29868 14.3677 5.00002 13.9997 5.00002ZM9.229 9.66668H5.93701L6.77034 6.33335H10.0623L9.229 9.66668Z" fill="#3B3B3E"/>
</svg>
