<svg width="16" height="16" viewBox="0 0 16 16" fill="none" xmlns="http://www.w3.org/2000/svg">
<path d="M11.3063 8.66699C11.713 8.66699 12.053 8.77366 12.333 8.94033C12.5623 8.80633 12.833 8.70966 13.1463 8.67766C13.2503 8.667 13.333 8.58633 13.333 8.48233V4.66699C13.333 3.33366 12.6663 2.66699 11.333 2.66699H3.33301C1.99967 2.66699 1.33301 3.33366 1.33301 4.66699V10.667C1.33301 12.0003 1.99967 12.667 3.33301 12.667H9.06641C9.25107 12.667 9.29972 12.5023 9.26172 12.4163C9.17305 12.213 9.1064 11.997 9.05973 11.767C8.89307 10.8937 9.07306 10.0603 9.55306 9.46699C9.97306 8.95366 10.593 8.66699 11.3063 8.66699ZM8.01904 8.11966C7.81371 8.26899 7.57301 8.34366 7.33301 8.34366C7.09301 8.34366 6.85164 8.26899 6.64697 8.12032L3.3724 5.73832C3.14906 5.57632 3.0997 5.263 3.26237 5.03966C3.42437 4.81766 3.7356 4.76632 3.96094 4.92966L7.23568 7.31099C7.29434 7.35299 7.37232 7.35366 7.43099 7.31099L10.7057 4.92966C10.9304 4.76632 11.2423 4.817 11.4043 5.03966C11.567 5.263 11.5176 5.57566 11.2943 5.73832L8.01904 8.11966ZM14.625 11.5697C14.321 13.1117 12.3356 14.0003 12.3356 14.0003C12.3356 14.0003 10.3504 13.1123 10.0464 11.5697C9.85972 10.6237 10.2677 9.67166 11.3044 9.66699C12.0764 9.66366 12.3356 10.429 12.3356 10.429C12.3356 10.429 12.595 9.66366 13.367 9.66699C14.4064 9.67166 14.8117 10.6237 14.625 11.5697Z" fill="#3B3B3E"/>
</svg>
