<svg width="16" height="16" viewBox="0 0 16 16" fill="none" xmlns="http://www.w3.org/2000/svg">
<path d="M3.33333 4.66634C3.33333 3.93301 3.93333 3.33301 4.66667 3.33301H11.3333C12.0667 3.33301 12.6667 3.93301 12.6667 4.66634C11.5667 4.66634 10.6667 5.56634 10.6667 6.66634V8.46635C10.6667 8.57702 10.5773 8.66634 10.4667 8.66634H5.53333C5.42266 8.66634 5.33333 8.57702 5.33333 8.46635V6.66634C5.33333 5.56634 4.43333 4.66634 3.33333 4.66634ZM12.4427 5.35301C11.7873 5.45967 11.3333 6.07501 11.3333 6.73901V9.13434C11.3333 9.245 11.244 9.33435 11.1333 9.33435H4.86666C4.75599 9.33435 4.66667 9.245 4.66667 9.13434V6.73901C4.66667 6.07501 4.21267 5.459 3.55733 5.35234C2.722 5.21634 2 5.85768 2 6.66768V10.001C2 11.333 2.66667 12.001 4 12.001H4.83333V12.6663C4.83333 12.9463 5.06 13.1663 5.33333 13.1663C5.60667 13.1663 5.83333 12.9463 5.83333 12.6663V12.001H10.1667V12.6663C10.1667 12.9463 10.3933 13.1663 10.6667 13.1663C10.94 13.1663 11.1667 12.9463 11.1667 12.6663V12.001H12C13.3333 12.001 14 11.333 14 10.001V6.66768C14 5.85835 13.278 5.21701 12.4427 5.35301Z" fill="#3B3B3E"/>
</svg>
