<svg width="16" height="16" viewBox="0 0 16 16" fill="none" xmlns="http://www.w3.org/2000/svg">
<path d="M14.3537 5.90869L12.1317 8.1307C12.0343 8.22803 11.9063 8.27734 11.7783 8.27734C11.6503 8.27734 11.5223 8.2287 11.425 8.1307L10.3136 7.01937C10.1183 6.8247 10.1183 6.50735 10.3136 6.31201C10.509 6.11668 10.8257 6.11668 11.021 6.31201L11.779 7.06934L13.6476 5.20068C13.843 5.00535 14.1596 5.00535 14.355 5.20068C14.5503 5.39602 14.549 5.71336 14.3537 5.90869ZM6.67301 6.99935C8.14368 6.99935 9.33968 5.80335 9.33968 4.33268C9.33968 2.86202 8.14368 1.66602 6.67301 1.66602C5.20235 1.66602 4.00635 2.86202 4.00635 4.33268C4.00635 5.80335 5.20235 6.99935 6.67301 6.99935ZM8.00033 8.33268H5.33366C2.62699 8.33268 1.66699 10.3147 1.66699 12.012V13.9993C1.66699 14.1833 1.81633 14.3327 2.00033 14.3327H11.3337C11.5177 14.3327 11.667 14.1833 11.667 13.9993V12.012C11.667 10.3147 10.707 8.33268 8.00033 8.33268Z" fill="#3B3B3E"/>
</svg>
