<svg width="16" height="16" viewBox="0 0 16 16" fill="none" xmlns="http://www.w3.org/2000/svg">
<path d="M5.94633 1.65968C6.593 1.44634 7.27967 1.33301 7.99967 1.33301C9.71967 1.33301 11.2864 1.99301 12.473 3.06635C11.3997 4.08635 10.1597 4.91301 8.79968 5.54635C8.01968 4.13301 7.06633 2.82634 5.94633 1.65968V1.65968ZM7.87301 5.93968C7.10634 4.57301 6.17967 3.313 5.07967 2.193C5.03967 2.153 5.01967 2.10634 4.993 2.05967C3.18633 2.97301 1.85302 4.68634 1.46635 6.73967C3.73968 6.99301 5.853 6.69968 7.86633 5.93968H7.87301ZM9.25968 6.433C9.45968 6.84634 9.64632 7.25968 9.81299 7.67968C11.4263 7.37968 13.0997 7.47301 14.6663 7.95968C14.6597 6.37301 14.093 4.92634 13.1597 3.79301C12.0197 4.87968 10.7064 5.75967 9.25968 6.433ZM8.83301 7.91968C8.68634 7.55301 8.51968 7.18634 8.33968 6.82634C6.62635 7.48634 4.83967 7.83301 2.99967 7.83301C2.45967 7.83301 1.90635 7.79967 1.34635 7.73967C1.34635 7.82634 1.33301 7.91301 1.33301 7.99967C1.33301 9.67967 1.95966 11.213 2.98633 12.3863C4.30633 10.213 6.40634 8.61968 8.83301 7.91968V7.91968ZM14.493 8.953C13.1063 8.49967 11.6063 8.39301 10.1597 8.63301C10.733 10.313 11.0664 12.073 11.1397 13.8663C12.9664 12.8863 14.273 11.093 14.5797 8.95968C14.553 8.95968 14.5197 8.95967 14.493 8.94634V8.953ZM10.153 14.133C10.1063 12.3263 9.77302 10.5597 9.17969 8.86634C6.92635 9.49968 4.96636 10.9863 3.76636 13.0263C3.74636 13.053 3.71966 13.073 3.69299 13.093C4.85299 14.0797 6.353 14.6797 7.993 14.6797C8.76633 14.6797 9.49969 14.5463 10.1864 14.2997C10.1664 14.2463 10.153 14.193 10.1463 14.133H10.153Z" fill="#3B3B3E"/>
</svg>
