<svg width="16" height="16" viewBox="0 0 16 16" fill="none" xmlns="http://www.w3.org/2000/svg">
<path d="M9.21997 6.28768C9.1813 6.22635 9.18399 6.14903 9.21932 6.08569C9.50932 5.56836 9.67399 4.97101 9.67399 4.33301C9.67399 4.11167 9.65463 3.89566 9.61597 3.68433C9.6033 3.61499 9.62463 3.54299 9.67863 3.49699C10.0486 3.18299 10.5274 2.99967 11.0407 2.99967C12.452 2.99967 13.552 4.36698 13.0854 5.83431C12.8827 6.47098 12.3627 6.98768 11.7247 7.18701C10.692 7.50968 9.71064 7.06768 9.21997 6.28768ZM12.0733 8.18701H10.752C10.5747 8.18701 10.4833 8.40232 10.612 8.52498C11.5586 9.42632 12.0007 10.7257 12.0007 12.0137V12.8003C12.0007 12.911 12.09 13.0003 12.2007 13.0003H14.6673C14.8513 13.0003 15.0007 12.851 15.0007 12.667V11.1204C15 9.76703 14.2333 8.18701 12.0733 8.18701ZM6.00602 7.00033C7.47669 7.00033 8.67269 5.80433 8.67269 4.33366C8.67269 2.86299 7.47669 1.66699 6.00602 1.66699C4.53536 1.66699 3.33936 2.86299 3.33936 4.33366C3.33936 5.80433 4.53536 7.00033 6.00602 7.00033ZM7.33333 8.33366H4.66667C1.96 8.33366 1 10.3157 1 12.013V14.0003C1 14.1843 1.14933 14.3337 1.33333 14.3337H10.6667C10.8507 14.3337 11 14.1843 11 14.0003V12.013C11 10.3157 10.04 8.33366 7.33333 8.33366Z" fill="#3B3B3E"/>
</svg>
