<svg width="16" height="16" viewBox="0 0 16 16" fill="none" xmlns="http://www.w3.org/2000/svg">
<g clip-path="url(#clip0_36251_7513)">
<path d="M4.00635 4.33268C4.00635 2.86202 5.20235 1.66602 6.67301 1.66602C8.14368 1.66602 9.33968 2.86202 9.33968 4.33268C9.33968 5.80335 8.14368 6.99935 6.67301 6.99935C5.20235 6.99935 4.00635 5.80335 4.00635 4.33268ZM9.94035 10.2727C10.147 10.0594 10.4137 9.91937 10.7004 9.85937C10.727 9.85937 10.7537 9.85269 10.7804 9.84603C10.8537 9.81269 10.9003 9.74601 10.9003 9.65934C10.9003 9.63268 10.8936 9.60602 10.887 9.58602C10.8736 9.55935 10.8603 9.53937 10.8403 9.51937C10.2603 8.82603 9.34699 8.33268 8.00033 8.33268H5.33366C2.62699 8.33268 1.66699 10.3127 1.66699 12.0127C1.66699 13.5327 2.47366 14.3327 4.00033 14.3327H8.07365C8.18032 14.3327 8.27368 14.246 8.27368 14.1326C8.27368 14.0626 8.2137 13.9927 8.20703 13.986C7.96036 13.7127 7.83366 13.366 7.83366 12.9993C7.83366 12.5993 7.98702 12.2194 8.27368 11.9394L9.94035 10.2727ZM15.0223 12.646L13.3556 10.9793C13.1603 10.784 12.8437 10.784 12.6484 10.9793C12.453 11.1747 12.453 11.4914 12.6484 11.6867L13.9617 13L12.6484 14.3133C12.453 14.5086 12.453 14.8253 12.6484 15.0207C12.7457 15.118 12.8736 15.1673 13.0016 15.1673C13.1296 15.1673 13.2576 15.1187 13.355 15.0207L15.0216 13.354C15.2176 13.1573 15.2176 12.8413 15.0223 12.646ZM11.3556 10.9793C11.1603 10.784 10.8437 10.784 10.6484 10.9793L8.98169 12.646C8.78636 12.8413 8.78636 13.158 8.98169 13.3534L10.6484 15.02C10.7457 15.1174 10.8736 15.1667 11.0016 15.1667C11.1296 15.1667 11.2576 15.118 11.355 15.02C11.5503 14.8247 11.5503 14.508 11.355 14.3127L10.0417 12.9993L11.355 11.686C11.551 11.4907 11.551 11.1747 11.3556 10.9793Z" fill="#3B3B3E"/>
</g>
<defs>
<clipPath id="clip0_36251_7513">
<rect width="16" height="16" fill="white"/>
</clipPath>
</defs>
</svg>
