<svg width="16" height="16" viewBox="0 0 16 16" fill="none" xmlns="http://www.w3.org/2000/svg">
<path d="M11.1385 5.80489C11.0085 5.93489 10.8378 6.00021 10.6672 6.00021C10.4965 6.00021 10.3258 5.93489 10.1958 5.80489L8.66718 4.27625V13.3335C8.66718 13.7015 8.36918 14.0002 8.00051 14.0002C7.63185 14.0002 7.33385 13.7015 7.33385 13.3335V4.27625L5.8052 5.80489C5.54453 6.06556 5.12316 6.06556 4.86249 5.80489C4.60183 5.54423 4.60183 5.12285 4.86249 4.86219L7.52851 2.19617C7.59051 2.13417 7.66379 2.08548 7.74579 2.05148C7.90846 1.98414 8.09257 1.98414 8.25523 2.05148C8.33723 2.08548 8.41052 2.13417 8.47252 2.19617L11.1385 4.86219C11.3992 5.12285 11.3992 5.54423 11.1385 5.80489Z" fill="#3B3B3E"/>
</svg>
