<svg width="16" height="16" viewBox="0 0 16 16" fill="none" xmlns="http://www.w3.org/2000/svg">
<path d="M11.75 2H4.25C2.75 2 2 2.75 2 4.25V11.75C2 13.25 2.75 14 4.25 14H11.75C13.25 14 14 13.25 14 11.75V4.25C14 2.75 13.25 2 11.75 2ZM4.31331 7.02132C4.26731 6.97532 4.23139 6.92134 4.20605 6.86068C4.18072 6.80001 4.16732 6.73464 4.16732 6.66797C4.16732 6.6013 4.18139 6.53593 4.20605 6.47526C4.23139 6.41459 4.26798 6.35996 4.31331 6.31396L5.42464 5.20264C5.61998 5.0073 5.93667 5.0073 6.132 5.20264C6.32733 5.39797 6.32733 5.71466 6.132 5.90999L5.87402 6.16797H10C10.276 6.16797 10.5 6.39197 10.5 6.66797C10.5 6.94397 10.276 7.16797 10 7.16797H5.87402L6.13135 7.42529C6.32668 7.61996 6.32668 7.93732 6.13135 8.13265C6.03401 8.22998 5.90599 8.2793 5.77799 8.2793C5.64999 8.2793 5.52198 8.23065 5.42464 8.13265L4.31331 7.02132ZM11.7946 9.52474C11.7693 9.58541 11.7327 9.64004 11.6873 9.68604L10.576 10.7974C10.4787 10.8947 10.35 10.944 10.2227 10.944C10.0947 10.944 9.96664 10.8954 9.8693 10.7974C9.67397 10.602 9.67397 10.2853 9.8693 10.09L10.1266 9.83268H6C5.724 9.83268 5.5 9.60868 5.5 9.33268C5.5 9.05668 5.724 8.83268 6 8.83268H10.126L9.86865 8.57536C9.67332 8.38069 9.67332 8.06333 9.86865 7.868C10.064 7.67267 10.3807 7.67267 10.576 7.868L11.6873 8.97933C11.7333 9.02533 11.7693 9.07996 11.7946 9.14063C11.8199 9.20129 11.8333 9.266 11.8333 9.33333C11.8333 9.40067 11.8193 9.46407 11.7946 9.52474Z" fill="#3B3B3E"/>
</svg>
