<svg width="16" height="16" viewBox="0 0 16 16" fill="none" xmlns="http://www.w3.org/2000/svg">
<path fill-rule="evenodd" clip-rule="evenodd" d="M13.612 11.7746C13.1918 12.0078 12.9451 12.0411 12.6182 12.141C12.5049 12.1677 12.4248 12.2743 12.4248 12.3942C12.2514 13.2871 11.1509 12.7807 10.4306 13.1205C9.61019 13.4603 9.24335 14 8.00278 14C6.76221 14 6.40204 13.4603 5.58167 13.1205C4.86801 12.7873 3.78751 13.2737 3.59409 12.4209C3.58742 12.2876 3.51405 12.161 3.38732 12.141C3.06051 12.0478 2.70701 11.9745 2.3135 11.7279C1.89997 11.4681 1.8933 11.0217 2.30683 10.8418C2.33351 10.8284 2.36019 10.8151 2.37353 10.8085C3.27394 10.402 4.20103 9.54249 4.46115 8.64966C4.50784 8.50308 4.45448 8.41646 4.36778 8.36315C4.141 8.20324 3.79418 7.98337 3.58742 7.84345C2.86042 7.45033 2.94712 6.35095 3.85421 6.34428C4.10766 6.34428 4.40112 6.45755 4.61456 6.53751C4.6279 6.53751 4.63457 6.53751 4.63457 6.52418C4.60789 5.73796 4.55453 4.56528 4.91469 3.83236C5.45494 2.67301 6.6755 1.99339 8.00278 2.00005C9.33006 2.00005 10.5373 2.65968 11.0909 3.82569C11.451 4.53863 11.4043 5.77127 11.371 6.51752C11.371 6.53085 11.3843 6.53751 11.391 6.53085C11.6044 6.45089 11.8979 6.33762 12.1514 6.33762C12.7316 6.31097 13.0918 6.93062 12.825 7.41035C12.5916 7.8701 11.8979 8.06998 11.5377 8.45644C11.5177 8.50308 11.5111 8.54305 11.5377 8.63633C11.7979 9.55582 12.7583 10.422 13.6854 10.8351C14.0256 10.975 14.2056 11.4281 13.612 11.7746Z" fill="#3B3B3E"/>
</svg>
