<svg width="16" height="16" viewBox="0 0 16 16" fill="none" xmlns="http://www.w3.org/2000/svg">
<path d="M6.08727 9.86315L6.8306 10.9732C8.69726 10.1932 10.1906 8.69381 10.9712 6.82248L9.8638 6.08581C9.25847 5.68314 9.07386 4.87715 9.44453 4.25115L10.4865 2.49181C10.7032 2.12581 11.1271 1.93715 11.5445 2.02048L11.5559 2.02247C13.2625 2.36381 14.3546 4.07915 13.8933 5.75715C12.8026 9.72515 9.70985 12.8085 5.75052 13.8952C4.07252 14.3558 2.35992 13.2625 2.01858 11.5565C1.93525 11.1405 2.12317 10.7178 2.48717 10.5005L4.24922 9.44982C4.87522 9.07715 5.68194 9.25848 6.08727 9.86315Z" fill="#3B3B3E"/>
</svg>
