<svg width="16" height="16" viewBox="0 0 16 16" fill="none" xmlns="http://www.w3.org/2000/svg">
<path d="M11.3335 7.81789V12.8872C11.3335 13.8339 10.2268 14.3472 9.50018 13.7339L7.2055 11.7871C7.11683 11.7118 7.11081 11.5765 7.19281 11.4938L10.9916 7.67726C11.1176 7.54993 11.3335 7.63922 11.3335 7.81789ZM14.3535 1.6465C14.1582 1.45117 13.8415 1.45117 13.6462 1.6465L11.3329 3.95981V3.11313C11.3329 2.16647 10.2262 1.65312 9.49953 2.26645L7.03949 4.35321C6.79949 4.55321 6.49287 4.66652 6.17954 4.66652H4.99953C4.44619 4.66652 3.99953 5.11319 3.99953 5.66652V10.3332C3.99953 10.5999 4.11153 10.8332 4.28086 11.0112L1.64552 13.6465C1.45019 13.8418 1.45019 14.1585 1.64552 14.3539C1.74286 14.4512 1.87088 14.5005 1.99888 14.5005C2.12688 14.5005 2.25481 14.4519 2.35215 14.3539L14.3521 2.35386C14.5488 2.15786 14.5489 1.84183 14.3535 1.6465Z" fill="#3B3B3E"/>
</svg>
