<svg width="16" height="16" viewBox="0 0 16 16" fill="none" xmlns="http://www.w3.org/2000/svg">
<path d="M8 2C4.62 2 2 4.47333 2 7.82C2 9.56666 2.71999 11.08 3.88666 12.1267C3.98666 12.2133 4.04667 12.34 4.04667 12.4667L4.08 13.5333C4.08666 13.8 4.30666 14.0067 4.57332 14C4.63332 14 4.69334 13.9867 4.75334 13.96L5.94668 13.4333C6.04668 13.3867 6.16 13.38 6.26666 13.4067C6.81333 13.5533 7.39334 13.64 8.00667 13.64C11.3867 13.64 14.0067 11.1667 14.0067 7.82C14.0067 4.47333 11.3867 2 8.00667 2H8ZM11.62 6.44667L9.84666 9.29334C9.57999 9.72 9.02 9.85333 8.6 9.58C8.58 9.56666 8.56 9.55333 8.54 9.54L7.13334 8.46666C7.00667 8.36666 6.82666 8.36666 6.69999 8.46666L4.80001 9.93333C4.54667 10.1267 4.21332 9.82001 4.38666 9.54667L6.15999 6.69333C6.42666 6.26666 6.98666 6.13333 7.40666 6.40667C7.42666 6.42 7.44667 6.43333 7.46667 6.44667L8.87333 7.52C9 7.62 9.17999 7.62 9.30666 7.52L11.2067 6.05333C11.46 5.86 11.7933 6.16667 11.62 6.44V6.44667Z" fill="#3B3B3E"/>
</svg>
