<svg width="16" height="16" viewBox="0 0 16 16" fill="none" xmlns="http://www.w3.org/2000/svg">
<path d="M7.99967 1.33301C4.31767 1.33301 1.33301 4.31767 1.33301 7.99967C1.33301 11.6817 4.31767 14.6663 7.99967 14.6663C11.6817 14.6663 14.6663 11.6817 14.6663 7.99967C14.6663 4.31767 11.6817 1.33301 7.99967 1.33301ZM8.99967 8.99967C8.79634 8.99967 8.60293 8.96975 8.4196 8.91309L7.33301 9.99967H6.33301V10.9997H4.99967V9.66634L7.08626 7.57975C7.0296 7.39642 6.99967 7.20301 6.99967 6.99967C6.99967 5.89634 7.89634 4.99967 8.99967 4.99967C10.103 4.99967 10.9997 5.89634 10.9997 6.99967C10.9997 8.10301 10.103 8.99967 8.99967 8.99967ZM9.84635 6.66634C9.84635 6.94234 9.62302 7.16634 9.34635 7.16634C9.07035 7.16634 8.84294 6.94234 8.84294 6.66634C8.84294 6.39034 9.06368 6.16634 9.33968 6.16634H9.34635C9.62302 6.16634 9.84635 6.39034 9.84635 6.66634Z" fill="#3B3B3E"/>
</svg>
