<svg width="16" height="16" viewBox="0 0 16 16" fill="none" xmlns="http://www.w3.org/2000/svg">
<path d="M14.6663 7.99986V9.99986C14.6663 11.4705 13.4703 12.6665 11.9997 12.6665H3.60905L4.47103 13.5285C4.7317 13.7892 4.7317 14.2105 4.47103 14.4712C4.34103 14.6012 4.17034 14.6665 3.99967 14.6665C3.82901 14.6665 3.65832 14.6012 3.52832 14.4712L1.52897 12.4719C1.46697 12.4099 1.41828 12.3366 1.38428 12.2546C1.31694 12.0919 1.31694 11.9078 1.38428 11.7451C1.41828 11.6631 1.46697 11.5899 1.52897 11.5279L3.52832 9.52851C3.78899 9.26784 4.21036 9.26784 4.47103 9.52851C4.7317 9.78917 4.7317 10.2105 4.47103 10.4712L3.60905 11.3332H11.9997C12.735 11.3332 13.333 10.7352 13.333 9.99986V7.99986C13.333 7.63186 13.631 7.3332 13.9997 7.3332C14.3683 7.3332 14.6663 7.63186 14.6663 7.99986ZM1.99967 8.66653C2.36834 8.66653 2.66634 8.36786 2.66634 7.99986V5.99986C2.66634 5.26453 3.26434 4.66653 3.99967 4.66653H12.3903L11.5283 5.52851C11.2677 5.78917 11.2677 6.21055 11.5283 6.47122C11.6583 6.60122 11.829 6.66653 11.9997 6.66653C12.1703 6.66653 12.341 6.60122 12.471 6.47122L14.4704 4.47187C14.5324 4.40987 14.5811 4.33658 14.6151 4.25458C14.6824 4.09192 14.6824 3.90781 14.6151 3.74514C14.5811 3.66314 14.5324 3.58986 14.4704 3.52786L12.471 1.52851C12.2104 1.26784 11.789 1.26784 11.5283 1.52851C11.2677 1.78917 11.2677 2.21055 11.5283 2.47122L12.3903 3.3332H3.99967C2.52901 3.3332 1.33301 4.5292 1.33301 5.99986V7.99986C1.33301 8.36786 1.63101 8.66653 1.99967 8.66653Z" fill="#3B3B3E"/>
</svg>
