<svg width="16" height="16" viewBox="0 0 16 16" fill="none" xmlns="http://www.w3.org/2000/svg">
<path d="M13.3802 9.17333C13.4602 8.8 13.5068 8.4 13.5068 8C13.5068 4.96 11.0468 2.5 8.00684 2.5C7.60684 2.5 7.2135 2.54667 6.8335 2.62667C6.32683 2.23333 5.6935 2 5.00684 2C3.3535 2 2.00684 3.34667 2.00684 5C2.00684 5.68667 2.24017 6.32 2.6335 6.82667C2.5535 7.2 2.50684 7.6 2.50684 8C2.50684 11.04 4.96684 13.5 8.00684 13.5C8.40684 13.5 8.80018 13.4533 9.18018 13.3733C9.68684 13.7667 10.3202 14 11.0068 14C12.6602 14 14.0068 12.6533 14.0068 11C14.0068 10.3133 13.7735 9.68 13.3868 9.17333H13.3802ZM8.11348 11.5267C6.42015 11.5267 5.00684 10.7733 5.00684 9.84667C5.00684 9.43334 5.24018 9.06 5.76685 9.06C6.57351 9.06 6.64683 10.22 8.04016 10.22C8.70016 10.22 9.1335 9.92667 9.1335 9.54C9.1335 9.06 8.72017 8.98 8.04683 8.82C6.4335 8.42 5.00684 8.25334 5.00684 6.56667C5.00684 5.04 6.52015 4.47334 7.82015 4.47334C9.24015 4.47334 10.6802 5.04 10.6802 5.9C10.6802 6.33334 10.3868 6.72 9.90015 6.72C9.16681 6.72 9.14684 5.85333 7.96684 5.85333C7.30684 5.85333 6.88017 6.03333 6.88017 6.43333C6.88017 6.94666 7.42016 6.99333 8.66016 7.28666C9.72682 7.52666 11.0002 7.98 11.0002 9.28666C11.0002 10.8133 9.52681 11.52 8.10681 11.52L8.11348 11.5267Z" fill="#3B3B3E"/>
</svg>
