<svg width="16" height="16" viewBox="0 0 16 16" fill="none" xmlns="http://www.w3.org/2000/svg">
<path d="M10.5153 7.51092C10.6026 7.48759 10.6667 7.41082 10.6667 7.32082V4.54087C10.6667 4.0742 10.3466 3.66756 9.89331 3.56756L3.22664 2.02752C2.59998 1.88086 2 2.36083 2 3.00083V12.6675C2 12.7208 2.00001 12.7742 2.00667 12.8208C2.05334 13.5542 2.44668 13.9475 3.18001 13.9942C3.22668 14.0008 3.28 14.0008 3.33333 14.0008H4.79997C4.91063 14.0008 5 13.9115 5 13.8008V11.4055C5 10.7415 5.45396 10.1256 6.10929 10.0189C6.94463 9.8829 7.66667 10.5242 7.66667 11.3342V13.8008C7.66667 13.9115 7.75603 14.0008 7.8667 14.0008H8.9113C9.08663 14.0008 9.1687 13.7982 9.05404 13.6655C8.80337 13.3755 8.66667 13.0328 8.66667 12.6475V9.35418C8.66667 8.47818 9.37063 7.81092 10.5153 7.51092ZM5.33333 8.50018H4.66667C4.39067 8.50018 4.16667 8.27618 4.16667 8.00018C4.16667 7.72418 4.39067 7.50018 4.66667 7.50018H5.33333C5.60933 7.50018 5.83333 7.72418 5.83333 8.00018C5.83333 8.27618 5.60933 8.50018 5.33333 8.50018ZM5.33333 6.50018H4.66667C4.39067 6.50018 4.16667 6.27618 4.16667 6.00018C4.16667 5.72418 4.39067 5.50018 4.66667 5.50018H5.33333C5.60933 5.50018 5.83333 5.72418 5.83333 6.00018C5.83333 6.27618 5.60933 6.50018 5.33333 6.50018ZM8 8.50018H7.33333C7.05733 8.50018 6.83333 8.27618 6.83333 8.00018C6.83333 7.72418 7.05733 7.50018 7.33333 7.50018H8C8.276 7.50018 8.5 7.72418 8.5 8.00018C8.5 8.27618 8.276 8.50018 8 8.50018ZM8 6.50018H7.33333C7.05733 6.50018 6.83333 6.27618 6.83333 6.00018C6.83333 5.72418 7.05733 5.50018 7.33333 5.50018H8C8.276 5.50018 8.5 5.72418 8.5 6.00018C8.5 6.27618 8.276 6.50018 8 6.50018ZM12 12.9735C13.16 12.9735 14.0867 12.6936 14.6667 12.2269V12.6468C14.6667 13.5535 13.3333 14.0002 12 14.0002C10.6667 14.0002 9.33333 13.5535 9.33333 12.6468V12.2269C9.91333 12.6936 10.84 12.9735 12 12.9735ZM12 11.3736C13.16 11.3736 14.0867 11.0935 14.6667 10.6268V10.9535C14.6667 11.8668 13.3333 12.3068 12 12.3068C10.6667 12.3068 9.33333 11.8668 9.33333 10.9535V10.6268C9.92 11.0935 10.8467 11.3736 12 11.3736ZM12 8.00018C13.3333 8.00018 14.6667 8.45353 14.6667 9.35353C14.6667 10.2602 13.3333 10.7069 12 10.7069C10.6667 10.7069 9.33333 10.2602 9.33333 9.35353C9.33333 8.45353 10.6667 8.00018 12 8.00018Z" fill="#3B3B3E"/>
</svg>
