<svg width="16" height="16" viewBox="0 0 16 16" fill="none" xmlns="http://www.w3.org/2000/svg">
<path d="M14 1.5H2C1.724 1.5 1.5 1.724 1.5 2C1.5 2.276 1.724 2.5 2 2.5H2.66667V8.66667C2.66667 10.1933 3.47333 11 5 11H7.5V12.4L5.71999 13.5867C5.49332 13.74 5.43334 14.0467 5.58667 14.28C5.74 14.5067 6.04668 14.5667 6.28001 14.4133L8 13.2667L9.71999 14.4133C9.80666 14.4733 9.90667 14.5 10 14.5C10.16 14.5 10.32 14.42 10.4133 14.28C10.5667 14.0467 10.5067 13.74 10.28 13.5867L8.5 12.4V11H11C12.5267 11 13.3333 10.1933 13.3333 8.66667V2.5H14C14.276 2.5 14.5 2.276 14.5 2C14.5 1.724 14.276 1.5 14 1.5ZM6.16667 8.33333C6.16667 8.60933 5.94267 8.83333 5.66667 8.83333C5.39067 8.83333 5.16667 8.60933 5.16667 8.33333V5.66667C5.16667 5.39067 5.39067 5.16667 5.66667 5.16667C5.94267 5.16667 6.16667 5.39067 6.16667 5.66667V8.33333ZM8.5 8.33333C8.5 8.60933 8.276 8.83333 8 8.83333C7.724 8.83333 7.5 8.60933 7.5 8.33333V4.33333C7.5 4.05733 7.724 3.83333 8 3.83333C8.276 3.83333 8.5 4.05733 8.5 4.33333V8.33333ZM10.8333 8.33333C10.8333 8.60933 10.6093 8.83333 10.3333 8.83333C10.0573 8.83333 9.83333 8.60933 9.83333 8.33333V7C9.83333 6.724 10.0573 6.5 10.3333 6.5C10.6093 6.5 10.8333 6.724 10.8333 7V8.33333Z" fill="#3B3B3E"/>
</svg>
