<svg width="16" height="16" viewBox="0 0 16 16" fill="none" xmlns="http://www.w3.org/2000/svg">
<path d="M11.3333 14.5003H4.66667C4.39067 14.5003 4.16667 14.2763 4.16667 14.0003C4.16667 13.7243 4.39067 13.5003 4.66667 13.5003H11.3333C11.6093 13.5003 11.8333 13.7243 11.8333 14.0003C11.8333 14.2763 11.6093 14.5003 11.3333 14.5003ZM14 4.82096V9.847C14 11.283 13.3333 12.001 12 12.001H4C2.66667 12.001 2 11.283 2 9.847V4.82096C2 3.38496 2.66667 2.66699 4 2.66699H12C13.3333 2.66699 14 3.38496 14 4.82096ZM9.72135 6.83626L7.62207 5.55159C7.20407 5.29626 6.66667 5.59564 6.66667 6.08431V8.58171C6.66667 9.07037 7.20407 9.37026 7.62207 9.11426L9.72135 7.82959C10.0934 7.60292 10.0934 7.06426 9.72135 6.83626Z" fill="#3B3B3E"/>
</svg>
