<svg width="16" height="16" viewBox="0 0 16 16" fill="none" xmlns="http://www.w3.org/2000/svg">
<path d="M9.0093 12.4199C8.9813 12.8552 9.02933 13.2719 9.14 13.6626C9.17267 13.7779 9.10533 13.8986 8.98733 13.9186C8.668 13.9712 8.33731 13.9972 8.00198 13.9972C7.10865 13.9972 6.25596 13.7972 5.49596 13.4439C5.20262 13.3039 4.86268 13.3039 4.54934 13.4039L2.88268 13.9639C2.35934 14.1399 1.86 13.6413 2.036 13.1173L2.59606 11.4512C2.69606 11.1379 2.69602 10.7979 2.55602 10.5046C1.95668 9.21525 1.79875 7.65726 2.31009 6.09126C3.00075 3.97659 4.88009 2.39592 7.08076 2.06859C10.8014 1.51526 14 4.3839 14 7.99856C14 8.3339 13.9734 8.66458 13.9214 8.98392C13.9021 9.10258 13.7814 9.16992 13.6654 9.13658C13.2747 9.02592 12.858 8.97789 12.4227 9.00589C10.6227 9.12322 9.12597 10.6199 9.0093 12.4199ZM13.374 12.6666L14.354 11.6866C14.5494 11.4913 14.5494 11.1746 14.354 10.9792C14.1587 10.7839 13.842 10.7839 13.6467 10.9792L12.6667 11.9593L11.6867 10.9792C11.4914 10.7839 11.1747 10.7839 10.9794 10.9792C10.784 11.1746 10.784 11.4913 10.9794 11.6866L11.9593 12.6666L10.9794 13.6466C10.784 13.8419 10.784 14.1586 10.9794 14.3539C11.0767 14.4512 11.2047 14.5006 11.3327 14.5006C11.4607 14.5006 11.5887 14.4519 11.6861 14.3539L12.666 13.3739L13.646 14.3539C13.7434 14.4512 13.8714 14.5006 13.9994 14.5006C14.1274 14.5006 14.2554 14.4519 14.3527 14.3539C14.5481 14.1586 14.5481 13.8419 14.3527 13.6466L13.374 12.6666Z" fill="#3B3B3E"/>
</svg>
