<svg width="16" height="16" viewBox="0 0 16 16" fill="none" xmlns="http://www.w3.org/2000/svg">
<path d="M10.833 7.99967C10.833 9.55967 9.55967 10.833 7.99967 10.833C6.43967 10.833 5.16634 9.55967 5.16634 7.99967C5.16634 6.43967 6.43967 5.16634 7.99967 5.16634C9.55967 5.16634 10.833 6.43967 10.833 7.99967ZM14.6663 7.99967C14.6663 11.6797 11.6797 14.6663 7.99967 14.6663C4.31967 14.6663 1.33301 11.6797 1.33301 7.99967C1.33301 4.31967 4.31967 1.33301 7.99967 1.33301C11.6797 1.33301 14.6663 4.31967 14.6663 7.99967ZM11.833 7.99967C11.833 5.88634 10.113 4.16634 7.99967 4.16634C5.88634 4.16634 4.16634 5.88634 4.16634 7.99967C4.16634 10.113 5.88634 11.833 7.99967 11.833C10.113 11.833 11.833 10.113 11.833 7.99967Z" fill="#3B3B3E"/>
</svg>
