<svg width="16" height="16" viewBox="0 0 16 16" fill="none" xmlns="http://www.w3.org/2000/svg">
<path d="M7.99967 1.33301C4.31967 1.33301 1.33301 4.31967 1.33301 7.99967C1.33301 11.6797 4.31967 14.6663 7.99967 14.6663C11.6797 14.6663 14.6663 11.6797 14.6663 7.99967C14.6663 4.31967 11.6797 1.33301 7.99967 1.33301ZM10.7063 11.1397C10.593 11.1397 10.5263 11.1063 10.4197 11.0397C8.73968 10.0263 6.793 9.98635 4.86633 10.3797C4.75967 10.4063 4.62635 10.4463 4.54635 10.4463C4.28635 10.4463 4.11967 10.2397 4.11967 10.0197C4.11967 9.73967 4.28635 9.61301 4.48635 9.56634C6.68635 9.07968 8.93968 9.11968 10.8597 10.273C11.0263 10.3797 11.1197 10.473 11.1197 10.7197C11.1197 10.9663 10.9263 11.133 10.713 11.133L10.7063 11.1397ZM11.4264 9.37301C11.2864 9.37301 11.193 9.31301 11.093 9.25967C9.41302 8.26634 6.90633 7.86634 4.67967 8.46634C4.553 8.49967 4.47968 8.53301 4.35968 8.53301C4.07301 8.53301 3.83968 8.29968 3.83968 8.01301C3.83968 7.72634 3.97968 7.53301 4.25301 7.45968C4.99968 7.25301 5.76635 7.09301 6.87968 7.09301C8.62635 7.09301 10.313 7.52634 11.6397 8.31301C11.8597 8.43967 11.9463 8.60634 11.9463 8.83967C11.9463 9.133 11.7197 9.36634 11.4264 9.36634V9.37301ZM12.2597 7.32634C12.1197 7.32634 12.033 7.29301 11.913 7.21968C9.99967 6.07968 6.57968 5.80634 4.35968 6.41968C4.25968 6.44634 4.13967 6.48634 4.013 6.48634C3.65967 6.48634 3.38633 6.20634 3.38633 5.85301C3.38633 5.49967 3.61301 5.27968 3.85301 5.21301C4.79967 4.93301 5.85967 4.80635 7.013 4.80635C8.973 4.80635 11.033 5.21301 12.533 6.09301C12.7397 6.21301 12.8797 6.37968 12.8797 6.69968C12.8797 7.06634 12.5863 7.32634 12.253 7.32634H12.2597Z" fill="#3B3B3E"/>
</svg>
