<svg width="16" height="16" viewBox="0 0 16 16" fill="none" xmlns="http://www.w3.org/2000/svg">
<path d="M9.87402 11.1667H12V12C12 13.3333 11.3333 14 10 14H4C2.66667 14 2 13.3333 2 12V4C2 2.66667 2.66667 2 4 2H7.5V4C7.5 5.61333 8.38667 6.5 10 6.5H12V10.1667H9.87402L10.354 9.68667C10.5493 9.49133 10.5493 9.17466 10.354 8.97933C10.1587 8.784 9.84198 8.784 9.64665 8.97933L8.31331 10.3127C8.26731 10.3587 8.23074 10.414 8.2054 10.4753C8.15474 10.5973 8.15474 10.7353 8.2054 10.8573C8.23074 10.9187 8.26731 10.974 8.31331 11.02L9.64665 12.3533C9.74398 12.4507 9.872 12.5 10 12.5C10.128 12.5 10.256 12.4513 10.3534 12.3533C10.5487 12.158 10.5487 11.8413 10.3534 11.646L9.87402 11.1667ZM10 5.5H11.5L8.5 2.5V4C8.5 5.05333 8.94667 5.5 10 5.5ZM14.6667 10.1667H12V11.1667H14.6667C14.9427 11.1667 15.1667 10.9427 15.1667 10.6667C15.1667 10.3907 14.9427 10.1667 14.6667 10.1667Z" fill="#3B3B3E"/>
</svg>
