<svg width="16" height="16" viewBox="0 0 16 16" fill="none" xmlns="http://www.w3.org/2000/svg">
<path d="M12 2H4C2.66667 2 2 2.66667 2 4V14L4 12H12C13.3333 12 14 11.3333 14 10V4C14 2.66667 13.3333 2 12 2ZM8.5 9C8.5 9.276 8.276 9.5 8 9.5C7.724 9.5 7.5 9.276 7.5 9V7C7.5 6.724 7.724 6.5 8 6.5C8.276 6.5 8.5 6.724 8.5 7V9ZM8.01335 5.66667C7.64535 5.66667 7.34326 5.368 7.34326 5C7.34326 4.632 7.63867 4.33333 8.00667 4.33333H8.01335C8.38201 4.33333 8.68001 4.632 8.68001 5C8.68001 5.368 8.38135 5.66667 8.01335 5.66667Z" fill="#3B3B3E"/>
</svg>
