<svg width="16" height="16" viewBox="0 0 16 16" fill="none" xmlns="http://www.w3.org/2000/svg">
<path d="M14.3537 7.66471C14.549 7.86005 14.549 8.17666 14.3537 8.37199C14.2563 8.46932 14.1283 8.51872 14.0003 8.51872C13.8723 8.51872 13.7443 8.46999 13.647 8.37199L12.667 7.39201L11.687 8.37199C11.5897 8.46932 11.4617 8.51872 11.3337 8.51872C11.2057 8.51872 11.0776 8.46999 10.9803 8.37199C10.785 8.17666 10.785 7.86005 10.9803 7.66471L11.9603 6.68465L10.9803 5.70467C10.785 5.50934 10.785 5.19265 10.9803 4.99731C11.1756 4.80198 11.4923 4.80198 11.6877 4.99731L12.6676 5.97738L13.6476 4.99731C13.843 4.80198 14.1596 4.80198 14.355 4.99731C14.5503 5.19265 14.5503 5.50934 14.355 5.70467L13.375 6.68465L14.3537 7.66471ZM6.67301 6.99935C8.14368 6.99935 9.33968 5.80335 9.33968 4.33268C9.33968 2.86202 8.14368 1.66602 6.67301 1.66602C5.20235 1.66602 4.00635 2.86202 4.00635 4.33268C4.00635 5.80335 5.20235 6.99935 6.67301 6.99935ZM8.00033 8.33268H5.33366C2.62699 8.33268 1.66699 10.3147 1.66699 12.012C1.66699 13.53 2.47436 14.3327 4.00236 14.3327H9.33162C10.8596 14.3327 11.667 13.53 11.667 12.012C11.667 10.3147 10.707 8.33268 8.00033 8.33268Z" fill="#3B3B3E"/>
</svg>
