<svg width="16" height="16" viewBox="0 0 16 16" fill="none" xmlns="http://www.w3.org/2000/svg">
<path d="M7.99967 1.33301C4.31767 1.33301 1.33301 4.31767 1.33301 7.99967C1.33301 11.6817 4.31767 14.6663 7.99967 14.6663C11.6817 14.6663 14.6663 11.6817 14.6663 7.99967C14.6663 4.31767 11.6817 1.33301 7.99967 1.33301ZM8.01302 11.4997C7.55302 11.4997 7.17635 11.1263 7.17635 10.6663C7.17635 10.2063 7.54635 9.83301 8.00635 9.83301H8.01302C8.47302 9.83301 8.84635 10.2063 8.84635 10.6663C8.84635 11.1263 8.47302 11.4997 8.01302 11.4997ZM8.01302 8.83301C7.55302 8.83301 7.17635 8.45967 7.17635 7.99967C7.17635 7.53967 7.54635 7.16634 8.00635 7.16634H8.01302C8.47302 7.16634 8.84635 7.53967 8.84635 7.99967C8.84635 8.45967 8.47302 8.83301 8.01302 8.83301ZM8.01302 6.16634C7.55302 6.16634 7.17635 5.79301 7.17635 5.33301C7.17635 4.87301 7.54635 4.49967 8.00635 4.49967H8.01302C8.47302 4.49967 8.84635 4.87301 8.84635 5.33301C8.84635 5.79301 8.47302 6.16634 8.01302 6.16634Z" fill="#3B3B3E"/>
</svg>
