<svg width="16" height="16" viewBox="0 0 16 16" fill="none" xmlns="http://www.w3.org/2000/svg">
<path d="M14.5003 6.68465C14.5003 6.96065 14.2763 7.18465 14.0003 7.18465H10.667C10.391 7.18465 10.167 6.96065 10.167 6.68465C10.167 6.40865 10.391 6.18465 10.667 6.18465H14.0003C14.2763 6.18465 14.5003 6.40865 14.5003 6.68465ZM6.67301 6.99935C8.14368 6.99935 9.33968 5.80335 9.33968 4.33268C9.33968 2.86202 8.14368 1.66602 6.67301 1.66602C5.20235 1.66602 4.00635 2.86202 4.00635 4.33268C4.00635 5.80335 5.20235 6.99935 6.67301 6.99935ZM8.00033 8.33268H5.33366C2.62699 8.33268 1.66699 10.3147 1.66699 12.012C1.66699 13.53 2.47436 14.3327 4.00236 14.3327H9.33162C10.8596 14.3327 11.667 13.53 11.667 12.012C11.667 10.3147 10.707 8.33268 8.00033 8.33268Z" fill="#3B3B3E"/>
</svg>
