<svg width="16" height="16" viewBox="0 0 16 16" fill="none" xmlns="http://www.w3.org/2000/svg">
<path d="M15.1374 9.80501L12.4714 12.471C12.3414 12.601 12.1707 12.6663 12 12.6663C11.8293 12.6663 11.6586 12.601 11.5286 12.471C11.268 12.2104 11.268 11.789 11.5286 11.5283L13.0573 9.99967H4.66667C3.196 9.99967 2 8.80367 2 7.33301V3.99967C2 3.63167 2.298 3.33301 2.66667 3.33301C3.03533 3.33301 3.33333 3.63167 3.33333 3.99967V7.33301C3.33333 8.06834 3.93133 8.66634 4.66667 8.66634H13.0573L11.5286 7.1377C11.268 6.87703 11.268 6.45565 11.5286 6.19499C11.7893 5.93432 12.2107 5.93432 12.4714 6.19499L15.1374 8.861C15.1994 8.923 15.2481 8.99629 15.2821 9.07829C15.3494 9.24095 15.3494 9.42506 15.2821 9.58773C15.2481 9.66973 15.1994 9.74301 15.1374 9.80501Z" fill="#3B3B3E"/>
</svg>
