<svg width="16" height="16" viewBox="0 0 16 16" fill="none" xmlns="http://www.w3.org/2000/svg">
<path fill-rule="evenodd" clip-rule="evenodd" d="M6.16699 5.33333H5.16699V4.33333C5.16699 2.77333 6.44033 1.5 8.00033 1.5C9.56033 1.5 10.8337 2.77333 10.8337 4.33333V5.33333H9.83366V4.33333C9.83366 3.32 9.01366 2.5 8.00033 2.5C6.98699 2.5 6.16699 3.32 6.16699 4.33333V5.33333ZM12.3337 5.33333H10.8337V7.33333C10.8337 7.60667 10.607 7.83333 10.3337 7.83333C10.0603 7.83333 9.83366 7.60667 9.83366 7.33333V5.33333H6.16699V7.33333C6.16699 7.60667 5.94033 7.83333 5.66699 7.83333C5.39366 7.83333 5.16699 7.60667 5.16699 7.33333V5.33333H3.66699C3.11366 5.33333 2.66699 5.78 2.66699 6.33333V12C2.66699 13.3333 3.33366 14 4.66699 14H11.3337C12.667 14 13.3337 13.3333 13.3337 12V6.33333C13.3337 5.78 12.887 5.33333 12.3337 5.33333Z" fill="#3B3B3E"/>
</svg>
