<svg width="16" height="16" viewBox="0 0 16 16" fill="none" xmlns="http://www.w3.org/2000/svg">
<path d="M9.19369 10.056C9.32369 10.186 9.32369 10.3973 9.19369 10.5273C9.12835 10.5927 9.04302 10.6247 8.95768 10.6247C8.87235 10.6247 8.78701 10.592 8.72168 10.5273L8.09635 9.90267C8.03369 9.84 7.99902 9.75533 7.99902 9.66667V8.792C7.99902 8.608 8.14836 8.45867 8.33236 8.45867C8.51636 8.45867 8.66569 8.608 8.66569 8.792V9.52867L9.19369 10.056ZM11.333 5.5H12.833L9.83301 2.5V4C9.83301 5.05333 10.2797 5.5 11.333 5.5ZM13.333 6.5V12C13.333 13.3333 12.6663 14 11.333 14H5.33301C3.99967 14 3.33301 13.3333 3.33301 12V4C3.33301 2.66667 3.99967 2 5.33301 2H8.83301V4C8.83301 5.61333 9.71967 6.5 11.333 6.5H13.333ZM10.6663 9.66667C10.6663 8.378 9.62167 7.33333 8.33301 7.33333C7.04434 7.33333 5.99967 8.378 5.99967 9.66667C5.99967 10.9553 7.04434 12 8.33301 12C9.62167 12 10.6663 10.9553 10.6663 9.66667Z" fill="#3B3B3E"/>
</svg>
