<svg width="16" height="16" viewBox="0 0 16 16" fill="none" xmlns="http://www.w3.org/2000/svg">
<path d="M9.33301 3.33301H3.33301C1.99967 3.33301 1.33301 3.99967 1.33301 5.33301V10.6663C1.33301 11.9997 1.99967 12.6663 3.33301 12.6663H9.33301C10.6663 12.6663 11.333 11.9997 11.333 10.6663V5.33301C11.333 3.99967 10.6663 3.33301 9.33301 3.33301ZM8.49967 8.33301C8.49967 8.60901 8.27567 8.83301 7.99967 8.83301C7.72367 8.83301 7.49967 8.60901 7.49967 8.33301V7.54036L5.01969 10.0203C4.92236 10.1177 4.79434 10.167 4.66634 10.167C4.53834 10.167 4.41032 10.1183 4.31299 10.0203C4.11765 9.82501 4.11765 9.50832 4.31299 9.31299L6.79297 6.83301H5.99967C5.72367 6.83301 5.49967 6.60901 5.49967 6.33301C5.49967 6.05701 5.72367 5.83301 5.99967 5.83301H7.99967C8.06501 5.83301 8.12975 5.84641 8.19108 5.87174C8.31308 5.92241 8.41042 6.01975 8.46175 6.14242C8.48708 6.20375 8.50033 6.26833 8.50033 6.33366V8.33301H8.49967ZM14.6663 5.03971V10.9596C14.6663 11.381 14.1789 11.6144 13.8503 11.3511L12.4077 10.193C12.3604 10.155 12.333 10.0976 12.333 10.0369V5.9624C12.333 5.90174 12.3604 5.84431 12.4077 5.80631L13.8503 4.64827C14.1789 4.38494 14.6663 4.61838 14.6663 5.03971Z" fill="#3B3B3E"/>
</svg>
