<svg width="16" height="16" viewBox="0 0 16 16" fill="none" xmlns="http://www.w3.org/2000/svg">
<path d="M11.8237 3.37134C11.7431 3.35934 11.667 3.42599 11.667 3.50732V3.66602C11.667 4.87935 10.8803 5.66602 9.66699 5.66602H6.33366C5.12033 5.66602 4.33366 4.87935 4.33366 3.66602V3.50732C4.33366 3.42599 4.25692 3.35934 4.17692 3.37134C3.16825 3.518 2.66699 4.172 2.66699 5.33333V12C2.66699 13.3333 3.33366 14 4.66699 14H11.3337C12.667 14 13.3337 13.3333 13.3337 12V5.33333C13.3337 4.172 12.8324 3.518 11.8237 3.37134ZM9.66699 9.5H8.50033V10.6667C8.50033 10.9427 8.27633 11.1667 8.00033 11.1667C7.72433 11.1667 7.50033 10.9427 7.50033 10.6667V9.5H6.33366C6.05766 9.5 5.83366 9.276 5.83366 9C5.83366 8.724 6.05766 8.5 6.33366 8.5H7.50033V7.33333C7.50033 7.05733 7.72433 6.83333 8.00033 6.83333C8.27633 6.83333 8.50033 7.05733 8.50033 7.33333V8.5H9.66699C9.94299 8.5 10.167 8.724 10.167 9C10.167 9.276 9.94299 9.5 9.66699 9.5ZM5.33366 3.66667V3C5.33366 2.33333 5.66699 2 6.33366 2H9.66699C10.3337 2 10.667 2.33333 10.667 3V3.66667C10.667 4.33333 10.3337 4.66667 9.66699 4.66667H6.33366C5.66699 4.66667 5.33366 4.33333 5.33366 3.66667Z" fill="#3B3B3E"/>
</svg>
