<svg width="16" height="16" viewBox="0 0 16 16" fill="none" xmlns="http://www.w3.org/2000/svg">
<path d="M13.3132 13.9733L12.0199 13.54C11.7732 13.46 11.5131 13.46 11.2798 13.5667C10.6931 13.84 10.0265 14 9.33317 14C8.05317 14 6.88848 13.4813 6.04981 12.646C5.92314 12.52 6.03114 12.3007 6.20248 12.3147C9.64648 12.6273 12.6298 9.64399 12.3132 6.19999C12.2812 6.00933 12.5139 5.89732 12.6999 6.11332C13.9885 7.37399 14.3879 9.62932 13.5666 11.28C13.2852 11.7733 13.8598 12.828 13.9731 13.3133C14.1065 13.72 13.7198 14.1067 13.3132 13.9733ZM11.3332 6.66602C11.3332 4.08935 9.24383 2 6.66716 2C4.09049 2 2.00114 4.08935 2.00114 6.66602C2.00114 7.36068 2.15649 8.02398 2.43116 8.61532C2.54049 8.84332 2.54057 9.10799 2.46257 9.35132L2.02718 10.6473C1.89252 11.052 2.28121 11.4407 2.68588 11.306L3.98177 10.8707C4.22577 10.7927 4.48978 10.7927 4.71778 10.902C5.30844 11.1767 5.97249 11.332 6.66716 11.332C9.24383 11.332 11.3332 9.24268 11.3332 6.66602Z" fill="#3B3B3E"/>
</svg>
