<svg width="16" height="16" viewBox="0 0 16 16" fill="none" xmlns="http://www.w3.org/2000/svg">
<path d="M11.75 2H4.25C2.75 2 2 2.75 2 4.25V11.75C2 13.25 2.75 14 4.25 14H11.75C13.25 14 14 13.25 14 11.75V4.25C14 2.75 13.25 2 11.75 2ZM10.3534 7.68669C10.256 7.78402 10.128 7.83333 10 7.83333C9.872 7.83333 9.74398 7.78469 9.64665 7.68669L8.5 6.54004V10.6667C8.5 10.9427 8.276 11.1667 8 11.1667C7.724 11.1667 7.5 10.9427 7.5 10.6667V6.54069L6.35335 7.68734C6.15802 7.88267 5.84133 7.88267 5.646 7.68734C5.45066 7.492 5.45066 7.17531 5.646 6.97998L7.646 4.97998C7.692 4.93398 7.74726 4.8974 7.80859 4.87207C7.93059 4.8214 8.06859 4.8214 8.19059 4.87207C8.25193 4.8974 8.30735 4.93398 8.35335 4.97998L10.3534 6.97998C10.5487 7.17531 10.5487 7.49135 10.3534 7.68669Z" fill="#3B3B3E"/>
</svg>
