<svg width="16" height="16" viewBox="0 0 16 16" fill="none" xmlns="http://www.w3.org/2000/svg">
<path d="M7.99967 1.33301C4.31967 1.33301 1.33301 4.31967 1.33301 7.99967C1.33301 11.6797 4.31967 14.6663 7.99967 14.6663C11.6797 14.6663 14.6663 11.6797 14.6663 7.99967C14.6663 4.31967 11.6797 1.33301 7.99967 1.33301ZM5.16634 7.33301C5.16634 7.15301 5.193 6.99301 5.23966 6.84634L4.44635 6.44634C4.19968 6.31967 4.09967 6.01968 4.21967 5.77301C4.34633 5.52634 4.64634 5.42635 4.89301 5.54635L6.15967 6.17968C6.25967 6.19968 6.34635 6.25301 6.42635 6.31301L7.22634 6.71301C7.47301 6.83968 7.573 7.13968 7.453 7.38634C7.36634 7.55968 7.18635 7.65968 7.00635 7.65968C6.93968 7.65968 6.87967 7.63967 6.81301 7.61301C6.72634 8.13301 6.41301 8.49301 6.00635 8.49301C5.52635 8.49301 5.17301 7.99968 5.17301 7.32634L5.16634 7.33301ZM9.63302 11.0663C9.53968 11.133 9.43967 11.1663 9.33301 11.1663C9.17967 11.1663 9.033 11.0997 8.933 10.9663C8.48634 10.3797 7.51968 10.373 7.06634 10.9663C6.89968 11.1863 6.58633 11.2263 6.36633 11.0597C6.14633 10.893 6.10634 10.5797 6.27301 10.3597C6.69301 9.813 7.31968 9.49301 8.00635 9.49301C8.69301 9.49301 9.32634 9.81967 9.73301 10.3597C9.89968 10.5797 9.85302 10.893 9.63302 11.0597V11.0663ZM11.553 6.44634L10.7597 6.84634C10.8064 6.99301 10.833 7.15967 10.833 7.33301C10.833 8.00634 10.4797 8.49967 9.99967 8.49967C9.58634 8.49967 9.27968 8.14634 9.19301 7.61967C9.13301 7.64634 9.06634 7.66634 8.99967 7.66634C8.81301 7.66634 8.63967 7.56634 8.553 7.39301C8.42633 7.14634 8.52635 6.84634 8.77968 6.71968L9.57967 6.31967C9.65967 6.25967 9.74633 6.21301 9.84633 6.18634L11.113 5.55301C11.3597 5.42634 11.6597 5.53301 11.7863 5.77967C11.913 6.02634 11.813 6.32634 11.5597 6.453L11.553 6.44634Z" fill="#3B3B3E"/>
</svg>
