<svg width="16" height="16" viewBox="0 0 16 16" fill="none" xmlns="http://www.w3.org/2000/svg">
<path d="M7.99967 1.33301C4.31767 1.33301 1.33301 4.31767 1.33301 7.99967C1.33301 11.6817 4.31767 14.6663 7.99967 14.6663C11.6817 14.6663 14.6663 11.6817 14.6663 7.99967C14.6663 4.31767 11.6817 1.33301 7.99967 1.33301ZM11.3797 8.87093C10.9924 10.4183 9.60234 11.4997 7.99967 11.4997C7.03701 11.4997 6.14501 11.0983 5.49967 10.437V10.6663C5.49967 10.9423 5.27567 11.1663 4.99967 11.1663C4.72367 11.1663 4.49967 10.9423 4.49967 10.6663V8.99967C4.49967 8.72367 4.72367 8.49967 4.99967 8.49967H5.19173C5.19706 8.49967 5.2017 8.49967 5.20703 8.49967H6.66634C6.94234 8.49967 7.16634 8.72367 7.16634 8.99967C7.16634 9.27567 6.94234 9.49967 6.66634 9.49967H6.00293C6.46693 10.117 7.20101 10.4997 7.99967 10.4997C9.14301 10.4997 10.1337 9.73042 10.4097 8.62842C10.477 8.36042 10.7536 8.19964 11.0156 8.26497C11.2843 8.33164 11.4471 8.60293 11.3797 8.87093ZM11.4997 6.99967C11.4997 7.27567 11.2757 7.49967 10.9997 7.49967H10.8083C10.8023 7.49967 10.7964 7.50034 10.7904 7.49967H9.33301C9.05701 7.49967 8.83301 7.27567 8.83301 6.99967C8.83301 6.72367 9.05701 6.49967 9.33301 6.49967H9.99642C9.53242 5.88234 8.79834 5.49967 7.99967 5.49967C6.85634 5.49967 5.86568 6.26893 5.58968 7.37093C5.53301 7.59826 5.32898 7.74967 5.10498 7.74967C5.06431 7.74967 5.02374 7.74503 4.98307 7.73503C4.71507 7.66769 4.55231 7.39642 4.61898 7.12842C5.00631 5.58108 6.39636 4.49967 7.99902 4.49967C8.96169 4.49967 9.85369 4.901 10.499 5.56234V5.33301C10.499 5.05701 10.723 4.83301 10.999 4.83301C11.275 4.83301 11.499 5.05701 11.499 5.33301V6.99967H11.4997Z" fill="#3B3B3E"/>
</svg>
