<svg width="16" height="16" viewBox="0 0 16 16" fill="none" xmlns="http://www.w3.org/2000/svg">
<path d="M11.1385 8.1955C11.3992 8.45617 11.3992 8.87754 11.1385 9.13821L8.47187 11.8049C8.34187 11.9349 8.17118 12.0002 8.00051 12.0002C7.82985 12.0002 7.65916 11.9349 7.52916 11.8049L4.86249 9.13821C4.60183 8.87754 4.60183 8.45617 4.86249 8.1955C5.12316 7.93483 5.54453 7.93483 5.8052 8.1955L8.00051 10.3908L10.1958 8.1955C10.4565 7.93483 10.8779 7.93483 11.1385 8.1955ZM7.52916 7.80488C7.65916 7.93488 7.82985 8.00019 8.00051 8.00019C8.17118 8.00019 8.34187 7.93488 8.47187 7.80488L11.1385 5.13821C11.3992 4.87754 11.3992 4.45617 11.1385 4.1955C10.8779 3.93483 10.4565 3.93483 10.1958 4.1955L8.00051 6.39081L5.8052 4.1955C5.54453 3.93483 5.12316 3.93483 4.86249 4.1955C4.60183 4.45617 4.60183 4.87754 4.86249 5.13821L7.52916 7.80488Z" fill="#3B3B3E"/>
</svg>
