<svg width="16" height="16" viewBox="0 0 16 16" fill="none" xmlns="http://www.w3.org/2000/svg">
<path d="M4.83364 2C4.83364 1.724 5.05764 1.5 5.33364 1.5H8.66697C8.94297 1.5 9.16697 1.724 9.16697 2C9.16697 2.276 8.94297 2.5 8.66697 2.5H5.33364C5.05764 2.5 4.83364 2.276 4.83364 2ZM11.8664 9.2207L8.62433 12.4827C8.43833 12.67 8.33429 12.9227 8.33429 13.186V13.6554C8.33429 13.7474 8.27226 13.8313 8.18292 13.8547C7.79692 13.954 7.39571 14.0007 6.98371 13.9993C4.61637 13.9913 2.50759 12.262 2.08559 9.9327C1.51159 6.7627 3.93562 3.99935 7.00096 3.99935C8.11562 3.99935 9.14228 4.36867 9.97361 4.986L10.9803 3.97933C11.1736 3.786 11.4937 3.786 11.687 3.97933C11.8803 4.17266 11.8803 4.4927 11.687 4.68604L10.7137 5.65934C11.481 6.51201 11.9637 7.62664 11.9984 8.85531C11.9997 8.90331 12.0137 9.07404 11.8664 9.2207ZM7.50031 6.66667C7.50031 6.39067 7.27631 6.16667 7.00031 6.16667C6.72431 6.16667 6.50031 6.39067 6.50031 6.66667V9C6.50031 9.276 6.72431 9.5 7.00031 9.5C7.27631 9.5 7.50031 9.276 7.50031 9V6.66667ZM14.4936 10.1667L13.8336 9.50667C13.6003 9.27334 13.227 9.27334 12.9936 9.50667L12.4536 10.0533L13.9469 11.5466L14.4936 11.0067C14.727 10.7733 14.727 10.4 14.4936 10.1667ZM9.33364 13.1867V14.6667H10.8136L13.4803 12.0133L11.987 10.52L9.33364 13.1867Z" fill="#3B3B3E"/>
</svg>
