<svg width="16" height="16" viewBox="0 0 16 16" fill="none" xmlns="http://www.w3.org/2000/svg">
<path d="M8.67969 7C8.67969 7.368 8.38169 7.66667 8.01302 7.66667C7.64502 7.66667 7.34294 7.368 7.34294 7C7.34294 6.632 7.63835 6.33333 8.00635 6.33333H8.01302C8.38102 6.33333 8.67969 6.632 8.67969 7ZM12.6663 4V14L7.99967 11.3333L3.33301 14V4C3.33301 2.66667 3.99967 2 5.33301 2H10.6663C11.9997 2 12.6663 2.66667 12.6663 4ZM9.85563 7.0013C9.85496 6.72264 10.0077 6.46536 10.2563 6.32536L10.3337 6.28198L9.79899 5.38468L9.72233 5.42733C9.473 5.56666 9.16631 5.56668 8.91764 5.42668C8.67031 5.28734 8.51839 5.03065 8.51839 4.75399C8.51839 4.70599 8.47772 4.66667 8.42839 4.66667H7.53906C7.48973 4.66667 7.44906 4.70599 7.44906 4.75399C7.44906 5.03132 7.29698 5.28734 7.04964 5.42668C6.80098 5.56668 6.49429 5.56733 6.24495 5.42733C6.20295 5.40333 6.14902 5.41733 6.12435 5.45866L5.67839 6.20736C5.65372 6.24802 5.66829 6.30071 5.71029 6.32471L5.71175 6.32536C5.95908 6.46469 6.11099 6.72065 6.11165 6.99731C6.11232 7.27598 5.95975 7.53399 5.71175 7.67399L5.71094 7.67464C5.66827 7.69864 5.65439 7.75133 5.67839 7.79199L6.12435 8.54004C6.14902 8.58137 6.20294 8.59537 6.24561 8.57137C6.49427 8.43204 6.80098 8.43202 7.04964 8.57202C7.29698 8.71136 7.44907 8.96803 7.4484 9.24536C7.4484 9.29336 7.48841 9.33268 7.53841 9.33268H8.42904C8.47837 9.33268 8.51904 9.29401 8.51904 9.24601C8.51904 8.96868 8.67096 8.71266 8.91829 8.57332C9.16696 8.43332 9.47365 8.43267 9.72298 8.57267C9.76498 8.59667 9.81975 8.58267 9.84375 8.54134L10.2897 7.79264C10.3144 7.75198 10.2996 7.69929 10.2576 7.67529L10.257 7.67464C10.0083 7.53531 9.85563 7.27864 9.85563 7.0013Z" fill="#3B3B3E"/>
</svg>
