<svg width="16" height="16" viewBox="0 0 16 16" fill="none" xmlns="http://www.w3.org/2000/svg">
<path d="M11.75 2H4.25C2.75 2 2 2.75 2 4.25V11.75C2 13.25 2.75 14 4.25 14H11.75C13.25 14 14 13.25 14 11.75V4.25C14 2.75 13.25 2 11.75 2ZM10.3247 7.47334L6.132 11.6667L7.30733 8.24267C7.348 8.124 7.25999 8 7.13399 8H5.96399C5.68599 8 5.48935 7.72733 5.57735 7.464L6.64001 4.75133C6.72335 4.502 6.92266 4.33333 7.18599 4.33333H9.01066C9.30333 4.33333 9.50068 4.63333 9.38468 4.902L8.68534 6.52133C8.63334 6.64267 8.722 6.77733 8.854 6.77733H10.0367C10.3993 6.778 10.5807 7.21667 10.3247 7.47334Z" fill="#3B3B3E"/>
</svg>
