<svg width="16" height="16" viewBox="0 0 16 16" fill="none" xmlns="http://www.w3.org/2000/svg">
<path d="M14.4704 8.47252L9.80436 13.1385C9.67436 13.2685 9.50367 13.3338 9.33301 13.3338C9.16234 13.3338 8.99165 13.2685 8.86165 13.1385C8.60099 12.8779 8.60099 12.4565 8.86165 12.1958L12.3903 8.66718H1.99967C1.63101 8.66718 1.33301 8.36851 1.33301 8.00051C1.33301 7.63251 1.63101 7.33385 1.99967 7.33385H12.3903L8.86165 3.8052C8.60099 3.54453 8.60099 3.12316 8.86165 2.86249C9.12232 2.60183 9.5437 2.60183 9.80436 2.86249L14.4704 7.52851C14.5324 7.59051 14.5811 7.66379 14.6151 7.74579C14.6824 7.90846 14.6824 8.09257 14.6151 8.25523C14.5811 8.33723 14.5324 8.41052 14.4704 8.47252Z" fill="#3B3B3E"/>
</svg>
