<svg width="16" height="16" viewBox="0 0 16 16" fill="none" xmlns="http://www.w3.org/2000/svg">
<path d="M6.31966 7.43401C6.48633 7.50735 6.65967 7.55403 6.83301 7.59403V13.9407C6.72634 13.914 6.61969 13.874 6.51969 13.8273L2.51969 12.0474C1.79969 11.7274 1.33301 11.014 1.33301 10.2207V5.78069C1.33301 5.60069 1.35966 5.42069 1.40633 5.25402L6.31966 7.43401ZM12.753 4.37402C12.5797 4.20068 12.3797 4.05401 12.1463 3.95401L8.14632 2.17402C7.62632 1.94069 7.03969 1.94069 6.51969 2.17402L2.51969 3.95401C2.28636 4.05401 2.08634 4.20068 1.913 4.37402L6.71965 6.51401C7.10631 6.68734 7.55304 6.68734 7.94637 6.51401L12.753 4.37402ZM11.1337 7.92935C11.8217 7.76735 12.4756 7.81936 13.0636 8.02203C13.1956 8.06736 13.333 7.97802 13.333 7.83802V5.78069C13.333 5.60069 13.3064 5.42069 13.2597 5.25402L8.34635 7.43401C8.17969 7.50068 8.00634 7.55403 7.83301 7.59403V13.9407C7.84501 13.9487 7.84502 13.9487 7.85702 13.9567L8.98568 13.4527C9.10034 13.4014 9.13436 13.2627 9.06502 13.1587C8.58302 12.438 8.37766 11.5227 8.573 10.5594C8.83366 9.27336 9.85704 8.23002 11.1337 7.92935ZM15.0197 14.3533C14.9224 14.4507 14.7943 14.5 14.6663 14.5C14.5383 14.5 14.4103 14.4513 14.313 14.3533L13.2797 13.32C12.895 13.572 12.4377 13.722 11.9443 13.722C10.5963 13.722 9.49967 12.6254 9.49967 11.2774C9.49967 9.92936 10.5963 8.83267 11.9443 8.83267C13.2917 8.83267 14.3883 9.92936 14.3883 11.2774C14.3883 11.7707 14.239 12.2287 13.987 12.6127L15.0203 13.646C15.215 13.8413 15.215 14.158 15.0197 14.3533ZM13.3883 11.278C13.3883 10.4813 12.7403 9.83334 11.9443 9.83334C11.1477 9.83334 10.4997 10.4813 10.4997 11.278C10.4997 12.0747 11.1477 12.7227 11.9443 12.7227C12.7403 12.722 13.3883 12.074 13.3883 11.278Z" fill="#3B3B3E"/>
</svg>
