<svg width="16" height="16" viewBox="0 0 16 16" fill="none" xmlns="http://www.w3.org/2000/svg">
<path d="M8.01204 1.33301C6.51871 2.07367 5.33333 2.66634 2 3.33301C2 4.09101 2 6.46762 2 7.25895C2 11.7036 5.778 13.9257 8 14.6663C10.222 13.9257 14 11.7036 14 7.25895C14 6.44228 14 4.12901 14 3.33301C10.6667 2.66634 9.48138 2.07367 8.01204 1.33301ZM9.99593 8.49967H5.99593C5.71993 8.49967 5.49593 8.27567 5.49593 7.99967C5.49593 7.72367 5.71993 7.49967 5.99593 7.49967H9.99593C10.2719 7.49967 10.4959 7.72367 10.4959 7.99967C10.4959 8.27567 10.2719 8.49967 9.99593 8.49967Z" fill="#3B3B3E"/>
</svg>
