<svg width="16" height="16" viewBox="0 0 16 16" fill="none" xmlns="http://www.w3.org/2000/svg">
<path d="M14.6665 11.3335C14.6665 11.4202 14.6485 11.5069 14.6152 11.5882C14.5478 11.7509 14.4178 11.8809 14.2545 11.9489C14.1732 11.9829 14.0865 12.0002 13.9998 12.0002H11.2305C10.8625 12.0002 10.5638 11.7015 10.5638 11.3335C10.5638 10.9655 10.8625 10.6669 11.2305 10.6669H12.3905L8.66651 6.9429L6.94251 8.66685C6.42318 9.18685 5.57651 9.18685 5.05717 8.66685L1.52851 5.13821C1.26784 4.87754 1.26784 4.45617 1.52851 4.1955C1.78917 3.93483 2.21051 3.93483 2.47118 4.1955L5.99984 7.72415L7.72384 6.00019C8.24317 5.48019 9.08984 5.48019 9.60918 6.00019L13.3332 9.72415V8.56415C13.3332 8.19615 13.6318 7.89749 13.9998 7.89749C14.3678 7.89749 14.6665 8.19615 14.6665 8.56415V11.3335Z" fill="#3B3B3E"/>
</svg>
