<svg width="16" height="16" viewBox="0 0 16 16" fill="none" xmlns="http://www.w3.org/2000/svg">
<path d="M4.33333 7.53333V13.8C4.33333 13.9106 4.24397 14 4.1333 14H3C2.448 14 2 13.552 2 13V8.33333C2 7.78133 2.448 7.33333 3 7.33333H4.1333C4.2433 7.33333 4.33333 7.42266 4.33333 7.53333ZM11.932 6H9.33203V3.84001C9.33203 3.17334 8.99864 2.54668 8.43864 2.18001C8.25864 2.06001 8.05197 2 7.85197 2C7.43197 2 7.02532 2.25335 6.86532 2.68669L5.34196 7.30265C5.33529 7.32265 5.33203 7.34398 5.33203 7.36532V13.8C5.33203 13.9106 5.42132 14 5.53198 14H10.598C11.938 14 12.2246 13.4467 12.498 12.6333L13.8313 8.63334C14.2653 7.34001 13.9386 6 11.932 6Z" fill="#3B3B3E"/>
</svg>
