<svg width="16" height="16" viewBox="0 0 16 16" fill="none" xmlns="http://www.w3.org/2000/svg">
<path d="M10.6663 6H5.83301V4.66667C5.83301 4.09333 6.05964 3.54663 6.46631 3.1333C6.87964 2.72663 7.42634 2.5 7.99967 2.5C8.99301 2.5 9.85294 3.16663 10.0929 4.12663C10.1663 4.39329 10.4397 4.55332 10.6997 4.48665C10.973 4.41332 11.1331 4.14671 11.0664 3.87337C10.7064 2.48004 9.44634 1.5 7.99967 1.5C7.15967 1.5 6.36627 1.8266 5.7596 2.4266C5.1596 3.03326 4.83301 3.82667 4.83301 4.66667V6.03874C3.83434 6.19407 3.33301 6.846 3.33301 8V12C3.33301 13.3333 3.99967 14 5.33301 14H10.6663C11.9997 14 12.6663 13.3333 12.6663 12V8C12.6663 6.66667 11.9997 6 10.6663 6ZM8.49967 9.99137V11.3333C8.49967 11.6093 8.27567 11.8333 7.99967 11.8333C7.72367 11.8333 7.49967 11.6093 7.49967 11.3333V9.97461C7.30767 9.82194 7.17627 9.59667 7.17627 9.33333C7.17627 8.87333 7.54635 8.5 8.00635 8.5H8.01302C8.47302 8.5 8.84635 8.87333 8.84635 9.33333C8.84635 9.608 8.70434 9.84004 8.49967 9.99137Z" fill="#3B3B3E"/>
</svg>
