<svg width="16" height="16" viewBox="0 0 16 16" fill="none" xmlns="http://www.w3.org/2000/svg">
<path d="M12.6663 3.33301H5.99967C4.66634 3.33301 3.99967 3.99967 3.99967 5.33301V11.9997C3.99967 12.7363 3.40234 13.333 2.66634 13.333H12.6663C13.9997 13.333 14.6663 12.6663 14.6663 11.333V5.33301C14.6663 3.99967 13.9997 3.33301 12.6663 3.33301ZM9.33301 10.3843C9.33301 10.7943 9.12761 10.9997 8.71761 10.9997H6.61507C6.20507 10.9997 5.99967 10.7943 5.99967 10.3843V8.94834C5.99967 8.53834 6.20507 8.33301 6.61507 8.33301H8.71761C9.12761 8.33301 9.33301 8.53834 9.33301 8.94834V10.3843ZM12.6663 11.1663H11.333C11.057 11.1663 10.833 10.9423 10.833 10.6663C10.833 10.3903 11.057 10.1663 11.333 10.1663H12.6663C12.9423 10.1663 13.1663 10.3903 13.1663 10.6663C13.1663 10.9423 12.9423 11.1663 12.6663 11.1663ZM12.6663 9.16634H11.333C11.057 9.16634 10.833 8.94234 10.833 8.66634C10.833 8.39034 11.057 8.16634 11.333 8.16634H12.6663C12.9423 8.16634 13.1663 8.39034 13.1663 8.66634C13.1663 8.94234 12.9423 9.16634 12.6663 9.16634ZM12.6663 6.49967H6.49967C6.22367 6.49967 5.99967 6.27567 5.99967 5.99967C5.99967 5.72367 6.22367 5.49967 6.49967 5.49967H12.6663C12.9423 5.49967 13.1663 5.72367 13.1663 5.99967C13.1663 6.27567 12.9423 6.49967 12.6663 6.49967ZM2.16699 12.3323C1.70633 12.333 1.33301 11.9597 1.33301 11.499V7.33301C1.33301 6.59967 1.93301 5.99967 2.66634 5.99967H2.99967V11.499C2.99967 11.959 2.62699 12.3317 2.16699 12.3323Z" fill="#3B3B3E"/>
</svg>
