<svg width="16" height="16" viewBox="0 0 16 16" fill="none" xmlns="http://www.w3.org/2000/svg">
<path d="M7.99967 1.33301C4.31767 1.33301 1.33301 4.31767 1.33301 7.99967C1.33301 11.6817 4.31767 14.6663 7.99967 14.6663C11.6817 14.6663 14.6663 11.6817 14.6663 7.99967C14.6663 4.31767 11.6817 1.33301 7.99967 1.33301ZM8.49967 10.9997C8.49967 11.2757 8.27567 11.4997 7.99967 11.4997C7.72367 11.4997 7.49967 11.2757 7.49967 10.9997V7.95231C7.49967 7.67631 7.72367 7.45231 7.99967 7.45231C8.27567 7.45231 8.49967 7.67631 8.49967 7.95231V10.9997ZM8.01302 6.33301C7.64502 6.33301 7.34294 6.03434 7.34294 5.66634C7.34294 5.29834 7.63835 4.99967 8.00635 4.99967H8.01302C8.38169 4.99967 8.67969 5.29834 8.67969 5.66634C8.67969 6.03434 8.38102 6.33301 8.01302 6.33301Z" fill="#3B3B3E"/>
</svg>
