<svg width="16" height="16" viewBox="0 0 16 16" fill="none" xmlns="http://www.w3.org/2000/svg">
<path d="M13.267 12.9464C13.301 13.1484 13.145 13.333 12.9403 13.333H3.06036C2.85503 13.333 2.69899 13.1484 2.73366 12.9464L3.00567 11.333C3.02167 11.237 3.10502 11.1663 3.20302 11.1663H12.7984C12.8957 11.1663 12.979 11.237 12.9957 11.333L13.267 12.9464ZM12.9937 5.01968L11.327 6.02635C11.0257 6.20835 10.6343 6.12034 10.4403 5.82634L8.54766 2.96035C8.289 2.56835 7.71367 2.56768 7.45367 2.95968L5.56036 5.81969C5.36703 6.11969 4.97368 6.20634 4.66701 6.01968L3.00702 5.01968C2.51368 4.71968 1.90036 5.14635 2.01369 5.71302L2.97833 10.0103C2.999 10.1017 3.07968 10.1663 3.17368 10.1663H12.827C12.9203 10.1663 13.0017 10.1017 13.0224 10.0103L13.987 5.71302C14.1003 5.14635 13.487 4.71968 12.9937 5.01968Z" fill="#3B3B3E"/>
</svg>
