<svg width="16" height="16" viewBox="0 0 16 16" fill="none" xmlns="http://www.w3.org/2000/svg">
<path d="M13.7333 4.4L11.6667 2.33333C11.4667 2.13333 11.2 2 10.9333 2H4C2.66667 2 2 2.66667 2 4V12C2 13.3333 2.66667 14 4 14H12C13.3333 14 14 13.3333 14 12V5.06667C14 4.8 13.8667 4.53333 13.7333 4.4ZM6.33333 4.8H9.66667C9.93333 4.8 10.2 5 10.2 5.33333C10.2 5.6 10 5.86667 9.66667 5.86667H6.33333C6.06667 5.86667 5.86667 5.6 5.86667 5.33333C5.86667 5.06667 6.06667 4.8 6.33333 4.8ZM11.3333 12.8C11.3333 12.9333 11.2667 13 11.1333 13H4.86667C4.73333 13 4.66667 12.9333 4.66667 12.8V9.66667C4.66667 9 5 8.66667 5.66667 8.66667H10.3333C11 8.66667 11.3333 9 11.3333 9.66667V12.8Z" fill="#3B3B3E"/>
</svg>
