<svg width="16" height="16" viewBox="0 0 16 16" fill="none" xmlns="http://www.w3.org/2000/svg">
<path d="M14 9.33333C14 10.6667 13.3333 11.3333 12 11.3333H9.33333V13.5H11C11.2733 13.5 11.5 13.7267 11.5 14C11.5 14.2733 11.2733 14.5 11 14.5H5C4.72667 14.5 4.5 14.2733 4.5 14C4.5 13.7267 4.72667 13.5 5 13.5H6.66667V11.3333H4C2.66667 11.3333 2 10.6667 2 9.33333C2 9.24133 2.07467 9.16667 2.16667 9.16667H13.8333C13.9253 9.16667 14 9.24133 14 9.33333ZM12 2H4C2.66667 2 2 2.66667 2 4V8C2 8.092 2.07467 8.16667 2.16667 8.16667H13.8333C13.9253 8.16667 14 8.092 14 8V4C14 2.66667 13.3333 2 12 2Z" fill="#3B3B3E"/>
</svg>
