<svg width="16" height="16" viewBox="0 0 16 16" fill="none" xmlns="http://www.w3.org/2000/svg">
<path fill-rule="evenodd" clip-rule="evenodd" d="M13.0463 5.72454L9.07031 2.39048C8.45098 1.87114 7.54764 1.87114 6.9283 2.39048L2.95231 5.72454C2.34831 6.23121 1.99902 6.43584 1.99902 7.76784V12.0005C1.99902 13.3338 2.66569 14.0005 3.99902 14.0005H11.999C13.3324 14.0005 13.999 13.3338 13.999 12.0005V7.76784C13.9997 6.43517 13.651 6.23121 13.0463 5.72454ZM7.99967 11.6672C7.63167 11.6672 7.33301 11.3685 7.33301 11.0005C7.33301 10.6325 7.63167 10.3338 7.99967 10.3338C8.36767 10.3338 8.66634 10.6325 8.66634 11.0005C8.66634 11.3685 8.36767 11.6672 7.99967 11.6672ZM9.89836 9.80983C9.79969 9.93916 9.65036 10.0072 9.49902 10.0072C9.39369 10.0072 9.28769 9.97387 9.19702 9.90521C8.51102 9.38387 7.48899 9.38387 6.80233 9.90521C6.58166 10.0725 6.26899 10.0292 6.10099 9.80918C5.93433 9.58918 5.97702 9.27583 6.19702 9.10849C7.23502 8.31983 8.76499 8.31983 9.80233 9.10849C10.0217 9.27649 10.065 9.5905 9.89836 9.80983ZM11.3783 8.43784C11.2797 8.55251 11.1403 8.61183 10.9997 8.61183C10.8837 8.61183 10.7677 8.57183 10.6737 8.49049C9.93233 7.85183 8.98234 7.5005 7.99967 7.5005C7.01701 7.5005 6.06768 7.85183 5.32568 8.49049C5.11702 8.67049 4.80103 8.64717 4.62036 8.43784C4.43969 8.22851 4.46435 7.91252 4.67301 7.73252C5.59635 6.93785 6.77702 6.5005 7.99902 6.5005C9.22102 6.5005 10.4017 6.93785 11.325 7.73252C11.535 7.91252 11.559 8.22851 11.3783 8.43784Z" fill="#3B3B3E"/>
</svg>
