<svg width="16" height="16" viewBox="0 0 16 16" fill="none" xmlns="http://www.w3.org/2000/svg">
<path d="M14 5.83333C13.724 5.83333 13.5 5.60933 13.5 5.33333V3C13.5 2.60733 13.3927 2.5 13 2.5H10.6667C10.3907 2.5 10.1667 2.276 10.1667 2C10.1667 1.724 10.3907 1.5 10.6667 1.5H13C13.9393 1.5 14.5 2.06067 14.5 3V5.33333C14.5 5.60933 14.276 5.83333 14 5.83333ZM2.5 5.33333V3C2.5 2.60733 2.60733 2.5 3 2.5H5.33333C5.60933 2.5 5.83333 2.276 5.83333 2C5.83333 1.724 5.60933 1.5 5.33333 1.5H3C2.06067 1.5 1.5 2.06067 1.5 3V5.33333C1.5 5.60933 1.724 5.83333 2 5.83333C2.276 5.83333 2.5 5.60933 2.5 5.33333ZM5.83333 14C5.83333 13.724 5.60933 13.5 5.33333 13.5H3C2.60733 13.5 2.5 13.3927 2.5 13V10.6667C2.5 10.3907 2.276 10.1667 2 10.1667C1.724 10.1667 1.5 10.3907 1.5 10.6667V13C1.5 13.9393 2.06067 14.5 3 14.5H5.33333C5.60933 14.5 5.83333 14.276 5.83333 14ZM14.5 13V10.6667C14.5 10.3907 14.276 10.1667 14 10.1667C13.724 10.1667 13.5 10.3907 13.5 10.6667V13C13.5 13.3927 13.3927 13.5 13 13.5H10.6667C10.3907 13.5 10.1667 13.724 10.1667 14C10.1667 14.276 10.3907 14.5 10.6667 14.5H13C13.9393 14.5 14.5 13.9393 14.5 13ZM10.278 6.50732V5.77734C10.278 4.52134 9.256 3.49935 8 3.49935C6.744 3.49935 5.72201 4.52134 5.72201 5.77734V6.50732C5.02001 6.62332 4.66667 7.08729 4.66667 7.90462V10.762C4.66667 11.7147 5.14271 12.1906 6.09538 12.1906H9.90462C10.8566 12.1906 11.3333 11.7147 11.3333 10.762V7.90462C11.3333 7.08729 10.98 6.62332 10.278 6.50732ZM8.5 9.54736V10.2227C8.5 10.4987 8.276 10.7227 8 10.7227C7.724 10.7227 7.5 10.4987 7.5 10.2227V9.5306C7.308 9.37793 7.1766 9.15266 7.1766 8.88932C7.1766 8.42932 7.54667 8.05599 8.00667 8.05599H8.01335C8.47335 8.05599 8.84668 8.42932 8.84668 8.88932C8.84668 9.16332 8.70467 9.39536 8.5 9.54736ZM6.72201 6.47607V5.77734C6.72201 5.07268 7.29533 4.49935 8 4.49935C8.70467 4.49935 9.278 5.07268 9.278 5.77734V6.47607H6.72201Z" fill="#3B3B3E"/>
</svg>
