<svg width="16" height="16" viewBox="0 0 16 16" fill="none" xmlns="http://www.w3.org/2000/svg">
<path d="M12 4.66699H8.66667L6.66667 2.66699H4C2.66667 2.66699 2 3.33366 2 4.66699V11.3337C2 12.667 2.66667 13.3337 4 13.3337H12C13.3333 13.3337 14 12.667 14 11.3337V6.66699C14 5.33366 13.3333 4.66699 12 4.66699ZM10.02 8.243L7.79801 10.465C7.70401 10.559 7.57733 10.6117 7.44466 10.6117C7.31199 10.6117 7.18464 10.559 7.09131 10.465L5.97998 9.35366C5.78465 9.15832 5.78465 8.84166 5.97998 8.64632C6.17531 8.45099 6.492 8.45099 6.68734 8.64632L7.44531 9.40367L9.31397 7.53499C9.5093 7.33966 9.82599 7.33966 10.0213 7.53499C10.2153 7.73099 10.2154 8.04767 10.02 8.243Z" fill="#3B3B3E"/>
</svg>
