<svg width="16" height="16" viewBox="0 0 16 16" fill="none" xmlns="http://www.w3.org/2000/svg">
<path d="M4.55351 8.49967C4.65351 10.553 5.34684 12.6463 6.55351 14.5063C3.72684 13.8797 1.57352 11.4597 1.35352 8.49967H4.55351ZM6.55351 1.493C3.72684 2.11967 1.57352 4.53967 1.35352 7.49967H4.55351C4.65351 5.44634 5.34684 3.353 6.55351 1.493ZM8.13352 1.33301H7.86684L7.66685 1.61967C6.40018 3.41967 5.66017 5.48634 5.55351 7.49967H10.4469C10.3402 5.48634 9.60018 3.41967 8.33352 1.61967L8.13352 1.33301ZM5.55351 8.49967C5.66017 10.513 6.40018 12.5797 7.66685 14.3797L7.86684 14.6663H8.13352L8.33352 14.3797C9.60018 12.5797 10.3402 10.513 10.4469 8.49967H5.55351ZM11.4469 8.49967C11.3469 10.553 10.6535 12.6463 9.44686 14.5063C12.2735 13.8797 14.4269 11.4597 14.6469 8.49967H11.4469ZM14.6469 7.49967C14.4269 4.53967 12.2735 2.11967 9.44686 1.493C10.6535 3.353 11.3469 5.44634 11.4469 7.49967H14.6469Z" fill="#3B3B3E"/>
</svg>
