<svg width="16" height="16" viewBox="0 0 16 16" fill="none" xmlns="http://www.w3.org/2000/svg">
<g clip-path="url(#clip0_36251_7508)">
<path d="M4.00635 4.33268C4.00635 2.86202 5.20235 1.66602 6.67301 1.66602C8.14368 1.66602 9.33968 2.86202 9.33968 4.33268C9.33968 5.80335 8.14368 6.99935 6.67301 6.99935C5.20235 6.99935 4.00635 5.80335 4.00635 4.33268ZM7.83366 11.9993C7.83366 10.7193 8.40697 9.586 9.31364 8.81934C9.34697 8.786 9.3737 8.7327 9.3737 8.67936C9.3737 8.54403 9.20567 8.488 9.17367 8.47933C8.827 8.386 8.43366 8.33268 8.00033 8.33268H5.33366C2.62699 8.33268 1.66699 10.3127 1.66699 12.0127C1.66699 13.5327 2.47366 14.3327 4.00033 14.3327H8.19369C8.30702 14.3327 8.39566 14.2467 8.39966 14.134C8.40166 14.0807 8.38029 14.0467 8.38029 14.0467C8.03362 13.4394 7.83366 12.7393 7.83366 11.9993ZM15.167 11.9993C15.167 13.7453 13.7463 15.166 12.0003 15.166C10.2543 15.166 8.83366 13.7453 8.83366 11.9993C8.83366 10.2533 10.2543 8.83268 12.0003 8.83268C13.7463 8.83268 15.167 10.2533 15.167 11.9993ZM10.1616 13.1313L13.1323 10.1606C12.8017 9.95664 12.4163 9.83268 12.0003 9.83268C10.8057 9.83268 9.83366 10.8047 9.83366 11.9993C9.83366 12.4153 9.95695 12.8007 10.1616 13.1313ZM14.167 11.9993C14.167 11.5833 14.0437 11.198 13.839 10.8674L10.8683 13.8381C11.199 14.0421 11.5843 14.166 12.0003 14.166C13.195 14.166 14.167 13.194 14.167 11.9993Z" fill="#3B3B3E"/>
</g>
<defs>
<clipPath id="clip0_36251_7508">
<rect width="16" height="16" fill="white"/>
</clipPath>
</defs>
</svg>
