<svg width="16" height="16" viewBox="0 0 16 16" fill="none" xmlns="http://www.w3.org/2000/svg">
<path d="M12.471 11.8044L9.80501 14.4704C9.74301 14.5324 9.66973 14.5811 9.58773 14.6151C9.50639 14.6491 9.41967 14.6663 9.33301 14.6663C9.24634 14.6663 9.15962 14.6484 9.07829 14.6151C8.99629 14.5811 8.923 14.5324 8.861 14.4704L6.19499 11.8044C5.93432 11.5437 5.93432 11.1223 6.19499 10.8617C6.45565 10.601 6.87703 10.601 7.1377 10.8617L8.66634 12.3903V3.99967C8.66634 3.26434 8.06834 2.66634 7.33301 2.66634H3.99967C3.63101 2.66634 3.33301 2.36767 3.33301 1.99967C3.33301 1.63167 3.63101 1.33301 3.99967 1.33301H7.33301C8.80367 1.33301 9.99967 2.52901 9.99967 3.99967V12.3903L11.5283 10.8617C11.789 10.601 12.2104 10.601 12.471 10.8617C12.7317 11.1223 12.7317 11.5437 12.471 11.8044Z" fill="#3B3B3E"/>
</svg>
