<svg width="16" height="16" viewBox="0 0 16 16" fill="none" xmlns="http://www.w3.org/2000/svg">
<path d="M14.6667 8.66634C14.6667 10.5063 13.1733 11.9997 11.3333 11.9997C11.3333 11.9997 6.97338 11.9997 6.86605 11.9997C6.75872 11.9997 6.66667 11.9183 6.66667 11.7997C6.66667 11.681 6.66667 10.3797 6.66667 10.3797C6.66667 9.69968 6.42667 9.14634 6 8.79301V8.49967C6 7.04967 4.84465 5.87099 3.40332 5.83366C3.22332 5.83233 3.16873 5.65035 3.2334 5.53035C3.9714 4.21635 5.37935 3.33301 6.99935 3.33301C8.09935 3.33301 9.09938 3.73967 9.85938 4.413C10.1794 4.69967 10.4594 5.02636 10.686 5.39303C10.8994 5.35303 11.1127 5.33301 11.3327 5.33301C13.1733 5.33301 14.6667 6.82634 14.6667 8.66634ZM5.66667 10.3803V11.9517C5.66667 12.6497 5.33333 12.999 4.66667 12.999H2C1.33333 12.999 1 12.6497 1 11.9517V10.3803C1 9.815 1.23 9.49032 1.66667 9.38232V8.49902C1.66667 7.58036 2.414 6.83236 3.33333 6.83236C4.25267 6.83236 5 7.58036 5 8.49902V9.38232C5.43667 9.49032 5.66667 9.815 5.66667 10.3803ZM4 8.49967C4 8.13167 3.70133 7.83301 3.33333 7.83301C2.96533 7.83301 2.66667 8.13167 2.66667 8.49967V9.33301H4V8.49967Z" fill="#3B3B3E"/>
</svg>
