<svg width="16" height="16" viewBox="0 0 16 16" fill="none" xmlns="http://www.w3.org/2000/svg">
<path d="M9.01302 9.66667C9.01302 10.0347 8.71502 10.3333 8.34635 10.3333C7.97835 10.3333 7.67627 10.0347 7.67627 9.66667C7.67627 9.29867 7.97168 9 8.33968 9H8.34635C8.71435 9 9.01302 9.29867 9.01302 9.66667ZM11.333 5.5H12.833L9.83301 2.5V4C9.83301 5.05333 10.2797 5.5 11.333 5.5ZM13.333 6.5V12C13.333 13.3333 12.6663 14 11.333 14H5.33301C3.99967 14 3.33301 13.3333 3.33301 12V4C3.33301 2.66667 3.99967 2 5.33301 2H8.83301V4C8.83301 5.61333 9.71967 6.5 11.333 6.5H13.333ZM10.189 9.668C10.1883 9.38933 10.341 9.132 10.5897 8.992L10.667 8.94867L10.1323 8.05133L10.0557 8.094C9.80633 8.23334 9.49964 8.23333 9.25098 8.09333C9.00364 7.954 8.85173 7.698 8.85173 7.42066C8.85173 7.37266 8.81172 7.33333 8.76172 7.33333H7.8724C7.82306 7.33333 7.78239 7.37266 7.78239 7.42066C7.78239 7.698 7.63031 7.954 7.38298 8.09333C7.13431 8.23333 6.82762 8.234 6.57829 8.094C6.53629 8.07 6.48168 8.08467 6.45768 8.12534L6.01172 8.874C5.98705 8.91467 6.00162 8.96733 6.04362 8.99133L6.04508 8.992C6.29242 9.13134 6.44432 9.38734 6.44499 9.664C6.44565 9.94267 6.29308 10.2007 6.04508 10.3407L6.04362 10.3413C6.00162 10.3653 5.98705 10.418 6.01172 10.4587L6.45768 11.2067C6.48235 11.248 6.53627 11.262 6.57894 11.238C6.82761 11.0987 7.13431 11.0987 7.38298 11.2387C7.63031 11.378 7.78241 11.6347 7.78174 11.912C7.78174 11.96 7.82174 11.9993 7.87174 11.9993H8.76237C8.8117 11.9993 8.85238 11.9607 8.85238 11.9127C8.85238 11.6353 9.00429 11.3793 9.25163 11.24C9.50029 11.1 9.80698 11.0993 10.0563 11.2393C10.0983 11.2633 10.1524 11.2487 10.1771 11.208L10.623 10.4593C10.6477 10.4187 10.633 10.366 10.591 10.342L10.5903 10.3413C10.3417 10.202 10.189 9.94533 10.189 9.668Z" fill="#3B3B3E"/>
</svg>
