<svg width="16" height="16" viewBox="0 0 16 16" fill="none" xmlns="http://www.w3.org/2000/svg">
<path d="M8.50028 6.00033V6.73372H7.50028V6.00033C7.50028 5.72433 7.72428 5.50033 8.00028 5.50033C8.27628 5.50033 8.50028 5.72433 8.50028 6.00033ZM13.667 7.33366C13.667 10.6557 10.581 12.6943 8.53896 14.043L8.18563 14.2777C8.12963 14.315 8.06496 14.3337 8.00096 14.3337C7.93696 14.3337 7.87228 14.315 7.81628 14.2777L7.46295 14.043C5.42095 12.6943 2.33496 10.6557 2.33496 7.33366C2.33496 4.20899 4.87696 1.66699 8.00163 1.66699C11.1263 1.66699 13.667 4.20899 13.667 7.33366ZM10.0003 7.63363C10.0003 7.18696 9.83295 6.90762 9.50028 6.79362V6.00033C9.50028 5.17299 8.82762 4.50033 8.00028 4.50033C7.17295 4.50033 6.50028 5.17299 6.50028 6.00033V6.79362C6.16762 6.90762 6.00028 7.18696 6.00028 7.63363V9.03369C6.00028 9.63369 6.30029 9.93359 6.90029 9.93359H9.10028C9.70028 9.93359 10.0003 9.63369 10.0003 9.03369V7.63363V7.63363Z" fill="#3B3B3E"/>
</svg>
