<svg width="16" height="16" viewBox="0 0 16 16" fill="none" xmlns="http://www.w3.org/2000/svg">
<path d="M2.99322 13.9527C2.27989 13.7594 1.85323 13.026 2.04657 12.306L3.50657 6.85935C3.5999 6.50602 3.95988 6.29936 4.31321 6.39269L5.63991 6.74602C5.99324 6.83936 6.19988 7.19936 6.10654 7.55269L4.64654 12.9994C4.45321 13.7127 3.71989 14.1394 2.99989 13.946L2.99322 13.9527ZM13.0066 13.9527C12.2932 14.146 11.5532 13.7194 11.3599 13.006L9.89988 7.55936C9.80655 7.20602 10.0132 6.84603 10.3666 6.7527L10.5732 6.69936L10.0932 5.37269C9.64657 6.05269 8.8799 6.50602 8.00657 6.50602C7.13323 6.50602 6.33325 6.0327 5.89325 5.32603C5.79991 5.43936 5.65991 5.50602 5.51324 5.50602C5.45991 5.50602 5.3999 5.49936 5.3399 5.47936C5.0799 5.38603 4.94656 5.09936 5.03989 4.83936L5.69321 3.03936C5.70655 3.00602 5.72656 2.97935 5.74656 2.95269C6.14656 2.10602 7.00656 1.5127 7.99989 1.5127C8.99323 1.5127 9.92658 2.14603 10.3066 3.04603L11.5265 6.39936C11.5265 6.39936 11.5266 6.43269 11.5332 6.44602L11.6932 6.40603C12.0465 6.31269 12.4066 6.51936 12.4999 6.87269L13.9599 12.3194C14.1532 13.0327 13.7266 13.7727 13.0132 13.966L13.0066 13.9527ZM9.39325 3.45269L9.37323 3.40603C9.13989 2.87269 8.61323 2.49936 7.99989 2.49936C7.17323 2.49936 6.49989 3.17269 6.49989 3.99936C6.49989 4.82603 7.17323 5.49936 7.99989 5.49936C8.82656 5.49936 9.49989 4.82603 9.49989 3.99936C9.49989 3.80603 9.45991 3.61935 9.39325 3.45269V3.45269Z" fill="#3B3B3E"/>
</svg>
