<svg width="16" height="16" viewBox="0 0 16 16" fill="none" xmlns="http://www.w3.org/2000/svg">
<path d="M7.99967 1.33301C4.31967 1.33301 1.33301 4.31967 1.33301 7.99967C1.33301 11.6797 4.31967 14.6663 7.99967 14.6663C11.6797 14.6663 14.6663 11.6797 14.6663 7.99967C14.6663 4.31967 11.6797 1.33301 7.99967 1.33301ZM4.88635 7.55967C4.75969 7.31301 4.85966 7.01301 5.10632 6.88634L5.54635 6.66634L5.10632 6.44634C4.85966 6.31967 4.75968 6.01968 4.87968 5.77301C5.00635 5.52634 5.30635 5.42635 5.55302 5.54635L6.88635 6.21301C7.05302 6.29968 7.16634 6.47301 7.16634 6.65968C7.16634 6.84634 7.05969 7.01968 6.89303 7.10634L5.55969 7.77301C5.48636 7.80634 5.41301 7.82634 5.33968 7.82634C5.15301 7.82634 4.97969 7.72634 4.89303 7.55301L4.88635 7.55967ZM10.1797 11.973C8.72635 11.393 7.27299 11.393 5.81299 11.973C5.55965 12.073 5.27301 11.873 5.33968 11.6063C5.61968 10.393 6.69967 9.49301 7.99967 9.49301C9.29967 9.49301 10.3797 10.393 10.6597 11.6063C10.7197 11.873 10.4397 12.0797 10.1864 11.973H10.1797ZM10.8864 6.88634C11.133 7.01301 11.233 7.31301 11.113 7.55967C11.0263 7.733 10.8463 7.83301 10.6663 7.83301C10.593 7.83301 10.513 7.81301 10.4463 7.77967L9.113 7.11301C8.94633 7.02634 8.83301 6.85301 8.83301 6.66634C8.83301 6.47967 8.93966 6.30634 9.113 6.21968L10.4463 5.55301C10.693 5.42634 10.993 5.53301 11.1197 5.77967C11.2463 6.02634 11.1464 6.32634 10.893 6.453L10.453 6.673L10.893 6.89301L10.8864 6.88634Z" fill="#3B3B3E"/>
</svg>
