<svg width="16" height="16" viewBox="0 0 16 16" fill="none" xmlns="http://www.w3.org/2000/svg">
<path d="M4.00635 4.33268C4.00635 2.86202 5.20235 1.66602 6.67301 1.66602C8.14368 1.66602 9.33968 2.86202 9.33968 4.33268C9.33968 5.80335 8.14368 6.99935 6.67301 6.99935C5.20235 6.99935 4.00635 5.80335 4.00635 4.33268ZM8.40031 12.0327C8.21364 11.086 8.40701 10.1727 8.93368 9.52604C9.12034 9.30604 9.34034 9.11934 9.59367 8.986C9.62567 8.96667 9.64233 8.95937 9.66699 8.93937C9.70699 8.90604 9.72697 8.85265 9.72697 8.79932C9.72697 8.65532 9.57365 8.60604 9.57365 8.60604C9.13365 8.4327 8.61366 8.33268 8.00033 8.33268H5.33366C2.62699 8.33268 1.66699 10.3127 1.66699 12.0127C1.66699 13.5327 2.47366 14.3327 4.00033 14.3327H9.30697C9.41363 14.3327 9.507 14.246 9.507 14.1326C9.507 14.0793 9.48036 14.026 9.44702 13.9927C8.96702 13.4727 8.55364 12.8127 8.40031 12.0327ZM13.1816 9.66602C12.299 9.66202 12.003 10.5367 12.003 10.5367C12.003 10.5367 11.7063 9.66202 10.8243 9.66602C9.63897 9.67202 9.17298 10.7593 9.38631 11.8407C9.73431 13.6033 12.003 14.618 12.003 14.618C12.003 14.618 14.2716 13.6027 14.6196 11.8407C14.833 10.7593 14.369 9.67202 13.1816 9.66602Z" fill="#3B3B3E"/>
</svg>
