<svg width="16" height="16" viewBox="0 0 16 16" fill="none" xmlns="http://www.w3.org/2000/svg">
<path d="M11.8044 11.8044C11.6744 11.9344 11.5037 11.9997 11.333 11.9997C11.1623 11.9997 10.9917 11.9344 10.8617 11.8044L4.66634 5.60905V7.99967C4.66634 8.36767 4.36834 8.66634 3.99967 8.66634C3.63101 8.66634 3.33301 8.36767 3.33301 7.99967V3.99967C3.33301 3.91301 3.35094 3.82629 3.38428 3.74495C3.45161 3.58162 3.58162 3.45228 3.74495 3.38428C3.82629 3.35028 3.91301 3.33301 3.99967 3.33301H7.99967C8.36834 3.33301 8.66634 3.63167 8.66634 3.99967C8.66634 4.36767 8.36834 4.66634 7.99967 4.66634H5.60905L11.8044 10.8617C12.065 11.1223 12.065 11.5437 11.8044 11.8044Z" fill="#3B3B3E"/>
</svg>
