<svg width="16" height="16" viewBox="0 0 16 16" fill="none" xmlns="http://www.w3.org/2000/svg">
<path d="M8.41019 13.5437C8.45619 13.6037 8.44887 13.673 8.4442 13.699C8.4342 13.7577 8.41018 13.797 8.34818 13.829C8.13018 13.9437 8.00019 14.0003 8.00019 14.0003C8.00019 14.0003 2.89349 11.6803 2.11282 7.64699C1.63282 5.16699 2.67956 2.68034 5.34622 2.66701C7.33289 2.66034 7.99954 4.66034 7.99954 4.66034C7.99954 4.66034 8.6662 2.66034 10.6529 2.66701C13.3262 2.68034 14.3662 5.16699 13.8862 7.64699C13.8462 7.84699 13.7995 8.04036 13.7395 8.22703C13.6989 8.33036 13.6282 8.36366 13.5482 8.36366C13.4949 8.36366 13.4402 8.33766 13.4062 8.31366C12.8195 7.90699 12.1062 7.66701 11.3329 7.66701C9.31288 7.66701 7.66621 9.31368 7.66621 11.3337C7.66688 12.165 7.94285 12.9303 8.41019 13.5437ZM14.0002 11.3337C14.0002 12.807 12.8069 14.0003 11.3335 14.0003C9.86019 14.0003 8.66686 12.807 8.66686 11.3337C8.66686 9.86034 9.86019 8.66701 11.3335 8.66701C12.8069 8.66701 14.0002 9.86034 14.0002 11.3337ZM12.5002 11.3337C12.5002 11.147 12.3535 11.0003 12.1669 11.0003H10.5002C10.3135 11.0003 10.1669 11.147 10.1669 11.3337C10.1669 11.5203 10.3135 11.667 10.5002 11.667H12.1669C12.3535 11.667 12.5002 11.5203 12.5002 11.3337Z" fill="#3B3B3E"/>
</svg>
