<svg width="16" height="16" viewBox="0 0 16 16" fill="none" xmlns="http://www.w3.org/2000/svg">
<path d="M8.39339 11.66C8.54006 11.1933 8.93341 10.8667 9.41341 10.8L10.1934 10.6867L10.5267 10.0333C10.74 9.59999 11.18 9.33333 11.6667 9.33333C11.78 9.33333 12 9.31333 12 9.1V6.5H10C8.38667 6.5 7.5 5.61333 7.5 4V2H4C2.66667 2 2 2.66667 2 4V12C2 13.3333 2.66667 14 4 14C4 14 8.86669 14 9.02002 14C9.17335 14 9.20671 13.8467 9.20671 13.8467L9.27327 13.4733L8.72005 12.9467C8.37339 12.6133 8.24673 12.12 8.39339 11.66ZM4.66667 7.5H9.33333C9.60933 7.5 9.83333 7.724 9.83333 8C9.83333 8.276 9.60933 8.5 9.33333 8.5H4.66667C4.39067 8.5 4.16667 8.276 4.16667 8C4.16667 7.724 4.39067 7.5 4.66667 7.5ZM7.33333 11.1667H4.66667C4.39067 11.1667 4.16667 10.9427 4.16667 10.6667C4.16667 10.3907 4.39067 10.1667 4.66667 10.1667H7.33333C7.60933 10.1667 7.83333 10.3907 7.83333 10.6667C7.83333 10.9427 7.60933 11.1667 7.33333 11.1667ZM8.5 4V2.5L11.5 5.5H10C8.94667 5.5 8.5 5.05333 8.5 4ZM13.0814 13.0247C13.02 13.0833 12.992 13.168 13.0067 13.2507L13.1987 14.348C13.2374 14.5707 12.9994 14.74 12.7961 14.6353L11.7879 14.1167C11.7119 14.078 11.622 14.078 11.5467 14.1167L10.5394 14.6347C10.3354 14.74 10.0967 14.5693 10.1361 14.3467L10.328 13.2507C10.3426 13.168 10.3146 13.0833 10.2533 13.0247L9.41341 12.2233C9.25875 12.076 9.34396 11.8187 9.55729 11.7887L10.7194 11.6233C10.8041 11.6113 10.8767 11.5593 10.9147 11.484L11.418 10.4853C11.52 10.2827 11.8147 10.2827 11.9173 10.4853L12.4207 11.484C12.4587 11.5593 12.532 11.6113 12.616 11.6233L13.778 11.7887C13.9913 11.8187 14.076 12.076 13.922 12.2233L13.0814 13.0247Z" fill="#3B3B3E"/>
</svg>
