<svg width="16" height="16" viewBox="0 0 16 16" fill="none" xmlns="http://www.w3.org/2000/svg">
<path d="M8.68001 8.00033C8.68001 8.36833 8.38201 8.66699 8.01335 8.66699C7.64535 8.66699 7.34326 8.36833 7.34326 8.00033C7.34326 7.63233 7.63867 7.33366 8.00667 7.33366H8.01335C8.38135 7.33366 8.68001 7.63233 8.68001 8.00033ZM14 8.00098C14 11.335 11.3133 13.335 8 13.335C7.14667 13.335 6.33994 13.2017 5.60661 12.9483C4.71327 13.9017 3.25331 14.0283 2.30664 13.995C2.01997 13.9883 1.89328 13.6216 2.11328 13.435C2.83995 12.8483 3.19997 12.115 3.29997 11.475C2.48663 10.595 2 9.41431 2 8.00098C2 4.66698 4.68667 2.66699 8 2.66699C11.3133 2.66699 14 4.66698 14 8.00098ZM10.1206 8.00163C10.1206 7.68363 10.2946 7.38899 10.5786 7.22966L10.6667 7.17969L10.0553 6.1543L9.96794 6.20369C9.68327 6.36303 9.33267 6.36298 9.04867 6.20231C8.766 6.04298 8.59196 5.75036 8.59196 5.43302C8.59196 5.37769 8.54592 5.33366 8.48926 5.33366H7.47266C7.41599 5.33366 7.36995 5.37836 7.36995 5.43302C7.36995 5.74969 7.19606 6.04298 6.91406 6.20231C6.63006 6.36231 6.2793 6.36303 5.99463 6.20369C5.94663 6.17636 5.88461 6.19233 5.85661 6.23966L5.34668 7.09497C5.31868 7.14164 5.3353 7.20167 5.3833 7.229L5.3846 7.22966C5.66727 7.38899 5.84129 7.68097 5.84196 7.99764C5.84263 8.31631 5.6686 8.611 5.3846 8.771L5.3833 8.77165C5.33463 8.79898 5.31868 8.859 5.34668 8.90633L5.85596 9.76099C5.88396 9.80832 5.94596 9.82429 5.99463 9.79696C6.2793 9.63762 6.62941 9.63767 6.91341 9.79834C7.19608 9.95767 7.3693 10.251 7.3693 10.5676C7.3693 10.6223 7.41534 10.667 7.47201 10.667H8.49007C8.54674 10.667 8.59261 10.6223 8.59261 10.5676C8.59261 10.251 8.76665 9.95767 9.04932 9.79834C9.33332 9.63834 9.68392 9.63762 9.96859 9.79696C10.0173 9.82429 10.0786 9.80832 10.1066 9.76099L10.6167 8.90568C10.6447 8.85901 10.6281 8.79898 10.5801 8.77165L10.5793 8.771C10.2953 8.61166 10.1213 8.31896 10.1206 8.00163Z" fill="#3B3B3E"/>
</svg>
