<svg width="16" height="16" viewBox="0 0 16 16" fill="none" xmlns="http://www.w3.org/2000/svg">
<path d="M12.653 6.35968H5.14635C4.05968 6.35968 3.05306 6.94634 2.51972 7.89301L1.33304 10.0263V5.33301C1.33304 3.99967 1.9997 3.33301 3.33304 3.33301H5.33304L6.66637 4.66634H10.6664C11.893 4.66634 12.553 5.23301 12.653 6.35968ZM13.661 7.36167L12.653 7.361L5.14163 7.35702C4.41496 7.35635 3.74511 7.74901 3.39244 8.38167L1.45641 11.853C1.37041 12.0077 1.33437 12.1697 1.33304 12.3283C1.32904 12.8523 1.7451 13.333 2.33043 13.333H10.8511C11.5771 13.333 12.2463 12.941 12.599 12.309L14.535 8.84167C14.905 8.17834 14.4237 7.36167 13.661 7.36167Z" fill="#3B3B3E"/>
</svg>
