<svg width="16" height="16" viewBox="0 0 16 16" fill="none" xmlns="http://www.w3.org/2000/svg">
<path d="M12.6667 5.33333V4.27604L8.94271 8L12.6667 11.724V10.6667C12.6667 10.2987 12.9647 10 13.3333 10C13.702 10 14 10.2987 14 10.6667V13.3333C14 13.42 13.9827 13.5067 13.9487 13.5881C13.8814 13.7514 13.7514 13.8814 13.5881 13.9487C13.5067 13.9827 13.42 14 13.3333 14H10.6667C10.298 14 10 13.7013 10 13.3333C10 12.9653 10.298 12.6667 10.6667 12.6667H11.724L8 8.94271L4.27604 12.6667H5.33333C5.702 12.6667 6 12.9653 6 13.3333C6 13.7013 5.702 14 5.33333 14H2.66667C2.58 14 2.49328 13.9821 2.41195 13.9487C2.24861 13.8814 2.11927 13.7514 2.05127 13.5881C2.01727 13.5067 2 13.42 2 13.3333V10.6667C2 10.2987 2.298 10 2.66667 10C3.03533 10 3.33333 10.2987 3.33333 10.6667V11.724L7.05729 8L3.33333 4.27604V5.33333C3.33333 5.70133 3.03533 6 2.66667 6C2.298 6 2 5.70133 2 5.33333V2.66667C2 2.58 2.01794 2.49328 2.05127 2.41195C2.1186 2.24861 2.24861 2.11927 2.41195 2.05127C2.49328 2.01727 2.58 2 2.66667 2H5.33333C5.702 2 6 2.29867 6 2.66667C6 3.03467 5.702 3.33333 5.33333 3.33333H4.27604L8 7.05729L11.724 3.33333H10.6667C10.298 3.33333 10 3.03467 10 2.66667C10 2.29867 10.298 2 10.6667 2H13.3333C13.42 2 13.5067 2.01794 13.5881 2.05127C13.7514 2.1186 13.8814 2.24861 13.9487 2.41195C13.9827 2.49328 14 2.58 14 2.66667V5.33333C14 5.70133 13.702 6 13.3333 6C12.9647 6 12.6667 5.70133 12.6667 5.33333Z" fill="#3B3B3E"/>
</svg>
