<svg width="16" height="16" viewBox="0 0 16 16" fill="none" xmlns="http://www.w3.org/2000/svg">
<path d="M12 3.33301H4C2.66667 3.33301 2 3.99967 2 5.33301V10.6663C2 11.9997 2.66667 12.6663 4 12.6663H12C13.3333 12.6663 14 11.9997 14 10.6663V5.33301C14 3.99967 13.3333 3.33301 12 3.33301ZM4.03333 8.16634H3.67334C3.67334 8.16634 3.62001 8.18633 3.61334 8.21967L3.51333 8.83968C3.51333 8.83968 3.48 8.88633 3.46 8.88633H3.06C3.06 8.88633 3.04667 8.88635 3.04 8.87968C3.02 8.87301 3.00001 8.84633 3.00667 8.82633L3.34001 6.71301C3.34001 6.71301 3.37334 6.65967 3.4 6.65967H4.15334C4.62001 6.65967 4.95332 7.02635 4.88666 7.44635C4.85332 7.65302 4.75334 7.83968 4.59334 7.96635C4.44001 8.09968 4.24 8.16634 4.04 8.16634H4.03333ZM6.43333 8.84633C6.43333 8.84633 6.4 8.89301 6.37333 8.89301H5.99333C5.99333 8.89301 5.97999 8.893 5.97333 8.88633C5.95333 8.87967 5.93334 8.85301 5.94 8.83301V8.78634C5.49334 9.09967 5.08667 8.79968 5.08667 8.79968C4.64667 8.48635 4.84001 7.91968 4.84001 7.91968C4.90001 7.72634 5.04667 7.47301 5.34001 7.35301C5.86001 7.13967 6.15334 7.45968 6.15334 7.45968L6.16667 7.37301C6.16667 7.37301 6.2 7.32633 6.22666 7.32633H6.60667C6.60667 7.32633 6.62 7.32634 6.62667 7.33301C6.64667 7.33967 6.65999 7.36633 6.65999 7.38633L6.42668 8.83968L6.43333 8.84633ZM7.32001 9.33968H6.87333C6.87333 9.33968 6.86 9.33968 6.85333 9.33968C6.83333 9.32635 6.82667 9.29968 6.84001 9.27968L7.21334 8.67967L6.80001 7.39968C6.80001 7.39968 6.80001 7.38635 6.80001 7.37968C6.80001 7.35968 6.81999 7.33968 6.84666 7.33968H7.26001C7.26001 7.33968 7.30667 7.35968 7.31333 7.37968L7.54667 8.13967L8 7.37301C8 7.37301 8.04 7.33968 8.06667 7.33968H8.51333C8.51333 7.33968 8.54666 7.34635 8.55332 7.35968C8.55999 7.37301 8.55999 7.393 8.55332 7.40633L7.39333 9.31301C7.39333 9.31301 7.35333 9.34633 7.33333 9.34633L7.32001 9.33968ZM9.48667 8.17301H9.12667C9.12667 8.17301 9.06667 8.19301 9.06667 8.22634L8.96668 8.84633C8.96668 8.84633 8.93332 8.89301 8.90666 8.89301H8.49333C8.49333 8.89301 8.45334 8.85301 8.46 8.83301L8.79334 6.71967C8.79334 6.71967 8.82667 6.66634 8.85333 6.66634H9.60667C10.0733 6.66634 10.4067 7.033 10.34 7.453C10.3067 7.65967 10.2067 7.84634 10.0467 7.973C9.89334 8.10634 9.69333 8.17301 9.49333 8.17301H9.48667ZM11.8867 8.85301C11.8867 8.85301 11.8533 8.89968 11.8267 8.89968H11.4467C11.4467 8.89968 11.4333 8.89967 11.4267 8.89301C11.4067 8.88634 11.3867 8.85968 11.3933 8.83968V8.79301C10.9467 9.10634 10.54 8.80634 10.54 8.80634C10.1 8.493 10.2933 7.92635 10.2933 7.92635C10.3533 7.73302 10.5 7.47968 10.7933 7.35968C11.3133 7.14635 11.6067 7.46635 11.6067 7.46635L11.62 7.37968C11.62 7.37968 11.6533 7.33301 11.6733 7.33301H12.06C12.06 7.33301 12.0933 7.33967 12.1 7.35301C12.1067 7.35967 12.1133 7.37301 12.1133 7.39301L11.88 8.84633L11.8867 8.85301ZM12.66 8.85301C12.66 8.85301 12.6333 8.89968 12.6 8.89968H12.2C12.2 8.89968 12.2 8.89968 12.1933 8.89968C12.1667 8.89968 12.1467 8.86635 12.1467 8.83968L12.4867 6.71967C12.4867 6.71967 12.5133 6.66635 12.5467 6.67301H12.9467C12.9467 6.67301 12.9467 6.67301 12.9533 6.67301C12.98 6.67301 13 6.70635 13 6.73301L12.66 8.85301ZM6.04667 8.13967C6.03334 8.23967 5.98666 8.33301 5.90666 8.39968C5.81999 8.46634 5.72 8.49967 5.62 8.49967C5.58 8.49967 5.54001 8.49301 5.50667 8.48635C5.34001 8.43301 5.24667 8.27968 5.27334 8.10634C5.28667 8.00634 5.33334 7.913 5.42 7.84633C5.5 7.77967 5.59999 7.74634 5.69999 7.74634C5.74666 7.74634 5.78667 7.75302 5.82001 7.75968C5.98001 7.81302 6.07333 7.96634 6.04 8.13967H6.04667ZM9.81333 7.43968C9.79333 7.59301 9.66666 7.70634 9.43333 7.70634H9.13999L9.22666 7.14634H9.52C9.76 7.14634 9.83333 7.28634 9.81333 7.43968ZM11.5 8.13967C11.4867 8.23967 11.44 8.33301 11.36 8.39968C11.2733 8.46634 11.1733 8.49967 11.0733 8.49967C11.0333 8.49967 10.9933 8.49301 10.96 8.48635C10.7933 8.43301 10.7 8.27968 10.7267 8.10634C10.74 8.00634 10.7867 7.913 10.8667 7.84633C10.9533 7.78633 11.0533 7.74634 11.1533 7.74634C11.1933 7.74634 11.2333 7.75302 11.2667 7.75968C11.4333 7.81302 11.5267 7.96634 11.5 8.13967ZM4.36001 7.43968C4.34001 7.59301 4.21333 7.70634 3.98 7.70634H3.68667L3.77334 7.14634H4.06667C4.30667 7.14634 4.38001 7.28634 4.36001 7.43968Z" fill="#3B3B3E"/>
</svg>
