<svg width="16" height="16" viewBox="0 0 16 16" fill="none" xmlns="http://www.w3.org/2000/svg">
<path d="M4.19499 8.47103C3.93432 8.21036 3.93432 7.78899 4.19499 7.52832C4.45565 7.26765 4.87703 7.26765 5.1377 7.52832L7.33301 9.72363V1.99967C7.33301 1.63167 7.63101 1.33301 7.99967 1.33301C8.36834 1.33301 8.66634 1.63167 8.66634 1.99967V9.72363L10.8617 7.52832C11.1223 7.26765 11.5437 7.26765 11.8044 7.52832C12.065 7.78899 12.065 8.21036 11.8044 8.47103L8.47168 11.8037C8.40968 11.8657 8.33639 11.9144 8.25439 11.9484C8.17306 11.9824 8.08634 11.9997 7.99967 11.9997C7.91301 11.9997 7.82629 11.9817 7.74495 11.9484C7.66295 11.9144 7.58967 11.8657 7.52767 11.8037L4.19499 8.47103ZM11.9997 13.333H3.99967C3.63101 13.333 3.33301 13.6317 3.33301 13.9997C3.33301 14.3677 3.63101 14.6663 3.99967 14.6663H11.9997C12.3683 14.6663 12.6663 14.3677 12.6663 13.9997C12.6663 13.6317 12.3683 13.333 11.9997 13.333Z" fill="#3B3B3E"/>
</svg>
