<svg width="16" height="16" viewBox="0 0 16 16" fill="none" xmlns="http://www.w3.org/2000/svg">
<path fill-rule="evenodd" clip-rule="evenodd" d="M8.66653 7.49978V8.41645H7.3332V7.49978C7.3332 7.13245 7.63187 6.83311 7.99987 6.83311C8.36787 6.83311 8.66653 7.13245 8.66653 7.49978ZM13.9785 7.31041L13.0085 12.6324C12.8638 13.4244 12.1738 14.0004 11.3692 14.0004H4.63187C3.82653 14.0004 3.13654 13.4244 2.99254 12.6324L2.02257 7.31114C1.93591 6.83514 2.1139 6.34909 2.4879 6.04242L6.94184 2.38048C7.55718 1.87448 8.44451 1.87448 9.05984 2.38048L13.5145 6.04242C13.8872 6.34842 14.0652 6.83441 13.9785 7.31041ZM10.3332 9.41645C10.3332 8.87645 10.1032 8.56714 9.66653 8.46381V7.49978C9.66653 6.58111 8.9192 5.83311 7.99987 5.83311C7.08053 5.83311 6.3332 6.58111 6.3332 7.49978V8.46381C5.89653 8.56648 5.66653 8.87645 5.66653 9.41645V10.9164C5.66653 11.5831 5.99987 11.9164 6.66653 11.9164H9.3332C9.99987 11.9164 10.3332 11.5831 10.3332 10.9164V9.41645Z" fill="#3B3B3E"/>
</svg>
