<svg width="16" height="16" viewBox="0 0 16 16" fill="none" xmlns="http://www.w3.org/2000/svg">
<path d="M9.83301 4V2.5L12.833 5.5H11.333C10.2797 5.5 9.83301 5.05333 9.83301 4ZM13.333 6.5V12C13.333 13.3333 12.6663 14 11.333 14H5.33301C3.99967 14 3.33301 13.3333 3.33301 12V4C3.33301 2.66667 3.99967 2 5.33301 2H8.83301V4C8.83301 5.61333 9.71967 6.5 11.333 6.5H13.333ZM10.333 8.07733C9.33301 7.818 8.83308 7.59267 8.33708 7.33333C7.83308 7.59267 7.33367 7.81801 6.33301 8.11134C6.33301 8.37667 6.33301 9.13066 6.33301 9.40733C6.33301 10.9627 7.58301 11.7407 8.33301 12C9.08301 11.7407 10.333 10.9627 10.333 9.40733C10.333 9.12133 10.333 8.356 10.333 8.07733Z" fill="#3B3B3E"/>
</svg>
