<svg width="16" height="16" viewBox="0 0 16 16" fill="none" xmlns="http://www.w3.org/2000/svg">
<path d="M14 6.66699V4.66699C14 3.33366 13.3333 2.66699 12 2.66699H4C2.66667 2.66699 2 3.33366 2 4.66699V6.66699C2.73333 6.66699 3.33333 7.26699 3.33333 8.00033C3.33333 8.73366 2.73333 9.33366 2 9.33366V11.3337C2 12.667 2.66667 13.3337 4 13.3337H12C13.3333 13.3337 14 12.667 14 11.3337V9.33366C13.2667 9.33366 12.6667 8.73366 12.6667 8.00033C12.6667 7.26699 13.2667 6.66699 14 6.66699ZM10.6167 7.69633C10.2687 9.47566 8 10.5003 8 10.5003C8 10.5003 5.7313 9.47566 5.3833 7.69633C5.16997 6.60433 5.63604 5.50633 6.82137 5.50033C7.70404 5.49633 8 6.37899 8 6.37899C8 6.37899 8.29596 5.49566 9.17863 5.50033C10.366 5.50633 10.83 6.60433 10.6167 7.69633Z" fill="#3B3B3E"/>
</svg>
