<svg width="16" height="16" viewBox="0 0 16 16" fill="none" xmlns="http://www.w3.org/2000/svg">
<path d="M14 3.54612V12.2195C14 12.4395 13.7867 12.5929 13.5667 12.5329C11.9774 12.0802 10.382 12.0781 8.79134 12.8715C8.65734 12.9381 8.49935 12.8475 8.49935 12.6975V3.90151C8.49935 3.85684 8.51339 3.81219 8.53939 3.77619C8.95472 3.20619 9.59736 2.80948 10.346 2.71881C11.554 2.57215 12.7154 2.71887 13.8094 3.24087C13.9261 3.2962 14 3.41746 14 3.54612ZM5.65332 2.71946C4.44532 2.5728 3.28394 2.71952 2.18994 3.24152C2.07394 3.29685 2 3.41819 2 3.54686V12.2202C2 12.4402 2.21327 12.5935 2.43327 12.5335C4.0226 12.0808 5.61799 12.0788 7.20866 12.8721C7.34266 12.9388 7.50065 12.8481 7.50065 12.6981V3.90216C7.50065 3.8575 7.48661 3.81284 7.46061 3.77684C7.04461 3.20684 6.40265 2.81013 5.65332 2.71946Z" fill="#3B3B3E"/>
</svg>
