<svg width="16" height="16" viewBox="0 0 16 16" fill="none" xmlns="http://www.w3.org/2000/svg">
<path fill-rule="evenodd" clip-rule="evenodd" d="M14 6.00029C14 6.73629 13.4027 7.33362 12.6667 7.33362H3.33333C2.59733 7.33362 2 6.73629 2 6.00029C2 5.26429 2.59733 4.66696 3.33333 4.66696H4.48535L6.2513 1.74162C6.39397 1.50562 6.70134 1.42896 6.93734 1.57229C7.17334 1.71562 7.25002 2.02229 7.10669 2.25896L5.65267 4.66696H10.3534L8.91602 2.25629C8.77468 2.01962 8.85201 1.71229 9.09001 1.57096C9.32667 1.43029 9.63398 1.50696 9.77531 1.74496L11.518 4.66763H12.6667C13.4027 4.66696 14 5.26429 14 6.00029ZM12.9173 8.22029L12.5133 12.2003C12.42 13.2203 11.9934 14.0003 10.5267 14.0003H5.48665C3.99332 14.0003 3.59999 13.2203 3.49333 12.2003L3.08268 8.22095C3.07068 8.10295 3.16266 8.00029 3.28133 8.00029H12.718C12.8374 8.00029 12.9293 8.10296 12.9173 8.22029ZM7.18001 9.66696C7.18001 9.39362 6.95335 9.16696 6.68001 9.16696C6.40001 9.16696 6.18001 9.39362 6.18001 9.66696V11.667C6.18001 11.9403 6.40001 12.167 6.68001 12.167C6.95335 12.167 7.18001 11.9403 7.18001 11.667V9.66696ZM9.84668 9.66696C9.84668 9.39362 9.62001 9.16696 9.34668 9.16696C9.06668 9.16696 8.84668 9.39362 8.84668 9.66696V11.667C8.84668 11.9403 9.06668 12.167 9.34668 12.167C9.62001 12.167 9.84668 11.9403 9.84668 11.667V9.66696Z" fill="#3B3B3E"/>
</svg>
