<svg width="16" height="16" viewBox="0 0 16 16" fill="none" xmlns="http://www.w3.org/2000/svg">
<path d="M13.2133 6.64018H12.4867C12.0933 6.64018 11.76 6.30684 11.76 5.9135C11.76 3.84017 10.08 2.00684 8 2.00684H5.76001C3.68668 2.00684 2 3.68684 2 5.76684V10.2535C2 12.3268 3.68001 14.0135 5.76001 14.0135H10.2467C12.32 14.0135 14.0067 12.3335 14.0067 10.2535V7.4335C14.0067 6.98684 13.6733 6.64684 13.22 6.64684L13.2133 6.64018ZM5.69999 5.21351H8.39333C8.78666 5.21351 9.11999 5.54684 9.11999 5.94018C9.11999 6.33351 8.78666 6.66684 8.39333 6.66684H5.69999C5.30666 6.66684 4.97333 6.33351 4.97333 5.94018C4.97333 5.54684 5.30666 5.21351 5.69999 5.21351ZM10.24 11.0668H5.69999C5.30666 11.0668 4.97333 10.7335 4.97333 10.3402C4.97333 9.94684 5.30666 9.61351 5.69999 9.61351H10.24C10.6333 9.61351 10.9667 9.94684 10.9667 10.3402C10.9667 10.7335 10.6333 11.0668 10.24 11.0668Z" fill="#3B3B3E"/>
</svg>
