<svg width="16" height="16" viewBox="0 0 16 16" fill="none" xmlns="http://www.w3.org/2000/svg">
<path d="M14.6667 8.66634C14.6667 10.5063 13.1733 11.9997 11.3333 11.9997H8.20068C8.06735 11.9997 8 11.891 8 11.7797C8 11.053 7.65327 10.4063 7.10661 9.99967C7.65327 9.59301 8 8.94635 8 8.21969C8 6.99969 6.99995 5.99967 5.77995 5.99967C4.84661 5.99967 4.03337 6.59302 3.70671 7.43302L2.84001 7.86633C2.70067 7.93033 2.66667 7.77901 2.66667 7.66634C2.66667 5.27301 4.60667 3.33301 7 3.33301C8.1 3.33301 9.10003 3.73967 9.86003 4.413C10.18 4.69967 10.46 5.02636 10.6867 5.39303C10.9 5.35303 11.1133 5.33301 11.3333 5.33301C13.1733 5.33301 14.6667 6.82634 14.6667 8.66634ZM5.77799 9.44434C6.45199 9.44434 7 8.89566 7 8.22233C7 7.54833 6.45199 7.00033 5.77799 7.00033C5.13866 7.00033 4.61875 7.49503 4.56608 8.12036L2.86995 8.96834C2.68195 8.84968 2.46067 8.77836 2.22201 8.77836C1.54801 8.77836 1 9.32699 1 10.0003C1 10.6737 1.54801 11.2223 2.22201 11.2223C2.46067 11.2223 2.68129 11.151 2.86995 11.0323L4.56608 11.8803C4.61875 12.5057 5.13866 13.0003 5.77799 13.0003C6.45199 13.0003 7 12.4517 7 11.7784C7 11.1044 6.45199 10.5564 5.77799 10.5564C5.43333 10.5564 5.12338 10.701 4.90072 10.931L3.42529 10.1937C3.43529 10.131 3.44466 10.067 3.44466 10.0017C3.44466 9.93633 3.43529 9.87236 3.42529 9.80969L4.90072 9.07235C5.12338 9.29968 5.43333 9.44434 5.77799 9.44434Z" fill="#3B3B3E"/>
</svg>
