<svg width="16" height="16" viewBox="0 0 16 16" fill="none" xmlns="http://www.w3.org/2000/svg">
<path d="M11.75 2H4.25C2.75 2 2 2.75 2 4.25V11.75C2 13.25 2.75 14 4.25 14H11.75C13.25 14 14 13.25 14 11.75V4.25C14 2.75 13.25 2 11.75 2ZM10.3534 9.02002C10.256 9.11735 10.128 9.16667 10 9.16667C9.872 9.16667 9.74398 9.11802 9.64665 9.02002L8 7.37337L6.35335 9.02002C6.15802 9.21535 5.84133 9.21535 5.646 9.02002C5.45066 8.82469 5.45066 8.508 5.646 8.31266L7.646 6.31266C7.84133 6.11733 8.15802 6.11733 8.35335 6.31266L10.3534 8.31266C10.5487 8.50866 10.5487 8.82469 10.3534 9.02002Z" fill="#3B3B3E"/>
</svg>
