<svg width="16" height="16" viewBox="0 0 16 16" fill="none" xmlns="http://www.w3.org/2000/svg">
<path d="M14.4712 5.1379C14.3412 5.2679 14.1705 5.33321 13.9999 5.33321C13.8292 5.33321 13.6585 5.2679 13.5285 5.1379L11.9999 3.60926V11.3332C11.9999 11.7012 11.7019 11.9999 11.3332 11.9999C10.9645 11.9999 10.6665 11.7012 10.6665 11.3332V3.60926L9.13788 5.1379C8.87722 5.39857 8.45584 5.39857 8.19517 5.1379C7.93451 4.87724 7.93451 4.45586 8.19517 4.19519L10.8612 1.52918C10.9232 1.46718 10.9965 1.41848 11.0785 1.38448C11.2411 1.31715 11.4252 1.31715 11.5879 1.38448C11.6699 1.41848 11.7432 1.46718 11.8052 1.52918L14.4712 4.19519C14.7319 4.45586 14.7319 4.87724 14.4712 5.1379ZM6.86184 10.8619L5.3332 12.3905V4.66655C5.3332 4.29855 5.0352 3.99988 4.66653 3.99988C4.29786 3.99988 3.99986 4.29855 3.99986 4.66655V12.3905L2.47122 10.8619C2.21055 10.6012 1.78917 10.6012 1.52851 10.8619C1.26784 11.1225 1.26784 11.5439 1.52851 11.8046L4.19452 14.4706C4.25652 14.5326 4.32981 14.5813 4.41181 14.6153C4.49314 14.6493 4.57986 14.6665 4.66653 14.6665C4.7532 14.6665 4.83992 14.6486 4.92125 14.6153C5.00325 14.5813 5.07653 14.5326 5.13853 14.4706L7.80455 11.8046C8.06522 11.5439 8.06522 11.1225 7.80455 10.8619C7.54388 10.6012 7.12251 10.6012 6.86184 10.8619Z" fill="#3B3B3E"/>
</svg>
