<svg width="16" height="16" viewBox="0 0 16 16" fill="none" xmlns="http://www.w3.org/2000/svg">
<path d="M2.00044 7.8667C1.98244 7.8667 1.96379 7.86601 1.94579 7.86401C1.67112 7.83401 1.47246 7.58666 1.50312 7.31266C1.74446 5.10066 3.07911 3.19668 5.07311 2.21802C5.22844 2.14202 5.4111 2.15134 5.55777 2.24268C5.70444 2.33401 5.79377 2.49465 5.79377 2.66732V4.70068C5.79377 4.97668 5.56977 5.20068 5.29377 5.20068C5.01777 5.20068 4.79377 4.97668 4.79377 4.70068V3.54004C3.51111 4.43204 2.67043 5.83337 2.4971 7.42204C2.46843 7.6767 2.25244 7.8667 2.00044 7.8667ZM10.9265 13.782C12.9205 12.804 14.2551 10.8993 14.4965 8.68734C14.5271 8.41267 14.3284 8.16599 14.0538 8.13599C13.7818 8.10665 13.5331 8.30403 13.5031 8.57869C13.3291 10.1674 12.4891 11.568 11.2065 12.4607V11.3C11.2065 11.024 10.9825 10.8 10.7065 10.8C10.4305 10.8 10.2065 11.024 10.2065 11.3V13.3333C10.2065 13.506 10.2958 13.6666 10.4425 13.758C10.5231 13.808 10.6151 13.8333 10.7065 13.8333C10.7811 13.8333 10.8565 13.8166 10.9265 13.782ZM7.99979 4.66667C7.99979 6.13933 9.19379 7.33333 10.6665 7.33333C12.1391 7.33333 13.3331 6.13933 13.3331 4.66667C13.3331 3.194 12.1391 2 10.6665 2C9.19379 2 7.99979 3.194 7.99979 4.66667ZM7.66645 9.33333H3.66645C2.99979 9.33333 2.66645 9.66667 2.66645 10.3333V10.5H8.66645V10.3333C8.66645 9.66667 8.33312 9.33333 7.66645 9.33333ZM2.66645 11.5V13C2.66645 13.6667 2.99979 14 3.66645 14H7.66645C8.33312 14 8.66645 13.6667 8.66645 13V11.5H2.66645ZM4.99979 13H3.99979C3.81312 13 3.66645 12.8533 3.66645 12.6667C3.66645 12.48 3.81312 12.3333 3.99979 12.3333H4.99979C5.18645 12.3333 5.33312 12.48 5.33312 12.6667C5.33312 12.8533 5.18645 13 4.99979 13Z" fill="#3B3B3E"/>
</svg>
