<svg width="16" height="16" viewBox="0 0 16 16" fill="none" xmlns="http://www.w3.org/2000/svg">
<path d="M11.75 2H4.25C2.75 2 2 2.75 2 4.25V11.75C2 13.25 2.75 14 4.25 14H11.75C13.25 14 14 13.25 14 11.75V4.25C14 2.75 13.25 2 11.75 2ZM9.33333 8.87467C9.33333 8.89601 9.32999 8.91667 9.32332 8.93734L8.60002 11.14C8.51335 11.3667 8.29999 11.5 8.07332 11.5C7.96666 11.5 7.86002 11.4733 7.76668 11.4067C7.47335 11.2133 7.29997 10.88 7.29997 10.5267V9.38668H5.92C4.86667 9.38668 4.69334 8.68 4.92 8L5.62663 5.88668C5.76663 5.46001 5.91996 5.16667 6.62663 5.16667H9.1333C9.24397 5.16667 9.33333 5.25599 9.33333 5.36666V8.87467V8.87467ZM11.1667 8.15999C11.1667 8.44999 10.93 8.68669 10.64 8.68669H10.2C10.0894 8.68669 10 8.59732 10 8.48665V5.36666C10 5.25599 10.0894 5.16667 10.2 5.16667H10.64C10.9306 5.16667 11.1667 5.40265 11.1667 5.69332V8.15999Z" fill="#3B3B3E"/>
</svg>
