<svg width="16" height="16" viewBox="0 0 16 16" fill="none" xmlns="http://www.w3.org/2000/svg">
<path d="M11.333 2.66602H3.33301C1.99967 2.66602 1.33301 3.33268 1.33301 4.66602V5.49935H13.333V4.66602C13.333 3.33268 12.6663 2.66602 11.333 2.66602ZM1.33301 6.49935V9.99935C1.33301 11.3327 1.99967 11.9993 3.33301 11.9993H7.71967C7.853 11.9993 7.93967 11.8794 7.913 11.7527C7.873 11.566 7.84635 11.3727 7.83968 11.1727C7.75301 9.42602 8.92635 7.786 10.613 7.31266C11.473 7.07266 12.3197 7.13937 13.053 7.4327C13.1863 7.48603 13.333 7.39935 13.333 7.25269V6.49935H1.33301ZM5.99967 9.83268H3.99967C3.72634 9.83268 3.49967 9.60602 3.49967 9.33268C3.49967 9.05935 3.72634 8.83268 3.99967 8.83268H5.99967C6.27301 8.83268 6.49967 9.05935 6.49967 9.33268C6.49967 9.60602 6.27301 9.83268 5.99967 9.83268ZM11.6663 8.16602C10.1063 8.16602 8.83301 9.43935 8.83301 10.9993C8.83301 12.5593 10.1063 13.8327 11.6663 13.8327C13.2263 13.8327 14.4997 12.5593 14.4997 10.9993C14.4997 9.43935 13.2263 8.16602 11.6663 8.16602ZM9.83301 10.9993C9.83301 9.98602 10.653 9.16602 11.6663 9.16602C11.993 9.16602 12.2863 9.25934 12.553 9.40601L10.073 11.886C9.92633 11.6194 9.83301 11.326 9.83301 10.9993ZM11.6663 12.8327C11.3397 12.8327 11.0464 12.7394 10.7797 12.5927L13.2597 10.1127C13.4064 10.3793 13.4997 10.6727 13.4997 10.9993C13.4997 12.0127 12.6797 12.8327 11.6663 12.8327Z" fill="#3B3B3E"/>
</svg>
