<svg width="16" height="16" viewBox="0 0 16 16" fill="none" xmlns="http://www.w3.org/2000/svg">
<path d="M13.8 6.5H2.20003C2.08937 6.5 2 6.58937 2 6.70003V12C2 13.3333 2.66667 14 4 14H12C13.3333 14 14 13.3333 14 12V6.70003C14 6.58937 13.9106 6.5 13.8 6.5ZM10.2894 9.736C9.98539 11.278 8 12.1667 8 12.1667C8 12.1667 6.01461 11.278 5.71061 9.736C5.52395 8.79 5.93192 7.838 6.96859 7.83333C7.74059 7.83 8 8.59538 8 8.59538C8 8.59538 8.25941 7.83 9.03141 7.83333C10.0701 7.838 10.4761 8.79 10.2894 9.736ZM14 5V5.29997C14 5.41063 13.9106 5.5 13.8 5.5H2.20003C2.08937 5.5 2 5.41063 2 5.29997V5C2 3.66667 2.66667 3 4 3H4.83333V2C4.83333 1.72667 5.06 1.5 5.33333 1.5C5.60667 1.5 5.83333 1.72667 5.83333 2V3H10.1667V2C10.1667 1.72667 10.3933 1.5 10.6667 1.5C10.94 1.5 11.1667 1.72667 11.1667 2V3H12C13.3333 3 14 3.66667 14 5Z" fill="#3B3B3E"/>
</svg>
