<svg width="16" height="16" viewBox="0 0 16 16" fill="none" xmlns="http://www.w3.org/2000/svg">
<path d="M14 6.66699V4.66699C14 3.33366 13.3333 2.66699 12 2.66699H4C2.66667 2.66699 2 3.33366 2 4.66699V6.66699C2.73333 6.66699 3.33333 7.26699 3.33333 8.00033C3.33333 8.73366 2.73333 9.33366 2 9.33366V11.3337C2 12.667 2.66667 13.3337 4 13.3337H12C13.3333 13.3337 14 12.667 14 11.3337V9.33366C13.2667 9.33366 12.6667 8.73366 12.6667 8.00033C12.6667 7.26699 13.2667 6.66699 14 6.66699ZM10.7373 7.659L9.71737 8.64565C9.6427 8.71765 9.60863 8.82167 9.62663 8.92367L9.86003 10.2737C9.90736 10.5477 9.61869 10.7563 9.37069 10.6277L8.14665 9.98899C8.05465 9.94099 7.94535 9.94099 7.85335 9.98899L6.62996 10.627C6.38196 10.7563 6.09264 10.547 6.13997 10.273L6.37337 8.92367C6.39071 8.82167 6.35663 8.71765 6.28263 8.64565L5.2627 7.659C5.07536 7.47766 5.17867 7.161 5.43734 7.12433L6.84863 6.921C6.9513 6.90633 7.04002 6.84232 7.08602 6.74965L7.69735 5.521C7.82135 5.27166 8.1793 5.27166 8.3033 5.521L8.91463 6.74965C8.96063 6.84232 9.04935 6.90633 9.15202 6.921L10.5633 7.12433C10.822 7.16166 10.9246 7.47766 10.7373 7.659Z" fill="#3B3B3E"/>
</svg>
