<svg width="16" height="16" viewBox="0 0 16 16" fill="none" xmlns="http://www.w3.org/2000/svg">
<path d="M12.6665 1.99967C12.6665 2.36767 12.3685 2.66634 11.9999 2.66634H8.66653C7.9312 2.66634 7.3332 3.26434 7.3332 3.99967V12.3903L8.86184 10.8617C9.12251 10.601 9.54388 10.601 9.80455 10.8617C10.0652 11.1223 10.0652 11.5437 9.80455 11.8044L7.13853 14.4704C7.07653 14.5324 7.00325 14.5811 6.92125 14.6151C6.83992 14.6491 6.7532 14.6663 6.66653 14.6663C6.57986 14.6663 6.49314 14.6484 6.41181 14.6151C6.32981 14.5811 6.25652 14.5324 6.19452 14.4704L3.52851 11.8044C3.26784 11.5437 3.26784 11.1223 3.52851 10.8617C3.78917 10.601 4.21055 10.601 4.47122 10.8617L5.99986 12.3903V3.99967C5.99986 2.52901 7.19586 1.33301 8.66653 1.33301H11.9999C12.3685 1.33301 12.6665 1.63167 12.6665 1.99967Z" fill="#3B3B3E"/>
</svg>
