<svg width="16" height="16" viewBox="0 0 16 16" fill="none" xmlns="http://www.w3.org/2000/svg">
<path d="M14.3186 6.05619L9.37716 1.99223C8.57916 1.33756 7.42256 1.33689 6.62456 1.99223L1.68323 6.05554C1.47056 6.23087 1.43921 6.54556 1.61455 6.75956C1.78988 6.97356 2.10523 7.00291 2.31857 6.82825L3.00053 6.26688V11.9996C3.00053 13.5262 3.8072 14.3329 5.33387 14.3329H10.6672C12.1939 14.3329 13.0005 13.5262 13.0005 11.9996V6.26754L13.6825 6.8289C13.7758 6.90556 13.8885 6.94291 14.0005 6.94291C14.1445 6.94291 14.2879 6.88086 14.3865 6.76086C14.5625 6.5462 14.5312 6.23152 14.3186 6.05619ZM11.1672 10.4576C11.1672 10.5229 11.1539 10.5876 11.1285 10.649C11.0779 10.771 10.9805 10.8682 10.8585 10.9188C10.7972 10.9442 10.7325 10.9576 10.6672 10.9576H9.00053C8.72453 10.9576 8.50053 10.7336 8.50053 10.4576C8.50053 10.1816 8.72453 9.95756 9.00053 9.95756H9.45984L8.42119 8.91882L7.69055 9.70495C7.32855 10.067 6.69518 10.0683 6.33118 9.70495L4.98051 8.35355C4.78518 8.15822 4.78518 7.84153 4.98051 7.6462C5.17585 7.45086 5.49254 7.45086 5.68787 7.6462L7.03919 8.9976L7.7699 8.21163C8.13323 7.84829 8.76586 7.84896 9.12919 8.21163L10.1678 9.2502V8.79089C10.1678 8.51489 10.3918 8.29089 10.6678 8.29089C10.9438 8.29089 11.1678 8.51489 11.1678 8.79089V10.4576H11.1672Z" fill="#3B3B3E"/>
</svg>
