<svg width="16" height="16" viewBox="0 0 16 16" fill="none" xmlns="http://www.w3.org/2000/svg">
<path d="M14.3535 2.35286L2.35348 14.3529C2.25614 14.4502 2.12813 14.4995 2.00013 14.4995C1.87213 14.4995 1.74411 14.4509 1.64677 14.3529C1.45144 14.1575 1.45144 13.8409 1.64677 13.6455L7.22815 8.06418C6.19682 8.20885 5.22671 8.6402 4.43404 9.32554C4.30738 9.4322 4.15411 9.48553 4.00078 9.48553C3.81411 9.48553 3.62744 9.40553 3.4941 9.25219C3.2541 8.97886 3.28751 8.55219 3.56751 8.31219C4.79417 7.25219 6.36744 6.6722 8.00078 6.6722C8.12744 6.6722 8.25415 6.67886 8.37415 6.68552C8.44015 6.69086 8.50344 6.70686 8.56344 6.72953L9.77145 5.52152C9.19811 5.39619 8.60744 5.33219 8.00078 5.33219C5.94744 5.33219 3.97406 6.08552 2.44739 7.45886C2.32072 7.57219 2.16078 7.62552 2.00078 7.62552C1.82078 7.62552 1.63411 7.5522 1.50078 7.40553C1.26078 7.1322 1.28083 6.70552 1.55416 6.45886C3.33416 4.87219 5.62078 3.99886 8.00078 3.99886C8.97411 3.99886 9.92744 4.13887 10.8274 4.42553C10.8374 4.4282 10.8435 4.4362 10.8528 4.43953L13.6468 1.64552C13.8421 1.45019 14.1588 1.45019 14.3541 1.64552C14.5488 1.84086 14.5488 2.15819 14.3535 2.35286ZM8.71806 9.41019C8.35739 9.34486 8.00947 9.5862 7.94414 9.94887C7.8788 10.3115 8.12021 10.6575 8.48287 10.7229C8.89087 10.7962 9.27552 10.9642 9.59485 11.2089C9.71619 11.3015 9.85881 11.3469 9.99947 11.3469C10.2001 11.3469 10.3981 11.2569 10.5288 11.0862C10.7534 10.7942 10.6981 10.3755 10.4054 10.1515C9.91873 9.77686 9.3354 9.52086 8.71806 9.41019ZM10.9908 7.36686C10.6595 7.20619 10.2607 7.34419 10.1001 7.67486C9.93939 8.00619 10.0775 8.40486 10.4088 8.56553C10.8308 8.77086 11.2194 9.02552 11.5634 9.32352C11.6894 9.43286 11.8448 9.4862 11.9995 9.4862C12.1861 9.4862 12.3722 9.4082 12.5042 9.25553C12.7442 8.97686 12.7142 8.55619 12.4355 8.31553C12.0042 7.94153 11.5175 7.62219 10.9908 7.36686ZM14.4422 6.4602C13.9975 6.06687 13.5209 5.71552 13.0249 5.41552C12.7075 5.22419 12.2988 5.3262 12.1095 5.64086C11.9188 5.9562 12.0194 6.36552 12.3348 6.55619C12.7628 6.81486 13.1741 7.11819 13.5581 7.45819C13.6847 7.57019 13.8428 7.62552 14.0001 7.62552C14.1841 7.62552 14.3681 7.54952 14.4995 7.40085C14.7435 7.12552 14.7175 6.7042 14.4422 6.4602ZM8.00013 11.8329C7.54013 11.8329 7.16679 12.2062 7.16679 12.6662C7.16679 13.1262 7.54013 13.4995 8.00013 13.4995C8.46013 13.4995 8.83346 13.1262 8.83346 12.6662C8.83346 12.2062 8.46013 11.8329 8.00013 11.8329Z" fill="#3B3B3E"/>
</svg>
