<svg width="16" height="16" viewBox="0 0 16 16" fill="none" xmlns="http://www.w3.org/2000/svg">
<path d="M11.7501 9.4495L13.5121 10.5002C13.8761 10.7175 14.0641 11.1402 13.9807 11.5562C13.6401 13.2622 11.9268 14.3555 10.2488 13.8948C6.28947 12.8082 3.19672 9.72483 2.10606 5.75683C1.64472 4.07816 2.73679 2.36348 4.44346 2.02215L4.45469 2.02016C4.87136 1.93682 5.29613 2.12549 5.5128 2.49149L6.55479 4.25083C6.92545 4.87616 6.74135 5.68282 6.13535 6.08548L5.0281 6.82216C5.80943 8.69349 7.30272 10.1928 9.16872 10.9728L9.91205 9.86283C10.318 9.25816 11.1248 9.07683 11.7501 9.4495ZM12.5781 6.25683V2.25683C12.5781 2.0555 12.4574 1.87416 12.2721 1.79616C12.0874 1.71816 11.8728 1.75815 11.7294 1.89882L10.7294 2.87416C10.5314 3.06683 10.5275 3.3835 10.7202 3.5815C10.9142 3.77883 11.2308 3.7835 11.4275 3.59016L11.5787 3.44282V6.25616C11.5787 6.53216 11.8027 6.75616 12.0787 6.75616C12.3547 6.75616 12.5781 6.5335 12.5781 6.25683Z" fill="#3B3B3E"/>
</svg>
