<svg width="16" height="16" viewBox="0 0 16 16" fill="none" xmlns="http://www.w3.org/2000/svg">
<path d="M11.75 2H4.25C2.75 2 2 2.75 2 4.25V11.75C2 13.25 2.75 14 4.25 14H11.75C13.25 14 14 13.25 14 11.75V4.25C14 2.75 13.25 2 11.75 2ZM10.3534 9.02002L8.35335 11.02C8.30735 11.066 8.25207 11.1026 8.19141 11.1279C8.13074 11.1533 8.06533 11.1667 8 11.1667C7.93467 11.1667 7.86993 11.1533 7.80859 11.1279C7.74726 11.1026 7.69265 11.066 7.64665 11.02L5.64665 9.02002C5.45131 8.82469 5.45131 8.508 5.64665 8.31266C5.84198 8.11733 6.15867 8.11733 6.354 8.31266L7.50065 9.45931V5.33333C7.50065 5.05733 7.72465 4.83333 8.00065 4.83333C8.27665 4.83333 8.50065 5.05733 8.50065 5.33333V9.45931L9.6473 8.31266C9.84263 8.11733 10.1593 8.11733 10.3547 8.31266C10.55 8.508 10.5487 8.82469 10.3534 9.02002Z" fill="#3B3B3E"/>
</svg>
