<svg width="16" height="16" viewBox="0 0 16 16" fill="none" xmlns="http://www.w3.org/2000/svg">
<path d="M13.8197 4.74634C13.7997 4.84634 13.7664 4.93967 13.6864 5.01967L13.0197 5.68634C12.9197 5.78634 12.793 5.83301 12.6663 5.83301C12.5397 5.83301 12.413 5.78634 12.313 5.68634C12.1197 5.49301 12.1197 5.17301 12.313 4.97968L12.9797 4.31301C13.113 4.17968 13.2997 4.14634 13.4663 4.193C12.2597 2.46634 10.2663 1.33301 7.99967 1.33301C4.31967 1.33301 1.33301 4.31967 1.33301 7.99967C1.33301 11.6797 4.31967 14.6663 7.99967 14.6663C11.6797 14.6663 14.6663 11.6797 14.6663 7.99967C14.6663 6.81967 14.353 5.713 13.8197 4.74634ZM3.01969 9.68634C2.91969 9.78634 2.79301 9.83301 2.66634 9.83301C2.53967 9.83301 2.41299 9.78634 2.31299 9.68634L1.64632 9.01967C1.45299 8.82634 1.45299 8.50634 1.64632 8.31301C1.83965 8.11967 2.15969 8.11967 2.35303 8.31301L3.01969 8.97967C3.21303 9.17301 3.21303 9.49301 3.01969 9.68634ZM8.31299 2.97968C8.50632 2.78634 8.82636 2.78634 9.01969 2.97968L9.68636 3.64634C9.87969 3.83968 9.87969 4.15967 9.68636 4.35301C9.58636 4.45301 9.45967 4.49967 9.33301 4.49967C9.20634 4.49967 9.07965 4.45301 8.97965 4.35301L8.31299 3.68634C8.11965 3.49301 8.11965 3.17301 8.31299 2.97968ZM5.01969 5.68634L4.35303 6.35301C4.25303 6.45301 4.12634 6.49967 3.99967 6.49967C3.87301 6.49967 3.74632 6.45301 3.64632 6.35301C3.45299 6.15967 3.45299 5.83968 3.64632 5.64634L4.31299 4.97968C4.50632 4.78634 4.82636 4.78634 5.01969 4.97968C5.21303 5.17301 5.21303 5.49301 5.01969 5.68634ZM7.68636 12.353L7.01969 13.0197C6.91969 13.1197 6.79301 13.1663 6.66634 13.1663C6.53967 13.1663 6.41299 13.1197 6.31299 13.0197C6.11965 12.8263 6.11965 12.5063 6.31299 12.313L6.97965 11.6463C7.17299 11.453 7.49303 11.453 7.68636 11.6463C7.87969 11.8397 7.87969 12.1597 7.68636 12.353ZM7.99967 10.333C6.71301 10.333 5.66634 9.28634 5.66634 7.99967C5.66634 6.71301 6.71301 5.66634 7.99967 5.66634C9.28634 5.66634 10.333 6.71301 10.333 7.99967C10.333 9.28634 9.28634 10.333 7.99967 10.333ZM12.353 11.0197C12.253 11.1197 12.1263 11.1663 11.9997 11.1663C11.873 11.1663 11.7463 11.1197 11.6463 11.0197L10.9797 10.353C10.7863 10.1597 10.7863 9.83967 10.9797 9.64634C11.173 9.45301 11.493 9.45301 11.6864 9.64634L12.353 10.313C12.5464 10.5063 12.5464 10.8263 12.353 11.0197Z" fill="#3B3B3E"/>
</svg>
