<svg width="16" height="16" viewBox="0 0 16 16" fill="none" xmlns="http://www.w3.org/2000/svg">
<path d="M8.66692 5.33301V7.72363L9.80494 8.86165C10.0656 9.12232 10.0656 9.54369 9.80494 9.80436C9.67494 9.93436 9.50425 9.99967 9.33358 9.99967C9.16292 9.99967 8.99223 9.93436 8.86223 9.80436L7.5289 8.47103C7.40356 8.34569 7.33358 8.17634 7.33358 7.99967V5.33301C7.33358 4.96501 7.63158 4.66634 8.00025 4.66634C8.36892 4.66634 8.66692 4.96501 8.66692 5.33301ZM8.0175 1.33301C6.2375 1.33301 4.56625 2.05163 3.33358 3.2863V1.99967C3.33358 1.63167 3.03558 1.33301 2.66692 1.33301C2.29825 1.33301 2.00025 1.63167 2.00025 1.99967V4.66634C2.00025 5.03434 2.29825 5.33301 2.66692 5.33301H5.33358C5.70225 5.33301 6.00025 5.03434 6.00025 4.66634C6.00025 4.29834 5.70225 3.99967 5.33358 3.99967H4.50757C5.46624 3.15101 6.70684 2.66634 8.0175 2.66634C10.9482 2.66634 13.3336 5.05901 13.3336 7.99967C13.3336 10.9403 10.9488 13.333 8.0175 13.333C5.98084 13.333 4.16023 12.199 3.2649 10.373C3.10356 10.0424 2.7043 9.90504 2.37297 10.0677C2.0423 10.2297 1.90628 10.629 2.06828 10.9596C3.18895 13.2463 5.46884 14.6663 8.0175 14.6663C11.6835 14.6663 14.6669 11.6757 14.6669 7.99967C14.6669 4.32367 11.6835 1.33301 8.0175 1.33301Z" fill="#3B3B3E"/>
</svg>
