<svg width="16" height="16" viewBox="0 0 16 16" fill="none" xmlns="http://www.w3.org/2000/svg">
<path d="M2.67944 9.33366C1.94344 9.33366 1.34277 8.73633 1.34277 8.00033C1.34277 7.26433 1.9361 6.66699 2.67277 6.66699H2.67944C3.41544 6.66699 4.01278 7.26433 4.01278 8.00033C4.01278 8.73633 3.41611 9.33366 2.67944 9.33366ZM9.34611 8.00033C9.34611 7.26433 8.74878 6.66699 8.01278 6.66699H8.0061C7.2701 6.66699 6.67611 7.26433 6.67611 8.00033C6.67611 8.73633 7.27611 9.33366 8.01278 9.33366C8.74944 9.33366 9.34611 8.73633 9.34611 8.00033ZM14.6794 8.00033C14.6794 7.26433 14.0821 6.66699 13.3461 6.66699H13.3394C12.6034 6.66699 12.0094 7.26433 12.0094 8.00033C12.0094 8.73633 12.6094 9.33366 13.3461 9.33366C14.0828 9.33366 14.6794 8.73633 14.6794 8.00033Z" fill="#3B3B3E"/>
</svg>
