<svg width="16" height="16" viewBox="0 0 16 16" fill="none" xmlns="http://www.w3.org/2000/svg">
<path d="M13.9997 14H2.99967C1.97167 14 1.33301 13.3613 1.33301 12.3333V2.66667C1.33301 2.29867 1.63167 2 1.99967 2C2.36767 2 2.66634 2.29867 2.66634 2.66667V12.3333C2.66634 12.6327 2.70034 12.6667 2.99967 12.6667H13.9997C14.3677 12.6667 14.6663 12.9653 14.6663 13.3333C14.6663 13.7013 14.3677 14 13.9997 14ZM13.9483 4.4113C13.9143 4.32996 13.8657 4.25665 13.8043 4.19531C13.8043 4.19531 13.8043 4.19466 13.8037 4.19466C13.7937 4.18466 13.7803 4.18136 13.7703 4.17269C13.7157 4.12402 13.6563 4.08 13.587 4.052C13.5143 4.022 13.4377 4.00936 13.3603 4.00602C13.3503 4.00602 13.3423 4.00065 13.3323 4.00065H13.331C13.331 4.00065 13.331 4.00065 13.3303 4.00065H11.333C10.965 4.00065 10.6663 4.29932 10.6663 4.66732C10.6663 5.03532 10.965 5.33398 11.333 5.33398H11.7277L9.34501 7.72534L8.275 6.66203C7.755 6.14603 6.91034 6.1467 6.39234 6.66536L4.19568 8.86198C3.93501 9.12265 3.93501 9.54402 4.19568 9.80469C4.32568 9.93469 4.49635 10 4.66701 10C4.83768 10 5.00834 9.93469 5.13834 9.80469L7.33501 7.60799L8.40567 8.67131C8.92767 9.18864 9.77167 9.18602 10.2897 8.66602L12.6663 6.28068V6.66667C12.6663 7.03467 12.965 7.33333 13.333 7.33333C13.701 7.33333 13.9997 7.03467 13.9997 6.66667V4.66667C13.9997 4.66667 13.9997 4.66668 13.9997 4.66602C13.9997 4.57935 13.9817 4.49263 13.9483 4.4113Z" fill="#3B3B3E"/>
</svg>
