<svg width="16" height="16" viewBox="0 0 16 16" fill="none" xmlns="http://www.w3.org/2000/svg">
<path d="M14.0006 7.00063C14.0006 7.26063 13.9873 7.51396 13.954 7.76729C13.934 7.74729 13.9206 7.74063 13.9006 7.72729L10.894 5.84062C10.734 5.74062 10.5673 5.66063 10.394 5.6073C10.574 4.99396 10.6673 4.34063 10.6673 3.6673C10.6673 3.44063 10.654 3.22063 10.634 3.00063C10.554 2.14063 11.594 1.65396 12.1806 2.29396C13.3073 3.53396 14.0006 5.18729 14.0006 7.00063ZM5.84063 10.894C5.74063 10.734 5.66061 10.5673 5.60728 10.394C4.99394 10.574 4.34063 10.6673 3.6673 10.6673C3.44063 10.6673 3.22063 10.654 3.00063 10.634C2.14063 10.554 1.65396 11.594 2.29396 12.1806C3.53396 13.3073 5.18729 14.0006 7.00063 14.0006C7.26063 14.0006 7.51398 13.9873 7.76731 13.954C7.74731 13.9406 7.74065 13.9206 7.72731 13.9006L5.84063 10.894V10.894ZM13.7339 8.9073C13.6406 8.77396 13.5206 8.66063 13.374 8.57396L10.3606 6.68729C10.2606 6.62729 10.154 6.58063 10.0406 6.5473C9.91396 6.5073 9.78728 6.48729 9.65395 6.48729C9.30728 6.48729 8.9673 6.62063 8.71397 6.88063L6.88063 8.71397C6.5273 9.0673 6.40729 9.58063 6.54063 10.0406C6.57396 10.154 6.62731 10.2606 6.68731 10.3606L8.57395 13.374C8.66062 13.5206 8.77395 13.6406 8.90061 13.734C9.13395 13.914 9.42062 14.0006 9.70062 14.0006C10.034 14.0006 10.374 13.874 10.6406 13.6073L13.6006 10.6473C14.0873 10.1606 14.1073 9.42063 13.7273 8.9073H13.7339Z" fill="#3B3B3E"/>
</svg>
