<svg width="16" height="16" viewBox="0 0 16 16" fill="none" xmlns="http://www.w3.org/2000/svg">
<path d="M11.9484 8.25439C11.9144 8.33639 11.8657 8.40968 11.8037 8.47168L8.47103 11.8044C8.34103 11.9344 8.17034 11.9997 7.99967 11.9997C7.82901 11.9997 7.65832 11.9344 7.52832 11.8044C7.26765 11.5437 7.26765 11.1223 7.52832 10.8617L9.72363 8.66634H1.99967C1.63101 8.66634 1.33301 8.36767 1.33301 7.99967C1.33301 7.63167 1.63101 7.33301 1.99967 7.33301H9.72363L7.52832 5.1377C7.26765 4.87703 7.26765 4.45565 7.52832 4.19499C7.78899 3.93432 8.21036 3.93432 8.47103 4.19499L11.8037 7.52767C11.8657 7.58967 11.9144 7.66295 11.9484 7.74495C12.0157 7.90762 12.0157 8.09173 11.9484 8.25439ZM13.9997 3.33301C13.631 3.33301 13.333 3.63167 13.333 3.99967V11.9997C13.333 12.3677 13.631 12.6663 13.9997 12.6663C14.3683 12.6663 14.6663 12.3677 14.6663 11.9997V3.99967C14.6663 3.63167 14.3683 3.33301 13.9997 3.33301Z" fill="#3B3B3E"/>
</svg>
