<svg width="16" height="16" viewBox="0 0 16 16" fill="none" xmlns="http://www.w3.org/2000/svg">
<path d="M11.75 2H4.25C2.75 2 2 2.75 2 4.25V11.75C2 13.25 2.75 14 4.25 14H11.75C13.25 14 14 13.25 14 11.75V4.25C14 2.75 13.25 2 11.75 2ZM10.3534 6.35335L7.20671 9.5H8.66667C8.94267 9.5 9.16667 9.724 9.16667 10C9.16667 10.276 8.94267 10.5 8.66667 10.5H6C5.93467 10.5 5.86993 10.4866 5.80859 10.4613C5.68659 10.4106 5.5894 10.3134 5.53874 10.1914C5.5134 10.1301 5.5 10.0653 5.5 10V7.33333C5.5 7.05733 5.724 6.83333 6 6.83333C6.276 6.83333 6.5 7.05733 6.5 7.33333V8.79264L9.64665 5.646C9.84198 5.45066 10.1587 5.45066 10.354 5.646C10.5493 5.84133 10.5487 6.15802 10.3534 6.35335Z" fill="#3B3B3E"/>
</svg>
