<svg width="16" height="16" viewBox="0 0 16 16" fill="none" xmlns="http://www.w3.org/2000/svg">
<path d="M14.3533 13.6463C14.5487 13.8417 14.5487 14.1583 14.3533 14.3537C14.256 14.451 14.128 14.5003 14 14.5003C13.872 14.5003 13.744 14.4517 13.6467 14.3537L13 13.707L12.3533 14.3537C12.256 14.451 12.128 14.5003 12 14.5003C11.872 14.5003 11.744 14.4517 11.6467 14.3537C11.4513 14.1583 11.4513 13.8417 11.6467 13.6463L12.2933 12.9997L11.6467 12.353C11.4513 12.1577 11.4513 11.841 11.6467 11.6457C11.842 11.4503 12.1587 11.4503 12.354 11.6457L13.0007 12.2923L13.6473 11.6457C13.8427 11.4503 14.1593 11.4503 14.3547 11.6457C14.55 11.841 14.55 12.1577 14.3547 12.353L13.708 12.9997L14.3533 13.6463ZM2 6.63965V5.99967C2 4.66634 2.66667 3.99967 4 3.99967H4.83333V2.99967C4.83333 2.35967 5.35333 1.83301 6 1.83301H10C10.64 1.83301 11.1667 2.35967 11.1667 2.99967V3.99967H12C13.3333 3.99967 14 4.66634 14 5.99967V6.63965C14 7.25965 13.6333 7.80637 13.06 8.03304C12.14 8.39304 11.1933 8.67305 10.24 8.87305C10.1667 8.88638 10.1 8.83303 10.06 8.77303C9.57333 8.05303 8.80667 7.61971 8 7.61971C7.2 7.61971 6.42668 8.05303 5.94668 8.77303C5.90668 8.83303 5.83333 8.88638 5.76666 8.87305C4.81333 8.67305 3.86 8.39303 2.94 8.02637C2.36667 7.80637 2 7.25965 2 6.63965ZM5.83333 3.99967H10.1667V2.99967C10.1667 2.90634 10.0933 2.83301 10 2.83301H6C5.90667 2.83301 5.83333 2.90634 5.83333 2.99967V3.99967ZM10 13.333C10 13.4597 10.0067 13.593 10.02 13.7196C10.0267 13.753 10.0267 13.7863 10.0267 13.813C10.0267 13.9197 9.94667 13.9997 9.83333 13.9997H4C2.66667 13.9997 2 13.333 2 11.9997V8.63297C2.17333 8.77297 2.36666 8.87963 2.57332 8.95963C3.54666 9.3463 4.55334 9.64636 5.56667 9.85303C6.02667 9.94636 6.50001 9.73967 6.78001 9.32633C7.07334 8.88633 7.53333 8.61971 8 8.61971C8.47333 8.61971 8.93333 8.88633 9.22666 9.32633C9.46 9.673 9.82667 9.87305 10.2133 9.87305C10.2867 9.87305 10.3667 9.86636 10.44 9.85303C11.4467 9.64636 12.4533 9.3463 13.4267 8.95963C13.6333 8.87963 13.8267 8.77298 14 8.63965V9.83301C14 9.93967 13.9267 10.0264 13.8133 10.0264C13.7867 10.0264 13.7533 10.0264 13.7267 10.0197C13.6 10.0064 13.4667 9.99967 13.3333 9.99967C11.4933 9.99967 10 11.493 10 13.333ZM8.66667 9.99967C8.66667 9.63167 8.36868 9.33301 8.00134 9.33301H7.99599C7.62866 9.33301 7.33333 9.63167 7.33333 9.99967C7.33333 10.3677 7.63401 10.6663 8.00134 10.6663C8.36868 10.6663 8.66667 10.3677 8.66667 9.99967Z" fill="#3B3B3E"/>
</svg>
