<svg width="16" height="16" viewBox="0 0 16 16" fill="none" xmlns="http://www.w3.org/2000/svg">
<path d="M13.7077 5.04102L10.9603 2.29362C10.773 2.10629 10.5183 2.00098 10.2529 2.00098H5.74837C5.48304 2.00098 5.22902 2.10629 5.04102 2.29362L2.29362 5.04102C2.10629 5.22835 2.00098 5.48304 2.00098 5.74837V10.2529C2.00098 10.5183 2.10629 10.7723 2.29362 10.9603L5.04102 13.7077C5.22835 13.895 5.48304 14.0003 5.74837 14.0003H10.2529C10.5183 14.0003 10.7723 13.895 10.9603 13.7077L13.7077 10.9603C13.895 10.773 14.0003 10.5183 14.0003 10.2529V5.74837C14.0003 5.48304 13.895 5.22835 13.7077 5.04102ZM10.3537 7.02034L7.68701 9.68701C7.58968 9.78434 7.46166 9.83366 7.33366 9.83366C7.20566 9.83366 7.07764 9.78501 6.98031 9.68701L5.64697 8.35368C5.45164 8.15834 5.45164 7.84165 5.64697 7.64632C5.84231 7.45099 6.159 7.45099 6.35433 7.64632L7.33431 8.6263L9.64762 6.31299C9.84296 6.11765 10.1596 6.11765 10.355 6.31299C10.5503 6.50832 10.549 6.82501 10.3537 7.02034Z" fill="#3B3B3E"/>
</svg>
