<svg width="16" height="16" viewBox="0 0 16 16" fill="none" xmlns="http://www.w3.org/2000/svg">
<path d="M2.86249 8.47187C2.60183 8.2112 2.60183 7.78983 2.86249 7.52916L7.52916 2.86249C7.78983 2.60183 8.2112 2.60183 8.47187 2.86249L13.1385 7.52916C13.3992 7.78983 13.3992 8.2112 13.1385 8.47187C13.0085 8.60187 12.8378 8.66718 12.6672 8.66718C12.4965 8.66718 12.3258 8.60187 12.1958 8.47187L8.00051 4.27655L3.8052 8.47187C3.54453 8.73253 3.12316 8.73253 2.86249 8.47187ZM8.47187 7.52916C8.2112 7.26849 7.78983 7.26849 7.52916 7.52916L2.86249 12.1958C2.60183 12.4565 2.60183 12.8779 2.86249 13.1385C3.12316 13.3992 3.54453 13.3992 3.8052 13.1385L8.00051 8.94322L12.1958 13.1385C12.3258 13.2685 12.4965 13.3338 12.6672 13.3338C12.8378 13.3338 13.0085 13.2685 13.1385 13.1385C13.3992 12.8779 13.3992 12.4565 13.1385 12.1958L8.47187 7.52916Z" fill="#3B3B3E"/>
</svg>
