<svg width="16" height="16" viewBox="0 0 16 16" fill="none" xmlns="http://www.w3.org/2000/svg">
<path d="M13.9193 13.596C14.0793 13.7294 13.986 13.996 13.7793 13.996C13.0926 14.0227 12.0394 13.9293 11.3927 13.2427C10.8661 13.4293 10.2793 13.5227 9.66602 13.5227C8.32068 13.5227 7.12402 13.0714 6.33268 12.2454C6.20668 12.1134 6.23868 11.8566 6.52734 11.8793C6.68268 11.89 6.83935 11.896 6.99935 11.896C10.0793 11.896 12.4094 10.0953 12.902 7.48999C12.9354 7.31532 13.1527 7.25736 13.262 7.39803C13.7287 8.00203 13.9987 8.76537 13.9987 9.6687C13.9987 10.6887 13.6453 11.5427 13.0586 12.176C13.1326 12.6427 13.3926 13.1694 13.9193 13.596ZM11.9987 6.44735C11.9987 6.41601 11.9946 6.38736 11.994 6.35669C11.9446 3.63269 9.72935 2 6.99935 2C4.23868 2 2 3.66801 2 6.44735C2 7.62601 2.40533 8.61001 3.08333 9.34334C3 9.87734 2.70006 10.4887 2.09473 10.978C1.91139 11.1334 2.01669 11.4393 2.25602 11.4447C3.04469 11.4727 4.26136 11.3667 5.00602 10.572C5.15802 10.6247 5.31396 10.6707 5.47396 10.7107C5.95462 10.8314 6.46665 10.894 7.00065 10.894C9.75998 10.8946 11.9987 9.22668 11.9987 6.44735Z" fill="#3B3B3E"/>
</svg>
