<svg width="16" height="16" viewBox="0 0 16 16" fill="none" xmlns="http://www.w3.org/2000/svg">
<path d="M12 4.66699H8.66667L6.66667 2.66699H4C2.66667 2.66699 2 3.33366 2 4.66699V11.3337C2 12.667 2.66667 13.3337 4 13.3337H12C13.3333 13.3337 14 12.667 14 11.3337V6.66699C14 5.33366 13.3333 4.66699 12 4.66699ZM6.35335 10.3137C6.54869 10.509 6.54869 10.8257 6.35335 11.021C6.25602 11.1183 6.128 11.1677 6 11.1677C5.872 11.1677 5.74398 11.119 5.64665 11.021L4.31331 9.68766C4.11798 9.49233 4.11798 9.17566 4.31331 8.98033L5.64665 7.64699C5.84198 7.45166 6.15867 7.45166 6.354 7.64699C6.54934 7.84233 6.54934 8.159 6.354 8.35433L5.37402 9.33433L6.35335 10.3137ZM9.68669 9.68699L8.35335 11.0203C8.25602 11.1177 8.128 11.167 8 11.167C7.872 11.167 7.74398 11.1183 7.64665 11.0203C7.45131 10.825 7.45131 10.5083 7.64665 10.313L8.62663 9.33299L7.64665 8.35299C7.45131 8.15765 7.45131 7.84098 7.64665 7.64565C7.84198 7.45032 8.15867 7.45032 8.354 7.64565L9.68734 8.97898C9.882 9.17498 9.88202 9.49232 9.68669 9.68699Z" fill="#3B3B3E"/>
</svg>
