<svg width="16" height="16" viewBox="0 0 16 16" fill="none" xmlns="http://www.w3.org/2000/svg">
<path d="M14 6.70003V12C14 13.3333 13.3333 14 12 14H4C2.66667 14 2 13.3333 2 12V6.70003C2 6.58937 2.08937 6.5 2.20003 6.5H13.8C13.9106 6.5 14 6.58937 14 6.70003ZM12 3H11.1667V2C11.1667 1.72667 10.94 1.5 10.6667 1.5C10.3933 1.5 10.1667 1.72667 10.1667 2V3H5.83333V2C5.83333 1.72667 5.60667 1.5 5.33333 1.5C5.06 1.5 4.83333 1.72667 4.83333 2V3H4C2.66667 3 2 3.66667 2 5V5.29997C2 5.41063 2.08937 5.5 2.20003 5.5H13.8C13.9106 5.5 14 5.41063 14 5.29997V5C14 3.66667 13.3333 3 12 3Z" fill="#3B3B3E"/>
</svg>
