<svg width="16" height="16" viewBox="0 0 16 16" fill="none" xmlns="http://www.w3.org/2000/svg">
<path d="M7.99967 1.33301C4.31967 1.33301 1.33301 4.31967 1.33301 7.99967C1.33301 11.6797 4.31967 14.6663 7.99967 14.6663C11.6797 14.6663 14.6663 11.6797 14.6663 7.99967C14.6663 4.31967 11.6797 1.33301 7.99967 1.33301ZM4.97965 7.68634C4.78632 7.49301 4.78632 7.17301 4.97965 6.97967L5.29301 6.66634L4.97965 6.35301C4.78632 6.15967 4.78632 5.83968 4.97965 5.64634C5.17299 5.45301 5.49303 5.45301 5.68636 5.64634L5.99967 5.95968L6.31299 5.64634C6.50632 5.45301 6.82636 5.45301 7.01969 5.64634C7.21303 5.83968 7.21303 6.15967 7.01969 6.35301L6.70634 6.66634L7.01969 6.97967C7.21303 7.17301 7.21303 7.49301 7.01969 7.68634C6.91969 7.78634 6.79301 7.83301 6.66634 7.83301C6.53967 7.83301 6.41299 7.78634 6.31299 7.68634L5.99967 7.37301L5.68636 7.68634C5.58636 7.78634 5.45967 7.83301 5.33301 7.83301C5.20634 7.83301 5.07965 7.78634 4.97965 7.68634ZM10.3064 11.9997H5.69299C5.48633 11.9997 5.33299 11.813 5.35966 11.6063C5.54633 10.3197 6.65301 9.33301 7.99967 9.33301C9.34634 9.33301 10.4464 10.3197 10.6397 11.6063C10.673 11.813 10.513 11.9997 10.3064 11.9997V11.9997ZM11.0197 6.97967C11.213 7.17301 11.213 7.49301 11.0197 7.68634C10.9197 7.78634 10.793 7.83301 10.6663 7.83301C10.5397 7.83301 10.413 7.78634 10.313 7.68634L9.99967 7.37301L9.68636 7.68634C9.58636 7.78634 9.45967 7.83301 9.33301 7.83301C9.20634 7.83301 9.07965 7.78634 8.97965 7.68634C8.78632 7.49301 8.78632 7.17301 8.97965 6.97967L9.29301 6.66634L8.97965 6.35301C8.78632 6.15967 8.78632 5.83968 8.97965 5.64634C9.17299 5.45301 9.49303 5.45301 9.68636 5.64634L9.99967 5.95968L10.313 5.64634C10.5063 5.45301 10.8264 5.45301 11.0197 5.64634C11.213 5.83968 11.213 6.15967 11.0197 6.35301L10.7063 6.66634L11.0197 6.97967Z" fill="#3B3B3E"/>
</svg>
