<svg width="16" height="16" viewBox="0 0 16 16" fill="none" xmlns="http://www.w3.org/2000/svg">
<path d="M7.99967 1.33301C4.31967 1.33301 1.33301 4.31967 1.33301 7.99967C1.33301 11.6797 4.31967 14.6663 7.99967 14.6663C11.6797 14.6663 14.6663 11.6797 14.6663 7.99967C14.6663 4.31967 11.6797 1.33301 7.99967 1.33301ZM8.013 8.16634C7.553 8.16634 7.17967 7.79301 7.17967 7.33301C7.17967 6.87301 7.54635 6.49967 8.00635 6.49967H8.013C8.473 6.49967 8.84633 6.87301 8.84633 7.33301C8.84633 7.79301 8.473 8.16634 8.013 8.16634ZM8.67967 5.49967C8.21967 5.49967 7.84633 5.12634 7.84633 4.66634C7.84633 4.20634 8.21301 3.83301 8.67301 3.83301H8.67967C9.13967 3.83301 9.513 4.20634 9.513 4.66634C9.513 5.12634 9.13967 5.49967 8.67967 5.49967ZM10.6797 7.49967C10.2197 7.49967 9.84633 7.12634 9.84633 6.66634C9.84633 6.20634 10.213 5.83301 10.673 5.83301H10.6797C11.1397 5.83301 11.513 6.20634 11.513 6.66634C11.513 7.12634 11.1397 7.49967 10.6797 7.49967Z" fill="#3B3B3E"/>
</svg>
