<svg width="16" height="16" viewBox="0 0 16 16" fill="none" xmlns="http://www.w3.org/2000/svg">
<path d="M9.83301 4V2.5L12.833 5.5H11.333C10.2797 5.5 9.83301 5.05333 9.83301 4ZM13.333 6.5V12C13.333 13.3333 12.6663 14 11.333 14H5.33301C3.99967 14 3.33301 13.3333 3.33301 12V4C3.33301 2.66667 3.99967 2 5.33301 2H8.83301V4C8.83301 5.61333 9.71967 6.5 11.333 6.5H13.333ZM9.01969 8.98L7.68636 7.64667C7.64036 7.60067 7.58493 7.564 7.5236 7.53867C7.4016 7.488 7.2636 7.488 7.1416 7.53867C7.08027 7.564 7.025 7.60067 6.979 7.64667L5.64567 8.98C5.45034 9.17533 5.45034 9.492 5.64567 9.68734C5.841 9.88267 6.15769 9.88267 6.35303 9.68734L6.83301 9.20734V11.3333C6.83301 11.6093 7.05701 11.8333 7.33301 11.8333C7.60901 11.8333 7.83301 11.6093 7.83301 11.3333V9.20734L8.31299 9.68734C8.41032 9.78467 8.53834 9.834 8.66634 9.834C8.79434 9.834 8.92236 9.78534 9.01969 9.68734C9.21503 9.492 9.21503 9.17467 9.01969 8.98Z" fill="#3B3B3E"/>
</svg>
