<svg width="16" height="16" viewBox="0 0 16 16" fill="none" xmlns="http://www.w3.org/2000/svg">
<path d="M11.5283 7.52851L12.3903 6.66653H4.99967C3.71301 6.66653 2.66634 7.7132 2.66634 8.99986C2.66634 10.2865 3.71301 11.3332 4.99967 11.3332H11.9997C12.3683 11.3332 12.6663 11.6319 12.6663 11.9999C12.6663 12.3679 12.3683 12.6665 11.9997 12.6665H4.99967C2.97834 12.6665 1.33301 11.0219 1.33301 8.99986C1.33301 6.97786 2.97834 5.3332 4.99967 5.3332H12.3903L11.5283 4.47122C11.2677 4.21055 11.2677 3.78917 11.5283 3.52851C11.789 3.26784 12.2104 3.26784 12.471 3.52851L14.4704 5.52786C14.5324 5.58986 14.5811 5.66314 14.6151 5.74514C14.6824 5.90781 14.6824 6.09192 14.6151 6.25458C14.5811 6.33658 14.5324 6.40987 14.4704 6.47187L12.471 8.47122C12.341 8.60122 12.1703 8.66653 11.9997 8.66653C11.829 8.66653 11.6583 8.60122 11.5283 8.47122C11.2677 8.21055 11.2677 7.78917 11.5283 7.52851Z" fill="#3B3B3E"/>
</svg>
