<svg width="16" height="16" viewBox="0 0 16 16" fill="none" xmlns="http://www.w3.org/2000/svg">
<path d="M9.99967 7.99967C9.99967 9.09967 9.09967 9.99967 7.99967 9.99967C6.89967 9.99967 5.99967 9.09967 5.99967 7.99967C5.99967 6.89967 6.89967 5.99967 7.99967 5.99967C9.09967 5.99967 9.99967 6.89967 9.99967 7.99967ZM12.2463 10.4597C12.373 10.493 12.433 10.6463 12.3663 10.753C11.453 12.1997 9.83301 13.1663 7.99967 13.1663C6.51967 13.1663 5.18633 12.5463 4.23966 11.5463C4.20633 11.5063 4.18636 11.453 4.18636 11.4063V8.31967C4.18636 8.24634 4.23302 8.17967 4.29968 8.14634C5.25302 7.67301 5.87301 6.69967 5.87301 5.59967V3.673C5.87301 3.61967 5.87299 3.56634 5.85966 3.51301C5.85299 3.44634 5.85301 3.41301 5.87301 3.36634C5.90634 3.29968 5.93301 3.26634 5.99967 3.23967C6.61967 2.97967 7.29301 2.83301 7.99967 2.83301C9.33967 2.83301 10.5597 3.34634 11.4797 4.17968C11.5397 4.23968 11.5597 4.32634 11.5263 4.40634C11.2997 4.95301 11.1597 5.61967 11.1597 6.44634V9.07301C11.1597 9.73967 11.6197 10.3063 12.2397 10.4597H12.2463ZM10.6663 7.99967C10.6663 6.52634 9.47301 5.33301 7.99967 5.33301C6.52634 5.33301 5.33301 6.52634 5.33301 7.99967C5.33301 9.47301 6.52634 10.6663 7.99967 10.6663C9.47301 10.6663 10.6663 9.47301 10.6663 7.99967ZM14.6663 2.83301C14.6663 2.83301 12.7597 2.85967 12.0797 4.83301C11.9263 5.26634 11.833 5.79967 11.833 6.44634V9.07301C11.833 9.49301 12.173 9.83301 12.593 9.83301H14.1663V12.6663C14.1663 12.9397 14.393 13.1663 14.6663 13.1663C14.9397 13.1663 15.1663 12.9397 15.1663 12.6663V3.33301C15.1663 3.05967 14.9397 2.83301 14.6663 2.83301V2.83301ZM4.70634 3.16634C4.42634 3.16634 4.20634 3.39301 4.20634 3.66634V5.59301C4.20634 5.59301 4.19967 5.60634 4.19967 5.61301H3.51969V3.66634C3.51969 3.39301 3.29303 3.16634 3.01969 3.16634C2.74636 3.16634 2.51969 3.39301 2.51969 3.66634V5.61301H1.83301V3.66634C1.83301 3.39301 1.60634 3.16634 1.33301 3.16634C1.05967 3.16634 0.833008 3.39301 0.833008 3.66634V5.59301C0.833008 6.62634 1.55303 7.48635 2.51969 7.71301V12.333C2.51969 12.6063 2.73969 12.833 3.01969 12.833C3.29969 12.833 3.51969 12.6063 3.51969 12.333V7.71301C4.47969 7.48635 5.20634 6.62634 5.20634 5.59301V3.653C5.19967 3.38634 4.97301 3.16634 4.70634 3.16634Z" fill="#3B3B3E"/>
</svg>
