<svg width="16" height="16" viewBox="0 0 16 16" fill="none" xmlns="http://www.w3.org/2000/svg">
<path d="M12 2H4C2.66667 2 2 2.66667 2 4V14L4 12H12C13.3333 12 14 11.3333 14 10V4C14 2.66667 13.3333 2 12 2ZM10.3687 6.02002L7.70199 8.68669C7.60465 8.78402 7.47663 8.83333 7.34863 8.83333C7.22063 8.83333 7.09261 8.78469 6.99528 8.68669L5.66195 7.35335C5.46661 7.15802 5.46661 6.84133 5.66195 6.646C5.85728 6.45066 6.17397 6.45066 6.3693 6.646L7.34928 7.62598L9.6626 5.31266C9.85793 5.11733 10.1746 5.11733 10.37 5.31266C10.5653 5.508 10.564 5.82469 10.3687 6.02002Z" fill="#3B3B3E"/>
</svg>
