<svg width="16" height="16" viewBox="0 0 16 16" fill="none" xmlns="http://www.w3.org/2000/svg">
<path d="M14.333 3.66699V3.00033C14.333 2.15299 13.847 1.66699 12.9997 1.66699H12.333C11.5443 1.66699 11.0743 2.09233 11.0123 2.83366H4.98767C4.92567 2.09233 4.45566 1.66699 3.66699 1.66699H3.00033C2.15299 1.66699 1.66699 2.15299 1.66699 3.00033V3.66699C1.66699 4.45566 2.09233 4.92565 2.83366 4.98765V11.0123C2.09233 11.0743 1.66699 11.5443 1.66699 12.333V12.9997C1.66699 13.847 2.15299 14.333 3.00033 14.333H3.66699C4.45566 14.333 4.92567 13.9077 4.98767 13.1663H11.0123C11.0743 13.9077 11.5443 14.333 12.333 14.333H12.9997C13.847 14.333 14.333 13.847 14.333 12.9997V12.333C14.333 11.5443 13.9077 11.0743 13.1663 11.0123V4.98765C13.9077 4.92565 14.333 4.45566 14.333 3.66699ZM11.0123 12.167H4.98767C4.93034 11.481 4.51966 11.0703 3.83366 11.013V4.98832C4.51966 4.93099 4.93034 4.52033 4.98767 3.83433H11.0123C11.0697 4.52033 11.4803 4.93099 12.1663 4.98832V11.013C11.4803 11.0703 11.0697 11.481 11.0123 12.167Z" fill="#3B3B3E"/>
</svg>
