<svg width="16" height="16" viewBox="0 0 16 16" fill="none" xmlns="http://www.w3.org/2000/svg">
<path d="M9.83301 4V2.5L12.833 5.5H11.333C10.2797 5.5 9.83301 5.05333 9.83301 4ZM13.333 6.5V12C13.333 13.3333 12.6663 14 11.333 14H5.33301C3.99967 14 3.33301 13.3333 3.33301 12V4C3.33301 2.66667 3.99967 2 5.33301 2H8.83301V4C8.83301 5.61333 9.71967 6.5 11.333 6.5H13.333ZM9.36442 7.5C8.59242 7.49667 8.33301 8.262 8.33301 8.262C8.33301 8.262 8.0736 7.49667 7.3016 7.5C6.26493 7.50467 5.85695 8.45667 6.04362 9.40267C6.34762 10.9447 8.33301 11.8333 8.33301 11.8333C8.33301 11.8333 10.3184 10.9453 10.6224 9.40267C10.8091 8.45667 10.4031 7.50467 9.36442 7.5Z" fill="#3B3B3E"/>
</svg>
