<svg width="16" height="16" viewBox="0 0 16 16" fill="none" xmlns="http://www.w3.org/2000/svg">
<path d="M6.5 5.29997V2.20003C6.5 2.08937 6.58937 2 6.70003 2H9.29997C9.41063 2 9.5 2.08937 9.5 2.20003V5.29997C9.5 5.41063 9.41063 5.5 9.29997 5.5H6.70003C6.58937 5.5 6.5 5.41063 6.5 5.29997ZM14 6.70003V11.75C14 13.25 13.25 14 11.75 14H4.25C2.75 14 2 13.25 2 11.75V6.70003C2 6.58937 2.08937 6.5 2.20003 6.5H13.8C13.9106 6.5 14 6.58937 14 6.70003ZM9.7207 9.16927L7.62134 7.8846C7.20334 7.62927 6.66602 7.92865 6.66602 8.41732V10.9154C6.66602 11.404 7.20334 11.7041 7.62134 11.4481L9.7207 10.1634C10.0934 9.93608 10.0934 9.39727 9.7207 9.16927ZM2.20003 5.5H5.29997C5.41063 5.5 5.5 5.41063 5.5 5.29997V2.20003C5.5 2.08937 5.41063 2 5.29997 2H4.25C2.75 2 2 2.75 2 4.25V5.29997C2 5.41063 2.08937 5.5 2.20003 5.5ZM11.75 2H10.7C10.5894 2 10.5 2.08937 10.5 2.20003V5.29997C10.5 5.41063 10.5894 5.5 10.7 5.5H13.8C13.9106 5.5 14 5.41063 14 5.29997V4.25C14 2.75 13.25 2 11.75 2Z" fill="#3B3B3E"/>
</svg>
