<svg width="16" height="16" viewBox="0 0 16 16" fill="none" xmlns="http://www.w3.org/2000/svg">
<path d="M14.3532 2.35288L2.35321 14.3502C2.25587 14.4475 2.12785 14.4968 1.99985 14.4968C1.87185 14.4968 1.74383 14.4482 1.6465 14.3502C1.45117 14.1549 1.45117 13.8382 1.6465 13.6429L4.46055 10.8295L4.55316 10.2909C4.59316 10.0775 4.51989 9.85753 4.36655 9.7042L2.19989 7.60487C1.80655 7.22487 2.02651 6.55153 2.57318 6.47153L5.55983 6.03818C5.77983 6.00485 5.9665 5.87152 6.0665 5.67152L7.35988 3.06553C7.61988 2.53219 8.37983 2.53219 8.63983 3.06553L9.8292 5.46217L13.6465 1.64552C13.8425 1.44952 14.1592 1.45086 14.3539 1.64552C14.5485 1.84152 14.5485 2.15821 14.3532 2.35288ZM13.4265 6.47218L12.4452 6.33286C12.3832 6.32419 12.3198 6.34488 12.2758 6.38954C12.2758 6.38954 4.92049 13.7435 4.85516 13.8082C4.77449 13.8889 4.85054 13.9975 4.93988 13.9735C4.99321 13.9589 5.04722 13.9382 5.09922 13.9109L7.68589 12.5575C7.88589 12.4575 8.11252 12.4575 8.31252 12.5575L10.8992 13.9175C11.4259 14.1909 12.0392 13.7442 11.9392 13.1642L11.4458 10.2915C11.4058 10.0782 11.4792 9.85818 11.6325 9.70485L13.7952 7.60886C14.1938 7.22353 13.9745 6.54952 13.4265 6.47218Z" fill="#3B3B3E"/>
</svg>
