<svg width="16" height="16" viewBox="0 0 16 16" fill="none" xmlns="http://www.w3.org/2000/svg">
<path d="M3.01955 2.35288L1.68621 3.68621C1.58888 3.78355 1.46086 3.83286 1.33286 3.83286C1.20486 3.83286 1.07684 3.78421 0.979508 3.68621C0.784174 3.49088 0.784174 3.17419 0.979508 2.97886L2.31284 1.64552C2.50817 1.45019 2.82486 1.45019 3.0202 1.64552C3.21553 1.84086 3.21488 2.15755 3.01955 2.35288ZM12.9829 3.6902C13.0803 3.78553 13.2069 3.83286 13.3329 3.83286C13.4622 3.83286 13.5921 3.78288 13.6901 3.68288C13.8828 3.48554 13.8795 3.16885 13.6828 2.97552L12.3495 1.66888C12.1521 1.47555 11.8361 1.47887 11.6415 1.6762C11.4488 1.87354 11.4523 2.19023 11.6489 2.38356L12.9829 3.6902ZM8.33286 11.3329V12.6662C8.33286 12.9742 8.36156 13.2075 8.1509 13.2715C7.88423 13.3122 7.60886 13.3329 7.33286 13.3329C6.56019 13.3329 5.82819 13.1655 5.16619 12.8701L3.68752 14.3529C3.59018 14.4502 3.46151 14.4995 3.33351 14.4995C3.20618 14.4995 3.07814 14.4509 2.98081 14.3535C2.78481 14.1589 2.78484 13.8415 2.97951 13.6462L4.26483 12.3576C2.89616 11.3923 2.00018 9.80219 2.00018 7.99953C2.00018 5.05286 4.38685 2.66619 7.33351 2.66619C10.2802 2.66619 12.6668 5.05286 12.6668 7.99953C12.6668 8.31886 12.4442 8.33286 12.4442 8.33286H11.3329C9.45286 8.33286 8.33286 9.45286 8.33286 11.3329ZM7.83286 5.35955C7.83286 5.08355 7.60886 4.85955 7.33286 4.85955C7.05686 4.85955 6.83286 5.08355 6.83286 5.35955V8.02622C6.83286 8.30222 7.05686 8.52622 7.33286 8.52622C7.60886 8.52622 7.83286 8.30222 7.83286 8.02622V5.35955ZM14.6662 11.3329V12.6662C14.6662 13.9995 13.9995 14.6662 12.6662 14.6662H11.3329C9.99953 14.6662 9.33286 13.9995 9.33286 12.6662V11.3329C9.33286 9.99953 9.99953 9.33286 11.3329 9.33286H12.6662C13.9995 9.33286 14.6662 9.99953 14.6662 11.3329ZM13.1662 11.9995C13.1662 11.8155 13.0169 11.6662 12.8329 11.6662H12.3329V11.1662C12.3329 10.9822 12.1835 10.8329 11.9995 10.8329C11.8155 10.8329 11.6662 10.9822 11.6662 11.1662V11.6662H11.1662C10.9822 11.6662 10.8329 11.8155 10.8329 11.9995C10.8329 12.1835 10.9822 12.3329 11.1662 12.3329H11.6662V12.8329C11.6662 13.0169 11.8155 13.1662 11.9995 13.1662C12.1835 13.1662 12.3329 13.0169 12.3329 12.8329V12.3329H12.8329C13.0169 12.3329 13.1662 12.1835 13.1662 11.9995Z" fill="#3B3B3E"/>
</svg>
