<svg width="16" height="16" viewBox="0 0 16 16" fill="none" xmlns="http://www.w3.org/2000/svg">
<path d="M10.718 12.6207C10.8227 12.8827 10.912 13.208 10.9467 13.5934C10.9667 13.78 10.9067 13.9734 10.7734 14.1134C10.6534 14.2534 10.4734 14.3334 10.2867 14.3334H5.71997C5.5333 14.3334 5.35331 14.2534 5.22664 14.1134C5.09998 13.9734 5.03997 13.78 5.0533 13.5934C5.0933 13.2087 5.17798 12.8834 5.28198 12.6214C5.31198 12.5454 5.38734 12.5001 5.46867 12.5001H10.532C10.6133 12.5001 10.688 12.5454 10.718 12.6207ZM14 6.16678H10.78L12.02 4.80676C12.1267 4.69342 12.28 4.6201 12.4333 4.64676C12.5067 4.6601 12.58 4.66678 12.66 4.66678C13.2067 4.66678 13.6866 4.38015 13.8933 3.87349C14.36 2.72015 13.24 1.62008 12.0867 2.12674C11.6133 2.33341 11.3333 2.82012 11.3333 3.33345C11.3333 3.34012 11.3333 3.34012 11.3333 3.34012C11.3333 3.50012 11.2666 3.65353 11.14 3.74686L7.95996 6.16678H2C1.72667 6.16678 1.5 6.39345 1.5 6.66678C1.5 6.94012 1.72667 7.16678 2 7.16678H2.35335C2.48469 9.02278 3.18999 10.5041 4.35466 11.4534C4.39199 11.4841 4.43937 11.5001 4.48804 11.5001H11.512C11.56 11.5001 11.6074 11.4841 11.6447 11.4534C12.81 10.5107 13.5153 9.02278 13.646 7.16678H13.9993C14.2727 7.16678 14.4993 6.94012 14.4993 6.66678C14.5 6.39345 14.2733 6.16678 14 6.16678Z" fill="#3B3B3E"/>
</svg>
