<svg width="16" height="16" viewBox="0 0 16 16" fill="none" xmlns="http://www.w3.org/2000/svg">
<path d="M14 6.41667V12.25C14 13.4167 13.4167 14 12.25 14H6.41667C5.25 14 4.66667 13.4167 4.66667 12.25V6.41667C4.66667 5.25 5.25 4.66667 6.41667 4.66667H12.25C13.4167 4.66667 14 5.25 14 6.41667ZM10.5 2C10.5 1.724 10.276 1.5 10 1.5H3.75C2.29867 1.5 1.5 2.29867 1.5 3.75V10C1.5 10.276 1.724 10.5 2 10.5C2.276 10.5 2.5 10.276 2.5 10V3.75C2.5 2.862 2.862 2.5 3.75 2.5H10C10.276 2.5 10.5 2.276 10.5 2Z" fill="#3B3B3E"/>
</svg>
