<svg width="16" height="16" viewBox="0 0 16 16" fill="none" xmlns="http://www.w3.org/2000/svg">
<path d="M7.08076 2.06859C4.88009 2.39592 3.00075 3.97592 2.31009 6.09126C1.79875 7.65726 1.95668 9.21525 2.55602 10.5046C2.69602 10.7979 2.69606 11.1379 2.59606 11.4512L2.036 13.1173C1.86 13.6406 2.35934 14.1399 2.88268 13.9639L4.54934 13.4039C4.86268 13.3039 5.20264 13.3039 5.49531 13.4439C6.25531 13.7972 7.10866 13.9972 8.00133 13.9972C8.33666 13.9972 8.66735 13.9712 8.98668 13.9186C9.10535 13.8992 9.17268 13.7779 9.13935 13.6626C9.02868 13.2719 8.98065 12.8552 9.00865 12.4199C9.12599 10.6199 10.622 9.12322 12.4227 9.00589C12.858 8.97789 13.2741 9.02592 13.6654 9.13658C13.7807 9.16925 13.9014 9.10192 13.9214 8.98392C13.9741 8.66458 14 8.3339 14 7.99856C14 4.3839 10.8014 1.51526 7.08076 2.06859ZM5.34671 8.66657C4.97871 8.66657 4.67662 8.36791 4.67662 7.99991C4.67662 7.63191 4.97203 7.33324 5.34003 7.33324H5.34671C5.71537 7.33324 6.01337 7.63191 6.01337 7.99991C6.01337 8.36791 5.71471 8.66657 5.34671 8.66657ZM8.01337 8.66657C7.64537 8.66657 7.34329 8.36791 7.34329 7.99991C7.34329 7.63191 7.6387 7.33324 8.0067 7.33324H8.01337C8.38204 7.33324 8.68004 7.63191 8.68004 7.99991C8.68004 8.36791 8.38137 8.66657 8.01337 8.66657ZM10.68 8.66657C10.312 8.66657 10.01 8.36791 10.01 7.99991C10.01 7.63191 10.3054 7.33324 10.6734 7.33324H10.68C11.0487 7.33324 11.3467 7.63191 11.3467 7.99991C11.3467 8.36791 11.048 8.66657 10.68 8.66657ZM14.3534 13.6466C14.5487 13.8419 14.5487 14.1586 14.3534 14.3539C14.256 14.4512 14.128 14.5006 14 14.5006C13.872 14.5006 13.744 14.4519 13.6467 14.3539L12.6667 13.3739L11.6867 14.3539C11.5894 14.4512 11.4614 14.5006 11.3334 14.5006C11.2054 14.5006 11.0773 14.4519 10.98 14.3539C10.7847 14.1586 10.7847 13.8419 10.98 13.6466L11.96 12.6666L10.98 11.6866C10.7847 11.4913 10.7847 11.1746 10.98 10.9792C11.1753 10.7839 11.492 10.7839 11.6874 10.9792L12.6673 11.9593L13.6473 10.9792C13.8427 10.7839 14.1593 10.7839 14.3547 10.9792C14.55 11.1746 14.55 11.4913 14.3547 11.6866L13.3747 12.6666L14.3534 13.6466Z" fill="#3B3B3E"/>
</svg>
