<svg width="16" height="16" viewBox="0 0 16 16" fill="none" xmlns="http://www.w3.org/2000/svg">
<path d="M12 3.33301H4C2.66667 3.33301 2 3.99967 2 5.33301V10.6663C2 11.9997 2.66667 12.6663 4 12.6663H12C13.3333 12.6663 14 11.9997 14 10.6663V5.33301C14 3.99967 13.3333 3.33301 12 3.33301ZM9.52002 5.15967C9.64002 5.15967 9.75333 5.15967 9.86666 5.15967C9.91333 5.15967 9.94668 5.18635 9.96668 5.23301C10 5.31968 10.0334 5.40633 10.06 5.493C10.26 6.03967 10.4533 6.58634 10.6533 7.12634C10.6533 7.13301 10.66 7.14633 10.6667 7.15967C10.7067 7.03967 10.7467 6.93301 10.7867 6.81968L11.32 5.29301C11.32 5.29301 11.3333 5.25301 11.3467 5.23301C11.3667 5.17968 11.4067 5.15302 11.4667 5.15302C11.5667 5.15302 11.6666 5.15302 11.7733 5.15302C11.82 5.15302 11.84 5.17967 11.8267 5.21967C11.8267 5.24633 11.8133 5.273 11.8 5.30634C11.44 6.21967 11.08 7.13301 10.72 8.04635C10.68 8.13968 10.6333 8.23967 10.58 8.32633C10.4467 8.553 10.24 8.65968 9.97998 8.65301C9.89331 8.65301 9.80668 8.63967 9.72001 8.61967C9.63334 8.60634 9.60665 8.56634 9.60665 8.47967C9.60665 8.43301 9.60665 8.37967 9.60665 8.32633C9.60665 8.273 9.63335 8.25301 9.68669 8.25301C9.72669 8.25301 9.76001 8.26634 9.80001 8.26634C9.88001 8.273 9.95999 8.26634 10.0333 8.25301C10.14 8.21968 10.22 8.14635 10.2667 8.04635C10.32 7.93301 10.36 7.81967 10.4067 7.70634C10.4333 7.63967 10.4267 7.59301 10.4067 7.52635C10.1067 6.78635 9.80667 6.04634 9.50667 5.30634C9.49334 5.273 9.48665 5.24635 9.47998 5.21301C9.47331 5.17301 9.49333 5.14634 9.53333 5.14634L9.52002 5.15967ZM7.23332 6.61967C7.32665 6.42634 7.48668 6.313 7.68001 6.23966C7.84668 6.18633 8.01335 6.173 8.18669 6.17967C8.35335 6.18633 8.51334 6.21301 8.67334 6.25301C8.67334 6.25301 8.68665 6.25301 8.69332 6.25301C8.69332 6.24634 8.69332 6.23968 8.69332 6.23301C8.69332 6.10635 8.69332 5.97967 8.69332 5.85301C8.69332 5.76634 8.66666 5.67301 8.61332 5.60634C8.54666 5.51968 8.45335 5.49301 8.35335 5.47968C8.16669 5.45301 7.97333 5.46634 7.78666 5.49967C7.66666 5.52634 7.54668 5.55301 7.42668 5.58634C7.35334 5.60634 7.32665 5.58633 7.31999 5.513C7.31999 5.46633 7.31999 5.41301 7.31999 5.35968C7.31999 5.29968 7.34665 5.25966 7.39998 5.23966C7.49332 5.20633 7.58001 5.17302 7.67334 5.15302C7.82001 5.11302 7.96666 5.09968 8.11332 5.08634C8.12666 5.08634 8.14666 5.08634 8.15999 5.08634H8.34001C8.39334 5.09301 8.45334 5.09968 8.50667 5.10634C8.62001 5.11968 8.73334 5.15301 8.84001 5.21301C9.02001 5.31968 9.1 5.47968 9.12667 5.67301C9.13334 5.73968 9.14001 5.80634 9.14001 5.87301V7.493C9.14001 7.493 9.14001 7.51967 9.14001 7.533C9.14001 7.573 9.10665 7.59968 9.06665 7.60634C8.97998 7.60634 8.89999 7.60634 8.81999 7.60634C8.77332 7.60634 8.74666 7.57301 8.73999 7.52635C8.72666 7.47301 8.72001 7.41968 8.71334 7.35968C8.70001 7.36635 8.69335 7.37301 8.68669 7.37968C8.50669 7.52635 8.29999 7.62633 8.07332 7.65967C7.87332 7.68633 7.67333 7.673 7.49333 7.573C7.30666 7.46633 7.19333 7.29968 7.16667 7.08634C7.14667 6.92634 7.15335 6.76635 7.22668 6.61302L7.23332 6.61967ZM4.55334 5.28634C4.55334 5.17967 4.57335 5.15967 4.68001 5.15967H4.85999C4.93332 5.15967 4.96665 5.19302 4.97998 5.25968C4.98665 5.29968 4.99333 5.34633 5 5.38633C5 5.393 5.00001 5.39966 5.00667 5.40633C5.04001 5.37966 5.07999 5.353 5.11332 5.32633C5.28666 5.19967 5.47999 5.11968 5.69332 5.09302C5.71332 5.09302 5.74001 5.09301 5.76001 5.08634H5.88668C5.93334 5.09301 5.98666 5.09968 6.03333 5.10634C6.35999 5.17301 6.57333 5.37301 6.69999 5.66634C6.80666 5.90634 6.83333 6.16635 6.82666 6.42635C6.81999 6.65968 6.77333 6.88634 6.66667 7.09967C6.52667 7.37967 6.30667 7.57302 6 7.63302C5.65333 7.69968 5.33998 7.62634 5.06665 7.39968C5.05998 7.39301 5.04666 7.38634 5.03333 7.37301V8.47967C5.03333 8.47967 5.03333 8.51301 5.03333 8.52635C5.03333 8.57301 5.00667 8.59967 4.96 8.59967C4.85334 8.59967 4.74668 8.59967 4.64001 8.59967C4.59335 8.59967 4.56665 8.56635 4.56665 8.52635C4.56665 8.51301 4.56665 8.49301 4.56665 8.47967V5.28634H4.55334ZM11.8133 9.73301C11.7733 9.77968 11.72 9.813 11.6667 9.84633C11.2 10.1663 10.6866 10.3997 10.1466 10.5797C9.77331 10.6997 9.39333 10.7863 9 10.8463C8.73333 10.8863 8.46002 10.913 8.18669 10.9197C8.17335 10.9197 8.15998 10.9197 8.14665 10.9197H7.82666C7.82666 10.9197 7.8 10.9197 7.78666 10.9197C7.73333 10.9197 7.68 10.9197 7.62 10.913C7.36 10.8997 7.10669 10.873 6.85335 10.833C6.43335 10.7663 6.02667 10.6597 5.62667 10.513C4.8 10.213 4.05998 9.77301 3.39998 9.18634C3.37332 9.15967 3.35333 9.12634 3.33333 9.09967V9.06634C3.36667 8.99968 3.41331 8.99301 3.47998 9.02635C3.63998 9.11301 3.79333 9.19968 3.95333 9.27968C4.57333 9.59302 5.22665 9.82635 5.89998 9.98635C6.21998 10.0597 6.53999 10.1263 6.86666 10.1663C7.34666 10.233 7.83332 10.2597 8.31999 10.2463C8.58665 10.2397 8.85332 10.2197 9.11332 10.1863C9.97332 10.0863 10.8066 9.86633 11.6066 9.533C11.6533 9.513 11.6933 9.49967 11.7467 9.513C11.8467 9.53967 11.8867 9.65301 11.8067 9.73301H11.8133ZM12.6667 9.27301C12.66 9.32634 12.6467 9.38634 12.6333 9.43968C12.5667 9.74634 12.4533 10.0397 12.2533 10.2863C12.2 10.3597 12.1267 10.4263 12.06 10.493C12.04 10.513 12.0133 10.5263 11.9867 10.533C11.94 10.5397 11.92 10.513 11.9267 10.4663C11.9267 10.453 11.9333 10.433 11.94 10.4197C12.0333 10.193 12.12 9.96634 12.18 9.73301C12.2133 9.61968 12.24 9.49968 12.2333 9.37968C12.2333 9.29968 12.1933 9.23967 12.12 9.21967C12.0467 9.19967 11.9733 9.18633 11.9 9.17967C11.7267 9.16633 11.5533 9.17968 11.3733 9.19301L11.02 9.23301C11.02 9.23301 11 9.23301 10.9867 9.23301C10.96 9.23301 10.94 9.23301 10.9333 9.20634C10.9333 9.18634 10.9333 9.15967 10.94 9.14634C10.9533 9.12634 10.9733 9.10635 10.9933 9.09302C11.18 8.96635 11.3866 8.89301 11.6066 8.85301C11.8066 8.81967 12.0067 8.80633 12.2067 8.82633C12.3133 8.833 12.4267 8.853 12.5267 8.88633C12.5933 8.90633 12.6533 8.93967 12.6667 9.013C12.6667 9.09967 12.6667 9.19302 12.6667 9.27968V9.27301ZM7.65999 7.073C7.62666 6.973 7.62666 6.87302 7.65999 6.77968C7.69333 6.65302 7.78666 6.57967 7.90666 6.53967C8.03332 6.49967 8.16 6.49301 8.28666 6.50635C8.41333 6.51968 8.54 6.53967 8.66667 6.55967C8.69333 6.55967 8.69999 6.573 8.69999 6.59967C8.69999 6.673 8.69999 6.74635 8.69999 6.81968C8.69999 6.89301 8.69999 6.96633 8.69999 7.033C8.69999 7.053 8.69334 7.06634 8.67334 7.07967C8.50001 7.20634 8.31335 7.28634 8.10002 7.30634C8.01335 7.313 7.92667 7.30635 7.84001 7.27968C7.74667 7.24635 7.67999 7.173 7.65332 7.073H7.65999ZM5.05334 7.05967C5.05334 7.05967 5.02665 7.03301 5.02665 7.00635C5.02665 6.79301 5.02665 6.57968 5.02665 6.35968V5.71301C5.02665 5.71301 5.03334 5.67967 5.05334 5.66634C5.26001 5.51967 5.49333 5.44635 5.74666 5.46635C5.97333 5.47968 6.16001 5.59301 6.26001 5.85968C6.32001 6.01968 6.33333 6.193 6.33333 6.36633C6.33333 6.52633 6.31998 6.67967 6.27332 6.83301C6.16665 7.15967 5.93333 7.28634 5.62 7.26634C5.40666 7.25967 5.22 7.173 5.04667 7.053L5.05334 7.05967Z" fill="#3B3B3E"/>
</svg>
