<svg width="16" height="16" viewBox="0 0 16 16" fill="none" xmlns="http://www.w3.org/2000/svg">
<path d="M8 2.66699C4.68667 2.66699 2 4.66698 2 8.00098C2 9.41431 2.48663 10.5949 3.29997 11.4749C3.19997 12.1149 2.83995 12.8484 2.11328 13.4351C1.89328 13.6217 2.01997 13.9883 2.30664 13.995C3.25331 14.0283 4.71327 13.9017 5.60661 12.9484C6.33994 13.2017 7.14667 13.335 8 13.335C11.3133 13.335 14 11.335 14 8.00098C14 4.66698 11.3133 2.66699 8 2.66699ZM7.5 6.00033C7.5 5.72433 7.724 5.50033 8 5.50033C8.276 5.50033 8.5 5.72433 8.5 6.00033V8.00033C8.5 8.27633 8.276 8.50033 8 8.50033C7.724 8.50033 7.5 8.27633 7.5 8.00033V6.00033ZM8.01335 10.667C7.64535 10.667 7.34326 10.3683 7.34326 10.0003C7.34326 9.63233 7.63867 9.33366 8.00667 9.33366H8.01335C8.38201 9.33366 8.68001 9.63233 8.68001 10.0003C8.68001 10.3683 8.38135 10.667 8.01335 10.667Z" fill="#3B3B3E"/>
</svg>
