<svg width="16" height="16" viewBox="0 0 16 16" fill="none" xmlns="http://www.w3.org/2000/svg">
<path d="M13.6411 5.33156C13.8805 5.65689 13.9999 6.10218 13.9999 6.66685V10.3335C13.9999 10.8855 13.5519 11.3335 12.9999 11.3335H11.8332V13.3335C11.8332 13.9748 11.3079 14.5002 10.6665 14.5002H5.33319C5.11119 14.5002 4.90249 14.4409 4.71649 14.3242C4.64582 14.2802 4.53918 14.1409 4.67384 14.0069L5.09458 13.5728C5.17658 13.4908 5.21185 13.5008 5.33319 13.5008H10.6665C10.7585 13.5008 10.8332 13.4262 10.8332 13.3342V10.5008H8.6325C8.48317 10.5008 8.36188 10.3055 8.50588 10.1615L13.3459 5.32147C13.4292 5.23747 13.5718 5.23756 13.6411 5.33156ZM14.3532 2.35353L2.35321 14.3535C2.25587 14.4509 2.12785 14.5002 1.99985 14.5002C1.87185 14.5002 1.74383 14.4515 1.6465 14.3535C1.45117 14.1582 1.45117 13.8415 1.6465 13.6462L3.95981 11.3329H3.0005C2.44717 11.3329 2.0005 10.8862 2.0005 10.3329V6.66619C2.0005 5.33286 2.66717 4.66619 4.0005 4.66619H4.16717V2.66619C4.16717 2.02286 4.6905 1.49953 5.33384 1.49953H10.0005C10.1332 1.49953 10.2605 1.55217 10.3539 1.64617L11.6872 2.97951C11.7812 3.07351 11.8338 3.20086 11.8338 3.33286V3.45884L13.6472 1.64552C13.8425 1.45019 14.1592 1.45019 14.3545 1.64552C14.5498 1.84086 14.5485 2.1582 14.3532 2.35353ZM10.8332 3.54087L9.7925 2.50018H5.33319C5.24119 2.50018 5.16652 2.57485 5.16652 2.66685V4.66685H10.6258L10.8332 4.45949V3.54087Z" fill="#3B3B3E"/>
</svg>
