<svg width="16" height="16" viewBox="0 0 16 16" fill="none" xmlns="http://www.w3.org/2000/svg">
<path d="M8.01204 1.33301C6.51871 2.07367 5.33333 2.66634 2 3.33301C2 4.09101 2 6.46762 2 7.25895C2 11.7036 5.778 13.9257 8 14.6663C10.222 13.9257 14 11.7036 14 7.25895C14 6.44228 14 4.12901 14 3.33301C10.6667 2.66634 9.48138 2.07367 8.01204 1.33301ZM10.3613 7.01969L7.69466 9.68636C7.59733 9.78369 7.46931 9.83301 7.34131 9.83301C7.21331 9.83301 7.08529 9.78436 6.98796 9.68636L5.65462 8.35303C5.45929 8.15769 5.45929 7.841 5.65462 7.64567C5.84996 7.45034 6.16665 7.45034 6.36198 7.64567L7.34196 8.62565L9.65527 6.31234C9.85061 6.117 10.1673 6.117 10.3626 6.31234C10.558 6.50767 10.5567 6.82436 10.3613 7.01969Z" fill="#3B3B3E"/>
</svg>
