<svg width="16" height="16" viewBox="0 0 16 16" fill="none" xmlns="http://www.w3.org/2000/svg">
<path d="M7.99967 1.33301C4.31767 1.33301 1.33301 4.31767 1.33301 7.99967C1.33301 11.6817 4.31767 14.6663 7.99967 14.6663C11.6817 14.6663 14.6663 11.6817 14.6663 7.99967C14.6663 4.31767 11.6817 1.33301 7.99967 1.33301ZM10.4997 8.66634C10.4997 8.94234 10.2757 9.16634 9.99967 9.16634C9.72367 9.16634 9.49967 8.94234 9.49967 8.66634V7.20703L6.35303 10.3537C6.25569 10.451 6.12767 10.5003 5.99967 10.5003C5.87167 10.5003 5.74365 10.4517 5.64632 10.3537C5.45099 10.1583 5.45099 9.84165 5.64632 9.64632L8.79297 6.49967H7.33301C7.05701 6.49967 6.83301 6.27567 6.83301 5.99967C6.83301 5.72367 7.05701 5.49967 7.33301 5.49967H9.99967C10.065 5.49967 10.1297 5.51308 10.1911 5.53841C10.3131 5.58908 10.4104 5.68642 10.4618 5.80908C10.4871 5.87042 10.5003 5.93499 10.5003 6.00033V8.66634H10.4997Z" fill="#3B3B3E"/>
</svg>
