<svg width="16" height="16" viewBox="0 0 16 16" fill="none" xmlns="http://www.w3.org/2000/svg">
<path d="M11.3581 8.00097L5.33333 13.9997H2V10.6663L7.9987 4.64167C8.0767 4.56301 8.2034 4.56301 8.28206 4.64167L11.3587 7.71833C11.4367 7.79633 11.4367 7.92297 11.3581 8.00097ZM12.0719 7.0183C12.1499 7.0963 12.2767 7.0963 12.3547 7.0183L13.6066 5.76635C14.1293 5.24368 14.1293 4.3957 13.6066 3.87304L12.1266 2.39298C11.604 1.87031 10.7561 1.87031 10.2334 2.39298L8.98128 3.64501C8.90328 3.72301 8.90328 3.84964 8.98128 3.92764L12.0719 7.0183ZM14 13.4997H9.33333C9.05733 13.4997 8.83333 13.7237 8.83333 13.9997C8.83333 14.2757 9.05733 14.4997 9.33333 14.4997H14C14.276 14.4997 14.5 14.2757 14.5 13.9997C14.5 13.7237 14.276 13.4997 14 13.4997Z" fill="#3B3B3E"/>
</svg>
