<svg width="16" height="16" viewBox="0 0 16 16" fill="none" xmlns="http://www.w3.org/2000/svg">
<path d="M8.00033 2C6.16033 2 4.66699 3.49333 4.66699 5.33333V9.66667C4.66699 10.22 5.11366 10.6667 5.66699 10.6667H7.50033V14C7.50033 14.2733 7.72699 14.5 8.00033 14.5C8.27366 14.5 8.50033 14.2733 8.50033 14V10.6667H10.3337C10.887 10.6667 11.3337 10.22 11.3337 9.66667V5.33333C11.3337 3.49333 9.84033 2 8.00033 2ZM7.00033 9.16667C6.72699 9.16667 6.50033 8.94 6.50033 8.66667V4.66667C6.50033 4.39333 6.72699 4.16667 7.00033 4.16667C7.27366 4.16667 7.50033 4.39333 7.50033 4.66667V8.66667C7.50033 8.94 7.27366 9.16667 7.00033 9.16667ZM9.50033 8.66667C9.50033 8.94 9.27366 9.16667 9.00033 9.16667C8.72699 9.16667 8.50033 8.94 8.50033 8.66667V4.66667C8.50033 4.39333 8.72699 4.16667 9.00033 4.16667C9.27366 4.16667 9.50033 4.39333 9.50033 4.66667V8.66667Z" fill="#3B3B3E"/>
</svg>
