<svg width="16" height="16" viewBox="0 0 16 16" fill="none" xmlns="http://www.w3.org/2000/svg">
<path fill-rule="evenodd" clip-rule="evenodd" d="M5.50033 2C5.50033 1.724 5.72433 1.5 6.00033 1.5H9.33366C9.60966 1.5 9.83366 1.724 9.83366 2C9.83366 2.276 9.60966 2.5 9.33366 2.5H6.00033C5.72433 2.5 5.50033 2.276 5.50033 2ZM12.667 9C12.667 11.7613 10.4283 14 7.66699 14C4.90566 14 2.66699 11.7613 2.66699 9C2.66699 6.23867 4.90566 4 7.66699 4C8.78233 4 9.8083 4.36932 10.6403 4.98665L11.647 3.97998C11.8403 3.78665 12.1603 3.78665 12.3537 3.97998C12.547 4.17331 12.547 4.49335 12.3537 4.68669L11.3804 5.65999C12.1777 6.54599 12.667 7.71467 12.667 9ZM9.68701 7.53532C9.49168 7.33999 9.17499 7.33999 8.97966 7.53532L7.111 9.40397L6.35303 8.64665C6.15769 8.45131 5.841 8.45131 5.64567 8.64665C5.45034 8.84198 5.45034 9.15867 5.64567 9.354L6.757 10.4653C6.85433 10.5627 6.98235 10.612 7.11035 10.612C7.23835 10.612 7.36637 10.5633 7.4637 10.4653L9.68571 8.24333C9.88238 8.04733 9.88235 7.73065 9.68701 7.53532Z" fill="#3B3B3E"/>
</svg>
