<svg width="16" height="16" viewBox="0 0 16 16" fill="none" xmlns="http://www.w3.org/2000/svg">
<path d="M9.49984 12.3333C9.49984 10.7733 10.7732 9.5 12.3332 9.5H13.9665C13.9865 9.39333 13.9998 9.28001 13.9998 9.17334V4.25334C13.9998 2.66667 13.3332 2 11.7465 2H4.2465C2.65983 2 1.99316 2.66667 1.99316 4.25334V11.7533C1.99316 13.34 2.65983 14.0067 4.2465 14.0067H9.1665C9.27984 14.0067 9.3865 13.9933 9.49316 13.9733V12.34L9.49984 12.3333ZM8.98649 6.42C9.19316 6.06 9.57983 5.83333 9.99316 5.83333C10.4065 5.83333 10.7932 6.06 10.9998 6.42C11.1332 6.66 11.0532 6.96666 10.8132 7.1C10.7332 7.14666 10.6532 7.16667 10.5665 7.16667C10.3932 7.16667 10.2198 7.07333 10.1332 6.91333C10.1198 6.88666 10.0798 6.83333 9.99316 6.83333C9.93316 6.83333 9.87986 6.86 9.85319 6.91333C9.71986 7.15333 9.41318 7.24 9.17318 7.1C8.93318 6.96666 8.84649 6.66 8.98649 6.42ZM5.17318 6.66667C5.17318 6.20667 5.53984 5.83333 6.00651 5.83333C6.46651 5.83333 6.83984 6.20667 6.83984 6.66667C6.83984 7.12667 6.46651 7.5 6.00651 7.5C5.54651 7.5 5.17318 7.12667 5.17318 6.66667ZM6.44649 10.1467C6.19983 10.0267 6.09318 9.72667 6.21318 9.48C6.33318 9.23333 6.63318 9.12666 6.87984 9.24666C7.59318 9.58666 8.42649 9.58 9.10649 9.24666C9.35315 9.12666 9.65315 9.22666 9.77315 9.47333C9.89315 9.71999 9.79317 10.02 9.54651 10.1467C9.05984 10.3867 8.53982 10.5067 7.98649 10.5067C7.43316 10.5067 6.93316 10.3867 6.44649 10.1533V10.1467ZM13.4865 10.5C13.4865 10.5 13.4398 10.56 13.4132 10.5867L10.5865 13.4133C10.5865 13.4133 10.5265 13.46 10.4998 13.4867V12.3333C10.4998 11.32 11.3198 10.5 12.3332 10.5H13.4865Z" fill="#3B3B3E"/>
</svg>
