<svg width="16" height="16" viewBox="0 0 16 16" fill="none" xmlns="http://www.w3.org/2000/svg">
<path d="M3.66763 11.9979C2.93963 11.9985 2.32035 11.5878 2.09235 10.8958C1.71102 9.73847 2.56432 8.66648 3.66632 8.66648C3.89699 8.66648 4.11833 8.71381 4.31899 8.79848C4.69366 8.95648 5.12369 8.87585 5.41169 8.58852L8.58763 5.41241C8.88163 5.11841 8.9457 4.68186 8.7897 4.29652C8.64503 3.93919 8.619 3.52052 8.763 3.09519C8.93234 2.59652 9.35696 2.20244 9.86562 2.06378C10.9843 1.75844 11.997 2.59177 12.0003 3.66111C12.001 3.84844 12.1477 3.99981 12.335 3.99981C13.065 3.99981 13.6803 4.41315 13.9083 5.10382C14.2897 6.26115 13.4363 7.33315 12.3343 7.33315C12.1036 7.33315 11.8823 7.28581 11.6816 7.20115C11.307 7.04315 10.877 7.12377 10.589 7.41111L7.41299 10.5872C7.11899 10.8812 7.055 11.3178 7.211 11.7031C7.35567 12.0604 7.3817 12.4791 7.2377 12.9044C7.06836 13.4031 6.64299 13.7972 6.13499 13.9358C5.01433 14.2418 4.00098 13.4058 4.00031 12.3338C3.99964 12.1478 3.85363 11.9979 3.66763 11.9979Z" fill="#3B3B3E"/>
</svg>
