<svg width="16" height="16" viewBox="0 0 16 16" fill="none" xmlns="http://www.w3.org/2000/svg">
<path d="M12.6663 12C12.6663 13.1047 10.577 14 7.99967 14C5.42234 14 3.33301 13.1047 3.33301 12C3.33301 10.968 5.15767 10.1187 7.49967 10.012V11.3333C7.49967 11.6067 7.72634 11.8333 7.99967 11.8333C8.27301 11.8333 8.49967 11.6067 8.49967 11.3333V10.012C10.8417 10.1187 12.6663 10.968 12.6663 12ZM8.49967 10.012V7.28272C9.73301 7.04805 10.6663 5.968 10.6663 4.66667C10.6663 3.194 9.47234 2 7.99967 2C6.52701 2 5.33301 3.194 5.33301 4.66667C5.33301 5.968 6.26634 7.04871 7.49967 7.28272V10.012C7.66434 10.0047 7.83034 10 7.99967 10C8.16901 10 8.33501 10.0047 8.49967 10.012Z" fill="#3B3B3E"/>
</svg>
