<svg width="16" height="16" viewBox="0 0 16 16" fill="none" xmlns="http://www.w3.org/2000/svg">
<path d="M7.99967 1.33301C4.31967 1.33301 1.33301 4.31967 1.33301 7.99967C1.33301 11.6797 4.31967 14.6663 7.99967 14.6663C11.6797 14.6663 14.6663 11.6797 14.6663 7.99967C14.6663 4.31967 11.6797 1.33301 7.99967 1.33301ZM5.99967 5.49967C6.47967 5.49967 6.83301 5.99301 6.83301 6.66634C6.83301 7.33967 6.47967 7.83301 5.99967 7.83301C5.51967 7.83301 5.16634 7.33967 5.16634 6.66634C5.16634 5.99301 5.51967 5.49967 5.99967 5.49967ZM9.99967 11.1663H5.99967C5.72634 11.1663 5.49967 10.9397 5.49967 10.6663C5.49967 10.393 5.72634 10.1663 5.99967 10.1663H9.99967C10.273 10.1663 10.4997 10.393 10.4997 10.6663C10.4997 10.9397 10.273 11.1663 9.99967 11.1663ZM9.99967 7.83301C9.51967 7.83301 9.16634 7.33967 9.16634 6.66634C9.16634 5.99301 9.51967 5.49967 9.99967 5.49967C10.4797 5.49967 10.833 5.99301 10.833 6.66634C10.833 7.33967 10.4797 7.83301 9.99967 7.83301Z" fill="#3B3B3E"/>
</svg>
