<svg width="16" height="16" viewBox="0 0 16 16" fill="none" xmlns="http://www.w3.org/2000/svg">
<path d="M11.9999 11.3332C11.9999 11.4199 11.9826 11.5066 11.9486 11.5879C11.8813 11.7512 11.7512 11.8813 11.5879 11.9486C11.5066 11.9826 11.4199 11.9999 11.3332 11.9999H7.3332C6.96453 11.9999 6.66653 11.7012 6.66653 11.3332C6.66653 10.9652 6.96453 10.6665 7.3332 10.6665H9.72382L3.52851 4.47122C3.26784 4.21055 3.26784 3.78917 3.52851 3.52851C3.78917 3.26784 4.21055 3.26784 4.47122 3.52851L10.6665 9.72382V7.3332C10.6665 6.9652 10.9645 6.66653 11.3332 6.66653C11.7019 6.66653 11.9999 6.9652 11.9999 7.3332V11.3332V11.3332Z" fill="#3B3B3E"/>
</svg>
