<svg width="16" height="16" viewBox="0 0 16 16" fill="none" xmlns="http://www.w3.org/2000/svg">
<path d="M8.01204 1.33301C6.51871 2.07367 5.33333 2.66634 2 3.33301C2 4.09101 2 6.46762 2 7.25895C2 11.7036 5.778 13.9257 8 14.6663C10.222 13.9257 14 11.7036 14 7.25895C14 6.44228 14 4.12901 14 3.33301C10.6667 2.66634 9.48138 2.07367 8.01204 1.33301ZM8.5 8.20166V9.99967C8.5 10.2757 8.276 10.4997 8 10.4997C7.724 10.4997 7.5 10.2757 7.5 9.99967V8.18766C7.208 8.013 7.00993 7.69701 7.00993 7.33301C7.00993 6.78034 7.45467 6.33301 8.00667 6.33301H8.01335C8.56601 6.33301 9.01335 6.78034 9.01335 7.33301C9.01335 7.70767 8.80467 8.03033 8.5 8.20166Z" fill="#3B3B3E"/>
</svg>
