<svg width="16" height="16" viewBox="0 0 16 16" fill="none" xmlns="http://www.w3.org/2000/svg">
<path d="M12 4.66699H8.66667L6.66667 2.66699H4C2.66667 2.66699 2 3.33366 2 4.66699V11.3337C2 12.667 2.66667 13.3337 4 13.3337H12C13.3333 13.3337 14 12.667 14 11.3337V6.66699C14 5.33366 13.3333 4.66699 12 4.66699ZM10.5553 7.53099C10.5553 7.87099 10.3373 8.14298 9.986 8.24032L8.37467 8.69033C8.26601 8.72166 8.18538 8.85299 8.18538 9.00033V10.6297C8.18538 11.3857 7.5706 12.0003 6.81527 12.0003C6.05927 12.0003 5.44466 11.3857 5.44466 10.6297C5.44466 9.87433 6.05927 9.25966 6.81527 9.25966C7.07327 9.25966 7.31205 9.33566 7.51872 9.46033V7.32033C7.51872 6.91033 7.79539 6.54366 8.19206 6.42832L9.56673 6.04232C9.92007 5.94165 10.15 6.03698 10.278 6.13432C10.404 6.23032 10.5553 6.42165 10.5553 6.78965V7.53099V7.53099Z" fill="#3B3B3E"/>
</svg>
