<svg width="16" height="16" viewBox="0 0 16 16" fill="none" xmlns="http://www.w3.org/2000/svg">
<path d="M14 11.8337V12.3337C14 12.887 13.5533 13.3337 13 13.3337H3C2.44667 13.3337 2 12.887 2 12.3337V11.8337H14ZM13.3333 10.0003C13.3333 10.287 13.3133 10.5603 13.2667 10.8337H2.73334C2.68667 10.5603 2.66667 10.287 2.66667 10.0003C2.66667 7.40033 4.52666 5.24032 6.98666 4.76699C6.68666 4.49365 6.5 4.10033 6.5 3.66699C6.5 2.84033 7.17333 2.16699 8 2.16699C8.82667 2.16699 9.5 2.84033 9.5 3.66699C9.5 4.10033 9.31334 4.49365 9.01334 4.76699C11.4733 5.24032 13.3333 7.40033 13.3333 10.0003ZM7.5 3.66699C7.5 3.94033 7.72667 4.16699 8 4.16699C8.27333 4.16699 8.5 3.94033 8.5 3.66699C8.5 3.39366 8.27333 3.16699 8 3.16699C7.72667 3.16699 7.5 3.39366 7.5 3.66699ZM11.14 7.73366C10.64 6.93366 9.74667 6.34699 8.75334 6.17366C8.48 6.12699 8.22 6.30699 8.17333 6.58032C8.12666 6.85366 8.30666 7.11366 8.58 7.16033C9.28666 7.287 9.94666 7.70699 10.2867 8.26699C10.3867 8.41365 10.5467 8.50033 10.7133 8.50033C10.8067 8.50033 10.8933 8.47366 10.98 8.42699C11.2133 8.28033 11.2867 7.97366 11.14 7.73366Z" fill="#3B3B3E"/>
</svg>
