<svg width="16" height="16" viewBox="0 0 16 16" fill="none" xmlns="http://www.w3.org/2000/svg">
<path d="M14 6.00029C14 6.73629 13.4027 7.33362 12.6667 7.33362H3.33333C2.59733 7.33362 2 6.73629 2 6.00029C2 5.26429 2.59733 4.66696 3.33333 4.66696H4.48535L6.2513 1.74162C6.39397 1.50562 6.70134 1.42896 6.93734 1.57229C7.17334 1.71562 7.25002 2.02229 7.10669 2.25896L5.65267 4.66696H10.3534L8.91602 2.25629C8.77468 2.01962 8.85201 1.71229 9.09001 1.57096C9.32667 1.43029 9.63398 1.50696 9.77531 1.74496L11.518 4.66763H12.6667C13.4027 4.66696 14 5.26429 14 6.00029ZM12.9173 8.22029L12.5133 12.2003C12.42 13.2203 11.9934 14.0003 10.5267 14.0003H5.48665C3.99332 14.0003 3.59999 13.2203 3.49333 12.2003L3.08268 8.22095C3.07068 8.10295 3.16332 8.00029 3.28198 8.00029H12.7187C12.8373 8.00029 12.9293 8.10296 12.9173 8.22029ZM9.35335 10.647C9.15802 10.4516 8.84133 10.4516 8.646 10.647L8.49935 10.7936V9.33362C8.49935 9.05762 8.27535 8.83362 7.99935 8.83362C7.72335 8.83362 7.49935 9.05762 7.49935 9.33362V10.793L7.3527 10.6463C7.15737 10.451 6.84068 10.451 6.64535 10.6463C6.45001 10.8416 6.45001 11.1583 6.64535 11.3536L7.64535 12.3536C7.69135 12.3996 7.74669 12.4363 7.80802 12.4616C7.86936 12.487 7.93402 12.5003 7.99935 12.5003C8.06468 12.5003 8.12934 12.487 8.19067 12.4616C8.25201 12.4363 8.30735 12.3996 8.35335 12.3536L9.35335 11.3536C9.54869 11.1583 9.54869 10.8423 9.35335 10.647Z" fill="#3B3B3E"/>
</svg>
