<svg width="16" height="16" viewBox="0 0 16 16" fill="none" xmlns="http://www.w3.org/2000/svg">
<path d="M7.99967 1.33301C4.31967 1.33301 1.33301 4.31967 1.33301 7.99967C1.33301 11.6797 4.31967 14.6663 7.99967 14.6663C11.6797 14.6663 14.6663 11.6797 14.6663 7.99967C14.6663 4.31967 11.6797 1.33301 7.99967 1.33301ZM5.99967 4.83301C6.47967 4.83301 6.83301 5.32634 6.83301 5.99967C6.83301 6.67301 6.47967 7.16634 5.99967 7.16634C5.51967 7.16634 5.16634 6.67301 5.16634 5.99967C5.16634 5.32634 5.51967 4.83301 5.99967 4.83301ZM7.99967 11.9997C6.65967 11.9997 5.55301 11.013 5.35968 9.72634C5.32635 9.51967 5.48635 9.33301 5.69301 9.33301H10.3063C10.513 9.33301 10.6663 9.51967 10.6397 9.72634C10.453 11.013 9.34634 11.9997 7.99967 11.9997V11.9997ZM9.99967 7.16634C9.51967 7.16634 9.16634 6.67301 9.16634 5.99967C9.16634 5.32634 9.51967 4.83301 9.99967 4.83301C10.4797 4.83301 10.833 5.32634 10.833 5.99967C10.833 6.67301 10.4797 7.16634 9.99967 7.16634Z" fill="#3B3B3E"/>
</svg>
