<svg width="16" height="16" viewBox="0 0 16 16" fill="none" xmlns="http://www.w3.org/2000/svg">
<path d="M8.01204 1.33301C6.51871 2.07367 5.33333 2.66634 2 3.33301C2 4.09101 2 6.46762 2 7.25895C2 11.7036 5.778 13.9257 8 14.6663C10.222 13.9257 14 11.7036 14 7.25895C14 6.44228 14 4.12901 14 3.33301C10.6667 2.66634 9.48138 2.07367 8.01204 1.33301ZM8.00407 4.99967C8.79474 4.99967 9.43734 5.64228 9.43734 6.43294C9.43734 7.22361 8.79407 7.86637 8.00407 7.86637C7.21407 7.86637 6.57129 7.22361 6.57129 6.43294C6.57129 5.64228 7.2134 4.99967 8.00407 4.99967ZM10.3333 10.6663C10.3333 10.8503 10.184 10.9997 10 10.9997H6C5.816 10.9997 5.66667 10.8503 5.66667 10.6663V10.4644C5.66667 9.57102 6.32061 8.66634 7.57194 8.66634H8.42741C9.67874 8.66634 10.3327 9.57036 10.3327 10.4644V10.6663H10.3333Z" fill="#3B3B3E"/>
</svg>
