<svg width="16" height="16" viewBox="0 0 16 16" fill="none" xmlns="http://www.w3.org/2000/svg">
<path d="M4.14636 12.807L4.1197 12.7803C4.3797 13.067 4.37972 13.5137 4.09972 13.787C3.81306 14.0737 3.35303 14.0737 3.06636 13.787L2.21305 12.9337C1.92638 12.647 1.92638 12.187 2.21305 11.9003C2.49305 11.6203 2.93305 11.6203 3.21972 11.8803L3.19303 11.8537L5.16638 9.51366C5.23971 9.427 5.37971 9.42033 5.45971 9.50033L6.49971 10.5403C6.57971 10.6203 6.5797 10.7603 6.48636 10.8337L4.14636 12.807V12.807ZM13.4997 2.50033C12.7864 1.78699 11.6064 1.84032 10.9664 2.62032L6.07303 8.43365C6.00637 8.51365 6.01305 8.63366 6.08638 8.70699L7.29972 9.92033C7.37305 9.99366 7.49303 10.0003 7.57303 9.93366L13.3864 5.04032C14.1664 4.39366 14.2197 3.22032 13.5064 2.50699L13.4997 2.50033ZM4.33304 1.66699C3.23304 1.66699 2.33304 2.56699 2.33304 3.66699C2.33304 4.76699 3.23304 5.66699 4.33304 5.66699C5.43304 5.66699 6.33304 4.76699 6.33304 3.66699C6.33304 2.56699 5.43304 1.66699 4.33304 1.66699Z" fill="#3B3B3E"/>
</svg>
