<svg width="16" height="16" viewBox="0 0 16 16" fill="none" xmlns="http://www.w3.org/2000/svg">
<path d="M7.99967 1.33301C4.31767 1.33301 1.33301 4.31767 1.33301 7.99967C1.33301 11.6817 4.31767 14.6663 7.99967 14.6663C11.6817 14.6663 14.6663 11.6817 14.6663 7.99967C14.6663 4.31767 11.6817 1.33301 7.99967 1.33301ZM8.13232 10.5744L7.021 11.6857C6.975 11.7317 6.91972 11.7683 6.85905 11.7936C6.79838 11.819 6.73298 11.8324 6.66764 11.8324C6.60231 11.8324 6.53773 11.819 6.4764 11.7936C6.41507 11.7683 6.36029 11.7317 6.31429 11.6857L5.20296 10.5744C5.00763 10.3797 5.00763 10.0624 5.20296 9.86702C5.3983 9.67169 5.71499 9.67169 5.91032 9.86702L6.16829 10.1243V5.99772C6.16829 5.72172 6.39229 5.49772 6.66829 5.49772C6.94429 5.49772 7.16829 5.72172 7.16829 5.99772V10.1243L7.42627 9.86702C7.62227 9.67169 7.93896 9.67236 8.13363 9.86702C8.32763 10.0624 8.32766 10.379 8.13232 10.5744ZM10.7964 6.12972C10.6991 6.22705 10.571 6.27637 10.443 6.27637C10.315 6.27637 10.187 6.22772 10.0897 6.12972L9.83171 5.8724V9.99902C9.83171 10.275 9.60771 10.499 9.33171 10.499C9.05571 10.499 8.83171 10.275 8.83171 9.99902V5.8724L8.57373 6.12972C8.37773 6.32572 8.06104 6.32439 7.86637 6.12972C7.67104 5.93439 7.67104 5.6177 7.86637 5.42236L8.9777 4.31103C9.0237 4.26503 9.07897 4.2283 9.1403 4.20296C9.2623 4.1523 9.4003 4.1523 9.5223 4.20296C9.58363 4.2283 9.63906 4.26503 9.68506 4.31103L10.7964 5.42236C10.9917 5.6177 10.9917 5.93439 10.7964 6.12972Z" fill="#3B3B3E"/>
</svg>
