<svg width="16" height="16" viewBox="0 0 16 16" fill="none" xmlns="http://www.w3.org/2000/svg">
<path fill-rule="evenodd" clip-rule="evenodd" d="M9.26001 4.216L10.6667 2H14L11.7367 5.55933C11.6713 5.66199 11.534 5.67933 11.4413 5.60067C10.852 5.09733 10.15 4.72134 9.37866 4.512C9.24866 4.476 9.18734 4.33 9.26001 4.216ZM4.55802 5.6C5.14736 5.09666 5.84935 4.72067 6.62069 4.51133C6.75135 4.476 6.81266 4.33 6.73999 4.216L5.33333 2H2L4.26335 5.55933C4.32868 5.66199 4.46602 5.67933 4.55802 5.6ZM12.3333 9.66667C12.3333 12.06 10.3933 14 8 14C5.60667 14 3.66667 12.06 3.66667 9.66667C3.66667 7.27333 5.60667 5.33333 8 5.33333C10.3933 5.33333 12.3333 7.27333 12.3333 9.66667ZM10.02 8.20201C9.82469 8.00667 9.508 8.00667 9.31266 8.20201L7.44401 10.0707L6.68604 9.31333C6.4907 9.118 6.17401 9.118 5.97868 9.31333C5.78335 9.50867 5.78335 9.82534 5.97868 10.0207L7.09001 11.132C7.18401 11.226 7.31069 11.2787 7.44336 11.2787C7.57603 11.2787 7.7033 11.226 7.79663 11.132L10.0186 8.90999C10.2153 8.71399 10.2154 8.39734 10.02 8.20201Z" fill="#3B3B3E"/>
</svg>
