<svg width="16" height="16" viewBox="0 0 16 16" fill="none" xmlns="http://www.w3.org/2000/svg">
<path d="M13.1385 7.52916C13.3992 7.78983 13.3992 8.2112 13.1385 8.47187L8.47187 13.1385C8.34187 13.2685 8.17118 13.3338 8.00051 13.3338C7.82985 13.3338 7.65916 13.2685 7.52916 13.1385L2.86249 8.47187C2.60183 8.2112 2.60183 7.78983 2.86249 7.52916C3.12316 7.26849 3.54453 7.26849 3.8052 7.52916L8.00051 11.7245L12.1958 7.52916C12.4565 7.26849 12.8779 7.26849 13.1385 7.52916ZM7.52916 8.47187C7.65916 8.60187 7.82985 8.66718 8.00051 8.66718C8.17118 8.66718 8.34187 8.60187 8.47187 8.47187L13.1385 3.8052C13.3992 3.54453 13.3992 3.12316 13.1385 2.86249C12.8779 2.60183 12.4565 2.60183 12.1958 2.86249L8.00051 7.0578L3.8052 2.86249C3.54453 2.60183 3.12316 2.60183 2.86249 2.86249C2.60183 3.12316 2.60183 3.54453 2.86249 3.8052L7.52916 8.47187Z" fill="#3B3B3E"/>
</svg>
