<svg width="16" height="16" viewBox="0 0 16 16" fill="none" xmlns="http://www.w3.org/2000/svg">
<path d="M10.6663 6C10.4463 6 10.233 6.02002 10.0197 6.06002C9.79436 5.69402 9.51569 5.36398 9.19369 5.08065C8.43169 4.40865 7.42969 4 6.33236 4C3.93902 4 1.99902 5.94 1.99902 8.33333C1.99902 10.7267 3.93902 12.6667 6.33236 12.6667H10.6657C12.5057 12.6667 13.999 11.1733 13.999 9.33333C13.999 7.49333 12.5063 6 10.6663 6ZM9.35303 9.64665C9.54836 9.84198 9.54836 10.1587 9.35303 10.354C9.25569 10.4513 9.12767 10.5007 8.99967 10.5007C8.87167 10.5007 8.74366 10.452 8.64632 10.354L7.99967 9.70732L7.35303 10.354C7.25569 10.4513 7.12767 10.5007 6.99967 10.5007C6.87167 10.5007 6.74366 10.452 6.64632 10.354C6.45099 10.1587 6.45099 9.84198 6.64632 9.64665L7.29297 9L6.64632 8.35335C6.45099 8.15802 6.45099 7.84133 6.64632 7.646C6.84166 7.45066 7.15835 7.45066 7.35368 7.646L8.00033 8.29268L8.64697 7.646C8.84231 7.45066 9.159 7.45066 9.35433 7.646C9.54966 7.84133 9.54966 8.15802 9.35433 8.35335L8.70768 9L9.35303 9.64665Z" fill="#3B3B3E"/>
</svg>
