<svg width="16" height="16" viewBox="0 0 16 16" fill="none" xmlns="http://www.w3.org/2000/svg">
<path d="M11.75 2H4.25C2.75 2 2 2.75 2 4.25V11.75C2 13.25 2.75 14 4.25 14H11.75C13.25 14 14 13.25 14 11.75V4.25C14 2.75 13.25 2 11.75 2ZM10.3534 10.3534C10.256 10.4507 10.128 10.5 10 10.5C9.872 10.5 9.74398 10.4514 9.64665 10.3534L7.64665 8.35335C7.55265 8.25935 7.5 8.132 7.5 8V4.66667C7.5 4.39067 7.724 4.16667 8 4.16667C8.276 4.16667 8.5 4.39067 8.5 4.66667V7.79264L10.3534 9.646C10.5487 9.842 10.5487 10.158 10.3534 10.3534Z" fill="#3B3B3E"/>
</svg>
