<svg width="16" height="16" viewBox="0 0 16 16" fill="none" xmlns="http://www.w3.org/2000/svg">
<path d="M8 2.66699C4.68667 2.66699 2 4.66698 2 8.00098C2 9.41431 2.48663 10.595 3.29997 11.475C3.19997 12.115 2.83995 12.8483 2.11328 13.435C1.89328 13.6216 2.01997 13.9883 2.30664 13.995C3.25331 14.0283 4.71327 13.9017 5.60661 12.9483C6.33994 13.2017 7.14667 13.335 8 13.335C11.3133 13.335 14 11.3343 14 8.00098C14 4.66698 11.3133 2.66699 8 2.66699ZM10.3333 7.70435C10.3333 9.48235 8.87467 10.371 8 10.667C7.12533 10.371 5.66667 9.48168 5.66667 7.70435C5.66667 7.38768 5.66667 6.52632 5.66667 6.22298C6.83333 5.88832 7.41672 5.63031 8.00472 5.33431C8.58339 5.63031 9.16667 5.88833 10.3333 6.18433C10.3333 6.50233 10.3333 7.37701 10.3333 7.70435Z" fill="#3B3B3E"/>
</svg>
