<svg width="16" height="16" viewBox="0 0 16 16" fill="none" xmlns="http://www.w3.org/2000/svg">
<path d="M8.21334 7.23301C8.21334 7.59301 7.99332 7.79968 7.60665 7.79968H7.10002V6.67301H7.60665C7.98665 6.67301 8.20667 6.87966 8.20667 7.23966L8.21334 7.23301ZM9.19999 8.53967C9.19999 8.71301 9.34667 8.82633 9.58667 8.82633C9.88667 8.82633 10.1133 8.63967 10.1133 8.37301V8.21301L9.62 8.24634C9.34666 8.25967 9.19999 8.36635 9.19999 8.54635V8.53967ZM14 5.33301V10.6663C14 11.9997 13.3333 12.6663 12 12.6663H4C2.66667 12.6663 2 11.9997 2 10.6663V5.33301C2 3.99967 2.66667 3.33301 4 3.33301H12C13.3333 3.33301 14 3.99967 14 5.33301ZM4.58 6.79301C4.75333 6.80634 4.93333 6.70633 5.04 6.573C5.14667 6.43966 5.21999 6.25967 5.19999 6.07967C5.04666 6.08634 4.85333 6.17968 4.74666 6.31301C4.64666 6.42634 4.56 6.613 4.58 6.78634V6.79301ZM5.84001 8.34633C5.84001 8.34633 5.43334 8.18633 5.42668 7.71967C5.42668 7.32633 5.74668 7.14635 5.76001 7.13302C5.58001 6.86635 5.29332 6.833 5.19332 6.82633C4.93999 6.813 4.72002 6.973 4.60002 6.973C4.48002 6.973 4.29334 6.83301 4.09334 6.83968C3.83334 6.83968 3.59334 6.99301 3.46 7.22634C3.18667 7.69967 3.38665 8.39301 3.65332 8.77301C3.77999 8.95968 3.94001 9.17301 4.14001 9.16634C4.33335 9.15967 4.40668 9.03967 4.64001 9.03967C4.87335 9.03967 4.93998 9.16633 5.14665 9.15967C5.35998 9.15967 5.49333 8.97302 5.62 8.77968C5.76666 8.56635 5.82667 8.353 5.83333 8.34633H5.84001ZM8.65999 7.23301C8.65999 6.67968 8.27335 6.29968 7.72668 6.29968H6.65999V9.13967H7.10002V8.16634H7.71334C8.27334 8.16634 8.65999 7.78634 8.65999 7.22634V7.23301ZM10.5333 7.72634C10.5333 7.31301 10.2067 7.053 9.69999 7.053C9.23333 7.053 8.88667 7.31967 8.87333 7.68634H9.27332C9.30665 7.51301 9.46665 7.39968 9.69332 7.39968C9.95999 7.39968 10.1133 7.52635 10.1133 7.75968V7.91968L9.56002 7.953C9.04668 7.98634 8.77332 8.19301 8.77332 8.55967C8.77332 8.92634 9.06001 9.17301 9.46668 9.17301C9.74668 9.17301 10 9.03301 10.12 8.81301H10.1267V9.15301H10.5333V7.73966V7.72634ZM12.66 7.07967H12.2133L11.6933 8.75968H11.6867L11.1667 7.07967H10.7067L11.4533 9.14634L11.4133 9.27301C11.3467 9.48634 11.2333 9.56634 11.04 9.56634C11.0067 9.56634 10.94 9.56634 10.9133 9.55967V9.89968C10.9133 9.89968 11.0467 9.913 11.08 9.913C11.5133 9.913 11.7133 9.74634 11.8867 9.25301L12.66 7.07967V7.07967Z" fill="#3B3B3E"/>
</svg>
