<svg width="16" height="16" viewBox="0 0 16 16" fill="none" xmlns="http://www.w3.org/2000/svg">
<path d="M14 5.30859V10.6914C14 11.7807 12.7546 12.3914 11.904 11.7194L8.49666 9.02799C8.16933 8.76933 8.00333 8.39136 8 8.0127V10.6914C8 11.7807 6.75464 12.3914 5.90397 11.7194L2.5 9.0306V12C2.5 12.276 2.276 12.5 2 12.5C1.724 12.5 1.5 12.276 1.5 12V4C1.5 3.724 1.724 3.5 2 3.5C2.276 3.5 2.5 3.724 2.5 4V6.96859L5.90397 4.27995C6.75464 3.60795 8 4.21928 8 5.30794V7.98665C8.00333 7.60732 8.16933 7.22937 8.49666 6.9707L11.904 4.27995C12.7553 3.60861 14 4.21926 14 5.30859Z" fill="#3B3B3E"/>
</svg>
