<svg width="16" height="16" viewBox="0 0 16 16" fill="none" xmlns="http://www.w3.org/2000/svg">
<path d="M14.3529 1.6465C14.1575 1.45117 13.8409 1.45117 13.6455 1.6465L11.7922 3.49983H10.5262C10.4595 3.37983 10.4129 3.23984 10.3595 3.0865L10.2262 2.6865C10.0929 2.27317 9.70619 1.99983 9.27953 1.99983H6.71953C6.29286 1.99983 5.9062 2.27317 5.77286 2.6865L5.63953 3.0865C5.5862 3.23984 5.53953 3.37983 5.47287 3.49983H2.66619C2.39286 3.49983 2.16619 3.7265 2.16619 3.99983C2.16619 4.27317 2.39286 4.49983 2.66619 4.49983H10.7922L10.1255 5.1665H3.62552C3.51219 5.1665 3.41887 5.2665 3.42553 5.37984L3.82819 11.4632L1.64552 13.6458C1.45019 13.8412 1.45019 14.1578 1.64552 14.3532C1.74286 14.4505 1.87086 14.4998 1.99886 14.4998C2.12686 14.4998 2.25487 14.4512 2.3522 14.3532L14.3522 2.35317C14.5482 2.1585 14.5482 1.84117 14.3529 1.6465ZM6.16619 7.33317C6.16619 7.05983 6.39286 6.83317 6.66619 6.83317C6.93953 6.83317 7.16619 7.05983 7.16619 7.33317V8.12583L6.16619 9.12583V7.33317ZM12.4929 6.65316V6.67316L12.1262 12.1332C12.0529 13.1865 11.4995 13.9998 10.1262 13.9998H5.87286C5.74619 13.9998 5.6262 13.9932 5.51286 13.9798C5.39953 13.9665 5.29286 13.9465 5.19286 13.9198C5.19286 13.9198 5.16086 13.9092 5.14753 13.9025C5.07419 13.8692 5.01953 13.8065 5.01953 13.7198C5.01953 13.6865 5.02952 13.6365 5.06352 13.6025L8.83286 9.83317V10.6665C8.83286 10.9398 9.05953 11.1665 9.33286 11.1665C9.60619 11.1665 9.83286 10.9398 9.83286 10.6665V8.83317L12.1595 6.5065C12.1929 6.47316 12.2395 6.45316 12.2929 6.45316C12.4062 6.45316 12.4929 6.53983 12.4929 6.65316Z" fill="#3B3B3E"/>
</svg>
