<svg width="16" height="16" viewBox="0 0 16 16" fill="none" xmlns="http://www.w3.org/2000/svg">
<path d="M14.4712 13.5285C14.7319 13.7892 14.7319 14.2105 14.4712 14.4712C14.3412 14.6012 14.1705 14.6665 13.9999 14.6665C13.8292 14.6665 13.6585 14.6012 13.5285 14.4712L10.6665 11.6092V12.6665C10.6665 13.0345 10.3685 13.3332 9.99986 13.3332C9.6312 13.3332 9.3332 13.0345 9.3332 12.6665V9.99986C9.3332 9.91319 9.35113 9.82647 9.38447 9.74514C9.4518 9.58181 9.58181 9.45246 9.74514 9.38446C9.82648 9.35046 9.9132 9.33319 9.99986 9.33319H12.6665C13.0352 9.33319 13.3332 9.63186 13.3332 9.99986C13.3332 10.3679 13.0352 10.6665 12.6665 10.6665H11.6092L14.4712 13.5285ZM9.74514 6.61526C9.82648 6.64926 9.9132 6.66653 9.99986 6.66653H12.6665C13.0352 6.66653 13.3332 6.36786 13.3332 5.99986C13.3332 5.63186 13.0352 5.3332 12.6665 5.3332H11.6092L14.4712 2.47122C14.7319 2.21055 14.7319 1.78917 14.4712 1.52851C14.2105 1.26784 13.7892 1.26784 13.5285 1.52851L10.6665 4.39049V3.3332C10.6665 2.9652 10.3685 2.66653 9.99986 2.66653C9.6312 2.66653 9.3332 2.9652 9.3332 3.3332V5.99986C9.3332 6.08653 9.35113 6.17325 9.38447 6.25458C9.4518 6.41792 9.58181 6.54793 9.74514 6.61526ZM6.25458 9.38446C6.17325 9.35046 6.08653 9.33319 5.99986 9.33319H3.3332C2.96453 9.33319 2.66653 9.63186 2.66653 9.99986C2.66653 10.3679 2.96453 10.6665 3.3332 10.6665H4.39049L1.52851 13.5285C1.26784 13.7892 1.26784 14.2105 1.52851 14.4712C1.65851 14.6012 1.8292 14.6665 1.99986 14.6665C2.17053 14.6665 2.34122 14.6012 2.47122 14.4712L5.3332 11.6092V12.6665C5.3332 13.0345 5.6312 13.3332 5.99986 13.3332C6.36853 13.3332 6.66653 13.0345 6.66653 12.6665V9.99986C6.66653 9.91319 6.64926 9.82647 6.61526 9.74514C6.54793 9.58181 6.41792 9.4518 6.25458 9.38446ZM5.99986 2.66653C5.6312 2.66653 5.3332 2.9652 5.3332 3.3332V4.39049L2.47122 1.52851C2.21055 1.26784 1.78917 1.26784 1.52851 1.52851C1.26784 1.78917 1.26784 2.21055 1.52851 2.47122L4.39049 5.3332H3.3332C2.96453 5.3332 2.66653 5.63186 2.66653 5.99986C2.66653 6.36786 2.96453 6.66653 3.3332 6.66653H5.99986C6.08653 6.66653 6.17325 6.64859 6.25458 6.61526C6.41792 6.54793 6.54793 6.41792 6.61526 6.25458C6.64926 6.17325 6.66653 6.08653 6.66653 5.99986V3.3332C6.66653 2.9652 6.36853 2.66653 5.99986 2.66653Z" fill="#3B3B3E"/>
</svg>
