<svg width="16" height="16" viewBox="0 0 16 16" fill="none" xmlns="http://www.w3.org/2000/svg">
<path d="M10.431 5.44401C10.2677 5.35801 10.1663 5.19064 10.1663 5.00798V2.5H10.6663C10.9423 2.5 11.1663 2.276 11.1663 2C11.1663 1.724 10.9423 1.5 10.6663 1.5H5.33301C5.05701 1.5 4.83301 1.724 4.83301 2C4.83301 2.276 5.05701 2.5 5.33301 2.5H5.83301V5.00798C5.83301 5.19064 5.73171 5.35799 5.56771 5.44466C3.88104 6.33866 2.83301 8.084 2.83301 10C2.83301 11.4287 3.40234 12.756 4.43368 13.738L4.53304 13.8346C4.97037 14.26 5.27098 14.5007 6.37231 14.5007H9.6263C10.727 14.5007 11.0283 14.26 11.4657 13.8346L11.5644 13.7386C12.597 12.7566 13.1657 11.4287 13.1657 10.0007C13.1664 8.08332 12.119 6.33801 10.431 5.44401ZM6.03564 6.32796C6.52764 6.0673 6.83301 5.56198 6.83301 5.00798V2.5H9.16634V5.00798C9.16634 5.56198 9.47164 6.06796 9.96297 6.32796C11.2976 7.0353 12.1316 8.40726 12.161 9.91992C11.4116 10.2286 9.88367 10.6013 7.99967 9.66667C6.14434 8.74867 4.63967 9.09197 3.87834 9.3973C4.067 8.09597 4.85698 6.95263 6.03564 6.32796Z" fill="#3B3B3E"/>
</svg>
