<svg width="16" height="16" viewBox="0 0 16 16" fill="none" xmlns="http://www.w3.org/2000/svg">
<path d="M14 4V7.986C14 8.12534 13.8639 8.21537 13.7313 8.17204C13.3973 8.06137 13.038 8 12.6667 8C10.8267 8 9.33333 9.49333 9.33333 11.3333C9.33333 11.4813 9.34201 11.6293 9.36068 11.774C9.37068 11.8507 9.32006 12 9.16406 12H4L2 14V4C2 2.66667 2.66667 2 4 2H12C13.3333 2 14 2.66667 14 4ZM14 10.5H12.8333V9.33333C12.8333 9.05733 12.6093 8.83333 12.3333 8.83333C12.0573 8.83333 11.8333 9.05733 11.8333 9.33333V10.5H10.6667C10.3907 10.5 10.1667 10.724 10.1667 11C10.1667 11.276 10.3907 11.5 10.6667 11.5H11.8333V12.6667C11.8333 12.9427 12.0573 13.1667 12.3333 13.1667C12.6093 13.1667 12.8333 12.9427 12.8333 12.6667V11.5H14C14.276 11.5 14.5 11.276 14.5 11C14.5 10.724 14.276 10.5 14 10.5Z" fill="#3B3B3E"/>
</svg>
