<svg width="16" height="16" viewBox="0 0 16 16" fill="none" xmlns="http://www.w3.org/2000/svg">
<path d="M7.27315 8.00051L2.68652 12.3938V3.61385L7.27315 8.00051V8.00051ZM7.99316 7.30717L10.2132 5.1805L4.81982 2.2205C4.61316 2.08717 4.34649 2.02051 4.07316 2.02051C3.63983 2.02051 3.23982 2.21383 2.97982 2.51383L7.98649 7.30717H7.99316ZM7.99316 8.69385L2.97319 13.5005C3.23319 13.8138 3.62649 14.0205 4.07316 14.0205C4.34649 14.0205 4.57983 13.9538 4.7865 13.8205L10.2465 10.8472L7.99316 8.68717V8.69385ZM13.2398 6.84052L11.1332 5.68717L8.71318 8.00051L11.1665 10.3472L13.2665 9.2005C13.7065 8.97383 14.0132 8.51384 14.0132 8.02051C13.9799 7.52717 13.6732 7.06718 13.2332 6.84052H13.2398Z" fill="#3B3B3E"/>
</svg>
