<svg width="16" height="16" viewBox="0 0 16 16" fill="none" xmlns="http://www.w3.org/2000/svg">
<path d="M13.8 6.5H2.20003C2.08937 6.5 2 6.58937 2 6.70003V12C2 13.3333 2.66667 14 4 14H12C13.3333 14 14 13.3333 14 12V6.70003C14 6.58937 13.9106 6.5 13.8 6.5ZM9.68669 10.98C9.88202 11.1753 9.88202 11.492 9.68669 11.6873C9.58935 11.7847 9.46133 11.834 9.33333 11.834C9.20533 11.834 9.07731 11.7853 8.97998 11.6873L8 10.7074L7.02002 11.6873C6.92269 11.7847 6.79467 11.834 6.66667 11.834C6.53867 11.834 6.41065 11.7853 6.31331 11.6873C6.11798 11.492 6.11798 11.1753 6.31331 10.98L7.29329 10L6.31331 9.02002C6.11798 8.82469 6.11798 8.508 6.31331 8.31266C6.50865 8.11733 6.82534 8.11733 7.02067 8.31266L8.00065 9.29264L8.98063 8.31266C9.17597 8.11733 9.49266 8.11733 9.68799 8.31266C9.88332 8.508 9.88332 8.82469 9.68799 9.02002L8.70801 10L9.68669 10.98ZM14 5V5.29997C14 5.41063 13.9106 5.5 13.8 5.5H2.20003C2.08937 5.5 2 5.41063 2 5.29997V5C2 3.66667 2.66667 3 4 3H4.83333V2C4.83333 1.72667 5.06 1.5 5.33333 1.5C5.60667 1.5 5.83333 1.72667 5.83333 2V3H10.1667V2C10.1667 1.72667 10.3933 1.5 10.6667 1.5C10.94 1.5 11.1667 1.72667 11.1667 2V3H12C13.3333 3 14 3.66667 14 5Z" fill="#3B3B3E"/>
</svg>
