<svg width="16" height="16" viewBox="0 0 16 16" fill="none" xmlns="http://www.w3.org/2000/svg">
<path d="M5.33366 3.66667V3C5.33366 2.33333 5.66699 2 6.33366 2H9.66699C10.3337 2 10.667 2.33333 10.667 3V3.66667C10.667 4.33333 10.3337 4.66667 9.66699 4.66667H6.33366C5.66699 4.66667 5.33366 4.33333 5.33366 3.66667ZM13.3337 5.33333V12C13.3337 13.3333 12.667 14 11.3337 14H4.66699C3.33366 14 2.66699 13.3333 2.66699 12V5.33333C2.66699 4.172 3.16825 3.518 4.17692 3.37134C4.25759 3.35934 4.33366 3.42599 4.33366 3.50732V3.66602C4.33366 4.87935 5.12033 5.66602 6.33366 5.66602H9.66699C10.8803 5.66602 11.667 4.87935 11.667 3.66602V3.50732C11.667 3.42599 11.7437 3.35934 11.8237 3.37134C12.8324 3.518 13.3337 4.172 13.3337 5.33333ZM10.111 8.45467L8.94906 8.28935C8.86439 8.27735 8.79091 8.22532 8.75358 8.14998L8.25033 7.15133C8.14833 6.94866 7.85363 6.94866 7.75163 7.15133L7.24837 8.14998C7.21037 8.22532 7.13706 8.27735 7.05306 8.28935L5.89095 8.45467C5.67762 8.48467 5.59307 8.74199 5.74707 8.88932L6.58691 9.69067C6.64825 9.74934 6.67629 9.834 6.66162 9.91667L6.46973 11.0127C6.43039 11.2353 6.66905 11.4053 6.87305 11.3007L7.88037 10.7827C7.95637 10.744 8.04625 10.744 8.12158 10.7827L9.12972 11.3014C9.33372 11.406 9.57172 11.2367 9.53239 11.014L9.34033 9.91667C9.32567 9.834 9.35371 9.74934 9.41504 9.69067L10.255 8.88932C10.409 8.74199 10.3243 8.48534 10.111 8.45467Z" fill="#3B3B3E"/>
</svg>
