<svg width="16" height="16" viewBox="0 0 16 16" fill="none" xmlns="http://www.w3.org/2000/svg">
<path d="M14.3186 6.05619L9.37716 1.99223C8.57916 1.33756 7.42256 1.33689 6.62456 1.99223L1.68323 6.05554C1.47056 6.23087 1.43921 6.54556 1.61455 6.75956C1.78988 6.97356 2.1059 7.00291 2.31857 6.82825L3.00053 6.26688V11.9996C3.00053 13.5262 3.8072 14.3329 5.33387 14.3329H10.6672C12.1939 14.3329 13.0005 13.5262 13.0005 11.9996V6.26754L13.6825 6.8289C13.7758 6.90556 13.8885 6.94291 14.0005 6.94291C14.1445 6.94291 14.2879 6.88086 14.3865 6.76086C14.5625 6.5462 14.5312 6.23152 14.3186 6.05619ZM11.1672 9.66622C11.1672 9.94222 10.9432 10.1662 10.6672 10.1662C10.3912 10.1662 10.1672 9.94222 10.1672 9.66622V9.20626L9.12789 10.2448C8.76589 10.6075 8.1325 10.6075 7.76917 10.2448L6.9832 9.45821L5.68722 10.8096C5.58988 10.9069 5.46187 10.9563 5.33387 10.9563C5.20587 10.9563 5.07785 10.9076 4.98051 10.8096C4.78518 10.6143 4.78518 10.2976 4.98051 10.1023L6.33183 8.75085C6.6945 8.38819 7.32854 8.38819 7.69121 8.75085L8.47652 9.53682L9.48523 8.49825H9.00053C8.72453 8.49825 8.50053 8.27425 8.50053 7.99825C8.50053 7.72225 8.72453 7.49825 9.00053 7.49825H10.6672C10.7325 7.49825 10.7972 7.51157 10.8585 7.5369C10.9805 7.58757 11.0779 7.68491 11.1292 7.80757C11.1545 7.86891 11.1678 7.93357 11.1678 7.9989V9.66622H11.1672Z" fill="#3B3B3E"/>
</svg>
