<svg width="16" height="16" viewBox="0 0 16 16" fill="none" xmlns="http://www.w3.org/2000/svg">
<path d="M9.69872 2.80607L10.8607 2.13403C11.338 1.85803 11.9486 2.02209 12.2246 2.49943L13.866 5.34676C14.142 5.82542 13.978 6.43679 13.5 6.71346L12.3407 7.38403C11.8633 7.66003 11.2521 7.49613 10.9767 7.01879L9.33333 4.1687C9.05866 3.69136 9.22206 3.0814 9.69872 2.80607ZM5.39729 9.95874L3.98128 7.52547C3.92261 7.42547 3.79196 7.39536 3.69596 7.46069L2.58007 8.22013C2.00474 8.61146 1.8294 9.38001 2.1774 9.98201L2.35335 10.2867C2.70201 10.89 3.45595 11.1241 4.08528 10.8241L5.3107 10.2401C5.41604 10.1901 5.45596 10.0601 5.39729 9.95874ZM11.1133 13.7667L8.44661 8.74015L10.1413 7.93139C10.2479 7.88073 10.2887 7.74936 10.2267 7.64803C9.85472 7.04203 8.75339 5.13606 8.41406 4.51473C8.35739 4.41139 8.22461 4.38069 8.12727 4.44669L4.86132 6.66805C4.77465 6.72738 4.74794 6.84333 4.80061 6.934L6.32128 9.54744C6.37328 9.63744 6.48607 9.67202 6.58007 9.62736L7.25325 9.30672L4.90673 13.7667C4.7734 14.0133 4.86661 14.3134 5.11327 14.44C5.35994 14.5734 5.65995 14.4801 5.78661 14.2335L7.99999 10.0334L10.2267 14.2335C10.3201 14.4068 10.4933 14.5001 10.6733 14.5001C10.7533 14.5001 10.8334 14.48 10.9067 14.44C11.1467 14.3134 11.2399 14.0067 11.1133 13.7667Z" fill="#3B3B3E"/>
</svg>
