<svg width="16" height="16" viewBox="0 0 16 16" fill="none" xmlns="http://www.w3.org/2000/svg">
<path d="M7.99967 1.33398C4.31767 1.33398 1.33301 4.31865 1.33301 8.00065C1.33301 11.6827 4.31767 14.6673 7.99967 14.6673C11.6817 14.6673 14.6663 11.6827 14.6663 8.00065C14.6663 4.31865 11.6817 1.33398 7.99967 1.33398ZM11.1164 7.96867C10.7024 10.104 7.99967 11.334 7.99967 11.334C7.99967 11.334 5.29698 10.104 4.88298 7.96867C4.62898 6.65867 5.1837 5.34065 6.5957 5.33398C7.64704 5.32865 7.99967 6.38863 7.99967 6.38863C7.99967 6.38863 8.35231 5.32865 9.40365 5.33398C10.8183 5.34065 11.3704 6.65867 11.1164 7.96867Z" fill="#3B3B3E"/>
</svg>
