<svg width="16" height="16" viewBox="0 0 16 16" fill="none" xmlns="http://www.w3.org/2000/svg">
<path d="M9.00963 12.4199C8.98163 12.8552 9.02966 13.2719 9.14033 13.6626C9.17299 13.7779 9.10566 13.8986 8.98766 13.9186C8.66832 13.9712 8.33764 13.9972 8.00231 13.9972C7.10897 13.9972 6.25628 13.7972 5.49628 13.4439C5.20295 13.3039 4.86299 13.3039 4.55032 13.4039L2.88365 13.9639C2.36032 14.1399 1.86097 13.6413 2.03697 13.1173L2.59703 11.4512C2.69703 11.1379 2.69699 10.7979 2.55699 10.5046C1.95766 9.21525 1.79973 7.65726 2.31106 6.09126C3.00173 3.97659 4.88107 2.39592 7.08173 2.06859C10.8024 1.51526 14.001 4.3839 14.001 7.99856C14.001 8.3339 13.9744 8.66458 13.9224 8.98392C13.9031 9.10258 13.7824 9.16992 13.6664 9.13658C13.2757 9.02592 12.859 8.97789 12.4237 9.00589C10.623 9.12322 9.1263 10.6199 9.00963 12.4199ZM14.3537 11.4239C14.1584 11.2286 13.8417 11.2286 13.6463 11.4239L11.7777 13.2926L11.0197 12.5352C10.8244 12.3399 10.5077 12.3399 10.3124 12.5352C10.117 12.7306 10.117 13.0472 10.3124 13.2426L11.4237 14.3539C11.521 14.4512 11.649 14.5006 11.777 14.5006C11.905 14.5006 12.0331 14.4519 12.1304 14.3539L14.3524 12.1319C14.5491 11.9359 14.549 11.6192 14.3537 11.4239Z" fill="#3B3B3E"/>
</svg>
