<svg width="16" height="16" viewBox="0 0 16 16" fill="none" xmlns="http://www.w3.org/2000/svg">
<path d="M7.99967 1.33301C4.31767 1.33301 1.33301 4.31767 1.33301 7.99967C1.33301 11.6817 4.31767 14.6663 7.99967 14.6663C11.6817 14.6663 14.6663 11.6817 14.6663 7.99967C14.6663 4.31767 11.6817 1.33301 7.99967 1.33301ZM10.3243 7.47301L6.13167 11.6663L7.30701 8.24234C7.34767 8.12367 7.25967 7.99967 7.13367 7.99967H5.96366C5.68566 7.99967 5.48903 7.72701 5.57703 7.46367L6.63969 4.75101C6.72302 4.50167 6.92234 4.33301 7.18567 4.33301H9.01033C9.303 4.33301 9.50036 4.63301 9.38436 4.90167L8.68502 6.52101C8.63302 6.64234 8.72168 6.77701 8.85368 6.77701H10.0363C10.399 6.77767 10.5803 7.21635 10.3243 7.47301Z" fill="#3B3B3E"/>
</svg>
