<svg width="16" height="16" viewBox="0 0 16 16" fill="none" xmlns="http://www.w3.org/2000/svg">
<path d="M13.8 6.5H2.20003C2.08937 6.5 2 6.58937 2 6.70003V12C2 13.3333 2.66667 14 4 14H12C13.3333 14 14 13.3333 14 12V6.70003C14 6.58937 13.9106 6.5 13.8 6.5ZM10.2547 9.72266L9.41471 10.5239C9.35338 10.5826 9.32534 10.6673 9.34001 10.75L9.53206 11.8473C9.57073 12.07 9.33339 12.2393 9.12939 12.1346L8.12126 11.616C8.04526 11.5767 7.95538 11.5767 7.88005 11.616L6.87272 12.134C6.66872 12.2393 6.43007 12.0687 6.4694 11.846L6.6613 10.75C6.67596 10.6673 6.64792 10.5826 6.58659 10.5239L5.74674 9.72266C5.59208 9.57532 5.67729 9.31792 5.89063 9.28792L7.05273 9.12272C7.1374 9.11072 7.21071 9.05873 7.24805 8.9834L7.7513 7.9847C7.8533 7.78203 8.148 7.78203 8.25 7.9847L8.75326 8.9834C8.79126 9.05873 8.86473 9.11072 8.94873 9.12272L10.1107 9.28792C10.324 9.31859 10.4087 9.57532 10.2547 9.72266ZM14 5V5.29997C14 5.41063 13.9106 5.5 13.8 5.5H2.20003C2.08937 5.5 2 5.41063 2 5.29997V5C2 3.66667 2.66667 3 4 3H4.83333V2C4.83333 1.72667 5.06 1.5 5.33333 1.5C5.60667 1.5 5.83333 1.72667 5.83333 2V3H10.1667V2C10.1667 1.72667 10.3933 1.5 10.6667 1.5C10.94 1.5 11.1667 1.72667 11.1667 2V3H12C13.3333 3 14 3.66667 14 5Z" fill="#3B3B3E"/>
</svg>
