<svg width="16" height="16" viewBox="0 0 16 16" fill="none" xmlns="http://www.w3.org/2000/svg">
<path d="M11.75 2H4.25C2.75 2 2 2.75 2 4.25V11.75C2 13.25 2.75 14 4.25 14H11.75C13.25 14 14 13.25 14 11.75V4.25C14 2.75 13.25 2 11.75 2ZM8.01335 11.6667C7.64535 11.6667 7.34326 11.368 7.34326 11C7.34326 10.632 7.63867 10.3333 8.00667 10.3333H8.01335C8.38201 10.3333 8.68001 10.632 8.68001 11C8.68001 11.368 8.38135 11.6667 8.01335 11.6667ZM9.06869 8.35205C8.58135 8.67872 8.49063 8.86069 8.47396 8.90869C8.40396 9.11736 8.20933 9.24935 8 9.24935C7.94733 9.24935 7.89398 9.24131 7.84131 9.22331C7.57931 9.13531 7.43871 8.85201 7.52604 8.59001C7.64671 8.23001 7.95939 7.89067 8.51139 7.52067C9.19206 7.06467 9.10468 6.56472 9.07601 6.40072C9.00068 5.96472 8.63332 5.59325 8.20199 5.51725C7.87332 5.45725 7.5534 5.54326 7.30273 5.75326C7.05073 5.96459 6.90592 6.27594 6.90592 6.60661C6.90592 6.88261 6.68192 7.10661 6.40592 7.10661C6.12992 7.10661 5.90592 6.88261 5.90592 6.60661C5.90592 5.97927 6.18066 5.3893 6.65999 4.9873C7.13466 4.58997 7.75931 4.42403 8.37598 4.53337C9.22064 4.6827 9.91338 5.38065 10.0607 6.22998C10.2074 7.07131 9.85469 7.82538 9.06869 8.35205Z" fill="#3B3B3E"/>
</svg>
