<svg width="16" height="16" viewBox="0 0 16 16" fill="none" xmlns="http://www.w3.org/2000/svg">
<path d="M14.5463 6.51967C13.9463 3.53301 11.0863 1.33301 7.93966 1.33301C4.29299 1.33301 1.33301 4.31967 1.33301 7.99967C1.33301 11.6797 4.35301 14.6663 7.99967 14.6663C9.24634 14.6663 9.37303 13.5997 8.18636 12.933C7.31303 12.4397 7.34633 10.9597 9.48633 10.9597H10.973C12.453 10.9597 15.2797 10.2197 14.5463 6.51967ZM4.67969 10.1663C4.21969 10.1663 3.84635 9.79301 3.84635 9.33301C3.84635 8.87301 4.21301 8.49967 4.67301 8.49967H4.67969C5.13969 8.49967 5.51302 8.87301 5.51302 9.33301C5.51302 9.79301 5.13969 10.1663 4.67969 10.1663ZM4.67969 7.49967C4.21969 7.49967 3.84635 7.12634 3.84635 6.66634C3.84635 6.20634 4.21301 5.83301 4.67301 5.83301H4.67969C5.13969 5.83301 5.51302 6.20634 5.51302 6.66634C5.51302 7.12634 5.13969 7.49967 4.67969 7.49967ZM6.67969 5.49967C6.21969 5.49967 5.84635 5.12634 5.84635 4.66634C5.84635 4.20634 6.21301 3.83301 6.67301 3.83301H6.67969C7.13969 3.83301 7.51302 4.20634 7.51302 4.66634C7.51302 5.12634 7.13969 5.49967 6.67969 5.49967ZM9.34635 5.49967C8.88635 5.49967 8.51302 5.12634 8.51302 4.66634C8.51302 4.20634 8.87968 3.83301 9.33968 3.83301H9.34635C9.80635 3.83301 10.1797 4.20634 10.1797 4.66634C10.1797 5.12634 9.80635 5.49967 9.34635 5.49967ZM11.3464 7.49967C10.8864 7.49967 10.513 7.12634 10.513 6.66634C10.513 6.20634 10.8797 5.83301 11.3397 5.83301H11.3464C11.8064 5.83301 12.1797 6.20634 12.1797 6.66634C12.1797 7.12634 11.8064 7.49967 11.3464 7.49967Z" fill="#3B3B3E"/>
</svg>
