<svg width="16" height="16" viewBox="0 0 16 16" fill="none" xmlns="http://www.w3.org/2000/svg">
<path d="M14 7.33333V14L12.6667 12.6667H7.33333C6.44667 12.6667 6 12.22 6 11.3333C6 11.3333 6 11.1467 6 10.986C6 10.844 6.10729 10.78 6.20329 10.78C6.26995 10.78 9.77995 10.78 9.77995 10.78C11.3799 10.78 12.3333 9.81997 12.3333 8.21997C12.3333 8.21997 12.3333 6.35537 12.3333 6.20003C12.3333 6.0447 12.4687 6 12.5321 6C12.5954 6 12.6667 6 12.6667 6C13.5533 6 14 6.44667 14 7.33333ZM2 11.3333V3.55534C2 2.51801 2.51867 2 3.55534 2H9.77734C10.814 2 11.3327 2.51867 11.3327 3.55534V8.22201C11.3327 9.25934 10.814 9.77734 9.77734 9.77734H3.55534L2 11.3333Z" fill="#3B3B3E"/>
</svg>
