<svg width="16" height="16" viewBox="0 0 16 16" fill="none" xmlns="http://www.w3.org/2000/svg">
<path d="M11.7533 2H4.25334C2.75334 2 2 2.74666 2 4.24666V11.7467C2 13.2467 2.75334 14 4.25334 14H11.7533C13.2533 14 14 13.2467 14 11.7467V4.24666C14 2.74666 13.2533 2 11.7533 2ZM10.6867 6.80001L7.57332 9.90666C7.47999 10.0067 7.35334 10.0533 7.22001 10.0533C7.09334 10.0533 6.96666 10.0067 6.86666 9.90666L5.31331 8.35335C5.11998 8.16002 5.11998 7.83998 5.31331 7.64665C5.50665 7.45331 5.82669 7.45331 6.02002 7.64665L7.22001 8.84668L9.97998 6.09334C10.1733 5.89334 10.4934 5.89334 10.6867 6.09334C10.88 6.28668 10.88 6.60001 10.6867 6.80001Z" fill="#3B3B3E"/>
</svg>
