<svg width="16" height="16" viewBox="0 0 16 16" fill="none" xmlns="http://www.w3.org/2000/svg">
<path d="M14 2.66667V6C14 6.368 13.702 6.66667 13.3333 6.66667C12.9647 6.66667 12.6667 6.368 12.6667 6V4.27604L7.80469 9.13802C7.67469 9.26802 7.504 9.33333 7.33333 9.33333C7.16267 9.33333 6.99198 9.26802 6.86198 9.13802C6.60131 8.87735 6.60131 8.45598 6.86198 8.19531L11.724 3.33333H10C9.63133 3.33333 9.33333 3.03467 9.33333 2.66667C9.33333 2.29867 9.63133 2 10 2H13.3333C13.42 2 13.5067 2.01794 13.5881 2.05127C13.7514 2.1186 13.8814 2.24861 13.9487 2.41195C13.9827 2.49328 14 2.58 14 2.66667ZM13.3333 8C12.9647 8 12.6667 8.29867 12.6667 8.66667V11.3333C12.6667 12.2927 12.2927 12.6667 11.3333 12.6667H4.66667C3.70733 12.6667 3.33333 12.2927 3.33333 11.3333V4.66667C3.33333 3.70733 3.70733 3.33333 4.66667 3.33333H7.33333C7.702 3.33333 8 3.03467 8 2.66667C8 2.29867 7.702 2 7.33333 2H4.66667C2.972 2 2 2.972 2 4.66667V11.3333C2 13.028 2.972 14 4.66667 14H11.3333C13.028 14 14 13.028 14 11.3333V8.66667C14 8.29867 13.702 8 13.3333 8Z" fill="#3B3B3E"/>
</svg>
