<svg width="16" height="16" viewBox="0 0 16 16" fill="none" xmlns="http://www.w3.org/2000/svg">
<path d="M7.33301 12.0006C5.49501 12.0006 3.99967 10.5052 3.99967 8.66725C3.99967 7.14191 5.02903 5.81584 6.50236 5.44117C6.85369 5.35184 7.22167 5.56594 7.31234 5.92327C7.40367 6.2806 7.18699 6.64331 6.83032 6.73398C5.94899 6.95798 5.33301 7.75323 5.33301 8.6679C5.33301 9.77056 6.23034 10.6679 7.33301 10.6679C8.24701 10.6679 9.04234 10.0519 9.26701 9.16985C9.35767 8.81252 9.72101 8.59658 10.0777 8.68792C10.4343 8.77858 10.6497 9.14196 10.559 9.49863C10.1837 10.972 8.85767 12.0006 7.33301 12.0006ZM13.333 8.66725C13.333 8.52191 13.325 8.3772 13.3083 8.23186C13.267 7.86653 12.9483 7.59994 12.571 7.64527C12.205 7.68661 11.943 8.01723 11.9843 8.38323C11.995 8.4779 11.9997 8.57256 11.9997 8.6679C11.9997 11.2412 9.90567 13.3346 7.33301 13.3346C4.76034 13.3346 2.66634 11.2412 2.66634 8.6679C2.66634 6.09456 4.76034 4.00123 7.33301 4.00123C7.42834 4.00123 7.52367 4.00653 7.61967 4.01653C7.98167 4.06186 8.31501 3.79466 8.35567 3.42799C8.39634 3.06199 8.13236 2.73265 7.76636 2.69199C7.62236 2.67599 7.47701 2.6679 7.33301 2.6679C4.02434 2.6679 1.33301 5.3599 1.33301 8.6679C1.33301 11.9759 4.02434 14.6679 7.33301 14.6679C10.6417 14.6679 13.333 11.9752 13.333 8.66725ZM14.3077 4.53997C14.2563 4.4153 14.1343 4.33391 13.9997 4.33391H11.6663V2.00058C11.6663 1.86591 11.585 1.74397 11.4603 1.69264C11.3363 1.64064 11.193 1.66924 11.097 1.76458L9.38969 3.47193C9.14169 3.71993 8.99902 4.06398 8.99902 4.41464V6.05787L6.861 8.19589C6.60034 8.45656 6.60034 8.87793 6.861 9.1386C6.991 9.2686 7.16169 9.33391 7.33236 9.33391C7.50302 9.33391 7.67367 9.2686 7.80367 9.1386L9.94169 7.00058H11.585C11.9357 7.00058 12.2797 6.85862 12.5277 6.60996L14.235 4.9026C14.3304 4.80727 14.359 4.66463 14.3077 4.53997Z" fill="#3B3B3E"/>
</svg>
