<svg width="16" height="16" viewBox="0 0 16 16" fill="none" xmlns="http://www.w3.org/2000/svg">
<path d="M13.3337 6.66634V10.6663C13.3337 11.4917 13.2524 12.7063 12.5464 13.715C12.4171 13.9003 12.2097 13.9997 11.9997 13.9997C11.8677 13.9997 11.735 13.9604 11.6183 13.8791C11.317 13.6684 11.2436 13.2524 11.4543 12.9504C11.8316 12.4097 12.0003 11.7057 12.0003 10.6657V6.66569C12.0003 5.82636 11.7463 5.02965 11.2656 4.36165C11.0503 4.06299 11.1183 3.64632 11.4176 3.43099C11.717 3.21566 12.133 3.28434 12.3483 3.58301C12.993 4.47967 13.3337 5.54567 13.3337 6.66634ZM8.00033 2.66634C8.14033 2.66634 8.28025 2.67098 8.42025 2.68831C8.79025 2.73231 9.11827 2.47228 9.16227 2.10628C9.20627 1.74028 8.9464 1.40909 8.5804 1.36442C8.38707 1.34109 8.19366 1.33301 8.00033 1.33301C5.05966 1.33301 2.66699 3.72567 2.66699 6.66634V10.6663C2.66699 11.0343 2.96499 11.333 3.33366 11.333C3.70233 11.333 4.00033 11.0343 4.00033 10.6663V6.66634C4.00033 4.46034 5.79433 2.66634 8.00033 2.66634ZM8.06429 3.99967C7.67362 3.98967 7.38969 4.28174 7.38102 4.64974C7.37236 5.01774 7.66292 5.32369 8.03092 5.33236C8.37026 5.34102 8.70303 5.48363 8.94303 5.72363C9.1957 5.97563 9.33431 6.31036 9.33431 6.66569V10.259C9.33431 11.6556 8.79304 12.6677 7.63037 13.4443C7.32437 13.649 7.24161 14.063 7.44694 14.369C7.57494 14.5616 7.78629 14.665 8.00163 14.665C8.12896 14.665 8.25758 14.6284 8.37158 14.5531C9.89492 13.5344 10.6676 12.0896 10.6676 10.259V6.66634C10.6676 5.95501 10.3902 5.28575 9.88558 4.78109C9.39758 4.29442 8.75096 4.01701 8.06429 3.99967ZM6.29704 5.45361C5.94904 5.33628 5.56961 5.52632 5.45361 5.87565C5.37361 6.11632 5.33301 6.38234 5.33301 6.66634V9.2863C5.33301 9.86963 5.13768 10.4457 4.78434 10.9071C4.55968 11.1991 4.61505 11.6176 4.90771 11.8416C5.02905 11.9343 5.17167 11.9797 5.31234 11.9797C5.513 11.9797 5.71097 11.8897 5.84163 11.7191C6.37363 11.0257 6.66634 10.1623 6.66634 9.2863V6.66634C6.66634 6.52767 6.68425 6.40037 6.71891 6.29704C6.83558 5.94704 6.64704 5.56961 6.29704 5.45361ZM8.00033 10.6663C8.36899 10.6663 8.66699 10.3677 8.66699 9.99967V7.33301C8.66699 6.96501 8.36899 6.66634 8.00033 6.66634C7.63166 6.66634 7.33366 6.96501 7.33366 7.33301V9.99967C7.33366 10.3677 7.63166 10.6663 8.00033 10.6663Z" fill="#3B3B3E"/>
</svg>
