<svg width="16" height="16" viewBox="0 0 16 16" fill="none" xmlns="http://www.w3.org/2000/svg">
<path d="M11.75 2H4.25C2.75 2 2 2.75 2 4.25V11.75C2 13.25 2.75 14 4.25 14H11.75C13.25 14 14 13.25 14 11.75V4.25C14 2.75 13.25 2 11.75 2ZM10.5 10C10.5 10.0653 10.4866 10.1301 10.4613 10.1914C10.4106 10.3134 10.3134 10.4106 10.1914 10.4613C10.1301 10.4866 10.0653 10.5 10 10.5H7.33333C7.05733 10.5 6.83333 10.276 6.83333 10C6.83333 9.724 7.05733 9.5 7.33333 9.5H8.79264L5.646 6.35335C5.45066 6.15802 5.45066 5.84133 5.646 5.646C5.84133 5.45066 6.15802 5.45066 6.35335 5.646L9.5 8.79264V7.33333C9.5 7.05733 9.724 6.83333 10 6.83333C10.276 6.83333 10.5 7.05733 10.5 7.33333V10Z" fill="#3B3B3E"/>
</svg>
