<svg width="16" height="16" viewBox="0 0 16 16" fill="none" xmlns="http://www.w3.org/2000/svg">
<path d="M8.60734 7.5H7.19735V6.05998H8.60734C8.99601 6.05998 9.31266 6.3827 9.31266 6.78003C9.31266 7.17736 8.99601 7.5 8.60734 7.5ZM8.95133 8.5H8.60665H7.19666V9.94002H8.95068C9.33935 9.94002 9.65601 9.6173 9.65601 9.21997C9.65601 8.82264 9.34067 8.5 8.95133 8.5ZM14 4.25V11.75C14 13.25 13.25 14 11.75 14H4.25C2.75 14 2 13.25 2 11.75V4.25C2 2.75 2.75 2 4.25 2H11.75C13.25 2 14 2.75 14 4.25ZM10.6567 9.21997C10.6567 8.6473 10.3753 8.14333 9.94735 7.83C10.1727 7.53866 10.312 7.17736 10.312 6.78003C10.312 5.9467 9.72133 5.25066 8.93933 5.09399V4.66667C8.93933 4.39067 8.71533 4.16667 8.43933 4.16667C8.16333 4.16667 7.93933 4.39067 7.93933 4.66667V5.05998H7.54533V4.66667C7.54533 4.39067 7.32133 4.16667 7.04533 4.16667C6.76933 4.16667 6.54533 4.39067 6.54533 4.66667V5.05998H5.84265C5.56665 5.05998 5.34265 5.28398 5.34265 5.55998C5.34265 5.83598 5.56665 6.05998 5.84265 6.05998H6.19666V9.94002H5.84265C5.56665 9.94002 5.34265 10.164 5.34265 10.44C5.34265 10.716 5.56665 10.94 5.84265 10.94H6.54533V11.3333C6.54533 11.6093 6.76933 11.8333 7.04533 11.8333C7.32133 11.8333 7.54533 11.6093 7.54533 11.3333V10.94H7.93933V11.3333C7.93933 11.6093 8.16333 11.8333 8.43933 11.8333C8.71533 11.8333 8.93933 11.6093 8.93933 11.3333V10.94H8.95068C9.89202 10.94 10.6567 10.1686 10.6567 9.21997Z" fill="#3B3B3E"/>
</svg>
