<svg width="16" height="16" viewBox="0 0 16 16" fill="none" xmlns="http://www.w3.org/2000/svg">
<path d="M12 4.66699H8.66667L6.66667 2.66699H4C2.66667 2.66699 2 3.33366 2 4.66699V11.3337C2 12.667 2.66667 13.3337 4 13.3337H12C13.3333 13.3337 14 12.667 14 11.3337V6.66699C14 5.33366 13.3333 4.66699 12 4.66699ZM10.2547 8.53233L9.41471 9.33366C9.35338 9.39233 9.32534 9.47699 9.34001 9.55965L9.53206 10.657C9.5714 10.8796 9.33339 11.049 9.12939 10.9443L8.12126 10.4257C8.04526 10.387 7.95538 10.387 7.88005 10.4257L6.87272 10.9437C6.66872 11.049 6.43007 10.8783 6.4694 10.6557L6.6613 9.55965C6.67596 9.47699 6.64792 9.39233 6.58659 9.33366L5.74674 8.53233C5.59208 8.385 5.67729 8.12766 5.89063 8.09766L7.05273 7.93233C7.1374 7.92033 7.21071 7.86832 7.24805 7.79299L7.7513 6.79433C7.8533 6.59167 8.148 6.59167 8.25 6.79433L8.75326 7.79299C8.79126 7.86832 8.86473 7.92033 8.94873 7.93233L10.1107 8.09766C10.324 8.12766 10.4087 8.385 10.2547 8.53233Z" fill="#3B3B3E"/>
</svg>
