<svg width="16" height="16" viewBox="0 0 16 16" fill="none" xmlns="http://www.w3.org/2000/svg">
<path d="M7.29334 5.33333L5.45333 3.49333C5.26 3.30666 5.14667 3.05334 5.12667 2.80001L3.28667 3.50667C2.51333 3.80667 2 4.54667 2 5.37333V9.46668C2 9.80668 2.16667 10.1133 2.44667 10.3L3.35333 10.9C3.48667 10.9867 3.66667 10.9 3.66667 10.7333V6C3.66667 5.81333 3.81333 5.66667 4 5.66667C4.18667 5.66667 4.33333 5.81333 4.33333 6V8.29334L7.29334 5.33333V5.33333ZM9.88001 2.6C9.86001 2.56666 9.82 2.5 9.72666 2.5H6.27334C6.18 2.5 6.14 2.56666 6.12 2.6C6.10666 2.64 6.08667 2.71333 6.16 2.78666L8 4.62667L9.84 2.78666C9.91333 2.71333 9.89334 2.64 9.88001 2.6ZM12.7133 3.50667L10.8733 2.80001C10.8533 3.05334 10.74 3.30666 10.5467 3.49333L4.33333 9.70667V9.96668C4.33333 9.96668 4.34 10.1667 4.53334 10.1667H11.4667C11.58 10.1667 11.6667 10.08 11.6667 9.96668V6C11.6667 5.81333 11.8133 5.66667 12 5.66667C12.1867 5.66667 12.3333 5.81333 12.3333 6V10.74C12.3333 10.9 12.5133 10.9933 12.6467 10.9067L13.5533 10.3C13.8333 10.1133 14 9.80001 14 9.46668V5.37333C14 4.54667 13.4867 3.80667 12.7133 3.50667ZM11.6667 11.3067C11.6667 11.3067 11.64 11.1667 11.4667 11.1667H9.20667L9.68667 11.6467C9.88 11.84 9.88 12.16 9.68667 12.3533C9.58667 12.4533 9.46 12.5 9.33333 12.5C9.20667 12.5 9.08 12.4533 8.98 12.3533L8 11.3733L7.02 12.3533C6.82667 12.5467 6.50667 12.5467 6.31333 12.3533C6.12 12.16 6.12 11.84 6.31333 11.6467L6.79334 11.1667H4.53334C4.33334 11.1667 4.33333 11.3067 4.33333 11.3067C4.32667 11.3333 4.32667 11.38 4.32 11.4133L3.73333 13.7533C3.70667 13.88 3.8 14 3.92667 14H12.0733C12.2 14 12.2933 13.88 12.2667 13.7533L11.68 11.4133C11.68 11.4133 11.6733 11.3333 11.6667 11.3067Z" fill="#3B3B3E"/>
</svg>
