<svg width="16" height="16" viewBox="0 0 16 16" fill="none" xmlns="http://www.w3.org/2000/svg">
<path d="M13.3332 12.6665C13.3332 12.7532 13.3159 12.8399 13.2819 12.9212C13.2146 13.0846 13.0846 13.2146 12.9212 13.2819C12.8399 13.3159 12.7532 13.3332 12.6665 13.3332H5.99986C5.6312 13.3332 5.3332 13.0345 5.3332 12.6665C5.3332 12.2985 5.6312 11.9999 5.99986 11.9999H11.0572L3.52851 4.47122C3.26784 4.21055 3.26784 3.78917 3.52851 3.52851C3.78917 3.26784 4.21055 3.26784 4.47122 3.52851L11.9999 11.0572V5.99986C11.9999 5.63186 12.2979 5.3332 12.6665 5.3332C13.0352 5.3332 13.3332 5.63186 13.3332 5.99986V12.6665V12.6665Z" fill="#3B3B3E"/>
</svg>
