<svg width="16" height="16" viewBox="0 0 16 16" fill="none" xmlns="http://www.w3.org/2000/svg">
<path d="M2.33301 4.66659H3.51099C3.82699 4.66659 4.13238 4.55451 4.37305 4.35051L6.83366 2.26588C7.55699 1.65321 8.66699 2.16733 8.66699 3.11532V12.8845C8.66699 13.8325 7.55699 14.3473 6.83366 13.734L4.37305 11.6493C4.13238 11.4453 3.82699 11.3333 3.51099 11.3333H2.33301C1.78101 11.3333 1.33301 10.8853 1.33301 10.3333V5.66725C1.33301 5.11458 1.78101 4.66659 2.33301 4.66659ZM14.0404 7.99993L15.0203 7.01995C15.2157 6.82461 15.2157 6.50792 15.0203 6.31259C14.825 6.11726 14.5083 6.11726 14.313 6.31259L13.333 7.29257L12.353 6.31259C12.1577 6.11726 11.841 6.11726 11.6457 6.31259C11.4503 6.50792 11.4503 6.82461 11.6457 7.01995L12.6257 7.99993L11.6457 8.97991C11.4503 9.17524 11.4503 9.49193 11.6457 9.68726C11.743 9.7846 11.871 9.83391 11.999 9.83391C12.127 9.83391 12.255 9.78526 12.3524 9.68726L13.3324 8.70728L14.3123 9.68726C14.4097 9.7846 14.5377 9.83391 14.6657 9.83391C14.7937 9.83391 14.9217 9.78526 15.019 9.68726C15.2144 9.49193 15.2144 9.17524 15.019 8.97991L14.0404 7.99993Z" fill="#3B3B3E"/>
</svg>
