<svg width="16" height="16" viewBox="0 0 16 16" fill="none" xmlns="http://www.w3.org/2000/svg">
<path d="M14 6.00029C14 6.73629 13.4027 7.33362 12.6667 7.33362H3.33333C2.59733 7.33362 2 6.73629 2 6.00029C2 5.26429 2.59733 4.66696 3.33333 4.66696H4.48535L6.2513 1.74162C6.39397 1.50562 6.70134 1.42896 6.93734 1.57229C7.17334 1.71562 7.25002 2.02229 7.10669 2.25896L5.65267 4.66696H10.3534L8.91602 2.25629C8.77468 2.01962 8.85201 1.71229 9.09001 1.57096C9.32667 1.43029 9.63398 1.50696 9.77531 1.74496L11.518 4.66763H12.6667C13.4027 4.66696 14 5.26429 14 6.00029ZM12.9173 8.22029L12.5133 12.2003C12.42 13.2203 11.9934 14.0003 10.5267 14.0003H5.48665C3.99332 14.0003 3.59999 13.2203 3.49333 12.2003L3.08268 8.22095C3.07068 8.10295 3.16332 8.00029 3.28198 8.00029H12.7187C12.8373 8.00029 12.9293 8.10296 12.9173 8.22029ZM9.35335 9.98029L8.35335 8.98029C8.30735 8.93429 8.25201 8.89762 8.19067 8.87229C8.06867 8.82162 7.93068 8.82162 7.80868 8.87229C7.74734 8.89762 7.692 8.93429 7.646 8.98029L6.646 9.98029C6.45066 10.1756 6.45066 10.4923 6.646 10.6876C6.84133 10.883 7.15802 10.883 7.35335 10.6876L7.5 10.541V12.0003C7.5 12.2763 7.724 12.5003 8 12.5003C8.276 12.5003 8.5 12.2763 8.5 12.0003V10.541L8.64665 10.6876C8.74398 10.785 8.872 10.8343 9 10.8343C9.128 10.8343 9.25602 10.7856 9.35335 10.6876C9.54869 10.4916 9.54869 10.1756 9.35335 9.98029Z" fill="#3B3B3E"/>
</svg>
