<svg width="16" height="16" viewBox="0 0 16 16" fill="none" xmlns="http://www.w3.org/2000/svg">
<path d="M12.3737 5.04102L9.6263 2.29362C9.43897 2.10629 9.18428 2.00098 8.91894 2.00098H5.33301C3.99967 2.00098 3.33301 2.66764 3.33301 4.00098V12.001C3.33301 13.3343 3.99967 14.001 5.33301 14.001H10.6663C11.9997 14.001 12.6663 13.3343 12.6663 12.001V5.74837C12.6663 5.48237 12.561 5.22835 12.3737 5.04102ZM7.49967 11.8003C7.49967 11.9136 7.41298 12.0003 7.29964 12.0003H6.33301C5.66634 12.0003 5.33301 11.667 5.33301 11.0003V7.66699C5.33301 7.00033 5.66634 6.66699 6.33301 6.66699H7.29964C7.41298 6.66699 7.49967 6.75369 7.49967 6.86702V11.8003ZM10.6663 11.0003C10.6663 11.667 10.333 12.0003 9.66634 12.0003C9.66634 12.0003 8.81637 12.0003 8.69971 12.0003C8.58304 12.0003 8.49967 11.9076 8.49967 11.8003C8.49967 11.693 8.49967 10.1337 8.49967 10.0337C8.49967 9.93369 8.57904 9.83366 8.69971 9.83366C8.79571 9.83366 9.98497 9.83366 10.4663 9.83366C10.5896 9.83366 10.6663 9.94036 10.6663 10.0337C10.6663 10.127 10.6663 11.0003 10.6663 11.0003ZM10.6663 8.63363C10.6663 8.72696 10.5896 8.83366 10.4663 8.83366C9.98497 8.83366 8.79571 8.83366 8.69971 8.83366C8.57904 8.83366 8.49967 8.73363 8.49967 8.63363C8.49967 8.53363 8.49967 6.97436 8.49967 6.86702C8.49967 6.75969 8.58304 6.66699 8.69971 6.66699C8.81637 6.66699 9.66634 6.66699 9.66634 6.66699C10.333 6.66699 10.6663 7.00033 10.6663 7.66699C10.6663 7.66699 10.6663 8.54029 10.6663 8.63363Z" fill="#3B3B3E"/>
</svg>
