<svg width="16" height="16" viewBox="0 0 16 16" fill="none" xmlns="http://www.w3.org/2000/svg">
<path d="M10.6663 6C10.4463 6 10.233 6.02002 10.0197 6.06002C9.79436 5.69402 9.51569 5.36398 9.19369 5.08065C8.43169 4.40865 7.42969 4 6.33236 4C3.93902 4 1.99902 5.94 1.99902 8.33333C1.99902 10.7267 3.93902 12.6667 6.33236 12.6667H10.6657C12.5057 12.6667 13.999 11.1733 13.999 9.33333C13.999 7.49333 12.5063 6 10.6663 6ZM9.33301 9.5H6.66634C6.39034 9.5 6.16634 9.276 6.16634 9C6.16634 8.724 6.39034 8.5 6.66634 8.5H9.33301C9.60901 8.5 9.83301 8.724 9.83301 9C9.83301 9.276 9.60901 9.5 9.33301 9.5Z" fill="#3B3B3E"/>
</svg>
