<svg width="16" height="16" viewBox="0 0 16 16" fill="none" xmlns="http://www.w3.org/2000/svg">
<path d="M8.00099 2C4.68766 2 2.00164 4.68602 2.00164 7.99935C2.00164 8.89268 2.20169 9.746 2.55503 10.5053C2.69503 10.7987 2.69507 11.1387 2.59507 11.452L2.03501 13.1187C1.86167 13.6387 2.36169 14.1387 2.88169 13.9653L4.54835 13.4053C4.86169 13.3053 5.20164 13.3054 5.49497 13.4454C6.25497 13.7987 7.10831 13.9987 8.00164 13.9987C11.315 13.9987 14.001 11.3127 14.001 7.99935C14.0003 4.68602 11.3143 2 8.00099 2ZM10.0204 9.31331C10.2157 9.50865 10.2157 9.82534 10.0204 10.0207C9.92303 10.118 9.79501 10.1673 9.66701 10.1673C9.53901 10.1673 9.41099 10.1187 9.31365 10.0207L8.00034 8.70732L6.68703 10.0207C6.58969 10.118 6.46167 10.1673 6.33367 10.1673C6.20567 10.1673 6.07765 10.1187 5.98032 10.0207C5.78499 9.82534 5.78499 9.50865 5.98032 9.31331L7.29363 8L5.98032 6.68669C5.78499 6.49135 5.78499 6.17466 5.98032 5.97933C6.17565 5.784 6.49234 5.784 6.68768 5.97933L8.00099 7.29268L9.3143 5.97933C9.50964 5.784 9.82633 5.784 10.0217 5.97933C10.217 6.17466 10.217 6.49135 10.0217 6.68669L8.70835 8L10.0204 9.31331Z" fill="#3B3B3E"/>
</svg>
