<svg width="16" height="16" viewBox="0 0 16 16" fill="none" xmlns="http://www.w3.org/2000/svg">
<path d="M8.86068 9.38967C8.99068 9.51967 8.99068 9.73098 8.86068 9.86098C8.79534 9.92632 8.71001 9.95833 8.62467 9.95833C8.53934 9.95833 8.45401 9.92565 8.38867 9.86098L7.76335 9.23633C7.70068 9.17366 7.66602 9.08899 7.66602 9.00033V8.12565C7.66602 7.94165 7.81535 7.79232 7.99935 7.79232C8.18335 7.79232 8.33268 7.94165 8.33268 8.12565V8.86233L8.86068 9.38967ZM14 6.66699V11.3337C14 12.667 13.3333 13.3337 12 13.3337H4C2.66667 13.3337 2 12.667 2 11.3337V4.66699C2 3.33366 2.66667 2.66699 4 2.66699H6.66667L8.66667 4.66699H12C13.3333 4.66699 14 5.33366 14 6.66699ZM10.3333 9.00033C10.3333 7.71166 9.28867 6.66699 8 6.66699C6.71133 6.66699 5.66667 7.71166 5.66667 9.00033C5.66667 10.289 6.71133 11.3337 8 11.3337C9.28867 11.3337 10.3333 10.289 10.3333 9.00033Z" fill="#3B3B3E"/>
</svg>
