<svg width="16" height="16" viewBox="0 0 16 16" fill="none" xmlns="http://www.w3.org/2000/svg">
<path d="M7.99967 1.33398C4.31767 1.33398 1.33301 4.31865 1.33301 8.00065C1.33301 11.6827 4.31767 14.6673 7.99967 14.6673C11.6817 14.6673 14.6663 11.6827 14.6663 8.00065C14.6663 4.31865 11.6817 1.33398 7.99967 1.33398ZM8.45833 6.75065C8.73433 6.75065 8.95833 6.97465 8.95833 7.25065C8.95833 7.52665 8.73433 7.75065 8.45833 7.75065H6.35834C6.34967 7.83398 6.33301 7.91532 6.33301 8.00065C6.33301 8.08598 6.34967 8.16732 6.35834 8.25065H8.45833C8.73433 8.25065 8.95833 8.47465 8.95833 8.75065C8.95833 9.02665 8.73433 9.25065 8.45833 9.25065H6.68101C7.11501 9.99398 7.91234 10.5007 8.83301 10.5007C9.15634 10.5007 9.47167 10.44 9.77167 10.3193C10.0297 10.2153 10.319 10.3407 10.4223 10.5967C10.5257 10.8527 10.401 11.144 10.145 11.2473C9.72633 11.4153 9.28501 11.5007 8.83368 11.5007C7.34568 11.5007 6.07967 10.5633 5.57434 9.25065H4.70833C4.43233 9.25065 4.20833 9.02665 4.20833 8.75065C4.20833 8.47465 4.43233 8.25065 4.70833 8.25065H5.35834C5.35234 8.16665 5.33301 8.08598 5.33301 8.00065C5.33301 7.91532 5.35234 7.83465 5.35834 7.75065H4.70833C4.43233 7.75065 4.20833 7.52665 4.20833 7.25065C4.20833 6.97465 4.43233 6.75065 4.70833 6.75065H5.57434C6.07967 5.43798 7.34501 4.50065 8.83368 4.50065C9.29101 4.50065 9.73368 4.58801 10.1497 4.76001C10.405 4.86534 10.5263 5.158 10.421 5.41333C10.3157 5.668 10.0243 5.78998 9.76768 5.68465C9.47301 5.56265 9.15901 5.5013 8.83368 5.5013C7.91235 5.5013 7.11501 6.00797 6.68168 6.7513H8.45833V6.75065Z" fill="#3B3B3E"/>
</svg>
