<svg width="16" height="16" viewBox="0 0 16 16" fill="none" xmlns="http://www.w3.org/2000/svg">
<path d="M12.2664 3.05331L11.3604 3.73264C10.9624 4.0313 10.405 3.99132 10.053 3.63998L8.70703 2.29398C8.31636 1.90331 7.68297 1.90331 7.29297 2.29398L5.94702 3.63998C5.59502 3.99198 5.03765 4.0313 4.63965 3.73264L3.73364 3.05331C3.29431 2.72398 2.66699 3.03731 2.66699 3.58664V12.4153C2.66699 12.9646 3.29431 13.278 3.73364 12.9486L4.63965 12.2693C5.03765 11.9707 5.59502 12.0106 5.94702 12.362L7.29297 13.708C7.68364 14.0986 8.31703 14.0986 8.70703 13.708L10.053 12.362C10.405 12.01 10.9624 11.9707 11.3604 12.2693L12.2664 12.9486C12.7057 13.278 13.333 12.9646 13.333 12.4153V3.58664C13.333 3.03731 12.7057 2.72331 12.2664 3.05331ZM6.33968 5.66731H6.34635C6.71502 5.66731 7.01302 5.96597 7.01302 6.33397C7.01302 6.70197 6.71502 7.00064 6.34635 7.00064C5.97835 7.00064 5.67635 6.70197 5.67635 6.33397C5.67635 5.96597 5.97168 5.66731 6.33968 5.66731ZM6.68636 10.0206C6.58903 10.118 6.46101 10.1673 6.33301 10.1673C6.20501 10.1673 6.07699 10.1186 5.97966 10.0206C5.78432 9.82531 5.78432 9.50864 5.97966 9.3133L9.31299 5.97997C9.50832 5.78464 9.82501 5.78464 10.0203 5.97997C10.2157 6.1753 10.2157 6.49197 10.0203 6.68731L6.68636 10.0206ZM9.67969 10.334C9.31169 10.334 9.00968 10.0353 9.00968 9.66731C9.00968 9.29931 9.30501 9.00064 9.67301 9.00064H9.67969C10.0484 9.00064 10.3464 9.29931 10.3464 9.66731C10.3464 10.0353 10.0477 10.334 9.67969 10.334Z" fill="#3B3B3E"/>
</svg>
