<svg width="16" height="16" viewBox="0 0 16 16" fill="none" xmlns="http://www.w3.org/2000/svg">
<path d="M14.6663 7.88061C14.6663 8.25395 14.6197 8.6273 14.513 8.98063H12.4463C10.533 8.98063 8.97965 10.534 8.97965 12.4473V14.514C8.62632 14.6207 8.25305 14.6673 7.87972 14.6673C4.25972 14.6673 1.33301 11.7407 1.33301 8.12069V7.88061C1.33301 4.26062 4.25972 1.33398 7.87972 1.33398H8.11963C11.7396 1.33398 14.6663 4.26062 14.6663 7.88061ZM9.97965 12.4473V14.114C10.3263 13.9273 10.6463 13.6873 10.9329 13.4006L13.3997 10.934C13.6864 10.6473 13.9263 10.3273 14.113 9.98063H12.4463C11.0863 9.98063 9.97965 11.0873 9.97965 12.4473Z" fill="#3B3B3E"/>
</svg>
