<svg width="16" height="16" viewBox="0 0 16 16" fill="none" xmlns="http://www.w3.org/2000/svg">
<path d="M12.3337 1.5H6.50033V10.5H12.3337C12.427 10.5 12.5269 10.4866 12.6136 10.4733C12.6469 10.4666 12.6737 10.4534 12.7004 10.4467C12.747 10.44 12.7937 10.4267 12.8337 10.4133V13C12.8337 13.2733 12.607 13.5 12.3337 13.5H4.66699C3.31366 13.5 3.16699 12.4533 3.16699 12C3.16699 11.5467 3.31366 10.5 4.66699 10.5H5.50033V1.5H4.66699C3.05366 1.5 2.16699 2.38667 2.16699 4V12C2.16699 13.4933 3.17366 14.5 4.66699 14.5H12.3337C13.1603 14.5 13.8337 13.8267 13.8337 13V3C13.8337 2.17333 13.1603 1.5 12.3337 1.5Z" fill="#3B3B3E"/>
</svg>
