<svg width="16" height="16" viewBox="0 0 16 16" fill="none" xmlns="http://www.w3.org/2000/svg">
<path d="M11.7096 9.697C11.5396 9.697 11.3697 9.63234 11.2397 9.50301C10.9784 9.24368 10.977 8.82101 11.237 8.56034L12.549 7.24168C13.0557 6.74035 13.333 6.069 13.333 5.349C13.333 4.629 13.055 3.955 12.5503 3.45034C11.5063 2.405 9.80495 2.40634 8.75895 3.45034L7.4484 4.76768C7.18907 5.02835 6.7677 5.03034 6.5057 4.77034C6.24436 4.51101 6.24293 4.08834 6.50293 3.82768L7.81494 2.50901C9.38094 0.943013 11.9283 0.943004 13.493 2.50767C14.2497 3.26367 14.6663 4.273 14.6663 5.349C14.6663 6.42833 14.2491 7.43567 13.4904 8.18634L12.1823 9.50167C12.0523 9.63167 11.881 9.697 11.7096 9.697ZM8.18229 13.493L9.50163 12.181C9.76296 11.921 9.76439 11.499 9.50439 11.2383C9.24439 10.9777 8.82302 10.9757 8.56169 11.2357L7.2417 12.549C6.1957 13.5943 4.49569 13.593 3.45036 12.549C2.40569 11.5037 2.40572 9.80368 3.44906 8.75968L4.76839 7.44767C5.02973 7.18767 5.031 6.76567 4.771 6.505C4.511 6.24434 4.08962 6.24234 3.82829 6.50234L2.5083 7.81567C0.942967 9.38034 0.942967 11.9263 2.5083 13.4917C3.29163 14.2743 4.31966 14.665 5.34766 14.665C6.37432 14.6657 7.40162 14.275 8.18229 13.493ZM14.6663 11.333C14.6663 10.965 14.3683 10.6663 13.9997 10.6663H12.6663C12.2977 10.6663 11.9997 10.965 11.9997 11.333C11.9997 11.701 12.2977 11.9997 12.6663 11.9997H13.9997C14.3683 11.9997 14.6663 11.701 14.6663 11.333ZM11.9997 13.9997V12.6663C11.9997 12.2983 11.7017 11.9997 11.333 11.9997C10.9643 11.9997 10.6663 12.2983 10.6663 12.6663V13.9997C10.6663 14.3677 10.9643 14.6663 11.333 14.6663C11.7017 14.6663 11.9997 14.3677 11.9997 13.9997ZM3.99967 4.66634C3.99967 4.29834 3.70167 3.99967 3.33301 3.99967H1.99967C1.63101 3.99967 1.33301 4.29834 1.33301 4.66634C1.33301 5.03434 1.63101 5.33301 1.99967 5.33301H3.33301C3.70167 5.33301 3.99967 5.03434 3.99967 4.66634ZM5.33301 3.33301V1.99967C5.33301 1.63167 5.03501 1.33301 4.66634 1.33301C4.29767 1.33301 3.99967 1.63167 3.99967 1.99967V3.33301C3.99967 3.70101 4.29767 3.99967 4.66634 3.99967C5.03501 3.99967 5.33301 3.70101 5.33301 3.33301Z" fill="#3B3B3E"/>
</svg>
