<svg width="16" height="16" viewBox="0 0 16 16" fill="none" xmlns="http://www.w3.org/2000/svg">
<path d="M11.0597 3.00798L10.6177 3.75C10.5697 3.83067 10.4823 3.87996 10.3883 3.87996H5.61165C5.51765 3.87996 5.43032 3.83067 5.38232 3.75L4.93966 3.00667C4.67566 2.56267 4.99499 2 5.51166 2H10.4863C11.0043 2.00067 11.3243 2.56398 11.0597 3.00798ZM13.3337 10.0007C13.3337 11.334 12.667 14.0007 8.00033 14.0007C3.33366 14.0007 2.66699 11.334 2.66699 10.0007C2.66699 7.78665 4.04765 6.02997 5.13698 4.95597C5.18765 4.90597 5.25365 4.88062 5.32432 4.88062H10.6763C10.747 4.88062 10.8137 4.90597 10.8637 4.95597C11.953 6.02997 13.3337 7.78665 13.3337 10.0007ZM9.66699 10.4093C9.66699 9.72334 9.20699 9.12597 8.54565 8.95597L7.70233 8.74333C7.59567 8.71533 7.505 8.65535 7.43567 8.56535C7.36967 8.48068 7.33366 8.37129 7.33366 8.25863C7.33366 7.98329 7.55033 7.76001 7.817 7.76001H8.18433C8.43033 7.76001 8.63633 7.95069 8.66433 8.20402C8.69433 8.47869 8.93766 8.67466 9.21633 8.646C9.491 8.616 9.68833 8.36799 9.65833 8.09399C9.58633 7.44266 9.11033 6.93195 8.50033 6.79728V6.66732C8.50033 6.39132 8.27633 6.16732 8.00033 6.16732C7.72433 6.16732 7.50033 6.39132 7.50033 6.66732V6.79598C6.83433 6.94331 6.33366 7.54196 6.33366 8.25863C6.33366 8.59263 6.44499 8.91929 6.64299 9.17529C6.84365 9.43863 7.131 9.62866 7.455 9.712L8.29832 9.92464C8.51565 9.98064 8.66699 10.18 8.66699 10.4093C8.66699 10.5427 8.61567 10.6687 8.52167 10.764C8.43033 10.8573 8.31032 10.908 8.18365 10.908H7.81633C7.57033 10.908 7.36432 10.7173 7.33632 10.4639C7.30566 10.1893 7.06232 9.99197 6.78432 10.022C6.50966 10.052 6.31233 10.3 6.34233 10.574C6.41433 11.2253 6.89033 11.736 7.50033 11.8707V12.0007C7.50033 12.2767 7.72433 12.5007 8.00033 12.5007C8.27633 12.5007 8.50033 12.2767 8.50033 12.0007V11.872C8.77633 11.8113 9.03033 11.6733 9.23433 11.466C9.51367 11.1827 9.66699 10.8073 9.66699 10.4093Z" fill="#3B3B3E"/>
</svg>
