<svg width="16" height="16" viewBox="0 0 16 16" fill="none" xmlns="http://www.w3.org/2000/svg">
<path d="M5.33366 3.66667V3C5.33366 2.33333 5.66699 2 6.33366 2H9.66699C10.3337 2 10.667 2.33333 10.667 3V3.66667C10.667 4.33333 10.3337 4.66667 9.66699 4.66667H6.33366C5.66699 4.66667 5.33366 4.33333 5.33366 3.66667ZM13.3337 5.33333V12C13.3337 13.3333 12.667 14 11.3337 14H4.66699C3.33366 14 2.66699 13.3333 2.66699 12V5.33333C2.66699 4.172 3.16825 3.518 4.17692 3.37134C4.25759 3.35934 4.33366 3.42599 4.33366 3.50732V3.66602C4.33366 4.87935 5.12033 5.66602 6.33366 5.66602H9.66699C10.8803 5.66602 11.667 4.87935 11.667 3.66602V3.50732C11.667 3.42599 11.7437 3.35934 11.8237 3.37134C12.8324 3.518 13.3337 4.172 13.3337 5.33333ZM8.70768 9L9.68766 8.02002C9.883 7.82469 9.883 7.508 9.68766 7.31266C9.49233 7.11733 9.17564 7.11733 8.98031 7.31266L8.00033 8.29268L7.02035 7.31266C6.82501 7.11733 6.50832 7.11733 6.31299 7.31266C6.11766 7.508 6.11766 7.82469 6.31299 8.02002L7.29297 9L6.31299 9.97998C6.11766 10.1753 6.11766 10.492 6.31299 10.6873C6.41032 10.7847 6.53834 10.834 6.66634 10.834C6.79434 10.834 6.92236 10.7853 7.01969 10.6873L7.99967 9.70732L8.97966 10.6873C9.07699 10.7847 9.20501 10.834 9.33301 10.834C9.46101 10.834 9.58903 10.7853 9.68636 10.6873C9.88169 10.492 9.88169 10.1753 9.68636 9.97998L8.70768 9Z" fill="#3B3B3E"/>
</svg>
