<svg width="16" height="16" viewBox="0 0 16 16" fill="none" xmlns="http://www.w3.org/2000/svg">
<path d="M13.3337 6.92064C12.3003 6.92064 11.127 6.60064 10.287 6.00064V10.1873C10.287 12.294 8.58036 14.0006 6.47369 13.994C4.36703 13.994 2.66034 12.2873 2.66701 10.1806C2.66701 8.07398 4.37366 6.36731 6.48033 6.37397C6.65366 6.37397 6.82701 6.38731 7.00035 6.40731V8.51398C6.08035 8.22731 5.09369 8.73398 4.80703 9.66064C4.52036 10.5873 5.02701 11.5673 5.95367 11.854C6.87367 12.1406 7.86033 11.634 8.14699 10.7073C8.20033 10.5406 8.22703 10.3606 8.22703 10.1806V1.9873H10.287C10.287 2.16064 10.3003 2.33397 10.3337 2.5073C10.4803 3.28064 10.9337 3.96064 11.6004 4.38731C12.067 4.69398 12.7804 4.86064 13.3404 4.86064V6.90731L13.3337 6.92064Z" fill="#3B3B3E"/>
</svg>
