<svg width="16" height="16" viewBox="0 0 16 16" fill="none" xmlns="http://www.w3.org/2000/svg">
<path d="M13.9596 11.307L12.3949 4.23503C12.1923 3.31903 11.5229 2.66699 10.5849 2.66699H8.70027C8.5896 2.66699 8.50028 2.75636 8.50028 2.86702V4.66699C8.50028 4.94033 8.27361 5.16699 8.00028 5.16699C7.72694 5.16699 7.50028 4.94033 7.50028 4.66699V2.86702C7.50028 2.75636 7.41094 2.66699 7.30027 2.66699H5.4156C4.4776 2.66699 3.80827 3.31903 3.6056 4.23503L2.04094 11.307C1.81094 12.3476 2.60294 13.3337 3.66828 13.3337H7.30094C7.4116 13.3337 7.50094 13.2443 7.50094 13.1336V11.3337C7.50094 11.0603 7.7276 10.8337 8.00094 10.8337C8.27427 10.8337 8.50094 11.0603 8.50094 11.3337V13.1336C8.50094 13.2443 8.59027 13.3337 8.70094 13.3337H12.3336C13.3976 13.3337 14.1896 12.3476 13.9596 11.307ZM8.49961 9.00033C8.49961 9.27633 8.27561 9.50033 7.99961 9.50033C7.72361 9.50033 7.49961 9.27633 7.49961 9.00033V7.00033C7.49961 6.72433 7.72361 6.50033 7.99961 6.50033C8.27561 6.50033 8.49961 6.72433 8.49961 7.00033V9.00033Z" fill="#3B3B3E"/>
</svg>
