<svg width="16" height="16" viewBox="0 0 16 16" fill="none" xmlns="http://www.w3.org/2000/svg">
<path d="M7.99967 15.1663C4.04767 15.1663 0.833008 11.9517 0.833008 7.99967C0.833008 4.04767 4.04767 0.833008 7.99967 0.833008C11.9517 0.833008 15.1663 4.04767 15.1663 7.99967C15.1663 11.9517 11.9517 15.1663 7.99967 15.1663ZM7.99967 1.83301C4.59901 1.83301 1.83301 4.59901 1.83301 7.99967C1.83301 11.4003 4.59901 14.1663 7.99967 14.1663C11.4003 14.1663 14.1663 11.4003 14.1663 7.99967C14.1663 4.59901 11.4003 1.83301 7.99967 1.83301ZM11.9997 7.99967C11.9997 5.79034 10.209 3.99967 7.99967 3.99967C5.79034 3.99967 3.99967 5.79034 3.99967 7.99967C3.99967 10.209 5.79034 11.9997 7.99967 11.9997C10.209 11.9997 11.9997 10.209 11.9997 7.99967Z" fill="#3B3B3E"/>
</svg>
