<svg width="16" height="16" viewBox="0 0 16 16" fill="none" xmlns="http://www.w3.org/2000/svg">
<path d="M14.6663 1.99967V5.99967C14.6663 6.36767 14.3683 6.66634 13.9997 6.66634C13.631 6.66634 13.333 6.36767 13.333 5.99967V3.60905L9.80436 7.13769C9.67436 7.26769 9.50367 7.33301 9.33301 7.33301C9.16234 7.33301 8.99165 7.26769 8.86165 7.13769C8.60099 6.87703 8.60099 6.45565 8.86165 6.19499L12.3903 2.66634H9.99967C9.63101 2.66634 9.33301 2.36767 9.33301 1.99967C9.33301 1.63167 9.63101 1.33301 9.99967 1.33301H13.9997C14.0863 1.33301 14.1731 1.35094 14.2544 1.38428C14.4177 1.45161 14.5477 1.58162 14.6151 1.74495C14.6491 1.82629 14.6663 1.91301 14.6663 1.99967ZM6.19499 8.86165L2.66634 12.3903V9.99967C2.66634 9.63167 2.36834 9.33301 1.99967 9.33301C1.63101 9.33301 1.33301 9.63167 1.33301 9.99967V13.9997C1.33301 14.0863 1.35094 14.1731 1.38428 14.2544C1.45161 14.4177 1.58162 14.5471 1.74495 14.6151C1.82629 14.6491 1.91301 14.6663 1.99967 14.6663H5.99967C6.36834 14.6663 6.66634 14.3677 6.66634 13.9997C6.66634 13.6317 6.36834 13.333 5.99967 13.333H3.60905L7.13769 9.80436C7.39836 9.54369 7.39836 9.12232 7.13769 8.86165C6.87703 8.60099 6.45565 8.60099 6.19499 8.86165Z" fill="#3B3B3E"/>
</svg>
