<svg width="16" height="16" viewBox="0 0 16 16" fill="none" xmlns="http://www.w3.org/2000/svg">
<path d="M11.7806 2.33301H11.4627V1.33301C11.4627 1.05701 11.2387 0.833008 10.9627 0.833008C10.6867 0.833008 10.4627 1.05701 10.4627 1.33301V2.33301H8.5V1.33301C8.5 1.05701 8.276 0.833008 8 0.833008C7.724 0.833008 7.5 1.05701 7.5 1.33301V2.33301H5.53727V1.33301C5.53727 1.05701 5.31327 0.833008 5.03727 0.833008C4.76127 0.833008 4.53727 1.05701 4.53727 1.33301V2.33301H4.2194C2.74007 2.33301 2 3.07233 2 4.55033V12.449C2 13.927 2.7394 14.6663 4.2194 14.6663H11.7814C13.2607 14.6663 14.0007 13.927 14.0007 12.449V4.55033C14 3.07233 13.2606 2.33301 11.7806 2.33301ZM8.66667 10.4997H5.33333C5.05733 10.4997 4.83333 10.2757 4.83333 9.99967C4.83333 9.72367 5.05733 9.49967 5.33333 9.49967H8.66667C8.94267 9.49967 9.16667 9.72367 9.16667 9.99967C9.16667 10.2757 8.94267 10.4997 8.66667 10.4997ZM10.6667 7.83301H5.33333C5.05733 7.83301 4.83333 7.60901 4.83333 7.33301C4.83333 7.05701 5.05733 6.83301 5.33333 6.83301H10.6667C10.9427 6.83301 11.1667 7.05701 11.1667 7.33301C11.1667 7.60901 10.9427 7.83301 10.6667 7.83301Z" fill="#3B3B3E"/>
</svg>
