<svg width="16" height="16" viewBox="0 0 16 16" fill="none" xmlns="http://www.w3.org/2000/svg">
<path fill-rule="evenodd" clip-rule="evenodd" d="M5.16634 2C5.16634 1.724 5.39034 1.5 5.66634 1.5H9.66634C9.94234 1.5 10.1663 1.724 10.1663 2C10.1663 2.276 9.94234 2.5 9.66634 2.5H5.66634C5.39034 2.5 5.16634 2.276 5.16634 2ZM13.1663 8C13.1663 8.27333 12.9397 8.5 12.6663 8.5H11.9997C11.999 8.5 11.9876 8.5 11.9683 8.5C11.7203 10.6573 9.89034 12.3333 7.66634 12.3333C5.27301 12.3333 3.33301 10.3933 3.33301 8C3.33301 5.60667 5.27301 3.66667 7.66634 3.66667C9.89034 3.66667 11.7203 5.34267 11.9683 7.5H12.6663C12.9397 7.5 13.1663 7.72667 13.1663 8ZM9.29964 8.59994L8.16634 7.75V5.66667C8.16634 5.39067 7.94234 5.16667 7.66634 5.16667C7.39034 5.16667 7.16634 5.39067 7.16634 5.66667V8C7.16634 8.15733 7.24037 8.3054 7.36637 8.40007L8.69971 9.40007C8.78971 9.4674 8.89502 9.5 8.99902 9.5C9.15169 9.5 9.30174 9.43063 9.39974 9.29997C9.56574 9.0793 9.52031 8.76527 9.29964 8.59994ZM9.66634 13.5H5.66634C5.39034 13.5 5.16634 13.724 5.16634 14C5.16634 14.276 5.39034 14.5 5.66634 14.5H9.66634C9.94234 14.5 10.1663 14.276 10.1663 14C10.1663 13.724 9.94234 13.5 9.66634 13.5Z" fill="#3B3B3E"/>
</svg>
