<svg width="16" height="16" viewBox="0 0 16 16" fill="none" xmlns="http://www.w3.org/2000/svg">
<path d="M11.7501 9.44982L13.5121 10.5005C13.8761 10.7178 14.0641 11.1405 13.9807 11.5565C13.6401 13.2625 11.9268 14.3558 10.2488 13.8952C6.28947 12.8085 3.19672 9.72515 2.10606 5.75715C1.64472 4.07849 2.73679 2.36381 4.44346 2.02247L4.45469 2.02048C4.87136 1.93715 5.29613 2.12581 5.5128 2.49181L6.55479 4.25115C6.92545 4.87649 6.74135 5.68314 6.13535 6.08581L5.0281 6.82248C5.80943 8.69381 7.30272 10.1932 9.16872 10.9732L9.91205 9.86315C10.318 9.25848 11.1248 9.07715 11.7501 9.44982ZM13.7947 2.47582C13.744 2.35382 13.6467 2.25648 13.524 2.20515C13.4627 2.17982 13.3981 2.16648 13.3328 2.16648H11.1108C10.8348 2.16648 10.6108 2.39048 10.6108 2.66648C10.6108 2.94248 10.8348 3.16648 11.1108 3.16648H12.1254L9.64545 5.64648C9.45011 5.84181 9.45011 6.15848 9.64545 6.35381C9.74278 6.45115 9.8708 6.50048 9.9988 6.50048C10.1268 6.50048 10.2548 6.45181 10.3522 6.35381L12.8321 3.87381V4.88915C12.8321 5.16515 13.0561 5.38915 13.3321 5.38915C13.6081 5.38915 13.8321 5.16515 13.8321 4.88915V2.66715C13.8335 2.60181 13.82 2.53716 13.7947 2.47582Z" fill="#3B3B3E"/>
</svg>
