<svg width="16" height="16" viewBox="0 0 16 16" fill="none" xmlns="http://www.w3.org/2000/svg">
<path d="M14.6663 2.99967V5.33301C14.6663 5.70101 14.3683 5.99967 13.9997 5.99967C13.631 5.99967 13.333 5.70101 13.333 5.33301V2.99967C13.333 2.70034 13.2983 2.66634 12.9997 2.66634H10.6663C10.2977 2.66634 9.99967 2.36767 9.99967 1.99967C9.99967 1.63167 10.2977 1.33301 10.6663 1.33301H12.9997C14.0277 1.33301 14.6663 1.97167 14.6663 2.99967ZM5.33301 1.33301H2.99967C1.97167 1.33301 1.33301 1.97167 1.33301 2.99967V5.33301C1.33301 5.70101 1.63101 5.99967 1.99967 5.99967C2.36834 5.99967 2.66634 5.70101 2.66634 5.33301V2.99967C2.66634 2.70034 2.70101 2.66634 2.99967 2.66634H5.33301C5.70167 2.66634 5.99967 2.36767 5.99967 1.99967C5.99967 1.63167 5.70167 1.33301 5.33301 1.33301ZM5.33301 13.333H2.99967C2.70101 13.333 2.66634 13.299 2.66634 12.9997V10.6663C2.66634 10.2983 2.36834 9.99967 1.99967 9.99967C1.63101 9.99967 1.33301 10.2983 1.33301 10.6663V12.9997C1.33301 14.0277 1.97167 14.6663 2.99967 14.6663H5.33301C5.70167 14.6663 5.99967 14.3677 5.99967 13.9997C5.99967 13.6317 5.70167 13.333 5.33301 13.333ZM13.9997 9.99967C13.631 9.99967 13.333 10.2983 13.333 10.6663V12.9997C13.333 13.299 13.2983 13.333 12.9997 13.333H10.6663C10.2977 13.333 9.99967 13.6317 9.99967 13.9997C9.99967 14.3677 10.2977 14.6663 10.6663 14.6663H12.9997C14.0277 14.6663 14.6663 14.0277 14.6663 12.9997V10.6663C14.6663 10.2983 14.3683 9.99967 13.9997 9.99967Z" fill="#3B3B3E"/>
</svg>
