<svg width="16" height="16" viewBox="0 0 16 16" fill="none" xmlns="http://www.w3.org/2000/svg">
<path d="M7.99967 1.33301C4.31967 1.33301 1.33301 4.31967 1.33301 7.99967C1.33301 11.6797 4.31967 14.6663 7.99967 14.6663C11.6797 14.6663 14.6663 11.6797 14.6663 7.99967C14.6663 4.31967 11.6797 1.33301 7.99967 1.33301ZM4.16634 6.66634C4.16634 6.39301 4.39301 6.16634 4.66634 6.16634H6.33301C6.81301 6.16634 7.16634 6.65967 7.16634 7.33301C7.16634 8.00634 6.81301 8.49967 6.33301 8.49967C5.85301 8.49967 5.49967 8.00634 5.49967 7.33301C5.49967 7.27301 5.49969 7.21967 5.51302 7.16634H4.66634C4.39301 7.16634 4.16634 6.93967 4.16634 6.66634ZM11.013 10.3463L10.633 10.7263C10.353 11.0063 9.973 11.1663 9.573 11.1663H5.98633C5.71299 11.1663 5.48633 10.9397 5.48633 10.6663C5.48633 10.393 5.71299 10.1663 5.98633 10.1663H9.573C9.70633 10.1663 9.83302 10.113 9.92635 10.0197L10.3064 9.63968C10.4997 9.44635 10.8197 9.44635 11.013 9.63968C11.2064 9.83301 11.2064 10.153 11.013 10.3463V10.3463ZM10.9997 8.49967C10.5197 8.49967 10.1663 8.00634 10.1663 7.33301C10.1663 7.27301 10.1664 7.21967 10.1797 7.16634H9.33301C9.05967 7.16634 8.83301 6.93967 8.83301 6.66634C8.83301 6.39301 9.05967 6.16634 9.33301 6.16634H10.9997C11.4797 6.16634 11.833 6.65967 11.833 7.33301C11.833 8.00634 11.4797 8.49967 10.9997 8.49967Z" fill="#3B3B3E"/>
</svg>
