<svg width="16" height="16" viewBox="0 0 16 16" fill="none" xmlns="http://www.w3.org/2000/svg">
<path d="M13.9997 14H2.99967C1.97167 14 1.33301 13.3613 1.33301 12.3333V2.66667C1.33301 2.29867 1.63167 2 1.99967 2C2.36767 2 2.66634 2.29867 2.66634 2.66667V12.3333C2.66634 12.6327 2.70034 12.6667 2.99967 12.6667H13.9997C14.3677 12.6667 14.6663 12.9653 14.6663 13.3333C14.6663 13.7013 14.3677 14 13.9997 14ZM9.99967 4.66667C9.99967 4.29867 9.70101 4 9.33301 4H4.66634C4.29834 4 3.99967 4.29867 3.99967 4.66667C3.99967 5.03467 4.29834 5.33333 4.66634 5.33333H9.33301C9.70101 5.33333 9.99967 5.03467 9.99967 4.66667ZM7.99967 8H4.66634C4.29834 8 3.99967 7.70133 3.99967 7.33333C3.99967 6.96533 4.29834 6.66667 4.66634 6.66667H7.99967C8.36767 6.66667 8.66634 6.96533 8.66634 7.33333C8.66634 7.70133 8.36767 8 7.99967 8ZM11.333 10.6667H4.66634C4.29834 10.6667 3.99967 10.368 3.99967 10C3.99967 9.632 4.29834 9.33333 4.66634 9.33333H11.333C11.701 9.33333 11.9997 9.632 11.9997 10C11.9997 10.368 11.701 10.6667 11.333 10.6667Z" fill="#3B3B3E"/>
</svg>
