<svg width="16" height="16" viewBox="0 0 16 16" fill="none" xmlns="http://www.w3.org/2000/svg">
<g clip-path="url(#clip0_36251_7877)">
<path d="M14.6663 14.1672H13.9997V9.00055C13.9997 8.44721 13.553 8.00055 12.9997 8.00055H11.9997V4.38385L13.057 5.08453C13.1417 5.14053 13.2377 5.16786 13.3324 5.16786C13.4944 5.16786 13.653 5.08924 13.7497 4.94391C13.9023 4.71391 13.8396 4.40321 13.609 4.25055L8.83171 1.08583C8.32704 0.749167 7.67369 0.748516 7.16903 1.08518L2.39038 4.25055C2.15971 4.40321 2.09701 4.71324 2.24967 4.94391C2.40234 5.17391 2.7123 5.2372 2.9423 5.08453L3.99967 4.38385V8.00055H2.99967C2.44634 8.00055 1.99967 8.44721 1.99967 9.00055V14.1672H1.33301C1.05701 14.1672 0.833008 14.3912 0.833008 14.6672C0.833008 14.9432 1.05701 15.1672 1.33301 15.1672H14.6663C14.9423 15.1672 15.1663 14.9432 15.1663 14.6672C15.1663 14.3912 14.9423 14.1672 14.6663 14.1672ZM9.99967 6.33388C9.99967 7.44055 9.10634 8.33388 7.99967 8.33388C6.89301 8.33388 5.99967 7.44055 5.99967 6.33388C5.99967 5.22721 6.89301 4.33388 7.99967 4.33388C9.10634 4.33388 9.99967 5.22721 9.99967 6.33388ZM11.1663 12.0005C11.1663 11.7245 11.3903 11.5005 11.6663 11.5005C11.9423 11.5005 12.1663 11.7245 12.1663 12.0005C12.1663 12.2765 11.9423 12.5005 11.6663 12.5005C11.3903 12.5005 11.1663 12.2765 11.1663 12.0005ZM12.1663 10.3339C12.1663 10.6099 11.9423 10.8339 11.6663 10.8339C11.3903 10.8339 11.1663 10.6099 11.1663 10.3339C11.1663 10.0579 11.3903 9.83388 11.6663 9.83388C11.9423 9.83388 12.1663 10.0579 12.1663 10.3339ZM4.33301 9.83388C4.60901 9.83388 4.83301 10.0579 4.83301 10.3339C4.83301 10.6099 4.60901 10.8339 4.33301 10.8339C4.05701 10.8339 3.83301 10.6099 3.83301 10.3339C3.83301 10.0579 4.05701 9.83388 4.33301 9.83388ZM4.33301 11.5005C4.60901 11.5005 4.83301 11.7245 4.83301 12.0005C4.83301 12.2765 4.60901 12.5005 4.33301 12.5005C4.05701 12.5005 3.83301 12.2765 3.83301 12.0005C3.83301 11.7245 4.05701 11.5005 4.33301 11.5005ZM6.66634 12.0005C6.66634 11.2645 7.26367 10.6672 7.99967 10.6672C8.73567 10.6672 9.33301 11.2645 9.33301 12.0005V14.1672H6.66634V12.0005ZM7.66634 6.33388V5.58714C7.66634 5.40047 7.81301 5.2538 7.99967 5.2538C8.18634 5.2538 8.33301 5.40047 8.33301 5.58714V6.33388C8.33301 6.52055 8.18634 6.66721 7.99967 6.66721C7.81301 6.66721 7.66634 6.52055 7.66634 6.33388Z" fill="#3B3B3E"/>
</g>
<defs>
<clipPath id="clip0_36251_7877">
<rect width="16" height="16" fill="white"/>
</clipPath>
</defs>
</svg>
