<svg width="16" height="16" viewBox="0 0 16 16" fill="none" xmlns="http://www.w3.org/2000/svg">
<path d="M4.1989 12.9065C4.2769 12.9845 4.2769 13.1113 4.1989 13.1893L3.68026 13.7146C3.48693 13.908 3.23357 14.0013 2.9869 14.0013C2.73357 14.0013 2.48029 13.908 2.28695 13.7146C1.90695 13.328 1.90695 12.7079 2.28695 12.3213L2.81226 11.8025C2.89026 11.7245 3.0169 11.7245 3.0949 11.8025L4.1989 12.9065ZM13.4269 5.36064L9.11695 9.67054C8.74028 10.0472 8.28027 10.3293 7.77361 10.4939L7.24024 10.6673C6.73357 10.8406 6.26688 11.1273 5.88021 11.5073L5.18824 12.1993C5.11024 12.2773 4.98361 12.2773 4.90561 12.1993L3.8016 11.0953C3.7236 11.0173 3.7236 10.8906 3.8016 10.8126L4.49358 10.1206C4.87358 9.73391 5.16025 9.26721 5.33358 8.76055L5.50692 8.22734C5.67159 7.72134 5.9536 7.26124 6.3296 6.88457L10.6402 2.57402C11.4069 1.80736 12.6536 1.80736 13.4269 2.57402C14.1936 3.34736 14.1936 4.59398 13.4269 5.36064ZM10.3536 5.64727C10.1603 5.45393 9.84023 5.45393 9.6469 5.64727L8.31356 6.9806C8.12023 7.17393 8.12023 7.49397 8.31356 7.6873C8.41356 7.7873 8.54025 7.83395 8.66692 7.83395C8.79358 7.83395 8.92027 7.7873 9.02027 7.6873L10.3536 6.35397C10.5469 6.16064 10.5469 5.8406 10.3536 5.64727ZM12.0002 4.66729C12.0002 4.30062 11.7002 4.00062 11.3336 4.00062C10.9669 4.00062 10.6669 4.30062 10.6669 4.66729C10.6669 5.03395 10.9669 5.33395 11.3336 5.33395C11.7002 5.33395 12.0002 5.03395 12.0002 4.66729Z" fill="#3B3B3E"/>
</svg>
