<svg width="16" height="16" viewBox="0 0 16 16" fill="none" xmlns="http://www.w3.org/2000/svg">
<path d="M11.75 2H4.25C2.75 2 2 2.75 2 4.25V11.75C2 13.25 2.75 14 4.25 14H11.75C13.25 14 14 13.25 14 11.75V4.25C14 2.75 13.25 2 11.75 2ZM5.33333 4.83333H8.66667C8.94267 4.83333 9.16667 5.05733 9.16667 5.33333C9.16667 5.60933 8.94267 5.83333 8.66667 5.83333H5.33333C5.05733 5.83333 4.83333 5.60933 4.83333 5.33333C4.83333 5.05733 5.05733 4.83333 5.33333 4.83333ZM7.33333 11.1667H5.33333C5.05733 11.1667 4.83333 10.9427 4.83333 10.6667C4.83333 10.3907 5.05733 10.1667 5.33333 10.1667H7.33333C7.60933 10.1667 7.83333 10.3907 7.83333 10.6667C7.83333 10.9427 7.60933 11.1667 7.33333 11.1667ZM10.6667 8.5H5.33333C5.05733 8.5 4.83333 8.276 4.83333 8C4.83333 7.724 5.05733 7.5 5.33333 7.5H10.6667C10.9427 7.5 11.1667 7.724 11.1667 8C11.1667 8.276 10.9427 8.5 10.6667 8.5Z" fill="#3B3B3E"/>
</svg>
