<svg width="16" height="16" viewBox="0 0 16 16" fill="none" xmlns="http://www.w3.org/2000/svg">
<path d="M14.0003 8.49954C13.5337 8.49954 13.067 8.44621 12.6137 8.35287C12.347 8.29287 12.1737 8.02621 12.2337 7.75954C12.2937 7.49288 12.5603 7.31955 12.827 7.37955C13.4203 7.50621 14.0337 7.53954 14.6403 7.46621C14.3803 4.21287 11.7937 1.62621 8.54034 1.36621C8.51368 1.57954 8.50035 1.79287 8.50035 2.00621C8.50035 2.45954 8.55368 2.90621 8.66701 3.33954C8.73368 3.60621 8.57369 3.87954 8.30035 3.94621C8.26035 3.95954 8.22034 3.95954 8.18034 3.95954C7.95367 3.95954 7.75368 3.80621 7.69368 3.57954C7.56702 3.06621 7.50035 2.53954 7.50035 2.00621C7.50035 1.79287 7.51367 1.57954 7.53367 1.36621C4.227 1.59954 1.58702 4.23955 1.36035 7.54621C2.04035 7.47955 2.727 7.51288 3.387 7.65955C3.65367 7.71955 3.82701 7.98621 3.76701 8.25288C3.70701 8.51955 3.44035 8.69287 3.17369 8.63287C2.58035 8.50621 1.96702 8.47288 1.36035 8.54621C1.62035 11.7995 4.20701 14.3862 7.46035 14.6462C7.48701 14.4329 7.50035 14.2195 7.50035 14.0062C7.50035 13.5529 7.44701 13.1062 7.33368 12.6729C7.26701 12.4062 7.427 12.1329 7.70034 12.0662C7.967 11.9995 8.24034 12.1595 8.30701 12.4329C8.43367 12.9462 8.50035 13.4729 8.50035 14.0062C8.50035 14.2195 8.48702 14.4329 8.46702 14.6462C11.7737 14.4129 14.4137 11.7729 14.6403 8.46621C14.427 8.48621 14.2137 8.50621 14.0003 8.50621V8.49954ZM7.29368 11.1395C7.20701 11.1929 7.11368 11.2195 7.02034 11.2195C6.86034 11.2195 6.70034 11.1395 6.60034 10.9929C6.39367 10.6729 6.15368 10.3795 5.88035 10.1062L5.82701 10.0529L5.81368 10.0395C5.52035 9.75954 5.20035 9.51287 4.86035 9.29954C4.62702 9.15287 4.55368 8.84621 4.69368 8.61287C4.84035 8.37954 5.14702 8.30621 5.38035 8.44621C5.78702 8.69954 6.17368 8.99288 6.52034 9.32621C6.52034 9.32621 6.527 9.33287 6.53367 9.33954L6.58702 9.39287C6.90702 9.71287 7.18701 10.0662 7.43367 10.4395C7.58701 10.6729 7.52034 10.9795 7.28701 11.1329L7.29368 11.1395ZM11.3004 7.37287C11.207 7.52621 11.0403 7.61287 10.8737 7.61287C10.787 7.61287 10.6937 7.58621 10.6137 7.53954C10.207 7.28621 9.82034 6.99288 9.47367 6.65955C9.47367 6.65955 9.46701 6.65288 9.46035 6.64621L9.407 6.59288C9.087 6.27288 8.80701 5.91955 8.56034 5.54621C8.40701 5.31288 8.47368 5.00621 8.70701 4.85287C8.94034 4.69954 9.24702 4.76621 9.40035 4.99954C9.60702 5.31954 9.84701 5.61288 10.1203 5.88621L10.1737 5.93954L10.187 5.95287C10.4803 6.23287 10.8003 6.47954 11.1403 6.69287C11.3737 6.83954 11.447 7.14621 11.307 7.37955L11.3004 7.37287Z" fill="#3B3B3E"/>
</svg>
