<svg width="16" height="16" viewBox="0 0 16 16" fill="none" xmlns="http://www.w3.org/2000/svg">
<path d="M7.33359 12.0002C7.17492 12.0002 6.98425 11.9288 6.85892 11.8015L4.19225 9.09351C3.93359 8.83084 3.93692 8.40884 4.19959 8.15084C4.46159 7.89284 4.88359 7.8955 5.14225 8.15817L7.33759 10.3875L13.5296 4.19617C13.7903 3.9355 14.2116 3.9355 14.4723 4.19617C14.7329 4.45617 14.7329 4.87884 14.4723 5.13884L7.80558 11.8055C7.68025 11.9302 7.51026 12.0002 7.33359 12.0002ZM7.80492 9.13817L11.8049 5.13817C12.0656 4.87817 12.0656 4.4555 11.8049 4.1955C11.5443 3.93483 11.1229 3.93483 10.8623 4.1955L6.86226 8.1955C6.60159 8.4555 6.60159 8.87817 6.86226 9.13817C6.99226 9.26817 7.16292 9.3335 7.33359 9.3335C7.50426 9.3335 7.67492 9.26817 7.80492 9.13817ZM5.13492 11.8082C5.39759 11.5495 5.40025 11.1275 5.14225 10.8655L2.47559 8.15884C2.21692 7.89684 1.79492 7.8935 1.53292 8.15216C1.27025 8.41083 1.26759 8.83283 1.52559 9.09483L4.19225 11.8015C4.32225 11.9335 4.49492 12.0002 4.66692 12.0002C4.83559 12.0002 5.00492 11.9362 5.13492 11.8082Z" fill="#3B3B3E"/>
</svg>
