<svg width="16" height="16" viewBox="0 0 16 16" fill="none" xmlns="http://www.w3.org/2000/svg">
<path d="M14.0002 8.00051C14.0002 8.36851 13.7022 8.66718 13.3335 8.66718H4.27625L5.80489 10.1958C6.06556 10.4565 6.06556 10.8779 5.80489 11.1385C5.67489 11.2685 5.50421 11.3338 5.33354 11.3338C5.16287 11.3338 4.99219 11.2685 4.86219 11.1385L2.19617 8.47252C2.13417 8.41052 2.08548 8.33723 2.05148 8.25523C1.98414 8.09257 1.98414 7.90846 2.05148 7.74579C2.08548 7.66379 2.13417 7.59051 2.19617 7.52851L4.86219 4.86249C5.12285 4.60183 5.54423 4.60183 5.80489 4.86249C6.06556 5.12316 6.06556 5.54453 5.80489 5.8052L4.27625 7.33385H13.3335C13.7022 7.33385 14.0002 7.63251 14.0002 8.00051Z" fill="#3B3B3E"/>
</svg>
