<svg width="16" height="16" viewBox="0 0 16 16" fill="none" xmlns="http://www.w3.org/2000/svg">
<path d="M14.5 7.33319V11.3332C14.5 12.9452 13.612 13.8332 12 13.8332H4C2.388 13.8332 1.5 12.9452 1.5 11.3332V4.66652C1.5 3.05452 2.388 2.16652 4 2.16652H8.66667C8.94267 2.16652 9.16667 2.39052 9.16667 2.66652C9.16667 2.94252 8.94267 3.16652 8.66667 3.16652H4C2.94867 3.16652 2.5 3.61519 2.5 4.66652V10.8332L4.19336 9.13983C4.45336 8.87983 4.87997 8.87983 5.13997 9.13983L5.76668 9.76645C5.89335 9.89312 6.10665 9.89312 6.23332 9.76645L9.52669 6.47316C9.78669 6.21316 10.2133 6.21316 10.4733 6.47316L13.5 9.49985V7.33319C13.5 7.05719 13.724 6.83319 14 6.83319C14.276 6.83319 14.5 7.05719 14.5 7.33319ZM5.32869 5.16652C4.86936 5.16652 4.5 5.53985 4.5 5.99985C4.5 6.45985 4.87597 6.83319 5.33464 6.83319C5.79397 6.83319 6.16667 6.45985 6.16667 5.99985C6.16667 5.53985 5.79464 5.16652 5.33464 5.16652H5.32869ZM11.8687 4.79787C11.966 4.8952 12.094 4.94451 12.222 4.94451C12.35 4.94451 12.478 4.89587 12.5754 4.79787L14.3534 3.01987C14.5487 2.82454 14.5487 2.50785 14.3534 2.31252C14.158 2.11718 13.8413 2.11718 13.646 2.31252L12.2214 3.73651L11.686 3.20119C11.4907 3.00585 11.174 3.00585 10.9787 3.20119C10.7833 3.39652 10.7833 3.71321 10.9787 3.90854L11.8687 4.79787Z" fill="#3B3B3E"/>
</svg>
