<svg width="16" height="16" viewBox="0 0 16 16" fill="none" xmlns="http://www.w3.org/2000/svg">
<path d="M11.75 2H4.25C2.75 2 2 2.75 2 4.25V11.75C2 13.25 2.75 14 4.25 14H11.75C13.25 14 14 13.25 14 11.75V4.25C14 2.75 13.25 2 11.75 2ZM8.79199 6.75C9.06799 6.75 9.29199 6.974 9.29199 7.25C9.29199 7.526 9.06799 7.75 8.79199 7.75H6.69202C6.68335 7.83333 6.66667 7.91467 6.66667 8C6.66667 8.08533 6.68335 8.16667 6.69202 8.25H8.79199C9.06799 8.25 9.29199 8.474 9.29199 8.75C9.29199 9.026 9.06799 9.25 8.79199 9.25H7.01465C7.44865 9.99333 8.246 10.5 9.16667 10.5C9.49 10.5 9.80535 10.4394 10.1053 10.3187C10.3627 10.2147 10.6526 10.34 10.756 10.596C10.8593 10.852 10.7347 11.1433 10.4787 11.2467C10.06 11.4147 9.61865 11.5 9.16732 11.5C7.67932 11.5 6.41333 10.5627 5.908 9.25H5.04199C4.76599 9.25 4.54199 9.026 4.54199 8.75C4.54199 8.474 4.76599 8.25 5.04199 8.25H5.69202C5.68602 8.166 5.66667 8.08533 5.66667 8C5.66667 7.91467 5.68602 7.834 5.69202 7.75H5.04199C4.76599 7.75 4.54199 7.526 4.54199 7.25C4.54199 6.974 4.76599 6.75 5.04199 6.75H5.908C6.41333 5.43733 7.67865 4.5 9.16732 4.5C9.62465 4.5 10.0673 4.58736 10.4833 4.75936C10.7387 4.86469 10.86 5.15735 10.7547 5.41268C10.6493 5.66735 10.358 5.78933 10.1013 5.684C9.80665 5.562 9.49265 5.50065 9.16732 5.50065C8.24598 5.50065 7.44867 6.00732 7.01534 6.75065H8.79199V6.75Z" fill="#3B3B3E"/>
</svg>
