<svg width="16" height="16" viewBox="0 0 16 16" fill="none" xmlns="http://www.w3.org/2000/svg">
<path d="M14.0003 4.44669V9.55336C14.0003 10.2907 13.7696 10.802 13.3083 11.08C13.2149 11.136 13.0003 11.12 13.0003 10.8967V6.44602C13.0003 4.70602 11.9604 3.66602 10.2204 3.66602H3.78174C3.52974 3.66602 3.5336 3.44402 3.59294 3.34802C3.87227 2.89336 4.38161 2.66602 5.11361 2.66602H12.2204C13.407 2.66668 14.0003 3.26002 14.0003 4.44669ZM12.0003 6.44469V11.556C12.0003 12.7414 11.4077 13.334 10.2223 13.334H3.111C1.92567 13.334 1.33301 12.7414 1.33301 11.556V6.44469C1.33301 5.25936 1.92567 4.66669 3.111 4.66669H10.2223C11.4077 4.66669 12.0003 5.25936 12.0003 6.44469ZM10.4937 6.86136C10.3317 6.63869 10.0196 6.58803 9.79492 6.75069L6.73828 8.97336C6.69561 9.00469 6.63839 9.00469 6.59505 8.97336L3.53825 6.75069C3.31358 6.58803 3.00168 6.63869 2.83968 6.86136C2.67701 7.08469 2.72637 7.39735 2.94971 7.56002L6.00635 9.78268C6.20368 9.92668 6.43567 9.99802 6.66634 9.99802C6.89701 9.99802 7.129 9.92602 7.32633 9.78268L10.383 7.56002C10.607 7.39735 10.6563 7.08469 10.4937 6.86136Z" fill="#3B3B3E"/>
</svg>
