<svg width="16" height="16" viewBox="0 0 16 16" fill="none" xmlns="http://www.w3.org/2000/svg">
<path d="M12 2H4C2.66667 2 2 2.66667 2 4V14L4 12H9.16471C9.32071 12 9.37133 11.8507 9.36133 11.774C9.342 11.6293 9.33398 11.4813 9.33398 11.3333C9.33398 9.49333 10.8273 8 12.6673 8C13.0387 8 13.3979 8.06137 13.7319 8.17204C13.8639 8.21604 14.0007 8.12534 14.0007 7.986V4C14 2.66667 13.3333 2 12 2ZM8.66667 8.83333H5.33333C5.05733 8.83333 4.83333 8.60933 4.83333 8.33333C4.83333 8.05733 5.05733 7.83333 5.33333 7.83333H8.66667C8.94267 7.83333 9.16667 8.05733 9.16667 8.33333C9.16667 8.60933 8.94267 8.83333 8.66667 8.83333ZM10.6667 6.16667H5.33333C5.05733 6.16667 4.83333 5.94267 4.83333 5.66667C4.83333 5.39067 5.05733 5.16667 5.33333 5.16667H10.6667C10.9427 5.16667 11.1667 5.39067 11.1667 5.66667C11.1667 5.94267 10.9427 6.16667 10.6667 6.16667ZM11.778 12.9447C11.65 12.9447 11.522 12.896 11.4246 12.798L10.3133 11.6867C10.118 11.492 10.118 11.1747 10.3133 10.9793C10.5086 10.784 10.8253 10.784 11.0207 10.9793L11.7786 11.7367L13.6473 9.868C13.8426 9.67267 14.1593 9.67267 14.3547 9.868C14.55 10.0633 14.55 10.38 14.3547 10.5754L12.1327 12.7974C12.034 12.8954 11.906 12.9447 11.778 12.9447Z" fill="#3B3B3E"/>
</svg>
