<svg width="16" height="16" viewBox="0 0 16 16" fill="none" xmlns="http://www.w3.org/2000/svg">
<path d="M12.5939 8.66667C11.3579 10.6667 11.6099 14 10.2972 14C8.32852 14 9.34322 10 8.00055 10C6.65789 10 7.67259 14 5.70392 14C4.39126 14 4.64321 10.6667 3.40721 8.66667C1.85521 6.156 2.75053 2.00267 6.0292 2C6.02987 2 6.03057 2.00065 6.03123 2.00065C6.26723 2.00065 6.49385 2.02341 6.71051 2.06608C6.71585 2.06675 6.72121 2.06735 6.72655 2.06868C7.38588 2.20268 7.9552 2.53473 8.42853 3.06673C8.71786 3.37273 8.95654 3.75139 9.13988 4.19206C9.21988 4.38406 9.40522 4.5 9.60122 4.5C9.66589 4.5 9.72986 4.48726 9.7932 4.46126C10.0485 4.35526 10.1686 4.06261 10.0626 3.80794C9.83256 3.25528 9.5272 2.77461 9.16453 2.39128C9.11053 2.32994 9.10253 2.15604 9.27253 2.1027C9.47053 2.0387 9.69987 2 9.96654 2C13.2499 2 14.1459 6.15533 12.5939 8.66667Z" fill="#3B3B3E"/>
</svg>
