<svg width="16" height="16" viewBox="0 0 16 16" fill="none" xmlns="http://www.w3.org/2000/svg">
<path d="M10.9593 2.29264L13.7067 5.04004C13.894 5.22737 13.9993 5.48206 13.9993 5.7474V10.252C13.9993 10.5173 13.894 10.7713 13.7067 10.9593L10.9593 13.7067C10.772 13.894 10.5173 13.9993 10.252 13.9993H5.7474C5.48206 13.9993 5.22804 13.894 5.04004 13.7067L2.29264 10.9593C2.10531 10.772 2 10.5173 2 10.252V5.7474C2 5.48206 2.10531 5.22804 2.29264 5.04004L5.04004 2.29264C5.22737 2.10531 5.48206 2 5.7474 2H10.252C10.518 2 10.772 2.10531 10.9593 2.29264Z" fill="#3B3B3E"/>
</svg>
