<svg width="16" height="16" viewBox="0 0 16 16" fill="none" xmlns="http://www.w3.org/2000/svg">
<g clip-path="url(#clip0_36251_7962)">
<path d="M1.33301 4.63298V4.33301C1.33301 2.99967 1.99967 2.33301 3.33301 2.33301H4.16634V1.33301C4.16634 1.05967 4.39301 0.833008 4.66634 0.833008C4.93967 0.833008 5.16634 1.05967 5.16634 1.33301V2.33301H9.49967V1.33301C9.49967 1.05967 9.72634 0.833008 9.99967 0.833008C10.273 0.833008 10.4997 1.05967 10.4997 1.33301V2.33301H11.333C12.6663 2.33301 13.333 2.99967 13.333 4.33301V4.63298C13.333 4.74364 13.2436 4.83301 13.133 4.83301H1.53304C1.42237 4.83301 1.33301 4.74364 1.33301 4.63298ZM8.493 13.0731C8.533 13.1997 8.44631 13.333 8.30631 13.333H3.33301C1.99967 13.333 1.33301 12.6663 1.33301 11.333V6.03304C1.33301 5.92237 1.42237 5.83301 1.53304 5.83301H13.133C13.2436 5.83301 13.333 5.92237 13.333 6.03304V8.30631C13.333 8.44631 13.1997 8.533 13.0731 8.493C12.6804 8.373 12.2676 8.31968 11.8283 8.33968C9.98229 8.42301 8.42433 9.97967 8.34033 11.8263C8.31966 12.2663 8.373 12.6797 8.493 13.0731ZM5.34635 10.6663C5.34635 10.2983 5.04835 9.99967 4.67969 9.99967H4.67301C4.30501 9.99967 4.0096 10.2983 4.0096 10.6663C4.0096 11.0343 4.31169 11.333 4.67969 11.333C5.04769 11.333 5.34635 11.0343 5.34635 10.6663ZM5.34635 7.99967C5.34635 7.63167 5.04835 7.33301 4.67969 7.33301H4.67301C4.30501 7.33301 4.0096 7.63167 4.0096 7.99967C4.0096 8.36767 4.31169 8.66634 4.67969 8.66634C5.04769 8.66634 5.34635 8.36767 5.34635 7.99967ZM8.01302 7.99967C8.01302 7.63167 7.71502 7.33301 7.34635 7.33301H7.33968C6.97168 7.33301 6.67627 7.63167 6.67627 7.99967C6.67627 8.36767 6.97835 8.66634 7.34635 8.66634C7.71435 8.66634 8.01302 8.36767 8.01302 7.99967ZM14.6663 11.9997C14.6663 13.4723 13.4723 14.6663 11.9997 14.6663C10.527 14.6663 9.33301 13.4723 9.33301 11.9997C9.33301 10.527 10.527 9.33301 11.9997 9.33301C13.4723 9.33301 14.6663 10.527 14.6663 11.9997ZM13.1663 11.9997C13.1663 11.8157 13.017 11.6663 12.833 11.6663H12.333V11.1663C12.333 10.9823 12.1837 10.833 11.9997 10.833C11.8157 10.833 11.6663 10.9823 11.6663 11.1663V11.6663H11.1663C10.9823 11.6663 10.833 11.8157 10.833 11.9997C10.833 12.1837 10.9823 12.333 11.1663 12.333H11.6663V12.833C11.6663 13.017 11.8157 13.1663 11.9997 13.1663C12.1837 13.1663 12.333 13.017 12.333 12.833V12.333H12.833C13.017 12.333 13.1663 12.1837 13.1663 11.9997Z" fill="#3B3B3E"/>
</g>
<defs>
<clipPath id="clip0_36251_7962">
<rect width="16" height="16" fill="white"/>
</clipPath>
</defs>
</svg>
