<svg width="16" height="16" viewBox="0 0 16 16" fill="none" xmlns="http://www.w3.org/2000/svg">
<path d="M14.6663 2.66699V6.00033C14.6663 6.36833 14.3683 6.66699 13.9997 6.66699H10.6663C10.2977 6.66699 9.99967 6.36833 9.99967 6.00033C9.99967 5.63233 10.2977 5.33366 10.6663 5.33366H12.6063C11.6683 3.71033 9.92434 2.66699 7.99967 2.66699C5.27367 2.66699 2.99631 4.70427 2.70231 7.4056C2.66498 7.74693 2.37636 8.00033 2.04036 8.00033C2.01636 8.00033 1.99228 7.99892 1.96761 7.99626C1.60161 7.95626 1.33762 7.62773 1.37695 7.26107C1.74562 3.88173 4.59233 1.33301 8.00033 1.33301C10.1357 1.33301 12.0983 2.35638 13.3337 4.00505V2.66699C13.3337 2.29899 13.6317 2.00033 14.0003 2.00033C14.369 2.00033 14.6663 2.29899 14.6663 2.66699ZM14.0324 8.00439C13.6584 7.96506 13.337 8.22905 13.297 8.59505C13.003 11.2971 10.7257 13.3337 7.99967 13.3337C6.07501 13.3337 4.33107 12.2903 3.39307 10.667H5.33301C5.70167 10.667 5.99967 10.3683 5.99967 10.0003C5.99967 9.63233 5.70167 9.33366 5.33301 9.33366H1.99967C1.63101 9.33366 1.33301 9.63233 1.33301 10.0003V13.3337C1.33301 13.7017 1.63101 14.0003 1.99967 14.0003C2.36834 14.0003 2.66634 13.7017 2.66634 13.3337V11.995C3.90167 13.6436 5.86434 14.667 7.99967 14.667C11.407 14.667 14.2544 12.1183 14.623 8.73893C14.6624 8.37293 14.3984 8.04439 14.0324 8.00439Z" fill="#3B3B3E"/>
</svg>
