<svg width="16" height="16" viewBox="0 0 16 16" fill="none" xmlns="http://www.w3.org/2000/svg">
<path d="M7.99967 1.33301C4.31767 1.33301 1.33301 4.31767 1.33301 7.99967C1.33301 11.6817 4.31767 14.6663 7.99967 14.6663C11.6817 14.6663 14.6663 11.6817 14.6663 7.99967C14.6663 4.31767 11.6817 1.33301 7.99967 1.33301ZM7.99967 11.1663C6.78967 11.1663 5.70307 10.4924 5.16374 9.40706C5.0404 9.15973 5.14166 8.85965 5.389 8.73698C5.63766 8.61365 5.93707 8.71507 6.05973 8.9624C6.4284 9.70507 7.17167 10.1663 7.99967 10.1663C9.19434 10.1663 10.1663 9.19434 10.1663 7.99967C10.1663 6.80501 9.19434 5.83301 7.99967 5.83301C7.34701 5.83301 6.74773 6.13034 6.3444 6.611H6.81494C7.09094 6.611 7.31494 6.835 7.31494 7.111C7.31494 7.387 7.09094 7.611 6.81494 7.611H5.33301C5.05701 7.611 4.83301 7.387 4.83301 7.111V5.62972C4.83301 5.35372 5.05701 5.12972 5.33301 5.12972C5.60901 5.12972 5.83301 5.35372 5.83301 5.62972V5.69499C6.40767 5.15565 7.17634 4.83301 7.99967 4.83301C9.74567 4.83301 11.1663 6.25367 11.1663 7.99967C11.1663 9.74567 9.74567 11.1663 7.99967 11.1663Z" fill="#3B3B3E"/>
</svg>
