<svg width="16" height="16" viewBox="0 0 16 16" fill="none" xmlns="http://www.w3.org/2000/svg">
<path d="M6.33333 4.66634C6.33333 5.95301 5.28667 6.99967 4 6.99967C2.71333 6.99967 1.66667 5.95301 1.66667 4.66634C1.66667 3.37967 2.71333 2.33301 4 2.33301C5.28667 2.33301 6.33333 3.37967 6.33333 4.66634ZM12 8.99967C10.7133 8.99967 9.66667 10.0463 9.66667 11.333C9.66667 12.6197 10.7133 13.6663 12 13.6663C13.2867 13.6663 14.3333 12.6197 14.3333 11.333C14.3333 10.0463 13.2867 8.99967 12 8.99967ZM14.5 4.66634C14.5 4.39034 14.276 4.16634 14 4.16634H10C9.724 4.16634 9.5 4.39034 9.5 4.66634C9.5 4.94234 9.724 5.16634 10 5.16634H14C14.276 5.16634 14.5 4.94234 14.5 4.66634ZM6.5 11.333C6.5 11.057 6.276 10.833 6 10.833H2C1.724 10.833 1.5 11.057 1.5 11.333C1.5 11.609 1.724 11.833 2 11.833H6C6.276 11.833 6.5 11.609 6.5 11.333Z" fill="#3B3B3E"/>
</svg>
