<svg width="16" height="16" viewBox="0 0 16 16" fill="none" xmlns="http://www.w3.org/2000/svg">
<path d="M7.99967 1.33301C4.31767 1.33301 1.33301 4.31767 1.33301 7.99967C1.33301 11.6817 4.31767 14.6663 7.99967 14.6663C11.6817 14.6663 14.6663 11.6817 14.6663 7.99967C14.6663 4.31767 11.6817 1.33301 7.99967 1.33301ZM10.353 9.01969L8.35303 11.0197C8.30703 11.0657 8.25175 11.1023 8.19108 11.1276C8.13041 11.1529 8.06501 11.1663 7.99967 11.1663C7.93434 11.1663 7.8696 11.1529 7.80827 11.1276C7.74693 11.1023 7.69232 11.0657 7.64632 11.0197L5.64632 9.01969C5.45099 8.82436 5.45099 8.50767 5.64632 8.31234C5.84165 8.117 6.15834 8.117 6.35368 8.31234L7.50033 9.45898V5.33301C7.50033 5.05701 7.72433 4.83301 8.00033 4.83301C8.27633 4.83301 8.50033 5.05701 8.50033 5.33301V9.45898L9.64697 8.31234C9.84231 8.117 10.159 8.117 10.3543 8.31234C10.5497 8.50767 10.5484 8.82436 10.353 9.01969Z" fill="#3B3B3E"/>
</svg>
