<svg width="16" height="16" viewBox="0 0 16 16" fill="none" xmlns="http://www.w3.org/2000/svg">
<path d="M7.50018 11.3272V13.7285C7.50018 13.8525 7.38683 13.9525 7.26483 13.9299C6.70817 13.8272 6.19092 13.6098 5.74026 13.2992C5.66692 13.2458 5.56687 13.0992 5.68687 12.9792L7.38625 11.2798C7.42825 11.2385 7.50018 11.2678 7.50018 11.3272ZM12.0002 9.16652H14.0002C14.2762 9.16652 14.5002 8.94252 14.5002 8.66652C14.5002 8.39052 14.2762 8.16652 14.0002 8.16652H12.0002V7.1465C12.0002 6.95317 11.7935 6.87319 11.6669 6.99985C11.6669 6.99985 10.0934 8.57259 8.55878 10.1079C8.52145 10.1453 8.50018 10.1965 8.50018 10.2492V13.7272C8.50018 13.8519 8.61484 13.9519 8.73684 13.9292C9.96484 13.7005 10.9842 12.9065 11.5422 11.8325H12.0002C12.8269 11.8325 13.5002 12.5052 13.5002 13.3325C13.5002 13.6085 13.7242 13.8325 14.0002 13.8325C14.2762 13.8325 14.5002 13.6085 14.5002 13.3325C14.5002 11.9539 13.3782 10.8325 12.0002 10.8325H11.9042C11.9615 10.5625 12.0002 10.2865 12.0002 9.9992V9.16652ZM14.3535 1.6465C14.1582 1.45117 13.8415 1.45117 13.6462 1.6465L10.5749 4.71779C10.3989 4.68579 10.2089 4.66652 10.0002 4.66652H6.00018C5.14085 4.66652 4.56284 4.94717 4.25751 5.5005C4.18618 5.5005 4.12156 5.50052 4.08156 5.49985C3.44423 5.48985 2.88419 5.07983 2.68752 4.47316L2.47414 3.83986C2.38614 3.57853 2.10218 3.43856 1.84084 3.52589C1.57884 3.61389 1.43823 3.89785 1.52623 4.15985L1.73814 4.78778C2.05947 5.77778 2.96958 6.4558 4.01158 6.49513C4.00891 6.55313 4.00018 6.60584 4.00018 6.66717V8.16717H2.00018C1.72418 8.16717 1.50018 8.39117 1.50018 8.66717C1.50018 8.94317 1.72418 9.16717 2.00018 9.16717H4.00018V10.0005C4.00018 10.3918 4.06153 10.7698 4.1662 11.1278L1.64683 13.6472C1.4515 13.8425 1.4515 14.1592 1.64683 14.3545C1.74417 14.4518 1.87218 14.5012 2.00018 14.5012C2.12818 14.5012 2.2562 14.4525 2.35354 14.3545L14.3535 2.35451C14.5489 2.15784 14.5489 1.84183 14.3535 1.6465ZM6.28811 3.66652H9.71226C9.84159 3.66652 9.94622 3.54247 9.90822 3.41847C9.65956 2.59781 8.90152 1.99985 8.00018 1.99985C7.09885 1.99985 6.34081 2.59781 6.09214 3.41847C6.05414 3.54247 6.15877 3.66652 6.28811 3.66652Z" fill="#3B3B3E"/>
</svg>
