<svg width="16" height="16" viewBox="0 0 16 16" fill="none" xmlns="http://www.w3.org/2000/svg">
<path d="M9.05562 6.94499C9.05562 7.74165 8.40761 8.38965 7.61094 8.38965C6.81427 8.38965 6.16628 7.74165 6.16628 6.94499C6.16628 6.14832 6.81427 5.50033 7.61094 5.50033C8.40761 5.50033 9.05562 6.14832 9.05562 6.94499ZM13.667 7.33366C13.667 10.6557 10.581 12.6943 8.53896 14.043L8.18563 14.2777C8.12963 14.315 8.06496 14.3337 8.00096 14.3337C7.93696 14.3337 7.87228 14.315 7.81628 14.2777L7.46295 14.043C5.42095 12.6943 2.33496 10.6557 2.33496 7.33366C2.33496 4.20899 4.87696 1.66699 8.00163 1.66699C11.1263 1.66699 13.667 4.20899 13.667 7.33366ZM10.687 9.31364L9.65428 8.28092C9.90628 7.89626 10.0563 7.43832 10.0563 6.94499C10.0563 5.59765 8.95961 4.50033 7.61161 4.50033C6.26428 4.50033 5.16695 5.59699 5.16695 6.94499C5.16695 8.29299 6.26361 9.38965 7.61161 9.38965C8.10495 9.38965 8.56294 9.2403 8.94761 8.98763L9.98029 10.0203C10.0776 10.1177 10.2056 10.167 10.3336 10.167C10.4616 10.167 10.5896 10.1183 10.687 10.0203C10.8823 9.82501 10.8823 9.50897 10.687 9.31364Z" fill="#3B3B3E"/>
</svg>
