<svg width="16" height="16" viewBox="0 0 16 16" fill="none" xmlns="http://www.w3.org/2000/svg">
<path d="M12.6667 12.667C12.6667 13.4037 12.0693 14.0003 11.3333 14.0003C10.5973 14.0003 10 13.4037 10 12.667C10 11.9303 10.5973 11.3337 11.3333 11.3337C12.0693 11.3337 12.6667 11.9303 12.6667 12.667ZM4.66667 11.3337C3.93067 11.3337 3.33333 11.9303 3.33333 12.667C3.33333 13.4037 3.93067 14.0003 4.66667 14.0003C5.40267 14.0003 6 13.4037 6 12.667C6 11.9303 5.40267 11.3337 4.66667 11.3337ZM14.5 9.05367V11.0003C14.5 11.4803 14.2733 11.9003 13.9267 12.1737C13.8867 12.207 13.8133 12.2403 13.7667 12.2403C13.6867 12.2403 13.6133 12.2003 13.5933 12.1136C13.3533 11.0936 12.4267 10.3337 11.3333 10.3337C10.16 10.3337 9.19403 11.1997 9.02669 12.3263C9.01203 12.425 8.93333 12.5003 8.83333 12.5003H7.16667C7.06667 12.5003 6.98797 12.425 6.97331 12.3263C6.80664 11.1997 5.84 10.3337 4.66667 10.3337C3.57333 10.3337 2.64666 11.0936 2.40666 12.1136C2.38666 12.1936 2.30664 12.247 2.21997 12.2403C2.18664 12.2403 2.10666 12.2003 2.07332 12.1737C1.72666 11.9003 1.5 11.4803 1.5 11.0003V9.36698C1.5 9.25632 1.58937 9.16699 1.70003 9.16699H6.66667C6.94 9.16699 7.16667 8.94033 7.16667 8.66699C7.16667 8.39366 6.94 8.16699 6.66667 8.16699H1.70003C1.58937 8.16699 1.5 8.07767 1.5 7.967V3.66699C1.5 2.84233 2.17467 2.16699 3 2.16699H8.33333C9.15867 2.16699 9.83333 2.84233 9.83333 3.66699V4.83366H11.3133C13.0066 4.83366 13.3266 5.63365 13.6333 6.40698L14.3267 8.12032C14.3733 8.24699 14.4134 8.38033 14.44 8.507C14.4534 8.547 14.4666 8.59367 14.4666 8.64034C14.4866 8.77367 14.5 8.91367 14.5 9.05367ZM13.2667 8.16699L12.7 6.78031C12.42 6.07365 12.3266 5.83366 11.3133 5.83366H9.83333V8.16699H13.2667Z" fill="#3B3B3E"/>
</svg>
