<svg width="16" height="16" viewBox="0 0 16 16" fill="none" xmlns="http://www.w3.org/2000/svg">
<path d="M15.3464 6C15.3464 6.736 14.7491 7.33333 14.0131 7.33333C13.8251 7.33333 13.6464 7.29331 13.4837 7.22331L11.2364 9.4707C11.3064 9.63337 11.3471 9.81133 11.3471 10C11.3471 10.736 10.7497 11.3333 10.0137 11.3333C9.27773 11.3333 8.67707 10.736 8.67707 10C8.67707 9.818 8.71373 9.64467 8.77973 9.486L6.5244 7.23063C6.36707 7.29596 6.1944 7.33268 6.01373 7.33268C5.82573 7.33268 5.64707 7.29266 5.48441 7.22266L3.23707 9.47005C3.30707 9.63272 3.34774 9.81068 3.34774 9.99935C3.34774 10.7353 2.7504 11.3327 2.0144 11.3327C1.2784 11.3327 0.677734 10.7353 0.677734 9.99935C0.677734 9.26335 1.27106 8.66602 2.00773 8.66602H2.0144C2.19574 8.66602 2.36773 8.70273 2.52507 8.76807L4.78107 6.51204C4.71507 6.35404 4.67773 6.18068 4.67773 5.99935C4.67773 5.26335 5.27106 4.66602 6.00773 4.66602H6.0144C6.7504 4.66602 7.34774 5.26335 7.34774 5.99935C7.34774 6.18735 7.30774 6.36598 7.23707 6.52865L9.4824 8.77393C9.64307 8.70459 9.8204 8.66602 10.0071 8.66602H10.0137C10.1951 8.66602 10.3671 8.70273 10.5244 8.76807L12.7804 6.51204C12.7144 6.35404 12.6771 6.18068 12.6771 5.99935C12.6771 5.26335 13.2704 4.66602 14.0071 4.66602H14.0137C14.7497 4.66668 15.3464 5.264 15.3464 6Z" fill="#3B3B3E"/>
</svg>
