<svg width="16" height="16" viewBox="0 0 16 16" fill="none" xmlns="http://www.w3.org/2000/svg">
<path d="M12 4.66699H8.66667L6.66667 2.66699H4C2.66667 2.66699 2 3.33366 2 4.66699V11.3337C2 12.667 2.66667 13.3337 4 13.3337H12C13.3333 13.3337 14 12.667 14 11.3337V6.66699C14 5.33366 13.3333 4.66699 12 4.66699ZM9.68669 9.98033C9.88202 10.1757 9.88202 10.4923 9.68669 10.6877C9.58935 10.785 9.46133 10.8343 9.33333 10.8343C9.20533 10.8343 9.07731 10.7857 8.97998 10.6877L8 9.70766L7.02002 10.6877C6.92269 10.785 6.79467 10.8343 6.66667 10.8343C6.53867 10.8343 6.41065 10.7857 6.31331 10.6877C6.11798 10.4923 6.11798 10.1757 6.31331 9.98033L7.29329 9.00033L6.31331 8.02032C6.11798 7.82499 6.11798 7.50832 6.31331 7.31299C6.50865 7.11766 6.82534 7.11766 7.02067 7.31299L8.00065 8.29299L8.98063 7.31299C9.17597 7.11766 9.49266 7.11766 9.68799 7.31299C9.88332 7.50832 9.88332 7.82499 9.68799 8.02032L8.70801 9.00033L9.68669 9.98033Z" fill="#3B3B3E"/>
</svg>
