<svg width="16" height="16" viewBox="0 0 16 16" fill="none" xmlns="http://www.w3.org/2000/svg">
<path d="M12.3337 1.5H4.66699C3.05499 1.5 2.16699 2.388 2.16699 4V12C2.16699 13.4953 3.17166 14.5 4.66699 14.5H12.3337C13.1603 14.5 13.8337 13.8273 13.8337 13V9V3C13.8337 2.17267 13.1603 1.5 12.3337 1.5ZM12.8337 13C12.8337 13.276 12.609 13.5 12.3337 13.5H4.66699C3.31366 13.5 3.16699 12.4507 3.16699 12C3.16699 11.5493 3.31366 10.5 4.66699 10.5H12.3337C12.4303 10.5 12.5237 10.4887 12.6151 10.4714C12.6444 10.466 12.6723 10.456 12.701 10.4486C12.745 10.4373 12.791 10.4293 12.8337 10.414V13Z" fill="#3B3B3E"/>
</svg>
