<svg width="16" height="16" viewBox="0 0 16 16" fill="none" xmlns="http://www.w3.org/2000/svg">
<path d="M14.4704 7.13853L11.8044 9.80455C11.6744 9.93455 11.5037 9.99986 11.333 9.99986C11.1623 9.99986 10.9917 9.93455 10.8617 9.80455C10.601 9.54388 10.601 9.12251 10.8617 8.86184L12.3903 7.3332H3.99967C3.26434 7.3332 2.66634 7.9312 2.66634 8.66653V11.9999C2.66634 12.3679 2.36834 12.6665 1.99967 12.6665C1.63101 12.6665 1.33301 12.3679 1.33301 11.9999V8.66653C1.33301 7.19586 2.52901 5.99986 3.99967 5.99986H12.3903L10.8617 4.47122C10.601 4.21055 10.601 3.78917 10.8617 3.52851C11.1223 3.26784 11.5437 3.26784 11.8044 3.52851L14.4704 6.19452C14.5324 6.25652 14.5811 6.32981 14.6151 6.41181C14.6824 6.57448 14.6824 6.75858 14.6151 6.92125C14.5811 7.00325 14.5324 7.07653 14.4704 7.13853Z" fill="#3B3B3E"/>
</svg>
