<svg width="16" height="16" viewBox="0 0 16 16" fill="none" xmlns="http://www.w3.org/2000/svg">
<path d="M14 1.5H2C1.724 1.5 1.5 1.724 1.5 2C1.5 2.276 1.724 2.5 2 2.5H2.66667V8.66667C2.66667 10.1933 3.47333 11 5 11H7.5V12.4L5.71999 13.5867C5.49332 13.74 5.43334 14.0467 5.58667 14.28C5.74 14.5067 6.04668 14.5667 6.28001 14.4133L8 13.2667L9.71999 14.4133C9.80666 14.4733 9.90667 14.5 10 14.5C10.16 14.5 10.32 14.42 10.4133 14.28C10.5667 14.0467 10.5067 13.74 10.28 13.5867L8.5 12.4V11H11C12.5267 11 13.3333 10.1933 13.3333 8.66667V2.5H14C14.276 2.5 14.5 2.276 14.5 2C14.5 1.724 14.276 1.5 14 1.5ZM11.1667 7.56201C11.1667 7.62735 11.1533 7.692 11.128 7.75334C11.0773 7.87534 10.98 7.97267 10.8573 8.02401C10.796 8.04934 10.7313 8.06266 10.666 8.06266H8.99933C8.72333 8.06266 8.49933 7.83866 8.49933 7.56266C8.49933 7.28666 8.72333 7.06266 8.99933 7.06266H9.45866L8.42 6.02401L7.68933 6.80998C7.31466 7.18464 6.70467 7.18464 6.33067 6.80998L4.97933 5.45866C4.784 5.26333 4.784 4.94664 4.97933 4.7513C5.17466 4.55597 5.49133 4.55597 5.68667 4.7513L7.038 6.1027L7.76868 5.31665C8.14334 4.94198 8.75334 4.94198 9.12734 5.31665L10.166 6.35531V5.896C10.166 5.62 10.39 5.396 10.666 5.396C10.942 5.396 11.166 5.62 11.166 5.896V7.56201H11.1667Z" fill="#3B3B3E"/>
</svg>
