<svg width="16" height="16" viewBox="0 0 16 16" fill="none" xmlns="http://www.w3.org/2000/svg">
<path d="M6.87016 14.667C5.55149 14.667 4.32415 14.1637 3.41215 13.249C1.49015 11.3217 1.51895 8.15702 3.47628 6.19368L7.29496 2.36434C7.9583 1.69901 8.83953 1.33301 9.7782 1.33301C10.7169 1.33301 11.5976 1.69901 12.2616 2.36434C13.6296 3.73634 13.6296 5.96768 12.2616 7.33901L8.4242 11.1863C7.63486 11.977 6.25829 11.9783 5.46896 11.1863C4.65562 10.3703 4.65562 9.04369 5.46896 8.22835L8.83956 4.84835C9.10023 4.58768 9.5216 4.58701 9.78227 4.847C10.0436 5.107 10.0436 5.52901 9.78357 5.78967L6.41297 9.16968C6.11763 9.46634 6.11763 9.94835 6.41297 10.245C6.69897 10.531 7.19485 10.5303 7.48019 10.245L11.3176 6.39768C12.1676 5.54502 12.1676 4.15835 11.3176 3.30568C10.4949 2.48102 9.06229 2.48102 8.23963 3.30568L4.42094 7.13501C3.00561 8.55434 2.97681 10.923 4.35681 12.307C5.01615 12.9683 5.90948 13.333 6.87081 13.333C7.85748 13.333 8.8203 12.9363 9.5103 12.2437L12.8615 8.88234C13.1222 8.62168 13.5436 8.62102 13.8042 8.88102C14.0656 9.14102 14.0655 9.563 13.8055 9.82367L10.4541 13.185C9.51414 14.127 8.20816 14.667 6.87016 14.667Z" fill="#3B3B3E"/>
</svg>
