<svg width="16" height="16" viewBox="0 0 16 16" fill="none" xmlns="http://www.w3.org/2000/svg">
<path fill-rule="evenodd" clip-rule="evenodd" d="M13.0463 5.72454L9.07031 2.39048C8.45098 1.87114 7.54764 1.87114 6.9283 2.39048L2.95231 5.72454C2.34831 6.23121 1.99902 6.43584 1.99902 7.76784V12.0005C1.99902 13.3338 2.66569 14.0005 3.99902 14.0005H11.999C13.3324 14.0005 13.999 13.3338 13.999 12.0005V7.76784C13.9997 6.43517 13.651 6.23121 13.0463 5.72454ZM10.737 8.65919L9.71704 9.64585C9.64237 9.71785 9.6083 9.82184 9.6263 9.92384L9.8597 11.2739C9.90703 11.5479 9.61836 11.7565 9.37036 11.6279L8.14632 10.9892C8.05432 10.9412 7.94503 10.9412 7.85303 10.9892L6.62964 11.6271C6.38164 11.7565 6.09231 11.5472 6.13965 11.2732L6.37305 9.92384C6.39038 9.82184 6.35631 9.71785 6.28231 9.64585L5.26237 8.65919C5.07504 8.47786 5.17834 8.16186 5.43701 8.12453L6.84831 7.92116C6.95097 7.90649 7.03969 7.84252 7.08569 7.74985L7.69702 6.52117C7.82102 6.27184 8.17898 6.27184 8.30298 6.52117L8.91431 7.74985C8.96031 7.84252 9.04903 7.90649 9.15169 7.92116L10.563 8.12453C10.8217 8.16186 10.9243 8.47853 10.737 8.65919Z" fill="#3B3B3E"/>
</svg>
