<svg width="16" height="16" viewBox="0 0 16 16" fill="none" xmlns="http://www.w3.org/2000/svg">
<path d="M7.99967 1.33301C4.31767 1.33301 1.33301 4.31767 1.33301 7.99967C1.33301 11.6817 4.31767 14.6663 7.99967 14.6663C11.6817 14.6663 14.6663 11.6817 14.6663 7.99967C14.6663 4.31767 11.6817 1.33301 7.99967 1.33301ZM11.833 8.38363C11.833 8.65963 11.609 8.88363 11.333 8.88363C11.057 8.88363 10.833 8.65963 10.833 8.38363V7.67033L9.321 9.18229C8.915 9.58829 8.20568 9.58896 7.79901 9.18229L6.81634 8.19971C6.79101 8.17437 6.73367 8.17437 6.70833 8.19971L5.019 9.889C4.92167 9.98633 4.79367 10.0356 4.66567 10.0356C4.53767 10.0356 4.40967 9.987 4.31234 9.889C4.117 9.69366 4.117 9.37697 4.31234 9.18164L6.00167 7.49235C6.42033 7.07302 7.10368 7.07235 7.52368 7.49235L8.50635 8.47493C8.53635 8.50427 8.58434 8.50493 8.61434 8.47493L10.1263 6.96297H9.413C9.137 6.96297 8.913 6.73897 8.913 6.46297C8.913 6.18697 9.137 5.96297 9.413 5.96297H11.333C11.3983 5.96297 11.463 5.97638 11.5243 6.00171C11.6463 6.05238 11.7437 6.14971 11.7943 6.27238C11.8197 6.33371 11.833 6.39837 11.833 6.4637V8.38363V8.38363Z" fill="#3B3B3E"/>
</svg>
