<svg width="16" height="16" viewBox="0 0 16 16" fill="none" xmlns="http://www.w3.org/2000/svg">
<path d="M7.99967 1.33301C4.31767 1.33301 1.33301 4.31767 1.33301 7.99967C1.33301 11.6817 4.31767 14.6663 7.99967 14.6663C11.6817 14.6663 14.6663 11.6817 14.6663 7.99967C14.6663 4.31767 11.6817 1.33301 7.99967 1.33301ZM11.1276 8.19108C11.1023 8.25241 11.0657 8.30768 11.0197 8.35368L9.01969 10.3537C8.92236 10.451 8.79434 10.5003 8.66634 10.5003C8.53834 10.5003 8.41032 10.4517 8.31299 10.3537C8.11765 10.1583 8.11765 9.84165 8.31299 9.64632L9.45963 8.49967H5.33301C5.05701 8.49967 4.83301 8.27567 4.83301 7.99967C4.83301 7.72367 5.05701 7.49967 5.33301 7.49967H9.45898L8.31234 6.35303C8.117 6.15769 8.117 5.841 8.31234 5.64567C8.50767 5.45034 8.82436 5.45034 9.01969 5.64567L11.0197 7.64567C11.0657 7.69167 11.1023 7.74693 11.1276 7.80827C11.1783 7.93093 11.1783 8.06841 11.1276 8.19108Z" fill="#3B3B3E"/>
</svg>
