<svg width="16" height="16" viewBox="0 0 16 16" fill="none" xmlns="http://www.w3.org/2000/svg">
<path d="M14.5 7.33333V11.3333C14.5 12.9453 13.612 13.8333 12 13.8333H4C2.388 13.8333 1.5 12.9453 1.5 11.3333V4.66667C1.5 3.05467 2.388 2.16667 4 2.16667H8.66667C8.94267 2.16667 9.16667 2.39067 9.16667 2.66667C9.16667 2.94267 8.94267 3.16667 8.66667 3.16667H4C2.94867 3.16667 2.5 3.61533 2.5 4.66667V10.8333L4.19336 9.13997C4.45336 8.87997 4.87997 8.87997 5.13997 9.13997L5.76668 9.7666C5.89335 9.89327 6.10665 9.89327 6.23332 9.7666L9.52669 6.47331C9.78669 6.21331 10.2133 6.21331 10.4733 6.47331L13.5 9.5V7.33333C13.5 7.05733 13.724 6.83333 14 6.83333C14.276 6.83333 14.5 7.05733 14.5 7.33333ZM5.32869 5.16667C4.86936 5.16667 4.5 5.54 4.5 6C4.5 6.46 4.87597 6.83333 5.33464 6.83333C5.79397 6.83333 6.16667 6.46 6.16667 6C6.16667 5.54 5.79464 5.16667 5.33464 5.16667H5.32869ZM11.3333 3.83333H12.1667V4.66667C12.1667 4.94267 12.3907 5.16667 12.6667 5.16667C12.9427 5.16667 13.1667 4.94267 13.1667 4.66667V3.83333H14C14.276 3.83333 14.5 3.60933 14.5 3.33333C14.5 3.05733 14.276 2.83333 14 2.83333H13.1667V2C13.1667 1.724 12.9427 1.5 12.6667 1.5C12.3907 1.5 12.1667 1.724 12.1667 2V2.83333H11.3333C11.0573 2.83333 10.8333 3.05733 10.8333 3.33333C10.8333 3.60933 11.0573 3.83333 11.3333 3.83333Z" fill="#3B3B3E"/>
</svg>
