<svg width="16" height="16" viewBox="0 0 16 16" fill="none" xmlns="http://www.w3.org/2000/svg">
<path d="M9.38639 12.2803C9.03973 11.947 8.91307 11.4537 9.05973 10.9937C9.2064 10.527 9.59975 10.2003 10.0798 10.1337L10.8597 10.0203L11.193 9.36699C11.4064 8.93366 11.8463 8.66699 12.333 8.66699C12.5923 8.66699 12.8377 8.74233 13.0417 8.87966C13.1523 8.95366 13.333 8.88766 13.333 8.70166V4.66699C13.333 3.33366 12.6663 2.66699 11.333 2.66699H3.33301C1.99967 2.66699 1.33301 3.33366 1.33301 4.66699V10.667C1.33301 12.0003 1.99967 12.667 3.33301 12.667C3.33301 12.667 8.98106 12.667 9.28906 12.667C9.55506 12.667 9.51506 12.3963 9.43506 12.3277C9.39973 12.2963 9.38639 12.2803 9.38639 12.2803ZM7.33301 8.343C7.09301 8.343 6.85164 8.26833 6.64697 8.11966L3.3724 5.73766C3.14906 5.57566 3.0997 5.26232 3.26237 5.03899C3.4237 4.81699 3.73627 4.76566 3.96094 4.929L7.23568 7.31032C7.29434 7.35232 7.37232 7.35299 7.43099 7.31032L10.7057 4.929C10.9304 4.76566 11.243 4.81632 11.4043 5.03899C11.567 5.26232 11.5176 5.57499 11.2943 5.73766L8.01969 8.11899C7.81436 8.26899 7.57301 8.343 7.33301 8.343ZM13.7477 12.3583C13.6864 12.417 13.6583 12.5017 13.673 12.5843L13.8651 13.6817C13.9044 13.9043 13.6664 14.0737 13.4624 13.969L12.4543 13.4503C12.3789 13.4117 12.2884 13.4117 12.2131 13.4503L11.2057 13.9683C11.0017 14.0737 10.7631 13.903 10.8024 13.6803L10.9943 12.5843C11.009 12.5017 10.9809 12.417 10.9196 12.3583L10.0798 11.557C9.92509 11.4097 10.0103 11.1523 10.2236 11.1223L11.3857 10.957C11.4704 10.945 11.5437 10.893 11.5811 10.8177L12.0843 9.81899C12.1863 9.61632 12.481 9.61632 12.583 9.81899L13.0863 10.8177C13.1243 10.893 13.1977 10.945 13.2817 10.957L14.4437 11.1223C14.657 11.1523 14.7417 11.4097 14.5877 11.557L13.7477 12.3583Z" fill="#3B3B3E"/>
</svg>
