<svg width="16" height="16" viewBox="0 0 16 16" fill="none" xmlns="http://www.w3.org/2000/svg">
<path d="M11.0797 2H3.58634C2.07968 2 1.33301 2.74674 1.33301 4.24674V11.7467C1.33301 13.2467 2.07968 14 3.58634 14H9.43435C9.59235 14 9.69102 13.824 9.60168 13.694C9.34968 13.326 9.153 12.9019 9.05967 12.4266C8.893 11.5599 9.073 10.7266 9.553 10.1333C9.973 9.61997 10.593 9.33333 11.3063 9.33333C11.713 9.33333 12.053 9.43994 12.333 9.60661C12.5623 9.47261 12.833 9.37608 13.1463 9.34408C13.2503 9.33341 13.333 9.2526 13.333 9.1486V4.24674C13.333 2.74674 12.5863 2 11.0797 2ZM11.0197 7.02002L9.15767 8.882C8.70367 9.33667 7.96301 9.33732 7.50834 8.88265L6.44901 7.82601C6.38368 7.76068 6.27835 7.76068 6.21301 7.82601L4.35234 9.68669C4.255 9.78402 4.127 9.83333 3.999 9.83333C3.871 9.83333 3.743 9.78469 3.64567 9.68669C3.45034 9.49135 3.45034 9.17466 3.64567 8.97933L5.50635 7.11865C5.96101 6.66399 6.70101 6.664 7.15568 7.118L8.21501 8.17464C8.28034 8.23931 8.38568 8.23931 8.45101 8.17464L10.313 6.31266C10.5083 6.11733 10.825 6.11733 11.0203 6.31266C11.2157 6.508 11.215 6.82469 11.0197 7.02002ZM14.6197 12.2334C14.3197 13.7734 12.333 14.6667 12.333 14.6667C12.333 14.6667 10.3463 13.7734 10.0463 12.2334C9.85968 11.2867 10.2663 10.3333 11.2997 10.3333C11.3063 10.3333 11.3063 10.3333 11.3063 10.3333C12.073 10.3333 12.333 11.0933 12.333 11.0933C12.333 11.0933 12.593 10.3333 13.3597 10.3333C13.3597 10.3333 13.3597 10.3333 13.3663 10.3333C14.4063 10.3333 14.8063 11.2867 14.6197 12.2334Z" fill="#3B3B3E"/>
</svg>
