<svg width="16" height="16" viewBox="0 0 16 16" fill="none" xmlns="http://www.w3.org/2000/svg">
<path d="M11.3473 8.22201V3.55534C11.3473 2.51867 10.8287 2 9.79199 2H3.56999C2.53265 2 2.01465 2.51867 2.01465 3.55534V11.3333L3.56999 9.778H9.79199C10.8287 9.778 11.3473 9.25934 11.3473 8.22201ZM4.68066 6.66667C4.31266 6.66667 4.01058 6.368 4.01058 6C4.01058 5.632 4.30599 5.33333 4.67399 5.33333H4.68066C5.04933 5.33333 5.34733 5.632 5.34733 6C5.34733 6.368 5.04866 6.66667 4.68066 6.66667ZM6.68066 6.66667C6.31266 6.66667 6.01058 6.368 6.01058 6C6.01058 5.632 6.30599 5.33333 6.67399 5.33333H6.68066C7.04933 5.33333 7.34733 5.632 7.34733 6C7.34733 6.368 7.04866 6.66667 6.68066 6.66667ZM8.68066 6.66667C8.31266 6.66667 8.01058 6.368 8.01058 6C8.01058 5.632 8.30599 5.33333 8.67399 5.33333H8.68066C9.04933 5.33333 9.34733 5.632 9.34733 6C9.34733 6.368 9.04866 6.66667 8.68066 6.66667ZM14.014 7.33333V14L12.6807 12.6667H7.34733C6.46066 12.6667 6.014 12.22 6.014 11.3333C6.014 11.3333 6.014 11.1467 6.014 10.986C6.014 10.844 6.12128 10.78 6.21728 10.78C6.28395 10.78 9.79394 10.78 9.79394 10.78C11.3939 10.78 12.3473 9.81997 12.3473 8.21997C12.3473 8.21997 12.3473 6.35537 12.3473 6.20003C12.3473 6.0447 12.4827 6 12.5461 6C12.6087 6 12.6807 6 12.6807 6C13.5673 6 14.014 6.44667 14.014 7.33333Z" fill="#3B3B3E"/>
</svg>
