<svg width="16" height="16" viewBox="0 0 16 16" fill="none" xmlns="http://www.w3.org/2000/svg">
<path d="M14.0003 8.02668C13.987 8.19334 13.8203 8.40666 13.607 8.64C12.6003 6.26 10.6603 4.94668 8.0003 4.94668C5.3403 4.94668 3.4003 6.26 2.39364 8.64C2.1803 8.40666 2.01364 8.19334 2.0003 8.02668C1.96697 7.43334 2.59365 6.90666 2.76031 6.34666C2.92698 5.78 2.73364 4.95999 3.12697 4.55333C3.52697 4.11999 4.33363 4.19333 4.82696 3.89333C5.31363 3.60667 5.62697 2.84667 6.20697 2.68667C6.7403 2.55334 7.38697 3.05333 8.0003 3.05333C8.61364 3.05333 9.26031 2.55334 9.79364 2.68667C10.3736 2.84667 10.687 3.6 11.1736 3.89333C11.667 4.19333 12.4736 4.11999 12.8736 4.55333C13.267 4.95999 13.0736 5.78 13.2403 6.34666C13.407 6.90666 14.0336 7.43334 14.0003 8.02668ZM13.707 12.2733C13.7336 12.8467 13.2803 13.3333 12.707 13.3333H12.667C10.947 13.2667 9.47364 13.24 8.0003 13.24C6.52697 13.24 5.05364 13.2667 3.33364 13.3333H3.29364C2.72031 13.3333 2.26697 12.8467 2.29364 12.2733C2.34697 11.2733 2.52696 10.1867 2.90696 9.19334C3.64029 7.23334 5.1403 5.61335 8.0003 5.61335C10.8603 5.61335 12.3603 7.23334 13.0936 9.19334C13.4736 10.1867 13.6536 11.2733 13.707 12.2733ZM5.34696 10.6667C5.34696 10.3 5.04696 10 4.6803 10C4.31363 10 4.01363 10.3 4.01363 10.6667C4.01363 11.0333 4.31363 11.3333 4.6803 11.3333C5.04696 11.3333 5.34696 11.0333 5.34696 10.6667ZM6.6803 8.66667C6.6803 8.3 6.3803 8 6.01363 8C5.64696 8 5.34696 8.3 5.34696 8.66667C5.34696 9.03334 5.64696 9.33334 6.01363 9.33334C6.3803 9.33334 6.6803 9.03334 6.6803 8.66667ZM8.01363 10.6667C8.01363 10.3 7.71363 10 7.34696 10C6.9803 10 6.6803 10.3 6.6803 10.6667C6.6803 11.0333 6.9803 11.3333 7.34696 11.3333C7.71363 11.3333 8.01363 11.0333 8.01363 10.6667Z" fill="#3B3B3E"/>
</svg>
