<svg width="16" height="16" viewBox="0 0 16 16" fill="none" xmlns="http://www.w3.org/2000/svg">
<path d="M3.99967 11.3327V13.9994C3.99967 14.1762 3.92947 14.3458 3.80444 14.4708C3.67942 14.5958 3.50982 14.666 3.33301 14.666H1.99967C1.82286 14.666 1.65326 14.5958 1.52824 14.4708C1.40321 14.3458 1.33301 14.1762 1.33301 13.9994V11.3327C1.33301 11.1559 1.40321 10.9863 1.52824 10.8613C1.65326 10.7362 1.82286 10.666 1.99967 10.666H3.33301C3.50982 10.666 3.67942 10.7362 3.80444 10.8613C3.92947 10.9863 3.99967 11.1559 3.99967 11.3327ZM13.1064 10.6794C12.9466 10.6797 12.7898 10.7235 12.653 10.806L11.1396 11.7127C11.0686 12.1193 10.8566 12.4879 10.5409 12.7537C10.2251 13.0195 9.82575 13.1654 9.413 13.166H7.33301C7.2004 13.166 7.07326 13.1133 6.97949 13.0195C6.88572 12.9258 6.83301 12.7986 6.83301 12.666C6.83301 12.5334 6.88572 12.4063 6.97949 12.3125C7.07326 12.2187 7.2004 12.166 7.33301 12.166H9.413C9.61192 12.166 9.80271 12.087 9.94336 11.9464C10.084 11.8057 10.163 11.6149 10.163 11.416C10.163 11.2171 10.084 11.0263 9.94336 10.8857C9.80271 10.745 9.61192 10.666 9.413 10.666H5.99967C5.64638 10.6671 5.30784 10.8079 5.05802 11.0577C4.8082 11.3075 4.6674 11.6461 4.66634 11.9994V13.3327C4.6674 13.686 4.8082 14.0245 5.05802 14.2743C5.30784 14.5242 5.64638 14.665 5.99967 14.666H9.73299C10.3392 14.6661 10.9272 14.4591 11.3997 14.0794L13.6663 12.266C13.7707 12.1832 13.8549 12.0777 13.9127 11.9576C13.9704 11.8375 14.0001 11.7059 13.9997 11.5727C13.9997 11.3358 13.9056 11.1085 13.738 10.941C13.5705 10.7735 13.3433 10.6794 13.1064 10.6794V10.6794ZM6.66634 8.99936H9.33301C9.51226 9.01845 9.69349 8.9973 9.86353 8.93743C10.0336 8.87756 10.1881 8.78051 10.3158 8.65333C10.4436 8.52615 10.5413 8.372 10.602 8.20224C10.6626 8.03248 10.6846 7.85139 10.6663 7.67205C10.6846 7.40443 10.6454 7.13594 10.5514 6.8847C10.4575 6.63345 10.3109 6.40522 10.1215 6.21526C9.93211 6.0253 9.70425 5.87802 9.45329 5.7833C9.20233 5.68857 8.93402 5.64859 8.66634 5.66603H7.33301C7.06533 5.64859 6.79702 5.68857 6.54606 5.7833C6.2951 5.87802 6.06724 6.0253 5.87785 6.21526C5.68845 6.40522 5.54189 6.63345 5.44792 6.8847C5.35394 7.13594 5.31477 7.40443 5.33301 7.67205C5.31473 7.85139 5.33675 8.03248 5.39738 8.20224C5.45801 8.372 5.55576 8.52615 5.68351 8.65333C5.81127 8.78051 5.96579 8.87756 6.13582 8.93743C6.30586 8.9973 6.48709 9.01845 6.66634 8.99936V8.99936ZM7.99967 4.66603C8.29635 4.66603 8.58633 4.57808 8.83301 4.41326C9.07968 4.24844 9.27197 4.01417 9.3855 3.74008C9.49903 3.46599 9.52874 3.16436 9.47087 2.87338C9.41299 2.58241 9.27008 2.31518 9.0603 2.1054C8.85052 1.89562 8.58329 1.75271 8.29232 1.69484C8.00135 1.63696 7.69971 1.66667 7.42562 1.7802C7.15153 1.89374 6.91726 2.08602 6.75244 2.33269C6.58762 2.57937 6.49967 2.86936 6.49967 3.16603C6.5002 3.56427 6.65884 3.94602 6.94076 4.22731C7.22267 4.50859 7.60477 4.66638 8.00301 4.66603H7.99967Z" fill="#3B3B3E"/>
</svg>
