<svg width="16" height="16" viewBox="0 0 16 16" fill="none" xmlns="http://www.w3.org/2000/svg">
<path d="M4.83358 2C4.83358 1.724 5.05758 1.5 5.33358 1.5H8.66692C8.94292 1.5 9.16692 1.724 9.16692 2C9.16692 2.276 8.94292 2.5 8.66692 2.5H5.33358C5.05758 2.5 4.83358 2.276 4.83358 2ZM8.33358 11.3333V12.6667C8.33358 12.9973 8.36895 13.306 8.43628 13.586C8.46162 13.692 8.4036 13.7993 8.29826 13.828C7.78426 13.9666 7.24556 14.026 6.67489 13.9893C4.38156 13.844 2.42288 12.082 2.06421 9.81201C1.57221 6.69268 3.97358 3.99935 7.00025 3.99935C8.11492 3.99935 9.14287 4.36735 9.97421 4.98535L10.9802 3.97933C11.1736 3.786 11.4936 3.786 11.6869 3.97933C11.8803 4.17266 11.8803 4.4927 11.6869 4.68604L10.7136 5.65934C11.3183 6.33201 11.7469 7.1673 11.9163 8.0953C11.9389 8.21796 11.8389 8.33268 11.7143 8.33268H11.3336C9.67692 8.33335 8.33358 9.67667 8.33358 11.3333ZM7.50025 6.66667C7.50025 6.39067 7.27625 6.16667 7.00025 6.16667C6.72425 6.16667 6.50025 6.39067 6.50025 6.66667V9C6.50025 9.276 6.72425 9.5 7.00025 9.5C7.27625 9.5 7.50025 9.276 7.50025 9V6.66667ZM14.6669 11.3333V12.6667C14.6669 14 14.0002 14.6667 12.6669 14.6667H11.3336C10.0002 14.6667 9.33358 14 9.33358 12.6667V11.3333C9.33358 10 10.0002 9.33333 11.3336 9.33333H12.6669C14.0002 9.33333 14.6669 10 14.6669 11.3333ZM12.4716 12L12.9023 11.5693C13.0323 11.4393 13.0323 11.228 12.9023 11.098C12.7723 10.968 12.5609 10.968 12.4309 11.098L12.0002 11.5286L11.5696 11.098C11.4396 10.968 11.2282 10.968 11.0982 11.098C10.9682 11.228 10.9682 11.4393 11.0982 11.5693L11.5289 12L11.0982 12.4307C10.9682 12.5607 10.9682 12.772 11.0982 12.902C11.1636 12.9674 11.2489 12.9993 11.3342 12.9993C11.4196 12.9993 11.5049 12.9667 11.5702 12.902L12.0009 12.4714L12.4316 12.902C12.4969 12.9674 12.5822 12.9993 12.6676 12.9993C12.7529 12.9993 12.8382 12.9667 12.9036 12.902C13.0336 12.772 13.0336 12.5607 12.9036 12.4307L12.4716 12Z" fill="#3B3B3E"/>
</svg>
