<svg width="16" height="16" viewBox="0 0 16 16" fill="none" xmlns="http://www.w3.org/2000/svg">
<path d="M2.33301 4.66659H3.51099C3.82699 4.66659 4.13238 4.55451 4.37305 4.35051L6.83366 2.26588C7.55699 1.65321 8.66699 2.16733 8.66699 3.11532V12.8845C8.66699 13.8325 7.55699 14.3473 6.83366 13.734L4.37305 11.6493C4.13238 11.4453 3.82699 11.3333 3.51099 11.3333H2.33301C1.78101 11.3333 1.33301 10.8853 1.33301 10.3333V5.66725C1.33301 5.11458 1.78101 4.66659 2.33301 4.66659ZM11.1777 11.1806C12.0303 10.3319 12.4997 9.20193 12.4997 7.99993C12.4997 6.79793 12.0303 5.66793 11.1777 4.81926C10.9817 4.6246 10.665 4.62457 10.4704 4.82057C10.275 5.0159 10.2763 5.33326 10.4717 5.52792C11.1343 6.18792 11.4997 7.06658 11.4997 8.00058C11.4997 8.93458 11.1343 9.81323 10.4717 10.4732C10.2763 10.6679 10.275 10.9846 10.4704 11.1806C10.5677 11.2786 10.6964 11.3279 10.8244 11.3279C10.9524 11.3266 11.0797 11.2779 11.1777 11.1806ZM12.711 13.2133C12.583 13.2133 12.4543 13.1647 12.357 13.0667C12.1623 12.8713 12.1623 12.5546 12.3583 12.3593C13.5243 11.1966 14.1663 9.64859 14.1663 7.99993C14.1663 6.35126 13.5243 4.80389 12.3583 3.64055C12.1623 3.44522 12.1623 3.12853 12.357 2.9332C12.5517 2.73786 12.8684 2.73721 13.0644 2.93255C14.4197 4.28455 15.1663 6.08459 15.1663 7.99993C15.1663 9.91526 14.4197 11.7153 13.0644 13.0673C12.9664 13.1646 12.839 13.2133 12.711 13.2133Z" fill="#3B3B3E"/>
</svg>
