<svg width="16" height="16" viewBox="0 0 16 16" fill="none" xmlns="http://www.w3.org/2000/svg">
<path d="M13.8 6.5H2.20003C2.08937 6.5 2 6.58937 2 6.70003V12C2 13.3333 2.66667 14 4 14H12C13.3333 14 14 13.3333 14 12V6.70003C14 6.58937 13.9106 6.5 13.8 6.5ZM10.02 9.24268L7.79801 11.4647C7.70068 11.562 7.57266 11.6113 7.44466 11.6113C7.31666 11.6113 7.18864 11.5627 7.09131 11.4647L5.97998 10.3534C5.78465 10.1587 5.78465 9.84133 5.97998 9.646C6.17531 9.45066 6.492 9.45066 6.68734 9.646L7.44531 10.4033L9.31397 8.53467C9.5093 8.33933 9.82599 8.33933 10.0213 8.53467C10.2167 8.73 10.2154 9.04734 10.02 9.24268ZM14 5V5.29997C14 5.41063 13.9106 5.5 13.8 5.5H2.20003C2.08937 5.5 2 5.41063 2 5.29997V5C2 3.66667 2.66667 3 4 3H4.83333V2C4.83333 1.72667 5.06 1.5 5.33333 1.5C5.60667 1.5 5.83333 1.72667 5.83333 2V3H10.1667V2C10.1667 1.72667 10.3933 1.5 10.6667 1.5C10.94 1.5 11.1667 1.72667 11.1667 2V3H12C13.3333 3 14 3.66667 14 5Z" fill="#3B3B3E"/>
</svg>
