<svg width="16" height="16" viewBox="0 0 16 16" fill="none" xmlns="http://www.w3.org/2000/svg">
<path d="M12 3.33301H4C2.66667 3.33301 2 3.99967 2 5.33301V11.333C2 12.6663 2.66667 13.333 4 13.333H12C13.3333 13.333 14 12.6663 14 11.333V5.33301C14 3.99967 13.3333 3.33301 12 3.33301ZM11.9606 6.40368L8.68604 8.785C8.4807 8.93434 8.24 9.00901 8 9.00901C7.76 9.00901 7.51863 8.93434 7.31397 8.78568L4.03939 6.40368C3.81605 6.24168 3.7667 5.92834 3.92936 5.70501C4.09136 5.48234 4.4026 5.43168 4.62793 5.59501L7.90267 7.97634C7.96134 8.01834 8.03932 8.01901 8.09798 7.97634L11.3727 5.59501C11.5974 5.43168 11.9093 5.48234 12.0713 5.70501C12.234 5.92901 12.1839 6.24168 11.9606 6.40368Z" fill="#3B3B3E"/>
</svg>
