<svg width="16" height="16" viewBox="0 0 16 16" fill="none" xmlns="http://www.w3.org/2000/svg">
<path d="M12.4717 12.4717C12.3417 12.6017 12.171 12.667 12.0003 12.667C11.8297 12.667 11.659 12.6017 11.529 12.4717L4.00033 4.94303V10.0003C4.00033 10.3683 3.70233 10.667 3.33366 10.667C2.96499 10.667 2.66699 10.3683 2.66699 10.0003V3.33366C2.66699 3.24699 2.68493 3.16027 2.71826 3.07894C2.7856 2.91561 2.91561 2.78626 3.07894 2.71826C3.16027 2.68426 3.24699 2.66699 3.33366 2.66699H10.0003C10.369 2.66699 10.667 2.96566 10.667 3.33366C10.667 3.70166 10.369 4.00033 10.0003 4.00033H4.94303L12.4717 11.529C12.7323 11.7896 12.7323 12.211 12.4717 12.4717Z" fill="#3B3B3E"/>
</svg>
