<svg width="16" height="16" viewBox="0 0 16 16" fill="none" xmlns="http://www.w3.org/2000/svg">
<path d="M13.8 7.16667H2.20003C2.08937 7.16667 2 7.25599 2 7.36666V12C2 13.3333 2.66667 14 4 14H12C13.3333 14 14 13.3333 14 12V7.36666C14 7.25599 13.9106 7.16667 13.8 7.16667ZM9.11263 12.2387C8.93863 12.4193 8.72332 12.5393 8.48999 12.6007V12.6673C8.48999 12.9433 8.26599 13.1673 7.98999 13.1673C7.71399 13.1673 7.48999 12.9433 7.48999 12.6673V12.5953C6.96999 12.45 6.56999 11.998 6.50732 11.4253C6.47799 11.1507 6.67668 10.904 6.95068 10.8747C7.22468 10.8453 7.47203 11.0433 7.50203 11.318C7.52203 11.5073 7.66863 11.65 7.84196 11.65H8.15731C8.27531 11.65 8.35533 11.5853 8.39266 11.5467C8.46199 11.4747 8.5 11.3787 8.5 11.2767C8.5 11.1033 8.39134 10.9533 8.236 10.9127L7.51335 10.7267C7.21935 10.6493 6.95801 10.4733 6.77734 10.23C6.60001 9.99733 6.50065 9.69934 6.50065 9.39467C6.50065 8.76267 6.92197 8.23467 7.49064 8.07534V8C7.49064 7.724 7.71464 7.5 7.99064 7.5C8.26664 7.5 8.49064 7.724 8.49064 8V8.06667C9.01997 8.20534 9.42934 8.66268 9.49268 9.24268C9.52201 9.51734 9.32332 9.764 9.04932 9.79334C8.77932 9.82334 8.52797 9.62466 8.49797 9.35C8.47797 9.16133 8.33137 9.01868 8.15804 9.01868H7.84269C7.65403 9.01868 7.5 9.18599 7.5 9.39266C7.5 9.47933 7.52669 9.56266 7.57536 9.626C7.62536 9.69333 7.68933 9.73734 7.764 9.75667L8.48665 9.94267C9.08399 10.1 9.5 10.6473 9.5 11.2747C9.5 11.6367 9.36263 11.9793 9.11263 12.2387ZM2.21737 5.91201L2.92 3.45333C3.16667 2.59333 3.33334 2 4.84001 2H7.29997C7.41063 2 7.5 2.08933 7.5 2.19999V5.96667C7.5 6.07734 7.41063 6.16667 7.29997 6.16667H2.40934C2.27668 6.16667 2.1807 6.03934 2.21737 5.91201ZM8.5 5.96667V2.19999C8.5 2.08933 8.58937 2 8.70003 2H11.16C12.6667 2 12.8333 2.59333 13.08 3.45333L13.7826 5.91201C13.8193 6.04001 13.7233 6.16667 13.5907 6.16667H8.70003C8.58937 6.16667 8.5 6.07734 8.5 5.96667Z" fill="#3B3B3E"/>
</svg>
