<svg width="16" height="16" viewBox="0 0 16 16" fill="none" xmlns="http://www.w3.org/2000/svg">
<path d="M10.1667 9.66667V13.8C10.1667 13.9106 10.0773 14 9.96663 14H6.03337C5.9227 14 5.83333 13.9106 5.83333 13.8V9.66667C5.83333 9.274 5.94067 9.16667 6.33333 9.16667H9.66667C10.0593 9.16667 10.1667 9.274 10.1667 9.66667ZM14 9.33333V12C14 12.4467 13.78 12.6667 13.3333 12.6667H12.5933C12.4399 13.3267 12.0534 13.74 11.4134 13.9133C11.2867 13.9467 11.1667 13.84 11.1667 13.7133V9.66667C11.1667 8.72667 10.6067 8.16667 9.66667 8.16667H6.33333C5.39333 8.16667 4.83333 8.72667 4.83333 9.66667V13.7133C4.83333 13.84 4.71326 13.9467 4.58659 13.9133C3.94659 13.74 3.56007 13.3267 3.40674 12.6667H2.66667C2.22 12.6667 2 12.4467 2 12V9.33333C2 8.88667 2.22 8.66667 2.66667 8.66667H3.33333V7.33333C3.33333 5.76 4.16667 4.60669 5.5 4.18669V4C5.5 2.62 6.62 1.5 8 1.5C9.38 1.5 10.5 2.62 10.5 4V4.18669C11.8333 4.60669 12.6667 5.76 12.6667 7.33333V8.66667H13.3333C13.78 8.66667 14 8.88667 14 9.33333ZM9.16667 6.66667C9.16667 6.39333 8.94 6.16667 8.66667 6.16667H7.33333C7.06 6.16667 6.83333 6.39333 6.83333 6.66667C6.83333 6.94 7.06 7.16667 7.33333 7.16667H8.66667C8.94 7.16667 9.16667 6.94 9.16667 6.66667ZM9.5 4C9.5 3.17333 8.82667 2.5 8 2.5C7.17333 2.5 6.5 3.17333 6.5 4V4.01335C6.56 4.01335 6.60667 4 6.66667 4H9.33333C9.39333 4 9.44 4.01335 9.5 4.01335V4Z" fill="#3B3B3E"/>
</svg>
