<svg width="16" height="16" viewBox="0 0 16 16" fill="none" xmlns="http://www.w3.org/2000/svg">
<path d="M11.75 2H4.25C2.73533 2 2 2.75 2 4.25V11.75C2 13.25 2.73533 14 4.25 14H11.75C13.2353 14 14 13.25 14 11.75V4.25C14 2.75 13.2353 2 11.75 2ZM9.46867 10.5793C9.19867 10.8493 8.85535 11.014 8.48535 11.0673V11.3333C8.48535 11.6093 8.26135 11.8333 7.98535 11.8333C7.70935 11.8333 7.48535 11.6093 7.48535 11.3333V11.066C6.72335 10.942 6.11867 10.328 6.02934 9.53735C5.99867 9.26269 6.196 9.01537 6.47066 8.9847C6.74266 8.9507 6.99265 9.15136 7.02332 9.42603C7.06598 9.80603 7.386 10.0927 7.76733 10.0927H8.23401C8.43268 10.0927 8.62 10.0146 8.762 9.87264C8.904 9.73064 8.98202 9.54331 8.98202 9.34465C8.98202 9.00131 8.74867 8.70332 8.41467 8.61865L7.34265 8.3527C6.96265 8.25604 6.62401 8.03533 6.38668 7.72933C6.15068 7.43066 6.01868 7.04799 6.01868 6.65666C6.01868 5.78932 6.65535 5.07267 7.48535 4.93734V4.66667C7.48535 4.39067 7.70935 4.16667 7.98535 4.16667C8.26135 4.16667 8.48535 4.39067 8.48535 4.66667V4.93066C9.26135 5.04333 9.88131 5.66131 9.97131 6.46265C10.002 6.73731 9.80466 6.98463 9.52999 7.0153C9.25332 7.0473 9.008 6.84864 8.97734 6.57397C8.93467 6.19397 8.61465 5.90731 8.23332 5.90731H7.76668C7.35402 5.90731 7.01868 6.24269 7.01868 6.65535C7.01868 6.82269 7.07399 6.98531 7.17399 7.11198C7.27932 7.24798 7.42069 7.34001 7.58602 7.38135L8.658 7.6473C9.438 7.84463 9.98202 8.54201 9.98202 9.34334C9.98135 9.81001 9.79934 10.2487 9.46867 10.5793Z" fill="#3B3B3E"/>
</svg>
