<svg width="16" height="16" viewBox="0 0 16 16" fill="none" xmlns="http://www.w3.org/2000/svg">
<path d="M12 4.66699H8.66667L6.66667 2.66699H4C2.66667 2.66699 2 3.33366 2 4.66699V11.3337C2 12.667 2.66667 13.3337 4 13.3337H12C13.3333 13.3337 14 12.667 14 11.3337V6.66699C14 5.33366 13.3333 4.66699 12 4.66699ZM10 8.74099C10 10.2963 8.75 11.0743 8 11.3337C7.25 11.0743 6 10.2963 6 8.74099C6 8.46432 6 7.70965 6 7.44499C7 7.15165 7.50007 6.92633 8.00407 6.66699C8.50007 6.92633 9 7.15166 10 7.41099C10 7.68966 10 8.45499 10 8.74099Z" fill="#3B3B3E"/>
</svg>
