<svg width="16" height="16" viewBox="0 0 16 16" fill="none" xmlns="http://www.w3.org/2000/svg">
<path d="M13.7077 5.04102L10.9603 2.29362C10.773 2.10629 10.5183 2.00098 10.2529 2.00098H5.74837C5.48304 2.00098 5.22902 2.10629 5.04102 2.29362L2.29362 5.04102C2.10629 5.22835 2.00098 5.48304 2.00098 5.74837V10.2529C2.00098 10.5183 2.10629 10.7723 2.29362 10.9603L5.04102 13.7077C5.22835 13.895 5.48304 14.0003 5.74837 14.0003H10.2529C10.5183 14.0003 10.7723 13.895 10.9603 13.7077L13.7077 10.9603C13.895 10.773 14.0003 10.5183 14.0003 10.2529V5.74837C14.0003 5.48304 13.895 5.22835 13.7077 5.04102ZM10.0003 8.50033H8.50033V10.0003C8.50033 10.2763 8.27633 10.5003 8.00033 10.5003C7.72433 10.5003 7.50033 10.2763 7.50033 10.0003V8.50033H6.00033C5.72433 8.50033 5.50033 8.27633 5.50033 8.00033C5.50033 7.72433 5.72433 7.50033 6.00033 7.50033H7.50033V6.00033C7.50033 5.72433 7.72433 5.50033 8.00033 5.50033C8.27633 5.50033 8.50033 5.72433 8.50033 6.00033V7.50033H10.0003C10.2763 7.50033 10.5003 7.72433 10.5003 8.00033C10.5003 8.27633 10.2763 8.50033 10.0003 8.50033Z" fill="#3B3B3E"/>
</svg>
