<svg width="16" height="16" viewBox="0 0 16 16" fill="none" xmlns="http://www.w3.org/2000/svg">
<path fill-rule="evenodd" clip-rule="evenodd" d="M13.5129 6.04153L9.05825 2.3795C8.44292 1.8735 7.55559 1.8735 6.94025 2.3795L2.48558 6.04153C2.11158 6.34886 1.93357 6.83416 2.0209 7.31016L2.99095 12.6315C3.13562 13.4235 3.82561 13.9995 4.63028 13.9995H11.3676C12.1729 13.9995 12.8629 13.4235 13.0069 12.6315L13.9769 7.30951C14.0649 6.83485 13.8869 6.34886 13.5129 6.04153ZM7.99958 11.6669C7.63158 11.6669 7.33291 11.3682 7.33291 11.0002C7.33291 10.6322 7.63158 10.3335 7.99958 10.3335C8.36758 10.3335 8.66625 10.6322 8.66625 11.0002C8.66625 11.3682 8.36758 11.6669 7.99958 11.6669ZM9.89761 9.81016C9.79961 9.9395 9.65026 10.0075 9.49893 10.0075C9.39359 10.0075 9.28759 9.97421 9.19693 9.90554C8.51093 9.38354 7.4889 9.38354 6.80223 9.90554C6.58223 10.0722 6.26888 10.0302 6.10155 9.81016C5.93421 9.59016 5.97626 9.27681 6.19693 9.10948C7.23359 8.32081 8.76623 8.32081 9.80223 9.10948C10.0222 9.27681 10.0649 9.59083 9.89761 9.81016ZM11.3782 8.43752C11.2796 8.55219 11.1402 8.61151 10.9996 8.61151C10.8836 8.61151 10.7676 8.57151 10.6736 8.49018C9.93224 7.85151 8.98225 7.50019 7.99958 7.50019C7.01691 7.50019 6.06759 7.85151 5.32559 8.49018C5.11692 8.67018 4.80093 8.64686 4.62027 8.43752C4.4396 8.22819 4.46425 7.9122 4.67292 7.7322C5.59625 6.93753 6.77693 6.50019 7.99893 6.50019C9.22093 6.50019 10.4016 6.93753 11.3249 7.7322C11.5349 7.9122 11.5589 8.22819 11.3782 8.43752Z" fill="#3B3B3E"/>
</svg>
