<svg width="16" height="16" viewBox="0 0 16 16" fill="none" xmlns="http://www.w3.org/2000/svg">
<path d="M11.7501 9.44982L13.5121 10.5005C13.8761 10.7178 14.0641 11.1405 13.9807 11.5565C13.6401 13.2625 11.9268 14.3558 10.2488 13.8952C6.28947 12.8085 3.19672 9.72515 2.10606 5.75715C1.64472 4.07849 2.73679 2.36381 4.44346 2.02247L4.45469 2.02048C4.87136 1.93715 5.29613 2.12581 5.5128 2.49181L6.55479 4.25115C6.92545 4.87649 6.74135 5.68314 6.13535 6.08581L5.0281 6.82248C5.80943 8.69381 7.30272 10.1932 9.16872 10.9732L9.91205 9.86315C10.318 9.25848 11.1248 9.07715 11.7501 9.44982ZM11.8334 6.66715C11.8334 5.28848 10.7114 4.16715 9.33343 4.16715C9.05743 4.16715 8.83343 4.39115 8.83343 4.66715C8.83343 4.94315 9.05743 5.16715 9.33343 5.16715C10.1601 5.16715 10.8334 5.83981 10.8334 6.66715C10.8334 6.94315 11.0574 7.16715 11.3334 7.16715C11.6094 7.16715 11.8334 6.94315 11.8334 6.66715ZM13.3334 7.16715C13.0574 7.16715 12.8334 6.94315 12.8334 6.66715C12.8334 4.73715 11.2634 3.16715 9.33343 3.16715C9.05743 3.16715 8.83343 2.94315 8.83343 2.66715C8.83343 2.39115 9.05743 2.16715 9.33343 2.16715C11.8148 2.16715 13.8334 4.18581 13.8334 6.66715C13.8334 6.94315 13.6094 7.16715 13.3334 7.16715Z" fill="#3B3B3E"/>
</svg>
