<svg width="16" height="16" viewBox="0 0 16 16" fill="none" xmlns="http://www.w3.org/2000/svg">
<path fill-rule="evenodd" clip-rule="evenodd" d="M9.05521 8.61111C9.05521 9.40778 8.4072 10.0558 7.6112 10.0558C6.81453 10.0558 6.16653 9.40778 6.16653 8.61111C6.16653 7.81444 6.81453 7.16645 7.6112 7.16645C8.4072 7.16645 9.05521 7.81444 9.05521 8.61111ZM13.9785 7.31041L13.0085 12.6324C12.8638 13.4244 12.1738 14.0004 11.3692 14.0004H4.63187C3.82653 14.0004 3.13654 13.4244 2.99254 12.6324L2.02257 7.31114C1.93591 6.83514 2.1139 6.34909 2.4879 6.04242L6.94184 2.38048C7.55718 1.87448 8.44451 1.87448 9.05984 2.38048L13.5145 6.04242C13.8872 6.34842 14.0652 6.83441 13.9785 7.31041ZM10.6866 10.9798L9.65319 9.94648C9.90519 9.56181 10.0546 9.10379 10.0546 8.61046C10.0546 7.26312 8.95788 6.1658 7.61054 6.1658C6.26254 6.1658 5.16588 7.26246 5.16588 8.61046C5.16588 9.95846 6.26254 11.0551 7.61054 11.0551C8.10388 11.0551 8.56183 10.9058 8.94583 10.6531L9.97855 11.6858C10.0759 11.7831 10.2039 11.8325 10.3319 11.8325C10.4599 11.8325 10.5878 11.7838 10.6852 11.6858C10.8818 11.4911 10.8819 11.1751 10.6866 10.9798Z" fill="#3B3B3E"/>
</svg>
