<svg width="16" height="16" viewBox="0 0 16 16" fill="none" xmlns="http://www.w3.org/2000/svg">
<path d="M2.36715 6.00647C2.28048 5.94647 2.26714 5.82647 2.32048 5.7398L4.24715 2.73314C4.80048 1.91981 5.54715 1.94647 5.58048 2.05314C5.82048 2.91314 6.18715 5.20647 9.28715 4.71314C9.44048 4.68647 9.58713 4.76647 9.64713 4.89981L9.98714 5.66647H7.99381C7.72048 5.66647 7.49381 5.89314 7.49381 6.16647C7.49381 6.4398 7.72048 6.66647 7.99381 6.66647H10.4338L10.7338 7.33314H8.66715C8.39382 7.33314 8.16715 7.5598 8.16715 7.83314C8.16715 8.10647 8.39382 8.33314 8.66715 8.33314H11.1872L11.2472 8.46647C11.3005 8.58647 11.4205 8.66647 11.5538 8.66647C13.1005 8.66647 14.3671 9.79313 14.6138 11.2665C14.6338 11.3865 14.5338 11.4998 14.4138 11.4998H9.99381C9.81381 11.4998 9.64048 11.4398 9.49381 11.3331C9.49381 11.3331 3.40049 6.77313 2.38049 6.00647H2.36715ZM8.88049 12.1331L1.85384 6.8598C1.76051 6.79313 1.62714 6.81313 1.56714 6.91313L1.54049 6.95313C1.16715 7.5398 1.30714 8.3198 1.86047 8.7398L8.51383 13.7331C8.74717 13.9065 9.02713 13.9998 9.3138 13.9998H13.6605C14.2138 13.9998 14.6605 13.5531 14.6605 12.9998V12.6998C14.6605 12.5865 14.5738 12.4998 14.4605 12.4998H9.98047C9.58047 12.4998 9.20049 12.3731 8.88049 12.1331V12.1331ZM6.49381 13.9998C6.49381 13.7265 6.26715 13.4998 5.99381 13.4998H1.32715C1.05382 13.4998 0.827148 13.7265 0.827148 13.9998C0.827148 14.2731 1.05382 14.4998 1.32715 14.4998H5.99381C6.26715 14.4998 6.49381 14.2731 6.49381 13.9998ZM3.16048 11.6665C3.16048 11.3931 2.93381 11.1665 2.66048 11.1665H1.32715C1.05382 11.1665 0.827148 11.3931 0.827148 11.6665C0.827148 11.9398 1.05382 12.1665 1.32715 12.1665H2.66048C2.93381 12.1665 3.16048 11.9398 3.16048 11.6665Z" fill="#3B3B3E"/>
</svg>
