<svg width="16" height="16" viewBox="0 0 16 16" fill="none" xmlns="http://www.w3.org/2000/svg">
<path d="M8 2C4.686 2 2 4.686 2 8C2 11.3133 4.686 14 8 14C11.314 14 14 11.3133 14 8C14 4.686 11.314 2 8 2ZM8 10.3333C6.71133 10.3333 5.66667 9.28867 5.66667 8C5.66667 6.71133 6.71133 5.66667 8 5.66667C9.28867 5.66667 10.3333 6.71133 10.3333 8C10.3333 9.28867 9.28867 10.3333 8 10.3333ZM8.66667 8C8.66667 8.368 8.368 8.66667 8 8.66667C7.632 8.66667 7.33333 8.368 7.33333 8C7.33333 7.632 7.632 7.33333 8 7.33333C8.368 7.33333 8.66667 7.632 8.66667 8Z" fill="#3B3B3E"/>
</svg>
