<svg width="16" height="16" viewBox="0 0 16 16" fill="none" xmlns="http://www.w3.org/2000/svg">
<path d="M12 2H4C2.66667 2 2 2.66667 2 4V14L4 12H12C13.3333 12 14 11.3333 14 10V4C14 2.66667 13.3333 2 12 2ZM8.66667 8.83333H5.33333C5.05733 8.83333 4.83333 8.60933 4.83333 8.33333C4.83333 8.05733 5.05733 7.83333 5.33333 7.83333H8.66667C8.94267 7.83333 9.16667 8.05733 9.16667 8.33333C9.16667 8.60933 8.94267 8.83333 8.66667 8.83333ZM10.6667 6.16667H5.33333C5.05733 6.16667 4.83333 5.94267 4.83333 5.66667C4.83333 5.39067 5.05733 5.16667 5.33333 5.16667H10.6667C10.9427 5.16667 11.1667 5.39067 11.1667 5.66667C11.1667 5.94267 10.9427 6.16667 10.6667 6.16667Z" fill="#3B3B3E"/>
</svg>
