<svg width="16" height="16" viewBox="0 0 16 16" fill="none" xmlns="http://www.w3.org/2000/svg">
<g clip-path="url(#clip0_36251_7495)">
<path d="M12.4995 12.2338C12.4995 13.5872 11.7462 14.3338 10.3795 14.3338H5.61956C5.3529 14.3338 5.11284 14.3072 4.89951 14.2472C4.85284 14.2338 4.69956 14.1978 4.69956 14.0471C4.69956 13.9871 4.71954 13.9405 4.75954 13.9072L9.63283 9.03387C9.67949 8.9872 9.74617 8.96715 9.81284 8.97381C11.7862 9.24048 12.4995 10.8472 12.4995 12.2338ZM12.8042 5.96649C12.7442 5.96182 12.6815 5.98518 12.6395 6.02785L10.7862 7.8812C10.6802 7.9872 10.7282 8.16113 10.8696 8.21047C11.8156 8.54047 12.4922 9.16318 12.9135 9.92718C12.9468 10.0005 13.0135 10.0471 13.1002 10.0471H13.3802C14.4269 10.0471 15.0002 9.47385 15.0002 8.43385C14.9995 7.35519 14.4162 6.09115 12.8042 5.96649ZM2.61956 10.0471H2.89951C2.98618 10.0471 3.05286 10.0005 3.0862 9.92718C3.57286 9.04718 4.39285 8.35383 5.57285 8.07383C5.72618 8.03383 5.79287 7.84716 5.67954 7.74049C5.21954 7.30716 4.88618 6.74053 4.73952 6.10719C4.71952 6.02053 4.63949 5.95387 4.54616 5.95387H3.47283C1.64617 5.95387 0.999527 7.29385 0.999527 8.43385C0.999527 9.47385 1.5729 10.0471 2.61956 10.0471ZM4.32619 5.23382C4.37552 5.23382 4.4242 5.23115 4.47153 5.22715C4.53287 5.22181 4.57815 5.20187 4.60882 5.16921C4.63949 5.13654 4.65682 5.10521 4.66082 5.05454C4.73216 4.15387 5.1675 3.35714 5.82017 2.80714C5.86083 2.77248 5.88088 2.74918 5.89088 2.70518C5.90022 2.66318 5.90155 2.61516 5.87689 2.57049C5.57155 2.03049 4.99152 1.66652 4.32619 1.66652C3.34619 1.66652 2.54616 2.46647 2.54616 3.44647C2.54616 4.4338 3.34619 5.23382 4.32619 5.23382ZM15.0195 0.980484C14.8242 0.785151 14.5075 0.785151 14.3122 0.980484L13.0129 2.2798C12.6842 1.90447 12.2049 1.66717 11.6729 1.66717C11.0062 1.66717 10.4262 2.03383 10.1196 2.57383C10.0996 2.61383 10.0995 2.66721 10.1062 2.70721C10.1195 2.74721 10.1395 2.77381 10.1795 2.80714C10.6035 3.16581 10.9369 3.62986 11.1375 4.15586L10.3162 4.97715C10.1395 3.85781 9.17487 3.0005 8.0062 3.0005C6.71287 3.0005 5.65952 4.04718 5.65952 5.34051C5.65952 6.50718 6.52823 7.46786 7.65423 7.63853L6.34084 8.95184C4.4815 9.14384 3.68156 10.4692 3.52956 11.7632L0.979508 14.3132C0.784174 14.5085 0.784174 14.8252 0.979508 15.0205C1.07684 15.1179 1.20486 15.1672 1.33286 15.1672C1.46086 15.1672 1.58888 15.1185 1.68621 15.0205L15.0195 1.68719C15.2149 1.49186 15.2149 1.17582 15.0195 0.980484Z" fill="#3B3B3E"/>
</g>
<defs>
<clipPath id="clip0_36251_7495">
<rect width="16" height="16" fill="white"/>
</clipPath>
</defs>
</svg>
