<svg width="16" height="16" viewBox="0 0 16 16" fill="none" xmlns="http://www.w3.org/2000/svg">
<path d="M11.333 6.5C9.71967 6.5 8.83301 5.61333 8.83301 4V2H5.33301C3.99967 2 3.33301 2.66667 3.33301 4V12C3.33301 13.3333 3.99967 14 5.33301 14H11.333C12.6663 14 13.333 13.3333 13.333 12V6.5H11.333ZM10.8883 8.19734C10.8883 8.53734 10.6703 8.80933 10.319 8.90667L8.70768 9.35667C8.59902 9.388 8.51839 9.51933 8.51839 9.66667V11.296C8.51839 12.052 7.90361 12.6667 7.14827 12.6667C6.39227 12.6667 5.77767 12.052 5.77767 11.296C5.77767 10.5407 6.39227 9.92601 7.14827 9.92601C7.40627 9.92601 7.64506 10.002 7.85173 10.1267V7.98666C7.85173 7.57666 8.1284 7.21 8.52507 7.09467L9.89974 6.70867C10.2531 6.60867 10.4823 6.70334 10.611 6.80067C10.737 6.89667 10.8883 7.088 10.8883 7.456V8.19734V8.19734ZM9.83301 4V2.5L12.833 5.5H11.333C10.2797 5.5 9.83301 5.05333 9.83301 4Z" fill="#3B3B3E"/>
</svg>
