<svg width="16" height="16" viewBox="0 0 16 16" fill="none" xmlns="http://www.w3.org/2000/svg">
<path d="M12 2H4C2.66667 2 2 2.66667 2 4V14L4 12H9.16471C9.32071 12 9.37133 11.8507 9.36133 11.774C9.342 11.6293 9.33398 11.4813 9.33398 11.3333C9.33398 9.49333 10.8273 8 12.6673 8C13.0387 8 13.3979 8.06137 13.7319 8.17204C13.8639 8.21604 14.0007 8.12534 14.0007 7.986V4C14 2.66667 13.3333 2 12 2ZM5.34668 7.66667C4.97868 7.66667 4.6766 7.368 4.6766 7C4.6766 6.632 4.97201 6.33333 5.34001 6.33333H5.34668C5.71535 6.33333 6.01335 6.632 6.01335 7C6.01335 7.368 5.71468 7.66667 5.34668 7.66667ZM8.01335 7.66667C7.64535 7.66667 7.34326 7.368 7.34326 7C7.34326 6.632 7.63867 6.33333 8.00667 6.33333H8.01335C8.38201 6.33333 8.68001 6.632 8.68001 7C8.68001 7.368 8.38135 7.66667 8.01335 7.66667ZM10.68 7.66667C10.312 7.66667 10.0099 7.368 10.0099 7C10.0099 6.632 10.3053 6.33333 10.6733 6.33333H10.68C11.0487 6.33333 11.3467 6.632 11.3467 7C11.3467 7.368 11.048 7.66667 10.68 7.66667ZM11.778 12.9447C11.65 12.9447 11.522 12.896 11.4246 12.798L10.3133 11.6867C10.118 11.492 10.118 11.1747 10.3133 10.9793C10.5086 10.784 10.8253 10.784 11.0207 10.9793L11.7786 11.7367L13.6473 9.868C13.8426 9.67267 14.1593 9.67267 14.3547 9.868C14.55 10.0633 14.55 10.38 14.3547 10.5754L12.1327 12.7974C12.034 12.8954 11.906 12.9447 11.778 12.9447Z" fill="#3B3B3E"/>
</svg>
