<svg width="16" height="16" viewBox="0 0 16 16" fill="none" xmlns="http://www.w3.org/2000/svg">
<path d="M14 3.33301C10.6667 2.66634 9.48138 2.07367 8.01204 1.33301C6.51871 2.07367 5.33333 2.66634 2 3.33301C2 4.09101 2 6.46762 2 7.25895C2 11.7036 5.778 13.9257 8 14.6663C10.222 13.9257 14 11.7036 14 7.25895C14 6.44228 14 4.12901 14 3.33301ZM8.01335 10.6663C7.64535 10.6663 7.34326 10.3677 7.34326 9.99967C7.34326 9.63167 7.63867 9.33301 8.00667 9.33301H8.01335C8.38201 9.33301 8.68001 9.63167 8.68001 9.99967C8.68001 10.3677 8.38135 10.6663 8.01335 10.6663ZM8.896 8.03369C8.532 8.27636 8.47864 8.397 8.47331 8.40967C8.39797 8.611 8.20338 8.7404 7.99805 8.7404C7.94338 8.7404 7.88864 8.73107 7.83464 8.7124C7.57797 8.6204 7.43871 8.34768 7.52604 8.08968C7.66071 7.69101 8.05596 7.39168 8.34196 7.20101C8.76729 6.91901 8.77194 6.63305 8.73861 6.44238C8.68661 6.14838 8.43529 5.89705 8.14063 5.84505C7.91396 5.80372 7.69138 5.86298 7.51872 6.00765C7.34805 6.15098 7.25065 6.36036 7.25065 6.58236C7.25065 6.85836 7.02665 7.08236 6.75065 7.08236C6.47465 7.08236 6.25065 6.85836 6.25065 6.58236C6.25065 6.06369 6.47864 5.57503 6.87598 5.2417C7.27331 4.90837 7.7953 4.76903 8.31397 4.8597C9.01997 4.9837 9.59931 5.56304 9.72331 6.26904C9.84597 6.97171 9.552 7.59769 8.896 8.03369Z" fill="#3B3B3E"/>
</svg>
