<svg width="16" height="16" viewBox="0 0 16 16" fill="none" xmlns="http://www.w3.org/2000/svg">
<path d="M2.20003 7.16699H7.29997C7.41063 7.16699 7.5 7.25636 7.5 7.36702V13.1336C7.5 13.2443 7.41063 13.3337 7.29997 13.3337H4C2.66667 13.3337 2 12.667 2 11.3337V7.36702C2 7.25636 2.08937 7.16699 2.20003 7.16699ZM12 2.66699H4C2.66667 2.66699 2 3.33366 2 4.66699V5.96696C2 6.07763 2.08937 6.16699 2.20003 6.16699H13.8C13.9106 6.16699 14 6.07763 14 5.96696V4.66699C14 3.33366 13.3333 2.66699 12 2.66699ZM8.5 7.36702V13.1336C8.5 13.2443 8.58937 13.3337 8.70003 13.3337H12C13.3333 13.3337 14 12.667 14 11.3337V7.36702C14 7.25636 13.9106 7.16699 13.8 7.16699H8.70003C8.58937 7.16699 8.5 7.25636 8.5 7.36702Z" fill="#3B3B3E"/>
</svg>
