<svg width="16" height="16" viewBox="0 0 16 16" fill="none" xmlns="http://www.w3.org/2000/svg">
<path d="M12 4.66699H8.66667L6.66667 2.66699H4C2.66667 2.66699 2 3.33366 2 4.66699V11.3337C2 12.667 2.66667 13.3337 4 13.3337H12C13.3333 13.3337 14 12.667 14 11.3337V6.66699C14 5.33366 13.3333 4.66699 12 4.66699ZM6.81331 11.667H5.33333V10.187L7.98665 7.52032L9.47998 9.01365L6.81331 11.667ZM10.4933 8.007L9.94661 8.547L8.45329 7.05365L8.99333 6.507C9.22666 6.27367 9.6 6.27367 9.83333 6.507L10.4933 7.16699C10.7267 7.40033 10.7267 7.77367 10.4933 8.007Z" fill="#3B3B3E"/>
</svg>
