<svg width="16" height="16" viewBox="0 0 16 16" fill="none" xmlns="http://www.w3.org/2000/svg">
<path d="M8 7.33301C7.63133 7.33301 7.33333 7.03434 7.33333 6.66634V1.99967C7.33333 1.63167 7.63133 1.33301 8 1.33301C8.36867 1.33301 8.66667 1.63167 8.66667 1.99967V6.66634C8.66667 7.03434 8.36867 7.33301 8 7.33301ZM14 8.66634C14 6.53701 12.8506 4.54571 11.002 3.47038C10.6833 3.28504 10.2753 3.39294 10.0907 3.71094C9.90532 4.0296 10.0134 4.43773 10.3314 4.6224C11.772 5.4604 12.6667 7.01034 12.6667 8.66634C12.6667 11.2397 10.5727 13.333 8 13.333C5.42733 13.333 3.33333 11.2397 3.33333 8.66634C3.33333 7.01034 4.22795 5.4604 5.66862 4.6224C5.98729 4.43773 6.09534 4.02894 5.90934 3.71094C5.72334 3.39294 5.31538 3.28371 4.99805 3.47038C3.14938 4.54638 2 6.53701 2 8.66634C2 11.9743 4.69133 14.6663 8 14.6663C11.3087 14.6663 14 11.9743 14 8.66634Z" fill="#3B3B3E"/>
</svg>
