<svg width="16" height="16" viewBox="0 0 16 16" fill="none" xmlns="http://www.w3.org/2000/svg">
<path d="M14 11.9997C14 12.3677 13.702 12.6663 13.3333 12.6663H2.66667C2.298 12.6663 2 12.3677 2 11.9997C2 11.6317 2.298 11.333 2.66667 11.333H13.3333C13.702 11.333 14 11.6317 14 11.9997ZM4.66667 8.66634H11.3333C11.702 8.66634 12 8.36767 12 7.99967C12 7.63167 11.702 7.33301 11.3333 7.33301H4.66667C4.298 7.33301 4 7.63167 4 7.99967C4 8.36767 4.298 8.66634 4.66667 8.66634ZM6.66667 4.66634H9.33333C9.702 4.66634 10 4.36767 10 3.99967C10 3.63167 9.702 3.33301 9.33333 3.33301H6.66667C6.298 3.33301 6 3.63167 6 3.99967C6 4.36767 6.298 4.66634 6.66667 4.66634Z" fill="#3B3B3E"/>
</svg>
