<svg width="16" height="16" viewBox="0 0 16 16" fill="none" xmlns="http://www.w3.org/2000/svg">
<path d="M11.3337 2H4.66699C3.33366 2 2.66699 2.66667 2.66699 4V12.414C2.66699 12.9633 3.29431 13.2767 3.73364 12.9473L4.63965 12.268C5.03765 11.9693 5.59502 12.0093 5.94702 12.3607L7.29297 13.7067C7.68364 14.0973 8.31703 14.0973 8.70703 13.7067L10.053 12.3607C10.405 12.0087 10.9624 11.9693 11.3604 12.268L12.2664 12.9473C12.7057 13.2767 13.333 12.9633 13.333 12.414V4C13.3337 2.66667 12.667 2 11.3337 2ZM6.34033 5H6.34701C6.71567 5 7.01367 5.29867 7.01367 5.66667C7.01367 6.03467 6.71567 6.33333 6.34701 6.33333C5.97901 6.33333 5.677 6.03467 5.677 5.66667C5.677 5.29867 5.97233 5 6.34033 5ZM6.68701 9.35333C6.58968 9.45067 6.46166 9.5 6.33366 9.5C6.20566 9.5 6.07764 9.45133 5.98031 9.35333C5.78497 9.158 5.78497 8.84133 5.98031 8.646L9.31364 5.31266C9.50897 5.11733 9.82566 5.11733 10.021 5.31266C10.2163 5.508 10.2163 5.82467 10.021 6.02L6.68701 9.35333ZM9.68034 9.66667C9.31234 9.66667 9.01034 9.368 9.01034 9C9.01034 8.632 9.30567 8.33333 9.67367 8.33333H9.68034C10.049 8.33333 10.347 8.632 10.347 9C10.347 9.368 10.0483 9.66667 9.68034 9.66667Z" fill="#3B3B3E"/>
</svg>
