<svg width="16" height="16" viewBox="0 0 16 16" fill="none" xmlns="http://www.w3.org/2000/svg">
<path d="M8 2C6.58667 2 5.3533 2.53333 4.46663 3.5C3.58663 4.47333 3.06006 5.87998 3.06006 7.64665V10.8C3.06006 10.9106 3.14926 11 3.25993 11H12.7401C12.8507 11 12.9399 10.9106 12.9399 10.8V7.64665C12.9399 4.11998 10.8267 2 8 2ZM8 5.00732C6.99133 5.00732 6.17273 5.7633 6.09473 6.7653C6.07406 7.0273 5.85535 7.22607 5.59668 7.22607C5.58335 7.22607 5.57064 7.22594 5.55664 7.22461C5.28131 7.20328 5.07533 6.96267 5.09733 6.68734C5.21733 5.15934 6.46467 4.00732 8 4.00732C8.276 4.00732 8.5 4.23132 8.5 4.50732C8.5 4.78332 8.276 5.00732 8 5.00732ZM2 13C2 12.448 2.448 12 3 12H13.0007C13.5527 12 14 12.4473 14 12.9993V14H2V13Z" fill="#3B3B3E"/>
</svg>
