<svg width="16" height="16" viewBox="0 0 16 16" fill="none" xmlns="http://www.w3.org/2000/svg">
<path d="M10.6521 2.66703C8.66679 2.6577 8.00011 4.65905 8.00011 4.65905C8.00011 4.65905 7.33344 2.65703 5.34744 2.66703C2.68077 2.68036 1.63274 5.16975 2.11274 7.64375C2.89474 11.6771 8.00011 14.0004 8.00011 14.0004C8.00011 14.0004 13.1048 11.6771 13.8875 7.64375C14.3668 5.16975 13.3241 2.68036 10.6521 2.66703ZM11.3334 8.8337H10.2674L9.08279 10.611C8.98879 10.751 8.83277 10.8337 8.66677 10.8337C8.64477 10.8337 8.62279 10.8323 8.60012 10.829C8.41079 10.8036 8.25275 10.6731 8.19208 10.4917L7.18207 7.46163L6.41612 8.61104C6.32346 8.74971 6.16744 8.8337 6.00011 8.8337H4.66677C4.39077 8.8337 4.16677 8.6097 4.16677 8.3337C4.16677 8.0577 4.39077 7.8337 4.66677 7.8337H5.73277L6.91743 6.05635C7.02343 5.89702 7.21142 5.81108 7.40009 5.83842C7.58942 5.86375 7.74746 5.99432 7.80813 6.17566L8.81814 9.20577L9.58409 8.05635C9.67676 7.91769 9.83277 7.8337 10.0001 7.8337H11.3334C11.6094 7.8337 11.8334 8.0577 11.8334 8.3337C11.8334 8.6097 11.6094 8.8337 11.3334 8.8337Z" fill="#3B3B3E"/>
</svg>
