<svg width="16" height="16" viewBox="0 0 16 16" fill="none" xmlns="http://www.w3.org/2000/svg">
<path d="M10.3597 11.0266C10.1904 11.0266 10.0204 10.9625 9.89103 10.8338C9.62903 10.5745 9.62699 10.1531 9.88566 9.89114C10.389 9.38247 10.6663 8.71053 10.6663 7.99986C10.6663 7.2892 10.389 6.61725 9.88566 6.10859C9.62633 5.84659 9.62903 5.42521 9.89103 5.16588C10.1524 4.90655 10.575 4.90992 10.8337 5.17125C11.5857 5.93125 11.9997 6.93586 11.9997 7.99986C11.9997 9.06386 11.5857 10.0685 10.8337 10.8285C10.7037 10.9605 10.5317 11.0266 10.3597 11.0266ZM6.10832 10.8338C6.37032 10.5745 6.37235 10.1531 6.11369 9.89114C5.61035 9.38247 5.33301 8.71053 5.33301 7.99986C5.33301 7.2892 5.61035 6.61725 6.11369 6.10859C6.37302 5.84659 6.37032 5.42521 6.10832 5.16588C5.84698 4.90655 5.42436 4.90992 5.16569 5.17125C4.41369 5.93125 3.99967 6.93586 3.99967 7.99986C3.99967 9.06386 4.41369 10.0685 5.16569 10.8285C5.29569 10.9605 5.46765 11.0266 5.63965 11.0266C5.80898 11.0266 5.97898 10.9625 6.10832 10.8338ZM12.9543 12.4471C14.0583 11.2271 14.6663 9.64786 14.6663 7.99986C14.6663 6.35186 14.0583 4.77193 12.9543 3.5526C12.7077 3.27993 12.2857 3.25855 12.013 3.50589C11.7397 3.75322 11.719 4.17461 11.9663 4.44794C12.8476 5.42128 13.3337 6.68318 13.3337 8.00051C13.3337 9.31785 12.8476 10.5792 11.9663 11.5532C11.719 11.8266 11.7397 12.2478 12.013 12.4951C12.1404 12.6105 12.301 12.6678 12.4604 12.6678C12.6417 12.6665 12.8223 12.5925 12.9543 12.4471ZM3.98633 12.4938C4.25966 12.2465 4.28037 11.8251 4.03304 11.5518C3.15171 10.5785 2.66569 9.31655 2.66569 7.99921C2.66569 6.68188 3.15171 5.42048 4.03304 4.44648C4.28037 4.17314 4.25966 3.75192 3.98633 3.50458C3.71366 3.25725 3.29167 3.27847 3.045 3.55113C1.941 4.77113 1.33301 6.35056 1.33301 7.99856C1.33301 9.64656 1.941 11.2265 3.045 12.4458C3.17634 12.5912 3.35765 12.6652 3.53898 12.6652C3.69898 12.6666 3.85899 12.6098 3.98633 12.4938ZM7.99967 6.99986C7.44834 6.99986 6.99967 7.44853 6.99967 7.99986C6.99967 8.5512 7.44834 8.99986 7.99967 8.99986C8.55101 8.99986 8.99967 8.5512 8.99967 7.99986C8.99967 7.44853 8.55101 6.99986 7.99967 6.99986Z" fill="#3B3B3E"/>
</svg>
