<svg width="16" height="16" viewBox="0 0 16 16" fill="none" xmlns="http://www.w3.org/2000/svg">
<path fill-rule="evenodd" clip-rule="evenodd" d="M5.16634 2C5.16634 1.724 5.39034 1.5 5.66634 1.5H9.66634C9.94234 1.5 10.1663 1.724 10.1663 2C10.1663 2.276 9.94234 2.5 9.66634 2.5H5.66634C5.39034 2.5 5.16634 2.276 5.16634 2ZM9.66634 13.5H5.66634C5.39034 13.5 5.16634 13.724 5.16634 14C5.16634 14.276 5.39034 14.5 5.66634 14.5H9.66634C9.94234 14.5 10.1663 14.276 10.1663 14C10.1663 13.724 9.94234 13.5 9.66634 13.5ZM13.1663 7.83333C13.1663 8.10667 12.9463 8.33333 12.6663 8.33333H11.9997V10.3333C11.9997 11.6667 11.333 12.3333 9.99967 12.3333H5.33301C3.99967 12.3333 3.33301 11.6667 3.33301 10.3333V5.66667C3.33301 4.33333 3.99967 3.66667 5.33301 3.66667H9.99967C11.333 3.66667 11.9997 4.33333 11.9997 5.66667V7.33333H12.6663C12.9463 7.33333 13.1663 7.56 13.1663 7.83333ZM9.29964 8.59994L8.16634 7.75V5.66667C8.16634 5.39067 7.94234 5.16667 7.66634 5.16667C7.39034 5.16667 7.16634 5.39067 7.16634 5.66667V8C7.16634 8.15733 7.24037 8.3054 7.36637 8.40007L8.69971 9.40007C8.78971 9.4674 8.89502 9.5 8.99902 9.5C9.15169 9.5 9.30174 9.43063 9.39974 9.29997C9.56574 9.0793 9.52031 8.76527 9.29964 8.59994Z" fill="#3B3B3E"/>
</svg>
