<svg width="16" height="16" viewBox="0 0 16 16" fill="none" xmlns="http://www.w3.org/2000/svg">
<path d="M8.5 3.33301V1.83301L11.5 4.83301H10C8.94667 4.83301 8.5 4.38634 8.5 3.33301ZM8.49333 13.0663C8.53333 13.1997 8.43997 13.333 8.30664 13.333H4C2.66667 13.333 2 12.6663 2 11.333V3.33301C2 1.99967 2.66667 1.33301 4 1.33301H7.5V3.33301C7.5 4.94634 8.38667 5.83301 10 5.83301H12V8.13967C12 8.24634 11.9133 8.33301 11.8066 8.33968C9.87997 8.43968 8.33333 10.0463 8.33333 11.9997C8.33333 12.373 8.38666 12.733 8.49333 13.0663ZM5.16667 9.99967C5.16667 9.72367 4.94267 9.49967 4.66667 9.49967C4.39067 9.49967 4.16667 9.72367 4.16667 9.99967C4.16667 10.2757 4.39067 10.4997 4.66667 10.4997C4.94267 10.4997 5.16667 10.2757 5.16667 9.99967ZM5.16667 7.33301C5.16667 7.05701 4.94267 6.83301 4.66667 6.83301C4.39067 6.83301 4.16667 7.05701 4.16667 7.33301C4.16667 7.60901 4.39067 7.83301 4.66667 7.83301C4.94267 7.83301 5.16667 7.60901 5.16667 7.33301ZM7.83333 9.99967C7.83333 9.72367 7.60933 9.49967 7.33333 9.49967H6.33333C6.05733 9.49967 5.83333 9.72367 5.83333 9.99967C5.83333 10.2757 6.05733 10.4997 6.33333 10.4997H7.33333C7.60933 10.4997 7.83333 10.2757 7.83333 9.99967ZM9.33333 7.83301C9.60933 7.83301 9.83333 7.60901 9.83333 7.33301C9.83333 7.05701 9.60933 6.83301 9.33333 6.83301H6.33333C6.05733 6.83301 5.83333 7.05701 5.83333 7.33301C5.83333 7.60901 6.05733 7.83301 6.33333 7.83301H9.33333ZM14.6667 11.9997C14.6667 13.4723 13.4727 14.6663 12 14.6663C10.5273 14.6663 9.33333 13.4723 9.33333 11.9997C9.33333 10.527 10.5273 9.33301 12 9.33301C13.4727 9.33301 14.6667 10.527 14.6667 11.9997ZM13.1667 11.9997C13.1667 11.8157 13.0173 11.6663 12.8333 11.6663H11.1667C10.9827 11.6663 10.8333 11.8157 10.8333 11.9997C10.8333 12.1837 10.9827 12.333 11.1667 12.333H12.8333C13.0173 12.333 13.1667 12.1837 13.1667 11.9997Z" fill="#3B3B3E"/>
</svg>
