<svg width="16" height="16" viewBox="0 0 16 16" fill="none" xmlns="http://www.w3.org/2000/svg">
<path d="M9.83301 4V2.5L12.833 5.5H11.333C10.2797 5.5 9.83301 5.05333 9.83301 4ZM13.333 6.5V12C13.333 13.3333 12.6663 14 11.333 14H5.33301C3.99967 14 3.33301 13.3333 3.33301 12V4C3.33301 2.66667 3.99967 2 5.33301 2H8.83301V4C8.83301 5.61333 9.71967 6.5 11.333 6.5H13.333ZM9.81299 9.68L8.31966 8.18667L5.66634 10.8533V12.3333H7.14632L9.81299 9.68ZM10.8263 7.83333L10.1663 7.17333C9.93301 6.94 9.55967 6.94 9.32633 7.17333L8.7863 7.72L10.2796 9.21334L10.8263 8.67333C11.0597 8.44 11.0597 8.06667 10.8263 7.83333Z" fill="#3B3B3E"/>
</svg>
