<svg width="16" height="16" viewBox="0 0 16 16" fill="none" xmlns="http://www.w3.org/2000/svg">
<path d="M14.3863 4.79301C14.233 4.21968 13.7797 3.76634 13.2063 3.61301C12.1663 3.33301 7.99967 3.33301 7.99967 3.33301C7.99967 3.33301 3.83301 3.33301 2.79301 3.61301C2.21968 3.76634 1.76635 4.21968 1.61302 4.79301C1.33302 5.83301 1.33301 8.00634 1.33301 8.00634C1.33301 8.00634 1.33302 10.1797 1.61302 11.2197C1.76635 11.793 2.21968 12.2263 2.79301 12.3797C3.83301 12.6597 7.99967 12.6597 7.99967 12.6597C7.99967 12.6597 12.1663 12.6597 13.2063 12.3797C13.7797 12.2263 14.233 11.793 14.3863 11.2197C14.6663 10.1797 14.6663 8.00634 14.6663 8.00634C14.6663 8.00634 14.6663 5.83301 14.3863 4.79301ZM6.66634 9.99967V5.99967L9.99967 7.99967L6.66634 9.99967Z" fill="#3B3B3E"/>
</svg>
