<svg width="16" height="16" viewBox="0 0 16 16" fill="none" xmlns="http://www.w3.org/2000/svg">
<path d="M7.99967 1.33301C4.31767 1.33301 1.33301 4.31767 1.33301 7.99967C1.33301 11.6817 4.31767 14.6663 7.99967 14.6663C11.6817 14.6663 14.6663 11.6817 14.6663 7.99967C14.6663 4.31767 11.6817 1.33301 7.99967 1.33301ZM4.20426 7.19108C4.1276 7.00441 4.16965 6.78899 4.31299 6.64632L6.31299 4.64632C6.50832 4.45099 6.82501 4.45099 7.02034 4.64632C7.21568 4.84165 7.21568 5.15834 7.02034 5.35368L5.8737 6.50033H9.99967C10.2757 6.50033 10.4997 6.72433 10.4997 7.00033C10.4997 7.27633 10.2757 7.50033 9.99967 7.50033H4.66634C4.46367 7.49966 4.2816 7.37775 4.20426 7.19108ZM11.6864 9.35303L9.68636 11.353C9.58903 11.4504 9.46101 11.4997 9.33301 11.4997C9.20501 11.4997 9.07699 11.451 8.97965 11.353C8.78432 11.1577 8.78432 10.841 8.97965 10.6457L10.1263 9.49902H5.99967C5.72367 9.49902 5.49967 9.27502 5.49967 8.99902C5.49967 8.72302 5.72367 8.49902 5.99967 8.49902H11.333C11.5357 8.49902 11.7178 8.62095 11.7951 8.80762C11.8724 8.99495 11.8297 9.21036 11.6864 9.35303Z" fill="#3B3B3E"/>
</svg>
