<svg width="16" height="16" viewBox="0 0 16 16" fill="none" xmlns="http://www.w3.org/2000/svg">
<path d="M13.1992 4.60059L11.4085 5.93392C11.3512 5.97659 11.2812 6 11.2092 6H4.99985C4.33318 6 3.99985 5.66667 3.99985 5V3.66667C3.99985 3 4.33318 2.66667 4.99985 2.66667H7.49985V2C7.49985 1.72667 7.72651 1.5 7.99985 1.5C8.27318 1.5 8.49985 1.72667 8.49985 2V2.66667H11.2092C11.2812 2.66667 11.3505 2.69008 11.4085 2.73275L13.1992 4.06608C13.3778 4.19941 13.3778 4.46725 13.1992 4.60059ZM10.9998 8H8.49985V7H7.49985V8H4.79052C4.71852 8 4.64918 8.02341 4.59118 8.06608L2.80052 9.39941C2.62118 9.53275 2.62118 9.80059 2.80052 9.93392L4.59118 11.2673C4.64851 11.3099 4.71852 11.3333 4.79052 11.3333H7.49985V13.5H5.99985C5.72385 13.5 5.49985 13.724 5.49985 14C5.49985 14.276 5.72385 14.5 5.99985 14.5H9.99985C10.2758 14.5 10.4998 14.276 10.4998 14C10.4998 13.724 10.2758 13.5 9.99985 13.5H8.49985V11.3333H10.9998C11.6665 11.3333 11.9998 11 11.9998 10.3333V9C11.9998 8.33333 11.6665 8 10.9998 8Z" fill="#3B3B3E"/>
</svg>
