<svg width="16" height="16" viewBox="0 0 16 16" fill="none" xmlns="http://www.w3.org/2000/svg">
<path d="M6.5 2C6.5 1.72667 6.72667 1.5 7 1.5H9C9.27333 1.5 9.5 1.72667 9.5 2C9.5 2.27333 9.27333 2.5 9 2.5H7C6.72667 2.5 6.5 2.27333 6.5 2ZM14 6.5H13.3067L13.3867 7.14C13.6467 7.24 13.8333 7.38667 13.9467 7.52C14.2533 7.86 14.38 8.34667 14.3133 8.87333L14.0533 10.9533C13.96 11.7067 13.72 12.54 12.8333 12.86V14C12.8333 14.2733 12.6067 14.5 12.3333 14.5C12.06 14.5 11.8333 14.2733 11.8333 14V13H4.16667V14C4.16667 14.2733 3.94 14.5 3.66667 14.5C3.39333 14.5 3.16667 14.2733 3.16667 14V12.86C2.28 12.54 2.04 11.7067 1.94667 10.9533L1.68667 8.87333C1.62 8.34667 1.74667 7.86 2.05333 7.52C2.16667 7.38667 2.35333 7.24 2.61333 7.14L2.69333 6.5H2C1.72667 6.5 1.5 6.27333 1.5 6C1.5 5.72667 1.72667 5.5 2 5.5H2.82L2.89333 4.94C3.05333 3.94667 3.24 2.83333 5.36 2.83333H10.64C12.76 2.83333 12.9467 3.94667 13.1067 4.92667L13.18 5.5H14C14.2733 5.5 14.5 5.72667 14.5 6C14.5 6.27333 14.2733 6.5 14 6.5V6.5ZM4.83333 10C4.83333 9.86667 4.78 9.74 4.68667 9.64667C4.64 9.6 4.58667 9.56 4.52667 9.54C4.4 9.48667 4.26667 9.48667 4.14 9.54C4.08 9.56667 4.02667 9.6 3.98 9.64667C3.93333 9.69333 3.9 9.74667 3.87333 9.80667C3.84667 9.86667 3.83333 9.93333 3.83333 10C3.83333 10.0667 3.84667 10.1267 3.87333 10.1933C3.9 10.2533 3.93333 10.3067 3.98 10.3533C4.07333 10.4467 4.2 10.5 4.33333 10.5C4.4 10.5 4.46667 10.4867 4.52667 10.46C4.58667 10.4333 4.64 10.4 4.68667 10.3533C4.73333 10.3067 4.76667 10.2533 4.79334 10.1933C4.82 10.1267 4.83333 10.0667 4.83333 10V10ZM10.1667 10C10.1667 9.72667 9.94 9.5 9.66667 9.5H6.33333C6.06 9.5 5.83333 9.72667 5.83333 10C5.83333 10.2733 6.06 10.5 6.33333 10.5H9.66667C9.94 10.5 10.1667 10.2733 10.1667 10ZM12.1667 10C12.1667 9.86667 12.1133 9.74 12.02 9.64667C11.8333 9.46 11.5 9.46 11.3133 9.64667C11.22 9.74 11.1667 9.86667 11.1667 10C11.1667 10.0667 11.18 10.1333 11.2067 10.1933C11.2333 10.2533 11.2667 10.3067 11.3133 10.3533C11.4067 10.4467 11.54 10.5 11.6667 10.5C11.8 10.5 11.9267 10.4467 12.02 10.3533C12.0667 10.3067 12.1 10.2533 12.1267 10.1933C12.1533 10.1333 12.1667 10.0667 12.1667 10ZM12.3667 7L12.12 5.07333C11.9667 4.14667 11.9133 3.83333 10.64 3.83333H5.36C4.08667 3.83333 4.03333 4.14667 3.88 5.08667L3.63333 7H12.3667Z" fill="#3B3B3E"/>
</svg>
