<svg width="16" height="16" viewBox="0 0 16 16" fill="none" xmlns="http://www.w3.org/2000/svg">
<path d="M12.1534 7.82635H11.4867C11.4867 7.53969 11.6667 7.41968 11.8267 7.41968C11.9867 7.41968 12.1534 7.53302 12.1534 7.82635ZM9.68001 7.46635C9.53335 7.46635 9.44 7.51968 9.37333 7.59302V8.55302C9.44 8.61969 9.52668 8.67301 9.68001 8.67301C9.92001 8.67301 10.08 8.41301 10.08 8.06634C10.08 7.71968 9.92001 7.46635 9.68001 7.46635ZM14 5.33301V10.6663C14 11.9997 13.3333 12.6663 12 12.6663H4C2.66667 12.6663 2 11.9997 2 10.6663V5.33301C2 3.99967 2.66667 3.33301 4 3.33301H12C13.3333 3.33301 14 3.99967 14 5.33301ZM5.06669 8.50635C5.06669 7.73968 4.08667 7.87968 4.08667 7.58634C4.08667 7.48634 4.18002 7.44635 4.31335 7.44635C4.54002 7.44635 4.75333 7.50635 4.95333 7.61302V7.00635C4.74 6.91968 4.52669 6.88635 4.31335 6.88635C3.79335 6.88635 3.43335 7.15968 3.43335 7.61302C3.43335 8.32635 4.41333 8.21301 4.41333 8.51967C4.41333 8.63967 4.32001 8.67301 4.17334 8.67301C3.96001 8.67301 3.69335 8.58635 3.47335 8.46635V9.07967C3.69335 9.173 3.93334 9.22634 4.17334 9.22634C4.70667 9.22634 5.06669 8.95967 5.06669 8.49967V8.50635ZM6.32666 6.93302H5.83333V6.37968L5.20667 6.51302V8.57302C5.20667 8.57302 5.20667 8.59301 5.20667 8.60634C5.22 8.96634 5.51333 9.24634 5.87333 9.23301C6.08667 9.23301 6.23999 9.19301 6.32666 9.14634V8.61969C6.24666 8.65302 5.84001 8.77301 5.84001 8.39301V7.47968H6.32666V6.92635V6.93302ZM7.69336 6.93302C7.60669 6.90636 7.28667 6.84634 7.12667 7.12634L7.10669 6.93302H6.52669V9.19301H7.17334V7.65969C7.33334 7.45969 7.61336 7.49968 7.69336 7.52635V6.93302ZM8.49333 6.93302H7.84668V9.19301H8.49333V6.93302ZM8.49333 6.05967L7.84668 6.19301V6.71969L8.49333 6.57967V6.05302V6.05967ZM10.72 8.04635C10.72 7.29301 10.2933 6.88635 9.84001 6.88635C9.65334 6.88635 9.47333 6.95968 9.33333 7.08634L9.32003 6.92635H8.73336V9.92635L9.38001 9.79301V9.06634C9.47334 9.13301 9.61333 9.22634 9.83333 9.22634C10.2933 9.22634 10.7133 8.85301 10.7133 8.03967L10.72 8.04635ZM12.7667 8.05967C12.7667 7.39967 12.4467 6.88635 11.8333 6.88635C11.22 6.88635 10.8467 7.40634 10.8467 8.05967C10.8467 8.83967 11.2867 9.22634 11.9133 9.22634C12.16 9.23967 12.4133 9.17969 12.6267 9.05302V8.53302C12.4533 8.62635 12.2467 8.67969 11.9933 8.67969C11.74 8.67969 11.52 8.57968 11.4933 8.27968H12.7533C12.7533 8.24635 12.76 8.11301 12.76 8.04635L12.7667 8.05967Z" fill="#3B3B3E"/>
</svg>
