<svg width="16" height="16" viewBox="0 0 16 16" fill="none" xmlns="http://www.w3.org/2000/svg">
<path d="M11.8049 8.47187L9.13821 11.1385C9.00821 11.2685 8.83752 11.3338 8.66685 11.3338C8.49619 11.3338 8.3255 11.2685 8.1955 11.1385C7.93483 10.8779 7.93483 10.4565 8.1955 10.1958L10.3908 8.00051L8.1955 5.8052C7.93483 5.54453 7.93483 5.12316 8.1955 4.86249C8.45617 4.60183 8.87754 4.60183 9.13821 4.86249L11.8049 7.52916C12.0655 7.78983 12.0655 8.2112 11.8049 8.47187ZM7.80487 7.52916L5.13821 4.86249C4.87754 4.60183 4.45617 4.60183 4.1955 4.86249C3.93483 5.12316 3.93483 5.54453 4.1955 5.8052L6.39081 8.00051L4.1955 10.1958C3.93483 10.4565 3.93483 10.8779 4.1955 11.1385C4.3255 11.2685 4.49619 11.3338 4.66685 11.3338C4.83752 11.3338 5.00821 11.2685 5.13821 11.1385L7.80487 8.47187C8.06554 8.2112 8.06554 7.78983 7.80487 7.52916Z" fill="#3B3B3E"/>
</svg>
