<svg width="16" height="16" viewBox="0 0 16 16" fill="none" xmlns="http://www.w3.org/2000/svg">
<path d="M7.99967 1.33301C4.31967 1.33301 1.33301 4.31967 1.33301 7.99967C1.33301 11.6797 4.31967 14.6663 7.99967 14.6663C11.6797 14.6663 14.6663 11.6797 14.6663 7.99967C14.6663 4.31967 11.6797 1.33301 7.99967 1.33301ZM5.98634 7.83301C5.50634 7.83301 5.153 7.33967 5.153 6.66634C5.153 5.99301 5.50634 5.49967 5.98634 5.49967C6.46634 5.49967 6.81967 5.99301 6.81967 6.66634C6.81967 7.33967 6.46634 7.83301 5.98634 7.83301ZM9.98634 7.83301C9.50634 7.83301 9.153 7.33967 9.153 6.66634C9.153 5.99301 9.50634 5.49967 9.98634 5.49967C10.4663 5.49967 10.8197 5.99301 10.8197 6.66634C10.8197 7.33967 10.4663 7.83301 9.98634 7.83301Z" fill="#3B3B3E"/>
</svg>
