<svg width="16" height="16" viewBox="0 0 16 16" fill="none" xmlns="http://www.w3.org/2000/svg">
<path d="M11.333 2.66602H3.33301C1.99967 2.66602 1.33301 3.33268 1.33301 4.66602V9.99935C1.33301 11.3327 1.99967 11.9993 3.33301 11.9993H8.30634C8.413 11.9993 8.50634 11.906 8.49967 11.7927C8.49967 11.6927 8.49968 11.5927 8.50635 11.486C8.60635 9.706 9.92633 8.16603 11.6797 7.88603C12.173 7.80603 12.6464 7.81268 13.093 7.91268C13.213 7.93935 13.333 7.85269 13.333 7.71936V4.66602C13.333 3.33268 12.6663 2.66602 11.333 2.66602ZM3.33301 7.99935C2.96634 7.99935 2.66634 7.69935 2.66634 7.33268C2.66634 6.96602 2.96634 6.66602 3.33301 6.66602C3.69967 6.66602 3.99967 6.96602 3.99967 7.33268C3.99967 7.69935 3.69967 7.99935 3.33301 7.99935ZM7.33301 9.33268C6.22634 9.33268 5.33301 8.43935 5.33301 7.33268C5.33301 6.22602 6.22634 5.33268 7.33301 5.33268C8.43967 5.33268 9.33301 6.22602 9.33301 7.33268C9.33301 8.43935 8.43967 9.33268 7.33301 9.33268ZM12.333 8.83268C10.773 8.83268 9.49967 10.106 9.49967 11.666C9.49967 13.226 10.773 14.4993 12.333 14.4993C13.893 14.4993 15.1663 13.226 15.1663 11.666C15.1663 10.106 13.893 8.83268 12.333 8.83268ZM10.4997 11.666C10.4997 10.6527 11.3197 9.83268 12.333 9.83268C12.6597 9.83268 12.953 9.92601 13.2197 10.0727L10.7397 12.5527C10.593 12.286 10.4997 11.9927 10.4997 11.666ZM12.333 13.4993C12.0063 13.4993 11.713 13.406 11.4463 13.2594L13.9264 10.7793C14.073 11.046 14.1663 11.3393 14.1663 11.666C14.1663 12.6793 13.3463 13.4993 12.333 13.4993Z" fill="#3B3B3E"/>
</svg>
