<svg width="16" height="16" viewBox="0 0 16 16" fill="none" xmlns="http://www.w3.org/2000/svg">
<path d="M14.6663 13.5H14.333V7.33333C14.333 6.52133 13.9584 6.07861 13.2144 6.00928C13.0997 5.99861 12.9997 6.09674 12.9997 6.21208V13.5H11.9997V4C11.9997 2.66667 11.333 2 9.99967 2H5.99967C4.66634 2 3.99967 2.66667 3.99967 4V13.5H2.99967V6.21208C2.99967 6.09674 2.89966 5.99861 2.78499 6.00928C2.04099 6.07861 1.66634 6.52133 1.66634 7.33333V13.5H1.33301C1.05701 13.5 0.833008 13.724 0.833008 14C0.833008 14.276 1.05701 14.5 1.33301 14.5H14.6663C14.9423 14.5 15.1663 14.276 15.1663 14C15.1663 13.724 14.9423 13.5 14.6663 13.5ZM6.49967 4.66667C6.49967 4.39067 6.72367 4.16667 6.99967 4.16667C7.27567 4.16667 7.49967 4.39067 7.49967 4.66667V5.5H8.49967V4.66667C8.49967 4.39067 8.72367 4.16667 8.99967 4.16667C9.27567 4.16667 9.49967 4.39067 9.49967 4.66667V7.33333C9.49967 7.60933 9.27567 7.83333 8.99967 7.83333C8.72367 7.83333 8.49967 7.60933 8.49967 7.33333V6.5H7.49967V7.33333C7.49967 7.60933 7.27567 7.83333 6.99967 7.83333C6.72367 7.83333 6.49967 7.60933 6.49967 7.33333V4.66667ZM6.66634 11.3333C6.66634 10.5973 7.26367 10 7.99967 10C8.73567 10 9.33301 10.5973 9.33301 11.3333V13.5H6.66634V11.3333Z" fill="#3B3B3E"/>
</svg>
