<svg width="16" height="16" viewBox="0 0 16 16" fill="none" xmlns="http://www.w3.org/2000/svg">
<path d="M14.5 13.3337C14.5 13.6137 14.2733 13.8337 14 13.8337H10C9.72667 13.8337 9.5 13.6137 9.5 13.3337V10.0003C9.5 9.17366 8.82667 8.50033 8 8.50033C7.17333 8.50033 6.5 9.17366 6.5 10.0003V13.3337C6.5 13.6137 6.27333 13.8337 6 13.8337H2C1.72667 13.8337 1.5 13.6137 1.5 13.3337C1.5 13.0603 1.72667 12.8337 2 12.8337H3.33333V6.53369C3.33333 6.42302 3.4227 6.33366 3.53337 6.33366H12.4666C12.5773 6.33366 12.6667 6.42302 12.6667 6.53369V12.8337H14C14.2733 12.8337 14.5 13.0603 14.5 13.3337ZM2.66667 5.33366H13.3333C13.778 5.33366 14 5.11166 14 4.66699V3.33366C14 2.88899 13.778 2.66699 13.3333 2.66699H2.66667C2.222 2.66699 2 2.88899 2 3.33366V4.66699C2 5.11166 2.222 5.33366 2.66667 5.33366Z" fill="#3B3B3E"/>
</svg>
