<svg width="16" height="16" viewBox="0 0 16 16" fill="none" xmlns="http://www.w3.org/2000/svg">
<path d="M14 7.55991V12.6665C14 13.5532 13.5533 13.9999 12.6667 13.9999H11.8667C11.756 13.9999 11.6667 13.9105 11.6667 13.7998V6.47984C11.6667 6.3465 11.7867 6.25314 11.9133 6.28648L13.22 6.58644C13.68 6.68644 14 7.09325 14 7.55991ZM10.6667 4.53989V13.7998C10.6667 13.9105 10.5773 13.9999 10.4666 13.9999C10.4666 13.9999 7.90937 13.9999 7.8667 13.9999C7.75337 13.9999 7.66667 13.8998 7.66667 13.8065C7.66667 13.7198 7.66667 11.3332 7.66667 11.3332C7.66667 10.5999 7.06667 9.99985 6.33333 9.99985C5.6 9.99985 5 10.5999 5 11.3332C5 11.3332 5 13.6932 5 13.7998C5 13.9065 4.89999 13.9999 4.81999 13.9999C4.73332 13.9999 3.33333 13.9999 3.33333 13.9999C2.44667 13.9999 2 13.5532 2 12.6665V2.99985C2 2.35985 2.59998 1.87988 3.22664 2.02655L9.89331 3.56659C10.3466 3.66659 10.6667 4.07323 10.6667 4.53989ZM5.83333 7.99985C5.83333 7.72652 5.60667 7.49985 5.33333 7.49985H4.66667C4.39333 7.49985 4.16667 7.72652 4.16667 7.99985C4.16667 8.27319 4.39333 8.49985 4.66667 8.49985H5.33333C5.60667 8.49985 5.83333 8.27319 5.83333 7.99985ZM5.83333 5.99985C5.83333 5.72652 5.60667 5.49985 5.33333 5.49985H4.66667C4.39333 5.49985 4.16667 5.72652 4.16667 5.99985C4.16667 6.27319 4.39333 6.49985 4.66667 6.49985H5.33333C5.60667 6.49985 5.83333 6.27319 5.83333 5.99985ZM8.5 7.99985C8.5 7.72652 8.27333 7.49985 8 7.49985H7.33333C7.06 7.49985 6.83333 7.72652 6.83333 7.99985C6.83333 8.27319 7.06 8.49985 7.33333 8.49985H8C8.27333 8.49985 8.5 8.27319 8.5 7.99985ZM8.5 5.99985C8.5 5.72652 8.27333 5.49985 8 5.49985H7.33333C7.06 5.49985 6.83333 5.72652 6.83333 5.99985C6.83333 6.27319 7.06 6.49985 7.33333 6.49985H8C8.27333 6.49985 8.5 6.27319 8.5 5.99985Z" fill="#3B3B3E"/>
</svg>
