<svg width="16" height="16" viewBox="0 0 16 16" fill="none" xmlns="http://www.w3.org/2000/svg">
<path d="M13.8933 8.87968L12.18 12.2997C12.0667 12.5263 11.8333 12.6663 11.5867 12.6663H9.87333C9.62667 12.6663 9.46667 12.4063 9.57333 12.1863L11.3333 8.66634H9.66667C9.11333 8.66634 8.66667 8.21967 8.66667 7.66634V4.33301C8.66667 3.77967 9.11333 3.33301 9.66667 3.33301H13C13.5533 3.33301 14 3.77967 14 4.33301V8.433C14 8.58634 13.9667 8.73968 13.8933 8.87968V8.87968ZM7.33333 8.433V4.33301C7.33333 3.77967 6.88667 3.33301 6.33333 3.33301H3C2.44667 3.33301 2 3.77967 2 4.33301V7.66634C2 8.21967 2.44667 8.66634 3 8.66634H4.66667L2.90667 12.1863C2.79333 12.4063 2.96 12.6663 3.20667 12.6663H4.92C5.17334 12.6663 5.40667 12.5263 5.51334 12.2997L7.22666 8.87968C7.29333 8.73968 7.33333 8.58634 7.33333 8.433V8.433Z" fill="#3B3B3E"/>
</svg>
