<svg width="16" height="16" viewBox="0 0 16 16" fill="none" xmlns="http://www.w3.org/2000/svg">
<path d="M1.96699 9.59989C1.77366 9.32656 1.66699 8.99989 1.66699 8.65323C1.66699 8.21323 1.83366 7.79989 2.14699 7.48656L7.48033 2.1599C8.05366 1.59323 8.95366 1.53323 9.59366 1.9799L1.96699 9.59989ZM14.0137 6.41323L6.40699 14.0266C6.68033 14.2266 7.00033 14.3332 7.347 14.3332H7.35366C7.79366 14.3332 8.207 14.1599 8.51366 13.8532L13.847 8.5199C14.407 7.94656 14.467 7.05323 14.0137 6.41323V6.41323ZM13.3737 5.6399L13.3337 5.68656H13.327L13.0937 5.9199L12.8603 6.15323L6.15366 12.8666H6.14699L5.91366 13.0999L5.68033 13.3399L5.65366 13.3666C5.24032 13.7799 4.69366 13.9866 4.14699 13.9866C3.60033 13.9866 3.06033 13.7799 2.64033 13.3666H2.63366C1.80699 12.5266 1.80699 11.1799 2.63366 10.3466L2.66033 10.3199L2.90033 10.0866L3.13366 9.85323L9.84032 3.1399H9.847L10.0803 2.90656L10.3603 2.62657C10.7737 2.20657 11.3203 1.9999 11.867 1.9999C12.4137 1.9999 12.9537 2.20657 13.367 2.62657H13.3737C14.207 3.4599 14.207 4.81323 13.3737 5.6399V5.6399ZM11.927 4.54657C11.7337 4.35324 11.4137 4.35324 11.2203 4.54657C11.0003 4.76657 10.847 4.79323 10.587 4.83989C10.2803 4.89323 9.86032 4.96656 9.41366 5.40656C8.96699 5.84656 8.89366 6.27323 8.847 6.57989C8.80033 6.83989 8.77366 6.99323 8.55366 7.21323C8.33366 7.43323 8.18033 7.45989 7.92033 7.50656C7.61366 7.55989 7.19366 7.63323 6.74699 8.07323C6.30032 8.5199 6.22699 8.93989 6.17366 9.24656C6.12699 9.50656 6.10033 9.6599 5.88033 9.8799C5.66033 10.0999 5.50699 10.1266 5.24699 10.1732C4.94032 10.2266 4.52033 10.2999 4.07366 10.7466C3.88033 10.9399 3.88033 11.2599 4.07366 11.4532C4.17366 11.5532 4.30033 11.5999 4.42699 11.5999C4.55366 11.5999 4.68032 11.5532 4.78032 11.4532C5.00032 11.2332 5.15366 11.2066 5.41366 11.1599C5.72032 11.1066 6.14033 11.0332 6.587 10.5866C7.03366 10.1399 7.107 9.71989 7.16033 9.41323C7.207 9.15323 7.23365 8.9999 7.45365 8.7799C7.67365 8.5599 7.827 8.53323 8.087 8.48656C8.39366 8.43323 8.81366 8.3599 9.26033 7.9199C9.70699 7.47323 9.78033 7.05323 9.827 6.74656C9.87366 6.48656 9.90032 6.33323 10.1203 6.11323C10.3403 5.89323 10.4937 5.86656 10.7537 5.81989C11.0603 5.76656 11.4803 5.69323 11.927 5.25323C12.1203 5.0599 12.1203 4.7399 11.927 4.54657Z" fill="#3B3B3E"/>
</svg>
