<svg width="16" height="16" viewBox="0 0 16 16" fill="none" xmlns="http://www.w3.org/2000/svg">
<path d="M8.01335 1.33301C4.33335 1.33301 1.34668 4.31967 1.34668 7.99967C1.34668 11.6797 4.33335 14.6663 8.01335 14.6663C11.6933 14.6663 14.68 11.6797 14.68 7.99967C14.68 4.31967 11.6933 1.33301 8.01335 1.33301ZM6 7.37301L5.68669 7.68634C5.58669 7.78634 5.46 7.83301 5.33333 7.83301C5.20667 7.83301 5.07998 7.78634 4.97998 7.68634C4.78665 7.49301 4.78665 7.17301 4.97998 6.97967L5.29333 6.66634L4.97998 6.35301C4.78665 6.15967 4.78665 5.83968 4.97998 5.64634C5.17331 5.45301 5.49335 5.45301 5.68669 5.64634L6 5.95968L6.31331 5.64634C6.50665 5.45301 6.82669 5.45301 7.02002 5.64634C7.21335 5.83968 7.21335 6.15967 7.02002 6.35301L6.70666 6.66634L7.02002 6.97967C7.21335 7.17301 7.21335 7.49301 7.02002 7.68634C6.92002 7.78634 6.79333 7.83301 6.66667 7.83301C6.54 7.83301 6.41331 7.78634 6.31331 7.68634L6 7.37301ZM8 11.9997C7.26667 11.9997 6.66667 11.3997 6.66667 10.6663C6.66667 9.93301 7.26667 9.33301 8 9.33301C8.73333 9.33301 9.33333 9.93301 9.33333 10.6663C9.33333 11.3997 8.73333 11.9997 8 11.9997ZM11.02 6.97967C11.2134 7.17301 11.2134 7.49301 11.02 7.68634C10.92 7.78634 10.7933 7.83301 10.6667 7.83301C10.54 7.83301 10.4133 7.78634 10.3133 7.68634L10 7.37301L9.68669 7.68634C9.58669 7.78634 9.46 7.83301 9.33333 7.83301C9.20667 7.83301 9.07998 7.78634 8.97998 7.68634C8.78665 7.49301 8.78665 7.17301 8.97998 6.97967L9.29333 6.66634L8.97998 6.35301C8.78665 6.15967 8.78665 5.83968 8.97998 5.64634C9.17331 5.45301 9.49335 5.45301 9.68669 5.64634L10 5.95968L10.3133 5.64634C10.5066 5.45301 10.8267 5.45301 11.02 5.64634C11.2134 5.83968 11.2134 6.15967 11.02 6.35301L10.7067 6.66634L11.02 6.97967Z" fill="#3B3B3E"/>
</svg>
