<svg width="16" height="16" viewBox="0 0 16 16" fill="none" xmlns="http://www.w3.org/2000/svg">
<path d="M14 3.33301C10.6667 2.66634 9.48138 2.07367 8.01204 1.33301C6.51871 2.07367 5.33333 2.66634 2 3.33301C2 4.09101 2 6.46762 2 7.25895C2 11.7036 5.778 13.9257 8 14.6663C10.222 13.9257 14 11.7036 14 7.25895C14 6.44228 14 4.12901 14 3.33301ZM10.6167 7.69499C10.2687 9.47432 8 10.4997 8 10.4997C8 10.4997 5.7313 9.47499 5.3833 7.69499C5.16997 6.60365 5.63597 5.50501 6.82064 5.49967C7.7033 5.49567 7.99935 6.37842 7.99935 6.37842C7.99935 6.37842 8.29539 5.49501 9.17806 5.49967C10.3661 5.50567 10.83 6.60365 10.6167 7.69499Z" fill="#3B3B3E"/>
</svg>
