<svg width="16" height="16" viewBox="0 0 16 16" fill="none" xmlns="http://www.w3.org/2000/svg">
<path d="M13.287 5.57891C13.055 5.64757 12.8083 5.67424 12.551 5.66224C11.3756 5.61024 10.3876 4.62157 10.3356 3.44557C10.3243 3.1889 10.3503 2.94224 10.4196 2.71091C10.449 2.61157 10.4083 2.50491 10.313 2.46424C9.30168 2.03624 8.14432 1.88091 6.93232 2.09091C4.79232 2.46091 2.98443 4.02291 2.30976 6.08757C1.79776 7.65424 1.95504 9.21355 2.55504 10.5035C2.69504 10.7969 2.69508 11.1369 2.59508 11.4502L2.03502 13.1162C1.85902 13.6396 2.35837 14.1389 2.8817 13.9629L4.54837 13.4029C4.8617 13.3029 5.20165 13.3029 5.49498 13.4429C6.78431 14.0422 8.34174 14.2002 9.90774 13.6895C11.9731 13.0155 13.5358 11.2082 13.9071 9.06755C14.1171 7.85555 13.9617 6.69691 13.5337 5.68491C13.4931 5.59024 13.3863 5.54957 13.287 5.57891ZM5.34638 8.66623C4.97838 8.66623 4.6763 8.36756 4.6763 7.99956C4.6763 7.63156 4.97171 7.33289 5.33971 7.33289H5.34638C5.71505 7.33289 6.01305 7.63156 6.01305 7.99956C6.01305 8.36756 5.71438 8.66623 5.34638 8.66623ZM8.01305 8.66623C7.64505 8.66623 7.34296 8.36756 7.34296 7.99956C7.34296 7.63156 7.63837 7.33289 8.00637 7.33289H8.01305C8.38171 7.33289 8.67971 7.63156 8.67971 7.99956C8.67971 8.36756 8.38105 8.66623 8.01305 8.66623ZM10.6797 8.66623C10.3117 8.66623 10.0096 8.36756 10.0096 7.99956C10.0096 7.63156 10.305 7.33289 10.673 7.33289H10.6797C11.0484 7.33289 11.3464 7.63156 11.3464 7.99956C11.3464 8.36756 11.0477 8.66623 10.6797 8.66623ZM11.3337 3.3329C11.3337 2.59623 11.931 1.99956 12.667 1.99956C13.403 1.99956 14.0004 2.59623 14.0004 3.3329C14.0004 4.06956 13.403 4.66623 12.667 4.66623C11.931 4.66623 11.3337 4.06956 11.3337 3.3329Z" fill="#3B3B3E"/>
</svg>
