<svg width="16" height="16" viewBox="0 0 16 16" fill="none" xmlns="http://www.w3.org/2000/svg">
<path d="M8 7.05748L12.862 2.1955C13.1226 1.93483 13.544 1.93483 13.8047 2.1955C14.0654 2.45617 14.0654 2.87754 13.8047 3.13821L8.94271 8.00019H10.6667C11.0353 8.00019 11.3333 8.29885 11.3333 8.66685C11.3333 9.03485 11.0353 9.33352 10.6667 9.33352H7.33333C7.24667 9.33352 7.15995 9.31558 7.07861 9.28225C6.91528 9.21492 6.78594 9.08491 6.71794 8.92157C6.68394 8.84024 6.66667 8.75352 6.66667 8.66685V5.33352C6.66667 4.96552 6.96467 4.66685 7.33333 4.66685C7.702 4.66685 8 4.96552 8 5.33352V7.05748V7.05748ZM13.3333 8.00019C12.9647 8.00019 12.6667 8.29885 12.6667 8.66685V11.3335C12.6667 12.2929 12.2927 12.6669 11.3333 12.6669H4.66667C3.70733 12.6669 3.33333 12.2929 3.33333 11.3335V4.66685C3.33333 3.70752 3.70733 3.33352 4.66667 3.33352H7.33333C7.702 3.33352 8 3.03485 8 2.66685C8 2.29885 7.702 2.00019 7.33333 2.00019H4.66667C2.972 2.00019 2 2.97219 2 4.66685V11.3335C2 13.0282 2.972 14.0002 4.66667 14.0002H11.3333C13.028 14.0002 14 13.0282 14 11.3335V8.66685C14 8.29885 13.702 8.00019 13.3333 8.00019Z" fill="#3B3B3E"/>
</svg>
