<svg width="16" height="16" viewBox="0 0 16 16" fill="none" xmlns="http://www.w3.org/2000/svg">
<g clip-path="url(#clip0_36251_7493)">
<path d="M13.0002 12.0132C13.0002 13.5092 12.1715 14.3332 10.6668 14.3332H5.33351C5.08551 14.3332 4.85682 14.3105 4.65415 14.2652C4.53548 14.2385 4.44085 14.1498 4.40618 14.0325C4.37218 13.9158 4.40482 13.7899 4.49082 13.7039L9.72487 8.47056C9.79887 8.39722 9.90422 8.36183 10.0055 8.37583C12.2135 8.67783 13.0002 10.4532 13.0002 12.0132ZM14.3535 1.6465C14.1582 1.45117 13.8415 1.45117 13.6462 1.6465L10.6402 4.65252C10.6528 4.54652 10.6722 4.44252 10.6722 4.33319C10.6722 2.86252 9.47622 1.66652 8.00555 1.66652C6.53488 1.66652 5.33888 2.86252 5.33888 4.33319C5.33888 5.80385 6.53488 6.99985 8.00555 6.99985C8.11488 6.99985 8.21889 6.98054 8.32489 6.96787L6.95949 8.33319H6.66684C3.96018 8.33319 3.00018 10.3132 3.00018 12.0132C3.00018 12.1059 3.00614 12.1932 3.01214 12.2805L0.979508 14.3132C0.784174 14.5085 0.784174 14.8252 0.979508 15.0205C1.07684 15.1179 1.20486 15.1672 1.33286 15.1672C1.46086 15.1672 1.58888 15.1185 1.68621 15.0205L14.3529 2.35386C14.5489 2.15786 14.5489 1.84183 14.3535 1.6465Z" fill="#3B3B3E"/>
</g>
<defs>
<clipPath id="clip0_36251_7493">
<rect width="16" height="16" fill="white"/>
</clipPath>
</defs>
</svg>
