<svg width="16" height="16" viewBox="0 0 16 16" fill="none" xmlns="http://www.w3.org/2000/svg">
<path d="M11.75 2H4.25C2.75 2 2 2.75 2 4.25V11.75C2 13.25 2.75 14 4.25 14H11.75C13.25 14 14 13.25 14 11.75V4.25C14 2.75 13.25 2 11.75 2ZM10.6667 8.5H6.54069L7.68734 9.64665C7.88267 9.84198 7.88267 10.1587 7.68734 10.354C7.59 10.4513 7.46198 10.5007 7.33398 10.5007C7.20598 10.5007 7.07796 10.452 6.98063 10.354L4.98063 8.354C4.93463 8.308 4.89805 8.25274 4.87272 8.19141C4.82205 8.06941 4.82205 7.93141 4.87272 7.80941C4.89805 7.74807 4.93463 7.69265 4.98063 7.64665L6.98063 5.64665C7.17597 5.45131 7.49266 5.45131 7.68799 5.64665C7.88332 5.84198 7.88332 6.15867 7.68799 6.354L6.54134 7.50065H10.6667C10.9427 7.50065 11.1667 7.72465 11.1667 8.00065C11.1667 8.27665 10.9427 8.5 10.6667 8.5Z" fill="#3B3B3E"/>
</svg>
