<svg width="16" height="16" viewBox="0 0 16 16" fill="none" xmlns="http://www.w3.org/2000/svg">
<path d="M2.94 8.02637C3.86 8.39303 4.81333 8.67305 5.76666 8.87305C5.83333 8.88638 5.90667 8.83303 5.94667 8.77303C6.42667 8.05303 7.2 7.61971 8 7.61971C8.80667 7.61971 9.57333 8.05303 10.06 8.77303C10.1 8.83303 10.1667 8.88638 10.24 8.87305C11.1933 8.67305 12.14 8.39304 13.06 8.03304C13.6333 7.80637 14 7.25965 14 6.63965V5.99967C14 4.66634 13.3333 3.99967 12 3.99967H11.1667V2.99967C11.1667 2.35967 10.64 1.83301 10 1.83301H6C5.35333 1.83301 4.83333 2.35967 4.83333 2.99967V3.99967H4C2.66667 3.99967 2 4.66634 2 5.99967V6.63965C2 7.25965 2.36667 7.80637 2.94 8.02637ZM5.83333 2.99967C5.83333 2.90634 5.90667 2.83301 6 2.83301H10C10.0933 2.83301 10.1667 2.90634 10.1667 2.99967V3.99967H5.83333V2.99967ZM10 13.333C10 11.493 11.4933 9.99967 13.3333 9.99967C13.4667 9.99967 13.6 10.0064 13.7267 10.0197C13.7533 10.0264 13.7867 10.0264 13.8133 10.0264C13.9267 10.0264 14 9.93967 14 9.83301V8.63965C13.8267 8.77298 13.6333 8.87963 13.4267 8.95963C12.4533 9.3463 11.4467 9.64636 10.44 9.85303C10.3667 9.86636 10.2867 9.87305 10.2133 9.87305C9.82667 9.87305 9.46 9.673 9.22666 9.32633C8.93333 8.88633 8.47333 8.61971 8 8.61971C7.53333 8.61971 7.07333 8.88633 6.78 9.32633C6.5 9.73967 6.02667 9.94636 5.56667 9.85303C4.55334 9.64636 3.54667 9.3463 2.57333 8.95963C2.36667 8.87963 2.17333 8.77297 2 8.63297V11.9997C2 13.333 2.66667 13.9997 4 13.9997H9.83333C9.94667 13.9997 10.0267 13.9197 10.0267 13.813C10.0267 13.7863 10.0267 13.753 10.02 13.7196C10.0067 13.593 10 13.4597 10 13.333ZM8.00133 10.6663C7.634 10.6663 7.33333 10.3677 7.33333 9.99967C7.33333 9.63167 7.62867 9.33301 7.996 9.33301H8.00133C8.36867 9.33301 8.66667 9.63167 8.66667 9.99967C8.66667 10.3677 8.36867 10.6663 8.00133 10.6663ZM14.3533 12.5757L12.5753 14.3537C12.478 14.451 12.35 14.5003 12.222 14.5003C12.094 14.5003 11.966 14.4517 11.8687 14.3537L10.98 13.465C10.7847 13.2697 10.7847 12.953 10.98 12.7576C11.1753 12.5623 11.492 12.5623 11.6873 12.7576L12.2227 13.293L13.6467 11.869C13.842 11.6736 14.1587 11.6736 14.354 11.869C14.5493 12.0643 14.5487 12.3803 14.3533 12.5757Z" fill="#3B3B3E"/>
</svg>
