<svg width="16" height="16" viewBox="0 0 16 16" fill="none" xmlns="http://www.w3.org/2000/svg">
<path d="M7.99967 1.33301C4.31967 1.33301 1.33301 4.31967 1.33301 7.99967C1.33301 11.6797 4.31967 14.6663 7.99967 14.6663C11.6797 14.6663 14.6663 11.6797 14.6663 7.99967C14.6663 4.31967 11.6797 1.33301 7.99967 1.33301ZM5.28636 6.49301C5.19969 6.75301 4.91301 6.89301 4.65301 6.79967C4.39301 6.70634 4.25302 6.42634 4.34635 6.16634C4.55302 5.56634 5.11968 5.15968 5.75968 5.15968C6.39968 5.15968 6.96635 5.55967 7.17301 6.16634C7.25968 6.42634 7.12635 6.71301 6.86635 6.79967C6.81302 6.81967 6.75969 6.82634 6.69969 6.82634C6.49302 6.82634 6.29967 6.69967 6.22634 6.48634C6.15967 6.293 5.96635 6.15968 5.75968 6.15968C5.55302 6.15968 5.35968 6.293 5.29301 6.48634L5.28636 6.49301ZM7.99967 11.9997C6.65967 11.9997 5.55301 11.013 5.35968 9.72634C5.33301 9.51967 5.48635 9.33301 5.69301 9.33301H10.3064C10.513 9.33301 10.6664 9.51967 10.6397 9.72634C10.453 11.013 9.34634 11.9997 7.99967 11.9997V11.9997ZM11.4064 6.80635C11.353 6.82635 11.2997 6.83301 11.2397 6.83301C11.033 6.83301 10.8397 6.70634 10.7663 6.49301C10.6997 6.29968 10.5063 6.16634 10.2997 6.16634C10.093 6.16634 9.89967 6.29968 9.83301 6.49301C9.74634 6.75301 9.45969 6.89301 9.19969 6.79967C8.93969 6.70634 8.79967 6.42634 8.893 6.16634C9.09967 5.56634 9.66636 5.15968 10.3064 5.15968C10.9464 5.15968 11.513 5.55967 11.7197 6.16634C11.8064 6.42634 11.673 6.71301 11.413 6.79967L11.4064 6.80635Z" fill="#3B3B3E"/>
</svg>
