<svg width="16" height="16" viewBox="0 0 16 16" fill="none" xmlns="http://www.w3.org/2000/svg">
<path d="M8.00099 2C4.68766 2 2.00164 4.68602 2.00164 7.99935C2.00164 8.89268 2.20169 9.746 2.55503 10.5053C2.69503 10.7987 2.69507 11.1387 2.59507 11.452L2.03501 13.1187C1.86167 13.6387 2.36169 14.1387 2.88169 13.9653L4.54835 13.4053C4.86169 13.3053 5.20164 13.3054 5.49497 13.4454C6.25497 13.7987 7.10831 13.9987 8.00164 13.9987C11.315 13.9987 14.001 11.3127 14.001 7.99935C14.0003 4.68602 11.3143 2 8.00099 2ZM10.3337 9.91667C10.3337 10.5833 10.0003 10.9167 9.33367 10.9167H6.66701C6.00034 10.9167 5.66701 10.5833 5.66701 9.91667V8.41667C5.66701 7.87667 5.89701 7.56732 6.33367 7.46399V6.5C6.33367 5.58133 7.08101 4.83333 8.00034 4.83333C8.91967 4.83333 9.66701 5.58133 9.66701 6.5V7.46399C10.1037 7.56666 10.3337 7.87667 10.3337 8.41667V9.91667ZM8.66701 6.5V7.41667H7.33367V6.5C7.33367 6.132 7.63234 5.83333 8.00034 5.83333C8.36834 5.83333 8.66701 6.132 8.66701 6.5Z" fill="#3B3B3E"/>
</svg>
