<svg width="16" height="16" viewBox="0 0 16 16" fill="none" xmlns="http://www.w3.org/2000/svg">
<path d="M14.6665 8.66653V11.9999C14.6665 12.3679 14.3685 12.6665 13.9999 12.6665C13.6312 12.6665 13.3332 12.3679 13.3332 11.9999V8.66653C13.3332 7.9312 12.7352 7.3332 11.9999 7.3332H3.60926L5.1379 8.86184C5.39857 9.12251 5.39857 9.54388 5.1379 9.80455C5.0079 9.93455 4.83721 9.99986 4.66655 9.99986C4.49588 9.99986 4.32519 9.93455 4.19519 9.80455L1.52918 7.13853C1.46718 7.07653 1.41848 7.00325 1.38448 6.92125C1.31715 6.75858 1.31715 6.57448 1.38448 6.41181C1.41848 6.32981 1.46718 6.25652 1.52918 6.19452L4.19519 3.52851C4.45586 3.26784 4.87724 3.26784 5.1379 3.52851C5.39857 3.78917 5.39857 4.21055 5.1379 4.47122L3.60926 5.99986H11.9999C13.4705 5.99986 14.6665 7.19586 14.6665 8.66653Z" fill="#3B3B3E"/>
</svg>
