<svg width="16" height="16" viewBox="0 0 16 16" fill="none" xmlns="http://www.w3.org/2000/svg">
<path d="M12.3737 5.04102L9.6263 2.29362C9.43897 2.10629 9.18428 2.00098 8.91894 2.00098H5.33301C3.99967 2.00098 3.33301 2.66764 3.33301 4.00098V12.001C3.33301 13.3343 3.99967 14.001 5.33301 14.001H10.6663C11.9997 14.001 12.6663 13.3343 12.6663 12.001V5.74837C12.6663 5.48237 12.561 5.22835 12.3737 5.04102ZM9.42839 11.167H6.96175C6.76042 11.167 6.57963 11.0463 6.50163 10.8617C6.42296 10.6763 6.46303 10.4624 6.60303 10.3184C6.60303 10.3184 7.3264 9.57505 8.39307 8.50505C8.77107 8.12571 8.86093 7.66438 8.60693 7.40772C8.3656 7.16438 8.109 7.1464 7.93766 7.17773C7.705 7.21707 7.5044 7.36025 7.41374 7.55225C7.29507 7.80091 7.0004 7.9084 6.74707 7.78906C6.49774 7.6704 6.39175 7.3724 6.51042 7.1224C6.74308 6.6344 7.21368 6.2864 7.77034 6.19173C8.33834 6.09507 8.89972 6.28228 9.31706 6.70361C9.96706 7.35895 9.87439 8.43692 9.10172 9.21159C8.74106 9.57292 8.42031 9.89698 8.15365 10.1676H9.42904C9.70504 10.1676 9.92904 10.3916 9.92904 10.6676C9.92904 10.9436 9.70439 11.167 9.42839 11.167Z" fill="#3B3B3E"/>
</svg>
