<svg width="16" height="16" viewBox="0 0 16 16" fill="none" xmlns="http://www.w3.org/2000/svg">
<path fill-rule="evenodd" clip-rule="evenodd" d="M13.0463 5.72454L9.07031 2.39048C8.45098 1.87114 7.54764 1.87114 6.9283 2.39048L2.95231 5.72454C2.34831 6.23121 1.99902 6.43584 1.99902 7.76784V12.0005C1.99902 13.3338 2.66569 14.0005 3.99902 14.0005H11.999C13.3324 14.0005 13.999 13.3338 13.999 12.0005V7.76784C13.9997 6.43517 13.651 6.23121 13.0463 5.72454ZM9.23299 10.7992C9.02966 11.0065 8.77567 11.1445 8.49967 11.2052V11.3338C8.49967 11.6098 8.27567 11.8338 7.99967 11.8338C7.72367 11.8338 7.49967 11.6098 7.49967 11.3338V11.2039C6.88967 11.0692 6.41437 10.5585 6.34237 9.90716C6.3117 9.63249 6.50968 9.38516 6.78434 9.35516C7.05168 9.32449 7.30503 9.52247 7.33569 9.79713C7.36369 10.0505 7.57032 10.2411 7.81632 10.2411H8.18367C8.30967 10.2411 8.42966 10.1898 8.521 10.0972C8.61566 10.0012 8.66699 9.87586 8.66699 9.74253C8.66699 9.51319 8.51499 9.31383 8.29899 9.25783L7.45435 9.04518C7.13235 8.96185 6.84432 8.77181 6.64298 8.50848C6.44365 8.25315 6.33301 7.92581 6.33301 7.59181C6.33301 6.87514 6.83367 6.2765 7.49967 6.12916V6.0005C7.49967 5.7245 7.72367 5.5005 7.99967 5.5005C8.27567 5.5005 8.49967 5.7245 8.49967 6.0005V6.13047C9.10967 6.26513 9.58498 6.77585 9.65698 7.42718C9.68765 7.70185 9.48967 7.94918 9.21501 7.97918C8.94834 8.00585 8.69432 7.81187 8.66366 7.53721C8.63566 7.28387 8.42902 7.09319 8.18302 7.09319H7.81567C7.54967 7.09319 7.33236 7.31648 7.33236 7.59181C7.33236 7.70515 7.36834 7.8138 7.43367 7.8978C7.50301 7.98847 7.59437 8.04918 7.69971 8.07651L8.54435 8.28916C9.20502 8.45916 9.66569 9.05653 9.66569 9.74253C9.66636 10.1405 9.51299 10.5158 9.23299 10.7992Z" fill="#3B3B3E"/>
</svg>
