<svg width="16" height="16" viewBox="0 0 16 16" fill="none" xmlns="http://www.w3.org/2000/svg">
<path d="M8.5 5.96667V2.19999C8.5 2.08933 8.58937 2 8.70003 2H11.16C12.6667 2 12.8333 2.59333 13.08 3.45333L13.7826 5.91201C13.8193 6.04001 13.7233 6.16667 13.5907 6.16667H8.70003C8.58937 6.16667 8.5 6.07734 8.5 5.96667ZM2.40934 6.16667H7.29997C7.41063 6.16667 7.5 6.07734 7.5 5.96667V2.19999C7.5 2.08933 7.41063 2 7.29997 2H4.84001C3.33334 2 3.16667 2.59333 2.92 3.45333L2.21737 5.91201C2.1807 6.03934 2.27668 6.16667 2.40934 6.16667ZM14 7.36666V12C14 13.3333 13.3333 14 12 14H4C2.66667 14 2 13.3333 2 12V7.36666C2 7.25599 2.08937 7.16667 2.20003 7.16667H13.8C13.9106 7.16667 14 7.25599 14 7.36666ZM9.03133 8.16667C8.25933 8.16333 8 8.92867 8 8.92867C8 8.92867 7.74067 8.16333 6.96867 8.16667C5.93134 8.17133 5.52403 9.12334 5.71069 10.0693C6.01469 11.6113 8 12.5 8 12.5C8 12.5 9.98531 11.612 10.2893 10.0693C10.476 9.12334 10.07 8.17133 9.03133 8.16667Z" fill="#3B3B3E"/>
</svg>
