<svg width="16" height="16" viewBox="0 0 16 16" fill="none" xmlns="http://www.w3.org/2000/svg">
<path d="M11.5 5.5H10C8.94667 5.5 8.5 5.05333 8.5 4V2.5L11.5 5.5ZM12 6.5V8.81333C12 8.93333 11.8933 9.00666 11.84 9.01333C11.74 9.03333 11.64 9.06668 11.5467 9.11334C11.12 9.32668 10.6934 9.53334 9.72005 9.82001C9.29339 9.94001 9 10.3333 9 10.78V12.0733C9 12.7 9.1534 13.2467 9.40007 13.7133C9.46673 13.8467 9.36672 14 9.22005 14H4C2.66667 14 2 13.3333 2 12V4C2 2.66667 2.66667 2 4 2H7.5V4C7.5 5.61333 8.38667 6.5 10 6.5H12ZM7.83333 10.6667C7.83333 10.3907 7.60933 10.1667 7.33333 10.1667H4.66667C4.39067 10.1667 4.16667 10.3907 4.16667 10.6667C4.16667 10.9427 4.39067 11.1667 4.66667 11.1667H7.33333C7.60933 11.1667 7.83333 10.9427 7.83333 10.6667ZM9.83333 8C9.83333 7.724 9.60933 7.5 9.33333 7.5H4.66667C4.39067 7.5 4.16667 7.724 4.16667 8C4.16667 8.276 4.39067 8.5 4.66667 8.5H9.33333C9.60933 8.5 9.83333 8.276 9.83333 8ZM14 10.744C13 10.4847 12.5001 10.2593 12.0041 10C11.5001 10.2593 11.0007 10.4847 10 10.778C10 11.0433 10 11.7973 10 12.074C10 13.6293 11.25 14.4073 12 14.6667C12.75 14.4073 14 13.6293 14 12.074C14 11.788 14 11.0227 14 10.744Z" fill="#3B3B3E"/>
</svg>
