<svg width="16" height="16" viewBox="0 0 16 16" fill="none" xmlns="http://www.w3.org/2000/svg">
<path d="M11.7501 9.44982L13.5121 10.5005C13.8761 10.7178 14.0641 11.1405 13.9807 11.5565C13.6401 13.2625 11.9268 14.3558 10.2488 13.8952C6.28947 12.8085 3.19672 9.72515 2.10606 5.75715C1.64472 4.07849 2.73679 2.36381 4.44346 2.02247L4.45469 2.02048C4.87136 1.93715 5.29613 2.12581 5.5128 2.49181L6.55479 4.25115C6.92545 4.87715 6.74135 5.68314 6.13535 6.08581L5.0281 6.82248C5.80943 8.69381 7.30272 10.1932 9.16872 10.9732L9.91205 9.86315C10.318 9.25848 11.1248 9.07715 11.7501 9.44982ZM13.6868 2.31381C13.4915 2.11848 13.1748 2.11848 12.9794 2.31381L10.4994 4.79382V3.77848C10.4994 3.50248 10.2754 3.27848 9.99945 3.27848C9.72345 3.27848 9.49945 3.50248 9.49945 3.77848V6.00048C9.49945 6.06581 9.51269 6.13047 9.53802 6.19181C9.58869 6.31381 9.68603 6.41114 9.80869 6.4618C9.87003 6.48714 9.93477 6.50048 10.0001 6.50048H12.2221C12.4981 6.50048 12.7221 6.27648 12.7221 6.00048C12.7221 5.72448 12.4981 5.50048 12.2221 5.50048H11.2075L13.6874 3.02048C13.8821 2.82581 13.8821 2.50848 13.6868 2.31381Z" fill="#3B3B3E"/>
</svg>
