<svg width="16" height="16" viewBox="0 0 16 16" fill="none" xmlns="http://www.w3.org/2000/svg">
<path d="M14 7.66667V12.1667C14 12.6267 13.6267 13 13.1667 13C12.7067 13 12.3333 12.6267 12.3333 12.1667V6.66667H13C13.552 6.66667 14 7.11467 14 7.66667ZM12.6667 14H4C2.66667 14 2 13.3333 2 12V4C2 2.66667 2.66667 2 4 2H9.33333C10.6667 2 11.3333 2.66667 11.3333 4V12.6667C11.3333 13.4033 11.9307 14 12.6667 14ZM4.16667 5.33333C4.16667 5.60933 4.39067 5.83333 4.66667 5.83333H6.66667C6.94267 5.83333 7.16667 5.60933 7.16667 5.33333C7.16667 5.05733 6.94267 4.83333 6.66667 4.83333H4.66667C4.39067 4.83333 4.16667 5.05733 4.16667 5.33333ZM9.16667 10.6667C9.16667 10.3907 8.94267 10.1667 8.66667 10.1667H4.66667C4.39067 10.1667 4.16667 10.3907 4.16667 10.6667C4.16667 10.9427 4.39067 11.1667 4.66667 11.1667H8.66667C8.94267 11.1667 9.16667 10.9427 9.16667 10.6667ZM9.16667 8C9.16667 7.724 8.94267 7.5 8.66667 7.5H4.66667C4.39067 7.5 4.16667 7.724 4.16667 8C4.16667 8.276 4.39067 8.5 4.66667 8.5H8.66667C8.94267 8.5 9.16667 8.276 9.16667 8Z" fill="#3B3B3E"/>
</svg>
