<svg width="16" height="16" viewBox="0 0 16 16" fill="none" xmlns="http://www.w3.org/2000/svg">
<path d="M8.66634 5.36583V10.6324C8.66634 10.7431 8.57698 10.8325 8.46631 10.8325H5.53304C5.42237 10.8325 5.33301 10.7431 5.33301 10.6324V5.36583C5.33301 5.25517 5.42237 5.1658 5.53304 5.1658H8.46631C8.57698 5.1658 8.66634 5.25517 8.66634 5.36583ZM4.46631 5.1658H1.53304C1.42237 5.1658 1.33301 5.25517 1.33301 5.36583V10.6324C1.33301 10.7431 1.42237 10.8325 1.53304 10.8325H4.46631C4.57698 10.8325 4.66634 10.7431 4.66634 10.6324V5.36583C4.66634 5.25517 4.57698 5.1658 4.46631 5.1658ZM12.7643 3.7305L12.5664 2.7991C12.4264 2.15244 12.0331 1.89917 11.3864 2.0325L10.0929 2.31245C9.44627 2.44578 9.193 2.83912 9.32633 3.48579L9.52507 4.42313C9.54773 4.53113 9.65437 4.60043 9.76237 4.5771L12.611 3.9678C12.719 3.94447 12.7877 3.8385 12.7643 3.7305ZM14.1383 10.2038L13.055 5.10184C13.0317 4.99384 12.9257 4.92445 12.8177 4.94778L9.96908 5.55716C9.86108 5.58049 9.79242 5.68646 9.81576 5.79446L10.9056 10.8964C10.9289 11.0044 11.0351 11.0732 11.1431 11.0505L13.9857 10.4411C14.0923 10.4178 14.161 10.3118 14.1383 10.2038ZM14.6263 12.5125L14.4277 11.5751C14.4051 11.4671 14.2983 11.3978 14.1903 11.4212L11.3483 12.0305C11.2403 12.0538 11.1717 12.1598 11.195 12.2678L11.3937 13.1992C11.5337 13.8458 11.9204 14.0991 12.5671 13.9658L13.867 13.6858C14.513 13.5525 14.7663 13.1591 14.6263 12.5125ZM7.66634 1.99913H6.33301C5.66634 1.99913 5.33301 2.33247 5.33301 2.99913V3.96577C5.33301 4.07644 5.42237 4.1658 5.53304 4.1658H8.46631C8.57698 4.1658 8.66634 4.07644 8.66634 3.96577V2.99913C8.66634 2.33247 8.33301 1.99913 7.66634 1.99913ZM3.66634 1.99913H2.33301C1.66634 1.99913 1.33301 2.33247 1.33301 2.99913V3.96577C1.33301 4.07644 1.42237 4.1658 1.53304 4.1658H4.46631C4.57698 4.1658 4.66634 4.07644 4.66634 3.96577V2.99913C4.66634 2.33247 4.33301 1.99913 3.66634 1.99913ZM4.46631 11.8325H1.53304C1.42237 11.8325 1.33301 11.9218 1.33301 12.0325V12.9991C1.33301 13.6658 1.66634 13.9991 2.33301 13.9991H3.66634C4.33301 13.9991 4.66634 13.6658 4.66634 12.9991V12.0325C4.66634 11.9218 4.57698 11.8325 4.46631 11.8325ZM8.46631 11.8325H5.53304C5.42237 11.8325 5.33301 11.9218 5.33301 12.0325V12.9991C5.33301 13.6658 5.66634 13.9991 6.33301 13.9991H7.66634C8.33301 13.9991 8.66634 13.6658 8.66634 12.9991V12.0325C8.66634 11.9218 8.57698 11.8325 8.46631 11.8325Z" fill="#3B3B3E"/>
</svg>
