<svg width="16" height="16" viewBox="0 0 16 16" fill="none" xmlns="http://www.w3.org/2000/svg">
<path d="M11.75 2H4.25C2.75 2 2 2.75 2 4.25V11.75C2 13.25 2.75 14 4.25 14H11.75C13.25 14 14 13.25 14 11.75V4.25C14 2.75 13.25 2 11.75 2ZM11.1279 8.19141C11.1026 8.25274 11.066 8.308 11.02 8.354L9.02002 10.354C8.92269 10.4513 8.79467 10.5007 8.66667 10.5007C8.53867 10.5007 8.41065 10.452 8.31331 10.354C8.11798 10.1587 8.11798 9.84198 8.31331 9.64665L9.45996 8.5H5.33333C5.05733 8.5 4.83333 8.276 4.83333 8C4.83333 7.724 5.05733 7.5 5.33333 7.5H9.45931L8.31266 6.35335C8.11733 6.15802 8.11733 5.84133 8.31266 5.646C8.508 5.45066 8.82469 5.45066 9.02002 5.646L11.02 7.646C11.066 7.692 11.1026 7.74726 11.1279 7.80859C11.1786 7.93126 11.1786 8.06874 11.1279 8.19141Z" fill="#3B3B3E"/>
</svg>
