<svg width="16" height="16" viewBox="0 0 16 16" fill="none" xmlns="http://www.w3.org/2000/svg">
<path d="M11.833 2.66699V13.3337C11.833 13.6097 11.609 13.8337 11.333 13.8337C11.057 13.8337 10.833 13.6097 10.833 13.3337V9.20898C10.7797 9.26365 10.7323 9.32226 10.671 9.37093L6.12769 12.9596C4.99369 13.8556 3.33301 13.041 3.33301 11.589V4.41227C3.33301 2.95961 4.99303 2.14568 6.12703 3.04102L10.6703 6.62907C10.7323 6.67774 10.7797 6.73635 10.8324 6.79102V2.66699C10.8324 2.39099 11.0564 2.16699 11.3324 2.16699C11.6084 2.16699 11.833 2.39099 11.833 2.66699Z" fill="#3B3B3E"/>
</svg>
