<svg width="16" height="16" viewBox="0 0 16 16" fill="none" xmlns="http://www.w3.org/2000/svg">
<path d="M13.7077 5.04102L10.9603 2.29362C10.773 2.10629 10.5183 2.00098 10.2529 2.00098H5.74837C5.48304 2.00098 5.22902 2.10629 5.04102 2.29362L2.29362 5.04102C2.10629 5.22835 2.00098 5.48304 2.00098 5.74837V10.2529C2.00098 10.5183 2.10629 10.7723 2.29362 10.9603L5.04102 13.7077C5.22835 13.895 5.48304 14.0003 5.74837 14.0003H10.2529C10.5183 14.0003 10.7723 13.895 10.9603 13.7077L13.7077 10.9603C13.895 10.773 14.0003 10.5183 14.0003 10.2529V5.74837C14.0003 5.48304 13.895 5.22835 13.7077 5.04102ZM10.0203 9.31364C10.2157 9.50897 10.2157 9.82566 10.0203 10.021C9.92301 10.1183 9.79499 10.1676 9.66699 10.1676C9.53899 10.1676 9.41097 10.119 9.31364 10.021L8.00033 8.70768L6.68701 10.021C6.58968 10.1183 6.46166 10.1676 6.33366 10.1676C6.20566 10.1676 6.07764 10.119 5.98031 10.021C5.78497 9.82566 5.78497 9.50897 5.98031 9.31364L7.29362 8.00033L5.98031 6.68701C5.78497 6.49168 5.78497 6.17499 5.98031 5.97965C6.17564 5.78432 6.49233 5.78432 6.68766 5.97965L8.00098 7.29297L9.31429 5.97965C9.50962 5.78432 9.82631 5.78432 10.0216 5.97965C10.217 6.17499 10.217 6.49168 10.0216 6.68701L8.70833 8.00033L10.0203 9.31364Z" fill="#3B3B3E"/>
</svg>
