<svg width="16" height="16" viewBox="0 0 16 16" fill="none" xmlns="http://www.w3.org/2000/svg">
<path d="M12.4183 12.328C11.8597 12.5526 11.2703 12.6667 10.667 12.6667C8.81033 12.6667 7.20766 11.574 6.45699 10H10.0003C10.3683 10 10.667 9.70133 10.667 9.33333C10.667 8.96533 10.3683 8.66667 10.0003 8.66667H6.05366C6.02233 8.448 6.00033 8.22667 6.00033 8C6.00033 7.77333 6.02233 7.552 6.05366 7.33333H10.0003C10.3683 7.33333 10.667 7.03467 10.667 6.66667C10.667 6.29867 10.3683 6 10.0003 6H6.45699C7.20766 4.426 8.81033 3.33333 10.667 3.33333C11.2743 3.33333 11.8617 3.44869 12.4123 3.67603C12.755 3.81736 13.143 3.65403 13.283 3.3147C13.4237 2.97403 13.2617 2.58468 12.9217 2.44401C12.2083 2.15001 11.4497 2 10.667 2C8.06099 2 5.84365 3.67333 5.01699 6H3.33366C2.96566 6 2.66699 6.29867 2.66699 6.66667C2.66699 7.03467 2.96566 7.33333 3.33366 7.33333H4.70633C4.68166 7.55267 4.66699 7.77467 4.66699 8C4.66699 8.22533 4.68166 8.44733 4.70633 8.66667H3.33366C2.96566 8.66667 2.66699 8.96533 2.66699 9.33333C2.66699 9.70133 2.96566 10 3.33366 10H5.01699C5.84365 12.3267 8.06033 14 10.667 14C11.4423 14 12.1983 13.854 12.9157 13.5653C13.2577 13.428 13.423 13.0393 13.2857 12.698C13.1483 12.3567 12.759 12.1906 12.4183 12.328Z" fill="#3B3B3E"/>
</svg>
