<svg width="16" height="16" viewBox="0 0 16 16" fill="none" xmlns="http://www.w3.org/2000/svg">
<path d="M13.8495 5.2385C14.0395 5.9805 14.0482 6.81117 13.8862 7.6465C13.1062 11.6798 7.99953 13.9999 7.99953 13.9999C7.99953 13.9999 7.16153 13.6159 6.10687 12.8985C6.00353 12.8279 5.98817 12.6778 6.07684 12.5892L13.5121 5.15317C13.6201 5.04584 13.8115 5.0905 13.8495 5.2385ZM14.3535 1.6465C14.1582 1.45117 13.8415 1.45117 13.6462 1.6465L12.2455 3.04718C11.7995 2.80718 11.2689 2.67184 10.6522 2.66717C8.66553 2.6605 7.99888 4.66054 7.99888 4.66054C7.99888 4.66054 7.33214 2.6605 5.34547 2.66717C2.67881 2.6805 1.63216 5.16719 2.11216 7.64719C2.38416 9.04986 3.1728 10.2419 4.09214 11.2005L1.64552 13.6472C1.45019 13.8425 1.45019 14.1592 1.64552 14.3545C1.74286 14.4518 1.87088 14.5012 1.99888 14.5012C2.12688 14.5012 2.25481 14.4525 2.35215 14.3545L14.3521 2.35451C14.5488 2.15851 14.5489 1.84117 14.3535 1.6465Z" fill="#3B3B3E"/>
</svg>
