<svg width="16" height="16" viewBox="0 0 16 16" fill="none" xmlns="http://www.w3.org/2000/svg">
<path d="M13.258 5.10133L9.10938 2.336C8.43738 1.888 7.56196 1.888 6.89063 2.336L2.74202 5.10133C2.27802 5.41066 2 5.93066 2 6.488V12C2 13.3333 2.66667 14 4 14H12C13.3333 14 14 13.3333 14 12V6.488C14 5.93133 13.7213 5.41066 13.258 5.10133ZM11.6273 7.73734L8.57129 9.96C8.37329 10.1033 8.14131 10.1753 7.91064 10.1753C7.67864 10.1753 7.44798 10.1033 7.25065 9.96L4.19466 7.73734C3.97133 7.57467 3.92197 7.262 4.08464 7.03867C4.24597 6.816 4.5587 6.76534 4.78337 6.92867L7.83936 9.15134C7.88202 9.18267 7.93938 9.18267 7.98405 9.15067L11.0394 6.92867C11.2647 6.76534 11.576 6.816 11.738 7.03867C11.9006 7.26267 11.8506 7.57534 11.6273 7.73734Z" fill="#3B3B3E"/>
</svg>
