<svg width="16" height="16" viewBox="0 0 16 16" fill="none" xmlns="http://www.w3.org/2000/svg">
<path d="M13.7266 7.01287C14.0932 7.61954 14.0932 8.37951 13.7266 8.98618C12.9066 10.3528 11.0732 12.6662 7.99985 12.6662C7.50119 12.6662 7.03188 12.6029 6.59588 12.4929C6.44721 12.4555 6.40046 12.2649 6.50913 12.1569L7.77313 10.8929C7.85046 10.8156 7.94652 10.8329 7.99985 10.8329C9.56252 10.8329 10.8332 9.56153 10.8332 7.99953C10.8332 7.94619 10.8252 7.84083 10.8805 7.7855L12.7085 5.95754C12.7932 5.87287 12.9358 5.8816 13.0098 5.9756C13.3031 6.34627 13.5419 6.70154 13.7266 7.01287ZM14.3532 2.35288L2.35321 14.3529C2.25587 14.4502 2.12785 14.4995 1.99985 14.4995C1.87185 14.4995 1.74383 14.4509 1.6465 14.3529C1.45117 14.1575 1.45117 13.8409 1.6465 13.6455L4.11655 11.1755C3.26989 10.4548 2.65579 9.62353 2.27313 8.98553C1.90646 8.37886 1.90646 7.61889 2.27313 7.01222C3.09313 5.64556 4.92652 3.33221 7.99985 3.33221C9.21585 3.33221 10.2312 3.69681 11.0752 4.21681L13.6465 1.64552C13.8418 1.45019 14.1585 1.45019 14.3539 1.64552C14.5492 1.84086 14.5485 2.15755 14.3532 2.35288ZM5.67987 9.61216L6.40578 8.88625C6.25778 8.62291 6.16652 8.32353 6.16652 7.99953C6.16652 7.76619 6.21315 7.5462 6.29315 7.33953C6.41981 7.4462 6.57978 7.51287 6.75978 7.51287C7.17311 7.51287 7.5132 7.17279 7.5132 6.75946C7.5132 6.57946 7.44653 6.41949 7.33986 6.29282C7.54653 6.21282 7.76652 6.16619 7.99985 6.16619C8.32385 6.16619 8.6239 6.25745 8.88657 6.40545L9.61248 5.67954C9.15382 5.35821 8.59919 5.16619 7.99985 5.16619C6.43985 5.16619 5.16652 6.43953 5.16652 7.99953C5.16652 8.59953 5.35853 9.15349 5.67987 9.61216Z" fill="#3B3B3E"/>
</svg>
