<svg width="16" height="16" viewBox="0 0 16 16" fill="none" xmlns="http://www.w3.org/2000/svg">
<path d="M9.49984 12.3333C9.49984 10.7733 10.7732 9.5 12.3332 9.5H13.9665C13.9865 9.39333 13.9998 9.28001 13.9998 9.17334V4.25334C13.9998 2.66667 13.3332 2 11.7465 2H4.2465C2.65983 2 1.99316 2.66667 1.99316 4.25334V11.7533C1.99316 13.34 2.65983 14.0067 4.2465 14.0067H9.1665C9.27984 14.0067 9.3865 13.9933 9.49316 13.9733V12.34L9.49984 12.3333ZM10.0065 5.83333C10.4665 5.83333 10.8398 6.20667 10.8398 6.66667C10.8398 7.12667 10.4665 7.5 10.0065 7.5C9.54651 7.5 9.17318 7.12667 9.17318 6.66667C9.17318 6.20667 9.53984 5.83333 10.0065 5.83333ZM5.17318 6.66667C5.17318 6.20667 5.53984 5.83333 6.00651 5.83333C6.46651 5.83333 6.83984 6.20667 6.83984 6.66667C6.83984 7.12667 6.46651 7.5 6.00651 7.5C5.54651 7.5 5.17318 7.12667 5.17318 6.66667ZM6.44651 10.1467C6.19985 10.0267 6.09318 9.72667 6.21318 9.48C6.33318 9.23333 6.63318 9.12666 6.87984 9.24666C7.59318 9.58666 8.42651 9.58 9.10651 9.24666C9.35317 9.12666 9.65317 9.22666 9.77317 9.47333C9.89317 9.71999 9.79317 10.02 9.54651 10.1467C9.05984 10.3867 8.53984 10.5067 7.98651 10.5067C7.43318 10.5067 6.93318 10.3867 6.44651 10.1533V10.1467ZM13.4798 10.5C13.4798 10.5 13.4332 10.56 13.4065 10.5867L10.5798 13.4133C10.5798 13.4133 10.5198 13.46 10.4932 13.4867V12.3333C10.4932 11.32 11.3132 10.5 12.3265 10.5H13.4798Z" fill="#3B3B3E"/>
</svg>
