<svg width="16" height="16" viewBox="0 0 16 16" fill="none" xmlns="http://www.w3.org/2000/svg">
<path d="M11.75 2H4.25C2.75 2 2 2.75 2 4.25V11.75C2 13.25 2.75 14 4.25 14H11.75C13.25 14 14 13.25 14 11.75V4.25C14 2.75 13.25 2 11.75 2ZM11.3333 10.222C11.3333 10.9627 10.9627 11.3333 10.222 11.3333H5.77734C5.03668 11.3333 4.66602 10.9627 4.66602 10.222V6.88867C4.66602 6.14801 5.03668 5.77734 5.77734 5.77734H6.51807L6.76139 5.04606C6.83739 4.81939 7.0494 4.66602 7.28874 4.66602H8.70996C8.94929 4.66602 9.1613 4.81873 9.2373 5.04606L9.48063 5.77734H10.2214C10.962 5.77734 11.3327 6.14801 11.3327 6.88867V10.222H11.3333ZM9.11133 8.55534C9.11133 9.16934 8.614 9.66667 8 9.66667C7.386 9.66667 6.88867 9.16934 6.88867 8.55534C6.88867 7.94201 7.386 7.44401 8 7.44401C8.614 7.44401 9.11133 7.94201 9.11133 8.55534Z" fill="#3B3B3E"/>
</svg>
