<svg width="16" height="16" viewBox="0 0 16 16" fill="none" xmlns="http://www.w3.org/2000/svg">
<path d="M11.75 2H4.25C2.75 2 2 2.75 2 4.25V11.75C2 13.25 2.75 14 4.25 14H11.75C13.25 14 14 13.25 14 11.75V4.25C14 2.75 13.25 2 11.75 2ZM9.95732 9.46932L8.30001 11.8467C8.15334 12.0533 7.84666 12.0533 7.69999 11.8467L6.04268 9.46932C5.96935 9.36399 6.07268 9.22602 6.19401 9.26668L7.84001 9.81331C7.89334 9.83331 7.94667 9.84001 8 9.84001C8.05333 9.84001 8.10666 9.83331 8.15999 9.81331L9.80599 9.26668C9.92732 9.22602 10.0306 9.36399 9.95732 9.46932ZM10.1933 8.07666L8 8.81331L5.80733 8.07666C5.68933 8.03666 5.636 7.90002 5.696 7.79069L7.68066 4.18734C7.82066 3.94067 8.18068 3.94067 8.32068 4.18734L10.3053 7.79069C10.3647 7.89936 10.3113 8.03666 10.1933 8.07666Z" fill="#3B3B3E"/>
</svg>
