<svg width="16" height="16" viewBox="0 0 16 16" fill="none" xmlns="http://www.w3.org/2000/svg">
<path fill-rule="evenodd" clip-rule="evenodd" d="M11.3693 14.0005H4.63195C3.82662 14.0005 3.13663 13.4245 2.99263 12.6325L2.02257 7.31114C1.93591 6.83514 2.11392 6.34917 2.48726 6.0425L6.94128 2.38048C7.55661 1.87448 8.44394 1.87448 9.05928 2.38048L13.5139 6.0425C13.8879 6.34984 14.0653 6.83514 13.9786 7.31114L13.0086 12.6332C12.8646 13.4245 12.1746 14.0005 11.3693 14.0005ZM9.66727 9.74254C9.66727 9.05654 9.20726 8.45917 8.54593 8.28917L7.70129 8.07652C7.59595 8.04919 7.50459 7.98848 7.43525 7.89781C7.36925 7.81381 7.33394 7.70449 7.33394 7.59182C7.33394 7.31649 7.55059 7.0932 7.81725 7.0932H8.1846C8.4306 7.0932 8.63723 7.28388 8.66523 7.53721C8.6959 7.81188 8.94992 8.00786 9.21659 7.97919C9.49125 7.94919 9.68931 7.70119 9.65864 7.42719C9.58664 6.77586 9.11059 6.26514 8.50125 6.13048V6.00051C8.50125 5.72451 8.27725 5.50051 8.00125 5.50051C7.72525 5.50051 7.50125 5.72451 7.50125 6.00051V6.12917C6.83525 6.27651 6.33459 6.87515 6.33459 7.59182C6.33459 7.92649 6.44523 8.25315 6.64456 8.50849C6.8459 8.77182 7.13326 8.96186 7.45592 9.04519L8.30057 9.25784C8.51657 9.31384 8.66857 9.5132 8.66857 9.74254C8.66857 9.87587 8.61724 10.0019 8.52257 10.0972C8.43124 10.1899 8.31192 10.2412 8.18525 10.2412H7.8179C7.5719 10.2412 7.36527 10.0505 7.33727 9.79714C7.30661 9.52248 7.05325 9.32583 6.78592 9.35517C6.51125 9.38517 6.31328 9.63317 6.34395 9.90717C6.41595 10.5585 6.89192 11.0692 7.50125 11.2039V11.3338C7.50125 11.6098 7.72525 11.8338 8.00125 11.8338C8.27725 11.8338 8.50125 11.6098 8.50125 11.3338V11.2052C8.77725 11.1445 9.03124 11.0065 9.23457 10.7992C9.5139 10.5158 9.66727 10.1405 9.66727 9.74254Z" fill="#3B3B3E"/>
</svg>
