<svg width="16" height="16" viewBox="0 0 16 16" fill="none" xmlns="http://www.w3.org/2000/svg">
<path d="M7.99967 1.33301C4.31767 1.33301 1.33301 4.31767 1.33301 7.99967C1.33301 11.6817 4.31767 14.6663 7.99967 14.6663C11.6817 14.6663 14.6663 11.6817 14.6663 7.99967C14.6663 4.31767 11.6817 1.33301 7.99967 1.33301ZM8.09294 9.83301C8.6896 9.83301 9.24838 9.53967 9.58838 9.04834C9.74571 8.82167 10.057 8.76371 10.2843 8.92171C10.5117 9.07905 10.5683 9.39036 10.411 9.61702C9.88364 10.3784 9.01695 10.8324 8.09228 10.8324C6.52962 10.8324 5.25895 9.56102 5.25895 7.99902C5.25895 6.43702 6.52962 5.16569 8.09228 5.16569C9.01695 5.16569 9.88364 5.62036 10.411 6.38102C10.5676 6.60769 10.511 6.91967 10.2843 7.07633C10.057 7.235 9.74571 7.17637 9.58838 6.94971C9.24838 6.45837 8.68894 6.16504 8.09294 6.16504C7.0816 6.16504 6.2596 6.98704 6.2596 7.99837C6.2596 9.00971 7.0816 9.83301 8.09294 9.83301Z" fill="#3B3B3E"/>
</svg>
