<svg width="16" height="16" viewBox="0 0 16 16" fill="none" xmlns="http://www.w3.org/2000/svg">
<path d="M14 4.66699V5.96696C14 6.07763 13.9106 6.16699 13.8 6.16699H2.20003C2.08937 6.16699 2 6.07763 2 5.96696V4.66699C2 3.33366 2.66667 2.66699 4 2.66699H12C13.3333 2.66699 14 3.33366 14 4.66699ZM2 7.36702V11.3337C2 12.667 2.66667 13.3337 4 13.3337H12C13.3333 13.3337 14 12.667 14 11.3337V7.36702C14 7.25636 13.9106 7.16699 13.8 7.16699H2.20003C2.08937 7.16699 2 7.25636 2 7.36702Z" fill="#3B3B3E"/>
</svg>
