<svg width="16" height="16" viewBox="0 0 16 16" fill="none" xmlns="http://www.w3.org/2000/svg">
<path fill-rule="evenodd" clip-rule="evenodd" d="M3.68654 2.35288L2.35321 3.68621C2.25587 3.78355 2.12785 3.83286 1.99985 3.83286C1.87185 3.83286 1.74383 3.78421 1.6465 3.68621C1.45117 3.49088 1.45117 3.17419 1.6465 2.97886L2.97983 1.64552C3.17517 1.45019 3.49186 1.45019 3.68719 1.64552C3.88252 1.84086 3.88187 2.15755 3.68654 2.35288ZM14.3498 2.97552L13.0165 1.66888C12.8191 1.47555 12.5031 1.47887 12.3084 1.6762C12.1158 1.87354 12.1193 2.19023 12.3159 2.38356L13.6493 3.6902C13.7466 3.78553 13.8732 3.83286 13.9992 3.83286C14.1285 3.83286 14.2585 3.78288 14.3565 3.68288C14.5498 3.48554 14.5465 3.16885 14.3498 2.97552ZM11.0679 12.3576L12.3539 13.6468C12.5485 13.8422 12.5486 14.1588 12.3526 14.3542C12.2552 14.4515 12.1272 14.5002 11.9999 14.5002C11.8719 14.5002 11.7432 14.4509 11.6458 14.3529L10.1672 12.8701C9.5045 13.1655 8.7725 13.3329 8.0005 13.3329C7.2285 13.3329 6.4965 13.1655 5.83384 12.8701L4.35451 14.3529C4.25717 14.4502 4.1285 14.4995 4.0005 14.4995C3.87317 14.4995 3.74514 14.4509 3.6478 14.3535C3.4518 14.1589 3.45183 13.8415 3.6465 13.6462L4.93247 12.3576C3.5638 11.3923 2.66717 9.80153 2.66717 7.99953C2.66717 5.05419 5.05517 2.66619 8.0005 2.66619C10.9458 2.66619 13.3338 5.05419 13.3338 7.99953C13.3332 9.80153 12.4372 11.3923 11.0679 12.3576ZM8.70721 7.99953L9.68719 7.01955C9.88252 6.82421 9.88252 6.50752 9.68719 6.31219C9.49186 6.11686 9.17517 6.11686 8.97983 6.31219L7.99985 7.29217L7.01987 6.31219C6.82454 6.11686 6.50785 6.11686 6.31252 6.31219C6.11718 6.50752 6.11718 6.82421 6.31252 7.01955L7.2925 7.99953L6.31252 8.97951C6.11718 9.17484 6.11718 9.49153 6.31252 9.68687C6.40985 9.7842 6.53787 9.83351 6.66587 9.83351C6.79387 9.83351 6.92189 9.78487 7.01922 9.68687L7.9992 8.70688L8.97918 9.68687C9.07652 9.7842 9.20453 9.83351 9.33253 9.83351C9.46053 9.83351 9.58855 9.78487 9.68589 9.68687C9.88122 9.49153 9.88122 9.17484 9.68589 8.97951L8.70721 7.99953Z" fill="#3B3B3E"/>
</svg>
