<svg width="16" height="16" viewBox="0 0 16 16" fill="none" xmlns="http://www.w3.org/2000/svg">
<path d="M13.687 12.9803C13.8823 13.1757 13.8823 13.4923 13.687 13.6877C13.5897 13.785 13.4617 13.8343 13.3337 13.8343C13.2057 13.8343 13.0776 13.7857 12.9803 13.6877L8.00033 8.70766L5.96167 10.7463C6.19434 11.109 6.33366 11.5383 6.33366 12.0003C6.33366 13.287 5.28699 14.3337 4.00033 14.3337C2.71366 14.3337 1.66699 13.287 1.66699 12.0003C1.66699 10.7137 2.71366 9.66699 4.00033 9.66699C4.46299 9.66699 4.89165 9.80634 5.25431 10.039L7.29301 8.00033L5.25431 5.96165C4.89165 6.19432 4.46233 6.33366 4.00033 6.33366C2.71366 6.33366 1.66699 5.28699 1.66699 4.00033C1.66699 2.71366 2.71366 1.66699 4.00033 1.66699C5.28699 1.66699 6.33366 2.71366 6.33366 4.00033C6.33366 4.46299 6.19434 4.89167 5.96167 5.25433L8.35368 7.64632L13.687 12.9803ZM9.66699 6.83366C9.79499 6.83366 9.92301 6.78499 10.0203 6.68699L13.687 3.02032C13.8823 2.82499 13.8823 2.50832 13.687 2.31299C13.4917 2.11765 13.175 2.11765 12.9797 2.31299L9.31299 5.97966C9.11766 6.17499 9.11766 6.49166 9.31299 6.68699C9.41099 6.78499 9.53899 6.83366 9.66699 6.83366Z" fill="#3B3B3E"/>
</svg>
