<svg width="16" height="16" viewBox="0 0 16 16" fill="none" xmlns="http://www.w3.org/2000/svg">
<path d="M5.33333 14.5C4.00667 14.5 1.5 13.84 1.5 11.3333C1.5 10.18 2.22665 9.54667 2.85999 9C3.55999 8.39333 4.16667 7.87333 4.16667 6.66667C4.16667 3.72 6.38667 1.5 9.33333 1.5C12.4733 1.5 14.5 3.66 14.5 7C14.5 10.34 12.1 14.5 5.33333 14.5ZM9.33333 2.5C6.96 2.5 5.16667 4.29333 5.16667 6.66667C5.16667 8.32667 4.25335 9.11334 3.52002 9.75334C2.87335 10.3133 2.5 10.6667 2.5 11.3333C2.5 13.4733 5.22 13.5 5.33333 13.5C13.1067 13.5 13.5 8.08667 13.5 7C13.5 3.68 11.3467 2.5 9.33333 2.5ZM9.33333 4C7.76 4 6.66667 5.1 6.66667 6.66667C6.66667 9.00667 5.71332 9.55334 4.90666 10.26C4.71999 10.42 4.16667 10.8267 4.33333 11.4467C4.48667 12.02 5.14665 12.0933 5.35999 12.0933C11.34 12.0933 12 8.17333 12 7C12 4.52 10.5533 4 9.33333 4ZM9.34668 7.5C8.88668 7.5 8.51335 7.12667 8.51335 6.66667C8.51335 6.20667 8.88001 5.83333 9.34668 5.83333C9.80668 5.83333 10.18 6.20667 10.18 6.66667C10.18 7.12667 9.80668 7.5 9.34668 7.5Z" fill="#3B3B3E"/>
</svg>
