<svg width="16" height="16" viewBox="0 0 16 16" fill="none" xmlns="http://www.w3.org/2000/svg">
<path d="M7.99971 9.47971L5.30637 8.57972L7.99971 7.23304L10.6931 8.57972L7.99971 9.47971ZM7.99971 10.5064C7.94638 10.5064 7.89305 10.4997 7.83972 10.4797L5.05239 9.55043C4.86972 9.48976 4.71505 9.69638 4.82505 9.85438L7.55304 13.7658C7.76637 14.0791 8.23305 14.0791 8.44639 13.7658L11.1744 9.85438C11.2844 9.69638 11.1297 9.48976 10.947 9.55043L8.15971 10.4797C8.10637 10.4997 8.05305 10.5064 7.99971 10.5064ZM8.22638 6.22637L10.999 7.61236C11.1744 7.70036 11.3584 7.50905 11.2637 7.33705L8.47971 2.27902C8.27305 1.90569 7.72638 1.90569 7.51971 2.27902L4.73571 7.33705C4.64105 7.50905 4.82505 7.70036 5.00038 7.61236L7.77305 6.22637C7.91971 6.1597 8.07971 6.1597 8.22638 6.22637Z" fill="#3B3B3E"/>
</svg>
