<svg width="16" height="16" viewBox="0 0 16 16" fill="none" xmlns="http://www.w3.org/2000/svg">
<path d="M8.00054 2C6.15388 2 4.66721 3.48667 4.66721 5.33333V5.96667C4.66721 5.96667 4.6672 6.16667 4.8672 6.16667H11.1339C11.3339 6.16667 11.3339 5.96667 11.3339 5.96667V5.33333C11.3339 3.48667 9.84721 2 8.00054 2ZM6.68054 4.16667C6.4072 4.16667 6.18054 3.94 6.18054 3.66667C6.18054 3.39333 6.40054 3.16667 6.68054 3.16667C6.96054 3.16667 7.18054 3.39333 7.18054 3.66667C7.18054 3.94 6.96054 4.16667 6.68054 4.16667ZM8.01387 4.83333C7.74054 4.83333 7.51387 4.60667 7.51387 4.33333C7.51387 4.06 7.73387 3.83333 8.01387 3.83333C8.29387 3.83333 8.51387 4.06 8.51387 4.33333C8.51387 4.60667 8.29387 4.83333 8.01387 4.83333ZM9.3472 4.16667C9.07387 4.16667 8.8472 3.94 8.8472 3.66667C8.8472 3.39333 9.0672 3.16667 9.3472 3.16667C9.6272 3.16667 9.8472 3.39333 9.8472 3.66667C9.8472 3.94 9.6272 4.16667 9.3472 4.16667ZM11.2005 7.16667H4.8072C4.70054 7.16667 4.62055 7.24666 4.60721 7.34666L4.13388 12.5467C4.06055 13.3267 4.67388 14 5.46054 14H10.5405C11.3272 14 11.9405 13.3267 11.8672 12.5467L11.3939 7.34666C11.3872 7.24666 11.3005 7.16667 11.1939 7.16667H11.2005ZM7.16721 12C7.16721 12.2733 6.94054 12.5 6.66721 12.5C6.39388 12.5 6.16721 12.2733 6.16721 12V8.66667C6.16721 8.39333 6.39388 8.16667 6.66721 8.16667C6.94054 8.16667 7.16721 8.39333 7.16721 8.66667V12ZM9.83388 12C9.83388 12.2733 9.60721 12.5 9.33388 12.5C9.06054 12.5 8.83388 12.2733 8.83388 12V8.66667C8.83388 8.39333 9.06054 8.16667 9.33388 8.16667C9.60721 8.16667 9.83388 8.39333 9.83388 8.66667V12Z" fill="#3B3B3E"/>
</svg>
