<svg width="16" height="16" viewBox="0 0 16 16" fill="none" xmlns="http://www.w3.org/2000/svg">
<path d="M9.58058 5.01333C8.90058 7.00666 8.90725 9.01999 9.59391 11.0133C9.62058 11.0867 9.59391 11.14 9.57391 11.18C9.55391 11.22 9.51391 11.26 9.43391 11.2667C9.26058 11.2933 9.09392 11.3133 8.92058 11.32L6.66725 12.4867C6.52725 12.56 6.36058 12.4467 6.37391 12.2867L6.51392 10.86C5.82058 10.56 5.04058 10.1133 4.40725 9.49333C4.30058 9.39333 4.14724 9.36666 4.01391 9.43333L2.20058 10.4333C2.08725 10.5 1.95391 10.3733 2.01391 10.26L3.14725 7.98667L2.01391 5.71334C1.95391 5.59334 2.08725 5.47333 2.20058 5.54L4.01391 6.54C4.14058 6.61333 4.30058 6.58667 4.40725 6.48C5.04058 5.86 5.82058 5.40668 6.51392 5.11334L6.37391 3.68667C6.36058 3.52667 6.52725 3.41334 6.66725 3.48667L8.92058 4.65334C9.08725 4.66001 9.26058 4.68 9.42725 4.70667C9.50725 4.72 9.56058 4.76667 9.58058 4.81333C9.60724 4.87333 9.60724 4.91333 9.58058 5V5.01333ZM13.7939 8.62C12.9339 9.75333 11.9072 10.48 10.8339 10.9C10.7272 10.94 10.6006 10.88 10.5673 10.7733C9.92725 8.95334 9.93392 7.04666 10.5673 5.22666C10.6073 5.12 10.7272 5.06 10.8339 5.1C11.9006 5.51333 12.9272 6.24667 13.7872 7.37333C14.0672 7.74 14.0672 8.25333 13.7872 8.62H13.7939ZM12.5139 7.99333C12.5139 7.71999 12.2939 7.49333 12.0139 7.49333C11.7406 7.49333 11.5139 7.71999 11.5139 7.99333C11.5139 8.26666 11.7406 8.49333 12.0139 8.49333C12.2872 8.49333 12.5139 8.26666 12.5139 7.99333Z" fill="#3B3B3E"/>
</svg>
