<svg width="16" height="16" viewBox="0 0 16 16" fill="none" xmlns="http://www.w3.org/2000/svg">
<path d="M14 7.00098V12.3343C14 12.5176 13.8554 12.667 13.672 12.6676C12.1834 12.6743 9.23467 12.7657 8 14.0003C6.76533 12.7657 3.81663 12.6743 2.32796 12.6676C2.14463 12.667 2 12.5176 2 12.3343V7.00098C2 6.81631 2.14998 6.66699 2.33398 6.66699C3.59465 6.66966 4.85603 6.70166 6.1167 7.09766C7.23403 7.44832 8 8.47899 8 9.64966C8 8.47832 8.76597 7.44832 9.8833 7.09766C11.144 6.70166 12.4047 6.66966 13.666 6.66699C13.85 6.66633 14 6.81631 14 7.00098ZM8 5.66699C9.10267 5.66699 10 4.76966 10 3.66699C10 2.56433 9.10267 1.66699 8 1.66699C6.89733 1.66699 6 2.56433 6 3.66699C6 4.76966 6.89733 5.66699 8 5.66699Z" fill="#3B3B3E"/>
</svg>
