<svg width="16" height="16" viewBox="0 0 16 16" fill="none" xmlns="http://www.w3.org/2000/svg">
<path d="M10.1535 10.753C10.1535 10.873 10.0735 10.9597 9.95349 10.9597C9.83349 10.9597 9.76017 10.8663 9.76017 10.753C9.76017 10.6397 9.83349 10.5463 9.95349 10.5463C10.0735 10.5463 10.1535 10.6397 10.1535 10.753ZM5.93351 10.5463C5.80685 10.5463 5.73348 10.6397 5.73348 10.753C5.73348 10.8663 5.80685 10.9597 5.93351 10.9597C6.04685 10.9597 6.12683 10.873 6.12683 10.753C6.12683 10.6397 6.04685 10.5463 5.93351 10.5463ZM8.03349 10.5463C7.94015 10.5463 7.88015 10.6063 7.86682 10.6997H8.20683C8.19349 10.5997 8.12682 10.5463 8.03349 10.5463ZM11.2868 10.5463C11.1668 10.5463 11.0868 10.6397 11.0868 10.753C11.0868 10.8663 11.1668 10.9597 11.2868 10.9597C11.4068 10.9597 11.4868 10.873 11.4868 10.753C11.4868 10.633 11.4068 10.5463 11.2868 10.5463ZM14.0068 5.33301V10.6663C14.0068 11.9997 13.3402 12.6663 12.0068 12.6663H4.00684C2.6735 12.6663 2.00684 11.9997 2.00684 10.6663V5.33301C2.00684 3.99967 2.6735 3.33301 4.00684 3.33301H12.0068C13.3402 3.33301 14.0068 3.99967 14.0068 5.33301ZM4.00684 7.36633C4.00684 8.733 5.11348 9.83968 6.48014 9.83968C6.96681 9.83968 7.44018 9.69302 7.84684 9.42635C6.54684 8.36635 6.55351 6.36634 7.84684 5.31301C7.44018 5.04634 6.96681 4.89968 6.48014 4.89968C5.11348 4.89968 4.00684 6.00633 4.00684 7.36633V7.36633ZM8.00684 9.30634C9.26684 8.32634 9.26017 6.41301 8.00684 5.41968C6.7535 6.40634 6.74684 8.32634 8.00684 9.30634ZM5.46684 10.6663C5.46684 10.513 5.36683 10.4063 5.20683 10.4063C5.12683 10.4063 5.04014 10.433 4.98014 10.5197C4.94014 10.4463 4.86684 10.4063 4.76017 10.4063C4.69351 10.4063 4.62682 10.433 4.57349 10.4997V10.4197H4.42684V11.073H4.57349C4.57349 10.733 4.52681 10.533 4.73348 10.533C4.91348 10.533 4.88017 10.713 4.88017 11.073H5.02018C5.02018 10.7463 4.97351 10.533 5.18018 10.533C5.36018 10.533 5.32682 10.713 5.32682 11.073H5.47351V10.6597L5.46684 10.6663ZM6.26685 10.4197H6.12683V10.4997C6.08016 10.4397 6.0135 10.4063 5.92017 10.4063C5.7335 10.4063 5.59351 10.553 5.59351 10.753C5.59351 10.953 5.7335 11.0997 5.92017 11.0997C6.0135 11.0997 6.08016 11.0663 6.12683 11.0063V11.0863H6.26685V10.4264V10.4197ZM6.98682 10.8797C6.98682 10.613 6.58016 10.733 6.58016 10.6063C6.58016 10.5063 6.79349 10.5197 6.91349 10.5863L6.97351 10.473C6.80684 10.3663 6.43351 10.3663 6.43351 10.6197C6.43351 10.873 6.84017 10.7663 6.84017 10.8863C6.84017 10.9997 6.60018 10.993 6.47351 10.8997L6.41349 11.013C6.61349 11.1463 6.99349 11.1197 6.99349 10.8797H6.98682ZM7.62016 11.0463L7.58016 10.9264C7.51349 10.9664 7.36015 11.0063 7.36015 10.853V10.5597H7.59351V10.4264H7.36015V10.2263H7.2135V10.4264H7.08016V10.5597H7.2135V10.8597C7.2135 11.173 7.52016 11.1197 7.62016 11.053V11.0463ZM7.86015 10.8063H8.35352C8.35352 10.5197 8.22016 10.3997 8.04016 10.3997C7.85349 10.3997 7.7135 10.5397 7.7135 10.7463C7.7135 11.113 8.12015 11.173 8.32015 10.9997L8.2535 10.893C8.1135 11.0063 7.90681 10.9997 7.86015 10.8063V10.8063ZM8.91349 10.4197C8.83349 10.3863 8.70684 10.3863 8.64018 10.4997V10.4197H8.49349V11.073H8.64018V10.7063C8.64018 10.4997 8.80682 10.5263 8.86682 10.5597L8.90682 10.4264L8.91349 10.4197ZM9.10018 10.7463C9.10018 10.5397 9.30684 10.4797 9.46684 10.593L9.53349 10.4797C9.32682 10.3197 8.94682 10.4063 8.94682 10.7463C8.94682 11.0863 9.34682 11.173 9.53349 11.013L9.46684 10.8997C9.30017 11.013 9.10018 10.9463 9.10018 10.7463V10.7463ZM10.2935 10.4197H10.1468V10.4997C10.0001 10.3063 9.61348 10.413 9.61348 10.7463C9.61348 11.0797 10.0135 11.1863 10.1468 10.993V11.073H10.2935V10.413V10.4197ZM10.8935 10.4197C10.8535 10.3997 10.7002 10.3663 10.6202 10.4997V10.4197H10.4801V11.073H10.6202V10.7063C10.6202 10.513 10.7802 10.5197 10.8468 10.5597L10.8868 10.4264L10.8935 10.4197ZM11.6135 10.153H11.4735V10.4997C11.3268 10.3063 10.9401 10.4063 10.9401 10.7463C10.9401 11.0863 11.3402 11.1863 11.4735 10.993V11.073H11.6135V10.153ZM12.0002 7.35968C12.0002 5.99968 10.8935 4.89301 9.52682 4.89301C9.04015 4.89301 8.56682 5.03967 8.16016 5.30634C9.44682 6.36634 9.46682 8.36634 8.16016 9.41968C8.56682 9.68634 9.04681 9.83301 9.52682 9.83301C10.8935 9.83301 12.0002 8.72635 12.0002 7.35968V7.35968Z" fill="#3B3B3E"/>
</svg>
