<svg width="16" height="16" viewBox="0 0 16 16" fill="none" xmlns="http://www.w3.org/2000/svg">
<path d="M10.6663 6C10.4463 6 10.233 6.02002 10.0197 6.06002C9.79436 5.69402 9.51569 5.36398 9.19369 5.08065C8.43169 4.40865 7.42969 4 6.33236 4C3.93902 4 1.99902 5.94 1.99902 8.33333C1.99902 10.7267 3.93902 12.6667 6.33236 12.6667H10.6657C12.5057 12.6667 13.999 11.1733 13.999 9.33333C13.999 7.49333 12.5063 6 10.6663 6ZM9.68636 8.46468L7.90837 10.2427C7.81437 10.3367 7.68768 10.3893 7.55501 10.3893C7.42235 10.3893 7.29499 10.3367 7.20166 10.2427L6.31299 9.354C6.11766 9.15867 6.11766 8.84198 6.31299 8.64665C6.50832 8.45131 6.82501 8.45131 7.02035 8.64665L7.55566 9.18201L8.98031 7.75802C9.17564 7.56268 9.49233 7.56268 9.68766 7.75802C9.883 7.95335 9.88169 8.26935 9.68636 8.46468Z" fill="#3B3B3E"/>
</svg>
