<svg width="16" height="16" viewBox="0 0 16 16" fill="none" xmlns="http://www.w3.org/2000/svg">
<path d="M14.5 7.97303C14.36 5.3997 12.7067 3.15302 10.28 2.24635C9.87332 2.09302 9.41333 2.15969 9.04 2.41969L2.13334 7.29303C1.73334 7.57303 1.5 8.03302 1.5 8.51969V11.9997C1.5 13.013 2.32 13.833 3.33333 13.833H12.6667C13.68 13.833 14.5 13.013 14.5 11.9997V7.99969C14.5 7.99969 14.5 7.9797 14.5 7.97303V7.97303ZM2.5 8.51969C2.5 8.51969 2.5 8.50636 2.5 8.49969H13.4933V10.1664H2.49333V8.51969H2.5ZM12.6667 12.833H3.33333C2.87333 12.833 2.5 12.4597 2.5 11.9997V11.1664H13.5V11.9997C13.5 12.4597 13.1267 12.833 12.6667 12.833Z" fill="#3B3B3E"/>
</svg>
