<svg width="16" height="16" viewBox="0 0 16 16" fill="none" xmlns="http://www.w3.org/2000/svg">
<path d="M14.6663 7.99967C14.6663 11.6797 11.6797 14.6663 7.99967 14.6663C7.31301 14.6663 6.65967 14.5597 6.033 14.373C6.30633 13.9397 6.73966 13.1797 6.89966 12.573C6.97966 12.2663 7.31299 10.9997 7.31299 10.9997C7.52632 11.413 8.15967 11.7597 8.83301 11.7597C10.833 11.7597 12.273 9.91967 12.273 7.63301C12.273 5.34634 10.4864 3.79967 8.18636 3.79967C5.31969 3.79967 3.79968 5.71967 3.79968 7.81301C3.79968 8.78634 4.31965 9.99968 5.14632 10.3863C5.27299 10.4463 5.33967 10.4197 5.36633 10.2997C5.38633 10.2063 5.49969 9.75301 5.55302 9.54635C5.57302 9.47968 5.55301 9.40634 5.50635 9.35301C5.23301 9.01967 5.01302 8.413 5.01302 7.83967C5.01302 6.373 6.11968 4.95968 8.00635 4.95968C9.63968 4.95968 10.7797 6.07301 10.7797 7.65968C10.7797 9.45301 9.87299 10.6997 8.69299 10.6997C8.04633 10.6997 7.55301 10.1597 7.71301 9.49967C7.89968 8.71301 8.25968 7.85968 8.25968 7.29301C8.25968 6.77968 7.98634 6.35301 7.41968 6.35301C6.75301 6.35301 6.21969 7.04634 6.21969 7.96634C6.21969 8.55301 6.41968 8.953 6.41968 8.953C6.41968 8.953 5.75969 11.733 5.63969 12.253C5.49969 12.853 5.56634 13.7063 5.62634 14.2263C3.11968 13.2663 1.33301 10.8463 1.33301 7.99967C1.33301 4.31967 4.31967 1.33301 7.99967 1.33301C11.6797 1.33301 14.6663 4.31967 14.6663 7.99967V7.99967Z" fill="#3B3B3E"/>
</svg>
