<svg width="16" height="16" viewBox="0 0 16 16" fill="none" xmlns="http://www.w3.org/2000/svg">
<path d="M7.99967 0.833008C4.04767 0.833008 0.833008 4.04834 0.833008 7.99967C0.833008 11.951 4.04767 15.1663 7.99967 15.1663C11.9517 15.1663 15.1663 11.951 15.1663 7.99967C15.1663 4.04834 11.9517 0.833008 7.99967 0.833008ZM1.83301 7.99967C1.83301 7.28901 1.95967 6.609 2.18233 5.973C2.59567 8.97967 5.233 9.23368 5.347 9.71301C5.47367 10.253 5.34701 10.413 5.39368 11.3397C5.44034 12.2663 6.72033 12.2797 7.21366 13.013C7.359 13.2263 7.44302 13.683 7.40702 14.1363C4.28369 13.837 1.83301 11.1997 1.83301 7.99967ZM9.67301 13.9297C10.127 12.5077 11.4903 12.0257 11.629 11.2037C11.7403 10.5443 10.8737 10.207 10.0957 10.111C9.325 10.0223 9.43635 9.21501 8.88835 8.64435C8.34035 8.07368 7.98167 8.10633 7.21167 8.20233C6.43367 8.291 5.78166 8.23568 5.56632 7.76168C5.35899 7.28768 5.62567 7.06101 5.059 6.47367C4.587 5.98434 5.09366 5.54568 5.34566 5.48635C5.74566 5.39035 6.45699 6.08967 6.87366 6.00433C8.12899 5.74567 6.625 3.289 8.51033 2.671C8.84033 2.563 9.14899 2.30035 9.30432 1.97502C10.3817 2.20835 11.351 2.72567 12.139 3.44167C12.3557 4.05834 12.5063 4.76635 12.3803 5.14168C12.1283 5.91968 11.4957 6.47901 12.1864 7.75234C12.907 9.08167 13.3517 9.26235 13.6757 8.89701C13.8043 8.75168 13.9717 8.64902 14.1383 8.58702C13.8937 11.145 12.0803 13.249 9.67301 13.9297Z" fill="#3B3B3E"/>
</svg>
