<svg width="16" height="16" viewBox="0 0 16 16" fill="none" xmlns="http://www.w3.org/2000/svg">
<path d="M14.5 8.00033C14.5 9.00366 14.3599 10.0623 14.1066 11.0897C14.1019 11.1117 14.1027 11.1336 14.0973 11.1549C14.0853 11.2029 14.0693 11.249 14.0566 11.297C14.038 11.369 14.0153 11.4383 13.9953 11.5103C13.9326 11.7389 13.8733 11.9689 13.8006 12.1903L13.4867 13.207C13.244 13.993 12.5161 14.5003 11.7327 14.5003C11.5554 14.5003 11.3761 14.4742 11.1987 14.4202L10.5547 14.2236C10.2574 14.133 10.0121 13.9309 9.8654 13.6549C9.7194 13.3796 9.6886 13.0643 9.7806 12.7663L10.77 9.53027C10.8614 9.23161 11.0627 8.98698 11.3387 8.84098C11.6154 8.69498 11.9327 8.66501 12.228 8.75635L12.856 8.94906C13.0673 9.01372 13.256 9.11762 13.4227 9.24495C13.4694 8.82495 13.5 8.40698 13.5 8.00098C13.5 4.96831 11.0327 2.50098 8 2.50098C4.96733 2.50098 2.5 4.96831 2.5 8.00098C2.5 8.40698 2.53064 8.8243 2.57731 9.2443C2.74398 9.11697 2.93271 9.01307 3.14404 8.94841L3.77197 8.7557C4.06797 8.6637 4.3853 8.69367 4.6613 8.84033C4.93663 8.98633 5.13865 9.23096 5.22998 9.52962L6.2194 12.7669C6.3114 13.0643 6.2806 13.3803 6.1346 13.6556C5.98794 13.9316 5.74266 14.133 5.44466 14.2243L4.80127 14.4211C4.62394 14.4757 4.44459 14.501 4.26725 14.501C3.48392 14.501 2.75601 13.9937 2.51335 13.2077L2.19808 12.1857C2.12608 11.9677 2.06529 11.7336 2.00195 11.5029C1.98329 11.4336 1.96069 11.3677 1.94336 11.297C1.93069 11.2484 1.91467 11.2043 1.90267 11.1556C1.89734 11.1336 1.89806 11.1123 1.89339 11.0903C1.64006 10.0637 1.5 9.00431 1.5 8.00098C1.5 4.41698 4.416 1.50098 8 1.50098C11.584 1.50098 14.5 4.41633 14.5 8.00033Z" fill="#3B3B3E"/>
</svg>
