<svg width="16" height="16" viewBox="0 0 16 16" fill="none" xmlns="http://www.w3.org/2000/svg">
<path d="M14.3721 8.20099L12.9307 3.87632C12.5793 2.82166 11.712 2.16699 10.6667 2.16699H5.33333C4.28867 2.16699 3.42134 2.82166 3.06934 3.87632L1.62874 8.20032C1.54341 8.45498 1.5 8.72166 1.5 8.99166V12.0003C1.5 13.6123 2.388 14.5003 4 14.5003H12C13.612 14.5003 14.5 13.6123 14.5 12.0003V8.99166C14.5 8.72166 14.4567 8.45499 14.3721 8.20099ZM4.01872 4.19232C4.23205 3.55032 4.724 3.16699 5.33333 3.16699H10.6667C11.276 3.16699 11.7673 3.55032 11.9813 4.19232L13.362 8.33366H11.3633C10.5899 8.33366 9.87062 8.77299 9.43929 9.50899C9.14196 10.0177 8.59067 10.3337 8 10.3337C7.40933 10.3337 6.85804 10.0177 6.56071 9.50899C6.13004 8.77299 5.41005 8.33366 4.63672 8.33366H2.63867L4.01872 4.19232Z" fill="#3B3B3E"/>
</svg>
