<svg width="16" height="16" viewBox="0 0 16 16" fill="none" xmlns="http://www.w3.org/2000/svg">
<path d="M13.6667 3.02683V4.6935C13.6667 5.2715 13.3014 5.71816 12.6894 5.88816L9.06331 6.90151C8.63465 7.02617 8.33333 7.47814 8.33333 8.00014V11.6668C8.33333 13.1375 7.13733 14.3335 5.66667 14.3335C4.196 14.3335 3 13.1375 3 11.6668C3 10.1961 4.196 9.00014 5.66667 9.00014C6.46667 9.00014 7.17733 9.36153 7.66667 9.92153V4.22019C7.66667 3.48219 8.16596 2.82142 8.87996 2.61342L11.97 1.74542C12.4713 1.60409 12.9007 1.65209 13.2067 1.88409C13.5127 2.11543 13.6667 2.50017 13.6667 3.02683Z" fill="#3B3B3E"/>
</svg>
