<svg width="16" height="16" viewBox="0 0 16 16" fill="none" xmlns="http://www.w3.org/2000/svg">
<path fill-rule="evenodd" clip-rule="evenodd" d="M5.50033 2C5.50033 1.724 5.72433 1.5 6.00033 1.5H9.33366C9.60966 1.5 9.83366 1.724 9.83366 2C9.83366 2.276 9.60966 2.5 9.33366 2.5H6.00033C5.72433 2.5 5.50033 2.276 5.50033 2ZM12.667 9C12.667 11.7613 10.4283 14 7.66699 14C4.90566 14 2.66699 11.7613 2.66699 9C2.66699 6.23867 4.90566 4 7.66699 4C8.78233 4 9.8083 4.36932 10.6403 4.98665L11.647 3.97998C11.8403 3.78665 12.1603 3.78665 12.3537 3.97998C12.547 4.17331 12.547 4.49335 12.3537 4.68669L11.3804 5.65999C12.1777 6.54599 12.667 7.71467 12.667 9ZM9.30029 9.60002L8.16699 8.75V6.66667C8.16699 6.39067 7.94299 6.16667 7.66699 6.16667C7.39099 6.16667 7.16699 6.39067 7.16699 6.66667V9C7.16699 9.15733 7.24102 9.30532 7.36702 9.39998L8.70036 10.4C8.79036 10.4673 8.89567 10.5 8.99967 10.5C9.15234 10.5 9.30239 10.4306 9.40039 10.3C9.56639 10.0793 9.52096 9.76535 9.30029 9.60002Z" fill="#3B3B3E"/>
</svg>
