<svg width="16" height="16" viewBox="0 0 16 16" fill="none" xmlns="http://www.w3.org/2000/svg">
<path d="M12 4.66699H8.66667L6.66667 2.66699H4C2.66667 2.66699 2 3.33366 2 4.66699V11.3337C2 12.667 2.66667 13.3337 4 13.3337H12C13.3333 13.3337 14 12.667 14 11.3337V6.66699C14 5.33366 13.3333 4.66699 12 4.66699ZM8 5.90033C8.79067 5.90033 9.43327 6.54299 9.43327 7.33366C9.43327 8.12433 8.79 8.76699 8 8.76699C7.21 8.76699 6.56673 8.12433 6.56673 7.33366C6.56673 6.54299 7.20933 5.90033 8 5.90033ZM10.3333 11.567C10.3333 11.751 10.184 11.9003 10 11.9003H6C5.816 11.9003 5.66667 11.751 5.66667 11.567V11.365C5.66667 10.4717 6.32061 9.567 7.57194 9.567H8.42741C9.67874 9.567 10.3327 10.4717 10.3327 11.365V11.567H10.3333Z" fill="#3B3B3E"/>
</svg>
