<svg width="16" height="16" viewBox="0 0 16 16" fill="none" xmlns="http://www.w3.org/2000/svg">
<path d="M14.3533 3.68636L13.02 5.01969C12.974 5.06569 12.9187 5.10235 12.8573 5.12769C12.796 5.15302 12.7313 5.16634 12.666 5.16634C12.6007 5.16634 12.536 5.15302 12.4747 5.12769C12.4133 5.10235 12.358 5.06569 12.312 5.01969L10.9787 3.68636C10.7833 3.49103 10.7833 3.17434 10.9787 2.979C11.174 2.78367 11.4907 2.78367 11.686 2.979L12.166 3.45898V1.33301C12.166 1.05701 12.39 0.833008 12.666 0.833008C12.942 0.833008 13.166 1.05701 13.166 1.33301V3.45898L13.646 2.979C13.8413 2.78367 14.158 2.78367 14.3533 2.979C14.5487 3.17434 14.5487 3.49103 14.3533 3.68636ZM14 6.32365V11.7463C14 13.2463 13.2333 13.9997 11.7467 13.9997H4.25334C2.73334 13.9997 2 13.2463 2 11.7463V4.25301C2 2.74634 2.73334 1.99967 4.25334 1.99967H9.67601C9.82001 1.99967 9.90933 2.14365 9.85866 2.27832C9.666 2.78965 9.60867 3.37032 9.734 3.97298C9.97067 5.10965 10.89 6.02969 12.026 6.26636C12.6293 6.39236 13.21 6.33502 13.722 6.14168C13.856 6.09102 14 6.18032 14 6.32365ZM9.98133 9.34432C9.98133 8.54299 9.438 7.84569 8.65733 7.64836L7.58534 7.38232C7.42 7.34099 7.27933 7.24837 7.17333 7.11304C7.07333 6.98637 7.018 6.82366 7.018 6.65633C7.018 6.24366 7.35333 5.90837 7.766 5.90837H8.23267C8.614 5.90837 8.93333 6.19503 8.97666 6.57503C9.00733 6.8497 9.25334 7.04969 9.52934 7.01636C9.804 6.98569 10.0013 6.73837 9.97066 6.4637C9.88066 5.66237 9.26067 5.04431 8.48467 4.93164V4.66634C8.48467 4.39034 8.26067 4.16634 7.98467 4.16634C7.70867 4.16634 7.48467 4.39034 7.48467 4.66634V4.93571C6.65467 5.07171 6.018 5.7877 6.018 6.65503C6.018 7.04636 6.14933 7.42904 6.386 7.7277C6.62333 8.0337 6.962 8.25499 7.342 8.35099L8.414 8.61702C8.748 8.70169 8.98133 9.00035 8.98133 9.34302C8.98133 9.54168 8.90333 9.72901 8.76133 9.87101C8.61933 10.013 8.432 10.091 8.23334 10.091H7.76666C7.38533 10.091 7.066 9.80432 7.02266 9.42432C6.992 9.14965 6.74333 8.94833 6.47 8.98299C6.19533 9.01366 5.998 9.26098 6.02867 9.53564C6.11733 10.327 6.72267 10.941 7.48467 11.0644V11.333C7.48467 11.609 7.70867 11.833 7.98467 11.833C8.26067 11.833 8.48467 11.609 8.48467 11.333V11.0677C8.85467 11.0137 9.198 10.8497 9.468 10.5797C9.79933 10.2483 9.98133 9.80965 9.98133 9.34432Z" fill="#3B3B3E"/>
</svg>
