<svg width="16" height="16" viewBox="0 0 16 16" fill="none" xmlns="http://www.w3.org/2000/svg">
<path d="M14.0002 5.47103V7.2596C14.0002 11.7063 10.2202 13.9263 8.00018 14.6663C7.32151 14.4383 6.49948 14.0764 5.68214 13.5544C5.50414 13.441 5.48091 13.1863 5.62957 13.0369L13.4308 5.23568C13.6408 5.02568 14.0002 5.17436 14.0002 5.47103ZM14.3535 1.64632C14.1582 1.45099 13.8415 1.45099 13.6462 1.64632L12.3309 2.96175C10.2196 2.43908 9.20221 1.93367 8.01287 1.33301C6.51954 2.07301 5.33286 2.66634 1.99953 3.33301C1.99953 4.09301 1.99953 6.46627 1.99953 7.2596C1.99953 9.10694 2.66145 10.5717 3.58612 11.7057L1.64552 13.6463C1.45019 13.8417 1.45019 14.1583 1.64552 14.3537C1.74286 14.451 1.87088 14.5003 1.99888 14.5003C2.12688 14.5003 2.2549 14.4517 2.35223 14.3537L14.3522 2.35368C14.5489 2.15768 14.5489 1.84165 14.3535 1.64632Z" fill="#3B3B3E"/>
</svg>
