<svg width="16" height="16" viewBox="0 0 16 16" fill="none" xmlns="http://www.w3.org/2000/svg">
<path d="M7.99967 1.33301C4.31967 1.33301 1.33301 4.31967 1.33301 7.99967C1.33301 11.6797 4.31967 14.6663 7.99967 14.6663C11.6797 14.6663 14.6663 11.6797 14.6663 7.99967C14.6663 4.31967 11.6797 1.33301 7.99967 1.33301ZM9.99967 5.49967C10.4797 5.49967 10.833 5.99301 10.833 6.66634C10.833 7.33967 10.4797 7.83301 9.99967 7.83301C9.51967 7.83301 9.16634 7.33967 9.16634 6.66634C9.16634 5.99301 9.51967 5.49967 9.99967 5.49967ZM5.99967 5.49967C6.47967 5.49967 6.83301 5.99301 6.83301 6.66634C6.83301 7.33967 6.47967 7.83301 5.99967 7.83301C5.51967 7.83301 5.16634 7.33967 5.16634 6.66634C5.16634 5.99301 5.51967 5.49967 5.99967 5.49967ZM5.99967 11.6663C5.48634 11.6663 5.06634 11.273 5.06634 10.6997C5.06634 9.97967 5.99967 8.99967 5.99967 8.99967C5.99967 8.99967 6.933 9.97967 6.933 10.6997C6.933 11.273 6.51301 11.6663 5.99967 11.6663ZM10.9597 11.733C10.873 11.7997 10.7663 11.833 10.6597 11.833C10.5063 11.833 10.3597 11.7663 10.2597 11.633C9.72634 10.9263 8.87967 10.4997 7.99967 10.4997C7.97301 10.4997 7.94634 10.4997 7.91968 10.5063C7.88634 10.1663 7.75967 9.83301 7.59967 9.52635C7.733 9.50635 7.86634 9.49967 7.99967 9.49967C9.19301 9.49967 10.3397 10.073 11.0597 11.033C11.2263 11.253 11.1797 11.5663 10.9597 11.733V11.733Z" fill="#3B3B3E"/>
</svg>
