<svg width="16" height="16" viewBox="0 0 16 16" fill="none" xmlns="http://www.w3.org/2000/svg">
<path d="M11.333 10.4207C11.333 9.08532 10.427 7.92334 9.12703 7.59334L7.19637 7.11466C6.84904 7.02666 6.55037 6.83195 6.32904 6.54728C6.11637 6.27861 5.99903 5.93531 5.99903 5.58065C5.99903 4.70931 6.70771 4.00065 7.57904 4.00065H8.41904C9.22437 4.00065 9.89971 4.60602 9.98971 5.40869C10.031 5.77469 10.3617 6.03933 10.7264 5.99666C11.0924 5.95533 11.3557 5.62534 11.3144 5.26001C11.157 3.85668 10.023 2.79331 8.63837 2.68864V2.00065C8.63837 1.63398 8.33837 1.33398 7.9717 1.33398C7.60503 1.33398 7.30503 1.63398 7.30503 2.00065V2.69531C5.82837 2.83531 4.66504 4.06797 4.66504 5.5813C4.66504 6.23397 4.88437 6.87129 5.27837 7.36995C5.6737 7.87995 6.23838 8.24802 6.87104 8.40869L8.80171 8.88729C9.50637 9.06595 9.99837 9.69664 9.99837 10.4213C9.99837 10.8406 9.83304 11.2366 9.53304 11.5366C9.23371 11.8366 8.83771 12.0013 8.41838 12.0013H7.57837C6.77304 12.0013 6.0977 11.396 6.0077 10.5933C5.96637 10.2273 5.6337 9.96396 5.27104 10.0053C4.90504 10.0466 4.64171 10.3767 4.68304 10.742C4.83837 12.1274 5.9457 13.18 7.3057 13.3087V14.0007C7.3057 14.3673 7.6057 14.6673 7.97237 14.6673C8.33904 14.6673 8.63904 14.3673 8.63904 14.0007V13.3127C9.3317 13.26 9.97904 12.9773 10.477 12.4793C11.029 11.9273 11.333 11.1967 11.333 10.4207Z" fill="#3B3B3E"/>
</svg>
