<svg width="16" height="16" viewBox="0 0 16 16" fill="none" xmlns="http://www.w3.org/2000/svg">
<path d="M7.08076 2.06859C4.88009 2.39592 3.00075 3.97592 2.31009 6.09126C1.79875 7.65726 1.95668 9.21525 2.55602 10.5046C2.69602 10.7979 2.69606 11.1379 2.59606 11.4512L2.036 13.1173C1.86 13.6406 2.35934 14.1399 2.88268 13.9639L4.54934 13.4039C4.86268 13.3039 5.20264 13.3039 5.49531 13.4439C6.25531 13.7972 7.10866 13.9972 8.00133 13.9972C8.33666 13.9972 8.66735 13.9712 8.98668 13.9186C9.10535 13.8992 9.17268 13.7779 9.13935 13.6626C9.02868 13.2719 8.98065 12.8552 9.00865 12.4199C9.12599 10.6199 10.622 9.12322 12.4227 9.00589C12.858 8.97789 13.2741 9.02592 13.6654 9.13658C13.7807 9.16925 13.9014 9.10191 13.9214 8.98391C13.9741 8.66458 14 8.3339 14 7.99856C14 4.3839 10.8014 1.51526 7.08076 2.06859ZM5.34671 8.66657C4.97871 8.66657 4.67662 8.36791 4.67662 7.99991C4.67662 7.63191 4.97203 7.33324 5.34003 7.33324H5.34671C5.71537 7.33324 6.01337 7.63191 6.01337 7.99991C6.01337 8.36791 5.71471 8.66657 5.34671 8.66657ZM8.01337 8.66657C7.64537 8.66657 7.34329 8.36791 7.34329 7.99991C7.34329 7.63191 7.6387 7.33324 8.0067 7.33324H8.01337C8.38204 7.33324 8.68004 7.63191 8.68004 7.99991C8.68004 8.36791 8.38137 8.66657 8.01337 8.66657ZM10.68 8.66657C10.312 8.66657 10.01 8.36791 10.01 7.99991C10.01 7.63191 10.3054 7.33324 10.6734 7.33324H10.68C11.0487 7.33324 11.3467 7.63191 11.3467 7.99991C11.3467 8.36791 11.048 8.66657 10.68 8.66657ZM11.778 14.4999C11.65 14.4999 11.522 14.4513 11.4247 14.3533L10.3133 13.2419C10.118 13.0466 10.118 12.7299 10.3133 12.5346C10.5087 12.3392 10.8254 12.3392 11.0207 12.5346L11.7787 13.2919L13.6473 11.4232C13.8427 11.2279 14.1593 11.2279 14.3547 11.4232C14.55 11.6186 14.55 11.9352 14.3547 12.1306L12.1327 14.3526C12.034 14.4512 11.906 14.4999 11.778 14.4999Z" fill="#3B3B3E"/>
</svg>
