<svg width="16" height="16" viewBox="0 0 16 16" fill="none" xmlns="http://www.w3.org/2000/svg">
<path d="M13.804 8.47252L11.138 11.1385C11.008 11.2685 10.8373 11.3338 10.6667 11.3338C10.496 11.3338 10.3253 11.2685 10.1953 11.1385C9.93465 10.8779 9.93465 10.4565 10.1953 10.1958L11.724 8.66718H2.66667C2.298 8.66718 2 8.36851 2 8.00051C2 7.63251 2.298 7.33385 2.66667 7.33385H11.724L10.1953 5.8052C9.93465 5.54453 9.93465 5.12316 10.1953 4.86249C10.456 4.60183 10.8774 4.60183 11.138 4.86249L13.804 7.52851C13.866 7.59051 13.9147 7.66379 13.9487 7.74579C14.0161 7.90846 14.0161 8.09257 13.9487 8.25523C13.9147 8.33723 13.866 8.41052 13.804 8.47252Z" fill="#3B3B3E"/>
</svg>
