<svg width="16" height="16" viewBox="0 0 16 16" fill="none" xmlns="http://www.w3.org/2000/svg">
<g clip-path="url(#clip0_36251_7878)">
<path d="M14.6663 14.1672H14.333V8.33388C14.333 7.78188 13.9997 7.33388 13.333 7.33388H13.1997C13.089 7.33388 12.9997 7.42325 12.9997 7.53391V14.1672H11.9997V4.38385L13.057 5.08453C13.1417 5.14053 13.2377 5.16786 13.3324 5.16786C13.4944 5.16786 13.653 5.08924 13.7497 4.94391C13.9023 4.71391 13.8396 4.40321 13.609 4.25055L8.83171 1.08583C8.32637 0.749167 7.67303 0.748516 7.16903 1.08518L2.39038 4.25055C2.15971 4.40321 2.09701 4.71324 2.24967 4.94391C2.40234 5.17391 2.71163 5.2372 2.9423 5.08453L3.99967 4.38385V14.1672H2.99967V7.53391C2.99967 7.42325 2.91031 7.33388 2.79964 7.33388H2.66634C1.99967 7.33388 1.66634 7.78188 1.66634 8.33388V14.1672H1.33301C1.05701 14.1672 0.833008 14.3912 0.833008 14.6672C0.833008 14.9432 1.05701 15.1672 1.33301 15.1672H14.6663C14.9423 15.1672 15.1663 14.9432 15.1663 14.6672C15.1663 14.3912 14.9423 14.1672 14.6663 14.1672ZM5.99967 9.50055C5.72367 9.50055 5.49967 9.27655 5.49967 9.00055C5.49967 8.72455 5.72367 8.50055 5.99967 8.50055C6.27567 8.50055 6.49967 8.72455 6.49967 9.00055C6.49967 9.27655 6.27567 9.50055 5.99967 9.50055ZM9.33301 14.1672H6.66634V12.6672C6.66634 11.9312 7.26367 11.3339 7.99967 11.3339C8.73567 11.3339 9.33301 11.9312 9.33301 12.6672V14.1672ZM7.49967 9.00055C7.49967 8.72455 7.72367 8.50055 7.99967 8.50055C8.27567 8.50055 8.49967 8.72455 8.49967 9.00055C8.49967 9.27655 8.27567 9.50055 7.99967 9.50055C7.72367 9.50055 7.49967 9.27655 7.49967 9.00055ZM7.99967 6.66721C7.26367 6.66721 6.66634 6.06988 6.66634 5.33388C6.66634 4.59788 7.26367 4.00055 7.99967 4.00055C8.73567 4.00055 9.33301 4.59788 9.33301 5.33388C9.33301 6.06988 8.73567 6.66721 7.99967 6.66721ZM9.99967 9.50055C9.72367 9.50055 9.49967 9.27655 9.49967 9.00055C9.49967 8.72455 9.72367 8.50055 9.99967 8.50055C10.2757 8.50055 10.4997 8.72455 10.4997 9.00055C10.4997 9.27655 10.2757 9.50055 9.99967 9.50055Z" fill="#3B3B3E"/>
</g>
<defs>
<clipPath id="clip0_36251_7878">
<rect width="16" height="16" fill="white"/>
</clipPath>
</defs>
</svg>
