<svg width="16" height="16" viewBox="0 0 16 16" fill="none" xmlns="http://www.w3.org/2000/svg">
<path d="M14.6663 8.66667C14.6663 10.5067 13.173 12 11.333 12H6.99967C6.86234 12 6.72773 11.9933 6.5944 11.9807C6.45573 11.9667 6.39362 11.8133 6.46029 11.696C6.79362 11.1427 6.99967 10.4826 6.99967 9.70732V8.18734C6.99967 7.72734 6.68642 7.32732 6.24642 7.21399C5.11975 6.92732 4.59964 6.68734 4.1263 6.44067C3.9863 6.36734 3.82635 6.33398 3.67301 6.33398C3.51968 6.33398 3.35973 6.36734 3.21973 6.44067C3.00173 6.54334 2.87362 6.34599 2.92562 6.19999C3.52295 4.52933 5.12301 3.33398 6.99967 3.33398C8.09967 3.33398 9.0997 3.74065 9.8597 4.41398C10.1797 4.70065 10.4597 5.02734 10.6864 5.394C10.8997 5.354 11.113 5.33398 11.333 5.33398C13.173 5.33332 14.6663 6.82667 14.6663 8.66667ZM1.33301 8.22201C1.33301 8.52534 1.33301 9.38733 1.33301 9.70333C1.33301 11.4813 2.79167 12.37 3.66634 12.666C4.54101 12.37 5.99967 11.4807 5.99967 9.70333C5.99967 9.37666 5.99967 8.50202 5.99967 8.18335C4.83301 7.88735 4.24973 7.62933 3.67106 7.33333C3.08306 7.62933 2.49967 7.88734 1.33301 8.22201Z" fill="#3B3B3E"/>
</svg>
