<svg width="16" height="16" viewBox="0 0 16 16" fill="none" xmlns="http://www.w3.org/2000/svg">
<path d="M10.6667 3C10.6667 3.55333 10.22 4 9.66667 4C9.11333 4 8.66667 3.55333 8.66667 3C8.66667 2.44667 9.11333 2 9.66667 2C10.22 2 10.6667 2.44667 10.6667 3ZM8.5 12V9.95333C8.5 9.38 8.18001 8.86667 7.67334 8.61333L6.80001 8.18C6.65334 8.10667 6.55333 7.97333 6.53333 7.81333C6.51333 7.65333 6.56001 7.49334 6.67334 7.38001L7.65334 6.4C7.84667 6.20667 8.16667 6.20667 8.36001 6.4L9.36001 7.4C9.64001 7.68 10.0267 7.84 10.42 7.84H11.34C11.6133 7.84 11.84 7.61333 11.84 7.34C11.84 7.06666 11.6133 6.84 11.34 6.84H10.42C10.2867 6.84 10.16 6.78666 10.0667 6.69333L9.06667 5.69333C8.48 5.10666 7.53334 5.10666 6.94668 5.69333L5.96667 6.67333C5.62001 7.02 5.46667 7.49334 5.54667 7.97334C5.62667 8.45334 5.92 8.85333 6.35333 9.07333L7.22666 9.50666C7.4 9.59333 7.5 9.76 7.5 9.95333V12C7.5 12.2733 7.72667 12.5 8 12.5C8.27333 12.5 8.5 12.2733 8.5 12V12ZM10 12C10 13.1067 10.8933 14 12 14C13.1067 14 14 13.1067 14 12C14 10.8933 13.1067 10 12 10C10.8933 10 10 10.8933 10 12ZM2 12C2 13.1067 2.89333 14 4 14C5.10667 14 6 13.1067 6 12C6 10.8933 5.10667 10 4 10C2.89333 10 2 10.8933 2 12Z" fill="#3B3B3E"/>
</svg>
