<svg width="16" height="16" viewBox="0 0 16 16" fill="none" xmlns="http://www.w3.org/2000/svg">
<path d="M11.75 2H4.25C2.75 2 2 2.75 2 4.25V11.75C2 13.25 2.75 14 4.25 14H11.75C13.25 14 14 13.25 14 11.75V4.25C14 2.75 13.25 2 11.75 2ZM5.83333 11.3333C5.83333 11.6093 5.60933 11.8333 5.33333 11.8333C5.05733 11.8333 4.83333 11.6093 4.83333 11.3333V8C4.83333 7.724 5.05733 7.5 5.33333 7.5C5.60933 7.5 5.83333 7.724 5.83333 8V11.3333ZM8.5 11.3333C8.5 11.6093 8.276 11.8333 8 11.8333C7.724 11.8333 7.5 11.6093 7.5 11.3333V9.33333C7.5 9.05733 7.724 8.83333 8 8.83333C8.276 8.83333 8.5 9.05733 8.5 9.33333V11.3333ZM11.1667 11.3333C11.1667 11.6093 10.9427 11.8333 10.6667 11.8333C10.3907 11.8333 10.1667 11.6093 10.1667 11.3333V10.3333C10.1667 10.0573 10.3907 9.83333 10.6667 9.83333C10.9427 9.83333 11.1667 10.0573 11.1667 10.3333V11.3333ZM11.1667 6.88005C11.1667 6.88671 11.1633 6.89193 11.1627 6.8986C11.1607 6.95727 11.1507 7.01597 11.128 7.07064C11.1053 7.1253 11.0713 7.17332 11.032 7.21598C11.0273 7.22132 11.026 7.22808 11.0207 7.23275C11.0207 7.23275 11.0207 7.23275 11.02 7.23275C10.974 7.27875 10.9187 7.31532 10.8573 7.34066C10.796 7.36599 10.7313 7.37939 10.666 7.37939H9.19934C8.92334 7.37939 8.69934 7.15539 8.69934 6.87939C8.69934 6.60339 8.92334 6.37939 9.19934 6.37939H9.45601L8.25667 5.18392L7.39868 6.03271C7.00935 6.41871 6.37665 6.41665 5.98865 6.02865L4.97933 5.01937C4.784 4.82404 4.784 4.50735 4.97933 4.31201C5.17466 4.11668 5.49135 4.11668 5.68669 4.31201L6.696 5.32129L7.554 4.47266C7.944 4.08732 8.57598 4.08926 8.96265 4.47526L10.1667 5.67464V5.41195C10.1667 5.13595 10.3907 4.91195 10.6667 4.91195C10.9427 4.91195 11.1667 5.13595 11.1667 5.41195V6.88005Z" fill="#3B3B3E"/>
</svg>
