<svg width="16" height="16" viewBox="0 0 16 16" fill="none" xmlns="http://www.w3.org/2000/svg">
<path d="M14.6665 8.99986C14.6665 11.0219 13.0212 12.6665 10.9999 12.6665H3.99988C3.63122 12.6665 3.33321 12.3679 3.33321 11.9999C3.33321 11.6319 3.63122 11.3332 3.99988 11.3332H10.9999C12.2865 11.3332 13.3332 10.2865 13.3332 8.99986C13.3332 7.7132 12.2865 6.66653 10.9999 6.66653H3.60926L4.47124 7.52851C4.7319 7.78917 4.7319 8.21055 4.47124 8.47122C4.34124 8.60122 4.17055 8.66653 3.99988 8.66653C3.82921 8.66653 3.65853 8.60122 3.52853 8.47122L1.52918 6.47187C1.46718 6.40987 1.41848 6.33658 1.38448 6.25458C1.31715 6.09192 1.31715 5.90781 1.38448 5.74514C1.41848 5.66314 1.46718 5.58986 1.52918 5.52786L3.52853 3.52851C3.78919 3.26784 4.21057 3.26784 4.47124 3.52851C4.7319 3.78917 4.7319 4.21055 4.47124 4.47122L3.60926 5.3332H10.9999C13.0212 5.3332 14.6665 6.97786 14.6665 8.99986Z" fill="#3B3B3E"/>
</svg>
