<svg width="16" height="16" viewBox="0 0 16 16" fill="none" xmlns="http://www.w3.org/2000/svg">
<path d="M8 2.66699C4.68667 2.66699 2 4.66698 2 8.00098C2 9.41431 2.48663 10.595 3.29997 11.475C3.19997 12.115 2.83995 12.8483 2.11328 13.435C1.89328 13.6216 2.01997 13.9883 2.30664 13.995C3.25331 14.0283 4.71327 13.9017 5.60661 12.9483C6.33994 13.2017 7.14667 13.335 8 13.335C8.45333 13.335 8.89739 13.2963 9.32406 13.219C9.44272 13.1977 9.50797 13.0743 9.47331 12.9583C9.38264 12.6583 9.33465 12.3416 9.33398 12.0123C9.32865 10.4096 10.5067 8.97567 12.0881 8.71501C12.6614 8.62034 13.2126 8.66833 13.7166 8.83366C13.8013 8.86166 13.946 8.80901 13.9653 8.65568C13.9873 8.44368 14.0007 8.22701 14.0007 7.99967C14 4.66701 11.3133 2.66699 8 2.66699ZM5.34668 8.66699C4.97868 8.66699 4.6766 8.36833 4.6766 8.00033C4.6766 7.63233 4.97201 7.33366 5.34001 7.33366H5.34668C5.71535 7.33366 6.01335 7.63233 6.01335 8.00033C6.01335 8.36833 5.71468 8.66699 5.34668 8.66699ZM8.01335 8.66699C7.64535 8.66699 7.34326 8.36833 7.34326 8.00033C7.34326 7.63233 7.63867 7.33366 8.00667 7.33366H8.01335C8.38201 7.33366 8.68001 7.63233 8.68001 8.00033C8.68001 8.36833 8.38135 8.66699 8.01335 8.66699ZM10.68 8.66699C10.312 8.66699 10.0099 8.36833 10.0099 8.00033C10.0099 7.63233 10.3053 7.33366 10.6733 7.33366H10.68C11.0487 7.33366 11.3467 7.63233 11.3467 8.00033C11.3467 8.36833 11.048 8.66699 10.68 8.66699ZM11.778 13.8337C11.65 13.8337 11.522 13.785 11.4246 13.687L10.3133 12.5757C10.118 12.381 10.118 12.0637 10.3133 11.8683C10.5086 11.673 10.8253 11.673 11.0207 11.8683L11.7786 12.6257L13.6473 10.757C13.8426 10.5617 14.1593 10.5617 14.3547 10.757C14.55 10.9523 14.55 11.269 14.3547 11.4644L12.1327 13.6864C12.034 13.785 11.906 13.8337 11.778 13.8337Z" fill="#3B3B3E"/>
</svg>
