<svg width="16" height="16" viewBox="0 0 16 16" fill="none" xmlns="http://www.w3.org/2000/svg">
<path d="M12 2H4C2.66667 2 2 2.66667 2 4V14L4 12H12C13.3333 12 14 11.3333 14 10V4C14 2.66667 13.3333 2 12 2ZM10.3333 8.91667C10.3333 9.58333 10 9.91667 9.33333 9.91667H6.66667C6 9.91667 5.66667 9.58333 5.66667 8.91667V7.41667C5.66667 6.87733 5.89667 6.56736 6.33333 6.46403V5.5C6.33333 4.58133 7.08067 3.83333 8 3.83333C8.91933 3.83333 9.66667 4.58133 9.66667 5.5V6.46403C10.1033 6.5667 10.3333 6.87667 10.3333 7.41667V8.91667ZM8.66667 5.5V6.41667H7.33333V5.5C7.33333 5.13267 7.632 4.83333 8 4.83333C8.368 4.83333 8.66667 5.13267 8.66667 5.5Z" fill="#3B3B3E"/>
</svg>
