<svg width="16" height="16" viewBox="0 0 16 16" fill="none" xmlns="http://www.w3.org/2000/svg">
<path d="M8.01204 1.33301C6.51871 2.07367 5.33333 2.66634 2 3.33301C2 4.09101 2 6.46762 2 7.25895C2 11.7036 5.778 13.9257 8 14.6663C10.222 13.9257 14 11.7036 14 7.25895C14 6.44228 14 4.12901 14 3.33301C10.6667 2.66634 9.48138 2.07367 8.01204 1.33301ZM10.7373 7.33301L9.71729 8.31966C9.64262 8.39166 9.60863 8.49566 9.62663 8.59766L9.86003 9.94775C9.90736 10.2218 9.61861 10.4303 9.37061 10.3016L8.14665 9.66309C8.05465 9.61509 7.94534 9.61509 7.854 9.66309L6.6307 10.3009C6.3827 10.4303 6.09329 10.221 6.14063 9.94629L6.37402 8.59766C6.39136 8.49566 6.35737 8.39166 6.28337 8.31966L5.26335 7.33301C5.07601 7.15167 5.17932 6.83501 5.43799 6.79834L6.84928 6.59505C6.95195 6.58039 7.04059 6.51633 7.08659 6.42367L7.69808 5.19499C7.82208 4.94565 8.18004 4.94565 8.30404 5.19499L8.91536 6.42367C8.96136 6.51633 9.05 6.58039 9.15267 6.59505L10.564 6.79834C10.822 6.83501 10.9246 7.15167 10.7373 7.33301Z" fill="#3B3B3E"/>
</svg>
