<svg width="16" height="16" viewBox="0 0 16 16" fill="none" xmlns="http://www.w3.org/2000/svg">
<path d="M12 2H4C2.66667 2 2 2.66667 2 4V14L4 12H12C13.3333 12 14 11.3333 14 10V4C14 2.66667 13.3333 2 12 2ZM7.5 5C7.5 4.724 7.724 4.5 8 4.5C8.276 4.5 8.5 4.724 8.5 5V7C8.5 7.276 8.276 7.5 8 7.5C7.724 7.5 7.5 7.276 7.5 7V5ZM8.01335 9.66667C7.64535 9.66667 7.34326 9.368 7.34326 9C7.34326 8.632 7.63867 8.33333 8.00667 8.33333H8.01335C8.38201 8.33333 8.68001 8.632 8.68001 9C8.68001 9.368 8.38135 9.66667 8.01335 9.66667Z" fill="#3B3B3E"/>
</svg>
