<svg width="16" height="16" viewBox="0 0 16 16" fill="none" xmlns="http://www.w3.org/2000/svg">
<path d="M7.99967 1.33301C4.31767 1.33301 1.33301 4.31767 1.33301 7.99967C1.33301 11.6817 4.31767 14.6663 7.99967 14.6663C11.6817 14.6663 14.6663 11.6817 14.6663 7.99967C14.6663 4.31767 11.6817 1.33301 7.99967 1.33301ZM10.353 6.35303L7.20638 9.49967H8.66634C8.94234 9.49967 9.16634 9.72367 9.16634 9.99967C9.16634 10.2757 8.94234 10.4997 8.66634 10.4997H5.99967C5.93434 10.4997 5.8696 10.4863 5.80827 10.4609C5.68627 10.4103 5.58908 10.3131 5.53841 10.1911C5.51308 10.1297 5.49967 10.065 5.49967 9.99967V7.33301C5.49967 7.05701 5.72367 6.83301 5.99967 6.83301C6.27567 6.83301 6.49967 7.05701 6.49967 7.33301V8.79232L9.64632 5.64567C9.84165 5.45034 10.1583 5.45034 10.3537 5.64567C10.549 5.841 10.5484 6.15769 10.353 6.35303Z" fill="#3B3B3E"/>
</svg>
