<svg width="16" height="16" viewBox="0 0 16 16" fill="none" xmlns="http://www.w3.org/2000/svg">
<path d="M8.00099 2C4.68766 2 2.00164 4.68602 2.00164 7.99935C2.00164 8.89268 2.20169 9.746 2.55503 10.5053C2.69503 10.7987 2.69507 11.1387 2.59507 11.452L2.03501 13.1187C1.86167 13.6387 2.36169 14.1387 2.88169 13.9653L4.54835 13.4053C4.86169 13.3053 5.20164 13.3054 5.49497 13.4454C6.25497 13.7987 7.10831 13.9987 8.00164 13.9987C11.315 13.9987 14.001 11.3127 14.001 7.99935C14.0003 4.68602 11.3143 2 8.00099 2ZM7.35369 8.97998C7.54903 9.17531 7.54903 9.492 7.35369 9.68734C7.25636 9.78467 7.12834 9.83398 7.00034 9.83398C6.87234 9.83398 6.74432 9.78534 6.64699 9.68734L5.31365 8.354C5.11832 8.15867 5.11832 7.84198 5.31365 7.64665L6.64699 6.31331C6.84232 6.11798 7.15901 6.11798 7.35434 6.31331C7.54968 6.50865 7.54968 6.82534 7.35434 7.02067L6.37436 8.00065L7.35369 8.97998ZM10.687 8.35335L9.35369 9.68669C9.25636 9.78402 9.12834 9.83333 9.00034 9.83333C8.87234 9.83333 8.74432 9.78469 8.64699 9.68669C8.45165 9.49135 8.45165 9.17466 8.64699 8.97933L9.62697 7.99935L8.64699 7.01933C8.45165 6.82399 8.45165 6.50735 8.64699 6.31201C8.84232 6.11668 9.15901 6.11668 9.35434 6.31201L10.6877 7.64535C10.8823 7.84135 10.8824 8.15869 10.687 8.35335Z" fill="#3B3B3E"/>
</svg>
