<svg width="16" height="16" viewBox="0 0 16 16" fill="none" xmlns="http://www.w3.org/2000/svg">
<path d="M12 4.66699H8.66667L6.66667 2.66699H4C2.66667 2.66699 2 3.33366 2 4.66699V11.3337C2 12.667 2.66667 13.3337 4 13.3337H12C13.3333 13.3337 14 12.667 14 11.3337V6.66699C14 5.33366 13.3333 4.66699 12 4.66699ZM8.02002 9.68699L6.68669 11.0203C6.64069 11.0663 6.58526 11.103 6.52393 11.1283C6.46259 11.1536 6.39802 11.167 6.33268 11.167C6.26735 11.167 6.20261 11.1536 6.14128 11.1283C6.07994 11.103 6.02468 11.0663 5.97868 11.0203L4.64535 9.68699C4.45001 9.49166 4.45001 9.17499 4.64535 8.97966C4.84068 8.78432 5.15737 8.78432 5.3527 8.97966L5.83268 9.45966V7.33366C5.83268 7.05766 6.05668 6.83366 6.33268 6.83366C6.60868 6.83366 6.83268 7.05766 6.83268 7.33366V9.45966L7.31266 8.97966C7.508 8.78432 7.82469 8.78432 8.02002 8.97966C8.21535 9.17499 8.21535 9.49232 8.02002 9.68699Z" fill="#3B3B3E"/>
</svg>
