<svg width="16" height="16" viewBox="0 0 16 16" fill="none" xmlns="http://www.w3.org/2000/svg">
<path d="M2.8667 9.00027H7.5V13.8003C7.5 13.9109 7.41063 14.0003 7.29997 14.0003H4.66667C3.33333 14.0003 2.66667 13.3336 2.66667 12.0003V9.20026C2.66667 9.08959 2.75603 9.00027 2.8667 9.00027ZM13.1333 9.00027H8.5V13.8003C8.5 13.9109 8.58937 14.0003 8.70003 14.0003H11.3333C12.6667 14.0003 13.3333 13.3336 13.3333 12.0003V9.20026C13.3333 9.08959 13.244 9.00027 13.1333 9.00027ZM14 5.66693V7.80027C14 7.91094 13.9106 8.00027 13.8 8.00027H8.5V5.66693H7.5V8.00027H2.20003C2.08937 8.00027 2 7.91094 2 7.80027V5.66693C2 5.11493 2.448 4.66693 3 4.66693H3.70996C3.49729 4.25493 3.41801 3.7636 3.60734 3.2296C3.79601 2.6976 4.22663 2.25695 4.7653 2.08828C5.51063 1.85495 6.27733 2.09893 6.74666 2.66893C6.768 2.69493 7.51798 3.69292 8.00065 4.33425C8.48265 3.69292 9.232 2.69692 9.25 2.67426C9.72267 2.09959 10.4827 1.85758 11.226 2.08425C11.746 2.24358 12.1687 2.6556 12.3687 3.1616C12.59 3.7216 12.5127 4.23695 12.2913 4.66628H13.0013C13.552 4.66695 14 5.11493 14 5.66693ZM6.9987 4.66693C6.54736 4.06693 6.002 3.34159 5.96533 3.29425C5.81267 3.10825 5.58533 3.00027 5.33333 3.00027C4.874 3.00027 4.5 3.37427 4.5 3.8336C4.5 4.29293 4.874 4.66693 5.33333 4.66693H6.9987ZM11.5 3.8336C11.5 3.37427 11.126 3.00027 10.6667 3.00027C10.4147 3.00027 10.1873 3.10825 10.026 3.30491C9.99463 3.34625 9.4513 4.06827 9.0013 4.66693H10.6667C11.126 4.66693 11.5 4.29293 11.5 3.8336Z" fill="#3B3B3E"/>
</svg>
