<svg width="16" height="16" viewBox="0 0 16 16" fill="none" xmlns="http://www.w3.org/2000/svg">
<g clip-path="url(#clip0_36251_7503)">
<path d="M4.0057 4.33268C4.0057 2.86202 5.2017 1.66602 6.67236 1.66602C8.14303 1.66602 9.33903 2.86202 9.33903 4.33268C9.33903 5.80335 8.14303 6.99935 6.67236 6.99935C5.2017 6.99935 4.0057 5.80335 4.0057 4.33268ZM7.83301 11.5527C7.83301 10.448 8.34634 9.49403 9.07967 8.77669C9.17167 8.68669 9.14366 8.58672 9.139 8.57406C9.13633 8.56672 9.11837 8.46138 8.98104 8.43205C8.68371 8.36805 8.35566 8.33333 8.00033 8.33333H5.33366C2.62699 8.33333 1.66699 10.3133 1.66699 12.0133C1.66699 13.5333 2.47366 14.3333 4.00033 14.3333H8.60702C8.72035 14.3333 8.80705 14.2467 8.80705 14.1334C8.80705 14.08 8.78566 14.0327 8.74699 13.9933C8.17299 13.3393 7.83301 12.486 7.83301 11.5527ZM15.0197 15.0194C14.9224 15.1167 14.7943 15.166 14.6663 15.166C14.5383 15.166 14.4103 15.1174 14.313 15.0194L13.0924 13.798C12.6544 14.0987 12.1257 14.2767 11.5557 14.2767C10.055 14.2767 8.83366 13.0554 8.83366 11.5547C8.83366 10.054 10.055 8.83268 11.5557 8.83268C13.057 8.83268 14.2783 10.054 14.2783 11.5547C14.2783 12.1247 14.1003 12.6533 13.7996 13.0913L15.0203 14.312C15.215 14.508 15.215 14.824 15.0197 15.0194ZM13.2777 11.5547C13.2777 10.6054 12.505 9.83268 11.555 9.83268C10.6057 9.83268 9.83301 10.6054 9.83301 11.5547C9.83301 12.504 10.6057 13.2767 11.555 13.2767C12.505 13.2774 13.2777 12.5047 13.2777 11.5547Z" fill="#3B3B3E"/>
</g>
<defs>
<clipPath id="clip0_36251_7503">
<rect width="16" height="16" fill="white"/>
</clipPath>
</defs>
</svg>
