<svg width="16" height="16" viewBox="0 0 16 16" fill="none" xmlns="http://www.w3.org/2000/svg">
<path d="M8.113 2.02663L4.113 2.91329C3.65966 3.01329 3.33301 3.41995 3.33301 3.88662V12.1133C3.33301 12.58 3.65966 12.9866 4.113 13.0866L8.113 13.9733C8.73966 14.1133 9.33301 13.64 9.33301 13V2.99996C9.33301 2.35996 8.73966 1.88663 8.113 2.02663ZM7.01302 8.66662C6.64635 8.66662 6.34635 8.36662 6.34635 7.99996C6.34635 7.63329 6.63968 7.33329 7.00635 7.33329H7.01302C7.37969 7.33329 7.67969 7.63329 7.67969 7.99996C7.67969 8.36662 7.37969 8.66662 7.01302 8.66662ZM10.6663 12.4666V3.53328C10.6663 3.42262 10.7557 3.33329 10.8663 3.33329H11.6663C12.2183 3.33329 12.6663 3.78129 12.6663 4.33329V11.6666C12.6663 12.2186 12.2183 12.6666 11.6663 12.6666H10.8663C10.7557 12.6666 10.6663 12.5773 10.6663 12.4666Z" fill="#3B3B3E"/>
</svg>
