<svg width="16" height="16" viewBox="0 0 16 16" fill="none" xmlns="http://www.w3.org/2000/svg">
<path d="M2.00097 7.8667C1.98297 7.8667 1.96434 7.86601 1.94567 7.86401C1.67101 7.83401 1.47301 7.58666 1.50301 7.31266C1.74501 5.10133 3.07966 3.19668 5.07299 2.21802C5.22833 2.14202 5.41165 2.15134 5.55765 2.24268C5.70432 2.33401 5.79365 2.49465 5.79365 2.66732V4.70068C5.79365 4.97668 5.56965 5.20068 5.29365 5.20068C5.01765 5.20068 4.79365 4.97668 4.79365 4.70068V3.54004C3.51165 4.43204 2.67097 5.83264 2.49763 7.42131C2.46963 7.67664 2.2523 7.8667 2.00097 7.8667ZM10.9276 13.782C12.921 12.804 14.2556 10.8993 14.497 8.68734C14.5276 8.41267 14.329 8.16599 14.0543 8.13599C13.7823 8.10665 13.5337 8.30403 13.5037 8.57869C13.3297 10.1674 12.4897 11.568 11.207 12.46V11.2993C11.207 11.0233 10.983 10.7993 10.707 10.7993C10.431 10.7993 10.207 11.0233 10.207 11.2993V13.3327C10.207 13.5053 10.2963 13.666 10.443 13.7573C10.5237 13.8073 10.615 13.8327 10.707 13.8327C10.7823 13.8333 10.8576 13.8166 10.9276 13.782ZM8.00032 4.66667C8.00032 6.13933 9.19432 7.33333 10.667 7.33333C12.1397 7.33333 13.3337 6.13933 13.3337 4.66667C13.3337 3.194 12.1397 2 10.667 2C9.19432 2 8.00032 3.194 8.00032 4.66667ZM2.66699 11.3333C2.66699 12.806 3.86099 14 5.33365 14C6.80632 14 8.00032 12.806 8.00032 11.3333C8.00032 9.86067 6.80632 8.66667 5.33365 8.66667C3.86099 8.66667 2.66699 9.86067 2.66699 11.3333Z" fill="#3B3B3E"/>
</svg>
