<svg width="16" height="16" viewBox="0 0 16 16" fill="none" xmlns="http://www.w3.org/2000/svg">
<path d="M7.99967 1.33301C4.31767 1.33301 1.33301 4.31767 1.33301 7.99967C1.33301 11.6817 4.31767 14.6663 7.99967 14.6663C11.6817 14.6663 14.6663 11.6817 14.6663 7.99967C14.6663 4.31767 11.6817 1.33301 7.99967 1.33301ZM11.6663 9.6276C11.6663 9.85827 11.3997 9.98628 11.2197 9.84228L9.83301 8.73307V9.46631C9.83301 10.1996 9.46641 10.5664 8.73307 10.5664H5.43294C4.69961 10.5664 4.33301 10.1996 4.33301 9.46631V6.53304C4.33301 5.79971 4.69961 5.43294 5.43294 5.43294H8.73307C9.46641 5.43294 9.83301 5.79971 9.83301 6.53304V7.26628L11.2197 6.15706C11.3997 6.01306 11.6663 6.14108 11.6663 6.37174V9.6276Z" fill="#3B3B3E"/>
</svg>
