<svg width="16" height="16" viewBox="0 0 16 16" fill="none" xmlns="http://www.w3.org/2000/svg">
<path d="M9.05539 8.61145C9.05539 9.40812 8.40738 10.0561 7.61138 10.0561C6.81471 10.0561 6.16671 9.40812 6.16671 8.61145C6.16671 7.81479 6.81471 7.16679 7.61138 7.16679C8.40738 7.16679 9.05539 7.81479 9.05539 8.61145ZM14.386 6.76079C14.2874 6.88079 14.144 6.94275 14 6.94275C13.888 6.94275 13.7753 6.90549 13.682 6.82882L13 6.26746V12.0001C13 13.5268 12.1934 14.3335 10.6667 14.3335H5.33338C3.80671 14.3335 3.00005 13.5268 3.00005 12.0001V6.26811L2.31808 6.82947C2.10608 7.00414 1.79006 6.97479 1.61406 6.76079C1.43806 6.54679 1.46941 6.2321 1.68275 6.05677L6.62407 1.99345C7.42207 1.33812 8.57867 1.33812 9.37667 1.99345L14.3181 6.0575C14.5307 6.23217 14.562 6.54679 14.386 6.76079ZM10.6867 10.9801L9.65337 9.94674C9.90537 9.56207 10.0547 9.10414 10.0547 8.6108C10.0547 7.26347 8.95806 6.16614 7.61072 6.16614C6.26272 6.16614 5.16606 7.2628 5.16606 8.6108C5.16606 9.9588 6.26272 11.0555 7.61072 11.0555C8.10406 11.0555 8.56201 10.9061 8.94601 10.6534L9.97873 11.6862C10.0761 11.7835 10.2041 11.8328 10.3321 11.8328C10.4601 11.8328 10.588 11.7842 10.6854 11.6862C10.882 11.4915 10.8821 11.1754 10.6867 10.9801Z" fill="#3B3B3E"/>
</svg>
