<svg width="16" height="16" viewBox="0 0 16 16" fill="none" xmlns="http://www.w3.org/2000/svg">
<path d="M2 4.63334V2.66667C2 2.3 2.3 2 2.66667 2H5.33333C5.7 2 6 2.3 6 2.66667V4.63334C6 4.74401 5.91063 4.83333 5.79997 4.83333H2.20003C2.08937 4.83333 2 4.74401 2 4.63334ZM13.3333 2H10.6667C10.3 2 10 2.3 10 2.66667V4.63334C10 4.74401 10.0894 4.83333 10.2 4.83333H13.8C13.9106 4.83333 14 4.74401 14 4.63334V2.66667C14 2.3 13.7 2 13.3333 2ZM13.8 5.83333H10.2C10.0894 5.83333 10 5.92266 10 6.03333V8C10 9.14133 9.05 10.0553 7.896 9.99731C6.814 9.94265 6 8.97401 6 7.89001V6.03333C6 5.92266 5.91063 5.83333 5.79997 5.83333H2.20003C2.08937 5.83333 2 5.92266 2 6.03333V8C2.30667 15.9533 13.6933 15.9533 14 8V6.03333C14 5.92266 13.9106 5.83333 13.8 5.83333Z" fill="#3B3B3E"/>
</svg>
