<svg width="16" height="16" viewBox="0 0 16 16" fill="none" xmlns="http://www.w3.org/2000/svg">
<path d="M11.3337 8.22201V3.55534C11.3337 2.51867 10.815 2 9.77832 2H3.55632C2.51965 2 2.00098 2.51867 2.00098 3.55534V11.3333L3.55632 9.778H9.77832C10.815 9.778 11.3337 9.25934 11.3337 8.22201ZM7.18506 7.42603H4.59229C4.31629 7.42603 4.09229 7.20203 4.09229 6.92603C4.09229 6.65003 4.31629 6.42603 4.59229 6.42603H7.18506C7.46106 6.42603 7.68506 6.65003 7.68506 6.92603C7.68506 7.20203 7.46106 7.42603 7.18506 7.42603ZM8.74105 5.35197H4.59229C4.31629 5.35197 4.09229 5.12797 4.09229 4.85197C4.09229 4.57597 4.31629 4.35197 4.59229 4.35197H8.74105C9.01705 4.35197 9.24105 4.57597 9.24105 4.85197C9.24105 5.12797 9.01705 5.35197 8.74105 5.35197ZM14.0003 7.33333V14L12.667 12.6667H7.33366C6.44699 12.6667 6.00033 12.22 6.00033 11.3333C6.00033 11.3333 6.00033 11.1467 6.00033 10.986C6.00033 10.844 6.10761 10.78 6.20361 10.78C6.27028 10.78 9.78027 10.78 9.78027 10.78C11.3803 10.78 12.3337 9.81997 12.3337 8.21997C12.3337 8.21997 12.3337 6.35537 12.3337 6.20003C12.3337 6.0447 12.4691 6 12.5324 6C12.5957 6 12.667 6 12.667 6C13.5537 6 14.0003 6.44667 14.0003 7.33333Z" fill="#3B3B3E"/>
</svg>
