<svg width="16" height="16" viewBox="0 0 16 16" fill="none" xmlns="http://www.w3.org/2000/svg">
<path d="M7.46702 14.6402C4.21369 14.3802 1.62035 11.7869 1.36035 8.53352C1.37368 8.53352 1.38035 8.53352 1.39369 8.53352C1.59369 8.50685 1.79369 8.50018 2.00036 8.50018C5.03369 8.50018 7.50036 10.9668 7.50036 14.0002C7.50036 14.2068 7.48702 14.4069 7.46702 14.6069C7.46702 14.6202 7.46702 14.6269 7.46702 14.6402ZM8.54035 1.39351C8.51369 1.59351 8.50702 1.79352 8.50702 2.00018C8.50702 5.03352 10.9737 7.50018 14.007 7.50018C14.2137 7.50018 14.4137 7.48685 14.6137 7.46685C14.627 7.46685 14.6337 7.46685 14.647 7.46685C14.387 4.21351 11.7937 1.62018 8.54035 1.36018C8.54035 1.37351 8.54035 1.38018 8.54035 1.39351ZM14.007 8.50018C10.4204 8.50018 7.50702 5.58685 7.50702 2.00018C7.50702 1.78018 7.52036 1.56685 7.54703 1.35352C4.23369 1.58018 1.59369 4.22019 1.36702 7.53352C1.58036 7.51352 1.79369 7.49352 2.01369 7.49352C5.60036 7.49352 8.51369 10.4069 8.51369 13.9935C8.51369 14.2135 8.50036 14.4269 8.47369 14.6402C11.787 14.4135 14.427 11.7735 14.6537 8.46018C14.4404 8.48018 14.227 8.50018 14.007 8.50018Z" fill="#3B3B3E"/>
</svg>
