<svg width="16" height="16" viewBox="0 0 16 16" fill="none" xmlns="http://www.w3.org/2000/svg">
<path d="M6.22002 6.13284C6.38002 5.96617 6.55335 5.79283 6.71335 5.64616C6.76669 5.59283 6.84002 5.57949 6.90668 5.59949L9.34668 6.32616C9.39335 6.33949 9.44001 6.34616 9.48668 6.34616C9.70001 6.34616 9.90001 6.20617 9.96668 5.98617C10.0467 5.72617 9.89335 5.44615 9.63335 5.36615L8.04001 4.89283C7.88668 4.84616 7.84669 4.64616 7.97335 4.53949C10.52 2.45949 12.8934 1.46616 13.7134 2.28616C14.72 3.29949 12.9867 6.67282 9.82669 9.82616C6.67335 12.9862 3.30001 14.7195 2.28668 13.7128C1.55334 12.9795 2.26669 11.0062 3.92002 8.77283C3.96669 8.70617 4.06002 8.67282 4.14002 8.69949L6.31335 9.35283C6.36668 9.36616 6.41335 9.37283 6.46002 9.37283C6.67335 9.37283 6.87335 9.23283 6.94002 9.0195C7.02002 8.75283 6.86668 8.47283 6.60668 8.39283L4.91335 7.88615C4.91335 7.88615 4.79335 7.85282 4.77335 7.78616C4.75335 7.72616 4.78669 7.67284 4.80669 7.65284C4.83335 7.6195 4.86002 7.59283 4.88668 7.55949C4.98668 7.43949 5.09335 7.32616 5.20002 7.20616C5.24668 7.14616 5.33335 7.1195 5.40668 7.14616L7.80001 7.86615C7.85335 7.87949 7.90001 7.88615 7.94668 7.88615C8.16001 7.88615 8.36002 7.74615 8.42668 7.53282C8.50668 7.26615 8.35335 6.98615 8.09335 6.90615L6.29335 6.36615C6.25335 6.34615 6.19335 6.31951 6.18668 6.25951C6.18001 6.21284 6.18668 6.16617 6.22668 6.13284H6.22002Z" fill="#3B3B3E"/>
</svg>
