<svg width="16" height="16" viewBox="0 0 16 16" fill="none" xmlns="http://www.w3.org/2000/svg">
<path d="M11.1385 11.138L8.47252 13.804C8.41052 13.866 8.33723 13.9147 8.25523 13.9487C8.1739 13.9827 8.08718 14 8.00051 14C7.91385 14 7.82713 13.9821 7.74579 13.9487C7.66379 13.9147 7.59051 13.866 7.52851 13.804L4.86249 11.138C4.60183 10.8774 4.60183 10.456 4.86249 10.1953C5.12316 9.93465 5.54453 9.93465 5.8052 10.1953L7.33385 11.724V2.66667C7.33385 2.29867 7.63185 2 8.00051 2C8.36918 2 8.66718 2.29867 8.66718 2.66667V11.724L10.1958 10.1953C10.4565 9.93465 10.8779 9.93465 11.1385 10.1953C11.3992 10.456 11.3992 10.8774 11.1385 11.138Z" fill="#3B3B3E"/>
</svg>
