<svg width="16" height="16" viewBox="0 0 16 16" fill="none" xmlns="http://www.w3.org/2000/svg">
<path d="M12 2H4C2.66667 2 2 2.66667 2 4V14L4 12H12C13.3333 12 14 11.3333 14 10V4C14 2.66667 13.3333 2 12 2ZM7.35335 7.97998C7.54869 8.17531 7.54869 8.492 7.35335 8.68734C7.25602 8.78467 7.128 8.83398 7 8.83398C6.872 8.83398 6.74398 8.78534 6.64665 8.68734L5.31331 7.354C5.11798 7.15867 5.11798 6.84198 5.31331 6.64665L6.64665 5.31331C6.84198 5.11798 7.15867 5.11798 7.354 5.31331C7.54934 5.50865 7.54934 5.82534 7.354 6.02067L6.37402 7.00065L7.35335 7.97998ZM10.6867 7.35335L9.35335 8.68669C9.25602 8.78402 9.128 8.83333 9 8.83333C8.872 8.83333 8.74398 8.78469 8.64665 8.68669C8.45131 8.49135 8.45131 8.17466 8.64665 7.97933L9.62663 6.99935L8.64665 6.01937C8.45131 5.82404 8.45131 5.50735 8.64665 5.31201C8.84198 5.11668 9.15867 5.11668 9.354 5.31201L10.6873 6.64535C10.882 6.84201 10.882 7.15802 10.6867 7.35335Z" fill="#3B3B3E"/>
</svg>
