<svg width="16" height="16" viewBox="0 0 16 16" fill="none" xmlns="http://www.w3.org/2000/svg">
<path d="M8.66667 11.1667H12V12C12 13.3333 11.3333 14 10 14H4C2.66667 14 2 13.3333 2 12V4C2 2.66667 2.66667 2 4 2H7.5V4C7.5 5.61333 8.38667 6.5 10 6.5H12V10.1667H8.66667C8.39067 10.1667 8.16667 10.3907 8.16667 10.6667C8.16667 10.9427 8.39067 11.1667 8.66667 11.1667ZM10 5.5H11.5L8.5 2.5V4C8.5 5.05333 8.94667 5.5 10 5.5ZM15.1279 10.4753C15.1026 10.414 15.066 10.3587 15.02 10.3127L13.6867 8.97933C13.4914 8.784 13.1747 8.784 12.9793 8.97933C12.784 9.17466 12.784 9.49133 12.9793 9.68667L13.4593 10.1667H12V11.1667H13.4593L12.9793 11.6467C12.784 11.842 12.784 12.1587 12.9793 12.354C13.0767 12.4513 13.2047 12.5007 13.3327 12.5007C13.4607 12.5007 13.5887 12.452 13.686 12.354L15.0194 11.0207C15.0654 10.9747 15.1019 10.9193 15.1273 10.858C15.1786 10.7353 15.1786 10.598 15.1279 10.4753Z" fill="#3B3B3E"/>
</svg>
