<svg width="16" height="16" viewBox="0 0 16 16" fill="none" xmlns="http://www.w3.org/2000/svg">
<path d="M13.7526 4.96167C13.5699 4.99567 13.3813 5.00702 13.1826 4.99569C12.032 4.92769 11.0721 3.96699 11.0047 2.81632C10.9934 2.61766 11.0047 2.42964 11.0387 2.24764C11.0627 2.12031 10.9754 2.00033 10.8454 2.00033H4C2.66667 2.00033 2 2.66699 2 4.00033V14.0003L4 12.0003H12C13.3333 12.0003 14 11.3337 14 10.0003V5.15568C14 5.02501 13.8799 4.93767 13.7526 4.96167ZM8.66667 9.16634H5.33333C5.05733 9.16634 4.83333 8.94234 4.83333 8.66634C4.83333 8.39034 5.05733 8.16634 5.33333 8.16634H8.66667C8.94267 8.16634 9.16667 8.39034 9.16667 8.66634C9.16667 8.94234 8.94267 9.16634 8.66667 9.16634ZM10 6.49967H5.33333C5.05733 6.49967 4.83333 6.27567 4.83333 5.99967C4.83333 5.72367 5.05733 5.49967 5.33333 5.49967H10C10.276 5.49967 10.5 5.72367 10.5 5.99967C10.5 6.27567 10.276 6.49967 10 6.49967ZM14.6667 2.66634C14.6667 3.40234 14.0693 3.99967 13.3333 3.99967C12.5973 3.99967 12 3.40234 12 2.66634C12 1.92967 12.5973 1.33301 13.3333 1.33301C14.0693 1.33301 14.6667 1.92967 14.6667 2.66634Z" fill="#3B3B3E"/>
</svg>
