<svg width="16" height="16" viewBox="0 0 16 16" fill="none" xmlns="http://www.w3.org/2000/svg">
<path d="M11.0262 8.007C11.0262 8.06033 10.9328 9.647 12.6662 10.467C12.3395 11.4537 11.2328 13.647 9.93951 13.6603C9.19285 13.6603 8.75284 13.1803 7.91284 13.1803C7.07284 13.1803 6.56618 13.647 5.89952 13.6603C4.61952 13.7003 3.39284 11.287 3.05284 10.307C2.7995 9.56032 2.67285 8.83367 2.67285 8.13367C2.67285 5.76033 4.24618 4.587 5.73285 4.567C6.45285 4.567 7.36619 5.09367 7.75952 5.09367C8.13952 5.09367 9.16619 4.46699 10.1129 4.54032C11.1062 4.62032 11.8662 5.01366 12.3662 5.73366C11.4728 6.28033 11.0328 7.02033 11.0395 8.007H11.0262ZM9.53951 3.60699C10.2728 2.74033 10.2062 1.94699 10.1795 1.66699C9.53284 1.70699 8.78618 2.10699 8.35952 2.60032C7.89285 3.13365 7.61285 3.787 7.67285 4.527C8.37285 4.58033 9.01284 4.22033 9.53284 3.60699H9.53951Z" fill="#3B3B3E"/>
</svg>
