<svg width="16" height="16" viewBox="0 0 16 16" fill="none" xmlns="http://www.w3.org/2000/svg">
<path d="M8 2.66699C4.68667 2.66699 2 4.66698 2 8.00098C2 9.41431 2.48663 10.595 3.29997 11.475C3.19997 12.115 2.83995 12.8483 2.11328 13.435C1.89328 13.6216 2.01997 13.9883 2.30664 13.995C3.25331 14.0283 4.71327 13.9017 5.60661 12.9483C6.33994 13.2017 7.14667 13.335 8 13.335C11.3133 13.335 14 11.3343 14 8.00098C14 4.66698 11.3133 2.66699 8 2.66699ZM10.3333 9.91699C10.3333 10.5837 10 10.917 9.33333 10.917H6.66667C6 10.917 5.66667 10.5837 5.66667 9.91699V8.41699C5.66667 7.87699 5.89667 7.56769 6.33333 7.46436V6.50033C6.33333 5.58166 7.08067 4.83366 8 4.83366C8.91933 4.83366 9.66667 5.58166 9.66667 6.50033V7.46436C10.1033 7.56702 10.3333 7.87699 10.3333 8.41699V9.91699ZM8.66667 6.50033V7.41699H7.33333V6.50033C7.33333 6.13299 7.632 5.83366 8 5.83366C8.368 5.83366 8.66667 6.13299 8.66667 6.50033Z" fill="#3B3B3E"/>
</svg>
