<svg width="16" height="16" viewBox="0 0 16 16" fill="none" xmlns="http://www.w3.org/2000/svg">
<path d="M5.33984 13.48C5.27318 12.9 5.21983 12 5.3665 11.3667C5.49983 10.7933 6.22652 7.71334 6.22652 7.71334C6.22652 7.71334 6.00651 7.27333 6.00651 6.62C6.00651 5.6 6.59316 4.83333 7.3265 4.83333C7.95316 4.83333 8.25317 5.30667 8.25317 5.86667C8.25317 6.5 7.85315 7.44 7.64648 8.31333C7.47315 9.04667 8.01319 9.64 8.72652 9.64C10.0265 9.64 11.0265 8.26 11.0265 6.27334C11.0265 4.51334 9.76652 3.28 7.97318 3.28C5.89319 3.28 4.67318 4.84667 4.67318 6.47334C4.67318 7.10667 4.91318 7.78666 5.21985 8.15333C5.27985 8.22666 5.28649 8.29334 5.27315 8.36667C5.21982 8.6 5.09316 9.1 5.07316 9.2C5.03983 9.33334 4.9665 9.36 4.8265 9.3C3.91316 8.87333 3.33984 7.52666 3.33984 6.45333C3.33984 4.13333 5.01317 2 8.1665 2C10.6998 2 12.6732 3.82 12.6732 6.24666C12.6732 8.78 11.0865 10.82 8.87984 10.82C8.13984 10.82 7.4465 10.4333 7.2065 9.97334C7.2065 9.97334 6.83984 11.38 6.75317 11.72C6.58651 12.36 5.85316 13.6133 5.40649 13.9933L5.34652 13.4733L5.33984 13.48Z" fill="#3B3B3E"/>
</svg>
