<svg width="16" height="16" viewBox="0 0 16 16" fill="none" xmlns="http://www.w3.org/2000/svg">
<path d="M13.6665 7.33351C13.6665 10.6555 10.5805 12.6942 8.5385 14.0428L8.18517 14.2775C8.12917 14.3149 8.0645 14.3335 8.0005 14.3335C7.9365 14.3335 7.8725 14.3155 7.81716 14.2782L7.61316 14.1442C7.06783 13.7856 6.44916 13.3788 5.82583 12.9055C5.74916 12.8475 5.70117 12.7588 5.6945 12.6628C5.68784 12.5668 5.72317 12.4728 5.79183 12.4048L12.8118 5.38478C12.8925 5.30345 13.0078 5.26959 13.1225 5.29559C13.2338 5.32159 13.3252 5.40291 13.3625 5.51157C13.5638 6.09691 13.6665 6.70951 13.6665 7.33351ZM14.3532 2.35353L2.35317 14.3535C2.25583 14.4509 2.12783 14.5002 1.99983 14.5002C1.87183 14.5002 1.74383 14.4515 1.6465 14.3535C1.45117 14.1582 1.45117 13.8415 1.6465 13.6462L4.01116 11.2816C2.88716 10.0443 2.33384 8.74686 2.33384 7.33286C2.33384 4.20619 4.87384 1.66619 8.0005 1.66619C9.50584 1.66619 10.9265 2.26348 11.9785 3.31414L13.6472 1.64552C13.8425 1.45019 14.1592 1.45019 14.3545 1.64552C14.5498 1.84086 14.5485 2.1582 14.3532 2.35353ZM6.80516 8.48813L9.1545 6.13885C8.8525 5.84885 8.44717 5.66685 7.99983 5.66685C7.07983 5.66685 6.33317 6.41351 6.33317 7.33351C6.33317 7.78085 6.51516 8.18547 6.80516 8.48813Z" fill="#3B3B3E"/>
</svg>
