<svg width="16" height="16" viewBox="0 0 16 16" fill="none" xmlns="http://www.w3.org/2000/svg">
<path d="M3.66699 4.66659H4.84497C5.16097 4.66659 5.46636 4.55451 5.70703 4.35051L8.16764 2.26588C8.89098 1.65321 10.001 2.16733 10.001 3.11532V12.8845C10.001 13.8325 8.89098 14.3473 8.16764 13.734L5.70703 11.6493C5.46636 11.4453 5.16097 11.3333 4.84497 11.3333H3.66699C3.11499 11.3333 2.66699 10.8853 2.66699 10.3333V5.66725C2.66699 5.11458 3.11499 4.66659 3.66699 4.66659ZM12.5116 11.1806C13.3643 10.3319 13.8337 9.20193 13.8337 7.99993C13.8337 6.79793 13.3643 5.66793 12.5116 4.81926C12.3156 4.6246 11.999 4.62457 11.8044 4.82057C11.609 5.0159 11.6103 5.33326 11.8057 5.52792C12.4683 6.18792 12.8337 7.06658 12.8337 8.00058C12.8337 8.93458 12.4683 9.81323 11.8057 10.4732C11.6103 10.6679 11.609 10.9846 11.8044 11.1806C11.9017 11.2786 12.0304 11.3279 12.1584 11.3279C12.2864 11.3266 12.4136 11.2779 12.5116 11.1806Z" fill="#3B3B3E"/>
</svg>
