<svg width="16" height="16" viewBox="0 0 16 16" fill="none" xmlns="http://www.w3.org/2000/svg">
<path d="M14 13.5005H13.3333V12.6672C13.3333 12.2225 13.1113 12.0005 12.6667 12.0005H12.5V7.33385H12.6667C13.1113 7.33385 13.3333 7.11185 13.3333 6.66719V4.96113C13.3333 4.70846 13.1907 4.47793 12.9647 4.36527L8.44735 2.10648C8.16601 1.96581 7.83465 1.96581 7.55265 2.10648L3.03532 4.36527C2.80932 4.47793 2.66667 4.70913 2.66667 4.96113V6.66719C2.66667 7.11185 2.88867 7.33385 3.33333 7.33385H3.5V12.0005H3.33333C2.88867 12.0005 2.66667 12.2225 2.66667 12.6672V13.5005H2C1.724 13.5005 1.5 13.7245 1.5 14.0005C1.5 14.2765 1.724 14.5005 2 14.5005H14C14.276 14.5005 14.5 14.2765 14.5 14.0005C14.5 13.7245 14.276 13.5005 14 13.5005ZM8 3.83385C8.46 3.83385 8.83333 4.20719 8.83333 4.66719C8.83333 5.12719 8.46 5.50052 8 5.50052C7.54 5.50052 7.16667 5.12719 7.16667 4.66719C7.16667 4.20719 7.54 3.83385 8 3.83385ZM4.5 12.0005V7.33385H6.16667V12.0005H4.5ZM7.16667 12.0005V7.33385H8.83333V12.0005H7.16667ZM9.83333 12.0005V7.33385H11.5V12.0005H9.83333Z" fill="#3B3B3E"/>
</svg>
