<svg width="16" height="16" viewBox="0 0 16 16" fill="none" xmlns="http://www.w3.org/2000/svg">
<path d="M10.2527 11.9792C8.54204 13.2085 6.51004 12.7379 5.3467 12.2879C4.85404 13.3545 4.68805 14.0859 4.68471 14.1026C4.63471 14.3379 4.42669 14.4986 4.19603 14.4986C4.16203 14.4986 4.12738 14.4952 4.09271 14.4879C3.82271 14.4312 3.65002 14.1666 3.70669 13.8966C3.74202 13.7272 4.57072 9.95258 8.34406 6.72591C6.87539 7.40524 4.86738 8.94457 3.85338 11.2992C2.98004 9.55257 2.96669 6.31923 5.79336 4.79256C6.98669 4.15256 8.19338 4.02588 9.65338 3.52588C10.7067 3.15921 11.3267 2.42591 11.58 2.05924C11.64 1.96591 11.7734 1.9859 11.8067 2.0859C12.2727 3.3459 14.146 9.17921 10.2527 11.9792Z" fill="#3B3B3E"/>
</svg>
