<svg width="16" height="16" viewBox="0 0 16 16" fill="none" xmlns="http://www.w3.org/2000/svg">
<path d="M15.1283 13.1414C15.2057 13.328 15.163 13.5434 15.0197 13.686L14.353 14.3527C14.2557 14.45 14.1277 14.4993 13.9997 14.4993C13.8717 14.4993 13.7437 14.4507 13.6463 14.3527C13.5057 14.212 13.4664 14.0087 13.5284 13.8327H11.6663C10.839 13.8327 10.1663 13.16 10.1663 12.3327V11.9993C10.1663 11.7233 10.3903 11.4993 10.6663 11.4993C10.9423 11.4993 11.1663 11.7233 11.1663 11.9993V12.3327C11.1663 12.6087 11.3903 12.8327 11.6663 12.8327H14.6663C14.8683 12.8327 15.051 12.9547 15.1283 13.1414ZM13.6663 9.83268H11.805C11.867 9.65668 11.8277 9.45333 11.687 9.31266C11.4917 9.11733 11.175 9.11733 10.9797 9.31266L10.313 9.97933C10.1703 10.122 10.127 10.3373 10.2043 10.524C10.2817 10.7107 10.4643 10.8327 10.6663 10.8327H13.6663C13.9423 10.8327 14.1663 11.0567 14.1663 11.3327V11.666C14.1663 11.942 14.3903 12.166 14.6663 12.166C14.9423 12.166 15.1663 11.942 15.1663 11.666V11.3327C15.1663 10.5053 14.4937 9.83268 13.6663 9.83268ZM8.66634 11.3327C8.66634 11.4593 8.67303 11.586 8.68636 11.7127C8.69303 11.7394 8.69967 11.766 8.69967 11.7927C8.69967 11.906 8.60633 11.9993 8.493 11.9993H3.33301C1.99967 11.9993 1.33301 11.3327 1.33301 9.99935V4.66602C1.33301 3.33268 1.99967 2.66602 3.33301 2.66602H11.333C12.6663 2.66602 13.333 3.33268 13.333 4.66602V7.986C13.333 8.126 13.1997 8.21269 13.0663 8.17269C12.733 8.05936 12.373 7.99935 11.9997 7.99935C10.1597 7.99935 8.66634 9.49268 8.66634 11.3327ZM3.99967 7.33203C3.99967 6.96403 3.70101 6.66536 3.33301 6.66536C2.96501 6.66536 2.66634 6.96403 2.66634 7.33203C2.66634 7.70003 2.96501 7.9987 3.33301 7.9987C3.70101 7.9987 3.99967 7.7007 3.99967 7.33203ZM9.33301 7.33268C9.33301 6.22802 8.43767 5.33268 7.33301 5.33268C6.22834 5.33268 5.33301 6.22802 5.33301 7.33268C5.33301 8.43735 6.22834 9.33268 7.33301 9.33268C8.43767 9.33268 9.33301 8.43735 9.33301 7.33268Z" fill="#3B3B3E"/>
</svg>
