<svg width="16" height="16" viewBox="0 0 16 16" fill="none" xmlns="http://www.w3.org/2000/svg">
<path d="M14.091 7.6792L12.2731 7.15985C10.6011 6.68185 9.31705 5.39852 8.83905 3.72585L8.31972 1.90786C8.23772 1.62186 7.76039 1.62186 7.67839 1.90786L7.15906 3.72585C6.68106 5.39852 5.39706 6.68252 3.72506 7.15985L1.90704 7.6792C1.76371 7.71987 1.66504 7.85119 1.66504 7.99986C1.66504 8.14853 1.76371 8.27918 1.90704 8.32052L3.72506 8.83987C5.39706 9.31787 6.68106 10.6012 7.15906 12.2739L7.67839 14.0919C7.71972 14.2352 7.85038 14.3339 7.99904 14.3339C8.14771 14.3339 8.27839 14.2352 8.31972 14.0919L8.83905 12.2739C9.31705 10.6012 10.6011 9.3172 12.2731 8.83987L14.091 8.32052C14.2344 8.27985 14.333 8.14853 14.333 7.99986C14.333 7.85119 14.2344 7.72053 14.091 7.6792Z" fill="#3B3B3E"/>
</svg>
