<svg width="16" height="16" viewBox="0 0 16 16" fill="none" xmlns="http://www.w3.org/2000/svg">
<path d="M14 7.99856C14 8.3339 13.9734 8.66458 13.9214 8.98391C13.9021 9.10258 13.7814 9.16992 13.6654 9.13658C13.2747 9.02592 12.858 8.97789 12.4227 9.00589C10.6227 9.12322 9.12597 10.6192 9.0093 12.4199C8.9813 12.8552 9.02933 13.2719 9.14 13.6626C9.17267 13.7779 9.10533 13.8986 8.98733 13.9186C8.668 13.9712 8.33731 13.9972 8.00198 13.9972C7.10865 13.9972 6.25596 13.7972 5.49596 13.4439C5.20262 13.3039 4.86268 13.3039 4.54934 13.4039L2.88268 13.9639C2.35934 14.1399 1.86 13.6413 2.036 13.1173L2.59606 11.4512C2.69606 11.1379 2.69602 10.7979 2.55602 10.5046C1.95668 9.21525 1.79875 7.65726 2.31009 6.09126C3.00075 3.97659 4.88009 2.39592 7.08076 2.06859C10.8014 1.51526 14 4.3839 14 7.99856ZM14.5 11.9999C14.5 11.7239 14.276 11.4999 14 11.4999H10.6667C10.3907 11.4999 10.1667 11.7239 10.1667 11.9999C10.1667 12.2759 10.3907 12.4999 10.6667 12.4999H14C14.276 12.4999 14.5 12.2759 14.5 11.9999Z" fill="#3B3B3E"/>
</svg>
