<svg width="16" height="16" viewBox="0 0 16 16" fill="none" xmlns="http://www.w3.org/2000/svg">
<path d="M13.1385 8.47187L8.47187 13.1385C8.34187 13.2685 8.17118 13.3338 8.00051 13.3338C7.82985 13.3338 7.65916 13.2685 7.52916 13.1385C7.26849 12.8779 7.26849 12.4565 7.52916 12.1958L11.7245 8.00051L7.52916 3.8052C7.26849 3.54453 7.26849 3.12316 7.52916 2.86249C7.78983 2.60183 8.2112 2.60183 8.47187 2.86249L13.1385 7.52916C13.3992 7.78983 13.3992 8.2112 13.1385 8.47187ZM8.47187 7.52916L3.8052 2.86249C3.54453 2.60183 3.12316 2.60183 2.86249 2.86249C2.60183 3.12316 2.60183 3.54453 2.86249 3.8052L7.0578 8.00051L2.86249 12.1958C2.60183 12.4565 2.60183 12.8779 2.86249 13.1385C2.99249 13.2685 3.16318 13.3338 3.33385 13.3338C3.50451 13.3338 3.6752 13.2685 3.8052 13.1385L8.47187 8.47187C8.73253 8.2112 8.73253 7.78983 8.47187 7.52916Z" fill="#3B3B3E"/>
</svg>
