<svg width="16" height="16" viewBox="0 0 16 16" fill="none" xmlns="http://www.w3.org/2000/svg">
<path d="M7.99967 1.33398C4.31767 1.33398 1.33301 4.31865 1.33301 8.00065C1.33301 11.6827 4.31767 14.6673 7.99967 14.6673C11.6817 14.6673 14.6663 11.6827 14.6663 8.00065C14.6663 4.31865 11.6817 1.33398 7.99967 1.33398ZM5.99967 10.634C5.99967 10.7447 5.91031 10.834 5.79964 10.834H5.3597C5.06903 10.834 4.83301 10.598 4.83301 10.3073V7.84066C4.83301 7.55066 5.0697 7.31396 5.3597 7.31396H5.79964C5.91031 7.31396 5.99967 7.40333 5.99967 7.514V10.634ZM11.079 8.00065L10.3723 10.114C10.2323 10.5406 10.079 10.834 9.37231 10.834H6.86564C6.75497 10.834 6.66569 10.7447 6.66569 10.634V7.12598C6.66569 7.10464 6.66903 7.08398 6.6757 7.06331L7.39901 4.86064C7.48567 4.63397 7.69903 4.50065 7.9257 4.50065C8.03237 4.50065 8.13901 4.52733 8.23234 4.59399C8.52567 4.78733 8.69897 5.12067 8.69897 5.474V6.61397H10.079C11.1324 6.61397 11.3057 7.32065 11.079 8.00065Z" fill="#3B3B3E"/>
</svg>
