<svg width="16" height="16" viewBox="0 0 16 16" fill="none" xmlns="http://www.w3.org/2000/svg">
<path d="M9.22684 12.9997H5.44018C5.37351 12.9997 5.31351 13.0331 5.27351 13.0864L4.86684 13.6997C4.74018 13.8864 4.53351 13.9997 4.31351 13.9997H3.00684C2.4535 13.9997 2.00684 13.5531 2.00684 12.9997V10.9997C2.00684 10.4464 2.4535 9.99974 3.00684 9.99974H4.31351C4.53351 9.99974 4.74684 10.1131 4.86684 10.2997L5.27351 10.9131C5.31351 10.9664 5.37351 10.9997 5.44018 10.9997H9.22684C9.2935 10.9997 9.3535 10.9664 9.3935 10.9131L9.80017 10.2997C9.92684 10.1131 10.1335 9.99974 10.3535 9.99974H11.6602C12.2135 9.99974 12.6602 10.4464 12.6602 10.9997V12.9997C12.6602 13.5531 12.2135 13.9997 11.6602 13.9997H10.3468C10.1268 13.9997 9.91351 13.8864 9.79351 13.6997L9.38684 13.0864C9.34684 13.0331 9.28684 12.9997 9.22017 12.9997H9.22684ZM10.8735 5.70641L11.4602 6.15974C11.6335 6.29308 11.8668 6.33307 12.0802 6.2664L13.3202 5.84641C13.8402 5.66641 14.1268 5.09974 13.9468 4.57974L13.3068 2.68641C13.1268 2.16641 12.5602 1.87974 12.0402 2.05974L10.8002 2.47974C10.5868 2.55308 10.4268 2.72641 10.3668 2.93974L10.1735 3.65307C10.1535 3.71974 10.1068 3.76641 10.0468 3.79308L6.46017 5.0064C6.39351 5.0264 6.32684 5.01308 6.27351 4.97308L5.68684 4.51974C5.51351 4.38641 5.28018 4.3464 5.06684 4.41307L3.82684 4.83307C3.30684 5.01307 3.02017 5.57974 3.20018 6.09974L3.84017 7.99308C4.02017 8.51308 4.58684 8.79974 5.10684 8.61974L6.34684 8.19974C6.56018 8.12641 6.72017 7.95308 6.78017 7.73974L6.97351 7.0264C6.99351 6.95974 7.04017 6.91308 7.10017 6.88641L10.6868 5.67307C10.7535 5.65307 10.8202 5.66641 10.8735 5.70641Z" fill="#3B3B3E"/>
</svg>
