<svg width="16" height="16" viewBox="0 0 16 16" fill="none" xmlns="http://www.w3.org/2000/svg">
<path d="M9.08665 8.27992L9.06679 8.26658L11.78 5.82658C11.9133 5.70658 11.9934 5.53325 12.0001 5.35325C12.0067 5.16658 11.9334 4.99325 11.8067 4.85992L8.47337 1.52659C8.28004 1.33992 7.99347 1.27991 7.74681 1.38657C7.49347 1.48657 7.3334 1.73325 7.3334 1.99992V7.05324L5.04678 5.45324C4.74678 5.23991 4.33335 5.31324 4.12002 5.61991C3.90668 5.91991 3.98002 6.33325 4.28668 6.54659L6.75999 8.27992L6.93333 8.39992L4.22012 10.8399C3.94678 11.0866 3.92674 11.5066 4.1734 11.7799C4.42007 12.0533 4.84001 12.0732 5.11334 11.8266L7.3334 9.83325V13.9999C7.3334 14.2666 7.49347 14.5133 7.74681 14.6133C7.82681 14.6533 7.9134 14.6666 8.00006 14.6666C8.1734 14.6666 8.3467 14.5999 8.47337 14.4732L11.8067 11.1399C11.9467 10.9999 12.0134 10.8066 12.0001 10.6066C11.9801 10.4133 11.8801 10.2332 11.7134 10.1199L9.08665 8.27992ZM8.66673 3.60658L10.3668 5.30658L8.66673 6.83325V3.60658ZM8.66673 12.3932V9.61326L10.3 10.7599L8.66673 12.3932Z" fill="#3B3B3E"/>
</svg>
