<svg width="16" height="16" viewBox="0 0 16 16" fill="none" xmlns="http://www.w3.org/2000/svg">
<path d="M7.99967 1.33301C4.31767 1.33301 1.33301 4.31767 1.33301 7.99967C1.33301 11.6817 4.31767 14.6663 7.99967 14.6663C11.6817 14.6663 14.6663 11.6817 14.6663 7.99967C14.6663 4.31767 11.6817 1.33301 7.99967 1.33301ZM11.833 9.53564C11.833 9.60098 11.8197 9.66572 11.7943 9.72705C11.7437 9.84905 11.6463 9.94639 11.5243 9.99772C11.463 10.0231 11.3983 10.0363 11.333 10.0363H9.413C9.137 10.0363 8.913 9.8123 8.913 9.5363C8.913 9.2603 9.137 9.0363 9.413 9.0363H10.1263L8.61434 7.52433C8.58434 7.495 8.53635 7.49567 8.50635 7.52433L7.52368 8.507C7.10435 8.927 6.421 8.92633 6.00167 8.507L4.31234 6.81771C4.117 6.62237 4.117 6.30568 4.31234 6.11035C4.50767 5.91502 4.82434 5.91502 5.01967 6.11035L6.709 7.79964C6.73434 7.82497 6.79168 7.82564 6.81702 7.79964L7.79968 6.81698C8.20635 6.41098 8.91568 6.41164 9.32168 6.81698L10.8337 8.32894V7.61564C10.8337 7.33964 11.0577 7.11564 11.3337 7.11564C11.6097 7.11564 11.8337 7.33964 11.8337 7.61564V9.53564H11.833Z" fill="#3B3B3E"/>
</svg>
