<svg width="16" height="16" viewBox="0 0 16 16" fill="none" xmlns="http://www.w3.org/2000/svg">
<path d="M8 2.66699C4.68667 2.66699 2 4.66698 2 8.00098C2 9.41431 2.48663 10.5949 3.29997 11.4749C3.19997 12.1149 2.83995 12.8484 2.11328 13.4351C1.89328 13.6217 2.01997 13.9883 2.30664 13.995C3.25331 14.0283 4.71327 13.9017 5.60661 12.9484C6.33994 13.2017 7.14667 13.335 8 13.335C11.3133 13.335 14 11.335 14 8.00098C14 4.66698 11.3133 2.66699 8 2.66699ZM11.02 7.28703L9.52995 8.77702C9.33595 8.97168 9.07597 9.07959 8.79997 9.07959C8.79997 9.07959 8.79998 9.07959 8.79932 9.07959C8.52398 9.07959 8.26465 8.97232 8.06999 8.77832L7.22266 7.93229L5.68669 9.42025C5.58935 9.51758 5.46133 9.56706 5.33333 9.56706C5.20533 9.56706 5.07731 9.51825 4.97998 9.42025C4.78465 9.22491 4.78465 8.90839 4.97998 8.71305L6.46794 7.22502C6.8706 6.82302 7.52604 6.82236 7.92871 7.22436L8.77604 8.07031L10.3133 6.58032C10.5086 6.38499 10.8253 6.38499 11.0207 6.58032C11.216 6.77566 11.2154 7.09169 11.02 7.28703Z" fill="#3B3B3E"/>
</svg>
