<svg width="16" height="16" viewBox="0 0 16 16" fill="none" xmlns="http://www.w3.org/2000/svg">
<path d="M13.9625 7.21211C13.8038 7.39478 13.5738 7.49946 13.3332 7.49946H9.32784C8.87117 7.49946 8.49983 7.12817 8.49983 6.6715V2.66613C8.49983 2.4248 8.60451 2.1955 8.78784 2.03617C8.96851 1.8795 9.21116 1.80811 9.44116 1.84077C11.8778 2.18144 13.8172 4.12081 14.1585 6.55814C14.1912 6.79281 14.1198 7.03144 13.9625 7.21211ZM12.6538 9.06815C12.4998 8.87948 12.2719 8.77079 12.0285 8.77079H8.06115C7.60182 8.77079 7.22782 8.39679 7.22782 7.93745V3.97017C7.22782 3.7275 7.11982 3.49943 6.93115 3.34476C6.74848 3.19543 6.51116 3.1361 6.28316 3.18143C4.84849 3.4701 3.55917 4.3401 2.74784 5.5701C1.92717 6.81344 1.64585 8.31882 1.95585 9.80749C2.39251 11.9035 4.09449 13.6048 6.19116 14.0421C6.58649 14.1248 6.98318 14.1655 7.37585 14.1655C8.46118 14.1655 9.51519 13.8542 10.4279 13.2515C11.6579 12.4395 12.5278 11.1508 12.8165 9.7161C12.8638 9.48743 12.8045 9.25082 12.6538 9.06815Z" fill="#3B3B3E"/>
</svg>
