<svg width="16" height="16" viewBox="0 0 16 16" fill="none" xmlns="http://www.w3.org/2000/svg">
<path d="M14.6663 13.5H14.333V7.33333C14.333 6.52133 13.9584 6.07861 13.2144 6.00928C13.0997 5.99861 12.9997 6.09674 12.9997 6.21208V13.5H11.9997V4C11.9997 2.66667 11.333 2 9.99967 2H5.99967C4.66634 2 3.99967 2.66667 3.99967 4V13.5H2.99967V6.21208C2.99967 6.09674 2.89966 5.99861 2.78499 6.00928C2.04099 6.07861 1.66634 6.52133 1.66634 7.33333V13.5H1.33301C1.05967 13.5 0.833008 13.7267 0.833008 14C0.833008 14.2733 1.05967 14.5 1.33301 14.5H14.6663C14.9397 14.5 15.1663 14.2733 15.1663 14C15.1663 13.7267 14.9397 13.5 14.6663 13.5ZM6.33301 4.16667H6.99967C7.27567 4.16667 7.49967 4.39067 7.49967 4.66667C7.49967 4.94267 7.27567 5.16667 6.99967 5.16667H6.33301C6.05701 5.16667 5.83301 4.94267 5.83301 4.66667C5.83301 4.39067 6.05701 4.16667 6.33301 4.16667ZM6.33301 6.16667H6.99967C7.27567 6.16667 7.49967 6.39067 7.49967 6.66667C7.49967 6.94267 7.27567 7.16667 6.99967 7.16667H6.33301C6.05701 7.16667 5.83301 6.94267 5.83301 6.66667C5.83301 6.39067 6.05701 6.16667 6.33301 6.16667ZM5.83301 8.66667C5.83301 8.39067 6.05701 8.16667 6.33301 8.16667H6.99967C7.27567 8.16667 7.49967 8.39067 7.49967 8.66667C7.49967 8.94267 7.27567 9.16667 6.99967 9.16667H6.33301C6.05701 9.16667 5.83301 8.94267 5.83301 8.66667ZM9.33301 13.5H6.66634V12C6.66634 11.264 7.26367 10.6667 7.99967 10.6667C8.73634 10.6667 9.33301 11.264 9.33301 12V13.5ZM9.66634 9.16667H8.99967C8.72367 9.16667 8.49967 8.94267 8.49967 8.66667C8.49967 8.39067 8.72367 8.16667 8.99967 8.16667H9.66634C9.94234 8.16667 10.1663 8.39067 10.1663 8.66667C10.1663 8.94267 9.94234 9.16667 9.66634 9.16667ZM9.66634 7.16667H8.99967C8.72367 7.16667 8.49967 6.94267 8.49967 6.66667C8.49967 6.39067 8.72367 6.16667 8.99967 6.16667H9.66634C9.94234 6.16667 10.1663 6.39067 10.1663 6.66667C10.1663 6.94267 9.94234 7.16667 9.66634 7.16667ZM9.66634 5.16667H8.99967C8.72367 5.16667 8.49967 4.94267 8.49967 4.66667C8.49967 4.39067 8.72367 4.16667 8.99967 4.16667H9.66634C9.94234 4.16667 10.1663 4.39067 10.1663 4.66667C10.1663 4.94267 9.94234 5.16667 9.66634 5.16667Z" fill="#3B3B3E"/>
</svg>
