<svg width="16" height="16" viewBox="0 0 16 16" fill="none" xmlns="http://www.w3.org/2000/svg">
<path d="M14.153 10.6489C14.1017 10.6609 14.0497 10.667 13.999 10.667C13.697 10.667 13.4237 10.4603 13.3511 10.1536C12.7724 7.70831 10.6044 6.00033 8.07975 6.00033C6.14575 6.00033 4.38429 7.04366 3.42562 8.66699H4.6696C5.03826 8.66699 5.33626 8.96566 5.33626 9.33366C5.33626 9.70166 5.03826 10.0003 4.6696 10.0003H1.99967C1.63101 10.0003 1.33301 9.70166 1.33301 9.33366V6.66699C1.33301 6.29899 1.63101 6.00033 1.99967 6.00033C2.36834 6.00033 2.66634 6.29899 2.66634 6.66699V7.39372C3.91701 5.71372 5.91442 4.66699 8.07975 4.66699C11.2258 4.66699 13.9269 6.79701 14.6483 9.84701C14.7336 10.205 14.5117 10.5643 14.153 10.6489Z" fill="#3B3B3E"/>
</svg>
