<svg width="16" height="16" viewBox="0 0 16 16" fill="none" xmlns="http://www.w3.org/2000/svg">
<path fill-rule="evenodd" clip-rule="evenodd" d="M13.5136 6.04153L9.05895 2.3795C8.44362 1.8735 7.55628 1.8735 6.94095 2.3795L2.48693 6.04153C2.11293 6.34886 1.93493 6.83416 2.0216 7.31016L2.99165 12.6315C3.13631 13.4235 3.8263 13.9995 4.63097 13.9995H11.3683C12.1736 13.9995 12.8636 13.4235 13.0076 12.6315L13.9776 7.30951C14.0656 6.83485 13.8876 6.34886 13.5136 6.04153ZM10.7376 8.65953L9.71764 9.64618C9.64297 9.71818 9.6089 9.82218 9.6269 9.92418L9.8603 11.2742C9.90763 11.5482 9.61896 11.7569 9.37096 11.6282L8.14692 10.9895C8.05492 10.9415 7.94563 10.9415 7.85363 10.9895L6.63024 11.6275C6.38224 11.7569 6.09292 11.5475 6.14025 11.2735L6.37365 9.92418C6.39098 9.82218 6.35691 9.71818 6.28291 9.64618L5.26297 8.65953C5.07564 8.4782 5.17895 8.16153 5.43761 8.12486L6.84891 7.92149C6.95157 7.90683 7.04029 7.84285 7.08629 7.75019L7.69762 6.52151C7.82162 6.27217 8.17958 6.27217 8.30358 6.52151L8.91491 7.75019C8.96091 7.84285 9.04963 7.90683 9.15229 7.92149L10.5636 8.12486C10.8223 8.16153 10.9249 8.4782 10.7376 8.65953Z" fill="#3B3B3E"/>
</svg>
