<svg width="16" height="16" viewBox="0 0 16 16" fill="none" xmlns="http://www.w3.org/2000/svg">
<path d="M3.50685 11.4764C3.50685 11.5877 3.59345 11.6769 3.70412 11.6763C4.89545 11.6669 11.1043 11.6669 12.2956 11.6763C12.4069 11.6769 12.4929 11.5877 12.4929 11.4764V9.13297C12.4929 5.92631 10.5662 3.99967 7.99953 3.99967C5.43286 3.99967 3.5062 5.92631 3.5062 9.13297V11.4764H3.50685ZM8.00018 5.77962C8.27351 5.77962 8.50018 5.99962 8.50018 6.27962C8.50018 6.55296 8.27351 6.77962 8.00018 6.77962C7.10685 6.77962 6.38016 7.44634 6.31349 8.33301C6.29349 8.59967 6.07349 8.79297 5.81349 8.79297H5.77345C5.50012 8.77297 5.29349 8.53294 5.31349 8.2596C5.42683 6.86627 6.60018 5.77962 8.00018 5.77962ZM13.3335 13.6657V14.6663H2.66685V13.6663C2.66685 13.1143 3.11485 12.6663 3.66685 12.6663H12.3342C12.8862 12.6663 13.3335 13.1137 13.3335 13.6657ZM7.50018 2.33301V1.33301C7.50018 1.05701 7.72418 0.833008 8.00018 0.833008C8.27618 0.833008 8.50018 1.05701 8.50018 1.33301V2.33301C8.50018 2.60901 8.27618 2.83301 8.00018 2.83301C7.72418 2.83301 7.50018 2.60901 7.50018 2.33301ZM13.6869 3.01969L12.6869 4.01969C12.5895 4.11703 12.4615 4.16634 12.3335 4.16634C12.2055 4.16634 12.0775 4.11769 11.9802 4.01969C11.7848 3.82436 11.7848 3.50767 11.9802 3.31234L12.9802 2.31234C13.1755 2.117 13.4922 2.117 13.6875 2.31234C13.8828 2.50767 13.8822 2.82436 13.6869 3.01969ZM3.31349 4.01969L2.31349 3.01969C2.11816 2.82436 2.11816 2.50767 2.31349 2.31234C2.50883 2.117 2.82552 2.117 3.02085 2.31234L4.02085 3.31234C4.21618 3.50767 4.21618 3.82436 4.02085 4.01969C3.92352 4.11703 3.7955 4.16634 3.6675 4.16634C3.5395 4.16634 3.41083 4.11769 3.31349 4.01969Z" fill="#3B3B3E"/>
</svg>
