<svg width="16" height="16" viewBox="0 0 16 16" fill="none" xmlns="http://www.w3.org/2000/svg">
<path d="M13.8337 4C13.8337 4.276 13.6097 4.5 13.3337 4.5H2.66699C2.39099 4.5 2.16699 4.276 2.16699 4C2.16699 3.724 2.39099 3.5 2.66699 3.5H5.47633C5.53833 3.37867 5.58632 3.24134 5.63765 3.088L5.77233 2.68333C5.90833 2.27533 6.29032 2 6.72099 2H9.27966C9.71033 2 10.0923 2.27533 10.2283 2.68333L10.363 3.088C10.4143 3.24134 10.4623 3.37867 10.5243 3.5H13.3337C13.6097 3.5 13.8337 3.724 13.8337 4ZM12.3737 5.16667C12.489 5.16667 12.581 5.26467 12.573 5.38L12.127 12.1333C12.0537 13.1867 11.5003 14 10.127 14H5.87366C4.50032 14 3.94699 13.1867 3.87366 12.1333L3.42766 5.38C3.42032 5.26467 3.51166 5.16667 3.62699 5.16667H12.3737ZM7.16699 7.33333C7.16699 7.06 6.94033 6.83333 6.66699 6.83333C6.39366 6.83333 6.16699 7.06 6.16699 7.33333V10.6667C6.16699 10.94 6.39366 11.1667 6.66699 11.1667C6.94033 11.1667 7.16699 10.94 7.16699 10.6667V7.33333ZM9.83366 7.33333C9.83366 7.06 9.60699 6.83333 9.33366 6.83333C9.06033 6.83333 8.83366 7.06 8.83366 7.33333V10.6667C8.83366 10.94 9.06033 11.1667 9.33366 11.1667C9.60699 11.1667 9.83366 10.94 9.83366 10.6667V7.33333Z" fill="#3B3B3E"/>
</svg>
