<svg width="16" height="16" viewBox="0 0 16 16" fill="none" xmlns="http://www.w3.org/2000/svg">
<path d="M11.75 2H4.25C2.75 2 2 2.75 2 4.25V11.75C2 13.25 2.75 14 4.25 14H11.75C13.25 14 14 13.25 14 11.75V4.25C14 2.75 13.25 2 11.75 2ZM11.1559 9.34001C11.1166 9.34934 11.0787 9.35335 11.04 9.35335C10.8134 9.35335 10.6087 9.19859 10.554 8.96859C10.2767 7.79925 9.24005 6.98275 8.03272 6.98275C7.21872 6.98275 6.46605 7.36727 5.98405 7.98861H6.51725C6.79325 7.98861 7.01725 8.21261 7.01725 8.48861C7.01725 8.76461 6.79325 8.98861 6.51725 8.98861H5.25798C5.16198 9.01461 5.05998 9.02137 4.95931 8.9847C4.94731 8.9807 4.94004 8.97132 4.92871 8.96598C4.70804 8.91398 4.54004 8.72527 4.54004 8.48861V7.01335C4.54004 6.73735 4.76404 6.51335 5.04004 6.51335C5.31004 6.51335 5.52729 6.72874 5.53662 6.99674C6.19262 6.36208 7.08206 5.98275 8.03206 5.98275C9.7054 5.98275 11.142 7.11596 11.526 8.73796C11.5914 9.00662 11.4253 9.27601 11.1559 9.34001Z" fill="#3B3B3E"/>
</svg>
