<svg width="16" height="16" viewBox="0 0 16 16" fill="none" xmlns="http://www.w3.org/2000/svg">
<path d="M12 2H4C2.66667 2 2 2.66667 2 4V14L4 12H12C13.3333 12 14 11.3333 14 10V4C14 2.66667 13.3333 2 12 2ZM10.3333 6.70337C10.3333 8.48137 8.87467 9.37002 8 9.66602C7.12533 9.37002 5.66667 8.4807 5.66667 6.70337C5.66667 6.3867 5.66667 5.52534 5.66667 5.22201C6.83333 4.88734 7.41672 4.62933 8.00472 4.33333C8.58339 4.62933 9.16667 4.88733 10.3333 5.184C10.3333 5.502 10.3333 6.3767 10.3333 6.70337Z" fill="#3B3B3E"/>
</svg>
