<svg width="16" height="16" viewBox="0 0 16 16" fill="none" xmlns="http://www.w3.org/2000/svg">
<path d="M2.73332 11.9601C1.36665 9.8134 1.94667 6.56674 4.25334 4.26008C6.53334 1.98008 9.72667 1.38673 11.8733 2.68006C12.1067 3.08673 12.2067 3.42673 12.22 3.47339C12.36 3.92006 12.2933 4.38673 12.0267 4.8734C11.3933 6.00673 9.72668 7.07341 7.89335 7.52674C5.76002 8.05341 3.88666 9.28006 3.12 10.6601C2.88 11.0934 2.76 11.5334 2.74666 11.9667L2.73332 11.9601ZM13.2733 4.06006C13.2533 4.4934 13.1334 4.93341 12.8934 5.36007C12.12 6.74007 10.2467 7.97339 8.12667 8.49339C6.28 8.95339 4.61332 10.0134 3.98665 11.1401C3.71999 11.6201 3.65334 12.0934 3.80001 12.5401C3.81334 12.5867 3.90668 12.9267 4.14001 13.3267C6.28668 14.6201 9.47334 14.0201 11.7533 11.7401C14.06 9.43339 14.64 6.19339 13.2867 4.05339L13.2733 4.06006Z" fill="#3B3B3E"/>
</svg>
