<svg width="16" height="16" viewBox="0 0 16 16" fill="none" xmlns="http://www.w3.org/2000/svg">
<path fill-rule="evenodd" clip-rule="evenodd" d="M2 9.84603V4.81999C2 3.38399 2.66667 2.66602 4 2.66602H12C13.3333 2.66602 14 3.38399 14 4.81999V9.84603C14 11.282 13.3333 12 12 12H4C2.66667 12 2 11.282 2 9.84603ZM11.8333 14C11.8333 13.724 11.6093 13.5 11.3333 13.5H4.66667C4.39067 13.5 4.16667 13.724 4.16667 14C4.16667 14.276 4.39067 14.5 4.66667 14.5H11.3333C11.6093 14.5 11.8333 14.276 11.8333 14Z" fill="#3B3B3E"/>
</svg>
