<svg width="16" height="16" viewBox="0 0 16 16" fill="none" xmlns="http://www.w3.org/2000/svg">
<path d="M8.49967 2V4.66667C8.49967 6.06 7.49301 7.21333 6.16634 7.44667V14C6.16634 14.2733 5.93967 14.5 5.66634 14.5C5.39301 14.5 5.16634 14.2733 5.16634 14V7.44667C3.83967 7.20667 2.83301 6.05333 2.83301 4.66667V2C2.83301 1.72667 3.05967 1.5 3.33301 1.5C3.60634 1.5 3.83301 1.72667 3.83301 2V4.66667H4.33301V2C4.33301 1.72667 4.55967 1.5 4.83301 1.5C5.10634 1.5 5.33301 1.72667 5.33301 2V4.66667H5.99967V2C5.99967 1.72667 6.22634 1.5 6.49967 1.5C6.77301 1.5 6.99967 1.72667 6.99967 2V4.66667H7.49967V2C7.49967 1.72667 7.72634 1.5 7.99967 1.5C8.27301 1.5 8.49967 1.72667 8.49967 2ZM12.6663 1.5C12.633 1.5 9.16634 1.55333 9.16634 6V9.66667C9.16634 10.1267 9.53967 10.5 9.99967 10.5H12.1663V14C12.1663 14.2733 12.393 14.5 12.6663 14.5C12.9397 14.5 13.1663 14.2733 13.1663 14V2C13.1663 1.72667 12.9397 1.5 12.6663 1.5Z" fill="#3B3B3E"/>
</svg>
