<svg width="16" height="16" viewBox="0 0 16 16" fill="none" xmlns="http://www.w3.org/2000/svg">
<path d="M14.4915 11.0999C14.5395 11.3719 14.3581 11.6312 14.0861 11.6792L6.97275 12.9313C6.84475 13.7239 6.16144 14.3332 5.33277 14.3332C4.41344 14.3332 3.6661 13.5852 3.6661 12.6666C3.6661 11.9219 4.16014 11.2972 4.83481 11.0846L3.44679 3.18658C3.36745 2.73525 2.93078 2.43458 2.47812 2.51258L2.08212 2.57991C1.81212 2.62458 1.55144 2.44325 1.50611 2.17058C1.46011 1.89858 1.64279 1.63992 1.91545 1.59392L2.30876 1.52725C3.29743 1.35458 4.25607 2.02058 4.4314 3.01325L5.85076 11.0906C6.28009 11.2326 6.63075 11.5399 6.82675 11.9419L13.9128 10.6946C14.1854 10.6459 14.4441 10.8279 14.4915 11.0999ZM6.80811 8.48125C7.05011 9.85392 7.81012 10.3859 9.18279 10.1439L11.6055 9.71658C12.9781 9.47458 13.5101 8.71458 13.2681 7.34192L12.8407 4.91925C12.5987 3.54658 11.8387 3.01458 10.4661 3.25658L8.04346 3.68392C6.6708 3.92592 6.13879 4.68591 6.38079 6.05858L6.80811 8.48125Z" fill="#3B3B3E"/>
</svg>
