<svg width="16" height="16" viewBox="0 0 16 16" fill="none" xmlns="http://www.w3.org/2000/svg">
<path d="M12 2H4C2.66667 2 2 2.66667 2 4V14L4 12H12C13.3333 12 14 11.3333 14 10V4C14 2.66667 13.3333 2 12 2ZM8.01335 10C7.64535 10 7.34326 9.70133 7.34326 9.33333C7.34326 8.96533 7.63867 8.66667 8.00667 8.66667H8.01335C8.38201 8.66667 8.68001 8.96533 8.68001 9.33333C8.68001 9.70133 8.38135 10 8.01335 10ZM8.89665 7.36735C8.52598 7.61402 8.47531 7.73864 8.47331 7.74398C8.39797 7.94531 8.20338 8.07471 7.99805 8.07471C7.94338 8.07471 7.88864 8.06531 7.83464 8.04598C7.57797 7.95465 7.43871 7.68201 7.52604 7.42334C7.66138 7.02334 8.0566 6.72467 8.34326 6.53467C8.76726 6.25267 8.77194 5.96669 8.73861 5.77669C8.68661 5.48269 8.43529 5.2307 8.14063 5.17936C7.91663 5.1387 7.69205 5.19663 7.51872 5.34196C7.34805 5.48529 7.25065 5.69467 7.25065 5.91667C7.25065 6.19267 7.02665 6.41667 6.75065 6.41667C6.47465 6.41667 6.25065 6.19267 6.25065 5.91667C6.25065 5.398 6.47864 4.90934 6.87598 4.57601C7.27331 4.24268 7.79597 4.10268 8.31397 4.19401C9.01997 4.31801 9.59931 4.89735 9.72331 5.60335C9.84597 6.30535 9.55265 6.93135 8.89665 7.36735Z" fill="#3B3B3E"/>
</svg>
