<svg width="16" height="16" viewBox="0 0 16 16" fill="none" xmlns="http://www.w3.org/2000/svg">
<path d="M9.913 9.66667C10.0597 9.66667 10.153 9.81333 10.093 9.94666L8.41968 13.7267C8.25968 14.0933 7.73967 14.0933 7.57967 13.7267L5.90634 9.94666C5.84634 9.81333 5.94634 9.66667 6.08634 9.66667H9.913V9.66667ZM10.9997 8.66667C11.9197 8.66667 12.6663 7.92 12.6663 7C12.6663 6.08 11.9197 5.33333 10.9997 5.33333C10.853 5.33333 10.7063 5.35333 10.5663 5.39333C10.633 5.16 10.6663 4.92 10.6663 4.66667C10.6663 3.19333 9.47301 2 7.99967 2C6.52634 2 5.33301 3.19333 5.33301 4.66667C5.33301 4.92 5.36634 5.16 5.433 5.39333C5.293 5.35333 5.14634 5.33333 4.99967 5.33333C4.07967 5.33333 3.33301 6.08 3.33301 7C3.33301 7.92 4.07967 8.66667 4.99967 8.66667H10.9997Z" fill="#3B3B3E"/>
</svg>
