<svg width="16" height="16" viewBox="0 0 16 16" fill="none" xmlns="http://www.w3.org/2000/svg">
<path d="M8.5 7.66699V8.40033H7.5V7.66699C7.5 7.39099 7.72467 7.16699 8 7.16699C8.27533 7.16699 8.5 7.39099 8.5 7.66699ZM14 6.66699V11.3337C14 12.667 13.3333 13.3337 12 13.3337H4C2.66667 13.3337 2 12.667 2 11.3337V4.66699C2 3.33366 2.66667 2.66699 4 2.66699H6.66667L8.66667 4.66699H12C13.3333 4.66699 14 5.33366 14 6.66699ZM10 9.30033C10 8.85367 9.83267 8.57433 9.5 8.46033V7.66699C9.5 6.83966 8.82667 6.16699 8 6.16699C7.17333 6.16699 6.5 6.83966 6.5 7.66699V8.46033C6.16733 8.57433 6 8.85367 6 9.30033V10.7003C6 11.3003 6.30007 11.6003 6.90007 11.6003H9.09994C9.69994 11.6003 10 11.3003 10 10.7003V9.30033Z" fill="#3B3B3E"/>
</svg>
