<svg width="16" height="16" viewBox="0 0 16 16" fill="none" xmlns="http://www.w3.org/2000/svg">
<path d="M8 2.66699C4.68667 2.66699 2 4.66698 2 8.00098C2 9.41431 2.48663 10.595 3.29997 11.475C3.19997 12.115 2.83995 12.8483 2.11328 13.435C1.89328 13.6216 2.01997 13.9883 2.30664 13.995C3.25331 14.0283 4.71327 13.9017 5.60661 12.9483C6.33994 13.2017 7.14667 13.335 8 13.335C11.3133 13.335 14 11.3343 14 8.00098C14 4.66698 11.3133 2.66699 8 2.66699ZM6.81331 10.667H5.33333V9.18701L7.98665 6.52035L9.47998 8.01367L6.81331 10.667ZM10.4933 7.007L9.94661 7.54696L8.45329 6.05363L8.99333 5.507C9.22666 5.27367 9.6 5.27367 9.83333 5.507L10.4933 6.16699C10.7267 6.40033 10.7267 6.77367 10.4933 7.007Z" fill="#3B3B3E"/>
</svg>
