<svg width="16" height="16" viewBox="0 0 16 16" fill="none" xmlns="http://www.w3.org/2000/svg">
<path d="M2.33333 12V11.6667C2.33333 11.48 2.48 11.3333 2.66667 11.3333H13.3333C13.52 11.3333 13.6667 11.48 13.6667 11.6667V12C13.6667 13.3333 13 14 11.6667 14H4.33333C3 14 2.33333 13.3333 2.33333 12ZM14.5 9.81333C14.5 9.54 14.2733 9.31333 14 9.31333C13.7267 9.31333 13.5933 9.20667 13.3467 8.97334C13.0733 8.71334 12.7 8.35333 12 8.35333C11.3 8.35333 10.9267 8.71334 10.6533 8.97334C10.4067 9.20667 10.2867 9.31333 10 9.31333C9.71333 9.31333 9.59333 9.20667 9.34666 8.97334C9.07333 8.71334 8.7 8.35333 8 8.35333C7.3 8.35333 6.92667 8.71334 6.65334 8.97334C6.40667 9.20667 6.28667 9.31333 6 9.31333C5.71333 9.31333 5.59333 9.20667 5.34666 8.97334C5.07333 8.71334 4.7 8.35333 4 8.35333C3.3 8.35333 2.92667 8.71334 2.65334 8.97334C2.40667 9.20667 2.28667 9.31333 2 9.31333C1.71333 9.31333 1.5 9.54 1.5 9.81333C1.5 10.0867 1.72667 10.3133 2 10.3133C2.7 10.3133 3.07333 9.95333 3.34666 9.69333C3.59333 9.46 3.71333 9.35333 4 9.35333C4.28667 9.35333 4.40667 9.46 4.65334 9.69333C4.92667 9.95333 5.3 10.3133 6 10.3133C6.7 10.3133 7.07333 9.95333 7.34666 9.69333C7.59333 9.46 7.71333 9.35333 8 9.35333C8.28667 9.35333 8.40667 9.46 8.65334 9.69333C8.92667 9.95333 9.3 10.3133 10 10.3133C10.7 10.3133 11.0733 9.95333 11.3467 9.69333C11.5933 9.46 11.7133 9.35333 12 9.35333C12.2867 9.35333 12.4067 9.46 12.6533 9.69333C12.9267 9.95333 13.3 10.3133 14 10.3133C14.2733 10.3133 14.5 10.0867 14.5 9.81333ZM13.6667 6.66667V7C13.6667 7.18667 13.52 7.33333 13.3333 7.33333H2.66667C2.48 7.33333 2.33333 7.18667 2.33333 7V6.66667C2.33333 4 4.33333 2 8 2C11.6667 2 13.6667 4 13.6667 6.66667ZM5.83333 4.66667C5.83333 4.53333 5.78 4.40667 5.68667 4.31333C5.5 4.12667 5.16 4.12667 4.98 4.31333C4.93333 4.36 4.9 4.41334 4.87333 4.47334C4.84667 4.54 4.83333 4.6 4.83333 4.66667C4.83333 4.8 4.88667 4.92667 4.98 5.02C5.07333 5.11333 5.2 5.16667 5.33333 5.16667C5.46667 5.16667 5.59333 5.11333 5.68667 5.02C5.78 4.92667 5.83333 4.8 5.83333 4.66667V4.66667ZM8.5 4C8.5 3.86667 8.44667 3.74 8.35333 3.64667C8.30667 3.6 8.25334 3.56 8.19334 3.54C8.00667 3.46 7.78667 3.50667 7.64667 3.64667C7.55333 3.74 7.5 3.86667 7.5 4C7.5 4.06667 7.51333 4.12666 7.54 4.19333C7.56667 4.25333 7.6 4.30667 7.64667 4.35333C7.74 4.44667 7.86667 4.5 8 4.5C8.06667 4.5 8.12667 4.48667 8.19334 4.46C8.25334 4.43334 8.30667 4.4 8.35333 4.35333C8.4 4.30667 8.43334 4.25333 8.46 4.19333C8.48667 4.12666 8.5 4.06667 8.5 4ZM11.1667 4.66667C11.1667 4.53333 11.1133 4.40667 11.02 4.31333C10.9733 4.26667 10.92 4.23333 10.86 4.20667C10.6733 4.12667 10.4467 4.17333 10.3133 4.31333C10.22 4.40667 10.1667 4.53333 10.1667 4.66667C10.1667 4.73333 10.18 4.8 10.2067 4.86C10.2267 4.92 10.2667 4.97333 10.3133 5.02C10.4067 5.11333 10.5333 5.16667 10.6667 5.16667C10.7333 5.16667 10.7933 5.15334 10.86 5.12667C10.92 5.1 10.9733 5.06667 11.02 5.02C11.0667 4.97333 11.1 4.92 11.1267 4.86C11.1533 4.8 11.1667 4.73333 11.1667 4.66667Z" fill="#3B3B3E"/>
</svg>
