<svg width="16" height="16" viewBox="0 0 16 16" fill="none" xmlns="http://www.w3.org/2000/svg">
<path d="M13.8 8.5H8.7C8.58667 8.5 8.5 8.5867 8.5 8.70003V13.8C8.5 13.9133 8.58667 14 8.7 14H12C13.3333 14 14 13.3333 14 12V8.70003C14 8.5867 13.9133 8.5 13.8 8.5ZM12 12.3333H10C9.72667 12.3333 9.5 12.1067 9.5 11.8333C9.5 11.56 9.72667 11.3333 10 11.3333H12C12.2733 11.3333 12.5 11.56 12.5 11.8333C12.5 12.1067 12.2733 12.3333 12 12.3333ZM12 10.6667H10C9.72667 10.6667 9.5 10.44 9.5 10.1667C9.5 9.89333 9.72667 9.66667 10 9.66667H12C12.2733 9.66667 12.5 9.89333 12.5 10.1667C12.5 10.44 12.2733 10.6667 12 10.6667ZM7.3 2H4C2.66667 2 2 2.66667 2 4V7.29997C2 7.4133 2.08667 7.5 2.2 7.5H7.3C7.41333 7.5 7.5 7.4133 7.5 7.29997V2.20003C7.5 2.0867 7.41333 2 7.3 2ZM6 5.5H4C3.72667 5.5 3.5 5.27333 3.5 5C3.5 4.72667 3.72667 4.5 4 4.5H6C6.27333 4.5 6.5 4.72667 6.5 5C6.5 5.27333 6.27333 5.5 6 5.5ZM12 2H8.7C8.58667 2 8.5 2.0867 8.5 2.20003V7.29997C8.5 7.4133 8.58667 7.5 8.7 7.5H13.8C13.9133 7.5 14 7.4133 14 7.29997V4C14 2.66667 13.3333 2 12 2ZM12 5.5H11.5V6C11.5 6.27333 11.2733 6.5 11 6.5C10.7267 6.5 10.5 6.27333 10.5 6V5.5H10C9.72667 5.5 9.5 5.27333 9.5 5C9.5 4.72667 9.72667 4.5 10 4.5H10.5V4C10.5 3.72667 10.7267 3.5 11 3.5C11.2733 3.5 11.5 3.72667 11.5 4V4.5H12C12.2733 4.5 12.5 4.72667 12.5 5C12.5 5.27333 12.2733 5.5 12 5.5ZM7.3 8.5H2.2C2.08667 8.5 2 8.5867 2 8.70003V12C2 13.3333 2.66667 14 4 14H7.3C7.41333 14 7.5 13.9133 7.5 13.8V8.70003C7.5 8.5867 7.41333 8.5 7.3 8.5ZM6.18667 11.48C6.38 11.6733 6.38 11.9934 6.18667 12.1867C6.08667 12.2867 5.96 12.3333 5.83333 12.3333C5.70667 12.3333 5.58 12.2867 5.48 12.1867L5 11.7067L4.52 12.1867C4.42 12.2867 4.29333 12.3333 4.16667 12.3333C4.04 12.3333 3.91333 12.2867 3.81333 12.1867C3.62 11.9934 3.62 11.6733 3.81333 11.48L4.29334 11L3.81333 10.52C3.62 10.3267 3.62 10.0066 3.81333 9.81331C4.00667 9.61998 4.32667 9.61998 4.52 9.81331L5 10.2933L5.48 9.81331C5.67333 9.61998 5.99333 9.61998 6.18667 9.81331C6.38 10.0066 6.38 10.3267 6.18667 10.52L5.70667 11L6.18667 11.48Z" fill="#3B3B3E"/>
</svg>
