<svg width="16" height="16" viewBox="0 0 16 16" fill="none" xmlns="http://www.w3.org/2000/svg">
<path d="M14 7.30013C14 9.14013 12.5067 10.6335 10.6667 10.6335H8.5V7.33346C8.5 7.05746 8.276 6.83346 8 6.83346C7.724 6.83346 7.5 7.05746 7.5 7.33346V10.6335H6.33333C3.94 10.6335 2 8.69346 2 6.30013C2 3.9068 3.94 1.9668 6.33333 1.9668C7.43067 1.9668 8.43199 2.37544 9.19466 3.04744C9.516 3.33078 9.79467 3.66077 10.0207 4.02677C10.234 3.98677 10.4473 3.9668 10.6673 3.9668C12.5067 3.9668 14 5.46013 14 7.30013ZM7.5 12.7928L7.02002 12.3128C6.82469 12.1175 6.508 12.1175 6.31266 12.3128C6.11733 12.5081 6.11733 12.8248 6.31266 13.0201L7.646 14.3535C7.692 14.3995 7.74726 14.4361 7.80859 14.4615C7.86993 14.4868 7.93467 14.5001 8 14.5001C8.06533 14.5001 8.13007 14.4868 8.19141 14.4615C8.25274 14.4361 8.308 14.3995 8.354 14.3535L9.68734 13.0201C9.88267 12.8248 9.88267 12.5081 9.68734 12.3128C9.492 12.1175 9.17531 12.1175 8.97998 12.3128L8.5 12.7928V10.6335H7.5V12.7928Z" fill="#3B3B3E"/>
</svg>
