<svg width="16" height="16" viewBox="0 0 16 16" fill="none" xmlns="http://www.w3.org/2000/svg">
<path d="M11.7533 1.5H4.24666C2.47333 1.5 1.5 2.47341 1.5 4.24674V11.7467C1.5 13.5201 2.47333 14.5 4.24666 14.5H11.7533C13.5267 14.5 14.5 13.5201 14.5 11.7467V4.24674C14.5 2.47341 13.5267 1.5 11.7533 1.5ZM2.5 4.24674C2.5 3.02008 3.02666 2.5 4.24666 2.5H4.83333V4.83333H2.5V4.24674ZM2.5 5.83333H4.83333V7.5H2.5V5.83333ZM2.5 8.5H4.83333V10.1667H2.5V8.5ZM4.24666 13.5C3.02666 13.5 2.5 12.9734 2.5 11.7467V11.1667H4.83333V13.5H4.24666ZM13.5 11.7467C13.5 12.9734 12.9733 13.5 11.7533 13.5H11.1667V11.1667H13.5V11.7467ZM13.5 10.1667H11.1667V8.5H13.5V10.1667ZM13.5 7.5H11.1667V5.83333H13.5V7.5ZM13.5 4.83333H11.1667V2.5H11.7533C12.9733 2.5 13.5 3.02008 13.5 4.24674V4.83333Z" fill="#3B3B3E"/>
</svg>
