<svg width="16" height="16" viewBox="0 0 16 16" fill="none" xmlns="http://www.w3.org/2000/svg">
<path d="M12.6399 6.81366C12.3199 6.82699 12.0132 6.95365 11.7799 7.18032C10.8266 6.53365 9.68657 6.11365 8.53323 6.03365L9.09989 3.53365L10.3399 3.78033C10.4466 4.447 11.0199 4.967 11.7199 4.967C12.4932 4.967 13.1199 4.34033 13.1199 3.567C13.1199 2.79366 12.4932 2.16699 11.7199 2.16699C11.2266 2.16699 10.7999 2.42032 10.5466 2.80699L8.8199 2.46033C8.55323 2.40699 8.29324 2.57367 8.23324 2.84033L7.5399 5.88698C7.53323 5.92698 7.51989 5.98032 7.50656 6.04032C6.33323 6.10032 5.19323 6.46699 4.2199 7.12699C3.69323 6.62699 2.85989 6.65365 2.35989 7.18032C1.85989 7.70699 1.88656 8.54032 2.41323 9.04032C2.51989 9.14032 2.63323 9.22033 2.76656 9.28033C2.75323 9.41367 2.75323 9.547 2.76656 9.67367C2.76656 11.6937 5.1199 13.3337 8.0199 13.3337C10.9199 13.3337 13.2732 11.6937 13.2732 9.67367C13.2866 9.54033 13.2866 9.407 13.2732 9.28033C13.7266 9.05367 14.0132 8.58699 13.9999 8.08032C13.9732 7.35366 13.3666 6.78699 12.6399 6.81366V6.81366ZM11.7199 3.16699C11.9399 3.16699 12.1199 3.347 12.1199 3.567C12.1199 3.787 11.9399 3.967 11.7199 3.967C11.4999 3.967 11.3199 3.787 11.3199 3.567C11.3199 3.347 11.4999 3.16699 11.7199 3.16699ZM4.99324 8.98033C4.99324 8.48033 5.39323 8.08032 5.89323 8.08032C6.39323 8.08032 6.79323 8.48699 6.79323 8.98033C6.79323 9.47366 6.39323 9.88033 5.89323 9.88033C5.39323 9.88033 4.99324 9.47366 4.99324 8.98033ZM10.2266 11.4937C10.2266 11.4937 9.33323 12.1537 7.9999 12.1537C7.1999 12.187 6.41323 11.9403 5.77323 11.4603C5.68657 11.3537 5.6999 11.2003 5.80657 11.1203C5.89324 11.047 6.02656 11.047 6.11323 11.1203C6.65323 11.5203 7.2199 11.687 7.98656 11.687C8.75323 11.687 9.3199 11.527 9.86657 11.1403C9.96657 11.0403 10.1266 11.047 10.2199 11.1403C10.3199 11.2403 10.3132 11.4003 10.2199 11.4937H10.2266ZM10.0666 9.88033C9.56657 9.88033 9.16657 9.47366 9.16657 8.98033C9.16657 8.48699 9.57324 8.08032 10.0666 8.08032C10.5599 8.08032 10.9666 8.48699 10.9666 8.98033C10.9666 9.47366 10.5666 9.88033 10.0666 9.88033Z" fill="#3B3B3E"/>
</svg>
