<svg width="16" height="16" viewBox="0 0 16 16" fill="none" xmlns="http://www.w3.org/2000/svg">
<path d="M11.75 2H4.25C2.75 2 2 2.75 2 4.25V11.75C2 13.25 2.75 14 4.25 14H11.75C13.25 14 14 13.25 14 11.75V4.25C14 2.75 13.25 2 11.75 2ZM8.5 11C8.5 11.276 8.276 11.5 8 11.5C7.724 11.5 7.5 11.276 7.5 11V7.95264C7.5 7.67664 7.724 7.45264 8 7.45264C8.276 7.45264 8.5 7.67664 8.5 7.95264V11ZM8.01335 6.33333C7.64535 6.33333 7.34326 6.03467 7.34326 5.66667C7.34326 5.29867 7.63867 5 8.00667 5H8.01335C8.38201 5 8.68001 5.29867 8.68001 5.66667C8.68001 6.03467 8.38135 6.33333 8.01335 6.33333Z" fill="#3B3B3E"/>
</svg>
