<svg width="16" height="16" viewBox="0 0 16 16" fill="none" xmlns="http://www.w3.org/2000/svg">
<path d="M7.33385 3.99955V13.9995C7.33385 14.2689 7.17188 14.5123 6.92255 14.6156C6.83988 14.6496 6.75318 14.6662 6.66718 14.6662C6.49385 14.6662 6.32316 14.5982 6.19583 14.4709L2.86249 11.1376C2.60183 10.8769 2.60183 10.4555 2.86249 10.1949C3.12316 9.93419 3.54453 9.93419 3.8052 10.1949L6.00051 12.3902V3.99955C6.00051 3.63155 6.29851 3.33288 6.66718 3.33288C7.03585 3.33288 7.33385 3.63155 7.33385 3.99955ZM13.8052 4.86152L10.4719 1.52819C10.2812 1.33752 9.99581 1.28083 9.74514 1.3835C9.49581 1.48683 9.33385 1.73021 9.33385 1.99955V11.9995C9.33385 12.3675 9.63185 12.6662 10.0005 12.6662C10.3692 12.6662 10.6672 12.3675 10.6672 11.9995V3.60892L12.8625 5.80423C13.1232 6.0649 13.5445 6.0649 13.8052 5.80423C14.0659 5.54357 14.0659 5.12219 13.8052 4.86152Z" fill="#3B3B3E"/>
</svg>
