<svg width="16" height="16" viewBox="0 0 16 16" fill="none" xmlns="http://www.w3.org/2000/svg">
<path d="M13.2877 5.57891C13.0557 5.64757 12.809 5.67424 12.5517 5.66224C11.3763 5.61024 10.3883 4.62157 10.3363 3.44557C10.325 3.1889 10.351 2.94224 10.4197 2.71091C10.449 2.61157 10.4084 2.50491 10.313 2.46424C9.30171 2.03624 8.14435 1.88091 6.93235 2.09091C4.79235 2.46091 2.98446 4.02291 2.30979 6.08757C1.79779 7.65424 1.95574 9.21355 2.55507 10.5035C2.69507 10.7969 2.69511 11.1369 2.59511 11.4502L2.03505 13.1162C1.85905 13.6396 2.35773 14.1389 2.88173 13.9629L4.5484 13.4029C4.86173 13.3029 5.20168 13.3029 5.49501 13.4429C6.78435 14.0422 8.34177 14.2002 9.90777 13.6895C11.9731 13.0155 13.5358 11.2082 13.9071 9.06755C14.1171 7.85555 13.9624 6.69691 13.5338 5.68491C13.4938 5.59024 13.387 5.54957 13.2877 5.57891ZM8.66705 9.83289H5.33372C5.05772 9.83289 4.83372 9.60889 4.83372 9.33289C4.83372 9.05689 5.05772 8.83289 5.33372 8.83289H8.66705C8.94305 8.83289 9.16705 9.05689 9.16705 9.33289C9.16705 9.60889 8.94305 9.83289 8.66705 9.83289ZM10.6671 7.16623H5.33372C5.05772 7.16623 4.83372 6.94223 4.83372 6.66623C4.83372 6.39023 5.05772 6.16623 5.33372 6.16623H10.6671C10.9431 6.16623 11.1671 6.39023 11.1671 6.66623C11.1671 6.94223 10.9431 7.16623 10.6671 7.16623ZM11.3337 3.3329C11.3337 2.59623 11.9311 1.99956 12.6671 1.99956C13.4031 1.99956 14.0004 2.59623 14.0004 3.3329C14.0004 4.06956 13.4031 4.66623 12.6671 4.66623C11.9311 4.66623 11.3337 4.06956 11.3337 3.3329Z" fill="#3B3B3E"/>
</svg>
