<svg width="16" height="16" viewBox="0 0 16 16" fill="none" xmlns="http://www.w3.org/2000/svg">
<path d="M13.3131 13.973L12.0198 13.5397C11.7732 13.4597 11.5131 13.4597 11.2798 13.5663C10.6931 13.8397 10.0265 13.9997 9.33314 13.9997C8.05314 13.9997 6.88911 13.4817 6.04978 12.6457C5.92311 12.5197 6.03111 12.3003 6.20245 12.3143C9.64645 12.627 12.6298 9.64367 12.3131 6.19967C12.2811 6.009 12.5138 5.897 12.6998 6.113C13.9885 7.37366 14.3885 9.629 13.5665 11.2797C13.2859 11.773 13.8598 12.8277 13.9731 13.313C14.1064 13.7197 13.7198 14.1064 13.3131 13.973ZM6.66713 11.3317C5.97246 11.3317 5.30841 11.1763 4.71774 10.901C4.48974 10.7923 4.22508 10.7923 3.98174 10.8697L2.68584 11.305C2.28184 11.4397 1.89249 11.051 2.02715 10.6463L2.46254 9.35034C2.54054 9.10701 2.54046 8.84234 2.43112 8.61434C2.15646 8.02301 2.00046 7.35967 2.00046 6.665C2.00046 4.08833 4.08981 1.99902 6.66648 1.99902C9.24314 1.99902 11.3325 4.08833 11.3325 6.665C11.3325 9.24167 9.24379 11.3317 6.66713 11.3317ZM4.16648 5.66634C4.16648 5.94234 4.39048 6.16634 4.66648 6.16634H8.66648C8.94248 6.16634 9.16648 5.94234 9.16648 5.66634C9.16648 5.39034 8.94248 5.16634 8.66648 5.16634H4.66648C4.39048 5.16634 4.16648 5.39034 4.16648 5.66634ZM6.66648 8.16634C6.94248 8.16634 7.16648 7.94234 7.16648 7.66634C7.16648 7.39034 6.94248 7.16634 6.66648 7.16634H4.66648C4.39048 7.16634 4.16648 7.39034 4.16648 7.66634C4.16648 7.94234 4.39048 8.16634 4.66648 8.16634H6.66648Z" fill="#3B3B3E"/>
</svg>
