<svg width="16" height="16" viewBox="0 0 16 16" fill="none" xmlns="http://www.w3.org/2000/svg">
<path d="M7.99967 1.33301C4.31767 1.33301 1.33301 4.31767 1.33301 7.99967C1.33301 11.6817 4.31767 14.6663 7.99967 14.6663C11.6817 14.6663 14.6663 11.6817 14.6663 7.99967C14.6663 4.31767 11.6817 1.33301 7.99967 1.33301ZM4.49967 6.99967C4.49967 6.17234 5.17301 5.49967 5.99967 5.49967H9.79232L9.64567 5.35303C9.45034 5.15769 9.45034 4.841 9.64567 4.64567C9.841 4.45034 10.1577 4.45034 10.353 4.64567L11.353 5.64567C11.399 5.69167 11.4356 5.74693 11.4609 5.80827C11.5116 5.93027 11.5116 6.06827 11.4609 6.19027C11.4356 6.2516 11.399 6.30703 11.353 6.35303L10.353 7.35303C10.2557 7.45036 10.1277 7.49967 9.99967 7.49967C9.87167 7.49967 9.74365 7.45103 9.64632 7.35303C9.45099 7.15769 9.45099 6.841 9.64632 6.64567L9.79297 6.49902H5.99967C5.72434 6.49902 5.49967 6.72302 5.49967 6.99902V7.99902C5.49967 8.27502 5.27567 8.49902 4.99967 8.49902C4.72367 8.49902 4.49967 8.27502 4.49967 7.99902V6.99967ZM11.4997 8.99967C11.4997 9.82701 10.8263 10.4997 9.99967 10.4997H6.20703L6.35368 10.6463C6.54901 10.8417 6.54901 11.1583 6.35368 11.3537C6.25634 11.451 6.12833 11.5003 6.00033 11.5003C5.87233 11.5003 5.74431 11.4517 5.64697 11.3537L4.64697 10.3537C4.60097 10.3077 4.5644 10.2524 4.53906 10.1911C4.4884 10.0691 4.4884 9.93108 4.53906 9.80908C4.5644 9.74775 4.60097 9.69232 4.64697 9.64632L5.64697 8.64632C5.84231 8.45099 6.159 8.45099 6.35433 8.64632C6.54966 8.84165 6.54966 9.15834 6.35433 9.35368L6.20768 9.50033H9.99967C10.275 9.50033 10.4997 9.27633 10.4997 9.00033V8.00033C10.4997 7.72433 10.7237 7.50033 10.9997 7.50033C11.2757 7.50033 11.4997 7.72433 11.4997 8.00033V8.99967Z" fill="#3B3B3E"/>
</svg>
