<svg width="16" height="16" viewBox="0 0 16 16" fill="none" xmlns="http://www.w3.org/2000/svg">
<path d="M7.99967 1.33301C4.31767 1.33301 1.33301 4.31767 1.33301 7.99967C1.33301 11.6817 4.31767 14.6663 7.99967 14.6663C11.6817 14.6663 14.6663 11.6817 14.6663 7.99967C14.6663 4.31767 11.6817 1.33301 7.99967 1.33301ZM9.01969 9.64632C9.21503 9.84165 9.21503 10.1583 9.01969 10.3537C8.92236 10.451 8.79434 10.5003 8.66634 10.5003C8.53834 10.5003 8.41032 10.4517 8.31299 10.3537L6.31299 8.35368C6.11765 8.15834 6.11765 7.84165 6.31299 7.64632L8.31299 5.64632C8.50832 5.45099 8.82501 5.45099 9.02034 5.64632C9.21568 5.84165 9.21568 6.15834 9.02034 6.35368L7.3737 8.00033L9.01969 9.64632Z" fill="#3B3B3E"/>
</svg>
