<svg width="16" height="16" viewBox="0 0 16 16" fill="none" xmlns="http://www.w3.org/2000/svg">
<path d="M8.83301 9.66667C8.83301 10.1267 8.45967 10.5 7.99967 10.5C7.53967 10.5 7.16634 10.1267 7.16634 9.66667C7.16634 9.20667 7.53967 8.83333 7.99967 8.83333C8.45967 8.83333 8.83301 9.20667 8.83301 9.66667ZM12.6663 4V12C12.6663 13.3333 11.9997 14 10.6663 14H5.33301C3.99967 14 3.33301 13.3333 3.33301 12V4C3.33301 2.66667 3.99967 2 5.33301 2H10.6663C11.9997 2 12.6663 2.66667 12.6663 4ZM7.33301 4.66667C7.33301 5.03467 7.63167 5.33333 7.99967 5.33333C8.36767 5.33333 8.66634 5.03467 8.66634 4.66667C8.66634 4.29867 8.36767 4 7.99967 4C7.63167 4 7.33301 4.29867 7.33301 4.66667ZM10.333 9.66667C10.333 8.378 9.28834 7.33333 7.99967 7.33333C6.71101 7.33333 5.66634 8.378 5.66634 9.66667C5.66634 10.9553 6.71101 12 7.99967 12C9.28834 12 10.333 10.9553 10.333 9.66667Z" fill="#3B3B3E"/>
</svg>
