<svg width="16" height="16" viewBox="0 0 16 16" fill="none" xmlns="http://www.w3.org/2000/svg">
<path d="M7.99967 1.33398C4.31767 1.33398 1.33301 4.31865 1.33301 8.00065C1.33301 11.6827 4.31767 14.6673 7.99967 14.6673C11.6817 14.6673 14.6663 11.6827 14.6663 8.00065C14.6663 4.31865 11.6817 1.33398 7.99967 1.33398ZM9.46834 10.58C9.19834 10.85 8.85501 11.0146 8.48501 11.068V11.334C8.48501 11.61 8.26101 11.834 7.98501 11.834C7.70901 11.834 7.48501 11.61 7.48501 11.334V11.0666C6.72301 10.9426 6.11835 10.3287 6.02901 9.538C5.99835 9.26334 6.19567 9.01602 6.47034 8.98535C6.741 8.95135 6.99234 9.15201 7.02301 9.42668C7.06568 9.80668 7.38567 10.0933 7.76701 10.0933H8.23368C8.43235 10.0933 8.61968 10.0153 8.76168 9.87329C8.90368 9.73129 8.98167 9.54396 8.98167 9.3453C8.98167 9.00196 8.74835 8.70397 8.41435 8.6193L7.34235 8.35335C6.96235 8.25669 6.62367 8.03598 6.38633 7.72998C6.15033 7.43131 6.01835 7.04864 6.01835 6.65731C6.01835 5.78997 6.65501 5.07332 7.48501 4.93799V4.66732C7.48501 4.39132 7.70901 4.16732 7.98501 4.16732C8.26101 4.16732 8.48501 4.39132 8.48501 4.66732V4.93131C9.26101 5.04398 9.88101 5.66196 9.97101 6.4633C10.0017 6.73796 9.80435 6.98528 9.52968 7.01595C9.25235 7.04795 9.00768 6.84929 8.97701 6.57463C8.93434 6.19463 8.61434 5.90796 8.23301 5.90796H7.76634C7.35367 5.90796 7.01835 6.24334 7.01835 6.65601C7.01835 6.82334 7.07367 6.98596 7.17367 7.11263C7.279 7.24863 7.42034 7.34067 7.58567 7.382L8.65767 7.64795C9.43767 7.84528 9.98167 8.54266 9.98167 9.34399C9.981 9.81066 9.79901 10.2493 9.46834 10.58Z" fill="#3B3B3E"/>
</svg>
