<svg width="16" height="16" viewBox="0 0 16 16" fill="none" xmlns="http://www.w3.org/2000/svg">
<path d="M14.6667 4.00033C14.6667 4.73699 14.0693 5.33366 13.3333 5.33366C12.5973 5.33366 12 4.73699 12 4.00033C12 3.26366 12.5973 2.66699 13.3333 2.66699C14.0693 2.66699 14.6667 3.26366 14.6667 4.00033ZM13.9993 6.48699L14 11.3337C14 12.667 13.3333 13.3337 12 13.3337H4C2.66667 13.3337 2 12.667 2 11.3337V5.33366C2 4.00033 2.66667 3.33366 4 3.33366H10.846C10.9727 3.33366 11.0661 3.45366 11.0394 3.58032C11.0061 3.76032 10.9927 3.95366 11.006 4.15366C11.0727 5.30032 12.0327 6.26033 13.186 6.327C13.386 6.34033 13.5726 6.32699 13.7526 6.29366C13.8786 6.27366 13.9993 6.36032 13.9993 6.48699ZM11.724 6.35433C11.5513 6.13833 11.2367 6.10433 11.0207 6.27633L8.104 8.60966C8.044 8.65833 7.95533 8.65833 7.896 8.60966L4.97933 6.27633C4.764 6.10433 4.45004 6.13833 4.27604 6.35433C4.10338 6.56966 4.13867 6.88433 4.354 7.057L7.27067 9.39033C7.48534 9.56233 7.74267 9.64765 8 9.64765C8.25733 9.64765 8.514 9.56166 8.72933 9.39033L11.646 7.057C11.8613 6.885 11.8966 6.57033 11.724 6.35433Z" fill="#3B3B3E"/>
</svg>
