<svg width="16" height="16" viewBox="0 0 16 16" fill="none" xmlns="http://www.w3.org/2000/svg">
<path d="M12 2.16699H4C2.388 2.16699 1.5 3.05499 1.5 4.66699V11.3337C1.5 12.9457 2.388 13.8337 4 13.8337H12C13.612 13.8337 14.5 12.9457 14.5 11.3337V4.66699C14.5 3.05499 13.612 2.16699 12 2.16699ZM4 3.16699H12C13.0513 3.16699 13.5 3.61566 13.5 4.66699V9.50033L10.4733 6.47363C10.2133 6.21363 9.78669 6.21363 9.52669 6.47363L6.23332 9.76693C6.10665 9.89359 5.89335 9.89359 5.76668 9.76693L5.13997 9.1403C4.87997 8.8803 4.45336 8.8803 4.19336 9.1403L2.5 10.8337V4.66699C2.5 3.61566 2.94867 3.16699 4 3.16699ZM4.5 6.00033C4.5 5.54033 4.86936 5.16699 5.32869 5.16699H5.33537C5.7947 5.16699 6.16732 5.54033 6.16732 6.00033C6.16732 6.46033 5.79537 6.83366 5.33537 6.83366C4.87603 6.83366 4.5 6.46033 4.5 6.00033Z" fill="#3B3B3E"/>
</svg>
