<svg width="16" height="16" viewBox="0 0 16 16" fill="none" xmlns="http://www.w3.org/2000/svg">
<path d="M9.91333 10.2533C9.93333 10.3333 9.90668 10.4267 9.84668 10.4867L9.06665 11.2667C9.01998 11.3133 8.99332 11.3667 8.98665 11.4267L8.69332 13.7667C8.67999 13.9 8.56668 14 8.43335 14H7.56665C7.43332 14 7.32001 13.9 7.30668 13.7667L7.01335 11.4267C7.00668 11.3667 6.98002 11.3133 6.93335 11.2667L6.15332 10.4867C6.09332 10.4267 6.06667 10.3333 6.08667 10.2533C6.67334 10.52 7.32 10.6667 8 10.6667C8.68 10.6667 9.32666 10.52 9.91333 10.2533ZM8 2C5.79333 2 4 3.79333 4 6C4 7.65333 5.00668 9.07333 6.43335 9.68667C6.91335 9.88667 7.44667 10 8 10C8.55333 10 9.08665 9.88667 9.56665 9.68667C10.9933 9.07333 12 7.65333 12 6C12 3.79333 10.2067 2 8 2ZM6.33333 7.16667C5.69333 7.16667 5.16667 6.64 5.16667 6C5.16667 5.72667 5.39333 5.5 5.66667 5.5C5.94 5.5 6.16667 5.72667 6.16667 6C6.16667 6.09333 6.24 6.16667 6.33333 6.16667C6.60667 6.16667 6.83333 6.39333 6.83333 6.66667C6.83333 6.94 6.60667 7.16667 6.33333 7.16667ZM8 8.83333C7.36 8.83333 6.83333 8.30667 6.83333 7.66667C6.83333 7.39333 7.06 7.16667 7.33333 7.16667C7.60667 7.16667 7.83333 7.39333 7.83333 7.66667C7.83333 7.76 7.90667 7.83333 8 7.83333C8.27333 7.83333 8.5 8.06 8.5 8.33333C8.5 8.60667 8.27333 8.83333 8 8.83333ZM8.33333 6.83333C7.69333 6.83333 7.16667 6.30667 7.16667 5.66667C7.16667 5.39333 7.39333 5.16667 7.66667 5.16667C7.94 5.16667 8.16667 5.39333 8.16667 5.66667C8.16667 5.76 8.24 5.83333 8.33333 5.83333C8.60667 5.83333 8.83333 6.06 8.83333 6.33333C8.83333 6.60667 8.60667 6.83333 8.33333 6.83333Z" fill="#3B3B3E"/>
</svg>
