<svg width="16" height="16" viewBox="0 0 16 16" fill="none" xmlns="http://www.w3.org/2000/svg">
<path d="M7.01302 7.99967C7.01302 8.36767 6.71502 8.66634 6.34635 8.66634C5.97835 8.66634 5.67627 8.36767 5.67627 7.99967C5.67627 7.63167 5.97168 7.33301 6.33968 7.33301H6.34635C6.71435 7.33301 7.01302 7.63167 7.01302 7.99967ZM13.8503 4.64827L12.4077 5.80631C12.3604 5.84431 12.333 5.90174 12.333 5.9624V10.0369C12.333 10.0976 12.3604 10.155 12.4077 10.193L13.8503 11.3511C14.1789 11.6151 14.6663 11.381 14.6663 10.9596V5.03971C14.6663 4.61838 14.1789 4.38494 13.8503 4.64827ZM11.333 5.33301V10.6663C11.333 11.9997 10.6663 12.6663 9.33301 12.6663H3.33301C1.99967 12.6663 1.33301 11.9997 1.33301 10.6663V5.33301C1.33301 3.99967 1.99967 3.33301 3.33301 3.33301H9.33301C10.6663 3.33301 11.333 3.99967 11.333 5.33301ZM8.87907 7.56038C8.51574 6.94905 7.69901 5.91634 6.33301 5.91634C4.96701 5.91634 4.15095 6.94905 3.78695 7.56038C3.62561 7.83105 3.62561 8.1683 3.78695 8.43896C4.15028 9.0503 4.96701 10.083 6.33301 10.083C7.69901 10.083 8.51507 9.0503 8.87907 8.43896C9.0404 8.1683 9.0404 7.83105 8.87907 7.56038Z" fill="#3B3B3E"/>
</svg>
