<svg width="16" height="16" viewBox="0 0 16 16" fill="none" xmlns="http://www.w3.org/2000/svg">
<path d="M11.5336 5.90684C11.5803 6.04017 11.4803 6.16684 11.3469 6.16684H4.65361C4.51361 6.16684 4.42027 6.0335 4.46694 5.90684C4.80694 4.90684 5.08694 3.6735 5.12027 2.26684C5.12027 2.12017 5.24027 2.00684 5.38027 2.00684H10.6269C10.7736 2.00684 10.8869 2.12684 10.8869 2.26684C10.9203 3.68017 11.1936 4.90684 11.5403 5.90684H11.5336ZM12.6269 8.26684C12.4869 8.0335 12.2936 7.70017 12.1003 7.28684C12.0669 7.22017 11.9936 7.1735 11.9203 7.1735H4.08027C4.00694 7.1735 3.93361 7.22017 3.90027 7.28684C3.70027 7.70017 3.51361 8.0335 3.37361 8.26684C3.26694 8.44684 3.39361 8.66684 3.60027 8.66684H7.50027V13.5002H6.33361C6.06027 13.5002 5.83361 13.7268 5.83361 14.0002C5.83361 14.2735 6.06027 14.5002 6.33361 14.5002H9.66694C9.94027 14.5002 10.1669 14.2735 10.1669 14.0002C10.1669 13.7268 9.94027 13.5002 9.66694 13.5002H8.50027V8.66684H9.83361V10.6668C9.83361 10.9402 10.0603 11.1668 10.3336 11.1668C10.6069 11.1668 10.8336 10.9402 10.8336 10.6668V8.66684H12.4003C12.6069 8.66684 12.7403 8.44017 12.6269 8.26684V8.26684Z" fill="#3B3B3E"/>
</svg>
