<svg width="16" height="16" viewBox="0 0 16 16" fill="none" xmlns="http://www.w3.org/2000/svg">
<path d="M11.3337 2H4.66699C3.33366 2 2.66699 2.66667 2.66699 4V12C2.66699 13.3333 3.33366 14 4.66699 14H11.3337C12.667 14 13.3337 13.3333 13.3337 12V4C13.3337 2.66667 12.667 2 11.3337 2ZM6.68701 10.576L5.79834 11.4647C5.70101 11.562 5.57299 11.6113 5.44499 11.6113C5.31765 11.6113 5.18897 11.5627 5.09163 11.4653L4.64697 11.0207C4.45164 10.8253 4.45164 10.5086 4.64697 10.3133C4.84164 10.1186 5.15833 10.118 5.35433 10.3133L5.44564 10.4047L5.98096 9.86934C6.17629 9.67401 6.49298 9.67401 6.68831 9.86934C6.88365 10.0647 6.88235 10.3807 6.68701 10.576ZM6.68701 7.90934L5.79834 8.79801C5.70101 8.89535 5.57299 8.94466 5.44499 8.94466C5.31765 8.94466 5.18897 8.896 5.09163 8.79867L4.64697 8.354C4.45164 8.15867 4.45164 7.84198 4.64697 7.64665C4.84164 7.45198 5.15833 7.45131 5.35433 7.64665L5.44564 7.738L5.98096 7.20268C6.17629 7.00734 6.49298 7.00734 6.68831 7.20268C6.88365 7.39801 6.88235 7.71401 6.68701 7.90934ZM6.68701 5.24268L5.79834 6.13135C5.70101 6.22868 5.57299 6.27799 5.44499 6.27799C5.31765 6.27799 5.18897 6.22933 5.09163 6.132L4.64697 5.68734C4.45164 5.492 4.45164 5.17531 4.64697 4.97998C4.84164 4.78531 5.15833 4.78465 5.35433 4.97998L5.44564 5.07133L5.98096 4.53601C6.17629 4.34068 6.49298 4.34068 6.68831 4.53601C6.88365 4.73134 6.88235 5.04734 6.68701 5.24268ZM11.0003 11.1667H8.33366C8.05766 11.1667 7.83366 10.9427 7.83366 10.6667C7.83366 10.3907 8.05766 10.1667 8.33366 10.1667H11.0003C11.2763 10.1667 11.5003 10.3907 11.5003 10.6667C11.5003 10.9427 11.2763 11.1667 11.0003 11.1667ZM11.0003 8.5H8.33366C8.05766 8.5 7.83366 8.276 7.83366 8C7.83366 7.724 8.05766 7.5 8.33366 7.5H11.0003C11.2763 7.5 11.5003 7.724 11.5003 8C11.5003 8.276 11.2763 8.5 11.0003 8.5ZM11.0003 5.83333H8.33366C8.05766 5.83333 7.83366 5.60933 7.83366 5.33333C7.83366 5.05733 8.05766 4.83333 8.33366 4.83333H11.0003C11.2763 4.83333 11.5003 5.05733 11.5003 5.33333C11.5003 5.60933 11.2763 5.83333 11.0003 5.83333Z" fill="#3B3B3E"/>
</svg>
