<svg width="16" height="16" viewBox="0 0 16 16" fill="none" xmlns="http://www.w3.org/2000/svg">
<path d="M5.94165 12.666C5.48298 12.666 5.08837 12.3607 4.97437 11.9127L4.14836 8.66402H1.99967C1.63101 8.66402 1.33301 8.36535 1.33301 7.99735C1.33301 7.62935 1.63101 7.33068 1.99967 7.33068H4.14836C4.75902 7.33068 5.29035 7.74389 5.44035 8.33589L5.88566 10.0874L7.059 3.49068C7.14233 3.01868 7.53634 2.67864 8.01701 2.66597C8.51301 2.6453 8.90899 2.97124 9.01766 3.43924L10.2363 8.67932L10.5544 8.05724C10.783 7.60924 11.2377 7.33068 11.7417 7.33068H13.9997C14.3683 7.33068 14.6663 7.62935 14.6663 7.99735C14.6663 8.36535 14.3683 8.66402 13.9997 8.66402H11.741L11.0076 10.0986C10.8143 10.4766 10.409 10.6867 9.99569 10.6367C9.57369 10.5853 9.23897 10.2846 9.14364 9.87056L8.08634 5.32531L6.92765 11.8413C6.84432 12.3099 6.45434 12.648 5.979 12.6653C5.967 12.666 5.95432 12.666 5.94165 12.666Z" fill="#3B3B3E"/>
</svg>
