<svg width="16" height="16" viewBox="0 0 16 16" fill="none" xmlns="http://www.w3.org/2000/svg">
<path d="M14.0002 3V7.66667C14.0002 8.21867 13.5528 8.66667 13.0002 8.66667H11.8669C11.7562 8.66667 11.6668 8.57734 11.6668 8.46667V2.19999C11.6668 2.08933 11.7562 2 11.8669 2H13.0002C13.5528 2 14.0002 2.448 14.0002 3ZM10.4675 2H5.40153C4.06153 2 3.77479 2.55333 3.50146 3.36666L2.16813 7.36666C1.73479 8.65999 2.06153 10 4.06819 10H6.66813V12.16C6.66813 12.8267 7.00152 13.4533 7.56152 13.82C7.74152 13.94 7.94819 14 8.14819 14C8.56819 14 8.97484 13.7466 9.13484 13.3133L10.6582 8.69735C10.6649 8.67735 10.6681 8.65602 10.6681 8.63468V2.19999C10.6675 2.08933 10.5775 2 10.4675 2Z" fill="#3B3B3E"/>
</svg>
