<svg width="16" height="16" viewBox="0 0 16 16" fill="none" xmlns="http://www.w3.org/2000/svg">
<path d="M13.3317 3.04728V12.0007L13.327 11.9913V12.0007L11.7611 11.1047C11.6984 11.0693 11.6603 11.0026 11.6603 10.9313C11.6603 10.9313 11.6603 5.67062 11.6603 5.64795C11.633 3.98995 10.6296 3.00132 8.95361 3.00065H5.47835C5.36235 3.00065 5.32773 2.89935 5.33773 2.78402C5.42106 1.82135 5.99036 1.33398 7.04036 1.33398H11.6136H11.6183C12.7583 1.33398 13.3317 1.90728 13.3317 3.04728ZM10.667 5.71468V14.6673L6.66699 12.382L2.66699 14.6673V5.71468C2.66699 4.57201 3.23836 4.00065 4.38102 4.00065H8.95231C10.0956 4.00065 10.667 4.57201 10.667 5.71468ZM8.50033 8.33398C8.50033 8.05798 8.27633 7.83398 8.00033 7.83398H5.33366C5.05766 7.83398 4.83366 8.05798 4.83366 8.33398C4.83366 8.60998 5.05766 8.83398 5.33366 8.83398H8.00033C8.27633 8.83398 8.50033 8.60998 8.50033 8.33398Z" fill="#3B3B3E"/>
</svg>
