<svg width="16" height="16" viewBox="0 0 16 16" fill="none" xmlns="http://www.w3.org/2000/svg">
<path d="M11.9997 9.61261V11.1333C11.9997 11.5959 11.755 12.0233 11.3636 12.2706C9.12096 13.6873 6.87761 13.6873 4.63494 12.2706C4.24361 12.024 3.99904 11.5959 3.99904 11.1333V9.61261C3.99904 9.56194 4.05301 9.53001 4.09767 9.55401L6.54575 10.8933C6.98575 11.1333 7.49237 11.26 7.99904 11.26C8.50571 11.26 9.01233 11.1333 9.45233 10.8933L11.9004 9.55401C11.9457 9.52935 11.9997 9.56194 11.9997 9.61261ZM13.291 5.27L8.97707 2.91599C8.3684 2.58399 7.6323 2.58399 7.02296 2.91599L2.709 5.27C1.76367 5.78533 1.76367 7.14267 2.709 7.65867L7.02296 10.0127C7.63163 10.3447 8.36773 10.3447 8.97707 10.0127L13.291 7.65867L12.833 7.90867V10.6666C12.833 10.9426 13.057 11.1666 13.333 11.1666C13.609 11.1666 13.833 10.9426 13.833 10.6666V7.11399C14.169 6.49266 13.9904 5.65133 13.291 5.27Z" fill="#3B3B3E"/>
</svg>
