<svg width="16" height="16" viewBox="0 0 16 16" fill="none" xmlns="http://www.w3.org/2000/svg">
<path d="M12.6663 10.6667H8.49967V14C8.49967 14.2733 8.27301 14.5 7.99967 14.5C7.72634 14.5 7.49967 14.2733 7.49967 14V10.6667H3.33301C3.33301 9.386 3.84168 8.15794 4.74701 7.2526C5.11234 6.88727 5.26768 6.36194 5.15902 5.85661L4.59167 3.20931C4.45834 2.58664 4.66568 2 5.56968 2H10.429C11.3323 2 11.5403 2.58664 11.407 3.20931L10.8397 5.85661C10.7317 6.36194 10.8863 6.88727 11.2517 7.2526C12.1577 8.15794 12.6663 9.386 12.6663 10.6667Z" fill="#3B3B3E"/>
</svg>
