<svg width="16" height="16" viewBox="0 0 16 16" fill="none" xmlns="http://www.w3.org/2000/svg">
<path d="M13.9196 13.5964C14.0796 13.7297 13.9863 13.9963 13.7796 13.9963C13.093 14.023 12.0397 13.9297 11.3931 13.243C10.8664 13.4297 10.2797 13.523 9.66634 13.523C8.32101 13.523 7.12434 13.0717 6.33301 12.2457C6.20701 12.1137 6.239 11.857 6.52767 11.8796C6.683 11.8903 6.83967 11.8963 6.99967 11.8963C10.0797 11.8963 12.4097 10.0956 12.9023 7.49032C12.9357 7.31565 13.153 7.25769 13.2624 7.39836C13.729 8.00236 13.999 8.76569 13.999 9.66903C13.999 10.689 13.6456 11.543 13.0589 12.1764C13.1329 12.643 13.3929 13.1697 13.9196 13.5964ZM11.999 6.44767C11.999 9.22701 9.76034 10.895 6.99967 10.895C6.46567 10.895 5.95365 10.8323 5.47298 10.7117C5.31365 10.6717 5.15771 10.625 5.00505 10.573C4.26038 11.3677 3.04438 11.4736 2.25505 11.4456C2.01638 11.4403 1.91025 11.1343 2.09359 10.979C2.69892 10.4897 2.99902 9.87832 3.08236 9.34432C2.40436 8.61032 1.99902 7.62632 1.99902 6.44832C1.99902 3.66899 4.23771 2.00098 6.99837 2.00098C9.72837 2.00098 11.9437 3.63367 11.993 6.35767C11.995 6.38767 11.999 6.41634 11.999 6.44767ZM8.05566 7.55566C8.05566 7.27966 7.83166 7.05566 7.55566 7.05566H4.77832C4.50232 7.05566 4.27832 7.27966 4.27832 7.55566C4.27832 7.83166 4.50232 8.05566 4.77832 8.05566H7.55566C7.83166 8.05566 8.05566 7.83233 8.05566 7.55566ZM9.72233 5.33366C9.72233 5.05766 9.49833 4.83366 9.22233 4.83366H4.77832C4.50232 4.83366 4.27832 5.05766 4.27832 5.33366C4.27832 5.60966 4.50232 5.83366 4.77832 5.83366H9.22233C9.49833 5.83366 9.72233 5.60966 9.72233 5.33366Z" fill="#3B3B3E"/>
</svg>
