<svg width="16" height="16" viewBox="0 0 16 16" fill="none" xmlns="http://www.w3.org/2000/svg">
<path d="M14.3186 6.05619L9.37716 1.99223C8.57916 1.33756 7.42256 1.33689 6.62456 1.99223L1.68323 6.05554C1.47056 6.23087 1.43921 6.54556 1.61455 6.75956C1.78988 6.97356 2.10523 7.00291 2.31857 6.82825L3.00053 6.26688V11.9996C3.00053 13.5262 3.8072 14.3329 5.33387 14.3329H10.6672C12.1939 14.3329 13.0005 13.5262 13.0005 11.9996V6.26754L13.6825 6.8289C13.7758 6.90556 13.8885 6.94291 14.0005 6.94291C14.1445 6.94291 14.2879 6.88086 14.3865 6.76086C14.5625 6.5462 14.5312 6.23152 14.3186 6.05619ZM8.00053 11.6662C7.63253 11.6662 7.33387 11.3676 7.33387 10.9996C7.33387 10.6316 7.63253 10.3329 8.00053 10.3329C8.36853 10.3329 8.6672 10.6316 8.6672 10.9996C8.6672 11.3676 8.36853 11.6662 8.00053 11.6662ZM9.89921 9.80896C9.80055 9.93829 9.65121 10.0062 9.49988 10.0062C9.39455 10.0062 9.28855 9.97284 9.19788 9.90417C8.51188 9.38284 7.48985 9.38284 6.80318 9.90417C6.58252 10.0722 6.26985 10.0281 6.10185 9.80814C5.93518 9.58814 5.97788 9.27496 6.19788 9.10762C7.23588 8.31896 8.76585 8.31896 9.80318 9.10762C10.0225 9.27562 10.0659 9.58962 9.89921 9.80896ZM11.3792 8.43689C11.2805 8.55155 11.1412 8.61088 11.0005 8.61088C10.8845 8.61088 10.7685 8.57096 10.6745 8.48962C9.93319 7.85096 8.9832 7.49955 8.00053 7.49955C7.01787 7.49955 6.06854 7.85096 5.32654 8.48962C5.11787 8.66962 4.80189 8.64622 4.62122 8.43689C4.44055 8.22755 4.46521 7.91157 4.67387 7.73157C5.59721 6.9369 6.77788 6.49955 7.99988 6.49955C9.22188 6.49955 10.4026 6.9369 11.3259 7.73157C11.5359 7.91157 11.5599 8.22755 11.3792 8.43689Z" fill="#3B3B3E"/>
</svg>
