<svg width="16" height="16" viewBox="0 0 16 16" fill="none" xmlns="http://www.w3.org/2000/svg">
<path d="M13.8 6.5H2.20003C2.08937 6.5 2 6.58937 2 6.70003V12C2 13.3333 2.66667 14 4 14H12C13.3333 14 14 13.3333 14 12V6.70003C14 6.58937 13.9106 6.5 13.8 6.5ZM9.66667 10.5H6.33333C6.05733 10.5 5.83333 10.276 5.83333 10C5.83333 9.724 6.05733 9.5 6.33333 9.5H9.66667C9.94267 9.5 10.1667 9.724 10.1667 10C10.1667 10.276 9.94267 10.5 9.66667 10.5ZM14 5V5.29997C14 5.41063 13.9106 5.5 13.8 5.5H2.20003C2.08937 5.5 2 5.41063 2 5.29997V5C2 3.66667 2.66667 3 4 3H4.83333V2C4.83333 1.72667 5.06 1.5 5.33333 1.5C5.60667 1.5 5.83333 1.72667 5.83333 2V3H10.1667V2C10.1667 1.72667 10.3933 1.5 10.6667 1.5C10.94 1.5 11.1667 1.72667 11.1667 2V3H12C13.3333 3 14 3.66667 14 5Z" fill="#3B3B3E"/>
</svg>
