<svg width="16" height="16" viewBox="0 0 16 16" fill="none" xmlns="http://www.w3.org/2000/svg">
<path d="M12 2.66699H4C2.66667 2.66699 2 3.33366 2 4.66699V10.0003C2 11.3337 2.66667 12.0003 4 12.0003H9.15999C9.27333 12.0003 9.36666 11.907 9.36666 11.7937C9.36666 11.767 9.36002 11.7403 9.35335 11.7137C9.34002 11.587 9.33333 11.4603 9.33333 11.3337C9.33333 9.49366 10.8267 8.00033 12.6667 8.00033C13.04 8.00033 13.4 8.06033 13.7333 8.17367C13.8666 8.21367 14 8.12698 14 7.98698V4.66699C14 3.33366 13.3333 2.66699 12 2.66699ZM4 7.99967C3.632 7.99967 3.33333 7.70101 3.33333 7.33301C3.33333 6.96501 3.632 6.66634 4 6.66634C4.368 6.66634 4.66667 6.96501 4.66667 7.33301C4.66667 7.70167 4.368 7.99967 4 7.99967ZM8 9.33366C6.89533 9.33366 6 8.43833 6 7.33366C6 6.22899 6.89533 5.33366 8 5.33366C9.10467 5.33366 10 6.22899 10 7.33366C10 8.43833 9.10467 9.33366 8 9.33366ZM14.3534 11.687C14.256 11.7843 14.128 11.8337 14 11.8337C13.872 11.8337 13.744 11.785 13.6466 11.687L13.1667 11.207V13.3337C13.1667 13.6097 12.9427 13.8337 12.6667 13.8337C12.3907 13.8337 12.1667 13.6097 12.1667 13.3337V11.2076L11.6867 11.6877C11.4914 11.883 11.1747 11.883 10.9793 11.6877C10.784 11.4923 10.784 11.1756 10.9793 10.9803L12.3127 9.64697C12.508 9.45164 12.8247 9.45164 13.02 9.64697L14.3534 10.9803C14.5487 11.175 14.5487 11.4923 14.3534 11.687Z" fill="#3B3B3E"/>
</svg>
