<svg width="16" height="16" viewBox="0 0 16 16" fill="none" xmlns="http://www.w3.org/2000/svg">
<path d="M11.9999 7.99967C11.9999 8.36767 11.7019 8.66634 11.3332 8.66634H3.60926L5.80457 10.8617C6.06524 11.1223 6.06524 11.5437 5.80457 11.8044C5.67457 11.9344 5.50388 11.9997 5.33321 11.9997C5.16255 11.9997 4.99186 11.9344 4.86186 11.8044L1.52918 8.47168C1.46718 8.40968 1.41848 8.33639 1.38448 8.25439C1.31715 8.09173 1.31715 7.90762 1.38448 7.74495C1.41848 7.66295 1.46718 7.58967 1.52918 7.52767L4.86186 4.19499C5.12253 3.93432 5.5439 3.93432 5.80457 4.19499C6.06524 4.45565 6.06524 4.87703 5.80457 5.1377L3.60926 7.33301H11.3332C11.7019 7.33301 11.9999 7.63167 11.9999 7.99967ZM13.9999 3.33301C13.6312 3.33301 13.3332 3.63167 13.3332 3.99967V11.9997C13.3332 12.3677 13.6312 12.6663 13.9999 12.6663C14.3685 12.6663 14.6665 12.3677 14.6665 11.9997V3.99967C14.6665 3.63167 14.3685 3.33301 13.9999 3.33301Z" fill="#3B3B3E"/>
</svg>
