<svg width="16" height="16" viewBox="0 0 16 16" fill="none" xmlns="http://www.w3.org/2000/svg">
<path d="M4.09373 11.3868L5.27374 10.2068C5.27374 10.2068 5.33374 10.1668 5.36707 10.1668H8.69373C8.81373 10.1668 8.87373 10.3135 8.78706 10.3935L7.7204 11.4602C7.7204 11.4602 7.6604 11.5001 7.62707 11.5001H4.1404C4.0804 11.5001 4.05373 11.4268 4.09373 11.3868ZM12.4737 4.76681L9.71374 5.56015C9.67374 5.57348 9.6404 5.60682 9.62707 5.64682C9.57374 5.84015 9.46706 6.02682 9.3204 6.16682L8.90707 6.58015C8.90707 6.58015 8.63374 6.83348 8.82707 6.83348H12.0871C12.1404 6.83348 12.1871 6.80683 12.2071 6.76016C12.5271 6.18016 12.6737 5.53347 12.6537 4.88681C12.6537 4.80014 12.5604 4.74016 12.4804 4.76016L12.4737 4.76681ZM6.4804 9.16682H9.96707C10.0004 9.16682 10.0337 9.15348 10.0604 9.12682L11.1271 8.06015C11.2137 7.97348 11.1537 7.83348 11.0337 7.83348H7.70707C7.67373 7.83348 7.6404 7.84681 7.61373 7.87348L6.43373 9.05347C6.39373 9.09347 6.4204 9.16682 6.4804 9.16682V9.16682ZM7.88041 4.53347C8.02041 4.40014 8.18707 4.32016 8.36707 4.28016C8.4204 4.26682 8.46707 4.22682 8.47374 4.16682C8.51374 3.74682 8.69373 2.05348 8.74706 1.51348C8.75373 1.42681 8.68706 1.35347 8.6004 1.36681C7.78706 1.44681 7.00041 1.78681 6.38041 2.40681L6.0404 2.74681C5.48707 3.30015 5.54707 4.23348 6.21374 4.70681C6.72707 5.07348 7.43374 4.96681 7.88707 4.53347H7.88041ZM3.09373 12.5001C2.9804 12.5001 2.9404 12.5668 2.91374 12.6001C2.54707 13.1135 2.58707 13.8268 3.04707 14.2868C3.5604 14.8001 4.38707 14.8001 4.9004 14.2868L6.51374 12.6735C6.51374 12.6735 6.71373 12.5068 6.5804 12.5068H3.09373V12.5001ZM9.43373 4.59349L12.2871 3.78016C12.3671 3.76016 12.4071 3.67348 12.3804 3.60015C12.2004 3.16681 11.9404 2.76015 11.5871 2.41348C11.1071 1.93348 10.5271 1.62016 9.91373 1.46682C9.83373 1.44682 9.75373 1.50682 9.74706 1.58682L9.43373 4.60682V4.59349Z" fill="#3B3B3E"/>
</svg>
