<svg width="16" height="16" viewBox="0 0 16 16" fill="none" xmlns="http://www.w3.org/2000/svg">
<path d="M10.6672 1.66634V8.99967C10.6672 9.18634 10.5205 9.33301 10.3338 9.33301H9.57381C8.73381 9.33301 8.06049 9.91967 7.88049 10.673C7.86049 10.7663 7.78049 10.833 7.68715 10.833H5.52716C5.41383 10.833 5.32715 10.7463 5.32715 10.633V3.41968C5.32715 1.99968 5.99382 1.33301 7.41382 1.33301H10.3271C10.5138 1.33301 10.6605 1.47967 10.6605 1.66634H10.6672ZM7.99381 11.9863L8.20715 12.853C8.44049 13.773 7.74048 14.6663 6.78715 14.6663C5.98048 14.6663 5.32715 14.013 5.32715 13.2063V12.033C5.32715 11.9197 5.41383 11.833 5.52716 11.833H7.79382C7.88716 11.833 7.96716 11.893 7.98716 11.9863H7.99381ZM7.34715 12.9997C7.34715 12.7263 7.12715 12.4997 6.84715 12.4997C6.57381 12.4997 6.34715 12.7263 6.34715 12.9997C6.34715 13.273 6.57381 13.4997 6.84715 13.4997C7.12048 13.4997 7.34715 13.273 7.34715 12.9997Z" fill="#3B3B3E"/>
</svg>
