<svg width="16" height="16" viewBox="0 0 16 16" fill="none" xmlns="http://www.w3.org/2000/svg">
<path d="M13.3317 3.04728V12.0007L13.327 11.9913V12.0007L11.7611 11.1047C11.6984 11.0693 11.6603 11.0026 11.6603 10.9313C11.6603 10.9313 11.6603 5.67062 11.6603 5.64795C11.633 3.98995 10.6296 3.00132 8.95361 3.00065H5.47835C5.36235 3.00065 5.32773 2.89935 5.33773 2.78402C5.42106 1.82135 5.99036 1.33398 7.04036 1.33398H11.6136H11.6183C12.7583 1.33398 13.3317 1.90728 13.3317 3.04728ZM6.68034 7.66732H6.67367C6.30567 7.66732 6.01025 7.96598 6.01025 8.33398C6.01025 8.70198 6.31234 9.00065 6.68034 9.00065C7.04901 9.00065 7.34701 8.70198 7.34701 8.33398C7.34701 7.96598 7.04834 7.66732 6.68034 7.66732ZM10.667 5.71468V14.6673L6.66699 12.382L2.66699 14.6673V5.71468C2.66699 4.57201 3.23836 4.00065 4.38102 4.00065H8.95231C10.0956 4.00065 10.667 4.57201 10.667 5.71468ZM8.52295 8.33529C8.52228 8.05662 8.675 7.79934 8.92367 7.65934L9.00098 7.61597L8.46631 6.71867L8.38965 6.76131C8.14032 6.90064 7.83363 6.90066 7.58496 6.76066C7.33763 6.62133 7.18571 6.36464 7.18571 6.08797C7.18571 6.03997 7.1457 6.00065 7.0957 6.00065H6.20638C6.15705 6.00065 6.11637 6.03997 6.11637 6.08797C6.11637 6.36531 5.96429 6.62133 5.71696 6.76066C5.46829 6.90066 5.16161 6.90131 4.91227 6.76131C4.87027 6.73731 4.81567 6.75131 4.79167 6.79264L4.3457 7.54134C4.32104 7.58201 4.3356 7.63469 4.3776 7.65869L4.37907 7.65934C4.6264 7.79868 4.7783 8.05463 4.77897 8.3313C4.77964 8.60997 4.62707 8.86797 4.37907 9.00797L4.3776 9.00863C4.3356 9.03263 4.32104 9.08531 4.3457 9.12598L4.79167 9.87402C4.81633 9.91536 4.87026 9.92935 4.91292 9.90535C5.16159 9.76602 5.46829 9.76601 5.71696 9.90601C5.96429 10.0453 6.11639 10.302 6.11572 10.5793C6.11572 10.6273 6.15573 10.6667 6.20573 10.6667H7.09635C7.14569 10.6667 7.18636 10.628 7.18636 10.58C7.18636 10.3027 7.33828 10.0466 7.58561 9.90731C7.83428 9.76731 8.14097 9.76666 8.3903 9.90666C8.4323 9.93066 8.4864 9.91666 8.51107 9.87533L8.95703 9.12663C8.9817 9.08596 8.96697 9.03328 8.92497 9.00928L8.92432 9.00863C8.67565 8.86929 8.52295 8.61262 8.52295 8.33529Z" fill="#3B3B3E"/>
</svg>
