<svg width="16" height="16" viewBox="0 0 16 16" fill="none" xmlns="http://www.w3.org/2000/svg">
<path d="M9.05535 7.61133C9.05535 8.408 8.40734 9.05599 7.61134 9.05599C6.81468 9.05599 6.16668 8.408 6.16668 7.61133C6.16668 6.81466 6.81468 6.16667 7.61134 6.16667C8.40734 6.16667 9.05535 6.81466 9.05535 7.61133ZM14 7.99935C14 11.3127 11.314 13.9987 8.00067 13.9987C7.10733 13.9987 6.25399 13.7987 5.49399 13.4454C5.20066 13.3054 4.86071 13.3053 4.54738 13.4053L2.88071 13.9653C2.36071 14.1387 1.8607 13.6387 2.03403 13.1187L2.59409 11.452C2.69409 11.1387 2.69405 10.7987 2.55405 10.5053C2.20072 9.74533 2.00067 8.89202 2.00067 7.99935C2.00067 4.68602 4.68668 2 8.00001 2C11.3133 2 14 4.68602 14 7.99935ZM10.6867 9.97998L9.65333 8.94735C9.90533 8.56268 10.0554 8.10469 10.0554 7.61202C10.0554 6.26402 8.95868 5.16732 7.61134 5.16732C6.26334 5.16732 5.16668 6.26402 5.16668 7.61202C5.16668 8.96002 6.26334 10.0567 7.61134 10.0567C8.10468 10.0567 8.56196 9.90731 8.94663 9.65531L9.97999 10.688C10.0773 10.7853 10.2053 10.8347 10.3333 10.8347C10.4613 10.8347 10.5894 10.786 10.6867 10.688C10.882 10.4913 10.882 10.1746 10.6867 9.97998Z" fill="#3B3B3E"/>
</svg>
