<svg width="16" height="16" viewBox="0 0 16 16" fill="none" xmlns="http://www.w3.org/2000/svg">
<path d="M11.75 2H4.25C2.75 2 2 2.75 2 4.25V11.75C2 13.25 2.75 14 4.25 14H11.75C13.25 14 14 13.25 14 11.75V4.25C14 2.75 13.25 2 11.75 2ZM7.59994 11.0013C7.59994 11.2033 7.47801 11.386 7.29134 11.4634C7.22934 11.4894 7.1646 11.5013 7.09994 11.5013C6.96994 11.5013 6.84208 11.4507 6.74674 11.3547L4.94661 9.55469C4.75128 9.35935 4.75128 9.04266 4.94661 8.84733C5.14195 8.652 5.45864 8.652 5.65397 8.84733L6.60059 9.79395V6.20068C6.60059 5.92468 6.82459 5.70068 7.10059 5.70068C7.37659 5.70068 7.60059 5.92468 7.60059 6.20068V11.0013H7.59994ZM11.0534 7.15462C10.8581 7.34996 10.5414 7.34996 10.346 7.15462L9.39941 6.20866V9.80127C9.39941 10.0773 9.17541 10.3013 8.89941 10.3013C8.62341 10.3013 8.39941 10.0773 8.39941 9.80127V5.0013C8.39941 4.7993 8.52134 4.61672 8.70801 4.53939C8.89467 4.46205 9.10994 4.50462 9.2526 4.64795L11.0527 6.44808C11.2487 6.64275 11.2487 6.95929 11.0534 7.15462Z" fill="#3B3B3E"/>
</svg>
