<svg width="16" height="16" viewBox="0 0 16 16" fill="none" xmlns="http://www.w3.org/2000/svg">
<path d="M12 10.0004C11.2887 10.0004 10.6673 10.375 10.3133 10.9344L5.86393 8.7097C5.9486 8.48836 6 8.25103 6 7.99969C6 7.74903 5.9486 7.51103 5.86393 7.28969L10.3133 5.06502C10.668 5.62502 11.2887 5.99902 12 5.99902C13.1047 5.99902 14 5.10369 14 3.99902C14 2.89436 13.1047 1.99902 12 1.99902C10.8953 1.99902 10 2.89436 10 3.99902C10 4.03302 10.0086 4.06503 10.0099 4.09837L5.27197 6.46704C4.92531 6.17904 4.486 5.99837 4 5.99837C2.89533 5.99837 2 6.89371 2 7.99837C2 9.10304 2.89533 9.99837 4 9.99837C4.486 9.99837 4.92531 9.81837 5.27197 9.5297L10.0099 11.8984C10.0086 11.9317 10 11.9637 10 11.9977C10 13.1024 10.8953 13.9977 12 13.9977C13.1047 13.9977 14 13.1024 14 11.9977C14 10.893 13.1047 10.0004 12 10.0004Z" fill="#3B3B3E"/>
</svg>
