<svg width="16" height="16" viewBox="0 0 16 16" fill="none" xmlns="http://www.w3.org/2000/svg">
<path d="M14.333 6.66634C14.333 5.74767 13.5857 4.99967 12.6663 4.99967C11.747 4.99967 10.9997 5.74767 10.9997 6.66634C10.9997 7.34767 11.4117 7.93373 11.9997 8.19173V10.333C11.9997 11.987 10.6537 13.333 8.99967 13.333C7.34567 13.333 5.99967 11.987 5.99967 10.333V9.94906C7.99101 9.66706 9.33301 8.12501 9.33301 5.99967V2.99967C9.33301 1.97167 8.69434 1.33301 7.66634 1.33301H7.33301C6.96434 1.33301 6.66634 1.63167 6.66634 1.99967C6.66634 2.36767 6.96434 2.66634 7.33301 2.66634H7.66634C7.96501 2.66634 7.99967 2.70034 7.99967 2.99967V5.99967C7.99967 7.61967 6.95301 8.66634 5.33301 8.66634C3.71301 8.66634 2.66634 7.61967 2.66634 5.99967V2.99967C2.66634 2.70034 2.70101 2.66634 2.99967 2.66634H3.33301C3.70167 2.66634 3.99967 2.36767 3.99967 1.99967C3.99967 1.63167 3.70167 1.33301 3.33301 1.33301H2.99967C1.97167 1.33301 1.33301 1.97167 1.33301 2.99967V5.99967C1.33301 8.12501 2.67501 9.66706 4.66634 9.94906V10.333C4.66634 12.7223 6.61034 14.6663 8.99967 14.6663C11.389 14.6663 13.333 12.7223 13.333 10.333V8.19173C13.921 7.93373 14.333 7.34767 14.333 6.66634Z" fill="#3B3B3E"/>
</svg>
