<svg width="16" height="16" viewBox="0 0 16 16" fill="none" xmlns="http://www.w3.org/2000/svg">
<path d="M14 8.66667V12C14 13.3333 13.3333 14 12 14H4C2.66667 14 2 13.3333 2 12V8.66667C2 7.33333 2.66667 6.66667 4 6.66667H7.5V9.45935L6.35335 8.31266C6.15802 8.11733 5.84133 8.11733 5.646 8.31266C5.45066 8.508 5.45066 8.82469 5.646 9.02002L7.646 11.02C7.692 11.066 7.74726 11.1027 7.80859 11.128C7.86993 11.1533 7.93467 11.1667 8 11.1667C8.06533 11.1667 8.13007 11.1533 8.19141 11.128C8.25274 11.1027 8.308 11.066 8.354 11.02L10.354 9.02002C10.5493 8.82469 10.5493 8.508 10.354 8.31266C10.1587 8.11733 9.84198 8.11733 9.64665 8.31266L8.5 9.45935V6.66667H12C13.3333 6.66667 14 7.33333 14 8.66667ZM8.5 2C8.5 1.724 8.276 1.5 8 1.5C7.724 1.5 7.5 1.724 7.5 2V6.66667H8.5V2Z" fill="#3B3B3E"/>
</svg>
