<svg width="16" height="16" viewBox="0 0 16 16" fill="none" xmlns="http://www.w3.org/2000/svg">
<path d="M15.3337 7.99967C15.3337 12.043 12.0437 15.333 8.00033 15.333C3.95699 15.333 0.666992 12.043 0.666992 7.99967C0.666992 7.46367 0.727036 6.91698 0.845703 6.37565C0.923036 6.01565 1.275 5.78771 1.639 5.86637C1.99833 5.94504 2.22629 6.30033 2.14762 6.65967C2.05029 7.10767 2.00033 7.55836 2.00033 7.99902C2.00033 11.307 4.69166 13.999 8.00033 13.999C11.309 13.999 14.0003 11.307 14.0003 7.99902C14.0003 4.69102 11.309 1.99902 8.00033 1.99902C6.61899 1.99902 5.3143 2.46362 4.2583 3.31429L8.47168 7.52767C8.73235 7.78834 8.73235 8.20971 8.47168 8.47038C8.34168 8.60038 8.17099 8.66569 8.00033 8.66569C7.82966 8.66569 7.65897 8.60038 7.52897 8.47038L2.82031 3.76172C2.82031 3.76172 2.81966 3.76173 2.81966 3.76107C2.81966 3.7604 2.81968 3.76042 2.81901 3.76042L2.81836 3.7596C2.80103 3.74227 2.79429 3.71966 2.77962 3.70166C2.73829 3.65033 2.69636 3.59903 2.67236 3.54036C2.6577 3.5037 2.65774 3.46427 2.64974 3.42627C2.64041 3.38094 2.62305 3.33638 2.62305 3.28971C2.62305 3.24305 2.63974 3.19834 2.64974 3.15234C2.65774 3.11434 2.65705 3.07573 2.67171 3.03906C2.68971 2.9944 2.72493 2.95701 2.75293 2.91634C2.77493 2.88367 2.78904 2.84769 2.81771 2.81836C2.81771 2.81836 2.81834 2.81771 2.81901 2.81771C2.81901 2.81771 2.81899 2.81771 2.81966 2.81771C4.19833 1.43104 6.03896 0.666992 8.00163 0.666992C12.0436 0.666326 15.3337 3.95634 15.3337 7.99967Z" fill="#3B3B3E"/>
</svg>
