<svg width="16" height="16" viewBox="0 0 16 16" fill="none" xmlns="http://www.w3.org/2000/svg">
<path d="M4 2.66699H5.29997C5.41063 2.66699 5.5 2.75636 5.5 2.86702V13.1336C5.5 13.2443 5.41063 13.3337 5.29997 13.3337H4C2.66667 13.3337 2 12.667 2 11.3337V4.66699C2 3.33366 2.66667 2.66699 4 2.66699ZM12 2.66699H6.70003C6.58937 2.66699 6.5 2.75636 6.5 2.86702V7.50033H13.8C13.9106 7.50033 14 7.41096 14 7.30029V4.66699C14 3.33366 13.3333 2.66699 12 2.66699ZM6.5 13.1336C6.5 13.2443 6.58937 13.3337 6.70003 13.3337H12C13.3333 13.3337 14 12.667 14 11.3337V8.70036C14 8.58969 13.9106 8.50033 13.8 8.50033H6.5V13.1336Z" fill="#3B3B3E"/>
</svg>
