<svg width="16" height="16" viewBox="0 0 16 16" fill="none" xmlns="http://www.w3.org/2000/svg">
<path d="M11.8077 9.21352L9.56703 6.33352H10.3257C10.887 6.33352 11.2024 5.68619 10.857 5.24286L8.53102 2.2595C8.26102 1.9135 7.73836 1.9135 7.46836 2.2595L5.14235 5.24286C4.79702 5.68619 5.11235 6.33352 5.67368 6.33352H6.43235L4.19169 9.21352C3.73169 9.80685 4.15169 10.6668 4.89835 10.6668H7.49969V14.0002C7.49969 14.2762 7.72369 14.5002 7.99969 14.5002C8.27569 14.5002 8.49969 14.2762 8.49969 14.0002V10.6668H11.101C11.8477 10.6668 12.2684 9.80685 11.8077 9.21352Z" fill="#3B3B3E"/>
</svg>
