<svg width="16" height="16" viewBox="0 0 16 16" fill="none" xmlns="http://www.w3.org/2000/svg">
<path d="M11.3337 2H4.66699C3.33366 2 2.66699 2.66667 2.66699 4V12C2.66699 13.3333 3.33366 14 4.66699 14H11.3337C12.667 14 13.3337 13.3333 13.3337 12V4C13.3337 2.66667 12.667 2 11.3337 2ZM8.00033 12.6667C7.63233 12.6667 7.33366 12.368 7.33366 12C7.33366 11.632 7.63233 11.3333 8.00033 11.3333C8.36833 11.3333 8.66699 11.632 8.66699 12C8.66699 12.368 8.36833 12.6667 8.00033 12.6667ZM9.33366 4.5H6.66699C6.39099 4.5 6.16699 4.276 6.16699 4C6.16699 3.724 6.39099 3.5 6.66699 3.5H9.33366C9.60966 3.5 9.83366 3.724 9.83366 4C9.83366 4.276 9.60966 4.5 9.33366 4.5Z" fill="#3B3B3E"/>
</svg>
