<svg width="16" height="16" viewBox="0 0 16 16" fill="none" xmlns="http://www.w3.org/2000/svg">
<path d="M12.2664 3.05331L11.3604 3.73264C10.9624 4.0313 10.405 3.99132 10.053 3.63998L8.70703 2.29398C8.31636 1.90331 7.68297 1.90331 7.29297 2.29398L5.94702 3.63998C5.59502 3.99198 5.03765 4.0313 4.63965 3.73264L3.73364 3.05331C3.29431 2.72398 2.66699 3.03731 2.66699 3.58664V12.4153C2.66699 12.9646 3.29431 13.278 3.73364 12.9486L4.63965 12.2693C5.03765 11.9707 5.59502 12.0106 5.94702 12.362L7.29297 13.708C7.68364 14.0986 8.31703 14.0986 8.70703 13.708L10.053 12.362C10.405 12.01 10.9624 11.9707 11.3604 12.2693L12.2664 12.9486C12.7057 13.278 13.333 12.9646 13.333 12.4153V3.58664C13.333 3.03731 12.7057 2.72331 12.2664 3.05331ZM10.6164 7.69665C10.2684 9.47598 7.99967 10.5006 7.99967 10.5006C7.99967 10.5006 5.73098 9.47598 5.38298 7.69665C5.16964 6.60465 5.63565 5.50664 6.82031 5.50064C7.70298 5.49664 7.99902 6.3793 7.99902 6.3793C7.99902 6.3793 8.29499 5.49597 9.17765 5.50064C10.3657 5.50664 10.8297 6.60465 10.6164 7.69665Z" fill="#3B3B3E"/>
</svg>
