<svg width="16" height="16" viewBox="0 0 16 16" fill="none" xmlns="http://www.w3.org/2000/svg">
<path d="M11.75 2H4.25C2.75 2 2 2.75 2 4.25V11.75C2 13.25 2.75 14 4.25 14H11.75C13.25 14 14 13.25 14 11.75V4.25C14 2.75 13.25 2 11.75 2ZM4.5 7C4.5 6.17267 5.17333 5.5 6 5.5H9.79264L9.646 5.35335C9.45066 5.15802 9.45066 4.84133 9.646 4.646C9.84133 4.45066 10.158 4.45066 10.3534 4.646L11.3534 5.646C11.3994 5.692 11.4359 5.74726 11.4613 5.80859C11.5119 5.93059 11.5119 6.06859 11.4613 6.19059C11.4359 6.25193 11.3994 6.30735 11.3534 6.35335L10.3534 7.35335C10.256 7.45069 10.128 7.5 10 7.5C9.872 7.5 9.74398 7.45135 9.64665 7.35335C9.45131 7.15802 9.45131 6.84133 9.64665 6.646L9.79329 6.49935H6C5.72467 6.49935 5.5 6.72335 5.5 6.99935V7.99935C5.5 8.27535 5.276 8.49935 5 8.49935C4.724 8.49935 4.5 8.27535 4.5 7.99935V7ZM11.5 9C11.5 9.82733 10.8267 10.5 10 10.5H6.20736L6.354 10.6466C6.54934 10.842 6.54934 11.1587 6.354 11.354C6.25667 11.4513 6.12865 11.5007 6.00065 11.5007C5.87265 11.5007 5.74463 11.452 5.6473 11.354L4.6473 10.354C4.6013 10.308 4.56472 10.2527 4.53939 10.1914C4.48872 10.0694 4.48872 9.93141 4.53939 9.80941C4.56472 9.74807 4.6013 9.69265 4.6473 9.64665L5.6473 8.64665C5.84263 8.45131 6.15932 8.45131 6.35466 8.64665C6.54999 8.84198 6.54999 9.15867 6.35466 9.354L6.20801 9.50065H10C10.2753 9.50065 10.5 9.27665 10.5 9.00065V8.00065C10.5 7.72465 10.724 7.50065 11 7.50065C11.276 7.50065 11.5 7.72465 11.5 8.00065V9Z" fill="#3B3B3E"/>
</svg>
