<svg width="16" height="16" viewBox="0 0 16 16" fill="none" xmlns="http://www.w3.org/2000/svg">
<g clip-path="url(#clip0_36251_7960)">
<path d="M11.9997 9.33301C10.527 9.33301 9.33301 10.527 9.33301 11.9997C9.33301 13.4723 10.527 14.6663 11.9997 14.6663C13.4723 14.6663 14.6663 13.4723 14.6663 11.9997C14.6663 10.527 13.4723 9.33301 11.9997 9.33301ZM13.069 11.6797L11.9577 12.791C11.895 12.8537 11.8103 12.8883 11.7217 12.8883C11.633 12.8883 11.5483 12.853 11.4857 12.791L10.9303 12.2357C10.8003 12.1057 10.8003 11.8943 10.9303 11.7643C11.0603 11.6343 11.2717 11.6343 11.4017 11.7643L11.721 12.0843L12.5964 11.209C12.7264 11.079 12.9377 11.079 13.0677 11.209C13.1977 11.339 13.199 11.5497 13.069 11.6797ZM13.133 5.83301H1.53304C1.42237 5.83301 1.33301 5.92237 1.33301 6.03304V11.333C1.33301 12.6663 1.99967 13.333 3.33301 13.333H8.30631C8.44631 13.333 8.533 13.1997 8.493 13.0731C8.373 12.6797 8.31968 12.2663 8.33968 11.8263C8.42368 9.98033 9.98164 8.42301 11.8276 8.33968C12.267 8.31968 12.6796 8.37367 13.0723 8.493C13.1989 8.533 13.3324 8.44631 13.3324 8.30631V6.03304C13.333 5.92237 13.2436 5.83301 13.133 5.83301ZM4.67969 11.333C4.31169 11.333 4.0096 11.0343 4.0096 10.6663C4.0096 10.2983 4.30501 9.99967 4.67301 9.99967H4.67969C5.04835 9.99967 5.34635 10.2983 5.34635 10.6663C5.34635 11.0343 5.04769 11.333 4.67969 11.333ZM4.67969 8.66634C4.31169 8.66634 4.0096 8.36767 4.0096 7.99967C4.0096 7.63167 4.30501 7.33301 4.67301 7.33301H4.67969C5.04835 7.33301 5.34635 7.63167 5.34635 7.99967C5.34635 8.36767 5.04769 8.66634 4.67969 8.66634ZM7.34635 8.66634C6.97835 8.66634 6.67627 8.36767 6.67627 7.99967C6.67627 7.63167 6.97168 7.33301 7.33968 7.33301H7.34635C7.71502 7.33301 8.01302 7.63167 8.01302 7.99967C8.01302 8.36767 7.71435 8.66634 7.34635 8.66634ZM13.333 4.33301V4.63298C13.333 4.74364 13.2436 4.83301 13.133 4.83301H1.53304C1.42237 4.83301 1.33301 4.74364 1.33301 4.63298V4.33301C1.33301 2.99967 1.99967 2.33301 3.33301 2.33301H4.16634V1.33301C4.16634 1.05967 4.39301 0.833008 4.66634 0.833008C4.93967 0.833008 5.16634 1.05967 5.16634 1.33301V2.33301H9.49967V1.33301C9.49967 1.05967 9.72634 0.833008 9.99967 0.833008C10.273 0.833008 10.4997 1.05967 10.4997 1.33301V2.33301H11.333C12.6663 2.33301 13.333 2.99967 13.333 4.33301Z" fill="#3B3B3E"/>
</g>
<defs>
<clipPath id="clip0_36251_7960">
<rect width="16" height="16" fill="white"/>
</clipPath>
</defs>
</svg>
