<svg width="16" height="16" viewBox="0 0 16 16" fill="none" xmlns="http://www.w3.org/2000/svg">
<path d="M14.5 9.07701V11.9997C14.5 13.6117 13.612 14.4997 12 14.4997H4C2.388 14.4997 1.5 13.6117 1.5 11.9997V9.07701C1.5 8.73767 1.56799 8.40702 1.70199 8.09302L3.02132 5.01501C3.35532 4.23568 3.67067 3.49967 5.31934 3.49967C5.59534 3.49967 5.81934 3.72367 5.81934 3.99967C5.81934 4.27567 5.59534 4.49967 5.31934 4.49967C4.33 4.49967 4.23993 4.71035 3.94059 5.40902L2.68734 8.33301H4.63737C5.4107 8.33301 6.13003 8.77234 6.56136 9.50834C6.85869 10.017 7.40998 10.333 8.00065 10.333C8.59132 10.333 9.14261 10.017 9.43994 9.50834C9.87061 8.77234 10.5906 8.33301 11.3639 8.33301H13.3146L12.0607 5.40902C11.7614 4.71035 11.6713 4.49967 10.682 4.49967C10.406 4.49967 10.182 4.27567 10.182 3.99967C10.182 3.72367 10.406 3.49967 10.682 3.49967C12.3313 3.49967 12.646 4.23568 12.98 5.01501L14.2993 8.09235C14.432 8.40635 14.5 8.73767 14.5 9.07701ZM7.64665 7.01967C7.69265 7.06567 7.74807 7.10233 7.80941 7.12767C7.87074 7.153 7.93532 7.16634 8.00065 7.16634C8.06598 7.16634 8.13072 7.153 8.19206 7.12767C8.25339 7.10233 8.30866 7.06567 8.35466 7.01967L9.68799 5.68634C9.88332 5.49101 9.88332 5.17434 9.68799 4.979C9.49266 4.78367 9.17597 4.78367 8.98063 4.979L8.50065 5.459V1.33301C8.50065 1.05701 8.27665 0.833008 8.00065 0.833008C7.72465 0.833008 7.50065 1.05701 7.50065 1.33301V5.459L7.02067 4.979C6.82534 4.78367 6.50865 4.78367 6.31331 4.979C6.11798 5.17434 6.11798 5.49101 6.31331 5.68634L7.64665 7.01967Z" fill="#3B3B3E"/>
</svg>
