<svg width="16" height="16" viewBox="0 0 16 16" fill="none" xmlns="http://www.w3.org/2000/svg">
<path d="M13.9997 8.00033C13.9997 8.22766 13.9864 8.44433 13.9644 8.65633C13.945 8.80966 13.7997 8.86164 13.7157 8.83431C13.2123 8.66898 12.6604 8.62099 12.0871 8.71566C10.5057 8.97632 9.32834 10.4104 9.33301 12.013C9.33434 12.3424 9.38166 12.6583 9.47233 12.959C9.507 13.075 9.44241 13.1976 9.32308 13.2196C8.89708 13.297 8.45302 13.3357 7.99902 13.3357C7.14569 13.3357 6.33896 13.2023 5.60563 12.949C4.7123 13.9023 3.25233 14.029 2.30566 13.9957C2.019 13.989 1.8923 13.6224 2.1123 13.4357C2.83897 12.849 3.19899 12.1157 3.29899 11.475C2.48566 10.595 1.99902 9.41498 1.99902 8.00098C1.99902 4.66698 4.68569 2.66699 7.99902 2.66699C11.3124 2.66699 13.9997 4.66633 13.9997 8.00033ZM13.3737 11.9997L14.3537 11.0197C14.549 10.8244 14.549 10.5077 14.3537 10.3123C14.1583 10.117 13.8417 10.117 13.6463 10.3123L12.6663 11.2923L11.6864 10.3123C11.491 10.117 11.1743 10.117 10.979 10.3123C10.7837 10.5077 10.7837 10.8244 10.979 11.0197L11.959 11.9997L10.979 12.9797C10.7837 13.175 10.7837 13.4917 10.979 13.687C11.0763 13.7843 11.2044 13.8337 11.3324 13.8337C11.4604 13.8337 11.5884 13.785 11.6857 13.687L12.6657 12.707L13.6457 13.687C13.743 13.7843 13.871 13.8337 13.999 13.8337C14.127 13.8337 14.255 13.785 14.3524 13.687C14.5477 13.4917 14.5477 13.175 14.3524 12.9797L13.3737 11.9997Z" fill="#3B3B3E"/>
</svg>
