<svg width="16" height="16" viewBox="0 0 16 16" fill="none" xmlns="http://www.w3.org/2000/svg">
<path d="M5.33366 3.66667V3C5.33366 2.33333 5.66699 2 6.33366 2H9.66699C10.3337 2 10.667 2.33333 10.667 3V3.66667C10.667 4.33333 10.3337 4.66667 9.66699 4.66667H6.33366C5.66699 4.66667 5.33366 4.33333 5.33366 3.66667ZM13.3337 5.33333V12C13.3337 13.3333 12.667 14 11.3337 14H4.66699C3.33366 14 2.66699 13.3333 2.66699 12V5.33333C2.66699 4.172 3.16825 3.518 4.17692 3.37134C4.25759 3.35934 4.33366 3.42599 4.33366 3.50732V3.66602C4.33366 4.87935 5.12033 5.66602 6.33366 5.66602H9.66699C10.8803 5.66602 11.667 4.87935 11.667 3.66602V3.50732C11.667 3.42599 11.7437 3.35934 11.8237 3.37134C12.8324 3.518 13.3337 4.172 13.3337 5.33333ZM10.0203 7.42399C9.82501 7.22866 9.50832 7.22866 9.31299 7.42399L7.44434 9.29268L6.68636 8.53532C6.49103 8.33999 6.17434 8.33999 5.979 8.53532C5.78367 8.73065 5.78367 9.04734 5.979 9.24268L7.09033 10.354C7.18767 10.4513 7.31569 10.5007 7.44369 10.5007C7.57169 10.5007 7.6997 10.452 7.79704 10.354L10.019 8.132C10.2157 7.936 10.2157 7.61932 10.0203 7.42399Z" fill="#3B3B3E"/>
</svg>
