<svg width="16" height="16" viewBox="0 0 16 16" fill="none" xmlns="http://www.w3.org/2000/svg">
<path d="M14.4707 8.47168L11.138 11.8044C11.008 11.9344 10.8373 11.9997 10.6667 11.9997C10.496 11.9997 10.3253 11.9344 10.1953 11.8044C9.93465 11.5437 9.93465 11.1223 10.1953 10.8617L12.3906 8.66634H4.66667C4.298 8.66634 4 8.36767 4 7.99967C4 7.63167 4.298 7.33301 4.66667 7.33301H12.3906L10.1953 5.1377C9.93465 4.87703 9.93465 4.45565 10.1953 4.19499C10.456 3.93432 10.8774 3.93432 11.138 4.19499L14.4707 7.52767C14.5327 7.58967 14.5814 7.66295 14.6154 7.74495C14.6827 7.90762 14.6827 8.09173 14.6154 8.25439C14.5814 8.33639 14.5327 8.40968 14.4707 8.47168ZM2.66667 3.33301C2.298 3.33301 2 3.63167 2 3.99967V11.9997C2 12.3677 2.298 12.6663 2.66667 12.6663C3.03533 12.6663 3.33333 12.3677 3.33333 11.9997V3.99967C3.33333 3.63167 3.03533 3.33301 2.66667 3.33301Z" fill="#3B3B3E"/>
</svg>
