<svg width="16" height="16" viewBox="0 0 16 16" fill="none" xmlns="http://www.w3.org/2000/svg">
<path fill-rule="evenodd" clip-rule="evenodd" d="M13.0463 5.72454L9.07031 2.39048C8.45098 1.87114 7.54764 1.87114 6.9283 2.39048L2.95231 5.72454C2.34831 6.23121 1.99902 6.43584 1.99902 7.76784V12.0005C1.99902 13.3338 2.66569 14.0005 3.99902 14.0005H11.999C13.3324 14.0005 13.999 13.3338 13.999 12.0005V7.76784C13.9997 6.43517 13.651 6.23121 13.0463 5.72454ZM11.0197 8.88714L9.5297 10.3771C9.12704 10.7798 8.47231 10.7799 8.07031 10.3779L7.22298 9.53183L5.68701 11.0199C5.58968 11.1172 5.46166 11.1665 5.33366 11.1665C5.20566 11.1665 5.07764 11.1179 4.98031 11.0199C4.78497 10.8245 4.78497 10.5078 4.98031 10.3125L6.46834 8.82448C6.87168 8.42248 7.52704 8.42183 7.92904 8.82383L8.77637 9.66986L10.3136 8.17987C10.509 7.98453 10.8257 7.98453 11.021 8.17987C11.2163 8.3752 11.215 8.69181 11.0197 8.88714Z" fill="#3B3B3E"/>
</svg>
