<svg width="16" height="16" viewBox="0 0 16 16" fill="none" xmlns="http://www.w3.org/2000/svg">
<path d="M13.9594 5.52683C13.9127 4.56683 13.6927 3.7135 12.9927 3.0135C12.2927 2.3135 11.4394 2.0935 10.4794 2.04684C9.48604 1.9935 6.51936 1.9935 5.5327 2.04684C4.5727 2.0935 3.72604 2.3135 3.01937 3.0135C2.3127 3.7135 2.09936 4.56683 2.0527 5.52683C1.99936 6.52016 1.99936 9.48683 2.0527 10.4802C2.09936 11.4402 2.31937 12.2935 3.01937 12.9935C3.72604 13.6935 4.5727 13.9135 5.5327 13.9602C6.52603 14.0135 9.49271 14.0135 10.4794 13.9602C11.4394 13.9135 12.2927 13.6935 12.9927 12.9935C13.6927 12.2935 13.9127 11.4402 13.9594 10.4802C14.0127 9.48683 14.0127 6.52017 13.9594 5.5335V5.52683ZM7.99937 11.1668C6.2527 11.1668 4.8327 9.74683 4.8327 8.00016C4.8327 6.2535 6.2527 4.8335 7.99937 4.8335C9.74604 4.8335 11.166 6.2535 11.166 8.00016C11.166 9.74683 9.74604 11.1668 7.99937 11.1668ZM11.6794 5.00016C11.3127 5.00016 11.0127 4.70016 11.0127 4.3335C11.0127 3.96683 11.306 3.66683 11.6794 3.66683C12.046 3.66683 12.346 3.96683 12.346 4.3335C12.346 4.70016 12.046 5.00016 11.6794 5.00016ZM10.166 8.00016C10.166 9.1935 9.1927 10.1668 7.99937 10.1668C6.80604 10.1668 5.8327 9.1935 5.8327 8.00016C5.8327 6.80683 6.80604 5.8335 7.99937 5.8335C9.1927 5.8335 10.166 6.80683 10.166 8.00016Z" fill="#3B3B3E"/>
</svg>
