<svg width="16" height="16" viewBox="0 0 16 16" fill="none" xmlns="http://www.w3.org/2000/svg">
<path d="M4.00635 4.33268C4.00635 2.86202 5.20235 1.66602 6.67301 1.66602C8.14368 1.66602 9.33968 2.86202 9.33968 4.33268C9.33968 5.80335 8.14368 6.99935 6.67301 6.99935C5.20235 6.99935 4.00635 5.80335 4.00635 4.33268ZM8.73364 12.546C8.37364 12.206 8.2403 11.6993 8.39364 11.226C8.54697 10.746 8.95369 10.406 9.44702 10.3394L10.2804 10.2193C10.2804 10.2193 10.4137 10.2066 10.4537 10.126L10.7203 9.59269C10.7203 9.59269 10.7537 9.53932 10.747 9.46598C10.7403 9.43932 10.727 9.39938 10.6937 9.36605C10.1137 8.74605 9.24033 8.33268 8.00033 8.33268H5.33366C2.62699 8.33268 1.66699 10.3127 1.66699 12.0127C1.66699 13.5327 2.47366 14.3327 4.00033 14.3327H9.0603C9.16697 14.3327 9.23501 14.2527 9.26701 14.0793L9.40031 13.3127C9.41364 13.246 9.39367 13.1793 9.34033 13.1327L8.73364 12.546ZM14.5783 11.8254C14.755 11.6574 14.6576 11.3634 14.4143 11.3287L13.0863 11.1401C12.9897 11.1261 12.9056 11.0667 12.863 10.9807L12.2877 9.83936C12.171 9.60802 11.8344 9.60802 11.7177 9.83936L11.1423 10.9807C11.099 11.0667 11.0157 11.1261 10.919 11.1401L9.59098 11.3287C9.34765 11.3634 9.25034 11.6574 9.427 11.8254L10.387 12.7414C10.457 12.808 10.489 12.9047 10.4723 12.9993L10.253 14.252C10.2083 14.5067 10.481 14.7014 10.7144 14.5814L11.8656 13.9893C11.9523 13.9447 12.055 13.9447 12.1417 13.9893L13.2936 14.582C13.5263 14.702 13.7983 14.508 13.7543 14.2533L13.5343 12.9993C13.5177 12.9047 13.5496 12.808 13.6196 12.7414L14.5783 11.8254Z" fill="#3B3B3E"/>
</svg>
