<svg width="16" height="16" viewBox="0 0 16 16" fill="none" xmlns="http://www.w3.org/2000/svg">
<path d="M9.84668 6.66667C9.84668 6.94267 9.62335 7.16667 9.34668 7.16667C9.07068 7.16667 8.84326 6.94267 8.84326 6.66667C8.84326 6.39067 9.06401 6.16667 9.34001 6.16667H9.34668C9.62335 6.16667 9.84668 6.39067 9.84668 6.66667ZM14 4.25V11.75C14 13.25 13.25 14 11.75 14H4.25C2.75 14 2 13.25 2 11.75V4.25C2 2.75 2.75 2 4.25 2H11.75C13.25 2 14 2.75 14 4.25ZM11 7C11 5.89667 10.1033 5 9 5C7.89667 5 7 5.89667 7 7C7 7.20333 7.02992 7.39674 7.08659 7.58008L5 9.66667V11H6.33333V10H7.33333L8.41992 8.91341C8.60326 8.97008 8.79667 9 9 9C10.1033 9 11 8.10333 11 7Z" fill="#3B3B3E"/>
</svg>
