<svg width="16" height="16" viewBox="0 0 16 16" fill="none" xmlns="http://www.w3.org/2000/svg">
<path d="M10.6663 2H5.33301C3.99967 2 3.33301 2.66667 3.33301 4V14L7.99967 11.3333L12.6663 14V4C12.6663 2.66667 11.9997 2 10.6663 2ZM10.2891 6.56934C9.98506 8.11134 7.99967 9 7.99967 9C7.99967 9 6.01429 8.112 5.71029 6.56934C5.52362 5.62334 5.93159 4.67133 6.96826 4.66667C7.74026 4.66333 7.99967 5.42863 7.99967 5.42863C7.99967 5.42863 8.25909 4.66333 9.03109 4.66667C10.0698 4.67133 10.4757 5.62334 10.2891 6.56934Z" fill="#3B3B3E"/>
</svg>
