<svg width="16" height="16" viewBox="0 0 16 16" fill="none" xmlns="http://www.w3.org/2000/svg">
<path fill-rule="evenodd" clip-rule="evenodd" d="M8 5.33333C5.60667 5.33333 3.66667 7.27333 3.66667 9.66667C3.66667 12.06 5.60667 14 8 14C10.3933 14 12.3333 12.06 12.3333 9.66667C12.3333 7.27333 10.3933 5.33333 8 5.33333ZM9.93335 9.42668L9.2133 10.1267C9.15996 10.1733 9.13331 10.2467 9.14665 10.32L9.31331 11.28C9.34665 11.4733 9.13997 11.62 8.96663 11.5267L8.10669 11.0733C8.04002 11.04 7.95998 11.04 7.89331 11.0733L7.03337 11.5267C6.86003 11.62 6.65335 11.4733 6.68669 11.2733L6.85335 10.32C6.86669 10.2467 6.84004 10.1733 6.7867 10.1267L6.06665 9.42668C5.93332 9.30001 6.00669 9.07334 6.19336 9.04667L7.18669 8.9C7.26002 8.89334 7.32002 8.84668 7.35335 8.78001L7.7867 7.91333C7.87337 7.73333 8.12663 7.73333 8.2133 7.91333L8.64665 8.78001C8.67998 8.84668 8.73998 8.89334 8.81331 8.9L9.80664 9.04667C9.99331 9.07334 10.0667 9.30001 9.93335 9.42668ZM11.442 5.6C10.8526 5.09666 10.1506 4.72067 9.37931 4.51133C9.24865 4.476 9.18736 4.33 9.25936 4.216L10.6667 2H14L11.7367 5.55933C11.6713 5.66199 11.534 5.67933 11.442 5.6ZM4.26335 5.55933L2 2H5.33333L6.73999 4.216C6.81266 4.33 6.7507 4.476 6.62004 4.51133C5.84937 4.72067 5.14671 5.09733 4.55737 5.6C4.46604 5.67933 4.32868 5.66199 4.26335 5.55933Z" fill="#3B3B3E"/>
</svg>
