<svg width="16" height="16" viewBox="0 0 16 16" fill="none" xmlns="http://www.w3.org/2000/svg">
<path d="M11.3335 8.66367C10.8061 8.66367 10.2905 8.82008 9.85196 9.11309C9.41343 9.40611 9.07161 9.82256 8.86978 10.3098C8.66795 10.7971 8.61519 11.3333 8.71809 11.8506C8.82098 12.3678 9.07496 12.843 9.4479 13.216C9.82084 13.5889 10.2959 13.8429 10.8132 13.9458C11.3305 14.0487 11.8667 13.9958 12.354 13.794C12.8413 13.5922 13.2578 13.2504 13.5508 12.8119C13.8438 12.3733 14.0001 11.8578 14.0001 11.3303C14.0001 10.6231 13.7192 9.94482 13.2191 9.44472C12.719 8.94462 12.0407 8.66367 11.3335 8.66367ZM12.2335 11.7637C12.2651 11.7938 12.2903 11.8299 12.3075 11.8701C12.3247 11.9102 12.3336 11.9534 12.3336 11.997C12.3336 12.0407 12.3247 12.0838 12.3075 12.124C12.2903 12.1641 12.2651 12.2002 12.2335 12.2303C12.2034 12.262 12.1672 12.2871 12.1271 12.3043C12.087 12.3215 12.0438 12.3304 12.0002 12.3304C11.9565 12.3304 11.9133 12.3215 11.8732 12.3043C11.8331 12.2871 11.7969 12.262 11.7668 12.2303L11.3335 11.8037L10.9001 12.2303C10.8701 12.262 10.8339 12.2871 10.7938 12.3043C10.7537 12.3215 10.7105 12.3304 10.6668 12.3304C10.6232 12.3304 10.58 12.3215 10.5399 12.3043C10.4998 12.2871 10.4636 12.262 10.4335 12.2303C10.4019 12.2002 10.3767 12.1641 10.3594 12.124C10.3422 12.0838 10.3334 12.0407 10.3334 11.997C10.3334 11.9534 10.3422 11.9102 10.3594 11.8701C10.3767 11.8299 10.4019 11.7938 10.4335 11.7637L10.8602 11.3303L10.4335 10.897C10.3726 10.8349 10.3387 10.7513 10.3392 10.6644C10.3396 10.5774 10.3744 10.4942 10.4359 10.4327C10.4973 10.3712 10.5805 10.3365 10.6675 10.336C10.7544 10.3356 10.838 10.3695 10.9001 10.4304L11.3335 10.857L11.7668 10.4304C11.8289 10.3695 11.9126 10.3356 11.9995 10.336C12.0864 10.3365 12.1696 10.3712 12.2311 10.4327C12.2926 10.4942 12.3273 10.5774 12.3278 10.6644C12.3282 10.7513 12.2943 10.8349 12.2335 10.897L11.8068 11.3303L12.2335 11.7637ZM7.66682 11.3303C7.66858 10.3584 8.05549 9.42681 8.74274 8.73956C9.43 8.05231 10.3616 7.66543 11.3335 7.66367C12.0744 7.66224 12.798 7.88791 13.4068 8.31032C13.4485 8.33998 13.4977 8.35732 13.5488 8.36033C13.5909 8.3623 13.6325 8.3503 13.6671 8.32619C13.7017 8.30208 13.7274 8.26719 13.7401 8.22699C13.8 8.03659 13.8489 7.84295 13.8868 7.64699C14.3668 5.16699 13.3268 2.68034 10.6535 2.66701C8.6668 2.66034 8.00015 4.66034 8.00015 4.66034C8.00015 4.66034 7.3335 2.66034 5.34683 2.66701C2.68016 2.68034 1.63278 5.16699 2.11278 7.64699C2.89278 11.6803 8.00015 14.0003 8.00015 14.0003C8.00015 14.0003 8.13012 13.9437 8.34878 13.8297C8.37518 13.8181 8.39801 13.7995 8.41478 13.7761C8.43156 13.7526 8.4417 13.7251 8.44416 13.6963C8.44951 13.6694 8.44928 13.6416 8.44343 13.6148C8.43758 13.588 8.42622 13.5626 8.41014 13.5403C7.92617 12.9054 7.66492 12.1287 7.66682 11.3303V11.3303Z" fill="#3B3B3E"/>
</svg>
