<svg width="16" height="16" viewBox="0 0 16 16" fill="none" xmlns="http://www.w3.org/2000/svg">
<path d="M9.83336 7.99967C9.83336 9.01101 9.01136 9.83301 8.00003 9.83301C6.98869 9.83301 6.16669 9.01101 6.16669 7.99967C6.16669 7.76701 6.21464 7.54632 6.29397 7.34098C6.42331 7.44365 6.57935 7.51432 6.75735 7.51432C7.17535 7.51432 7.51468 7.175 7.51468 6.757C7.51468 6.579 7.444 6.42295 7.34134 6.29362C7.54667 6.21429 7.76736 6.16634 8.00003 6.16634C9.01136 6.16634 9.83336 6.98834 9.83336 7.99967ZM13.7281 8.98437C12.9101 10.3537 11.0727 12.6663 8.00003 12.6663C4.92736 12.6663 3.09 10.3537 2.272 8.98437C1.90933 8.37771 1.90933 7.62164 2.272 7.01497C3.09 5.64564 4.92736 3.33301 8.00003 3.33301C11.0727 3.33301 12.9101 5.64564 13.7281 7.01497C14.0907 7.62164 14.0907 8.37771 13.7281 8.98437ZM10.8334 7.99967C10.8334 6.43767 9.56269 5.16634 8.00003 5.16634C6.43736 5.16634 5.16669 6.43767 5.16669 7.99967C5.16669 9.56167 6.43736 10.833 8.00003 10.833C9.56269 10.833 10.8334 9.56167 10.8334 7.99967Z" fill="#3B3B3E"/>
</svg>
