<svg width="16" height="16" viewBox="0 0 16 16" fill="none" xmlns="http://www.w3.org/2000/svg">
<path d="M7.99967 1.33301C4.31967 1.33301 1.33301 4.31967 1.33301 7.99967C1.33301 11.6797 4.31967 14.6663 7.99967 14.6663C11.6797 14.6663 14.6663 11.6797 14.6663 7.99967C14.6663 4.31967 11.6797 1.33301 7.99967 1.33301ZM4.58634 7.44634L4.71968 6.68634C4.72634 6.62634 4.71301 6.57301 4.66634 6.53301L4.09301 5.97968C3.98634 5.87968 4.04634 5.69968 4.193 5.67968L4.98634 5.56634C5.04634 5.55968 5.093 5.51968 5.11967 5.47301L5.45968 4.77967C5.52634 4.63967 5.73301 4.63967 5.79967 4.77967L6.13968 5.47301C6.16635 5.52635 6.21301 5.55968 6.27301 5.56634L7.06634 5.67968C7.21301 5.69968 7.26634 5.87968 7.16634 5.97968L6.59301 6.53301C6.55301 6.57301 6.53301 6.63301 6.53967 6.68634L6.673 7.44634C6.69967 7.59967 6.53968 7.71967 6.39968 7.64634L5.71301 7.28634C5.65968 7.25967 5.59968 7.25967 5.54635 7.28634L4.85967 7.64634C4.71967 7.71967 4.55968 7.59967 4.58634 7.44634V7.44634ZM8.03967 11.9997C6.73967 11.9997 5.65968 11.0997 5.37968 9.88634C5.31968 9.61968 5.59967 9.41301 5.85301 9.51967C7.30634 10.0997 8.75968 10.0997 10.2197 9.51967C10.473 9.41967 10.7597 9.61968 10.693 9.88634C10.413 11.0997 9.33301 11.9997 8.03301 11.9997H8.03967ZM11.9863 5.97301L11.413 6.52634C11.373 6.56634 11.353 6.62634 11.3597 6.67968L11.493 7.43968C11.5197 7.59301 11.3597 7.71301 11.2197 7.63968L10.533 7.27967C10.4797 7.25301 10.4197 7.25301 10.3663 7.27967L9.67968 7.63968C9.53968 7.71301 9.37967 7.59301 9.40634 7.43968L9.53967 6.67968C9.54634 6.61968 9.533 6.56634 9.48634 6.52634L8.913 5.97301C8.80634 5.87301 8.86634 5.693 9.01301 5.673L9.80635 5.55967C9.86635 5.55301 9.91301 5.51301 9.93968 5.46634L10.2797 4.77301C10.3463 4.63301 10.553 4.63301 10.6197 4.77301L10.9597 5.46634C10.9863 5.51967 11.033 5.55301 11.093 5.55967L11.8863 5.673C12.033 5.693 12.0863 5.87301 11.9863 5.97301V5.97301Z" fill="#3B3B3E"/>
</svg>
