<svg width="16" height="16" viewBox="0 0 16 16" fill="none" xmlns="http://www.w3.org/2000/svg">
<path d="M11 5.33333H5C4.33333 5.33333 4 5.66667 4 6.33333V12C4 13.3333 4.66667 14 6 14H10C11.3333 14 12 13.3333 12 12V6.33333C12 5.66667 11.6667 5.33333 11 5.33333ZM9 11.8333H7C6.724 11.8333 6.5 11.6093 6.5 11.3333C6.5 11.0573 6.724 10.8333 7 10.8333H9C9.276 10.8333 9.5 11.0573 9.5 11.3333C9.5 11.6093 9.276 11.8333 9 11.8333ZM10 2H6C5.63333 2 5.33333 2.3 5.33333 2.66667V4.46663C5.33333 4.5773 5.4227 4.66667 5.53337 4.66667H10.4666C10.5773 4.66667 10.6667 4.5773 10.6667 4.46663V2.66667C10.6667 2.3 10.3667 2 10 2ZM7 4.16667C6.724 4.16667 6.5 3.94267 6.5 3.66667C6.5 3.39067 6.724 3.16667 7 3.16667C7.276 3.16667 7.5 3.39067 7.5 3.66667C7.5 3.94267 7.276 4.16667 7 4.16667ZM9 4.16667C8.724 4.16667 8.5 3.94267 8.5 3.66667C8.5 3.39067 8.724 3.16667 9 3.16667C9.276 3.16667 9.5 3.39067 9.5 3.66667C9.5 3.94267 9.276 4.16667 9 4.16667Z" fill="#3B3B3E"/>
</svg>
