<svg width="16" height="16" viewBox="0 0 16 16" fill="none" xmlns="http://www.w3.org/2000/svg">
<path d="M13.3333 9.5H12.6667V6.5H13.3333C13.6093 6.5 13.8333 6.276 13.8333 6C13.8333 5.724 13.6093 5.5 13.3333 5.5H12.6667V4C12.6667 2.66667 12 2 10.6667 2H4C2.66667 2 2 2.66667 2 4V12C2 13.3333 2.66667 14 4 14H10.6667C12 14 12.6667 13.3333 12.6667 12V10.5H13.3333C13.6093 10.5 13.8333 10.276 13.8333 10C13.8333 9.724 13.6093 9.5 13.3333 9.5ZM7.33333 4.33333C8.25267 4.33333 9 5.08133 9 6C9 6.91867 8.25267 7.66667 7.33333 7.66667C6.414 7.66667 5.66667 6.91867 5.66667 6C5.66667 5.08133 6.414 4.33333 7.33333 4.33333ZM10.3333 11.3333C10.3333 11.5173 10.184 11.6667 10 11.6667H4.66667C4.48267 11.6667 4.33333 11.5173 4.33333 11.3333V10.9067C4.33333 9.79332 5.16659 8.66667 6.75993 8.66667H7.90739C9.50072 8.66667 10.334 9.79332 10.334 10.9067V11.3333H10.3333Z" fill="#3B3B3E"/>
</svg>
