<svg width="16" height="16" viewBox="0 0 16 16" fill="none" xmlns="http://www.w3.org/2000/svg">
<path d="M13.3335 4.56396V7.43604C13.3335 8.2567 12.9235 8.66667 12.1028 8.66667H5.47152C5.20619 8.66667 4.95218 8.56136 4.76418 8.37402L2.86152 6.47135C2.60085 6.21135 2.60085 5.78865 2.86152 5.52865L4.76418 3.62598C4.95152 3.43864 5.20619 3.33333 5.47152 3.33333H8.16685V2C8.16685 1.72667 8.39352 1.5 8.66685 1.5C8.94019 1.5 9.16685 1.72667 9.16685 2V3.33333H12.1028C12.9235 3.33333 13.3335 3.7433 13.3335 4.56396ZM10.6669 13.5H9.16685V9.66667H8.16685V13.5H6.66685C6.39085 13.5 6.16685 13.724 6.16685 14C6.16685 14.276 6.39085 14.5 6.66685 14.5H10.6669C10.9429 14.5 11.1669 14.276 11.1669 14C11.1669 13.724 10.9429 13.5 10.6669 13.5Z" fill="#3B3B3E"/>
</svg>
