<svg width="16" height="16" viewBox="0 0 16 16" fill="none" xmlns="http://www.w3.org/2000/svg">
<path d="M12.3534 2.08512L6.53007 4.35188C5.55673 4.73055 4.78606 5.49855 4.4034 6.46988L2.08807 12.3485C1.6994 13.3345 2.68074 14.3065 3.66274 13.9092L9.51806 11.5399C10.4634 11.1572 11.2121 10.4058 11.5907 9.45849L13.9114 3.65852C14.3027 2.67786 13.3367 1.70245 12.3534 2.08512ZM8.00007 8.83316C7.54007 8.83316 7.16673 8.45983 7.16673 7.99983C7.16673 7.53983 7.54007 7.1665 8.00007 7.1665C8.46007 7.1665 8.8334 7.53983 8.8334 7.99983C8.8334 8.45983 8.46007 8.83316 8.00007 8.83316Z" fill="#3B3B3E"/>
</svg>
