<svg width="16" height="16" viewBox="0 0 16 16" fill="none" xmlns="http://www.w3.org/2000/svg">
<path d="M13.9997 14H2.99967C1.97167 14 1.33301 13.3613 1.33301 12.3333V2.66667C1.33301 2.29867 1.63167 2 1.99967 2C2.36767 2 2.66634 2.29867 2.66634 2.66667V12.3333C2.66634 12.6327 2.70034 12.6667 2.99967 12.6667H13.9997C14.3677 12.6667 14.6663 12.9653 14.6663 13.3333C14.6663 13.7013 14.3677 14 13.9997 14ZM5.33301 10.6667V8.66667C5.33301 8.29867 5.03434 8 4.66634 8C4.29834 8 3.99967 8.29867 3.99967 8.66667V10.6667C3.99967 11.0347 4.29834 11.3333 4.66634 11.3333C5.03434 11.3333 5.33301 11.0347 5.33301 10.6667ZM7.33301 11.3333C6.96501 11.3333 6.66634 11.0347 6.66634 10.6667V6C6.66634 5.632 6.96501 5.33333 7.33301 5.33333C7.70101 5.33333 7.99967 5.632 7.99967 6V10.6667C7.99967 11.0347 7.70101 11.3333 7.33301 11.3333ZM9.99967 11.3333C9.63167 11.3333 9.33301 11.0347 9.33301 10.6667V7.33333C9.33301 6.96533 9.63167 6.66667 9.99967 6.66667C10.3677 6.66667 10.6663 6.96533 10.6663 7.33333V10.6667C10.6663 11.0347 10.3677 11.3333 9.99967 11.3333ZM12.6663 11.3333C12.2983 11.3333 11.9997 11.0347 11.9997 10.6667V3.33333C11.9997 2.96533 12.2983 2.66667 12.6663 2.66667C13.0343 2.66667 13.333 2.96533 13.333 3.33333V10.6667C13.333 11.0347 13.0343 11.3333 12.6663 11.3333Z" fill="#3B3B3E"/>
</svg>
