<svg width="16" height="16" viewBox="0 0 16 16" fill="none" xmlns="http://www.w3.org/2000/svg">
<path d="M13.8 6.5H2.20003C2.08937 6.5 2 6.58937 2 6.70003V12C2 13.3333 2.66667 14 4 14H12C13.3333 14 14 13.3333 14 12V6.70003C14 6.58937 13.9106 6.5 13.8 6.5ZM10.6867 12.6867C10.5894 12.784 10.4613 12.8333 10.3333 12.8333C10.2053 12.8333 10.0773 12.7847 9.97998 12.6867L8.94727 11.654C8.5626 11.906 8.10465 12.056 7.61198 12.056C6.26398 12.056 5.16732 10.9593 5.16732 9.61133C5.16732 8.264 6.26398 7.16667 7.61198 7.16667C8.95931 7.16667 10.056 8.26333 10.056 9.61133C10.056 10.1047 9.90662 10.5626 9.65462 10.9473L10.688 11.9806C10.882 12.1753 10.882 12.4914 10.6867 12.6867ZM14 5V5.29997C14 5.41063 13.9106 5.5 13.8 5.5H2.20003C2.08937 5.5 2 5.41063 2 5.29997V5C2 3.66667 2.66667 3 4 3H4.83333V2C4.83333 1.72667 5.06 1.5 5.33333 1.5C5.60667 1.5 5.83333 1.72667 5.83333 2V3H10.1667V2C10.1667 1.72667 10.3933 1.5 10.6667 1.5C10.94 1.5 11.1667 1.72667 11.1667 2V3H12C13.3333 3 14 3.66667 14 5ZM9.05534 9.61133C9.05534 10.408 8.40733 11.056 7.61133 11.056C6.81466 11.056 6.16667 10.408 6.16667 9.61133C6.16667 8.81466 6.81466 8.16667 7.61133 8.16667C8.40733 8.16667 9.05534 8.81466 9.05534 9.61133Z" fill="#3B3B3E"/>
</svg>
