<svg width="16" height="16" viewBox="0 0 16 16" fill="none" xmlns="http://www.w3.org/2000/svg">
<path d="M9.66667 2.33333C9.66667 3.06867 9.06867 3.66667 8.33333 3.66667C7.598 3.66667 7 3.06867 7 2.33333C7 1.598 7.598 1 8.33333 1C9.06867 1 9.66667 1.598 9.66667 2.33333ZM12.3333 3.66667C13.0687 3.66667 13.6667 3.06867 13.6667 2.33333C13.6667 1.598 13.0687 1 12.3333 1C11.598 1 11 1.598 11 2.33333C11 3.06867 11.598 3.66667 12.3333 3.66667ZM4.33333 1C3.598 1 3 1.598 3 2.33333C3 3.06867 3.598 3.66667 4.33333 3.66667C5.06867 3.66667 5.66667 3.06867 5.66667 2.33333C5.66667 1.598 5.06867 1 4.33333 1ZM8.33333 4.77799C7.598 4.77799 7 5.37599 7 6.11133C7 6.84666 7.598 7.44466 8.33333 7.44466C9.06867 7.44466 9.66667 6.84666 9.66667 6.11133C9.66667 5.37599 9.06867 4.77799 8.33333 4.77799ZM12.3333 4.77799C11.598 4.77799 11 5.37599 11 6.11133C11 6.84666 11.598 7.44466 12.3333 7.44466C13.0687 7.44466 13.6667 6.84666 13.6667 6.11133C13.6667 5.37599 13.0687 4.77799 12.3333 4.77799ZM4.33333 4.77799C3.598 4.77799 3 5.37599 3 6.11133C3 6.84666 3.598 7.44466 4.33333 7.44466C5.06867 7.44466 5.66667 6.84666 5.66667 6.11133C5.66667 5.37599 5.06867 4.77799 4.33333 4.77799ZM8.33333 8.55534C7.598 8.55534 7 9.15334 7 9.88867C7 10.624 7.598 11.222 8.33333 11.222C9.06867 11.222 9.66667 10.624 9.66667 9.88867C9.66667 9.15334 9.06867 8.55534 8.33333 8.55534ZM12.3333 8.55534C11.598 8.55534 11 9.15334 11 9.88867C11 10.624 11.598 11.222 12.3333 11.222C13.0687 11.222 13.6667 10.624 13.6667 9.88867C13.6667 9.15334 13.0687 8.55534 12.3333 8.55534ZM4.33333 8.55534C3.598 8.55534 3 9.15334 3 9.88867C3 10.624 3.598 11.222 4.33333 11.222C5.06867 11.222 5.66667 10.624 5.66667 9.88867C5.66667 9.15334 5.06867 8.55534 4.33333 8.55534ZM8.33333 12.3333C7.598 12.3333 7 12.9313 7 13.6667C7 14.402 7.598 15 8.33333 15C9.06867 15 9.66667 14.402 9.66667 13.6667C9.66667 12.9313 9.06867 12.3333 8.33333 12.3333Z" fill="#3B3B3E"/>
</svg>
