<svg width="16" height="16" viewBox="0 0 16 16" fill="none" xmlns="http://www.w3.org/2000/svg">
<path d="M14.1996 10.2538L14.1976 10.2572C13.981 10.5865 13.5822 10.7338 13.2009 10.6385L11.3848 10.1725C10.7361 10.0058 10.3322 9.36048 10.4649 8.70448L10.6309 7.88582C8.94091 7.26182 7.0815 7.26581 5.39084 7.88181L5.5523 8.70715C5.6803 9.36248 5.27419 10.0045 4.62619 10.1678L2.79888 10.6305C2.41754 10.7258 2.02287 10.5745 1.8062 10.2531C0.909535 8.90781 1.32496 6.84248 2.73296 6.04848C3.56496 5.57914 4.44426 5.22914 5.34559 4.99914C7.98492 4.32514 10.821 4.67648 13.2603 6.05714C14.6623 6.85048 15.0929 8.91382 14.1996 10.2538Z" fill="#3B3B3E"/>
</svg>
