<svg width="16" height="16" viewBox="0 0 16 16" fill="none" xmlns="http://www.w3.org/2000/svg">
<path d="M13.333 6.16651C11.4797 6.16651 9.65301 6.60651 8.01967 7.43318C7.33967 7.04651 6.70634 6.59985 6.12634 6.08652C7.93301 4.47318 10.2863 3.67985 12.7663 3.86652C12.7663 3.86652 12.9797 3.88651 13.2997 3.96651C13.8063 4.63318 14.193 5.39318 14.4197 6.21985C14.073 6.18652 13.7197 6.16651 13.333 6.16651V6.16651ZM14.4663 7.22651C14.1197 7.18651 13.7463 7.16651 13.333 7.16651C12.8197 7.16651 12.3063 7.20651 11.8063 7.27985C11.8263 7.53318 11.833 7.77318 11.833 7.99985C11.833 10.4398 10.9397 12.7332 9.33301 14.5332C12.3797 13.9132 14.6663 11.2265 14.6663 7.99985C14.6663 7.74651 14.6463 7.49985 14.6197 7.25318C14.5263 7.23985 14.4663 7.22651 14.4663 7.22651ZM7.94635 11.5798C7.94635 11.5798 7.94635 11.5998 7.94635 11.6132C7.94635 11.6265 7.93302 11.6332 7.92635 11.6465C7.59968 12.6532 7.13968 13.6132 6.54635 14.5065C6.95301 14.5998 7.373 14.6465 7.80634 14.6599C8.03967 14.4465 8.18635 14.2998 8.19301 14.2932C9.89968 12.6132 10.833 10.3865 10.833 7.99985C10.833 7.82651 10.833 7.65318 10.813 7.46651C10.0063 7.65985 9.22635 7.94651 8.48635 8.31984C8.45968 9.43984 8.27968 10.5332 7.94635 11.5865V11.5798ZM2.25968 5.39318C3.03968 7.79318 4.84634 9.74652 7.13967 10.7532C7.34634 9.95318 7.46635 9.12651 7.48635 8.27985C5.57301 7.19318 4.00634 5.60652 2.93968 3.65985C2.61301 4.03985 2.32635 4.45318 2.09302 4.89985C2.15302 5.09318 2.20634 5.26652 2.25301 5.38652L2.25968 5.39318ZM5.63302 14.0798C6.13968 13.3465 6.53301 12.5465 6.83968 11.7132C4.43968 10.6932 2.51967 8.73318 1.553 6.32652C1.413 6.85985 1.33301 7.41985 1.33301 7.99985C1.33301 10.8132 3.07967 13.2132 5.53967 14.1932C5.59967 14.1265 5.63967 14.0798 5.63967 14.0798H5.63302ZM3.74634 3.05985C4.19967 3.91318 4.75966 4.68652 5.40633 5.38652C7.21966 3.74652 9.533 2.83984 11.993 2.83984C12.0663 2.83984 12.1397 2.84652 12.213 2.84652C11.0663 1.90652 9.593 1.33984 7.993 1.33984C6.393 1.33984 4.84633 1.93985 3.67967 2.92651C3.69967 2.97318 3.71966 3.01985 3.73966 3.05985H3.74634Z" fill="#3B3B3E"/>
</svg>
