<svg width="16" height="16" viewBox="0 0 16 16" fill="none" xmlns="http://www.w3.org/2000/svg">
<path d="M11.333 2.66699H3.33301C1.99967 2.66699 1.33301 3.33366 1.33301 4.66699V10.667C1.33301 12.0003 1.99967 12.667 3.33301 12.667C3.33301 12.667 7.95899 12.667 8.13232 12.667C8.30566 12.667 8.33366 12.5023 8.33366 12.477C8.33366 12.2257 8.44965 11.9897 8.62565 11.8137L12.2856 8.13366C12.523 7.89632 12.827 7.74033 13.1536 7.69033C13.2543 7.67499 13.3324 7.59633 13.3324 7.49499V4.66699C13.333 3.33366 12.6663 2.66699 11.333 2.66699ZM11.2936 5.73766L8.01904 8.11899C7.81371 8.26832 7.57301 8.343 7.33301 8.343C7.09301 8.343 6.85164 8.26833 6.64697 8.11966L3.3724 5.73766C3.14906 5.57566 3.0997 5.26232 3.26237 5.03899C3.42437 4.81699 3.7356 4.76566 3.96094 4.929L7.23568 7.31032C7.29434 7.35232 7.37232 7.35299 7.43099 7.31032L10.7057 4.929C10.9304 4.76566 11.2423 4.81632 11.4043 5.03899C11.567 5.26299 11.517 5.57566 11.2936 5.73766ZM11.985 9.85366L13.4784 11.347L10.8117 14.0003H9.33171V12.5203L11.985 9.85366ZM14.4917 9.50033L13.8317 8.84032C13.5984 8.60699 13.225 8.60699 12.9917 8.84032L12.4517 9.38699L13.945 10.8803L14.4917 10.3403C14.7244 10.107 14.7244 9.73366 14.4917 9.50033Z" fill="#3B3B3E"/>
</svg>
