<svg width="16" height="16" viewBox="0 0 16 16" fill="none" xmlns="http://www.w3.org/2000/svg">
<path d="M9.83301 4V2.5L12.833 5.5H11.333C10.2797 5.5 9.83301 5.05333 9.83301 4ZM13.333 6.5V12C13.333 13.3333 12.6663 14 11.333 14H5.33301C3.99967 14 3.33301 13.3333 3.33301 12V4C3.33301 2.66667 3.99967 2 5.33301 2H8.83301V4C8.83301 5.61333 9.71967 6.5 11.333 6.5H13.333ZM9.01969 9.64667C8.82436 9.45133 8.50767 9.45133 8.31234 9.64667L7.83236 10.1267V8C7.83236 7.724 7.60836 7.5 7.33236 7.5C7.05636 7.5 6.83236 7.724 6.83236 8V10.126L6.35238 9.646C6.15704 9.45066 5.84035 9.45066 5.64502 9.646C5.44969 9.84133 5.44969 10.158 5.64502 10.3533L6.97835 11.6867C7.02435 11.7327 7.07962 11.7693 7.14095 11.7947C7.20228 11.82 7.26702 11.8333 7.33236 11.8333C7.39769 11.8333 7.46227 11.82 7.5236 11.7947C7.58493 11.7693 7.64036 11.7327 7.68636 11.6867L9.01969 10.3533C9.21503 10.1587 9.21503 9.84133 9.01969 9.64667Z" fill="#3B3B3E"/>
</svg>
