<svg width="16" height="16" viewBox="0 0 16 16" fill="none" xmlns="http://www.w3.org/2000/svg">
<path d="M12.3737 5.04102L9.6263 2.29362C9.43897 2.10629 9.18428 2.00098 8.91894 2.00098H5.33301C3.99967 2.00098 3.33301 2.66764 3.33301 4.00098V12.001C3.33301 13.3343 3.99967 14.001 5.33301 14.001H10.6663C11.9997 14.001 12.6663 13.3343 12.6663 12.001V5.74837C12.6663 5.48237 12.561 5.22835 12.3737 5.04102ZM8.49967 10.667C8.49967 10.943 8.27567 11.167 7.99967 11.167C7.72367 11.167 7.49967 10.943 7.49967 10.667V7.85303L7.34831 8.00033C7.15097 8.19433 6.83428 8.18903 6.64095 7.9917C6.44828 7.7937 6.45239 7.47768 6.65039 7.28434L7.65039 6.30892C7.79439 6.16759 8.00903 6.12705 8.19303 6.20638C8.37837 6.28438 8.49902 6.46566 8.49902 6.66699V10.667H8.49967Z" fill="#3B3B3E"/>
</svg>
