<svg width="16" height="16" viewBox="0 0 16 16" fill="none" xmlns="http://www.w3.org/2000/svg">
<path d="M12.5537 4.54736L8.88699 2.25402C8.34033 1.91402 7.66032 1.91402 7.11366 2.25402L3.44699 4.54736C2.96032 4.84736 2.66699 5.38736 2.66699 5.96069V10.0407C2.66699 10.614 2.96032 11.154 3.44699 11.454L7.11366 13.7474C7.66032 14.0874 8.34033 14.0874 8.88699 13.7474L12.5537 11.454C13.0403 11.154 13.3337 10.614 13.3337 10.0407V5.96069C13.3337 5.38736 13.0403 4.84736 12.5537 4.54736ZM8.00033 10.0007C6.89366 10.0007 6.00033 9.10735 6.00033 8.00069C6.00033 6.89402 6.89366 6.00069 8.00033 6.00069C9.10699 6.00069 10.0003 6.89402 10.0003 8.00069C10.0003 9.10735 9.10699 10.0007 8.00033 10.0007Z" fill="#3B3B3E"/>
</svg>
