<svg width="16" height="16" viewBox="0 0 16 16" fill="none" xmlns="http://www.w3.org/2000/svg">
<path d="M10.3337 2.66699H12.3337C13.0003 2.66699 13.3337 3.00033 13.3337 3.66699V12.3337C13.3337 13.0003 13.0003 13.3337 12.3337 13.3337H10.3337C9.66699 13.3337 9.33366 13.0003 9.33366 12.3337V3.66699C9.33366 3.00033 9.66699 2.66699 10.3337 2.66699ZM2.66699 10.3337V12.3337C2.66699 13.0003 3.00033 13.3337 3.66699 13.3337H5.66699C6.33366 13.3337 6.66699 13.0003 6.66699 12.3337V10.3337C6.66699 9.66699 6.33366 9.33366 5.66699 9.33366H3.66699C3.00033 9.33366 2.66699 9.66699 2.66699 10.3337ZM2.66699 3.66699V5.66699C2.66699 6.33366 3.00033 6.66699 3.66699 6.66699H5.66699C6.33366 6.66699 6.66699 6.33366 6.66699 5.66699V3.66699C6.66699 3.00033 6.33366 2.66699 5.66699 2.66699H3.66699C3.00033 2.66699 2.66699 3.00033 2.66699 3.66699Z" fill="#3B3B3E"/>
</svg>
