<svg width="16" height="16" viewBox="0 0 16 16" fill="none" xmlns="http://www.w3.org/2000/svg">
<path d="M11.1385 10.8619C11.3992 11.1225 11.3992 11.5439 11.1385 11.8046L8.47252 14.4706C8.41052 14.5326 8.33723 14.5813 8.25523 14.6153C8.1739 14.6493 8.08718 14.6665 8.00051 14.6665C7.91385 14.6665 7.82713 14.6486 7.74579 14.6153C7.66379 14.5813 7.59051 14.5326 7.52851 14.4706L4.86249 11.8046C4.60183 11.5439 4.60183 11.1225 4.86249 10.8619C5.12316 10.6012 5.54453 10.6012 5.8052 10.8619L7.33385 12.3905V3.60926L5.8052 5.1379C5.54453 5.39857 5.12316 5.39857 4.86249 5.1379C4.60183 4.87724 4.60183 4.45586 4.86249 4.19519L7.52851 1.52918C7.59051 1.46718 7.66379 1.41848 7.74579 1.38448C7.90846 1.31715 8.09257 1.31715 8.25523 1.38448C8.33723 1.41848 8.41052 1.46718 8.47252 1.52918L11.1385 4.19519C11.3992 4.45586 11.3992 4.87724 11.1385 5.1379C11.0085 5.2679 10.8378 5.33321 10.6672 5.33321C10.4965 5.33321 10.3258 5.2679 10.1958 5.1379L8.66718 3.60926V12.3905L10.1958 10.8619C10.4565 10.6012 10.8779 10.6012 11.1385 10.8619Z" fill="#3B3B3E"/>
</svg>
