<svg width="16" height="16" viewBox="0 0 16 16" fill="none" xmlns="http://www.w3.org/2000/svg">
<path d="M13.1663 14C13.1663 14.276 12.9423 14.5 12.6663 14.5H3.99967C3.72367 14.5 3.49967 14.276 3.49967 14C3.49967 13.724 3.72367 13.5 3.99967 13.5H7.83301V13.1553C6.39567 13.1013 5.07101 12.3567 4.27368 11.1667H3.33301C3.05701 11.1667 2.83301 10.9427 2.83301 10.6667C2.83301 10.3907 3.05701 10.1667 3.33301 10.1667H6.66634C6.94234 10.1667 7.16634 10.3907 7.16634 10.6667C7.16634 10.9427 6.94234 11.1667 6.66634 11.1667H5.55631C6.20098 11.7967 7.07567 12.1667 7.99967 12.1667C9.92967 12.1667 11.4997 10.5967 11.4997 8.66668C11.4997 7.61735 11.0377 6.64538 10.2323 5.97804L8.43905 7.77134C8.17705 8.034 7.90434 8.16668 7.62834 8.16668C7.35234 8.16668 7.07964 8.03334 6.81698 7.77134L6.07365 7.02801C5.54298 6.49734 5.54298 5.93594 6.07365 5.40594L9.25098 2.22869C9.69231 1.78803 10.1536 1.71876 10.6016 2.01076C10.6183 1.91209 10.6557 1.81527 10.7323 1.73927C10.9277 1.54394 11.2444 1.54394 11.4397 1.73927L12.1064 2.40594C12.3017 2.60127 12.3017 2.91796 12.1064 3.1133C12.0297 3.18996 11.933 3.22733 11.8343 3.24399C11.949 3.42133 12.013 3.60138 12.013 3.78338C12.013 4.05938 11.8797 4.33209 11.617 4.59409L10.941 5.27004C11.931 6.12604 12.5003 7.34802 12.5003 8.66668C12.5003 10.8633 10.9177 12.694 8.83366 13.086V13.5H12.667C12.9423 13.5 13.1663 13.724 13.1663 14ZM5.6757 8.60467C5.95837 8.88734 6.23164 8.88734 6.51497 8.60467C6.51497 8.60467 6.54767 8.57198 6.59033 8.52931C6.63767 8.48198 6.62369 8.42065 6.58569 8.38332L5.4637 7.26141C5.4257 7.22341 5.36504 7.20936 5.31771 7.25669C5.27504 7.29936 5.24235 7.33205 5.24235 7.33205C4.95968 7.61471 4.95968 7.88807 5.24235 8.1714L5.6757 8.60467Z" fill="#3B3B3E"/>
</svg>
