<svg width="16" height="16" viewBox="0 0 16 16" fill="none" xmlns="http://www.w3.org/2000/svg">
<g clip-path="url(#clip0_36251_7964)">
<path d="M8.34033 11.8263C8.42433 9.98033 9.98229 8.42301 11.8283 8.33968C12.2676 8.31968 12.6803 8.37367 13.0729 8.493C13.1996 8.533 13.333 8.44631 13.333 8.30631V6.03304C13.333 5.92237 13.2436 5.83301 13.133 5.83301H1.53304C1.42237 5.83301 1.33301 5.92237 1.33301 6.03304V11.333C1.33301 12.6663 1.99967 13.333 3.33301 13.333H8.30632C8.44632 13.333 8.533 13.1997 8.493 13.0731C8.37367 12.6797 8.32033 12.2663 8.34033 11.8263ZM4.68034 11.333C4.31234 11.333 4.01025 11.0343 4.01025 10.6663C4.01025 10.2983 4.30567 9.99967 4.67367 9.99967H4.68034C5.04901 9.99967 5.34701 10.2983 5.34701 10.6663C5.34701 11.0343 5.04834 11.333 4.68034 11.333ZM4.68034 8.66634C4.31234 8.66634 4.01025 8.36767 4.01025 7.99967C4.01025 7.63167 4.30567 7.33301 4.67367 7.33301H4.68034C5.04901 7.33301 5.34701 7.63167 5.34701 7.99967C5.34701 8.36767 5.04834 8.66634 4.68034 8.66634ZM7.34701 8.66634C6.97901 8.66634 6.67692 8.36767 6.67692 7.99967C6.67692 7.63167 6.97233 7.33301 7.34033 7.33301H7.34701C7.71567 7.33301 8.01367 7.63167 8.01367 7.99967C8.01367 8.36767 7.71501 8.66634 7.34701 8.66634ZM1.33366 4.63298V4.33301C1.33366 2.99967 2.00033 2.33301 3.33366 2.33301H4.16699V1.33301C4.16699 1.05967 4.39366 0.833008 4.66699 0.833008C4.94033 0.833008 5.16699 1.05967 5.16699 1.33301V2.33301H9.50033V1.33301C9.50033 1.05967 9.72699 0.833008 10.0003 0.833008C10.2737 0.833008 10.5003 1.05967 10.5003 1.33301V2.33301H11.3337C12.667 2.33301 13.3337 2.99967 13.3337 4.33301V4.63298C13.3337 4.74364 13.2443 4.83301 13.1336 4.83301H1.53369C1.42302 4.83301 1.33366 4.74364 1.33366 4.63298ZM12.0003 9.33301C10.5277 9.33301 9.33366 10.527 9.33366 11.9997C9.33366 13.4723 10.5277 14.6663 12.0003 14.6663C13.473 14.6663 14.667 13.4723 14.667 11.9997C14.667 10.527 13.473 9.33301 12.0003 9.33301ZM12.9504 12.9491C12.885 13.0144 12.7997 13.0464 12.7144 13.0464C12.629 13.0464 12.5437 13.0137 12.4784 12.9491L11.7643 12.235C11.7017 12.1724 11.667 12.0877 11.667 11.999V10.999C11.667 10.815 11.8163 10.6657 12.0003 10.6657C12.1843 10.6657 12.3337 10.815 12.3337 10.999V11.861L12.9504 12.4771C13.0804 12.6084 13.0804 12.8191 12.9504 12.9491Z" fill="#3B3B3E"/>
</g>
<defs>
<clipPath id="clip0_36251_7964">
<rect width="16" height="16" fill="white"/>
</clipPath>
</defs>
</svg>
