<svg width="16" height="16" viewBox="0 0 16 16" fill="none" xmlns="http://www.w3.org/2000/svg">
<path d="M14.4712 2.47122L10.9426 5.99986H13.3332C13.7019 5.99986 13.9999 6.29853 13.9999 6.66653C13.9999 7.03453 13.7019 7.3332 13.3332 7.3332H9.3332C9.24653 7.3332 9.15981 7.31526 9.07848 7.28193C8.91514 7.21459 8.7858 7.08458 8.7178 6.92125C8.6838 6.83992 8.66653 6.7532 8.66653 6.66653V2.66653C8.66653 2.29853 8.96453 1.99986 9.3332 1.99986C9.70186 1.99986 9.99986 2.29853 9.99986 2.66653V5.05715L13.5285 1.52851C13.7892 1.26784 14.2105 1.26784 14.4712 1.52851C14.7319 1.78917 14.7319 2.21055 14.4712 2.47122ZM6.92125 8.7178C6.83992 8.6838 6.7532 8.66653 6.66653 8.66653H2.66653C2.29786 8.66653 1.99986 8.96519 1.99986 9.33319C1.99986 9.70119 2.29786 9.99986 2.66653 9.99986H5.05715L1.52851 13.5285C1.26784 13.7892 1.26784 14.2105 1.52851 14.4712C1.65851 14.6012 1.8292 14.6665 1.99986 14.6665C2.17053 14.6665 2.34122 14.6012 2.47122 14.4712L5.99986 10.9426V13.3332C5.99986 13.7012 6.29786 13.9999 6.66653 13.9999C7.0352 13.9999 7.3332 13.7012 7.3332 13.3332V9.33319C7.3332 9.24653 7.31593 9.15981 7.28193 9.07847C7.21459 8.91514 7.08458 8.78513 6.92125 8.7178Z" fill="#3B3B3E"/>
</svg>
