<svg width="16" height="16" viewBox="0 0 16 16" fill="none" xmlns="http://www.w3.org/2000/svg">
<path fill-rule="evenodd" clip-rule="evenodd" d="M3.68654 2.35288L2.35321 3.68621C2.25587 3.78355 2.12785 3.83286 1.99985 3.83286C1.87185 3.83286 1.74383 3.78421 1.6465 3.68621C1.45117 3.49088 1.45117 3.17419 1.6465 2.97886L2.97983 1.64552C3.17517 1.45019 3.49186 1.45019 3.68719 1.64552C3.88252 1.84086 3.88187 2.15755 3.68654 2.35288ZM14.3498 2.97552L13.0165 1.66888C12.8191 1.47555 12.5031 1.47887 12.3084 1.6762C12.1158 1.87354 12.1193 2.19023 12.3159 2.38356L13.6493 3.6902C13.7466 3.78553 13.8732 3.83286 13.9992 3.83286C14.1285 3.83286 14.2585 3.78288 14.3565 3.68288C14.5498 3.48554 14.5465 3.16885 14.3498 2.97552ZM11.0679 12.3576L12.3539 13.6468C12.5485 13.8422 12.5486 14.1588 12.3526 14.3542C12.2552 14.4515 12.1272 14.5002 11.9999 14.5002C11.8719 14.5002 11.7432 14.4509 11.6458 14.3529L10.1665 12.8701C9.50385 13.1655 8.77185 13.3329 7.99985 13.3329C7.22785 13.3329 6.49585 13.1655 5.83319 12.8701L4.35386 14.3529C4.25652 14.4502 4.12785 14.4995 3.99985 14.4995C3.87252 14.4995 3.74448 14.4509 3.64715 14.3535C3.45115 14.1589 3.45118 13.8415 3.64585 13.6462L4.93182 12.3568C3.56315 11.3915 2.66717 9.80154 2.66717 7.99888C2.66717 5.05354 5.05517 2.66554 8.0005 2.66554C10.9458 2.66554 13.3338 5.05354 13.3338 7.99888C13.3332 9.80154 12.4366 11.3923 11.0679 12.3576ZM9.66652 8.49953C9.94252 8.49953 10.1665 8.27553 10.1665 7.99953C10.1665 7.72353 9.94252 7.49953 9.66652 7.49953H6.33319C6.05719 7.49953 5.83319 7.72353 5.83319 7.99953C5.83319 8.27553 6.05719 8.49953 6.33319 8.49953H9.66652Z" fill="#3B3B3E"/>
</svg>
