<svg width="16" height="16" viewBox="0 0 16 16" fill="none" xmlns="http://www.w3.org/2000/svg">
<path d="M11.75 2H4.25C2.75 2 2 2.75 2 4.25V11.75C2 13.25 2.75 14 4.25 14H11.75C13.25 14 14 13.25 14 11.75V4.25C14 2.75 13.25 2 11.75 2ZM11.8333 8.38395C11.8333 8.65995 11.6093 8.88395 11.3333 8.88395C11.0573 8.88395 10.8333 8.65995 10.8333 8.38395V7.67074L9.32133 9.18262C8.91533 9.58862 8.206 9.58928 7.79934 9.18262L6.81667 8.20003C6.79134 8.1747 6.73399 8.1747 6.70866 8.20003L5.01933 9.88932C4.92199 9.98666 4.794 10.036 4.666 10.036C4.538 10.036 4.41 9.98732 4.31266 9.88932C4.11733 9.69399 4.11733 9.3773 4.31266 9.18197L6.00199 7.49268C6.42066 7.07334 7.10401 7.07268 7.52401 7.49268L8.50667 8.47526C8.53667 8.50459 8.58466 8.50526 8.61466 8.47526L10.1267 6.96338H9.41333C9.13733 6.96338 8.91333 6.73938 8.91333 6.46338C8.91333 6.18738 9.13733 5.96338 9.41333 5.96338H11.3333C11.3987 5.96338 11.4633 5.97662 11.5247 6.00195C11.6467 6.05262 11.744 6.14996 11.7947 6.27262C11.82 6.33396 11.8333 6.3987 11.8333 6.46403V8.38395V8.38395Z" fill="#3B3B3E"/>
</svg>
