<svg width="16" height="16" viewBox="0 0 16 16" fill="none" xmlns="http://www.w3.org/2000/svg">
<path d="M8.68001 7C8.68001 7.368 8.38201 7.66667 8.01335 7.66667C7.64535 7.66667 7.34326 7.368 7.34326 7C7.34326 6.632 7.63867 6.33333 8.00667 6.33333H8.01335C8.38135 6.33333 8.68001 6.632 8.68001 7ZM14 4V10C14 11.3333 13.3333 12 12 12H4L2 14V4C2 2.66667 2.66667 2 4 2H12C13.3333 2 14 2.66667 14 4ZM10.1206 7.0013C10.1206 6.6833 10.2946 6.38866 10.5786 6.22933L10.6667 6.17936L10.0553 5.15397L9.96794 5.20337C9.68327 5.3627 9.33267 5.36265 9.04867 5.20199C8.766 5.04265 8.59196 4.75003 8.59196 4.4327C8.59196 4.37737 8.54592 4.33268 8.48926 4.33268H7.47266C7.41599 4.33268 7.36995 4.37737 7.36995 4.4327C7.36995 4.74937 7.19606 5.04265 6.91406 5.20199C6.63006 5.36199 6.2793 5.3627 5.99463 5.20337C5.94663 5.17604 5.88461 5.19201 5.85661 5.23934L5.34668 6.0953C5.31868 6.14196 5.3353 6.202 5.3833 6.22933L5.3846 6.22998C5.66727 6.38931 5.84129 6.6813 5.84196 6.99797C5.84263 7.31663 5.6686 7.61132 5.3846 7.77132L5.3833 7.77197C5.33463 7.79931 5.31868 7.85932 5.34668 7.90666L5.85596 8.76131C5.88396 8.80865 5.94596 8.8247 5.99463 8.79736C6.2793 8.63803 6.62941 8.63867 6.91341 8.79867C7.19608 8.958 7.3693 9.25137 7.3693 9.56803C7.3693 9.62337 7.41534 9.66732 7.47201 9.66732H8.49007C8.54674 9.66732 8.59261 9.6227 8.59261 9.56803C8.59261 9.25137 8.76665 8.958 9.04932 8.79867C9.33332 8.63867 9.68392 8.63801 9.96859 8.79801C10.0173 8.82535 10.0786 8.8093 10.1066 8.76196L10.6167 7.90601C10.6447 7.85934 10.6281 7.79931 10.5801 7.77197L10.5793 7.77132C10.2953 7.61132 10.1213 7.31864 10.1206 7.0013Z" fill="#3B3B3E"/>
</svg>
