<svg width="16" height="16" viewBox="0 0 16 16" fill="none" xmlns="http://www.w3.org/2000/svg">
<path d="M11.9997 8.66602C10.5263 8.66602 9.33301 9.85935 9.33301 11.3327C9.33301 12.806 10.5263 13.9993 11.9997 13.9993C13.473 13.9993 14.6663 12.806 14.6663 11.3327C14.6663 9.85935 13.473 8.66602 11.9997 8.66602ZM12.9463 12.2793C12.8863 12.346 12.7997 12.3794 12.713 12.3794C12.6263 12.3794 12.5397 12.346 12.4797 12.2793L11.7663 11.566C11.6997 11.506 11.6663 11.4193 11.6663 11.3327V10.3327C11.6663 10.146 11.813 9.99935 11.9997 9.99935C12.1863 9.99935 12.333 10.146 12.333 10.3327V11.1927L12.9463 11.8127C13.0797 11.9393 13.0797 12.1527 12.9463 12.2793ZM11.333 2.66602H3.33301C1.99967 2.66602 1.33301 3.33268 1.33301 4.66602V9.99935C1.33301 11.3327 1.99967 11.9993 3.33301 11.9993H8.15301C8.26635 11.9993 8.35968 11.906 8.35968 11.7927C8.33968 11.6394 8.33301 11.486 8.33301 11.3327C8.33301 9.31268 9.97967 7.66602 11.9997 7.66602C12.373 7.66602 12.733 7.71934 13.0663 7.82601C13.1997 7.86601 13.333 7.7727 13.333 7.63936V4.66602C13.333 3.33268 12.6663 2.66602 11.333 2.66602ZM3.33301 7.99935C2.96634 7.99935 2.66634 7.69935 2.66634 7.33268C2.66634 6.96602 2.96634 6.66602 3.33301 6.66602C3.69967 6.66602 3.99967 6.96602 3.99967 7.33268C3.99967 7.69935 3.69967 7.99935 3.33301 7.99935ZM7.33301 9.33268C6.22634 9.33268 5.33301 8.43935 5.33301 7.33268C5.33301 6.22602 6.22634 5.33268 7.33301 5.33268C8.43967 5.33268 9.33301 6.22602 9.33301 7.33268C9.33301 8.43935 8.43967 9.33268 7.33301 9.33268Z" fill="#3B3B3E"/>
</svg>
