<svg width="16" height="16" viewBox="0 0 16 16" fill="none" xmlns="http://www.w3.org/2000/svg">
<path d="M9.49965 12.6668C9.49965 10.9201 10.9197 9.50014 12.6663 9.50014H14.493C14.6063 9.1268 14.6663 8.74014 14.6663 8.34014V8.00014C14.6663 4.25347 11.5797 1.23347 7.81299 1.33347C4.33299 1.4268 1.43298 4.3268 1.33965 7.8068C1.23298 11.5735 4.25965 14.6601 8.00632 14.6601H8.34632C8.73966 14.6601 9.13298 14.6001 9.50632 14.4868V12.6601L9.49965 12.6668ZM10.0063 5.83347C10.4663 5.83347 10.8396 6.2068 10.8396 6.6668C10.8396 7.1268 10.4663 7.50014 10.0063 7.50014C9.54632 7.50014 9.17298 7.1268 9.17298 6.6668C9.17298 6.2068 9.53965 5.83347 10.0063 5.83347ZM5.17298 6.6668C5.17298 6.2068 5.53965 5.83347 6.00632 5.83347C6.46632 5.83347 6.83965 6.2068 6.83965 6.6668C6.83965 7.1268 6.46632 7.50014 6.00632 7.50014C5.54632 7.50014 5.17298 7.1268 5.17298 6.6668ZM7.99299 10.5001C7.45966 10.5001 6.93965 10.3801 6.45298 10.1468C6.20632 10.0268 6.09965 9.7268 6.21965 9.48014C6.33965 9.23347 6.63965 9.1268 6.88632 9.2468C7.59965 9.5868 8.43299 9.58013 9.11299 9.2468C9.35965 9.1268 9.65965 9.2268 9.77965 9.47346C9.89965 9.72013 9.79965 10.0201 9.55299 10.1468C9.06632 10.3868 8.54632 10.5068 7.99299 10.5068V10.5001ZM14.033 10.5001C13.8797 10.7401 13.6997 10.9668 13.493 11.1735L11.1663 13.5001C10.9597 13.7068 10.733 13.8801 10.493 14.0401V12.6735C10.493 11.4801 11.4663 10.5068 12.6597 10.5068H14.0263L14.033 10.5001Z" fill="#3B3B3E"/>
</svg>
