<svg width="16" height="16" viewBox="0 0 16 16" fill="none" xmlns="http://www.w3.org/2000/svg">
<path d="M12 4.66699H10.6667L10.228 3.35091C10.092 2.94224 9.70996 2.66699 9.2793 2.66699H6.7207C6.29004 2.66699 5.90797 2.94224 5.77197 3.35091L5.33333 4.66699H4C2.66667 4.66699 2 5.33366 2 6.66699V12.0003C2 13.3337 2.66667 14.0003 4 14.0003H12C13.3333 14.0003 14 13.3337 14 12.0003V6.66699C14 5.33366 13.3333 4.66699 12 4.66699ZM10.5413 10.5404C10.0927 11.5284 9.09266 12.167 7.99333 12.167C7.38199 12.167 6.80199 11.9604 6.32666 11.609V11.6517C6.32666 11.9277 6.10266 12.1517 5.82666 12.1517C5.55066 12.1517 5.32666 11.9277 5.32666 11.6517V10.1864C5.32666 10.1824 5.3286 10.1783 5.32926 10.1743C5.32993 10.1363 5.34207 10.1009 5.3514 10.0649C5.35807 10.0376 5.35992 10.0097 5.37126 9.98437C5.38459 9.95504 5.40598 9.93095 5.42464 9.90495C5.44264 9.87895 5.45731 9.85029 5.47998 9.82829C5.49998 9.80895 5.52663 9.79692 5.54997 9.78092C5.58063 9.76026 5.60873 9.73697 5.64339 9.72363C5.64739 9.7223 5.64997 9.71829 5.65397 9.71696C5.68197 9.70696 5.70929 9.7096 5.73796 9.70426C5.76729 9.69893 5.79468 9.68636 5.82601 9.68636H7.28727C7.56327 9.68636 7.78727 9.91036 7.78727 10.1864C7.78727 10.4624 7.56327 10.6864 7.28727 10.6864H6.77067C7.09934 10.987 7.53268 11.1663 7.99268 11.1663C8.70068 11.1663 9.34336 10.7583 9.6307 10.1263C9.7447 9.87497 10.0433 9.76494 10.292 9.8776C10.5447 9.99227 10.656 10.289 10.5413 10.5404ZM10.66 8.48031C10.66 8.48364 10.658 8.48706 10.658 8.4904C10.6574 8.52906 10.6447 8.56424 10.6361 8.60091C10.6294 8.62758 10.628 8.65632 10.6174 8.68099C10.6047 8.70966 10.5826 8.73295 10.5646 8.75895C10.5466 8.78562 10.5326 8.81425 10.5093 8.83691C10.4899 8.85625 10.4641 8.86697 10.4414 8.88297C10.4107 8.90497 10.3814 8.92903 10.346 8.94303C10.3427 8.94437 10.3407 8.94707 10.3381 8.9484C10.2794 8.9704 10.2193 8.98031 10.1606 8.98031H8.69938C8.42338 8.98031 8.19938 8.75631 8.19938 8.48031C8.19938 8.20431 8.42338 7.98031 8.69938 7.98031H9.21663C8.8833 7.67497 8.45196 7.50033 7.99463 7.50033C7.2913 7.50033 6.64799 7.90962 6.35466 8.54362C6.23866 8.79429 5.94326 8.90426 5.69059 8.7876C5.43993 8.6716 5.33127 8.37436 5.44727 8.1237C5.90393 7.1377 6.90396 6.50033 7.99463 6.50033C8.60596 6.50033 9.18596 6.70568 9.6613 7.05501V7.01562C9.6613 6.73962 9.8853 6.51562 10.1613 6.51562C10.4373 6.51562 10.6613 6.73962 10.6613 7.01562V8.48031H10.66Z" fill="#3B3B3E"/>
</svg>
