<svg width="16" height="16" viewBox="0 0 16 16" fill="none" xmlns="http://www.w3.org/2000/svg">
<path d="M7.99967 1.33301C4.31767 1.33301 1.33301 4.31767 1.33301 7.99967C1.33301 11.6817 4.31767 14.6663 7.99967 14.6663C11.6817 14.6663 14.6663 11.6817 14.6663 7.99967C14.6663 4.31767 11.6817 1.33301 7.99967 1.33301ZM5.34635 8.83301C4.88635 8.83301 4.50968 8.45967 4.50968 7.99967C4.50968 7.53967 4.87968 7.16634 5.33968 7.16634H5.34635C5.80635 7.16634 6.17969 7.53967 6.17969 7.99967C6.17969 8.45967 5.80635 8.83301 5.34635 8.83301ZM8.01302 8.83301C7.55302 8.83301 7.17635 8.45967 7.17635 7.99967C7.17635 7.53967 7.54635 7.16634 8.00635 7.16634H8.01302C8.47302 7.16634 8.84635 7.53967 8.84635 7.99967C8.84635 8.45967 8.47302 8.83301 8.01302 8.83301ZM10.6797 8.83301C10.2197 8.83301 9.84302 8.45967 9.84302 7.99967C9.84302 7.53967 10.213 7.16634 10.673 7.16634H10.6797C11.1397 7.16634 11.513 7.53967 11.513 7.99967C11.513 8.45967 11.1397 8.83301 10.6797 8.83301Z" fill="#3B3B3E"/>
</svg>
