<svg width="16" height="16" viewBox="0 0 16 16" fill="none" xmlns="http://www.w3.org/2000/svg">
<path d="M7.99967 1.33301C4.31767 1.33301 1.33301 4.31767 1.33301 7.99967C1.33301 11.6817 4.31767 14.6663 7.99967 14.6663C11.6817 14.6663 14.6663 11.6817 14.6663 7.99967C14.6663 4.31767 11.6817 1.33301 7.99967 1.33301ZM10.4997 9.99967C10.4997 10.065 10.4863 10.1297 10.4609 10.1911C10.4103 10.3131 10.3131 10.4103 10.1911 10.4609C10.1297 10.4863 10.065 10.4997 9.99967 10.4997H7.33301C7.05701 10.4997 6.83301 10.2757 6.83301 9.99967C6.83301 9.72367 7.05701 9.49967 7.33301 9.49967H8.79232L5.64567 6.35303C5.45034 6.15769 5.45034 5.841 5.64567 5.64567C5.841 5.45034 6.15769 5.45034 6.35303 5.64567L9.49967 8.79232V7.33301C9.49967 7.05701 9.72367 6.83301 9.99967 6.83301C10.2757 6.83301 10.4997 7.05701 10.4997 7.33301V9.99967Z" fill="#3B3B3E"/>
</svg>
