<svg width="16" height="16" viewBox="0 0 16 16" fill="none" xmlns="http://www.w3.org/2000/svg">
<path d="M9.8997 3.6721V13.6047C9.8997 13.744 9.76037 13.8407 9.6297 13.792L6.2297 12.5154C6.1517 12.486 6.09969 12.4114 6.09969 12.328V2.3954C6.09969 2.25607 6.23902 2.1594 6.36969 2.20807L9.76969 3.48476C9.84836 3.51409 9.8997 3.58876 9.8997 3.6721ZM4.80969 2.31272L2.73303 3.35667C2.28303 3.58267 1.99902 4.04344 1.99902 4.54677V13.0001C1.99902 13.5001 2.51903 13.82 2.9657 13.6L4.98903 12.5821C5.05637 12.5481 5.09902 12.4787 5.09902 12.4034V2.49078C5.09969 2.34211 4.94303 2.24539 4.80969 2.31272ZM13.033 2.40012L11.0097 3.41803C10.9424 3.45203 10.8997 3.5214 10.8997 3.59674V13.5093C10.8997 13.658 11.0564 13.7547 11.1897 13.688L13.2597 12.6467C13.7137 12.4187 13.9997 11.954 13.9997 11.446V3.00006C13.9997 2.50006 13.4797 2.18012 13.033 2.40012Z" fill="#3B3B3E"/>
</svg>
