<svg width="16" height="16" viewBox="0 0 16 16" fill="none" xmlns="http://www.w3.org/2000/svg">
<path d="M13.0003 3.02598V10.3386C13.0003 10.3406 12.999 10.342 12.999 10.344C12.993 11.442 12.099 12.3333 11.0003 12.3333C9.89766 12.3333 9.00033 11.4359 9.00033 10.3333C9.00033 9.2306 9.89766 8.33327 11.0003 8.33327C11.5143 8.33327 11.979 8.53396 12.3337 8.85329V5.42588L5.66699 7.29258V12.3326C5.66699 13.4353 4.76966 14.3326 3.66699 14.3326C2.56433 14.3326 1.66699 13.4353 1.66699 12.3326C1.66699 11.23 2.56433 10.3326 3.66699 10.3326C4.18099 10.3326 4.64566 10.5333 5.00033 10.8526V4.77126C5.00033 3.94659 5.42098 3.39335 6.21631 3.17002L11.307 1.74391C11.8083 1.60325 12.235 1.65122 12.5417 1.88389C12.8463 2.11522 13.0003 2.49931 13.0003 3.02598Z" fill="#3B3B3E"/>
</svg>
