<svg width="16" height="16" viewBox="0 0 16 16" fill="none" xmlns="http://www.w3.org/2000/svg">
<path d="M5.33333 11.1663H9.33333C10.9467 11.1663 11.8333 10.2797 11.8333 8.66634V8.47967C13.32 8.39301 14.5 7.16634 14.5 5.66634C14.5 4.16634 13.2267 2.83301 11.6667 2.83301H3.66667C3.20667 2.83301 2.83333 3.20634 2.83333 3.66634V8.66634C2.83333 10.2797 3.72 11.1663 5.33333 11.1663ZM13.5 5.66634C13.5 6.61967 12.7667 7.39968 11.8333 7.47968V3.84634C12.7667 3.93301 13.5 4.70634 13.5 5.65968V5.66634ZM14.5 12.6663C14.5 12.9397 14.2733 13.1663 14 13.1663H2C1.72667 13.1663 1.5 12.9397 1.5 12.6663C1.5 12.393 1.72667 12.1663 2 12.1663H14C14.2733 12.1663 14.5 12.393 14.5 12.6663Z" fill="#3B3B3E"/>
</svg>
