<svg width="16" height="16" viewBox="0 0 16 16" fill="none" xmlns="http://www.w3.org/2000/svg">
<path d="M12.6665 13.9999C12.6665 14.3679 12.3685 14.6665 11.9999 14.6665H8.66653C7.19586 14.6665 5.99986 13.4705 5.99986 11.9999V3.60926L4.47122 5.1379C4.21055 5.39857 3.78917 5.39857 3.52851 5.1379C3.26784 4.87724 3.26784 4.45586 3.52851 4.19519L6.19452 1.52918C6.25652 1.46718 6.32981 1.41848 6.41181 1.38448C6.57448 1.31715 6.75858 1.31715 6.92125 1.38448C7.00325 1.41848 7.07653 1.46718 7.13853 1.52918L9.80455 4.19519C10.0652 4.45586 10.0652 4.87724 9.80455 5.1379C9.67455 5.2679 9.50386 5.33321 9.3332 5.33321C9.16253 5.33321 8.99184 5.2679 8.86184 5.1379L7.3332 3.60926V11.9999C7.3332 12.7352 7.9312 13.3332 8.66653 13.3332H11.9999C12.3685 13.3332 12.6665 13.6319 12.6665 13.9999Z" fill="#3B3B3E"/>
</svg>
