<svg width="16" height="16" viewBox="0 0 16 16" fill="none" xmlns="http://www.w3.org/2000/svg">
<path fill-rule="evenodd" clip-rule="evenodd" d="M5.50033 2C5.50033 1.724 5.72433 1.5 6.00033 1.5H9.33366C9.60966 1.5 9.83366 1.724 9.83366 2C9.83366 2.276 9.60966 2.5 9.33366 2.5H6.00033C5.72433 2.5 5.50033 2.276 5.50033 2ZM12.667 9C12.667 11.7613 10.4283 14 7.66699 14C4.90566 14 2.66699 11.7613 2.66699 9C2.66699 6.23867 4.90566 4 7.66699 4C8.78233 4 9.8083 4.36932 10.6403 4.98665L11.647 3.97998C11.8403 3.78665 12.1603 3.78665 12.3537 3.97998C12.547 4.17331 12.547 4.49335 12.3537 4.68669L11.3804 5.65999C12.1777 6.54599 12.667 7.71467 12.667 9ZM8.37435 9L9.35433 8.02002C9.54966 7.82469 9.54966 7.508 9.35433 7.31266C9.159 7.11733 8.84231 7.11733 8.64697 7.31266L7.66699 8.29264L6.68701 7.31266C6.49168 7.11733 6.17499 7.11733 5.97966 7.31266C5.78432 7.508 5.78432 7.82469 5.97966 8.02002L6.95964 9L5.97966 9.97998C5.78432 10.1753 5.78432 10.492 5.97966 10.6873C6.07699 10.7847 6.20501 10.834 6.33301 10.834C6.46101 10.834 6.58903 10.7853 6.68636 10.6873L7.66634 9.70736L8.64632 10.6873C8.74366 10.7847 8.87167 10.834 8.99967 10.834C9.12767 10.834 9.25569 10.7853 9.35303 10.6873C9.54836 10.492 9.54836 10.1753 9.35303 9.97998L8.37435 9Z" fill="#3B3B3E"/>
</svg>
