<svg width="16" height="16" viewBox="0 0 16 16" fill="none" xmlns="http://www.w3.org/2000/svg">
<path d="M9.5 6.66667C9.5 7.126 9.126 7.5 8.66667 7.5H7.16667V5.83333H8.66667C9.126 5.83333 9.5 6.20733 9.5 6.66667ZM14 4.25V11.75C14 13.25 13.25 14 11.75 14H4.25C2.75 14 2 13.25 2 11.75V4.25C2 2.75 2.75 2 4.25 2H11.75C13.25 2 14 2.75 14 4.25ZM10.5 6.66667C10.5 5.65533 9.678 4.83333 8.66667 4.83333H6.66667C6.39067 4.83333 6.16667 5.05733 6.16667 5.33333V10.6667C6.16667 10.9427 6.39067 11.1667 6.66667 11.1667C6.94267 11.1667 7.16667 10.9427 7.16667 10.6667V8.5H8.66667C9.678 8.5 10.5 7.678 10.5 6.66667Z" fill="#3B3B3E"/>
</svg>
