<svg width="16" height="16" viewBox="0 0 16 16" fill="none" xmlns="http://www.w3.org/2000/svg">
<g clip-path="url(#clip0_36251_7947)">
<path d="M14.3245 9.99788L13.6646 9.33789C13.6096 9.28242 13.5441 9.23838 13.472 9.20833C13.3999 9.17828 13.3227 9.16276 13.2446 9.16276C13.1665 9.16276 13.0892 9.17828 13.0171 9.20833C12.945 9.23838 12.8795 9.28242 12.8245 9.33789L12.2845 9.87793L13.7845 11.3779L14.3245 10.8379C14.38 10.7829 14.4241 10.7174 14.4541 10.6453C14.4842 10.5733 14.4997 10.4959 14.4997 10.4178C14.4997 10.3397 14.4842 10.2625 14.4541 10.1904C14.4241 10.1183 14.38 10.0529 14.3245 9.99788ZM11.8179 10.3512L9.16455 13.0179V14.4979H10.6445L13.3112 11.8446L11.8179 10.3512ZM7.16455 2.49788C6.03204 2.49893 4.92927 2.86047 4.01595 3.53011C3.10263 4.19975 2.42624 5.14273 2.08464 6.22249C1.74303 7.30226 1.75392 8.4627 2.11589 9.53581C2.47786 10.6089 3.17199 11.539 4.09782 12.1912L2.8112 13.4779C2.71821 13.572 2.66602 13.6989 2.66602 13.8312C2.66602 13.9635 2.71821 14.0905 2.8112 14.1846C2.85757 14.231 2.91268 14.2678 2.97331 14.293C3.03394 14.3181 3.09892 14.3311 3.16455 14.3311C3.23018 14.3311 3.29517 14.3181 3.35579 14.293C3.41642 14.2678 3.47153 14.231 3.5179 14.1846L4.99788 12.7046C5.67988 13.0081 6.41807 13.1648 7.16455 13.1646C7.4458 13.1628 7.72655 13.1404 8.00456 13.0978C8.04881 13.0866 8.08851 13.0621 8.11833 13.0275C8.14814 12.9929 8.16662 12.95 8.17122 12.9046C8.19836 12.6805 8.29915 12.4717 8.45785 12.3112L12.1178 8.63118C12.2018 8.54664 12.2959 8.47286 12.3979 8.4113C12.4242 8.39054 12.4456 8.3641 12.4606 8.33415C12.4756 8.30419 12.4837 8.27144 12.4845 8.23796C12.4912 8.10462 12.4979 7.97122 12.4979 7.83122C12.4979 6.41673 11.9359 5.06017 10.9357 4.05998C9.93552 3.05978 8.57904 2.49788 7.16455 2.49788ZM7.66455 7.83122C7.66455 7.96383 7.61183 8.09096 7.51807 8.18473C7.4243 8.2785 7.29716 8.33122 7.16455 8.33122C7.03194 8.33122 6.9048 8.2785 6.81104 8.18473C6.71727 8.09096 6.66455 7.96383 6.66455 7.83122V5.16455C6.66455 5.03194 6.71727 4.9048 6.81104 4.81103C6.9048 4.71727 7.03194 4.66455 7.16455 4.66455C7.29716 4.66455 7.4243 4.71727 7.51807 4.81103C7.61183 4.9048 7.66455 5.03194 7.66455 5.16455V7.83122ZM2.85124 1.47786C2.75706 1.38504 2.63012 1.33301 2.49788 1.33301C2.36565 1.33301 2.23871 1.38504 2.14453 1.47786L0.811198 2.8112C0.718211 2.90529 0.666016 3.03226 0.666016 3.16455C0.666016 3.29684 0.718211 3.42381 0.811198 3.5179C0.857575 3.56435 0.912679 3.60116 0.973307 3.6263C1.03394 3.65144 1.09892 3.66439 1.16455 3.66439C1.23018 3.66439 1.29517 3.65144 1.35579 3.6263C1.41642 3.60116 1.47153 3.56435 1.5179 3.5179L2.85124 2.18457C2.94422 2.09048 2.99642 1.9635 2.99642 1.83122C2.99642 1.69893 2.94422 1.57196 2.85124 1.47786ZM13.5179 2.80452L12.1846 1.49788C12.0882 1.40896 11.961 1.36108 11.8299 1.36434C11.6988 1.36759 11.5741 1.42171 11.4823 1.5153C11.3904 1.60889 11.3385 1.73458 11.3377 1.86572C11.3369 1.99686 11.3872 2.12314 11.4779 2.21785L12.8112 3.52458C12.9079 3.61671 13.037 3.66697 13.1706 3.66447C13.3041 3.66197 13.4314 3.60691 13.5246 3.51123C13.6165 3.41618 13.6673 3.28873 13.666 3.15649C13.6648 3.02426 13.6116 2.89782 13.5179 2.80452Z" fill="#3B3B3E"/>
</g>
<defs>
<clipPath id="clip0_36251_7947">
<rect width="16" height="16" fill="white"/>
</clipPath>
</defs>
</svg>
