<svg width="16" height="16" viewBox="0 0 16 16" fill="none" xmlns="http://www.w3.org/2000/svg">
<path d="M8.90268 8.43066C9.03268 8.56066 9.03268 8.77202 8.90268 8.90202C8.83735 8.96735 8.75201 8.99935 8.66668 8.99935C8.58135 8.99935 8.49601 8.96669 8.43068 8.90202L7.76401 8.23535C7.70134 8.17269 7.66668 8.08802 7.66668 7.99935V6.99935C7.66668 6.81535 7.81601 6.66602 8.00001 6.66602C8.18401 6.66602 8.33335 6.81535 8.33335 6.99935V7.86133L8.90268 8.43066ZM14 7.99935C14 11.3127 11.314 13.9987 8.00067 13.9987C7.10733 13.9987 6.25399 13.7987 5.49399 13.4454C5.20066 13.3054 4.86071 13.3053 4.54738 13.4053L2.88071 13.9653C2.36071 14.1387 1.8607 13.6387 2.03403 13.1187L2.59409 11.452C2.69409 11.1387 2.69405 10.7987 2.55405 10.5053C2.20072 9.74533 2.00067 8.89202 2.00067 7.99935C2.00067 4.68602 4.68668 2 8.00001 2C11.3133 2 14 4.68602 14 7.99935ZM10.6667 8C10.6667 6.52733 9.47268 5.33333 8.00001 5.33333C6.52735 5.33333 5.33335 6.52733 5.33335 8C5.33335 9.47267 6.52735 10.6667 8.00001 10.6667C9.47268 10.6667 10.6667 9.47267 10.6667 8Z" fill="#3B3B3E"/>
</svg>
