<svg width="16" height="16" viewBox="0 0 16 16" fill="none" xmlns="http://www.w3.org/2000/svg">
<path d="M14 8C14 11.3133 11.3133 14 8 14C4.68667 14 2 11.3133 2 8C2 6.52667 2.53731 5.17206 3.42265 4.12939L2.97998 3.68669C2.78465 3.49135 2.78465 3.17466 2.97998 2.97933C3.17531 2.784 3.492 2.784 3.68734 2.97933L8.354 7.646C8.54934 7.84133 8.54934 8.15802 8.354 8.35335C8.25667 8.45069 8.12865 8.5 8.00065 8.5C7.87265 8.5 7.74467 8.45135 7.64734 8.35335L6.78333 7.48926C6.71733 7.64592 6.68132 7.818 6.68132 8C6.68132 8.73333 7.28132 9.33333 8.01465 9.33333C8.74798 9.33333 9.34798 8.73333 9.34798 8C9.34798 7.26667 8.74798 6.66667 8.01465 6.66667H8V4.83333C9.74667 4.83333 11.1667 6.25333 11.1667 8C11.1667 8.84667 10.84 9.64007 10.2467 10.2401C9.64 10.8401 8.84667 11.1667 8 11.1667C6.25333 11.1667 4.83333 9.74667 4.83333 8C4.83333 7.328 5.05066 6.68727 5.44132 6.1486L4.72131 5.42871C4.14731 6.16338 3.83333 7.05867 3.83333 8C3.83333 10.2973 5.70267 12.1667 8 12.1667C9.10867 12.1667 10.1553 11.7353 10.9513 10.9473C11.7347 10.1553 12.1667 9.108 12.1667 8C12.1667 5.70267 10.2973 3.83333 8 3.83333V2C11.3133 2 14 4.68667 14 8Z" fill="#3B3B3E"/>
</svg>
