<svg width="16" height="16" viewBox="0 0 16 16" fill="none" xmlns="http://www.w3.org/2000/svg">
<path d="M14.3186 6.05619L9.37716 1.99223C8.57916 1.33756 7.42256 1.33689 6.62456 1.99223L1.68323 6.05554C1.47056 6.23087 1.43921 6.54556 1.61455 6.75956C1.78988 6.97356 2.10523 7.00291 2.31857 6.82825L3.00053 6.26688V11.9996C3.00053 13.5262 3.8072 14.3329 5.33387 14.3329H10.6672C12.1939 14.3329 13.0005 13.5262 13.0005 11.9996V6.26754L13.6825 6.8289C13.7758 6.90556 13.8885 6.94291 14.0005 6.94291C14.1445 6.94291 14.2879 6.88086 14.3865 6.76086C14.5625 6.5462 14.5312 6.23152 14.3186 6.05619ZM10.6172 9.19486C10.2692 10.9742 8.00053 11.9996 8.00053 11.9996C8.00053 11.9996 5.73183 10.9749 5.38383 9.19486C5.1705 8.10353 5.63657 7.00488 6.8219 6.99955C7.70457 6.99555 8.00053 7.87821 8.00053 7.87821C8.00053 7.87821 8.29649 6.99488 9.17916 6.99955C10.3665 7.00555 10.8306 8.10353 10.6172 9.19486Z" fill="#3B3B3E"/>
</svg>
