<svg width="16" height="16" viewBox="0 0 16 16" fill="none" xmlns="http://www.w3.org/2000/svg">
<path d="M13.8 7.16667H2.20003C2.08937 7.16667 2 7.25599 2 7.36666V12C2 13.3333 2.66667 14 4 14H12C13.3333 14 14 13.3333 14 12V7.36666C14 7.25599 13.9106 7.16667 13.8 7.16667ZM10.2546 9.93333L9.41463 10.7347C9.3533 10.7933 9.32534 10.878 9.34001 10.9607L9.53198 12.058C9.57065 12.2807 9.33331 12.45 9.12931 12.3453L8.12134 11.8267C8.046 11.788 7.9553 11.788 7.87996 11.8267L6.87264 12.3447C6.66864 12.45 6.42999 12.2793 6.46932 12.0567L6.6613 10.9607C6.67596 10.878 6.648 10.7933 6.58667 10.7347L5.74666 9.93333C5.592 9.786 5.67737 9.52866 5.89071 9.49866L7.05265 9.33333C7.13732 9.32133 7.21063 9.26932 7.24797 9.19399L7.7513 8.19533C7.8533 7.99267 8.148 7.99267 8.25 8.19533L8.75334 9.19399C8.79134 9.26932 8.86465 9.32133 8.94865 9.33333L10.1107 9.49866C10.324 9.52866 10.4086 9.786 10.2546 9.93333ZM2.21737 5.91201L2.92 3.45333C3.16667 2.59333 3.33334 2 4.84001 2H7.29997C7.41063 2 7.5 2.08933 7.5 2.19999V5.96667C7.5 6.07734 7.41063 6.16667 7.29997 6.16667H2.40934C2.27668 6.16667 2.1807 6.03934 2.21737 5.91201ZM8.5 5.96667V2.19999C8.5 2.08933 8.58937 2 8.70003 2H11.16C12.6667 2 12.8333 2.59333 13.08 3.45333L13.7826 5.91201C13.8193 6.04001 13.7233 6.16667 13.5907 6.16667H8.70003C8.58937 6.16667 8.5 6.07734 8.5 5.96667Z" fill="#3B3B3E"/>
</svg>
