<svg width="16" height="16" viewBox="0 0 16 16" fill="none" xmlns="http://www.w3.org/2000/svg">
<path d="M12.6667 6.49967H14V9.49967H12.6667C12.5733 9.49967 12.5 9.42634 12.5 9.33301V6.66634C12.5 6.57301 12.5733 6.49967 12.6667 6.49967ZM9.16667 7.99967C9.16667 7.35967 8.64 6.83301 8 6.83301C7.36 6.83301 6.83333 7.35967 6.83333 7.99967C6.83333 8.63967 7.36 9.16634 8 9.16634C8.64 9.16634 9.16667 8.63967 9.16667 7.99967ZM5.83333 7.99967C5.83333 6.97967 6.54667 6.12635 7.5 5.89968V3.33301H4C2.66667 3.33301 2 3.99967 2 5.33301V5.49967H3.33333C3.97333 5.49967 4.5 6.02634 4.5 6.66634V9.33301C4.5 9.97301 3.97333 10.4997 3.33333 10.4997H2V10.6663C2 11.9997 2.66667 12.6663 4 12.6663H7.5V10.0997C6.54667 9.873 5.83333 9.01967 5.83333 7.99967ZM11.5 9.33301V6.66634C11.5 6.02634 12.0267 5.49967 12.6667 5.49967H14V5.33301C14 3.99967 13.3333 3.33301 12 3.33301H8.5V5.89968C9.45333 6.12635 10.1667 6.97967 10.1667 7.99967C10.1667 9.01967 9.45333 9.873 8.5 10.0997V12.6663H12C13.3333 12.6663 14 11.9997 14 10.6663V10.4997H12.6667C12.0267 10.4997 11.5 9.97301 11.5 9.33301ZM3.5 9.33301V6.66634C3.5 6.57301 3.42667 6.49967 3.33333 6.49967H2V9.49967H3.33333C3.42667 9.49967 3.5 9.42634 3.5 9.33301Z" fill="#3B3B3E"/>
</svg>
