<svg width="16" height="16" viewBox="0 0 16 16" fill="none" xmlns="http://www.w3.org/2000/svg">
<path d="M7.99967 1.33301C4.31767 1.33301 1.33301 4.31767 1.33301 7.99967C1.33301 11.6817 4.31767 14.6663 7.99967 14.6663C11.6817 14.6663 14.6663 11.6817 14.6663 7.99967C14.6663 4.31767 11.6817 1.33301 7.99967 1.33301ZM5.33301 5.49967H9.33301C9.60901 5.49967 9.83301 5.72367 9.83301 5.99967C9.83301 6.27567 9.60901 6.49967 9.33301 6.49967H5.33301C5.05701 6.49967 4.83301 6.27567 4.83301 5.99967C4.83301 5.72367 5.05701 5.49967 5.33301 5.49967ZM7.99967 10.4997H5.33301C5.05701 10.4997 4.83301 10.2757 4.83301 9.99967C4.83301 9.72367 5.05701 9.49967 5.33301 9.49967H7.99967C8.27567 9.49967 8.49967 9.72367 8.49967 9.99967C8.49967 10.2757 8.27567 10.4997 7.99967 10.4997ZM10.6663 8.49967H5.33301C5.05701 8.49967 4.83301 8.27567 4.83301 7.99967C4.83301 7.72367 5.05701 7.49967 5.33301 7.49967H10.6663C10.9423 7.49967 11.1663 7.72367 11.1663 7.99967C11.1663 8.27567 10.9423 8.49967 10.6663 8.49967Z" fill="#3B3B3E"/>
</svg>
