<svg width="16" height="16" viewBox="0 0 16 16" fill="none" xmlns="http://www.w3.org/2000/svg">
<path d="M11.75 2H4.25C2.75 2 2 2.75 2 4.25V11.75C2 13.25 2.75 14 4.25 14H11.75C13.25 14 14 13.25 14 11.75V4.25C14 2.75 13.25 2 11.75 2ZM11.6867 7.02002L9.82467 8.882C9.37067 9.33667 8.63 9.33732 8.17533 8.88265L7.116 7.82601C7.05066 7.76068 6.94534 7.76068 6.88001 7.82601L5.01933 9.68669C4.922 9.78402 4.794 9.83333 4.666 9.83333C4.538 9.83333 4.41 9.78469 4.31267 9.68669C4.11733 9.49135 4.11733 9.17466 4.31267 8.97933L6.17333 7.11865C6.628 6.66399 7.368 6.664 7.82266 7.118L8.882 8.17464C8.94733 8.23931 9.05267 8.23931 9.118 8.17464L10.98 6.31266C11.1753 6.11733 11.492 6.11733 11.6873 6.31266C11.8827 6.508 11.882 6.82469 11.6867 7.02002Z" fill="#3B3B3E"/>
</svg>
