<svg width="16" height="16" viewBox="0 0 16 16" fill="none" xmlns="http://www.w3.org/2000/svg">
<path d="M4.69281 13.9995H2.16615V6.41948H4.69281V13.9995ZM4.94614 3.47282C4.94614 2.67282 4.31282 2.02615 3.51282 1.99948C2.69948 1.97948 2.01948 2.61948 1.99948 3.43281C1.97948 4.24614 2.61948 4.92615 3.43281 4.94615C4.25948 4.95281 4.93281 4.29948 4.94614 3.47282ZM13.9661 9.41948C13.9661 7.05948 12.4395 6.33948 11.1395 6.33948C10.2262 6.31281 9.36615 6.75948 8.86615 7.51948V6.42615H6.42615V14.0062H8.95281V10.0728C8.95281 10.0328 8.95281 9.99281 8.95281 9.95281C8.95281 9.95281 8.95281 9.95281 8.95281 9.94615C8.89947 9.13948 9.51281 8.43948 10.3195 8.38615C10.9795 8.38615 11.4795 8.81282 11.4795 10.0128V14.0062H14.0061L13.9728 9.42615L13.9661 9.41948Z" fill="#3B3B3E"/>
</svg>
