<svg width="16" height="16" viewBox="0 0 16 16" fill="none" xmlns="http://www.w3.org/2000/svg">
<path d="M13.7404 6.30534C13.7037 6.19401 13.5776 6.14737 13.4683 6.18937C13.0983 6.33137 12.6796 6.37135 12.2443 6.29801C11.3663 6.15068 10.6336 5.46797 10.4123 4.60531C10.2903 4.12931 10.319 3.69134 10.445 3.29134C10.479 3.18467 10.4289 3.06733 10.3229 3.03133C9.60692 2.78933 8.82031 2.66602 8.00098 2.66602C4.68764 2.66602 2.00098 4.666 2.00098 8C2.00098 9.41333 2.48761 10.594 3.30094 11.474C3.20094 12.114 2.84092 12.8473 2.11426 13.434C1.89426 13.6207 2.02095 13.9873 2.30762 13.994C3.25428 14.0273 4.71425 13.9007 5.60758 12.9473C6.34092 13.2007 7.14764 13.334 8.00098 13.334C11.3143 13.334 14.001 11.3333 14.001 8C14.0003 7.38867 13.9124 6.82401 13.7404 6.30534ZM8.66699 9.83333H5.33366C5.05766 9.83333 4.83366 9.60933 4.83366 9.33333C4.83366 9.05733 5.05766 8.83333 5.33366 8.83333H8.66699C8.94299 8.83333 9.16699 9.05733 9.16699 9.33333C9.16699 9.60933 8.94299 9.83333 8.66699 9.83333ZM10.667 7.16667H5.33366C5.05766 7.16667 4.83366 6.94267 4.83366 6.66667C4.83366 6.39067 5.05766 6.16667 5.33366 6.16667H10.667C10.943 6.16667 11.167 6.39067 11.167 6.66667C11.167 6.94267 10.943 7.16667 10.667 7.16667ZM12.667 5.33464C11.931 5.33464 11.3337 4.7373 11.3337 4.0013C11.3337 3.26464 11.931 2.66797 12.667 2.66797C13.403 2.66797 14.0003 3.26464 14.0003 4.0013C14.0003 4.7373 13.403 5.33464 12.667 5.33464Z" fill="#3B3B3E"/>
</svg>
