<svg width="16" height="16" viewBox="0 0 16 16" fill="none" xmlns="http://www.w3.org/2000/svg">
<path d="M9.49984 12.3333C9.49984 10.7733 10.7732 9.5 12.3332 9.5H13.9665C13.9865 9.39333 13.9998 9.28001 13.9998 9.17334V4.25334C13.9998 2.66667 13.3332 2 11.7465 2H4.2465C2.65983 2 1.99316 2.66667 1.99316 4.25334V11.7533C1.99316 13.34 2.65983 14.0067 4.2465 14.0067H9.1665C9.27984 14.0067 9.3865 13.9933 9.49316 13.9733V12.34L9.49984 12.3333ZM10.0065 5.83333C10.4665 5.83333 10.8398 6.20667 10.8398 6.66667C10.8398 7.12667 10.4665 7.5 10.0065 7.5C9.54651 7.5 9.17318 7.12667 9.17318 6.66667C9.17318 6.20667 9.53984 5.83333 10.0065 5.83333ZM5.17318 6.66667C5.17318 6.20667 5.53984 5.83333 6.00651 5.83333C6.46651 5.83333 6.83984 6.20667 6.83984 6.66667C6.83984 7.12667 6.46651 7.5 6.00651 7.5C5.54651 7.5 5.17318 7.12667 5.17318 6.66667ZM9.11318 10.4467C8.39985 10.1067 7.56649 10.1133 6.88649 10.4467C6.81316 10.48 6.73984 10.5 6.6665 10.5C6.47984 10.5 6.30649 10.4 6.21983 10.22C6.09983 9.97332 6.19985 9.67334 6.44651 9.54667C7.39985 9.07334 8.55983 9.05999 9.55316 9.53332C9.79983 9.65332 9.9065 9.95332 9.7865 10.2C9.6665 10.4467 9.3665 10.5533 9.11983 10.4333L9.11318 10.4467ZM13.4798 10.5C13.4798 10.5 13.4332 10.56 13.4065 10.5867L10.5798 13.4133C10.5798 13.4133 10.5198 13.46 10.4932 13.4867V12.3333C10.4932 11.32 11.3132 10.5 12.3265 10.5H13.4798Z" fill="#3B3B3E"/>
</svg>
