<svg width="16" height="16" viewBox="0 0 16 16" fill="none" xmlns="http://www.w3.org/2000/svg">
<path d="M14.3533 3.02001C14.256 3.11735 14.128 3.16666 14 3.16666C13.872 3.16666 13.744 3.11801 13.6467 3.02001L13.1667 2.54003V4.66666C13.1667 4.94266 12.9427 5.16666 12.6667 5.16666C12.3907 5.16666 12.1667 4.94266 12.1667 4.66666V2.54069L11.6867 3.02067C11.4913 3.216 11.1747 3.216 10.9793 3.02067C10.784 2.82533 10.784 2.50864 10.9793 2.31331L12.3127 0.979976C12.3587 0.933976 12.414 0.897318 12.4753 0.871984C12.5973 0.821318 12.7353 0.821318 12.8573 0.871984C12.9187 0.897318 12.974 0.933976 13.02 0.979976L14.3533 2.31331C14.5487 2.50864 14.5487 2.82468 14.3533 3.02001ZM14 6.32397V11.7467C14 13.2467 13.2333 14 11.7467 14H4.25334C2.73334 14 2 13.2467 2 11.7467V4.25333C2 2.74667 2.73334 2 4.25334 2H9.67601C9.82001 2 9.90933 2.14397 9.85866 2.27864C9.666 2.78997 9.60868 3.37064 9.73401 3.9733C9.97068 5.10997 10.89 6.03001 12.026 6.26668C12.6293 6.39268 13.21 6.33534 13.722 6.142C13.856 6.09134 14 6.18064 14 6.32397ZM9.98132 9.34464C9.98132 8.54331 9.438 7.84601 8.65733 7.64868L7.58533 7.38265C7.41999 7.34131 7.27934 7.24869 7.17334 7.11336C7.07334 6.98669 7.01801 6.82399 7.01801 6.65665C7.01801 6.24399 7.35332 5.90869 7.76599 5.90869H8.23267C8.614 5.90869 8.93333 6.19535 8.97666 6.57535C9.00733 6.85002 9.25267 7.05001 9.52934 7.01668C9.804 6.98601 10.0013 6.73869 9.97066 6.46403C9.88066 5.66136 9.25866 5.0433 8.48132 4.93196V4.66666C8.48132 4.39066 8.25732 4.16666 7.98132 4.16666C7.70532 4.16666 7.48132 4.39066 7.48132 4.66666V4.93668C6.65332 5.07402 6.01868 5.79 6.01868 6.656C6.01868 7.04733 6.14999 7.43001 6.38666 7.72867C6.62399 8.03467 6.96267 8.25597 7.34267 8.35197L8.41467 8.618C8.74867 8.70266 8.98199 9.00132 8.98199 9.34399C8.98199 9.54266 8.904 9.72998 8.762 9.87198C8.62 10.014 8.43268 10.092 8.23401 10.092H7.76733C7.386 10.092 7.06667 9.80529 7.02334 9.42529C6.99267 9.15062 6.74266 8.9493 6.47066 8.98396C6.196 9.01463 5.99867 9.26203 6.02934 9.5367C6.118 10.328 6.72333 10.942 7.48533 11.0653V11.3333C7.48533 11.6093 7.70933 11.8333 7.98533 11.8333C8.26133 11.8333 8.48533 11.6093 8.48533 11.3333V11.068C8.85533 11.014 9.19867 10.85 9.46867 10.58C9.79934 10.2487 9.98132 9.80997 9.98132 9.34464Z" fill="#3B3B3E"/>
</svg>
