<svg width="16" height="16" viewBox="0 0 16 16" fill="none" xmlns="http://www.w3.org/2000/svg">
<path d="M13.6333 12.1443C13.578 12.2596 13.4613 12.3329 13.3333 12.3329H2.66661C2.53861 12.3329 2.42193 12.2596 2.3666 12.1443C2.31127 12.0289 2.3266 11.8916 2.4066 11.7916C2.41927 11.7763 3.67062 10.1876 3.67062 8.33294V5.99627C3.67062 3.60894 5.61328 1.66628 8.00061 1.66628C10.3879 1.66628 12.3306 3.60894 12.3306 5.99627V8.33294C12.3306 10.1869 13.5813 11.7756 13.5946 11.7916C13.6733 11.8916 13.6893 12.0283 13.6333 12.1443ZM2.49728 5.38294C2.61128 4.24361 3.07128 3.18827 3.82862 2.33094C4.01128 2.12361 3.99128 1.80761 3.78461 1.62495C3.57728 1.44161 3.26128 1.46161 3.07862 1.66894C2.18262 2.68428 1.63727 3.93427 1.50261 5.28361C1.47461 5.55827 1.67527 5.80361 1.94993 5.83094C1.9666 5.83227 1.98395 5.83361 2.00061 5.83361C2.25395 5.83295 2.47194 5.64027 2.49728 5.38294ZM14.05 5.83028C14.3246 5.80294 14.5253 5.55761 14.4973 5.28295C14.3626 3.93428 13.8173 2.68428 12.9213 1.66828C12.7393 1.46161 12.4226 1.44094 12.2153 1.62427C12.0079 1.80694 11.9886 2.12295 12.1713 2.33028C12.9279 3.18761 13.3886 4.24295 13.5026 5.38228C13.5286 5.64028 13.7459 5.83227 13.9993 5.83227C14.0159 5.83294 14.0326 5.83228 14.05 5.83028ZM9.44261 13.1669C9.38328 13.0636 9.27328 12.9996 9.15328 12.9996H6.8466C6.72727 12.9996 6.61728 13.0636 6.55728 13.1669C6.49728 13.2703 6.49862 13.3983 6.55862 13.5009C6.86262 14.0216 7.40128 14.3329 7.99994 14.3329C8.59861 14.3329 9.13727 14.0216 9.44127 13.5009C9.50127 13.3983 9.50194 13.2703 9.44261 13.1669Z" fill="#3B3B3E"/>
</svg>
