<svg width="16" height="16" viewBox="0 0 16 16" fill="none" xmlns="http://www.w3.org/2000/svg">
<path d="M2.66634 8.33385C2.66634 8.81051 2.7763 9.26991 2.9943 9.69924C3.1603 10.0279 3.02901 10.4286 2.70101 10.5952C2.60368 10.6439 2.50098 10.6672 2.40031 10.6672C2.15698 10.6672 1.92235 10.5338 1.80501 10.3018C1.49635 9.69245 1.33301 9.01185 1.33301 8.33385C1.33301 5.78251 3.11501 4.00051 5.66634 4.00051H9.72371L9.52832 3.8052C9.26765 3.54453 9.26765 3.12316 9.52832 2.86249C9.78899 2.60183 10.2104 2.60183 10.471 2.86249L11.8037 4.19517C11.8657 4.25717 11.9143 4.33046 11.9483 4.41246C12.0157 4.57513 12.0157 4.75923 11.9483 4.9219C11.9143 5.0039 11.8657 5.07718 11.8037 5.13918L10.471 6.47187C10.341 6.60187 10.1703 6.66718 9.99967 6.66718C9.82901 6.66718 9.65832 6.60187 9.52832 6.47187C9.26765 6.2112 9.26765 5.78983 9.52832 5.52916L9.72371 5.33385H5.66634C3.84434 5.33385 2.66634 6.51185 2.66634 8.33385ZM14.1943 6.36591C14.0283 6.03724 13.629 5.90512 13.2983 6.07245C12.9703 6.23912 12.839 6.63978 13.005 6.96845C13.223 7.39845 13.333 7.85718 13.333 8.33385C13.333 10.1558 12.155 11.3338 10.333 11.3338H6.27563L6.47103 11.1385C6.73169 10.8779 6.73169 10.4565 6.47103 10.1958C6.21036 9.93516 5.78899 9.93516 5.52832 10.1958L4.19499 11.5292C3.93432 11.7898 3.93432 12.2112 4.19499 12.4719L5.52832 13.8052C5.65832 13.9352 5.82901 14.0005 5.99967 14.0005C6.17034 14.0005 6.34103 13.9352 6.47103 13.8052C6.73169 13.5445 6.73169 13.1232 6.47103 12.8625L6.27563 12.6672H10.333C12.8843 12.6672 14.6663 10.8852 14.6663 8.33385C14.6663 7.65585 14.503 6.97524 14.1943 6.36591Z" fill="#3B3B3E"/>
</svg>
