<svg width="16" height="16" viewBox="0 0 16 16" fill="none" xmlns="http://www.w3.org/2000/svg">
<path fill-rule="evenodd" clip-rule="evenodd" d="M12 14.0005H9.8667C9.75603 14.0005 9.66667 13.9111 9.66667 13.8005V11.0005C9.66667 10.0798 8.92067 9.33384 8 9.33384C7.07933 9.33384 6.33333 10.0798 6.33333 11.0005V13.8005C6.33333 13.9111 6.24397 14.0005 6.1333 14.0005H4C2.66667 14.0005 2 13.3338 2 12.0005V7.76784C2 6.43584 2.3487 6.23121 2.95337 5.72454L6.92936 2.39048C7.5487 1.87114 8.45204 1.87114 9.07137 2.39048L13.0474 5.72454C13.6514 6.23121 14.0007 6.43584 14.0007 7.76784V12.0005C14 13.3338 13.3333 14.0005 12 14.0005Z" fill="#3B3B3E"/>
</svg>
