<svg width="16" height="16" viewBox="0 0 16 16" fill="none" xmlns="http://www.w3.org/2000/svg">
<path d="M7.99967 1.33301C4.31967 1.33301 1.33301 4.31967 1.33301 7.99967C1.33301 11.6797 4.31967 14.6663 7.99967 14.6663C11.6797 14.6663 14.6663 11.6797 14.6663 7.99967C14.6663 4.31967 11.6797 1.33301 7.99967 1.33301ZM9.99967 5.49967C10.4797 5.49967 10.833 5.99301 10.833 6.66634C10.833 7.33967 10.4797 7.83301 9.99967 7.83301C9.51967 7.83301 9.16634 7.33967 9.16634 6.66634C9.16634 5.99301 9.51967 5.49967 9.99967 5.49967ZM5.99967 5.49967C6.47967 5.49967 6.83301 5.99301 6.83301 6.66634C6.83301 7.33967 6.47967 7.83301 5.99967 7.83301C5.51967 7.83301 5.16634 7.33967 5.16634 6.66634C5.16634 5.99301 5.51967 5.49967 5.99967 5.49967ZM11.0663 10.2997C10.3263 11.273 9.21301 11.833 7.99967 11.833C6.78634 11.833 5.65968 11.2597 4.93968 10.2997C4.77301 10.0797 4.81967 9.76634 5.03967 9.59967C5.25967 9.433 5.57301 9.47968 5.73967 9.69968C6.27301 10.4063 7.11967 10.833 7.99967 10.833C8.87967 10.833 9.71967 10.4197 10.2663 9.69968C10.433 9.47968 10.7463 9.43968 10.9663 9.60634C11.1863 9.77301 11.2263 10.0863 11.0597 10.3063L11.0663 10.2997Z" fill="#3B3B3E"/>
</svg>
