<svg width="16" height="16" viewBox="0 0 16 16" fill="none" xmlns="http://www.w3.org/2000/svg">
<path d="M8.01204 1.33301C6.51871 2.07367 5.33333 2.66634 2 3.33301C2 4.09101 2 6.46762 2 7.25895C2 11.7036 5.778 13.9257 8 14.6663C10.222 13.9257 14 11.7036 14 7.25895C14 6.44228 14 4.12901 14 3.33301C10.6667 2.66634 9.48138 2.07367 8.01204 1.33301ZM10.0127 9.31299C10.208 9.50832 10.208 9.82501 10.0127 10.0203C9.91536 10.1177 9.78734 10.167 9.65934 10.167C9.53134 10.167 9.40332 10.1183 9.30599 10.0203L7.99268 8.70703L6.67936 10.0203C6.58203 10.1177 6.45401 10.167 6.32601 10.167C6.19801 10.167 6.06999 10.1183 5.97266 10.0203C5.77732 9.82501 5.77732 9.50832 5.97266 9.31299L7.28597 7.99967L5.97266 6.68636C5.77732 6.49103 5.77732 6.17434 5.97266 5.979C6.16799 5.78367 6.48468 5.78367 6.68001 5.979L7.99333 7.29232L9.30664 5.979C9.50197 5.78367 9.81866 5.78367 10.014 5.979C10.2093 6.17434 10.2093 6.49103 10.014 6.68636L8.70068 7.99967L10.0127 9.31299Z" fill="#3B3B3E"/>
</svg>
