<svg width="16" height="16" viewBox="0 0 16 16" fill="none" xmlns="http://www.w3.org/2000/svg">
<path d="M7.99967 1.33301C4.31967 1.33301 1.33301 4.31967 1.33301 7.99967C1.33301 11.6797 4.31967 14.6663 7.99967 14.6663C11.6797 14.6663 14.6663 11.6797 14.6663 7.99967C14.6663 4.31967 11.6797 1.33301 7.99967 1.33301ZM5.99967 10.4997C5.51967 10.4997 5.16634 10.0063 5.16634 9.33301C5.16634 8.65967 5.51967 8.16634 5.99967 8.16634C6.47967 8.16634 6.83301 8.65967 6.83301 9.33301C6.83301 10.0063 6.47967 10.4997 5.99967 10.4997ZM9.99967 10.4997C9.51967 10.4997 9.16634 10.0063 9.16634 9.33301C9.16634 8.65967 9.51967 8.16634 9.99967 8.16634C10.4797 8.16634 10.833 8.65967 10.833 9.33301C10.833 10.0063 10.4797 10.4997 9.99967 10.4997ZM10.9597 6.39968C10.8663 6.46634 10.7663 6.49967 10.6597 6.49967C10.5063 6.49967 10.3597 6.43301 10.2597 6.29967C9.72635 5.59301 8.87967 5.16634 7.99967 5.16634C7.11967 5.16634 6.27966 5.57967 5.73299 6.29967C5.56632 6.51967 5.253 6.55967 5.033 6.39301C4.813 6.22634 4.77299 5.913 4.93966 5.693C5.67966 4.71967 6.79301 4.15968 8.00635 4.15968C9.21968 4.15968 10.3463 4.733 11.0663 5.693C11.233 5.913 11.1863 6.22634 10.9663 6.39301L10.9597 6.39968Z" fill="#3B3B3E"/>
</svg>
