<svg width="16" height="16" viewBox="0 0 16 16" fill="none" xmlns="http://www.w3.org/2000/svg">
<path d="M13.3337 3V4.50667C13.3337 4.77334 13.227 5.02667 13.0404 5.21334L13.0003 5.25334C12.9603 5.29334 12.9137 5.31333 12.8604 5.31333C12.8337 5.31333 12.807 5.30667 12.7804 5.30001C12.087 4.99334 11.2737 4.90667 10.4403 5.10667C9.08035 5.43334 8.00031 6.56667 7.73364 7.94C7.44031 9.48734 8.11429 10.8947 9.24829 11.674C9.30162 11.7107 9.33366 11.7693 9.33366 11.834V14L6.66699 12V9.33468C6.66699 9.06934 6.5617 8.81467 6.3737 8.62667L2.96029 5.21334C2.77229 5.02534 2.66699 4.77066 2.66699 4.50533V3C2.66699 2.448 3.11499 2 3.66699 2H12.3337C12.8857 2 13.3337 2.448 13.3337 3ZM11.3337 6C9.86033 6 8.66699 7.19333 8.66699 8.66667C8.66699 10.14 9.86033 11.3333 11.3337 11.3333C12.807 11.3333 14.0003 10.14 14.0003 8.66667C14.0003 7.19333 12.807 6 11.3337 6ZM12.2336 9.1C12.367 9.22666 12.367 9.44 12.2336 9.56667C12.1736 9.63334 12.087 9.66667 12.0003 9.66667C11.9137 9.66667 11.827 9.63334 11.767 9.56667L11.3337 9.13999L10.9003 9.56667C10.8403 9.63334 10.7537 9.66667 10.667 9.66667C10.5803 9.66667 10.4937 9.63334 10.4337 9.56667C10.3003 9.44 10.3003 9.22666 10.4337 9.1L10.8604 8.66667L10.4337 8.23334C10.3003 8.10667 10.3003 7.89333 10.4337 7.76666C10.5603 7.63333 10.7736 7.63333 10.9003 7.76666L11.3337 8.19334L11.767 7.76666C11.8937 7.63333 12.107 7.63333 12.2336 7.76666C12.367 7.89333 12.367 8.10667 12.2336 8.23334L11.807 8.66667L12.2336 9.1Z" fill="#3B3B3E"/>
</svg>
