<svg width="16" height="16" viewBox="0 0 16 16" fill="none" xmlns="http://www.w3.org/2000/svg">
<path d="M14.5 8C14.5 8.276 14.276 8.5 14 8.5H13V12C13 13.5267 12.1933 14.3333 10.6667 14.3333H5.33333C3.80667 14.3333 3 13.5267 3 12V8.5H2C1.724 8.5 1.5 8.276 1.5 8C1.5 7.724 1.724 7.5 2 7.5H14C14.276 7.5 14.5 7.724 14.5 8ZM3.33333 6.5C3.60933 6.5 3.83333 6.276 3.83333 6V4C3.83333 2.94867 4.282 2.5 5.33333 2.5H10.6667C11.718 2.5 12.1667 2.94867 12.1667 4V6C12.1667 6.276 12.3907 6.5 12.6667 6.5C12.9427 6.5 13.1667 6.276 13.1667 6V4C13.1667 2.388 12.2787 1.5 10.6667 1.5H5.33333C3.72133 1.5 2.83333 2.388 2.83333 4V6C2.83333 6.276 3.05733 6.5 3.33333 6.5Z" fill="#3B3B3E"/>
</svg>
