<svg width="16" height="16" viewBox="0 0 16 16" fill="none" xmlns="http://www.w3.org/2000/svg">
<path d="M14.5 7.33333V11.3333C14.5 12.9453 13.612 13.8333 12 13.8333H4C2.388 13.8333 1.5 12.9453 1.5 11.3333V4.66667C1.5 3.05467 2.388 2.16667 4 2.16667H9.33333C9.60933 2.16667 9.83333 2.39067 9.83333 2.66667C9.83333 2.94267 9.60933 3.16667 9.33333 3.16667H4C2.94867 3.16667 2.5 3.61533 2.5 4.66667V10.8333L4.19336 9.13997C4.45336 8.87997 4.87997 8.87997 5.13997 9.13997L5.76668 9.7666C5.89335 9.89327 6.10665 9.89327 6.23332 9.7666L9.52669 6.47331C9.78669 6.21331 10.2133 6.21331 10.4733 6.47331L13.5 9.5V7.33333C13.5 7.05733 13.724 6.83333 14 6.83333C14.276 6.83333 14.5 7.05733 14.5 7.33333ZM5.32869 5.16667C4.86936 5.16667 4.5 5.54 4.5 6C4.5 6.46 4.87597 6.83333 5.33464 6.83333C5.79397 6.83333 6.16667 6.46 6.16667 6C6.16667 5.54 5.79464 5.16667 5.33464 5.16667H5.32869ZM12.6466 5.02002C12.6926 5.06602 12.748 5.1026 12.8087 5.12793C12.8693 5.15326 12.9347 5.16667 13 5.16667C13.0653 5.16667 13.13 5.15326 13.1913 5.12793C13.2527 5.1026 13.3074 5.06602 13.3534 5.02002L14.3534 4.02002C14.5487 3.82469 14.5487 3.508 14.3534 3.31266C14.158 3.11733 13.8413 3.11733 13.646 3.31266L13.4993 3.45931V2C13.4993 1.724 13.2753 1.5 12.9993 1.5C12.7233 1.5 12.4993 1.724 12.4993 2V3.45931L12.3527 3.31266C12.1574 3.11733 11.8407 3.11733 11.6453 3.31266C11.45 3.508 11.45 3.82469 11.6453 4.02002L12.6466 5.02002Z" fill="#3B3B3E"/>
</svg>
