<svg width="16" height="16" viewBox="0 0 16 16" fill="none" xmlns="http://www.w3.org/2000/svg">
<path d="M10.6468 6C10.4268 6 10.2135 6.02002 10.0002 6.06002C9.77483 5.69402 9.49615 5.36398 9.17415 5.08065C8.41215 4.40865 7.41016 4 6.31283 4C3.91949 4 1.97949 5.94 1.97949 8.33333C1.97949 10.7267 3.91949 12.6667 6.31283 12.6667H10.6462C12.4862 12.6667 13.9795 11.1733 13.9795 9.33333C13.9795 7.49333 12.4868 6 10.6468 6ZM9.3335 9.5H8.50016V10.3333C8.50016 10.6093 8.27616 10.8333 8.00016 10.8333C7.72416 10.8333 7.50016 10.6093 7.50016 10.3333V9.5H6.66683C6.39083 9.5 6.16683 9.276 6.16683 9C6.16683 8.724 6.39083 8.5 6.66683 8.5H7.50016V7.66667C7.50016 7.39067 7.72416 7.16667 8.00016 7.16667C8.27616 7.16667 8.50016 7.39067 8.50016 7.66667V8.5H9.3335C9.6095 8.5 9.8335 8.724 9.8335 9C9.8335 9.276 9.6095 9.5 9.3335 9.5Z" fill="#3B3B3E"/>
</svg>
