<svg width="16" height="16" viewBox="0 0 16 16" fill="none" xmlns="http://www.w3.org/2000/svg">
<path d="M12.673 8.33366C12.803 8.33366 12.937 8.36233 13.0643 8.41566C13.133 8.44699 13.333 8.42032 13.333 8.23432V4.66699C13.333 3.33366 12.6663 2.66699 11.333 2.66699H3.33301C1.99967 2.66699 1.33301 3.33366 1.33301 4.66699V10.667C1.33301 12.0003 1.99967 12.667 3.33301 12.667H9.61898C9.75631 12.667 9.8463 12.5337 9.80697 12.4023C9.7143 12.0943 9.66699 11.763 9.66699 11.407V10.1137C9.66699 9.66699 9.96038 9.27366 10.387 9.15366C11.3604 8.86699 11.787 8.66032 12.2137 8.44699C12.3597 8.37366 12.513 8.33366 12.673 8.33366ZM11.2936 5.73766L8.01904 8.11899C7.81371 8.26832 7.57301 8.343 7.33301 8.343C7.09301 8.343 6.85164 8.26833 6.64697 8.11966L3.3724 5.73766C3.14906 5.57566 3.0997 5.26232 3.26237 5.03899C3.42437 4.81699 3.73627 4.76566 3.96094 4.929L7.23568 7.31032C7.29434 7.35232 7.37232 7.35299 7.43099 7.31032L10.7057 4.929C10.9304 4.76566 11.2423 4.81632 11.4043 5.03899C11.567 5.26299 11.517 5.57566 11.2936 5.73766ZM14.6663 10.0777C14.6663 10.3563 14.6663 11.1217 14.6663 11.4077C14.6663 12.963 13.4163 13.741 12.6663 14.0003C11.9163 13.741 10.6663 12.963 10.6663 11.4077C10.6663 11.131 10.6663 10.3763 10.6663 10.1117C11.6663 9.81833 12.1664 9.59299 12.6704 9.33366C13.1664 9.59299 13.6663 9.81832 14.6663 10.0777Z" fill="#3B3B3E"/>
</svg>
