<svg width="16" height="16" viewBox="0 0 16 16" fill="none" xmlns="http://www.w3.org/2000/svg">
<path d="M10 12.9999V12.3332C10 11.6665 10.3333 11.3332 11 11.3332H13C13.6667 11.3332 14 11.6665 14 12.3332V12.9999C14 13.6665 13.6667 13.9999 13 13.9999H11C10.3333 13.9999 10 13.6665 10 12.9999ZM3.96667 8.83319H3C2.17333 8.83319 1.5 9.50652 1.5 10.3332V12.9999C1.5 13.8265 2.17333 14.4999 3 14.4999H3.96667C4.08001 14.4999 4.16667 14.4132 4.16667 14.2999V9.03319C4.16667 8.91986 4.08001 8.83319 3.96667 8.83319V8.83319ZM12.18 1.53319C11.92 1.43319 11.6333 1.55985 11.5333 1.81985L9.17334 7.87986C8.94667 8.45319 8.39332 8.83319 7.77332 8.83319H5.35999C5.24665 8.83319 5.15999 8.91986 5.15999 9.03319V14.4999H5.96C6.98667 14.4999 7.92 13.8599 8.28666 12.9065L12.46 2.17986C12.56 1.91986 12.4333 1.63319 12.1733 1.53319H12.18Z" fill="#3B3B3E"/>
</svg>
