<svg width="16" height="16" viewBox="0 0 16 16" fill="none" xmlns="http://www.w3.org/2000/svg">
<path d="M7.99967 1.33301C4.32367 1.33301 1.33301 4.32367 1.33301 7.99967C1.33301 11.6757 4.32367 14.6663 7.99967 14.6663C8.36834 14.6663 8.66634 14.3677 8.66634 13.9997C8.66634 13.6317 8.36834 13.333 7.99967 13.333C5.05901 13.333 2.66634 10.9403 2.66634 7.99967C2.66634 5.05901 5.05901 2.66634 7.99967 2.66634C10.9403 2.66634 13.333 5.05901 13.333 7.99967C13.333 8.99034 12.6597 9.99967 11.9997 9.99967C11.383 9.99967 10.9997 9.48901 10.9997 8.66634V5.66634C10.9997 5.29834 10.7017 4.99967 10.333 4.99967C10.0137 4.99967 9.75967 5.22834 9.69434 5.52767C9.21167 5.19567 8.62834 4.99967 7.99967 4.99967C6.34567 4.99967 4.99967 6.34567 4.99967 7.99967C4.99967 9.65367 6.34567 10.9997 7.99967 10.9997C8.79034 10.9997 9.505 10.6864 10.0417 10.185C10.4857 10.9604 11.2577 11.333 11.9997 11.333C13.571 11.333 14.6663 9.57634 14.6663 7.99967C14.6663 4.32367 11.6757 1.33301 7.99967 1.33301ZM7.99967 9.66634C7.08034 9.66634 6.33301 8.91834 6.33301 7.99967C6.33301 7.08101 7.08034 6.33301 7.99967 6.33301C8.91901 6.33301 9.66634 7.08101 9.66634 7.99967C9.66634 8.91834 8.91901 9.66634 7.99967 9.66634Z" fill="#3B3B3E"/>
</svg>
