<svg width="16" height="16" viewBox="0 0 16 16" fill="none" xmlns="http://www.w3.org/2000/svg">
<path d="M10.053 12.36L8.70703 13.706C8.31636 14.0967 7.68297 14.0967 7.29297 13.706L5.94702 12.36C5.59502 12.008 5.03765 11.9687 4.63965 12.2674L3.73364 12.9467C3.29431 13.276 2.66699 12.9627 2.66699 12.4134V3.58469C2.66699 3.03535 3.29431 2.72203 3.73364 3.05136L4.63965 3.73068C5.03765 4.02935 5.59502 3.99003 5.94702 3.63803L7.29297 2.29202C7.68364 1.90136 8.31703 1.90136 8.70703 2.29202L10.053 3.63803C10.405 3.99003 10.9624 4.02935 11.3604 3.73068L12.2664 3.05136C12.7057 2.72203 13.333 3.03535 13.333 3.58469V12.4134C13.333 12.9627 12.7057 13.276 12.2664 12.9467L11.3604 12.2674C10.9624 11.9687 10.405 12.008 10.053 12.36Z" fill="#3B3B3E"/>
</svg>
