<svg width="16" height="16" viewBox="0 0 16 16" fill="none" xmlns="http://www.w3.org/2000/svg">
<path d="M7.66634 13.373V8.49967H1.49967C1.40634 8.49967 1.33301 8.57301 1.33301 8.66634C1.33301 9.99967 1.99967 10.6663 3.33301 10.6663H5.99967V12.833H4.33301C4.05967 12.833 3.83301 13.0597 3.83301 13.333C3.83301 13.6063 4.05967 13.833 4.33301 13.833H7.69971C7.67971 13.6863 7.66634 13.533 7.66634 13.373ZM11.333 1.33301H3.33301C1.99967 1.33301 1.33301 1.99967 1.33301 3.33301V7.33301C1.33301 7.42634 1.40634 7.49967 1.49967 7.49967H7.69971C7.87304 6.35967 8.69963 5.66634 9.95296 5.66634C9.95296 5.66634 12.953 5.66634 13.133 5.66634C13.273 5.66634 13.333 5.54631 13.333 5.46631C13.333 5.38631 13.333 3.33301 13.333 3.33301C13.333 1.99967 12.6663 1.33301 11.333 1.33301ZM13.3804 6.66634H9.95166C9.09433 6.66634 8.66569 7.0976 8.66569 7.96094V13.3717C8.66569 14.2351 9.09433 14.6663 9.95166 14.6663H13.3804C14.2377 14.6663 14.6663 14.2351 14.6663 13.3717V7.96094C14.6663 7.0976 14.2377 6.66634 13.3804 6.66634ZM11.6663 13.6663C11.2983 13.6663 10.9997 13.3677 10.9997 12.9997C10.9997 12.6317 11.2983 12.333 11.6663 12.333C12.0343 12.333 12.333 12.6317 12.333 12.9997C12.333 13.3677 12.0343 13.6663 11.6663 13.6663Z" fill="#3B3B3E"/>
</svg>
