<svg width="16" height="16" viewBox="0 0 16 16" fill="none" xmlns="http://www.w3.org/2000/svg">
<path fill-rule="evenodd" clip-rule="evenodd" d="M9.05534 8.61183C9.05534 9.4085 8.40733 10.0565 7.61133 10.0565C6.81466 10.0565 6.16667 9.4085 6.16667 8.61183C6.16667 7.81516 6.81466 7.16717 7.61133 7.16717C8.40733 7.16717 9.05534 7.81516 9.05534 8.61183ZM14 7.76784V12.0005C14 13.3338 13.3333 14.0005 12 14.0005H4C2.66667 14.0005 2 13.3338 2 12.0005V7.76784C2 6.43584 2.3487 6.23121 2.95337 5.72454L6.92936 2.39048C7.5487 1.87114 8.45204 1.87114 9.07137 2.39048L13.0474 5.72454C13.6514 6.23121 14 6.43517 14 7.76784ZM10.6867 10.9805L9.65332 9.9472C9.90532 9.56253 10.0547 9.10451 10.0547 8.61118C10.0547 7.26385 8.95801 6.16652 7.61068 6.16652C6.26268 6.16652 5.16602 7.26318 5.16602 8.61118C5.16602 9.95918 6.26268 11.0558 7.61068 11.0558C8.10401 11.0558 8.56196 10.9065 8.94596 10.6538L9.97868 11.6865C10.076 11.7839 10.204 11.8332 10.332 11.8332C10.46 11.8332 10.588 11.7845 10.6853 11.6865C10.882 11.4919 10.882 11.1758 10.6867 10.9805Z" fill="#3B3B3E"/>
</svg>
