<svg width="16" height="16" viewBox="0 0 16 16" fill="none" xmlns="http://www.w3.org/2000/svg">
<path d="M3.24183 10.5836L2.02918 5.89491C1.83918 5.19691 2.61653 4.63693 3.21786 5.03826L4.76184 6.06758C5.09318 6.28891 5.54383 6.16292 5.71383 5.80226L7.28984 2.44958C7.57117 1.85024 8.42385 1.85026 8.70585 2.44892L10.2859 5.80291C10.4559 6.16357 10.9059 6.28824 11.2372 6.06758L12.7812 5.03826C13.3832 4.63693 14.1605 5.19757 13.9699 5.89491L12.7572 10.5836C12.6432 11.0249 12.2452 11.3329 11.7892 11.3329H4.20919C3.75386 11.3329 3.35583 11.0249 3.24183 10.5836ZM12.8332 13.3329C12.8332 13.0569 12.6092 12.8329 12.3332 12.8329H3.66651C3.39051 12.8329 3.16651 13.0569 3.16651 13.3329C3.16651 13.6089 3.39051 13.8329 3.66651 13.8329H12.3332C12.6092 13.8329 12.8332 13.6089 12.8332 13.3329Z" fill="#3B3B3E"/>
</svg>
