<svg width="16" height="16" viewBox="0 0 16 16" fill="none" xmlns="http://www.w3.org/2000/svg">
<path d="M12 4.66699H8.66667L6.66667 2.66699H4C2.66667 2.66699 2 3.33366 2 4.66699V11.3337C2 12.667 2.66667 13.3337 4 13.3337H12C13.3333 13.3337 14 12.667 14 11.3337V6.66699C14 5.33366 13.3333 4.66699 12 4.66699ZM10.2894 8.90299C9.98539 10.4457 8 11.3337 8 11.3337C8 11.3337 6.01461 10.4457 5.71061 8.90299C5.52395 7.95699 5.93192 7.00499 6.96859 7.00033C7.74059 6.99699 8 7.76233 8 7.76233C8 7.76233 8.25941 6.99699 9.03141 7.00033C10.0701 7.00499 10.4761 7.95699 10.2894 8.90299Z" fill="#3B3B3E"/>
</svg>
