<svg width="16" height="16" viewBox="0 0 16 16" fill="none" xmlns="http://www.w3.org/2000/svg">
<path d="M6.41341 3.66667C4.69341 3.66667 3.66667 4.69333 3.66667 6.41333V11.1167C3.66667 11.2333 3.56327 11.3313 3.44727 11.32C2.48593 11.224 2 10.6427 2 9.58667V3.74666C2 2.58666 2.58674 2 3.74674 2H9.58659C10.6426 2 11.224 2.48601 11.32 3.44735C11.332 3.56335 11.234 3.66667 11.1174 3.66667H6.41341V3.66667ZM14 6.41667V12.25C14 13.4167 13.4167 14 12.25 14H6.41667C5.25 14 4.66667 13.4167 4.66667 12.25V11.3333V6.41667C4.66667 5.25 5.25 4.66667 6.41667 4.66667H11.3333H12.25C13.4167 4.66667 14 5.25 14 6.41667ZM11.5 9.33333C11.5 9.05733 11.276 8.83333 11 8.83333H9.83333V7.66667C9.83333 7.39067 9.60933 7.16667 9.33333 7.16667C9.05733 7.16667 8.83333 7.39067 8.83333 7.66667V8.83333H7.66667C7.39067 8.83333 7.16667 9.05733 7.16667 9.33333C7.16667 9.60933 7.39067 9.83333 7.66667 9.83333H8.83333V11C8.83333 11.276 9.05733 11.5 9.33333 11.5C9.60933 11.5 9.83333 11.276 9.83333 11V9.83333H11C11.276 9.83333 11.5 9.60933 11.5 9.33333Z" fill="#3B3B3E"/>
</svg>
