<svg width="16" height="16" viewBox="0 0 16 16" fill="none" xmlns="http://www.w3.org/2000/svg">
<path d="M8.00099 2C4.68766 2 2.00164 4.68602 2.00164 7.99935C2.00164 8.89268 2.20169 9.746 2.55503 10.5053C2.69503 10.7987 2.69507 11.1387 2.59507 11.452L2.03501 13.1187C1.86167 13.6387 2.36169 14.1387 2.88169 13.9653L4.54835 13.4053C4.86169 13.3053 5.20164 13.3054 5.49497 13.4454C6.25497 13.7987 7.10831 13.9987 8.00164 13.9987C11.315 13.9987 14.001 11.3127 14.001 7.99935C14.0003 4.68602 11.3143 2 8.00099 2ZM5.33498 8.66667C4.96698 8.66667 4.66505 8.368 4.66505 8C4.66505 7.632 4.9603 7.33333 5.3283 7.33333H5.33498C5.70364 7.33333 6.00164 7.632 6.00164 8C6.00164 8.368 5.70364 8.66667 5.33498 8.66667ZM8.00164 8.66667C7.63364 8.66667 7.33172 8.368 7.33172 8C7.33172 7.632 7.62697 7.33333 7.99497 7.33333H8.00164C8.37031 7.33333 8.66831 7.632 8.66831 8C8.66831 8.368 8.37031 8.66667 8.00164 8.66667ZM10.6683 8.66667C10.3003 8.66667 9.99839 8.368 9.99839 8C9.99839 7.632 10.2936 7.33333 10.6616 7.33333H10.6683C11.037 7.33333 11.335 7.632 11.335 8C11.335 8.368 11.037 8.66667 10.6683 8.66667Z" fill="#3B3B3E"/>
</svg>
