<svg width="16" height="16" viewBox="0 0 16 16" fill="none" xmlns="http://www.w3.org/2000/svg">
<path d="M14 7.5H12.64C12.6407 7.50333 12.64 7.50594 12.6407 7.50928C12.412 5.32394 10.6767 3.58804 8.49133 3.35938C8.494 3.35938 8.49733 3.35936 8.5 3.36003V2C8.5 1.72667 8.27333 1.5 8 1.5C7.72667 1.5 7.5 1.72667 7.5 2V3.36003C7.50267 3.36003 7.506 3.36004 7.50867 3.35938C5.32333 3.58804 3.588 5.32394 3.35933 7.50928C3.36 7.50594 3.35932 7.50333 3.35999 7.5H2C1.72667 7.5 1.5 7.72667 1.5 8C1.5 8.27333 1.72667 8.5 2 8.5H3.35999C3.35932 8.49667 3.36 8.49406 3.35933 8.49072C3.588 10.6761 5.324 12.412 7.50867 12.6406C7.506 12.6406 7.50267 12.6406 7.5 12.64V14C7.5 14.2733 7.72667 14.5 8 14.5C8.27333 14.5 8.5 14.2733 8.5 14V12.64C8.49733 12.64 8.494 12.64 8.49133 12.6406C10.6767 12.412 12.412 10.6761 12.6407 8.49072C12.64 8.49406 12.6407 8.49667 12.64 8.5H14C14.2733 8.5 14.5 8.27333 14.5 8C14.5 7.72667 14.2733 7.5 14 7.5ZM8 9.66667C7.07933 9.66667 6.33333 8.92067 6.33333 8C6.33333 7.07933 7.07933 6.33333 8 6.33333C8.92067 6.33333 9.66667 7.07933 9.66667 8C9.66667 8.92067 8.92067 9.66667 8 9.66667Z" fill="#3B3B3E"/>
</svg>
