<svg width="16" height="16" viewBox="0 0 16 16" fill="none" xmlns="http://www.w3.org/2000/svg">
<path d="M14.0192 6.43721L9.56254 1.98051C8.69921 1.11717 7.29988 1.11717 6.43721 1.98051L1.98051 6.43721C1.11717 7.30055 1.11717 8.69987 1.98051 9.56254L6.43721 14.0192C7.30055 14.8826 8.69987 14.8826 9.56254 14.0192L14.0192 9.56254C14.8826 8.69987 14.8826 7.29988 14.0192 6.43721ZM7.49988 5.66654C7.49988 5.39054 7.72388 5.16654 7.99988 5.16654C8.27588 5.16654 8.49988 5.39054 8.49988 5.66654V8.33321C8.49988 8.60921 8.27588 8.83321 7.99988 8.83321C7.72388 8.83321 7.49988 8.60921 7.49988 8.33321V5.66654ZM8.01322 10.9999C7.64522 10.9999 7.34314 10.7012 7.34314 10.3332C7.34314 9.96521 7.63855 9.66654 8.00655 9.66654H8.01322C8.38189 9.66654 8.67989 9.96521 8.67989 10.3332C8.67989 10.7012 8.38122 10.9999 8.01322 10.9999Z" fill="#3B3B3E"/>
</svg>
