<svg width="16" height="16" viewBox="0 0 16 16" fill="none" xmlns="http://www.w3.org/2000/svg">
<path d="M12 2H4C2.66667 2 2 2.66667 2 4V9.33333C2 10.6667 2.66667 11.3333 4 11.3333H6.66667V13.5H5C4.724 13.5 4.5 13.724 4.5 14C4.5 14.276 4.724 14.5 5 14.5H11C11.276 14.5 11.5 14.276 11.5 14C11.5 13.724 11.276 13.5 11 13.5H9.33333V11.3333H12C13.3333 11.3333 14 10.6667 14 9.33333V4C14 2.66667 13.3333 2 12 2ZM7.02002 7.64665C7.21535 7.84198 7.21535 8.15867 7.02002 8.354C6.92269 8.45134 6.79467 8.50065 6.66667 8.50065C6.53867 8.50065 6.41065 8.452 6.31331 8.354L4.97998 7.02067C4.78465 6.82534 4.78465 6.50865 4.97998 6.31331L6.31331 4.97998C6.50865 4.78465 6.82534 4.78465 7.02067 4.97998C7.216 5.17531 7.216 5.492 7.02067 5.68734L6.04069 6.66732L7.02002 7.64665ZM11.02 7.02002L9.68669 8.35335C9.58935 8.45069 9.46133 8.5 9.33333 8.5C9.20533 8.5 9.07731 8.45135 8.97998 8.35335C8.78465 8.15802 8.78465 7.84133 8.97998 7.646L9.95996 6.66602L8.97998 5.68604C8.78465 5.4907 8.78465 5.17401 8.97998 4.97868C9.17531 4.78335 9.492 4.78335 9.68734 4.97868L11.0207 6.31201C11.2153 6.50868 11.2154 6.82469 11.02 7.02002Z" fill="#3B3B3E"/>
</svg>
