<svg width="16" height="16" viewBox="0 0 16 16" fill="none" xmlns="http://www.w3.org/2000/svg">
<path d="M14 1.5H2C1.724 1.5 1.5 1.724 1.5 2C1.5 2.276 1.724 2.5 2 2.5H2.66667V8.66667C2.66667 10.1933 3.47333 11 5 11H7.5V12.4L5.72 13.5867C5.49333 13.74 5.43334 14.0467 5.58667 14.28C5.74 14.5067 6.04667 14.5667 6.28 14.4133L8 13.2667L9.72 14.4133C9.80667 14.4733 9.90667 14.5 10 14.5C10.16 14.5 10.32 14.42 10.4133 14.28C10.5667 14.0467 10.5067 13.74 10.28 13.5867L8.5 12.4V11H11C12.5267 11 13.3333 10.1933 13.3333 8.66667V2.5H14C14.276 2.5 14.5 2.276 14.5 2C14.5 1.724 14.276 1.5 14 1.5ZM11.02 5.62004L9.53 7.11003C9.128 7.51269 8.47266 7.51333 8.07 7.11133L7.22267 6.2653L5.68734 7.75334C5.59 7.85067 5.462 7.89998 5.334 7.89998C5.206 7.89998 5.078 7.85134 4.98066 7.75334C4.78533 7.558 4.78533 7.24131 4.98066 7.04598L6.46867 5.55802C6.872 5.15536 7.52733 5.15537 7.92933 5.55737L8.77666 6.40332L10.314 4.91333C10.5093 4.718 10.826 4.718 11.0213 4.91333C11.2167 5.10866 11.2153 5.4247 11.02 5.62004Z" fill="#3B3B3E"/>
</svg>
