<svg width="16" height="16" viewBox="0 0 16 16" fill="none" xmlns="http://www.w3.org/2000/svg">
<path d="M13.9937 8.07983C13.9403 8.5265 13.8337 8.95983 13.6803 9.37317C13.6537 9.45317 13.5737 9.50651 13.487 9.50651H2.50033C2.41366 9.50651 2.34033 9.45317 2.307 9.37317C2.16033 8.95983 2.05366 8.53317 1.99366 8.07983C1.947 7.6865 2.26033 7.33317 2.66033 7.33317H13.3137C13.7137 7.33317 14.027 7.67983 13.9803 8.07983H13.9937ZM12.747 10.4998H3.24699C3.08699 10.4998 2.98699 10.6865 3.08032 10.8132C3.57366 11.5065 4.20699 12.0865 4.94033 12.5198C5.15366 12.6398 5.28699 12.8598 5.28699 13.0998V13.3332C5.28699 13.6998 5.58699 13.9998 5.95365 13.9998H10.0337C10.4003 13.9998 10.7003 13.6998 10.7003 13.3332V13.0998C10.7003 12.8532 10.8403 12.6398 11.047 12.5198C11.7803 12.0932 12.4137 11.5065 12.907 10.8132C13.0003 10.6798 12.9003 10.4998 12.7403 10.4998H12.747ZM14.0003 3.1665H6.73366C6.65366 2.73317 6.47366 2.37983 6.18033 2.11983C5.76699 1.75316 5.18033 1.60651 4.48033 1.69318L3.34032 1.83317C2.38699 1.9465 1.66699 2.73984 1.66699 3.67318C1.66699 4.60651 2.38699 5.39983 3.34032 5.51316L4.47366 5.65318C4.60033 5.66651 4.72699 5.67318 4.84699 5.67318C5.38699 5.67318 5.84033 5.51983 6.18033 5.21983C6.47366 4.95983 6.66033 4.60651 6.73366 4.17318H14.0003C14.2737 4.17318 14.5003 3.94651 14.5003 3.67318C14.5003 3.39984 14.2737 3.17318 14.0003 3.17318V3.1665Z" fill="#3B3B3E"/>
</svg>
