<svg width="16" height="16" viewBox="0 0 16 16" fill="none" xmlns="http://www.w3.org/2000/svg">
<path d="M7.99967 1.33398C4.31767 1.33398 1.33301 4.31865 1.33301 8.00065C1.33301 11.6827 4.31767 14.6673 7.99967 14.6673C11.6817 14.6673 14.6663 11.6827 14.6663 8.00065C14.6663 4.31865 11.6817 1.33398 7.99967 1.33398ZM8.00505 4.66732C9.10971 4.66732 10.005 5.56265 10.005 6.66732C10.005 7.77198 9.10971 8.66732 8.00505 8.66732C6.90038 8.66732 6.00505 7.77198 6.00505 6.66732C6.00505 5.56265 6.90038 4.66732 8.00505 4.66732ZM7.99967 13.6673C6.52634 13.6673 5.17968 13.1007 4.17301 12.174C4.46635 11.254 5.22637 10.3806 6.8597 10.3806H9.13965C10.7663 10.3806 11.5263 11.2607 11.8263 12.174C10.8197 13.1007 9.47301 13.6673 7.99967 13.6673Z" fill="#3B3B3E"/>
</svg>
