<svg width="16" height="16" viewBox="0 0 16 16" fill="none" xmlns="http://www.w3.org/2000/svg">
<path d="M9.83301 4V2.5L12.833 5.5H11.333C10.2797 5.5 9.83301 5.05333 9.83301 4ZM13.333 6.5V12C13.333 13.3333 12.6663 14 11.333 14H5.33301C3.99967 14 3.33301 13.3333 3.33301 12V4C3.33301 2.66667 3.99967 2 5.33301 2H8.83301V4C8.83301 5.61333 9.71967 6.5 11.333 6.5H13.333ZM10.353 7.86866C10.1577 7.67333 9.841 7.67333 9.64567 7.86866L7.77702 9.73734L7.01904 8.98C6.82371 8.78467 6.50702 8.78467 6.31169 8.98C6.11635 9.17533 6.11635 9.492 6.31169 9.68734L7.42301 10.7987C7.51701 10.8927 7.6437 10.9453 7.77637 10.9453C7.90903 10.9453 8.03639 10.8927 8.12972 10.7987L10.3517 8.57667C10.5484 8.38067 10.5484 8.064 10.353 7.86866Z" fill="#3B3B3E"/>
</svg>
