<svg width="16" height="16" viewBox="0 0 16 16" fill="none" xmlns="http://www.w3.org/2000/svg">
<path d="M11.9999 3.99967V7.99967C11.9999 8.36767 11.7019 8.66634 11.3332 8.66634C10.9645 8.66634 10.6665 8.36767 10.6665 7.99967V5.60905L4.47122 11.8044C4.34122 11.9344 4.17053 11.9997 3.99986 11.9997C3.8292 11.9997 3.65851 11.9344 3.52851 11.8044C3.26784 11.5437 3.26784 11.1223 3.52851 10.8617L9.72382 4.66634H7.3332C6.96453 4.66634 6.66653 4.36767 6.66653 3.99967C6.66653 3.63167 6.96453 3.33301 7.3332 3.33301H11.3332C11.4199 3.33301 11.5066 3.35094 11.5879 3.38428C11.7512 3.45161 11.8813 3.58162 11.9486 3.74495C11.9826 3.82629 11.9999 3.91301 11.9999 3.99967Z" fill="#3B3B3E"/>
</svg>
