<svg width="16" height="16" viewBox="0 0 16 16" fill="none" xmlns="http://www.w3.org/2000/svg">
<path d="M14 6.66699V4.66699C14 3.33366 13.3333 2.66699 12 2.66699H10.7C10.5894 2.66699 10.5 2.75632 10.5 2.86698V5.00033C10.5 5.27366 10.2733 5.50033 10 5.50033C9.72667 5.50033 9.5 5.27366 9.5 5.00033V2.86698C9.5 2.75632 9.41063 2.66699 9.29997 2.66699H4C2.66667 2.66699 2 3.33366 2 4.66699V6.66699C2.73333 6.66699 3.33333 7.26699 3.33333 8.00033C3.33333 8.73366 2.73333 9.33366 2 9.33366V11.3337C2 12.667 2.66667 13.3337 4 13.3337H9.29997C9.41063 13.3337 9.5 13.2443 9.5 13.1337V11.0003C9.5 10.727 9.72667 10.5003 10 10.5003C10.2733 10.5003 10.5 10.727 10.5 11.0003V13.1337C10.5 13.2443 10.5894 13.3337 10.7 13.3337H12C13.3333 13.3337 14 12.667 14 11.3337V9.33366C13.2667 9.33366 12.6667 8.73366 12.6667 8.00033C12.6667 7.26699 13.2667 6.66699 14 6.66699ZM10.5 8.83366C10.5 9.10966 10.276 9.33366 10 9.33366C9.724 9.33366 9.5 9.10966 9.5 8.83366V7.16699C9.5 6.89099 9.724 6.66699 10 6.66699C10.276 6.66699 10.5 6.89099 10.5 7.16699V8.83366Z" fill="#3B3B3E"/>
</svg>
