<svg width="16" height="16" viewBox="0 0 16 16" fill="none" xmlns="http://www.w3.org/2000/svg">
<path d="M11.0676 12.3579L12.3535 13.6472C12.5482 13.8425 12.5482 14.1592 12.3522 14.3545C12.2549 14.4518 12.1269 14.5005 11.9995 14.5005C11.8715 14.5005 11.7429 14.4512 11.6455 14.3532L10.1668 12.8705C9.50418 13.1658 8.77218 13.3332 8.00018 13.3332C7.22818 13.3332 6.49618 13.1658 5.83351 12.8705L4.35418 14.3532C4.25685 14.4505 4.12818 14.4999 4.00018 14.4999C3.87285 14.4999 3.74481 14.4512 3.64748 14.3539C3.45148 14.1592 3.45151 13.8418 3.64617 13.6465L4.9328 12.3579C3.56413 11.3926 2.6675 9.80185 2.6675 7.99985C2.6675 5.05452 5.0555 2.66652 8.00083 2.66652C10.9462 2.66652 13.3342 5.05452 13.3342 7.99985C13.3328 9.80185 12.4362 11.3926 11.0676 12.3579ZM3.68621 1.6465C3.49088 1.45117 3.17419 1.45117 2.97886 1.6465L1.64552 2.97983C1.45019 3.17517 1.45019 3.49186 1.64552 3.68719C1.74286 3.78452 1.87088 3.83384 1.99888 3.83384C2.12688 3.83384 2.2549 3.78519 2.35223 3.68719L3.68556 2.35386C3.88156 2.15786 3.88155 1.84183 3.68621 1.6465ZM14.3495 2.97585L13.0161 1.66921C12.8188 1.47587 12.5028 1.4792 12.3081 1.67653C12.1155 1.87386 12.1189 2.19055 12.3156 2.38389L13.6489 3.69053C13.7463 3.78586 13.8729 3.83319 13.9989 3.83319C14.1282 3.83319 14.2581 3.7832 14.3561 3.6832C14.5495 3.48587 14.5461 3.16918 14.3495 2.97585Z" fill="#3B3B3E"/>
</svg>
