<svg width="16" height="16" viewBox="0 0 16 16" fill="none" xmlns="http://www.w3.org/2000/svg">
<path d="M11.75 2H4.25C2.75 2 2 2.75 2 4.25V11.75C2 13.25 2.75 14 4.25 14H11.75C13.25 14 14 13.25 14 11.75V4.25C14 2.75 13.25 2 11.75 2ZM11.6667 9.62793C11.6667 9.8586 11.4001 9.98661 11.2201 9.84261L9.83333 8.7334V9.46663C9.83333 10.2 9.46673 10.5667 8.7334 10.5667H5.43327C4.69993 10.5667 4.33333 10.2 4.33333 9.46663V6.53337C4.33333 5.80003 4.69993 5.43327 5.43327 5.43327H8.7334C9.46673 5.43327 9.83333 5.80003 9.83333 6.53337V7.2666L11.2201 6.15739C11.4001 6.01339 11.6667 6.1414 11.6667 6.37207V9.62793Z" fill="#3B3B3E"/>
</svg>
