<svg width="16" height="16" viewBox="0 0 16 16" fill="none" xmlns="http://www.w3.org/2000/svg">
<path d="M11.75 2H4.25C2.75 2 2 2.75 2 4.25V11.75C2 13.25 2.75 14 4.25 14H11.75C13.25 14 14 13.25 14 11.75V4.25C14 2.75 13.25 2 11.75 2ZM8.66667 10.1667H5.33333C5.05733 10.1667 4.83333 9.94267 4.83333 9.66667C4.83333 9.39067 5.05733 9.16667 5.33333 9.16667H8.66667C8.94267 9.16667 9.16667 9.39067 9.16667 9.66667C9.16667 9.94267 8.94267 10.1667 8.66667 10.1667ZM10.6667 6.83333H5.33333C5.05733 6.83333 4.83333 6.60933 4.83333 6.33333C4.83333 6.05733 5.05733 5.83333 5.33333 5.83333H10.6667C10.9427 5.83333 11.1667 6.05733 11.1667 6.33333C11.1667 6.60933 10.9427 6.83333 10.6667 6.83333Z" fill="#3B3B3E"/>
</svg>
