<svg width="16" height="16" viewBox="0 0 16 16" fill="none" xmlns="http://www.w3.org/2000/svg">
<path d="M5.33333 8.5H10V11.3333V12C10 13.3333 9.33333 14 8 14H4C2.66667 14 2 13.3333 2 12V4C2 2.66667 2.66667 2 4 2H8C9.33333 2 10 2.66667 10 4V4.66667V7.5H5.33333C5.05733 7.5 4.83333 7.724 4.83333 8C4.83333 8.276 5.05733 8.5 5.33333 8.5ZM14.4613 7.80868C14.436 7.74734 14.3994 7.692 14.3534 7.646L12.3534 5.646C12.158 5.45066 11.8413 5.45066 11.646 5.646C11.4507 5.84133 11.4507 6.158 11.646 6.35333L12.7927 7.5H10V8.5H12.7927L11.646 9.64667C11.4507 9.842 11.4507 10.1587 11.646 10.354C11.7433 10.4513 11.8713 10.5007 11.9993 10.5007C12.1273 10.5007 12.2553 10.452 12.3527 10.354L14.3527 8.354C14.3987 8.308 14.4353 8.25266 14.4607 8.19133C14.512 8.06866 14.512 7.93134 14.4613 7.80868Z" fill="#3B3B3E"/>
</svg>
