<svg width="16" height="16" viewBox="0 0 16 16" fill="none" xmlns="http://www.w3.org/2000/svg">
<path d="M9.24829 11.674C9.30162 11.7107 9.33366 11.7693 9.33366 11.834V14L6.66699 12V9.33468C6.66699 9.06934 6.5617 8.81467 6.3737 8.62667L2.96029 5.21334C2.77229 5.02534 2.66699 4.77066 2.66699 4.50533V3C2.66699 2.448 3.11499 2 3.66699 2H12.3337C12.8857 2 13.3337 2.448 13.3337 3V4.50667C13.3337 4.77334 13.227 5.02667 13.0404 5.21334L13.0003 5.25334C12.9603 5.29334 12.9137 5.31333 12.8604 5.31333C12.8337 5.31333 12.807 5.30667 12.7804 5.30001C12.087 4.99334 11.2737 4.90667 10.4403 5.10667C9.08035 5.43334 8.00031 6.56667 7.73364 7.94C7.44031 9.48734 8.11429 10.894 9.24829 11.674ZM14.0003 8.66667C14.0003 10.14 12.807 11.3333 11.3337 11.3333C9.86033 11.3333 8.66699 10.14 8.66699 8.66667C8.66699 7.19333 9.86033 6 11.3337 6C12.807 6 14.0003 7.19333 14.0003 8.66667ZM12.5003 8.66667C12.5003 8.48 12.3537 8.33333 12.167 8.33333H11.667V7.83333C11.667 7.64667 11.5203 7.5 11.3337 7.5C11.147 7.5 11.0003 7.64667 11.0003 7.83333V8.33333H10.5003C10.3137 8.33333 10.167 8.48 10.167 8.66667C10.167 8.85333 10.3137 9 10.5003 9H11.0003V9.5C11.0003 9.68667 11.147 9.83333 11.3337 9.83333C11.5203 9.83333 11.667 9.68667 11.667 9.5V9H12.167C12.3537 9 12.5003 8.85333 12.5003 8.66667Z" fill="#3B3B3E"/>
</svg>
