<svg width="16" height="16" viewBox="0 0 16 16" fill="none" xmlns="http://www.w3.org/2000/svg">
<path d="M14 4V12C14 13.3333 13.3333 14 12 14H8C6.66667 14 6 13.3333 6 12V11.3333V8.5H9.45935L8.31266 9.64667C8.11733 9.842 8.11733 10.1587 8.31266 10.354C8.41 10.4513 8.53802 10.5007 8.66602 10.5007C8.79402 10.5007 8.92199 10.452 9.01933 10.354L11.0193 8.354C11.0653 8.308 11.102 8.25266 11.1273 8.19133C11.178 8.06933 11.178 7.93133 11.1273 7.80933C11.102 7.74799 11.0653 7.69267 11.0193 7.64667L9.01933 5.64667C8.82399 5.45133 8.50735 5.45133 8.31201 5.64667C8.11668 5.842 8.11668 6.15867 8.31201 6.354L9.45866 7.50067H6V4.66667V4C6 2.66667 6.66667 2 8 2H12C13.3333 2 14 2.66667 14 4ZM2 7.5C1.724 7.5 1.5 7.724 1.5 8C1.5 8.276 1.724 8.5 2 8.5H6V7.5H2Z" fill="#3B3B3E"/>
</svg>
