<svg width="16" height="16" viewBox="0 0 16 16" fill="none" xmlns="http://www.w3.org/2000/svg">
<path d="M10.8937 12.7598C10.9937 12.7865 11.047 12.8865 11.0137 12.9865C10.7604 13.8065 9.85371 14.2132 9.06038 13.8798C7.54705 13.2465 6.13371 12.3132 4.90704 11.0865C3.68037 9.85983 2.74706 8.43983 2.11373 6.93316C1.78039 6.13983 2.18706 5.23317 3.00706 4.97983C3.10706 4.9465 3.20705 5.00649 3.23372 5.09983C3.76705 6.90649 4.74705 8.5665 6.08705 9.9065C7.42705 11.2465 9.08038 12.2265 10.8937 12.7598V12.7598ZM13.9404 3.59316C13.9404 3.59316 11.8004 10.4398 11.4137 11.6665C11.3804 11.7732 11.267 11.8332 11.1604 11.7998C9.52038 11.3132 8.01372 10.4198 6.79372 9.19983C5.57372 7.97983 4.68039 6.47983 4.19372 4.83983C4.16039 4.73316 4.22038 4.61983 4.32704 4.5865C5.55371 4.19983 12.4004 2.05317 12.4004 2.05317C13.3471 1.75983 14.2337 2.6465 13.9337 3.5865L13.9404 3.59316ZM8.18038 5.99983C8.18038 5.53983 7.80704 5.1665 7.34704 5.1665C6.88704 5.1665 6.51371 5.53983 6.51371 5.99983C6.51371 6.45983 6.89371 6.83316 7.34704 6.83316C7.80038 6.83316 8.18038 6.45983 8.18038 5.99983ZM10.6804 8.6665C10.6804 8.29983 10.3804 7.99983 10.0137 7.99983C9.64704 7.99983 9.34704 8.29983 9.34704 8.6665C9.34704 9.03316 9.64704 9.33316 10.0137 9.33316C10.3804 9.33316 10.6804 9.03316 10.6804 8.6665ZM11.1804 5.33316C11.1804 5.05983 10.9604 4.83316 10.6804 4.83316C10.407 4.83316 10.1804 5.05983 10.1804 5.33316C10.1804 5.6065 10.407 5.83316 10.6804 5.83316C10.9537 5.83316 11.1804 5.6065 11.1804 5.33316Z" fill="#3B3B3E"/>
</svg>
