<svg width="16" height="16" viewBox="0 0 16 16" fill="none" xmlns="http://www.w3.org/2000/svg">
<path d="M5.99967 3.99967C5.99967 3.63167 6.29834 3.33301 6.66634 3.33301H13.9997C14.3677 3.33301 14.6663 3.63167 14.6663 3.99967C14.6663 4.36767 14.3677 4.66634 13.9997 4.66634H6.66634C6.29834 4.66634 5.99967 4.36767 5.99967 3.99967ZM13.9997 7.33301H1.99967C1.63167 7.33301 1.33301 7.63167 1.33301 7.99967C1.33301 8.36767 1.63167 8.66634 1.99967 8.66634H13.9997C14.3677 8.66634 14.6663 8.36767 14.6663 7.99967C14.6663 7.63167 14.3677 7.33301 13.9997 7.33301ZM9.33301 11.333H1.99967C1.63167 11.333 1.33301 11.6317 1.33301 11.9997C1.33301 12.3677 1.63167 12.6663 1.99967 12.6663H9.33301C9.70101 12.6663 9.99967 12.3677 9.99967 11.9997C9.99967 11.6317 9.70101 11.333 9.33301 11.333Z" fill="#3B3B3E"/>
</svg>
