<svg width="16" height="16" viewBox="0 0 16 16" fill="none" xmlns="http://www.w3.org/2000/svg">
<path fill-rule="evenodd" clip-rule="evenodd" d="M14.4803 13.6467L11.5669 10.7333C12.3336 9.80667 12.7936 8.62667 12.7936 7.33333C12.7936 4.38667 10.407 2 7.46029 2C4.51362 2 2.12695 4.38667 2.12695 7.33333C2.12695 10.2733 4.51362 12.6667 7.46029 12.6667C8.75362 12.6667 9.94027 12.2067 10.8603 11.44L13.7736 14.3533C13.8736 14.4533 14.0003 14.5 14.127 14.5C14.2536 14.5 14.3803 14.4533 14.4803 14.3533C14.6736 14.16 14.6736 13.84 14.4803 13.6467ZM8.00029 8.83333H5.33362C5.06028 8.83333 4.83362 8.60667 4.83362 8.33333C4.83362 8.06 5.06028 7.83333 5.33362 7.83333H8.00029C8.27362 7.83333 8.50029 8.06 8.50029 8.33333C8.50029 8.60667 8.27362 8.83333 8.00029 8.83333ZM9.33362 6.83333H5.33362C5.06028 6.83333 4.83362 6.60667 4.83362 6.33333C4.83362 6.06 5.06028 5.83333 5.33362 5.83333H9.33362C9.60695 5.83333 9.83362 6.06 9.83362 6.33333C9.83362 6.60667 9.60695 6.83333 9.33362 6.83333Z" fill="#3B3B3E"/>
</svg>
