<svg width="16" height="16" viewBox="0 0 16 16" fill="none" xmlns="http://www.w3.org/2000/svg">
<path d="M13.5005 11.2433L10.7325 6.88997C10.5799 6.64864 10.4985 6.37064 10.4985 6.08464V2.5H10.6672C10.9432 2.5 11.1672 2.276 11.1672 2C11.1672 1.724 10.9432 1.5 10.6672 1.5H5.33386C5.05786 1.5 4.83386 1.724 4.83386 2C4.83386 2.276 5.05786 2.5 5.33386 2.5H5.50256V6.08464C5.50256 6.37064 5.42184 6.64864 5.26851 6.88997L2.50052 11.244C2.07919 11.9066 2.05319 12.7127 2.43119 13.4007C2.80852 14.0894 3.50319 14.5 4.28853 14.5H11.7119C12.4972 14.5 13.1912 14.0894 13.5692 13.4014C13.9472 12.7134 13.9219 11.9067 13.5005 11.2433ZM6.1125 7.42594C6.36784 7.02461 6.50256 6.56064 6.50256 6.08464V2.5H9.49849V6.08464C9.49849 6.56064 9.63321 7.02461 9.88854 7.42594L10.8892 9H5.11185L6.1125 7.42594Z" fill="#3B3B3E"/>
</svg>
