<svg width="16" height="16" viewBox="0 0 16 16" fill="none" xmlns="http://www.w3.org/2000/svg">
<path d="M5.83333 14C5.83333 14.276 5.60933 14.5 5.33333 14.5H3C2.06067 14.5 1.5 13.9393 1.5 13V10.6667C1.5 10.3907 1.724 10.1667 2 10.1667C2.276 10.1667 2.5 10.3907 2.5 10.6667V13C2.5 13.3927 2.60733 13.5 3 13.5H5.33333C5.60933 13.5 5.83333 13.724 5.83333 14ZM2 5.83333C2.276 5.83333 2.5 5.60933 2.5 5.33333V3C2.5 2.60733 2.60733 2.5 3 2.5H5.33333C5.60933 2.5 5.83333 2.276 5.83333 2C5.83333 1.724 5.60933 1.5 5.33333 1.5H3C2.06067 1.5 1.5 2.06067 1.5 3V5.33333C1.5 5.60933 1.724 5.83333 2 5.83333ZM13 1.5H10.6667C10.3907 1.5 10.1667 1.724 10.1667 2C10.1667 2.276 10.3907 2.5 10.6667 2.5H13C13.3927 2.5 13.5 2.60733 13.5 3V5.33333C13.5 5.60933 13.724 5.83333 14 5.83333C14.276 5.83333 14.5 5.60933 14.5 5.33333V3C14.5 2.06067 13.9393 1.5 13 1.5ZM14 10.1667C13.724 10.1667 13.5 10.3907 13.5 10.6667V13C13.5 13.3927 13.3927 13.5 13 13.5H10.6667C10.3907 13.5 10.1667 13.724 10.1667 14C10.1667 14.276 10.3907 14.5 10.6667 14.5H13C13.9393 14.5 14.5 13.9393 14.5 13V10.6667C14.5 10.3907 14.276 10.1667 14 10.1667ZM9.16667 7.33333H10.8333C11.1667 7.33333 11.3333 7.16667 11.3333 6.83333V5.16667C11.3333 4.83333 11.1667 4.66667 10.8333 4.66667H9.16667C8.83333 4.66667 8.66667 4.83333 8.66667 5.16667V6.83333C8.66667 7.16667 8.83333 7.33333 9.16667 7.33333ZM6.83333 8.66667H5.16667C4.83333 8.66667 4.66667 8.83333 4.66667 9.16667V10.8333C4.66667 11.1667 4.83333 11.3333 5.16667 11.3333H6.83333C7.16667 11.3333 7.33333 11.1667 7.33333 10.8333V9.16667C7.33333 8.83333 7.16667 8.66667 6.83333 8.66667ZM11.3333 10.8333V9.16667C11.3333 8.83333 11.1667 8.66667 10.8333 8.66667H9.16667C8.83333 8.66667 8.66667 8.83333 8.66667 9.16667V10.8333C8.66667 11.1667 8.83333 11.3333 9.16667 11.3333H10.8333C11.1667 11.3333 11.3333 11.1667 11.3333 10.8333ZM6.83333 4.66667H5.16667C4.83333 4.66667 4.66667 4.83333 4.66667 5.16667V6.83333C4.66667 7.16667 4.83333 7.33333 5.16667 7.33333H6.83333C7.16667 7.33333 7.33333 7.16667 7.33333 6.83333V5.16667C7.33333 4.83333 7.16667 4.66667 6.83333 4.66667Z" fill="#3B3B3E"/>
</svg>
