<svg width="16" height="16" viewBox="0 0 16 16" fill="none" xmlns="http://www.w3.org/2000/svg">
<path d="M14.6663 7.99967C14.6663 8.36767 14.3683 8.66634 13.9997 8.66634H6.27572L8.47103 10.8617C8.73169 11.1223 8.73169 11.5437 8.47103 11.8044C8.34103 11.9344 8.17034 11.9997 7.99967 11.9997C7.82901 11.9997 7.65832 11.9344 7.52832 11.8044L4.19564 8.47168C4.13364 8.40968 4.08494 8.33639 4.05094 8.25439C3.98361 8.09173 3.98361 7.90762 4.05094 7.74495C4.08494 7.66295 4.13364 7.58967 4.19564 7.52767L7.52832 4.19499C7.78899 3.93432 8.21036 3.93432 8.47103 4.19499C8.73169 4.45565 8.73169 4.87703 8.47103 5.1377L6.27572 7.33301H13.9997C14.3683 7.33301 14.6663 7.63167 14.6663 7.99967ZM1.99967 3.33301C1.63101 3.33301 1.33301 3.63167 1.33301 3.99967V11.9997C1.33301 12.3677 1.63101 12.6663 1.99967 12.6663C2.36834 12.6663 2.66634 12.3677 2.66634 11.9997V3.99967C2.66634 3.63167 2.36834 3.33301 1.99967 3.33301Z" fill="#3B3B3E"/>
</svg>
