<svg width="16" height="16" viewBox="0 0 16 16" fill="none" xmlns="http://www.w3.org/2000/svg">
<path d="M14 11.6668V14.0001H11V10.6668H13C13.6667 10.6668 14 11.0001 14 11.6668ZM3 9.33345C2.33333 9.33345 2 9.66678 2 10.3334V14.0001H5V9.33345H3ZM10 8.33345C10 7.66678 9.66667 7.33345 9 7.33345H7C6.33333 7.33345 6 7.66678 6 8.33345V14.0001H10V8.33345ZM7.75067 1.84012L7.24733 2.85542C7.20933 2.93209 7.136 2.98476 7.052 2.99743L5.89 3.16548C5.67667 3.19615 5.592 3.45746 5.746 3.60746L6.586 4.4228C6.64733 4.48214 6.67533 4.56812 6.66067 4.65279L6.46867 5.76745C6.42934 5.99412 6.668 6.16676 6.872 6.06009L7.87933 5.53275C7.95467 5.49342 8.04533 5.49342 8.12067 5.53275L9.12866 6.06074C9.33266 6.16741 9.57066 5.99477 9.53133 5.7681L9.33934 4.65213C9.32467 4.56813 9.35267 4.48215 9.414 4.42215L10.254 3.60681C10.4087 3.45681 10.3233 3.19541 10.11 3.16475L8.948 2.99678C8.86333 2.98478 8.79 2.93144 8.75267 2.85477L8.24933 1.83947C8.14733 1.63414 7.85267 1.63412 7.75067 1.84012Z" fill="#3B3B3E"/>
</svg>
