<svg width="16" height="16" viewBox="0 0 16 16" fill="none" xmlns="http://www.w3.org/2000/svg">
<path d="M12.9997 7.90033C13.0477 7.90033 13.0951 7.90166 13.1424 7.90433C13.2071 7.90833 13.333 7.86032 13.333 7.70099C13.333 7.56032 13.333 4.66699 13.333 4.66699C13.333 3.33366 12.6663 2.66699 11.333 2.66699H3.33301C1.99967 2.66699 1.33301 3.33366 1.33301 4.66699V10.667C1.33301 12.0003 1.99967 12.667 3.33301 12.667C3.33301 12.667 9.62496 12.667 9.80029 12.667C9.95763 12.667 9.99967 12.5223 9.99967 12.4817C9.99967 12.441 9.99967 12.0337 9.99967 12.0337C9.99967 11.467 10.173 11.0003 10.4997 10.667V10.4003C10.4997 9.02033 11.6197 7.90033 12.9997 7.90033ZM8.01904 8.11966C7.81371 8.26899 7.57301 8.34366 7.33301 8.34366C7.09301 8.34366 6.85164 8.26899 6.64697 8.12032L3.3724 5.73832C3.14906 5.57632 3.0997 5.263 3.26237 5.03966C3.42437 4.81766 3.7356 4.76632 3.96094 4.92966L7.23568 7.31099C7.29434 7.35299 7.37232 7.35366 7.43099 7.31099L10.7057 4.92966C10.9304 4.76632 11.2423 4.817 11.4043 5.03966C11.567 5.263 11.5176 5.57566 11.2943 5.73832L8.01904 8.11966ZM14.4997 11.1937V10.4003C14.4997 9.573 13.8263 8.90033 12.9997 8.90033C12.173 8.90033 11.4997 9.573 11.4997 10.4003V11.1937C11.167 11.3077 10.9997 11.587 10.9997 12.0337V13.4337C10.9997 14.0337 11.2997 14.3337 11.8997 14.3337H14.0996C14.6996 14.3337 14.9997 14.0337 14.9997 13.4337V12.0337C14.9997 11.587 14.8323 11.3077 14.4997 11.1937ZM13.4997 11.1337H12.4997V10.4003C12.4997 10.1243 12.7243 9.90033 12.9997 9.90033C13.275 9.90033 13.4997 10.1243 13.4997 10.4003V11.1337Z" fill="#3B3B3E"/>
</svg>
