<svg width="16" height="16" viewBox="0 0 16 16" fill="none" xmlns="http://www.w3.org/2000/svg">
<path d="M13.9997 14H2.99967C1.97167 14 1.33301 13.3613 1.33301 12.3333V2.66667C1.33301 2.29867 1.63167 2 1.99967 2C2.36767 2 2.66634 2.29867 2.66634 2.66667V12.3333C2.66634 12.6327 2.70034 12.6667 2.99967 12.6667H13.9997C14.3677 12.6667 14.6663 12.9653 14.6663 13.3333C14.6663 13.7013 14.3677 14 13.9997 14ZM13.9483 9.5887C13.9823 9.50737 13.9997 9.42067 13.9997 9.33333C13.9997 9.33333 13.9997 9.33335 13.9997 9.33268V7.33268C13.9997 6.96468 13.701 6.66602 13.333 6.66602C12.965 6.66602 12.6663 6.96468 12.6663 7.33268V7.71932L10.2897 5.33398C9.77101 4.81398 8.92634 4.81136 8.40567 5.32869L7.33501 6.39201L5.13834 4.19531C4.87767 3.93465 4.45635 3.93465 4.19568 4.19531C3.93501 4.45598 3.93501 4.87735 4.19568 5.13802L6.39234 7.33464C6.91101 7.8533 7.75501 7.85397 8.27434 7.33797L9.34501 6.27531L11.7277 8.66667H11.333C10.965 8.66667 10.6663 8.96533 10.6663 9.33333C10.6663 9.70133 10.965 10 11.333 10H13.333C13.4197 10 13.5063 9.98198 13.5877 9.94865C13.655 9.92065 13.7123 9.87731 13.7663 9.83065C13.7777 9.82065 13.7923 9.81666 13.8037 9.80599C13.8037 9.80599 13.8037 9.80534 13.8043 9.80534C13.8657 9.74334 13.9143 9.67004 13.9483 9.5887Z" fill="#3B3B3E"/>
</svg>
