<svg width="16" height="16" viewBox="0 0 16 16" fill="none" xmlns="http://www.w3.org/2000/svg">
<path d="M7.99967 1.33301C4.31767 1.33301 1.33301 4.31767 1.33301 7.99967C1.33301 11.6817 4.31767 14.6663 7.99967 14.6663C11.6817 14.6663 14.6663 11.6817 14.6663 7.99967C14.6663 4.31767 11.6817 1.33301 7.99967 1.33301ZM11.1151 9.31966C11.0757 9.32899 11.0377 9.33301 10.999 9.33301C10.7724 9.33301 10.5677 9.1784 10.513 8.9484C10.2417 7.80107 9.22438 6.99967 8.03971 6.99967C7.23505 6.99967 6.49233 7.38234 6.021 7.99967H6.49967C6.77567 7.99967 6.99967 8.22367 6.99967 8.49967C6.99967 8.77567 6.77567 8.99967 6.49967 8.99967H4.99967C4.72367 8.99967 4.49967 8.77567 4.49967 8.49967V7.00098C4.49967 6.72498 4.72367 6.50098 4.99967 6.50098C5.27567 6.50098 5.49967 6.72498 5.49967 7.00098V7.08626C6.15367 6.41093 7.06236 5.99967 8.04036 5.99967C9.69103 5.99967 11.1083 7.11761 11.4863 8.71761C11.5497 8.98628 11.3837 9.25566 11.1151 9.31966Z" fill="#3B3B3E"/>
</svg>
