<svg width="16" height="16" viewBox="0 0 16 16" fill="none" xmlns="http://www.w3.org/2000/svg">
<path d="M6.01392 14.8333C5.55458 14.8333 5.17725 14.46 5.17725 14C5.17725 13.54 5.54724 13.1667 6.00724 13.1667H6.01392C6.47392 13.1667 6.84725 13.54 6.84725 14C6.84725 14.46 6.47392 14.8333 6.01392 14.8333ZM12.1806 14C12.1806 13.54 11.8072 13.1667 11.3472 13.1667H11.3406C10.8806 13.1667 10.5106 13.54 10.5106 14C10.5106 14.46 10.8872 14.8333 11.3472 14.8333C11.8072 14.8333 12.1806 14.46 12.1806 14ZM13.9772 5.57333L13.304 9.69333C13.1306 10.64 12.7372 11.3333 11.3372 11.3333H5.82389C5.15723 11.3333 4.59724 10.8467 4.50391 10.1867L3.50326 3.22133C3.44326 2.80133 3.09658 2.5 2.67725 2.5H2.50391C2.22791 2.5 2.00391 2.276 2.00391 2C2.00391 1.724 2.22791 1.5 2.50391 1.5H2.67725C3.59925 1.5 4.36259 2.16267 4.49259 3.076L4.63192 4H12.6712C13.4972 4 14.1305 4.75333 13.9772 5.57333ZM10.3533 7.64667C10.1579 7.45133 9.84125 7.45133 9.64591 7.64667L9.49927 7.79333V6.33333C9.49927 6.05733 9.27527 5.83333 8.99927 5.83333C8.72327 5.83333 8.49927 6.05733 8.49927 6.33333V7.79266L8.35262 7.646C8.15729 7.45066 7.8406 7.45066 7.64526 7.646C7.44993 7.84133 7.44993 8.158 7.64526 8.35333L8.64526 9.35333C8.69126 9.39933 8.74661 9.436 8.80794 9.46133C8.86928 9.48667 8.93393 9.5 8.99927 9.5C9.0646 9.5 9.12926 9.48667 9.19059 9.46133C9.25193 9.436 9.30727 9.39933 9.35327 9.35333L10.3533 8.35333C10.5486 8.158 10.5486 7.842 10.3533 7.64667Z" fill="#3B3B3E"/>
</svg>
