<svg width="16" height="16" viewBox="0 0 16 16" fill="none" xmlns="http://www.w3.org/2000/svg">
<path d="M12.1663 4.66667H10.833V2C10.833 1.72667 10.6063 1.5 10.333 1.5C10.0597 1.5 9.83301 1.72667 9.83301 2V4.66667H6.16634V2C6.16634 1.72667 5.93967 1.5 5.66634 1.5C5.39301 1.5 5.16634 1.72667 5.16634 2V4.66667H3.83301C3.55701 4.66667 3.33301 4.89067 3.33301 5.16667V7.56201C3.33301 8.26935 3.61375 8.94727 4.11442 9.44727L6.3737 11.7067C6.56103 11.894 6.66634 12.1487 6.66634 12.4141V14H9.33301V12.4141C9.33301 12.1487 9.43832 11.894 9.62565 11.7067L11.8849 9.44727C12.3849 8.94727 12.6663 8.26868 12.6663 7.56201V5.16667C12.6663 4.89067 12.4423 4.66667 12.1663 4.66667ZM9.33301 7.83333H6.66634C6.39034 7.83333 6.16634 7.60933 6.16634 7.33333C6.16634 7.05733 6.39034 6.83333 6.66634 6.83333H9.33301C9.60901 6.83333 9.83301 7.05733 9.83301 7.33333C9.83301 7.60933 9.60901 7.83333 9.33301 7.83333Z" fill="#3B3B3E"/>
</svg>
