<svg width="16" height="16" viewBox="0 0 16 16" fill="none" xmlns="http://www.w3.org/2000/svg">
<path d="M7.99967 1.33301C4.31967 1.33301 1.33301 4.31967 1.33301 7.99967C1.33301 11.6797 4.31967 14.6663 7.99967 14.6663C11.6797 14.6663 14.6663 11.6797 14.6663 7.99967C14.6663 4.31967 11.6797 1.33301 7.99967 1.33301ZM11.0397 7.75967L7.37301 11.833C7.31967 11.8863 7.25303 11.9197 7.18636 11.9197C7.15303 11.9197 7.12635 11.913 7.09302 11.8997C6.99968 11.8597 6.93302 11.773 6.93302 11.6663V8.65968H5.14632C5.04632 8.65968 4.95968 8.59967 4.91968 8.50634C4.87968 8.41967 4.89301 8.31301 4.95968 8.23967L8.62634 4.16634C8.69968 4.08634 8.80633 4.05967 8.90633 4.09967C8.99966 4.13967 9.06632 4.22634 9.06632 4.33301V7.33967H10.853C10.953 7.33967 11.0397 7.39968 11.0797 7.49301C11.1197 7.57968 11.1063 7.68634 11.0397 7.75967Z" fill="#3B3B3E"/>
</svg>
