<svg width="16" height="16" viewBox="0 0 16 16" fill="none" xmlns="http://www.w3.org/2000/svg">
<path d="M14.3335 12.6664C14.3335 13.5864 13.5868 14.333 12.6668 14.333C11.7468 14.333 11.0002 13.5864 11.0002 12.6664C11.0002 11.7464 11.7468 10.9997 12.6668 10.9997C13.5868 10.9997 14.3335 11.7464 14.3335 12.6664ZM12.0802 3.25305C10.5268 1.69971 8.21349 1.46638 6.42683 3.25305L5.78682 3.90638C5.26016 4.43305 4.97349 4.83305 4.81349 5.19971C4.78016 5.27305 4.80016 5.35971 4.86016 5.41971L9.92016 10.4797C9.98016 10.5397 10.0602 10.5597 10.1402 10.5264C10.5068 10.3664 10.9068 10.0864 11.4335 9.55305L12.0868 8.91304C13.8735 7.12637 13.6402 4.81304 12.0868 3.25971L12.0802 3.25305ZM4.72016 6.68638C4.64683 6.61304 4.62016 6.67971 4.62016 6.72638C4.62016 7.07971 4.66682 7.44638 4.76682 7.79971C4.95349 8.46638 4.80683 9.19304 4.31349 9.68638L2.09349 11.9064C1.96683 12.033 1.97349 12.233 2.09349 12.353L2.98682 13.2464C3.10682 13.3664 3.30682 13.373 3.43349 13.2464L5.65349 11.0264C6.14682 10.533 6.87349 10.3864 7.54016 10.573C7.89349 10.673 8.26016 10.7197 8.61349 10.7197C8.66016 10.7197 8.72016 10.6864 8.66683 10.633L4.72016 6.68638V6.68638Z" fill="#3B3B3E"/>
</svg>
