<svg width="16" height="16" viewBox="0 0 16 16" fill="none" xmlns="http://www.w3.org/2000/svg">
<path d="M12.4717 4.47122L4.94303 11.9999H10.0003C10.369 11.9999 10.667 12.2985 10.667 12.6665C10.667 13.0345 10.369 13.3332 10.0003 13.3332H3.33366C3.24699 13.3332 3.16027 13.3153 3.07894 13.2819C2.91561 13.2146 2.78626 13.0846 2.71826 12.9212C2.68426 12.8399 2.66699 12.7532 2.66699 12.6665V5.99986C2.66699 5.63186 2.96499 5.3332 3.33366 5.3332C3.70233 5.3332 4.00033 5.63186 4.00033 5.99986V11.0572L11.529 3.52851C11.7896 3.26784 12.211 3.26784 12.4717 3.52851C12.7323 3.78917 12.7323 4.21055 12.4717 4.47122Z" fill="#3B3B3E"/>
</svg>
