<svg width="16" height="16" viewBox="0 0 16 16" fill="none" xmlns="http://www.w3.org/2000/svg">
<path d="M12 2H4C2.66667 2 2 2.66667 2 4V14L4 12H12C13.3333 12 14 11.3333 14 10V4C14 2.66667 13.3333 2 12 2ZM10.6867 9.68669C10.5894 9.78402 10.4613 9.83333 10.3333 9.83333C10.2053 9.83333 10.0773 9.78469 9.97998 9.68669L8.94727 8.65397C8.5626 8.90664 8.10465 9.05599 7.61198 9.05599C6.26398 9.05599 5.16732 7.95933 5.16732 6.61133C5.16732 5.26399 6.26398 4.16667 7.61198 4.16667C8.95931 4.16667 10.056 5.26333 10.056 6.61133C10.056 7.10466 9.90662 7.56268 9.65462 7.94735L10.688 8.98063C10.882 9.1753 10.882 9.49135 10.6867 9.68669ZM9.05534 6.61133C9.05534 7.40799 8.40733 8.05599 7.61133 8.05599C6.81466 8.05599 6.16667 7.40799 6.16667 6.61133C6.16667 5.81466 6.81466 5.16667 7.61133 5.16667C8.40733 5.16667 9.05534 5.81466 9.05534 6.61133Z" fill="#3B3B3E"/>
</svg>
