<svg width="16" height="16" viewBox="0 0 16 16" fill="none" xmlns="http://www.w3.org/2000/svg">
<path d="M11.6667 4.66699C10.0127 4.66699 8.66667 6.01299 8.66667 7.66699C8.66667 8.28366 8.85464 8.85633 9.17464 9.33366H6.82601C7.14601 8.85633 7.33398 8.28366 7.33398 7.66699C7.33398 6.01299 5.98798 4.66699 4.33398 4.66699C2.67998 4.66699 1.33398 6.01299 1.33398 7.66699C1.33398 9.32099 2.67998 10.667 4.33398 10.667H11.6673C13.3213 10.667 14.6673 9.32099 14.6673 7.66699C14.6673 6.01299 13.3207 4.66699 11.6667 4.66699ZM2.66667 7.66699C2.66667 6.74833 3.414 6.00033 4.33333 6.00033C5.25267 6.00033 6 6.74833 6 7.66699C6 8.58566 5.25267 9.33366 4.33333 9.33366C3.414 9.33366 2.66667 8.58566 2.66667 7.66699ZM11.6667 9.33366C10.7473 9.33366 10 8.58566 10 7.66699C10 6.74833 10.7473 6.00033 11.6667 6.00033C12.586 6.00033 13.3333 6.74833 13.3333 7.66699C13.3333 8.58566 12.586 9.33366 11.6667 9.33366Z" fill="#3B3B3E"/>
</svg>
