<svg width="16" height="16" viewBox="0 0 16 16" fill="none" xmlns="http://www.w3.org/2000/svg">
<path d="M12.943 14.5H3.61035C3.33435 14.5 3.11035 14.276 3.11035 14C3.11035 13.724 3.33435 13.5 3.61035 13.5H12.943C13.219 13.5 13.443 13.724 13.443 14C13.443 14.276 13.219 14.5 12.943 14.5ZM5.72363 7.33335V10.6667C5.72363 11.0347 6.0223 11.3333 6.3903 11.3333H10.3903C10.7583 11.3333 11.057 11.0347 11.057 10.6667V7.33335H12.6724C13.2697 7.33335 13.5597 6.60403 13.1257 6.19403L8.94238 2.242C8.60105 1.91933 8.06627 1.91933 7.72494 2.242L3.54167 6.19403C3.10767 6.60403 3.39762 7.33335 3.99495 7.33335H5.72363Z" fill="#3B3B3E"/>
</svg>
