<svg width="16" height="16" viewBox="0 0 16 16" fill="none" xmlns="http://www.w3.org/2000/svg">
<path fill-rule="evenodd" clip-rule="evenodd" d="M12.3333 9.66667C12.3333 12.06 10.3933 14 8 14C5.60667 14 3.66667 12.06 3.66667 9.66667C3.66667 7.27333 5.60667 5.33333 8 5.33333C10.3933 5.33333 12.3333 7.27333 12.3333 9.66667ZM14 2H10.6667L9.26001 4.216C9.18734 4.33 9.2493 4.476 9.37996 4.51133C10.1506 4.72067 10.8533 5.09733 11.4426 5.6C11.5353 5.67866 11.6727 5.66134 11.738 5.55868L14 2ZM6.73999 4.216L5.33333 2H2L4.26335 5.55933C4.32868 5.66199 4.46601 5.67933 4.55868 5.60067C5.14801 5.09733 5.85 4.72134 6.62134 4.512C6.75134 4.476 6.81266 4.33 6.73999 4.216Z" fill="#3B3B3E"/>
</svg>
