<svg width="16" height="16" viewBox="0 0 16 16" fill="none" xmlns="http://www.w3.org/2000/svg">
<path d="M14.6663 9.63967C14.6663 10.573 13.9397 11.333 13.0463 11.333H7.99967V5.81301C8.44634 5.51301 8.96633 5.33301 9.533 5.33301C11.0397 5.33301 12.2597 6.55301 12.373 8.10634C13.4597 7.58634 14.6597 8.42634 14.6597 9.63967H14.6663ZM5.21967 6.62634C5.01967 6.69968 4.83301 6.80634 4.66634 6.933V11.333H5.21967V6.62634ZM6.88633 11.333H7.43968V6.29968C7.31301 6.44635 7.19302 6.59967 7.09302 6.76634L6.87968 6.66634V11.333H6.88633ZM5.77301 11.333H6.32633V6.50635C6.04633 6.46635 5.97968 6.47968 5.77301 6.50635V11.3397V11.333ZM3.553 11.333H4.10634V7.50635C3.93301 7.75301 3.79967 8.033 3.71967 8.34633L3.54635 8.24634V11.3397L3.553 11.333ZM1.88633 8.46635C1.54633 8.76635 1.33301 9.20634 1.33301 9.70634C1.33301 10.2063 1.553 10.6464 1.88633 10.9464V8.473V8.46635ZM2.99967 8.08634C2.83301 8.07301 2.70635 8.07302 2.44635 8.15302V11.253C2.69302 11.333 2.79967 11.3263 2.99967 11.3263V8.07967V8.08634Z" fill="#3B3B3E"/>
</svg>
