<svg width="16" height="16" viewBox="0 0 16 16" fill="none" xmlns="http://www.w3.org/2000/svg">
<path d="M8 2.66699C4.68667 2.66699 2 4.66698 2 8.00098C2 9.41431 2.48663 10.595 3.29997 11.475C3.19997 12.115 2.83995 12.8483 2.11328 13.435C1.89328 13.6216 2.01997 13.9883 2.30664 13.995C3.25331 14.0283 4.71327 13.9017 5.60661 12.9483C6.33994 13.2017 7.14667 13.335 8 13.335C11.3133 13.335 14 11.3343 14 8.00098C14 4.66698 11.3133 2.66699 8 2.66699ZM10 8.50033H6C5.724 8.50033 5.5 8.27633 5.5 8.00033C5.5 7.72433 5.724 7.50033 6 7.50033H10C10.276 7.50033 10.5 7.72433 10.5 8.00033C10.5 8.27633 10.276 8.50033 10 8.50033Z" fill="#3B3B3E"/>
</svg>
