<svg width="16" height="16" viewBox="0 0 16 16" fill="none" xmlns="http://www.w3.org/2000/svg">
<path d="M11.6502 2.38389C11.4536 2.19055 11.4503 1.87386 11.6429 1.67653C11.8376 1.4792 12.1534 1.47587 12.3508 1.66921L13.6841 2.97585C13.8808 3.16918 13.8843 3.48587 13.6916 3.6832C13.5936 3.7832 13.4635 3.83319 13.3342 3.83319C13.2082 3.83319 13.0816 3.78586 12.9842 3.69053L11.6502 2.38389ZM3.0202 1.6465C2.82486 1.45117 2.50817 1.45117 2.31284 1.6465L0.979508 2.97983C0.784174 3.17517 0.784174 3.49186 0.979508 3.68719C1.07684 3.78452 1.20486 3.83384 1.33286 3.83384C1.46086 3.83384 1.58888 3.78519 1.68621 3.68719L3.01955 2.35386C3.21555 2.15786 3.21553 1.84183 3.0202 1.6465ZM8.33351 11.3332V12.6665C8.33351 12.9745 8.36221 13.2078 8.15155 13.2718C7.88488 13.3125 7.60951 13.3332 7.33351 13.3332C6.56084 13.3332 5.82884 13.1658 5.16684 12.8705L3.68752 14.3532C3.59018 14.4505 3.46151 14.4999 3.33351 14.4999C3.20618 14.4999 3.07814 14.4512 2.98081 14.3539C2.78481 14.1592 2.78484 13.8418 2.97951 13.6465L4.26483 12.3579C2.89616 11.3926 2.00018 9.80254 2.00018 7.9992C2.00018 5.05254 4.38685 2.66587 7.33351 2.66587C10.2802 2.66587 12.6668 5.05254 12.6668 7.9992C12.6668 8.31854 12.4442 8.33254 12.4442 8.33254H11.3335C9.45351 8.3332 8.33351 9.45319 8.33351 11.3332ZM7.83351 5.35988C7.83351 5.08388 7.60951 4.85988 7.33351 4.85988C7.05751 4.85988 6.83351 5.08388 6.83351 5.35988V8.02655C6.83351 8.30255 7.05751 8.52655 7.33351 8.52655C7.60951 8.52655 7.83351 8.30255 7.83351 8.02655V5.35988ZM14.6668 11.3332V12.6665C14.6668 13.9999 14.0002 14.6665 12.6668 14.6665H11.3335C10.0002 14.6665 9.33351 13.9999 9.33351 12.6665V11.3332C9.33351 9.99985 10.0002 9.33319 11.3335 9.33319H12.6668C14.0002 9.33319 14.6668 9.99985 14.6668 11.3332ZM13.1668 11.9999C13.1668 11.8159 13.0175 11.6665 12.8335 11.6665H11.1668C10.9828 11.6665 10.8335 11.8159 10.8335 11.9999C10.8335 12.1839 10.9828 12.3332 11.1668 12.3332H12.8335C13.0175 12.3332 13.1668 12.1839 13.1668 11.9999Z" fill="#3B3B3E"/>
</svg>
