<svg width="16" height="16" viewBox="0 0 16 16" fill="none" xmlns="http://www.w3.org/2000/svg">
<path d="M6.79983 7.68048C7.45983 7.36715 7.79983 6.88716 7.79983 6.14716C7.79983 4.68716 6.71316 4.32715 5.45316 4.32715H1.99316V11.6605H5.5465C6.87983 11.6605 8.13316 11.0205 8.13316 9.53381C8.13316 8.61381 7.69983 7.93381 6.79316 7.68048H6.79983ZM3.61982 5.40049H5.13983C5.7265 5.40049 6.25316 5.56715 6.25316 6.24715C6.25316 6.87382 5.83982 7.12716 5.26649 7.12716H3.61982V5.40715V5.40049ZM5.35316 10.2672H3.61982V8.23383H5.3865C6.09983 8.23383 6.55316 8.53382 6.55316 9.28715C6.55316 10.0405 6.01316 10.2672 5.35316 10.2672ZM12.8198 5.25382H9.8265V4.52716H12.8198V5.25382ZM13.9932 8.92716C13.9932 7.34716 13.0665 6.02716 11.3932 6.02716C9.71982 6.02716 8.65983 7.25382 8.65983 8.85382C8.65983 10.4538 9.70649 11.6605 11.3932 11.6605C12.6665 11.6605 13.4932 11.0871 13.8932 9.86715H12.5998C12.4598 10.3205 11.8865 10.5672 11.4398 10.5672C10.5798 10.5672 10.1265 10.0605 10.1265 9.20715H13.9798C13.9798 9.12049 13.9932 9.02715 13.9932 8.93382V8.92716ZM10.1265 8.27382C10.1732 7.57382 10.6398 7.13383 11.3465 7.13383C12.0532 7.13383 12.4532 7.56716 12.5198 8.27382H10.1332H10.1265Z" fill="#3B3B3E"/>
</svg>
