<svg width="16" height="16" viewBox="0 0 16 16" fill="none" xmlns="http://www.w3.org/2000/svg">
<path d="M2.33333 12V11.6667C2.33333 11.48 2.48 11.3333 2.66667 11.3333H13.3333C13.52 11.3333 13.6667 11.48 13.6667 11.6667V12C13.6667 13.3333 13 14 11.6667 14H4.33333C3 14 2.33333 13.3333 2.33333 12ZM14.5 9.33333C14.5 9.06 14.2733 8.83333 14 8.83333H2C1.72667 8.83333 1.5 9.06 1.5 9.33333C1.5 9.60667 1.72667 9.83333 2 9.83333H14C14.2733 9.83333 14.5 9.60667 14.5 9.33333ZM13.6667 6.66667V7C13.6667 7.18667 13.52 7.33333 13.3333 7.33333H2.66667C2.48 7.33333 2.33333 7.18667 2.33333 7V6.66667C2.33333 4 4.33333 2 8 2C11.6667 2 13.6667 4 13.6667 6.66667ZM5.83333 4.66667C5.83333 4.6 5.82 4.54 5.79334 4.47334C5.76667 4.41334 5.73333 4.36 5.68667 4.31333C5.64 4.26667 5.58667 4.23333 5.52667 4.20667C5.34001 4.12667 5.12 4.17333 4.98 4.31333C4.93333 4.36 4.9 4.41334 4.87333 4.47334C4.84667 4.53334 4.83333 4.6 4.83333 4.66667C4.83333 4.73333 4.84667 4.8 4.87333 4.86C4.9 4.92 4.93333 4.97333 4.98 5.02C5.02667 5.06667 5.07999 5.1 5.13999 5.12667C5.19999 5.15334 5.26667 5.16667 5.33333 5.16667C5.4 5.16667 5.46001 5.15334 5.52667 5.12667C5.58667 5.1 5.64 5.06667 5.68667 5.02C5.78 4.92667 5.83333 4.8 5.83333 4.66667V4.66667ZM8.5 4C8.5 3.93333 8.48667 3.86667 8.46 3.80667C8.43334 3.74667 8.4 3.69333 8.35333 3.64667C8.21333 3.50667 7.99333 3.46 7.80666 3.54C7.74666 3.56667 7.69333 3.6 7.64667 3.64667C7.6 3.69333 7.56 3.74667 7.54 3.80667C7.51333 3.86667 7.5 3.93333 7.5 4C7.5 4.06667 7.51333 4.13333 7.54 4.19333C7.56667 4.25333 7.6 4.30667 7.64667 4.35333C7.69333 4.4 7.74666 4.43334 7.80666 4.46C7.86666 4.48667 7.93333 4.5 8 4.5C8.13333 4.5 8.26 4.44667 8.35333 4.35333C8.4 4.30667 8.43334 4.25333 8.46 4.19333C8.48667 4.13333 8.5 4.06667 8.5 4ZM11.1667 4.66667C11.1667 4.6 11.1533 4.53334 11.1267 4.47334C11.1 4.41334 11.0667 4.36 11.02 4.31333C10.9733 4.26667 10.92 4.23333 10.86 4.20667C10.7333 4.15333 10.6 4.15333 10.4733 4.20667C10.4133 4.23333 10.36 4.26667 10.3133 4.31333C10.2667 4.36 10.2267 4.41334 10.2067 4.47334C10.18 4.53334 10.1667 4.6 10.1667 4.66667C10.1667 4.8 10.22 4.92667 10.3133 5.02C10.36 5.06667 10.4133 5.1 10.4733 5.12667C10.5333 5.15334 10.6 5.16667 10.6667 5.16667C10.7333 5.16667 10.7933 5.15334 10.86 5.12667C10.92 5.1 10.9733 5.06667 11.02 5.02C11.1133 4.92667 11.1667 4.8 11.1667 4.66667V4.66667Z" fill="#3B3B3E"/>
</svg>
