<svg width="16" height="16" viewBox="0 0 16 16" fill="none" xmlns="http://www.w3.org/2000/svg">
<path fill-rule="evenodd" clip-rule="evenodd" d="M14.3568 3.6832C14.2588 3.7832 14.1289 3.83319 13.9995 3.83319C13.8735 3.83319 13.7469 3.78586 13.6496 3.69053L12.3163 2.38389C12.1196 2.19055 12.1163 1.87386 12.3089 1.67653C12.5036 1.4792 12.8194 1.47587 13.0168 1.66921L14.3501 2.97585C14.5461 3.16918 14.5495 3.48587 14.3568 3.6832ZM3.68621 1.6465C3.49088 1.45117 3.17419 1.45117 2.97886 1.6465L1.64552 2.97983C1.45019 3.17517 1.45019 3.49186 1.64552 3.68719C1.74286 3.78452 1.87088 3.83384 1.99888 3.83384C2.12688 3.83384 2.2549 3.78519 2.35223 3.68719L3.68556 2.35386C3.88156 2.15786 3.88155 1.84183 3.68621 1.6465ZM11.0682 12.3579L12.3542 13.6472C12.5488 13.8425 12.5489 14.1592 12.3529 14.3545C12.2555 14.4518 12.1275 14.5005 12.0002 14.5005C11.8722 14.5005 11.7435 14.4512 11.6462 14.3532L10.1675 12.8705C9.50483 13.1658 8.77283 13.3332 8.00083 13.3332C7.22883 13.3332 6.49683 13.1658 5.83416 12.8705L4.35483 14.3532C4.2575 14.4505 4.12883 14.4999 4.00083 14.4999C3.8735 14.4999 3.74546 14.4512 3.64813 14.3539C3.45213 14.1592 3.45216 13.8418 3.64683 13.6465L4.9328 12.3579C3.56413 11.3926 2.6675 9.80252 2.6675 7.99985C2.6675 5.05452 5.0555 2.66652 8.00083 2.66652C10.9462 2.66652 13.3342 5.05452 13.3342 7.99985C13.3328 9.80185 12.4369 11.3926 11.0682 12.3579ZM9.66619 8.49985C9.94219 8.49985 10.1662 8.27585 10.1662 7.99985C10.1662 7.72385 9.94219 7.49985 9.66619 7.49985H8.49953V6.33319C8.49953 6.05719 8.27553 5.83319 7.99953 5.83319C7.72353 5.83319 7.49953 6.05719 7.49953 6.33319V7.49985H6.33286C6.05686 7.49985 5.83286 7.72385 5.83286 7.99985C5.83286 8.27585 6.05686 8.49985 6.33286 8.49985H7.49953V9.66652C7.49953 9.94252 7.72353 10.1665 7.99953 10.1665C8.27553 10.1665 8.49953 9.94252 8.49953 9.66652V8.49985H9.66619Z" fill="#3B3B3E"/>
</svg>
