<svg width="16" height="16" viewBox="0 0 16 16" fill="none" xmlns="http://www.w3.org/2000/svg">
<path d="M9.05566 8.61133C9.05566 9.408 8.40765 10.056 7.61165 10.056C6.81499 10.056 6.16699 9.408 6.16699 8.61133C6.16699 7.81466 6.81499 7.16667 7.61165 7.16667C8.40765 7.16667 9.05566 7.81466 9.05566 8.61133ZM6.33366 4.66667H9.66699C10.3337 4.66667 10.667 4.33333 10.667 3.66667V3C10.667 2.33333 10.3337 2 9.66699 2H6.33366C5.66699 2 5.33366 2.33333 5.33366 3V3.66667C5.33366 4.33333 5.66699 4.66667 6.33366 4.66667ZM13.3337 5.33333V12C13.3337 13.3333 12.667 14 11.3337 14H4.66699C3.33366 14 2.66699 13.3333 2.66699 12V5.33333C2.66699 4.172 3.16825 3.518 4.17692 3.37134C4.25759 3.35934 4.33366 3.42599 4.33366 3.50732V3.66602C4.33366 4.87935 5.12033 5.66602 6.33366 5.66602H9.66699C10.8803 5.66602 11.667 4.87935 11.667 3.66602V3.50732C11.667 3.42599 11.7437 3.35934 11.8237 3.37134C12.8324 3.518 13.3337 4.172 13.3337 5.33333ZM10.687 10.98L9.65365 9.94735C9.90565 9.56268 10.0557 9.10469 10.0557 8.61202C10.0557 7.26402 8.95899 6.16732 7.61165 6.16732C6.26365 6.16732 5.16699 7.26402 5.16699 8.61202C5.16699 9.96002 6.26365 11.0567 7.61165 11.0567C8.10499 11.0567 8.56227 10.9073 8.94694 10.6553L9.98031 11.688C10.0776 11.7853 10.2057 11.8347 10.3337 11.8347C10.4617 11.8347 10.5897 11.786 10.687 11.688C10.8823 11.4913 10.8823 11.1746 10.687 10.98Z" fill="#3B3B3E"/>
</svg>
