<svg width="16" height="16" viewBox="0 0 16 16" fill="none" xmlns="http://www.w3.org/2000/svg">
<path d="M11.3804 5.65999L12.3537 4.68669C12.547 4.49335 12.547 4.17331 12.3537 3.97998C12.1603 3.78665 11.8403 3.78665 11.647 3.97998L10.6403 4.98665C9.80897 4.36932 8.78233 4 7.66699 4C4.90566 4 2.66699 6.23867 2.66699 9C2.66699 11.7613 4.90566 14 7.66699 14C10.4283 14 12.667 11.7613 12.667 9C12.667 7.71467 12.1777 6.54599 11.3804 5.65999ZM5.50033 2C5.50033 1.724 5.72433 1.5 6.00033 1.5H9.33366C9.60966 1.5 9.83366 1.724 9.83366 2C9.83366 2.276 9.60966 2.5 9.33366 2.5H6.00033C5.72433 2.5 5.50033 2.276 5.50033 2Z" fill="#3B3B3E"/>
</svg>
