<svg width="16" height="16" viewBox="0 0 16 16" fill="none" xmlns="http://www.w3.org/2000/svg">
<path d="M11.4993 7.16697H13.9993V10.667C13.9993 11.7736 13.106 12.667 11.9993 12.667H6.47931C6.30598 12.667 6.21267 12.4536 6.33934 12.327L11.4993 7.16697ZM13.6993 4.96698L12.4993 6.16697H13.9993V5.33364C13.9993 5.24697 13.9993 5.16698 13.9927 5.08698C13.9793 4.96031 13.8193 4.85365 13.6993 4.96698ZM9.53933 7.16697L2.35268 14.3537C2.25268 14.4537 2.126 14.5003 1.99933 14.5003C1.87266 14.5003 1.74598 14.4537 1.64598 14.3537C1.45264 14.1603 1.45264 13.8403 1.64598 13.647L2.86599 12.427C2.28599 12.1336 1.99933 11.547 1.99933 10.667V7.16697H8.126H8.83266H9.53933ZM4.79266 10.5003L5.79266 9.50031H4.666C4.39 9.50031 4.166 9.72431 4.166 10.0003C4.166 10.2763 4.39 10.5003 4.666 10.5003H4.79266ZM14.3527 1.64695C14.1593 1.45362 13.8393 1.45362 13.646 1.64695L11.9593 3.33364H3.99933C2.666 3.33364 1.99933 4.00031 1.99933 5.33364V6.16697H10.5393L14.3527 2.35366C14.546 2.16033 14.546 1.84029 14.3527 1.64695Z" fill="#3B3B3E"/>
</svg>
