<svg width="16" height="16" viewBox="0 0 16 16" fill="none" xmlns="http://www.w3.org/2000/svg">
<path d="M7.99967 1.33301C4.31767 1.33301 1.33301 4.31767 1.33301 7.99967C1.33301 11.6817 4.31767 14.6663 7.99967 14.6663C11.6817 14.6663 14.6663 11.6817 14.6663 7.99967C14.6663 4.31767 11.6817 1.33301 7.99967 1.33301ZM5.83301 11.333C5.83301 11.609 5.60901 11.833 5.33301 11.833C5.05701 11.833 4.83301 11.609 4.83301 11.333V10.333C4.83301 10.057 5.05701 9.83301 5.33301 9.83301C5.60901 9.83301 5.83301 10.057 5.83301 10.333V11.333ZM8.49967 11.333C8.49967 11.609 8.27567 11.833 7.99967 11.833C7.72367 11.833 7.49967 11.609 7.49967 11.333V9.33301C7.49967 9.05701 7.72367 8.83301 7.99967 8.83301C8.27567 8.83301 8.49967 9.05701 8.49967 9.33301V11.333ZM11.1663 11.333C11.1663 11.609 10.9423 11.833 10.6663 11.833C10.3903 11.833 10.1663 11.609 10.1663 11.333V7.99967C10.1663 7.72367 10.3903 7.49967 10.6663 7.49967C10.9423 7.49967 11.1663 7.72367 11.1663 7.99967V11.333ZM11.1663 6.13297C11.1663 6.40897 10.9423 6.63297 10.6663 6.63297C10.3903 6.63297 10.1663 6.40897 10.1663 6.13297V5.87305L8.967 7.07235C8.58967 7.45035 7.92966 7.44968 7.55233 7.07235L6.69967 6.21964L5.68636 7.23299C5.58903 7.33032 5.46101 7.37964 5.33301 7.37964C5.20501 7.37964 5.07699 7.33099 4.97965 7.23299C4.78432 7.03766 4.78432 6.72097 4.97965 6.52563L5.993 5.51237C6.383 5.12237 7.01767 5.12304 7.40767 5.51237L8.26033 6.36499L9.45968 5.16569H9.19967C8.92367 5.16569 8.69967 4.94169 8.69967 4.66569C8.69967 4.38969 8.92367 4.16569 9.19967 4.16569H10.6663C10.7317 4.16569 10.7963 4.17901 10.8577 4.20435C10.9797 4.25501 11.077 4.35235 11.1277 4.47502C11.153 4.53635 11.1663 4.60101 11.1663 4.66634V6.13297V6.13297Z" fill="#3B3B3E"/>
</svg>
