<svg width="16" height="16" viewBox="0 0 16 16" fill="none" xmlns="http://www.w3.org/2000/svg">
<path d="M10.9727 9.01938C11.0507 9.09738 11.0507 9.22393 10.9727 9.30193L9.30201 10.9727C9.22401 11.0507 9.0973 11.0507 9.0193 10.9727L5.04201 6.99529C4.96401 6.91729 4.96401 6.79074 5.04201 6.71274L6.71266 5.04201C6.79066 4.96401 6.91729 4.96401 6.99529 5.04201L10.9727 9.01938ZM8.29933 11.6794C8.37733 11.7574 8.37733 11.8839 8.29933 11.9619L6.95403 13.3073C6.02737 14.234 5.10734 14.234 4.18068 13.3073L2.69402 11.8207C1.76736 10.894 1.76736 9.97404 2.69402 9.04738L4.03932 7.702C4.11732 7.624 4.24403 7.624 4.32203 7.702L8.29933 11.6794ZM5.00066 11.5007C5.00066 11.2247 4.77666 11.0007 4.50066 11.0007C4.22466 11.0007 4.00066 11.2247 4.00066 11.5007C4.00066 11.7767 4.22466 12.0007 4.50066 12.0007C4.77666 12.0007 5.00066 11.7767 5.00066 11.5007ZM5.334 9.834C5.334 9.558 5.11 9.334 4.834 9.334C4.558 9.334 4.334 9.558 4.334 9.834C4.334 10.11 4.558 10.334 4.834 10.334C5.11 10.334 5.334 10.11 5.334 9.834ZM6.66733 11.1673C6.66733 10.8913 6.44333 10.6673 6.16733 10.6673C5.89133 10.6673 5.66733 10.8913 5.66733 11.1673C5.66733 11.4433 5.89133 11.6673 6.16733 11.6673C6.44333 11.6673 6.66733 11.4433 6.66733 11.1673ZM13.3073 6.95395L11.962 8.29933C11.884 8.37733 11.7573 8.37733 11.6793 8.29933L7.702 4.32195C7.624 4.24395 7.624 4.1174 7.702 4.0394L9.04729 2.69402C9.97396 1.76736 10.894 1.76736 11.8207 2.69402L13.3073 4.18068C14.234 5.10734 14.234 6.02729 13.3073 6.95395ZM10.334 4.834C10.334 4.558 10.11 4.334 9.834 4.334C9.558 4.334 9.334 4.558 9.334 4.834C9.334 5.11 9.558 5.334 9.834 5.334C10.11 5.334 10.334 5.11 10.334 4.834ZM11.6673 6.16733C11.6673 5.89133 11.4433 5.66733 11.1673 5.66733C10.8913 5.66733 10.6673 5.89133 10.6673 6.16733C10.6673 6.44333 10.8913 6.66733 11.1673 6.66733C11.4433 6.66733 11.6673 6.44333 11.6673 6.16733ZM12.0007 4.50066C12.0007 4.22466 11.7767 4.00066 11.5007 4.00066C11.2247 4.00066 11.0007 4.22466 11.0007 4.50066C11.0007 4.77666 11.2247 5.00066 11.5007 5.00066C11.7767 5.00066 12.0007 4.77666 12.0007 4.50066Z" fill="#3B3B3E"/>
</svg>
