<svg width="16" height="16" viewBox="0 0 16 16" fill="none" xmlns="http://www.w3.org/2000/svg">
<path fill-rule="evenodd" clip-rule="evenodd" d="M3.68654 2.35288L2.35321 3.68621C2.25587 3.78355 2.12785 3.83286 1.99985 3.83286C1.87185 3.83286 1.74383 3.78421 1.6465 3.68621C1.45117 3.49088 1.45117 3.17419 1.6465 2.97886L2.97983 1.64552C3.17517 1.45019 3.49186 1.45019 3.68719 1.64552C3.88252 1.84086 3.88187 2.15755 3.68654 2.35288ZM14.3498 2.97552L13.0165 1.66888C12.8191 1.47555 12.5031 1.47887 12.3084 1.6762C12.1158 1.87354 12.1193 2.19023 12.3159 2.38356L13.6493 3.6902C13.7466 3.78553 13.8732 3.83286 13.9992 3.83286C14.1285 3.83286 14.2585 3.78288 14.3565 3.68288C14.5498 3.48554 14.5465 3.16885 14.3498 2.97552ZM11.0685 12.3576L12.3545 13.6468C12.5492 13.8422 12.5492 14.1588 12.3532 14.3542C12.2559 14.4515 12.1278 14.5002 12.0005 14.5002C11.8725 14.5002 11.7438 14.4509 11.6465 14.3529L10.1678 12.8701C9.50515 13.1655 8.77315 13.3329 8.00115 13.3329C7.22915 13.3329 6.49715 13.1655 5.83449 12.8701L4.35516 14.3529C4.25783 14.4502 4.12915 14.4995 4.00115 14.4995C3.87382 14.4995 3.74579 14.4509 3.64845 14.3535C3.45245 14.1589 3.45248 13.8415 3.64715 13.6462L4.93312 12.3576C3.56445 11.3923 2.66847 9.80153 2.66847 7.99953C2.66847 5.05419 5.05647 2.66619 8.00181 2.66619C10.9471 2.66619 13.3351 5.05419 13.3351 7.99953C13.3331 9.80153 12.4365 11.3923 11.0685 12.3576ZM9.68654 9.0062L8.49985 7.81951V5.3602C8.49985 5.0842 8.27585 4.8602 7.99985 4.8602C7.72385 4.8602 7.49985 5.0842 7.49985 5.3602V8.02687C7.49985 8.15954 7.5525 8.28689 7.6465 8.38022L8.97983 9.71356C9.07717 9.81089 9.20519 9.8602 9.33319 9.8602C9.46119 9.8602 9.58921 9.81156 9.68654 9.71356C9.88187 9.51756 9.88187 9.20153 9.68654 9.0062Z" fill="#3B3B3E"/>
</svg>
