<svg width="16" height="16" viewBox="0 0 16 16" fill="none" xmlns="http://www.w3.org/2000/svg">
<path d="M12.3142 6.51116C12.7689 7.4745 12.9995 8.4245 12.9995 9.33317C12.9995 12.0898 10.7569 14.3332 7.99953 14.3332C7.01019 14.3332 6.05886 14.0485 5.24886 13.5112C5.16552 13.4558 5.11153 13.3658 5.10153 13.2665C5.09153 13.1672 5.12686 13.0685 5.19753 12.9978L11.7775 6.41784C11.8542 6.34118 11.9622 6.3065 12.0702 6.32517C12.1769 6.34317 12.2682 6.4125 12.3142 6.51116ZM14.3529 1.6465C14.1575 1.45117 13.8409 1.45117 13.6455 1.6465L10.9262 4.36584C9.65153 2.78317 8.2542 1.77583 8.1922 1.7265C8.07886 1.6465 7.91886 1.6465 7.80553 1.7265C7.61219 1.8665 2.99886 5.2065 2.99886 9.33317C2.99886 10.1665 3.21419 10.9705 3.59952 11.6925L1.64552 13.6465C1.45019 13.8418 1.45019 14.1585 1.64552 14.3538C1.74286 14.4512 1.87086 14.5005 1.99886 14.5005C2.12686 14.5005 2.25487 14.4518 2.3522 14.3538L14.3522 2.35384C14.5482 2.1585 14.5482 1.84117 14.3529 1.6465Z" fill="#3B3B3E"/>
</svg>
