<svg width="16" height="16" viewBox="0 0 16 16" fill="none" xmlns="http://www.w3.org/2000/svg">
<path d="M7.99967 1.33301C4.31767 1.33301 1.33301 4.31767 1.33301 7.99967C1.33301 11.6817 4.31767 14.6663 7.99967 14.6663C11.6817 14.6663 14.6663 11.6817 14.6663 7.99967C14.6663 4.31767 11.6817 1.33301 7.99967 1.33301ZM8.01302 11.6663C7.64502 11.6663 7.34294 11.3677 7.34294 10.9997C7.34294 10.6317 7.63835 10.333 8.00635 10.333H8.01302C8.38169 10.333 8.67969 10.6317 8.67969 10.9997C8.67969 11.3677 8.38102 11.6663 8.01302 11.6663ZM9.06836 8.35172C8.58103 8.67839 8.4903 8.86037 8.47363 8.90837C8.40363 9.11703 8.20901 9.24902 7.99967 9.24902C7.94701 9.24902 7.89365 9.24098 7.84098 9.22298C7.57898 9.13498 7.43838 8.85168 7.52572 8.58968C7.64638 8.22968 7.95907 7.89034 8.51107 7.52034C9.19173 7.06434 9.10435 6.56439 9.07568 6.40039C9.00035 5.96439 8.63299 5.59293 8.20166 5.51693C7.87366 5.45693 7.55308 5.54293 7.30241 5.75293C7.05041 5.96426 6.9056 6.27562 6.9056 6.60628C6.9056 6.88228 6.6816 7.10628 6.4056 7.10628C6.1296 7.10628 5.9056 6.88228 5.9056 6.60628C5.9056 5.97895 6.18033 5.38898 6.65967 4.98698C7.13433 4.58965 7.75898 4.42371 8.37565 4.53304C9.22032 4.68237 9.91305 5.38032 10.0604 6.22965C10.2071 7.07099 9.85436 7.82506 9.06836 8.35172Z" fill="#3B3B3E"/>
</svg>
