<svg width="16" height="16" viewBox="0 0 16 16" fill="none" xmlns="http://www.w3.org/2000/svg">
<path d="M14.3186 6.05619L9.37716 1.99223C8.57916 1.33756 7.42256 1.33689 6.62456 1.99223L1.68323 6.05554C1.47056 6.23087 1.43921 6.54556 1.61455 6.75956C1.79121 6.97289 2.10523 7.00291 2.31857 6.82825L3.00053 6.26688V11.9996C3.00053 13.5262 3.8072 14.3329 5.33387 14.3329H10.6672C12.1939 14.3329 13.0005 13.5262 13.0005 11.9996V6.26754L13.6825 6.8289C13.7758 6.90556 13.8885 6.94291 14.0005 6.94291C14.1445 6.94291 14.2879 6.88086 14.3865 6.76086C14.5625 6.5462 14.5312 6.23152 14.3186 6.05619ZM8.00053 5.99955C8.7912 5.99955 9.43388 6.64223 9.43388 7.4329C9.43388 8.22357 8.79053 8.86625 8.00053 8.86625C7.21053 8.86625 6.56718 8.22357 6.56718 7.4329C6.56718 6.64223 7.20987 5.99955 8.00053 5.99955ZM10.3339 11.6662C10.3339 11.8502 10.1845 11.9996 10.0005 11.9996H6.00053C5.81653 11.9996 5.6672 11.8502 5.6672 11.6662V11.4642C5.6672 10.5709 6.32122 9.66622 7.57255 9.66622H8.42786C9.67919 9.66622 10.3332 10.5702 10.3332 11.4642V11.6662H10.3339Z" fill="#3B3B3E"/>
</svg>
