<svg width="16" height="16" viewBox="0 0 16 16" fill="none" xmlns="http://www.w3.org/2000/svg">
<path d="M8.00099 2C4.68766 2 2.00164 4.68602 2.00164 7.99935C2.00164 8.89268 2.20169 9.746 2.55503 10.5053C2.69503 10.7987 2.69507 11.1387 2.59507 11.452L2.03501 13.1187C1.86167 13.6387 2.36169 14.1387 2.88169 13.9653L4.54835 13.4053C4.86169 13.3053 5.20164 13.3054 5.49497 13.4454C6.25497 13.7987 7.10831 13.9987 8.00164 13.9987C11.315 13.9987 14.001 11.3127 14.001 7.99935C14.0003 4.68602 11.3143 2 8.00099 2ZM10.7376 7.65865L9.71762 8.64535C9.64296 8.71735 9.60897 8.82134 9.62697 8.92334L9.86037 10.2733C9.9077 10.5473 9.61895 10.756 9.37095 10.6273L8.14699 9.98865C8.05499 9.94065 7.94568 9.94065 7.85434 9.98865L6.63104 10.6267C6.38304 10.756 6.09363 10.5467 6.14096 10.2727L6.37436 8.92334C6.3917 8.82134 6.35771 8.71735 6.28371 8.64535L5.26369 7.65865C5.07635 7.47732 5.17966 7.16132 5.43833 7.12398L6.84962 6.92065C6.95229 6.90599 7.04093 6.84202 7.08693 6.74935L7.69842 5.52067C7.82242 5.27134 8.18038 5.27134 8.30438 5.52067L8.9157 6.74935C8.9617 6.84202 9.05034 6.90599 9.15301 6.92065L10.5643 7.12398C10.8223 7.16132 10.925 7.47732 10.7376 7.65865Z" fill="#3B3B3E"/>
</svg>
