<svg width="16" height="16" viewBox="0 0 16 16" fill="none" xmlns="http://www.w3.org/2000/svg">
<path d="M11.75 2H4.25C2.75 2 2 2.75 2 4.25V11.75C2 13.25 2.75 14 4.25 14H11.75C13.25 14 14 13.25 14 11.75V4.25C14 2.75 13.25 2 11.75 2ZM7.5 4.66667C7.5 4.39067 7.724 4.16667 8 4.16667C8.276 4.16667 8.5 4.39067 8.5 4.66667V7.62939C8.5 7.90539 8.276 8.12939 8 8.12939C7.724 8.12939 7.5 7.90539 7.5 7.62939V4.66667ZM8 11.8333C6.09067 11.8333 4.53727 10.2799 4.53727 8.37061C4.53727 7.44794 4.89869 6.5787 5.55469 5.92204C5.75002 5.72737 6.06671 5.7267 6.26204 5.92204C6.45738 6.1167 6.45738 6.43406 6.26204 6.62939C5.79471 7.09673 5.53727 7.71527 5.53727 8.37061C5.53727 9.72861 6.642 10.8333 8 10.8333C9.358 10.8333 10.4627 9.72861 10.4627 8.37061C10.4627 7.71527 10.2053 7.09673 9.73796 6.62939C9.54262 6.43406 9.54262 6.11737 9.73796 5.92204C9.93396 5.7267 10.2506 5.72737 10.4453 5.92204C11.1013 6.5787 11.4627 7.44794 11.4627 8.37061C11.4627 10.2799 9.90933 11.8333 8 11.8333Z" fill="#3B3B3E"/>
</svg>
