<svg width="16" height="16" viewBox="0 0 16 16" fill="none" xmlns="http://www.w3.org/2000/svg">
<path d="M8.68003 8C8.68003 8.368 8.38203 8.66667 8.01336 8.66667C7.64536 8.66667 7.34328 8.368 7.34328 8C7.34328 7.632 7.63869 7.33333 8.00669 7.33333H8.01336C8.38136 7.33333 8.68003 7.632 8.68003 8ZM14 7.99935C14 11.3127 11.314 13.9987 8.00067 13.9987C7.10733 13.9987 6.25399 13.7987 5.49399 13.4454C5.20066 13.3054 4.86071 13.3053 4.54738 13.4053L2.88071 13.9653C2.36071 14.1387 1.8607 13.6387 2.03403 13.1187L2.59409 11.452C2.69409 11.1387 2.69405 10.7987 2.55405 10.5053C2.20072 9.74533 2.00067 8.89202 2.00067 7.99935C2.00067 4.68602 4.68668 2 8.00001 2C11.3133 2 14 4.68602 14 7.99935ZM10.1206 8.00134C10.1206 7.68334 10.2946 7.38866 10.5786 7.22933L10.6667 7.17932L10.0554 6.15401L9.96795 6.20333C9.68328 6.36266 9.33268 6.36265 9.04868 6.20199C8.76601 6.04265 8.59197 5.74999 8.59197 5.43266C8.59197 5.37732 8.54594 5.33333 8.48927 5.33333H7.47267C7.416 5.33333 7.36997 5.37799 7.36997 5.43266C7.36997 5.74932 7.19608 6.04265 6.91408 6.20199C6.63008 6.36199 6.27931 6.36266 5.99464 6.20333C5.94664 6.176 5.88462 6.19201 5.85662 6.23934L5.34669 7.09534C5.31869 7.142 5.33531 7.202 5.38331 7.22933L5.38462 7.22998C5.66728 7.38931 5.84131 7.68134 5.84197 7.99801C5.84264 8.31667 5.66862 8.61132 5.38462 8.77132L5.38331 8.77201C5.33465 8.79935 5.31869 8.85932 5.34669 8.90666L5.85597 9.76135C5.88397 9.80869 5.94598 9.82466 5.99464 9.79732C6.27931 9.63799 6.62943 9.63867 6.91343 9.79867C7.19609 9.958 7.36932 10.2513 7.36932 10.568C7.36932 10.6227 7.41535 10.6673 7.47202 10.6673H8.49009C8.54675 10.6673 8.59262 10.6227 8.59262 10.568C8.59262 10.2513 8.76666 9.958 9.04933 9.79867C9.33333 9.63867 9.68393 9.63799 9.9686 9.79732C10.0173 9.82466 10.0786 9.80869 10.1066 9.76135L10.6167 8.90531C10.6447 8.85865 10.6281 8.79866 10.5801 8.77132L10.5793 8.77067C10.2953 8.61134 10.1213 8.31868 10.1206 8.00134Z" fill="#3B3B3E"/>
</svg>
