<svg width="16" height="16" viewBox="0 0 16 16" fill="none" xmlns="http://www.w3.org/2000/svg">
<path d="M11.9996 14.0003H9.33293C8.96426 14.0003 8.66626 13.7017 8.66626 13.3337C8.66626 12.9657 8.96426 12.667 9.33293 12.667H11.9996C12.9589 12.667 13.3329 12.293 13.3329 11.3337V5.33366C13.3329 4.37433 12.9589 4.00033 11.9996 4.00033H3.99959C3.04026 4.00033 2.66626 4.37433 2.66626 5.33366V6.00033C2.66626 6.36833 2.36826 6.66699 1.99959 6.66699C1.63093 6.66699 1.33293 6.36833 1.33293 6.00033V5.33366C1.33293 3.63899 2.30493 2.66699 3.99959 2.66699H11.9996C13.6943 2.66699 14.6663 3.63899 14.6663 5.33366V11.3337C14.6663 13.0283 13.6943 14.0003 11.9996 14.0003ZM4.50496 13.9123C4.8703 13.8623 5.1256 13.5263 5.0756 13.1616C4.9756 12.427 4.6409 11.7576 4.10824 11.2249C3.57624 10.6929 2.90695 10.359 2.17228 10.2583C1.80295 10.209 1.4709 10.4636 1.4209 10.8283C1.37157 11.193 1.62697 11.5289 1.99097 11.5789C2.43497 11.6396 2.84094 11.843 3.16561 12.1676C3.49028 12.4923 3.69357 12.8983 3.75423 13.3423C3.79957 13.6763 4.08623 13.9189 4.41423 13.9189C4.44423 13.9183 4.4743 13.9163 4.50496 13.9123ZM6.66561 14.0003C6.31961 14.0003 6.02763 13.7336 6.00163 13.3836C5.92296 12.339 5.4696 11.3537 4.72493 10.6084C3.98027 9.86306 2.99429 9.41039 1.94963 9.33105C1.58229 9.30305 1.30696 8.98371 1.33496 8.61637C1.36229 8.24904 1.68289 7.96896 2.04956 8.00163C3.41223 8.10429 4.6969 8.69502 5.66756 9.66569C6.63756 10.6364 7.22823 11.921 7.33089 13.283C7.35889 13.6504 7.08356 13.9704 6.71623 13.9977C6.69956 13.9997 6.68228 14.0003 6.66561 14.0003ZM2.9196 13.2471C2.9196 13.7071 2.54626 14.0804 2.08626 14.0804C1.62626 14.0804 1.25293 13.7071 1.25293 13.2471C1.25293 12.7871 1.62626 12.4137 2.08626 12.4137C2.54626 12.4137 2.9196 12.7864 2.9196 13.2471Z" fill="#3B3B3E"/>
</svg>
