<svg width="16" height="16" viewBox="0 0 16 16" fill="none" xmlns="http://www.w3.org/2000/svg">
<path d="M14.5003 6.66602C14.5003 6.94202 14.2763 7.16602 14.0003 7.16602H12.8337V8.33268C12.8337 8.60868 12.6097 8.83268 12.3337 8.83268C12.0577 8.83268 11.8337 8.60868 11.8337 8.33268V7.16602H10.667C10.391 7.16602 10.167 6.94202 10.167 6.66602C10.167 6.39002 10.391 6.16602 10.667 6.16602H11.8337V4.99935C11.8337 4.72335 12.0577 4.49935 12.3337 4.49935C12.6097 4.49935 12.8337 4.72335 12.8337 4.99935V6.16602H14.0003C14.2763 6.16602 14.5003 6.39002 14.5003 6.66602ZM6.67301 6.99935C8.14368 6.99935 9.33968 5.80335 9.33968 4.33268C9.33968 2.86202 8.14368 1.66602 6.67301 1.66602C5.20235 1.66602 4.00635 2.86202 4.00635 4.33268C4.00635 5.80335 5.20235 6.99935 6.67301 6.99935ZM8.00033 8.33268H5.33366C2.62699 8.33268 1.66699 10.3147 1.66699 12.012V13.9993C1.66699 14.1833 1.81633 14.3327 2.00033 14.3327H11.3337C11.5177 14.3327 11.667 14.1833 11.667 13.9993V12.012C11.667 10.3147 10.707 8.33268 8.00033 8.33268Z" fill="#3B3B3E"/>
</svg>
