<svg width="16" height="16" viewBox="0 0 16 16" fill="none" xmlns="http://www.w3.org/2000/svg">
<path d="M13.1831 8.00007C13.6038 7.34007 13.9505 6.68205 14.2012 6.04605C14.8912 4.29271 14.8099 2.8654 13.9712 2.02806C13.1325 1.1894 11.7065 1.10807 9.95313 1.79873C9.31713 2.04873 8.65919 2.39607 7.99919 2.81607C7.33919 2.3954 6.68126 2.04873 6.04526 1.79873C4.29192 1.10807 2.86452 1.1894 2.02719 2.02806C1.18852 2.86606 1.10721 4.29337 1.79721 6.0467C2.04788 6.6827 2.39445 7.34072 2.81511 8.00072C2.39445 8.66072 2.04788 9.31874 1.79721 9.95474C1.10721 11.7081 1.18852 13.1354 2.02719 13.9734C2.48852 14.4347 3.12848 14.6674 3.90382 14.6674C4.53582 14.6674 5.25726 14.5134 6.04526 14.2027C6.68126 13.9527 7.33919 13.6054 7.99919 13.1854C8.65919 13.606 9.31713 13.9527 9.95313 14.2027C10.7411 14.5127 11.4626 14.6674 12.0946 14.6674C12.8692 14.6674 13.5099 14.4354 13.9712 13.9734C14.8099 13.1354 14.8912 11.7081 14.2012 9.95474C13.9512 9.31807 13.6038 8.66007 13.1831 8.00007ZM10.4426 3.03938C11.0699 2.79204 11.6351 2.66804 12.0918 2.66804C12.5031 2.66804 12.8271 2.76876 13.0291 2.97142C13.4565 3.39809 13.4311 4.36476 12.9605 5.55809C12.7998 5.96676 12.5892 6.3887 12.3446 6.81403C11.8992 6.24203 11.4038 5.67804 10.8625 5.13671C10.3211 4.59537 9.75721 4.10076 9.18588 3.65542C9.61188 3.41009 10.0339 3.20004 10.4426 3.03938ZM6.07911 6.07941C6.69978 5.45941 7.34785 4.9074 7.99985 4.43073C8.65185 4.90673 9.29991 5.45875 9.92058 6.07941C10.5412 6.70008 11.0932 7.34873 11.5698 8.00007C11.0932 8.65207 10.5412 9.30072 9.92058 9.92072C9.29991 10.5407 8.65185 11.0927 7.99985 11.5694C7.34785 11.0934 6.69978 10.5414 6.07911 9.92072C5.45844 9.30006 4.90653 8.6514 4.42986 8.00007C4.90653 7.34807 5.45844 6.69941 6.07911 6.07941ZM3.03923 5.55744C2.56923 4.36411 2.54388 3.39744 2.97055 2.97077C3.17322 2.76877 3.49655 2.66739 3.90789 2.66739C4.36455 2.66739 4.92914 2.79206 5.55714 3.03872C5.9658 3.20006 6.38783 3.41011 6.81316 3.65477C6.24116 4.09944 5.6779 4.59472 5.13656 5.13605C4.59523 5.67739 4.0998 6.24138 3.65447 6.81338C3.4098 6.38805 3.1999 5.96677 3.03923 5.55744ZM5.55714 12.9608C4.3658 13.4308 3.39855 13.4567 2.97055 13.0294C2.54322 12.602 2.56857 11.6354 3.03923 10.442C3.1999 10.0334 3.41045 9.61144 3.65512 9.1861C4.10045 9.7581 4.59588 10.3221 5.13722 10.8634C5.67855 11.4048 6.24248 11.8994 6.81381 12.3447C6.38781 12.59 5.9658 12.8001 5.55714 12.9608ZM13.0291 13.0294C12.6011 13.456 11.6352 13.4308 10.4426 12.9608C10.0339 12.7994 9.61187 12.5894 9.18653 12.3447C9.75787 11.9 10.3218 11.4048 10.8631 10.8634C11.4045 10.3221 11.8999 9.7581 12.3452 9.1861C12.5899 9.6121 12.7998 10.0334 12.9611 10.442C13.4304 11.6354 13.4565 12.6027 13.0291 13.0294ZM7.17644 8.00007C7.17644 7.54007 7.54652 7.16673 8.00652 7.16673H8.01319C8.47319 7.16673 8.84653 7.54007 8.84653 8.00007C8.84653 8.46007 8.47319 8.8334 8.01319 8.8334C7.55319 8.8334 7.17644 8.46007 7.17644 8.00007Z" fill="#3B3B3E"/>
</svg>
