<svg width="16" height="16" viewBox="0 0 16 16" fill="none" xmlns="http://www.w3.org/2000/svg">
<path d="M12 8.66667H4C2.66667 8.66667 2 9.33333 2 10.6667V12C2 13.3333 2.66667 14 4 14H12C13.3333 14 14 13.3333 14 12V10.6667C14 9.33333 13.3333 8.66667 12 8.66667ZM9.33333 12C8.96533 12 8.66667 11.7013 8.66667 11.3333C8.66667 10.9653 8.96533 10.6667 9.33333 10.6667C9.70133 10.6667 10 10.9653 10 11.3333C10 11.7013 9.70133 12 9.33333 12ZM11.3333 12C10.9653 12 10.6667 11.7013 10.6667 11.3333C10.6667 10.9653 10.9653 10.6667 11.3333 10.6667C11.7013 10.6667 12 10.9653 12 11.3333C12 11.7013 11.7013 12 11.3333 12ZM13.7799 8.11995C13.3066 7.82662 12.7067 7.66667 12 7.66667H4C3.29333 7.66667 2.69339 7.82662 2.22005 8.11995L3.03337 3.63997C3.2067 2.69331 4 2 5 2H11C12 2 12.7933 2.69331 12.9666 3.63997L13.7799 8.11995Z" fill="#3B3B3E"/>
</svg>
