<svg width="16" height="16" viewBox="0 0 16 16" fill="none" xmlns="http://www.w3.org/2000/svg">
<path d="M7.99967 1.33301C4.31767 1.33301 1.33301 4.31767 1.33301 7.99967C1.33301 11.6817 4.31767 14.6663 7.99967 14.6663C11.6817 14.6663 14.6663 11.6817 14.6663 7.99967C14.6663 4.31767 11.6817 1.33301 7.99967 1.33301ZM11.333 10.2217C11.333 10.9623 10.9623 11.333 10.2217 11.333H5.77702C5.03635 11.333 4.66569 10.9623 4.66569 10.2217V6.88835C4.66569 6.14768 5.03635 5.77702 5.77702 5.77702H6.51774L6.76107 5.04574C6.83707 4.81907 7.04908 4.66569 7.28841 4.66569H8.70963C8.94897 4.66569 9.16098 4.8184 9.23698 5.04574L9.48031 5.77702H10.221C10.9617 5.77702 11.3324 6.14768 11.3324 6.88835V10.2217H11.333ZM9.111 8.55501C9.111 9.16901 8.61367 9.66634 7.99967 9.66634C7.38567 9.66634 6.88835 9.16901 6.88835 8.55501C6.88835 7.94168 7.38567 7.44368 7.99967 7.44368C8.61367 7.44368 9.111 7.94168 9.111 8.55501Z" fill="#3B3B3E"/>
</svg>
