<svg width="16" height="16" viewBox="0 0 16 16" fill="none" xmlns="http://www.w3.org/2000/svg">
<path d="M4.19499 5.80457C3.93432 5.5439 3.93432 5.12253 4.19499 4.86186L7.52767 1.52918C7.58967 1.46718 7.66295 1.41848 7.74495 1.38448C7.90762 1.31715 8.09173 1.31715 8.25439 1.38448C8.33639 1.41848 8.40968 1.46718 8.47168 1.52918L11.8044 4.86186C12.065 5.12253 12.065 5.5439 11.8044 5.80457C11.6744 5.93457 11.5037 5.99988 11.333 5.99988C11.1623 5.99988 10.9917 5.93457 10.8617 5.80457L8.66634 3.60926V11.3332C8.66634 11.7012 8.36834 11.9999 7.99967 11.9999C7.63101 11.9999 7.33301 11.7012 7.33301 11.3332V3.60926L5.1377 5.80457C4.87703 6.06524 4.45565 6.06524 4.19499 5.80457ZM11.9997 13.3332H3.99967C3.63101 13.3332 3.33301 13.6319 3.33301 13.9999C3.33301 14.3679 3.63101 14.6665 3.99967 14.6665H11.9997C12.3683 14.6665 12.6663 14.3679 12.6663 13.9999C12.6663 13.6319 12.3683 13.3332 11.9997 13.3332Z" fill="#3B3B3E"/>
</svg>
