<svg width="16" height="16" viewBox="0 0 16 16" fill="none" xmlns="http://www.w3.org/2000/svg">
<path d="M13.9997 14.5003H10.6664C10.3904 14.5003 10.1664 14.2763 10.1664 14.0003C10.1664 13.7243 10.3904 13.5003 10.6664 13.5003H13.9997C14.2757 13.5003 14.4997 13.7243 14.4997 14.0003C14.4997 14.2763 14.2757 14.5003 13.9997 14.5003ZM2.29305 8.37366C1.89971 8.767 1.89971 9.40033 2.29305 9.78699L2.8997 10.3937L4.31303 8.98031C4.50636 8.78698 4.8264 8.78698 5.01973 8.98031C5.21306 9.17365 5.21306 9.49368 5.01973 9.68702L3.60636 11.1003L6.21305 13.707C6.59972 14.1003 7.23305 14.1003 7.62638 13.707L10.2597 11.0803L4.92639 5.747L2.29305 8.37366ZM6.00638 3.99301L5.53039 4.469C5.40039 4.599 5.40039 4.81031 5.53039 4.94031L11.059 10.469C11.189 10.599 11.4004 10.599 11.5304 10.469L12.0064 9.99301C12.3837 9.61567 12.4997 9.05031 12.3017 8.55498L11.5704 6.72702C11.4071 6.31768 11.5304 5.84967 11.8744 5.575L13.5244 4.25501C14.1137 3.78368 14.1624 2.905 13.6284 2.37167C13.095 1.83834 12.2164 1.88701 11.745 2.47567L10.425 4.12566C10.1497 4.46966 9.68169 4.59299 9.27303 4.42965L7.44506 3.69833C6.94973 3.49966 6.38372 3.61568 6.00638 3.99301Z" fill="#3B3B3E"/>
</svg>
