<svg width="16" height="16" viewBox="0 0 16 16" fill="none" xmlns="http://www.w3.org/2000/svg">
<path d="M6.01367 14.833C5.55434 14.833 5.177 14.4597 5.177 13.9997C5.177 13.5397 5.547 13.1664 6.007 13.1664H6.01367C6.47367 13.1664 6.84701 13.5397 6.84701 13.9997C6.84701 14.4597 6.47367 14.833 6.01367 14.833ZM12.1803 13.9997C12.1803 13.5397 11.807 13.1664 11.347 13.1664H11.3403C10.8803 13.1664 10.5103 13.5397 10.5103 13.9997C10.5103 14.4597 10.887 14.833 11.347 14.833C11.807 14.833 12.1803 14.4597 12.1803 13.9997ZM8.66699 9.16636C8.39366 9.16636 8.16699 8.93969 8.16699 8.66636C8.16699 8.39303 8.39366 8.16636 8.66699 8.16636H13.379C13.477 8.16636 13.5603 8.09503 13.5763 7.99836L13.973 5.57236C14.1263 4.75236 13.493 3.99902 12.6663 3.99902H4.62703L4.48771 3.07503C4.35838 2.1617 3.59436 1.49902 2.67236 1.49902H2.49902C2.22302 1.49902 1.99902 1.72302 1.99902 1.99902C1.99902 2.27502 2.22302 2.49902 2.49902 2.49902H2.66569C3.08369 2.49902 3.43837 2.80636 3.49837 3.22036L4.49902 10.1857C4.59236 10.8457 5.15234 11.3324 5.81901 11.3324H11.3324C12.7324 11.3324 13.1257 10.639 13.299 9.69236L13.3464 9.40236C13.3464 9.40236 13.3897 9.16569 13.165 9.16569C12.9557 9.16636 8.66699 9.16636 8.66699 9.16636Z" fill="#3B3B3E"/>
</svg>
