<svg width="16" height="16" viewBox="0 0 16 16" fill="none" xmlns="http://www.w3.org/2000/svg">
<path d="M3.33333 6.66667C2.59667 6.66667 2 6.06933 2 5.33333C2 4.59733 2.59667 4 3.33333 4C4.07 4 4.66667 4.59733 4.66667 5.33333C4.66667 6.06933 4.07 6.66667 3.33333 6.66667ZM9.33333 5.33333C9.33333 4.59733 8.73667 4 8 4C7.26333 4 6.66667 4.59733 6.66667 5.33333C6.66667 6.06933 7.26333 6.66667 8 6.66667C8.73667 6.66667 9.33333 6.06933 9.33333 5.33333ZM14 5.33333C14 4.59733 13.4033 4 12.6667 4C11.93 4 11.3333 4.59733 11.3333 5.33333C11.3333 6.06933 11.93 6.66667 12.6667 6.66667C13.4033 6.66667 14 6.06933 14 5.33333ZM4.66667 10.6667C4.66667 9.93067 4.07 9.33333 3.33333 9.33333C2.59667 9.33333 2 9.93067 2 10.6667C2 11.4027 2.59667 12 3.33333 12C4.07 12 4.66667 11.4027 4.66667 10.6667ZM9.33333 10.6667C9.33333 9.93067 8.73667 9.33333 8 9.33333C7.26333 9.33333 6.66667 9.93067 6.66667 10.6667C6.66667 11.4027 7.26333 12 8 12C8.73667 12 9.33333 11.4027 9.33333 10.6667ZM14 10.6667C14 9.93067 13.4033 9.33333 12.6667 9.33333C11.93 9.33333 11.3333 9.93067 11.3333 10.6667C11.3333 11.4027 11.93 12 12.6667 12C13.4033 12 14 11.4027 14 10.6667Z" fill="#3B3B3E"/>
</svg>
