<svg width="16" height="16" viewBox="0 0 16 16" fill="none" xmlns="http://www.w3.org/2000/svg">
<path d="M4.66699 6.66699C3.56233 6.66699 2.66699 5.77166 2.66699 4.66699C2.66699 3.56233 3.56233 2.66699 4.66699 2.66699C5.77166 2.66699 6.66699 3.56233 6.66699 4.66699C6.66699 5.77166 5.77166 6.66699 4.66699 6.66699ZM13.3337 4.66699C13.3337 3.56233 12.4383 2.66699 11.3337 2.66699C10.229 2.66699 9.33366 3.56233 9.33366 4.66699C9.33366 5.77166 10.229 6.66699 11.3337 6.66699C12.4383 6.66699 13.3337 5.77166 13.3337 4.66699ZM6.66699 11.3337C6.66699 10.229 5.77166 9.33366 4.66699 9.33366C3.56233 9.33366 2.66699 10.229 2.66699 11.3337C2.66699 12.4383 3.56233 13.3337 4.66699 13.3337C5.77166 13.3337 6.66699 12.4383 6.66699 11.3337ZM13.3337 11.3337C13.3337 10.229 12.4383 9.33366 11.3337 9.33366C10.229 9.33366 9.33366 10.229 9.33366 11.3337C9.33366 12.4383 10.229 13.3337 11.3337 13.3337C12.4383 13.3337 13.3337 12.4383 13.3337 11.3337Z" fill="#3B3B3E"/>
</svg>
