<svg width="16" height="16" viewBox="0 0 16 16" fill="none" xmlns="http://www.w3.org/2000/svg">
<path d="M8.68001 9.00033C8.68001 9.36833 8.38201 9.66699 8.01335 9.66699C7.64535 9.66699 7.34326 9.36833 7.34326 9.00033C7.34326 8.63233 7.63867 8.33366 8.00667 8.33366H8.01335C8.38135 8.33366 8.68001 8.63233 8.68001 9.00033ZM14 6.66699V11.3337C14 12.667 13.3333 13.3337 12 13.3337H4C2.66667 13.3337 2 12.667 2 11.3337V4.66699C2 3.33366 2.66667 2.66699 4 2.66699H6.66667L8.66667 4.66699H12C13.3333 4.66699 14 5.33366 14 6.66699ZM9.85596 9.00167C9.85529 8.723 10.008 8.46566 10.2567 8.32566L10.334 8.28233L9.79932 7.38499L9.72266 7.42765C9.47332 7.56699 9.16664 7.567 8.91797 7.427C8.67064 7.28767 8.51872 7.03167 8.51872 6.75433C8.51872 6.70633 8.47804 6.66699 8.42871 6.66699H7.53939C7.49005 6.66699 7.44938 6.70633 7.44938 6.75433C7.44938 7.03167 7.2973 7.28767 7.04997 7.427C6.8013 7.567 6.49461 7.56765 6.24528 7.42765C6.20328 7.40365 6.14934 7.41832 6.12467 7.45898L5.67871 8.20766C5.65404 8.24833 5.66861 8.30099 5.71061 8.32499L5.71208 8.32566C5.95941 8.465 6.11131 8.72099 6.11198 8.99766C6.11265 9.27633 5.96008 9.53432 5.71208 9.67432L5.71126 9.67499C5.6686 9.69899 5.65471 9.75165 5.67871 9.79232L6.12467 10.5403C6.14934 10.5817 6.20326 10.5957 6.24593 10.5717C6.4946 10.4323 6.8013 10.4323 7.04997 10.5723C7.2973 10.7117 7.4494 10.9683 7.44873 11.2457C7.44873 11.2937 7.48874 11.333 7.53874 11.333H8.42936C8.4787 11.333 8.51937 11.2943 8.51937 11.2463C8.51937 10.969 8.67129 10.713 8.91862 10.5736C9.16729 10.4336 9.47397 10.433 9.72331 10.573C9.76531 10.597 9.82008 10.5823 9.84408 10.5417L10.29 9.79299C10.3147 9.75232 10.3 9.69966 10.258 9.67566L10.2573 9.67499C10.0087 9.53565 9.85596 9.279 9.85596 9.00167Z" fill="#3B3B3E"/>
</svg>
