<svg width="16" height="16" viewBox="0 0 16 16" fill="none" xmlns="http://www.w3.org/2000/svg">
<path d="M4 2.66699H7.29997C7.41063 2.66699 7.5 2.75636 7.5 2.86702V13.1336C7.5 13.2443 7.41063 13.3337 7.29997 13.3337H4C2.66667 13.3337 2 12.667 2 11.3337V4.66699C2 3.33366 2.66667 2.66699 4 2.66699ZM12 2.66699H8.70003C8.58937 2.66699 8.5 2.75636 8.5 2.86702V13.1336C8.5 13.2443 8.58937 13.3337 8.70003 13.3337H12C13.3333 13.3337 14 12.667 14 11.3337V4.66699C14 3.33366 13.3333 2.66699 12 2.66699Z" fill="#3B3B3E"/>
</svg>
