<svg width="16" height="16" viewBox="0 0 16 16" fill="none" xmlns="http://www.w3.org/2000/svg">
<path d="M7.99967 1.33301C4.31767 1.33301 1.33301 4.31767 1.33301 7.99967C1.33301 11.6817 4.31767 14.6663 7.99967 14.6663C11.6817 14.6663 14.6663 11.6817 14.6663 7.99967C14.6663 4.31767 11.6817 1.33301 7.99967 1.33301ZM11.1663 7.111C11.1663 7.387 10.9423 7.611 10.6663 7.611H9.18441C8.90841 7.611 8.68441 7.387 8.68441 7.111C8.68441 6.835 8.90841 6.611 9.18441 6.611H9.65495C9.25228 6.131 8.65234 5.83301 7.99967 5.83301C6.80501 5.83301 5.83301 6.80501 5.83301 7.99967C5.83301 9.19434 6.80501 10.1663 7.99967 10.1663C8.82767 10.1663 9.57095 9.70507 9.93962 8.9624C10.0623 8.71574 10.3604 8.61365 10.6104 8.73698C10.8577 8.86031 10.9583 9.15973 10.8356 9.40706C10.2963 10.4917 9.21034 11.1663 7.99967 11.1663C6.25367 11.1663 4.83301 9.74567 4.83301 7.99967C4.83301 6.25367 6.25367 4.83301 7.99967 4.83301C8.82301 4.83301 9.59167 5.15499 10.1663 5.69499V5.62972C10.1663 5.35372 10.3903 5.12972 10.6663 5.12972C10.9423 5.12972 11.1663 5.35372 11.1663 5.62972V7.111Z" fill="#3B3B3E"/>
</svg>
