<svg width="16" height="16" viewBox="0 0 16 16" fill="none" xmlns="http://www.w3.org/2000/svg">
<path d="M14.5 3V6.96667C14.5 7.90667 13.94 8.46668 13 8.46668H12.8667C12.756 8.46668 12.6667 8.37735 12.6667 8.26668V3.86666C12.6667 3.75599 12.5773 3.66667 12.4667 3.66667H3.53333C3.42266 3.66667 3.33333 3.75599 3.33333 3.86666V8.26668C3.33333 8.37735 3.24401 8.46668 3.13334 8.46668H3C2.06 8.46668 1.5 7.90667 1.5 6.96667V3C1.5 2.06 2.06 1.5 3 1.5H13C13.94 1.5 14.5 2.06 14.5 3ZM11.6667 4.86666V12C11.6667 13.1047 10.7713 14 9.66667 14H6.33333C5.22867 14 4.33333 13.1047 4.33333 12V4.86666C4.33333 4.75599 4.42266 4.66667 4.53333 4.66667H11.4667C11.5773 4.66667 11.6667 4.75599 11.6667 4.86666ZM8.66667 11.67C8.66667 11.302 8.368 11.0033 8 11.0033C7.632 11.0033 7.33333 11.302 7.33333 11.67C7.33333 12.038 7.632 12.3367 8 12.3367C8.368 12.3367 8.66667 12.0387 8.66667 11.67ZM9.5 8.16667C9.5 7.338 8.82867 6.66667 8 6.66667C7.17133 6.66667 6.5 7.338 6.5 8.16667C6.5 8.99533 7.17133 9.66667 8 9.66667C8.82867 9.66667 9.5 8.99533 9.5 8.16667Z" fill="#3B3B3E"/>
</svg>
