<svg width="16" height="16" viewBox="0 0 16 16" fill="none" xmlns="http://www.w3.org/2000/svg">
<path d="M12 4.66699H8.66667L6.66667 2.66699H4C2.66667 2.66699 2 3.33366 2 4.66699V11.3337C2 12.667 2.66667 13.3337 4 13.3337H12C13.3333 13.3337 14 12.667 14 11.3337V6.66699C14 5.33366 13.3333 4.66699 12 4.66699ZM9.66667 9.50033H8.5V10.667C8.5 10.943 8.276 11.167 8 11.167C7.724 11.167 7.5 10.943 7.5 10.667V9.50033H6.33333C6.05733 9.50033 5.83333 9.27633 5.83333 9.00033C5.83333 8.72433 6.05733 8.50033 6.33333 8.50033H7.5V7.33366C7.5 7.05766 7.724 6.83366 8 6.83366C8.276 6.83366 8.5 7.05766 8.5 7.33366V8.50033H9.66667C9.94267 8.50033 10.1667 8.72433 10.1667 9.00033C10.1667 9.27633 9.94267 9.50033 9.66667 9.50033Z" fill="#3B3B3E"/>
</svg>
