<svg width="16" height="16" viewBox="0 0 16 16" fill="none" xmlns="http://www.w3.org/2000/svg">
<path d="M11.667 14.5H4.16699C2.39366 14.5 1.41699 13.5233 1.41699 11.75V4.25C1.41699 2.47667 2.39366 1.5 4.16699 1.5H11.667C13.4403 1.5 14.417 2.47667 14.417 4.25V11.75C14.417 13.5233 13.4403 14.5 11.667 14.5ZM4.16699 2.5C2.94033 2.5 2.41699 3.02333 2.41699 4.25V11.75C2.41699 12.9767 2.94033 13.5 4.16699 13.5H11.667C12.8937 13.5 13.417 12.9767 13.417 11.75V4.25C13.417 3.02333 12.8937 2.5 11.667 2.5H4.16699ZM5.41699 12H10.417C11.417 12 11.917 11.5 11.917 10.5V5.5C11.917 4.5 11.417 4 10.417 4H5.41699C4.41699 4 3.91699 4.5 3.91699 5.5V10.5C3.91699 11.5 4.41699 12 5.41699 12Z" fill="#3B3B3E"/>
</svg>
