<svg width="16" height="16" viewBox="0 0 16 16" fill="none" xmlns="http://www.w3.org/2000/svg">
<path d="M14.667 5.03989V10.9598C14.667 11.3811 14.1796 11.6146 13.8509 11.3513L12.4084 10.1932C12.361 10.1552 12.3337 10.0978 12.3337 10.0371V6.41587C12.3337 6.36254 12.3549 6.31193 12.3923 6.27459L14.0583 4.60858C14.1356 4.53124 14.233 4.54252 14.263 4.54852C14.4824 4.59252 14.667 4.77923 14.667 5.03989ZM11.007 7.65985L6.32699 12.3399C6.19965 12.4912 6.33163 12.6665 6.47363 12.6665H9.33366C10.667 12.6665 11.3337 11.9999 11.3337 10.6665V7.82244C11.3337 7.59444 11.103 7.56385 11.007 7.65985ZM14.3537 1.6465C14.1583 1.45117 13.8417 1.45117 13.6463 1.6465L11.0903 4.20249C10.7923 3.62716 10.2097 3.33319 9.33301 3.33319H3.33301C1.99967 3.33319 1.33301 3.99985 1.33301 5.33319V10.6665C1.33301 11.7639 1.7923 12.4025 2.69564 12.5965L1.64567 13.6465C1.45034 13.8418 1.45034 14.1585 1.64567 14.3539C1.743 14.4512 1.87102 14.5005 1.99902 14.5005C2.12702 14.5005 2.25504 14.4519 2.35238 14.3539L14.3524 2.35386C14.549 2.15786 14.549 1.84183 14.3537 1.6465Z" fill="#3B3B3E"/>
</svg>
