<svg width="16" height="16" viewBox="0 0 16 16" fill="none" xmlns="http://www.w3.org/2000/svg">
<path d="M11.75 2H4.25C2.75 2 2 2.75 2 4.25V11.75C2 13.25 2.75 14 4.25 14H11.75C13.25 14 14 13.25 14 11.75V4.25C14 2.75 13.25 2 11.75 2ZM10.3534 10.3573C10.256 10.4546 10.128 10.5041 10 10.5041C9.872 10.5041 9.74398 10.4553 9.64665 10.3573L6.5 7.21061V8.66992C6.5 8.94592 6.276 9.16992 6 9.16992C5.724 9.16992 5.5 8.94592 5.5 8.66992V6.00326C5.5 5.93792 5.5134 5.87335 5.53874 5.81201C5.5894 5.69001 5.68674 5.59267 5.80941 5.54134C5.87074 5.51601 5.93532 5.5026 6.00065 5.5026H8.66732C8.94332 5.5026 9.16732 5.7266 9.16732 6.0026C9.16732 6.2786 8.94332 6.5026 8.66732 6.5026H7.20801L10.3547 9.64941C10.5487 9.84541 10.5487 10.1619 10.3534 10.3573Z" fill="#3B3B3E"/>
</svg>
