<svg width="16" height="16" viewBox="0 0 16 16" fill="none" xmlns="http://www.w3.org/2000/svg">
<path d="M14.3534 1.64665C14.158 1.45131 13.8413 1.45131 13.646 1.64665L10.926 4.36735C10.2453 3.81802 9.41202 3.45603 8.49402 3.36003C8.49602 3.36003 8.498 3.36003 8.5 3.36003V2C8.5 1.72667 8.27333 1.5 8 1.5C7.72667 1.5 7.5 1.72667 7.5 2V3.36003C7.50267 3.36003 7.50535 3.36003 7.50802 3.36003C5.32202 3.58869 3.58799 5.32196 3.35999 7.50863C3.35999 7.50596 3.36001 7.50332 3.36068 7.50065H2C1.72667 7.50065 1.5 7.72732 1.5 8.00065C1.5 8.27398 1.72667 8.50065 2 8.50065H3.35999C3.35999 8.49865 3.35999 8.49664 3.35999 8.49398C3.45599 9.41264 3.81735 10.2459 4.36735 10.9266L1.64734 13.6473C1.45201 13.8426 1.45201 14.1593 1.64734 14.3547C1.74467 14.452 1.87265 14.5013 2.00065 14.5013C2.12865 14.5013 2.25667 14.4527 2.354 14.3547L14.354 2.35465C14.5487 2.15799 14.5487 1.84198 14.3534 1.64665ZM6.33333 8C6.33333 7.08 7.08 6.33333 8 6.33333C8.27733 6.33333 8.53532 6.40736 8.76599 6.52669L6.52665 8.76595C6.40732 8.53528 6.33333 8.27733 6.33333 8ZM14 7.5H12.64C12.6427 7.52267 12.642 7.54667 12.644 7.56934C12.614 7.24 12.552 6.92135 12.4587 6.61735C12.4147 6.47535 12.2307 6.43602 12.126 6.54069L6.54134 12.1253C6.43667 12.23 6.47602 12.4147 6.61735 12.4587C6.92135 12.552 7.24 12.614 7.56934 12.644C7.54667 12.6414 7.52267 12.6426 7.5 12.64V14C7.5 14.2733 7.72667 14.5 8 14.5C8.27333 14.5 8.5 14.2733 8.5 14V12.6333C8.49733 12.6333 8.49534 12.6333 8.49268 12.634C8.56668 12.6266 8.63935 12.6246 8.71468 12.6139C10.704 12.3199 12.3193 10.704 12.614 8.71533C12.6253 8.64 12.6267 8.56733 12.634 8.49333C12.634 8.49599 12.634 8.49798 12.6333 8.50065H14C14.2733 8.50065 14.5 8.27398 14.5 8.00065C14.5 7.72732 14.2733 7.5 14 7.5ZM7.74532 12.6546C7.85865 12.6606 7.97268 12.6646 8.08801 12.6619C7.97201 12.6659 7.85799 12.6613 7.74532 12.6546ZM12.662 8.08805C12.664 7.97205 12.6607 7.85861 12.6547 7.74528C12.6613 7.85861 12.666 7.97205 12.662 8.08805Z" fill="#3B3B3E"/>
</svg>
