<svg width="16" height="16" viewBox="0 0 16 16" fill="none" xmlns="http://www.w3.org/2000/svg">
<path d="M13.2997 7.52635C13.033 9.17968 11.573 10.3997 9.85968 10.3997H8.77301C8.59301 10.3997 8.43967 10.5263 8.413 10.693L7.92635 13.7063C7.89968 13.873 7.753 13.9997 7.57967 13.9997H6.03967C5.87301 13.9997 5.75302 13.853 5.77968 13.6863L6.56635 8.91968L6.66634 8.33301H8.36633C8.59967 8.33301 8.81968 8.31301 9.04635 8.27301C9.13968 8.25968 9.233 8.23968 9.32633 8.21301C9.87967 8.07968 10.3797 7.82634 10.7997 7.47968C10.8863 7.41968 10.9663 7.34634 11.0397 7.26634C11.1063 7.20634 11.1663 7.13966 11.233 7.073C11.353 6.94633 11.4597 6.80635 11.553 6.65302C11.5997 6.58635 11.6463 6.51301 11.6863 6.43968C11.7397 6.34634 11.793 6.24634 11.8397 6.14634C11.8997 6.02634 11.9463 5.89968 11.9863 5.77301C12.013 5.69968 12.033 5.62633 12.053 5.553C12.0597 5.51967 12.073 5.49301 12.0797 5.45968C12.0997 5.36634 12.1197 5.273 12.133 5.17967C12.1463 5.09967 12.1597 5.01301 12.1597 4.93968C12.1597 4.94634 12.1663 4.94635 12.1663 4.94635C13.0063 5.51302 13.4663 6.47301 13.2997 7.52635V7.52635ZM11.393 3.993C11.3597 3.88633 11.3063 3.76635 11.2463 3.65302C10.8063 2.82635 9.90633 2.33301 8.84633 2.33301H5.12634C4.93301 2.33301 4.75968 2.47301 4.73301 2.66634L3.33968 11.273C3.33968 11.273 3.33301 11.3063 3.33301 11.3197C3.33301 11.473 3.45967 11.5997 3.61967 11.5997H5.43968L5.493 11.2663L5.98635 8.23966C6.03968 7.90633 6.32633 7.66634 6.65967 7.66634H8.36633C9.933 7.66634 11.2397 6.57966 11.4797 5.073C11.493 4.96633 11.5063 4.85301 11.5063 4.75301C11.513 4.49301 11.473 4.23967 11.393 3.993V3.993Z" fill="#3B3B3E"/>
</svg>
