<svg width="16" height="16" viewBox="0 0 16 16" fill="none" xmlns="http://www.w3.org/2000/svg">
<path d="M12.3678 9.83396H3.63181C3.47981 9.83396 3.38314 9.67067 3.45648 9.53733L4.52248 7.60398C4.55781 7.53998 4.62448 7.50063 4.69781 7.50063H11.3018C11.3745 7.50063 11.4418 7.53998 11.4771 7.60398L12.5431 9.53733C12.6165 9.67067 12.5198 9.83396 12.3678 9.83396ZM9.09315 3.31395C8.61982 2.45395 7.3798 2.45395 6.90647 3.31395L5.30446 6.204C5.23046 6.33733 5.32714 6.50063 5.47914 6.50063H10.5198C10.6725 6.50063 10.7685 6.33733 10.6945 6.204L9.09315 3.31395ZM13.8798 11.9473L13.3238 10.9373C13.2885 10.8733 13.2218 10.834 13.1485 10.834H2.85182C2.77915 10.834 2.71182 10.8733 2.67649 10.9373L2.11981 11.9473C1.77314 12.5673 2.21983 13.334 2.93316 13.334H13.0665C13.7798 13.334 14.2265 12.5673 13.8798 11.9473Z" fill="#3B3B3E"/>
</svg>
