<svg width="16" height="16" viewBox="0 0 16 16" fill="none" xmlns="http://www.w3.org/2000/svg">
<path d="M1.36035 7.50018C1.46702 6.03352 2.04702 4.70685 2.95368 3.65351L7.30035 8.00018L6.03369 9.26685C4.78036 8.17351 3.14702 7.50685 1.36702 7.50018H1.36035ZM1.36035 8.50018C1.46702 9.96685 2.04702 11.2935 2.95368 12.3402L5.32703 9.96685C4.25369 9.05351 2.87369 8.50019 1.36702 8.49352L1.36035 8.50018ZM9.97369 6.73352L8.70702 8.00018L13.0537 12.3469C13.9537 11.3002 14.5337 9.96685 14.647 8.50018C12.8604 8.50018 11.2337 7.82685 9.98036 6.73352H9.97369ZM14.6404 7.50018C14.5337 6.03352 13.9537 4.70685 13.047 3.66019L10.6737 6.03352C11.747 6.94685 13.127 7.50018 14.6337 7.50685L14.6404 7.50018ZM6.02702 10.6802L3.65369 13.0535C4.70035 13.9535 6.03369 14.5335 7.49369 14.6469C7.49369 13.1335 6.93369 11.7535 6.02035 10.6868L6.02702 10.6802ZM8.00036 8.70685L6.73369 9.97352C7.82703 11.2269 8.49369 12.8602 8.50036 14.6402C9.96702 14.5335 11.2937 13.9535 12.347 13.0469L8.00036 8.70019V8.70685ZM8.00036 7.29352L9.26702 6.02685C8.17368 4.77351 7.50702 3.14018 7.50036 1.36018C6.03369 1.46685 4.70702 2.04684 3.65369 2.95351L8.00036 7.30018V7.29352ZM9.97369 5.32018L12.347 2.94685C11.3004 2.04685 9.96702 1.46685 8.50702 1.35352C8.50702 2.86685 9.06702 4.24685 9.98036 5.31352L9.97369 5.32018Z" fill="#3B3B3E"/>
</svg>
