<svg width="16" height="16" viewBox="0 0 16 16" fill="none" xmlns="http://www.w3.org/2000/svg">
<path d="M13.6663 8H12.6663C11.9297 8 11.333 8.59667 11.333 9.33333C11.333 10.07 11.9297 10.6667 12.6663 10.6667H13.6663C13.8503 10.6667 13.9997 10.816 13.9997 11V12.6667C13.9997 13.4033 13.403 14 12.6663 14H10.333C10.149 14 9.99967 13.8507 9.99967 13.6667V12.6667C9.99967 11.93 9.40301 11.3333 8.66634 11.3333C7.92967 11.3333 7.33301 11.93 7.33301 12.6667V13.6667C7.33301 13.8507 7.18367 14 6.99967 14H5.33301C4.59634 14 3.99967 13.4033 3.99967 12.6667V11C3.99967 10.816 3.85034 10.6667 3.66634 10.6667H2.66634C1.92967 10.6667 1.33301 10.07 1.33301 9.33333C1.33301 8.59667 1.92967 8 2.66634 8H3.66634C3.85034 8 3.99967 7.85067 3.99967 7.66667V6C3.99967 5.26333 4.59634 4.66667 5.33301 4.66667H6.99967C7.18367 4.66667 7.33301 4.51733 7.33301 4.33333V3.33333C7.33301 2.59667 7.92967 2 8.66634 2C9.40301 2 9.99967 2.59667 9.99967 3.33333V4.33333C9.99967 4.51733 10.149 4.66667 10.333 4.66667H12.6663C13.403 4.66667 13.9997 5.26333 13.9997 6V7.66667C13.9997 7.85067 13.8503 8 13.6663 8Z" fill="#3B3B3E"/>
</svg>
