<svg width="16" height="16" viewBox="0 0 16 16" fill="none" xmlns="http://www.w3.org/2000/svg">
<path d="M7.63921 6.66634C7.77721 6.66634 7.86721 6.79966 7.82655 6.93099C7.72188 7.26832 7.6672 7.62567 7.6672 7.99967C7.6672 8.37367 7.72121 8.73103 7.82655 9.06836C7.86721 9.19969 7.77721 9.33301 7.63921 9.33301H3.40858C2.70391 9.33301 2.06524 8.81901 2.00591 8.11768C1.97124 7.70501 2.12125 7.32573 2.39458 7.05973C2.63458 6.81307 2.96786 6.66634 3.33452 6.66634H7.63921ZM11.3339 10.6663C12.8065 10.6663 14.0005 9.47234 14.0005 7.99967C14.0005 6.52701 12.8065 5.33301 11.3339 5.33301C9.8612 5.33301 8.6672 6.52701 8.6672 7.99967C8.6672 9.47234 9.8612 10.6663 11.3339 10.6663Z" fill="#3B3B3E"/>
</svg>
