<svg width="16" height="16" viewBox="0 0 16 16" fill="none" xmlns="http://www.w3.org/2000/svg">
<path d="M14.1616 12.9703C13.9516 13.2696 13.5629 13.3883 13.2089 13.2983L11.3823 12.837C10.7376 12.6743 10.3337 12.0337 10.463 11.3803L10.7003 10.1797C8.98498 9.47633 7.04497 9.47965 5.32564 10.1863L5.56571 11.3777C5.69771 12.0323 5.29437 12.6756 4.64904 12.841L2.83296 13.3057C2.45496 13.4023 2.05759 13.2503 1.84159 12.9257L1.83556 12.917C0.863564 11.4663 1.3497 9.49299 2.87837 8.65299C6.13104 6.86633 10.0682 6.89698 13.2936 8.73165C14.6976 9.53031 15.0922 11.647 14.1616 12.9703ZM11.6863 2.31366C11.491 2.11833 11.1743 2.11833 10.979 2.31366L8.58833 4.70433C8.263 5.02899 7.73562 5.02899 7.40962 4.70433L5.87235 3.16699H6.66629C6.94229 3.16699 7.16629 2.94299 7.16629 2.66699C7.16629 2.39099 6.94229 2.16699 6.66629 2.16699H4.66629C4.60096 2.16699 4.53622 2.18033 4.47489 2.20567C4.35289 2.25633 4.25488 2.35365 4.20422 2.47632C4.17888 2.53765 4.16564 2.60233 4.16564 2.66766V4.66766C4.16564 4.94366 4.38964 5.16766 4.66564 5.16766C4.94164 5.16766 5.16564 4.94366 5.16564 4.66766V3.875L6.70291 5.41233C7.06025 5.76967 7.52964 5.94832 7.99897 5.94832C8.46831 5.94832 8.9377 5.76967 9.29504 5.41233L11.6857 3.02167C11.8817 2.82567 11.8816 2.50833 11.6863 2.31366Z" fill="#3B3B3E"/>
</svg>
