<svg width="16" height="16" viewBox="0 0 16 16" fill="none" xmlns="http://www.w3.org/2000/svg">
<path d="M10.9063 4C9.813 4 8.953 4.8 8.17967 5.82667C7.113 4.50667 6.22633 4 5.15967 4C2.99967 4 1.33301 6.76 1.33301 9.68667C1.33301 11.5133 2.23968 12.6667 3.75301 12.6667C4.84634 12.6667 5.62634 12.1667 7.01967 9.78C7.01967 9.78 7.59967 8.77334 7.99967 8.08667C8.13967 8.31334 8.29302 8.55334 8.44635 8.80667L9.09302 9.88667C10.3664 11.9667 11.0863 12.6733 12.3663 12.6733C13.8397 12.6733 14.6597 11.5067 14.6597 9.63333C14.6597 6.58 12.9663 4.00666 10.8997 4.00666L10.9063 4ZM5.96635 9.13333C4.83302 10.8667 4.43968 11.26 3.81301 11.26C3.18634 11.26 2.77301 10.7 2.77301 9.71334C2.77301 7.58667 3.85968 5.42 5.14634 5.42C5.85301 5.42 6.433 5.81334 7.32633 7.06667C6.47967 8.33334 5.96635 9.13333 5.96635 9.13333V9.13333ZM12.4063 11.26C11.7597 11.26 11.453 10.84 10.233 8.92L9.453 7.64C9.233 7.30667 9.033 6.98666 8.84633 6.70666C9.553 5.64666 10.133 5.11333 10.8197 5.11333C12.2597 5.11333 13.413 7.18 13.413 9.72C13.413 10.6867 13.0863 11.26 12.413 11.26H12.4063Z" fill="#3B3B3E"/>
</svg>
