<svg width="16" height="16" viewBox="0 0 16 16" fill="none" xmlns="http://www.w3.org/2000/svg">
<path d="M14.615 11.5886C14.581 11.6706 14.5324 11.7439 14.4704 11.8059L13.1377 13.1385C13.0077 13.2685 12.837 13.3338 12.6663 13.3338C12.4957 13.3338 12.325 13.2685 12.195 13.1385C11.9343 12.8779 11.9343 12.4565 12.195 12.1958L12.3904 12.0005H11.627C10.8124 12.0005 10.0543 11.6359 9.545 10.9999L5.41235 5.8345C5.15835 5.5165 4.779 5.3345 4.37166 5.3345H1.99967C1.63101 5.3345 1.33301 5.03583 1.33301 4.66783C1.33301 4.29983 1.63101 4.00116 1.99967 4.00116H4.37231C5.18698 4.00116 5.94501 4.36582 6.45435 5.00182L10.587 10.1672C10.841 10.4852 11.2204 10.6672 11.6277 10.6672H12.391L12.1956 10.4719C11.935 10.2112 11.935 9.78983 12.1956 9.52916C12.4563 9.26849 12.8777 9.26849 13.1383 9.52916L14.471 10.8618C14.533 10.9238 14.5816 10.9971 14.6156 11.0791C14.6823 11.2418 14.6823 11.4259 14.615 11.5886ZM9.33236 7.00051C9.52836 7.00051 9.72169 6.91518 9.85303 6.75051L10.587 5.83385C10.841 5.51585 11.2204 5.33385 11.6277 5.33385H12.391L12.1956 5.52916C11.935 5.78983 11.935 6.2112 12.1956 6.47187C12.3256 6.60187 12.4963 6.66718 12.667 6.66718C12.8377 6.66718 13.0083 6.60187 13.1383 6.47187L14.471 5.13919C14.533 5.07719 14.5816 5.0039 14.6156 4.9219C14.683 4.75923 14.683 4.57513 14.6156 4.41246C14.5816 4.33046 14.533 4.25717 14.471 4.19517L13.1383 2.86249C12.8777 2.60183 12.4563 2.60183 12.1956 2.86249C11.935 3.12316 11.935 3.54453 12.1956 3.8052L12.391 4.00051H11.6277C10.813 4.00051 10.055 4.36516 9.54631 5.00116L8.81299 5.91718C8.58232 6.20451 8.62967 6.62452 8.91634 6.85452C9.03967 6.95252 9.18636 7.00051 9.33236 7.00051ZM6.14632 9.25051L5.41235 10.1672C5.15835 10.4852 4.779 10.6672 4.37166 10.6672H1.99967C1.63101 10.6672 1.33301 10.9658 1.33301 11.3338C1.33301 11.7018 1.63101 12.0005 1.99967 12.0005H4.37231C5.18698 12.0005 5.94503 11.6359 6.45369 10.9999L7.18701 10.0838C7.41768 9.79651 7.37033 9.37651 7.08366 9.14651C6.79433 8.91718 6.37566 8.96385 6.14632 9.25051Z" fill="#3B3B3E"/>
</svg>
