<svg width="16" height="16" viewBox="0 0 16 16" fill="none" xmlns="http://www.w3.org/2000/svg">
<path d="M12 4.66699H8.66667L6.66667 2.66699H4C2.66667 2.66699 2 3.33366 2 4.66699V11.3337C2 12.667 2.66667 13.3337 4 13.3337H12C13.3333 13.3337 14 12.667 14 11.3337V6.66699C14 5.33366 13.3333 4.66699 12 4.66699ZM8.02002 9.02032C7.92269 9.11766 7.79467 9.16699 7.66667 9.16699C7.53867 9.16699 7.41065 9.11832 7.31331 9.02032L6.83333 8.54032V10.667C6.83333 10.943 6.60933 11.167 6.33333 11.167C6.05733 11.167 5.83333 10.943 5.83333 10.667V8.541L5.35335 9.021C5.15802 9.21633 4.84133 9.21633 4.646 9.021C4.45066 8.82566 4.45066 8.50899 4.646 8.31366L5.97933 6.98033C6.02533 6.93433 6.08059 6.89767 6.14193 6.87233C6.26393 6.82167 6.40193 6.82167 6.52393 6.87233C6.58526 6.89767 6.64069 6.93433 6.68669 6.98033L8.02002 8.31366C8.21535 8.50833 8.21535 8.82566 8.02002 9.02032Z" fill="#3B3B3E"/>
</svg>
