<svg width="16" height="16" viewBox="0 0 16 16" fill="none" xmlns="http://www.w3.org/2000/svg">
<path d="M13.5939 11.7923C13.5812 11.777 12.3299 10.1883 12.3299 8.33366V5.99699C12.3299 3.60966 10.3872 1.66699 7.99988 1.66699C5.61254 1.66699 3.66988 3.60966 3.66988 5.99699V8.33366C3.66988 10.1877 2.4192 11.7763 2.40587 11.7923C2.32587 11.8923 2.31054 12.0297 2.36587 12.145C2.42121 12.2603 2.53787 12.3337 2.66587 12.3337H13.3325C13.4605 12.3337 13.5772 12.2603 13.6325 12.145C13.6892 12.029 13.6732 11.8923 13.5939 11.7923ZM9.35321 7.98033C9.54854 8.17566 9.54854 8.49233 9.35321 8.68766C9.25587 8.785 9.12788 8.83433 8.99988 8.83433C8.87188 8.83433 8.74388 8.78566 8.64654 8.68766L7.99988 8.041L7.35321 8.68766C7.25588 8.785 7.12788 8.83433 6.99988 8.83433C6.87188 8.83433 6.74388 8.78566 6.64654 8.68766C6.45121 8.49233 6.45121 8.17566 6.64654 7.98033L7.29321 7.33366L6.64654 6.68699C6.45121 6.49166 6.45121 6.17499 6.64654 5.97966C6.84188 5.78432 7.15855 5.78432 7.35388 5.97966L8.00055 6.62632L8.6472 5.97966C8.84254 5.78432 9.15921 5.78432 9.35454 5.97966C9.54987 6.17499 9.54987 6.49166 9.35454 6.68699L8.70787 7.33366L9.35321 7.98033ZM9.44121 13.5017C9.13721 14.0223 8.59854 14.3337 7.99988 14.3337C7.40121 14.3337 6.86254 14.0223 6.55854 13.5017C6.49854 13.399 6.49787 13.271 6.55721 13.1677C6.61654 13.0643 6.72655 13.0003 6.84655 13.0003H9.15321C9.27254 13.0003 9.38254 13.0643 9.44254 13.1677C9.50254 13.271 9.50121 13.399 9.44121 13.5017Z" fill="#3B3B3E"/>
</svg>
