<svg width="16" height="16" viewBox="0 0 16 16" fill="none" xmlns="http://www.w3.org/2000/svg">
<path d="M12 3.33301H4C2.66667 3.33301 2 3.99967 2 5.33301V10.6663C2 11.9997 2.66667 12.6663 4 12.6663H12C13.3333 12.6663 14 11.9997 14 10.6663V5.33301C14 3.99967 13.3333 3.33301 12 3.33301ZM4 8.66634C3.63333 8.66634 3.33333 8.36634 3.33333 7.99967C3.33333 7.63301 3.63333 7.33301 4 7.33301C4.36667 7.33301 4.66667 7.63301 4.66667 7.99967C4.66667 8.36634 4.36667 8.66634 4 8.66634ZM8 9.99967C6.89333 9.99967 6 9.10634 6 7.99967C6 6.89301 6.89333 5.99967 8 5.99967C9.10667 5.99967 10 6.89301 10 7.99967C10 9.10634 9.10667 9.99967 8 9.99967ZM12 8.66634C11.6333 8.66634 11.3333 8.36634 11.3333 7.99967C11.3333 7.63301 11.6333 7.33301 12 7.33301C12.3667 7.33301 12.6667 7.63301 12.6667 7.99967C12.6667 8.36634 12.3667 8.66634 12 8.66634Z" fill="#3B3B3E"/>
</svg>
