<svg width="16" height="16" viewBox="0 0 16 16" fill="none" xmlns="http://www.w3.org/2000/svg">
<path d="M13.3336 8.72V12C13.3336 13.3333 12.6669 14 11.3336 14H9.55353C9.44286 14 9.35358 13.9107 9.35358 13.8V11.748C9.35358 11.0833 8.90352 10.4633 8.24819 10.3527C7.41552 10.2127 6.68691 10.8587 6.68691 11.6667V13.8C6.68691 13.9107 6.59754 14 6.48688 14H4.66689C3.33356 14 2.66689 13.3333 2.66689 12V8.72C3.06022 8.90667 3.49357 9 3.93357 9C4.69357 9 5.4202 8.73334 5.9802 8.29334C6.5402 8.73334 7.26022 9 8.00022 9C8.74689 9 9.46692 8.73334 10.0269 8.29334C10.5869 8.73334 11.3135 9 12.0735 9C12.5069 9 12.9402 8.90667 13.3336 8.72ZM5.00022 2C3.33356 2 3.0782 2.54666 2.80353 3.35866L2.11025 5.40733C1.81825 6.27 2.11357 7.268 2.90957 7.728C3.2089 7.90133 3.55892 8 3.93292 8C4.81959 8 5.69221 7.44667 5.96954 6.66667C6.24021 7.44667 7.11291 8 7.99957 8C8.88624 8 9.75885 7.44667 10.0295 6.66667C10.3069 7.44667 11.1802 8 12.0662 8C12.4409 8 12.7902 7.90133 13.0896 7.728C13.8856 7.268 14.1809 6.27 13.8889 5.40733L13.1955 3.35866C12.9222 2.54666 12.6669 2 11.0002 2H5.00022Z" fill="#3B3B3E"/>
</svg>
