<svg width="16" height="16" viewBox="0 0 16 16" fill="none" xmlns="http://www.w3.org/2000/svg">
<path fill-rule="evenodd" clip-rule="evenodd" d="M13.5129 6.04153L9.05825 2.3795C8.44292 1.8735 7.55559 1.8735 6.94025 2.3795L2.48558 6.04153C2.11158 6.34886 1.93357 6.83416 2.0209 7.31016L2.99095 12.6315C3.13562 13.4235 3.82561 13.9995 4.63028 13.9995H11.3676C12.1729 13.9995 12.8629 13.4235 13.0069 12.6315L13.9769 7.30951C14.0649 6.83485 13.8869 6.34886 13.5129 6.04153ZM11.1662 10.0129C11.1662 10.0782 11.1529 10.1429 11.1276 10.2042C11.0769 10.3262 10.9796 10.4236 10.8576 10.4742C10.7962 10.4996 10.7316 10.5129 10.6662 10.5129H8.99958C8.72358 10.5129 8.49958 10.2889 8.49958 10.0129C8.49958 9.73688 8.72358 9.51288 8.99958 9.51288H9.45889L8.42023 8.47423L7.6896 9.2602C7.3276 9.6222 6.69423 9.62353 6.33023 9.2602L4.97956 7.90888C4.78423 7.71354 4.78423 7.39685 4.97956 7.20152C5.17489 7.00619 5.49158 7.00619 5.68692 7.20152L7.03823 8.55284L7.76895 7.76687C8.13228 7.40354 8.76491 7.4042 9.12824 7.76687L10.1669 8.80553V8.34622C10.1669 8.07022 10.3909 7.84622 10.6669 7.84622C10.9429 7.84622 11.1669 8.07022 11.1669 8.34622V10.0129H11.1662Z" fill="#3B3B3E"/>
</svg>
