<svg width="16" height="16" viewBox="0 0 16 16" fill="none" xmlns="http://www.w3.org/2000/svg">
<path d="M1.5 4.66698C1.5 4.39098 1.724 4.16698 2 4.16698H8C8.276 4.16698 8.5 4.39098 8.5 4.66698C8.5 4.94298 8.276 5.16698 8 5.16698H2C1.724 5.16698 1.5 4.94298 1.5 4.66698ZM7.16667 8.00031C7.16667 7.72431 6.94267 7.50031 6.66667 7.50031H2C1.724 7.50031 1.5 7.72431 1.5 8.00031C1.5 8.27631 1.724 8.50031 2 8.50031H6.66667C6.94267 8.50031 7.16667 8.27631 7.16667 8.00031ZM4.66667 10.8336H2C1.724 10.8336 1.5 11.0576 1.5 11.3336C1.5 11.6096 1.724 11.8336 2 11.8336H4.66667C4.94267 11.8336 5.16667 11.6096 5.16667 11.3336C5.16667 11.0576 4.94267 10.8336 4.66667 10.8336ZM13.9833 3.83495C13.7506 3.65895 13.4314 3.62028 13.0614 3.72362L11 4.30223C10.4767 4.45423 10.1113 4.93896 10.1113 5.48029V9.01691C9.78066 8.73358 9.35734 8.5563 8.88867 8.5563C7.84734 8.5563 7 9.40364 7 10.445C7 11.4863 7.84734 12.3336 8.88867 12.3336C9.93 12.3336 10.778 11.4863 10.778 10.445V8.00031C10.778 7.70631 10.95 7.44298 11.1827 7.37498L13.6 6.69969C14.052 6.57436 14.3333 6.2277 14.3333 5.79637V4.68504C14.3333 4.29704 14.2153 4.01095 13.9833 3.83495Z" fill="#3B3B3E"/>
</svg>
