<svg width="16" height="16" viewBox="0 0 16 16" fill="none" xmlns="http://www.w3.org/2000/svg">
<path d="M12.3737 5.16667H3.62699C3.51166 5.16667 3.41965 5.26467 3.42765 5.38L3.87366 12.1333C3.94699 13.1867 4.50032 14 5.87366 14H10.127C11.5003 14 12.0537 13.1867 12.127 12.1333L12.573 5.38C12.5803 5.26467 12.489 5.16667 12.3737 5.16667ZM9.66699 9.83333H6.33366C6.05766 9.83333 5.83366 9.60933 5.83366 9.33333C5.83366 9.05733 6.05766 8.83333 6.33366 8.83333H9.66699C9.94299 8.83333 10.167 9.05733 10.167 9.33333C10.167 9.60933 9.94299 9.83333 9.66699 9.83333ZM13.8337 4C13.8337 4.276 13.6097 4.5 13.3337 4.5H2.66699C2.39099 4.5 2.16699 4.276 2.16699 4C2.16699 3.724 2.39099 3.5 2.66699 3.5H5.47632C5.53832 3.37867 5.58632 3.24134 5.63765 3.088L5.77232 2.68333C5.90832 2.27533 6.29032 2 6.72099 2H9.27966C9.71033 2 10.0923 2.27533 10.2283 2.68333L10.363 3.088C10.4143 3.24134 10.4623 3.37867 10.5243 3.5H13.3337C13.6097 3.5 13.8337 3.724 13.8337 4Z" fill="#3B3B3E"/>
</svg>
