<svg width="16" height="16" viewBox="0 0 16 16" fill="none" xmlns="http://www.w3.org/2000/svg">
<path d="M12 2.66699H4C2.66667 2.66699 2 3.33366 2 4.66699V10.0003C2 11.3337 2.66667 12.0003 4 12.0003H9.15999C9.27333 12.0003 9.36666 11.907 9.36666 11.7937C9.36666 11.767 9.36002 11.7403 9.35335 11.7137C9.34002 11.587 9.33333 11.4603 9.33333 11.3337C9.33333 9.49366 10.8267 8.00033 12.6667 8.00033C13.04 8.00033 13.4 8.06033 13.7333 8.17367C13.8667 8.21367 14 8.12698 14 7.98698V4.66699C14 3.33366 13.3333 2.66699 12 2.66699ZM4 7.99967C3.632 7.99967 3.33333 7.70101 3.33333 7.33301C3.33333 6.96501 3.632 6.66634 4 6.66634C4.368 6.66634 4.66667 6.96501 4.66667 7.33301C4.66667 7.70167 4.368 7.99967 4 7.99967ZM8 9.33366C6.89533 9.33366 6 8.43833 6 7.33366C6 6.22899 6.89533 5.33366 8 5.33366C9.10467 5.33366 10 6.22899 10 7.33366C10 8.43833 9.10467 9.33366 8 9.33366ZM14.3534 12.3537L13.02 13.687C12.9227 13.7843 12.7947 13.8337 12.6667 13.8337C12.5387 13.8337 12.4106 13.785 12.3133 13.687L10.98 12.3537C10.7846 12.1583 10.7846 11.8417 10.98 11.6463C11.1753 11.451 11.492 11.451 11.6873 11.6463L12.1673 12.1263V10.0003C12.1673 9.72433 12.3913 9.50033 12.6673 9.50033C12.9433 9.50033 13.1673 9.72433 13.1673 10.0003V12.1263L13.6473 11.6463C13.8427 11.451 14.1593 11.451 14.3547 11.6463C14.5487 11.8417 14.5487 12.159 14.3534 12.3537Z" fill="#3B3B3E"/>
</svg>
