<svg width="16" height="16" viewBox="0 0 16 16" fill="none" xmlns="http://www.w3.org/2000/svg">
<path d="M7.99967 1.33301C4.31767 1.33301 1.33301 4.31767 1.33301 7.99967C1.33301 11.6817 4.31767 14.6663 7.99967 14.6663C11.6817 14.6663 14.6663 11.6817 14.6663 7.99967C14.6663 4.31767 11.6817 1.33301 7.99967 1.33301ZM8.66634 11.1663H7.33301C7.05701 11.1663 6.83301 10.9423 6.83301 10.6663C6.83301 10.3903 7.05701 10.1663 7.33301 10.1663H8.66634C8.94234 10.1663 9.16634 10.3903 9.16634 10.6663C9.16634 10.9423 8.94234 11.1663 8.66634 11.1663ZM9.66634 8.49967H6.33301C6.05701 8.49967 5.83301 8.27567 5.83301 7.99967C5.83301 7.72367 6.05701 7.49967 6.33301 7.49967H9.66634C9.94234 7.49967 10.1663 7.72367 10.1663 7.99967C10.1663 8.27567 9.94234 8.49967 9.66634 8.49967ZM10.6663 5.83301H5.33301C5.05701 5.83301 4.83301 5.60901 4.83301 5.33301C4.83301 5.05701 5.05701 4.83301 5.33301 4.83301H10.6663C10.9423 4.83301 11.1663 5.05701 11.1663 5.33301C11.1663 5.60901 10.9423 5.83301 10.6663 5.83301Z" fill="#3B3B3E"/>
</svg>
