<svg width="16" height="16" viewBox="0 0 16 16" fill="none" xmlns="http://www.w3.org/2000/svg">
<path d="M7.25378 9.413C7.08312 9.413 6.91259 9.34767 6.78259 9.21767C5.62126 8.05567 5.48189 6.25567 6.45056 4.93833C6.51989 4.829 6.63594 4.689 6.78194 4.54234L9.02185 2.30168C9.64718 1.67701 10.4772 1.33301 11.3599 1.33301C12.2419 1.33301 13.0718 1.67701 13.6971 2.30168C14.9865 3.59101 14.9865 5.68901 13.6971 6.97768L12.4706 8.20435C12.2099 8.46501 11.7885 8.46501 11.5279 8.20435C11.2672 7.94435 11.2672 7.52234 11.5279 7.26168L12.7546 6.03501C13.5233 5.26568 13.5233 4.01368 12.7546 3.24434C12.0086 2.49901 10.7112 2.49901 9.96456 3.24434L7.72514 5.48433C7.64714 5.56233 7.58726 5.63435 7.54659 5.69635C6.94859 6.51168 7.03247 7.583 7.72514 8.275C7.9858 8.53567 7.9858 8.95767 7.72514 9.21767C7.59514 9.34767 7.42445 9.413 7.25378 9.413ZM6.97921 13.6977L9.21846 11.4577C9.5758 11.1003 9.84584 10.669 9.99451 10.225C10.4225 9.03302 10.1178 7.68168 9.21846 6.78168C8.9578 6.52101 8.53659 6.52101 8.27592 6.78101C8.01525 7.04101 8.01525 7.46367 8.27592 7.72367C8.81992 8.26901 8.99791 9.05435 8.73458 9.78768C8.64658 10.051 8.48792 10.3017 8.27592 10.5143L6.0365 12.7543C5.2905 13.5003 3.99313 13.4997 3.24646 12.7543C2.47779 11.985 2.47779 10.733 3.24646 9.96368L4.47318 8.737C4.73385 8.47633 4.73385 8.05433 4.47318 7.79433C4.21252 7.53367 3.79114 7.53367 3.53048 7.79433L2.30391 9.02102C1.01458 10.3104 1.01458 12.4077 2.30391 13.697C2.92925 14.3217 3.75915 14.6657 4.64115 14.6657C5.52382 14.6663 6.35387 14.3223 6.97921 13.6977Z" fill="#3B3B3E"/>
</svg>
