<svg width="16" height="16" viewBox="0 0 16 16" fill="none" xmlns="http://www.w3.org/2000/svg">
<path d="M8.00099 2C4.68766 2 2.00164 4.68602 2.00164 7.99935C2.00164 8.89268 2.20169 9.746 2.55503 10.5053C2.69503 10.7987 2.69507 11.1387 2.59507 11.452L2.03501 13.1187C1.86167 13.6387 2.36169 14.1387 2.88169 13.9653L4.54835 13.4053C4.86169 13.3053 5.20164 13.3054 5.49497 13.4454C6.25497 13.7987 7.10831 13.9987 8.00164 13.9987C11.315 13.9987 14.001 11.3127 14.001 7.99935C14.0003 4.68602 11.3143 2 8.00099 2ZM8.01369 11C7.64569 11 7.3436 10.7013 7.3436 10.3333C7.3436 9.96533 7.63901 9.66667 8.00701 9.66667H8.01369C8.38235 9.66667 8.68035 9.96533 8.68035 10.3333C8.68035 10.7013 8.38169 11 8.01369 11ZM8.89699 8.36735C8.52632 8.61335 8.47565 8.73866 8.47365 8.74333C8.39831 8.94466 8.20372 9.07402 7.99839 9.07402C7.94372 9.07402 7.88898 9.06531 7.83498 9.04598C7.57831 8.95465 7.43905 8.68201 7.52638 8.42334C7.66171 8.02267 8.0576 7.724 8.3436 7.53467C8.7676 7.25333 8.77228 6.96732 8.73895 6.77665C8.68695 6.48265 8.43563 6.23132 8.14096 6.17932C7.91696 6.13932 7.69239 6.19667 7.51906 6.342C7.34839 6.48533 7.25099 6.69467 7.25099 6.91667C7.25099 7.19267 7.02699 7.41667 6.75099 7.41667C6.47499 7.41667 6.25099 7.19267 6.25099 6.91667C6.25099 6.398 6.47898 5.91001 6.87632 5.57601C7.27365 5.24268 7.7963 5.10334 8.3143 5.19401C9.0203 5.31801 9.59965 5.89735 9.72365 6.60335C9.84631 7.30469 9.55299 7.93135 8.89699 8.36735Z" fill="#3B3B3E"/>
</svg>
