<svg width="16" height="16" viewBox="0 0 16 16" fill="none" xmlns="http://www.w3.org/2000/svg">
<path d="M4.20024 11.1667H11.8003C11.9136 11.1667 12.0003 11.2533 12.0003 11.3667V13C12.0003 13.5533 11.5536 14 11.0003 14H5.00025C4.44692 14 4.00025 13.5533 4.00025 13V11.3667C4.00025 11.2533 4.08691 11.1667 4.20024 11.1667V11.1667ZM12.3469 4.10667C11.9003 3.96667 11.4736 3.98 11.0869 4.07333C10.5936 2.86 9.39358 2 8.00025 2C6.60692 2 5.40691 2.86 4.91358 4.07333C4.52025 3.97333 4.10024 3.96667 3.65357 4.10667C2.83357 4.36 2.19358 5.06 2.04025 5.9C1.79358 7.26 2.74025 8.46 4.00025 8.64V9.96666C4.00025 10.08 4.08691 10.1667 4.20024 10.1667H5.74024L5.50692 8.74666C5.46026 8.47333 5.64692 8.21333 5.92025 8.17333C6.18692 8.12666 6.44691 8.31334 6.49358 8.58667L6.76026 10.1667H7.50025V8C7.50025 7.72667 7.72692 7.5 8.00025 7.5C8.27358 7.5 8.50025 7.72667 8.50025 8V10.1667H9.24024L9.50692 8.58667C9.55359 8.31334 9.81358 8.12666 10.0802 8.17333C10.3536 8.22 10.5336 8.47333 10.4936 8.74666L10.2603 10.1667H11.8003C11.9136 10.1667 12.0003 10.08 12.0003 9.96666V8.64C13.2603 8.46 14.2069 7.26 13.9603 5.9C13.8069 5.06 13.1669 4.36 12.3469 4.10667Z" fill="#3B3B3E"/>
</svg>
