<svg width="16" height="16" viewBox="0 0 16 16" fill="none" xmlns="http://www.w3.org/2000/svg">
<path d="M7.99967 1.66699C4.87501 1.66699 2.33301 4.20899 2.33301 7.33366C2.33301 10.6557 5.419 12.6943 7.461 14.043L7.81433 14.2777C7.87033 14.315 7.935 14.3337 7.999 14.3337C8.063 14.3337 8.12767 14.315 8.18367 14.2777L8.53701 14.043C10.579 12.6943 13.665 10.6557 13.665 7.33366C13.6663 4.20899 11.1243 1.66699 7.99967 1.66699ZM9.66634 7.83366H6.33301C6.05701 7.83366 5.83301 7.60966 5.83301 7.33366C5.83301 7.05766 6.05701 6.83366 6.33301 6.83366H9.66634C9.94234 6.83366 10.1663 7.05766 10.1663 7.33366C10.1663 7.60966 9.94234 7.83366 9.66634 7.83366Z" fill="#3B3B3E"/>
</svg>
