<svg width="16" height="16" viewBox="0 0 16 16" fill="none" xmlns="http://www.w3.org/2000/svg">
<path d="M14.3186 6.05619L9.37716 1.99223C8.57916 1.33756 7.42256 1.33689 6.62456 1.99223L1.68323 6.05554C1.47056 6.23087 1.43921 6.54556 1.61455 6.75956C1.78988 6.97356 2.1059 7.00291 2.31857 6.82825L3.00053 6.26688V11.9996C3.00053 13.5262 3.8072 14.3329 5.33387 14.3329H10.6672C12.1939 14.3329 13.0005 13.5262 13.0005 11.9996V6.26754L13.6825 6.8289C13.7758 6.90556 13.8885 6.94291 14.0005 6.94291C14.1445 6.94291 14.2879 6.88086 14.3865 6.76086C14.5625 6.5462 14.5312 6.23152 14.3186 6.05619ZM11.0206 8.67761L9.53056 10.1675C9.33589 10.3622 9.0765 10.4703 8.8005 10.4703C8.8005 10.4703 8.80051 10.4703 8.79985 10.4703C8.52451 10.4703 8.2652 10.3628 8.06987 10.1682L7.22254 9.32214L5.68657 10.8103C5.58923 10.9076 5.46121 10.9569 5.33321 10.9569C5.20521 10.9569 5.07719 10.9083 4.97986 10.8103C4.78453 10.6149 4.78453 10.2982 4.97986 10.1029L6.4679 8.61495C6.87123 8.21295 7.52651 8.2123 7.92851 8.6143L8.77584 9.46016L10.3132 7.97025C10.5085 7.77492 10.8252 7.77492 11.0206 7.97025C11.2159 8.16559 11.2159 8.48228 11.0206 8.67761Z" fill="#3B3B3E"/>
</svg>
