<svg width="16" height="16" viewBox="0 0 16 16" fill="none" xmlns="http://www.w3.org/2000/svg">
<path fill-rule="evenodd" clip-rule="evenodd" d="M14 8C14 10.66 12.2667 12.9067 9.87333 13.7C9.58667 13.7467 9.48665 13.5667 9.48665 13.4133C9.48665 13.2133 9.49333 12.5667 9.49333 11.7667C9.49333 11.2067 9.3 10.84 9.08667 10.6533C10.42 10.5067 11.8267 10 11.8267 7.69334C11.8267 7.04001 11.5933 6.50667 11.2067 6.08667C11.2733 5.93334 11.48 5.31999 11.1533 4.49333C11.1533 4.49333 10.6467 4.33334 9.5 5.11334C9.02 4.98001 8.50667 4.91332 8 4.90666C7.48667 4.91332 6.97333 4.98001 6.5 5.11334C5.35333 4.33334 4.84668 4.49333 4.84668 4.49333C4.52001 5.31999 4.72666 5.93334 4.78666 6.08667C4.40666 6.50667 4.17334 7.04001 4.17334 7.69334C4.17334 9.99334 5.57332 10.5067 6.90666 10.66C6.73332 10.8067 6.57999 11.0733 6.52665 11.46C6.17999 11.6133 5.31332 11.88 4.77999 10.96C4.77999 10.96 4.45999 10.3867 3.85999 10.3467C3.85999 10.3467 3.27332 10.34 3.81999 10.7067C3.81999 10.7067 4.21332 10.8933 4.48665 11.5867C4.48665 11.5867 4.83334 12.66 6.50667 12.2933C6.50667 12.7933 6.51335 13.2667 6.51335 13.4133C6.51335 13.56 6.40667 13.7467 6.12667 13.7C3.73334 12.9133 2 10.66 2 8C2 4.68667 4.68667 2 8 2C11.3133 2 14 4.68667 14 8V8Z" fill="#3B3B3E"/>
</svg>
