<svg width="16" height="16" viewBox="0 0 16 16" fill="none" xmlns="http://www.w3.org/2000/svg">
<path d="M5.33366 3.66667V3C5.33366 2.33333 5.66699 2 6.33366 2H9.66699C10.3337 2 10.667 2.33333 10.667 3V3.66667C10.667 4.33333 10.3337 4.66667 9.66699 4.66667H6.33366C5.66699 4.66667 5.33366 4.33333 5.33366 3.66667ZM13.3337 5.33333V12C13.3337 13.3333 12.667 14 11.3337 14H4.66699C3.33366 14 2.66699 13.3333 2.66699 12V5.33333C2.66699 4.172 3.16825 3.518 4.17692 3.37134C4.25759 3.35934 4.33366 3.42599 4.33366 3.50732V3.66602C4.33366 4.87935 5.12033 5.66602 6.33366 5.66602H9.66699C10.8803 5.66602 11.667 4.87935 11.667 3.66602V3.50732C11.667 3.42599 11.7437 3.35934 11.8237 3.37134C12.8324 3.518 13.3337 4.172 13.3337 5.33333ZM9.16699 10.6667C9.16699 10.3907 8.94299 10.1667 8.66699 10.1667H6.00033C5.72433 10.1667 5.50033 10.3907 5.50033 10.6667C5.50033 10.9427 5.72433 11.1667 6.00033 11.1667H8.66699C8.94299 11.1667 9.16699 10.9427 9.16699 10.6667ZM10.5003 8C10.5003 7.724 10.2763 7.5 10.0003 7.5H6.00033C5.72433 7.5 5.50033 7.724 5.50033 8C5.50033 8.276 5.72433 8.5 6.00033 8.5H10.0003C10.2763 8.5 10.5003 8.276 10.5003 8Z" fill="#3B3B3E"/>
</svg>
