<svg width="16" height="16" viewBox="0 0 16 16" fill="none" xmlns="http://www.w3.org/2000/svg">
<path d="M2.66682 13.8332C2.53882 13.8332 2.41083 13.7845 2.31349 13.6865C2.11816 13.4912 2.11816 13.1745 2.31349 12.9792L12.9802 2.31252C13.1755 2.11718 13.4922 2.11718 13.6875 2.31252C13.8828 2.50785 13.8828 2.82454 13.6875 3.01987L3.02083 13.6865C2.92283 13.7845 2.79482 13.8332 2.66682 13.8332ZM13.3335 11.6665C13.3335 10.7459 12.5875 9.99985 11.6668 9.99985C10.7462 9.99985 10.0002 10.7459 10.0002 11.6665C10.0002 12.5872 10.7462 13.3332 11.6668 13.3332C12.5875 13.3332 13.3335 12.5872 13.3335 11.6665ZM6.00016 4.33319C6.00016 3.41252 5.25416 2.66652 4.33349 2.66652C3.41282 2.66652 2.66682 3.41252 2.66682 4.33319C2.66682 5.25385 3.41282 5.99985 4.33349 5.99985C5.25416 5.99985 6.00016 5.25385 6.00016 4.33319Z" fill="#3B3B3E"/>
</svg>
