<svg width="16" height="16" viewBox="0 0 16 16" fill="none" xmlns="http://www.w3.org/2000/svg">
<path d="M11.75 2H4.25C2.75 2 2 2.75 2 4.25V11.75C2 13.25 2.75 14 4.25 14H11.75C13.25 14 14 13.25 14 11.75V4.25C14 2.75 13.25 2 11.75 2ZM10.3534 7.68669L8.35335 9.68669C8.25602 9.78402 8.128 9.83333 8 9.83333C7.872 9.83333 7.74398 9.78469 7.64665 9.68669L5.64665 7.68669C5.45131 7.49135 5.45131 7.17466 5.64665 6.97933C5.84198 6.784 6.15867 6.784 6.354 6.97933L8.00065 8.62598L9.6473 6.97933C9.84263 6.784 10.1593 6.784 10.3547 6.97933C10.55 7.17466 10.5487 7.49135 10.3534 7.68669Z" fill="#3B3B3E"/>
</svg>
