<svg width="16" height="16" viewBox="0 0 16 16" fill="none" xmlns="http://www.w3.org/2000/svg">
<path d="M7.99967 1.33301C4.31967 1.33301 1.33301 4.31967 1.33301 7.99967C1.33301 11.6797 4.31967 14.6663 7.99967 14.6663C11.6797 14.6663 14.6663 11.6797 14.6663 7.99967C14.6663 4.31967 11.6797 1.33301 7.99967 1.33301ZM4.83301 6.66634C4.83301 6.39301 5.05967 6.16634 5.33301 6.16634H6.66634C6.93967 6.16634 7.16634 6.39301 7.16634 6.66634C7.16634 6.93967 6.93967 7.16634 6.66634 7.16634H5.33301C5.05967 7.16634 4.83301 6.93967 4.83301 6.66634ZM9.99967 11.1663H5.99967C5.72634 11.1663 5.49967 10.9397 5.49967 10.6663C5.49967 10.393 5.72634 10.1663 5.99967 10.1663H9.99967C10.273 10.1663 10.4997 10.393 10.4997 10.6663C10.4997 10.9397 10.273 11.1663 9.99967 11.1663ZM10.6663 7.16634H9.33301C9.05967 7.16634 8.83301 6.93967 8.83301 6.66634C8.83301 6.39301 9.05967 6.16634 9.33301 6.16634H10.6663C10.9397 6.16634 11.1663 6.39301 11.1663 6.66634C11.1663 6.93967 10.9397 7.16634 10.6663 7.16634Z" fill="#3B3B3E"/>
</svg>
