<svg width="16" height="16" viewBox="0 0 16 16" fill="none" xmlns="http://www.w3.org/2000/svg">
<path d="M7.99967 1.33301C4.31767 1.33301 1.33301 4.31767 1.33301 7.99967C1.33301 11.6817 4.31767 14.6663 7.99967 14.6663C11.6817 14.6663 14.6663 11.6817 14.6663 7.99967C14.6663 4.31767 11.6817 1.33301 7.99967 1.33301ZM7.49967 4.33301C7.49967 4.05701 7.72367 3.83301 7.99967 3.83301C8.27567 3.83301 8.49967 4.05701 8.49967 4.33301V7.29574C8.49967 7.57174 8.27567 7.79574 7.99967 7.79574C7.72367 7.79574 7.49967 7.57174 7.49967 7.29574V4.33301ZM7.99967 11.4997C6.09034 11.4997 4.53695 9.94628 4.53695 8.03695C4.53695 7.11428 4.89836 6.24505 5.55436 5.58838C5.74903 5.39371 6.06572 5.39238 6.26172 5.58838C6.45705 5.78305 6.45705 6.1004 6.26172 6.29574C5.79439 6.76307 5.53695 7.38161 5.53695 8.03695C5.53695 9.39495 6.64167 10.4997 7.99967 10.4997C9.35767 10.4997 10.4624 9.39495 10.4624 8.03695C10.4624 7.38161 10.205 6.76307 9.73763 6.29574C9.5423 6.1004 9.5423 5.78371 9.73763 5.58838C9.93363 5.39238 10.2503 5.39371 10.445 5.58838C11.101 6.24505 11.4624 7.11428 11.4624 8.03695C11.4624 9.94628 9.90901 11.4997 7.99967 11.4997Z" fill="#3B3B3E"/>
</svg>
