<svg width="16" height="16" viewBox="0 0 16 16" fill="none" xmlns="http://www.w3.org/2000/svg">
<path d="M4.68208 13.8903C4.73874 14.2516 4.49408 14.5943 4.13341 14.6543C4.09608 14.6603 4.05942 14.6637 4.02208 14.6637C3.70475 14.6637 3.42478 14.4384 3.36811 14.1157C3.34878 14.0044 2.92075 11.3563 5.73408 8.81834C6.00675 8.57234 6.42807 8.59301 6.6754 8.86701C6.92207 9.14034 6.9008 9.56173 6.62747 9.80906C4.3888 11.8277 4.66941 13.8069 4.68208 13.8903ZM9.23611 8.00031C12.9628 5.36231 12.6428 2.07296 12.6254 1.9243C12.5841 1.5603 12.2628 1.29701 11.8934 1.33901C11.5288 1.37768 11.2647 1.70498 11.3001 2.06964C11.3121 2.19164 11.5314 4.99299 8.00011 7.21499C7.37411 6.82099 6.86278 6.41099 6.45145 5.99966H8.00011C8.36878 5.99966 8.66678 5.70099 8.66678 5.33299C8.66678 4.96499 8.36878 4.66632 8.00011 4.66632H5.41279C5.27946 4.43699 5.16414 4.21166 5.07547 3.99966H10.0001C10.3688 3.99966 10.6668 3.70099 10.6668 3.33299C10.6668 2.96499 10.3688 2.66632 10.0001 2.66632H4.71943C4.68076 2.32366 4.69811 2.10428 4.70145 2.07094C4.74078 1.70694 4.47879 1.37906 4.11413 1.33706C3.74146 1.29172 3.41741 1.55831 3.37674 1.92365C3.35874 2.08365 2.98414 5.86832 7.66214 8.57632C8.45281 9.03432 9.06882 9.50964 9.55748 9.97964H8.00011C7.63144 9.97964 7.33344 10.2783 7.33344 10.6463C7.33344 11.0143 7.63144 11.313 8.00011 11.313H10.6367C10.7801 11.551 10.9001 11.7823 10.9908 11.9997H5.74149C5.37282 11.9997 5.07482 12.2983 5.07482 12.6663C5.07482 13.0343 5.37282 13.333 5.74149 13.333H11.3261C11.3508 13.6543 11.3228 13.8549 11.3181 13.8836C11.2535 14.2463 11.4961 14.5924 11.8588 14.6564C11.8981 14.6631 11.9368 14.6663 11.9755 14.6663C12.2935 14.6663 12.5741 14.439 12.6308 14.1157C12.6568 13.9704 13.1694 10.7456 9.23611 8.00031Z" fill="#3B3B3E"/>
</svg>
