<svg width="16" height="16" viewBox="0 0 16 16" fill="none" xmlns="http://www.w3.org/2000/svg">
<path d="M8.01204 1.33301C6.51871 2.07367 5.33333 2.66634 2 3.33301C2 4.09101 2 6.46762 2 7.25895C2 11.7036 5.778 13.9257 8 14.6663C10.222 13.9257 14 11.7036 14 7.25895C14 6.44228 14 4.12901 14 3.33301C10.6667 2.66634 9.48138 2.07367 8.01204 1.33301ZM9.9987 8.51302L7.47933 10.0544C6.978 10.361 6.33333 10.001 6.33333 9.41504V6.41764C6.33333 5.83098 6.978 5.47165 7.47933 5.77832L9.9987 7.31966C10.4447 7.59299 10.4447 8.23969 9.9987 8.51302Z" fill="#3B3B3E"/>
</svg>
