<svg width="16" height="16" viewBox="0 0 16 16" fill="none" xmlns="http://www.w3.org/2000/svg">
<path d="M14 3.33301C10.6667 2.66634 9.48138 2.07367 8.01204 1.33301C6.51871 2.07367 5.33333 2.66634 2 3.33301C2 4.09101 2 6.46762 2 7.25895C2 11.7036 5.778 13.9257 8 14.6663C10.222 13.9257 14 11.7036 14 7.25895C14 6.44228 14 4.12901 14 3.33301ZM9.99202 8.49967H8.49202V9.99967C8.49202 10.2757 8.26802 10.4997 7.99202 10.4997C7.71602 10.4997 7.49202 10.2757 7.49202 9.99967V8.49967H5.99202C5.71602 8.49967 5.49202 8.27567 5.49202 7.99967C5.49202 7.72367 5.71602 7.49967 5.99202 7.49967H7.49202V5.99967C7.49202 5.72367 7.71602 5.49967 7.99202 5.49967C8.26802 5.49967 8.49202 5.72367 8.49202 5.99967V7.49967H9.99202C10.268 7.49967 10.492 7.72367 10.492 7.99967C10.492 8.27567 10.268 8.49967 9.99202 8.49967Z" fill="#3B3B3E"/>
</svg>
