<svg width="16" height="16" viewBox="0 0 16 16" fill="none" xmlns="http://www.w3.org/2000/svg">
<path d="M12.667 4.41227V11.589C12.667 13.0417 11.007 13.8556 9.87231 12.9596L5.32902 9.37093C5.26702 9.32226 5.21966 9.26365 5.16699 9.20898V13.3337C5.16699 13.6097 4.94299 13.8337 4.66699 13.8337C4.39099 13.8337 4.16699 13.6097 4.16699 13.3337V2.66699C4.16699 2.39099 4.39099 2.16699 4.66699 2.16699C4.94299 2.16699 5.16699 2.39099 5.16699 2.66699V6.79102C5.22033 6.73635 5.26769 6.67774 5.32902 6.62907L9.87231 3.04102C11.007 2.14502 12.667 2.95961 12.667 4.41227Z" fill="#3B3B3E"/>
</svg>
