<svg width="16" height="16" viewBox="0 0 16 16" fill="none" xmlns="http://www.w3.org/2000/svg">
<path d="M8 2.66699C4.68667 2.66699 2 4.66698 2 8.00098C2 9.41431 2.48663 10.5949 3.29997 11.4749C3.19997 12.1149 2.83995 12.8484 2.11328 13.4351C1.89328 13.6217 2.01997 13.9883 2.30664 13.995C3.25331 14.0283 4.71327 13.9017 5.60661 12.9484C6.33994 13.2017 7.14667 13.335 8 13.335C11.3133 13.335 14 11.335 14 8.00098C14 4.66698 11.3133 2.66699 8 2.66699ZM8.01335 11.0003C7.64535 11.0003 7.34326 10.7017 7.34326 10.3337C7.34326 9.96566 7.63867 9.66699 8.00667 9.66699H8.01335C8.38201 9.66699 8.68001 9.96566 8.68001 10.3337C8.68001 10.7017 8.38135 11.0003 8.01335 11.0003ZM8.8973 8.36768C8.52597 8.61368 8.47531 8.73899 8.47331 8.74365C8.39797 8.94499 8.20338 9.07438 7.99805 9.07438C7.94338 9.07438 7.88864 9.06507 7.83464 9.04574C7.57797 8.9544 7.43871 8.68168 7.52604 8.42301C7.66138 8.02235 8.05726 7.72368 8.34326 7.53434C8.76726 7.25234 8.77194 6.96629 8.73861 6.77629C8.68661 6.48229 8.43529 6.23029 8.14063 6.17895C7.91663 6.13829 7.69205 6.1963 7.51872 6.34163C7.34805 6.48497 7.25065 6.69434 7.25065 6.91634C7.25065 7.19234 7.02665 7.41634 6.75065 7.41634C6.47465 7.41634 6.25065 7.19234 6.25065 6.91634C6.25065 6.39767 6.47864 5.90902 6.87598 5.57568C7.27331 5.24235 7.79597 5.10168 8.31397 5.19368C9.01997 5.31768 9.59931 5.89703 9.72331 6.60303C9.84597 7.30503 9.55263 7.93101 8.8973 8.36768Z" fill="#3B3B3E"/>
</svg>
