<svg width="16" height="16" viewBox="0 0 16 16" fill="none" xmlns="http://www.w3.org/2000/svg">
<path d="M5.93354 4.72C5.12688 5.85333 4.70688 6.96 4.28021 8.34L2.03355 8.84C2.03355 8.84 2.01355 8.84666 2.00021 8.84666C1.95355 8.84666 1.90688 8.82667 1.87354 8.78667C1.83354 8.74 1.82022 8.67333 1.84688 8.62L2.48688 7.02667C2.93354 5.9 3.96022 5.07333 5.16022 4.88L5.93354 4.72V4.72ZM7.17354 13.9667C7.16021 14.0267 7.18021 14.0867 7.22688 14.1267C7.25354 14.1533 7.29355 14.1667 7.33355 14.1667C7.35355 14.1667 7.37354 14.16 7.39354 14.1533L8.98688 13.5133C10.1202 13.0667 10.9469 12.0467 11.1335 10.8533L11.2869 10.1333C10.1469 10.9333 9.04021 11.3333 7.67354 11.72L7.17354 13.9667V13.9667ZM5.03355 8.17333C4.93355 8.48667 4.83354 8.81333 4.72688 9.16C4.68688 9.27333 4.72022 9.40667 4.80688 9.49333L6.48688 11.1733C6.55354 11.24 6.64021 11.2733 6.72688 11.2733C6.75354 11.2733 6.78688 11.2667 6.81355 11.26C7.17355 11.16 7.52021 11.0667 7.84021 10.9733C8.32688 10.8333 8.76688 10.6867 9.18688 10.5133L5.51355 6.84666C5.34022 7.26 5.18688 7.7 5.03355 8.17333V8.17333ZM12.4335 8.3C12.0869 8.64666 11.7535 8.94667 11.4335 9.20667C10.9002 9.63333 10.3869 9.96 9.84021 10.22L9.82688 10.2067L5.82688 6.21333C5.82688 6.21333 5.82021 6.20667 5.81355 6.20667C6.08688 5.64667 6.42688 5.11333 6.87354 4.56667C7.12688 4.26 7.41354 3.94667 7.74688 3.61333C9.06688 2.28667 10.8335 2 12.1135 2C12.7735 2 13.3002 2.07333 13.5802 2.12667C13.7202 2.15333 13.8202 2.25333 13.8469 2.38667C14.0069 3.22 14.4402 6.29333 12.4335 8.3ZM11.6669 5.85333C11.6669 5.02667 10.9935 4.35333 10.1669 4.35333C9.34021 4.35333 8.66688 5.02667 8.66688 5.85333C8.66688 6.68 9.34021 7.34666 10.1669 7.34666C10.9935 7.34666 11.6669 6.68 11.6669 5.85333Z" fill="#3B3B3E"/>
</svg>
