<svg width="16" height="16" viewBox="0 0 16 16" fill="none" xmlns="http://www.w3.org/2000/svg">
<path d="M8.33301 11.1603C8.41301 9.30033 9.96633 7.75365 11.8263 7.67365C12.2597 7.65365 12.6797 7.707 13.0664 7.827C13.1997 7.867 13.333 7.78033 13.333 7.64033V4.66699C13.333 3.33366 12.6663 2.66699 11.333 2.66699H3.33301C1.99967 2.66699 1.33301 3.33366 1.33301 4.66699V10.667C1.33301 12.0003 1.99967 12.667 3.33301 12.667H8.30631C8.43965 12.667 8.53299 12.5337 8.48633 12.407C8.36633 12.0137 8.31301 11.6003 8.33301 11.1603ZM8.01904 8.11966C7.81371 8.26899 7.57301 8.34366 7.33301 8.34366C7.09301 8.34366 6.85164 8.26899 6.64697 8.12032L3.3724 5.73832C3.14906 5.57632 3.0997 5.263 3.26237 5.03966C3.42437 4.817 3.7356 4.76632 3.96094 4.92966L7.23568 7.31099C7.29434 7.35299 7.37232 7.35366 7.43099 7.31099L10.7057 4.92966C10.9304 4.76632 11.2423 4.817 11.4043 5.03966C11.567 5.263 11.5176 5.57566 11.2943 5.73832L8.01904 8.11966ZM11.9997 8.66699C10.527 8.66699 9.33301 9.86099 9.33301 11.3337C9.33301 12.8063 10.527 14.0003 11.9997 14.0003C13.4723 14.0003 14.6663 12.8063 14.6663 11.3337C14.6663 9.86099 13.4723 8.66699 11.9997 8.66699ZM13.069 11.0137L11.9577 12.125C11.895 12.1877 11.8103 12.2223 11.7217 12.2223C11.633 12.2223 11.5483 12.187 11.4857 12.125L10.9303 11.5697C10.8003 11.4397 10.8003 11.2283 10.9303 11.0983C11.0603 10.9683 11.2717 10.9683 11.4017 11.0983L11.721 11.4183L12.5964 10.543C12.7264 10.413 12.9377 10.413 13.0677 10.543C13.1977 10.673 13.199 10.8837 13.069 11.0137Z" fill="#3B3B3E"/>
</svg>
