<svg width="16" height="16" viewBox="0 0 16 16" fill="none" xmlns="http://www.w3.org/2000/svg">
<path d="M7.99967 1.33301C4.31967 1.33301 1.33301 4.31967 1.33301 7.99967C1.33301 11.6797 4.31967 14.6663 7.99967 14.6663C11.6797 14.6663 14.6663 11.6797 14.6663 7.99967C14.6663 4.31967 11.6797 1.33301 7.99967 1.33301ZM4.61967 7.13968C4.35967 7.04635 4.21965 6.76634 4.31299 6.50634C4.51965 5.90634 5.08636 5.49967 5.72636 5.49967C6.36636 5.49967 6.93302 5.89967 7.13969 6.50634C7.22636 6.76634 7.09301 7.05301 6.83301 7.13968C6.77967 7.15968 6.72634 7.16634 6.66634 7.16634C6.45967 7.16634 6.26633 7.03968 6.19299 6.82634C6.12633 6.63301 5.93303 6.49967 5.72636 6.49967C5.51969 6.49967 5.32635 6.63301 5.25968 6.82634C5.17302 7.08634 4.88634 7.22634 4.62634 7.13301L4.61967 7.13968ZM11.0597 9.63968C10.893 9.85968 10.6997 10.0597 10.493 10.2397V12.0063C10.493 12.2797 10.2663 12.5063 9.993 12.5063C9.71967 12.5063 9.493 12.2797 9.493 12.0063V10.8597C9.38633 10.9063 9.273 10.9463 9.15967 10.9863V11.3397C9.15967 11.613 8.933 11.8397 8.65967 11.8397C8.38633 11.8397 8.15967 11.613 8.15967 11.3397V11.1663C8.10633 11.1663 8.04633 11.173 7.993 11.173C6.79967 11.173 5.65302 10.5997 4.93302 9.63968C4.76636 9.41968 4.813 9.10634 5.033 8.93968C5.25967 8.77301 5.56632 8.81967 5.73299 9.03967C6.26632 9.74634 7.113 10.173 7.993 10.173C8.873 10.173 9.71302 9.75967 10.2597 9.03967C10.4264 8.81967 10.7397 8.77967 10.9597 8.94634C11.1797 9.11301 11.2197 9.42634 11.053 9.64634L11.0597 9.63968ZM11.373 7.13968C11.3197 7.15968 11.2663 7.16634 11.2063 7.16634C10.9997 7.16634 10.8063 7.03968 10.733 6.82634C10.6663 6.63301 10.473 6.49967 10.2664 6.49967C10.0597 6.49967 9.86635 6.63301 9.79968 6.82634C9.71302 7.08634 9.42634 7.22634 9.16634 7.13301C8.90634 7.03967 8.76633 6.75967 8.85966 6.49967C9.06633 5.89967 9.63299 5.49301 10.273 5.49301C10.913 5.49301 11.4797 5.89301 11.6864 6.49967C11.773 6.75967 11.6397 7.04634 11.3797 7.13301L11.373 7.13968Z" fill="#3B3B3E"/>
</svg>
