<svg width="16" height="16" viewBox="0 0 16 16" fill="none" xmlns="http://www.w3.org/2000/svg">
<path d="M12 2H4C2.66667 2 2 2.66667 2 4V12C2 13.3333 2.66667 14 4 14H12C13.3333 14 14 13.3333 14 12V4C14 2.66667 13.3333 2 12 2ZM5.57332 11.3C5.43332 11.54 5.12668 11.6267 4.88668 11.4867C4.64668 11.3467 4.56666 11.04 4.69999 10.8L5.06002 10.18C5.46668 10.0533 5.79334 10.1533 6.05334 10.4667L5.57332 11.3067V11.3ZM9.04667 9.94H4.5C4.22 9.94 4 9.71333 4 9.43333C4 9.15333 4.22 8.92668 4.5 8.92668H5.77332L7.40666 6.08L6.89998 5.18667C6.75998 4.94667 6.84667 4.64 7.08667 4.5C7.32667 4.36 7.63332 4.44 7.77332 4.68667L7.99333 5.07332L8.21334 4.68667C8.35334 4.44667 8.65998 4.36 8.89998 4.5C9.13998 4.64 9.22 4.94667 9.08667 5.18667L6.93998 8.92H8.49333C8.99333 8.92 9.28002 9.51334 9.06002 9.92668L9.04667 9.94ZM11.5 9.94H10.78L11.2667 10.7933C11.4067 11.0333 11.32 11.34 11.08 11.48C10.84 11.62 10.5334 11.54 10.3934 11.2933C9.57335 9.86 8.95334 8.78666 8.54667 8.07332C8.12667 7.34666 8.42668 6.61333 8.72001 6.36666C9.04668 6.93333 9.53999 7.78666 10.1933 8.93333H11.4933C11.7733 8.93333 11.9933 9.16 11.9933 9.44C11.9933 9.72 11.7733 9.94668 11.4933 9.94668L11.5 9.94Z" fill="#3B3B3E"/>
</svg>
