<svg width="16" height="16" viewBox="0 0 16 16" fill="none" xmlns="http://www.w3.org/2000/svg">
<path d="M13.8337 4C13.8337 4.276 13.6097 4.5 13.3337 4.5H2.66699C2.39099 4.5 2.16699 4.276 2.16699 4C2.16699 3.724 2.39099 3.5 2.66699 3.5H5.47632C5.53832 3.37867 5.58632 3.24134 5.63765 3.088L5.77232 2.68333C5.90832 2.27533 6.29032 2 6.72099 2H9.27966C9.71033 2 10.0923 2.27533 10.2283 2.68333L10.363 3.088C10.4143 3.24134 10.4623 3.37867 10.5243 3.5H13.3337C13.6097 3.5 13.8337 3.724 13.8337 4ZM12.573 5.38L12.127 12.1333C12.0537 13.1867 11.5003 14 10.127 14H5.87366C4.50032 14 3.94699 13.1867 3.87366 12.1333L3.42765 5.38C3.42032 5.26467 3.51166 5.16667 3.62699 5.16667H12.373C12.489 5.16667 12.5803 5.26467 12.573 5.38ZM8.70766 9.33333L9.68766 8.35333C9.883 8.158 9.883 7.84133 9.68766 7.646C9.49233 7.45066 9.17566 7.45066 8.98033 7.646L8.00033 8.626L7.02032 7.646C6.82499 7.45066 6.50832 7.45066 6.31299 7.646C6.11766 7.84133 6.11766 8.158 6.31299 8.35333L7.29299 9.33333L6.31299 10.3133C6.11766 10.5087 6.11766 10.8253 6.31299 11.0207C6.41032 11.118 6.53832 11.1673 6.66632 11.1673C6.79432 11.1673 6.92232 11.1187 7.01965 11.0207L7.99965 10.0407L8.97966 11.0207C9.07699 11.118 9.20499 11.1673 9.33299 11.1673C9.46099 11.1673 9.58899 11.1187 9.68632 11.0207C9.88165 10.8253 9.88165 10.5087 9.68632 10.3133L8.70766 9.33333Z" fill="#3B3B3E"/>
</svg>
