<svg width="16" height="16" viewBox="0 0 16 16" fill="none" xmlns="http://www.w3.org/2000/svg">
<path d="M4.19519 7.80455L1.52918 5.13853C1.46718 5.07653 1.41848 5.00325 1.38448 4.92125C1.31715 4.75858 1.31715 4.57448 1.38448 4.41181C1.41848 4.32981 1.46718 4.25652 1.52918 4.19452L4.19519 1.52851C4.45586 1.26784 4.87724 1.26784 5.1379 1.52851C5.39857 1.78917 5.39857 2.21055 5.1379 2.47122L3.60926 3.99986H11.3332C11.7019 3.99986 11.9999 4.29853 11.9999 4.66653C11.9999 5.03453 11.7019 5.3332 11.3332 5.3332H3.60926L5.1379 6.86184C5.39857 7.12251 5.39857 7.54388 5.1379 7.80455C5.0079 7.93455 4.83721 7.99986 4.66655 7.99986C4.49588 7.99986 4.32519 7.93455 4.19519 7.80455ZM14.6153 11.0785C14.5813 10.9965 14.5326 10.9232 14.4706 10.8612L11.8046 8.19517C11.5439 7.93451 11.1225 7.93451 10.8619 8.19517C10.6012 8.45584 10.6012 8.87722 10.8619 9.13788L12.3905 10.6665H4.66655C4.29788 10.6665 3.99988 10.9652 3.99988 11.3332C3.99988 11.7012 4.29788 11.9999 4.66655 11.9999H12.3905L10.8619 13.5285C10.6012 13.7892 10.6012 14.2105 10.8619 14.4712C10.9919 14.6012 11.1625 14.6665 11.3332 14.6665C11.5039 14.6665 11.6746 14.6012 11.8046 14.4712L14.4706 11.8052C14.5326 11.7432 14.5813 11.6699 14.6153 11.5879C14.6826 11.4252 14.6826 11.2411 14.6153 11.0785Z" fill="#3B3B3E"/>
</svg>
