<svg width="16" height="16" viewBox="0 0 16 16" fill="none" xmlns="http://www.w3.org/2000/svg">
<path d="M2.20003 7.16699H5.29997C5.41063 7.16699 5.5 7.25636 5.5 7.36702V13.1336C5.5 13.2443 5.41063 13.3337 5.29997 13.3337H4C2.66667 13.3337 2 12.667 2 11.3337V7.36702C2 7.25636 2.08937 7.16699 2.20003 7.16699ZM6.5 7.36702V13.1336C6.5 13.2443 6.58937 13.3337 6.70003 13.3337H9.29997C9.41063 13.3337 9.5 13.2443 9.5 13.1336V7.36702C9.5 7.25636 9.41063 7.16699 9.29997 7.16699H6.70003C6.58937 7.16699 6.5 7.25636 6.5 7.36702ZM12 2.66699H4C2.66667 2.66699 2 3.33366 2 4.66699V5.96696C2 6.07763 2.08937 6.16699 2.20003 6.16699H13.8C13.9106 6.16699 14 6.07763 14 5.96696V4.66699C14 3.33366 13.3333 2.66699 12 2.66699ZM10.5 7.36702V13.1336C10.5 13.2443 10.5894 13.3337 10.7 13.3337H12C13.3333 13.3337 14 12.667 14 11.3337V7.36702C14 7.25636 13.9106 7.16699 13.8 7.16699H10.7C10.5894 7.16699 10.5 7.25636 10.5 7.36702Z" fill="#3B3B3E"/>
</svg>
