<svg width="16" height="16" viewBox="0 0 16 16" fill="none" xmlns="http://www.w3.org/2000/svg">
<path d="M14.3337 3.43362V5.96696C14.3337 6.0803 14.247 6.16695 14.1337 6.16695H11.2003C11.087 6.16695 11.0003 6.0803 11.0003 5.96696V3.33362C11.0003 2.36029 11.847 1.57363 12.8403 1.67363C13.707 1.76029 14.3337 2.5603 14.3337 3.42696V3.43362ZM14.1337 7.16695H11.2003C11.087 7.16695 11.0003 7.25361 11.0003 7.36695V8.66695C11.0003 8.85362 11.147 9.00029 11.3337 9.00029H12.167V11.0003C12.167 12.0136 11.347 12.8336 10.3337 12.8336C9.32033 12.8336 8.50033 12.0136 8.50033 11.0003V5.00029C8.50033 3.44029 7.22699 2.16695 5.66699 2.16695C4.10699 2.16695 2.83366 3.44029 2.83366 5.00029V7.00029H2.00033C1.81366 7.00029 1.66699 7.14695 1.66699 7.33362V8.63363C1.66699 8.74696 1.75366 8.83362 1.86699 8.83362H4.80032C4.91366 8.83362 5.00033 8.74696 5.00033 8.63363V7.33362C5.00033 7.14695 4.85366 7.00029 4.66699 7.00029H3.83366V5.00029C3.83366 3.98695 4.65366 3.16695 5.66699 3.16695C6.68033 3.16695 7.50033 3.98695 7.50033 5.00029V11.0003C7.50033 12.5603 8.77366 13.8336 10.3337 13.8336C11.8937 13.8336 13.167 12.5603 13.167 11.0003V9.00029H14.0003C14.187 9.00029 14.3337 8.85362 14.3337 8.66695V7.36695C14.3337 7.25361 14.247 7.16695 14.1337 7.16695ZM4.80032 9.83362H1.86699C1.75366 9.83362 1.66699 9.92028 1.66699 10.0336V12.567C1.66699 13.4403 2.29366 14.2336 3.16033 14.3203C4.16033 14.4203 5.00033 13.6403 5.00033 12.6603V10.027C5.00033 9.91363 4.91366 9.82695 4.80032 9.82695V9.83362Z" fill="#3B3B3E"/>
</svg>
