<svg width="16" height="16" viewBox="0 0 16 16" fill="none" xmlns="http://www.w3.org/2000/svg">
<path d="M13.534 5.68734C13.962 6.69934 14.1174 7.85801 13.9074 9.07068C13.5361 11.2113 11.9727 13.0193 9.90742 13.6933C8.34142 14.2047 6.78334 14.046 5.494 13.4467C5.20067 13.3067 4.86072 13.3067 4.54739 13.4067L2.88072 13.9667C2.35739 14.1427 1.85804 13.6433 2.03404 13.12L2.5941 11.4533C2.6941 11.14 2.69406 10.8 2.55406 10.5067C1.95406 9.21667 1.79595 7.65734 2.30862 6.09001C2.98329 4.02534 4.79198 2.46332 6.93264 2.09265C8.14464 1.88332 9.30199 2.03798 10.314 2.46598C10.4093 2.50665 10.4501 2.61331 10.4208 2.71265C10.3521 2.94398 10.3254 3.19068 10.3374 3.44735C10.3888 4.62268 11.3774 5.61198 12.5528 5.66398C12.8101 5.67531 13.0568 5.64931 13.2888 5.58065C13.3868 5.55065 13.4934 5.592 13.534 5.68734ZM12.6667 4.66667C13.4027 4.66667 14 4.07 14 3.33333C14 2.59667 13.4027 2 12.6667 2C11.9307 2 11.3334 2.59667 11.3334 3.33333C11.3334 4.07 11.9307 4.66667 12.6667 4.66667Z" fill="#3B3B3E"/>
</svg>
