<svg width="16" height="16" viewBox="0 0 16 16" fill="none" xmlns="http://www.w3.org/2000/svg">
<path d="M12.141 7.83833C12.469 7.82233 12.785 7.84699 13.0897 7.91232C13.2157 7.93899 13.333 7.85099 13.333 7.72232V4.66699C13.333 3.33366 12.6663 2.66699 11.333 2.66699H3.33301C1.99967 2.66699 1.33301 3.33366 1.33301 4.66699V10.667C1.33301 12.0003 1.99967 12.667 3.33301 12.667H8.38835C8.51701 12.667 8.60495 12.549 8.57829 12.4237C8.51295 12.1177 8.48839 11.8003 8.50439 11.4717C8.60106 9.54233 10.2116 7.93233 12.141 7.83833ZM8.01969 8.11966C7.81436 8.26899 7.57366 8.34366 7.33366 8.34366C7.09366 8.34366 6.85229 8.26899 6.64762 8.12032L3.37305 5.73832C3.14971 5.57632 3.10035 5.263 3.26302 5.03966C3.42502 4.81766 3.73692 4.76632 3.96159 4.92966L7.23633 7.31099C7.29499 7.35299 7.37297 7.35366 7.43164 7.31099L10.7064 4.92966C10.931 4.76632 11.2429 4.817 11.4049 5.03966C11.5676 5.263 11.5183 5.57566 11.2949 5.73832L8.01969 8.11966ZM12.3337 8.83366C10.771 8.83366 9.50033 10.1043 9.50033 11.667C9.50033 13.2297 10.771 14.5003 12.3337 14.5003C13.8963 14.5003 15.167 13.2297 15.167 11.667C15.167 10.1043 13.8963 8.83366 12.3337 8.83366ZM10.5003 11.667C10.5003 10.6557 11.3223 9.83366 12.3337 9.83366C12.657 9.83366 12.957 9.92499 13.221 10.0723L10.7389 12.5543C10.5916 12.2903 10.5003 11.9903 10.5003 11.667ZM12.3337 13.5003C12.0103 13.5003 11.7103 13.409 11.4463 13.2617L13.9284 10.7797C14.0757 11.0437 14.167 11.3437 14.167 11.667C14.167 12.6783 13.345 13.5003 12.3337 13.5003Z" fill="#3B3B3E"/>
</svg>
