<svg width="16" height="16" viewBox="0 0 16 16" fill="none" xmlns="http://www.w3.org/2000/svg">
<path d="M7.99967 1.33301C4.31767 1.33301 1.33301 4.31767 1.33301 7.99967C1.33301 11.6817 4.31767 14.6663 7.99967 14.6663C11.6817 14.6663 14.6663 11.6817 14.6663 7.99967C14.6663 4.31767 11.6817 1.33301 7.99967 1.33301ZM7.99967 7.40706C8.36767 7.40706 8.66634 7.70573 8.66634 8.07373C8.66634 8.44173 8.36767 8.7404 7.99967 8.7404C7.63167 8.7404 7.33301 8.44173 7.33301 8.07373C7.33301 7.70573 7.63167 7.40706 7.99967 7.40706ZM3.66699 7.73096C3.74899 6.28629 4.50436 5.02497 5.61702 4.27897C5.73236 4.20164 5.88636 4.24506 5.95369 4.36572L7.21964 6.59961C6.70898 6.86961 6.35299 7.38433 6.31966 7.98633C6.31499 7.98633 6.31497 7.98633 6.3103 7.98633H3.913C3.773 7.98633 3.65699 7.87096 3.66699 7.73096ZM9.95435 11.9491C9.36701 12.2524 8.70234 12.4256 7.99967 12.4256C7.29701 12.4256 6.63234 12.2524 6.045 11.9491C5.925 11.8864 5.88636 11.7323 5.95369 11.6123L7.12834 9.53239C7.38367 9.69106 7.68234 9.77767 7.99967 9.77767C8.31701 9.77767 8.61568 9.69106 8.87101 9.53239L10.0457 11.6123C10.113 11.7323 10.0743 11.8864 9.95435 11.9491ZM12.087 7.98633H9.6897C9.68503 7.98633 9.685 7.98633 9.68034 7.98633C9.64634 7.38433 9.29035 6.86894 8.78035 6.59961L10.0463 4.36572C10.1136 4.24572 10.2676 4.20164 10.383 4.27897C11.495 5.02497 12.251 6.28696 12.333 7.73096C12.3423 7.87096 12.2263 7.98633 12.087 7.98633Z" fill="#3B3B3E"/>
</svg>
