<svg width="16" height="16" viewBox="0 0 16 16" fill="none" xmlns="http://www.w3.org/2000/svg">
<path d="M9.33301 12.666C9.33301 13.1567 9.45231 13.622 9.66431 14.034C9.73431 14.1707 9.64699 14.3327 9.49365 14.3327H7.33301H4.66634C3.13967 14.3327 2.33301 13.5327 2.33301 12.0127C2.33301 10.3127 3.29301 8.33268 5.99967 8.33268H7.33301H8.66634C10.001 8.33268 10.9123 8.81536 11.4897 9.50602C11.5797 9.61402 11.5177 9.77338 11.3844 9.81738C10.189 10.2114 9.33301 11.3353 9.33301 12.666ZM7.33903 6.99935C8.8097 6.99935 10.0057 5.80335 10.0057 4.33268C10.0057 2.86202 8.8097 1.66602 7.33903 1.66602C5.86836 1.66602 4.67236 2.86202 4.67236 4.33268C4.67236 5.80335 5.86836 6.99935 7.33903 6.99935ZM13.0404 12.666L13.687 12.0194C13.8823 11.824 13.8823 11.5073 13.687 11.312C13.4917 11.1167 13.175 11.1167 12.9797 11.312L12.333 11.9587L11.6864 11.312C11.491 11.1167 11.1743 11.1167 10.979 11.312C10.7837 11.5073 10.7837 11.824 10.979 12.0194L11.6257 12.666L10.979 13.3127C10.7837 13.508 10.7837 13.8247 10.979 14.02C11.0763 14.1174 11.2044 14.1667 11.3324 14.1667C11.4604 14.1667 11.5884 14.118 11.6857 14.02L12.3324 13.3734L12.979 14.02C13.0763 14.1174 13.2044 14.1667 13.3324 14.1667C13.4604 14.1667 13.5884 14.118 13.6857 14.02C13.881 13.8247 13.881 13.508 13.6857 13.3127L13.0404 12.666Z" fill="#3B3B3E"/>
</svg>
