<svg width="16" height="16" viewBox="0 0 16 16" fill="none" xmlns="http://www.w3.org/2000/svg">
<path d="M13.9997 14.0002H2.99967C1.97167 14.0002 1.33301 13.3615 1.33301 12.3335V2.66685C1.33301 2.29885 1.63167 2.00019 1.99967 2.00019C2.36767 2.00019 2.66634 2.29885 2.66634 2.66685V12.3335C2.66634 12.6329 2.70034 12.6669 2.99967 12.6669H13.9997C14.3677 12.6669 14.6663 12.9655 14.6663 13.3335C14.6663 13.7015 14.3677 14.0002 13.9997 14.0002ZM9.33301 10.6669V8.00019C9.33301 7.63219 9.03434 7.33352 8.66634 7.33352C8.29834 7.33352 7.99967 7.63219 7.99967 8.00019V10.6669C7.99967 11.0349 8.29834 11.3335 8.66634 11.3335C9.03434 11.3335 9.33301 11.0349 9.33301 10.6669ZM5.33301 11.3335C4.96501 11.3335 4.66634 11.0349 4.66634 10.6669V6.66685C4.66634 6.29885 4.96501 6.00019 5.33301 6.00019C5.70101 6.00019 5.99967 6.29885 5.99967 6.66685V10.6669C5.99967 11.0349 5.70101 11.3335 5.33301 11.3335ZM11.9997 11.3335C11.6317 11.3335 11.333 11.0349 11.333 10.6669V9.33352C11.333 8.96552 11.6317 8.66685 11.9997 8.66685C12.3677 8.66685 12.6663 8.96552 12.6663 9.33352V10.6669C12.6663 11.0349 12.3677 11.3335 11.9997 11.3335ZM12.6663 3.33352C12.6663 2.96552 12.3677 2.66685 11.9997 2.66685C11.6317 2.66685 11.333 2.96552 11.333 3.33352V3.82416L10.0543 2.54552C9.46899 1.96018 8.51434 1.95952 7.92834 2.54552L7.16166 3.3122C7.09633 3.37753 6.98569 3.37753 6.92102 3.3122L5.80432 2.1955C5.54365 1.93483 5.12236 1.93483 4.86169 2.1955C4.60103 2.45617 4.60103 2.87754 4.86169 3.13821L5.97835 4.25483C6.56435 4.84149 7.519 4.84149 8.10433 4.25483L8.87101 3.48822C8.95435 3.40489 9.02703 3.40356 9.11169 3.48822L10.3903 4.76687H9.99967C9.63167 4.76687 9.33301 5.06554 9.33301 5.43354C9.33301 5.80154 9.63167 6.1002 9.99967 6.1002H11.9997C12.0863 6.1002 12.173 6.08219 12.2544 6.04885C12.417 5.98085 12.547 5.85151 12.615 5.68818C12.649 5.60684 12.6663 5.5202 12.6663 5.43354V3.33352Z" fill="#3B3B3E"/>
</svg>
