<svg width="16" height="16" viewBox="0 0 16 16" fill="none" xmlns="http://www.w3.org/2000/svg">
<path d="M12.2597 3V6.17334H3.64632V3C3.64632 2.32667 3.97299 2 4.64632 2H9.49967V4C9.49967 4.27333 9.72634 4.5 9.99967 4.5C10.2797 4.5 10.4997 4.27333 10.4997 4V2H11.2597C11.9197 2 12.2597 2.32667 12.2597 3ZM12.333 7.17334H3.66634C3.47967 7.17334 3.33301 7.32667 3.33301 7.50667V7.94666C3.33301 8.50666 3.68635 9.00666 4.21301 9.19999L6.453 9.89335C6.88634 10.0467 7.15302 10.4866 7.09969 10.94L6.90633 12.7333C6.89966 12.7733 6.89966 12.82 6.89966 12.86C6.89966 13.48 7.39967 14 8.03967 14C8.71967 14 9.25301 13.4067 9.17301 12.7333L8.97302 10.9333C8.92636 10.48 9.193 10.0467 9.61967 9.88668L11.7997 9.20667C12.3197 9.00667 12.6663 8.51333 12.6663 7.95333V7.50667C12.6663 7.32667 12.5197 7.17334 12.333 7.17334Z" fill="#3B3B3E"/>
</svg>
