<svg width="16" height="16" viewBox="0 0 16 16" fill="none" xmlns="http://www.w3.org/2000/svg">
<path d="M13.8337 4C13.8337 4.276 13.6097 4.5 13.3337 4.5H2.66699C2.39099 4.5 2.16699 4.276 2.16699 4C2.16699 3.724 2.39099 3.5 2.66699 3.5H5.47633C5.53833 3.37867 5.58632 3.24134 5.63765 3.088L5.77233 2.68333C5.90833 2.27533 6.29032 2 6.72099 2H9.27966C9.71033 2 10.0923 2.27533 10.2283 2.68333L10.363 3.088C10.4143 3.24134 10.4623 3.37867 10.5243 3.5H13.3337C13.6097 3.5 13.8337 3.724 13.8337 4ZM12.573 5.38L12.127 12.1333C12.0537 13.1867 11.5003 14 10.127 14H5.87366C4.50032 14 3.94699 13.1867 3.87366 12.1333L3.42766 5.38C3.42033 5.26467 3.51166 5.16667 3.62699 5.16667H12.373C12.489 5.16667 12.5803 5.26467 12.573 5.38ZM10.0203 7.86866C9.82499 7.67333 9.50832 7.67333 9.31299 7.86866L7.44433 9.73734L6.68699 8.98C6.49166 8.78467 6.17499 8.78467 5.97966 8.98C5.78432 9.17533 5.78432 9.492 5.97966 9.68734L7.09099 10.7987C7.18499 10.8927 7.31233 10.9453 7.44433 10.9453C7.57633 10.9453 7.70433 10.8927 7.79766 10.7987L10.0197 8.57667C10.2157 8.38067 10.2157 8.064 10.0203 7.86866Z" fill="#3B3B3E"/>
</svg>
