<svg width="16" height="16" viewBox="0 0 16 16" fill="none" xmlns="http://www.w3.org/2000/svg">
<path d="M14.4706 8.47252L11.8046 11.1385C11.6746 11.2685 11.5039 11.3338 11.3332 11.3338C11.1625 11.3338 10.9919 11.2685 10.8619 11.1385C10.6012 10.8779 10.6012 10.4565 10.8619 10.1958L12.3905 8.66718H3.60926L5.1379 10.1958C5.39857 10.4565 5.39857 10.8779 5.1379 11.1385C5.0079 11.2685 4.83721 11.3338 4.66655 11.3338C4.49588 11.3338 4.32519 11.2685 4.19519 11.1385L1.52918 8.47252C1.46718 8.41052 1.41848 8.33723 1.38448 8.25523C1.31715 8.09257 1.31715 7.90846 1.38448 7.74579C1.41848 7.66379 1.46718 7.59051 1.52918 7.52851L4.19519 4.86249C4.45586 4.60183 4.87724 4.60183 5.1379 4.86249C5.39857 5.12316 5.39857 5.54453 5.1379 5.8052L3.60926 7.33385H12.3905L10.8619 5.8052C10.6012 5.54453 10.6012 5.12316 10.8619 4.86249C11.1225 4.60183 11.5439 4.60183 11.8046 4.86249L14.4706 7.52851C14.5326 7.59051 14.5813 7.66379 14.6153 7.74579C14.6826 7.90846 14.6826 8.09257 14.6153 8.25523C14.5813 8.33723 14.5326 8.41052 14.4706 8.47252Z" fill="#3B3B3E"/>
</svg>
