<svg width="16" height="16" viewBox="0 0 16 16" fill="none" xmlns="http://www.w3.org/2000/svg">
<path d="M7.27327 9.29297L6.7666 11.333H3C2.33333 11.333 2 10.9997 2 10.333V6.33301C2 5.66634 2.33333 5.33301 3 5.33301H7.61995L5.51335 8.493C5.35335 8.73967 5.52665 9.06641 5.81999 9.06641H7.09994C7.21994 9.06641 7.30661 9.17964 7.27327 9.29297ZM11.6667 5.33301H7.90007L7.39339 7.37305C7.36006 7.48638 7.44673 7.59961 7.56673 7.59961H8.84668C9.14001 7.59961 9.31332 7.92635 9.15332 8.17301L7.04671 11.333H11.6667C12.3333 11.333 12.6667 10.9997 12.6667 10.333V6.33301C12.6667 5.66634 12.3333 5.33301 11.6667 5.33301ZM14.5 9.33301V7.33301C14.5 7.05701 14.276 6.83301 14 6.83301C13.724 6.83301 13.5 7.05701 13.5 7.33301V9.33301C13.5 9.60901 13.724 9.83301 14 9.83301C14.276 9.83301 14.5 9.60901 14.5 9.33301Z" fill="#3B3B3E"/>
</svg>
