<svg width="16" height="16" viewBox="0 0 16 16" fill="none" xmlns="http://www.w3.org/2000/svg">
<path fill-rule="evenodd" clip-rule="evenodd" d="M13.5129 6.04153L9.05825 2.3795C8.44292 1.8735 7.55559 1.8735 6.94025 2.3795L2.48558 6.04153C2.11158 6.34886 1.93357 6.83416 2.0209 7.31016L2.99095 12.6315C3.13562 13.4235 3.82561 13.9995 4.63028 13.9995H11.3676C12.1729 13.9995 12.8629 13.4235 13.0069 12.6315L13.9769 7.30951C14.0649 6.83485 13.8869 6.34886 13.5129 6.04153ZM10.3329 8.70421C10.3329 10.4822 8.87425 11.3709 7.99958 11.6669C7.12491 11.3709 5.66625 10.4815 5.66625 8.70421C5.66625 8.38754 5.66625 7.52618 5.66625 7.22284C6.83291 6.88818 7.41622 6.63017 8.00422 6.33417C8.58288 6.63017 9.16625 6.88819 10.3329 7.18419C10.3329 7.50219 10.3329 8.37687 10.3329 8.70421Z" fill="#3B3B3E"/>
</svg>
