<svg width="16" height="16" viewBox="0 0 16 16" fill="none" xmlns="http://www.w3.org/2000/svg">
<path d="M4.00635 4.33268C4.00635 2.86202 5.20235 1.66602 6.67301 1.66602C8.14368 1.66602 9.33968 2.86202 9.33968 4.33268C9.33968 5.80335 8.14368 6.99935 6.67301 6.99935C5.20235 6.99935 4.00635 5.80335 4.00635 4.33268ZM10.337 9.11003C10.3337 9.07803 10.3084 9.01872 10.2597 8.98405C9.70568 8.58072 8.96299 8.33268 8.00033 8.33268H5.33366C2.62699 8.33268 1.66699 10.3127 1.66699 12.0127C1.66699 13.5327 2.47366 14.3327 4.00033 14.3327H9.1403C9.2403 14.3327 9.33366 14.2527 9.34033 14.146C9.34033 14.1393 9.34033 14.1393 9.34033 14.1327V14.126C9.33366 14.0726 9.33366 14.0127 9.33366 13.9527V12.3793C9.33366 11.6993 9.57366 11.146 10.0003 10.7926V10.4993C10.0003 10.04 10.115 9.61269 10.3157 9.23869C10.3423 9.18869 10.3403 9.14203 10.337 9.11003ZM15.0003 12.38V13.9513C15.0003 14.6493 14.667 14.9987 14.0003 14.9987H11.3337C10.667 14.9987 10.3337 14.6493 10.3337 13.9513V12.38C10.3337 11.8147 10.5637 11.49 11.0003 11.382V10.4987C11.0003 9.58003 11.7477 8.83203 12.667 8.83203C13.5863 8.83203 14.3337 9.58003 14.3337 10.4987V11.382C14.7703 11.49 15.0003 11.8147 15.0003 12.38ZM13.3337 10.4993C13.3337 10.132 13.035 9.83268 12.667 9.83268C12.299 9.83268 12.0003 10.132 12.0003 10.4993V11.3327H13.3337V10.4993Z" fill="#3B3B3E"/>
</svg>
