<svg width="16" height="16" viewBox="0 0 16 16" fill="none" xmlns="http://www.w3.org/2000/svg">
<path d="M8.47187 12.1958C8.73253 12.4565 8.73253 12.8779 8.47187 13.1385C8.34187 13.2685 8.17118 13.3338 8.00051 13.3338C7.82985 13.3338 7.65916 13.2685 7.52916 13.1385L2.86249 8.47187C2.60183 8.2112 2.60183 7.78983 2.86249 7.52916L7.52916 2.86249C7.78983 2.60183 8.2112 2.60183 8.47187 2.86249C8.73253 3.12316 8.73253 3.54453 8.47187 3.8052L4.27655 8.00051L8.47187 12.1958ZM8.94322 8.00051L13.1385 3.8052C13.3992 3.54453 13.3992 3.12316 13.1385 2.86249C12.8779 2.60183 12.4565 2.60183 12.1958 2.86249L7.52916 7.52916C7.26849 7.78983 7.26849 8.2112 7.52916 8.47187L12.1958 13.1385C12.3258 13.2685 12.4965 13.3338 12.6672 13.3338C12.8378 13.3338 13.0085 13.2685 13.1385 13.1385C13.3992 12.8779 13.3992 12.4565 13.1385 12.1958L8.94322 8.00051Z" fill="#3B3B3E"/>
</svg>
