<svg width="16" height="16" viewBox="0 0 16 16" fill="none" xmlns="http://www.w3.org/2000/svg">
<path d="M8.90267 8.43099C9.03267 8.56099 9.03267 8.77234 8.90267 8.90234C8.83734 8.96768 8.752 8.99967 8.66667 8.99967C8.58133 8.99967 8.496 8.96701 8.43066 8.90234L7.764 8.23568C7.70133 8.17301 7.66667 8.08834 7.66667 7.99967V6.99967C7.66667 6.81567 7.816 6.66634 8 6.66634C8.184 6.66634 8.33333 6.81567 8.33333 6.99967V7.86165L8.90267 8.43099ZM14 8.00098C14 11.335 11.3133 13.335 8 13.335C7.14667 13.335 6.33994 13.2017 5.60661 12.9483C4.71327 13.9017 3.25331 14.0283 2.30664 13.995C2.01997 13.9883 1.89328 13.6216 2.11328 13.435C2.83995 12.8483 3.19997 12.115 3.29997 11.475C2.48663 10.595 2 9.41431 2 8.00098C2 4.66698 4.68667 2.66699 8 2.66699C11.3133 2.66699 14 4.66698 14 8.00098ZM10.6667 8.00033C10.6667 6.52766 9.47267 5.33366 8 5.33366C6.52733 5.33366 5.33333 6.52766 5.33333 8.00033C5.33333 9.47299 6.52733 10.667 8 10.667C9.47267 10.667 10.6667 9.47299 10.6667 8.00033Z" fill="#3B3B3E"/>
</svg>
