<svg width="16" height="16" viewBox="0 0 16 16" fill="none" xmlns="http://www.w3.org/2000/svg">
<path d="M14.9653 5.07182L14.1654 10.7925C14.0607 11.5212 13.776 12.0385 13.3273 12.3339C13.172 12.4139 13.002 12.3333 13.002 12.1713V6.44389C13.002 4.70456 11.9634 3.6659 10.224 3.6659C10.224 3.6659 4.1493 3.6659 3.9493 3.6659C3.7493 3.6659 3.74463 3.48581 3.75863 3.40581C3.86396 2.77514 4.11333 2.30847 4.5 2.01714C4.90467 1.71247 5.45134 1.60654 6.12801 1.70187L13.1687 2.68852C13.8467 2.78452 14.3453 3.03856 14.6506 3.44389C14.9553 3.84856 15.0613 4.39649 14.9653 5.07182ZM12.002 6.44324V12.2219C12.002 13.4072 11.4094 13.9999 10.224 13.9999H3.11198C1.92665 13.9999 1.33398 13.4072 1.33398 12.2219V6.44324C1.33398 5.25791 1.92665 4.66525 3.11198 4.66525H10.224C11.4094 4.66525 12.002 5.25724 12.002 6.44324ZM2.33333 6.44324V11.2286L3.28866 10.2732C3.51532 10.0398 3.89533 10.0398 4.12866 10.2732L4.68197 10.8265C4.7953 10.9399 4.98864 10.9399 5.10197 10.8265L8.02865 7.89995C8.25531 7.67328 8.63532 7.67328 8.86865 7.89995L11.002 10.0386V6.44324C11.002 5.81058 10.8567 5.66525 10.224 5.66525H3.11198C2.47865 5.66525 2.33333 5.81058 2.33333 6.44324ZM4.33464 8.33322C4.70197 8.33322 5 8.03455 5 7.66655C5 7.29855 4.70197 6.99988 4.33464 6.99988H4.32935C3.96201 6.99988 3.66667 7.29855 3.66667 7.66655C3.66667 8.03455 3.9673 8.33322 4.33464 8.33322Z" fill="#3B3B3E"/>
</svg>
