<svg width="16" height="16" viewBox="0 0 16 16" fill="none" xmlns="http://www.w3.org/2000/svg">
<path d="M9.83301 4V2.5L12.833 5.5H11.333C10.2797 5.5 9.83301 5.05333 9.83301 4ZM13.333 6.5V12C13.333 13.3333 12.6663 14 11.333 14H5.33301C3.99967 14 3.33301 13.3333 3.33301 12V4C3.33301 2.66667 3.99967 2 5.33301 2H8.83301V4C8.83301 5.61333 9.71967 6.5 11.333 6.5H13.333ZM9.79427 9.80867C9.76894 9.74733 9.73236 9.692 9.68636 9.646L8.35303 8.31266C8.15769 8.11733 7.841 8.11733 7.64567 8.31266C7.45034 8.508 7.45034 8.82467 7.64567 9.02L8.12565 9.5H5.99967C5.72367 9.5 5.49967 9.724 5.49967 10C5.49967 10.276 5.72367 10.5 5.99967 10.5H8.12565L7.64567 10.98C7.45034 11.1753 7.45034 11.492 7.64567 11.6873C7.743 11.7847 7.87102 11.834 7.99902 11.834C8.12702 11.834 8.25504 11.7853 8.35238 11.6873L9.68571 10.354C9.73171 10.308 9.76829 10.2527 9.79362 10.1913C9.84495 10.0687 9.84494 9.93133 9.79427 9.80867Z" fill="#3B3B3E"/>
</svg>
