<svg width="16" height="16" viewBox="0 0 16 16" fill="none" xmlns="http://www.w3.org/2000/svg">
<path d="M14.5 7.33357V11.3336C14.5 12.9456 13.612 13.8336 12 13.8336H4C2.388 13.8336 1.5 12.9456 1.5 11.3336V4.66691C1.5 3.05491 2.388 2.16691 4 2.16691H9.33333C9.60933 2.16691 9.83333 2.39091 9.83333 2.66691C9.83333 2.94291 9.60933 3.16691 9.33333 3.16691H4C2.94867 3.16691 2.5 3.61557 2.5 4.66691V10.8336L4.19336 9.14021C4.45336 8.88021 4.87997 8.88021 5.13997 9.14021L5.76668 9.76684C5.89335 9.89351 6.10665 9.89351 6.23332 9.76684L9.52669 6.47355C9.78669 6.21355 10.2133 6.21355 10.4733 6.47355L13.5 9.50024V7.33357C13.5 7.05757 13.724 6.83357 14 6.83357C14.276 6.83357 14.5 7.05757 14.5 7.33357ZM5.32869 5.16691C4.86936 5.16691 4.5 5.54024 4.5 6.00024C4.5 6.46024 4.87597 6.83357 5.33464 6.83357C5.79397 6.83357 6.16667 6.46024 6.16667 6.00024C6.16667 5.54024 5.79464 5.16691 5.33464 5.16691H5.32869ZM12.3534 3.35359L12.5 3.20695V4.66691C12.5 4.94291 12.724 5.16691 13 5.16691C13.276 5.16691 13.5 4.94291 13.5 4.66691V3.2076L13.6466 3.35424C13.744 3.45158 13.872 3.50089 14 3.50089C14.128 3.50089 14.256 3.45224 14.3534 3.35424C14.5487 3.15891 14.5487 2.84222 14.3534 2.64689L13.3534 1.64689C13.3074 1.60089 13.252 1.56431 13.1907 1.53898C13.0687 1.48831 12.9307 1.48831 12.8087 1.53898C12.7473 1.56431 12.692 1.60089 12.646 1.64689L11.646 2.64689C11.4507 2.84222 11.4507 3.15891 11.646 3.35424C11.8413 3.54958 12.158 3.54893 12.3534 3.35359Z" fill="#3B3B3E"/>
</svg>
