<svg width="16" height="16" viewBox="0 0 16 16" fill="none" xmlns="http://www.w3.org/2000/svg">
<path d="M7.99967 1.33301C4.31767 1.33301 1.33301 4.31767 1.33301 7.99967C1.33301 11.6817 4.31767 14.6663 7.99967 14.6663C11.6817 14.6663 14.6663 11.6817 14.6663 7.99967C14.6663 4.31767 11.6817 1.33301 7.99967 1.33301ZM11.2837 5.58708L9.99434 8.80908C9.78368 9.33508 9.36767 9.75301 8.84301 9.96501L5.59034 11.2817C5.04434 11.5031 4.49967 10.9624 4.71567 10.415L6.00234 7.14974C6.21501 6.60974 6.64367 6.18298 7.18434 5.97298L10.4197 4.7137C10.9643 4.50104 11.501 5.04308 11.2837 5.58708ZM8.66634 7.99967C8.66634 8.36767 8.36767 8.66634 7.99967 8.66634C7.63167 8.66634 7.33301 8.36767 7.33301 7.99967C7.33301 7.63167 7.63167 7.33301 7.99967 7.33301C8.36767 7.33301 8.66634 7.63167 8.66634 7.99967Z" fill="#3B3B3E"/>
</svg>
