<svg width="16" height="16" viewBox="0 0 16 16" fill="none" xmlns="http://www.w3.org/2000/svg">
<path d="M4.86698 11.8333H12.467C12.5803 11.8333 12.667 11.92 12.667 12.0333V13C12.667 13.5533 12.2203 14 11.667 14H5.66699C5.11366 14 4.66699 13.5533 4.66699 13V12.0333C4.66699 11.92 4.75365 11.8333 4.86698 11.8333ZM4.60699 10.6867C4.63366 10.7733 4.70699 10.8333 4.79366 10.8333H12.467C12.667 10.8333 12.667 10.7067 12.667 10.7067C12.667 10.5533 12.7003 10.4 12.7737 10.26L13.1203 9.56C13.2603 9.28 13.3337 8.97333 13.3337 8.66667V4.66667C13.3337 3.2 12.1337 2 10.667 2H6.66699C5.56033 2 4.66699 2.89333 4.66699 4V8C4.66699 8.18667 4.52033 8.33333 4.33366 8.33333C4.14699 8.33333 4.00033 8.18667 4.00033 8V4.72666C3.89366 4.68666 3.78699 4.66667 3.66699 4.66667C3.11366 4.66667 2.66699 5.11333 2.66699 5.66667V8.06667C2.66699 8.73334 3.00032 9.36 3.56032 9.73334L4.22699 10.1733C4.41366 10.3 4.547 10.48 4.61367 10.6867H4.60699Z" fill="#3B3B3E"/>
</svg>
