<svg width="16" height="16" viewBox="0 0 16 16" fill="none" xmlns="http://www.w3.org/2000/svg">
<path d="M10.6664 0.833008C9.09308 0.833008 7.79309 1.99301 7.55309 3.49967H2.66641C2.47974 3.49967 2.30642 3.60634 2.21976 3.77301C2.13309 3.93968 2.15309 4.14634 2.26643 4.29967L6.16641 9.49967V12.7863C5.91308 13.0797 5.41306 13.5263 4.43973 13.9863C4.21306 14.093 4.09306 14.3397 4.14639 14.5863C4.19973 14.833 4.41308 14.9997 4.66641 14.9997H8.65974C8.91307 14.9997 9.12642 14.8263 9.17976 14.5863C9.23309 14.3397 9.11309 14.093 8.88642 13.9863C7.91976 13.5263 7.41974 13.0797 7.15974 12.7863V9.49967L9.18643 6.79967C9.63976 7.03967 10.1397 7.16634 10.6597 7.16634C12.4064 7.16634 13.8264 5.74634 13.8264 3.99967C13.8264 2.25301 12.4064 0.833008 10.6597 0.833008H10.6664ZM10.6664 6.16634C10.3664 6.16634 10.0731 6.09968 9.80643 5.97968L11.0664 4.29967C11.1797 4.14634 11.1997 3.94634 11.1131 3.77301C11.0264 3.59968 10.8531 3.49967 10.6664 3.49967H8.5664C8.79306 2.54634 9.64641 1.83301 10.6664 1.83301C11.8597 1.83301 12.8331 2.80634 12.8331 3.99967C12.8331 5.19301 11.8597 6.16634 10.6664 6.16634V6.16634Z" fill="#3B3B3E"/>
</svg>
