<svg width="16" height="16" viewBox="0 0 16 16" fill="none" xmlns="http://www.w3.org/2000/svg">
<path d="M7.99967 1.33301C4.31967 1.33301 1.33301 4.31967 1.33301 7.99967C1.33301 11.6797 4.31967 14.6663 7.99967 14.6663C11.6797 14.6663 14.6663 11.6797 14.6663 7.99967C14.6663 4.31967 11.6797 1.33301 7.99967 1.33301ZM4.16634 6.66634C4.16634 6.39301 4.39301 6.16634 4.66634 6.16634H6.33301C6.81301 6.16634 7.16634 6.65967 7.16634 7.33301C7.16634 8.00634 6.81301 8.49967 6.33301 8.49967C5.85301 8.49967 5.49967 8.00634 5.49967 7.33301C5.49967 7.27301 5.49967 7.21967 5.513 7.16634H4.66634C4.39301 7.16634 4.16634 6.93967 4.16634 6.66634ZM10.3863 10.9663C10.2197 11.1863 9.90634 11.233 9.68634 11.0663C8.69967 10.3197 7.26634 10.3263 6.28634 11.0663C6.193 11.133 6.09301 11.1663 5.98635 11.1663C5.83301 11.1663 5.68634 11.0997 5.58634 10.9663C5.41968 10.7463 5.46634 10.433 5.68634 10.2663C7.01301 9.26634 8.94634 9.25967 10.2863 10.2663C10.5063 10.433 10.553 10.7463 10.3863 10.9663V10.9663ZM10.9997 8.49967C10.5197 8.49967 10.1663 8.00634 10.1663 7.33301C10.1663 7.27301 10.1663 7.21967 10.1797 7.16634H9.33301C9.05967 7.16634 8.83301 6.93967 8.83301 6.66634C8.83301 6.39301 9.05967 6.16634 9.33301 6.16634H10.9997C11.4797 6.16634 11.833 6.65967 11.833 7.33301C11.833 8.00634 11.4797 8.49967 10.9997 8.49967Z" fill="#3B3B3E"/>
</svg>
