<svg width="16" height="16" viewBox="0 0 16 16" fill="none" xmlns="http://www.w3.org/2000/svg">
<path d="M11.75 2H4.25C2.75 2 2 2.75 2 4.25V11.75C2 13.25 2.75 14 4.25 14H11.75C13.25 14 14 13.25 14 11.75V4.25C14 2.75 13.25 2 11.75 2ZM8.00537 4.66667C9.11004 4.66667 10.0054 5.562 10.0054 6.66667C10.0054 7.77133 9.11004 8.66667 8.00537 8.66667C6.9007 8.66667 6.00537 7.77133 6.00537 6.66667C6.00537 5.562 6.9007 4.66667 8.00537 4.66667ZM11.7467 13H4.25334C4.16667 13 4.08667 13 4.00667 12.9933C4.09334 11.86 4.73336 10.38 6.86003 10.38H9.13997C11.26 10.38 11.9067 11.8733 11.9933 12.9933C11.9133 13 11.8333 13 11.7467 13Z" fill="#3B3B3E"/>
</svg>
