<svg width="16" height="16" viewBox="0 0 16 16" fill="none" xmlns="http://www.w3.org/2000/svg">
<path d="M7.45964 3.77707C7.48564 3.81307 7.49967 3.85773 7.49967 3.9024V12.6984C7.49967 12.8484 7.34168 12.939 7.20768 12.8724C5.61768 12.079 4.02229 12.0811 2.43229 12.5337C2.21229 12.5937 1.99902 12.4404 1.99902 12.2204V3.54709C1.99902 3.41843 2.07296 3.29709 2.18896 3.24175C3.28363 2.72042 4.44434 2.57303 5.65234 2.7197C6.40234 2.81037 7.0443 3.20707 7.45964 3.77707ZM13.8097 3.24175C13.3304 3.01309 12.8363 2.86841 12.333 2.77707V6.6664L11.333 6.09307L10.333 6.6664V2.72239C9.58967 2.81572 8.95238 3.21042 8.53971 3.77642C8.51371 3.81242 8.49967 3.85708 8.49967 3.90175V12.6977C8.49967 12.8477 8.65767 12.9384 8.79167 12.8717C10.3817 12.0784 11.9771 12.0804 13.5671 12.5331C13.7871 12.5931 14.0003 12.4397 14.0003 12.2197V3.54636C13.9997 3.41769 13.9257 3.29642 13.8097 3.24175Z" fill="#3B3B3E"/>
</svg>
