<svg width="16" height="16" viewBox="0 0 16 16" fill="none" xmlns="http://www.w3.org/2000/svg">
<g clip-path="url(#clip0_36251_7512)">
<path d="M4.00635 4.33268C4.00635 2.86202 5.20235 1.66602 6.67301 1.66602C8.14368 1.66602 9.33968 2.86202 9.33968 4.33268C9.33968 5.80335 8.14368 6.99935 6.67301 6.99935C5.20235 6.99935 4.00635 5.80335 4.00635 4.33268ZM9.927 10.4593C9.927 10.006 10.047 9.57271 10.247 9.19271C10.3003 9.10604 10.2804 8.9927 10.1937 8.9327C9.64702 8.55937 8.92699 8.33268 8.00033 8.33268H5.33366C2.62699 8.33268 1.66699 10.3127 1.66699 12.0127C1.66699 13.5327 2.47366 14.3327 4.00033 14.3327H9.33366C9.57366 14.3327 9.79365 14.3127 9.99365 14.2727C10.0383 14.256 10.1937 14.2267 10.1937 14.0727C10.1937 14.046 10.187 14.0193 10.1803 13.9993C10.0537 13.746 9.97368 13.4593 9.94035 13.1593C9.90035 12.746 10.0337 12.3461 10.2804 12.0394C10.3404 11.9727 10.347 11.886 10.3003 11.8127C10.0603 11.406 9.927 10.9393 9.927 10.4593ZM13.3036 11.302L12.373 11.062C12.2463 11.0287 12.1363 10.954 12.053 10.8433C11.9716 10.736 11.927 10.5987 11.927 10.4561C11.927 10.1121 12.189 9.83268 12.5103 9.83268H12.915C13.211 9.83268 13.4603 10.0707 13.4943 10.3867C13.5243 10.6614 13.7757 10.86 14.0457 10.83C14.3203 10.8 14.5183 10.5533 14.489 10.2786C14.4097 9.55331 13.8763 8.98603 13.199 8.86003V8.66602C13.199 8.39002 12.975 8.16602 12.699 8.16602C12.423 8.16602 12.199 8.39002 12.199 8.66602V8.86466C11.4743 9.01333 10.9264 9.67005 10.9264 10.4561C10.9264 10.8161 11.0436 11.168 11.2543 11.446C11.469 11.7327 11.7757 11.94 12.121 12.03L13.0517 12.27C13.315 12.3394 13.4983 12.5886 13.4983 12.876C13.4983 13.0446 13.435 13.2034 13.3197 13.322C13.2097 13.436 13.0656 13.4993 12.915 13.4993H12.5103C12.2143 13.4993 11.965 13.2613 11.931 12.9453C11.901 12.6706 11.653 12.472 11.3796 12.502C11.105 12.532 10.907 12.7787 10.9364 13.0534C11.0144 13.7694 11.535 14.3314 12.2004 14.4667V14.666C12.2004 14.942 12.4244 15.166 12.7004 15.166C12.9764 15.166 13.2004 14.942 13.2004 14.666V14.4707C13.517 14.412 13.809 14.2573 14.041 14.0167C14.3363 13.7107 14.4997 13.3054 14.4997 12.8767C14.4983 12.134 14.0083 11.4867 13.3036 11.302Z" fill="#3B3B3E"/>
</g>
<defs>
<clipPath id="clip0_36251_7512">
<rect width="16" height="16" fill="white"/>
</clipPath>
</defs>
</svg>
