<svg width="16" height="16" viewBox="0 0 16 16" fill="none" xmlns="http://www.w3.org/2000/svg">
<path d="M11.75 2H4.25C2.75 2 2 2.75 2 4.25V11.75C2 13.25 2.75 14 4.25 14H11.75C13.25 14 14 13.25 14 11.75V4.25C14 2.75 13.25 2 11.75 2ZM8.09326 9.83333C8.68993 9.83333 9.2487 9.54 9.5887 9.04867C9.7467 8.822 10.0573 8.76404 10.2847 8.92204C10.512 9.07937 10.5686 9.39068 10.4113 9.61735C9.88396 10.3787 9.01728 10.8327 8.09261 10.8327C6.52994 10.8327 5.25928 9.56135 5.25928 7.99935C5.25928 6.43735 6.52994 5.16602 8.09261 5.16602C9.01728 5.16602 9.88396 5.62068 10.4113 6.38135C10.568 6.60801 10.5113 6.91999 10.2847 7.07666C10.0573 7.23533 9.7467 7.1767 9.5887 6.95003C9.2487 6.4587 8.68926 6.16536 8.09326 6.16536C7.08193 6.16536 6.25993 6.98736 6.25993 7.9987C6.25993 9.01003 7.08193 9.83333 8.09326 9.83333Z" fill="#3B3B3E"/>
</svg>
