<svg width="16" height="16" viewBox="0 0 16 16" fill="none" xmlns="http://www.w3.org/2000/svg">
<path d="M7.99967 1.33301C4.31967 1.33301 1.33301 4.31967 1.33301 7.99967C1.33301 11.6797 4.31967 14.6663 7.99967 14.6663C11.6797 14.6663 14.6663 11.6797 14.6663 7.99967C14.6663 4.31967 11.6797 1.33301 7.99967 1.33301ZM10.333 8.49967H8.49967V10.333C8.49967 10.6063 8.27301 10.833 7.99967 10.833C7.72634 10.833 7.49967 10.6063 7.49967 10.333V8.49967H5.66634C5.39301 8.49967 5.16634 8.27301 5.16634 7.99967C5.16634 7.72634 5.39301 7.49967 5.66634 7.49967H7.49967V5.66634C7.49967 5.39301 7.72634 5.16634 7.99967 5.16634C8.27301 5.16634 8.49967 5.39301 8.49967 5.66634V7.49967H10.333C10.6063 7.49967 10.833 7.72634 10.833 7.99967C10.833 8.27301 10.6063 8.49967 10.333 8.49967Z" fill="#3B3B3E"/>
</svg>
