<svg width="16" height="16" viewBox="0 0 16 16" fill="none" xmlns="http://www.w3.org/2000/svg">
<path d="M14.4563 6.34334C14.4277 6.23201 14.3103 6.17533 14.2003 6.20866C13.8277 6.31999 13.4263 6.35995 13.0137 6.31795C11.7423 6.18995 10.6577 5.21732 10.3983 3.96598C10.2583 3.28998 10.351 2.64598 10.5983 2.09798C10.6457 1.99265 10.6043 1.86667 10.4977 1.82267C9.72901 1.50401 8.88367 1.33398 7.99967 1.33398C4.25634 1.33398 1.23034 4.42401 1.33568 8.19067C1.43234 11.6687 4.33168 14.5673 7.80968 14.6646C11.5763 14.77 14.6663 11.744 14.6663 8.00065C14.667 7.42798 14.5937 6.87068 14.4563 6.34334ZM9.46901 10.58C9.19901 10.85 8.85568 11.0146 8.48568 11.068V11.334C8.48568 11.61 8.26168 11.834 7.98568 11.834C7.70968 11.834 7.48568 11.61 7.48568 11.334V11.0667C6.72368 10.9427 6.11902 10.3287 6.02968 9.538C5.99902 9.26334 6.19634 9.01602 6.47101 8.98535C6.74567 8.95069 6.99235 9.15201 7.02368 9.42668C7.06635 9.80668 7.38635 10.0933 7.76768 10.0933H8.23434C8.43301 10.0933 8.62035 10.0153 8.76235 9.87329C8.90435 9.73129 8.98235 9.54396 8.98235 9.3453C8.98235 9.00196 8.74901 8.70397 8.41501 8.6193L7.34302 8.35335C6.96302 8.25669 6.62435 8.03598 6.38701 7.72998C6.15101 7.43131 6.01901 7.04864 6.01901 6.65731C6.01901 5.78997 6.65568 5.07332 7.48568 4.93799V4.66732C7.48568 4.39132 7.70968 4.16732 7.98568 4.16732C8.26168 4.16732 8.48568 4.39132 8.48568 4.66732V4.93132C9.26168 5.04398 9.88168 5.66196 9.97168 6.4633C10.0023 6.73796 9.80501 6.98528 9.53034 7.01595C9.25634 7.04928 9.00835 6.84929 8.97768 6.57463C8.93501 6.19463 8.61502 5.90796 8.23368 5.90796H7.76701C7.35434 5.90796 7.01901 6.24334 7.01901 6.65601C7.01901 6.82334 7.07435 6.98596 7.17435 7.11263C7.27968 7.24863 7.42101 7.34067 7.58634 7.382L8.65834 7.64795C9.43834 7.84528 9.98235 8.54266 9.98235 9.34399C9.98168 9.81066 9.79968 10.2493 9.46901 10.58ZM15.0203 3.68734L13.687 5.02067C13.641 5.06667 13.5857 5.10333 13.5243 5.12866C13.463 5.154 13.3983 5.16732 13.333 5.16732C13.2677 5.16732 13.203 5.154 13.1417 5.12866C13.0803 5.10333 13.025 5.06667 12.979 5.02067L11.6457 3.68734C11.4503 3.492 11.4503 3.17531 11.6457 2.97998C11.841 2.78465 12.1577 2.78465 12.353 2.97998L12.833 3.45996V1.33398C12.833 1.05798 13.057 0.833984 13.333 0.833984C13.609 0.833984 13.833 1.05798 13.833 1.33398V3.45996L14.313 2.97998C14.5083 2.78465 14.825 2.78465 15.0203 2.97998C15.2157 3.17531 15.2157 3.492 15.0203 3.68734Z" fill="#3B3B3E"/>
</svg>
