<svg width="16" height="16" viewBox="0 0 16 16" fill="none" xmlns="http://www.w3.org/2000/svg">
<path d="M9.44496 13.5015C9.14096 14.0222 8.6023 14.3335 8.00363 14.3335C7.40496 14.3335 6.86563 14.0222 6.56229 13.5015C6.50229 13.3982 6.50229 13.2709 6.56162 13.1675C6.62096 13.0642 6.73096 13.0002 6.85096 13.0002H9.15762C9.27695 13.0002 9.38696 13.0642 9.44696 13.1675C9.50696 13.2709 9.50496 13.3989 9.44496 13.5015ZM13.6003 11.7935C13.587 11.7735 12.3336 10.1869 12.3336 8.33353V6.0002C12.3336 5.90953 12.3303 5.82087 12.325 5.73221C12.319 5.63887 12.2563 5.58954 12.2296 5.57087C12.2056 5.5542 12.1423 5.52287 12.0603 5.5502C11.8376 5.62487 11.599 5.66486 11.3503 5.6662C10.2163 5.6742 9.19563 4.8202 9.02763 3.69887C8.94296 3.13087 9.05829 2.59353 9.32762 2.1482C9.39696 2.03353 9.35362 1.88087 9.22562 1.84353C8.53496 1.6402 7.76629 1.60086 6.98296 1.78686C5.00829 2.2562 3.67362 4.11287 3.67362 6.14287V8.33353C3.67362 10.1869 2.42029 11.7735 2.40696 11.7935C2.32696 11.8935 2.31363 12.0269 2.36696 12.1469C2.42696 12.2602 2.54029 12.3335 2.66696 12.3335H13.3336C13.467 12.3335 13.5803 12.2602 13.6403 12.1469C13.6936 12.0269 13.6803 11.8935 13.6003 11.7935ZM11.3336 2.0002C10.597 2.0002 10.0003 2.59687 10.0003 3.33353C10.0003 4.0702 10.597 4.66687 11.3336 4.66687C12.0703 4.66687 12.667 4.0702 12.667 3.33353C12.667 2.59687 12.0703 2.0002 11.3336 2.0002Z" fill="#3B3B3E"/>
</svg>
