<svg width="16" height="16" viewBox="0 0 16 16" fill="none" xmlns="http://www.w3.org/2000/svg">
<path d="M7.80487 10.1958C8.06554 10.4565 8.06554 10.8779 7.80487 11.1385C7.67487 11.2685 7.50419 11.3338 7.33352 11.3338C7.16285 11.3338 6.99217 11.2685 6.86217 11.1385L4.1955 8.47187C3.93483 8.2112 3.93483 7.78983 4.1955 7.52916L6.86217 4.86249C7.12283 4.60183 7.54421 4.60183 7.80487 4.86249C8.06554 5.12316 8.06554 5.54453 7.80487 5.8052L5.60956 8.00051L7.80487 10.1958ZM9.60956 8.00051L11.8049 5.8052C12.0655 5.54453 12.0655 5.12316 11.8049 4.86249C11.5442 4.60183 11.1228 4.60183 10.8622 4.86249L8.1955 7.52916C7.93483 7.78983 7.93483 8.2112 8.1955 8.47187L10.8622 11.1385C10.9922 11.2685 11.1629 11.3338 11.3335 11.3338C11.5042 11.3338 11.6749 11.2685 11.8049 11.1385C12.0655 10.8779 12.0655 10.4565 11.8049 10.1958L9.60956 8.00051Z" fill="#3B3B3E"/>
</svg>
