<svg width="16" height="16" viewBox="0 0 16 16" fill="none" xmlns="http://www.w3.org/2000/svg">
<path d="M8.5 4V2.5L11.5 5.5H10C8.94667 5.5 8.5 5.05333 8.5 4ZM8.5 11.9467C8.5 12.5867 8.67332 13.1867 8.98665 13.7C9.06665 13.8333 8.95997 14 8.80664 14H4C2.66667 14 2 13.3333 2 12V4C2 2.66667 2.66667 2 4 2H7.5V4C7.5 5.61333 8.38667 6.5 10 6.5H12V8.30666C12 8.41333 11.9133 8.50001 11.8066 8.50667C9.99331 8.60667 8.5 10.1133 8.5 11.9467ZM5.16667 10.6667C5.16667 10.3907 4.94267 10.1667 4.66667 10.1667C4.39067 10.1667 4.16667 10.3907 4.16667 10.6667C4.16667 10.9427 4.39067 11.1667 4.66667 11.1667C4.94267 11.1667 5.16667 10.9427 5.16667 10.6667ZM5.16667 8C5.16667 7.724 4.94267 7.5 4.66667 7.5C4.39067 7.5 4.16667 7.724 4.16667 8C4.16667 8.276 4.39067 8.5 4.66667 8.5C4.94267 8.5 5.16667 8.276 5.16667 8ZM7.83333 10.6667C7.83333 10.3907 7.60933 10.1667 7.33333 10.1667H6.33333C6.05733 10.1667 5.83333 10.3907 5.83333 10.6667C5.83333 10.9427 6.05733 11.1667 6.33333 11.1667H7.33333C7.60933 11.1667 7.83333 10.9427 7.83333 10.6667ZM9.33333 8.5C9.60933 8.5 9.83333 8.276 9.83333 8C9.83333 7.724 9.60933 7.5 9.33333 7.5H6.33333C6.05733 7.5 5.83333 7.724 5.83333 8C5.83333 8.276 6.05733 8.5 6.33333 8.5H9.33333ZM15.02 15.02C14.9227 15.1173 14.7947 15.1667 14.6667 15.1667C14.5387 15.1667 14.4106 15.118 14.3133 15.02L13.2799 13.9873C12.8953 14.2393 12.438 14.3887 11.9447 14.3887C10.5967 14.3887 9.5 13.292 9.5 11.944C9.5 10.596 10.5967 9.49933 11.9447 9.49933C13.292 9.49933 14.3887 10.596 14.3887 11.944C14.3887 12.4373 14.2393 12.8953 13.9867 13.2793L15.02 14.3127C15.2154 14.508 15.2154 14.8247 15.02 15.02ZM13.3887 11.9447C13.3887 11.148 12.7407 10.5 11.9447 10.5C11.148 10.5 10.5 11.148 10.5 11.9447C10.5 12.7413 11.148 13.3893 11.9447 13.3893C12.7407 13.3887 13.3887 12.7407 13.3887 11.9447Z" fill="#3B3B3E"/>
</svg>
