<svg width="16" height="16" viewBox="0 0 16 16" fill="none" xmlns="http://www.w3.org/2000/svg">
<path d="M12.7187 8.00029H3.28198C3.16332 8.00029 3.07068 8.10295 3.08268 8.22095L3.49333 12.2003C3.59999 13.2203 3.99332 14.0003 5.48665 14.0003H10.5267C11.9934 14.0003 12.42 13.2203 12.5133 12.2003L12.9173 8.22029C12.9293 8.10296 12.8373 8.00029 12.7187 8.00029ZM9.35335 10.9803C9.54869 11.1756 9.54869 11.4923 9.35335 11.6876C9.25602 11.785 9.128 11.8343 9 11.8343C8.872 11.8343 8.74398 11.7856 8.64665 11.6876L8 11.041L7.35335 11.6876C7.25602 11.785 7.128 11.8343 7 11.8343C6.872 11.8343 6.74398 11.7856 6.64665 11.6876C6.45131 11.4923 6.45131 11.1756 6.64665 10.9803L7.29329 10.3336L6.64665 9.68696C6.45131 9.49162 6.45131 9.17495 6.64665 8.97962C6.84198 8.78429 7.15867 8.78429 7.354 8.97962L8.00065 9.62629L8.6473 8.97962C8.84263 8.78429 9.15932 8.78429 9.35466 8.97962C9.54999 9.17495 9.54999 9.49162 9.35466 9.68696L8.70801 10.3336L9.35335 10.9803ZM14 6.00029C14 6.73629 13.4027 7.33362 12.6667 7.33362H3.33333C2.59733 7.33362 2 6.73629 2 6.00029C2 5.26429 2.59733 4.66696 3.33333 4.66696H4.48535L6.2513 1.74162C6.39397 1.50562 6.70134 1.42896 6.93734 1.57229C7.17334 1.71562 7.25002 2.02229 7.10669 2.25896L5.65267 4.66696H10.3534L8.91602 2.25629C8.77468 2.01962 8.85201 1.71229 9.09001 1.57096C9.32667 1.43029 9.63398 1.50696 9.77531 1.74496L11.518 4.66763H12.6667C13.4027 4.66696 14 5.26429 14 6.00029Z" fill="#3B3B3E"/>
</svg>
