<svg width="16" height="16" viewBox="0 0 16 16" fill="none" xmlns="http://www.w3.org/2000/svg">
<path d="M11.8237 3.37134C11.7431 3.35934 11.667 3.42599 11.667 3.50732V3.66602C11.667 4.87935 10.8803 5.66602 9.66699 5.66602H6.33366C5.12033 5.66602 4.33366 4.87935 4.33366 3.66602V3.50732C4.33366 3.42599 4.25692 3.35934 4.17692 3.37134C3.16825 3.518 2.66699 4.172 2.66699 5.33333V12C2.66699 13.3333 3.33366 14 4.66699 14H11.3337C12.667 14 13.3337 13.3333 13.3337 12V5.33333C13.3337 4.172 12.8324 3.518 11.8237 3.37134ZM6.68701 10.576L5.79834 11.4647C5.70434 11.5587 5.57765 11.6113 5.44499 11.6113C5.31232 11.6113 5.18497 11.5587 5.09163 11.4653L4.64697 11.0207C4.45164 10.8253 4.45164 10.5086 4.64697 10.3133C4.84231 10.118 5.159 10.118 5.35433 10.3133L5.44564 10.4047L5.98096 9.86934C6.17629 9.67401 6.49298 9.67401 6.68831 9.86934C6.88231 10.064 6.88235 10.3807 6.68701 10.576ZM6.68701 7.90934L5.79834 8.79801C5.70434 8.89201 5.57765 8.94466 5.44499 8.94466C5.31232 8.94466 5.18497 8.892 5.09163 8.79867L4.64697 8.354C4.45164 8.15867 4.45164 7.84198 4.64697 7.64665C4.84231 7.45131 5.159 7.45131 5.35433 7.64665L5.44564 7.738L5.98096 7.20268C6.17629 7.00734 6.49298 7.00734 6.68831 7.20268C6.88231 7.39734 6.88235 7.71401 6.68701 7.90934ZM11.0003 11.1667H8.33366C8.05766 11.1667 7.83366 10.9427 7.83366 10.6667C7.83366 10.3907 8.05766 10.1667 8.33366 10.1667H11.0003C11.2763 10.1667 11.5003 10.3907 11.5003 10.6667C11.5003 10.9427 11.2763 11.1667 11.0003 11.1667ZM11.0003 8.5H8.33366C8.05766 8.5 7.83366 8.276 7.83366 8C7.83366 7.724 8.05766 7.5 8.33366 7.5H11.0003C11.2763 7.5 11.5003 7.724 11.5003 8C11.5003 8.276 11.2763 8.5 11.0003 8.5ZM5.33366 3.66667V3C5.33366 2.33333 5.66699 2 6.33366 2H9.66699C10.3337 2 10.667 2.33333 10.667 3V3.66667C10.667 4.33333 10.3337 4.66667 9.66699 4.66667H6.33366C5.66699 4.66667 5.33366 4.33333 5.33366 3.66667Z" fill="#3B3B3E"/>
</svg>
