<svg width="16" height="16" viewBox="0 0 16 16" fill="none" xmlns="http://www.w3.org/2000/svg">
<path d="M11.7533 2H4.25334C2.75334 2 2 2.74666 2 4.24666V11.7467C2 13.2467 2.75334 14 4.25334 14H11.7533C13.2533 14 14 13.2467 14 11.7467V4.24666C14 2.74666 13.2533 2 11.7533 2ZM10.3534 9.64665C10.5467 9.83998 10.5467 10.16 10.3534 10.3534C10.2534 10.4534 10.1267 10.5 10 10.5C9.87333 10.5 9.74665 10.4534 9.64665 10.3534L8 8.70667L6.35335 10.3534C6.25335 10.4534 6.12667 10.5 6 10.5C5.87333 10.5 5.74665 10.4534 5.64665 10.3534C5.45331 10.16 5.45331 9.83998 5.64665 9.64665L7.29334 8L5.64665 6.35335C5.45331 6.16002 5.45331 5.83998 5.64665 5.64665C5.83998 5.45331 6.16002 5.45331 6.35335 5.64665L8 7.29334L9.64665 5.64665C9.83998 5.45331 10.16 5.45331 10.3534 5.64665C10.5467 5.83998 10.5467 6.16002 10.3534 6.35335L8.70667 8L10.3534 9.64665Z" fill="#3B3B3E"/>
</svg>
