<svg width="16" height="16" viewBox="0 0 16 16" fill="none" xmlns="http://www.w3.org/2000/svg">
<path d="M8.00099 2C4.68766 2 2.00164 4.68602 2.00164 7.99935C2.00164 8.89268 2.20169 9.746 2.55503 10.5053C2.69503 10.7987 2.69507 11.1387 2.59507 11.452L2.03501 13.1187C1.86167 13.6387 2.36169 14.1387 2.88169 13.9653L4.54835 13.4053C4.86169 13.3053 5.20164 13.3054 5.49497 13.4454C6.25497 13.7987 7.10831 13.9987 8.00164 13.9987C11.315 13.9987 14.001 11.3127 14.001 7.99935C14.0003 4.68602 11.3143 2 8.00099 2ZM7.50034 6C7.50034 5.724 7.72434 5.5 8.00034 5.5C8.27634 5.5 8.50034 5.724 8.50034 6V8C8.50034 8.276 8.27634 8.5 8.00034 8.5C7.72434 8.5 7.50034 8.276 7.50034 8V6ZM8.01369 10.6667C7.64569 10.6667 7.3436 10.368 7.3436 10C7.3436 9.632 7.63901 9.33333 8.00701 9.33333H8.01369C8.38235 9.33333 8.68035 9.632 8.68035 10C8.68035 10.368 8.38169 10.6667 8.01369 10.6667Z" fill="#3B3B3E"/>
</svg>
