<svg width="16" height="16" viewBox="0 0 16 16" fill="none" xmlns="http://www.w3.org/2000/svg">
<path d="M8.7347 8.62366C8.7347 9.42032 8.08671 10.0683 7.29004 10.0683C6.49404 10.0683 5.84603 9.42032 5.84603 8.62366C5.84603 7.82699 6.49404 7.179 7.29004 7.179C8.08671 7.179 8.7347 7.82699 8.7347 8.62366ZM14 6.66699V11.3337C14 12.667 13.3333 13.3337 12 13.3337H4C2.66667 13.3337 2 12.667 2 11.3337V4.66699C2 3.33366 2.66667 2.66699 4 2.66699H6.66667L8.66667 4.66699H12C13.3333 4.66699 14 5.33366 14 6.66699ZM10.366 10.9923L9.33268 9.95898C9.58468 9.57432 9.7347 9.11632 9.7347 8.62366C9.7347 7.27566 8.63804 6.179 7.29004 6.179C5.94271 6.179 4.84603 7.27566 4.84603 8.62366C4.84603 9.97166 5.94271 11.0683 7.29004 11.0683C7.78337 11.0683 8.24131 10.919 8.62598 10.6663L9.65934 11.6997C9.75668 11.797 9.8847 11.8463 10.0127 11.8463C10.1407 11.8463 10.2687 11.7977 10.366 11.6997C10.5614 11.5043 10.5614 11.1877 10.366 10.9923Z" fill="#3B3B3E"/>
</svg>
