<svg width="16" height="16" viewBox="0 0 16 16" fill="none" xmlns="http://www.w3.org/2000/svg">
<path d="M3.54167 7.13932C3.10767 6.72932 3.39762 5.99933 3.99495 6H5.6097V2.66667C5.6097 2.29867 5.90837 2 6.27637 2H10.2764C10.6444 2 10.943 2.29867 10.943 2.66667V6H12.6724C13.2697 6 13.5597 6.72932 13.1257 7.13932L8.94238 11.0913C8.60105 11.414 8.06693 11.414 7.72493 11.0913L3.54167 7.13932ZM13.0003 13.5H3.66699C3.39099 13.5 3.16699 13.724 3.16699 14C3.16699 14.276 3.39099 14.5 3.66699 14.5H13.0003C13.2763 14.5 13.5003 14.276 13.5003 14C13.5003 13.724 13.2763 13.5 13.0003 13.5Z" fill="#3B3B3E"/>
</svg>
