<svg width="16" height="16" viewBox="0 0 16 16" fill="none" xmlns="http://www.w3.org/2000/svg">
<path d="M12 3.99967H11.1667V2.99967C11.1667 2.35967 10.64 1.83301 10 1.83301H6C5.35333 1.83301 4.83333 2.35967 4.83333 2.99967V3.99967H4C2.66667 3.99967 2 4.66634 2 5.99967V6.63965C2 7.25965 2.36667 7.80637 2.94 8.02637C3.86 8.39303 4.81333 8.67305 5.76666 8.87305C5.84 8.88638 5.90667 8.83303 5.94667 8.77303C6.42667 8.05303 7.2 7.61971 8 7.61971C8.80667 7.61971 9.57333 8.05303 10.06 8.77303C10.1 8.83303 10.1667 8.88638 10.24 8.87305C11.1933 8.67305 12.14 8.39304 13.06 8.03304C13.6333 7.80637 14 7.25965 14 6.63965V5.99967C14 4.66634 13.3333 3.99967 12 3.99967ZM5.83333 3.99967V2.99967C5.83333 2.90634 5.90667 2.83301 6 2.83301H10C10.0933 2.83301 10.1667 2.90634 10.1667 2.99967V3.99967H5.83333ZM10.44 9.85303C10.3667 9.86636 10.2867 9.87305 10.2133 9.87305C9.82667 9.87305 9.46 9.673 9.22666 9.32633C8.93333 8.88633 8.47333 8.61971 8 8.61971C7.53333 8.61971 7.07333 8.88633 6.78 9.32633C6.5 9.73967 6.02667 9.94636 5.56667 9.85303C4.55334 9.64636 3.54667 9.3463 2.57333 8.95964C2.36667 8.87964 2.17333 8.77298 2 8.63298V11.9997C2 13.333 2.66667 13.9997 4 13.9997H12C13.3333 13.9997 14 13.333 14 11.9997V8.63965C13.8267 8.77298 13.6333 8.87964 13.4267 8.95964C12.4533 9.3463 11.4467 9.64636 10.44 9.85303ZM8.00133 10.6663C7.634 10.6663 7.33333 10.3677 7.33333 9.99967C7.33333 9.63167 7.62867 9.33301 7.996 9.33301H8.00133C8.36867 9.33301 8.66667 9.63167 8.66667 9.99967C8.66667 10.3677 8.36867 10.6663 8.00133 10.6663Z" fill="#3B3B3E"/>
</svg>
