<svg width="16" height="16" viewBox="0 0 16 16" fill="none" xmlns="http://www.w3.org/2000/svg">
<path d="M7.99967 1.33301C4.31967 1.33301 1.33301 4.31967 1.33301 7.99967C1.33301 11.6797 4.31967 14.6663 7.99967 14.6663C11.6797 14.6663 14.6663 11.6797 14.6663 7.99967C14.6663 4.31967 11.6797 1.33301 7.99967 1.33301ZM4.973 9.74634C5.113 9.98634 5.03301 10.2863 4.79301 10.433C4.71301 10.4797 4.62634 10.4997 4.53967 10.4997C4.36634 10.4997 4.19968 10.413 4.10634 10.253C3.71301 9.57968 3.49967 8.79967 3.49967 7.99967C3.49967 5.51967 5.51967 3.49967 7.99967 3.49967C8.32634 3.49967 8.63967 3.53301 8.973 3.60634C9.23967 3.65968 9.41301 3.92633 9.35301 4.19967C9.29967 4.46633 9.03302 4.63967 8.75968 4.57967C6.53968 4.10634 4.49967 5.81301 4.49967 7.99967C4.49967 8.63301 4.65967 9.21967 4.973 9.74634ZM10.3597 5.913C9.87968 6.79967 8.98634 8.42634 8.70634 8.70634C8.31301 9.09967 7.68634 9.09967 7.29301 8.70634C6.89968 8.31301 6.89968 7.68634 7.29301 7.29301C7.57301 7.01301 9.19968 6.11967 10.0863 5.63967C10.2663 5.54634 10.453 5.733 10.3597 5.913ZM11.893 10.253C11.7997 10.413 11.633 10.4997 11.4597 10.4997C11.373 10.4997 11.2863 10.4797 11.2063 10.433C10.9663 10.2863 10.8863 9.98634 11.0263 9.74634C11.3397 9.21967 11.4997 8.63301 11.4997 7.99967C11.4997 7.74634 11.473 7.493 11.4197 7.23966C11.3597 6.96633 11.533 6.69967 11.7997 6.64634C12.073 6.58634 12.3397 6.75968 12.393 7.02635C12.4663 7.35301 12.4997 7.67301 12.4997 7.99967C12.4997 8.79967 12.2863 9.57968 11.893 10.253Z" fill="#3B3B3E"/>
</svg>
