<svg width="16" height="16" viewBox="0 0 16 16" fill="none" xmlns="http://www.w3.org/2000/svg">
<path d="M11.8066 8.50667C11.9133 8.50001 12 8.41333 12 8.30666V6.5H10C8.38667 6.5 7.5 5.61333 7.5 4V2H4C2.66667 2 2 2.66667 2 4V12C2 13.3333 2.66667 14 4 14H8.80664C8.95997 14 9.06665 13.8333 8.98665 13.7C8.67332 13.1867 8.5 12.5867 8.5 11.9467C8.5 10.1133 9.99331 8.60667 11.8066 8.50667ZM7.33333 11.1667H4.66667C4.39067 11.1667 4.16667 10.9427 4.16667 10.6667C4.16667 10.3907 4.39067 10.1667 4.66667 10.1667H7.33333C7.60933 10.1667 7.83333 10.3907 7.83333 10.6667C7.83333 10.9427 7.60933 11.1667 7.33333 11.1667ZM4.66667 8.5C4.39067 8.5 4.16667 8.276 4.16667 8C4.16667 7.724 4.39067 7.5 4.66667 7.5H9.33333C9.60933 7.5 9.83333 7.724 9.83333 8C9.83333 8.276 9.60933 8.5 9.33333 8.5H4.66667ZM8.5 4V2.5L11.5 5.5H10C8.94667 5.5 8.5 5.05333 8.5 4ZM15.02 14.3133L13.9867 13.28C14.2387 12.8953 14.3887 12.438 14.3887 11.9447C14.3887 10.5967 13.292 9.5 11.9447 9.5C10.5967 9.5 9.5 10.5967 9.5 11.9447C9.5 13.2927 10.5967 14.3893 11.9447 14.3893C12.438 14.3893 12.8953 14.24 13.2799 13.988L14.3133 15.0207C14.4106 15.118 14.5387 15.1673 14.6667 15.1673C14.7947 15.1673 14.9227 15.1187 15.02 15.0207C15.2154 14.8247 15.2154 14.508 15.02 14.3133ZM11.9447 13.3887C11.148 13.3887 10.5 12.7407 10.5 11.944C10.5 11.1473 11.148 10.4993 11.9447 10.4993C12.7407 10.4993 13.3887 11.1473 13.3887 11.944C13.3887 12.7407 12.7407 13.3887 11.9447 13.3887Z" fill="#3B3B3E"/>
</svg>
