<svg width="16" height="16" viewBox="0 0 16 16" fill="none" xmlns="http://www.w3.org/2000/svg">
<path d="M10.6663 2H5.33301C3.99967 2 3.33301 2.66667 3.33301 4V14L7.99967 11.3333L12.6663 14V4C12.6663 2.66667 11.9997 2 10.6663 2ZM10.0197 5.90934L7.79769 8.13135C7.70036 8.22868 7.57234 8.27799 7.44434 8.27799C7.31634 8.27799 7.18832 8.22935 7.09098 8.13135L5.97965 7.02002C5.78432 6.82535 5.78432 6.508 5.97965 6.31266C6.17499 6.11733 6.49168 6.11733 6.68701 6.31266L7.44499 7.06999L9.31364 5.20133C9.50897 5.006 9.82566 5.006 10.021 5.20133C10.2163 5.39667 10.215 5.71401 10.0197 5.90934Z" fill="#3B3B3E"/>
</svg>
