<svg width="16" height="16" viewBox="0 0 16 16" fill="none" xmlns="http://www.w3.org/2000/svg">
<path d="M14 3.33301C10.6667 2.66634 9.48138 2.07367 8.01204 1.33301C6.51871 2.07367 5.33333 2.66634 2 3.33301C2 4.09101 2 6.46762 2 7.25895C2 11.7036 5.778 13.9257 8 14.6663C10.222 13.9257 14 11.7036 14 7.25895C14 6.44228 14 4.12901 14 3.33301ZM10.8407 7.85238L7.50732 11.5563C7.44266 11.6276 7.35194 11.667 7.25928 11.667C7.21861 11.667 7.17864 11.6597 7.13997 11.645C7.01131 11.5957 6.92594 11.4717 6.92594 11.3337V8.70426H5.40804C5.27671 8.70426 5.15735 8.627 5.10335 8.507C5.05002 8.38633 5.07199 8.24627 5.15999 8.14827L8.49333 4.44434C8.58599 4.34167 8.73334 4.30695 8.86068 4.35628C8.98934 4.40562 9.07471 4.52964 9.07471 4.66764V7.29704H10.5926C10.7239 7.29704 10.8433 7.3743 10.8973 7.4943C10.9506 7.61364 10.9287 7.75438 10.8407 7.85238Z" fill="#3B3B3E"/>
</svg>
