<svg width="16" height="16" viewBox="0 0 16 16" fill="none" xmlns="http://www.w3.org/2000/svg">
<path d="M8.48179 10.0072C8.43045 9.88251 8.45579 9.73923 8.55112 9.6439L10.3119 7.88381C10.4072 7.78847 10.5505 7.7592 10.6751 7.81187C10.7998 7.86387 10.8812 7.98514 10.8812 8.11981C10.8812 8.15381 10.8759 8.19393 10.8666 8.22593C10.5726 9.16793 9.83456 9.90527 8.8939 10.1979C8.8619 10.2079 8.8286 10.2126 8.79526 10.2126C8.6586 10.2132 8.53379 10.1318 8.48179 10.0072ZM12.6665 6.83319C12.3905 6.83319 12.1665 7.05719 12.1665 7.33319C12.1665 9.63052 10.2972 11.4999 7.99985 11.4999C7.64052 11.4999 7.28722 11.4538 6.94989 11.3631C6.68122 11.2931 6.40859 11.4505 6.33726 11.7171C6.26592 11.9838 6.42445 12.2578 6.69045 12.3291C6.95378 12.3998 7.22519 12.4405 7.49985 12.4671V13.9999C7.49985 14.2759 7.72385 14.4999 7.99985 14.4999C8.27585 14.4999 8.49985 14.2759 8.49985 13.9999V12.4745C11.1152 12.2225 13.1665 10.0132 13.1665 7.33319C13.1665 7.05719 12.9425 6.83319 12.6665 6.83319ZM14.3532 1.6465C14.1579 1.45117 13.8412 1.45117 13.6458 1.6465L10.9652 4.32716C10.7939 2.8345 9.53652 1.66652 7.99985 1.66652C7.20652 1.66652 6.45323 1.9799 5.87323 2.54657C5.31323 3.1199 4.99985 3.87319 4.99985 4.66652V7.33319C4.99985 8.12452 5.31654 8.87248 5.8672 9.42515L5.03387 10.2585C4.26054 9.47381 3.83319 8.43652 3.83319 7.33319C3.83319 7.05719 3.60919 6.83319 3.33319 6.83319C3.05719 6.83319 2.83319 7.05719 2.83319 7.33319C2.83319 8.70385 3.36383 9.99184 4.32716 10.9658L1.6465 13.6465C1.45117 13.8418 1.45117 14.1585 1.6465 14.3539C1.74383 14.4512 1.87185 14.5005 1.99985 14.5005C2.12785 14.5005 2.25587 14.4519 2.35321 14.3539L14.3532 2.35386C14.5485 2.15786 14.5485 1.84183 14.3532 1.6465Z" fill="#3B3B3E"/>
</svg>
