<svg width="16" height="16" viewBox="0 0 16 16" fill="none" xmlns="http://www.w3.org/2000/svg">
<path fill-rule="evenodd" clip-rule="evenodd" d="M13.0463 5.72454L9.07031 2.39048C8.45098 1.87114 7.54764 1.87114 6.9283 2.39048L2.95231 5.72454C2.34831 6.23121 1.99902 6.43584 1.99902 7.76784V12.0005C1.99902 13.3338 2.66569 14.0005 3.99902 14.0005H11.999C13.3324 14.0005 13.999 13.3338 13.999 12.0005V7.76784C13.9997 6.43517 13.651 6.23121 13.0463 5.72454ZM10.333 8.70452C10.333 10.4825 8.87434 11.3712 7.99967 11.6672C7.12501 11.3712 5.66634 10.4819 5.66634 8.70452C5.66634 8.38786 5.66634 7.52649 5.66634 7.22316C6.83301 6.88849 7.41631 6.63049 8.00431 6.33449C8.58298 6.63049 9.16634 6.8885 10.333 7.1845C10.333 7.5025 10.333 8.37719 10.333 8.70452Z" fill="#3B3B3E"/>
</svg>
