<svg width="16" height="16" viewBox="0 0 16 16" fill="none" xmlns="http://www.w3.org/2000/svg">
<path d="M8 2.66699C4.68667 2.66699 2 4.66698 2 8.00098C2 9.41431 2.48663 10.5949 3.29997 11.4749C3.19997 12.1149 2.83995 12.8484 2.11328 13.4351C1.89328 13.6217 2.01997 13.9883 2.30664 13.995C3.25331 14.0283 4.71327 13.9017 5.60661 12.9484C6.33994 13.2017 7.14667 13.335 8 13.335C11.3133 13.335 14 11.335 14 8.00098C14 4.66698 11.3133 2.66699 8 2.66699ZM8.5 10.0003C8.5 10.2763 8.276 10.5003 8 10.5003C7.724 10.5003 7.5 10.2763 7.5 10.0003V8.00033C7.5 7.72433 7.724 7.50033 8 7.50033C8.276 7.50033 8.5 7.72433 8.5 8.00033V10.0003ZM8.01335 6.66699C7.64535 6.66699 7.34326 6.36833 7.34326 6.00033C7.34326 5.63233 7.63867 5.33366 8.00667 5.33366H8.01335C8.38201 5.33366 8.68001 5.63233 8.68001 6.00033C8.68001 6.36833 8.38135 6.66699 8.01335 6.66699Z" fill="#3B3B3E"/>
</svg>
