<svg width="16" height="16" viewBox="0 0 16 16" fill="none" xmlns="http://www.w3.org/2000/svg">
<path d="M7.99967 1.33301C4.31767 1.33301 1.33301 4.31767 1.33301 7.99967C1.33301 11.6817 4.31767 14.6663 7.99967 14.6663C11.6817 14.6663 14.6663 11.6817 14.6663 7.99967C14.6663 4.31767 11.6817 1.33301 7.99967 1.33301ZM10.6663 10.4997H7.99967C7.72367 10.4997 7.49967 10.2757 7.49967 9.99967C7.49967 9.72367 7.72367 9.49967 7.99967 9.49967H10.6663C10.9423 9.49967 11.1663 9.72367 11.1663 9.99967C11.1663 10.2757 10.9423 10.4997 10.6663 10.4997ZM10.6663 8.49967H5.33301C5.05701 8.49967 4.83301 8.27567 4.83301 7.99967C4.83301 7.72367 5.05701 7.49967 5.33301 7.49967H10.6663C10.9423 7.49967 11.1663 7.72367 11.1663 7.99967C11.1663 8.27567 10.9423 8.49967 10.6663 8.49967ZM10.6663 6.49967H6.66634C6.39034 6.49967 6.16634 6.27567 6.16634 5.99967C6.16634 5.72367 6.39034 5.49967 6.66634 5.49967H10.6663C10.9423 5.49967 11.1663 5.72367 11.1663 5.99967C11.1663 6.27567 10.9423 6.49967 10.6663 6.49967Z" fill="#3B3B3E"/>
</svg>
