<svg width="16" height="16" viewBox="0 0 16 16" fill="none" xmlns="http://www.w3.org/2000/svg">
<path d="M14.354 5.16815C14.2567 5.26548 14.1286 5.31479 14.0006 5.31479C13.8726 5.31479 13.7447 5.26615 13.6474 5.16815L12.944 4.46486L11.5407 5.86818L12.7727 7.10011C12.966 7.29345 12.966 7.61349 12.7727 7.80682C12.6727 7.90682 12.546 7.95347 12.4193 7.95347C12.286 7.95347 12.1593 7.90682 12.066 7.80682L11.5353 7.27752L7.47931 11.3335C6.71531 12.0975 5.90468 12.2849 5.04734 11.6589L2.35268 14.3535C2.25268 14.4535 2.126 14.5002 1.99933 14.5002C1.87266 14.5002 1.74598 14.4535 1.64598 14.3535C1.45264 14.1602 1.45264 13.8402 1.64598 13.6468L4.33665 10.9562C3.91198 10.3709 3.86536 9.8002 4.13003 9.2562C4.17469 9.16487 4.33133 9.02611 4.482 9.17677L4.98533 9.68019C5.08267 9.77753 5.21068 9.82684 5.33868 9.82684C5.46668 9.82684 5.59462 9.77819 5.69196 9.68019C5.88729 9.48486 5.88729 9.16817 5.69196 8.97284C5.69196 8.97284 5.30866 8.58757 5.09666 8.3729C5.01933 8.2949 5.02063 8.17079 5.09796 8.09279C5.2193 7.97012 5.3607 7.82817 5.5187 7.67417C5.5967 7.59817 5.724 7.59749 5.80133 7.67482L6.39866 8.27215C6.496 8.36948 6.62401 8.4188 6.75201 8.4188C6.88001 8.4188 7.00803 8.37015 7.10537 8.27215C7.3007 8.07682 7.3007 7.76013 7.10537 7.56479C7.10537 7.56479 6.71996 7.17756 6.50796 6.96356C6.43129 6.88622 6.43002 6.76423 6.50535 6.68556C6.64135 6.54423 6.7833 6.40144 6.92397 6.26011C7.00197 6.18211 7.12867 6.18211 7.20734 6.26011L7.80597 6.85825C7.9033 6.95559 8.03132 7.0049 8.15932 7.0049C8.28732 7.0049 8.41534 6.95625 8.51268 6.85825C8.70801 6.66292 8.70801 6.34623 8.51268 6.15089L7.91665 5.55487C7.83731 5.47553 7.84 5.34351 7.91933 5.26418C8.16133 5.02218 8.48737 4.69622 8.72003 4.46356L8.19269 3.93752C7.99935 3.73752 7.99935 3.42414 8.19269 3.22414C8.39269 3.0308 8.70598 3.0308 8.89931 3.22414L10.1334 4.45819L11.5367 3.05487L10.8333 2.35076C10.638 2.15543 10.638 1.8389 10.8333 1.64357C11.0286 1.44824 11.3453 1.44824 11.5407 1.64357L14.3554 4.45819C14.5494 4.65685 14.5493 4.97281 14.354 5.16815Z" fill="#3B3B3E"/>
</svg>
