<svg width="16" height="16" viewBox="0 0 16 16" fill="none" xmlns="http://www.w3.org/2000/svg">
<path d="M4.00635 4.33268C4.00635 2.86202 5.20235 1.66602 6.67301 1.66602C8.14368 1.66602 9.33968 2.86202 9.33968 4.33268C9.33968 5.80335 8.14368 6.99935 6.67301 6.99935C5.20235 6.99935 4.00635 5.80335 4.00635 4.33268ZM9.7203 9.25936C9.80696 9.23269 9.88695 9.20603 9.96029 9.18603C10.0763 9.1447 10.1137 9.07268 10.1137 8.99268C10.1137 8.93934 10.0916 8.8847 10.0536 8.8527C10.0463 8.8467 9.99363 8.81265 9.96696 8.79932C9.45363 8.50598 8.80699 8.33268 8.00033 8.33268H5.33366C2.62699 8.33268 1.66699 10.3127 1.66699 12.0127C1.66699 13.5327 2.47366 14.3327 4.00033 14.3327H9.33366C9.41366 14.3327 9.48697 14.3327 9.5603 14.326C9.72097 14.3207 9.78035 14.226 9.78035 14.126C9.78035 14.0653 9.73563 14.0073 9.7203 13.986C9.28696 13.3793 9.00033 12.6194 9.00033 11.7061V10.2193C9.00033 9.77932 9.29363 9.38602 9.7203 9.25936ZM12.2904 9.33268C11.7144 9.62868 11.1437 9.88669 10.0003 10.2214C10.0003 10.5247 10.0003 11.3867 10.0003 11.7027C10.0003 13.4807 11.429 14.3694 12.2863 14.6654C13.1436 14.3694 14.5723 13.4801 14.5723 11.7027C14.5723 11.3761 14.5723 10.5014 14.5723 10.1827C13.429 9.8867 12.8577 9.62868 12.2904 9.33268Z" fill="#3B3B3E"/>
</svg>
