<svg width="16" height="16" viewBox="0 0 16 16" fill="none" xmlns="http://www.w3.org/2000/svg">
<path d="M14 2.5H2C1.724 2.5 1.5 2.276 1.5 2C1.5 1.724 1.724 1.5 2 1.5H14C14.276 1.5 14.5 1.724 14.5 2C14.5 2.276 14.276 2.5 14 2.5ZM14.5 9.33333C14.5 9.05733 14.276 8.83333 14 8.83333H2C1.724 8.83333 1.5 9.05733 1.5 9.33333C1.5 9.60933 1.724 9.83333 2 9.83333H14C14.276 9.83333 14.5 9.60933 14.5 9.33333ZM3.66667 4H3C2.33333 4 2 4.33333 2 5V5.66667C2 6.33333 2.33333 6.66667 3 6.66667H3.66667C4.33333 6.66667 4.66667 6.33333 4.66667 5.66667V5C4.66667 4.33333 4.33333 4 3.66667 4ZM8.33333 4H7.66667C7 4 6.66667 4.33333 6.66667 5V5.66667C6.66667 6.33333 7 6.66667 7.66667 6.66667H8.33333C9 6.66667 9.33333 6.33333 9.33333 5.66667V5C9.33333 4.33333 9 4 8.33333 4ZM13 4H12.3333C11.6667 4 11.3333 4.33333 11.3333 5V5.66667C11.3333 6.33333 11.6667 6.66667 12.3333 6.66667H13C13.6667 6.66667 14 6.33333 14 5.66667V5C14 4.33333 13.6667 4 13 4ZM3.66667 11.3333H3C2.33333 11.3333 2 11.6667 2 12.3333V13C2 13.6667 2.33333 14 3 14H3.66667C4.33333 14 4.66667 13.6667 4.66667 13V12.3333C4.66667 11.6667 4.33333 11.3333 3.66667 11.3333ZM8.33333 11.3333H7.66667C7 11.3333 6.66667 11.6667 6.66667 12.3333V13C6.66667 13.6667 7 14 7.66667 14H8.33333C9 14 9.33333 13.6667 9.33333 13V12.3333C9.33333 11.6667 9 11.3333 8.33333 11.3333ZM13 11.3333H12.3333C11.6667 11.3333 11.3333 11.6667 11.3333 12.3333V13C11.3333 13.6667 11.6667 14 12.3333 14H13C13.6667 14 14 13.6667 14 13V12.3333C14 11.6667 13.6667 11.3333 13 11.3333Z" fill="#3B3B3E"/>
</svg>
