<svg width="16" height="16" viewBox="0 0 16 16" fill="none" xmlns="http://www.w3.org/2000/svg">
<path d="M7.99967 1.33301C4.31767 1.33301 1.33301 4.31767 1.33301 7.99967C1.33301 11.6817 4.31767 14.6663 7.99967 14.6663C11.6817 14.6663 14.6663 11.6817 14.6663 7.99967C14.6663 4.31767 11.6817 1.33301 7.99967 1.33301ZM10.353 9.01969C10.2557 9.11703 10.1277 9.16634 9.99967 9.16634C9.87167 9.16634 9.74365 9.11769 9.64632 9.01969L7.99967 7.37305L6.35303 9.01969C6.15769 9.21503 5.841 9.21503 5.64567 9.01969C5.45034 8.82436 5.45034 8.50767 5.64567 8.31234L7.64567 6.31234C7.841 6.117 8.15769 6.117 8.35303 6.31234L10.353 8.31234C10.5484 8.50834 10.5484 8.82436 10.353 9.01969Z" fill="#3B3B3E"/>
</svg>
