<svg width="16" height="16" viewBox="0 0 16 16" fill="none" xmlns="http://www.w3.org/2000/svg">
<path d="M8.50018 12.4826V13.4999H10.6668C10.9428 13.4999 11.1668 13.7239 11.1668 13.9999C11.1668 14.2759 10.9428 14.4999 10.6668 14.4999H5.33351C5.05751 14.4999 4.83351 14.2759 4.83351 13.9999C4.83351 13.7239 5.05751 13.4999 5.33351 13.4999H7.50018V12.464C6.20751 12.332 4.99956 11.8119 4.01222 10.9559L3.02085 11.9473C2.82552 12.1426 2.50883 12.1426 2.31349 11.9473C2.11816 11.7519 2.11816 11.4353 2.31349 11.2399L3.64683 9.90659C3.74083 9.81259 3.86751 9.75994 4.00018 9.75994C4.00085 9.75994 4.00148 9.75994 4.00148 9.75994C4.13481 9.75994 4.26282 9.81395 4.35548 9.90862C5.36948 10.9346 6.71817 11.4999 8.1535 11.4999C11.1015 11.4999 13.5002 9.10459 13.5002 6.15992C13.5002 4.72659 12.9342 3.37525 11.9076 2.35458C11.7116 2.15992 11.7101 1.84323 11.9048 1.64723C12.1001 1.45123 12.4182 1.45127 12.6122 1.64527C13.8295 2.85461 14.5002 4.45859 14.5002 6.15992C14.5002 9.53926 11.8382 12.3013 8.50018 12.4826ZM8.00018 2.1666C5.79418 2.1666 4.00018 3.9606 4.00018 6.1666C4.00018 8.3726 5.79418 10.1666 8.00018 10.1666C10.2062 10.1666 12.0002 8.3726 12.0002 6.1666C12.0002 3.9606 10.2062 2.1666 8.00018 2.1666Z" fill="#3B3B3E"/>
</svg>
