<svg width="16" height="16" viewBox="0 0 16 16" fill="none" xmlns="http://www.w3.org/2000/svg">
<path d="M11.2138 6.45991L12.1472 4.83324C12.2405 4.67324 12.1805 4.47324 12.0272 4.37991C11.8672 4.28658 11.6672 4.33991 11.5738 4.49991L10.6205 6.15325C9.0005 5.43991 7.01384 5.43325 5.38051 6.15325L4.42718 4.49991C4.33385 4.33991 4.12719 4.28658 3.97385 4.37991C3.81385 4.47324 3.76052 4.67324 3.85386 4.83324L4.78717 6.45991C3.04717 7.46658 1.88051 9.25991 1.67384 11.2999C1.66718 11.3932 1.69385 11.4866 1.76051 11.5599C1.82718 11.6332 1.91384 11.6732 2.00718 11.6732H14.0072C14.1005 11.6732 14.1938 11.6332 14.2538 11.5599C14.3138 11.4866 14.3472 11.3932 14.3405 11.2999C14.1338 9.26658 12.9672 7.47324 11.2272 6.45991H11.2138ZM5.24717 9.71324C4.96717 9.71324 4.7405 9.48657 4.7405 9.20657C4.7405 8.92657 4.96717 8.70657 5.24717 8.70657C5.52717 8.70657 5.74717 8.93324 5.74717 9.20657C5.74717 9.47991 5.5205 9.71324 5.24717 9.71324ZM10.7538 9.71324C10.4738 9.71324 10.2538 9.48657 10.2538 9.20657C10.2538 8.92657 10.4805 8.70657 10.7538 8.70657C11.0272 8.70657 11.2605 8.93324 11.2605 9.20657C11.2605 9.47991 11.0338 9.71324 10.7538 9.71324Z" fill="#3B3B3E"/>
</svg>
