<svg width="16" height="16" viewBox="0 0 16 16" fill="none" xmlns="http://www.w3.org/2000/svg">
<path d="M8.5 4V2.5L11.5 5.5H10C8.94667 5.5 8.5 5.05333 8.5 4ZM8.72005 12.9467L9.27327 13.4733L9.20671 13.8467C9.20671 13.8467 9.17335 14 9.02002 14C8.86669 14 4 14 4 14C2.66667 14 2 13.3333 2 12V4C2 2.66667 2.66667 2 4 2H7.5V4C7.5 5.61333 8.38667 6.5 10 6.5H12V9.1C12 9.31333 11.78 9.33333 11.6667 9.33333C11.18 9.33333 10.74 9.59999 10.5267 10.0333L10.1934 10.6867L9.41341 10.8C8.93341 10.8667 8.54006 11.1933 8.39339 11.66C8.24673 12.12 8.37339 12.6133 8.72005 12.9467ZM5.83333 8C5.83333 8.276 6.05733 8.5 6.33333 8.5H9.33333C9.60933 8.5 9.83333 8.276 9.83333 8C9.83333 7.724 9.60933 7.5 9.33333 7.5H6.33333C6.05733 7.5 5.83333 7.724 5.83333 8ZM5.16667 10.6667C5.16667 10.3907 4.94267 10.1667 4.66667 10.1667C4.39067 10.1667 4.16667 10.3907 4.16667 10.6667C4.16667 10.9427 4.39067 11.1667 4.66667 11.1667C4.94267 11.1667 5.16667 10.9427 5.16667 10.6667ZM5.16667 8C5.16667 7.724 4.94267 7.5 4.66667 7.5C4.39067 7.5 4.16667 7.724 4.16667 8C4.16667 8.276 4.39067 8.5 4.66667 8.5C4.94267 8.5 5.16667 8.276 5.16667 8ZM7.83333 10.6667C7.83333 10.3907 7.60933 10.1667 7.33333 10.1667H6.33333C6.05733 10.1667 5.83333 10.3907 5.83333 10.6667C5.83333 10.9427 6.05733 11.1667 6.33333 11.1667H7.33333C7.60933 11.1667 7.83333 10.9427 7.83333 10.6667ZM13.9214 12.2227C14.0761 12.0753 13.9907 11.818 13.7773 11.788L12.6154 11.6227C12.5307 11.6107 12.4573 11.5587 12.4199 11.4833L11.9167 10.4847C11.8147 10.282 11.52 10.282 11.4173 10.4847L10.9141 11.4833C10.8761 11.5587 10.8026 11.6107 10.7186 11.6227L9.55664 11.788C9.34331 11.818 9.2586 12.0753 9.4126 12.2227L10.2526 13.024C10.3139 13.0827 10.342 13.1673 10.3273 13.25L10.1353 14.346C10.0959 14.5687 10.3347 14.7387 10.5387 14.634L11.5461 14.116C11.6214 14.0773 11.7119 14.0773 11.7873 14.116L12.7954 14.6347C12.9994 14.7393 13.2374 14.57 13.1981 14.3473L13.006 13.25C12.9914 13.1673 13.0194 13.0827 13.0807 13.024L13.9214 12.2227Z" fill="#3B3B3E"/>
</svg>
