<svg width="16" height="16" viewBox="0 0 16 16" fill="none" xmlns="http://www.w3.org/2000/svg">
<path d="M10.6663 2H5.33301C3.99967 2 3.33301 2.66667 3.33301 4V14L7.99967 11.3333L12.6663 14V4C12.6663 2.66667 11.9997 2 10.6663 2ZM9.66634 7.16667H8.49967V8.33333C8.49967 8.60933 8.27567 8.83333 7.99967 8.83333C7.72367 8.83333 7.49967 8.60933 7.49967 8.33333V7.16667H6.33301C6.05701 7.16667 5.83301 6.94267 5.83301 6.66667C5.83301 6.39067 6.05701 6.16667 6.33301 6.16667H7.49967V5C7.49967 4.724 7.72367 4.5 7.99967 4.5C8.27567 4.5 8.49967 4.724 8.49967 5V6.16667H9.66634C9.94234 6.16667 10.1663 6.39067 10.1663 6.66667C10.1663 6.94267 9.94234 7.16667 9.66634 7.16667Z" fill="#3B3B3E"/>
</svg>
