<svg width="16" height="16" viewBox="0 0 16 16" fill="none" xmlns="http://www.w3.org/2000/svg">
<path d="M14.5002 13.3333C14.5002 13.6093 14.2762 13.8333 14.0002 13.8333C13.7242 13.8333 13.5002 13.6093 13.5002 13.3333C13.5002 12.506 12.8269 11.8333 12.0002 11.8333H11.5422C10.9848 12.906 9.96482 13.7 8.73749 13.9287C8.61482 13.9514 8.50084 13.8514 8.50084 13.7267V8.66667C8.50084 8.39333 8.27417 8.16667 8.00084 8.16667C7.7275 8.16667 7.50084 8.39333 7.50084 8.66667V13.7267C7.50084 13.8514 7.38618 13.9514 7.26418 13.9287C6.03685 13.7 5.01683 12.906 4.45949 11.8333H4.00018C3.17352 11.8333 2.50018 12.506 2.50018 13.3333C2.50018 13.6093 2.27618 13.8333 2.00018 13.8333C1.72418 13.8333 1.50018 13.6093 1.50018 13.3333C1.50018 11.9547 2.62218 10.8333 4.00018 10.8333H4.09621C4.03888 10.5633 4.00018 10.2873 4.00018 10V9.16667H2.00018C1.72418 9.16667 1.50018 8.94267 1.50018 8.66667C1.50018 8.39067 1.72418 8.16667 2.00018 8.16667H4.00018V6.66667C4.00018 6.60533 4.00891 6.5533 4.01158 6.49463C2.96958 6.4553 2.05947 5.77794 1.73814 4.78727L1.52623 4.15934C1.43823 3.89734 1.57884 3.61406 1.84084 3.52539C2.10351 3.43872 2.38614 3.57869 2.47414 3.83936L2.68752 4.47266C2.88419 5.07866 3.44423 5.48868 4.08157 5.49935C4.14423 5.50002 4.20219 5.50064 4.25686 5.5013C4.56219 4.9473 5.14085 4.66602 6.00019 4.66602H10.0002C10.8595 4.66602 11.4382 4.9473 11.7435 5.5013C11.7982 5.5013 11.8561 5.50068 11.9188 5.49935C12.5561 5.48935 13.1162 5.07935 13.3115 4.47868L13.5262 3.84001C13.6142 3.57867 13.8989 3.43938 14.1595 3.52604C14.4215 3.61404 14.5621 3.89799 14.4741 4.15999L14.2609 4.79329C13.9409 5.77796 13.0314 6.4553 11.9894 6.49463C11.9921 6.5533 12.0008 6.60533 12.0008 6.66667V8.16667H14.0008C14.2768 8.16667 14.5008 8.39067 14.5008 8.66667C14.5008 8.94267 14.2768 9.16667 14.0008 9.16667H12.0008V10C12.0008 10.2873 11.9621 10.5633 11.9048 10.8333H12.0002C13.3782 10.8333 14.5002 11.9547 14.5002 13.3333ZM6.28811 3.66667H9.71226C9.8416 3.66667 9.94623 3.54262 9.90823 3.41862C9.65956 2.59795 8.90152 2 8.00019 2C7.09885 2 6.34081 2.59795 6.09214 3.41862C6.05414 3.54262 6.15877 3.66667 6.28811 3.66667Z" fill="#3B3B3E"/>
</svg>
