<svg width="16" height="16" viewBox="0 0 16 16" fill="none" xmlns="http://www.w3.org/2000/svg">
<path d="M14.5 2C14.5 2.276 14.276 2.5 14 2.5H13.3333V8.66667C13.3333 10.1933 12.5267 11 11 11H8.5V12.4L10.28 13.5867C10.5067 13.74 10.5667 14.0467 10.4133 14.28C10.32 14.42 10.16 14.5 10 14.5C9.90667 14.5 9.80667 14.4733 9.72 14.4133L8 13.2667L6.28 14.4133C6.04667 14.5667 5.74 14.5067 5.58667 14.28C5.43334 14.0467 5.49333 13.74 5.72 13.5867L7.5 12.4V11H5C3.47333 11 2.66667 10.1933 2.66667 8.66667V2.5H2C1.724 2.5 1.5 2.276 1.5 2C1.5 1.724 1.724 1.5 2 1.5H14C14.276 1.5 14.5 1.724 14.5 2Z" fill="#3B3B3E"/>
</svg>
