<svg width="16" height="16" viewBox="0 0 16 16" fill="none" xmlns="http://www.w3.org/2000/svg">
<path d="M10.6663 4.66634H1.99967C1.63167 4.66634 1.33301 4.36767 1.33301 3.99967C1.33301 3.63167 1.63167 3.33301 1.99967 3.33301H10.6663C11.0343 3.33301 11.333 3.63167 11.333 3.99967C11.333 4.36767 11.0343 4.66634 10.6663 4.66634ZM14.6663 7.99967C14.6663 7.63167 14.3677 7.33301 13.9997 7.33301H1.99967C1.63167 7.33301 1.33301 7.63167 1.33301 7.99967C1.33301 8.36767 1.63167 8.66634 1.99967 8.66634H13.9997C14.3677 8.66634 14.6663 8.36767 14.6663 7.99967ZM8.66634 11.9997C8.66634 11.6317 8.36767 11.333 7.99967 11.333H1.99967C1.63167 11.333 1.33301 11.6317 1.33301 11.9997C1.33301 12.3677 1.63167 12.6663 1.99967 12.6663H7.99967C8.36767 12.6663 8.66634 12.3677 8.66634 11.9997Z" fill="#3B3B3E"/>
</svg>
