<svg width="16" height="16" viewBox="0 0 16 16" fill="none" xmlns="http://www.w3.org/2000/svg">
<path d="M11.75 2H4.25C2.75 2 2 2.75 2 4.25V11.75C2 13.25 2.75 14 4.25 14H11.75C13.25 14 14 13.25 14 11.75V4.25C14 2.75 13.25 2 11.75 2ZM5.34733 8.83333C4.88733 8.83333 4.51066 8.46 4.51066 8C4.51066 7.54 4.88066 7.16667 5.34066 7.16667H5.34733C5.80733 7.16667 6.18066 7.54 6.18066 8C6.18066 8.46 5.80733 8.83333 5.34733 8.83333ZM8.014 8.83333C7.554 8.83333 7.17733 8.46 7.17733 8C7.17733 7.54 7.54732 7.16667 8.00732 7.16667H8.014C8.474 7.16667 8.84733 7.54 8.84733 8C8.84733 8.46 8.474 8.83333 8.014 8.83333ZM10.6807 8.83333C10.2207 8.83333 9.84399 8.46 9.84399 8C9.84399 7.54 10.214 7.16667 10.674 7.16667H10.6807C11.1407 7.16667 11.514 7.54 11.514 8C11.514 8.46 11.1407 8.83333 10.6807 8.83333Z" fill="#3B3B3E"/>
</svg>
