<svg width="16" height="16" viewBox="0 0 16 16" fill="none" xmlns="http://www.w3.org/2000/svg">
<path d="M13.4197 7.99967H12.333V10.6663L11.333 9.99967L10.333 10.6663V7.99967H10.0863C10.9197 7.99967 11.333 7.57967 11.333 6.74634V2.57967C11.333 1.74634 10.9197 1.33301 10.0863 1.33301H8.99967V3.99967L7.99967 3.33301L6.99967 3.99967V1.33301H5.91968C5.08634 1.33301 4.66634 1.74634 4.66634 2.57967V6.74634C4.66634 7.57967 5.08634 7.99967 5.91968 7.99967H5.66634V10.6663L4.66634 9.99967L3.66634 10.6663V7.99967H2.58634C1.75301 7.99967 1.33301 8.413 1.33301 9.24634V13.413C1.33301 14.2463 1.75301 14.6663 2.58634 14.6663H6.75301C7.58634 14.6663 7.99967 14.2463 7.99967 13.413C7.99967 14.2463 8.41968 14.6663 9.25301 14.6663H13.4197C14.253 14.6663 14.6663 14.2463 14.6663 13.413V9.24634C14.6663 8.413 14.253 7.99967 13.4197 7.99967ZM7.99967 9.24634C7.99967 8.413 7.58634 7.99967 6.75301 7.99967H9.25301C8.41968 7.99967 7.99967 8.413 7.99967 9.24634Z" fill="#3B3B3E"/>
</svg>
