<svg width="16" height="16" viewBox="0 0 16 16" fill="none" xmlns="http://www.w3.org/2000/svg">
<path d="M4.00635 4.33268C4.00635 2.86202 5.20235 1.66602 6.67301 1.66602C8.14368 1.66602 9.33968 2.86202 9.33968 4.33268C9.33968 5.80335 8.14368 6.99935 6.67301 6.99935C5.20235 6.99935 4.00635 5.80335 4.00635 4.33268ZM10.1737 9.21265C10.187 9.21265 10.2003 9.21932 10.2203 9.21932C10.3003 9.21932 10.3403 9.16603 10.3337 9.09937C10.3337 9.04603 10.2803 9.006 10.2537 8.986C9.70033 8.586 8.96033 8.33268 8.00033 8.33268H5.33366C2.62699 8.33268 1.66699 10.3127 1.66699 12.0127C1.66699 13.5327 2.47366 14.3327 4.00033 14.3327H8.68701C8.79368 14.3327 8.88029 14.2593 8.88029 14.1393C8.88029 14.0993 8.84032 14.0193 8.82699 13.9927L8.48031 13.3993C8.32697 13.1393 8.29362 12.8261 8.38029 12.5394C8.42696 12.3927 8.50035 12.2527 8.60702 12.1393C8.61368 12.1327 8.66699 12.074 8.66699 11.9993C8.66699 11.946 8.64035 11.8927 8.60702 11.8594C8.43368 11.6594 8.33366 11.406 8.33366 11.1393C8.33366 10.926 8.40036 10.7527 8.45369 10.646C8.46703 10.6193 8.47365 10.5993 8.48698 10.5793L8.99365 9.74601C9.18699 9.39935 9.55369 9.18604 9.94702 9.18604C10.027 9.18604 10.1003 9.19265 10.1737 9.21265ZM14.5803 12.7727C14.6137 12.7927 14.627 12.8194 14.627 12.8527C14.627 12.8727 14.627 12.8927 14.6137 12.906L14.107 13.7594C14.0803 13.806 14.0136 13.826 13.967 13.7993C13.827 13.7193 13.667 13.6794 13.507 13.6794C13.347 13.6794 13.187 13.7193 13.047 13.7993C12.767 13.9593 12.5937 14.2527 12.5937 14.566C12.5937 14.6193 12.547 14.666 12.4937 14.666H11.4736C11.4136 14.666 11.367 14.6193 11.367 14.566V14.546C11.367 14.2393 11.187 13.9593 10.9137 13.7993C10.6337 13.6393 10.2803 13.6393 9.99365 13.7993C9.98032 13.806 9.96702 13.8127 9.94702 13.8127C9.91369 13.8127 9.87368 13.7927 9.85368 13.7594L9.34701 12.906C9.32034 12.8593 9.33363 12.7994 9.38696 12.7727C9.6603 12.6127 9.84033 12.326 9.84033 12.0194V11.9993C9.84033 11.6793 9.66696 11.386 9.38696 11.226C9.35363 11.206 9.33366 11.1727 9.33366 11.1393C9.33366 11.126 9.34034 11.106 9.34701 11.0927L9.86035 10.2393C9.88702 10.1927 9.94699 10.1727 9.99365 10.1994C10.1337 10.2794 10.2937 10.3193 10.4537 10.3193C10.6137 10.3193 10.7737 10.2794 10.9137 10.1994C11.2003 10.0394 11.3737 9.74603 11.3737 9.4327C11.3737 9.37937 11.4136 9.33268 11.4736 9.33268H12.487C12.547 9.33268 12.5937 9.37937 12.5937 9.4327C12.5937 9.74603 12.767 10.0394 13.047 10.1994C13.187 10.2794 13.347 10.3193 13.507 10.3193C13.667 10.3193 13.827 10.2794 13.967 10.1994L14.0536 10.1527L14.667 11.1794L14.5803 11.226C14.2937 11.386 14.1204 11.6793 14.1204 11.9993C14.1204 12.3193 14.2937 12.6127 14.5803 12.7727ZM12.7804 11.9993C12.7804 11.5793 12.4337 11.2393 12.0137 11.2393H12.007C11.587 11.2393 11.247 11.5793 11.247 11.9993C11.247 12.4193 11.5937 12.7594 12.0137 12.7594C12.4337 12.7594 12.7804 12.4193 12.7804 11.9993Z" fill="#3B3B3E"/>
</svg>
