<svg width="16" height="16" viewBox="0 0 16 16" fill="none" xmlns="http://www.w3.org/2000/svg">
<path d="M7.13788 5.8052L4.94257 8.00051L7.13788 10.1958C7.39855 10.4565 7.39855 10.8779 7.13788 11.1385C7.00788 11.2685 6.8372 11.3338 6.66653 11.3338C6.49586 11.3338 6.32517 11.2685 6.19517 11.1385L3.52851 8.47187C3.26784 8.2112 3.26784 7.78983 3.52851 7.52916L6.19517 4.86249C6.45584 4.60183 6.87722 4.60183 7.13788 4.86249C7.39855 5.12316 7.39855 5.54453 7.13788 5.8052ZM12.4712 7.52916L9.80455 4.86249C9.54388 4.60183 9.12251 4.60183 8.86184 4.86249C8.60117 5.12316 8.60117 5.54453 8.86184 5.8052L11.0572 8.00051L8.86184 10.1958C8.60117 10.4565 8.60117 10.8779 8.86184 11.1385C8.99184 11.2685 9.16253 11.3338 9.3332 11.3338C9.50386 11.3338 9.67455 11.2685 9.80455 11.1385L12.4712 8.47187C12.7319 8.2112 12.7319 7.78983 12.4712 7.52916Z" fill="#3B3B3E"/>
</svg>
