<svg width="16" height="16" viewBox="0 0 16 16" fill="none" xmlns="http://www.w3.org/2000/svg">
<path d="M7.99967 1.33301C4.31767 1.33301 1.33301 4.31767 1.33301 7.99967C1.33301 11.6817 4.31767 14.6663 7.99967 14.6663C11.6817 14.6663 14.6663 11.6817 14.6663 7.99967C14.6663 4.31767 11.6817 1.33301 7.99967 1.33301ZM5.33301 4.83301H8.66634C8.94234 4.83301 9.16634 5.05701 9.16634 5.33301C9.16634 5.60901 8.94234 5.83301 8.66634 5.83301H5.33301C5.05701 5.83301 4.83301 5.60901 4.83301 5.33301C4.83301 5.05701 5.05701 4.83301 5.33301 4.83301ZM7.33301 11.1663H5.33301C5.05701 11.1663 4.83301 10.9423 4.83301 10.6663C4.83301 10.3903 5.05701 10.1663 5.33301 10.1663H7.33301C7.60901 10.1663 7.83301 10.3903 7.83301 10.6663C7.83301 10.9423 7.60901 11.1663 7.33301 11.1663ZM10.6663 8.49967H5.33301C5.05701 8.49967 4.83301 8.27567 4.83301 7.99967C4.83301 7.72367 5.05701 7.49967 5.33301 7.49967H10.6663C10.9423 7.49967 11.1663 7.72367 11.1663 7.99967C11.1663 8.27567 10.9423 8.49967 10.6663 8.49967Z" fill="#3B3B3E"/>
</svg>
