<svg width="16" height="16" viewBox="0 0 16 16" fill="none" xmlns="http://www.w3.org/2000/svg">
<path d="M12.4463 9.98063H14.113C13.9263 10.3273 13.6864 10.6473 13.3997 10.934L10.9329 13.4006C10.6463 13.6873 10.3263 13.9273 9.97965 14.114V12.4473C9.97965 11.0873 11.0863 9.98063 12.4463 9.98063ZM14.6663 7.88061C14.6663 8.25395 14.6197 8.6273 14.513 8.98063H12.4463C10.533 8.98063 8.97965 10.534 8.97965 12.4473V14.514C8.62632 14.6207 8.25305 14.6673 7.87972 14.6673C4.25972 14.6673 1.33301 11.7407 1.33301 8.12069V7.88061C1.33301 4.26062 4.25972 1.33398 7.87972 1.33398H8.11963C11.7396 1.33398 14.6663 4.26062 14.6663 7.88061ZM8.49967 9.33398C8.49967 9.05798 8.27567 8.83398 7.99967 8.83398H5.33301C5.05701 8.83398 4.83301 9.05798 4.83301 9.33398C4.83301 9.60998 5.05701 9.83398 5.33301 9.83398H7.99967C8.27567 9.83398 8.49967 9.60998 8.49967 9.33398ZM11.1663 6.33398C11.1663 6.05798 10.9423 5.83398 10.6663 5.83398H5.40706C5.13106 5.83398 4.90706 6.05798 4.90706 6.33398C4.90706 6.60998 5.13106 6.83398 5.40706 6.83398H10.6663C10.9423 6.83398 11.1663 6.60998 11.1663 6.33398Z" fill="#3B3B3E"/>
</svg>
