<svg width="16" height="16" viewBox="0 0 16 16" fill="none" xmlns="http://www.w3.org/2000/svg">
<path d="M11.9997 8.66602C10.5263 8.66602 9.33301 9.85935 9.33301 11.3327C9.33301 12.806 10.5263 13.9993 11.9997 13.9993C13.473 13.9993 14.6663 12.806 14.6663 11.3327C14.6663 9.85935 13.473 8.66602 11.9997 8.66602ZM12.833 11.666H12.333V12.166C12.333 12.3527 12.1863 12.4993 11.9997 12.4993C11.813 12.4993 11.6663 12.3527 11.6663 12.166V11.666H11.1663C10.9797 11.666 10.833 11.5193 10.833 11.3327C10.833 11.146 10.9797 10.9993 11.1663 10.9993H11.6663V10.4993C11.6663 10.3127 11.813 10.166 11.9997 10.166C12.1863 10.166 12.333 10.3127 12.333 10.4993V10.9993H12.833C13.0197 10.9993 13.1663 11.146 13.1663 11.3327C13.1663 11.5193 13.0197 11.666 12.833 11.666ZM11.333 2.66602H3.33301C1.99967 2.66602 1.33301 3.33268 1.33301 4.66602V9.99935C1.33301 11.3327 1.99967 11.9993 3.33301 11.9993H8.15301C8.26635 11.9993 8.35968 11.906 8.35968 11.7927C8.33968 11.6394 8.33301 11.486 8.33301 11.3327C8.33301 9.31268 9.97967 7.66602 11.9997 7.66602C12.373 7.66602 12.733 7.71934 13.0663 7.82601C13.1997 7.86601 13.333 7.7727 13.333 7.63936V4.66602C13.333 3.33268 12.6663 2.66602 11.333 2.66602ZM3.33301 7.99935C2.96634 7.99935 2.66634 7.69935 2.66634 7.33268C2.66634 6.96602 2.96634 6.66602 3.33301 6.66602C3.69967 6.66602 3.99967 6.96602 3.99967 7.33268C3.99967 7.69935 3.69967 7.99935 3.33301 7.99935ZM7.33301 9.33268C6.22634 9.33268 5.33301 8.43935 5.33301 7.33268C5.33301 6.22602 6.22634 5.33268 7.33301 5.33268C8.43967 5.33268 9.33301 6.22602 9.33301 7.33268C9.33301 8.43935 8.43967 9.33268 7.33301 9.33268Z" fill="#3B3B3E"/>
</svg>
