<svg width="16" height="16" viewBox="0 0 16 16" fill="none" xmlns="http://www.w3.org/2000/svg">
<path d="M14.3537 5.92733L12.1317 8.14933C12.0343 8.24667 11.9063 8.29598 11.7783 8.29598C11.6503 8.29598 11.5223 8.24733 11.425 8.14933L10.3136 7.038C10.1183 6.84334 10.1183 6.52598 10.3136 6.33065C10.509 6.13531 10.8257 6.13531 11.021 6.33065L11.779 7.08805L13.6476 5.21932C13.843 5.02399 14.1596 5.02399 14.355 5.21932C14.5503 5.41465 14.549 5.73199 14.3537 5.92733ZM6.67301 6.99935C8.14368 6.99935 9.33968 5.80335 9.33968 4.33268C9.33968 2.86202 8.14368 1.66602 6.67301 1.66602C5.20235 1.66602 4.00635 2.86202 4.00635 4.33268C4.00635 5.80335 5.20235 6.99935 6.67301 6.99935ZM8.00033 8.33268H5.33366C2.62699 8.33268 1.66699 10.3147 1.66699 12.012C1.66699 13.53 2.47436 14.3327 4.00236 14.3327H9.33162C10.8596 14.3327 11.667 13.53 11.667 12.012C11.667 10.3147 10.707 8.33268 8.00033 8.33268Z" fill="#3B3B3E"/>
</svg>
