<svg width="16" height="16" viewBox="0 0 16 16" fill="none" xmlns="http://www.w3.org/2000/svg">
<path d="M14 1.5H2C1.724 1.5 1.5 1.724 1.5 2C1.5 2.276 1.724 2.5 2 2.5H2.66667V8.66667C2.66667 10.1933 3.47333 11 5 11H7.5V12.4L5.72 13.5867C5.49333 13.74 5.43334 14.0467 5.58667 14.28C5.74 14.5067 6.04667 14.5667 6.28 14.4133L8 13.2667L9.72 14.4133C9.80667 14.4733 9.90667 14.5 10 14.5C10.16 14.5 10.32 14.42 10.4133 14.28C10.5667 14.0467 10.5067 13.74 10.28 13.5867L8.5 12.4V11H11C12.5267 11 13.3333 10.1933 13.3333 8.66667V2.5H14C14.276 2.5 14.5 2.276 14.5 2C14.5 1.724 14.276 1.5 14 1.5ZM11.1667 6.77132C11.1667 7.04732 10.9427 7.27132 10.6667 7.27132C10.3907 7.27132 10.1667 7.04732 10.1667 6.77132V6.31201L9.128 7.35067C8.75333 7.72533 8.14334 7.72533 7.76934 7.35067L6.98334 6.5647L5.68734 7.91602C5.59 8.01335 5.462 8.06266 5.334 8.06266C5.206 8.06266 5.078 8.01402 4.98066 7.91602C4.78533 7.72068 4.78533 7.40399 4.98066 7.20866L6.332 5.85734C6.70667 5.48267 7.31666 5.48267 7.69066 5.85734L8.47666 6.64331L9.48467 5.60466H9C8.724 5.60466 8.5 5.38066 8.5 5.10466C8.5 4.82866 8.724 4.60466 9 4.60466H10.6667C10.732 4.60466 10.7967 4.61798 10.858 4.64331C10.98 4.69398 11.0773 4.79131 11.1287 4.91398C11.154 4.97531 11.1673 5.03997 11.1673 5.10531V6.77132H11.1667Z" fill="#3B3B3E"/>
</svg>
