<svg width="16" height="16" viewBox="0 0 16 16" fill="none" xmlns="http://www.w3.org/2000/svg">
<path d="M14 8.00065C14 11.3347 11.3133 13.3346 8 13.3346C7.14667 13.3346 6.33994 13.2013 5.60661 12.948C4.71327 13.9013 3.25331 14.028 2.30664 13.9946C2.01997 13.988 1.89328 13.6213 2.11328 13.4347C2.83995 12.848 3.19997 12.1147 3.29997 11.474C2.48663 10.594 2 9.414 2 8C2 4.666 4.68667 2.66602 8 2.66602C8.81933 2.66602 9.60594 2.78933 10.3219 3.03133C10.4279 3.06733 10.478 3.18467 10.444 3.29134C10.318 3.69134 10.2893 4.12864 10.4113 4.60531C10.6326 5.46797 11.3647 6.15068 12.2433 6.29801C12.6787 6.37135 13.0973 6.33137 13.4673 6.18937C13.5766 6.14737 13.7026 6.19401 13.7393 6.30534C13.9119 6.82334 14 7.38865 14 8.00065ZM14 4C14 3.26333 13.4027 2.66667 12.6667 2.66667C11.9307 2.66667 11.3333 3.26333 11.3333 4C11.3333 4.73667 11.9307 5.33333 12.6667 5.33333C13.4027 5.33333 14 4.73667 14 4Z" fill="#3B3B3E"/>
</svg>
