<svg width="16" height="16" viewBox="0 0 16 16" fill="none" xmlns="http://www.w3.org/2000/svg">
<path d="M13.333 4.66602V5.49935H1.33301V4.66602C1.33301 3.33268 1.99967 2.66602 3.33301 2.66602H11.333C12.6663 2.66602 13.333 3.33268 13.333 4.66602ZM13.333 6.49935V7.49268C13.333 7.59268 13.253 7.67267 13.153 7.69267C12.8263 7.73933 12.5263 7.89269 12.2863 8.13269L8.62634 11.8127C8.57301 11.866 8.43968 11.9993 8.23301 11.9993H3.33301C1.99967 11.9993 1.33301 11.3327 1.33301 9.99935V6.49935H13.333V6.49935ZM6.49967 9.33268C6.49967 9.05668 6.27567 8.83268 5.99967 8.83268H3.99967C3.72367 8.83268 3.49967 9.05668 3.49967 9.33268C3.49967 9.60868 3.72367 9.83268 3.99967 9.83268H5.99967C6.27567 9.83268 6.49967 9.60868 6.49967 9.33268ZM9.335 12.472V13.9513H10.8143L13.4803 11.2987L11.9877 9.80603L9.335 12.472ZM14.493 9.45337L13.833 8.79334C13.5997 8.56 13.2263 8.56 12.993 8.79334L12.453 9.34001L13.9457 10.8327L14.4924 10.2927C14.7264 10.0594 14.7263 9.6867 14.493 9.45337Z" fill="#3B3B3E"/>
</svg>
