<svg width="16" height="16" viewBox="0 0 16 16" fill="none" xmlns="http://www.w3.org/2000/svg">
<path d="M9.99884 11.346C9.85817 11.346 9.71684 11.302 9.59617 11.21C8.68084 10.5153 7.31749 10.5153 6.40216 11.21C6.10816 11.4333 5.69074 11.3747 5.46808 11.082C5.24541 10.7887 5.30284 10.3707 5.59617 10.148C6.97884 9.09799 9.01949 9.09799 10.4022 10.148C10.6955 10.3707 10.7528 10.7887 10.5301 11.082C10.3994 11.2547 10.2008 11.346 9.99884 11.346ZM12.5049 9.25401C12.7449 8.97467 12.7129 8.55401 12.4349 8.31401C11.2035 7.25601 9.62881 6.67334 8.00014 6.67334C6.37147 6.67334 4.79624 7.25601 3.56557 8.31401C3.2869 8.55401 3.25475 8.97467 3.49542 9.25401C3.73475 9.53401 4.15619 9.56467 4.43552 9.32467C5.42352 8.47467 6.69012 8.006 8.00079 8.006C9.31146 8.006 10.5776 8.474 11.5662 9.32467C11.6922 9.43267 11.8468 9.486 12.0008 9.486C12.1868 9.486 12.3735 9.40801 12.5049 9.25401ZM14.4962 7.40666C14.7416 7.13266 14.7182 6.71067 14.4442 6.46533C12.6695 4.876 10.3808 4 7.99949 4C5.61816 4 3.32949 4.87533 1.55483 6.46533C1.28083 6.71067 1.25741 7.13266 1.50274 7.40666C1.74874 7.68132 2.17082 7.70333 2.44415 7.45866C3.97415 6.08866 5.94682 5.334 7.99949 5.334C10.0522 5.334 12.0248 6.08866 13.5548 7.45866C13.6815 7.57266 13.8408 7.62866 13.9995 7.62866C14.1822 7.628 14.3649 7.55332 14.4962 7.40666ZM7.99949 11.8333C7.53949 11.8333 7.16616 12.2067 7.16616 12.6667C7.16616 13.1267 7.53949 13.5 7.99949 13.5C8.45949 13.5 8.83282 13.1267 8.83282 12.6667C8.83282 12.2067 8.45949 11.8333 7.99949 11.8333Z" fill="#3B3B3E"/>
</svg>
