<svg width="16" height="16" viewBox="0 0 16 16" fill="none" xmlns="http://www.w3.org/2000/svg">
<path d="M13.9997 8.00033C13.9997 8.22766 13.9864 8.44433 13.9644 8.65633C13.945 8.80966 13.7997 8.86164 13.7157 8.83431C13.2123 8.66898 12.6604 8.62099 12.0871 8.71566C10.5057 8.97632 9.32834 10.4104 9.33301 12.013C9.33434 12.3424 9.38166 12.6583 9.47233 12.959C9.507 13.075 9.44241 13.1976 9.32308 13.2196C8.89708 13.297 8.45302 13.3357 7.99902 13.3357C7.14569 13.3357 6.33896 13.2023 5.60563 12.949C4.7123 13.9023 3.25233 14.029 2.30566 13.9957C2.019 13.989 1.8923 13.6224 2.1123 13.4357C2.83897 12.849 3.19899 12.1157 3.29899 11.475C2.48566 10.595 1.99902 9.41498 1.99902 8.00098C1.99902 4.66698 4.68569 2.66699 7.99902 2.66699C11.3124 2.66699 13.9997 4.66633 13.9997 8.00033ZM12.131 13.6864L14.353 11.4644C14.5484 11.269 14.5484 10.9523 14.353 10.757C14.1577 10.5617 13.841 10.5617 13.6457 10.757L11.777 12.6257L11.019 11.8683C10.8237 11.673 10.507 11.673 10.3117 11.8683C10.1164 12.0637 10.1164 12.3803 10.3117 12.5757L11.423 13.687C11.5203 13.7843 11.6484 13.8337 11.7764 13.8337C11.9044 13.8337 12.0337 13.7844 12.131 13.6864Z" fill="#3B3B3E"/>
</svg>
