<svg width="16" height="16" viewBox="0 0 16 16" fill="none" xmlns="http://www.w3.org/2000/svg">
<path d="M11.75 2H4.25C2.75 2 2 2.75 2 4.25V11.75C2 13.25 2.75 14 4.25 14H11.75C13.25 14 14 13.25 14 11.75V4.25C14 2.75 13.25 2 11.75 2ZM10.6667 9.83333H5.33333C5.05733 9.83333 4.83333 9.60933 4.83333 9.33333C4.83333 9.05733 5.05733 8.83333 5.33333 8.83333H10.6667C10.9427 8.83333 11.1667 9.05733 11.1667 9.33333C11.1667 9.60933 10.9433 9.83333 10.6667 9.83333ZM10.6667 7.16667H5.33333C5.05733 7.16667 4.83333 6.94267 4.83333 6.66667C4.83333 6.39067 5.05733 6.16667 5.33333 6.16667H10.6667C10.9427 6.16667 11.1667 6.39067 11.1667 6.66667C11.1667 6.94267 10.9433 7.16667 10.6667 7.16667Z" fill="#3B3B3E"/>
</svg>
