<svg width="16" height="16" viewBox="0 0 16 16" fill="none" xmlns="http://www.w3.org/2000/svg">
<path d="M13.753 5.87347C12.9797 3.1468 10.3663 1.27343 7.53302 1.33343C4.09968 1.40677 1.33969 4.20008 1.33302 7.64675C1.32636 10.5334 3.32637 13.1334 6.13303 13.8134C7.2397 14.0867 8.34635 14.0534 9.34635 13.7734C9.47302 13.7334 9.52636 13.5867 9.45969 13.4667C9.27303 13.1601 9.13302 12.8134 9.05969 12.4267C8.89302 11.56 9.07302 10.7267 9.55302 10.1334C9.97302 9.62007 10.593 9.33343 11.3064 9.33343C11.713 9.33343 12.053 9.44004 12.333 9.60671C12.613 9.44004 12.953 9.33343 13.3597 9.33343H13.3663C13.4397 9.33343 13.5063 9.33344 13.573 9.3401C13.5997 9.34344 13.6217 9.34206 13.6357 9.34206C13.7157 9.34206 13.7677 9.30146 13.7943 9.22813C13.8077 9.20146 13.811 9.17208 13.8197 9.14675C14.073 8.12008 14.0664 6.9868 13.753 5.87347ZM11.0197 6.82009L9.34369 8.49603C8.91502 8.92403 8.21837 8.92484 7.78837 8.49684L6.83502 7.54543C6.79568 7.50609 6.73236 7.50676 6.69303 7.54543L5.01902 9.2195C4.92169 9.31683 4.79369 9.36615 4.66569 9.36615C4.53769 9.36615 4.40969 9.3175 4.31235 9.2195C4.11702 9.02417 4.11702 8.70748 4.31235 8.51214L5.98637 6.83807C6.4157 6.4094 7.11302 6.40942 7.54168 6.83742L8.49503 7.78875C8.53437 7.82742 8.59702 7.82742 8.63702 7.78875L10.313 6.11273C10.5084 5.9174 10.825 5.9174 11.0204 6.11273C11.2157 6.30806 11.215 6.62542 11.0197 6.82009ZM14.6197 12.2335C14.3197 13.7802 12.333 14.6668 12.333 14.6668C12.333 14.6668 10.3464 13.7802 10.0464 12.2335C9.8597 11.2935 10.2664 10.3401 11.2997 10.3334C11.3064 10.3334 11.3064 10.3334 11.3064 10.3334C12.073 10.3334 12.333 11.0934 12.333 11.0934C12.333 11.0934 12.593 10.3334 13.3597 10.3334C13.3597 10.3334 13.3597 10.3334 13.3663 10.3334C14.4063 10.3401 14.8064 11.2935 14.6197 12.2335Z" fill="#3B3B3E"/>
</svg>
