<svg width="16" height="16" viewBox="0 0 16 16" fill="none" xmlns="http://www.w3.org/2000/svg">
<path fill-rule="evenodd" clip-rule="evenodd" d="M7.99967 1.33301C4.31767 1.33301 1.33301 4.31767 1.33301 7.99967C1.33301 11.6817 4.31767 14.6663 7.99967 14.6663C11.6817 14.6663 14.6663 11.6817 14.6663 7.99967C14.6663 4.31767 11.6817 1.33301 7.99967 1.33301ZM10.353 10.353C10.2557 10.4504 10.1277 10.4997 9.99967 10.4997C9.87167 10.4997 9.74365 10.451 9.64632 10.353L7.64632 8.35303C7.55232 8.25903 7.49967 8.13167 7.49967 7.99967V4.66634C7.49967 4.39034 7.72367 4.16634 7.99967 4.16634C8.27567 4.16634 8.49967 4.39034 8.49967 4.66634V7.79232L10.353 9.64567C10.5484 9.84167 10.5484 10.1577 10.353 10.353Z" fill="#3B3B3E"/>
</svg>
