<svg width="16" height="16" viewBox="0 0 16 16" fill="none" xmlns="http://www.w3.org/2000/svg">
<path d="M5.16699 2H10.8337C11.109 2 11.3337 2.22467 11.3337 2.5V3.96663C11.3337 4.0773 11.2443 4.16667 11.1336 4.16667H4.86702C4.75636 4.16667 4.66699 4.0773 4.66699 3.96663V2.5C4.66699 2.22467 4.89166 2 5.16699 2ZM4.87158 5.42074C4.83558 5.29407 4.93701 5.16667 5.06901 5.16667H10.9316C11.0636 5.16667 11.1657 5.29472 11.1291 5.42139C10.9791 5.94339 10.735 6.42866 10.4084 6.86133C10.1457 7.20933 10.0003 7.63138 10.0003 8.06738V13.0007C10.0003 13.5527 9.55233 14.0007 9.00033 14.0007H7.00033C6.44833 14.0007 6.00033 13.5527 6.00033 13.0007V8.06738C6.00033 7.63672 5.85767 7.21864 5.59701 6.87598C5.26501 6.43931 5.02158 5.94874 4.87158 5.42074ZM8.00033 8.16667C7.72433 8.16667 7.50033 8.39067 7.50033 8.66667V10C7.50033 10.276 7.72433 10.5 8.00033 10.5C8.27633 10.5 8.50033 10.276 8.50033 10V8.66667C8.50033 8.39067 8.27633 8.16667 8.00033 8.16667Z" fill="#3B3B3E"/>
</svg>
