<svg width="16" height="16" viewBox="0 0 16 16" fill="none" xmlns="http://www.w3.org/2000/svg">
<path d="M7.99967 1.33301C4.31767 1.33301 1.33301 4.31767 1.33301 7.99967C1.33301 11.6817 4.31767 14.6663 7.99967 14.6663C11.6817 14.6663 14.6663 11.6817 14.6663 7.99967C14.6663 4.31767 11.6817 1.33301 7.99967 1.33301ZM10.6663 8.49967H6.54036L7.68701 9.64632C7.88234 9.84165 7.88234 10.1583 7.68701 10.3537C7.58968 10.451 7.46166 10.5003 7.33366 10.5003C7.20566 10.5003 7.07764 10.4517 6.98031 10.3537L4.98031 8.35368C4.93431 8.30768 4.89773 8.25241 4.8724 8.19108C4.82173 8.06908 4.82173 7.93108 4.8724 7.80908C4.89773 7.74775 4.93431 7.69232 4.98031 7.64632L6.98031 5.64632C7.17564 5.45099 7.49233 5.45099 7.68766 5.64632C7.883 5.84165 7.883 6.15834 7.68766 6.35368L6.54102 7.50033H10.6663C10.9423 7.50033 11.1663 7.72433 11.1663 8.00033C11.1663 8.27633 10.9423 8.49967 10.6663 8.49967Z" fill="#3B3B3E"/>
</svg>
