<svg width="16" height="16" viewBox="0 0 16 16" fill="none" xmlns="http://www.w3.org/2000/svg">
<path d="M12.7333 2.74666C11.74 2.38666 10.16 2 8 2C5.84 2 4.26668 2.38666 3.26668 2.74666C2.50668 3.02 2 3.73334 2 4.54667V4.82666C2 5.54666 2.40668 6.20666 3.05334 6.53332L3.33333 6.67334V13.0067C3.33333 13.56 3.78 14.0067 4.33333 14.0067H11.6667C12.22 14.0067 12.6667 13.56 12.6667 13.0067V6.67334L13.44 5.9C13.8 5.54 14 5.05999 14 4.55332C14 3.74666 13.4933 3.02667 12.7333 2.75334V2.74666ZM4.84668 5.33333C4.84668 5.06 5.06668 4.83333 5.34668 4.83333C5.62668 4.83333 5.84668 5.06 5.84668 5.33333C5.84668 5.60667 5.62668 5.83333 5.34668 5.83333C5.06668 5.83333 4.84668 5.60667 4.84668 5.33333ZM6.01335 11.8333C5.74001 11.8333 5.51335 11.6067 5.51335 11.3333C5.51335 11.06 5.73335 10.8333 6.01335 10.8333C6.29335 10.8333 6.51335 11.06 6.51335 11.3333C6.51335 11.6067 6.29335 11.8333 6.01335 11.8333ZM6.68001 8.5C6.40668 8.5 6.18001 8.27333 6.18001 8C6.18001 7.72667 6.40001 7.5 6.68001 7.5C6.96001 7.5 7.18001 7.72667 7.18001 8C7.18001 8.27333 6.96001 8.5 6.68001 8.5ZM9.34668 9.83333C9.07335 9.83333 8.84668 9.60667 8.84668 9.33333C8.84668 9.06 9.06668 8.83333 9.34668 8.83333C9.62668 8.83333 9.84668 9.06 9.84668 9.33333C9.84668 9.60667 9.62668 9.83333 9.34668 9.83333ZM9.51335 6C9.51335 5.72667 9.73335 5.5 10.0133 5.5C10.2933 5.5 10.5133 5.72667 10.5133 6C10.5133 6.27333 10.2933 6.5 10.0133 6.5C9.73335 6.5 9.51335 6.27333 9.51335 6ZM10.68 12.5C10.4067 12.5 10.18 12.2733 10.18 12C10.18 11.7267 10.4 11.5 10.68 11.5C10.96 11.5 11.18 11.7267 11.18 12C11.18 12.2733 10.96 12.5 10.68 12.5Z" fill="#3B3B3E"/>
</svg>
