<svg width="16" height="16" viewBox="0 0 16 16" fill="none" xmlns="http://www.w3.org/2000/svg">
<path d="M9.83301 4V2.5L12.833 5.5H11.333C10.2797 5.5 9.83301 5.05333 9.83301 4ZM13.333 6.5V12C13.333 13.3333 12.6663 14 11.333 14H5.33301C3.99967 14 3.33301 13.3333 3.33301 12V4C3.33301 2.66667 3.99967 2 5.33301 2H8.83301V4C8.83301 5.61333 9.71967 6.5 11.333 6.5H13.333ZM6.04036 10.6667L7.02035 9.68667C7.21568 9.49133 7.21568 9.17466 7.02035 8.97933C6.82501 8.784 6.50832 8.784 6.31299 8.97933L4.97965 10.3127C4.78432 10.508 4.78432 10.8247 4.97965 11.02L6.31299 12.3533C6.41032 12.4507 6.53834 12.5 6.66634 12.5C6.79434 12.5 6.92236 12.4513 7.01969 12.3533C7.21503 12.158 7.21503 11.8413 7.01969 11.646L6.04036 10.6667ZM10.353 10.3133L9.01969 8.98C8.82436 8.78467 8.50767 8.78467 8.31234 8.98C8.117 9.17533 8.117 9.492 8.31234 9.68734L9.29232 10.6673L8.31234 11.6473C8.117 11.8427 8.117 12.1593 8.31234 12.3547C8.40967 12.452 8.53769 12.5013 8.66569 12.5013C8.79369 12.5013 8.92171 12.4527 9.01904 12.3547L10.3524 11.0213C10.5484 10.8253 10.5484 10.508 10.353 10.3133Z" fill="#3B3B3E"/>
</svg>
