<svg width="16" height="16" viewBox="0 0 16 16" fill="none" xmlns="http://www.w3.org/2000/svg">
<path d="M14 4.66699V8.63363C14 8.74429 13.9106 8.83366 13.8 8.83366H2.20003C2.08937 8.83366 2 8.74429 2 8.63363V4.66699C2 3.33366 2.66667 2.66699 4 2.66699H12C13.3333 2.66699 14 3.33366 14 4.66699ZM2 10.0337V11.3337C2 12.667 2.66667 13.3337 4 13.3337H12C13.3333 13.3337 14 12.667 14 11.3337V10.0337C14 9.92302 13.9106 9.83366 13.8 9.83366H2.20003C2.08937 9.83366 2 9.92302 2 10.0337Z" fill="#3B3B3E"/>
</svg>
