<svg width="16" height="16" viewBox="0 0 16 16" fill="none" xmlns="http://www.w3.org/2000/svg">
<path fill-rule="evenodd" clip-rule="evenodd" d="M13.0463 5.72454L9.07031 2.39048C8.45098 1.87114 7.54764 1.87114 6.9283 2.39048L2.95231 5.72454C2.34831 6.23121 1.99902 6.43584 1.99902 7.76784V12.0005C1.99902 13.3338 2.66569 14.0005 3.99902 14.0005H11.999C13.3324 14.0005 13.999 13.3338 13.999 12.0005V7.76784C13.9997 6.43517 13.651 6.23121 13.0463 5.72454ZM10.6164 8.86248C10.2684 10.6418 7.99967 11.6672 7.99967 11.6672C7.99967 11.6672 5.73098 10.6425 5.38298 8.86248C5.16964 7.77115 5.63571 6.6725 6.82104 6.66717C7.70371 6.66317 7.99967 7.54583 7.99967 7.54583C7.99967 7.54583 8.29564 6.6625 9.1783 6.66717C10.3656 6.67317 10.8297 7.77115 10.6164 8.86248Z" fill="#3B3B3E"/>
</svg>
