<svg width="16" height="16" viewBox="0 0 16 16" fill="none" xmlns="http://www.w3.org/2000/svg">
<path d="M11.75 2H4.25C2.75 2 2 2.75 2 4.25V11.75C2 13.25 2.75 14 4.25 14H11.75C13.25 14 14 13.25 14 11.75V4.25C14 2.75 13.25 2 11.75 2ZM9.68669 8.35335L7.68669 10.3534C7.58935 10.4507 7.46133 10.5 7.33333 10.5C7.20533 10.5 7.07731 10.4514 6.97998 10.3534C6.78465 10.158 6.78465 9.84133 6.97998 9.646L8.62663 7.99935L6.97998 6.3527C6.78465 6.15737 6.78465 5.84068 6.97998 5.64535C7.17531 5.45001 7.492 5.45001 7.68734 5.64535L9.68734 7.64535C9.882 7.84201 9.88202 8.15802 9.68669 8.35335Z" fill="#3B3B3E"/>
</svg>
