<svg width="16" height="16" viewBox="0 0 16 16" fill="none" xmlns="http://www.w3.org/2000/svg">
<path d="M8.5 4V2.5L11.5 5.5H10C8.94667 5.5 8.5 5.05333 8.5 4ZM9.83333 11.0667V11.3333C9.50667 11.6667 9.33333 12.1333 9.33333 12.7V13.8C9.33333 13.9133 9.24663 14 9.1333 14H4C2.66667 14 2 13.3333 2 12V4C2 2.66667 2.66667 2 4 2H7.5V4C7.5 5.61333 8.38667 6.5 10 6.5H12V8.42668C12 8.52668 11.9333 8.6 11.8333 8.62C10.6933 8.84666 9.83333 9.86 9.83333 11.0667ZM5.16667 10.6667C5.16667 10.3907 4.94267 10.1667 4.66667 10.1667C4.39067 10.1667 4.16667 10.3907 4.16667 10.6667C4.16667 10.9427 4.39067 11.1667 4.66667 11.1667C4.94267 11.1667 5.16667 10.9427 5.16667 10.6667ZM5.16667 8C5.16667 7.724 4.94267 7.5 4.66667 7.5C4.39067 7.5 4.16667 7.724 4.16667 8C4.16667 8.276 4.39067 8.5 4.66667 8.5C4.94267 8.5 5.16667 8.276 5.16667 8ZM7.83333 10.6667C7.83333 10.3907 7.60933 10.1667 7.33333 10.1667H6.33333C6.05733 10.1667 5.83333 10.3907 5.83333 10.6667C5.83333 10.9427 6.05733 11.1667 6.33333 11.1667H7.33333C7.60933 11.1667 7.83333 10.9427 7.83333 10.6667ZM9.83333 8C9.83333 7.724 9.60933 7.5 9.33333 7.5H6.33333C6.05733 7.5 5.83333 7.724 5.83333 8C5.83333 8.276 6.05733 8.5 6.33333 8.5H9.33333C9.60933 8.5 9.83333 8.276 9.83333 8ZM14.3333 12.7V14.1C14.3333 14.7 14.0333 15 13.4333 15H11.2334C10.6334 15 10.3333 14.7 10.3333 14.1V12.7C10.3333 12.2533 10.5007 11.974 10.8333 11.86V11.0667C10.8333 10.2393 11.5067 9.56667 12.3333 9.56667C13.16 9.56667 13.8333 10.2393 13.8333 11.0667V11.86C14.166 11.974 14.3333 12.2533 14.3333 12.7ZM12.8333 11.0667C12.8333 10.7907 12.6087 10.5667 12.3333 10.5667C12.058 10.5667 11.8333 10.7907 11.8333 11.0667V11.8H12.8333V11.0667Z" fill="#3B3B3E"/>
</svg>
