<svg width="16" height="16" viewBox="0 0 16 16" fill="none" xmlns="http://www.w3.org/2000/svg">
<path d="M11.75 2H4.25C2.75 2 2 2.75 2 4.25V11.75C2 13.25 2.75 14 4.25 14H11.75C13.25 14 14 13.25 14 11.75V4.25C14 2.75 13.25 2 11.75 2ZM8 11.168C6.79 11.168 5.7034 10.494 5.16406 9.40869C5.04073 9.16136 5.14199 8.86127 5.38932 8.73861C5.63799 8.61527 5.93739 8.71736 6.06006 8.96403C6.42873 9.7067 7.172 10.168 8 10.168C9.19467 10.168 10.1667 9.19597 10.1667 8.0013C10.1667 6.80664 9.19467 5.83464 8 5.83464C7.34733 5.83464 6.74806 6.13196 6.34473 6.61263H6.81527C7.09127 6.61263 7.31527 6.83663 7.31527 7.11263C7.31527 7.38863 7.09127 7.61263 6.81527 7.61263H5.33333C5.05733 7.61263 4.83333 7.38863 4.83333 7.11263V5.63135C4.83333 5.35535 5.05733 5.13135 5.33333 5.13135C5.60933 5.13135 5.83333 5.35535 5.83333 5.63135V5.69661C6.408 5.15728 7.176 4.83529 8 4.83529C9.746 4.83529 11.1667 6.25595 11.1667 8.00195C11.1667 9.74795 9.746 11.168 8 11.168Z" fill="#3B3B3E"/>
</svg>
