<svg width="16" height="16" viewBox="0 0 16 16" fill="none" xmlns="http://www.w3.org/2000/svg">
<path d="M11.333 6.5C9.71967 6.5 8.83301 5.61333 8.83301 4V2H5.33301C3.99967 2 3.33301 2.66667 3.33301 4V12C3.33301 13.3333 3.99967 14 5.33301 14H11.333C12.6663 14 13.333 13.3333 13.333 12V6.5H11.333ZM9.33301 10.5H7.20703L7.68701 10.98C7.88235 11.1753 7.88235 11.492 7.68701 11.6873C7.58968 11.7847 7.46166 11.834 7.33366 11.834C7.20566 11.834 7.07764 11.7853 6.98031 11.6873L5.64697 10.354C5.60097 10.308 5.5644 10.2527 5.53906 10.1913C5.4884 10.0693 5.4884 9.93134 5.53906 9.80934C5.5644 9.748 5.60097 9.69267 5.64697 9.64667L6.98031 8.31333C7.17564 8.118 7.49233 8.118 7.68766 8.31333C7.883 8.50867 7.883 8.82534 7.68766 9.02067L7.20768 9.50067H9.33301C9.60901 9.50067 9.83301 9.72467 9.83301 10.0007C9.83301 10.2767 9.60901 10.5 9.33301 10.5ZM9.83301 4V2.5L12.833 5.5H11.333C10.2797 5.5 9.83301 5.05333 9.83301 4Z" fill="#3B3B3E"/>
</svg>
