<svg width="16" height="16" viewBox="0 0 16 16" fill="none" xmlns="http://www.w3.org/2000/svg">
<path d="M13.473 4.19968H12.7997C12.4663 4.19968 12.1663 4.03968 11.9797 3.77301C11.9597 3.80634 11.933 3.83968 11.9063 3.86634L11.2063 4.56634H11.553C11.833 4.56634 12.053 4.79301 12.053 5.06634C12.053 5.33968 11.833 5.56634 11.553 5.56634H9.99967C9.79967 5.56634 9.61301 5.44634 9.53967 5.25967C9.45967 5.07301 9.49965 4.85301 9.64632 4.71301L10.3464 4.01301H9.99967C9.72634 4.01301 9.49967 3.78634 9.49967 3.51301C9.49967 3.23968 9.72634 3.01301 9.99967 3.01301H11.553C11.6464 3.01301 11.7397 3.03968 11.813 3.08634C11.8263 2.93301 11.8797 2.77968 11.9663 2.64634C10.8597 1.81968 9.48634 1.33301 7.99967 1.33301C4.31967 1.33301 1.33301 4.31967 1.33301 7.99967C1.33301 11.6797 4.31967 14.6663 7.99967 14.6663C11.6797 14.6663 14.6663 11.6797 14.6663 7.99967C14.6663 6.58634 14.2264 5.27968 13.473 4.19968V4.19968ZM6.66634 8.16634C6.45967 8.16634 6.26633 8.03968 6.19299 7.82634C6.12633 7.63301 5.93303 7.49967 5.72636 7.49967C5.51969 7.49967 5.32635 7.63301 5.25968 7.82634C5.17302 8.08634 4.88634 8.22634 4.62634 8.13301C4.36634 8.03967 4.22633 7.75967 4.31966 7.49967C4.52633 6.89967 5.09299 6.49301 5.73299 6.49301C6.37299 6.49301 6.93965 6.89301 7.14632 7.49967C7.23299 7.75967 7.09968 8.04634 6.83968 8.13301C6.78635 8.15301 6.73301 8.15968 6.67301 8.15968L6.66634 8.16634ZM7.99967 11.9997C7.44634 11.9997 6.99967 11.553 6.99967 10.9997C6.99967 10.4463 7.44634 9.99967 7.99967 9.99967C8.55301 9.99967 8.99967 10.4463 8.99967 10.9997C8.99967 11.553 8.55301 11.9997 7.99967 11.9997ZM11.3797 8.13968C11.3263 8.15968 11.273 8.16634 11.213 8.16634C11.0063 8.16634 10.813 8.03968 10.7397 7.82634C10.673 7.63301 10.4797 7.49967 10.273 7.49967C10.0663 7.49967 9.87302 7.63301 9.80636 7.82634C9.71969 8.08634 9.43301 8.22634 9.17301 8.13301C8.91301 8.03967 8.773 7.75967 8.86633 7.49967C9.073 6.89967 9.63966 6.49301 10.2797 6.49301C10.9197 6.49301 11.4863 6.89301 11.693 7.49967C11.7797 7.75967 11.6464 8.04634 11.3864 8.13301L11.3797 8.13968ZM15.1663 3.19968C15.1663 3.47301 14.9397 3.69968 14.6663 3.69968H12.7997C12.5997 3.69968 12.413 3.57967 12.3397 3.39301C12.2797 3.25301 12.293 3.09301 12.3663 2.96634C12.3797 2.91967 12.413 2.87968 12.4463 2.84634L13.4597 1.83301H12.7997C12.5263 1.83301 12.2997 1.60634 12.2997 1.33301C12.2997 1.05967 12.5263 0.833008 12.7997 0.833008H14.6663C14.8663 0.833008 15.053 0.953012 15.1263 1.13968C15.2063 1.32635 15.1664 1.54634 15.0197 1.68634L14.0063 2.69968H14.6663C14.9397 2.69968 15.1663 2.92634 15.1663 3.19968Z" fill="#3B3B3E"/>
</svg>
