<svg width="16" height="16" viewBox="0 0 16 16" fill="none" xmlns="http://www.w3.org/2000/svg">
<path d="M9.33301 12.666C9.33301 13.1567 9.45231 13.622 9.66431 14.034C9.73431 14.1707 9.64699 14.3327 9.49365 14.3327H7.33301H4.66634C3.13967 14.3327 2.33301 13.5327 2.33301 12.0127C2.33301 10.3127 3.29301 8.33268 5.99967 8.33268H7.33301H8.66634C10.001 8.33268 10.9123 8.81536 11.4897 9.50602C11.5797 9.61402 11.5177 9.77338 11.3844 9.81738C10.189 10.2114 9.33301 11.3353 9.33301 12.666ZM7.33903 6.99935C8.8097 6.99935 10.0057 5.80335 10.0057 4.33268C10.0057 2.86202 8.8097 1.66602 7.33903 1.66602C5.86836 1.66602 4.67236 2.86202 4.67236 4.33268C4.67236 5.80335 5.86836 6.99935 7.33903 6.99935ZM13.9997 12.166H11.333C11.057 12.166 10.833 12.39 10.833 12.666C10.833 12.942 11.057 13.166 11.333 13.166H13.9997C14.2757 13.166 14.4997 12.942 14.4997 12.666C14.4997 12.39 14.2757 12.166 13.9997 12.166Z" fill="#3B3B3E"/>
</svg>
