<svg width="16" height="16" viewBox="0 0 16 16" fill="none" xmlns="http://www.w3.org/2000/svg">
<path d="M8.66699 10.4826V12.8866C8.66699 13.8332 7.56033 14.3466 6.83366 13.7333L5.97233 13.0005C5.883 12.9245 5.87762 12.7892 5.96029 12.7066L8.32568 10.3412C8.45168 10.2152 8.66699 10.3046 8.66699 10.4826ZM12.3036 6.69321C12.2236 6.42988 11.949 6.28117 11.6783 6.36183C11.4143 6.44317 11.2663 6.72251 11.3477 6.98651C11.7257 8.21851 11.3903 9.55449 10.4723 10.4732C10.277 10.6685 10.277 10.9852 10.4723 11.1805C10.5697 11.2778 10.6977 11.3272 10.8257 11.3272C10.9537 11.3272 11.0816 11.2785 11.179 11.1805C12.3603 9.99918 12.7916 8.27988 12.3036 6.69321ZM14.291 4.57244C14.159 4.33044 13.8563 4.24184 13.6117 4.37518C13.3703 4.50784 13.2816 4.81189 13.4143 5.05389C14.7183 7.42989 14.2843 10.4339 12.359 12.3592C12.1636 12.5546 12.1636 12.8713 12.359 13.0666C12.4563 13.1639 12.5843 13.2132 12.7123 13.2132C12.8403 13.2132 12.9683 13.1646 13.0657 13.0666C15.3037 10.8286 15.8077 7.33578 14.291 4.57244ZM14.3537 1.6465C14.1583 1.45117 13.8417 1.45117 13.6463 1.6465L8.66634 6.62648V3.11313C8.66634 2.16647 7.55967 1.65312 6.83301 2.26645L4.37297 4.35321C4.13297 4.55321 3.82635 4.66652 3.51302 4.66652H2.33301C1.77967 4.66652 1.33301 5.11319 1.33301 5.66652V10.3332C1.33301 10.8865 1.77967 11.3332 2.33301 11.3332H3.51302C3.64435 11.3332 3.77296 11.3565 3.89762 11.3945L1.64632 13.6458C1.45099 13.8412 1.45099 14.1579 1.64632 14.3532C1.74365 14.4505 1.87167 14.4999 1.99967 14.4999C2.12767 14.4999 2.25569 14.4512 2.35303 14.3532L14.353 2.35321C14.549 2.15787 14.549 1.84183 14.3537 1.6465Z" fill="#3B3B3E"/>
</svg>
