<svg width="16" height="16" viewBox="0 0 16 16" fill="none" xmlns="http://www.w3.org/2000/svg">
<path d="M13.138 6.47135L11.2354 8.37402C11.048 8.56136 10.7933 8.66667 10.528 8.66667H3.89669C3.07602 8.66667 2.66602 8.2567 2.66602 7.43604V4.56396C2.66602 3.7433 3.07602 3.33333 3.89669 3.33333H6.83268V2C6.83268 1.72667 7.05935 1.5 7.33268 1.5C7.60602 1.5 7.83268 1.72667 7.83268 2V3.33333H10.528C10.7933 3.33333 11.0474 3.43864 11.2354 3.62598L13.138 5.52865C13.3987 5.78865 13.3987 6.21135 13.138 6.47135ZM9.33335 13.5H7.83335V9.66667H6.83335V13.5H5.33335C5.05735 13.5 4.83335 13.724 4.83335 14C4.83335 14.276 5.05735 14.5 5.33335 14.5H9.33335C9.60935 14.5 9.83335 14.276 9.83335 14C9.83335 13.724 9.60935 13.5 9.33335 13.5Z" fill="#3B3B3E"/>
</svg>
