<svg width="16" height="16" viewBox="0 0 16 16" fill="none" xmlns="http://www.w3.org/2000/svg">
<path d="M13.0846 5.83496C12.882 6.47163 12.362 6.98833 11.724 7.18766C10.692 7.51033 9.71064 7.06766 9.21997 6.28833C9.1813 6.227 9.18399 6.14968 9.21932 6.08634C9.50932 5.56901 9.67399 4.97166 9.67399 4.33366C9.67399 4.11233 9.65463 3.89631 9.61597 3.68498C9.6033 3.61564 9.62463 3.54364 9.67863 3.49764C10.0486 3.18364 10.5274 3.00033 11.0407 3.00033C12.4514 3.00033 13.5513 4.36763 13.0846 5.83496ZM12.0733 8.18701H10.7533C10.64 8.18701 10.5533 8.27363 10.5533 8.38696C10.5533 8.4403 10.5734 8.49369 10.6134 8.52702C10.62 8.53369 10.6266 8.54029 10.6333 8.54696C11.5666 9.44696 12 10.7337 12 12.0137C12 12.2603 11.9867 12.5003 11.9467 12.7203C11.94 12.7496 11.938 12.7744 11.938 12.801C11.938 12.9144 12.0266 13.0003 12.1333 13.0003H13.1067C14.3267 13.0003 15 12.3337 15 11.1204C15 9.76703 14.2333 8.18701 12.0733 8.18701ZM6.00667 1.66699C4.53334 1.66699 3.34001 2.86033 3.34001 4.33366C3.34001 5.80699 4.53334 7.00033 6.00667 7.00033C7.47334 7.00033 8.67334 5.80699 8.67334 4.33366C8.67334 2.86033 7.47334 1.66699 6.00667 1.66699ZM7.33333 8.33366H4.66667C1.96 8.33366 1 10.3137 1 12.0137C1 13.5337 1.80667 14.3337 3.33333 14.3337H8.66667C10.1933 14.3337 11 13.5337 11 12.0137C11 10.3137 10.04 8.33366 7.33333 8.33366Z" fill="#3B3B3E"/>
</svg>
