<svg width="16" height="16" viewBox="0 0 16 16" fill="none" xmlns="http://www.w3.org/2000/svg">
<path d="M7.99967 1.33301C4.31967 1.33301 1.33301 4.31967 1.33301 7.99967C1.33301 11.6797 4.31967 14.6663 7.99967 14.6663C11.6797 14.6663 14.6663 11.6797 14.6663 7.99967C14.6663 4.31967 11.6797 1.33301 7.99967 1.33301ZM6.49967 9.12634C6.69967 9.31968 6.69967 9.63967 6.49967 9.83301C6.40634 9.93301 6.27301 9.97967 6.14634 9.97967C6.01968 9.97967 5.89301 9.93301 5.79301 9.83301L4.31301 8.35301C4.11968 8.15967 4.11968 7.83967 4.31301 7.64634L5.79301 6.16634C5.98634 5.96634 6.30634 5.96634 6.49967 6.16634C6.69967 6.35967 6.69967 6.67967 6.49967 6.87301L5.37301 7.99967L6.49967 9.12634ZM9.153 5.453L7.81967 10.7863C7.75967 11.013 7.55967 11.1663 7.33301 11.1663C7.29301 11.1663 7.25301 11.1597 7.21301 11.153C6.94635 11.0863 6.77968 10.813 6.84634 10.5463L8.17968 5.21301C8.24634 4.94635 8.51967 4.77967 8.78634 4.84633C9.053 4.913 9.21967 5.18634 9.153 5.453ZM11.6863 8.35301L10.2063 9.83301C10.1063 9.93301 9.97967 9.97967 9.85301 9.97967C9.72634 9.97967 9.59301 9.93301 9.49967 9.83301C9.29967 9.63967 9.29967 9.31968 9.49967 9.12634L10.6263 7.99967L9.49967 6.87301C9.29967 6.67967 9.29967 6.35967 9.49967 6.16634C9.69301 5.96634 10.013 5.96634 10.2063 6.16634L11.6863 7.64634C11.8797 7.83967 11.8797 8.15967 11.6863 8.35301Z" fill="#3B3B3E"/>
</svg>
