<svg width="16" height="16" viewBox="0 0 16 16" fill="none" xmlns="http://www.w3.org/2000/svg">
<path d="M14 7.25895C14 11.7036 10.222 13.9257 8 14.6663C5.778 13.9257 2 11.7036 2 7.25895C2 6.46762 2 4.09101 2 3.33301C5.33333 2.66634 6.51871 2.07367 8.01204 1.33301C9.48204 2.07367 10.6667 2.66634 14 3.33301C14 4.12901 14 6.44228 14 7.25895ZM10.6867 9.64632L9.65332 8.61296C9.90532 8.22829 10.0547 7.77035 10.0547 7.27702C10.0547 5.92968 8.95801 4.83236 7.61068 4.83236C6.26268 4.83236 5.16602 5.92902 5.16602 7.27702C5.16602 8.62502 6.26268 9.72168 7.61068 9.72168C8.10401 9.72168 8.56196 9.57233 8.94596 9.31966L9.97868 10.3524C10.076 10.4497 10.204 10.499 10.332 10.499C10.46 10.499 10.5881 10.4504 10.6854 10.3524C10.8821 10.1577 10.882 9.84165 10.6867 9.64632ZM7.61133 8.72168C8.40733 8.72168 9.05534 8.07368 9.05534 7.27702C9.05534 6.48035 8.40733 5.83236 7.61133 5.83236C6.81466 5.83236 6.16667 6.48035 6.16667 7.27702C6.16667 8.07368 6.81466 8.72168 7.61133 8.72168Z" fill="#3B3B3E"/>
</svg>
