<svg width="16" height="16" viewBox="0 0 16 16" fill="none" xmlns="http://www.w3.org/2000/svg">
<path d="M13.9997 2.6199V11.3799C13.9997 11.8999 13.3997 12.1866 12.9997 11.8666L12.313 11.3132C11.991 11.0525 11.6423 10.8299 11.275 10.6465C11.2083 10.6132 11.1663 10.5466 11.1663 10.4726V3.5279C11.1663 3.45323 11.2083 3.38724 11.275 3.35391C11.6416 3.17057 11.991 2.94791 12.313 2.68724L12.9997 2.13389C13.3997 1.81323 13.9997 2.0999 13.9997 2.6199ZM9.92234 10.1566C10.0477 10.1859 10.1663 10.0966 10.1663 9.96792V4.03123C10.1663 3.90257 10.0477 3.81322 9.92234 3.84255C9.47834 3.94722 9.02096 3.99925 8.55963 3.99925H5.13035C3.56635 3.99925 2.16829 5.13924 2.01495 6.69591C1.83895 8.48457 3.23964 9.99925 5.0003 9.99925L6.63564 13.2639C6.86164 13.7146 7.32231 13.9993 7.82631 13.9993H8.66632L7.99965 9.99925H8.55963C9.02163 9.99992 9.47834 10.0519 9.92234 10.1566Z" fill="#3B3B3E"/>
</svg>
