<svg width="16" height="16" viewBox="0 0 16 16" fill="none" xmlns="http://www.w3.org/2000/svg">
<path d="M8 2.66699C4.68667 2.66699 2 4.66698 2 8.00098C2 9.41431 2.48663 10.595 3.29997 11.475C3.19997 12.115 2.83995 12.8483 2.11328 13.435C1.89328 13.6216 2.01997 13.9883 2.30664 13.995C3.25331 14.0283 4.71327 13.9017 5.60661 12.9483C6.33994 13.2017 7.14667 13.335 8 13.335C11.3133 13.335 14 11.3343 14 8.00098C14 4.66698 11.3133 2.66699 8 2.66699ZM10.7373 7.65967L9.71729 8.64632C9.64262 8.71832 9.60863 8.82232 9.62663 8.92432L9.86003 10.2743C9.90736 10.5483 9.61861 10.757 9.37061 10.6283L8.14665 9.98966C8.05465 9.94166 7.94534 9.94166 7.854 9.98966L6.6307 10.6277C6.3827 10.757 6.09329 10.5477 6.14063 10.2737L6.37402 8.92432C6.39136 8.82232 6.35737 8.71832 6.28337 8.64632L5.26335 7.65967C5.07601 7.47833 5.17932 7.16167 5.43799 7.125L6.84928 6.92163C6.95195 6.90696 7.04059 6.84299 7.08659 6.75033L7.69808 5.52165C7.82208 5.27231 8.18004 5.27231 8.30404 5.52165L8.91536 6.75033C8.96136 6.84299 9.05 6.90696 9.15267 6.92163L10.564 7.125C10.822 7.16167 10.9246 7.47833 10.7373 7.65967Z" fill="#3B3B3E"/>
</svg>
