<svg width="16" height="16" viewBox="0 0 16 16" fill="none" xmlns="http://www.w3.org/2000/svg">
<path d="M10.8263 9.12032C10.953 8.66699 11.373 8.33366 11.873 8.33366H12.7596C12.8789 8.33366 12.9923 8.35232 13.0983 8.38765C13.1816 8.41565 13.333 8.349 13.333 8.205V4.66699C13.333 3.33366 12.6663 2.66699 11.333 2.66699H3.33301C1.99967 2.66699 1.33301 3.33366 1.33301 4.66699V10.667C1.33301 12.0003 1.99967 12.667 3.33301 12.667H8.78841C8.94908 12.667 9.00496 12.5323 9.00163 12.4643C8.99696 12.3557 9.01105 12.247 9.03971 12.1403C9.08638 11.9603 9.17297 11.8003 9.29964 11.667C9.17297 11.5337 9.08637 11.3737 9.03304 11.1937C8.95971 10.9137 9.00633 10.6137 9.15299 10.3603L9.59961 9.61366C9.79294 9.28699 10.153 9.08032 10.533 9.08032C10.633 9.08032 10.733 9.09365 10.8263 9.12032ZM8.01904 8.11966C7.81371 8.26899 7.57301 8.34366 7.33301 8.34366C7.09301 8.34366 6.85164 8.26899 6.64697 8.12032L3.3724 5.73832C3.14906 5.57632 3.0997 5.263 3.26237 5.03966C3.4237 4.81766 3.73627 4.76632 3.96094 4.92966L7.23568 7.31099C7.29434 7.35299 7.37232 7.35366 7.43099 7.31099L10.7057 4.92966C10.9304 4.76632 11.243 4.817 11.4043 5.03966C11.567 5.263 11.5176 5.57566 11.2943 5.73832L8.01904 8.11966ZM14.589 12.3417C14.3417 12.2023 14.189 11.9457 14.1883 11.6683C14.1883 11.3897 14.3404 11.1323 14.589 10.9923L14.6663 10.949L14.1317 10.0517L14.055 10.0943C13.8057 10.2337 13.499 10.2337 13.2503 10.0937C13.003 9.95432 12.8511 9.69832 12.8511 9.42099C12.8511 9.37299 12.8104 9.33366 12.7611 9.33366H11.8717C11.8217 9.33366 11.7817 9.37299 11.7817 9.42099C11.7817 9.69832 11.6297 9.95432 11.3823 10.0937C11.1337 10.2337 10.827 10.2343 10.5776 10.0943C10.5356 10.0703 10.481 10.085 10.457 10.1257L10.0111 10.8743C9.9864 10.915 10.001 10.9677 10.043 10.9917L10.0443 10.9923C10.2916 11.1317 10.4437 11.3877 10.4443 11.6643C10.445 11.943 10.2923 12.201 10.0443 12.341L10.043 12.3417C10.001 12.3657 9.98642 12.4183 10.0104 12.459L10.4564 13.207C10.481 13.2483 10.535 13.2623 10.5776 13.2383C10.8263 13.099 11.133 13.099 11.3817 13.239C11.629 13.3783 11.7809 13.635 11.7803 13.9123C11.7803 13.9603 11.8203 13.9997 11.8703 13.9997H12.7611C12.8104 13.9997 12.8511 13.961 12.8511 13.913C12.8511 13.6357 13.003 13.3797 13.2503 13.2403C13.499 13.1003 13.8057 13.0997 14.055 13.2397C14.097 13.2637 14.1516 13.249 14.1756 13.2083L14.6217 12.4597C14.6464 12.419 14.6317 12.3663 14.5897 12.3423L14.589 12.3417ZM12.3457 12.3337C11.9777 12.3337 11.6756 12.035 11.6756 11.667C11.6756 11.299 11.971 11.0003 12.339 11.0003H12.3457C12.7144 11.0003 13.0124 11.299 13.0124 11.667C13.0124 12.035 12.7144 12.3337 12.3457 12.3337Z" fill="#3B3B3E"/>
</svg>
