<svg width="16" height="16" viewBox="0 0 16 16" fill="none" xmlns="http://www.w3.org/2000/svg">
<path d="M13.8337 14C13.8337 14.2733 13.607 14.5 13.3337 14.5H9.83366C9.56033 14.5 9.33366 14.2733 9.33366 14V11.3333C9.33366 10.6 8.73366 10 8.00033 10C7.26699 10 6.66699 10.6 6.66699 11.3333V14C6.66699 14.2733 6.44033 14.5 6.16699 14.5H2.66699C2.39366 14.5 2.16699 14.2733 2.16699 14C2.16699 13.7267 2.39366 13.5 2.66699 13.5H3.38029L3.76034 9.29997L3.8903 7.84863C3.89963 7.7453 3.98635 7.66667 4.08968 7.66667H11.9103C12.0137 7.66667 12.1003 7.7453 12.1096 7.84863L12.2397 9.29997L12.6196 13.5H13.333C13.607 13.5 13.8337 13.7267 13.8337 14ZM4.00033 6.66667H12.0003C12.7363 6.66667 13.3337 6.06933 13.3337 5.33333V2.33333C13.3337 2.14933 13.1843 2 13.0003 2H11.667C11.483 2 11.3337 2.14933 11.3337 2.33333V3.33333C11.3337 3.88533 10.8857 4.33333 10.3337 4.33333C9.78166 4.33333 9.33366 3.88533 9.33366 3.33333V2.33333C9.33366 2.14933 9.18433 2 9.00033 2H7.00033C6.81633 2 6.66699 2.14933 6.66699 2.33333V3.33333C6.66699 3.88533 6.21899 4.33333 5.66699 4.33333C5.11499 4.33333 4.66699 3.88533 4.66699 3.33333V2.33333C4.66699 2.14933 4.51766 2 4.33366 2H3.00033C2.81633 2 2.66699 2.14933 2.66699 2.33333V5.33333C2.66699 6.06933 3.26433 6.66667 4.00033 6.66667Z" fill="#3B3B3E"/>
</svg>
