<svg width="16" height="16" viewBox="0 0 16 16" fill="none" xmlns="http://www.w3.org/2000/svg">
<path d="M11.75 2H4.25C2.75 2 2 2.75 2 4.25V11.75C2 13.25 2.75 14 4.25 14H11.75C13.25 14 14 13.25 14 11.75V4.25C14 2.75 13.25 2 11.75 2ZM8.5 8.23405V10.6667C8.5 10.9427 8.276 11.1667 8 11.1667C7.724 11.1667 7.5 10.9427 7.5 10.6667V8.23405C7.01267 8.03605 6.66667 7.558 6.66667 7C6.66667 6.26467 7.26467 5.66667 8 5.66667C8.73533 5.66667 9.33333 6.26467 9.33333 7C9.33333 7.558 8.98733 8.03605 8.5 8.23405Z" fill="#3B3B3E"/>
</svg>
