<svg width="16" height="16" viewBox="0 0 16 16" fill="none" xmlns="http://www.w3.org/2000/svg">
<path d="M10.6663 2H5.33301C3.99967 2 3.33301 2.66667 3.33301 4V14L7.99967 11.3333L12.6663 14V4C12.6663 2.66667 11.9997 2 10.6663 2ZM7.99967 4C8.79034 4 9.43294 4.64268 9.43294 5.43335C9.43294 6.22402 8.78967 6.8667 7.99967 6.8667C7.20967 6.8667 6.56641 6.22402 6.56641 5.43335C6.56641 4.64268 7.20901 4 7.99967 4ZM10.333 9.66667C10.333 9.85067 10.1837 10 9.99967 10H5.99967C5.81567 10 5.66634 9.85067 5.66634 9.66667V9.46468C5.66634 8.57135 6.32028 7.66667 7.57161 7.66667H8.42708C9.67842 7.66667 10.3324 8.57068 10.3324 9.46468V9.66667H10.333Z" fill="#3B3B3E"/>
</svg>
