<svg width="16" height="16" viewBox="0 0 16 16" fill="none" xmlns="http://www.w3.org/2000/svg">
<path d="M14.6315 6.21113C14.6235 6.2358 14.1523 7.58259 12.8856 8.78926L13.8882 10.2979C14.0922 10.6045 14.0088 11.0185 13.7022 11.2225C13.5882 11.2979 13.4608 11.3339 13.3335 11.3339C13.1182 11.3339 12.9055 11.2292 12.7775 11.0365L11.8322 9.6138C11.3802 9.89913 10.8588 10.1419 10.2708 10.3265L10.6468 11.8405C10.7355 12.1979 10.5181 12.5598 10.1608 12.6485C10.1068 12.6618 10.0529 12.6678 9.99952 12.6678C9.70085 12.6678 9.42887 12.4651 9.35287 12.1618L8.9668 10.6092C8.6588 10.6459 8.33885 10.6678 7.99952 10.6678C7.66019 10.6678 7.34023 10.6459 7.03223 10.6092L6.64617 12.1618C6.57083 12.4651 6.29885 12.6678 5.99952 12.6678C5.94619 12.6678 5.89222 12.6618 5.83822 12.6485C5.48089 12.5598 5.26355 12.1979 5.35222 11.8405L5.7282 10.3265C5.14086 10.1425 4.61884 9.89913 4.16684 9.6138L3.22152 11.0365C3.09352 11.2298 2.88087 11.3339 2.66553 11.3339C2.53887 11.3339 2.41088 11.2979 2.29688 11.2225C1.99022 11.0185 1.90685 10.6045 2.11085 10.2979L3.11345 8.78926C1.84678 7.58259 1.37552 6.2358 1.36752 6.21113C1.25085 5.8618 1.43957 5.48454 1.78891 5.36787C2.14024 5.25054 2.51418 5.43914 2.63152 5.78714C2.66085 5.87381 3.11481 7.13121 4.35548 8.12454C4.35614 8.12521 4.35692 8.12583 4.35759 8.1265C5.18492 8.78783 6.35752 9.33385 7.99952 9.33385C9.64152 9.33385 10.8148 8.7885 11.6414 8.1265C11.6421 8.12583 11.6429 8.12521 11.6436 8.12454C12.8842 7.13121 13.3382 5.87381 13.3675 5.78714C13.4862 5.43914 13.8682 5.25382 14.2122 5.36982C14.5602 5.48716 14.7482 5.86246 14.6315 6.21113Z" fill="#3B3B3E"/>
</svg>
