<svg width="16" height="16" viewBox="0 0 16 16" fill="none" xmlns="http://www.w3.org/2000/svg">
<path d="M13.3615 5.51125C13.5642 6.09658 13.6669 6.70919 13.6669 7.33319C13.6669 10.6552 10.5809 12.6938 8.53888 14.0425L8.18554 14.2772C8.12954 14.3145 8.06487 14.3332 8.00087 14.3332C7.93687 14.3332 7.87287 14.3152 7.81754 14.2778L7.61354 14.1439C7.06821 13.7852 6.44954 13.3785 5.82621 12.9051C5.74954 12.8471 5.70153 12.7585 5.69486 12.6625C5.68819 12.5665 5.72352 12.4725 5.79219 12.4045L12.8122 5.38446C12.8929 5.30312 13.0082 5.26926 13.1229 5.29526C13.2335 5.3206 13.3242 5.40258 13.3615 5.51125ZM14.3535 1.6465C14.1582 1.45117 13.8415 1.45117 13.6462 1.6465L11.9775 3.31512C10.9255 2.26445 9.50486 1.66717 7.99953 1.66717C4.87286 1.66717 2.33286 4.20717 2.33286 7.33384C2.33286 8.74784 2.88621 10.0452 4.01021 11.2826L1.64552 13.6472C1.45019 13.8425 1.45019 14.1592 1.64552 14.3545C1.74286 14.4518 1.87086 14.5012 1.99886 14.5012C2.12686 14.5012 2.25488 14.4525 2.35221 14.3545L14.3522 2.35451C14.5489 2.15784 14.5489 1.84183 14.3535 1.6465Z" fill="#3B3B3E"/>
</svg>
