<svg width="16" height="16" viewBox="0 0 16 16" fill="none" xmlns="http://www.w3.org/2000/svg">
<path d="M14.6665 4.66667V7.43604C14.6665 7.80404 14.3678 8.1027 13.9998 8.1027C13.6318 8.1027 13.3332 7.80404 13.3332 7.43604V6.27604L9.60918 10C9.08984 10.52 8.24317 10.52 7.72384 10L5.99984 8.27604L2.47118 11.8047C2.34118 11.9347 2.17051 12 1.99984 12C1.82917 12 1.65851 11.9347 1.52851 11.8047C1.26784 11.544 1.26784 11.1226 1.52851 10.862L5.05717 7.33333C5.57651 6.81333 6.42318 6.81333 6.94251 7.33333L8.66651 9.05729L12.3905 5.33333H11.2305C10.8625 5.33333 10.5638 5.03467 10.5638 4.66667C10.5638 4.29867 10.8625 4 11.2305 4H13.9998C14.0865 4 14.1732 4.01794 14.2545 4.05127C14.4178 4.11927 14.5472 4.24861 14.6152 4.41195C14.6485 4.49328 14.6665 4.58 14.6665 4.66667Z" fill="#3B3B3E"/>
</svg>
