<svg width="16" height="16" viewBox="0 0 16 16" fill="none" xmlns="http://www.w3.org/2000/svg">
<path d="M10.1735 13.5949C9.9442 13.7042 9.67625 13.7856 9.37292 13.8402L4.99287 14.6069C3.53287 14.8669 2.6728 14.2669 2.41947 12.8069L1.39294 6.97357C1.13294 5.51357 1.73291 4.65358 3.19291 4.39358L4.39147 4.18288C4.52814 4.15888 4.64759 4.27823 4.62292 4.4149L3.8389 8.85358C3.48557 10.8736 4.43885 12.2336 6.45218 12.5869C6.45218 12.5869 9.93154 13.1982 10.1109 13.2329C10.3322 13.2729 10.3675 13.5089 10.1735 13.5949ZM14.6089 4.73757L13.5795 10.5735C13.3315 11.9789 12.5209 12.5796 11.1576 12.3929C11.1056 12.3856 11.0589 12.3856 11.0049 12.3762L6.62813 11.6042C5.1688 11.3469 4.56822 10.4889 4.82556 9.02956L5.7209 3.95221L5.85485 3.19354C6.11219 1.73421 6.97023 1.13356 8.42956 1.39089L12.8068 2.1629C14.2655 2.42024 14.8663 3.2789 14.6089 4.73757ZM10.3695 9.26422C10.4175 8.99222 10.2362 8.73288 9.96423 8.68488L7.22823 8.20221C6.95756 8.15354 6.69695 8.33623 6.64961 8.60757C6.60161 8.87957 6.78289 9.13891 7.05489 9.18691L9.79089 9.66958C9.82022 9.67491 9.84946 9.6769 9.87813 9.6769C10.1161 9.67757 10.3268 9.50689 10.3695 9.26422ZM12.3981 7.35687C12.4461 7.08487 12.2649 6.82557 11.9929 6.77757L7.61625 6.00556C7.34691 5.95822 7.0848 6.13958 7.03747 6.41091C6.98947 6.68291 7.17091 6.94222 7.44291 6.99022L11.8195 7.76223C11.8489 7.76756 11.8783 7.76955 11.9069 7.76955C12.1449 7.76955 12.3555 7.59887 12.3981 7.35687ZM12.8649 5.18223C12.9129 4.91023 12.7315 4.65089 12.4595 4.60289L8.08288 3.83087C7.81355 3.78287 7.5516 3.96489 7.50427 4.23623C7.45627 4.50823 7.63754 4.76757 7.90954 4.81557L12.2862 5.58755C12.3155 5.59288 12.3449 5.59491 12.3736 5.59491C12.6116 5.59558 12.8223 5.4249 12.8649 5.18223Z" fill="#3B3B3E"/>
</svg>
