<svg width="16" height="16" viewBox="0 0 16 16" fill="none" xmlns="http://www.w3.org/2000/svg">
<path d="M14.3537 7.646C14.549 7.84133 14.549 8.15802 14.3537 8.35335C14.2563 8.45069 14.1283 8.5 14.0003 8.5C13.8723 8.5 13.7443 8.45135 13.647 8.35335L12.667 7.37337L11.687 8.35335C11.5897 8.45069 11.4617 8.5 11.3337 8.5C11.2057 8.5 11.0776 8.45135 10.9803 8.35335C10.785 8.15802 10.785 7.84133 10.9803 7.646L11.9603 6.66602L10.9803 5.68604C10.785 5.4907 10.785 5.17401 10.9803 4.97868C11.1756 4.78335 11.4923 4.78335 11.6877 4.97868L12.6676 5.95866L13.6476 4.97868C13.843 4.78335 14.1596 4.78335 14.355 4.97868C14.5503 5.17401 14.5503 5.4907 14.355 5.68604L13.375 6.66602L14.3537 7.646ZM6.67301 6.99935C8.14368 6.99935 9.33968 5.80335 9.33968 4.33268C9.33968 2.86202 8.14368 1.66602 6.67301 1.66602C5.20235 1.66602 4.00635 2.86202 4.00635 4.33268C4.00635 5.80335 5.20235 6.99935 6.67301 6.99935ZM8.00033 8.33268H5.33366C2.62699 8.33268 1.66699 10.3147 1.66699 12.012V13.9993C1.66699 14.1833 1.81633 14.3327 2.00033 14.3327H11.3337C11.5177 14.3327 11.667 14.1833 11.667 13.9993V12.012C11.667 10.3147 10.707 8.33268 8.00033 8.33268Z" fill="#3B3B3E"/>
</svg>
