<svg width="16" height="16" viewBox="0 0 16 16" fill="none" xmlns="http://www.w3.org/2000/svg">
<path d="M13.9946 8.11768C13.9353 8.81968 13.2966 9.33301 12.592 9.33301H8.36133C8.22333 9.33301 8.13332 9.19969 8.17399 9.06836C8.27866 8.73103 8.33333 8.37367 8.33333 7.99967C8.33333 7.62567 8.27932 7.26832 8.17399 6.93099C8.13332 6.79966 8.22333 6.66634 8.36133 6.66634H12.6667C13.0333 6.66634 13.3666 6.81307 13.6066 7.05973C13.8793 7.32507 14.03 7.70501 13.9946 8.11768ZM7.33333 7.99967C7.33333 6.52701 6.13933 5.33301 4.66667 5.33301C3.194 5.33301 2 6.52701 2 7.99967C2 9.47234 3.194 10.6663 4.66667 10.6663C6.13933 10.6663 7.33333 9.47234 7.33333 7.99967Z" fill="#3B3B3E"/>
</svg>
