<svg width="16" height="16" viewBox="0 0 16 16" fill="none" xmlns="http://www.w3.org/2000/svg">
<path fill-rule="evenodd" clip-rule="evenodd" d="M13.5129 6.04153L9.05825 2.3795C8.44292 1.8735 7.55559 1.8735 6.94025 2.3795L2.48558 6.04153C2.11158 6.34886 1.93357 6.83416 2.0209 7.31016L2.99095 12.6315C3.13562 13.4235 3.82561 13.9995 4.63028 13.9995H11.3676C12.1729 13.9995 12.8629 13.4235 13.0076 12.6315L13.9776 7.30951C14.0649 6.83485 13.8869 6.34886 13.5129 6.04153ZM11.0196 8.23285L9.52961 9.72284C9.33561 9.91751 9.07555 10.0255 8.79955 10.0255C8.52355 10.0255 8.26425 9.91816 8.06892 9.72349L7.22158 8.8782L5.68561 10.3662C5.58828 10.4635 5.46026 10.5129 5.33226 10.5129C5.20426 10.5129 5.07624 10.4642 4.97891 10.3662C4.78358 10.1708 4.78358 9.85421 4.97891 9.65888L6.46695 8.17084C6.86961 7.76817 7.52422 7.76819 7.92756 8.17019L8.77489 9.01549L10.3122 7.52615C10.5076 7.33081 10.8243 7.33081 11.0196 7.52615C11.2149 7.72148 11.2149 8.03752 11.0196 8.23285Z" fill="#3B3B3E"/>
</svg>
