<svg width="16" height="16" viewBox="0 0 16 16" fill="none" xmlns="http://www.w3.org/2000/svg">
<path d="M10.6663 2H5.33301C3.99967 2 3.33301 2.66667 3.33301 4V12C3.33301 13.3333 3.99967 14 5.33301 14H10.6663C11.9997 14 12.6663 13.3333 12.6663 12V4C12.6663 2.66667 11.9997 2 10.6663 2ZM7.99967 12.6667C7.63167 12.6667 7.33301 12.368 7.33301 12C7.33301 11.632 7.63167 11.3333 7.99967 11.3333C8.36767 11.3333 8.66634 11.632 8.66634 12C8.66634 12.368 8.36767 12.6667 7.99967 12.6667ZM8.99967 4.5H6.99967C6.72367 4.5 6.49967 4.276 6.49967 4C6.49967 3.724 6.72367 3.5 6.99967 3.5H8.99967C9.27567 3.5 9.49967 3.724 9.49967 4C9.49967 4.276 9.27567 4.5 8.99967 4.5Z" fill="#3B3B3E"/>
</svg>
