<svg width="16" height="16" viewBox="0 0 16 16" fill="none" xmlns="http://www.w3.org/2000/svg">
<path d="M14 1.5H2C1.724 1.5 1.5 1.724 1.5 2C1.5 2.276 1.724 2.5 2 2.5H2.66667V8.66667C2.66667 10.1933 3.47333 11 5 11H7.5V12.4L5.72001 13.5867C5.49334 13.74 5.43334 14.0467 5.58667 14.28C5.74 14.5067 6.04666 14.5667 6.27999 14.4133L8 13.2667L9.72001 14.4133C9.80668 14.4733 9.90667 14.5 10 14.5C10.16 14.5 10.32 14.42 10.4133 14.28C10.5667 14.0467 10.5067 13.74 10.28 13.5867L8.5 12.4V11H11C12.5267 11 13.3333 10.1933 13.3333 8.66667V2.5H14C14.276 2.5 14.5 2.276 14.5 2C14.5 1.724 14.276 1.5 14 1.5ZM8 7.83333H5.33333C5.05733 7.83333 4.83333 7.60933 4.83333 7.33333C4.83333 7.05733 5.05733 6.83333 5.33333 6.83333H8C8.276 6.83333 8.5 7.05733 8.5 7.33333C8.5 7.60933 8.276 7.83333 8 7.83333ZM10.6667 5.83333H5.33333C5.05733 5.83333 4.83333 5.60933 4.83333 5.33333C4.83333 5.05733 5.05733 4.83333 5.33333 4.83333H10.6667C10.9427 4.83333 11.1667 5.05733 11.1667 5.33333C11.1667 5.60933 10.9427 5.83333 10.6667 5.83333Z" fill="#3B3B3E"/>
</svg>
