<svg width="16" height="16" viewBox="0 0 16 16" fill="none" xmlns="http://www.w3.org/2000/svg">
<path d="M8.5 4V2.5L11.5 5.5H10C8.94667 5.5 8.5 5.05333 8.5 4ZM8.5 12.3333C8.5 12.82 8.59327 13.2867 8.7666 13.72C8.81994 13.8533 8.73326 14 8.58659 14H4C2.66667 14 2 13.3333 2 12V4C2 2.66667 2.66667 2 4 2H7.5V4C7.5 5.61333 8.38667 6.5 10 6.5H12V8.34666C12 8.44666 11.9267 8.52667 11.8267 8.54C9.94666 8.78 8.5 10.3933 8.5 12.3333ZM5.16667 10.6667C5.16667 10.3907 4.94267 10.1667 4.66667 10.1667C4.39067 10.1667 4.16667 10.3907 4.16667 10.6667C4.16667 10.9427 4.39067 11.1667 4.66667 11.1667C4.94267 11.1667 5.16667 10.9427 5.16667 10.6667ZM5.16667 8C5.16667 7.724 4.94267 7.5 4.66667 7.5C4.39067 7.5 4.16667 7.724 4.16667 8C4.16667 8.276 4.39067 8.5 4.66667 8.5C4.94267 8.5 5.16667 8.276 5.16667 8ZM7.83333 10.6667C7.83333 10.3907 7.60933 10.1667 7.33333 10.1667H6.33333C6.05733 10.1667 5.83333 10.3907 5.83333 10.6667C5.83333 10.9427 6.05733 11.1667 6.33333 11.1667H7.33333C7.60933 11.1667 7.83333 10.9427 7.83333 10.6667ZM9.33333 8.5C9.60933 8.5 9.83333 8.276 9.83333 8C9.83333 7.724 9.60933 7.5 9.33333 7.5H6.33333C6.05733 7.5 5.83333 7.724 5.83333 8C5.83333 8.276 6.05733 8.5 6.33333 8.5H9.33333ZM15.1667 12.3333C15.1667 13.896 13.896 15.1667 12.3333 15.1667C10.7707 15.1667 9.5 13.896 9.5 12.3333C9.5 10.7707 10.7707 9.5 12.3333 9.5C13.896 9.5 15.1667 10.7707 15.1667 12.3333ZM10.7393 13.2207L13.2207 10.7387C12.9567 10.5913 12.6573 10.5 12.3333 10.5C11.322 10.5 10.5 11.3227 10.5 12.3333C10.5 12.6567 10.5913 12.9567 10.7393 13.2207ZM14.1667 12.3333C14.1667 12.01 14.0754 11.71 13.9274 11.446L11.446 13.928C11.71 14.0753 12.0093 14.1667 12.3333 14.1667C13.3447 14.1667 14.1667 13.344 14.1667 12.3333Z" fill="#3B3B3E"/>
</svg>
