<svg width="16" height="16" viewBox="0 0 16 16" fill="none" xmlns="http://www.w3.org/2000/svg">
<path d="M8.66634 5.33301V7.72363L9.80436 8.86165C10.065 9.12232 10.065 9.54369 9.80436 9.80436C9.67436 9.93436 9.50367 9.99967 9.33301 9.99967C9.16234 9.99967 8.99165 9.93436 8.86165 9.80436L7.52832 8.47103C7.40299 8.34569 7.33301 8.17634 7.33301 7.99967V5.33301C7.33301 4.96501 7.63101 4.66634 7.99967 4.66634C8.36834 4.66634 8.66634 4.96501 8.66634 5.33301ZM9.99967 4.66634C9.99967 5.03434 10.2977 5.33301 10.6663 5.33301H13.333C13.7017 5.33301 13.9997 5.03434 13.9997 4.66634V1.99967C13.9997 1.63167 13.7017 1.33301 13.333 1.33301C12.9643 1.33301 12.6663 1.63167 12.6663 1.99967V3.2863C11.433 2.05163 9.76242 1.33301 7.98242 1.33301C4.31642 1.33301 1.33301 4.32367 1.33301 7.99967C1.33301 11.6757 4.31642 14.6663 7.98242 14.6663C10.5311 14.6663 12.811 13.2463 13.9316 10.9596C14.0936 10.629 13.9576 10.2297 13.627 10.0677C13.2963 9.90571 12.8964 10.0424 12.735 10.373C11.8397 12.199 10.0191 13.333 7.98242 13.333C5.05176 13.333 2.66634 10.9403 2.66634 7.99967C2.66634 5.05901 5.05109 2.66634 7.98242 2.66634C9.29376 2.66634 10.5344 3.15101 11.4924 3.99967H10.6663C10.2977 3.99967 9.99967 4.29834 9.99967 4.66634Z" fill="#3B3B3E"/>
</svg>
