<svg width="16" height="16" viewBox="0 0 16 16" fill="none" xmlns="http://www.w3.org/2000/svg">
<path d="M7.99967 1.33301C4.31767 1.33301 1.33301 4.31767 1.33301 7.99967C1.33301 11.6817 4.31767 14.6663 7.99967 14.6663C11.6817 14.6663 14.6663 11.6817 14.6663 7.99967C14.6663 4.31767 11.6817 1.33301 7.99967 1.33301ZM7.49967 4.99967C7.49967 4.72367 7.72367 4.49967 7.99967 4.49967C8.27567 4.49967 8.49967 4.72367 8.49967 4.99967V8.04704C8.49967 8.32304 8.27567 8.54704 7.99967 8.54704C7.72367 8.54704 7.49967 8.32304 7.49967 8.04704V4.99967ZM8.01302 10.9997C7.64502 10.9997 7.34294 10.701 7.34294 10.333C7.34294 9.96501 7.63835 9.66634 8.00635 9.66634H8.01302C8.38169 9.66634 8.67969 9.96501 8.67969 10.333C8.67969 10.701 8.38102 10.9997 8.01302 10.9997Z" fill="#3B3B3E"/>
</svg>
