<svg width="16" height="16" viewBox="0 0 16 16" fill="none" xmlns="http://www.w3.org/2000/svg">
<path d="M13.8271 13.9267C13.8671 14.2 13.6738 14.4533 13.4005 14.4933C13.3738 14.4933 13.3538 14.4933 13.3271 14.4933C13.0805 14.4933 12.8671 14.3133 12.8338 14.0667L12.3271 10.5C12.2405 9.9 11.9538 9.32667 11.5271 8.9L9.05381 6.42668C8.84048 6.21334 8.49381 6.21334 8.27381 6.42668C8.09381 6.60668 8.06047 6.88667 8.19381 7.10667L11.0871 11.7333C11.2338 11.9667 11.1605 12.2733 10.9271 12.42C10.6938 12.5667 10.3871 12.4933 10.2405 12.26L9.82715 11.6067C9.60715 11.74 9.31382 11.8333 8.90048 11.8333H5.54048C6.10714 12.74 6.47381 13.1133 7.01381 13.6467C7.20715 13.84 7.20715 14.16 7.01381 14.3533C6.91381 14.4533 6.78715 14.5 6.66048 14.5C6.53382 14.5 6.40715 14.4533 6.30715 14.3533C5.67382 13.72 5.20048 13.24 4.37381 11.8267C3.36714 11.8067 2.82715 11.26 2.82715 10.24V3.09334C2.82715 2.05334 3.38048 1.5 4.42048 1.5H8.90048C9.94048 1.5 10.4938 2.05334 10.4938 3.09334V6.46L12.2271 8.19334C12.8071 8.77334 13.1938 9.54667 13.3138 10.36L13.8205 13.9267H13.8271Z" fill="#3B3B3E"/>
</svg>
