<svg width="16" height="16" viewBox="0 0 16 16" fill="none" xmlns="http://www.w3.org/2000/svg">
<path d="M11.7501 9.44982L13.5121 10.5005C13.8761 10.7178 14.0641 11.1405 13.9807 11.5565C13.6401 13.2625 11.9268 14.3558 10.2488 13.8952C6.28947 12.8085 3.19672 9.72515 2.10606 5.75715C1.64472 4.07849 2.73679 2.36381 4.44346 2.02247L4.45469 2.02048C4.87136 1.93715 5.29613 2.12581 5.5128 2.49181L6.55479 4.25115C6.92545 4.87649 6.74135 5.68314 6.13535 6.08581L5.0281 6.82248C5.80943 8.69381 7.30272 10.1932 9.16872 10.9732L9.91205 9.86315C10.318 9.25848 11.1248 9.07715 11.7501 9.44982ZM13.3334 3.83381H12.1668V2.66715C12.1668 2.39115 11.9428 2.16715 11.6668 2.16715C11.3908 2.16715 11.1668 2.39115 11.1668 2.66715V3.83381H10.0001C9.7241 3.83381 9.5001 4.05781 9.5001 4.33381C9.5001 4.60981 9.7241 4.83381 10.0001 4.83381H11.1668V6.00048C11.1668 6.27648 11.3908 6.50048 11.6668 6.50048C11.9428 6.50048 12.1668 6.27648 12.1668 6.00048V4.83381H13.3334C13.6094 4.83381 13.8334 4.60981 13.8334 4.33381C13.8334 4.05781 13.6094 3.83381 13.3334 3.83381Z" fill="#3B3B3E"/>
</svg>
