<svg width="16" height="16" viewBox="0 0 16 16" fill="none" xmlns="http://www.w3.org/2000/svg">
<path d="M12 2.66699H4C2.66667 2.66699 2 3.33366 2 4.66699V11.3337C2 12.667 2.66667 13.3337 4 13.3337H12C13.3333 13.3337 14 12.667 14 11.3337V4.66699C14 3.33366 13.3333 2.66699 12 2.66699ZM5.83333 9.16699C6.20133 9.16699 6.5 8.86766 6.5 8.50033H7.5C7.5 9.41899 6.75267 10.167 5.83333 10.167C4.914 10.167 4.16667 9.41899 4.16667 8.50033V7.50033C4.16667 6.58166 4.914 5.83366 5.83333 5.83366C6.75267 5.83366 7.5 6.58166 7.5 7.50033H6.5C6.5 7.13299 6.20133 6.83366 5.83333 6.83366C5.46533 6.83366 5.16667 7.13299 5.16667 7.50033V8.50033C5.16667 8.86766 5.46533 9.16699 5.83333 9.16699ZM10.1667 9.16699C10.5347 9.16699 10.8333 8.86766 10.8333 8.50033H11.8333C11.8333 9.41899 11.086 10.167 10.1667 10.167C9.24733 10.167 8.5 9.41899 8.5 8.50033V7.50033C8.5 6.58166 9.24733 5.83366 10.1667 5.83366C11.086 5.83366 11.8333 6.58166 11.8333 7.50033H10.8333C10.8333 7.13299 10.5347 6.83366 10.1667 6.83366C9.79867 6.83366 9.5 7.13299 9.5 7.50033V8.50033C9.5 8.86766 9.79867 9.16699 10.1667 9.16699Z" fill="#3B3B3E"/>
</svg>
