<svg width="16" height="16" viewBox="0 0 16 16" fill="none" xmlns="http://www.w3.org/2000/svg">
<path d="M2.82667 7.63968C6.04667 6.22635 8.19335 5.29968 9.27335 4.84634C12.34 3.55968 12.98 3.33967 13.3933 3.33301C13.4867 3.33301 13.6867 3.35301 13.82 3.45968C13.9334 3.55301 13.96 3.67301 13.98 3.75967C13.9933 3.84634 14.0133 4.04634 14 4.19968C13.8333 5.95968 13.1133 10.2197 12.7467 12.1863C12.5933 13.0197 12.2867 13.2997 11.9933 13.3263C11.3533 13.3863 10.8667 12.8997 10.24 12.493C9.26667 11.853 8.72002 11.453 7.77335 10.8263C6.68002 10.1063 7.38667 9.70634 8.01334 9.05967C8.17334 8.89301 11.0067 6.30635 11.06 6.06635C11.0667 6.03968 11.0734 5.92634 11.0067 5.87301C10.94 5.81301 10.8467 5.83301 10.78 5.85301C10.68 5.87301 9.12668 6.90634 6.12001 8.953C5.68001 9.25967 5.28002 9.40635 4.92002 9.39968C4.52668 9.39301 3.76667 9.17301 3.20001 8.99301C2.50667 8.76634 1.96002 8.64634 2.00669 8.25967C2.03335 8.05967 2.30667 7.85301 2.82667 7.64634V7.63968Z" fill="#3B3B3E"/>
</svg>
