<svg width="16" height="16" viewBox="0 0 16 16" fill="none" xmlns="http://www.w3.org/2000/svg">
<path d="M14.5 7.33333V10V10.5V12C14.5 12.2733 14.2733 12.5 14 12.5C13.7267 12.5 13.5 12.2733 13.5 12V10.5H8H2.5V12C2.5 12.276 2.276 12.5 2 12.5C1.724 12.5 1.5 12.276 1.5 12V4C1.5 3.724 1.724 3.5 2 3.5C2.276 3.5 2.5 3.724 2.5 4V9.5H7.5V5.33333C7.5 5.06 7.72667 4.83333 8 4.83333H12C13.6133 4.83333 14.5 5.72 14.5 7.33333ZM5 8.33333C5.92067 8.33333 6.66667 7.58733 6.66667 6.66667C6.66667 5.746 5.92067 5 5 5C4.07933 5 3.33333 5.746 3.33333 6.66667C3.33333 7.58733 4.07933 8.33333 5 8.33333Z" fill="#3B3B3E"/>
</svg>
