<svg width="16" height="16" viewBox="0 0 16 16" fill="none" xmlns="http://www.w3.org/2000/svg">
<path d="M13.6867 9.07341C13.6867 9.07341 14 9.5266 14 10.2599C14 11.4933 13.08 12.5067 11.8866 12.6533C11.6066 13.4933 10.9933 14 10 14C9.33333 14 8.5 13.4867 8.5 12.5801V11.3333C8.5 10.34 9.53331 9.79328 9.55998 9.77995C9.80664 9.65328 9.9067 9.35327 9.78003 9.10661C9.66003 8.85994 9.36003 8.76005 9.11336 8.88672C9.08003 8.90005 8.81333 9.03997 8.5 9.30664V8C8.5 7.00667 9.53331 6.45995 9.55998 6.44661C9.80664 6.31995 9.9067 6.01994 9.78003 5.77327C9.66003 5.52661 9.36003 5.42672 9.11336 5.55339C9.08003 5.56672 8.81333 5.70664 8.5 5.97331V3.05339C8.5 2.24005 9.03333 2 9.33333 2C10.82 2 11.26 3.48665 11.26 3.48665C11.26 3.48665 12.6667 4.00005 12.6667 5.54671C12.6667 5.73338 12.6467 5.91341 12.6 6.08008C13.4133 6.33341 14 7.10001 14 8.00667C14 8.40667 13.6867 9.07341 13.6867 9.07341ZM6.88664 5.55339C6.91997 5.56672 7.18667 5.70664 7.5 5.97331V3.05339C7.5 2.24005 6.96667 2 6.66667 2C5.18 2 4.73999 3.48665 4.73999 3.48665C4.73999 3.48665 3.33333 4.00005 3.33333 5.54671C3.33333 5.73338 3.35332 5.91341 3.39998 6.08008C2.58665 6.33341 2 7.10001 2 8.00667C2 8.40667 2.31331 9.07341 2.31331 9.07341C2.31331 9.07341 2 9.5266 2 10.2599C2 11.4933 2.92003 12.5067 4.11336 12.6533C4.39336 13.4933 5.00667 14 6 14C6.66667 14 7.5 13.4867 7.5 12.5801V11.3333C7.5 10.3333 6.45336 9.78661 6.44002 9.77995C6.19336 9.65328 6.09997 9.35327 6.21997 9.10661C6.34664 8.85994 6.64664 8.76005 6.88664 8.88672C6.91997 8.90005 7.18667 9.03997 7.5 9.30664V8C7.5 7 6.45336 6.45328 6.44002 6.44661C6.19336 6.31995 6.09997 6.01994 6.21997 5.77327C6.34664 5.52661 6.64664 5.42672 6.88664 5.55339Z" fill="#3B3B3E"/>
</svg>
