<svg width="16" height="16" viewBox="0 0 16 16" fill="none" xmlns="http://www.w3.org/2000/svg">
<path d="M12.471 5.1379C12.341 5.2679 12.1703 5.33321 11.9997 5.33321C11.829 5.33321 11.6583 5.2679 11.5283 5.1379L9.99967 3.60926V11.9999C9.99967 13.4705 8.80367 14.6665 7.33301 14.6665H3.99967C3.63101 14.6665 3.33301 14.3679 3.33301 13.9999C3.33301 13.6319 3.63101 13.3332 3.99967 13.3332H7.33301C8.06834 13.3332 8.66634 12.7352 8.66634 11.9999V3.60926L7.1377 5.1379C6.87703 5.39857 6.45565 5.39857 6.19499 5.1379C5.93432 4.87724 5.93432 4.45586 6.19499 4.19519L8.861 1.52918C8.923 1.46718 8.99629 1.41848 9.07829 1.38448C9.24095 1.31715 9.42506 1.31715 9.58773 1.38448C9.66973 1.41848 9.74301 1.46718 9.80501 1.52918L12.471 4.19519C12.7317 4.45586 12.7317 4.87724 12.471 5.1379Z" fill="#3B3B3E"/>
</svg>
