<svg width="16" height="16" viewBox="0 0 16 16" fill="none" xmlns="http://www.w3.org/2000/svg">
<path d="M11.6667 11.333H3C2.33333 11.333 2 10.9997 2 10.333V6.33301C2 5.66634 2.33333 5.33301 3 5.33301H11.6667C12.3333 5.33301 12.6667 5.66634 12.6667 6.33301V10.333C12.6667 10.9997 12.3333 11.333 11.6667 11.333ZM14.5 9.33301V7.33301C14.5 7.05701 14.276 6.83301 14 6.83301C13.724 6.83301 13.5 7.05701 13.5 7.33301V9.33301C13.5 9.60901 13.724 9.83301 14 9.83301C14.276 9.83301 14.5 9.60901 14.5 9.33301Z" fill="#3B3B3E"/>
</svg>
