<svg width="16" height="16" viewBox="0 0 16 16" fill="none" xmlns="http://www.w3.org/2000/svg">
<path d="M12.2664 3.05331L11.3604 3.73264C10.9624 4.0313 10.405 3.99132 10.053 3.63998L8.70703 2.29398C8.31636 1.90331 7.68297 1.90331 7.29297 2.29398L5.94702 3.63998C5.59502 3.99198 5.03765 4.0313 4.63965 3.73264L3.73364 3.05331C3.29431 2.72398 2.66699 3.03731 2.66699 3.58664V12.4153C2.66699 12.9646 3.29431 13.278 3.73364 12.9486L4.63965 12.2693C5.03765 11.9707 5.59502 12.0106 5.94702 12.362L7.29297 13.708C7.68364 14.0986 8.31703 14.0986 8.70703 13.708L10.053 12.362C10.405 12.01 10.9624 11.9707 11.3604 12.2693L12.2664 12.9486C12.7057 13.278 13.333 12.9646 13.333 12.4153V3.58664C13.333 3.03731 12.7057 2.72331 12.2664 3.05331ZM10.737 7.65931L9.71704 8.64597C9.64237 8.71797 9.6083 8.82198 9.6263 8.92398L9.8597 10.274C9.90703 10.548 9.61836 10.7566 9.37036 10.628L8.14632 9.98931C8.05432 9.94131 7.94503 9.94131 7.85303 9.98931L6.62964 10.6273C6.38164 10.7566 6.09232 10.5473 6.13965 10.2733L6.37305 8.92398C6.39038 8.82198 6.35631 8.71797 6.28231 8.64597L5.26237 7.65931C5.07504 7.47798 5.17835 7.16131 5.43701 7.12464L6.84831 6.92132C6.95097 6.90665 7.03969 6.84264 7.08569 6.74997L7.69702 5.52131C7.82102 5.27198 8.17898 5.27198 8.30298 5.52131L8.91431 6.74997C8.96031 6.84264 9.04903 6.90665 9.15169 6.92132L10.563 7.12464C10.8217 7.16198 10.9243 7.47798 10.737 7.65931Z" fill="#3B3B3E"/>
</svg>
