<svg width="16" height="16" viewBox="0 0 16 16" fill="none" xmlns="http://www.w3.org/2000/svg">
<path d="M8 2.66699C4.68667 2.66699 2 4.66698 2 8.00098C2 9.41431 2.48663 10.595 3.29997 11.475C3.19997 12.115 2.83995 12.8483 2.11328 13.435C1.89328 13.6216 2.01997 13.9883 2.30664 13.995C3.25331 14.0283 4.71327 13.9017 5.60661 12.9483C6.33994 13.2017 7.14667 13.335 8 13.335C11.3133 13.335 14 11.3343 14 8.00098C14 4.66698 11.3133 2.66699 8 2.66699ZM10.3534 7.02035L7.68669 9.68701C7.58935 9.78435 7.46133 9.83366 7.33333 9.83366C7.20533 9.83366 7.07731 9.78501 6.97998 9.68701L5.64665 8.35368C5.45131 8.15835 5.45131 7.84166 5.64665 7.64632C5.84198 7.45099 6.15867 7.45099 6.354 7.64632L7.33398 8.6263L9.6473 6.31299C9.84263 6.11766 10.1593 6.11766 10.3547 6.31299C10.55 6.50832 10.5487 6.82501 10.3534 7.02035Z" fill="#3B3B3E"/>
</svg>
