<svg width="16" height="16" viewBox="0 0 16 16" fill="none" xmlns="http://www.w3.org/2000/svg">
<path d="M11.75 2H4.25C2.75 2 2 2.75 2 4.25V11.75C2 13.25 2.75 14 4.25 14H11.75C13.25 14 14 13.25 14 11.75V4.25C14 2.75 13.25 2 11.75 2ZM5.33333 5.5H9.33333C9.60933 5.5 9.83333 5.724 9.83333 6C9.83333 6.276 9.60933 6.5 9.33333 6.5H5.33333C5.05733 6.5 4.83333 6.276 4.83333 6C4.83333 5.724 5.05733 5.5 5.33333 5.5ZM8 10.5H5.33333C5.05733 10.5 4.83333 10.276 4.83333 10C4.83333 9.724 5.05733 9.5 5.33333 9.5H8C8.276 9.5 8.5 9.724 8.5 10C8.5 10.276 8.276 10.5 8 10.5ZM10.6667 8.5H5.33333C5.05733 8.5 4.83333 8.276 4.83333 8C4.83333 7.724 5.05733 7.5 5.33333 7.5H10.6667C10.9427 7.5 11.1667 7.724 11.1667 8C11.1667 8.276 10.9427 8.5 10.6667 8.5Z" fill="#3B3B3E"/>
</svg>
