<svg width="16" height="16" viewBox="0 0 16 16" fill="none" xmlns="http://www.w3.org/2000/svg">
<path d="M11.75 2H4.25C2.75 2 2 2.75 2 4.25V11.75C2 13.25 2.75 14 4.25 14H11.75C13.25 14 14 13.25 14 11.75V4.25C14 2.75 13.25 2 11.75 2ZM7.5 5C7.5 4.724 7.724 4.5 8 4.5C8.276 4.5 8.5 4.724 8.5 5V8.04736C8.5 8.32336 8.276 8.54736 8 8.54736C7.724 8.54736 7.5 8.32336 7.5 8.04736V5ZM8.01335 11C7.64535 11 7.34326 10.7013 7.34326 10.3333C7.34326 9.96533 7.63867 9.66667 8.00667 9.66667H8.01335C8.38201 9.66667 8.68001 9.96533 8.68001 10.3333C8.68001 10.7013 8.38135 11 8.01335 11Z" fill="#3B3B3E"/>
</svg>
