<svg width="16" height="16" viewBox="0 0 16 16" fill="none" xmlns="http://www.w3.org/2000/svg">
<path d="M12.9707 7.19864C12.9174 7.07798 12.7981 7.00064 12.6661 7.00064H9.66605V2.00064C9.66605 1.86264 9.5814 1.73865 9.45206 1.68931C9.32206 1.63931 9.17738 1.67531 9.08471 1.77731L3.08471 8.44397C2.99671 8.54197 2.97407 8.68198 3.02807 8.80265C3.08141 8.92331 3.20072 9.00064 3.33272 9.00064H6.33272V14.0006C6.33272 14.1386 6.41738 14.2627 6.54671 14.312C6.58604 14.3267 6.62605 14.334 6.66605 14.334C6.75872 14.334 6.84939 14.2953 6.91406 14.2233L12.9141 7.55664C13.0021 7.45931 13.024 7.31864 12.9707 7.19864Z" fill="#3B3B3E"/>
</svg>
