<svg width="16" height="16" viewBox="0 0 16 16" fill="none" xmlns="http://www.w3.org/2000/svg">
<path d="M11.6667 5.33301H3C2.33333 5.33301 2 5.66634 2 6.33301V10.333C2 10.9997 2.33333 11.333 3 11.333H11.6667C12.3333 11.333 12.6667 10.9997 12.6667 10.333V6.33301C12.6667 5.66634 12.3333 5.33301 11.6667 5.33301ZM4.5 9.66634C4.5 9.94234 4.276 10.1663 4 10.1663C3.724 10.1663 3.5 9.94234 3.5 9.66634V6.99967C3.5 6.72367 3.724 6.49967 4 6.49967C4.276 6.49967 4.5 6.72367 4.5 6.99967V9.66634ZM6.16667 9.66634C6.16667 9.94234 5.94267 10.1663 5.66667 10.1663C5.39067 10.1663 5.16667 9.94234 5.16667 9.66634V6.99967C5.16667 6.72367 5.39067 6.49967 5.66667 6.49967C5.94267 6.49967 6.16667 6.72367 6.16667 6.99967V9.66634ZM7.83333 9.66634C7.83333 9.94234 7.60933 10.1663 7.33333 10.1663C7.05733 10.1663 6.83333 9.94234 6.83333 9.66634V6.99967C6.83333 6.72367 7.05733 6.49967 7.33333 6.49967C7.60933 6.49967 7.83333 6.72367 7.83333 6.99967V9.66634ZM14 9.83301C13.724 9.83301 13.5 9.60901 13.5 9.33301V7.33301C13.5 7.05701 13.724 6.83301 14 6.83301C14.276 6.83301 14.5 7.05701 14.5 7.33301V9.33301C14.5 9.60901 14.276 9.83301 14 9.83301Z" fill="#3B3B3E"/>
</svg>
