<svg width="16" height="16" viewBox="0 0 16 16" fill="none" xmlns="http://www.w3.org/2000/svg">
<path d="M14 4.66699V11.3337C14 12.667 13.3333 13.3337 12 13.3337H4C2.66667 13.3337 2 12.667 2 11.3337V8.70036C2 8.58969 2.08937 8.50033 2.20003 8.50033H5.33333C5.5 8.50033 5.66 8.41361 5.74666 8.28027L6.51335 7.12695L7.52669 10.1603C7.58669 10.3403 7.74668 10.4737 7.93335 10.4937C7.95335 10.5003 7.98 10.5003 8 10.5003C8.16667 10.5003 8.32 10.4203 8.41333 10.2803L9.60002 8.50033H10.6667C10.94 8.50033 11.1667 8.27366 11.1667 8.00033C11.1667 7.72699 10.94 7.50033 10.6667 7.50033H9.33333C9.16667 7.50033 9.00667 7.58704 8.92 7.72038L8.15332 8.8737L7.13997 5.84033C7.07997 5.66033 6.91998 5.527 6.73332 5.507C6.53998 5.47367 6.36 5.56704 6.25334 5.72038L5.06665 7.50033H2.20003C2.08937 7.50033 2 7.41096 2 7.30029V4.66699C2 3.33366 2.66667 2.66699 4 2.66699H12C13.3333 2.66699 14 3.33366 14 4.66699Z" fill="#3B3B3E"/>
</svg>
