<svg width="16" height="16" viewBox="0 0 16 16" fill="none" xmlns="http://www.w3.org/2000/svg">
<path d="M12 4.66599H6.24805L10.8254 3.13995C11.0874 3.05262 11.2286 2.7693 11.1419 2.5073C11.0539 2.2453 10.7726 2.10272 10.5093 2.19139L4.50928 4.19138C4.29994 4.26072 4.17401 4.45601 4.17334 4.66534H4C2.66667 4.66534 2 5.33201 2 6.66534V11.332C2 12.6653 2.66667 13.332 4 13.332H12C13.3333 13.332 14 12.6653 14 11.332V6.66534C14 5.33268 13.3333 4.66599 12 4.66599ZM5.66667 10.666C4.746 10.666 4 9.91999 4 8.99933C4 8.07866 4.746 7.33266 5.66667 7.33266C6.58733 7.33266 7.33333 8.07866 7.33333 8.99933C7.33333 9.91999 6.58733 10.666 5.66667 10.666ZM12 10.4993H9.33333C9.05733 10.4993 8.83333 10.2753 8.83333 9.99933C8.83333 9.72333 9.05733 9.49933 9.33333 9.49933H12C12.276 9.49933 12.5 9.72333 12.5 9.99933C12.5 10.2753 12.276 10.4993 12 10.4993ZM12 8.49933H9.33333C9.05733 8.49933 8.83333 8.27533 8.83333 7.99933C8.83333 7.72333 9.05733 7.49933 9.33333 7.49933H12C12.276 7.49933 12.5 7.72333 12.5 7.99933C12.5 8.27533 12.276 8.49933 12 8.49933Z" fill="#3B3B3E"/>
</svg>
