<svg width="16" height="16" viewBox="0 0 16 16" fill="none" xmlns="http://www.w3.org/2000/svg">
<path d="M10.2797 2.10641C10.9397 2.03308 11.6397 1.99308 12.3797 1.99974C13.2664 2.00641 13.9931 2.73307 13.9997 3.61974C14.0064 4.39307 13.9664 5.11975 13.8864 5.80641L10.2797 2.09974V2.10641ZM2.11306 10.1864C2.03306 10.8731 1.99307 11.5997 1.99974 12.3731C2.00641 13.2597 2.73307 13.9864 3.61974 13.9931C4.35974 13.9997 5.05975 13.9597 5.71975 13.8864L2.11306 10.1797V10.1864ZM13.6864 7.03974C12.9131 10.7397 10.6598 12.9597 6.93309 13.7064L2.30642 8.95307C3.07976 5.25307 5.33309 3.03307 9.05976 2.2864L13.6864 7.03974ZM10.0331 6.65975L10.3464 6.34641C10.5398 6.15308 10.5398 5.83308 10.3464 5.63975C10.1531 5.44641 9.83309 5.44641 9.63976 5.63975L9.3264 5.95307L9.01309 5.63975C8.81975 5.44641 8.49976 5.44641 8.30642 5.63975C8.11309 5.83308 8.11309 6.15308 8.30642 6.34641L8.61974 6.65975L7.99307 7.2864L7.34642 6.63975C7.15309 6.44641 6.83309 6.44641 6.63976 6.63975C6.44642 6.83308 6.44642 7.15308 6.63976 7.34641L7.2864 7.99308L6.65973 8.61974L6.34642 8.30641C6.15309 8.11308 5.83309 8.11308 5.63976 8.30641C5.44642 8.49975 5.44642 8.81974 5.63976 9.01308L5.95307 9.32641L5.63976 9.63975C5.44642 9.83308 5.44642 10.1531 5.63976 10.3464C5.73976 10.4464 5.8664 10.4931 5.99307 10.4931C6.11973 10.4931 6.24642 10.4464 6.34642 10.3464L6.65973 10.0331L6.97309 10.3464C7.07309 10.4464 7.19973 10.4931 7.3264 10.4931C7.45307 10.4931 7.57975 10.4464 7.67975 10.3464C7.87309 10.1531 7.87309 9.83308 7.67975 9.63975L7.3664 9.32641L7.99307 8.69974L8.63976 9.34641C8.73976 9.44641 8.8664 9.49308 8.99307 9.49308C9.11973 9.49308 9.24642 9.44641 9.34642 9.34641C9.53975 9.15308 9.53975 8.83308 9.34642 8.63975L8.69973 7.99308L9.3264 7.36641L9.63976 7.67975C9.73976 7.77975 9.8664 7.82641 9.99307 7.82641C10.1197 7.82641 10.2464 7.77975 10.3464 7.67975C10.5398 7.48641 10.5398 7.16641 10.3464 6.97308L10.0331 6.65975Z" fill="#3B3B3E"/>
</svg>
