<svg width="16" height="16" viewBox="0 0 16 16" fill="none" xmlns="http://www.w3.org/2000/svg">
<path d="M7.66634 4.66699C7.66634 2.70699 8.70634 1.66699 10.6663 1.66699C10.853 1.66699 10.9997 1.81366 10.9997 2.00033C10.9997 3.96033 9.95967 5.00033 7.99967 5.00033C7.81301 5.00033 7.66634 4.85366 7.66634 4.66699ZM10.393 6.007C9.27967 5.78033 8.58634 6.06033 7.99967 6.67367C7.41301 6.06033 6.71968 5.78033 5.60634 6.007C4.07968 6.32033 3.33301 7.58699 3.33301 9.33366C3.33301 11.467 4.86634 14.0003 6.41968 14.0003C7.36634 14.0003 7.39967 13.667 7.99967 13.667C8.59967 13.667 8.633 14.0003 9.57967 14.0003C11.133 14.0003 12.6663 11.467 12.6663 9.33366C12.6663 7.58699 11.9197 6.32033 10.393 6.007Z" fill="#3B3B3E"/>
</svg>
