<svg width="16" height="16" viewBox="0 0 16 16" fill="none" xmlns="http://www.w3.org/2000/svg">
<path d="M7.99967 1.33301C4.31767 1.33301 1.33301 4.31767 1.33301 7.99967C1.33301 11.6817 4.31767 14.6663 7.99967 14.6663C11.6817 14.6663 14.6663 11.6817 14.6663 7.99967C14.6663 4.31767 11.6817 1.33301 7.99967 1.33301ZM6.99967 10.333C6.99967 10.9997 6.66634 11.333 5.99967 11.333C5.33301 11.333 4.99967 10.9997 4.99967 10.333V8.33301C4.99967 7.66634 5.33301 7.33301 5.99967 7.33301C6.66634 7.33301 6.99967 7.66634 6.99967 8.33301V10.333ZM10.9997 10.333C10.9997 10.9997 10.6663 11.333 9.99967 11.333C9.33301 11.333 8.99967 10.9997 8.99967 10.333V5.66634C8.99967 4.99967 9.33301 4.66634 9.99967 4.66634C10.6663 4.66634 10.9997 4.99967 10.9997 5.66634V10.333Z" fill="#3B3B3E"/>
</svg>
