<svg width="16" height="16" viewBox="0 0 16 16" fill="none" xmlns="http://www.w3.org/2000/svg">
<path d="M12 2H4C2.66667 2 2 2.66667 2 4V14L4 12H12C13.3333 12 14 11.3333 14 10V4C14 2.66667 13.3333 2 12 2ZM11.02 6.2867L9.52995 7.77669C9.33595 7.97136 9.07597 8.07935 8.79997 8.07935C8.79997 8.07935 8.79998 8.07935 8.79932 8.07935C8.52398 8.07935 8.26465 7.97199 8.06999 7.77799L7.22266 6.93197L5.68669 8.42C5.58935 8.51734 5.46133 8.56665 5.33333 8.56665C5.20533 8.56665 5.07731 8.518 4.97998 8.42C4.78465 8.22467 4.78465 7.90798 4.97998 7.71265L6.46794 6.22469C6.8706 5.82269 7.52604 5.82204 7.92871 6.22404L8.77604 7.06999L10.3133 5.58C10.5086 5.38466 10.8253 5.38466 11.0207 5.58C11.216 5.77533 11.2154 6.09137 11.02 6.2867Z" fill="#3B3B3E"/>
</svg>
