<svg width="16" height="16" viewBox="0 0 16 16" fill="none" xmlns="http://www.w3.org/2000/svg">
<path d="M7.08076 2.06859C4.88009 2.39592 3.00075 3.97592 2.31009 6.09126C1.79875 7.65726 1.95668 9.21525 2.55602 10.5046C2.69602 10.7979 2.69606 11.1379 2.59606 11.4512L2.036 13.1173C1.86 13.6406 2.35934 14.1399 2.88268 13.9639L4.54934 13.4039C4.86268 13.3039 5.20262 13.3039 5.49596 13.4439C6.25596 13.7972 7.10865 13.9972 8.00198 13.9972C8.33731 13.9972 8.668 13.9712 8.98733 13.9186C9.106 13.8992 9.17333 13.7779 9.14 13.6626C9.02933 13.2719 8.9813 12.8552 9.0093 12.4199C9.12664 10.6199 10.6227 9.12322 12.4234 9.00589C12.8587 8.97789 13.2747 9.02592 13.666 9.13658C13.7814 9.16925 13.9021 9.10191 13.9221 8.98391C13.9747 8.66458 14.0007 8.3339 14.0007 7.99856C14 4.3839 10.8014 1.51526 7.08076 2.06859ZM8.66669 9.83324H5.33336C5.05736 9.83324 4.83336 9.60924 4.83336 9.33324C4.83336 9.05724 5.05736 8.83324 5.33336 8.83324H8.66669C8.94269 8.83324 9.16669 9.05724 9.16669 9.33324C9.16669 9.60924 8.94269 9.83324 8.66669 9.83324ZM10.6667 7.16657H5.33336C5.05736 7.16657 4.83336 6.94257 4.83336 6.66657C4.83336 6.39057 5.05736 6.16657 5.33336 6.16657H10.6667C10.9427 6.16657 11.1667 6.39057 11.1667 6.66657C11.1667 6.94257 10.9427 7.16657 10.6667 7.16657ZM11.778 14.4999C11.65 14.4999 11.522 14.4513 11.4247 14.3533L10.3133 13.2419C10.118 13.0466 10.118 12.7299 10.3133 12.5346C10.5087 12.3392 10.8254 12.3392 11.0207 12.5346L11.7787 13.2919L13.6473 11.4232C13.8427 11.2279 14.1593 11.2279 14.3547 11.4232C14.55 11.6186 14.55 11.9352 14.3547 12.1306L12.1327 14.3526C12.034 14.4512 11.906 14.4999 11.778 14.4999Z" fill="#3B3B3E"/>
</svg>
