<svg width="16" height="16" viewBox="0 0 16 16" fill="none" xmlns="http://www.w3.org/2000/svg">
<path d="M5.33301 10.6663C5.33301 11.0343 5.03434 11.333 4.66634 11.333H3.99967V13.9997C3.99967 14.3677 3.70101 14.6663 3.33301 14.6663C2.96501 14.6663 2.66634 14.3677 2.66634 13.9997V11.333H1.99967C1.63167 11.333 1.33301 11.0343 1.33301 10.6663C1.33301 10.2983 1.63167 9.99967 1.99967 9.99967H4.66634C5.03434 9.99967 5.33301 10.2983 5.33301 10.6663ZM3.33301 8.66634C3.70101 8.66634 3.99967 8.36767 3.99967 7.99967V1.99967C3.99967 1.63167 3.70101 1.33301 3.33301 1.33301C2.96501 1.33301 2.66634 1.63167 2.66634 1.99967V7.99967C2.66634 8.36767 2.96501 8.66634 3.33301 8.66634ZM7.99967 7.33301C7.63167 7.33301 7.33301 7.63167 7.33301 7.99967V13.9997C7.33301 14.3677 7.63167 14.6663 7.99967 14.6663C8.36767 14.6663 8.66634 14.3677 8.66634 13.9997V7.99967C8.66634 7.63167 8.36767 7.33301 7.99967 7.33301ZM9.33301 4.66634H8.66634V1.99967C8.66634 1.63167 8.36767 1.33301 7.99967 1.33301C7.63167 1.33301 7.33301 1.63167 7.33301 1.99967V4.66634H6.66634C6.29834 4.66634 5.99967 4.96501 5.99967 5.33301C5.99967 5.70101 6.29834 5.99967 6.66634 5.99967H9.33301C9.70101 5.99967 9.99967 5.70101 9.99967 5.33301C9.99967 4.96501 9.70101 4.66634 9.33301 4.66634ZM13.9997 9.99967H11.333C10.965 9.99967 10.6663 10.2983 10.6663 10.6663C10.6663 11.0343 10.965 11.333 11.333 11.333H11.9997V13.9997C11.9997 14.3677 12.2983 14.6663 12.6663 14.6663C13.0343 14.6663 13.333 14.3677 13.333 13.9997V11.333H13.9997C14.3677 11.333 14.6663 11.0343 14.6663 10.6663C14.6663 10.2983 14.3677 9.99967 13.9997 9.99967ZM12.6663 8.66634C13.0343 8.66634 13.333 8.36767 13.333 7.99967V1.99967C13.333 1.63167 13.0343 1.33301 12.6663 1.33301C12.2983 1.33301 11.9997 1.63167 11.9997 1.99967V7.99967C11.9997 8.36767 12.2983 8.66634 12.6663 8.66634Z" fill="#3B3B3E"/>
</svg>
