<svg width="16" height="16" viewBox="0 0 16 16" fill="none" xmlns="http://www.w3.org/2000/svg">
<path d="M14 6V4C14 2.66667 13.3333 2 12 2H4C2.66667 2 2 2.66667 2 4V6C2 7.33333 2.66667 8 4 8C2.66667 8 2 8.66667 2 10V12C2 13.3333 2.66667 14 4 14H12C13.3333 14 14 13.3333 14 12V10C14 8.66667 13.3333 8 12 8C13.3333 8 14 7.33333 14 6ZM9.66667 11.6667C9.29867 11.6667 9 11.368 9 11C9 10.632 9.29867 10.3333 9.66667 10.3333C10.0347 10.3333 10.3333 10.632 10.3333 11C10.3333 11.368 10.0347 11.6667 9.66667 11.6667ZM9.66667 5.66667C9.29867 5.66667 9 5.368 9 5C9 4.632 9.29867 4.33333 9.66667 4.33333C10.0347 4.33333 10.3333 4.632 10.3333 5C10.3333 5.368 10.0347 5.66667 9.66667 5.66667ZM12.3333 11C12.3333 11.368 12.0347 11.6667 11.6667 11.6667C11.2987 11.6667 11 11.368 11 11C11 10.632 11.2987 10.3333 11.6667 10.3333C12.0347 10.3333 12.3333 10.632 12.3333 11ZM11.6667 5.66667C11.2987 5.66667 11 5.368 11 5C11 4.632 11.2987 4.33333 11.6667 4.33333C12.0347 4.33333 12.3333 4.632 12.3333 5C12.3333 5.368 12.0347 5.66667 11.6667 5.66667Z" fill="#3B3B3E"/>
</svg>
