<svg width="16" height="16" viewBox="0 0 16 16" fill="none" xmlns="http://www.w3.org/2000/svg">
<path d="M12 2H4C2.66667 2 2 2.66667 2 4V14L4 12H12C13.3333 12 14 11.3333 14 10V4C14 2.66667 13.3333 2 12 2ZM10.7373 6.65869L9.71729 7.64535C9.64262 7.71735 9.60863 7.82134 9.62663 7.92334L9.86003 9.27336C9.90736 9.54736 9.61861 9.75603 9.37061 9.62736L8.14665 8.98869C8.05465 8.94069 7.94534 8.94069 7.854 8.98869L6.6307 9.62663C6.3827 9.75596 6.09329 9.54671 6.14063 9.27271L6.37402 7.92334C6.39136 7.82134 6.35737 7.71735 6.28337 7.64535L5.26335 6.65869C5.07601 6.47736 5.17932 6.16136 5.43799 6.12402L6.84928 5.92065C6.95195 5.90599 7.04059 5.84202 7.08659 5.74935L7.69808 4.52067C7.82208 4.27134 8.18004 4.27134 8.30404 4.52067L8.91536 5.74935C8.96136 5.84202 9.05 5.90599 9.15267 5.92065L10.564 6.12402C10.822 6.16136 10.9246 6.47736 10.7373 6.65869Z" fill="#3B3B3E"/>
</svg>
