<svg width="16" height="16" viewBox="0 0 16 16" fill="none" xmlns="http://www.w3.org/2000/svg">
<path d="M12 2H4C2.66667 2 2 2.66667 2 4V12C2 13.3333 2.66667 14 4 14H12C13.3333 14 14 13.3333 14 12V4C14 2.66667 13.3333 2 12 2ZM4.61333 12.2533C4.58 12.34 4.53333 12.4133 4.47333 12.4733C4.34667 12.5933 4.17333 12.6667 4 12.6667C3.82667 12.6667 3.65333 12.5933 3.52667 12.4733C3.40667 12.3467 3.33333 12.1733 3.33333 12C3.33333 11.96 3.33333 11.9133 3.34667 11.8667C3.34667 11.8267 3.36667 11.7867 3.38667 11.7467C3.4 11.7067 3.42 11.6667 3.44667 11.6267C3.46667 11.5933 3.5 11.56 3.52667 11.5267C3.77333 11.28 4.22 11.28 4.47333 11.5267C4.59333 11.6533 4.66667 11.82 4.66667 12C4.66667 12.0867 4.64667 12.1733 4.61333 12.2533V12.2533ZM11.28 5.54667L10.54 7.14C10.4867 7.26 10.3667 7.33333 10.24 7.33333H8.50667V5.66667C8.50667 5.39333 8.28 5.16667 8.00667 5.16667C7.73333 5.16667 7.50667 5.39333 7.50667 5.66667V7.33333H5.77334C5.64667 7.33333 5.52667 7.26 5.47333 7.14L4.73333 5.54667C4.59333 5.25333 4.72 4.90667 5.00667 4.75333C5.9 4.26667 6.92666 3.99333 8.01333 3.99333C9.1 3.99333 10.12 4.26667 11.02 4.75333C11.3067 4.90667 11.4333 5.25333 11.2933 5.54667H11.28ZM12.4733 12.4733C12.4067 12.5333 12.34 12.58 12.2533 12.6133C12.1733 12.6467 12.0867 12.6667 12 12.6667C11.8267 12.6667 11.6533 12.5933 11.5267 12.4733C11.4067 12.3467 11.3333 12.1733 11.3333 12C11.3333 11.8267 11.4067 11.6533 11.5267 11.5267C11.7133 11.34 12.0133 11.2867 12.2533 11.3867C12.34 11.42 12.4067 11.4667 12.4733 11.5267C12.5933 11.6533 12.6667 11.8267 12.6667 12C12.6667 12.1733 12.5933 12.3467 12.4733 12.4733V12.4733Z" fill="#3B3B3E"/>
</svg>
