<svg width="16" height="16" viewBox="0 0 16 16" fill="none" xmlns="http://www.w3.org/2000/svg">
<path d="M8.01204 1.33301C6.51871 2.07367 5.33333 2.66634 2 3.33301C2 4.09101 2 6.46762 2 7.25895C2 11.7036 5.778 13.9257 8 14.6663C10.222 13.9257 14 11.7036 14 7.25895C14 6.44228 14 4.12901 14 3.33301C10.6667 2.66634 9.48138 2.07367 8.01204 1.33301ZM7.5 5.66634C7.5 5.39034 7.724 5.16634 8 5.16634C8.276 5.16634 8.5 5.39034 8.5 5.66634V7.66634C8.5 7.94234 8.276 8.16634 8 8.16634C7.724 8.16634 7.5 7.94234 7.5 7.66634V5.66634ZM8.01335 10.333C7.64535 10.333 7.34326 10.0343 7.34326 9.66634C7.34326 9.29834 7.63867 8.99967 8.00667 8.99967H8.01335C8.38201 8.99967 8.68001 9.29834 8.68001 9.66634C8.68001 10.0343 8.38135 10.333 8.01335 10.333Z" fill="#3B3B3E"/>
</svg>
