<svg width="16" height="16" viewBox="0 0 16 16" fill="none" xmlns="http://www.w3.org/2000/svg">
<path d="M3.23381 9.83391C2.82048 9.83391 1.96048 9.83391 1.56715 9.83391C1.46048 9.83391 1.37382 9.75391 1.36715 9.65391C1.34048 9.34724 1.32715 9.02058 1.32715 8.66725C1.32715 8.46058 1.32715 8.26058 1.34048 8.06725C1.34715 7.90725 1.48048 7.86058 1.55382 7.86725C2.15381 7.92725 3.16715 8.20725 3.42715 9.59391C3.44715 9.71391 3.35381 9.82725 3.23381 9.82725V9.83391ZM12.0005 6.68058C11.8005 6.68058 11.5938 6.66058 11.3938 6.62725L10.3538 7.66725C10.2538 7.76058 10.1271 7.81391 10.0005 7.81391C9.87381 7.81391 9.74715 7.76058 9.64715 7.66725C9.45381 7.46725 9.45381 7.15392 9.64715 6.96058L10.2938 6.31391C10.0005 6.20058 9.71381 6.06725 9.44715 5.92725L8.35381 7.02058C8.25381 7.11391 8.12715 7.16725 8.00048 7.16725C7.87381 7.16725 7.74715 7.11391 7.64715 7.02058C7.45382 6.82058 7.45382 6.50725 7.64715 6.31391L8.56048 5.40058C7.95381 5.01392 7.56048 4.68058 7.56048 4.68058C7.49381 4.65392 7.42048 4.66725 7.36715 4.71392C5.99382 5.90725 3.58715 5.94725 2.31382 4.82725C2.20715 4.74058 2.05382 4.76058 2.00048 4.88058C1.86715 5.17392 1.64715 5.76725 1.50048 6.64725C1.48048 6.76058 1.56715 6.86725 1.68048 6.88058C3.25381 7.03392 4.24715 8.01392 4.45381 9.66058C4.46715 9.76058 4.54715 9.84058 4.64715 9.84058H14.4671C14.6738 9.84058 14.6671 9.69391 14.6671 9.69391V9.40058C14.6671 9.40058 14.5871 6.68725 12.0005 6.68725V6.68058ZM14.5005 10.8339H1.70715C1.60715 10.8339 1.52715 10.9339 1.54048 11.0339C1.54715 11.0872 1.56048 11.1406 1.56715 11.1872C1.64715 11.6606 2.06715 12.0006 2.54715 12.0006H13.6671C14.2205 12.0006 14.6671 11.5539 14.6671 11.0006C14.6671 10.9072 14.5938 10.8339 14.5005 10.8339Z" fill="#3B3B3E"/>
</svg>
