<svg width="16" height="16" viewBox="0 0 16 16" fill="none" xmlns="http://www.w3.org/2000/svg">
<path d="M7.99967 1.33301C4.31767 1.33301 1.33301 4.31767 1.33301 7.99967C1.33301 11.6817 4.31767 14.6663 7.99967 14.6663C11.6817 14.6663 14.6663 11.6817 14.6663 7.99967C14.6663 4.31767 11.6817 1.33301 7.99967 1.33301ZM9.49967 10.4997H5.99967C5.72367 10.4997 5.49967 10.2757 5.49967 9.99967C5.49967 9.72367 5.72367 9.49967 5.99967 9.49967H9.49967C10.051 9.49967 10.4997 9.05101 10.4997 8.49967C10.4997 7.94834 10.051 7.49967 9.49967 7.49967H6.20703L6.35368 7.64632C6.54901 7.84165 6.54901 8.15834 6.35368 8.35368C6.25634 8.45101 6.12833 8.50033 6.00033 8.50033C5.87233 8.50033 5.74431 8.45168 5.64697 8.35368L4.64697 7.35368C4.60097 7.30768 4.5644 7.25241 4.53906 7.19108C4.4884 7.06908 4.4884 6.93108 4.53906 6.80908C4.5644 6.74775 4.60097 6.69232 4.64697 6.64632L5.64697 5.64632C5.84231 5.45099 6.159 5.45099 6.35433 5.64632C6.54966 5.84165 6.54966 6.15834 6.35433 6.35368L6.20768 6.50033H9.50033C10.603 6.50033 11.5003 7.39766 11.5003 8.50033C11.5003 9.60299 10.6023 10.4997 9.49967 10.4997Z" fill="#3B3B3E"/>
</svg>
