<svg width="16" height="16" viewBox="0 0 16 16" fill="none" xmlns="http://www.w3.org/2000/svg">
<path d="M4.66667 3V3.66667C4.66667 4.33333 4.33333 4.66667 3.66667 4.66667H3C2.33333 4.66667 2 4.33333 2 3.66667V3C2 2.33333 2.33333 2 3 2H3.66667C4.33333 2 4.66667 2.33333 4.66667 3ZM8.33333 2H7.66667C7 2 6.66667 2.33333 6.66667 3V3.66667C6.66667 4.33333 7 4.66667 7.66667 4.66667H8.33333C9 4.66667 9.33333 4.33333 9.33333 3.66667V3C9.33333 2.33333 9 2 8.33333 2ZM13 2H12.3333C11.6667 2 11.3333 2.33333 11.3333 3V3.66667C11.3333 4.33333 11.6667 4.66667 12.3333 4.66667H13C13.6667 4.66667 14 4.33333 14 3.66667V3C14 2.33333 13.6667 2 13 2ZM3.66667 6.66667H3C2.33333 6.66667 2 7 2 7.66667V8.33333C2 9 2.33333 9.33333 3 9.33333H3.66667C4.33333 9.33333 4.66667 9 4.66667 8.33333V7.66667C4.66667 7 4.33333 6.66667 3.66667 6.66667ZM8.33333 6.66667H7.66667C7 6.66667 6.66667 7 6.66667 7.66667V8.33333C6.66667 9 7 9.33333 7.66667 9.33333H8.33333C9 9.33333 9.33333 9 9.33333 8.33333V7.66667C9.33333 7 9 6.66667 8.33333 6.66667ZM13 6.66667H12.3333C11.6667 6.66667 11.3333 7 11.3333 7.66667V8.33333C11.3333 9 11.6667 9.33333 12.3333 9.33333H13C13.6667 9.33333 14 9 14 8.33333V7.66667C14 7 13.6667 6.66667 13 6.66667ZM3.66667 11.3333H3C2.33333 11.3333 2 11.6667 2 12.3333V13C2 13.6667 2.33333 14 3 14H3.66667C4.33333 14 4.66667 13.6667 4.66667 13V12.3333C4.66667 11.6667 4.33333 11.3333 3.66667 11.3333ZM8.33333 11.3333H7.66667C7 11.3333 6.66667 11.6667 6.66667 12.3333V13C6.66667 13.6667 7 14 7.66667 14H8.33333C9 14 9.33333 13.6667 9.33333 13V12.3333C9.33333 11.6667 9 11.3333 8.33333 11.3333ZM13 11.3333H12.3333C11.6667 11.3333 11.3333 11.6667 11.3333 12.3333V13C11.3333 13.6667 11.6667 14 12.3333 14H13C13.6667 14 14 13.6667 14 13V12.3333C14 11.6667 13.6667 11.3333 13 11.3333Z" fill="#3B3B3E"/>
</svg>
