<svg width="16" height="16" viewBox="0 0 16 16" fill="none" xmlns="http://www.w3.org/2000/svg">
<path d="M12 4.5H4C3.724 4.5 3.5 4.276 3.5 4C3.5 3.724 3.724 3.5 4 3.5H12C12.276 3.5 12.5 3.724 12.5 4C12.5 4.276 12.276 4.5 12 4.5ZM11.1667 2C11.1667 1.724 10.9427 1.5 10.6667 1.5H5.33333C5.05733 1.5 4.83333 1.724 4.83333 2C4.83333 2.276 5.05733 2.5 5.33333 2.5H10.6667C10.9427 2.5 11.1667 2.276 11.1667 2ZM14 8V12.6667C14 14 13.3333 14.6667 12 14.6667H4C2.66667 14.6667 2 14 2 12.6667V8C2 6.66667 2.66667 6 4 6H12C13.3333 6 14 6.66667 14 8ZM9.7207 9.83594L7.62134 8.55127C7.20334 8.29594 6.66602 8.59532 6.66602 9.08398V11.582C6.66602 12.0707 7.20334 12.3707 7.62134 12.1147L9.7207 10.8301C10.0934 10.6027 10.0934 10.0639 9.7207 9.83594Z" fill="#3B3B3E"/>
</svg>
