<svg width="16" height="16" viewBox="0 0 16 16" fill="none" xmlns="http://www.w3.org/2000/svg">
<path d="M12.3737 5.16667H3.62699C3.51366 5.16667 3.42034 5.26667 3.427 5.38L3.87366 12.1333C3.94699 13.1867 4.50032 14 5.87366 14H10.127C11.5003 14 12.0537 13.1867 12.127 12.1333L12.5736 5.38C12.5803 5.26667 12.487 5.16667 12.3737 5.16667ZM10.0203 8.58667L9.12032 9.48666C9.02032 9.58666 8.89368 9.63333 8.76701 9.63333C8.64034 9.63333 8.51366 9.58666 8.41366 9.48666C8.22032 9.29333 8.22032 8.98 8.41366 8.78L8.57365 8.62C8.12698 8.62666 7.68698 8.80667 7.36031 9.14667C6.91364 9.61333 6.73367 10.26 6.887 10.88C6.95367 11.1467 6.78701 11.42 6.52035 11.4867C6.48035 11.4933 6.44031 11.5 6.40031 11.5C6.17364 11.5 5.97366 11.3467 5.91366 11.12C5.68032 10.16 5.95367 9.16666 6.64034 8.45333C7.11367 7.96666 7.73366 7.69333 8.38033 7.63333C8.227 7.44 8.23366 7.16 8.41366 6.98C8.60699 6.78667 8.92699 6.78667 9.12032 6.98L10.0203 7.88001C10.2137 8.07334 10.2137 8.39334 10.0203 8.58667ZM13.3337 3.5H10.527C10.4603 3.38 10.4136 3.24 10.3603 3.08667L10.227 2.68667C10.0937 2.27333 9.70698 2 9.28031 2H6.72034C6.29367 2 5.90697 2.27333 5.77364 2.68667L5.64034 3.08667C5.58701 3.24 5.54034 3.38 5.47367 3.5H2.66699C2.39366 3.5 2.16699 3.72667 2.16699 4C2.16699 4.27333 2.39366 4.5 2.66699 4.5H13.3337C13.607 4.5 13.8337 4.27333 13.8337 4C13.8337 3.72667 13.607 3.5 13.3337 3.5Z" fill="#3B3B3E"/>
</svg>
