<svg width="16" height="16" viewBox="0 0 16 16" fill="none" xmlns="http://www.w3.org/2000/svg">
<path d="M13.3317 3.04728V12.0007L13.327 11.9913V12.0007L11.7611 11.1047C11.6984 11.0693 11.6603 11.0026 11.6603 10.9313C11.6603 10.9313 11.6603 5.67062 11.6603 5.64795C11.633 3.98995 10.6296 3.00132 8.95361 3.00065H5.47835C5.36235 3.00065 5.32773 2.89935 5.33773 2.78402C5.42106 1.82135 5.99036 1.33398 7.04036 1.33398H11.6136H11.6183C12.7583 1.33398 13.3317 1.90728 13.3317 3.04728ZM10.667 5.71468V14.6673L6.66699 12.382L2.66699 14.6673V5.71468C2.66699 4.57201 3.23836 4.00065 4.38102 4.00065H8.95231C10.0956 4.00065 10.667 4.57201 10.667 5.71468ZM5.40039 6.934C5.40039 7.63267 5.96899 8.20068 6.66699 8.20068C7.36499 8.20068 7.93359 7.63267 7.93359 6.934C7.93359 6.23533 7.36499 5.66732 6.66699 5.66732C5.96899 5.66732 5.40039 6.23533 5.40039 6.934ZM8.68034 10.498C8.68034 9.72063 8.11235 8.934 7.02702 8.934H6.30827C5.22227 8.934 4.65495 9.72063 4.65495 10.498V10.6673C4.65495 10.8513 4.80428 11.0007 4.98828 11.0007H8.34766C8.53166 11.0007 8.68099 10.8513 8.68099 10.6673V10.498H8.68034Z" fill="#3B3B3E"/>
</svg>
