<svg width="16" height="16" viewBox="0 0 16 16" fill="none" xmlns="http://www.w3.org/2000/svg">
<path d="M7.6664 4.50712V11.4938C7.6664 11.5738 7.59306 11.6404 7.51306 11.6271C7.11973 11.5804 6.75306 11.4671 6.40639 11.2938C6.35973 11.2738 6.33307 11.2204 6.33307 11.1671V4.82045C6.33307 4.76712 6.35973 4.72045 6.40639 4.69378C6.74639 4.52712 7.11973 4.41378 7.51306 4.36045C7.59306 4.34712 7.6664 4.41377 7.6664 4.49377V4.50712ZM9.59308 4.70044C9.25308 4.53377 8.87974 4.42044 8.48641 4.3671C8.40641 4.35377 8.33307 4.42044 8.33307 4.50044V11.4871C8.33307 11.5671 8.40641 11.6338 8.48641 11.6204C8.87974 11.5738 9.24641 11.4604 9.59308 11.2871C9.63975 11.2671 9.6664 11.2138 9.6664 11.1604V4.81378C9.6664 4.76045 9.63975 4.71378 9.59308 4.68711V4.70044ZM5.6664 10.6538V5.44045C5.6664 5.25378 5.5664 5.26045 5.51974 5.30045C4.79307 5.96712 4.33307 6.92711 4.33307 8.00044C4.33307 8.64044 4.49974 9.24044 4.79307 9.76711C3.91974 9.51377 3.05306 9.78711 2.38639 10.1404C1.82639 10.4404 1.8864 11.2404 2.49306 11.4404L2.53306 11.4538C2.83306 11.5538 3.02641 11.8204 3.02641 12.1271C3.02641 12.5138 3.35307 12.8338 3.75307 12.8338C4.05974 12.8338 4.33973 13.0271 4.43307 13.3138L4.50641 13.5138C4.69308 14.0671 5.43308 14.1738 5.77975 13.7004C6.24641 13.0671 6.51307 12.2871 6.1864 11.1804L5.6664 10.6538V10.6538ZM13.5064 4.56044L13.4664 4.54712C13.1664 4.44712 12.9731 4.18044 12.9731 3.87378C12.9731 3.48711 12.6464 3.16711 12.2464 3.16711C11.9397 3.16711 11.6597 2.97378 11.5664 2.68711L11.4931 2.48712C11.3064 1.93379 10.5664 1.82712 10.2197 2.30045C9.75306 2.93379 9.4864 3.71379 9.81307 4.82045L10.3331 5.3471V10.5671C10.3331 10.7404 10.4531 10.7271 10.5131 10.6738C11.2197 10.0071 11.6664 9.06045 11.6664 8.00712C11.6664 7.36712 11.4997 6.7671 11.2064 6.24044C12.0797 6.49377 12.9464 6.22044 13.6131 5.8671C14.1731 5.5671 14.1131 4.76712 13.5064 4.56712V4.56044Z" fill="#3B3B3E"/>
</svg>
