<svg width="16" height="16" viewBox="0 0 16 16" fill="none" xmlns="http://www.w3.org/2000/svg">
<path d="M6.41366 9.83333C6.62033 10.04 6.85366 10.2133 7.10033 10.3467L5.90699 11.5333C5.70032 11.7467 5.65366 12.06 5.76699 12.34C5.86699 12.6 5.88701 12.9 5.78034 13.2067C5.66034 13.5667 5.35367 13.8533 4.98701 13.9533C4.18034 14.1733 3.44701 13.5733 3.44701 12.8C3.44701 12.66 3.34033 12.5533 3.207 12.5533C2.68033 12.5533 2.23367 12.26 2.067 11.76C1.79367 10.92 2.407 10.1467 3.207 10.1467C3.37366 10.1467 3.53367 10.18 3.67367 10.2467C3.94701 10.36 4.25367 10.3 4.46701 10.0933L5.65367 8.90666C5.78701 9.15332 5.96033 9.38 6.167 9.58667L6.41366 9.83333V9.83333ZM12.9803 3.02C12.2803 2.32667 11.4003 2 10.527 2C9.10701 2 7.71366 2.85999 7.207 4.38666L6.38699 6.83333C6.24699 7.26667 6.26033 7.73333 6.41366 8.14667C6.507 8.42 6.66033 8.66667 6.87366 8.88001L7.12033 9.12667C7.32699 9.33334 7.58033 9.49334 7.84699 9.58667C8.06699 9.67334 8.30032 9.71334 8.53366 9.71334C8.74699 9.71334 8.96033 9.68001 9.167 9.61334L11.6137 8.79334C13.1403 8.28667 14.0003 6.89333 14.0003 5.47333C14.0003 4.59999 13.6737 3.72 12.9803 3.02V3.02Z" fill="#3B3B3E"/>
</svg>
