<svg width="16" height="16" viewBox="0 0 16 16" fill="none" xmlns="http://www.w3.org/2000/svg">
<path d="M7.99967 1.33301C4.31767 1.33301 1.33301 4.31767 1.33301 7.99967C1.33301 11.6817 4.31767 14.6663 7.99967 14.6663C11.6817 14.6663 14.6663 11.6817 14.6663 7.99967C14.6663 4.31767 11.6817 1.33301 7.99967 1.33301ZM4.31299 7.01969C4.26699 6.97369 4.23106 6.91906 4.20573 6.8584C4.1804 6.79773 4.16699 6.73302 4.16699 6.66569C4.16699 6.59836 4.18106 6.53365 4.20573 6.47298C4.23106 6.41231 4.26765 6.35769 4.31299 6.31169L5.42432 5.20036C5.62032 5.00436 5.93701 5.00569 6.13167 5.20036C6.32701 5.39569 6.32701 5.71238 6.13167 5.90771L5.87435 6.16504H9.99967C10.2757 6.16504 10.4997 6.38904 10.4997 6.66504C10.4997 6.94104 10.2757 7.16504 9.99967 7.16504H5.8737L6.13102 7.42236C6.32636 7.61703 6.32636 7.93439 6.13102 8.12972C6.03369 8.22705 5.90567 8.27637 5.77767 8.27637C5.64967 8.27637 5.52165 8.22772 5.42432 8.12972L4.31299 7.01969ZM11.7943 9.52295C11.7689 9.58362 11.7323 9.63841 11.687 9.68441L10.5757 10.7957C10.4783 10.8931 10.3503 10.9424 10.2223 10.9424C10.0943 10.9424 9.96631 10.8937 9.86898 10.7957C9.67364 10.6004 9.67364 10.2837 9.86898 10.0884L10.127 9.8304H5.99967C5.72367 9.8304 5.49967 9.6064 5.49967 9.3304C5.49967 9.0544 5.72367 8.8304 5.99967 8.8304H10.1257L9.86833 8.57308C9.67299 8.37841 9.67299 8.06106 9.86833 7.86572C10.0637 7.67039 10.3803 7.67039 10.5757 7.86572L11.687 8.97705C11.733 9.02305 11.7689 9.07703 11.7943 9.13769C11.8196 9.19836 11.833 9.26374 11.833 9.3304C11.833 9.39707 11.8189 9.46228 11.7943 9.52295Z" fill="#3B3B3E"/>
</svg>
