<svg width="16" height="16" viewBox="0 0 16 16" fill="none" xmlns="http://www.w3.org/2000/svg">
<path d="M13.9127 4.71968C13.5927 3.43968 12.5727 2.41303 11.2927 2.08636C10.426 1.86636 9.486 2.06636 8.75267 2.58636C7.65267 3.35969 6.39935 3.6797 5.05935 3.7597C4.37268 3.7997 3.69935 4.05302 3.18602 4.51302C2.17269 5.42635 1.766 6.85303 2.126 8.15303C2.35267 8.9797 2.95934 9.65302 3.71267 10.0597C4.81934 10.6597 5.57267 11.353 5.96601 12.0797C6.63267 13.3064 7.89265 14.1597 9.27265 13.973C9.97932 13.8797 10.6593 13.5797 11.1993 13.093C11.846 12.5197 12.166 11.6664 12.1927 10.7997C12.2393 9.65303 12.6193 8.45968 13.4527 7.21968C13.946 6.49302 14.1193 5.56636 13.906 4.71303L13.9127 4.71968ZM7.666 9.99969C6.37933 9.99969 5.33267 8.95303 5.33267 7.66636C5.33267 6.37969 6.37933 5.33303 7.666 5.33303C8.95267 5.33303 9.99933 6.37969 9.99933 7.66636C9.99933 8.95303 8.95267 9.99969 7.666 9.99969Z" fill="#3B3B3E"/>
</svg>
