<svg width="16" height="16" viewBox="0 0 16 16" fill="none" xmlns="http://www.w3.org/2000/svg">
<path d="M12.667 7.33366H8.66699V3.33366C8.66699 2.96566 8.36833 2.66699 8.00033 2.66699C7.63233 2.66699 7.33366 2.96566 7.33366 3.33366V7.33366H3.33366C2.96566 7.33366 2.66699 7.63233 2.66699 8.00033C2.66699 8.36833 2.96566 8.66699 3.33366 8.66699H7.33366V12.667C7.33366 13.035 7.63233 13.3337 8.00033 13.3337C8.36833 13.3337 8.66699 13.035 8.66699 12.667V8.66699H12.667C13.035 8.66699 13.3337 8.36833 13.3337 8.00033C13.3337 7.63233 13.035 7.33366 12.667 7.33366Z" fill="#3B3B3E"/>
</svg>
