<svg width="16" height="16" viewBox="0 0 16 16" fill="none" xmlns="http://www.w3.org/2000/svg">
<path d="M10.6637 13.2153C10.6151 14.1827 10.0831 14.6667 9.06706 14.6667H4.26693C3.20026 14.6667 2.66699 14.1333 2.66699 13.0667V6.26666C2.66699 5.248 3.15362 4.71534 4.12695 4.67C4.17229 4.668 4.33366 4.69867 4.33366 4.878C4.33366 5.05733 4.33366 10.4 4.33366 10.4C4.33366 12.0267 5.30693 13 6.93359 13C6.93359 13 10.289 13 10.467 13C10.645 13 10.6657 13.1667 10.6637 13.2153ZM11.667 5.83333C10.267 5.83333 9.50033 5.06667 9.50033 3.66667V2H6.93359C5.86693 2 5.33366 2.53333 5.33366 3.6V10.4C5.33366 11.4667 5.86693 12 6.93359 12H11.7337C12.8004 12 13.3337 11.4667 13.3337 10.4V5.83333H11.667ZM10.5003 2.5V3.66667C10.5003 4.50667 10.827 4.83333 11.667 4.83333H12.8337L10.5003 2.5Z" fill="#3B3B3E"/>
</svg>
