<svg width="16" height="16" viewBox="0 0 16 16" fill="none" xmlns="http://www.w3.org/2000/svg">
<path d="M14.5 10.6667V11.3334C14.5 12.9454 13.612 13.8334 12 13.8334H11.3333C9.79667 13.8334 8.9273 13.0187 8.84863 11.5467C8.4033 11.078 7.5967 11.078 7.15137 11.5467C7.0727 13.0187 6.20333 13.8334 4.66667 13.8334H4C2.388 13.8334 1.5 12.9454 1.5 11.3334V10.6667C1.5 7.81606 2.13127 5.29936 2.60661 3.65403C2.67727 3.18136 2.99064 2.71473 3.45264 2.43406C3.9133 2.15339 4.4727 2.09071 4.9847 2.26137L5.49202 2.43072C5.75402 2.51806 5.89528 2.80137 5.80794 3.06337C5.72061 3.32604 5.44061 3.46671 5.17594 3.37937L4.66862 3.21002C4.43595 3.13269 4.18201 3.16138 3.97201 3.28872C3.76267 3.41605 3.6207 3.62873 3.58203 3.8714C3.24136 5.0594 2.83271 6.65538 2.63005 8.47272C3.00271 8.27672 3.45665 8.16738 4.00065 8.16738H4.66732C6.16798 8.16738 7.03136 8.94543 7.14469 10.3528C7.41136 10.2381 7.69865 10.1674 8.00065 10.1674C8.30265 10.1674 8.58994 10.2381 8.85661 10.3528C8.96994 8.94543 9.83332 8.16738 11.334 8.16738H12.0007C12.5447 8.16738 12.9987 8.27672 13.3721 8.47272C13.1694 6.65938 12.7633 5.07603 12.4333 3.93203C12.3813 3.62869 12.2393 3.4167 12.0299 3.28937C11.8213 3.1627 11.5667 3.13409 11.3333 3.21075L10.826 3.38002C10.5613 3.46802 10.2807 3.32536 10.194 3.06403C10.106 2.80203 10.2479 2.51938 10.5099 2.43138L11.0173 2.26202C11.5299 2.09202 12.088 2.15471 12.5493 2.43471C13.0107 2.71538 13.324 3.18206 13.4087 3.71539C13.8687 5.29939 14.5 7.81606 14.5 10.6667Z" fill="#3B3B3E"/>
</svg>
