<svg width="16" height="16" viewBox="0 0 16 16" fill="none" xmlns="http://www.w3.org/2000/svg">
<path d="M5.33366 3.66667V3C5.33366 2.33333 5.66699 2 6.33366 2H9.66699C10.3337 2 10.667 2.33333 10.667 3V3.66667C10.667 4.33333 10.3337 4.66667 9.66699 4.66667H6.33366C5.66699 4.66667 5.33366 4.33333 5.33366 3.66667ZM13.3337 5.33333V12C13.3337 13.3333 12.667 14 11.3337 14H4.66699C3.33366 14 2.66699 13.3333 2.66699 12V5.33333C2.66699 4.172 3.16825 3.518 4.17692 3.37134C4.25759 3.35934 4.33366 3.42599 4.33366 3.50732V3.66602C4.33366 4.87935 5.12033 5.66602 6.33366 5.66602H9.66699C10.8803 5.66602 11.667 4.87935 11.667 3.66602V3.50732C11.667 3.42599 11.7437 3.35934 11.8237 3.37134C12.8324 3.518 13.3337 4.172 13.3337 5.33333ZM5.83366 10.6667C5.83366 10.3907 5.60966 10.1667 5.33366 10.1667C5.05766 10.1667 4.83366 10.3907 4.83366 10.6667C4.83366 10.9427 5.05766 11.1667 5.33366 11.1667C5.60966 11.1667 5.83366 10.9427 5.83366 10.6667ZM5.83366 8C5.83366 7.724 5.60966 7.5 5.33366 7.5C5.05766 7.5 4.83366 7.724 4.83366 8C4.83366 8.276 5.05766 8.5 5.33366 8.5C5.60966 8.5 5.83366 8.276 5.83366 8ZM11.167 10.6667C11.167 10.3907 10.943 10.1667 10.667 10.1667H7.33366C7.05766 10.1667 6.83366 10.3907 6.83366 10.6667C6.83366 10.9427 7.05766 11.1667 7.33366 11.1667H10.667C10.943 11.1667 11.167 10.9427 11.167 10.6667ZM11.167 8C11.167 7.724 10.943 7.5 10.667 7.5H7.33366C7.05766 7.5 6.83366 7.724 6.83366 8C6.83366 8.276 7.05766 8.5 7.33366 8.5H10.667C10.943 8.5 11.167 8.276 11.167 8Z" fill="#3B3B3E"/>
</svg>
