<svg width="16" height="16" viewBox="0 0 16 16" fill="none" xmlns="http://www.w3.org/2000/svg">
<path fill-rule="evenodd" clip-rule="evenodd" d="M8.45296 10.2667C7.7063 9.50668 7.69962 8.28002 8.44629 7.52002C8.45962 7.03335 8.63296 6.57998 8.95296 6.22664C9.31963 5.81331 9.84641 5.57331 10.4064 5.55998C10.7731 5.19998 11.2596 5 11.7796 5C12.293 5 12.7797 5.19998 13.1463 5.55998C13.2057 5.61931 13.333 5.6053 13.333 5.4873V4C13.333 2.66667 12.6663 2 11.333 2H3.33301C1.99967 2 1.33301 2.66667 1.33301 4V9.33333C1.33301 10.6667 1.99967 11.3333 3.33301 11.3333H8.44775C8.58909 11.3333 8.69102 11.188 8.63102 11.0593C8.51836 10.8173 8.45296 10.5487 8.45296 10.2667ZM3.99967 4.83333H7.99967C8.27567 4.83333 8.49967 5.05733 8.49967 5.33333C8.49967 5.60933 8.27567 5.83333 7.99967 5.83333H3.99967C3.72367 5.83333 3.49967 5.60933 3.49967 5.33333C3.49967 5.05733 3.72367 4.83333 3.99967 4.83333ZM5.99967 8.5H3.99967C3.72367 8.5 3.49967 8.276 3.49967 8C3.49967 7.724 3.72367 7.5 3.99967 7.5H5.99967C6.27567 7.5 6.49967 7.724 6.49967 8C6.49967 8.276 6.27567 8.5 5.99967 8.5ZM14.3836 8.20801C14.1376 7.99534 14.0784 7.84936 14.1011 7.52669C14.1057 6.90403 13.5336 6.49063 12.939 6.56396C12.739 6.5753 12.5824 6.41666 12.457 6.28133C12.081 5.90533 11.4717 5.90533 11.0957 6.28133C10.9704 6.41866 10.8136 6.57396 10.6136 6.56396C9.90561 6.4833 9.37031 7.01668 9.45231 7.72534C9.46364 7.92534 9.30493 8.08202 9.1696 8.20736C8.7936 8.58336 8.7936 9.19269 9.1696 9.56869C9.4156 9.78135 9.47498 9.92733 9.45231 10.25C9.45231 10.7593 9.84974 11.172 10.3511 11.206L10.3503 11.208L9.55501 13.9993L10.7863 13.506C11.4216 13.2527 12.1331 13.2527 12.7684 13.506L13.9997 14L13.2036 11.2067C13.7043 11.1727 14.1017 10.76 14.1017 10.2507C14.0931 10.0653 14.0944 9.84469 14.2424 9.71069C14.7144 9.34269 14.829 8.64601 14.3836 8.20801ZM11.7777 10C11.1637 10 10.6663 9.50267 10.6663 8.88867C10.6663 8.27534 11.1637 7.77734 11.7777 7.77734C12.391 7.77734 12.889 8.27467 12.889 8.88867C12.8883 9.50267 12.391 10 11.7777 10Z" fill="#3B3B3E"/>
</svg>
