<svg width="16" height="16" viewBox="0 0 16 16" fill="none" xmlns="http://www.w3.org/2000/svg">
<path d="M12.2561 6.28432C12.0981 5.90366 11.7441 5.66699 11.3321 5.66699L9.4274 5.71366L10.5714 3.06299C10.7054 2.75299 10.6741 2.39899 10.4887 2.11766C10.3034 1.83566 9.99073 1.66699 9.65339 1.66699H6.66674C6.10807 1.66699 5.64474 2.01633 5.46341 2.56233L3.71874 7.01699C3.61541 7.32565 3.6654 7.65366 3.85607 7.91766C4.04674 8.18166 4.34208 8.33366 4.66808 8.33366L6.55073 8.28966L4.62739 13.8923C4.57739 14.039 4.63473 14.201 4.76606 14.283C4.82073 14.317 4.88141 14.3337 4.94274 14.3337C5.02874 14.3337 5.11407 14.3003 5.17874 14.2363L12.0401 7.37433C12.3307 7.083 12.4134 6.66499 12.2561 6.28432Z" fill="#3B3B3E"/>
</svg>
