<svg width="16" height="16" viewBox="0 0 16 16" fill="none" xmlns="http://www.w3.org/2000/svg">
<path d="M7.99967 1.33301C4.31767 1.33301 1.33301 4.31767 1.33301 7.99967C1.33301 11.6817 4.31767 14.6663 7.99967 14.6663C11.6817 14.6663 14.6663 11.6817 14.6663 7.99967C14.6663 4.31767 11.6817 1.33301 7.99967 1.33301ZM10.353 7.68636C10.2557 7.78369 10.1277 7.83301 9.99967 7.83301C9.87167 7.83301 9.74365 7.78436 9.64632 7.68636L8.49967 6.53971V10.6663C8.49967 10.9423 8.27567 11.1663 7.99967 11.1663C7.72367 11.1663 7.49967 10.9423 7.49967 10.6663V6.54036L6.35303 7.68701C6.15769 7.88234 5.841 7.88234 5.64567 7.68701C5.45034 7.49168 5.45034 7.17499 5.64567 6.97965L7.64567 4.97965C7.69167 4.93365 7.74693 4.89708 7.80827 4.87174C7.93027 4.82108 8.06827 4.82108 8.19027 4.87174C8.2516 4.89708 8.30703 4.93365 8.35303 4.97965L10.353 6.97965C10.5484 7.17499 10.5484 7.49103 10.353 7.68636Z" fill="#3B3B3E"/>
</svg>
