<svg width="16" height="16" viewBox="0 0 16 16" fill="none" xmlns="http://www.w3.org/2000/svg">
<path d="M11.9997 6.29396C12.0197 7.60063 11.3798 8.61404 10.5798 9.54071C10.2638 9.91071 9.98171 10.2647 9.81771 10.702C9.78837 10.78 9.71759 10.834 9.63493 10.834H8.36637C8.25571 10.834 8.16634 10.7446 8.16634 10.634V8.87404L9.35303 7.68736C9.54636 7.49402 9.54636 7.17398 9.35303 6.98065C9.15969 6.78732 8.83965 6.78732 8.64632 6.98065L7.66634 7.96063L6.68636 6.98065C6.49303 6.78732 6.17299 6.78732 5.97965 6.98065C5.78632 7.17398 5.78632 7.49402 5.97965 7.68736L7.16634 8.87404V10.634C7.16634 10.7446 7.07698 10.834 6.96631 10.834H5.68962C5.60695 10.834 5.53698 10.7806 5.50765 10.7033C5.33765 10.258 5.04907 9.89736 4.7264 9.52069C3.99973 8.66736 3.33301 7.594 3.33301 6.334C3.33301 3.90067 5.33964 1.934 7.79297 2.00067C10.0796 2.06734 11.9597 4.01396 11.9997 6.29396ZM9.46631 11.834C9.38764 11.834 5.94504 11.834 5.86637 11.834C5.66637 11.834 5.66634 12.0007 5.66634 12.0007C5.66634 12.6673 5.89293 13.1673 6.25293 13.5007C6.61293 13.834 7.11301 14.0007 7.66634 14.0007C8.21967 14.0007 8.71975 13.834 9.07975 13.5007C9.43975 13.1673 9.66634 12.6673 9.66634 12.0007C9.66634 12.0007 9.66631 11.834 9.46631 11.834Z" fill="#3B3B3E"/>
</svg>
