<svg width="16" height="16" viewBox="0 0 16 16" fill="none" xmlns="http://www.w3.org/2000/svg">
<path d="M14.3186 6.05619L9.37716 1.99223C8.57916 1.33756 7.42256 1.33689 6.62456 1.99223L1.68323 6.05554C1.47056 6.23087 1.43921 6.54556 1.61455 6.75956C1.79121 6.97289 2.1059 7.00291 2.31857 6.82825L3.00053 6.26688V11.9996C3.00053 13.5262 3.8072 14.3329 5.33387 14.3329H10.6672C12.1939 14.3329 13.0005 13.5262 13.0005 11.9996V6.26754L13.6825 6.8289C13.7758 6.90556 13.8885 6.94291 14.0005 6.94291C14.1445 6.94291 14.2879 6.88086 14.3865 6.76086C14.5625 6.5462 14.5312 6.23152 14.3186 6.05619ZM10.3339 8.70349C10.3339 10.4815 8.8752 11.3702 8.00053 11.6662C7.12586 11.3702 5.6672 10.4808 5.6672 8.70349C5.6672 8.38682 5.6672 7.52487 5.6672 7.22221C6.83387 6.88754 7.41717 6.62954 8.00517 6.33354C8.58384 6.62954 9.1672 6.88755 10.3339 7.18355C10.3339 7.50155 10.3339 8.37616 10.3339 8.70349Z" fill="#3B3B3E"/>
</svg>
