<svg width="16" height="16" viewBox="0 0 16 16" fill="none" xmlns="http://www.w3.org/2000/svg">
<path d="M14 13.5H13V4C13 2.66667 12.3333 2 11 2H5C3.66667 2 3 2.66667 3 4V13.5H2C1.724 13.5 1.5 13.724 1.5 14C1.5 14.276 1.724 14.5 2 14.5H14C14.276 14.5 14.5 14.276 14.5 14C14.5 13.724 14.276 13.5 14 13.5ZM9.33333 4.16667H10C10.276 4.16667 10.5 4.39067 10.5 4.66667C10.5 4.94267 10.276 5.16667 10 5.16667H9.33333C9.05733 5.16667 8.83333 4.94267 8.83333 4.66667C8.83333 4.39067 9.05733 4.16667 9.33333 4.16667ZM9.33333 6.16667H10C10.276 6.16667 10.5 6.39067 10.5 6.66667C10.5 6.94267 10.276 7.16667 10 7.16667H9.33333C9.05733 7.16667 8.83333 6.94267 8.83333 6.66667C8.83333 6.39067 9.05733 6.16667 9.33333 6.16667ZM9.33333 8.16667H10C10.276 8.16667 10.5 8.39067 10.5 8.66667C10.5 8.94267 10.276 9.16667 10 9.16667H9.33333C9.05733 9.16667 8.83333 8.94267 8.83333 8.66667C8.83333 8.39067 9.05733 8.16667 9.33333 8.16667ZM6 4.16667H6.66667C6.94267 4.16667 7.16667 4.39067 7.16667 4.66667C7.16667 4.94267 6.94267 5.16667 6.66667 5.16667H6C5.724 5.16667 5.5 4.94267 5.5 4.66667C5.5 4.39067 5.724 4.16667 6 4.16667ZM6 6.16667H6.66667C6.94267 6.16667 7.16667 6.39067 7.16667 6.66667C7.16667 6.94267 6.94267 7.16667 6.66667 7.16667H6C5.724 7.16667 5.5 6.94267 5.5 6.66667C5.5 6.39067 5.724 6.16667 6 6.16667ZM6 8.16667H6.66667C6.94267 8.16667 7.16667 8.39067 7.16667 8.66667C7.16667 8.94267 6.94267 9.16667 6.66667 9.16667H6C5.724 9.16667 5.5 8.94267 5.5 8.66667C5.5 8.39067 5.724 8.16667 6 8.16667ZM6.5 11.6667C6.5 11 6.83333 10.6667 7.5 10.6667H8.5C9.16667 10.6667 9.5 11 9.5 11.6667V13.5H6.5V11.6667Z" fill="#3B3B3E"/>
</svg>
