<svg width="16" height="16" viewBox="0 0 16 16" fill="none" xmlns="http://www.w3.org/2000/svg">
<path d="M10.6733 2.01993L13.56 3.07327C13.8267 3.1666 14 3.41994 14 3.69994V5.7866C14 6.2266 13.5733 6.5466 13.1533 6.4266L11.6667 5.99993V12.9999C11.6667 13.5533 11.22 13.9999 10.6667 13.9999H5.33333C4.78 13.9999 4.33333 13.5533 4.33333 12.9999V5.99993L2.84667 6.4266C2.42 6.5466 2 6.2266 2 5.7866V3.69994C2 3.41994 2.17333 3.1666 2.44 3.07327L5.32667 2.01993C5.5 1.95993 5.69333 2.0466 5.75333 2.21994C5.94666 2.7866 6.50667 3.89994 8 3.89994C9.49333 3.89994 10.0533 2.7866 10.2467 2.21994C10.3067 2.0466 10.5 1.95993 10.6733 2.01993Z" fill="#3B3B3E"/>
</svg>
