<svg width="16" height="16" viewBox="0 0 16 16" fill="none" xmlns="http://www.w3.org/2000/svg">
<path d="M14.4002 8.15119C14.4002 7.67846 14.3577 7.22392 14.279 6.78755H8.00016V9.36634H11.588C11.4335 10.1997 10.9638 10.9057 10.2577 11.3785V13.0512H12.4123C13.6729 11.8906 14.4002 10.1815 14.4002 8.15119Z" fill="#4285F4"/>
<path d="M8.00016 14.6663C9.80016 14.6663 11.3093 14.0694 12.4123 13.0512L10.2577 11.3785C9.66077 11.7785 8.89713 12.0148 8.00016 12.0148C6.2638 12.0148 4.7941 10.8421 4.26986 9.26634H2.04259V10.9936C3.13956 13.1724 5.3941 14.6663 8.00016 14.6663Z" fill="#34A853"/>
<path d="M4.26986 9.26634C4.13653 8.86634 4.06077 8.43907 4.06077 7.99967C4.06077 7.56028 4.13653 7.13301 4.26986 6.73301V5.00573H2.04259C1.57592 5.93474 1.33308 6.96005 1.3335 7.99967C1.3335 9.07543 1.59107 10.0936 2.04259 10.9936L4.26986 9.26634Z" fill="#FBBC05"/>
<path d="M8.00016 3.98452C8.97895 3.98452 9.85774 4.32089 10.5486 4.98149L12.4608 3.06937C11.3062 1.99361 9.79713 1.33301 8.00016 1.33301C5.3941 1.33301 3.13956 2.82695 2.04259 5.00573L4.26986 6.73301C4.7941 5.15725 6.2638 3.98452 8.00016 3.98452Z" fill="#EA4335"/>
</svg>
