<svg width="16" height="16" viewBox="0 0 16 16" fill="none" xmlns="http://www.w3.org/2000/svg">
<path d="M13.9891 11.81L13.5444 7.144C13.4464 6.11734 12.6658 5.33333 11.5538 5.33333H11.1671V4.66667C11.1671 2.92 9.74709 1.5 8.00042 1.5C6.25375 1.5 4.83375 2.92 4.83375 4.66667V5.33333H4.44712C3.33512 5.33333 2.55381 6.11734 2.45648 7.144L2.01173 11.81C1.89973 12.984 2.66912 14 4.00246 14H12.0004C13.3318 14 14.1011 12.9847 13.9891 11.81ZM5.8331 4.66667C5.8331 3.47333 6.80644 2.5 7.99977 2.5C9.1931 2.5 10.1664 3.47333 10.1664 4.66667V5.33333H5.8331V4.66667ZM5.34645 8.66667C4.97845 8.66667 4.67645 8.368 4.67645 8C4.67645 7.632 4.97178 7.33333 5.33978 7.33333H5.34645C5.71512 7.33333 6.01312 7.632 6.01312 8C6.01312 8.368 5.71445 8.66667 5.34645 8.66667ZM10.6798 8.66667C10.3118 8.66667 10.0098 8.368 10.0098 8C10.0098 7.632 10.3051 7.33333 10.6731 7.33333H10.6798C11.0484 7.33333 11.3464 7.632 11.3464 8C11.3464 8.368 11.0478 8.66667 10.6798 8.66667Z" fill="#3B3B3E"/>
</svg>
