<svg width="16" height="16" viewBox="0 0 16 16" fill="none" xmlns="http://www.w3.org/2000/svg">
<path d="M13.333 4.66602V5.49935H1.33301V4.66602C1.33301 3.33268 1.99967 2.66602 3.33301 2.66602H11.333C12.6663 2.66602 13.333 3.33268 13.333 4.66602ZM13.333 6.49935V7.31934C13.333 7.45934 13.1997 7.54602 13.0663 7.50602C12.313 7.25936 11.433 7.25266 10.573 7.646C9.88633 7.95933 9.31967 8.51935 8.993 9.20601C8.58633 10.0793 8.58635 10.9727 8.83968 11.7327C8.87968 11.866 8.79299 11.9993 8.65299 11.9993H3.33301C1.99967 11.9993 1.33301 11.3327 1.33301 9.99935V6.49935H13.333ZM6.49967 9.33268C6.49967 9.05668 6.27567 8.83268 5.99967 8.83268H3.99967C3.72367 8.83268 3.49967 9.05668 3.49967 9.33268C3.49967 9.60868 3.72367 9.83268 3.99967 9.83268H5.99967C6.27567 9.83268 6.49967 9.60868 6.49967 9.33268ZM14.6663 12.166H11.6663C11.3903 12.166 11.1663 11.942 11.1663 11.666V11.3327C11.1663 11.0567 10.9423 10.8327 10.6663 10.8327C10.3903 10.8327 10.1663 11.0567 10.1663 11.3327V11.666C10.1663 12.4933 10.839 13.166 11.6663 13.166H13.5277C13.4657 13.342 13.505 13.5454 13.6457 13.686C13.743 13.7834 13.871 13.8327 13.999 13.8327C14.127 13.8327 14.255 13.784 14.3523 13.686L15.019 13.0194C15.1617 12.8767 15.205 12.6614 15.1277 12.4747C15.0504 12.288 14.8683 12.166 14.6663 12.166ZM13.6663 9.16602H11.805C11.867 8.99002 11.8277 8.78666 11.687 8.646C11.4917 8.45066 11.175 8.45066 10.9797 8.646L10.313 9.31266C10.1703 9.45533 10.127 9.67067 10.2043 9.85734C10.2817 10.044 10.4643 10.166 10.6663 10.166H13.6663C13.9423 10.166 14.1663 10.39 14.1663 10.666V10.9993C14.1663 11.2753 14.3903 11.4993 14.6663 11.4993C14.9423 11.4993 15.1663 11.2753 15.1663 10.9993V10.666C15.1663 9.83868 14.4937 9.16602 13.6663 9.16602Z" fill="#3B3B3E"/>
</svg>
