<svg width="16" height="16" viewBox="0 0 16 16" fill="none" xmlns="http://www.w3.org/2000/svg">
<path fill-rule="evenodd" clip-rule="evenodd" d="M13.0463 5.72454L9.07031 2.39048C8.45098 1.87114 7.54764 1.87114 6.9283 2.39048L2.95231 5.72454C2.34831 6.23121 1.99902 6.43584 1.99902 7.76784V12.0005C1.99902 13.3338 2.66569 14.0005 3.99902 14.0005H11.999C13.3324 14.0005 13.999 13.3338 13.999 12.0005V7.76784C13.9997 6.43517 13.651 6.23121 13.0463 5.72454ZM11.1663 10.6672C11.1663 10.7325 11.153 10.7972 11.1277 10.8585C11.077 10.9805 10.9797 11.0778 10.8577 11.1285C10.7963 11.1538 10.7317 11.1672 10.6663 11.1672H8.99967C8.72367 11.1672 8.49967 10.9432 8.49967 10.6672C8.49967 10.3912 8.72367 10.1672 8.99967 10.1672H9.45898L8.42033 9.12851L7.6897 9.91448C7.3277 10.2765 6.69432 10.2778 6.33032 9.91448L4.97965 8.56317C4.78432 8.36783 4.78432 8.05114 4.97965 7.85581C5.17499 7.66048 5.49168 7.66048 5.68701 7.85581L7.03833 9.20721L7.76904 8.42116C8.13238 8.05782 8.765 8.05849 9.12834 8.42116L10.167 9.45981V9.0005C10.167 8.7245 10.391 8.5005 10.667 8.5005C10.943 8.5005 11.167 8.7245 11.167 9.0005V10.6672H11.1663Z" fill="#3B3B3E"/>
</svg>
