<svg width="16" height="16" viewBox="0 0 16 16" fill="none" xmlns="http://www.w3.org/2000/svg">
<path d="M11.3337 6C10.8062 6 10.2907 6.15641 9.85213 6.44942C9.4136 6.74244 9.07179 7.15891 8.86995 7.64618C8.66812 8.13345 8.61537 8.66963 8.71826 9.18691C8.82116 9.70419 9.07514 10.1793 9.44808 10.5523C9.82102 10.9252 10.2961 11.1792 10.8134 11.2821C11.3307 11.385 11.8669 11.3322 12.3542 11.1304C12.8414 10.9285 13.2579 10.5867 13.5509 10.1482C13.844 9.70966 14.0003 9.19408 14.0003 8.66667C14.0003 7.95942 13.7193 7.28114 13.2192 6.78105C12.7191 6.28095 12.0409 6 11.3337 6ZM12.167 9H10.5003C10.4119 9 10.3272 8.96488 10.2646 8.90236C10.2021 8.83985 10.167 8.75507 10.167 8.66667C10.167 8.57826 10.2021 8.49348 10.2646 8.43097C10.3272 8.36846 10.4119 8.33333 10.5003 8.33333H12.167C12.2554 8.33333 12.3402 8.36846 12.4027 8.43097C12.4652 8.49348 12.5003 8.57826 12.5003 8.66667C12.5003 8.75507 12.4652 8.83985 12.4027 8.90236C12.3402 8.96488 12.2554 9 12.167 9ZM9.24829 11.674C9.27443 11.6917 9.29592 11.7156 9.31079 11.7434C9.32566 11.7713 9.33349 11.8024 9.33366 11.834V14L6.66699 12V9.33333C6.66705 9.20183 6.64115 9.0716 6.59082 8.95011C6.54049 8.82863 6.46674 8.71825 6.3737 8.62533L2.96029 5.212C2.86724 5.11907 2.7935 5.0087 2.74316 4.88721C2.69283 4.76572 2.66693 4.63551 2.66699 4.50401V3C2.66699 2.73478 2.77234 2.48042 2.95988 2.29289C3.14742 2.10535 3.40178 2 3.66699 2H12.3337C12.5989 2 12.8532 2.10535 13.0408 2.29289C13.2283 2.48042 13.3337 2.73478 13.3337 3V4.50667C13.3334 4.7718 13.228 5.02598 13.0404 5.21334L13.0003 5.25334C12.9823 5.27236 12.9606 5.28749 12.9365 5.29781C12.9124 5.30813 12.8865 5.31341 12.8604 5.31333C12.8332 5.31216 12.8064 5.30769 12.7804 5.30001C11.9457 4.93678 11.0055 4.89757 10.1435 5.19004C9.28144 5.48251 8.55934 6.08568 8.118 6.88184C7.67666 7.67799 7.54776 8.61003 7.75651 9.49607C7.96526 10.3821 8.49665 11.1586 9.24699 11.674H9.24829Z" fill="#3B3B3E"/>
</svg>
