<svg width="16" height="16" viewBox="0 0 16 16" fill="none" xmlns="http://www.w3.org/2000/svg">
<path d="M14 7.30013C14 9.14013 12.5067 10.6335 10.6667 10.6335H8.5V8.54077L8.97998 9.02079C9.07731 9.11813 9.20533 9.16744 9.33333 9.16744C9.46133 9.16744 9.58935 9.11879 9.68669 9.02079C9.88202 8.82546 9.88202 8.50877 9.68669 8.31344L8.35335 6.9801C8.30735 6.9341 8.25193 6.89744 8.19059 6.87211C8.06859 6.82144 7.93059 6.82144 7.80859 6.87211C7.74726 6.89744 7.692 6.9341 7.646 6.9801L6.31266 8.31344C6.11733 8.50877 6.11733 8.82546 6.31266 9.02079C6.508 9.21613 6.82469 9.21613 7.02002 9.02079L7.5 8.54077V10.6335H6.33333C3.94 10.6335 2 8.69346 2 6.30013C2 3.9068 3.94 1.9668 6.33333 1.9668C7.43067 1.9668 8.43199 2.37544 9.19466 3.04744C9.516 3.33078 9.79467 3.66077 10.0207 4.02677C10.234 3.98677 10.4473 3.9668 10.6673 3.9668C12.5067 3.9668 14 5.46013 14 7.30013ZM7.5 14.0001C7.5 14.2761 7.724 14.5001 8 14.5001C8.276 14.5001 8.5 14.2761 8.5 14.0001V10.6335H7.5V14.0001Z" fill="#3B3B3E"/>
</svg>
