<svg width="16" height="16" viewBox="0 0 16 16" fill="none" xmlns="http://www.w3.org/2000/svg">
<path d="M10.8463 6.41984C11.4463 7.56651 11.2797 9.01984 10.313 9.98651C9.71302 10.5932 9.11969 11.1132 8.52636 11.5798C8.44636 11.6398 8.33303 11.6332 8.2597 11.5598L6.34635 9.6465C6.15301 9.45317 5.83302 9.45317 5.63968 9.6465C5.44635 9.83984 5.44635 10.1598 5.63968 10.3532L7.37969 12.0932C7.47303 12.1865 7.45301 12.3398 7.34635 12.4065C5.97301 13.2665 4.52635 13.8132 2.80635 14.1465C2.75302 14.1598 2.69969 14.1598 2.64636 14.1598C2.43302 14.1598 2.21969 14.0732 2.06636 13.9198C1.87303 13.7265 1.78636 13.4532 1.8397 13.1798C1.9997 12.3732 2.20635 11.6265 2.47302 10.9132C2.52635 10.7732 2.69968 10.7398 2.80635 10.8465L3.63968 11.6798C3.73968 11.7798 3.86635 11.8265 3.99302 11.8265C4.11968 11.8265 4.24635 11.7798 4.34635 11.6798C4.53968 11.4865 4.53968 11.1665 4.34635 10.9732L3.12636 9.75317C3.06636 9.69317 3.04636 9.59316 3.08636 9.51316C3.65303 8.41983 4.39302 7.39318 5.35302 6.35984C5.43302 6.27318 5.56636 6.27317 5.64636 6.35317L6.97302 7.67983C7.07302 7.77983 7.19968 7.8265 7.32635 7.8265C7.45302 7.8265 7.57968 7.77983 7.67968 7.67983C7.87301 7.4865 7.87301 7.1665 7.67968 6.97317L6.37302 5.6665C6.28635 5.57984 6.29302 5.43318 6.39302 5.35984C7.33302 4.69318 8.56635 4.61984 9.57301 5.1465C8.97301 4.17984 9.57301 2.59316 10.1797 1.99316C10.833 2.6465 11.4797 4.43318 10.6197 5.35984C11.5464 4.50651 13.3397 5.15318 13.9864 5.79985C13.3864 6.39985 11.7997 7.00649 10.833 6.40649L10.8463 6.41984Z" fill="#3B3B3E"/>
</svg>
