<svg width="16" height="16" viewBox="0 0 16 16" fill="none" xmlns="http://www.w3.org/2000/svg">
<path d="M7.99967 1.33301C4.31767 1.33301 1.33301 4.31767 1.33301 7.99967C1.33301 11.6817 4.31767 14.6663 7.99967 14.6663C11.6817 14.6663 14.6663 11.6817 14.6663 7.99967C14.6663 4.31767 11.6817 1.33301 7.99967 1.33301ZM10.353 7.68636L8.35303 9.68636C8.25569 9.78369 8.12767 9.83301 7.99967 9.83301C7.87167 9.83301 7.74365 9.78436 7.64632 9.68636L5.64632 7.68636C5.45099 7.49103 5.45099 7.17434 5.64632 6.979C5.84165 6.78367 6.15834 6.78367 6.35368 6.979L8.00033 8.62565L9.64697 6.979C9.84231 6.78367 10.159 6.78367 10.3543 6.979C10.5497 7.17434 10.5484 7.49103 10.353 7.68636Z" fill="#3B3B3E"/>
</svg>
