<svg width="16" height="16" viewBox="0 0 16 16" fill="none" xmlns="http://www.w3.org/2000/svg">
<path d="M13.8331 7.60697C14.2264 7.22697 14.0064 6.55367 13.4597 6.47367L10.4731 6.04032C10.2531 6.00699 10.0664 5.87367 9.9664 5.67367L8.67311 3.06698C8.54644 2.80031 8.28647 2.66699 8.03313 2.66699C7.7798 2.66699 7.51974 2.80031 7.39308 3.06698L6.09978 5.67367C5.99978 5.87367 5.81311 6.00699 5.59311 6.04032L2.60646 6.47367C2.05979 6.55367 1.83975 7.22697 2.23308 7.60697L4.39975 9.70699C4.55308 9.86032 4.62644 10.0803 4.58644 10.2937L4.09311 13.167C4.01311 13.627 4.37973 14.0003 4.79973 14.0003C4.9064 14.0003 5.01973 13.9737 5.13307 13.9203L7.71974 12.5603C7.81974 12.507 7.92647 12.487 8.03313 12.487C8.1398 12.487 8.24645 12.507 8.34645 12.5603L10.9331 13.9203C11.0465 13.9737 11.1598 14.0003 11.2665 14.0003C11.6865 14.0003 12.0531 13.627 11.9731 13.167L11.4797 10.2937C11.4397 10.0803 11.5131 9.86032 11.6664 9.70699L13.8331 7.60697ZM10.9731 8.98698C10.5797 9.37365 10.3998 9.927 10.4931 10.467L10.8864 12.7603L8.80641 11.6737C8.56641 11.547 8.2998 11.487 8.03313 11.487V4.02034L9.07309 6.12032C9.31976 6.61365 9.78643 6.95364 10.3264 7.02698L12.6464 7.36698L10.9731 8.98698Z" fill="#3B3B3E"/>
</svg>
