<svg width="16" height="16" viewBox="0 0 16 16" fill="none" xmlns="http://www.w3.org/2000/svg">
<path d="M7.99967 1.33301C4.31767 1.33301 1.33301 4.31767 1.33301 7.99967C1.33301 11.6817 4.31767 14.6663 7.99967 14.6663C11.6817 14.6663 14.6663 11.6817 14.6663 7.99967C14.6663 4.31767 11.6817 1.33301 7.99967 1.33301ZM7.16634 10.2217C7.16634 10.5183 7.015 10.6663 6.71167 10.6663H5.95435C5.65101 10.6663 5.49967 10.5183 5.49967 10.2217V5.77702C5.49967 5.48102 5.65101 5.33236 5.95435 5.33236H6.71167C7.015 5.33236 7.16634 5.48035 7.16634 5.77702V10.2217ZM10.4997 10.2217C10.4997 10.5183 10.3483 10.6663 10.045 10.6663H9.28768C8.98435 10.6663 8.83301 10.5183 8.83301 10.2217V5.77702C8.83301 5.48102 8.98435 5.33236 9.28768 5.33236H10.045C10.3483 5.33236 10.4997 5.48035 10.4997 5.77702V10.2217Z" fill="#3B3B3E"/>
</svg>
