<svg width="16" height="16" viewBox="0 0 16 16" fill="none" xmlns="http://www.w3.org/2000/svg">
<path d="M13.4931 9.4998H2.50639C2.41973 9.4998 2.3464 9.44646 2.31307 9.36646C2.1664 8.95312 2.05973 8.52645 1.99973 8.07312C1.95306 7.67979 2.2664 7.32646 2.6664 7.32646H13.3197C13.7197 7.32646 14.0331 7.67312 13.9864 8.07312C13.9331 8.51979 13.8264 8.95312 13.6731 9.36646C13.6464 9.44646 13.5664 9.4998 13.4797 9.4998H13.4931ZM3.25307 10.4998C3.09307 10.4998 2.99307 10.6865 3.0864 10.8131C3.57973 11.5065 4.21306 12.0865 4.9464 12.5198C5.15973 12.6398 5.29307 12.8598 5.29307 13.0998V13.3331C5.29307 13.6998 5.59307 13.9998 5.95973 13.9998H10.0397C10.4064 13.9998 10.7064 13.6998 10.7064 13.3331V13.0998C10.7064 12.8531 10.8464 12.6398 11.0531 12.5198C11.7864 12.0931 12.4197 11.5065 12.9131 10.8131C13.0064 10.6798 12.9064 10.4998 12.7464 10.4998H3.24639H3.25307ZM8.25973 5.68646L8.35973 5.58647C8.85973 5.0798 8.85973 4.25313 8.35973 3.75313L8.15973 3.55312C8.03973 3.43312 8.03973 3.24647 8.15973 3.12647L8.25973 3.02647C8.45306 2.83314 8.45306 2.51314 8.25973 2.3198C8.0664 2.12647 7.7464 2.12647 7.55307 2.3198L7.45306 2.4198C6.95306 2.92647 6.95306 3.75313 7.45306 4.25313L7.65306 4.45313C7.77306 4.57313 7.77306 4.7598 7.65306 4.8798L7.55307 4.9798C7.35973 5.17313 7.35973 5.49313 7.55307 5.68646C7.65307 5.78646 7.77973 5.83313 7.9064 5.83313C8.03307 5.83313 8.1664 5.78646 8.25973 5.68646ZM11.5931 5.68646L11.6931 5.58647C12.1931 5.0798 12.1931 4.25313 11.6931 3.75313L11.4931 3.55312C11.3731 3.43312 11.3731 3.24647 11.4931 3.12647L11.5931 3.02647C11.7864 2.83314 11.7864 2.51314 11.5931 2.3198C11.3997 2.12647 11.0797 2.12647 10.8864 2.3198L10.7864 2.4198C10.2864 2.92647 10.2864 3.75313 10.7864 4.25313L10.9864 4.45313C11.1064 4.57313 11.1064 4.7598 10.9864 4.8798L10.8864 4.9798C10.6931 5.17313 10.6931 5.49313 10.8864 5.68646C10.9864 5.78646 11.1131 5.83313 11.2397 5.83313C11.3664 5.83313 11.4997 5.78646 11.5931 5.68646ZM4.9264 5.68646L5.02639 5.58647C5.52639 5.0798 5.52639 4.25313 5.02639 3.75313L4.8264 3.55312C4.7064 3.43312 4.7064 3.24647 4.8264 3.12647L4.9264 3.02647C5.11973 2.83314 5.11973 2.51314 4.9264 2.3198C4.73306 2.12647 4.41307 2.12647 4.21973 2.3198L4.11973 2.4198C3.61973 2.92647 3.61973 3.75313 4.11973 4.25313L4.31973 4.45313C4.43973 4.57313 4.43973 4.7598 4.31973 4.8798L4.21973 4.9798C4.0264 5.17313 4.0264 5.49313 4.21973 5.68646C4.31973 5.78646 4.4464 5.83313 4.57307 5.83313C4.69973 5.83313 4.83306 5.78646 4.9264 5.68646Z" fill="#3B3B3E"/>
</svg>
