<svg width="16" height="16" viewBox="0 0 16 16" fill="none" xmlns="http://www.w3.org/2000/svg">
<path d="M8.50033 9.99967V12.0983C8.83366 12.2337 9.09969 12.499 9.23503 12.833H12.667C12.943 12.833 13.167 13.057 13.167 13.333C13.167 13.609 12.943 13.833 12.667 13.833H9.23503C9.03703 14.321 8.55966 14.6663 8.00033 14.6663C7.44099 14.6663 6.96363 14.321 6.76563 13.833H3.33366C3.05766 13.833 2.83366 13.609 2.83366 13.333C2.83366 13.057 3.05766 12.833 3.33366 12.833H6.76563C6.90096 12.4997 7.16633 12.2337 7.50033 12.0983V9.99967H4.66699C3.33366 9.99967 2.66699 9.33301 2.66699 7.99967V3.33301C2.66699 1.99967 3.33366 1.33301 4.66699 1.33301H6.66699L8.00033 2.66634H11.3337C12.667 2.66634 13.3337 3.33301 13.3337 4.66634V7.99967C13.3337 9.33301 12.667 9.99967 11.3337 9.99967H8.50033Z" fill="#3B3B3E"/>
</svg>
