<svg width="16" height="16" viewBox="0 0 16 16" fill="none" xmlns="http://www.w3.org/2000/svg">
<path d="M8 2.66699C4.68667 2.66699 2 4.66698 2 8.00098C2 9.41431 2.48663 10.595 3.29997 11.475C3.19997 12.115 2.83995 12.8483 2.11328 13.435C1.89328 13.6216 2.01997 13.9883 2.30664 13.995C3.25331 14.0283 4.71327 13.9017 5.60661 12.9483C6.33994 13.2017 7.14667 13.335 8 13.335C11.3133 13.335 14 11.3343 14 8.00098C14 4.66698 11.3133 2.66699 8 2.66699ZM10.02 9.31364C10.2154 9.50897 10.2154 9.82566 10.02 10.021C9.92269 10.1183 9.79467 10.1676 9.66667 10.1676C9.53867 10.1676 9.41065 10.119 9.31331 10.021L8 8.70768L6.68669 10.021C6.58935 10.1183 6.46133 10.1676 6.33333 10.1676C6.20533 10.1676 6.07731 10.119 5.97998 10.021C5.78465 9.82566 5.78465 9.50897 5.97998 9.31364L7.29329 8.00033L5.97998 6.68701C5.78465 6.49168 5.78465 6.17499 5.97998 5.97966C6.17531 5.78432 6.492 5.78432 6.68734 5.97966L8.00065 7.29297L9.31397 5.97966C9.5093 5.78432 9.82599 5.78432 10.0213 5.97966C10.2167 6.17499 10.2167 6.49168 10.0213 6.68701L8.70801 8.00033L10.02 9.31364Z" fill="#3B3B3E"/>
</svg>
