<svg width="16" height="16" viewBox="0 0 16 16" fill="none" xmlns="http://www.w3.org/2000/svg">
<path d="M10.0003 13.8332C9.72433 13.8332 9.50033 13.6092 9.50033 13.3332C9.50033 13.0572 9.72433 12.8332 10.0003 12.8332C10.2797 12.8332 10.5717 12.6792 10.8704 12.3759L13.693 9.54656C14.0076 9.23456 14.1663 8.94255 14.167 8.67721C14.1677 8.40988 14.0084 8.11456 13.6937 7.79989L9.427 3.52654C9.22033 3.31654 8.94302 3.19187 8.64168 3.17253C8.36568 3.15453 8.1563 2.91653 8.17497 2.6412C8.1923 2.3652 8.45498 2.1599 8.70565 2.17457C9.25431 2.2099 9.76303 2.44057 10.1377 2.8239L14.401 7.09388C14.911 7.60321 15.1683 8.13723 15.167 8.6799C15.1663 9.22123 14.9077 9.7512 14.3997 10.2559L11.581 13.0805C11.0903 13.5785 10.5577 13.8332 10.0003 13.8332ZM11.3836 9.9019L8.56169 12.7266C7.75369 13.5359 6.91698 13.5359 6.10832 12.7266L1.84098 8.45521C1.51565 8.12987 1.33301 7.68789 1.33301 7.22722V3.8239C1.33301 3.18457 1.851 2.66655 2.48966 2.66655H5.88965C6.34965 2.66655 6.79096 2.84922 7.11629 3.17522L11.3836 7.44654C12.2196 8.28387 12.1916 9.09257 11.3836 9.9019ZM4.36702 5.03321C4.36702 4.66521 4.06966 4.36654 3.70166 4.36654H3.69499C3.32832 4.36654 3.03296 4.66521 3.03296 5.03321C3.03296 5.40121 3.33434 5.69988 3.70101 5.69988C4.06968 5.69988 4.36702 5.40121 4.36702 5.03321Z" fill="#3B3B3E"/>
</svg>
