<svg width="16" height="16" viewBox="0 0 16 16" fill="none" xmlns="http://www.w3.org/2000/svg">
<path d="M13.6667 6H10.24C10.0933 6 9.96668 6.09333 9.92668 6.22666L9.74666 6.77334C9.7 6.90667 9.57335 7 9.43335 7H8.58C8.43333 7 8.30668 6.90667 8.26668 6.77334L8.08667 6.22666C8.04 6.09333 7.91332 6 7.77332 6H6.01335C5.65335 6 5.30667 6.06667 4.96 6.16L4.40666 5.60667C3.81999 5.02 2.87333 5.02 2.28666 5.60667C2 5.89334 1.84668 6.26667 1.84668 6.66667C1.84668 7.06667 2.00666 7.44 2.28666 7.72666L2.56665 8.00666C1.67998 9.53333 1.88002 11.52 3.18669 12.8267C4.74669 14.3933 7.28001 14.3933 8.84001 12.8267C9.67334 12 10.06 10.9 10.0067 9.81333L13.7733 8.73334C13.9133 8.69334 14.0133 8.56 14.0133 8.41333V6.33333C14.0133 6.14667 13.8667 6 13.68 6H13.6667ZM2.97998 7.02C2.88665 6.92667 2.83333 6.8 2.83333 6.66667C2.83333 6.53333 2.88665 6.40667 2.97998 6.31333C3.17331 6.12 3.49335 6.12 3.68669 6.31333L3.95333 6.58C3.68 6.74666 3.41335 6.93333 3.18001 7.17333C3.17335 7.18 3.16666 7.18666 3.15999 7.19333L2.98665 7.02H2.97998ZM6.93998 10.94C6.41998 11.46 5.57334 11.46 5.05334 10.94C4.53334 10.42 4.53334 9.57333 5.05334 9.05333C5.57334 8.53333 6.41998 8.53333 6.93998 9.05333C7.45998 9.57333 7.45998 10.42 6.93998 10.94ZM8.5 3.33333V2C8.5 1.72667 8.72667 1.5 9 1.5C9.27333 1.5 9.5 1.72667 9.5 2V3.33333C9.5 3.60667 9.27333 3.83333 9 3.83333C8.72667 3.83333 8.5 3.60667 8.5 3.33333ZM10.3133 4.18667C10.12 3.99333 10.12 3.67333 10.3133 3.48L10.98 2.81333C11.1733 2.62 11.4934 2.62 11.6867 2.81333C11.88 3.00667 11.88 3.32667 11.6867 3.52L11.02 4.18667C10.92 4.28667 10.7933 4.33333 10.6667 4.33333C10.54 4.33333 10.4133 4.28667 10.3133 4.18667ZM6.31331 3.52C6.11998 3.32667 6.11998 3.00667 6.31331 2.81333C6.50665 2.62 6.82669 2.62 7.02002 2.81333L7.68669 3.48C7.88002 3.67333 7.88002 3.99333 7.68669 4.18667C7.58669 4.28667 7.46 4.33333 7.33333 4.33333C7.20667 4.33333 7.07998 4.28667 6.97998 4.18667L6.31331 3.52Z" fill="#3B3B3E"/>
</svg>
