<svg width="16" height="16" viewBox="0 0 16 16" fill="none" xmlns="http://www.w3.org/2000/svg">
<path d="M14.6663 5.03971V10.9596C14.6663 11.381 14.1789 11.6144 13.8503 11.3511L12.4077 10.193C12.3604 10.155 12.333 10.0976 12.333 10.0369V5.9624C12.333 5.90174 12.3604 5.84431 12.4077 5.80631L13.8503 4.64827C14.1789 4.38494 14.6663 4.61838 14.6663 5.03971ZM11.333 10.6663V5.33301C11.333 3.99967 10.6663 3.33301 9.33301 3.33301H3.33301C1.99967 3.33301 1.33301 3.99967 1.33301 5.33301V10.6663C1.33301 11.9997 1.99967 12.6663 3.33301 12.6663H9.33301C10.6663 12.6663 11.333 11.9997 11.333 10.6663Z" fill="#3B3B3E"/>
</svg>
