<svg width="16" height="16" viewBox="0 0 16 16" fill="none" xmlns="http://www.w3.org/2000/svg">
<path d="M12.6333 4.17301C11.7666 3.77968 10.8399 3.49301 9.87993 3.33301C9.75993 3.53967 9.62658 3.81967 9.53325 4.03967C8.50658 3.89301 7.49326 3.89301 6.47992 4.03967C6.38659 3.81967 6.2466 3.53967 6.13326 3.33301C5.1666 3.49301 4.23993 3.77968 3.37993 4.17301C1.63326 6.71968 1.15993 9.20633 1.39993 11.6597C2.55993 12.493 3.67993 12.9997 4.77993 13.333C5.0466 12.973 5.29325 12.5863 5.49992 12.1797C5.09992 12.033 4.71993 11.853 4.35993 11.6397C4.45326 11.573 4.5466 11.4997 4.63326 11.4264C6.8266 12.4197 9.21326 12.4197 11.3799 11.4264C11.4733 11.4997 11.5599 11.573 11.6533 11.6397C11.2933 11.853 10.9132 12.033 10.5132 12.1797C10.7199 12.5863 10.9666 12.973 11.2333 13.333C12.3333 12.9997 13.4599 12.493 14.6133 11.6597C14.9066 8.81967 14.1533 6.35301 12.6466 4.17301H12.6333ZM5.78658 10.113C5.12658 10.113 4.58659 9.51302 4.58659 8.77968C4.58659 8.04635 5.11325 7.44635 5.78658 7.44635C6.45992 7.44635 6.99993 8.04635 6.9866 8.77968C6.9866 9.51302 6.45325 10.113 5.78658 10.113ZM10.2133 10.113C9.55326 10.113 9.01325 9.51302 9.01325 8.77968C9.01325 8.04635 9.53993 7.44635 10.2133 7.44635C10.8866 7.44635 11.4266 8.04635 11.4133 8.77968C11.4133 9.51302 10.8866 10.113 10.2133 10.113Z" fill="#3B3B3E"/>
</svg>
