<svg width="16" height="16" viewBox="0 0 16 16" fill="none" xmlns="http://www.w3.org/2000/svg">
<path d="M4.83358 2C4.83358 1.724 5.05758 1.5 5.33358 1.5H8.66692C8.94292 1.5 9.16692 1.724 9.16692 2C9.16692 2.276 8.94292 2.5 8.66692 2.5H5.33358C5.05758 2.5 4.83358 2.276 4.83358 2ZM8.33358 11.3333V12.6667C8.33358 12.9973 8.36895 13.306 8.43628 13.586C8.46162 13.692 8.4036 13.7993 8.29826 13.828C7.78426 13.9666 7.24556 14.026 6.67489 13.9893C4.38156 13.844 2.42288 12.082 2.06421 9.81201C1.57221 6.69268 3.97358 3.99935 7.00025 3.99935C8.11492 3.99935 9.14287 4.36735 9.97421 4.98535L10.9802 3.97933C11.1736 3.786 11.4936 3.786 11.6869 3.97933C11.8803 4.17266 11.8803 4.4927 11.6869 4.68604L10.7136 5.65934C11.3183 6.33201 11.7469 7.1673 11.9163 8.0953C11.9389 8.21796 11.8389 8.33268 11.7143 8.33268H11.3336C9.67692 8.33335 8.33358 9.67667 8.33358 11.3333ZM7.50025 6.66667C7.50025 6.39067 7.27625 6.16667 7.00025 6.16667C6.72425 6.16667 6.50025 6.39067 6.50025 6.66667V9C6.50025 9.276 6.72425 9.5 7.00025 9.5C7.27625 9.5 7.50025 9.276 7.50025 9V6.66667ZM14.6669 11.3333V12.6667C14.6669 14 14.0002 14.6667 12.6669 14.6667H11.3336C10.0002 14.6667 9.33358 14 9.33358 12.6667V11.3333C9.33358 10 10.0002 9.33333 11.3336 9.33333H12.6669C14.0002 9.33333 14.6669 10 14.6669 11.3333ZM13.0696 11.2087C12.9396 11.0787 12.7282 11.0787 12.5982 11.2087L11.7229 12.084L11.4036 11.764C11.2736 11.634 11.0622 11.634 10.9322 11.764C10.8022 11.894 10.8022 12.1054 10.9322 12.2354L11.4876 12.7907C11.5502 12.8534 11.6349 12.888 11.7236 12.888C11.8122 12.888 11.8969 12.8527 11.9596 12.7907L13.0709 11.6794C13.1996 11.55 13.1996 11.3387 13.0696 11.2087Z" fill="#3B3B3E"/>
</svg>
