<svg width="16" height="16" viewBox="0 0 16 16" fill="none" xmlns="http://www.w3.org/2000/svg">
<path d="M2.33301 4.66659H3.51099C3.82699 4.66659 4.13238 4.55451 4.37305 4.35051L6.83366 2.26588C7.55699 1.65321 8.66699 2.16733 8.66699 3.11532V12.8845C8.66699 13.8325 7.55699 14.3473 6.83366 13.734L4.37305 11.6493C4.13238 11.4453 3.82699 11.3333 3.51099 11.3333H2.33301C1.78101 11.3333 1.33301 10.8853 1.33301 10.3333V5.66725C1.33301 5.11458 1.78101 4.66659 2.33301 4.66659ZM15.1663 7.99993C15.1663 7.72393 14.9423 7.49993 14.6663 7.49993H11.333C11.057 7.49993 10.833 7.72393 10.833 7.99993C10.833 8.27593 11.057 8.49993 11.333 8.49993H14.6663C14.9423 8.49993 15.1663 8.27593 15.1663 7.99993Z" fill="#3B3B3E"/>
</svg>
