<svg width="16" height="16" viewBox="0 0 16 16" fill="none" xmlns="http://www.w3.org/2000/svg">
<path d="M11.8044 10.195C12.065 10.4557 12.065 10.877 11.8044 11.1377L8.47168 14.4704C8.40968 14.5324 8.33639 14.5811 8.25439 14.6151C8.17306 14.6491 8.08634 14.6663 7.99967 14.6663C7.91301 14.6663 7.82629 14.6484 7.74495 14.6151C7.66295 14.5811 7.58967 14.5324 7.52767 14.4704L4.19499 11.1377C3.93432 10.877 3.93432 10.4557 4.19499 10.195C4.45565 9.93432 4.87703 9.93432 5.1377 10.195L7.33301 12.3903V4.66634C7.33301 4.29834 7.63101 3.99967 7.99967 3.99967C8.36834 3.99967 8.66634 4.29834 8.66634 4.66634V12.3903L10.8617 10.195C11.1223 9.93432 11.5437 9.93432 11.8044 10.195ZM11.9997 1.33301H3.99967C3.63101 1.33301 3.33301 1.63167 3.33301 1.99967C3.33301 2.36767 3.63101 2.66634 3.99967 2.66634H11.9997C12.3683 2.66634 12.6663 2.36767 12.6663 1.99967C12.6663 1.63167 12.3683 1.33301 11.9997 1.33301Z" fill="#3B3B3E"/>
</svg>
