<svg width="16" height="16" viewBox="0 0 16 16" fill="none" xmlns="http://www.w3.org/2000/svg">
<path d="M8.01335 1.33301C4.33335 1.33301 1.34668 4.31967 1.34668 7.99967C1.34668 11.6797 4.33335 14.6663 8.01335 14.6663C11.6933 14.6663 14.68 11.6797 14.68 7.99967C14.68 4.31967 11.6933 1.33301 8.01335 1.33301ZM6 7.83301C5.52 7.83301 5.16667 7.33967 5.16667 6.66634C5.16667 5.99301 5.52 5.49967 6 5.49967C6.48 5.49967 6.83333 5.99301 6.83333 6.66634C6.83333 7.33967 6.48 7.83301 6 7.83301ZM8 11.9997C7.26667 11.9997 6.66667 11.3997 6.66667 10.6663C6.66667 9.93301 7.26667 9.33301 8 9.33301C8.73333 9.33301 9.33333 9.93301 9.33333 10.6663C9.33333 11.3997 8.73333 11.9997 8 11.9997ZM10 7.83301C9.52 7.83301 9.16667 7.33967 9.16667 6.66634C9.16667 5.99301 9.52 5.49967 10 5.49967C10.48 5.49967 10.8333 5.99301 10.8333 6.66634C10.8333 7.33967 10.48 7.83301 10 7.83301Z" fill="#3B3B3E"/>
</svg>
