<svg width="16" height="16" viewBox="0 0 16 16" fill="none" xmlns="http://www.w3.org/2000/svg">
<path d="M7.99967 1.33301C4.31967 1.33301 1.33301 4.31967 1.33301 7.99967C1.33301 11.6797 4.31967 14.6663 7.99967 14.6663C11.6797 14.6663 14.6663 11.6797 14.6663 7.99967C14.6663 4.31967 11.6797 1.33301 7.99967 1.33301ZM4.19968 6.653C3.87301 6.113 3.90634 5.43301 4.53301 5.20634C4.99968 5.03301 5.35968 5.52634 5.35968 5.52634C5.35968 5.52634 5.31301 4.91967 5.78635 4.74634C6.41968 4.51967 6.87301 5.01968 6.97301 5.63968C7.13301 6.65968 6.13301 7.63968 6.13301 7.63968C6.13301 7.63968 4.73301 7.53301 4.19968 6.64634V6.653ZM7.99967 11.9997C6.69967 11.9997 5.61968 11.0997 5.33968 9.88634C5.27968 9.61968 5.55968 9.41301 5.81301 9.51967C7.26634 10.0997 8.71968 10.0997 10.1797 9.51967C10.433 9.41967 10.7197 9.61968 10.653 9.88634C10.373 11.0997 9.29301 11.9997 7.99301 11.9997H7.99967ZM11.793 6.64634C11.2597 7.53301 9.85968 7.63968 9.85968 7.63968C9.85968 7.63968 8.85301 6.65301 9.01967 5.63301C9.11967 5.00634 9.57968 4.51301 10.213 4.73967C10.6797 4.90634 10.6663 5.43968 10.6663 5.43968C10.6663 5.43968 10.993 5.02634 11.4663 5.19968C12.093 5.43301 12.1263 6.10634 11.7997 6.653L11.793 6.64634Z" fill="#3B3B3E"/>
</svg>
