<svg width="16" height="16" viewBox="0 0 16 16" fill="none" xmlns="http://www.w3.org/2000/svg">
<path d="M12.833 5.5H11.333C10.2797 5.5 9.83301 5.05333 9.83301 4V2.5L12.833 5.5ZM13.333 6.5V12C13.333 13.3333 12.6663 14 11.333 14H5.33301C3.99967 14 3.33301 13.3333 3.33301 12V4C3.33301 2.66667 3.99967 2 5.33301 2H8.83301V4C8.83301 5.61333 9.71967 6.5 11.333 6.5H13.333ZM9.16634 10.6667C9.16634 10.3907 8.94234 10.1667 8.66634 10.1667H5.99967C5.72367 10.1667 5.49967 10.3907 5.49967 10.6667C5.49967 10.9427 5.72367 11.1667 5.99967 11.1667H8.66634C8.94234 11.1667 9.16634 10.9427 9.16634 10.6667ZM11.1663 8C11.1663 7.724 10.9423 7.5 10.6663 7.5H5.99967C5.72367 7.5 5.49967 7.724 5.49967 8C5.49967 8.276 5.72367 8.5 5.99967 8.5H10.6663C10.9423 8.5 11.1663 8.276 11.1663 8Z" fill="#3B3B3E"/>
</svg>
