<svg width="16" height="16" viewBox="0 0 16 16" fill="none" xmlns="http://www.w3.org/2000/svg">
<path d="M2.8667 9.66699H13.1333C13.244 9.66699 13.3333 9.57763 13.3333 9.46696V4.66699C13.3333 3.33366 12.6667 2.66699 11.3333 2.66699H4.66667C3.33333 2.66699 2.66667 3.33366 2.66667 4.66699V9.46696C2.66667 9.57763 2.75603 9.66699 2.8667 9.66699ZM8.97998 5.68701C8.78465 5.49168 8.78465 5.17499 8.97998 4.97966C9.17531 4.78432 9.492 4.78432 9.68734 4.97966L11.0207 6.31299C11.216 6.50832 11.216 6.82501 11.0207 7.02035L9.68734 8.35368C9.59 8.45101 9.46198 8.50033 9.33398 8.50033C9.20598 8.50033 9.07797 8.45168 8.98063 8.35368C8.7853 8.15835 8.7853 7.84166 8.98063 7.64632L9.96061 6.66634L8.97998 5.68701ZM4.97998 6.31364L6.31331 4.98031C6.50865 4.78497 6.82534 4.78497 7.02067 4.98031C7.216 5.17564 7.216 5.49233 7.02067 5.68766L6.04069 6.66764L7.02067 7.64762C7.216 7.84296 7.216 8.15965 7.02067 8.35498C6.92334 8.45231 6.79532 8.50163 6.66732 8.50163C6.53932 8.50163 6.4113 8.45298 6.31396 8.35498L4.98063 7.02165C4.78463 6.82498 4.78465 6.50897 4.97998 6.31364ZM14 10.867V11.3337C14 12.2223 13.5553 12.667 12.6667 12.667H3.33333C2.44467 12.667 2 12.2223 2 11.3337V10.867C2 10.7564 2.08937 10.667 2.20003 10.667H13.8C13.9106 10.667 14 10.7564 14 10.867Z" fill="#3B3B3E"/>
</svg>
