<svg width="16" height="16" viewBox="0 0 16 16" fill="none" xmlns="http://www.w3.org/2000/svg">
<path d="M7.99967 2C5.33301 2 3.33301 6.38667 3.33301 9.33333C3.33301 11.3333 4.66634 14 7.99967 14C11.333 14 12.6663 11.3333 12.6663 9.33333C12.6663 6.38667 10.6663 2 7.99967 2ZM6.61967 5.60667C6.61967 5.60667 5.83301 6.84 5.83301 8C5.83301 8.27333 5.60634 8.5 5.33301 8.5C5.05967 8.5 4.83301 8.27333 4.83301 8C4.83301 6.53333 5.73966 5.12 5.77966 5.06C5.933 4.82666 6.23969 4.76 6.47302 4.91333C6.70636 5.06666 6.773 5.37334 6.61967 5.60667V5.60667Z" fill="#3B3B3E"/>
</svg>
