<svg width="16" height="16" viewBox="0 0 16 16" fill="none" xmlns="http://www.w3.org/2000/svg">
<path d="M11.155 7.74528C11.6757 7.20528 11.9997 6.47465 11.9997 5.66732C11.9997 4.12732 10.829 2.86933 9.33301 2.70133V2.00065C9.33301 1.63398 9.03301 1.33398 8.66634 1.33398C8.29967 1.33398 7.99967 1.63398 7.99967 2.00065V2.66732H6.66634V2.00065C6.66634 1.63398 6.36634 1.33398 5.99967 1.33398C5.63301 1.33398 5.33301 1.63398 5.33301 2.00065V2.66732H3.99967C3.63167 2.66732 3.33301 2.96598 3.33301 3.33398C3.33301 3.70198 3.63167 4.00065 3.99967 4.00065H4.66634V12.0007H3.99967C3.63167 12.0007 3.33301 12.2993 3.33301 12.6673C3.33301 13.0353 3.63167 13.334 3.99967 13.334H5.33301V14.0007C5.33301 14.3673 5.63301 14.6673 5.99967 14.6673C6.36634 14.6673 6.66634 14.3673 6.66634 14.0007V13.334H7.99967V14.0007C7.99967 14.3673 8.29967 14.6673 8.66634 14.6673C9.03301 14.6673 9.33301 14.3673 9.33301 14.0007V13.334H9.66634C11.3203 13.334 12.6663 11.988 12.6663 10.334C12.6663 9.22398 12.0537 8.26395 11.155 7.74528ZM8.99967 4.00065C9.91834 4.00065 10.6663 4.74865 10.6663 5.66732C10.6663 6.58598 9.91834 7.33398 8.99967 7.33398H5.99967V4.00065H8.99967ZM9.66634 12.0007H5.99967V8.66732H8.99967H9.66634C10.585 8.66732 11.333 9.41532 11.333 10.334C11.333 11.2527 10.585 12.0007 9.66634 12.0007Z" fill="#3B3B3E"/>
</svg>
