<svg width="16" height="16" viewBox="0 0 16 16" fill="none" xmlns="http://www.w3.org/2000/svg">
<path d="M9.83301 4V2.5L12.833 5.5H11.333C10.2797 5.5 9.83301 5.05333 9.83301 4ZM13.333 6.5V12C13.333 13.3333 12.6663 14 11.333 14H5.33301C3.99967 14 3.33301 13.3333 3.33301 12V4C3.33301 2.66667 3.99967 2 5.33301 2H8.83301V4C8.83301 5.61333 9.71967 6.5 11.333 6.5H13.333ZM9.04036 9.33333L10.0203 8.35333C10.2157 8.158 10.2157 7.84133 10.0203 7.646C9.82501 7.45066 9.50832 7.45066 9.31299 7.646L8.33301 8.626L7.35303 7.646C7.15769 7.45066 6.841 7.45066 6.64567 7.646C6.45034 7.84133 6.45034 8.158 6.64567 8.35333L7.62565 9.33333L6.64567 10.3133C6.45034 10.5087 6.45034 10.8253 6.64567 11.0207C6.743 11.118 6.87102 11.1673 6.99902 11.1673C7.12702 11.1673 7.25504 11.1187 7.35238 11.0207L8.33236 10.0407L9.31234 11.0207C9.40967 11.118 9.53769 11.1673 9.66569 11.1673C9.79369 11.1673 9.92171 11.1187 10.019 11.0207C10.2144 10.8253 10.2144 10.5087 10.019 10.3133L9.04036 9.33333Z" fill="#3B3B3E"/>
</svg>
