<svg width="16" height="16" viewBox="0 0 16 16" fill="none" xmlns="http://www.w3.org/2000/svg">
<path d="M7.83366 2V4.66667C7.83366 6.06 6.82699 7.21333 5.50033 7.44667V14C5.50033 14.2733 5.27366 14.5 5.00033 14.5C4.72699 14.5 4.50033 14.2733 4.50033 14V7.44667C3.17366 7.20667 2.16699 6.05333 2.16699 4.66667V2C2.16699 1.72667 2.39366 1.5 2.66699 1.5C2.94033 1.5 3.16699 1.72667 3.16699 2V4.66667H3.66699V2C3.66699 1.72667 3.89366 1.5 4.16699 1.5C4.44033 1.5 4.66699 1.72667 4.66699 2V4.66667H5.22032V2C5.22032 1.72667 5.44698 1.5 5.72032 1.5C5.99365 1.5 6.22032 1.72667 6.22032 2V4.66667H6.83366V2C6.83366 1.72667 7.06033 1.5 7.33366 1.5C7.60699 1.5 7.83366 1.72667 7.83366 2ZM13.6403 4.98L13.4737 3.61333C13.3403 2.5 12.4203 1.66667 11.3337 1.66667C10.247 1.66667 9.327 2.50667 9.19366 3.61333L9.027 4.98C8.927 5.8 9.10033 6.49334 9.527 6.97334C9.86033 7.34667 10.3203 7.56667 10.9003 7.64V14.0067C10.9003 14.28 11.127 14.5067 11.4003 14.5067C11.6737 14.5067 11.9003 14.28 11.9003 14.0067V7.62667C12.4203 7.54 12.8337 7.32 13.1403 6.97334C13.567 6.49334 13.7403 5.80667 13.6403 4.98V4.98Z" fill="#3B3B3E"/>
</svg>
