<svg width="16" height="16" viewBox="0 0 16 16" fill="none" xmlns="http://www.w3.org/2000/svg">
<path d="M13.3317 3.04728V12.0007L13.327 11.9913V12.0007L11.7611 11.1047C11.6984 11.0693 11.6603 11.0026 11.6603 10.9313C11.6603 10.9313 11.6603 5.67062 11.6603 5.64795C11.633 3.98995 10.6296 3.00132 8.95361 3.00065H5.47835C5.36235 3.00065 5.32773 2.89935 5.33773 2.78402C5.42106 1.82135 5.99036 1.33398 7.04036 1.33398H11.6136H11.6183C12.7583 1.33398 13.3317 1.90728 13.3317 3.04728ZM10.667 5.71468V14.6673L6.66699 12.382L2.66699 14.6673V5.71468C2.66699 4.57201 3.23836 4.00065 4.38102 4.00065H8.95231C10.0956 4.00065 10.667 4.57201 10.667 5.71468ZM8.62695 7.66195L7.54769 7.50602C7.46902 7.49469 7.40171 7.44534 7.36637 7.37467L6.89893 6.43131C6.80426 6.23998 6.53104 6.23998 6.43571 6.43131L5.96826 7.37467C5.93293 7.44534 5.86495 7.49469 5.78695 7.50602L4.70768 7.66195C4.50968 7.69061 4.43105 7.93334 4.57438 8.07267L5.35433 8.83C5.411 8.88533 5.43767 8.96529 5.42367 9.04329L5.24495 10.0786C5.20895 10.2893 5.4303 10.45 5.61963 10.3507L6.55501 9.86133C6.62501 9.82466 6.70897 9.82466 6.77897 9.86133L7.71501 10.3513C7.90434 10.4507 8.12503 10.29 8.08903 10.08L7.91032 9.04394C7.89699 8.96594 7.92299 8.88598 7.97966 8.83065L8.7596 8.07332C8.9036 7.93332 8.82495 7.69061 8.62695 7.66195Z" fill="#3B3B3E"/>
</svg>
