<svg width="16" height="16" viewBox="0 0 16 16" fill="none" xmlns="http://www.w3.org/2000/svg">
<path d="M11.1385 8.86184C11.3992 9.12251 11.3992 9.54388 11.1385 9.80455L8.47187 12.4712C8.34187 12.6012 8.17118 12.6665 8.00051 12.6665C7.82985 12.6665 7.65916 12.6012 7.52916 12.4712L4.86249 9.80455C4.60183 9.54388 4.60183 9.12251 4.86249 8.86184C5.12316 8.60117 5.54453 8.60117 5.8052 8.86184L8.00051 11.0572L10.1958 8.86184C10.4565 8.60117 10.8779 8.60117 11.1385 8.86184ZM5.8052 7.13788L8.00051 4.94257L10.1958 7.13788C10.3258 7.26788 10.4965 7.3332 10.6672 7.3332C10.8378 7.3332 11.0085 7.26788 11.1385 7.13788C11.3992 6.87722 11.3992 6.45584 11.1385 6.19517L8.47187 3.52851C8.2112 3.26784 7.78983 3.26784 7.52916 3.52851L4.86249 6.19517C4.60183 6.45584 4.60183 6.87722 4.86249 7.13788C5.12316 7.39855 5.54453 7.39855 5.8052 7.13788Z" fill="#3B3B3E"/>
</svg>
