<svg width="16" height="16" viewBox="0 0 16 16" fill="none" xmlns="http://www.w3.org/2000/svg">
<path d="M11.9997 12.6667C11.631 12.6667 11.333 12.368 11.333 12C11.333 11.632 11.631 11.3333 11.9997 11.3333C12.959 11.3333 13.333 10.9593 13.333 10V4.66667C13.333 3.70733 12.959 3.33333 11.9997 3.33333H3.99967C3.04034 3.33333 2.66634 3.70733 2.66634 4.66667V10C2.66634 10.9593 3.04034 11.3333 3.99967 11.3333C4.36834 11.3333 4.66634 11.632 4.66634 12C4.66634 12.368 4.36834 12.6667 3.99967 12.6667C2.30501 12.6667 1.33301 11.6947 1.33301 10V4.66667C1.33301 2.972 2.30501 2 3.99967 2H11.9997C13.6943 2 14.6663 2.972 14.6663 4.66667V10C14.6663 11.6947 13.6943 12.6667 11.9997 12.6667ZM10.5304 12.9246L8.53304 10.2666C8.26571 9.91127 7.73437 9.91127 7.46704 10.2666L5.46964 12.9246C5.13764 13.3666 5.45103 14 6.00236 14H9.99764C10.5483 14 10.8624 13.3666 10.5304 12.9246Z" fill="#3B3B3E"/>
</svg>
