<svg width="16" height="16" viewBox="0 0 16 16" fill="none" xmlns="http://www.w3.org/2000/svg">
<path d="M13.9997 14H2.99967C1.97167 14 1.33301 13.3613 1.33301 12.3333V2.66667C1.33301 2.29867 1.63167 2 1.99967 2C2.36767 2 2.66634 2.29867 2.66634 2.66667V12.3333C2.66634 12.6327 2.70034 12.6667 2.99967 12.6667H13.9997C14.3677 12.6667 14.6663 12.9653 14.6663 13.3333C14.6663 13.7013 14.3677 14 13.9997 14ZM13.3463 5H13.3397C12.7877 5 12.343 5.44733 12.343 6C12.343 6.086 12.3577 6.16797 12.3777 6.24797L10.925 7.70068C10.8457 7.68068 10.7643 7.66667 10.6797 7.66667H10.673C10.5823 7.66667 10.4957 7.68266 10.4123 7.70532L8.973 6.26603C8.99633 6.1807 9.013 6.09267 9.013 6C9.013 5.44733 8.56567 5 8.013 5H8.00635C7.45435 5 7.00968 5.44733 7.00968 6C7.00968 6.086 7.02433 6.16797 7.04433 6.24797L5.59167 7.70068C5.51234 7.68068 5.431 7.66667 5.34633 7.66667H5.33968C4.78768 7.66667 4.34302 8.114 4.34302 8.66667C4.34302 9.21933 4.79367 9.66667 5.34633 9.66667C5.899 9.66667 6.34633 9.21933 6.34633 8.66667C6.34633 8.574 6.32967 8.48597 6.30634 8.40063L7.74701 6.95996C7.83234 6.98329 7.92033 7 8.013 7C8.09833 7 8.17967 6.98598 8.25834 6.96598L9.711 8.41797C9.69033 8.49797 9.67635 8.58 9.67635 8.66667C9.67635 9.21933 10.127 9.66667 10.6797 9.66667C11.2323 9.66667 11.6797 9.21933 11.6797 8.66667C11.6797 8.574 11.663 8.48597 11.6397 8.40063L13.0803 6.95996C13.1657 6.98329 13.2537 7 13.3463 7C13.899 7 14.3463 6.55267 14.3463 6C14.3463 5.44733 13.899 5 13.3463 5Z" fill="#3B3B3E"/>
</svg>
