<svg width="16" height="16" viewBox="0 0 16 16" fill="none" xmlns="http://www.w3.org/2000/svg">
<path d="M11.7783 1.33398H4.22298C2.74165 1.33398 2.00098 2.07466 2.00098 3.55599V10.2227C2.00098 11.704 2.74165 12.4447 4.22298 12.4447H5.22298C5.57298 12.4447 5.90232 12.6093 6.11165 12.8893L7.11165 14.2227C7.55632 14.8153 8.44498 14.8153 8.88965 14.2227L9.88965 12.8893C10.0996 12.6093 10.429 12.4447 10.7783 12.4447H11.7783C13.2597 12.4447 14.0003 11.704 14.0003 10.2227V3.55599C14.0003 2.07466 13.2597 1.33398 11.7783 1.33398ZM6.16699 4.33398C6.62699 4.33398 7.00033 4.70732 7.00033 5.16732C7.00033 5.62732 6.62699 6.00065 6.16699 6.00065C5.70699 6.00065 5.33366 5.62732 5.33366 5.16732C5.33366 4.70732 5.70699 4.33398 6.16699 4.33398ZM9.83366 9.66732C9.37366 9.66732 9.00033 9.29398 9.00033 8.83398C9.00033 8.37398 9.37366 8.00065 9.83366 8.00065C10.2937 8.00065 10.667 8.37398 10.667 8.83398C10.667 9.29398 10.2937 9.66732 9.83366 9.66732ZM11.0203 4.68734L5.68701 10.0207C5.58968 10.118 5.46166 10.1673 5.33366 10.1673C5.20566 10.1673 5.07764 10.1187 4.98031 10.0207C4.78497 9.82534 4.78497 9.50865 4.98031 9.31331L10.3136 3.97998C10.509 3.78465 10.8257 3.78465 11.021 3.97998C11.2163 4.17531 11.2157 4.492 11.0203 4.68734Z" fill="#3B3B3E"/>
</svg>
