<svg width="16" height="16" viewBox="0 0 16 16" fill="none" xmlns="http://www.w3.org/2000/svg">
<path d="M8.5 3.33301V1.83301L11.5 4.83301H10C8.94667 4.83301 8.5 4.38634 8.5 3.33301ZM11.9399 7.80634L7.95996 11.813C7.77329 11.9997 7.66667 12.253 7.66667 12.5197V13.133C7.66667 13.2463 7.57997 13.333 7.46663 13.333H4C2.66667 13.333 2 12.6663 2 11.333V3.33301C2 1.99967 2.66667 1.33301 4 1.33301H7.5V3.33301C7.5 4.94634 8.38667 5.83301 10 5.83301H12V7.66634C12 7.71967 11.9799 7.773 11.9399 7.80634ZM7.83333 9.99967C7.83333 9.72367 7.60933 9.49967 7.33333 9.49967H4.66667C4.39067 9.49967 4.16667 9.72367 4.16667 9.99967C4.16667 10.2757 4.39067 10.4997 4.66667 10.4997H7.33333C7.60933 10.4997 7.83333 10.2757 7.83333 9.99967ZM9.83333 7.33301C9.83333 7.05701 9.60933 6.83301 9.33333 6.83301H4.66667C4.39067 6.83301 4.16667 7.05701 4.16667 7.33301C4.16667 7.60901 4.39067 7.83301 4.66667 7.83301H9.33333C9.60933 7.83301 9.83333 7.60901 9.83333 7.33301ZM8.66667 12.5197V13.9997H10.1466L12.8133 11.3463L11.32 9.85301L8.66667 12.5197ZM13.8267 9.49967L13.1667 8.83968C12.9333 8.60635 12.56 8.60635 12.3267 8.83968L11.7866 9.38633L13.2799 10.8797L13.8267 10.3397C14.06 10.1063 14.06 9.73301 13.8267 9.49967Z" fill="#3B3B3E"/>
</svg>
