<svg width="16" height="16" viewBox="0 0 16 16" fill="none" xmlns="http://www.w3.org/2000/svg">
<path d="M5.33333 5V11C5.33333 11.6667 5 12 4.33333 12H3C2.33333 12 2 11.6667 2 11V9.66667H1.66667C1.29333 9.66667 1 9.35333 1 8.95333V7.04667C1 6.64667 1.29333 6.33333 1.66667 6.33333H2V5C2 4.33333 2.33333 4 3 4H4.33333C5 4 5.33333 4.33333 5.33333 5ZM14.3333 6.33333H14V5C14 4.33333 13.6667 4 13 4H11.6667C11 4 10.6667 4.33333 10.6667 5V11C10.6667 11.6667 11 12 11.6667 12H13C13.6667 12 14 11.6667 14 11V9.66667H14.3333C14.7067 9.66667 15 9.35333 15 8.95333V7.04667C15 6.64667 14.7067 6.33333 14.3333 6.33333ZM6 9.33333H10V6.66667H6V9.33333Z" fill="#3B3B3E"/>
</svg>
