<svg width="16" height="16" viewBox="0 0 16 16" fill="none" xmlns="http://www.w3.org/2000/svg">
<path d="M6.66634 11.3337H4.66634C3.78367 11.3337 2.94769 10.9883 2.31169 10.3617C1.67835 9.71899 1.33301 8.88299 1.33301 8.00033C1.33301 6.16233 2.82834 4.66699 4.66634 4.66699H5.33301C5.70167 4.66699 5.99967 4.96566 5.99967 5.33366C5.99967 5.70166 5.70167 6.00033 5.33301 6.00033H4.66634C3.56367 6.00033 2.66634 6.89766 2.66634 8.00033C2.66634 8.53033 2.87506 9.03432 3.25439 9.41899C3.63239 9.79165 4.13634 10.0003 4.66634 10.0003H6.66634C7.76901 10.0003 8.66634 9.10299 8.66634 8.00033C8.66634 7.63233 8.96434 7.33366 9.33301 7.33366C9.70167 7.33366 9.99967 7.63233 9.99967 8.00033C9.99967 9.83833 8.50434 11.3337 6.66634 11.3337ZM14.6663 8.00033C14.6663 7.11766 14.321 6.281 13.6877 5.639C13.0517 5.01233 12.2157 4.66699 11.333 4.66699H9.33301C7.49501 4.66699 5.99967 6.16233 5.99967 8.00033C5.99967 8.36833 6.29767 8.66699 6.66634 8.66699C7.03501 8.66699 7.33301 8.36833 7.33301 8.00033C7.33301 6.89766 8.23034 6.00033 9.33301 6.00033H11.333C11.863 6.00033 12.367 6.209 12.745 6.58166C13.1236 6.96633 13.333 7.47033 13.333 8.00033C13.333 9.10299 12.4357 10.0003 11.333 10.0003H10.6663C10.2977 10.0003 9.99967 10.299 9.99967 10.667C9.99967 11.035 10.2977 11.3337 10.6663 11.3337H11.333C13.171 11.3337 14.6663 9.83833 14.6663 8.00033Z" fill="#3B3B3E"/>
</svg>
