<svg width="16" height="16" viewBox="0 0 16 16" fill="none" xmlns="http://www.w3.org/2000/svg">
<path d="M9.38835 9.27801C9.38835 10.0747 8.74034 10.7227 7.94434 10.7227C7.14767 10.7227 6.49967 10.0747 6.49967 9.27801C6.49967 8.48134 7.14767 7.83333 7.94434 7.83333C8.74034 7.83333 9.38835 8.48134 9.38835 9.27801ZM11.333 5.5H12.833L9.83301 2.5V4C9.83301 5.05333 10.2797 5.5 11.333 5.5ZM13.333 6.5V12C13.333 13.3333 12.6663 14 11.333 14H5.33301C3.99967 14 3.33301 13.3333 3.33301 12V4C3.33301 2.66667 3.99967 2 5.33301 2H8.83301V4C8.83301 5.61333 9.71967 6.5 11.333 6.5H13.333ZM11.0197 11.6467L9.98633 10.614C10.2383 10.2293 10.3883 9.77133 10.3883 9.27867C10.3883 7.93067 9.29167 6.834 7.94434 6.834C6.59634 6.834 5.49967 7.93067 5.49967 9.27867C5.49967 10.6267 6.59634 11.7233 7.94434 11.7233C8.43767 11.7233 8.89496 11.574 9.27962 11.322L10.313 12.3547C10.4103 12.452 10.5383 12.5013 10.6663 12.5013C10.7943 12.5013 10.9224 12.4527 11.0197 12.3547C11.215 12.158 11.215 11.8413 11.0197 11.6467Z" fill="#3B3B3E"/>
</svg>
