<svg width="16" height="16" viewBox="0 0 16 16" fill="none" xmlns="http://www.w3.org/2000/svg">
<path d="M14.6669 6.66667V9.33333C14.6669 9.70133 14.3689 10 14.0002 10H11.3303C10.9616 10 10.6636 9.70133 10.6636 9.33333C10.6636 8.96533 10.9616 8.66667 11.3303 8.66667H12.5742C11.6156 7.04333 9.85411 6 7.92011 6C5.39545 6 3.22746 7.70799 2.64879 10.1533C2.57679 10.46 2.30284 10.6667 2.00084 10.6667C1.95018 10.6667 1.89887 10.6613 1.84687 10.6486C1.48887 10.5639 1.26691 10.2047 1.35224 9.84603C2.07358 6.79603 4.77493 4.66602 7.92093 4.66602C10.0863 4.66602 12.0835 5.71274 13.3342 7.39274V6.66667C13.3342 6.29867 13.6322 6 14.0008 6C14.3695 6 14.6669 6.29867 14.6669 6.66667Z" fill="#3B3B3E"/>
</svg>
