<svg width="16" height="16" viewBox="0 0 16 16" fill="none" xmlns="http://www.w3.org/2000/svg">
<path d="M13.72 4.37331L12.2667 5.82664C11.88 6.20664 11.2467 6.20665 10.86 5.81999L10.18 5.13997C9.79334 4.75331 9.79334 4.11997 10.18 3.73997L11.6267 2.27999C10.6067 1.87332 9.34 1.85997 8.15333 2.5733C7.67333 2.85997 7.26667 3.24665 6.98 3.71332C6.96 3.73998 6.94 3.76665 6.92667 3.79999C6.40667 4.65999 6.26667 5.55998 6.38667 6.37331C6.43333 6.67998 6.32667 6.98664 6.10667 7.19997L2.56 10.7533C2.18666 11.12 2 11.6133 2 12.0933C2 12.5867 2.18666 13.0666 2.56 13.44C3.3 14.1866 4.50666 14.1866 5.24666 13.44L8.8 9.89331C9.01333 9.67331 9.32 9.56665 9.62667 9.61332C10.44 9.73332 11.34 9.59331 12.1933 9.07998C12.7 8.77998 13.1267 8.35331 13.42 7.85331C14.14 6.66664 14.1267 5.39331 13.72 4.37331ZM4.01334 12.6666C3.64667 12.6666 3.34667 12.3666 3.34667 12C3.34667 11.6333 3.64 11.3333 4.00666 11.3333H4.01334C4.38 11.3333 4.68 11.6333 4.68 12C4.68 12.3666 4.38 12.6666 4.01334 12.6666Z" fill="#3B3B3E"/>
</svg>
