<svg width="16" height="16" viewBox="0 0 16 16" fill="none" xmlns="http://www.w3.org/2000/svg">
<path d="M7.99967 1.33301C4.31967 1.33301 1.33301 4.31967 1.33301 7.99967C1.33301 11.6797 4.31967 14.6663 7.99967 14.6663C11.6797 14.6663 14.6663 11.6797 14.6663 7.99967C14.6663 4.31967 11.6797 1.33301 7.99967 1.33301ZM7.99967 11.6663C5.97301 11.6663 4.33301 10.0263 4.33301 7.99967C4.33301 5.97301 5.97301 4.33301 7.99967 4.33301C10.0263 4.33301 11.6663 5.97301 11.6663 7.99967C11.6663 10.0263 10.0263 11.6663 7.99967 11.6663ZM9.49967 6.99967C9.49967 6.17301 8.82634 5.49967 7.99967 5.49967C7.17301 5.49967 6.49967 6.17301 6.49967 6.99967C6.49967 7.38634 6.65301 7.73301 6.89301 7.99967C6.65301 8.26634 6.49967 8.61301 6.49967 8.99967C6.49967 9.82634 7.17301 10.4997 7.99967 10.4997C8.82634 10.4997 9.49967 9.82634 9.49967 8.99967C9.49967 8.61301 9.34634 8.26634 9.10634 7.99967C9.34634 7.73301 9.49967 7.38634 9.49967 6.99967ZM7.99967 6.49967C8.27301 6.49967 8.49967 6.72634 8.49967 6.99967C8.49967 7.27301 8.27301 7.49967 7.99967 7.49967C7.72634 7.49967 7.49967 7.27301 7.49967 6.99967C7.49967 6.72634 7.72634 6.49967 7.99967 6.49967ZM7.99967 9.49967C7.72634 9.49967 7.49967 9.27301 7.49967 8.99967C7.49967 8.72634 7.72634 8.49967 7.99967 8.49967C8.27301 8.49967 8.49967 8.72634 8.49967 8.99967C8.49967 9.27301 8.27301 9.49967 7.99967 9.49967Z" fill="#3B3B3E"/>
</svg>
