<svg width="16" height="16" viewBox="0 0 16 16" fill="none" xmlns="http://www.w3.org/2000/svg">
<path d="M14.6663 13.5H13.4997V11.5814C14.1737 11.3674 14.6663 10.7433 14.6663 10V8C14.6663 7.08133 13.919 6.33333 12.9997 6.33333C12.0803 6.33333 11.333 7.08133 11.333 8V10C11.333 10.7433 11.8257 11.368 12.4997 11.5814V13.5H9.99967V4C9.99967 2.66667 9.33301 2 7.99967 2H3.99967C2.66634 2 1.99967 2.66667 1.99967 4V13.5H1.33301C1.05701 13.5 0.833008 13.724 0.833008 14C0.833008 14.276 1.05701 14.5 1.33301 14.5H14.6663C14.9423 14.5 15.1663 14.276 15.1663 14C15.1663 13.724 14.9423 13.5 14.6663 13.5ZM6.99967 4.83333H7.66634C7.94234 4.83333 8.16634 5.05733 8.16634 5.33333C8.16634 5.60933 7.94234 5.83333 7.66634 5.83333H6.99967C6.72367 5.83333 6.49967 5.60933 6.49967 5.33333C6.49967 5.05733 6.72367 4.83333 6.99967 4.83333ZM6.99967 6.83333H7.66634C7.94234 6.83333 8.16634 7.05733 8.16634 7.33333C8.16634 7.60933 7.94234 7.83333 7.66634 7.83333H6.99967C6.72367 7.83333 6.49967 7.60933 6.49967 7.33333C6.49967 7.05733 6.72367 6.83333 6.99967 6.83333ZM4.33301 4.83333H4.99967C5.27567 4.83333 5.49967 5.05733 5.49967 5.33333C5.49967 5.60933 5.27567 5.83333 4.99967 5.83333H4.33301C4.05701 5.83333 3.83301 5.60933 3.83301 5.33333C3.83301 5.05733 4.05701 4.83333 4.33301 4.83333ZM4.33301 6.83333H4.99967C5.27567 6.83333 5.49967 7.05733 5.49967 7.33333C5.49967 7.60933 5.27567 7.83333 4.99967 7.83333H4.33301C4.05701 7.83333 3.83301 7.60933 3.83301 7.33333C3.83301 7.05733 4.05701 6.83333 4.33301 6.83333ZM4.66634 11.3333C4.66634 10.5973 5.26367 10 5.99967 10C6.73634 10 7.33301 10.5973 7.33301 11.3333V13.5H4.66634V11.3333Z" fill="#3B3B3E"/>
</svg>
