<svg width="16" height="16" viewBox="0 0 16 16" fill="none" xmlns="http://www.w3.org/2000/svg">
<path d="M7.99967 1.33398C4.31767 1.33398 1.33301 4.31865 1.33301 8.00065C1.33301 11.6827 4.31767 14.6673 7.99967 14.6673C11.6817 14.6673 14.6663 11.6827 14.6663 8.00065C14.6663 4.31865 11.6817 1.33398 7.99967 1.33398ZM11.2204 7.59599L10.0203 8.76733C9.93234 8.85267 9.89234 8.97666 9.913 9.09733L10.1877 10.7006C10.243 11.026 9.90297 11.274 9.6123 11.1206L8.17236 10.3627C8.06436 10.306 7.93564 10.306 7.82764 10.3627L6.389 11.12C6.097 11.2733 5.757 11.0246 5.81234 10.6993L6.087 9.09733C6.10766 8.976 6.06765 8.85267 5.97965 8.76733L4.7797 7.59599C4.55904 7.38065 4.68036 7.00532 4.98503 6.96065L6.64502 6.71932C6.76569 6.70199 6.87032 6.62532 6.92432 6.51599L7.64364 5.05664C7.78964 4.76064 8.21036 4.76064 8.35636 5.05664L9.07568 6.51599C9.12968 6.62599 9.23431 6.70199 9.35498 6.71932L11.015 6.96065C11.3196 7.00465 11.441 7.38065 11.2204 7.59599Z" fill="#3B3B3E"/>
</svg>
