<svg width="16" height="16" viewBox="0 0 16 16" fill="none" xmlns="http://www.w3.org/2000/svg">
<path d="M14.3732 10.0333C14.1732 10.2333 13.9265 10.3333 13.6665 10.3333C13.4065 10.3333 13.1398 10.2267 12.9198 10.0067C12.3732 9.46001 12.3332 8 12.3332 8C12.3332 8 13.7998 8.04 14.3465 8.58667C14.7798 9.02 14.7665 9.63999 14.3732 10.0333ZM1.65983 8.58667C1.21983 9.02 1.23982 9.63999 1.63315 10.0333C1.82649 10.2333 2.07982 10.3333 2.33982 10.3333C2.59982 10.3333 2.86649 10.2267 3.08649 10.0067C3.63316 9.46001 3.66649 8 3.66649 8C3.66649 8 2.20649 8.04 1.65983 8.58667V8.58667ZM13.9598 7.32001C13.9732 7.46001 13.8398 7.57333 13.7065 7.53333C13.1132 7.36666 12.5265 7.34 12.3532 7.33333H12.3332C12.1598 7.33333 11.9865 7.40667 11.8598 7.52667C11.7332 7.66001 11.6598 7.83333 11.6665 8.02C11.6732 8.30667 11.7465 9.78 12.4465 10.48C12.6132 10.6533 12.8065 10.78 13.0132 10.8667C13.1198 10.9133 13.1598 11.0533 13.0998 11.1533C12.0465 12.86 10.1598 14 7.99982 14C5.83982 14 3.95316 12.86 2.89983 11.1533C2.83983 11.0533 2.87315 10.9133 2.98649 10.8667C3.19315 10.78 3.38649 10.6533 3.55316 10.48C4.21982 9.81333 4.31982 8.45334 4.33316 8.06667V8C4.33316 7.63333 4.03982 7.33333 3.66649 7.33333H3.64649C3.46649 7.33333 2.88649 7.36666 2.29982 7.53333C2.16649 7.57333 2.02649 7.46001 2.03982 7.32001C2.37982 4.32667 4.91982 2 7.99982 2C11.0798 2 13.6198 4.32667 13.9598 7.32001V7.32001ZM5.80649 7.02C5.88649 6.78 6.30649 6.78 6.39315 7.02C6.46649 7.22667 6.65982 7.36001 6.86649 7.36001C6.91982 7.36001 6.97315 7.35333 7.02648 7.33333C7.28648 7.24667 7.42648 6.95999 7.33982 6.69999C7.15982 6.17333 6.65982 5.82001 6.09982 5.82001C5.53982 5.82001 5.04648 6.17333 4.85982 6.69999C4.77315 6.95999 4.90649 7.24667 5.16649 7.33333C5.42649 7.42667 5.71315 7.28667 5.79982 7.02667L5.80649 7.02ZM10.1265 9.64667C10.1732 9.43333 9.94648 9.27333 9.74648 9.35333C8.57982 9.82 7.41982 9.82 6.25316 9.35333C6.05316 9.27333 5.82649 9.43333 5.87315 9.64667C6.09315 10.6133 6.95982 11.3333 7.99982 11.3333C9.03982 11.3333 9.90649 10.6133 10.1265 9.64667ZM11.1398 6.69334C10.9598 6.16667 10.4598 5.81333 9.89983 5.81333C9.33983 5.81333 8.83983 6.16667 8.65983 6.69334C8.57316 6.95334 8.70649 7.23999 8.97316 7.32666C9.02649 7.34666 9.07982 7.35333 9.13315 7.35333C9.33982 7.35333 9.53316 7.21999 9.60649 7.01333C9.68649 6.77333 10.1065 6.77333 10.1932 7.01333C10.2865 7.27333 10.5665 7.41334 10.8265 7.32001C11.0865 7.22667 11.2265 6.94667 11.1332 6.68667L11.1398 6.69334Z" fill="#3B3B3E"/>
</svg>
