<svg width="16" height="16" viewBox="0 0 16 16" fill="none" xmlns="http://www.w3.org/2000/svg">
<path d="M9.83301 4V2.5L12.833 5.5H11.333C10.2797 5.5 9.83301 5.05333 9.83301 4ZM8.33301 7.83333C7.32167 7.83333 6.49967 8.656 6.49967 9.66667C6.49967 9.99 6.59095 10.29 6.73828 10.554L9.22038 8.07266C8.95638 7.92466 8.65634 7.83333 8.33301 7.83333ZM13.333 6.5V12C13.333 13.3333 12.6663 14 11.333 14H5.33301C3.99967 14 3.33301 13.3333 3.33301 12V4C3.33301 2.66667 3.99967 2 5.33301 2H8.83301V4C8.83301 5.61333 9.71967 6.5 11.333 6.5H13.333ZM11.1663 9.66667C11.1663 8.104 9.89567 6.83333 8.33301 6.83333C6.77034 6.83333 5.49967 8.104 5.49967 9.66667C5.49967 11.2293 6.77034 12.5 8.33301 12.5C9.89567 12.5 11.1663 11.2293 11.1663 9.66667ZM7.44564 11.2607C7.70964 11.408 8.00967 11.5 8.33301 11.5C9.34434 11.5 10.1663 10.6773 10.1663 9.66667C10.1663 9.34333 10.0751 9.04334 9.92773 8.77934L7.44564 11.2607Z" fill="#3B3B3E"/>
</svg>
