<svg width="16" height="16" viewBox="0 0 16 16" fill="none" xmlns="http://www.w3.org/2000/svg">
<path d="M7.99967 1.33301C4.31767 1.33301 1.33301 4.31767 1.33301 7.99967C1.33301 11.6817 4.31767 14.6663 7.99967 14.6663C11.6817 14.6663 14.6663 11.6817 14.6663 7.99967C14.6663 4.31767 11.6817 1.33301 7.99967 1.33301ZM10.6663 9.83301H5.33301C5.05701 9.83301 4.83301 9.60901 4.83301 9.33301C4.83301 9.05701 5.05701 8.83301 5.33301 8.83301H10.6663C10.9423 8.83301 11.1663 9.05701 11.1663 9.33301C11.1663 9.60901 10.9423 9.83301 10.6663 9.83301ZM10.6663 7.16634H5.33301C5.05701 7.16634 4.83301 6.94234 4.83301 6.66634C4.83301 6.39034 5.05701 6.16634 5.33301 6.16634H10.6663C10.9423 6.16634 11.1663 6.39034 11.1663 6.66634C11.1663 6.94234 10.9423 7.16634 10.6663 7.16634Z" fill="#3B3B3E"/>
</svg>
