<svg width="16" height="16" viewBox="0 0 16 16" fill="none" xmlns="http://www.w3.org/2000/svg">
<path fill-rule="evenodd" clip-rule="evenodd" d="M12.6662 9.33286H11.3329C9.99953 9.33286 9.33286 9.99953 9.33286 11.3329V12.6662C9.33286 13.9995 9.99953 14.6662 11.3329 14.6662H12.6662C13.9995 14.6662 14.6662 13.9995 14.6662 12.6662V11.3329C14.6662 9.99953 13.9995 9.33286 12.6662 9.33286ZM13.0663 11.6795L11.9595 12.7928C11.8928 12.8528 11.8129 12.8862 11.7196 12.8862C11.6329 12.8862 11.5462 12.8528 11.4862 12.7928L10.9328 12.2329C10.7995 12.1063 10.7995 11.8928 10.9328 11.7661C11.0595 11.6328 11.2729 11.6328 11.3996 11.7661L11.7196 12.0861L12.5995 11.2062C12.7261 11.0796 12.9396 11.0796 13.0663 11.2062C13.1996 11.3396 13.1996 11.5462 13.0663 11.6795ZM11.6496 2.38356C11.4529 2.19023 11.4496 1.87354 11.6423 1.6762C11.8369 1.47887 12.1528 1.47555 12.3501 1.66888L13.6834 2.97552C13.8801 3.16885 13.8836 3.48554 13.6909 3.68288C13.5929 3.78288 13.4628 3.83286 13.3335 3.83286C13.2075 3.83286 13.0809 3.78553 12.9836 3.6902L11.6496 2.38356ZM3.01955 2.35288L1.68621 3.68621C1.58888 3.78355 1.46086 3.83286 1.33286 3.83286C1.20486 3.83286 1.07684 3.78421 0.979508 3.68621C0.784174 3.49088 0.784174 3.17419 0.979508 2.97886L2.31284 1.64552C2.50817 1.45019 2.82486 1.45019 3.0202 1.64552C3.21553 1.84086 3.21488 2.15755 3.01955 2.35288ZM11.3329 8.33286H12.4442C12.4442 8.33286 12.6662 8.31886 12.6662 7.99953C12.6662 5.05286 10.2795 2.66619 7.33286 2.66619C4.38619 2.66619 1.99953 5.05286 1.99953 7.99953C1.99953 9.80219 2.89551 11.3929 4.26418 12.3576L2.97886 13.6462C2.78419 13.8415 2.78416 14.1589 2.98016 14.3535C3.07749 14.4509 3.20553 14.4995 3.33286 14.4995C3.46086 14.4995 3.58953 14.4502 3.68686 14.3529L5.16554 12.8701C5.82821 13.1655 6.56021 13.3329 7.33221 13.3329C7.60821 13.3329 7.88424 13.3122 8.15024 13.2715C8.36091 13.2075 8.33221 12.9735 8.33221 12.6662V11.3329C8.33288 9.45286 9.45286 8.33286 11.3329 8.33286ZM7.83286 8.02622C7.83286 8.30222 7.60886 8.52622 7.33286 8.52622C7.05686 8.52622 6.83286 8.30222 6.83286 8.02622V5.35955C6.83286 5.08355 7.05686 4.85955 7.33286 4.85955C7.60886 4.85955 7.83286 5.08355 7.83286 5.35955V8.02622Z" fill="#3B3B3E"/>
</svg>
