<svg width="16" height="16" viewBox="0 0 16 16" fill="none" xmlns="http://www.w3.org/2000/svg">
<path d="M13.9935 5.82654C13.9402 6.99988 13.1268 8.59987 11.5468 10.6332C9.91351 12.7599 8.5335 13.9999 7.40684 13.9999C6.70684 13.9999 6.1135 13.1665 5.6335 11.8732C5.3135 10.6865 4.98683 9.49987 4.66683 8.31321C4.30683 7.01987 3.92017 6.3732 3.5135 6.3732C3.42683 6.3732 3.10683 6.55987 2.5735 6.93987L2.00684 6.21321C2.60017 5.69321 3.18017 5.17321 3.76017 4.64654C4.54683 3.95987 5.14017 3.60654 5.54017 3.56654C6.4735 3.47988 7.04683 4.1132 7.26683 5.48654C7.50016 6.96654 7.66017 7.87987 7.7535 8.23987C8.02017 9.46654 8.32017 10.0799 8.64017 10.0799C8.89351 10.0799 9.26684 9.67987 9.7735 8.88654C10.2735 8.09321 10.5468 7.48654 10.5802 7.07321C10.6535 6.38654 10.3802 6.04654 9.7735 6.04654C9.48684 6.04654 9.18684 6.1132 8.88684 6.24654C9.4735 4.3132 10.6002 3.28654 12.2668 3.33987C13.5002 3.3732 14.0802 4.25988 14.0068 5.82654" fill="#3B3B3E"/>
</svg>
