<svg width="16" height="16" viewBox="0 0 16 16" fill="none" xmlns="http://www.w3.org/2000/svg">
<path d="M14 5.15503V9.99967C14 11.333 13.3333 11.9997 12 11.9997H4L2 13.9997V3.99967C2 2.66634 2.66667 1.99967 4 1.99967H10.8447C10.9747 1.99967 11.0619 2.11966 11.0379 2.24699C11.0039 2.42899 10.9927 2.61701 11.0041 2.81567C11.0714 3.96634 12.0313 4.92704 13.182 4.99504C13.3813 5.00704 13.57 4.99569 13.752 4.96102C13.88 4.93769 14 5.02503 14 5.15503ZM13.3333 1.33301C12.5973 1.33301 12 1.92967 12 2.66634C12 3.40234 12.5973 3.99967 13.3333 3.99967C14.0693 3.99967 14.6667 3.40234 14.6667 2.66634C14.6667 1.92967 14.0693 1.33301 13.3333 1.33301Z" fill="#3B3B3E"/>
</svg>
