<svg width="16" height="16" viewBox="0 0 16 16" fill="none" xmlns="http://www.w3.org/2000/svg">
<path d="M8 2.66699C4.68667 2.66699 2 4.66698 2 8.00098C2 9.41431 2.48663 10.5949 3.29997 11.4749C3.19997 12.1149 2.83995 12.8484 2.11328 13.4351C1.89328 13.6217 2.01997 13.9883 2.30664 13.995C3.25331 14.0283 4.71327 13.9017 5.60661 12.9484C6.33994 13.2017 7.14667 13.335 8 13.335C11.3133 13.335 14 11.335 14 8.00098C14 4.66698 11.3133 2.66699 8 2.66699ZM7.35335 8.98031C7.54869 9.17564 7.54869 9.49233 7.35335 9.68766C7.25602 9.785 7.128 9.83431 7 9.83431C6.872 9.83431 6.74398 9.78566 6.64665 9.68766L5.31331 8.35433C5.11798 8.159 5.11798 7.84231 5.31331 7.64697L6.64665 6.31364C6.84198 6.11831 7.15867 6.11831 7.354 6.31364C7.54934 6.50897 7.54934 6.82566 7.354 7.021L6.37402 8.00098L7.35335 8.98031ZM10.6867 8.35368L9.35335 9.68701C9.25602 9.78434 9.128 9.83366 9 9.83366C8.872 9.83366 8.74398 9.78501 8.64665 9.68701C8.45131 9.49168 8.45131 9.17499 8.64665 8.97965L9.62663 7.99967L8.64665 7.01969C8.45131 6.82436 8.45131 6.50767 8.64665 6.31234C8.84198 6.117 9.15867 6.117 9.354 6.31234L10.6873 7.64567C10.882 7.84234 10.882 8.15834 10.6867 8.35368Z" fill="#3B3B3E"/>
</svg>
