<svg width="16" height="16" viewBox="0 0 16 16" fill="none" xmlns="http://www.w3.org/2000/svg">
<path d="M14.4706 8.47189L12.4712 10.4712C12.3412 10.6012 12.1705 10.6665 11.9999 10.6665C11.8292 10.6665 11.6585 10.6012 11.5285 10.4712C11.2679 10.2106 11.2679 9.78919 11.5285 9.52853L12.3905 8.66655H8.66655V12.3905L9.52853 11.5285C9.78919 11.2679 10.2106 11.2679 10.4712 11.5285C10.7319 11.7892 10.7319 12.2106 10.4712 12.4712L8.47189 14.4706C8.40989 14.5326 8.3366 14.5813 8.2546 14.6153C8.17327 14.6493 8.08655 14.6665 7.99988 14.6665C7.91322 14.6665 7.8265 14.6486 7.74516 14.6153C7.66316 14.5813 7.58988 14.5326 7.52788 14.4706L5.52853 12.4712C5.26786 12.2106 5.26786 11.7892 5.52853 11.5285C5.78919 11.2679 6.21057 11.2679 6.47124 11.5285L7.33322 12.3905V8.66655H3.60926L4.47124 9.52853C4.7319 9.78919 4.7319 10.2106 4.47124 10.4712C4.34124 10.6012 4.17055 10.6665 3.99988 10.6665C3.82921 10.6665 3.65853 10.6012 3.52853 10.4712L1.52918 8.47189C1.46718 8.40989 1.41848 8.3366 1.38448 8.2546C1.31715 8.09194 1.31715 7.90783 1.38448 7.74516C1.41848 7.66316 1.46718 7.58988 1.52918 7.52788L3.52853 5.52853C3.78919 5.26786 4.21057 5.26786 4.47124 5.52853C4.7319 5.78919 4.7319 6.21057 4.47124 6.47124L3.60926 7.33322H7.33322V3.60926L6.47124 4.47124C6.21057 4.7319 5.78919 4.7319 5.52853 4.47124C5.26786 4.21057 5.26786 3.78919 5.52853 3.52853L7.52788 1.52918C7.58988 1.46718 7.66316 1.41848 7.74516 1.38448C7.90783 1.31715 8.09194 1.31715 8.2546 1.38448C8.3366 1.41848 8.40989 1.46718 8.47189 1.52918L10.4712 3.52853C10.7319 3.78919 10.7319 4.21057 10.4712 4.47124C10.3412 4.60124 10.1705 4.66655 9.99988 4.66655C9.82922 4.66655 9.65853 4.60124 9.52853 4.47124L8.66655 3.60926V7.33322H12.3905L11.5285 6.47124C11.2679 6.21057 11.2679 5.78919 11.5285 5.52853C11.7892 5.26786 12.2106 5.26786 12.4712 5.52853L14.4706 7.52788C14.5326 7.58988 14.5813 7.66316 14.6153 7.74516C14.6826 7.90783 14.6826 8.09194 14.6153 8.2546C14.5813 8.3366 14.5326 8.40989 14.4706 8.47189Z" fill="#3B3B3E"/>
</svg>
