<svg width="16" height="16" viewBox="0 0 16 16" fill="none" xmlns="http://www.w3.org/2000/svg">
<path d="M13.3337 13.5H12.3337V3C12.3337 2.44667 11.887 2 11.3337 2H4.66699C4.11366 2 3.66699 2.44667 3.66699 3V13.5H2.66699C2.39099 13.5 2.16699 13.724 2.16699 14C2.16699 14.276 2.39099 14.5 2.66699 14.5H13.3337C13.6097 14.5 13.8337 14.276 13.8337 14C13.8337 13.724 13.6097 13.5 13.3337 13.5ZM10.007 7.33333H10.0137C10.3803 7.33333 10.6803 7.63333 10.6803 8C10.6803 8.36667 10.3803 8.66667 10.0137 8.66667C9.64701 8.66667 9.34701 8.36667 9.34701 8C9.34701 7.63333 9.64033 7.33333 10.007 7.33333Z" fill="#3B3B3E"/>
</svg>
