<svg width="16" height="16" viewBox="0 0 16 16" fill="none" xmlns="http://www.w3.org/2000/svg">
<path d="M4.66651 11.3333C4.49584 11.3333 4.32517 11.268 4.19517 11.138L1.52851 8.47133C1.26784 8.21133 1.26784 7.78866 1.52851 7.52866L4.19517 4.86199C4.45584 4.60133 4.87718 4.60133 5.13784 4.86199C5.39851 5.12199 5.39851 5.54466 5.13784 5.80466L2.94251 8L5.13784 10.1953C5.39851 10.4553 5.39851 10.878 5.13784 11.138C5.00784 11.268 4.83718 11.3333 4.66651 11.3333ZM11.8045 11.138L14.4712 8.47133C14.7318 8.21133 14.7318 7.78866 14.4712 7.52866L11.8045 4.86199C11.5438 4.60133 11.1225 4.60133 10.8618 4.86199C10.6012 5.12199 10.6012 5.54466 10.8618 5.80466L13.0572 8L10.8618 10.1953C10.6012 10.4553 10.6012 10.878 10.8618 11.138C10.9918 11.268 11.1625 11.3333 11.3332 11.3333C11.5038 11.3333 11.6745 11.268 11.8045 11.138ZM6.62451 13.5673L10.6245 2.90067C10.7538 2.556 10.5792 2.17133 10.2345 2.04266C9.88918 1.91333 9.50584 2.08799 9.37584 2.43265L5.37584 13.0993C5.24651 13.444 5.42118 13.8287 5.76584 13.9573C5.84318 13.9867 5.92184 14 5.99984 14C6.26984 14 6.52384 13.8347 6.62451 13.5673Z" fill="#3B3B3E"/>
</svg>
