<svg width="16" height="16" viewBox="0 0 16 16" fill="none" xmlns="http://www.w3.org/2000/svg">
<path d="M13.8333 4V6.64C13.42 6.38667 12.9133 6.23333 12.3333 6.19333V5.23334C12.3333 4.73334 11.8867 4.33333 11.3333 4.33333H9.33333C8.78 4.33333 8.33333 4.73334 8.33333 5.23334V6.16667H7.66667V5.23334C7.66667 4.73334 7.22 4.33333 6.66667 4.33333H4.66667C4.11333 4.33333 3.66667 4.73334 3.66667 5.23334V6.19333C3.08667 6.23333 2.58 6.38667 2.16667 6.64V4C2.16667 2.38667 3.05333 1.5 4.66667 1.5H11.3333C12.9467 1.5 13.8333 2.38667 13.8333 4ZM14.5 11.3333V14C14.5 14.2733 14.2733 14.5 14 14.5C13.7267 14.5 13.5 14.2733 13.5 14V13.5H2.5V14C2.5 14.2733 2.27333 14.5 2 14.5C1.72667 14.5 1.5 14.2733 1.5 14V13V11.3333V9.33333C1.5 7.72 2.38667 6.83333 4 6.83333H12C13.6133 6.83333 14.5 7.72 14.5 9.33333V11.3333ZM13.5 12.5V11.8333H2.5V12.5H13.5Z" fill="#3B3B3E"/>
</svg>
