<svg width="16" height="16" viewBox="0 0 16 16" fill="none" xmlns="http://www.w3.org/2000/svg">
<path d="M13.7074 7.29266L10.7074 4.29266C10.52 4.10533 10.2653 4 10 4H4C2.66667 4 2 4.66667 2 6V10C2 11.3333 2.66667 12 4 12H10C10.2653 12 10.5194 11.8947 10.7074 11.7073L13.7074 8.70734C14.0974 8.31667 14.0974 7.68333 13.7074 7.29266ZM8.35335 8.98C8.54869 9.17533 8.54869 9.492 8.35335 9.68734C8.25602 9.78467 8.128 9.834 8 9.834C7.872 9.834 7.74398 9.78534 7.64665 9.68734L6.66667 8.70734L5.68669 9.68734C5.58935 9.78467 5.46133 9.834 5.33333 9.834C5.20533 9.834 5.07731 9.78534 4.97998 9.68734C4.78465 9.492 4.78465 9.17533 4.97998 8.98L5.95996 8L4.97998 7.02C4.78465 6.82467 4.78465 6.508 4.97998 6.31266C5.17531 6.11733 5.492 6.11733 5.68734 6.31266L6.66732 7.29266L7.6473 6.31266C7.84263 6.11733 8.15932 6.11733 8.35465 6.31266C8.54999 6.508 8.54999 6.82467 8.35465 7.02L7.37467 8L8.35335 8.98Z" fill="#3B3B3E"/>
</svg>
