<svg width="16" height="16" viewBox="0 0 16 16" fill="none" xmlns="http://www.w3.org/2000/svg">
<path fill-rule="evenodd" clip-rule="evenodd" d="M8.66667 7.5005V8.41717H7.33333V7.5005C7.33333 7.13317 7.632 6.83384 8 6.83384C8.368 6.83384 8.66667 7.13317 8.66667 7.5005ZM14 7.76784V12.0005C14 13.3338 13.3333 14.0005 12 14.0005H4C2.66667 14.0005 2 13.3338 2 12.0005V7.76784C2 6.43584 2.3487 6.23121 2.95337 5.72454L6.92936 2.39048C7.5487 1.87114 8.45204 1.87114 9.07137 2.39048L13.0474 5.72454C13.6514 6.23121 14 6.43517 14 7.76784ZM10.3333 9.41717C10.3333 8.87717 10.1033 8.56787 9.66667 8.46453V7.5005C9.66667 6.58184 8.91933 5.83384 8 5.83384C7.08067 5.83384 6.33333 6.58184 6.33333 7.5005V8.46453C5.89667 8.5672 5.66667 8.87717 5.66667 9.41717V10.9172C5.66667 11.5838 6 11.9172 6.66667 11.9172H9.33333C10 11.9172 10.3333 11.5838 10.3333 10.9172V9.41717Z" fill="#3B3B3E"/>
</svg>
