<svg width="16" height="16" viewBox="0 0 16 16" fill="none" xmlns="http://www.w3.org/2000/svg">
<path d="M11.75 2H4.25C2.75 2 2 2.75 2 4.25V11.75C2 13.25 2.75 14 4.25 14H11.75C13.25 14 14 13.25 14 11.75V4.25C14 2.75 13.25 2 11.75 2ZM7 10.3333C7 11 6.66667 11.3333 6 11.3333C5.33333 11.3333 5 11 5 10.3333V8.33333C5 7.66667 5.33333 7.33333 6 7.33333C6.66667 7.33333 7 7.66667 7 8.33333V10.3333ZM11 10.3333C11 11 10.6667 11.3333 10 11.3333C9.33333 11.3333 9 11 9 10.3333V5.66667C9 5 9.33333 4.66667 10 4.66667C10.6667 4.66667 11 5 11 5.66667V10.3333Z" fill="#3B3B3E"/>
</svg>
