<svg width="16" height="16" viewBox="0 0 16 16" fill="none" xmlns="http://www.w3.org/2000/svg">
<path d="M11.7783 1.33398H4.22298C2.74165 1.33398 2.00098 2.07466 2.00098 3.55599V10.2227C2.00098 11.704 2.74165 12.4447 4.22298 12.4447H5.22298C5.57298 12.4447 5.90232 12.6093 6.11165 12.8893L7.11165 14.2227C7.55632 14.8153 8.44498 14.8153 8.88965 14.2227L9.88965 12.8893C10.0996 12.6093 10.429 12.4447 10.7783 12.4447H11.7783C13.2597 12.4447 14.0003 11.704 14.0003 10.2227V3.55599C14.0003 2.07466 13.2597 1.33398 11.7783 1.33398ZM11.221 6.42932L10.021 7.60067C9.933 7.686 9.89299 7.81 9.91366 7.93066L10.1883 9.53398C10.2436 9.85931 9.90362 10.1073 9.61296 9.95398L8.17301 9.196C8.06501 9.13934 7.93629 9.13934 7.82829 9.196L6.38965 9.95333C6.09765 10.1067 5.75765 9.85797 5.81299 9.53263L6.08765 7.93066C6.10831 7.80933 6.06831 7.686 5.98031 7.60067L4.78035 6.42932C4.55969 6.21399 4.68101 5.83865 4.98568 5.79399L6.64567 5.55265C6.76634 5.53532 6.87097 5.45866 6.92497 5.34932L7.64429 3.88997C7.79029 3.59397 8.21101 3.59397 8.35701 3.88997L9.07633 5.34932C9.13033 5.45932 9.23496 5.53532 9.35563 5.55265L11.0156 5.79399C11.3203 5.83799 11.4417 6.21399 11.221 6.42932Z" fill="#3B3B3E"/>
</svg>
