<svg width="16" height="16" viewBox="0 0 16 16" fill="none" xmlns="http://www.w3.org/2000/svg">
<path d="M10.6663 2H5.33301C3.99967 2 3.33301 2.66667 3.33301 4V14L7.99967 11.3333L12.6663 14V4C12.6663 2.66667 11.9997 2 10.6663 2ZM9.68636 7.64665C9.88169 7.84198 9.88169 8.15867 9.68636 8.354C9.58903 8.45134 9.46101 8.50065 9.33301 8.50065C9.20501 8.50065 9.07699 8.452 8.97965 8.354L7.99967 7.37402L7.01969 8.354C6.92236 8.45134 6.79434 8.50065 6.66634 8.50065C6.53834 8.50065 6.41032 8.452 6.31299 8.354C6.11765 8.15867 6.11765 7.84198 6.31299 7.64665L7.29297 6.66667L6.31299 5.68669C6.11765 5.49135 6.11765 5.17466 6.31299 4.97933C6.50832 4.784 6.82501 4.784 7.02034 4.97933L8.00033 5.95931L8.98031 4.97933C9.17564 4.784 9.49233 4.784 9.68766 4.97933C9.883 5.17466 9.883 5.49135 9.68766 5.68669L8.70768 6.66667L9.68636 7.64665Z" fill="#3B3B3E"/>
</svg>
