<svg width="16" height="16" viewBox="0 0 16 16" fill="none" xmlns="http://www.w3.org/2000/svg">
<path d="M12.8502 8.90647L10.1662 9.74648C9.96482 9.80915 9.80745 9.96714 9.74412 10.1685L8.90485 12.8505C8.73485 13.3938 8.01613 13.5085 7.68813 13.0438L6.0755 10.7591C5.9535 10.5865 5.75412 10.4851 5.54279 10.4885L2.64948 10.5318C2.11748 10.5398 1.80949 9.93446 2.12815 9.50779L3.86546 7.18247C3.99212 7.01314 4.02752 6.79312 3.96018 6.59312L3.06484 3.93781C2.88351 3.39914 3.39816 2.88448 3.93683 3.06582L6.59145 3.96112C6.79145 4.02845 7.01147 3.99314 7.18081 3.86648L9.50551 2.12913C9.93218 1.81046 10.5375 2.11845 10.5295 2.65045L10.4861 5.54445C10.4828 5.75579 10.5841 5.95513 10.7568 6.07713L13.0428 7.69114C13.5068 8.01914 13.3928 8.73647 12.8502 8.90647ZM14.3528 13.6471L12.3528 11.6471C12.1575 11.4518 11.8408 11.4518 11.6455 11.6471C11.4502 11.8424 11.4502 12.1591 11.6455 12.3545L13.6455 14.3545C13.7428 14.4518 13.8708 14.5011 13.9988 14.5011C14.1268 14.5011 14.2549 14.4525 14.3522 14.3545C14.5482 14.1591 14.5482 13.8418 14.3528 13.6471Z" fill="#3B3B3E"/>
</svg>
