<svg width="16" height="16" viewBox="0 0 16 16" fill="none" xmlns="http://www.w3.org/2000/svg">
<path d="M14 8.66699V12.0003C14 13.3337 13.3333 14.0003 12 14.0003H4C2.66667 14.0003 2 13.3337 2 12.0003V8.66699C2 7.33365 2.66667 6.66699 4 6.66699H7.5V10.667C7.5 10.943 7.724 11.167 8 11.167C8.276 11.167 8.5 10.943 8.5 10.667V6.66699H12C13.3333 6.66699 14 7.33365 14 8.66699ZM8.5 3.20764L9.64665 4.35433C9.74398 4.45166 9.872 4.50097 10 4.50097C10.128 4.50097 10.256 4.45233 10.3534 4.35433C10.5487 4.15899 10.5487 3.8423 10.3534 3.64697L8.35335 1.64697C8.30735 1.60097 8.25193 1.56431 8.19059 1.53898C8.06859 1.48831 7.93059 1.48831 7.80859 1.53898C7.74726 1.56431 7.692 1.60097 7.646 1.64697L5.646 3.64697C5.45066 3.8423 5.45066 4.15899 5.646 4.35433C5.84133 4.54966 6.15802 4.54966 6.35335 4.35433L7.5 3.20764V6.66699H8.5V3.20764Z" fill="#3B3B3E"/>
</svg>
