<svg width="16" height="16" viewBox="0 0 16 16" fill="none" xmlns="http://www.w3.org/2000/svg">
<path d="M12.3737 5.16667H3.62699C3.51366 5.16667 3.42034 5.26667 3.427 5.38L3.87366 12.1333C3.94699 13.1867 4.50032 14 5.87366 14H10.127C11.5003 14 12.0537 13.1867 12.127 12.1333L12.5736 5.38C12.5803 5.26667 12.487 5.16667 12.3737 5.16667ZM10.087 11.12C10.027 11.3467 9.82699 11.5 9.60032 11.5C9.56032 11.5 9.52033 11.4933 9.48033 11.4867C9.21366 11.42 9.047 11.1467 9.11367 10.88C9.267 10.26 9.08699 9.61333 8.64032 9.14667C8.31365 8.80667 7.87367 8.62666 7.427 8.62L7.587 8.78C7.78033 8.98 7.78033 9.29333 7.587 9.48666C7.487 9.58666 7.36033 9.63333 7.23366 9.63333C7.107 9.63333 6.98033 9.58666 6.88033 9.48666L5.98033 8.58667C5.78699 8.39334 5.78699 8.07334 5.98033 7.88001L6.88033 6.98C7.07366 6.78667 7.39366 6.78667 7.587 6.98C7.767 7.16 7.77365 7.44 7.62032 7.63333C8.26699 7.69333 8.887 7.96666 9.36033 8.45333C10.047 9.16666 10.3203 10.16 10.087 11.12ZM13.3337 3.5H10.527C10.4603 3.38 10.4137 3.24 10.3603 3.08667L10.227 2.68667C10.0937 2.27333 9.707 2 9.28033 2H6.72032C6.29365 2 5.90699 2.27333 5.77366 2.68667L5.64032 3.08667C5.58699 3.24 5.54032 3.38 5.47365 3.5H2.66699C2.39366 3.5 2.16699 3.72667 2.16699 4C2.16699 4.27333 2.39366 4.5 2.66699 4.5H13.3337C13.607 4.5 13.8337 4.27333 13.8337 4C13.8337 3.72667 13.607 3.5 13.3337 3.5Z" fill="#3B3B3E"/>
</svg>
