<svg width="16" height="16" viewBox="0 0 16 16" fill="none" xmlns="http://www.w3.org/2000/svg">
<path d="M13.3333 4.66699V9.46696C13.3333 9.57763 13.244 9.66699 13.1333 9.66699H2.8667C2.75603 9.66699 2.66667 9.57763 2.66667 9.46696V4.66699C2.66667 3.33366 3.33333 2.66699 4.66667 2.66699H11.3333C12.6667 2.66699 13.3333 3.33366 13.3333 4.66699ZM13.8 10.667H2.20003C2.08937 10.667 2 10.7564 2 10.867V11.3337C2 12.2223 2.44467 12.667 3.33333 12.667H12.6667C13.5553 12.667 14 12.2223 14 11.3337V10.867C14 10.7564 13.9106 10.667 13.8 10.667Z" fill="#3B3B3E"/>
</svg>
