<svg width="16" height="16" viewBox="0 0 16 16" fill="none" xmlns="http://www.w3.org/2000/svg">
<path d="M4.0057 4.33268C4.0057 2.86202 5.2017 1.66602 6.67236 1.66602C8.14303 1.66602 9.33903 2.86202 9.33903 4.33268C9.33903 5.80335 8.14303 6.99935 6.67236 6.99935C5.2017 6.99935 4.0057 5.80335 4.0057 4.33268ZM7.9397 13.3327C7.57303 12.7127 7.57303 11.9527 7.9397 11.326C8.31636 10.7007 9.03568 9.77065 10.159 9.30265C10.3104 9.23932 10.339 9.04068 10.2037 8.94735C9.65236 8.56801 8.92966 8.33268 8.00033 8.33268H5.33366C2.62699 8.33268 1.66699 10.3127 1.66699 12.0127C1.66699 13.5327 2.47366 14.3327 4.00033 14.3327H8.26034C8.37367 14.3327 8.46037 14.246 8.46037 14.1327C8.46037 14.0747 8.41697 14.0107 8.39364 13.986C8.2063 13.7527 8.05303 13.526 7.9397 13.3327ZM14.533 12.826C14.1197 13.5127 13.1997 14.666 11.6663 14.666C10.133 14.666 9.21298 13.5127 8.79964 12.826C8.61964 12.5193 8.61964 12.146 8.79964 11.8394C9.21298 11.1527 10.133 9.99935 11.6663 9.99935C13.1997 9.99935 14.1197 11.1527 14.533 11.8394C14.713 12.146 14.713 12.5193 14.533 12.826ZM12.4997 12.3327C12.4997 11.8727 12.1263 11.4993 11.6663 11.4993H11.6597C11.1997 11.4993 10.833 11.8727 10.833 12.3327C10.833 12.7927 11.2063 13.166 11.6663 13.166C12.1263 13.166 12.4997 12.7927 12.4997 12.3327Z" fill="#3B3B3E"/>
</svg>
