<svg width="16" height="16" viewBox="0 0 16 16" fill="none" xmlns="http://www.w3.org/2000/svg">
<path d="M11.1799 7.25326C11.0866 8.10659 10.7466 8.89325 10.2333 9.53325L7.95325 7.25326H11.1799V7.25326ZM3.59327 9.91325C4.31993 10.6333 5.25326 11.0733 6.25326 11.1866V7.25326L3.59327 9.91325V9.91325ZM7.25326 7.9666V11.1933C8.10659 11.0999 8.89325 10.7599 9.53325 10.2466L7.25326 7.9666V7.9666ZM7.25326 6.25993H11.1866C11.0733 5.25993 10.6333 4.33325 9.91325 3.59992L7.25326 6.25993V6.25993ZM12.4733 2.31326C12.1733 1.93326 11.6066 1.90659 11.2666 2.24659L10.6199 2.89326C11.6466 3.93326 12.2133 5.29993 12.2133 6.75326C12.2133 9.76659 9.76659 12.2133 6.75326 12.2133C5.29993 12.2133 3.92659 11.6466 2.89326 10.6199L2.24659 11.2666C1.90659 11.6066 1.93326 12.1733 2.31326 12.4733C3.83993 13.6666 5.85992 14.2533 7.99992 13.8999C10.9933 13.3999 13.3999 10.9866 13.8999 7.99992C14.2599 5.85992 13.6666 3.83326 12.4733 2.31326V2.31326Z" fill="#3B3B3E"/>
</svg>
