<svg width="16" height="16" viewBox="0 0 16 16" fill="none" xmlns="http://www.w3.org/2000/svg">
<path d="M14.965 5.07182L14.165 10.7925C14.0604 11.5212 13.7757 12.0385 13.327 12.3339C13.1717 12.4139 13.0017 12.3333 13.0017 12.1713V6.44389C13.0017 4.70456 11.963 3.6659 10.2237 3.6659C10.2237 3.6659 4.14897 3.6659 3.94897 3.6659C3.74897 3.6659 3.7443 3.48581 3.7583 3.40581C3.86363 2.77514 4.11301 2.30847 4.49967 2.01714C4.90434 1.71247 5.45102 1.60654 6.12769 1.70187L13.1684 2.68852C13.8464 2.78452 14.345 3.03856 14.6503 3.44389C14.955 3.84856 15.061 4.39649 14.965 5.07182ZM12.001 6.44324V12.2219C12.001 13.4072 11.4083 13.9999 10.223 13.9999H3.111C1.92567 13.9999 1.33301 13.4072 1.33301 12.2219V6.44324C1.33301 5.25791 1.92567 4.66525 3.111 4.66525H10.223C11.409 4.66525 12.001 5.25791 12.001 6.44324ZM8.83301 9.33322C8.83301 9.05722 8.60901 8.83322 8.33301 8.83322H7.16634V7.66655C7.16634 7.39055 6.94234 7.16655 6.66634 7.16655C6.39034 7.16655 6.16634 7.39055 6.16634 7.66655V8.83322H4.99967C4.72367 8.83322 4.49967 9.05722 4.49967 9.33322C4.49967 9.60922 4.72367 9.83322 4.99967 9.83322H6.16634V10.9999C6.16634 11.2759 6.39034 11.4999 6.66634 11.4999C6.94234 11.4999 7.16634 11.2759 7.16634 10.9999V9.83322H8.33301C8.60901 9.83322 8.83301 9.60922 8.83301 9.33322Z" fill="#3B3B3E"/>
</svg>
