<svg width="16" height="16" viewBox="0 0 16 16" fill="none" xmlns="http://www.w3.org/2000/svg">
<path d="M11.7501 9.44982L13.5121 10.5005C13.8761 10.7178 14.0641 11.1405 13.9807 11.5565C13.6401 13.2625 11.9268 14.3558 10.2488 13.8952C6.28947 12.8085 3.19672 9.72515 2.10606 5.75715C1.64472 4.07849 2.73679 2.36381 4.44346 2.02247L4.45469 2.02048C4.87136 1.93715 5.29613 2.12581 5.5128 2.49181L6.55479 4.25115C6.92545 4.87649 6.74135 5.68314 6.13535 6.08581L5.0281 6.82248C5.80943 8.69381 7.30272 10.1932 9.16872 10.9732L9.91205 9.86315C10.318 9.25848 11.1248 9.07715 11.7501 9.44982ZM12.7075 4.00048L13.6874 3.02048C13.8828 2.82515 13.8828 2.50848 13.6874 2.31314C13.4921 2.11781 13.1754 2.11781 12.9801 2.31314L12.0001 3.29314L11.0201 2.31314C10.8248 2.11781 10.5081 2.11781 10.3128 2.31314C10.1174 2.50848 10.1174 2.82515 10.3128 3.02048L11.2927 4.00048L10.3128 4.98048C10.1174 5.17581 10.1174 5.49248 10.3128 5.68782C10.4101 5.78515 10.5381 5.83449 10.6661 5.83449C10.7941 5.83449 10.9221 5.78582 11.0195 5.68782L11.9994 4.70782L12.9794 5.68782C13.0768 5.78515 13.2048 5.83449 13.3328 5.83449C13.4608 5.83449 13.5888 5.78582 13.6861 5.68782C13.8815 5.49248 13.8815 5.17581 13.6861 4.98048L12.7075 4.00048Z" fill="#3B3B3E"/>
</svg>
