<svg width="16" height="16" viewBox="0 0 16 16" fill="none" xmlns="http://www.w3.org/2000/svg">
<path fill-rule="evenodd" clip-rule="evenodd" d="M13.0463 5.72454L9.07031 2.39048C8.45098 1.87114 7.54764 1.87114 6.9283 2.39048L2.95231 5.72454C2.34831 6.23121 1.99902 6.43584 1.99902 7.76784V12.0005C1.99902 13.3338 2.66569 14.0005 3.99902 14.0005H11.999C13.3324 14.0005 13.999 13.3338 13.999 12.0005V7.76784C13.9997 6.43517 13.651 6.23121 13.0463 5.72454ZM7.99967 5.66717C8.79034 5.66717 9.43302 6.30985 9.43302 7.10052C9.43302 7.89119 8.78967 8.53387 7.99967 8.53387C7.20967 8.53387 6.56632 7.89119 6.56632 7.10052C6.56632 6.30985 7.20901 5.66717 7.99967 5.66717ZM10.333 11.3338C10.333 11.5178 10.1837 11.6672 9.99967 11.6672H5.99967C5.81567 11.6672 5.66634 11.5178 5.66634 11.3338V11.1319C5.66634 10.2385 6.32036 9.33384 7.5717 9.33384H8.427C9.67833 9.33384 10.3324 10.2379 10.3324 11.1319V11.3338H10.333Z" fill="#3B3B3E"/>
</svg>
