<svg width="16" height="16" viewBox="0 0 16 16" fill="none" xmlns="http://www.w3.org/2000/svg">
<path d="M3.33333 4.66667C2.59667 4.66667 2 4.06933 2 3.33333C2 2.59733 2.59667 2 3.33333 2C4.07 2 4.66667 2.59733 4.66667 3.33333C4.66667 4.06933 4.07 4.66667 3.33333 4.66667ZM9.33333 3.33333C9.33333 2.59733 8.73667 2 8 2C7.26333 2 6.66667 2.59733 6.66667 3.33333C6.66667 4.06933 7.26333 4.66667 8 4.66667C8.73667 4.66667 9.33333 4.06933 9.33333 3.33333ZM14 3.33333C14 2.59733 13.4033 2 12.6667 2C11.93 2 11.3333 2.59733 11.3333 3.33333C11.3333 4.06933 11.93 4.66667 12.6667 4.66667C13.4033 4.66667 14 4.06933 14 3.33333ZM4.66667 8C4.66667 7.264 4.07 6.66667 3.33333 6.66667C2.59667 6.66667 2 7.264 2 8C2 8.736 2.59667 9.33333 3.33333 9.33333C4.07 9.33333 4.66667 8.736 4.66667 8ZM9.33333 8C9.33333 7.264 8.73667 6.66667 8 6.66667C7.26333 6.66667 6.66667 7.264 6.66667 8C6.66667 8.736 7.26333 9.33333 8 9.33333C8.73667 9.33333 9.33333 8.736 9.33333 8ZM14 8C14 7.264 13.4033 6.66667 12.6667 6.66667C11.93 6.66667 11.3333 7.264 11.3333 8C11.3333 8.736 11.93 9.33333 12.6667 9.33333C13.4033 9.33333 14 8.736 14 8ZM4.66667 12.6667C4.66667 11.9307 4.07 11.3333 3.33333 11.3333C2.59667 11.3333 2 11.9307 2 12.6667C2 13.4027 2.59667 14 3.33333 14C4.07 14 4.66667 13.4027 4.66667 12.6667ZM9.33333 12.6667C9.33333 11.9307 8.73667 11.3333 8 11.3333C7.26333 11.3333 6.66667 11.9307 6.66667 12.6667C6.66667 13.4027 7.26333 14 8 14C8.73667 14 9.33333 13.4027 9.33333 12.6667ZM14 12.6667C14 11.9307 13.4033 11.3333 12.6667 11.3333C11.93 11.3333 11.3333 11.9307 11.3333 12.6667C11.3333 13.4027 11.93 14 12.6667 14C13.4033 14 14 13.4027 14 12.6667Z" fill="#3B3B3E"/>
</svg>
