<svg width="16" height="16" viewBox="0 0 16 16" fill="none" xmlns="http://www.w3.org/2000/svg">
<path d="M2.20003 7.16699H7.29997C7.41063 7.16699 7.5 7.25636 7.5 7.36702V9.30029C7.5 9.41096 7.41063 9.50033 7.29997 9.50033H2.20003C2.08937 9.50033 2 9.41096 2 9.30029V7.36702C2 7.25636 2.08937 7.16699 2.20003 7.16699ZM2 10.7004V11.3337C2 12.667 2.66667 13.3337 4 13.3337H7.29997C7.41063 13.3337 7.5 13.2443 7.5 13.1336V10.7004C7.5 10.5897 7.41063 10.5003 7.29997 10.5003H2.20003C2.08937 10.5003 2 10.5897 2 10.7004ZM12 2.66699H4C2.66667 2.66699 2 3.33366 2 4.66699V5.96696C2 6.07763 2.08937 6.16699 2.20003 6.16699H13.8C13.9106 6.16699 14 6.07763 14 5.96696V4.66699C14 3.33366 13.3333 2.66699 12 2.66699ZM8.5 7.36702V9.30029C8.5 9.41096 8.58937 9.50033 8.70003 9.50033H13.8C13.9106 9.50033 14 9.41096 14 9.30029V7.36702C14 7.25636 13.9106 7.16699 13.8 7.16699H8.70003C8.58937 7.16699 8.5 7.25636 8.5 7.36702ZM8.5 10.7004V13.1336C8.5 13.2443 8.58937 13.3337 8.70003 13.3337H12C13.3333 13.3337 14 12.667 14 11.3337V10.7004C14 10.5897 13.9106 10.5003 13.8 10.5003H8.70003C8.58937 10.5003 8.5 10.5897 8.5 10.7004Z" fill="#3B3B3E"/>
</svg>
