<svg width="16" height="16" viewBox="0 0 16 16" fill="none" xmlns="http://www.w3.org/2000/svg">
<path d="M13.984 5.06567C13.9433 4.98301 13.8513 4.94297 13.7607 4.95964C13.3547 5.03497 12.918 5.01166 12.452 4.823C11.8466 4.57766 11.3613 4.06966 11.1406 3.455C10.986 3.023 10.97 2.61703 11.0407 2.23836C11.0573 2.14836 11.0173 2.05636 10.9353 2.01636C10.0493 1.58036 9.05199 1.33366 8.00065 1.33366C4.25732 1.33366 1.23132 4.4236 1.33665 8.19027C1.43332 11.6683 4.33265 14.5671 7.81065 14.6644C11.5773 14.7691 14.6673 11.7437 14.6673 8.00033C14.6667 6.94833 14.42 5.95167 13.984 5.06567ZM11.6866 7.01969L9.82465 8.88167C9.37065 9.33634 8.62998 9.33699 8.17532 8.88232L7.11598 7.82568C7.05065 7.76035 6.94532 7.76035 6.87999 7.82568L5.01932 9.68636C4.92199 9.78369 4.79398 9.83301 4.66598 9.83301C4.53798 9.83301 4.40998 9.78436 4.31265 9.68636C4.11731 9.49103 4.11731 9.17434 4.31265 8.979L6.17331 7.11833C6.62798 6.66366 7.36798 6.66368 7.82265 7.11768L8.88198 8.17432C8.94732 8.23898 9.05265 8.23898 9.11798 8.17432L10.98 6.31234C11.1753 6.117 11.492 6.117 11.6873 6.31234C11.8827 6.50767 11.882 6.82436 11.6866 7.01969ZM14.6666 2.66634C14.6666 3.40301 14.07 3.99967 13.3333 3.99967C12.5966 3.99967 12 3.40301 12 2.66634C12 1.92967 12.5966 1.33301 13.3333 1.33301C14.07 1.33301 14.6666 1.92967 14.6666 2.66634Z" fill="#3B3B3E"/>
</svg>
