<svg width="16" height="16" viewBox="0 0 16 16" fill="none" xmlns="http://www.w3.org/2000/svg">
<path d="M8.72168 2.0352C11.019 2.26453 12.6663 3.64186 12.6663 6.66719V9.33386C12.6663 12.6672 10.6663 14.0005 7.99967 14.0005C5.33301 14.0005 3.33301 12.6672 3.33301 9.33386V6.66719C3.33301 3.64253 4.98034 2.26453 7.27767 2.0352C7.39567 2.0232 7.49967 2.11917 7.49967 2.23783V4.36788C7.49967 4.43321 7.46494 4.49051 7.41227 4.52917C7.16294 4.71051 6.99967 5.00186 6.99967 5.33386V6.33386C6.99967 6.88586 7.44767 7.33386 7.99967 7.33386C8.55167 7.33386 8.99967 6.88586 8.99967 6.33386V5.33386C8.99967 5.00186 8.83641 4.71051 8.58708 4.52917C8.53441 4.49051 8.49967 4.43321 8.49967 4.36788V2.23783C8.49967 2.11983 8.60368 2.02386 8.72168 2.0352Z" fill="#3B3B3E"/>
</svg>
