<svg width="16" height="16" viewBox="0 0 16 16" fill="none" xmlns="http://www.w3.org/2000/svg">
<path d="M9.83301 4V2.5L12.833 5.5H11.333C10.2797 5.5 9.83301 5.05333 9.83301 4ZM13.333 6.5V12C13.333 13.3333 12.6663 14 11.333 14H5.33301C3.99967 14 3.33301 13.3333 3.33301 12V4C3.33301 2.66667 3.99967 2 5.33301 2H8.83301V4C8.83301 5.61333 9.71967 6.5 11.333 6.5H13.333ZM6.89974 8.1C6.89974 8.89066 7.54301 9.53334 8.33301 9.53334C9.12301 9.53334 9.76628 8.89 9.76628 8.1C9.76628 7.31 9.12301 6.66667 8.33301 6.66667C7.54301 6.66667 6.89974 7.30933 6.89974 8.1ZM10.6663 12.1313C10.6663 11.238 10.0124 10.3333 8.76107 10.3333H7.9056C6.65427 10.3333 6.00033 11.238 6.00033 12.1313V12.3333C6.00033 12.5173 6.14966 12.6667 6.33366 12.6667H10.3337C10.5177 12.6667 10.667 12.5173 10.667 12.3333V12.1313H10.6663Z" fill="#3B3B3E"/>
</svg>
