<svg width="16" height="16" viewBox="0 0 16 16" fill="none" xmlns="http://www.w3.org/2000/svg">
<path d="M11.8044 4.47122L5.60905 10.6665H7.99967C8.36834 10.6665 8.66634 10.9652 8.66634 11.3332C8.66634 11.7012 8.36834 11.9999 7.99967 11.9999H3.99967C3.91301 11.9999 3.82629 11.9819 3.74495 11.9486C3.58162 11.8813 3.45228 11.7512 3.38428 11.5879C3.35028 11.5066 3.33301 11.4199 3.33301 11.3332V7.3332C3.33301 6.9652 3.63101 6.66653 3.99967 6.66653C4.36834 6.66653 4.66634 6.9652 4.66634 7.3332V9.72382L10.8617 3.52851C11.1223 3.26784 11.5437 3.26784 11.8044 3.52851C12.065 3.78917 12.065 4.21055 11.8044 4.47122Z" fill="#3B3B3E"/>
</svg>
