<svg width="16" height="16" viewBox="0 0 16 16" fill="none" xmlns="http://www.w3.org/2000/svg">
<path d="M7.99967 1.33301C4.31767 1.33301 1.33301 4.31767 1.33301 7.99967C1.33301 11.6817 4.31767 14.6663 7.99967 14.6663C11.6817 14.6663 14.6663 11.6817 14.6663 7.99967C14.6663 4.31767 11.6817 1.33301 7.99967 1.33301ZM11.6863 7.01969L9.82434 8.88167C9.37034 9.33634 8.62967 9.33699 8.17501 8.88232L7.11567 7.82568C7.05034 7.76035 6.94501 7.76035 6.87968 7.82568L5.01901 9.68636C4.92167 9.78369 4.79367 9.83301 4.66567 9.83301C4.53767 9.83301 4.40968 9.78436 4.31234 9.68636C4.11701 9.49103 4.11701 9.17434 4.31234 8.979L6.173 7.11833C6.62767 6.66366 7.36767 6.66368 7.82234 7.11768L8.88167 8.17432C8.94701 8.23898 9.05234 8.23898 9.11768 8.17432L10.9797 6.31234C11.175 6.117 11.4917 6.117 11.687 6.31234C11.8823 6.50767 11.8817 6.82436 11.6863 7.01969Z" fill="#3B3B3E"/>
</svg>
