<svg width="16" height="16" viewBox="0 0 16 16" fill="none" xmlns="http://www.w3.org/2000/svg">
<path d="M8.00033 12.5003H6.66699C5.28833 12.5003 4.16699 11.379 4.16699 10.0003C4.16699 8.62166 5.28833 7.50033 6.66699 7.50033H9.33366C10.161 7.50033 10.8337 6.82766 10.8337 6.00033C10.8337 5.17299 10.161 4.50033 9.33366 4.50033H8.00033C7.72433 4.50033 7.50033 4.27633 7.50033 4.00033C7.50033 3.72433 7.72433 3.50033 8.00033 3.50033H9.33366C10.7123 3.50033 11.8337 4.62166 11.8337 6.00033C11.8337 7.37899 10.7123 8.50033 9.33366 8.50033H6.66699C5.83966 8.50033 5.16699 9.17299 5.16699 10.0003C5.16699 10.8277 5.83966 11.5003 6.66699 11.5003H8.00033C8.27633 11.5003 8.50033 11.7243 8.50033 12.0003C8.50033 12.2763 8.27633 12.5003 8.00033 12.5003ZM6.33366 4.00033C6.33366 5.35833 5.12031 6.1596 4.31698 6.69027L4.18498 6.77767C4.12898 6.815 4.06433 6.83366 4.00033 6.83366C3.93633 6.83366 3.87167 6.815 3.81567 6.77767L3.68368 6.69027C2.88034 6.1596 1.66699 5.35833 1.66699 4.00033C1.66699 2.71366 2.71366 1.66699 4.00033 1.66699C5.28699 1.66699 6.33366 2.71366 6.33366 4.00033ZM4.68034 4.00033C4.68034 3.63233 4.38167 3.33366 4.01367 3.33366H4.007C3.639 3.33366 3.34367 3.63233 3.34367 4.00033C3.34367 4.36833 3.64567 4.66699 4.01367 4.66699C4.38167 4.66699 4.68034 4.36833 4.68034 4.00033ZM14.3337 11.5003C14.3337 12.8583 13.1203 13.6596 12.317 14.1903L12.185 14.2777C12.129 14.315 12.0643 14.3337 12.0003 14.3337C11.9363 14.3337 11.8717 14.315 11.8157 14.2777L11.6837 14.1903C10.8803 13.6596 9.66699 12.8583 9.66699 11.5003C9.66699 10.2137 10.7137 9.16699 12.0003 9.16699C13.287 9.16699 14.3337 10.2137 14.3337 11.5003ZM12.6803 11.5003C12.6803 11.1323 12.3817 10.8337 12.0137 10.8337H12.007C11.639 10.8337 11.3437 11.1323 11.3437 11.5003C11.3437 11.8683 11.6457 12.167 12.0137 12.167C12.3817 12.167 12.6803 11.8683 12.6803 11.5003Z" fill="#3B3B3E"/>
</svg>
