<svg width="16" height="16" viewBox="0 0 16 16" fill="none" xmlns="http://www.w3.org/2000/svg">
<path d="M14.6665 3.99967V7.33301C14.6665 8.80367 13.4705 9.99967 11.9999 9.99967H3.60926L5.1379 11.5283C5.39857 11.789 5.39857 12.2104 5.1379 12.471C5.0079 12.601 4.83721 12.6663 4.66655 12.6663C4.49588 12.6663 4.32519 12.601 4.19519 12.471L1.52918 9.80501C1.46718 9.74301 1.41848 9.66973 1.38448 9.58773C1.31715 9.42506 1.31715 9.24095 1.38448 9.07829C1.41848 8.99629 1.46718 8.923 1.52918 8.861L4.19519 6.19499C4.45586 5.93432 4.87724 5.93432 5.1379 6.19499C5.39857 6.45565 5.39857 6.87703 5.1379 7.1377L3.60926 8.66634H11.9999C12.7352 8.66634 13.3332 8.06834 13.3332 7.33301V3.99967C13.3332 3.63167 13.6312 3.33301 13.9999 3.33301C14.3685 3.33301 14.6665 3.63167 14.6665 3.99967Z" fill="#3B3B3E"/>
</svg>
