<svg width="16" height="16" viewBox="0 0 16 16" fill="none" xmlns="http://www.w3.org/2000/svg">
<path d="M5.66699 8.00033H3.66699C3.00033 8.00033 2.66699 7.66699 2.66699 7.00033V3.66699C2.66699 3.00033 3.00033 2.66699 3.66699 2.66699H5.66699C6.33366 2.66699 6.66699 3.00033 6.66699 3.66699V7.00033C6.66699 7.66699 6.33366 8.00033 5.66699 8.00033ZM6.66699 12.3337V11.667C6.66699 11.0003 6.33366 10.667 5.66699 10.667H3.66699C3.00033 10.667 2.66699 11.0003 2.66699 11.667V12.3337C2.66699 13.0003 3.00033 13.3337 3.66699 13.3337H5.66699C6.33366 13.3337 6.66699 13.0003 6.66699 12.3337ZM9.33366 9.00033V12.3337C9.33366 13.0003 9.66699 13.3337 10.3337 13.3337H12.3337C13.0003 13.3337 13.3337 13.0003 13.3337 12.3337V9.00033C13.3337 8.33366 13.0003 8.00033 12.3337 8.00033H10.3337C9.66699 8.00033 9.33366 8.33366 9.33366 9.00033ZM9.33366 3.66699V4.33366C9.33366 5.00033 9.66699 5.33366 10.3337 5.33366H12.3337C13.0003 5.33366 13.3337 5.00033 13.3337 4.33366V3.66699C13.3337 3.00033 13.0003 2.66699 12.3337 2.66699H10.3337C9.66699 2.66699 9.33366 3.00033 9.33366 3.66699Z" fill="#3B3B3E"/>
</svg>
