<svg width="16" height="16" viewBox="0 0 16 16" fill="none" xmlns="http://www.w3.org/2000/svg">
<path d="M14.3186 6.05619L9.37716 1.99223C8.57916 1.33756 7.42256 1.33689 6.62456 1.99223L1.68323 6.05554C1.47056 6.23087 1.43921 6.54556 1.61455 6.75956C1.78988 6.97356 2.10523 7.00291 2.31857 6.82825L3.00053 6.26688V11.9996C3.00053 13.5262 3.8072 14.3329 5.33387 14.3329H10.6672C12.1939 14.3329 13.0005 13.5262 13.0005 11.9996V6.26754L13.6825 6.8289C13.7758 6.90556 13.8885 6.94291 14.0005 6.94291C14.1445 6.94291 14.2879 6.88086 14.3865 6.76086C14.5625 6.5462 14.5312 6.23152 14.3186 6.05619ZM10.7378 8.65824L9.7179 9.6449C9.64323 9.7169 9.60916 9.82089 9.62716 9.92289L9.86056 11.2728C9.90789 11.5468 9.61922 11.7555 9.37122 11.6268L8.14718 10.9882C8.05518 10.9402 7.94588 10.9402 7.85388 10.9882L6.6305 11.6262C6.3825 11.7555 6.09317 11.5462 6.14051 11.2722L6.3739 9.92289C6.39124 9.82089 6.35717 9.7169 6.28317 9.6449L5.26323 8.65824C5.07589 8.47691 5.1792 8.16091 5.43787 8.12357L6.84916 7.9202C6.95183 7.90554 7.04055 7.84157 7.08655 7.7489L7.69788 6.52022C7.82188 6.27089 8.17984 6.27089 8.30384 6.52022L8.91516 7.7489C8.96116 7.84157 9.04988 7.90554 9.15255 7.9202L10.5638 8.12357C10.8225 8.16091 10.9252 8.47758 10.7378 8.65824Z" fill="#3B3B3E"/>
</svg>
