<svg width="16" height="16" viewBox="0 0 16 16" fill="none" xmlns="http://www.w3.org/2000/svg">
<path d="M11.9997 8.66602C10.5263 8.66602 9.33301 9.85935 9.33301 11.3327C9.33301 12.806 10.5263 13.9993 11.9997 13.9993C13.473 13.9993 14.6663 12.806 14.6663 11.3327C14.6663 9.85935 13.473 8.66602 11.9997 8.66602ZM12.8997 11.766C13.033 11.8927 13.033 12.106 12.8997 12.2327C12.8397 12.2993 12.753 12.3327 12.6663 12.3327C12.5797 12.3327 12.493 12.2993 12.433 12.2327L11.9997 11.7994L11.5663 12.2327C11.5063 12.2993 11.4197 12.3327 11.333 12.3327C11.2463 12.3327 11.1597 12.2993 11.0997 12.2327C10.9663 12.106 10.9663 11.8927 11.0997 11.766L11.533 11.3327L11.0997 10.8993C10.9663 10.7727 10.9663 10.5594 11.0997 10.4327C11.2263 10.2994 11.4397 10.2994 11.5663 10.4327L11.9997 10.866L12.433 10.4327C12.5597 10.2994 12.773 10.2994 12.8997 10.4327C13.033 10.5594 13.033 10.7727 12.8997 10.8993L12.4663 11.3327L12.8997 11.766ZM1.33301 6.49935V9.99935C1.33301 11.3327 1.99967 11.9993 3.33301 11.9993H8.153C8.26634 11.9993 8.35967 11.906 8.35967 11.7927C8.33967 11.6394 8.33301 11.486 8.33301 11.3327C8.33301 9.31268 9.97967 7.66602 11.9997 7.66602C12.3663 7.66602 12.713 7.71934 13.0463 7.81934C13.073 7.826 13.0997 7.83268 13.1263 7.83268C13.2397 7.83268 13.333 7.74602 13.333 7.63269V6.49935H1.33301ZM5.99967 9.83268H3.99967C3.72634 9.83268 3.49967 9.60602 3.49967 9.33268C3.49967 9.05935 3.72634 8.83268 3.99967 8.83268H5.99967C6.27301 8.83268 6.49967 9.05935 6.49967 9.33268C6.49967 9.60602 6.27301 9.83268 5.99967 9.83268ZM11.333 2.66602H3.33301C1.99967 2.66602 1.33301 3.33268 1.33301 4.66602V5.49935H13.333V4.66602C13.333 3.33268 12.6663 2.66602 11.333 2.66602Z" fill="#3B3B3E"/>
</svg>
