<svg width="16" height="16" viewBox="0 0 16 16" fill="none" xmlns="http://www.w3.org/2000/svg">
<path d="M11.9997 8.83366C12.389 8.83366 12.7457 8.89032 13.0671 8.99099C13.1991 9.03232 13.333 8.94233 13.333 8.80366V4.66699C13.333 3.33366 12.6663 2.66699 11.333 2.66699H3.33301C1.99967 2.66699 1.33301 3.33366 1.33301 4.66699V10.667C1.33301 12.0003 1.99967 12.667 3.33301 12.667H8.21175C8.34908 12.667 8.43507 12.5343 8.39974 12.4017C8.27041 11.9223 8.33494 11.405 8.59294 10.967C9.06627 10.167 10.1397 8.83366 11.9997 8.83366ZM8.01904 8.11966C7.81371 8.26899 7.57301 8.34366 7.33301 8.34366C7.09301 8.34366 6.85164 8.26899 6.64697 8.12032L3.3724 5.73832C3.14906 5.57632 3.0997 5.263 3.26237 5.03966C3.42437 4.81766 3.73627 4.76632 3.96094 4.92966L7.23568 7.31099C7.29434 7.35299 7.37232 7.35366 7.43099 7.31099L10.7057 4.92966C10.9304 4.76632 11.2423 4.817 11.4043 5.03966C11.567 5.263 11.5176 5.57566 11.2943 5.73832L8.01904 8.11966ZM14.5457 11.4777C14.1824 10.8663 13.3657 9.83366 11.9997 9.83366C10.6337 9.83366 9.81761 10.8663 9.45361 11.4777C9.29228 11.7483 9.29228 12.0857 9.45361 12.357C9.81695 12.9683 10.6337 14.001 11.9997 14.001C13.3657 14.001 14.1817 12.9683 14.5457 12.357C14.7064 12.0857 14.7064 11.7483 14.5457 11.4777ZM12.013 12.7503C11.5537 12.7503 11.1763 12.377 11.1763 11.917C11.1763 11.457 11.5463 11.0837 12.0063 11.0837H12.013C12.473 11.0837 12.8464 11.457 12.8464 11.917C12.8464 12.377 12.473 12.7503 12.013 12.7503Z" fill="#3B3B3E"/>
</svg>
