<svg width="16" height="16" viewBox="0 0 16 16" fill="none" xmlns="http://www.w3.org/2000/svg">
<path d="M13.9997 5.99967H11.6663C10.6383 5.99967 9.99967 5.36101 9.99967 4.33301V1.99967C9.99967 1.63167 10.2977 1.33301 10.6663 1.33301C11.035 1.33301 11.333 1.63167 11.333 1.99967V4.33301C11.333 4.63234 11.3677 4.66634 11.6663 4.66634H13.9997C14.3683 4.66634 14.6663 4.96501 14.6663 5.33301C14.6663 5.70101 14.3683 5.99967 13.9997 5.99967ZM5.99967 4.33301V1.99967C5.99967 1.63167 5.70167 1.33301 5.33301 1.33301C4.96434 1.33301 4.66634 1.63167 4.66634 1.99967V4.33301C4.66634 4.63234 4.63167 4.66634 4.33301 4.66634H1.99967C1.63101 4.66634 1.33301 4.96501 1.33301 5.33301C1.33301 5.70101 1.63101 5.99967 1.99967 5.99967H4.33301C5.36101 5.99967 5.99967 5.36101 5.99967 4.33301ZM5.99967 13.9997V11.6663C5.99967 10.6383 5.36101 9.99967 4.33301 9.99967H1.99967C1.63101 9.99967 1.33301 10.2983 1.33301 10.6663C1.33301 11.0343 1.63101 11.333 1.99967 11.333H4.33301C4.63167 11.333 4.66634 11.367 4.66634 11.6663V13.9997C4.66634 14.3677 4.96434 14.6663 5.33301 14.6663C5.70167 14.6663 5.99967 14.3677 5.99967 13.9997ZM11.333 13.9997V11.6663C11.333 11.367 11.3677 11.333 11.6663 11.333H13.9997C14.3683 11.333 14.6663 11.0343 14.6663 10.6663C14.6663 10.2983 14.3683 9.99967 13.9997 9.99967H11.6663C10.6383 9.99967 9.99967 10.6383 9.99967 11.6663V13.9997C9.99967 14.3677 10.2977 14.6663 10.6663 14.6663C11.035 14.6663 11.333 14.3677 11.333 13.9997Z" fill="#3B3B3E"/>
</svg>
