<svg width="16" height="16" viewBox="0 0 16 16" fill="none" xmlns="http://www.w3.org/2000/svg">
<path d="M15.0197 3.02001C14.9223 3.11735 14.7943 3.16666 14.6663 3.16666C14.5383 3.16666 14.4103 3.11801 14.313 3.02001L13.833 2.54003V4.66666C13.833 4.94266 13.609 5.16666 13.333 5.16666C13.057 5.16666 12.833 4.94266 12.833 4.66666V2.54069L12.353 3.02067C12.1577 3.216 11.841 3.216 11.6457 3.02067C11.4503 2.82533 11.4503 2.50864 11.6457 2.31331L12.979 0.979976C13.025 0.933976 13.0803 0.897318 13.1417 0.871984C13.2637 0.821318 13.4017 0.821318 13.5237 0.871984C13.585 0.897318 13.6403 0.933976 13.6863 0.979976L15.0197 2.31331C15.215 2.50864 15.215 2.82468 15.0197 3.02001ZM14.6663 8C14.6663 11.7433 11.5763 14.7693 7.80968 14.664C4.33168 14.5673 1.43301 11.668 1.33568 8.19002C1.23034 4.42335 4.25634 1.33333 7.99968 1.33333C8.88434 1.33333 9.72901 1.50335 10.4977 1.82202C10.6043 1.86602 10.6457 1.99199 10.5983 2.09733C10.351 2.64533 10.2583 3.28933 10.3983 3.96533C10.657 5.21666 11.7423 6.1893 13.0137 6.3173C13.4263 6.35863 13.827 6.31934 14.2003 6.208C14.3103 6.17534 14.4277 6.23202 14.4563 6.34269C14.593 6.87002 14.6663 7.42733 14.6663 8ZM9.98101 9.34464C9.98101 8.54331 9.43767 7.84601 8.65701 7.64868L7.58502 7.38265C7.41968 7.34131 7.27901 7.24869 7.17301 7.11336C7.07301 6.98669 7.01767 6.82399 7.01767 6.65665C7.01767 6.24399 7.35301 5.90869 7.76568 5.90869H8.23234C8.61368 5.90869 8.93301 6.19535 8.97634 6.57535C9.00701 6.85002 9.25435 7.05001 9.52902 7.01668C9.80368 6.98601 10.001 6.73869 9.97034 6.46403C9.88034 5.66269 9.26035 5.04463 8.48435 4.93196V4.66666C8.48435 4.39066 8.26035 4.16666 7.98435 4.16666C7.70835 4.16666 7.48435 4.39066 7.48435 4.66666V4.93603C6.65435 5.07203 6.01767 5.78802 6.01767 6.65535C6.01767 7.04668 6.14901 7.42936 6.38567 7.72802C6.62301 8.03402 6.96168 8.25531 7.34168 8.35131L8.41368 8.61735C8.74768 8.70201 8.98101 9.00067 8.98101 9.34334C8.98101 9.54201 8.90301 9.72933 8.76101 9.87133C8.61901 10.0133 8.43168 10.0913 8.23302 10.0913H7.76634C7.38501 10.0913 7.06568 9.80464 7.02234 9.42464C6.99168 9.14997 6.74368 8.94865 6.46968 8.98331C6.19501 9.01398 5.99768 9.2613 6.02834 9.53597C6.11701 10.3273 6.72235 10.9414 7.48435 11.0647V11.3333C7.48435 11.6093 7.70835 11.8333 7.98435 11.8333C8.26035 11.8333 8.48435 11.6093 8.48435 11.3333V11.068C8.85435 11.014 9.19768 10.85 9.46768 10.58C9.79901 10.2487 9.98101 9.80997 9.98101 9.34464Z" fill="#3B3B3E"/>
</svg>
