<svg width="16" height="16" viewBox="0 0 16 16" fill="none" xmlns="http://www.w3.org/2000/svg">
<path d="M11.75 2H4.25C2.75 2 2 2.75 2 4.25V11.75C2 13.25 2.75 14 4.25 14H11.75C13.25 14 14 13.25 14 11.75V4.25C14 2.75 13.25 2 11.75 2ZM8.014 11.5C7.554 11.5 7.17733 11.1267 7.17733 10.6667C7.17733 10.2067 7.54732 9.83333 8.00732 9.83333H8.014C8.474 9.83333 8.84733 10.2067 8.84733 10.6667C8.84733 11.1267 8.474 11.5 8.014 11.5ZM8.014 8.83333C7.554 8.83333 7.17733 8.46 7.17733 8C7.17733 7.54 7.54732 7.16667 8.00732 7.16667H8.014C8.474 7.16667 8.84733 7.54 8.84733 8C8.84733 8.46 8.474 8.83333 8.014 8.83333ZM8.014 6.16667C7.554 6.16667 7.17733 5.79333 7.17733 5.33333C7.17733 4.87333 7.54732 4.5 8.00732 4.5H8.014C8.474 4.5 8.84733 4.87333 8.84733 5.33333C8.84733 5.79333 8.474 6.16667 8.014 6.16667Z" fill="#3B3B3E"/>
</svg>
