<svg width="16" height="16" viewBox="0 0 16 16" fill="none" xmlns="http://www.w3.org/2000/svg">
<path d="M12.7187 8.00029H3.28198C3.16332 8.00029 3.07068 8.10295 3.08268 8.22095L3.49333 12.2003C3.59999 13.2203 3.99332 14.0003 5.48665 14.0003H10.5267C11.9934 14.0003 12.42 13.2203 12.5133 12.2003L12.9173 8.22029C12.9293 8.10296 12.8373 8.00029 12.7187 8.00029ZM9.68669 9.89362L7.90869 11.6716C7.81469 11.7656 7.68801 11.8183 7.55534 11.8183C7.42267 11.8183 7.29532 11.7656 7.20199 11.6716L6.31331 10.783C6.11798 10.5876 6.11798 10.271 6.31331 10.0756C6.50865 9.88029 6.82534 9.88096 7.02067 10.0756L7.55599 10.611L8.98063 9.18696C9.17597 8.99162 9.49266 8.99162 9.68799 9.18696C9.88332 9.38229 9.88202 9.69829 9.68669 9.89362ZM14 6.00029C14 6.73629 13.4027 7.33362 12.6667 7.33362H3.33333C2.59733 7.33362 2 6.73629 2 6.00029C2 5.26429 2.59733 4.66696 3.33333 4.66696H4.48535L6.2513 1.74162C6.39397 1.50562 6.70134 1.42896 6.93734 1.57229C7.17334 1.71562 7.25002 2.02229 7.10669 2.25896L5.65267 4.66696H10.3534L8.91602 2.25629C8.77468 2.01962 8.85201 1.71229 9.09001 1.57096C9.32667 1.43029 9.63398 1.50696 9.77531 1.74496L11.518 4.66763H12.6667C13.4027 4.66696 14 5.26429 14 6.00029Z" fill="#3B3B3E"/>
</svg>
