<svg width="16" height="16" viewBox="0 0 16 16" fill="none" xmlns="http://www.w3.org/2000/svg">
<path d="M14 7.66667V12.1667C14 12.6267 13.6267 13 13.1667 13C12.7067 13 12.3333 12.6267 12.3333 12.1667V6.66667H13C13.552 6.66667 14 7.11467 14 7.66667ZM12.6667 14H4C2.66667 14 2 13.3333 2 12V4C2 2.66667 2.66667 2 4 2H9.33333C10.6667 2 11.3333 2.66667 11.3333 4V12.6667C11.3333 13.4033 11.9307 14 12.6667 14ZM5.35335 9.97998C5.15802 9.78465 4.84133 9.78465 4.646 9.97998L4.33203 10.294C4.13603 10.118 3.834 10.1253 3.646 10.3133C3.45066 10.5086 3.45066 10.8253 3.646 11.0207L3.97933 11.354C4.07666 11.4513 4.20468 11.5007 4.33268 11.5007C4.46068 11.5007 4.5887 11.452 4.68604 11.354L5.3527 10.6873C5.5487 10.4913 5.54869 10.1753 5.35335 9.97998ZM5.35335 7.31331C5.15802 7.11798 4.84133 7.11798 4.646 7.31331L4.33203 7.62732C4.13603 7.45132 3.834 7.45865 3.646 7.64665C3.45066 7.84198 3.45066 8.15867 3.646 8.354L3.97933 8.68734C4.07666 8.78467 4.20468 8.83398 4.33268 8.83398C4.46068 8.83398 4.5887 8.78534 4.68604 8.68734L5.3527 8.02067C5.5487 7.82467 5.54869 7.50865 5.35335 7.31331ZM5.35335 4.64665C5.15802 4.45131 4.84133 4.45131 4.646 4.64665L4.33203 4.96065C4.13603 4.78465 3.834 4.79198 3.646 4.97998C3.45066 5.17531 3.45066 5.492 3.646 5.68734L3.97933 6.02067C4.07666 6.118 4.20468 6.16732 4.33268 6.16732C4.46068 6.16732 4.5887 6.11867 4.68604 6.02067L5.3527 5.354C5.5487 5.158 5.54869 4.84198 5.35335 4.64665ZM9.83333 10.6667C9.83333 10.3907 9.60933 10.1667 9.33333 10.1667H7C6.724 10.1667 6.5 10.3907 6.5 10.6667C6.5 10.9427 6.724 11.1667 7 11.1667H9.33333C9.60933 11.1667 9.83333 10.9427 9.83333 10.6667ZM9.83333 8C9.83333 7.724 9.60933 7.5 9.33333 7.5H7C6.724 7.5 6.5 7.724 6.5 8C6.5 8.276 6.724 8.5 7 8.5H9.33333C9.60933 8.5 9.83333 8.276 9.83333 8ZM9.83333 5.33333C9.83333 5.05733 9.60933 4.83333 9.33333 4.83333H7C6.724 4.83333 6.5 5.05733 6.5 5.33333C6.5 5.60933 6.724 5.83333 7 5.83333H9.33333C9.60933 5.83333 9.83333 5.60933 9.83333 5.33333Z" fill="#3B3B3E"/>
</svg>
