<svg width="16" height="16" viewBox="0 0 16 16" fill="none" xmlns="http://www.w3.org/2000/svg">
<path d="M8.60701 7.50065H7.197V6.06063H8.60701C8.99568 6.06063 9.31234 6.38335 9.31234 6.78068C9.31234 7.17801 8.99568 7.50065 8.60701 7.50065ZM8.95101 8.50065H8.60634H7.19635V9.94067H8.95034C9.339 9.94067 9.65568 9.61795 9.65568 9.22062C9.65568 8.82329 9.34034 8.50065 8.95101 8.50065ZM14.6663 8.00065C14.6663 11.6827 11.6817 14.6673 7.99967 14.6673C4.31767 14.6673 1.33301 11.6827 1.33301 8.00065C1.33301 4.31865 4.31767 1.33398 7.99967 1.33398C11.6817 1.33398 14.6663 4.31865 14.6663 8.00065ZM10.6563 9.22062C10.6563 8.64795 10.375 8.14398 9.947 7.83065C10.1723 7.53931 10.3117 7.17801 10.3117 6.78068C10.3117 5.94735 9.72101 5.25131 8.93901 5.09464V4.66732C8.93901 4.39132 8.71501 4.16732 8.43901 4.16732C8.16301 4.16732 7.93901 4.39132 7.93901 4.66732V5.06063H7.545V4.66732C7.545 4.39132 7.321 4.16732 7.045 4.16732C6.769 4.16732 6.545 4.39132 6.545 4.66732V5.06063H5.84235C5.56635 5.06063 5.34235 5.28463 5.34235 5.56063C5.34235 5.83663 5.56635 6.06063 5.84235 6.06063H6.19635V9.94067H5.84235C5.56635 9.94067 5.34235 10.1647 5.34235 10.4407C5.34235 10.7167 5.56635 10.9407 5.84235 10.9407H6.545V11.334C6.545 11.61 6.769 11.834 7.045 11.834C7.321 11.834 7.545 11.61 7.545 11.334V10.9407H7.93901V11.334C7.93901 11.61 8.16301 11.834 8.43901 11.834C8.71501 11.834 8.93901 11.61 8.93901 11.334V10.9407H8.95034C9.89167 10.9407 10.6563 10.1693 10.6563 9.22062Z" fill="#3B3B3E"/>
</svg>
