<svg width="16" height="16" viewBox="0 0 16 16" fill="none" xmlns="http://www.w3.org/2000/svg">
<path d="M1.33301 5.33301V2.99967C1.33301 1.97167 1.97167 1.33301 2.99967 1.33301H5.33301C5.70167 1.33301 5.99967 1.63167 5.99967 1.99967C5.99967 2.36767 5.70167 2.66634 5.33301 2.66634H2.99967C2.70101 2.66634 2.66634 2.70034 2.66634 2.99967V5.33301C2.66634 5.70101 2.36834 5.99967 1.99967 5.99967C1.63101 5.99967 1.33301 5.70101 1.33301 5.33301ZM13.9997 9.99967C13.631 9.99967 13.333 10.2983 13.333 10.6663V12.9997C13.333 13.299 13.2983 13.333 12.9997 13.333H10.6663C10.2977 13.333 9.99967 13.6317 9.99967 13.9997C9.99967 14.3677 10.2977 14.6663 10.6663 14.6663H12.9997C14.0277 14.6663 14.6663 14.0277 14.6663 12.9997V10.6663C14.6663 10.2983 14.3683 9.99967 13.9997 9.99967ZM12.9997 1.33301H10.6663C10.2977 1.33301 9.99967 1.63167 9.99967 1.99967C9.99967 2.36767 10.2977 2.66634 10.6663 2.66634H12.9997C13.2983 2.66634 13.333 2.70034 13.333 2.99967V5.33301C13.333 5.70101 13.631 5.99967 13.9997 5.99967C14.3683 5.99967 14.6663 5.70101 14.6663 5.33301V2.99967C14.6663 1.97167 14.0277 1.33301 12.9997 1.33301ZM5.33301 13.333H2.99967C2.70101 13.333 2.66634 13.299 2.66634 12.9997V10.6663C2.66634 10.2983 2.36834 9.99967 1.99967 9.99967C1.63101 9.99967 1.33301 10.2983 1.33301 10.6663V12.9997C1.33301 14.0277 1.97167 14.6663 2.99967 14.6663H5.33301C5.70167 14.6663 5.99967 14.3677 5.99967 13.9997C5.99967 13.6317 5.70167 13.333 5.33301 13.333ZM11.2764 4.98096C10.7644 4.27762 9.68834 5.04908 10.1943 5.76042C10.503 6.18908 10.6663 6.70168 10.6663 7.24235V10.021C10.6663 10.6997 10.5611 11.153 10.3237 11.4917C10.0084 11.9137 10.3496 12.5557 10.869 12.5404C11.901 12.4197 11.991 10.589 11.999 10.021C11.9444 8.56966 12.299 6.18029 11.2764 4.98096ZM3.99967 7.2417V9.29639C4.00367 10.1664 5.32901 10.1697 5.33301 9.29639V7.2417C5.33301 5.73237 6.66295 4.49702 8.17562 4.67969C8.54228 4.72169 8.87364 4.46299 8.91764 4.09766C8.98964 3.51566 8.40037 3.27769 7.90837 3.33236C5.75303 3.33302 3.99967 5.08637 3.99967 7.2417ZM9.81966 6.95833C9.24766 4.81433 6.08765 5.20307 6.06299 7.43441C6.06699 7.51107 6.06032 8.51441 6.06299 8.62174V9.29639C6.06299 9.52772 5.94627 9.92634 5.7736 10.1523C5.54893 10.4443 5.60431 10.8631 5.89697 11.0871C6.90831 11.7391 7.41832 9.89772 7.39632 9.29639C7.39632 8.81372 7.39632 7.92041 7.39632 7.43441C7.38965 6.80774 8.26962 6.64908 8.50895 7.21175C8.59628 7.33842 8.53836 8.46041 8.55436 8.62174V9.67106C8.55436 10.4351 8.44574 11.0377 7.91374 11.493C7.6344 11.733 7.60228 12.1536 7.84228 12.4329C8.08295 12.7136 8.50372 12.7437 8.78239 12.505C9.76239 11.6644 9.88769 10.5484 9.88769 9.67041C9.85303 9.00774 9.96699 7.543 9.81966 6.95833Z" fill="#3B3B3E"/>
</svg>
