<svg width="16" height="16" viewBox="0 0 16 16" fill="none" xmlns="http://www.w3.org/2000/svg">
<path d="M14.6663 8C14.6663 11.676 11.6757 14.6667 7.99967 14.6667C5.45167 14.6667 3.16362 13.248 2.02962 10.9634C1.86562 10.6334 2.0004 10.2333 2.3304 10.07C2.65907 9.90532 3.0603 10.0413 3.22363 10.3706C4.13097 12.1986 5.96101 13.334 7.99967 13.334C10.9403 13.334 13.333 10.9413 13.333 8.00065C13.333 5.05998 10.9403 2.66732 7.99967 2.66732C6.07501 2.66732 4.33107 3.71065 3.39307 5.33398H5.33301C5.70167 5.33398 5.99967 5.63265 5.99967 6.00065C5.99967 6.36865 5.70167 6.66732 5.33301 6.66732H1.99967C1.63101 6.66732 1.33301 6.36865 1.33301 6.00065V2.66732C1.33301 2.29932 1.63101 2.00065 1.99967 2.00065C2.36834 2.00065 2.66634 2.29932 2.66634 2.66732V4.00602C3.90167 2.35736 5.86434 1.33398 7.99967 1.33398C11.6757 1.33332 14.6663 4.324 14.6663 8Z" fill="#3B3B3E"/>
</svg>
