<svg width="16" height="16" viewBox="0 0 16 16" fill="none" xmlns="http://www.w3.org/2000/svg">
<path d="M6.014 14.8333C5.55466 14.8333 5.17733 14.46 5.17733 14C5.17733 13.54 5.54732 13.1667 6.00732 13.1667H6.014C6.474 13.1667 6.84733 13.54 6.84733 14C6.84733 14.46 6.474 14.8333 6.014 14.8333ZM12.1807 14C12.1807 13.54 11.8073 13.1667 11.3473 13.1667H11.3407C10.8807 13.1667 10.5107 13.54 10.5107 14C10.5107 14.46 10.8873 14.8333 11.3473 14.8333C11.8073 14.8333 12.1807 14.46 12.1807 14ZM13.9733 5.57333L13.3 9.69333C13.1266 10.64 12.7333 11.3333 11.3333 11.3333H5.81999C5.15332 11.3333 4.59333 10.8467 4.5 10.1867L3.49935 3.22133C3.43935 2.80133 3.09267 2.5 2.67334 2.5H2.5C2.224 2.5 2 2.276 2 2C2 1.724 2.224 1.5 2.5 1.5H2.67334C3.59534 1.5 4.35869 2.16267 4.48869 3.076L4.62801 4H12.6667C13.4933 4 14.1266 4.75333 13.9733 5.57333ZM10.338 6.424C10.1426 6.22867 9.82603 6.22867 9.6307 6.424L8.20597 7.848L7.67065 7.31266C7.47532 7.11733 7.15863 7.11733 6.9633 7.31266C6.76796 7.508 6.76796 7.82467 6.9633 8.02L7.85197 8.90867C7.94597 9.00267 8.07266 9.05533 8.20532 9.05533C8.33799 9.05533 8.46534 9.00267 8.55867 8.90867L10.3367 7.13067C10.5333 6.936 10.5333 6.61933 10.338 6.424Z" fill="#3B3B3E"/>
</svg>
