<svg width="16" height="16" viewBox="0 0 16 16" fill="none" xmlns="http://www.w3.org/2000/svg">
<path d="M1.33301 3.33301C1.33301 2.96501 1.63167 2.66634 1.99967 2.66634H4.66634V1.99967C4.66634 1.63167 4.96501 1.33301 5.33301 1.33301C5.70101 1.33301 5.99967 1.63167 5.99967 1.99967V4.66634C5.99967 5.03434 5.70101 5.33301 5.33301 5.33301C4.96501 5.33301 4.66634 5.03434 4.66634 4.66634V3.99967H1.99967C1.63167 3.99967 1.33301 3.70101 1.33301 3.33301ZM7.99967 3.99967H13.9997C14.3677 3.99967 14.6663 3.70101 14.6663 3.33301C14.6663 2.96501 14.3677 2.66634 13.9997 2.66634H7.99967C7.63167 2.66634 7.33301 2.96501 7.33301 3.33301C7.33301 3.70101 7.63167 3.99967 7.99967 3.99967ZM1.99967 8.66634H7.99967C8.36767 8.66634 8.66634 8.36767 8.66634 7.99967C8.66634 7.63167 8.36767 7.33301 7.99967 7.33301H1.99967C1.63167 7.33301 1.33301 7.63167 1.33301 7.99967C1.33301 8.36767 1.63167 8.66634 1.99967 8.66634ZM13.9997 7.33301H11.333V6.66634C11.333 6.29834 11.0343 5.99967 10.6663 5.99967C10.2983 5.99967 9.99967 6.29834 9.99967 6.66634V9.33301C9.99967 9.70101 10.2983 9.99967 10.6663 9.99967C11.0343 9.99967 11.333 9.70101 11.333 9.33301V8.66634H13.9997C14.3677 8.66634 14.6663 8.36767 14.6663 7.99967C14.6663 7.63167 14.3677 7.33301 13.9997 7.33301ZM5.33301 10.6663C4.96501 10.6663 4.66634 10.965 4.66634 11.333V11.9997H1.99967C1.63167 11.9997 1.33301 12.2983 1.33301 12.6663C1.33301 13.0343 1.63167 13.333 1.99967 13.333H4.66634V13.9997C4.66634 14.3677 4.96501 14.6663 5.33301 14.6663C5.70101 14.6663 5.99967 14.3677 5.99967 13.9997V11.333C5.99967 10.965 5.70101 10.6663 5.33301 10.6663ZM13.9997 11.9997H7.99967C7.63167 11.9997 7.33301 12.2983 7.33301 12.6663C7.33301 13.0343 7.63167 13.333 7.99967 13.333H13.9997C14.3677 13.333 14.6663 13.0343 14.6663 12.6663C14.6663 12.2983 14.3677 11.9997 13.9997 11.9997Z" fill="#3B3B3E"/>
</svg>
