<svg width="16" height="16" viewBox="0 0 16 16" fill="none" xmlns="http://www.w3.org/2000/svg">
<path d="M6.31966 7.43401C6.48633 7.50735 6.65967 7.55403 6.83301 7.59403V13.9407C6.72634 13.914 6.61969 13.874 6.51969 13.8273L2.51969 12.0474C1.79969 11.7274 1.33301 11.014 1.33301 10.2207V5.78069C1.33301 5.60069 1.35966 5.42069 1.40633 5.25402L6.31966 7.43401ZM12.753 4.37402C12.5797 4.20068 12.3797 4.05401 12.1463 3.95401L8.14632 2.17402C7.62632 1.94069 7.03969 1.94069 6.51969 2.17402L2.51969 3.95401C2.28636 4.05401 2.08634 4.20068 1.913 4.37402L6.71964 6.51401C7.10631 6.68734 7.55304 6.68734 7.94637 6.51401L12.753 4.37402ZM8.37231 10.7847C8.61765 9.06401 10.1256 7.73068 11.8623 7.67001C12.2863 7.65535 12.6903 7.70936 13.069 7.82669C13.2003 7.86736 13.333 7.77801 13.333 7.64068V5.78069C13.333 5.60069 13.3064 5.42069 13.2597 5.25402L8.34635 7.43401C8.17969 7.50068 8.00634 7.55403 7.83301 7.59403V13.9407C7.84567 13.9487 7.84565 13.9487 7.85832 13.9567L8.79435 13.536C8.90569 13.486 8.94235 13.3507 8.87769 13.2467C8.44169 12.5453 8.24165 11.6993 8.37231 10.7847ZM14.6663 11.334C14.6663 12.8073 13.473 14.0007 11.9997 14.0007C10.5263 14.0007 9.33301 12.8073 9.33301 11.334C9.33301 9.86068 10.5263 8.66735 11.9997 8.66735C13.473 8.66735 14.6663 9.86068 14.6663 11.334ZM13.1663 11.334C13.1663 11.1473 13.0197 11.0007 12.833 11.0007H12.333V10.5007C12.333 10.314 12.1863 10.1673 11.9997 10.1673C11.813 10.1673 11.6663 10.314 11.6663 10.5007V11.0007H11.1663C10.9797 11.0007 10.833 11.1473 10.833 11.334C10.833 11.514 10.9797 11.6673 11.1663 11.6673H11.6663V12.1673C11.6663 12.3473 11.813 12.5007 11.9997 12.5007C12.1863 12.5007 12.333 12.3473 12.333 12.1673V11.6673H12.833C13.0197 11.6673 13.1663 11.514 13.1663 11.334Z" fill="#3B3B3E"/>
</svg>
