<svg width="16" height="16" viewBox="0 0 16 16" fill="none" xmlns="http://www.w3.org/2000/svg">
<path d="M11.7467 2H4.25334C2.74667 2 2 2.75334 2 4.25334V11.7533C2 13.2533 2.74667 14 4.25334 14H11.7467C13.2533 14 14 13.2533 14 11.7533V4.25334C14 2.75334 13.2533 2 11.7467 2ZM11.04 7.76L7.37333 11.8333C7.32 11.8867 7.25335 11.92 7.18669 11.92C7.15335 11.92 7.12668 11.9133 7.09334 11.9C7.00001 11.86 6.93335 11.7733 6.93335 11.6667V8.66H5.14665C5.04665 8.66 4.96 8.6 4.92 8.50666C4.88 8.42 4.89334 8.31333 4.96 8.24L8.62667 4.16667C8.7 4.08667 8.80666 4.06 8.90666 4.1C8.99999 4.14 9.06665 4.22667 9.06665 4.33333V7.34H10.8534C10.9534 7.34 11.04 7.4 11.08 7.49334C11.12 7.58 11.1067 7.68667 11.04 7.76Z" fill="#3B3B3E"/>
</svg>
