<svg width="16" height="16" viewBox="0 0 16 16" fill="none" xmlns="http://www.w3.org/2000/svg">
<path d="M7.99967 1.33301C4.31767 1.33301 1.33301 4.31767 1.33301 7.99967C1.33301 11.6817 4.31767 14.6663 7.99967 14.6663C11.6817 14.6663 14.6663 11.6817 14.6663 7.99967C14.6663 4.31767 11.6817 1.33301 7.99967 1.33301ZM10.631 5.8444L8.14502 11.1276C8.00435 11.4263 7.56834 11.3917 7.47701 11.0737L7.11369 9.80159C6.98702 9.35826 6.64101 9.01241 6.19767 8.88574L4.92566 8.5223C4.60766 8.43163 4.57233 7.995 4.87166 7.85433L10.155 5.36833C10.4583 5.22566 10.7737 5.54107 10.631 5.8444Z" fill="#3B3B3E"/>
</svg>
