<svg width="16" height="16" viewBox="0 0 16 16" fill="none" xmlns="http://www.w3.org/2000/svg">
<path d="M7.99967 1.33301C4.31767 1.33301 1.33301 4.31767 1.33301 7.99967C1.33301 11.6817 4.31767 14.6663 7.99967 14.6663C11.6817 14.6663 14.6663 11.6817 14.6663 7.99967C14.6663 4.31767 11.6817 1.33301 7.99967 1.33301ZM11.4609 7.19108C11.4356 7.25241 11.399 7.30768 11.353 7.35368L10.353 8.35368C10.2557 8.45101 10.1277 8.50033 9.99967 8.50033C9.87167 8.50033 9.74365 8.45168 9.64632 8.35368C9.45099 8.15834 9.45099 7.84165 9.64632 7.64632L9.79297 7.49967H6.50033C5.94899 7.49967 5.50033 7.94834 5.50033 8.49967C5.50033 9.05101 5.94899 9.49967 6.50033 9.49967H10.0003C10.2763 9.49967 10.5003 9.72367 10.5003 9.99967C10.5003 10.2757 10.2763 10.4997 10.0003 10.4997H6.50033C5.39766 10.4997 4.50033 9.60234 4.50033 8.49967C4.50033 7.39701 5.39766 6.49967 6.50033 6.49967H9.79297L9.64632 6.35303C9.45099 6.15769 9.45099 5.841 9.64632 5.64567C9.84165 5.45034 10.1583 5.45034 10.3537 5.64567L11.3537 6.64567C11.3997 6.69167 11.4364 6.74693 11.4618 6.80827C11.5118 6.93093 11.5116 7.06841 11.4609 7.19108Z" fill="#3B3B3E"/>
</svg>
