<svg width="16" height="16" viewBox="0 0 16 16" fill="none" xmlns="http://www.w3.org/2000/svg">
<path fill-rule="evenodd" clip-rule="evenodd" d="M13.5136 6.04153L9.05895 2.3795C8.44362 1.8735 7.55628 1.8735 6.94095 2.3795L2.48693 6.04153C2.11293 6.34886 1.93493 6.83416 2.0216 7.31016L2.99165 12.6315C3.13631 13.4235 3.8263 13.9995 4.63097 13.9995H11.3683C12.1736 13.9995 12.8636 13.4235 13.0076 12.6315L13.9776 7.30951C14.0656 6.83485 13.8876 6.34886 13.5136 6.04153ZM10.617 8.86282C10.269 10.6421 8.00027 11.6669 8.00027 11.6669C8.00027 11.6669 5.73158 10.6421 5.38358 8.86282C5.17024 7.77082 5.63631 6.67285 6.82165 6.66685C7.70431 6.66285 8.00027 7.54552 8.00027 7.54552C8.00027 7.54552 8.29624 6.66219 9.1789 6.66685C10.3662 6.67285 10.8303 7.77082 10.617 8.86282Z" fill="#3B3B3E"/>
</svg>
