<svg width="16" height="16" viewBox="0 0 16 16" fill="none" xmlns="http://www.w3.org/2000/svg">
<path d="M7.45964 3.77781C7.48564 3.81381 7.49967 3.85847 7.49967 3.90314V12.6991C7.49967 12.8491 7.34168 12.9398 7.20768 12.8731C5.61768 12.0798 4.02229 12.0818 2.43229 12.5345C2.21229 12.5945 1.99902 12.4412 1.99902 12.2212V3.54783C1.99902 3.41917 2.07296 3.29783 2.18896 3.24249C3.28363 2.72116 4.44434 2.57377 5.65234 2.72044C6.40234 2.81111 7.0443 3.20781 7.45964 3.77781ZM13.9997 3.5471V12.2204C13.9997 12.4404 13.7864 12.5938 13.5664 12.5338C11.9771 12.0812 10.3817 12.0791 8.79102 12.8725C8.65702 12.9391 8.49902 12.8485 8.49902 12.6985V3.90249C8.49902 3.85782 8.51306 3.81316 8.53906 3.77716C8.9544 3.20716 9.59704 2.81046 10.3457 2.71979C11.5537 2.57312 12.7151 2.71984 13.8091 3.24184C13.9257 3.29718 13.9997 3.41843 13.9997 3.5471ZM11.833 8.00047C11.833 7.72447 11.609 7.50047 11.333 7.50047H9.99967C9.72367 7.50047 9.49967 7.72447 9.49967 8.00047C9.49967 8.27647 9.72367 8.50047 9.99967 8.50047H11.333C11.609 8.50047 11.833 8.27647 11.833 8.00047ZM12.4997 6.00047C12.4997 5.72447 12.2757 5.50047 11.9997 5.50047H9.99967C9.72367 5.50047 9.49967 5.72447 9.49967 6.00047C9.49967 6.27647 9.72367 6.50047 9.99967 6.50047H11.9997C12.2757 6.50047 12.4997 6.27647 12.4997 6.00047Z" fill="#3B3B3E"/>
</svg>
