<svg width="16" height="16" viewBox="0 0 16 16" fill="none" xmlns="http://www.w3.org/2000/svg">
<path d="M11.1667 9.00029V9.83362H4.83333V9.00029C4.83333 8.60695 4.94 8.50029 5.33333 8.50029H10.6667C11.06 8.50029 11.1667 8.60695 11.1667 9.00029ZM4.83333 11.8336H11.1667V10.8336H4.83333V11.8336ZM4.83333 13.8003C4.83333 13.9109 4.9227 14.0003 5.03337 14.0003H10.9666C11.0773 14.0003 11.1667 13.9109 11.1667 13.8003V12.8336H4.83333V13.8003ZM14 5.72701V13.0003C14 13.5523 13.552 14.0003 13 14.0003H12.3667C12.256 14.0003 12.1667 13.9109 12.1667 13.8003V9.00029C12.1667 8.17162 11.4953 7.50029 10.6667 7.50029H5.33333C4.50467 7.50029 3.83333 8.17162 3.83333 9.00029V13.8003C3.83333 13.9109 3.74397 14.0003 3.6333 14.0003H3C2.448 14.0003 2 13.5523 2 13.0003V5.72701C2 5.36035 2.19335 5.02697 2.51335 4.84697L7.35335 2.16695C7.75335 1.94695 8.24665 1.94695 8.64665 2.16695L13.4867 4.84697C13.8 5.02697 14 5.36035 14 5.72701ZM9.5 5.33362C9.5 5.05762 9.276 4.83362 9 4.83362H7C6.724 4.83362 6.5 5.05762 6.5 5.33362C6.5 5.60962 6.724 5.83362 7 5.83362H9C9.276 5.83362 9.5 5.60962 9.5 5.33362Z" fill="#3B3B3E"/>
</svg>
