<svg width="16" height="16" viewBox="0 0 16 16" fill="none" xmlns="http://www.w3.org/2000/svg">
<path d="M13.7404 6.30534C13.7037 6.19401 13.5776 6.14737 13.4683 6.18937C13.0983 6.33137 12.6796 6.37135 12.2443 6.29801C11.3663 6.15068 10.6336 5.46797 10.4123 4.60531C10.2903 4.12931 10.319 3.69134 10.445 3.29134C10.479 3.18467 10.4289 3.06733 10.3229 3.03133C9.60692 2.78933 8.82031 2.66602 8.00098 2.66602C4.68764 2.66602 2.00098 4.666 2.00098 8C2.00098 9.41333 2.48761 10.594 3.30094 11.474C3.20094 12.114 2.84092 12.8473 2.11426 13.434C1.89426 13.6207 2.02095 13.9873 2.30762 13.994C3.25428 14.0273 4.71425 13.9007 5.60758 12.9473C6.34092 13.2007 7.14764 13.334 8.00098 13.334C11.3143 13.334 14.001 11.3333 14.001 8C14.0003 7.38867 13.9124 6.82401 13.7404 6.30534ZM5.34701 8.66667C4.97901 8.66667 4.67692 8.368 4.67692 8C4.67692 7.632 4.97233 7.33333 5.34033 7.33333H5.34701C5.71567 7.33333 6.01367 7.632 6.01367 8C6.01367 8.368 5.71501 8.66667 5.34701 8.66667ZM8.01367 8.66667C7.64567 8.66667 7.34359 8.368 7.34359 8C7.34359 7.632 7.639 7.33333 8.007 7.33333H8.01367C8.38234 7.33333 8.68034 7.632 8.68034 8C8.68034 8.368 8.38167 8.66667 8.01367 8.66667ZM10.6803 8.66667C10.3123 8.66667 10.0103 8.368 10.0103 8C10.0103 7.632 10.3057 7.33333 10.6737 7.33333H10.6803C11.049 7.33333 11.347 7.632 11.347 8C11.347 8.368 11.0483 8.66667 10.6803 8.66667ZM12.667 5.33464C11.931 5.33464 11.3337 4.7373 11.3337 4.0013C11.3337 3.26464 11.931 2.66797 12.667 2.66797C13.403 2.66797 14.0003 3.26464 14.0003 4.0013C14.0003 4.7373 13.403 5.33464 12.667 5.33464Z" fill="#3B3B3E"/>
</svg>
