<svg width="16" height="16" viewBox="0 0 16 16" fill="none" xmlns="http://www.w3.org/2000/svg">
<path d="M13.7526 4.96167C13.5699 4.99567 13.3813 5.00702 13.1826 4.99569C12.032 4.92769 11.0721 3.96699 11.0047 2.81632C10.9934 2.61766 11.0047 2.42964 11.0387 2.24764C11.0627 2.12031 10.9754 2.00033 10.8454 2.00033H4C2.66667 2.00033 2 2.66699 2 4.00033V14.0003L4 12.0003H12C13.3333 12.0003 14 11.3337 14 10.0003V5.15568C14 5.02501 13.8799 4.93767 13.7526 4.96167ZM5.34668 7.66634C4.97868 7.66634 4.6766 7.36767 4.6766 6.99967C4.6766 6.63167 4.97201 6.33301 5.34001 6.33301H5.34668C5.71535 6.33301 6.01335 6.63167 6.01335 6.99967C6.01335 7.36767 5.71468 7.66634 5.34668 7.66634ZM8.01335 7.66634C7.64535 7.66634 7.34326 7.36767 7.34326 6.99967C7.34326 6.63167 7.63867 6.33301 8.00667 6.33301H8.01335C8.38201 6.33301 8.68001 6.63167 8.68001 6.99967C8.68001 7.36767 8.38135 7.66634 8.01335 7.66634ZM10.68 7.66634C10.312 7.66634 10.0099 7.36767 10.0099 6.99967C10.0099 6.63167 10.3053 6.33301 10.6733 6.33301H10.68C11.0487 6.33301 11.3467 6.63167 11.3467 6.99967C11.3467 7.36767 11.048 7.66634 10.68 7.66634ZM13.3333 3.99967C12.5973 3.99967 12 3.40301 12 2.66634C12 1.92967 12.5973 1.33301 13.3333 1.33301C14.0693 1.33301 14.6667 1.92967 14.6667 2.66634C14.6667 3.40301 14.0693 3.99967 13.3333 3.99967Z" fill="#3B3B3E"/>
</svg>
