<svg width="16" height="16" viewBox="0 0 16 16" fill="none" xmlns="http://www.w3.org/2000/svg">
<path d="M10.6667 4.66667H8.5V4C8.5 3.72667 8.72667 3.5 9 3.5H9.66667C10.4933 3.5 11.1667 2.82667 11.1667 2C11.1667 1.72667 10.94 1.5 10.6667 1.5C10.3933 1.5 10.1667 1.72667 10.1667 2C10.1667 2.27333 9.94 2.5 9.66667 2.5H9C8.17333 2.5 7.5 3.17333 7.5 4V4.66667H5.33333C3.33333 4.66667 2 6 2 8.66667V11.3333C2 12.6667 2.66667 14 4 14H4.16862C4.89595 14 5.57539 13.6353 5.97673 13.0286C5.97673 13.0286 6.648 12 8 12C9.352 12 10.0226 13.0347 10.0226 13.0347C10.4246 13.638 11.102 14 11.8267 14H12C13.3333 14 14 12.6667 14 11.3333V8.66667C14 6 12.6667 4.66667 10.6667 4.66667ZM6.66667 9.16667H5.83333V10C5.83333 10.276 5.60933 10.5 5.33333 10.5C5.05733 10.5 4.83333 10.276 4.83333 10V9.16667H4C3.724 9.16667 3.5 8.94267 3.5 8.66667C3.5 8.39067 3.724 8.16667 4 8.16667H4.83333V7.33333C4.83333 7.05733 5.05733 6.83333 5.33333 6.83333C5.60933 6.83333 5.83333 7.05733 5.83333 7.33333V8.16667H6.66667C6.94267 8.16667 7.16667 8.39067 7.16667 8.66667C7.16667 8.94267 6.94267 9.16667 6.66667 9.16667ZM9.83333 10.1667C9.46533 10.1667 9.16667 9.868 9.16667 9.5C9.16667 9.132 9.46533 8.83333 9.83333 8.83333C10.2013 8.83333 10.5 9.132 10.5 9.5C10.5 9.868 10.2013 10.1667 9.83333 10.1667ZM11.5 8.50065C11.132 8.50065 10.8333 8.20198 10.8333 7.83398C10.8333 7.46598 11.132 7.16732 11.5 7.16732C11.868 7.16732 12.1667 7.46598 12.1667 7.83398C12.1667 8.20198 11.868 8.50065 11.5 8.50065Z" fill="#3B3B3E"/>
</svg>
