<svg width="16" height="16" viewBox="0 0 16 16" fill="none" xmlns="http://www.w3.org/2000/svg">
<path d="M7.29997 8.83366H2.20003C2.08937 8.83366 2 8.74429 2 8.63363V4.66699C2 3.33366 2.66667 2.66699 4 2.66699H7.29997C7.41063 2.66699 7.5 2.75636 7.5 2.86702V8.63363C7.5 8.74429 7.41063 8.83366 7.29997 8.83366ZM12 2.66699H8.70003C8.58937 2.66699 8.5 2.75636 8.5 2.86702V8.63363C8.5 8.74429 8.58937 8.83366 8.70003 8.83366H13.8C13.9106 8.83366 14 8.74429 14 8.63363V4.66699C14 3.33366 13.3333 2.66699 12 2.66699ZM2 10.0337V11.3337C2 12.667 2.66667 13.3337 4 13.3337H12C13.3333 13.3337 14 12.667 14 11.3337V10.0337C14 9.92302 13.9106 9.83366 13.8 9.83366H2.20003C2.08937 9.83366 2 9.92302 2 10.0337Z" fill="#3B3B3E"/>
</svg>
