<svg width="16" height="16" viewBox="0 0 16 16" fill="none" xmlns="http://www.w3.org/2000/svg">
<path d="M11.75 2H4.25C2.75 2 2 2.75 2 4.25V11.75C2 13.25 2.75 14 4.25 14H11.75C13.25 14 14 13.25 14 11.75V4.25C14 2.75 13.25 2 11.75 2ZM5.33333 10.1673C5.05733 10.1673 4.83333 9.94332 4.83333 9.66732C4.83333 9.39132 5.05733 9.16732 5.33333 9.16732C5.60933 9.16732 5.83333 9.39132 5.83333 9.66732C5.83333 9.94398 5.60933 10.1673 5.33333 10.1673ZM5.33333 6.83333C5.05733 6.83333 4.83333 6.60933 4.83333 6.33333C4.83333 6.05733 5.05733 5.83333 5.33333 5.83333C5.60933 5.83333 5.83333 6.05733 5.83333 6.33333C5.83333 6.60933 5.60933 6.83333 5.33333 6.83333ZM10.6667 10.1667H7.33333C7.05733 10.1667 6.83333 9.94267 6.83333 9.66667C6.83333 9.39067 7.05733 9.16667 7.33333 9.16667H10.6667C10.9427 9.16667 11.1667 9.39067 11.1667 9.66667C11.1667 9.94267 10.9427 10.1667 10.6667 10.1667ZM10.6667 6.83333H7.33333C7.05733 6.83333 6.83333 6.60933 6.83333 6.33333C6.83333 6.05733 7.05733 5.83333 7.33333 5.83333H10.6667C10.9427 5.83333 11.1667 6.05733 11.1667 6.33333C11.1667 6.60933 10.9427 6.83333 10.6667 6.83333Z" fill="#3B3B3E"/>
</svg>
