<svg width="16" height="16" viewBox="0 0 16 16" fill="none" xmlns="http://www.w3.org/2000/svg">
<g clip-path="url(#clip0_36251_8948)">
<path d="M8.00033 0.666992C3.95699 0.666992 0.666992 3.95699 0.666992 8.00033C0.666992 12.0437 3.95699 15.3337 8.00033 15.3337C12.0437 15.3337 15.3337 12.0437 15.3337 8.00033C15.3337 3.95699 12.0437 0.666992 8.00033 0.666992ZM2.00033 8.00033C2.00033 4.69233 4.69166 2.00033 8.00033 2.00033C9.41499 2.00033 10.7144 2.49506 11.741 3.31706L3.31706 11.741C2.49506 10.7144 2.00033 9.41499 2.00033 8.00033ZM8.00033 14.0003C6.58566 14.0003 5.28627 13.5056 4.2596 12.6836L12.6836 4.2596C13.5056 5.28694 14.0003 6.58633 14.0003 8.00033C14.0003 11.3083 11.309 14.0003 8.00033 14.0003Z" fill="#3B3B3E"/>
</g>
<defs>
<clipPath id="clip0_36251_8948">
<rect width="16" height="16" fill="white"/>
</clipPath>
</defs>
</svg>
