<svg width="16" height="16" viewBox="0 0 16 16" fill="none" xmlns="http://www.w3.org/2000/svg">
<path d="M12 2H4C2.66667 2 2 2.66667 2 4V14L4 12H9.16471C9.32071 12 9.37133 11.8507 9.36133 11.774C9.342 11.6293 9.33398 11.4813 9.33398 11.3333C9.33398 9.49333 10.8273 8 12.6673 8C13.0387 8 13.3979 8.06137 13.7319 8.17204C13.8639 8.21604 14.0007 8.12534 14.0007 7.986V4C14 2.66667 13.3333 2 12 2ZM8.66667 8.83333H5.33333C5.05733 8.83333 4.83333 8.60933 4.83333 8.33333C4.83333 8.05733 5.05733 7.83333 5.33333 7.83333H8.66667C8.94267 7.83333 9.16667 8.05733 9.16667 8.33333C9.16667 8.60933 8.94267 8.83333 8.66667 8.83333ZM10.6667 6.16667H5.33333C5.05733 6.16667 4.83333 5.94267 4.83333 5.66667C4.83333 5.39067 5.05733 5.16667 5.33333 5.16667H10.6667C10.9427 5.16667 11.1667 5.39067 11.1667 5.66667C11.1667 5.94267 10.9427 6.16667 10.6667 6.16667ZM14.3534 12.3133C14.5487 12.5086 14.5487 12.8253 14.3534 13.0207C14.256 13.118 14.128 13.1673 14 13.1673C13.872 13.1673 13.744 13.1187 13.6466 13.0207L12.6667 12.0407L11.6867 13.0207C11.5894 13.118 11.4613 13.1673 11.3333 13.1673C11.2053 13.1673 11.0773 13.1187 10.98 13.0207C10.7846 12.8253 10.7846 12.5086 10.98 12.3133L11.96 11.3333L10.98 10.3534C10.7846 10.158 10.7846 9.84133 10.98 9.646C11.1753 9.45066 11.492 9.45066 11.6873 9.646L12.6673 10.626L13.6473 9.646C13.8426 9.45066 14.1593 9.45066 14.3547 9.646C14.55 9.84133 14.55 10.158 14.3547 10.3534L13.3747 11.3333L14.3534 12.3133Z" fill="#3B3B3E"/>
</svg>
