<svg width="16" height="16" viewBox="0 0 16 16" fill="none" xmlns="http://www.w3.org/2000/svg">
<path d="M13.3337 3.04728V12.0007L13.3289 11.9913V12.0007L11.763 11.1047C11.7004 11.0693 11.6623 11.0026 11.6623 10.9313C11.6623 10.9313 11.6623 5.67062 11.6623 5.64795C11.6349 3.98995 10.6317 3.00132 8.95573 3.00065H5.48031C5.36431 3.00065 5.32968 2.89935 5.33968 2.78402C5.42301 1.82135 5.99232 1.33398 7.04232 1.33398H11.6157H11.6203C12.7603 1.33398 13.3337 1.90728 13.3337 3.04728ZM10.667 5.71468V14.6673L6.66699 12.382L2.66699 14.6673V5.71468C2.66699 4.57201 3.23836 4.00065 4.38102 4.00065H8.95231C10.0956 4.00065 10.667 4.57201 10.667 5.71468ZM8.83366 7.33398C8.83366 7.05798 8.60966 6.83398 8.33366 6.83398H5.00033C4.72433 6.83398 4.50033 7.05798 4.50033 7.33398C4.50033 7.60998 4.72433 7.83398 5.00033 7.83398H8.33366C8.60966 7.83398 8.83366 7.60998 8.83366 7.33398Z" fill="#3B3B3E"/>
</svg>
