<svg width="16" height="16" viewBox="0 0 16 16" fill="none" xmlns="http://www.w3.org/2000/svg">
<path d="M12 2H4C2.66667 2 2 2.66667 2 4V14L4 12H12C13.3333 12 14 11.3333 14 10V4C14 2.66667 13.3333 2 12 2ZM10.02 8.31331C10.2154 8.50865 10.2154 8.82534 10.02 9.02067C9.92269 9.118 9.79467 9.16732 9.66667 9.16732C9.53867 9.16732 9.41065 9.11867 9.31331 9.02067L8 7.70736L6.68669 9.02067C6.58935 9.118 6.46133 9.16732 6.33333 9.16732C6.20533 9.16732 6.07731 9.11867 5.97998 9.02067C5.78465 8.82534 5.78465 8.50865 5.97998 8.31331L7.29329 7L5.97998 5.68669C5.78465 5.49135 5.78465 5.17466 5.97998 4.97933C6.17531 4.784 6.492 4.784 6.68734 4.97933L8.00065 6.29264L9.31397 4.97933C9.5093 4.784 9.82599 4.784 10.0213 4.97933C10.2167 5.17466 10.2167 5.49135 10.0213 5.68669L8.70801 7L10.02 8.31331Z" fill="#3B3B3E"/>
</svg>
