<svg width="16" height="16" viewBox="0 0 16 16" fill="none" xmlns="http://www.w3.org/2000/svg">
<path d="M8.64141 3.06352L9.93609 5.67484C10.0334 5.87151 10.2214 6.00752 10.4394 6.03886L13.428 6.47082C13.976 6.55016 14.1947 7.22217 13.7981 7.6075L11.6374 9.70418C11.4794 9.85751 11.4074 10.0782 11.4447 10.2948L11.9387 13.1642C12.0387 13.7462 11.4274 14.1902 10.9034 13.9162L8.31141 12.5595C8.11675 12.4575 7.88473 12.4575 7.69073 12.5595L5.10072 13.9148C4.57605 14.1895 3.9627 13.7448 4.06337 13.1615L4.55743 10.2948C4.59476 10.0782 4.52272 9.85751 4.36472 9.70418L2.20407 7.6075C1.80674 7.22217 2.02536 6.55016 2.57403 6.47082L5.56272 6.03886C5.78005 6.00752 5.96805 5.87151 6.06605 5.67484L7.36073 3.06352C7.6214 2.53352 8.37874 2.53352 8.64141 3.06352Z" fill="#3B3B3E"/>
</svg>
