<svg width="16" height="16" viewBox="0 0 16 16" fill="none" xmlns="http://www.w3.org/2000/svg">
<path d="M7.99967 1.33398C4.31767 1.33398 1.33301 4.31865 1.33301 8.00065C1.33301 11.6827 4.31767 14.6673 7.99967 14.6673C11.6817 14.6673 14.6663 11.6827 14.6663 8.00065C14.6663 4.31865 11.6817 1.33398 7.99967 1.33398ZM9.95699 9.46997L8.29968 11.8473C8.15302 12.054 7.84633 12.054 7.69967 11.8473L6.04236 9.46997C5.96902 9.36464 6.07235 9.22667 6.19368 9.26733L7.83968 9.81396C7.89301 9.83396 7.94634 9.84066 7.99967 9.84066C8.05301 9.84066 8.10633 9.83396 8.15967 9.81396L9.80566 9.26733C9.927 9.22667 10.0303 9.36464 9.95699 9.46997ZM10.193 8.07731L7.99967 8.81396L5.80701 8.07731C5.68901 8.03731 5.63568 7.90067 5.69568 7.79134L7.68034 4.18799C7.82034 3.94132 8.18035 3.94132 8.32035 4.18799L10.305 7.79134C10.3643 7.90001 10.311 8.03731 10.193 8.07731Z" fill="#3B3B3E"/>
</svg>
