<svg width="16" height="16" viewBox="0 0 16 16" fill="none" xmlns="http://www.w3.org/2000/svg">
<path d="M11.7103 9.69762C11.5403 9.69762 11.3704 9.63296 11.2404 9.50363C10.9791 9.2443 10.9776 8.82163 11.2376 8.56096L12.5497 7.2423C13.0563 6.74096 13.3337 6.06962 13.3337 5.34962C13.3337 4.62962 13.0556 3.95562 12.551 3.45096C11.507 2.40562 9.80561 2.40696 8.75961 3.45096L7.44906 4.7683C7.18973 5.02897 6.76836 5.03096 6.50636 4.77096C6.24502 4.51163 6.24359 4.08896 6.50359 3.8283L7.8156 2.50963C9.3816 0.943632 11.929 0.943623 13.4937 2.50829C14.2503 3.26429 14.667 4.27362 14.667 5.34962C14.667 6.42895 14.2497 7.43629 13.4911 8.18696L12.183 9.50229C12.053 9.63229 11.8816 9.69762 11.7103 9.69762ZM8.18295 13.4936L9.50229 12.1816C9.76362 11.9216 9.76505 11.4996 9.50505 11.239C9.24505 10.9783 8.82368 10.9763 8.56235 11.2363L7.24236 12.5496C6.19636 13.595 4.49635 13.5936 3.45102 12.5496C2.40635 11.5043 2.40638 9.8043 3.44972 8.7603L4.76905 7.44829C5.03039 7.18829 5.03166 6.76629 4.77166 6.50562C4.51166 6.24496 4.09028 6.24296 3.82895 6.50296L2.50896 7.81629C0.943628 9.38096 0.943628 11.927 2.50896 13.4923C3.29229 14.275 4.32032 14.6656 5.34832 14.6656C6.37498 14.6663 7.40228 14.2756 8.18295 13.4936ZM6.47169 10.4716L10.4889 6.45497C10.7496 6.1943 10.7496 5.7723 10.4889 5.5123C10.2283 5.2523 9.80706 5.2523 9.5464 5.5123L5.52898 9.52896C5.26831 9.78963 5.26831 10.2116 5.52898 10.4716C5.65898 10.6016 5.82967 10.667 6.00033 10.667C6.171 10.667 6.34169 10.6016 6.47169 10.4716Z" fill="#3B3B3E"/>
</svg>
