<svg width="16" height="16" viewBox="0 0 16 16" fill="none" xmlns="http://www.w3.org/2000/svg">
<path d="M11.75 2H4.25C2.75 2 2 2.75 2 4.25V11.75C2 13.25 2.75 14 4.25 14H11.75C13.25 14 14 13.25 14 11.75V4.25C14 2.75 13.25 2 11.75 2ZM4.53792 7.29264C4.46126 7.10598 4.50331 6.89071 4.64665 6.74805L6.44661 4.94808C6.64195 4.75275 6.95864 4.75275 7.15397 4.94808C7.3493 5.14341 7.3493 5.45994 7.15397 5.65527L6.20736 6.60205H9.80062C10.0766 6.60205 10.3006 6.82605 10.3006 7.10205C10.3006 7.37805 10.0766 7.60205 9.80062 7.60205H5.00065C4.79732 7.60138 4.61526 7.47931 4.53792 7.29264ZM11.3534 9.25472L9.55339 11.0547C9.45605 11.152 9.32803 11.2013 9.20003 11.2013C9.07203 11.2013 8.94401 11.1527 8.84668 11.0547C8.65135 10.8594 8.65135 10.5427 8.84668 10.3473L9.79329 9.40137H6.20003C5.92403 9.40137 5.70003 9.17737 5.70003 8.90137C5.70003 8.62537 5.92403 8.40137 6.20003 8.40137H11C11.2027 8.40137 11.3847 8.52329 11.4621 8.70996C11.5394 8.89663 11.4967 9.11205 11.3534 9.25472Z" fill="#3B3B3E"/>
</svg>
