<svg width="16" height="16" viewBox="0 0 16 16" fill="none" xmlns="http://www.w3.org/2000/svg">
<path d="M13.3333 8.33301V11.4997H2.66667V8.33301C3.04667 8.33301 3.68667 9.14635 4 9.73301C4.09333 9.90635 4.28 10.013 4.48 9.99967C4.67333 9.98634 4.84666 9.85301 4.91333 9.66634C4.91333 9.65301 5.41333 8.33301 6.22666 8.33301C7.04 8.33301 7.52667 9.65301 7.52667 9.66634C7.60001 9.86634 7.78667 9.99967 8 9.99967C8.21333 9.99967 8.39999 9.86634 8.47333 9.66634C8.59333 9.31967 9.09334 8.33301 9.77334 8.33301C10.5867 8.33301 11.08 9.65301 11.0867 9.66634C11.1533 9.85301 11.3267 9.98634 11.52 9.99967C11.7333 10.013 11.9067 9.90635 12 9.73301C12.3133 9.14635 12.9533 8.33301 13.3333 8.33301ZM11.3333 4.66634H11.1667V3.33301C11.1667 3.05967 10.94 2.83301 10.6667 2.83301C10.3933 2.83301 10.1667 3.05967 10.1667 3.33301V4.66634H8.5V3.33301C8.5 3.05967 8.27333 2.83301 8 2.83301C7.72667 2.83301 7.5 3.05967 7.5 3.33301V4.66634H5.83333V3.33301C5.83333 3.05967 5.60667 2.83301 5.33333 2.83301C5.06 2.83301 4.83333 3.05967 4.83333 3.33301V4.66634H4.66667C3.33333 4.66634 2.66667 5.33301 2.66667 6.66634V7.33301C3.36667 7.33301 3.98666 7.95301 4.39333 8.49967C4.76 7.95301 5.36 7.33301 6.22666 7.33301C7.09333 7.33301 7.63333 7.89967 8 8.42634C8.36667 7.89967 8.94667 7.33301 9.77334 7.33301C10.6 7.33301 11.24 7.95301 11.6067 8.49967C12.0133 7.95301 12.6333 7.33301 13.3333 7.33301V6.66634C13.3333 5.33301 12.6667 4.66634 11.3333 4.66634ZM2 12.4997V12.9997C2 13.553 2.44667 13.9997 3 13.9997H13C13.5533 13.9997 14 13.553 14 12.9997V12.4997H2Z" fill="#3B3B3E"/>
</svg>
