<svg width="16" height="16" viewBox="0 0 16 16" fill="none" xmlns="http://www.w3.org/2000/svg">
<path d="M4.86249 7.80487C4.60183 7.54421 4.60183 7.12283 4.86249 6.86217L7.52916 4.1955C7.78983 3.93483 8.2112 3.93483 8.47187 4.1955L11.1385 6.86217C11.3992 7.12283 11.3992 7.54421 11.1385 7.80487C11.0085 7.93487 10.8378 8.00019 10.6672 8.00019C10.4965 8.00019 10.3258 7.93487 10.1958 7.80487L8.00051 5.60956L5.8052 7.80487C5.54453 8.06554 5.12316 8.06554 4.86249 7.80487ZM8.47187 8.1955C8.2112 7.93483 7.78983 7.93483 7.52916 8.1955L4.86249 10.8622C4.60183 11.1228 4.60183 11.5442 4.86249 11.8049C5.12316 12.0655 5.54453 12.0655 5.8052 11.8049L8.00051 9.60956L10.1958 11.8049C10.3258 11.9349 10.4965 12.0002 10.6672 12.0002C10.8378 12.0002 11.0085 11.9349 11.1385 11.8049C11.3992 11.5442 11.3992 11.1228 11.1385 10.8622L8.47187 8.1955Z" fill="#3B3B3E"/>
</svg>
