<svg width="16" height="16" viewBox="0 0 16 16" fill="none" xmlns="http://www.w3.org/2000/svg">
<path d="M10.5466 7.15299C10.4466 7.08633 10.44 6.94637 10.52 6.8597C11.0267 6.26637 11.34 5.50634 11.34 4.66634C11.34 4.41967 11.3133 4.1797 11.26 3.94637C11.26 3.94637 11.2467 3.89305 11.2467 3.87305C11.2467 3.76638 11.3307 3.67765 11.4373 3.67098C11.444 3.67098 11.5266 3.66634 11.56 3.66634C12.8066 3.66634 13.78 4.88637 13.34 6.19303C13.1467 6.77303 12.6533 7.22631 12.0667 7.37964C11.5 7.52631 10.9666 7.41966 10.5466 7.15299ZM12.4467 8.11304C12.32 8.11304 12.24 8.19965 12.24 8.31299C12.24 8.35965 12.2773 8.41964 12.3133 8.45964C13.1066 9.27964 13.48 10.4263 13.48 11.5663V12.1597C13.48 12.253 13.56 12.333 13.66 12.333H14.6667C14.8533 12.333 15 12.1863 15 11.9997V10.673C15 9.49301 14.3334 8.11304 12.4467 8.11304ZM3.93335 7.37964C4.50002 7.52631 5.03337 7.41966 5.45337 7.15299C5.55337 7.08633 5.55998 6.94637 5.47998 6.8597C4.97331 6.26637 4.65999 5.50634 4.65999 4.66634C4.65999 4.41967 4.68666 4.1797 4.73999 3.94637C4.73999 3.94637 4.75334 3.89305 4.75334 3.87305C4.75334 3.76638 4.66933 3.67765 4.56266 3.67098C4.556 3.67098 4.47336 3.66634 4.44002 3.66634C3.19336 3.66634 2.21999 4.88637 2.65999 6.19303C2.85333 6.77303 3.34668 7.22631 3.93335 7.37964ZM3.76001 8.31299C3.76001 8.19965 3.67997 8.11304 3.5533 8.11304C1.66664 8.11304 1 9.49301 1 10.673V11.9997C1 12.1863 1.14667 12.333 1.33333 12.333H2.34001C2.44001 12.333 2.52002 12.253 2.52002 12.1597V11.5663C2.52002 10.4263 2.89335 9.27964 3.68669 8.45964C3.72269 8.41964 3.76001 8.35965 3.76001 8.31299ZM8.00537 6.99967C9.29204 6.99967 10.3387 5.95301 10.3387 4.66634C10.3387 3.37967 9.29204 2.33301 8.00537 2.33301C6.7187 2.33301 5.67204 3.37967 5.67204 4.66634C5.67204 5.95301 6.7187 6.99967 8.00537 6.99967ZM9.18465 8.25903H6.8147C4.38136 8.25903 3.51799 10.0403 3.51799 11.5663V13.333C3.51799 13.517 3.66732 13.6663 3.85132 13.6663H12.148C12.332 13.6663 12.4814 13.517 12.4814 13.333V11.5663C12.482 10.0403 11.6187 8.25903 9.18465 8.25903Z" fill="#3B3B3E"/>
</svg>
