<svg width="16" height="16" viewBox="0 0 16 16" fill="none" xmlns="http://www.w3.org/2000/svg">
<path d="M5 12.0067C5 12.4933 5.14667 12.9333 5.42 13.3133C3.63334 13.2 2 12.5467 2 11.34V10.7533C2.7 11.3 3.73333 11.6667 5 11.7867V12.0067ZM5.02665 9.29334C5.01999 9.3 5.02002 9.30665 5.02002 9.31331C5.00669 9.37998 5 9.44668 5 9.51335V10.7867C3.38667 10.6 2 9.96001 2 8.84668V8.26001C2.7 8.81334 3.74002 9.18 5.02002 9.29334H5.02665V9.29334ZM7.62667 6.85335C6.61334 7.16669 5.82001 7.67999 5.38 8.31999C3.60667 8.20665 2 7.55335 2 6.35335V5.89998C2.87333 6.58665 4.27333 6.98665 6 6.98665C6.58 6.98665 7.12667 6.94002 7.62667 6.85335ZM10 5.89998V6.35335C10 6.41335 9.99332 6.46669 9.98665 6.52002C9.45999 6.52002 8.95999 6.56665 8.49333 6.64665C9.09333 6.46665 9.6 6.21332 10 5.89998ZM6 2C4 2 2 2.66666 2 3.99333C2 5.33333 4 5.98665 6 5.98665C8 5.98665 10 5.33333 10 3.99333C10 2.66666 8 2 6 2ZM10 12.5067C8.32667 12.5067 6.9 12.0667 6 11.3534V12.0067C6 13.3333 8 14 10 14C12 14 14 13.3333 14 12.0067V11.3534C13.1 12.0667 11.6733 12.5067 10 12.5067ZM10 7.52002C7.79333 7.52002 6 8.41335 6 9.51335C6 10.6133 7.79333 11.5067 10 11.5067C12.2067 11.5067 14 10.6133 14 9.51335C14 8.41335 12.2067 7.52002 10 7.52002Z" fill="#3B3B3E"/>
</svg>
