<svg width="16" height="16" viewBox="0 0 16 16" fill="none" xmlns="http://www.w3.org/2000/svg">
<path d="M5.33366 3.66667V3C5.33366 2.33333 5.66699 2 6.33366 2H9.66699C10.3337 2 10.667 2.33333 10.667 3V3.66667C10.667 4.33333 10.3337 4.66667 9.66699 4.66667H6.33366C5.66699 4.66667 5.33366 4.33333 5.33366 3.66667ZM13.3337 5.33333V12C13.3337 13.3333 12.667 14 11.3337 14H4.66699C3.33366 14 2.66699 13.3333 2.66699 12V5.33333C2.66699 4.172 3.16825 3.518 4.17692 3.37134C4.25759 3.35934 4.33366 3.42599 4.33366 3.50732V3.66602C4.33366 4.87935 5.12033 5.66602 6.33366 5.66602H9.66699C10.8803 5.66602 11.667 4.87935 11.667 3.66602V3.50732C11.667 3.42599 11.7437 3.35934 11.8237 3.37134C12.8324 3.518 13.3337 4.172 13.3337 5.33333ZM9.03174 7C8.25974 6.996 8.00033 7.762 8.00033 7.762C8.00033 7.762 7.74091 6.99667 6.96891 7C5.93225 7.00467 5.52427 7.95667 5.71094 8.90267C6.01494 10.4453 8.00033 11.3333 8.00033 11.3333C8.00033 11.3333 9.98571 10.4453 10.2897 8.90267C10.4764 7.95667 10.0704 7.00467 9.03174 7Z" fill="#3B3B3E"/>
</svg>
