<svg width="16" height="16" viewBox="0 0 16 16" fill="none" xmlns="http://www.w3.org/2000/svg">
<path d="M8 2.66699C4.68667 2.66699 2 4.66698 2 8.00098C2 9.41431 2.48663 10.595 3.29997 11.475C3.19997 12.115 2.83995 12.8483 2.11328 13.435C1.89328 13.6216 2.01997 13.9883 2.30664 13.995C3.25331 14.0283 4.71327 13.9017 5.60661 12.9483C6.33994 13.2017 7.14667 13.335 8 13.335C11.3133 13.335 14 11.3343 14 8.00098C14 4.66698 11.3133 2.66699 8 2.66699ZM5.34668 8.66699C4.97868 8.66699 4.6766 8.36833 4.6766 8.00033C4.6766 7.63233 4.97201 7.33366 5.34001 7.33366H5.34668C5.71535 7.33366 6.01335 7.63233 6.01335 8.00033C6.01335 8.36833 5.71468 8.66699 5.34668 8.66699ZM8.01335 8.66699C7.64535 8.66699 7.34326 8.36833 7.34326 8.00033C7.34326 7.63233 7.63867 7.33366 8.00667 7.33366H8.01335C8.38201 7.33366 8.68001 7.63233 8.68001 8.00033C8.68001 8.36833 8.38135 8.66699 8.01335 8.66699ZM10.68 8.66699C10.312 8.66699 10.0099 8.36833 10.0099 8.00033C10.0099 7.63233 10.3053 7.33366 10.6733 7.33366H10.68C11.0487 7.33366 11.3467 7.63233 11.3467 8.00033C11.3467 8.36833 11.048 8.66699 10.68 8.66699Z" fill="#3B3B3E"/>
</svg>
