<svg width="16" height="16" viewBox="0 0 16 16" fill="none" xmlns="http://www.w3.org/2000/svg">
<path d="M12.433 5.16667H11.197C12.397 6.1 13.0864 7.65667 13.1537 9.678C13.9037 9.73533 14.3337 10.2067 14.3337 11V11.6667C14.3337 12.514 13.8477 13 13.0004 13H12.3337C11.4864 13 11.0004 12.514 11.0004 11.6667V11C11.0004 10.2133 11.423 9.74401 12.1604 9.67934C12.107 8.24934 11.6624 6.13466 9.61438 5.41866C9.47371 6.00266 9.02772 6.33333 8.33305 6.33333H7.66638C6.97238 6.33333 6.52572 6.00266 6.38505 5.41866C4.33705 6.13466 3.89236 8.24934 3.83903 9.67934C4.57636 9.74334 4.99902 10.2133 4.99902 11V11.6667C4.99902 12.514 4.51302 13 3.66569 13H2.99902C2.15169 13 1.66569 12.514 1.66569 11.6667V11C1.66569 10.2067 2.0957 9.736 2.8457 9.678C2.91304 7.65667 3.60237 6.1 4.80237 5.16667H3.56637C3.36837 5.65467 2.89036 6 2.33236 6C1.59702 6 0.999023 5.402 0.999023 4.66667C0.999023 3.93133 1.59702 3.33333 2.33236 3.33333C2.89036 3.33333 3.36837 3.67867 3.56637 4.16667H6.34505C6.40705 3.42533 6.87702 3 7.66569 3H8.33236C9.12102 3 9.59104 3.42533 9.65304 4.16667H12.4317C12.6297 3.67867 13.1077 3.33333 13.6657 3.33333C14.401 3.33333 14.999 3.93133 14.999 4.66667C14.999 5.402 14.401 6 13.6657 6C13.109 6 12.631 5.65467 12.433 5.16667Z" fill="#3B3B3E"/>
</svg>
