<svg width="16" height="16" viewBox="0 0 16 16" fill="none" xmlns="http://www.w3.org/2000/svg">
<path d="M13.8071 11.4135L11.4137 13.8068C11.1544 14.0662 10.7331 14.0662 10.4737 13.8068L9.16174 12.4948C9.08374 12.4168 9.08374 12.2902 9.16174 12.2122L12.2124 9.1615C12.2904 9.0835 12.4171 9.0835 12.4951 9.1615L13.8071 10.4735C14.0664 10.7328 14.0664 11.1542 13.8071 11.4135ZM11.8331 7.99015L10.9871 4.60683C10.7937 3.8335 10.1604 3.24684 9.37374 3.11351L2.76707 2.00684C2.75774 2.02484 2.75841 2.02415 2.74907 2.04215L6.41374 5.70683C6.74707 5.60683 7.11374 5.6935 7.37374 5.96016C7.76707 6.34683 7.76707 6.98016 7.37374 7.37349C6.98707 7.76683 6.34708 7.76683 5.96041 7.37349C5.69374 7.11349 5.60707 6.74016 5.70707 6.41349L2.00041 2.70683C1.99774 2.70816 2.0004 2.70684 1.99707 2.70817L3.11374 9.37349C3.24707 10.1602 3.83374 10.7935 4.60708 10.9868L7.99041 11.8328C8.05841 11.8502 8.13041 11.8302 8.18041 11.7802L11.7804 8.18016C11.8297 8.13082 11.8497 8.05815 11.8331 7.99015Z" fill="#3B3B3E"/>
</svg>
