<svg width="16" height="16" viewBox="0 0 16 16" fill="none" xmlns="http://www.w3.org/2000/svg">
<path d="M12 2H4C2.66667 2 2 2.66667 2 4V7.29997C2 7.41063 2.08934 7.5 2.2 7.5H13.8C13.9107 7.5 14 7.41063 14 7.29997V4C14 2.66667 13.3333 2 12 2ZM8 6.16667C7.54 6.16667 7.16667 5.79333 7.16667 5.33333C7.16667 4.87333 7.54 4.5 8 4.5C8.46 4.5 8.83333 4.87333 8.83333 5.33333C8.83333 5.79333 8.46 6.16667 8 6.16667ZM2 8.70003V12C2 13.3333 2.66667 14 4 14H12C13.3333 14 14 13.3333 14 12V8.70003C14 8.58937 13.9107 8.5 13.8 8.5H2.2C2.08934 8.5 2 8.58937 2 8.70003ZM8 11.5C7.54 11.5 7.16667 11.1267 7.16667 10.6667C7.16667 10.2067 7.54 9.83333 8 9.83333C8.46 9.83333 8.83333 10.2067 8.83333 10.6667C8.83333 11.1267 8.46 11.5 8 11.5Z" fill="#3B3B3E"/>
</svg>
