<svg width="16" height="16" viewBox="0 0 16 16" fill="none" xmlns="http://www.w3.org/2000/svg">
<path d="M10.6667 1.5H5.33333C3.72 1.5 2.83333 2.38667 2.83333 4V11.3333C2.83333 12.4987 3.302 13.278 4.16667 13.6247V14C4.16667 14.2733 4.39333 14.5 4.66667 14.5C4.94 14.5 5.16667 14.2733 5.16667 14V13.8213C5.22333 13.824 5.27467 13.8333 5.33333 13.8333H10.6667C10.7253 13.8333 10.7767 13.8233 10.8333 13.8213V14C10.8333 14.2733 11.06 14.5 11.3333 14.5C11.6067 14.5 11.8333 14.2733 11.8333 14V13.6247C12.698 13.278 13.1667 12.4987 13.1667 11.3333V4C13.1667 2.38667 12.28 1.5 10.6667 1.5ZM6.01333 12C5.64666 12 5.34666 11.7 5.34666 11.3333C5.34666 10.9667 5.64001 10.6667 6.00667 10.6667H6.01333C6.37999 10.6667 6.67999 10.9667 6.67999 11.3333C6.67999 11.7 6.37999 12 6.01333 12ZM10.0133 12C9.64666 12 9.34666 11.7 9.34666 11.3333C9.34666 10.9667 9.64001 10.6667 10.0067 10.6667H10.0133C10.38 10.6667 10.68 10.9667 10.68 11.3333C10.68 11.7 10.38 12 10.0133 12ZM3.83333 8.83333V4C3.83333 2.94667 4.28 2.5 5.33333 2.5H10.6667C11.72 2.5 12.1667 2.94667 12.1667 4V8.83333H3.83333ZM9.16667 4C9.16667 4.276 8.94267 4.5 8.66667 4.5H7.33333C7.05733 4.5 6.83333 4.276 6.83333 4C6.83333 3.724 7.05733 3.5 7.33333 3.5H8.66667C8.94267 3.5 9.16667 3.724 9.16667 4ZM14.5 6.66667V8.66667C14.5 8.94267 14.276 9.16667 14 9.16667C13.724 9.16667 13.5 8.94267 13.5 8.66667V6.66667C13.5 6.39067 13.724 6.16667 14 6.16667C14.276 6.16667 14.5 6.39067 14.5 6.66667ZM2.5 6.66667V8.66667C2.5 8.94267 2.276 9.16667 2 9.16667C1.724 9.16667 1.5 8.94267 1.5 8.66667V6.66667C1.5 6.39067 1.724 6.16667 2 6.16667C2.276 6.16667 2.5 6.39067 2.5 6.66667Z" fill="#3B3B3E"/>
</svg>
