<svg width="16" height="16" viewBox="0 0 16 16" fill="none" xmlns="http://www.w3.org/2000/svg">
<path d="M13.6663 4.83301H12.3597C12.1917 4.62767 11.9676 4.46698 11.699 4.38965C11.699 4.38965 9.33301 3.33301 7.99967 3.33301C6.66634 3.33301 4.30037 4.38965 4.30037 4.38965C4.03171 4.46632 3.80765 4.62701 3.63965 4.83301H2.33301C1.50634 4.83301 0.833008 5.50567 0.833008 6.33301V8.66634C0.833008 10.4123 2.25367 11.833 3.99967 11.833H4.57967C5.01567 12.3043 5.54764 12.6931 6.16097 12.9557C7.33497 13.4591 8.66365 13.4591 9.83765 12.9557C10.451 12.6931 10.983 12.3043 11.419 11.833H11.999C13.745 11.833 15.1657 10.4123 15.1657 8.66634V6.33301C15.1664 5.50567 14.493 4.83301 13.6663 4.83301ZM1.83301 8.66634V6.33301C1.83301 6.05701 2.05767 5.83301 2.33301 5.83301H3.33301V8.66634C3.33301 9.43434 3.52968 10.1663 3.87101 10.8197C2.73701 10.7517 1.83301 9.81701 1.83301 8.66634ZM9.99967 10.1663H5.99967C5.72367 10.1663 5.49967 9.94234 5.49967 9.66634C5.49967 9.39034 5.72367 9.16634 5.99967 9.16634H9.99967C10.2757 9.16634 10.4997 9.39034 10.4997 9.66634C10.4997 9.94234 10.2757 10.1663 9.99967 10.1663ZM5.33301 8.16634C5.05701 8.16634 4.83301 7.94234 4.83301 7.66634C4.83301 7.39034 5.05701 7.16634 5.33301 7.16634H10.6663C10.9423 7.16634 11.1663 7.39034 11.1663 7.66634C11.1663 7.94234 10.9423 8.16634 10.6663 8.16634H5.33301ZM14.1663 8.66634C14.1663 9.81701 13.2623 10.7517 12.1283 10.8197C12.469 10.1663 12.6663 9.43367 12.6663 8.66634V5.83301H13.6663C13.9417 5.83301 14.1663 6.05701 14.1663 6.33301V8.66634Z" fill="#3B3B3E"/>
</svg>
