<svg width="16" height="16" viewBox="0 0 16 16" fill="none" xmlns="http://www.w3.org/2000/svg">
<path d="M8 6.81333C8 6.81333 8.01333 6.81333 8 6.81333C9.81333 8.18667 12.88 11.5667 11.9533 12.52C10.8933 13.4467 9.51333 14 8 14C6.48667 14 5.1 13.4467 4.04667 12.52C3.10667 11.5667 6.18667 8.18666 7.98 6.82666C7.98 6.81333 7.99334 6.81333 7.99334 6.81333H8ZM11.1267 2.88C10.2133 2.32667 9.21333 2 8 2C6.78667 2 5.78667 2.32667 4.87333 2.88C4.86 2.88 4.86 2.89332 4.86 2.90666C4.86 2.91999 4.87333 2.92 4.88667 2.92C6.05333 2.66667 7.82 3.66667 7.98666 3.77334H8.01334C8.18 3.66667 9.94667 2.66667 11.1133 2.92C11.1267 2.92 11.14 2.91999 11.14 2.90666C11.14 2.89332 11.14 2.88 11.1267 2.88ZM3.79334 3.71999C3.79334 3.71999 3.78 3.73334 3.76667 3.73334C2.67333 4.82667 2 6.33333 2 7.99333C2 9.35333 2.46666 10.6267 3.22666 11.6267C3.22666 11.64 3.24 11.64 3.25333 11.64C3.26666 11.64 3.26666 11.6267 3.25333 11.6133C2.78666 10.1933 5.14 6.77334 6.35333 5.34001L6.36667 5.32666C6.36667 5.32666 6.36667 5.31333 6.35333 5.31333C4.51333 3.49333 3.9 3.68666 3.79334 3.72666V3.71999ZM9.64667 5.28666L9.63333 5.30001C9.63333 5.30001 9.63333 5.31333 9.64667 5.31333C10.86 6.74667 13.1933 10.1733 12.7467 11.5867V11.6133C12.7467 11.6133 12.7733 11.6133 12.7733 11.6C13.5333 10.6 14 9.32667 14 7.96667C14 6.30667 13.3267 4.8 12.22 3.70667C12.22 3.70667 12.2111 3.70223 12.1933 3.69334C12.1067 3.66667 11.4933 3.46668 9.64667 5.28001V5.28666Z" fill="#3B3B3E"/>
</svg>
