<svg width="16" height="16" viewBox="0 0 16 16" fill="none" xmlns="http://www.w3.org/2000/svg">
<path d="M11.32 7.60634C11.32 7.60634 11.4533 8.25301 11.48 8.39301H10.8933C10.9533 8.23967 11.1733 7.63302 11.1733 7.63302C11.1733 7.63302 11.2333 7.47301 11.2667 7.37301L11.3133 7.60634H11.32ZM14 5.33301V10.6663C14 11.9997 13.3333 12.6663 12 12.6663H4C2.66667 12.6663 2 11.9997 2 10.6663V5.33301C2 3.99967 2.66667 3.33301 4 3.33301H12C13.3333 3.33301 14 3.99967 14 5.33301ZM5.77334 9.35301L6.88001 6.63967H6.13999L5.45333 8.493L5.38 8.11967L5.13334 6.87301C5.09334 6.69967 4.96667 6.65301 4.81333 6.64634H3.67999L3.66667 6.69967C3.94 6.76633 4.18666 6.87301 4.40666 6.99967L5.03333 9.35968H5.77334V9.35301ZM7.42 9.35301L7.86001 6.63967H7.15999L6.71999 9.35301H7.42ZM9.86666 8.46635C9.86666 8.15968 9.68001 7.91967 9.28001 7.72634C9.03334 7.59967 8.88666 7.51967 8.88666 7.39301C8.88666 7.27967 9.01334 7.15967 9.29334 7.15967C9.52 7.15967 9.68667 7.20635 9.81333 7.25968L9.87333 7.28634L9.96668 6.69967C9.82668 6.64633 9.60667 6.58634 9.34001 6.58634C8.64667 6.58634 8.16001 6.95968 8.15334 7.48635C8.15334 7.87301 8.5 8.09301 8.76666 8.22634C9.04 8.35967 9.13334 8.44634 9.13334 8.56634C9.13334 8.74634 8.91334 8.83301 8.71334 8.83301C8.43334 8.83301 8.28666 8.78634 8.05332 8.68634L7.96 8.63967L7.86001 9.24634C8.02667 9.31967 8.32666 9.38634 8.63999 9.39301C9.37999 9.39301 9.86001 9.02635 9.86001 8.46635H9.86666ZM12.3333 9.35301L11.7667 6.63967H11.22C11.0533 6.63967 10.9267 6.68633 10.8533 6.86633L9.81333 9.35301H10.5533C10.5533 9.35301 10.6733 9.01968 10.7 8.94635H11.6C11.62 9.03968 11.6867 9.35301 11.6867 9.35301H12.3333V9.35301Z" fill="#3B3B3E"/>
</svg>
