<svg width="16" height="16" viewBox="0 0 16 16" fill="none" xmlns="http://www.w3.org/2000/svg">
<path d="M10.2174 4.28042L11.1313 6.12373C11.2 6.26239 11.3327 6.35843 11.4867 6.38109L13.596 6.68643C13.9827 6.74243 14.1374 7.21708 13.8567 7.48908L12.3313 8.96906C12.22 9.07706 12.1686 9.23306 12.1953 9.38573L12.544 11.4111C12.6147 11.8217 12.1827 12.1351 11.8127 11.9418L9.98267 10.9844C9.84533 10.9124 9.68134 10.9124 9.54468 10.9844L7.71598 11.9411C7.34532 12.1351 6.91263 11.8211 6.98397 11.4097L7.33268 9.38642C7.35935 9.23376 7.30803 9.07776 7.1967 8.96976L5.67131 7.48973C5.39131 7.21773 5.5453 6.74308 5.93197 6.68708L8.04134 6.38174C8.19467 6.35974 8.32731 6.26375 8.39665 6.12442L9.31063 4.28108C9.4973 3.90641 10.032 3.90642 10.2174 4.28042ZM5.16667 11.3331C5.16667 11.0571 4.94267 10.8331 4.66667 10.8331H2C1.724 10.8331 1.5 11.0571 1.5 11.3331C1.5 11.6091 1.724 11.8331 2 11.8331H4.66667C4.94267 11.8331 5.16667 11.6091 5.16667 11.3331ZM3.33333 8.49974H2C1.724 8.49974 1.5 8.27574 1.5 7.99974C1.5 7.72374 1.724 7.49974 2 7.49974H3.33333C3.60933 7.49974 3.83333 7.72374 3.83333 7.99974C3.83333 8.27574 3.60933 8.49974 3.33333 8.49974ZM4.66667 5.16641H2C1.724 5.16641 1.5 4.94241 1.5 4.66641C1.5 4.39041 1.724 4.16641 2 4.16641H4.66667C4.94267 4.16641 5.16667 4.39041 5.16667 4.66641C5.16667 4.94241 4.94267 5.16641 4.66667 5.16641Z" fill="#3B3B3E"/>
</svg>
