<svg width="16" height="16" viewBox="0 0 16 16" fill="none" xmlns="http://www.w3.org/2000/svg">
<path d="M14.3532 2.35288L2.35321 14.3529C2.25587 14.4502 2.12785 14.4995 1.99985 14.4995C1.87185 14.4995 1.74383 14.4509 1.6465 14.3529C1.45117 14.1575 1.45117 13.8409 1.6465 13.6455L3.98911 11.3029C2.79244 10.5375 1.99985 9.19353 1.99985 7.66619C1.99985 5.27286 3.93985 3.33286 6.33319 3.33286C7.43319 3.33286 8.43321 3.73952 9.19321 4.41286C9.49188 4.68019 9.75125 4.98618 9.96925 5.32285L13.6465 1.64552C13.8418 1.45019 14.1585 1.45019 14.3539 1.64552C14.5485 1.84086 14.5485 2.15821 14.3532 2.35288ZM12.8099 6.11354C12.7306 6.04687 12.6104 6.05551 12.5378 6.12884L7.00848 11.6582C6.88248 11.7842 6.97192 11.9995 7.14992 11.9995H10.5238C12.2604 11.9995 13.8099 10.7329 13.9833 9.00486C14.0986 7.85019 13.6146 6.79087 12.8099 6.11354Z" fill="#3B3B3E"/>
</svg>
