<svg width="16" height="16" viewBox="0 0 16 16" fill="none" xmlns="http://www.w3.org/2000/svg">
<path d="M4.0057 4.33268C4.0057 2.86202 5.2017 1.66602 6.67236 1.66602C8.14303 1.66602 9.33903 2.86202 9.33903 4.33268C9.33903 5.80335 8.14303 6.99935 6.67236 6.99935C5.2017 6.99935 4.0057 5.80335 4.0057 4.33268ZM8.33301 11.9993C8.33301 10.796 8.92035 9.72002 9.82235 9.05469C9.94901 8.96069 9.93367 8.77537 9.79167 8.70671C9.30767 8.47271 8.71699 8.33333 8.00033 8.33333H5.33366C2.62699 8.33333 1.66699 10.3133 1.66699 12.0133C1.66699 13.5333 2.47366 14.3333 4.00033 14.3333H8.77702C8.93302 14.3333 9.03369 14.1594 8.94702 14.03C8.55769 13.448 8.33301 12.75 8.33301 11.9993ZM14.6663 11.9993C14.6663 13.4727 13.473 14.666 11.9997 14.666C10.5263 14.666 9.33301 13.4727 9.33301 11.9993C9.33301 10.526 10.5263 9.33268 11.9997 9.33268C13.473 9.33268 14.6663 10.526 14.6663 11.9993ZM12.9464 12.4793L12.333 11.8594V10.9993C12.333 10.8127 12.1863 10.666 11.9997 10.666C11.813 10.666 11.6663 10.8127 11.6663 10.9993V11.9993C11.6663 12.086 11.6997 12.1727 11.7664 12.2327L12.4797 12.946C12.5463 13.0127 12.6263 13.046 12.713 13.046C12.7996 13.046 12.8864 13.0127 12.9464 12.946C13.0797 12.8194 13.0797 12.606 12.9464 12.4793Z" fill="#3B3B3E"/>
</svg>
