<svg width="16" height="16" viewBox="0 0 16 16" fill="none" xmlns="http://www.w3.org/2000/svg">
<path d="M11.8044 7.52832C12.065 7.78899 12.065 8.21036 11.8044 8.47103C11.6744 8.60103 11.5037 8.66634 11.333 8.66634C11.1623 8.66634 10.9917 8.60103 10.8617 8.47103L8.66634 6.27572V13.9997C8.66634 14.3677 8.36834 14.6663 7.99967 14.6663C7.63101 14.6663 7.33301 14.3677 7.33301 13.9997V6.27572L5.1377 8.47103C4.87703 8.73169 4.45565 8.73169 4.19499 8.47103C3.93432 8.21036 3.93432 7.78899 4.19499 7.52832L7.52767 4.19564C7.58967 4.13364 7.66295 4.08494 7.74495 4.05094C7.90762 3.98361 8.09173 3.98361 8.25439 4.05094C8.33639 4.08494 8.40968 4.13364 8.47168 4.19564L11.8044 7.52832ZM11.9997 1.33301H3.99967C3.63101 1.33301 3.33301 1.63167 3.33301 1.99967C3.33301 2.36767 3.63101 2.66634 3.99967 2.66634H11.9997C12.3683 2.66634 12.6663 2.36767 12.6663 1.99967C12.6663 1.63167 12.3683 1.33301 11.9997 1.33301Z" fill="#3B3B3E"/>
</svg>
