<svg width="16" height="16" viewBox="0 0 16 16" fill="none" xmlns="http://www.w3.org/2000/svg">
<path fill-rule="evenodd" clip-rule="evenodd" d="M13.9998 9.86715C13.9998 8.15381 12.3798 6.7605 10.3865 6.7605C8.39316 6.7605 6.77316 8.14715 6.77316 9.86715C6.77316 11.5871 8.39316 12.9738 10.3865 12.9738C10.7998 12.9738 11.1998 12.9138 11.5665 12.8005L11.6732 12.7872C11.7398 12.7872 11.8065 12.8071 11.8665 12.8471L12.6598 13.3205L12.7265 13.3405C12.7932 13.3405 12.8465 13.2872 12.8465 13.2138L12.8265 13.1205L12.6665 12.4938L12.6532 12.4138C12.6532 12.3272 12.6932 12.2538 12.7532 12.2138C13.5132 11.6472 13.9998 10.8005 13.9998 9.86715ZM9.17983 9.49382C8.91316 9.49382 8.69983 9.28048 8.69983 9.01381C8.69983 8.74715 8.91316 8.53381 9.17983 8.53381C9.4465 8.53381 9.65983 8.74715 9.65983 9.01381C9.65983 9.28048 9.4465 9.49382 9.17983 9.49382ZM11.5865 9.49382C11.3198 9.49382 11.1065 9.28048 11.1065 9.01381C11.1065 8.74715 11.3198 8.53381 11.5865 8.53381C11.8532 8.53381 12.0665 8.74715 12.0665 9.01381C12.0665 9.28048 11.8532 9.49382 11.5865 9.49382ZM6.33316 3.33382C3.93983 3.33382 1.99316 5.00049 1.99316 7.06049C1.99316 8.18049 2.57983 9.19382 3.49316 9.87382C3.5665 9.92715 3.61316 10.0138 3.61316 10.1138L3.59982 10.2072L3.40649 10.9605L3.37983 11.0672C3.37983 11.1472 3.44649 11.2138 3.52649 11.2138L3.61316 11.1872L4.55982 10.6205C4.63316 10.5805 4.70649 10.5538 4.78649 10.5538L4.91316 10.5738C5.35316 10.7071 5.83316 10.7805 6.3265 10.7805H6.5665C6.47316 10.4805 6.41983 10.1805 6.41983 9.86049C6.41983 7.98716 8.19316 6.46049 10.3732 6.46049H10.6065C10.2798 4.68716 8.48649 3.32715 6.31982 3.32715L6.33316 3.33382ZM4.8865 6.68048C4.5665 6.68048 4.3065 6.42048 4.3065 6.10048C4.3065 5.78048 4.5665 5.52049 4.8865 5.52049C5.2065 5.52049 5.46649 5.78048 5.46649 6.10048C5.46649 6.42048 5.2065 6.68048 4.8865 6.68048ZM7.77983 6.68048C7.45983 6.68048 7.19983 6.42048 7.19983 6.10048C7.19983 5.78048 7.45983 5.52049 7.77983 5.52049C8.09983 5.52049 8.35982 5.78048 8.35982 6.10048C8.35982 6.42048 8.09983 6.68048 7.77983 6.68048Z" fill="#3B3B3E"/>
</svg>
