<svg width="16" height="16" viewBox="0 0 16 16" fill="none" xmlns="http://www.w3.org/2000/svg">
<path d="M11.75 2H4.25C2.75 2 2 2.75 2 4.25V11.75C2 13.25 2.75 14 4.25 14H11.75C13.25 14 14 13.25 14 11.75V4.25C14 2.75 13.25 2 11.75 2ZM10.5 10.6667C10.5 10.9427 10.276 11.1667 10 11.1667C9.724 11.1667 9.5 10.9427 9.5 10.6667V8.5H6.5V10.6667C6.5 10.9427 6.276 11.1667 6 11.1667C5.724 11.1667 5.5 10.9427 5.5 10.6667V5.33333C5.5 5.05733 5.724 4.83333 6 4.83333C6.276 4.83333 6.5 5.05733 6.5 5.33333V7.5H9.5V5.33333C9.5 5.05733 9.724 4.83333 10 4.83333C10.276 4.83333 10.5 5.05733 10.5 5.33333V10.6667Z" fill="#3B3B3E"/>
</svg>
