<svg width="16" height="16" viewBox="0 0 16 16" fill="none" xmlns="http://www.w3.org/2000/svg">
<path d="M12.7187 8.00029H3.28198C3.16332 8.00029 3.07068 8.10295 3.08268 8.22095L3.49333 12.2003C3.59999 13.2203 3.99332 14.0003 5.48665 14.0003H10.5267C11.9934 14.0003 12.42 13.2203 12.5133 12.2003L12.9173 8.22029C12.9293 8.10296 12.8373 8.00029 12.7187 8.00029ZM9.962 10.437C9.70133 11.7816 8 12.5556 8 12.5556C8 12.5556 6.29869 11.781 6.03735 10.437C5.87735 9.61229 6.22665 8.7823 7.11532 8.7783C7.77732 8.77496 7.99935 9.44229 7.99935 9.44229C7.99935 9.44229 8.2213 8.77496 8.8833 8.7783C9.77463 8.7823 10.122 9.61229 9.962 10.437ZM14 6.00029C14 6.73629 13.4027 7.33362 12.6667 7.33362H3.33333C2.59733 7.33362 2 6.73629 2 6.00029C2 5.26429 2.59733 4.66696 3.33333 4.66696H4.48535L6.2513 1.74162C6.39397 1.50562 6.70134 1.42896 6.93734 1.57229C7.17334 1.71562 7.25002 2.02229 7.10669 2.25896L5.65267 4.66696H10.3534L8.91602 2.25629C8.77468 2.01962 8.85201 1.71229 9.09001 1.57096C9.32667 1.43029 9.63398 1.50696 9.77531 1.74496L11.518 4.66763H12.6667C13.4027 4.66696 14 5.26429 14 6.00029Z" fill="#3B3B3E"/>
</svg>
