<svg width="16" height="16" viewBox="0 0 16 16" fill="none" xmlns="http://www.w3.org/2000/svg">
<path d="M9.33333 11.3333C9.33333 11.4813 9.34201 11.6293 9.36068 11.774C9.37068 11.8507 9.32006 12 9.16406 12H4L2 14V4C2 2.66667 2.66667 2 4 2H12C13.3333 2 14 2.66667 14 4V7.986C14 8.12534 13.8639 8.21537 13.7313 8.17204C13.3973 8.06137 13.038 8 12.6667 8C10.8267 8 9.33333 9.49333 9.33333 11.3333ZM14.3534 9.86865C14.158 9.67332 13.8413 9.67332 13.646 9.86865L11.7773 11.7373L11.0194 10.98C10.824 10.7846 10.5073 10.7846 10.312 10.98C10.1167 11.1753 10.1167 11.492 10.312 11.6873L11.4233 12.7987C11.5207 12.896 11.6487 12.9453 11.7767 12.9453C11.9047 12.9453 12.0327 12.8967 12.13 12.7987L14.3521 10.5767C14.5487 10.3807 14.5487 10.064 14.3534 9.86865Z" fill="#3B3B3E"/>
</svg>
