<svg width="16" height="16" viewBox="0 0 16 16" fill="none" xmlns="http://www.w3.org/2000/svg">
<path d="M13.9997 14H2.99967C1.97167 14 1.33301 13.3613 1.33301 12.3333V2.66667C1.33301 2.29867 1.63167 2 1.99967 2C2.36767 2 2.66634 2.29867 2.66634 2.66667V12.3333C2.66634 12.6327 2.70034 12.6667 2.99967 12.6667H13.9997C14.3677 12.6667 14.6663 12.9653 14.6663 13.3333C14.6663 13.7013 14.3677 14 13.9997 14ZM9.33301 10.6667V8C9.33301 7.632 9.03434 7.33333 8.66634 7.33333C8.29834 7.33333 7.99967 7.632 7.99967 8V10.6667C7.99967 11.0347 8.29834 11.3333 8.66634 11.3333C9.03434 11.3333 9.33301 11.0347 9.33301 10.6667ZM11.9997 11.3333C11.6317 11.3333 11.333 11.0347 11.333 10.6667V6.66667C11.333 6.29867 11.6317 6 11.9997 6C12.3677 6 12.6663 6.29867 12.6663 6.66667V10.6667C12.6663 11.0347 12.3677 11.3333 11.9997 11.3333ZM5.33301 11.3333C4.96501 11.3333 4.66634 11.0347 4.66634 10.6667V9.33333C4.66634 8.96533 4.96501 8.66667 5.33301 8.66667C5.70101 8.66667 5.99967 8.96533 5.99967 9.33333V10.6667C5.99967 11.0347 5.70101 11.3333 5.33301 11.3333ZM12.615 2.41203C12.5477 2.24936 12.4177 2.11935 12.2543 2.05135C12.173 2.01735 12.0863 2 11.9997 2H9.99967C9.63167 2 9.33301 2.29867 9.33301 2.66667C9.33301 3.03467 9.63167 3.33333 9.99967 3.33333H10.3903L9.11167 4.61198C9.04767 4.67531 8.93635 4.67598 8.87101 4.61198L8.10435 3.8453C7.51835 3.25863 6.56367 3.25863 5.97833 3.8453L4.86167 4.962C4.60101 5.22266 4.60101 5.64404 4.86167 5.9047C4.99167 6.0347 5.16234 6.10002 5.33301 6.10002C5.50367 6.10002 5.67434 6.0347 5.80434 5.9047L6.921 4.788C6.98633 4.72267 7.09702 4.72267 7.16168 4.788L7.92834 5.55469C8.51434 6.14069 9.46834 6.14069 10.0543 5.55469L11.333 4.27596V4.66667C11.333 5.03467 11.6317 5.33333 11.9997 5.33333C12.3677 5.33333 12.6663 5.03467 12.6663 4.66667V2.66667C12.6663 2.58 12.6483 2.49336 12.615 2.41203Z" fill="#3B3B3E"/>
</svg>
