<svg width="16" height="16" viewBox="0 0 16 16" fill="none" xmlns="http://www.w3.org/2000/svg">
<path d="M7.99967 1.33301C4.31767 1.33301 1.33301 4.31767 1.33301 7.99967C1.33301 11.6817 4.31767 14.6663 7.99967 14.6663C11.6817 14.6663 14.6663 11.6817 14.6663 7.99967C14.6663 4.31767 11.6817 1.33301 7.99967 1.33301ZM10.4997 10.6663C10.4997 10.9423 10.2757 11.1663 9.99967 11.1663C9.72367 11.1663 9.49967 10.9423 9.49967 10.6663V8.49967H6.49967V10.6663C6.49967 10.9423 6.27567 11.1663 5.99967 11.1663C5.72367 11.1663 5.49967 10.9423 5.49967 10.6663V5.33301C5.49967 5.05701 5.72367 4.83301 5.99967 4.83301C6.27567 4.83301 6.49967 5.05701 6.49967 5.33301V7.49967H9.49967V5.33301C9.49967 5.05701 9.72367 4.83301 9.99967 4.83301C10.2757 4.83301 10.4997 5.05701 10.4997 5.33301V10.6663Z" fill="#3B3B3E"/>
</svg>
