<svg width="16" height="16" viewBox="0 0 16 16" fill="none" xmlns="http://www.w3.org/2000/svg">
<path d="M14.3532 1.6465C14.1579 1.45117 13.8412 1.45117 13.6458 1.6465L11.2925 3.99985H10.6665L10.2266 2.68654C10.0932 2.27321 9.70647 1.99985 9.2798 1.99985H6.71991C6.29324 1.99985 5.90646 2.27321 5.77313 2.68654L5.33319 3.99985H3.99985C2.66652 3.99985 1.99985 4.66652 1.99985 5.99985V11.3332C1.99985 11.9859 2.16179 12.4759 2.48179 12.8112L1.6465 13.6465C1.45117 13.8418 1.45117 14.1585 1.6465 14.3539C1.74383 14.4512 1.87185 14.5005 1.99985 14.5005C2.12785 14.5005 2.25587 14.4519 2.35321 14.3539L14.3532 2.35386C14.5485 2.15786 14.5485 1.84183 14.3532 1.6465ZM5.99985 8.66652C5.99985 7.55985 6.89319 6.66652 7.99985 6.66652C8.18985 6.66652 8.37449 6.69318 8.54982 6.74318L6.07651 9.21649C6.02651 9.04115 5.99985 8.85652 5.99985 8.66652ZM13.9111 5.23911C13.9705 5.46178 13.9999 5.71652 13.9999 5.99985V11.3332C13.9999 12.6665 13.3332 13.3332 11.9999 13.3332H5.81447C5.69314 13.3332 5.50919 13.1572 5.70786 12.9585L7.94712 10.7193C7.98112 10.6853 8.02786 10.6666 8.07586 10.6646C9.1452 10.6246 9.99985 9.7452 9.99985 8.66587C11.8052 6.86054 13.4632 5.20254 13.5418 5.12388C13.7152 4.95121 13.8771 5.11111 13.9111 5.23911Z" fill="#3B3B3E"/>
</svg>
