<svg width="16" height="16" viewBox="0 0 16 16" fill="none" xmlns="http://www.w3.org/2000/svg">
<path d="M14.5 9.07731V12C14.5 13.612 13.612 14.5 12 14.5H4C2.388 14.5 1.5 13.612 1.5 12V9.07731C1.5 8.73797 1.56799 8.40732 1.70199 8.09332L3.02132 5.01532C3.35532 4.23598 3.67067 3.49997 5.31934 3.49997C5.59534 3.49997 5.81934 3.72398 5.81934 3.99998C5.81934 4.27598 5.59534 4.49997 5.31934 4.49997C4.33 4.49997 4.23993 4.71065 3.94059 5.40932L2.68734 8.33331H4.63737C5.4107 8.33331 6.13003 8.77264 6.56136 9.50864C6.85869 10.0173 7.40998 10.3333 8.00065 10.3333C8.59132 10.3333 9.14261 10.0173 9.43994 9.50864C9.87061 8.77264 10.5906 8.33331 11.3639 8.33331H13.3146L12.0607 5.40932C11.7614 4.71065 11.6713 4.49997 10.682 4.49997C10.406 4.49997 10.182 4.27598 10.182 3.99998C10.182 3.72398 10.406 3.49997 10.682 3.49997C12.3313 3.49997 12.646 4.23598 12.98 5.01532L14.2993 8.09265C14.432 8.40665 14.5 8.73797 14.5 9.07731ZM7.02002 3.01997L7.5 2.53997V6.66664C7.5 6.94264 7.724 7.16664 8 7.16664C8.276 7.16664 8.5 6.94264 8.5 6.66664V2.54064L8.97998 3.02065C9.07731 3.11798 9.20533 3.16731 9.33333 3.16731C9.46133 3.16731 9.58935 3.11865 9.68669 3.02065C9.88202 2.82531 9.88202 2.50864 9.68669 2.31331L8.35335 0.979976C8.30735 0.933976 8.25193 0.897318 8.19059 0.871984C8.06859 0.821318 7.93059 0.821318 7.80859 0.871984C7.74726 0.897318 7.692 0.933976 7.646 0.979976L6.31266 2.31331C6.11733 2.50864 6.11733 2.82531 6.31266 3.02065C6.50866 3.21531 6.82469 3.21531 7.02002 3.01997Z" fill="#3B3B3E"/>
</svg>
