<svg width="16" height="16" viewBox="0 0 16 16" fill="none" xmlns="http://www.w3.org/2000/svg">
<path d="M13.667 7.33366C13.667 10.6557 10.5809 12.6943 8.53894 14.043L8.18563 14.2777C8.12963 14.315 8.06494 14.3337 8.00094 14.3337C7.93694 14.3337 7.87228 14.315 7.81628 14.2777L7.46293 14.043C5.42093 12.6943 2.33496 10.6557 2.33496 7.33366C2.33496 4.20899 4.87696 1.66699 8.00163 1.66699C11.1263 1.66699 13.667 4.20899 13.667 7.33366ZM7.75094 5.15234L7.2476 6.15104C7.2096 6.22638 7.13629 6.27836 7.05229 6.29036L5.8903 6.45573C5.67697 6.48573 5.5923 6.74297 5.7463 6.8903L6.5863 7.69173C6.64764 7.7504 6.67564 7.83498 6.66097 7.91764L6.46895 9.01367C6.42962 9.23634 6.66827 9.40626 6.87227 9.3016L7.8796 8.78369C7.95493 8.74502 8.04564 8.74502 8.12097 8.78369L9.12895 9.30225C9.33295 9.40691 9.57095 9.23764 9.53162 9.01497L9.3396 7.91764C9.32493 7.83498 9.35293 7.7504 9.41427 7.69173L10.2543 6.8903C10.4089 6.74297 10.3236 6.48573 10.1103 6.45573L8.94828 6.29036C8.86362 6.27836 8.7903 6.22638 8.75297 6.15104L8.24963 5.15234C8.14763 4.94968 7.85294 4.94968 7.75094 5.15234Z" fill="#3B3B3E"/>
</svg>
