<svg width="16" height="16" viewBox="0 0 16 16" fill="none" xmlns="http://www.w3.org/2000/svg">
<path d="M3.33301 14.6667H1.99967C1.63167 14.6667 1.33301 14.368 1.33301 14V11.3333C1.33301 10.9653 1.63167 10.6667 1.99967 10.6667H3.33301C3.70101 10.6667 3.99967 10.9653 3.99967 11.3333V14C3.99967 14.368 3.70101 14.6667 3.33301 14.6667ZM13.1063 10.68C12.953 10.68 12.7997 10.72 12.653 10.8066L11.1397 11.7133C10.9997 12.5333 10.2797 13.1667 9.413 13.1667H7.33301C7.05967 13.1667 6.83301 12.94 6.83301 12.6667C6.83301 12.3933 7.05967 12.1667 7.33301 12.1667H9.413C9.82634 12.1667 10.1663 11.8333 10.1663 11.4133C10.1663 11 9.82634 10.6667 9.413 10.6667H5.99967C5.26634 10.6667 4.66634 11.2667 4.66634 12V13.3333C4.66634 14.0667 5.26634 14.6667 5.99967 14.6667H9.73301C10.3397 14.6667 10.9263 14.46 11.3997 14.08L13.6663 12.2667C13.8797 12.1 13.9997 11.84 13.9997 11.5733C13.9997 11.0533 13.573 10.68 13.1063 10.68ZM11.9997 5C11.9997 7.206 10.2057 9 7.99967 9C5.79367 9 3.99967 7.206 3.99967 5C3.99967 2.794 5.79367 1 7.99967 1C10.2057 1 11.9997 2.794 11.9997 5ZM9.49967 5.94133C9.49967 5.31333 9.08367 4.76596 8.487 4.60929L7.76367 4.42269C7.68967 4.40336 7.62501 4.35929 7.57501 4.29329C7.52635 4.22929 7.49967 4.14601 7.49967 4.05868C7.49967 3.85268 7.65301 3.68465 7.84235 3.68465H8.15767C8.33101 3.68465 8.47767 3.82735 8.49833 4.01668C8.52767 4.29135 8.77102 4.48796 9.04968 4.45996C9.32435 4.43063 9.52233 4.18336 9.493 3.90869C9.43033 3.32802 9.02034 2.87133 8.49101 2.73267V2.66602C8.49101 2.39002 8.26701 2.16602 7.99101 2.16602C7.71501 2.16602 7.49101 2.39002 7.49101 2.66602V2.73869C6.92234 2.89802 6.50102 3.42602 6.50102 4.05802C6.50102 4.36269 6.60035 4.66003 6.77901 4.89469C6.96101 5.13736 7.22168 5.31266 7.51434 5.38932L8.23767 5.57601C8.393 5.61668 8.50167 5.76669 8.50167 5.94002C8.50167 6.04202 8.46367 6.13798 8.395 6.20931C8.357 6.24864 8.27702 6.31331 8.15902 6.31331H7.84367C7.67034 6.31331 7.52368 6.1707 7.50301 5.98136C7.47368 5.7067 7.23101 5.50934 6.95168 5.538C6.67701 5.56734 6.47901 5.81469 6.50834 6.08936C6.57034 6.66202 6.97034 7.11403 7.49034 7.25936V7.33333C7.49034 7.60933 7.71434 7.83333 7.99034 7.83333C8.26634 7.83333 8.49034 7.60933 8.49034 7.33333V7.26668C8.723 7.20535 8.93835 7.08537 9.11302 6.9047C9.36235 6.64604 9.49967 6.30333 9.49967 5.94133Z" fill="#3B3B3E"/>
</svg>
