<svg width="16" height="16" viewBox="0 0 16 16" fill="none" xmlns="http://www.w3.org/2000/svg">
<path d="M2.00097 7.90332C1.98297 7.90332 1.96434 7.90263 1.94567 7.90063C1.67101 7.87063 1.47301 7.62337 1.50301 7.34937C1.74501 5.13803 3.07966 3.23331 5.07299 2.25464C5.22833 2.17864 5.41165 2.18796 5.55765 2.2793C5.70432 2.37063 5.79365 2.53135 5.79365 2.70402V4.7373C5.79365 5.0133 5.56965 5.2373 5.29365 5.2373C5.01765 5.2373 4.79365 5.0133 4.79365 4.7373V3.57666C3.51165 4.46866 2.67097 5.86934 2.49763 7.45801C2.46963 7.71401 2.2523 7.90332 2.00097 7.90332ZM10.9276 13.8193C12.9216 12.8407 14.2563 10.936 14.4976 8.72469C14.5276 8.45002 14.3296 8.20334 14.055 8.17334C13.7796 8.14401 13.5337 8.3413 13.5037 8.61597C13.3303 10.2046 12.4896 11.6053 11.2076 12.498V11.3373C11.2076 11.0613 10.9836 10.8373 10.7076 10.8373C10.4316 10.8373 10.2076 11.0613 10.2076 11.3373V13.3707C10.2076 13.5434 10.297 13.704 10.4436 13.7953C10.5243 13.8453 10.6156 13.8707 10.7076 13.8707C10.7823 13.8707 10.8576 13.8533 10.9276 13.8193ZM7.66699 9.33333H3.66699C3.00032 9.33333 2.66699 9.66667 2.66699 10.3333V10.5H8.66699V10.3333C8.66699 9.66667 8.33365 9.33333 7.66699 9.33333ZM2.66699 11.5V13C2.66699 13.6667 3.00032 14 3.66699 14H7.66699C8.33365 14 8.66699 13.6667 8.66699 13V11.5H2.66699ZM5.00032 13H4.00032C3.81365 13 3.66699 12.8533 3.66699 12.6667C3.66699 12.48 3.81365 12.3333 4.00032 12.3333H5.00032C5.18699 12.3333 5.33365 12.48 5.33365 12.6667C5.33365 12.8533 5.18699 13 5.00032 13ZM12.3337 2H8.33365C7.66699 2 7.33365 2.33333 7.33365 3V3.16667H13.3337V3C13.3337 2.33333 13.0003 2 12.3337 2ZM7.33365 4.16667V5.66667C7.33365 6.33333 7.66699 6.66667 8.33365 6.66667H12.3337C13.0003 6.66667 13.3337 6.33333 13.3337 5.66667V4.16667H7.33365ZM9.66699 5.66667H8.66699C8.48032 5.66667 8.33365 5.52 8.33365 5.33333C8.33365 5.14667 8.48032 5 8.66699 5H9.66699C9.85365 5 10.0003 5.14667 10.0003 5.33333C10.0003 5.52 9.85365 5.66667 9.66699 5.66667Z" fill="#3B3B3E"/>
</svg>
