<svg width="16" height="16" viewBox="0 0 16 16" fill="none" xmlns="http://www.w3.org/2000/svg">
<path d="M12.7187 8.00029H3.28198C3.16332 8.00029 3.07068 8.10295 3.08268 8.22095L3.49333 12.2003C3.59999 13.2203 3.99332 14.0003 5.48665 14.0003H10.5267C11.9934 14.0003 12.42 13.2203 12.5133 12.2003L12.9173 8.22029C12.9293 8.10296 12.8373 8.00029 12.7187 8.00029ZM9.9327 10.3143L9.21265 11.013C9.15998 11.0643 9.13602 11.1376 9.14868 11.2096L9.31331 12.1663C9.34665 12.3603 9.14268 12.5083 8.96802 12.417L8.104 11.965C8.03934 11.931 7.96198 11.931 7.89665 11.965L7.03337 12.417C6.8587 12.5083 6.654 12.3603 6.68734 12.1656L6.85197 11.2103C6.86464 11.1383 6.84067 11.0643 6.788 11.0136L6.06803 10.315C5.93603 10.1863 6.00866 9.96229 6.19132 9.93629L7.18734 9.79229C7.26 9.78163 7.32266 9.73629 7.35466 9.67095L7.78597 8.80029C7.8733 8.62362 8.12596 8.62362 8.2133 8.80029L8.64469 9.67095C8.67736 9.73629 8.74001 9.78163 8.81201 9.79229L9.80802 9.93629C9.99202 9.96163 10.0647 10.1856 9.9327 10.3143ZM14 6.00029C14 6.73629 13.4027 7.33362 12.6667 7.33362H3.33333C2.59733 7.33362 2 6.73629 2 6.00029C2 5.26429 2.59733 4.66696 3.33333 4.66696H4.48535L6.2513 1.74162C6.39397 1.50562 6.70134 1.42896 6.93734 1.57229C7.17334 1.71562 7.25002 2.02229 7.10669 2.25896L5.65267 4.66696H10.3534L8.91602 2.25629C8.77468 2.01962 8.85201 1.71229 9.09001 1.57096C9.32667 1.43029 9.63398 1.50696 9.77531 1.74496L11.518 4.66763H12.6667C13.4027 4.66696 14 5.26429 14 6.00029Z" fill="#3B3B3E"/>
</svg>
