<svg width="16" height="16" viewBox="0 0 16 16" fill="none" xmlns="http://www.w3.org/2000/svg">
<path d="M14 4.33366H6.66667C6.29867 4.33366 6 4.03499 6 3.66699C6 3.29899 6.29867 3.00033 6.66667 3.00033H14C14.368 3.00033 14.6667 3.29899 14.6667 3.66699C14.6667 4.03499 14.368 4.33366 14 4.33366ZM14.6667 8.00033C14.6667 7.63233 14.368 7.33366 14 7.33366H6.66667C6.29867 7.33366 6 7.63233 6 8.00033C6 8.36833 6.29867 8.66699 6.66667 8.66699H14C14.368 8.66699 14.6667 8.36833 14.6667 8.00033ZM14.6667 12.3337C14.6667 11.9657 14.368 11.667 14 11.667H6.66667C6.29867 11.667 6 11.9657 6 12.3337C6 12.7017 6.29867 13.0003 6.66667 13.0003H14C14.368 13.0003 14.6667 12.7017 14.6667 12.3337ZM4 3.66699C4 3.11499 3.552 2.66699 3 2.66699C2.448 2.66699 2 3.11499 2 3.66699C2 4.21899 2.448 4.66699 3 4.66699C3.552 4.66699 4 4.21899 4 3.66699ZM4 8.00033C4 7.44833 3.552 7.00033 3 7.00033C2.448 7.00033 2 7.44833 2 8.00033C2 8.55233 2.448 9.00033 3 9.00033C3.552 9.00033 4 8.55233 4 8.00033ZM4 12.3337C4 11.7817 3.552 11.3337 3 11.3337C2.448 11.3337 2 11.7817 2 12.3337C2 12.8857 2.448 13.3337 3 13.3337C3.552 13.3337 4 12.8857 4 12.3337Z" fill="#3B3B3E"/>
</svg>
