<svg width="16" height="16" viewBox="0 0 16 16" fill="none" xmlns="http://www.w3.org/2000/svg">
<path d="M11.75 2H4.25C2.75 2 2 2.75 2 4.25V11.75C2 13.25 2.75 14 4.25 14H11.75C13.25 14 14 13.25 14 11.75V4.25C14 2.75 13.25 2 11.75 2ZM11.4613 7.19271C11.4359 7.25404 11.3994 7.30931 11.3534 7.35531L10.3534 8.35531C10.256 8.45264 10.128 8.50195 10 8.50195C9.872 8.50195 9.74398 8.45331 9.64665 8.35531C9.45131 8.15997 9.45131 7.84328 9.64665 7.64795L9.79329 7.5013H6.50065C5.94932 7.5013 5.50065 7.94997 5.50065 8.5013C5.50065 9.05264 5.94932 9.5013 6.50065 9.5013H10.0007C10.2767 9.5013 10.5007 9.7253 10.5007 10.0013C10.5007 10.2773 10.2767 10.5013 10.0007 10.5013H6.50065C5.39798 10.5013 4.50065 9.60397 4.50065 8.5013C4.50065 7.39864 5.39798 6.5013 6.50065 6.5013H9.79329L9.64665 6.35466C9.45131 6.15932 9.45131 5.84263 9.64665 5.6473C9.84198 5.45196 10.1587 5.45196 10.354 5.6473L11.354 6.6473C11.4 6.6933 11.4367 6.74873 11.4621 6.81006C11.5121 6.93273 11.5119 7.07004 11.4613 7.19271Z" fill="#3B3B3E"/>
</svg>
