<svg width="16" height="16" viewBox="0 0 16 16" fill="none" xmlns="http://www.w3.org/2000/svg">
<path d="M2.44634 4.31301C3.63967 2.51301 5.67967 1.33301 7.99967 1.33301C9.71967 1.33301 11.2797 1.99301 12.4663 3.05967H12.4463C11.7797 3.05967 11.3197 3.62634 11.3197 4.24634C11.3197 4.793 11.633 5.26634 11.9797 5.81967C12.233 6.25967 12.5263 6.83301 12.5263 7.66634C12.5263 8.23967 12.3063 8.90634 12.0197 9.83301L11.3463 12.0663L8.92634 4.85967C9.33967 4.83967 9.69968 4.79967 9.69968 4.79967C10.0663 4.75967 10.013 4.233 9.653 4.24634C9.653 4.24634 8.57301 4.33967 7.87968 4.33967C7.18635 4.33967 6.11301 4.24634 6.11301 4.24634C5.75301 4.233 5.71301 4.78635 6.07301 4.80635C6.30634 4.83301 6.54634 4.853 6.77301 4.85967L7.81967 7.71968L6.35301 12.113L3.90634 4.85967C4.31967 4.84634 4.67968 4.79967 4.67968 4.79967C5.04634 4.75967 4.99968 4.233 4.63968 4.24634C4.63968 4.24634 3.55967 4.33967 2.85967 4.33967L2.47301 4.32634L2.44634 4.31301ZM1.89968 5.31967C1.53968 6.13967 1.33301 7.04634 1.33301 7.99967C1.33301 10.6263 2.85301 12.8863 5.05967 13.9797L1.89968 5.32634V5.31967ZM13.893 4.87301C13.9797 5.89967 13.8197 6.91967 13.4197 7.87301L11.3863 13.733C13.3463 12.573 14.6663 10.4397 14.6663 7.99967C14.6663 6.87301 14.3863 5.80635 13.8863 4.87968L13.893 4.87301ZM10.1863 14.2263L8.12634 8.58634L6.13301 14.393C6.01967 14.3597 5.90634 14.3197 5.79967 14.2863C6.49301 14.5263 7.233 14.6663 8.00634 14.6663C8.77967 14.6663 9.51968 14.5263 10.213 14.2863L10.1863 14.233V14.2263Z" fill="#3B3B3E"/>
</svg>
