<svg width="16" height="16" viewBox="0 0 16 16" fill="none" xmlns="http://www.w3.org/2000/svg">
<path d="M13.753 4.96175C13.5696 4.99642 13.3803 5.00695 13.181 4.99495C12.0296 4.92562 11.071 3.96432 11.005 2.81299C10.9936 2.61565 11.005 2.4284 11.039 2.24707C11.063 2.11974 10.9756 1.99967 10.8456 1.99967H4.2543C2.74764 1.99967 2.00098 2.74642 2.00098 4.24642V11.7464C2.00098 13.2464 2.74764 13.9997 4.2543 13.9997H11.7476C13.2543 13.9997 14.001 13.2464 14.001 11.7464V5.15495C14.0003 5.02495 13.8803 4.93775 13.753 4.96175ZM11.687 7.01969L9.82497 8.88167C9.37097 9.33634 8.63031 9.33699 8.17564 8.88232L7.1163 7.82568C7.05097 7.76035 6.94564 7.76035 6.88031 7.82568L5.01964 9.68636C4.92231 9.78369 4.7943 9.83301 4.6663 9.83301C4.5383 9.83301 4.4103 9.78436 4.31297 9.68636C4.11763 9.49103 4.11763 9.17434 4.31297 8.979L6.17363 7.11833C6.6283 6.66366 7.3683 6.66368 7.82297 7.11768L8.8823 8.17432C8.94764 8.23898 9.05297 8.23898 9.11831 8.17432L10.9803 6.31234C11.1756 6.117 11.4923 6.117 11.6876 6.31234C11.883 6.50767 11.8823 6.82436 11.687 7.01969ZM14.667 2.66634C14.667 3.40234 14.0703 3.99967 13.3336 3.99967C12.597 3.99967 12.0003 3.40234 12.0003 2.66634C12.0003 1.93034 12.597 1.33301 13.3336 1.33301C14.0703 1.33301 14.667 1.93034 14.667 2.66634Z" fill="#3B3B3E"/>
</svg>
