<svg width="16" height="16" viewBox="0 0 16 16" fill="none" xmlns="http://www.w3.org/2000/svg">
<path d="M13.013 5.39339L5.16634 2.49593V2C5.16634 1.724 4.94234 1.5 4.66634 1.5C4.39034 1.5 4.16634 1.724 4.16634 2V13.5H3.33301C3.05701 13.5 2.83301 13.724 2.83301 14C2.83301 14.276 3.05701 14.5 3.33301 14.5H5.99967C6.27567 14.5 6.49967 14.276 6.49967 14C6.49967 13.724 6.27567 13.5 5.99967 13.5H5.16634V10.1707L13.013 7.27327C13.413 7.12661 13.6663 6.76 13.6663 6.33333C13.6663 5.90667 13.413 5.54006 13.013 5.39339Z" fill="#3B3B3E"/>
</svg>
