<svg width="16" height="16" viewBox="0 0 16 16" fill="none" xmlns="http://www.w3.org/2000/svg">
<path d="M14 10.7003V11.3337C14 12.667 13.3333 13.3337 12 13.3337H4C2.66667 13.3337 2 12.667 2 11.3337V10.7003C2 10.5897 2.08937 10.5003 2.20003 10.5003H13.8C13.9106 10.5003 14 10.5897 14 10.7003ZM12 4.66699H8.66667L6.66667 2.66699H4C2.66667 2.66699 2 3.33366 2 4.66699V9.30033C2 9.411 2.08937 9.50033 2.20003 9.50033H13.8C13.9106 9.50033 14 9.411 14 9.30033V6.66699C14 5.33366 13.3333 4.66699 12 4.66699Z" fill="#3B3B3E"/>
</svg>
