<svg width="16" height="16" viewBox="0 0 16 16" fill="none" xmlns="http://www.w3.org/2000/svg">
<path d="M11.75 2H4.25C2.75 2 2 2.75 2 4.25V11.75C2 13.25 2.75 14 4.25 14H11.75C13.25 14 14 13.25 14 11.75V4.25C14 2.75 13.25 2 11.75 2ZM6.16667 5.33333C6.62667 5.33333 7 5.70667 7 6.16667C7 6.62667 6.62667 7 6.16667 7C5.70667 7 5.33333 6.62667 5.33333 6.16667C5.33333 5.70667 5.70667 5.33333 6.16667 5.33333ZM9.83333 10.6667C9.37333 10.6667 9 10.2933 9 9.83333C9 9.37333 9.37333 9 9.83333 9C10.2933 9 10.6667 9.37333 10.6667 9.83333C10.6667 10.2933 10.2933 10.6667 9.83333 10.6667ZM11.02 5.68669L5.68669 11.02C5.58935 11.1174 5.46133 11.1667 5.33333 11.1667C5.20533 11.1667 5.07731 11.118 4.97998 11.02C4.78465 10.8247 4.78465 10.508 4.97998 10.3127L10.3133 4.97933C10.5086 4.784 10.8253 4.784 11.0207 4.97933C11.216 5.17466 11.2154 5.49135 11.02 5.68669Z" fill="#3B3B3E"/>
</svg>
