<svg width="16" height="16" viewBox="0 0 16 16" fill="none" xmlns="http://www.w3.org/2000/svg">
<path d="M11.7501 9.44954L13.5121 10.5002C13.8761 10.7175 14.0641 11.1402 13.9807 11.5562C13.6401 13.2622 11.9268 14.3555 10.2488 13.8949C6.28947 12.8082 3.19672 9.72487 2.10606 5.75687C1.64472 4.0782 2.73679 2.36352 4.44346 2.02219L4.45469 2.0202C4.87136 1.93686 5.29613 2.12553 5.5128 2.49153L6.55479 4.25087C6.92545 4.8762 6.74135 5.68286 6.13535 6.08552L5.0281 6.8222C5.80943 8.69353 7.30272 10.1929 9.16872 10.9729L9.91205 9.86287C10.318 9.2582 11.1248 9.07687 11.7501 9.44954ZM13.1668 6.25687C13.1668 5.98087 12.9428 5.75687 12.6668 5.75687H11.3914C11.6574 5.4862 11.9788 5.16219 12.3395 4.80086C13.1115 4.02619 13.2048 2.9482 12.5548 2.29353C12.1375 1.8722 11.5754 1.68553 11.0081 1.78153C10.4521 1.8762 9.98081 2.22419 9.74815 2.71219C9.62948 2.96153 9.73547 3.26019 9.9848 3.37886C10.2375 3.49886 10.5328 3.39087 10.6515 3.14221C10.7428 2.95087 10.9434 2.80686 11.1754 2.76753C11.3467 2.7382 11.6028 2.7542 11.8448 2.99753C12.0988 3.2542 12.0088 3.71553 11.6308 4.09486C10.5641 5.16486 9.84076 5.9082 9.84076 5.9082C9.70076 6.0522 9.66003 6.2662 9.73936 6.45153C9.81736 6.63687 9.99882 6.75687 10.1995 6.75687H12.6661C12.9428 6.75687 13.1668 6.53354 13.1668 6.25687Z" fill="#3B3B3E"/>
</svg>
