<svg width="16" height="16" viewBox="0 0 16 16" fill="none" xmlns="http://www.w3.org/2000/svg">
<path d="M10.8281 10.6593C10.7054 10.7787 10.6494 10.9507 10.678 11.1187L11.0627 13.35C11.1407 13.8027 10.6647 14.148 10.2574 13.9347L8.24141 12.8793C8.09008 12.8 7.91008 12.8 7.75875 12.8793L5.74402 13.9333C5.33535 14.1473 4.85871 13.8013 4.93738 13.348L5.32141 11.118C5.35074 10.9493 5.29409 10.778 5.17143 10.6587L3.49076 9.02799C3.1821 8.72866 3.35204 8.20534 3.77804 8.144L6.10274 7.80798C6.27208 7.78332 6.41802 7.67732 6.49402 7.52466L7.50069 5.49333C7.70469 5.08133 8.29407 5.08133 8.49874 5.49333L9.50541 7.52466C9.58141 7.67732 9.72735 7.78332 9.89669 7.80798L12.2214 8.144C12.6474 8.206 12.8181 8.72866 12.5087 9.02799L10.8281 10.6593ZM7.99939 3.83333C8.27539 3.83333 8.49939 3.60933 8.49939 3.33333V2C8.49939 1.724 8.27539 1.5 7.99939 1.5C7.72339 1.5 7.49939 1.724 7.49939 2V3.33333C7.49939 3.60933 7.72339 3.83333 7.99939 3.83333ZM11.9994 6.5C12.2754 6.5 12.4994 6.276 12.4994 6V2C12.4994 1.724 12.2754 1.5 11.9994 1.5C11.7234 1.5 11.4994 1.724 11.4994 2V6C11.4994 6.276 11.7234 6.5 11.9994 6.5ZM3.99939 6.5C4.27539 6.5 4.49939 6.276 4.49939 6V2C4.49939 1.724 4.27539 1.5 3.99939 1.5C3.72339 1.5 3.49939 1.724 3.49939 2V6C3.49939 6.276 3.72339 6.5 3.99939 6.5Z" fill="#3B3B3E"/>
</svg>
