<svg width="16" height="16" viewBox="0 0 16 16" fill="none" xmlns="http://www.w3.org/2000/svg">
<path d="M9.35634 7.35734C9.11634 7.59734 8.81368 7.74997 8.48635 7.80664V8C8.48635 8.276 8.26235 8.5 7.98635 8.5C7.71035 8.5 7.48635 8.276 7.48635 8V7.80534C6.79835 7.67534 6.25702 7.10999 6.17635 6.38932C6.14568 6.11466 6.343 5.86734 6.617 5.83667C6.885 5.804 7.13901 6.00268 7.16968 6.27734C7.20568 6.59468 7.47234 6.83333 7.78967 6.83333H8.20968C8.37501 6.83333 8.53101 6.76798 8.64901 6.64998C8.76767 6.53132 8.83301 6.37529 8.83301 6.20996C8.83301 5.92396 8.63833 5.67532 8.36033 5.60466L7.39567 5.36532C7.04367 5.27598 6.729 5.07135 6.50767 4.78735C6.28834 4.50935 6.16567 4.15404 6.16567 3.79004C6.16567 2.99871 6.73501 2.34001 7.48568 2.19735V2C7.48568 1.724 7.70968 1.5 7.98568 1.5C8.26168 1.5 8.48568 1.724 8.48568 2V2.19263C9.18568 2.31329 9.74035 2.88134 9.82235 3.61068C9.85301 3.88534 9.65567 4.13266 9.38167 4.16333C9.11301 4.19666 8.85967 3.99732 8.829 3.72266C8.793 3.40532 8.52634 3.16667 8.209 3.16667H7.789C7.445 3.16667 7.16567 3.44604 7.16567 3.79004C7.16567 3.92937 7.21167 4.06467 7.295 4.17C7.383 4.28334 7.50101 4.36003 7.63835 4.39469L8.60301 4.63403C9.32767 4.81737 9.83234 5.46531 9.83234 6.20931C9.833 6.64264 9.66368 7.05001 9.35634 7.35734ZM3.99967 13.3333V10.6667C3.99967 10.2987 3.70101 10 3.33301 10H1.99967C1.63167 10 1.33301 10.2987 1.33301 10.6667V13.3333C1.33301 13.7013 1.63167 14 1.99967 14H3.33301C3.70101 14 3.99967 13.7013 3.99967 13.3333ZM13.1063 10.0133C12.953 10.0133 12.7997 10.0533 12.653 10.14L11.1397 11.0466C10.9997 11.8666 10.2797 12.5 9.413 12.5H7.33301C7.05967 12.5 6.83301 12.2733 6.83301 12C6.83301 11.7267 7.05967 11.5 7.33301 11.5H9.413C9.82634 11.5 10.1663 11.1667 10.1663 10.7467C10.1663 10.3333 9.82634 10 9.413 10H5.99967C5.26634 10 4.66634 10.6 4.66634 11.3333V12.6667C4.66634 13.4 5.26634 14 5.99967 14H9.73301C10.3397 14 10.9263 13.7933 11.3997 13.4133L13.6663 11.6C13.8797 11.4333 13.9997 11.1733 13.9997 10.9067C13.9997 10.3867 13.573 10.0133 13.1063 10.0133Z" fill="#3B3B3E"/>
</svg>
