<svg width="16" height="16" viewBox="0 0 16 16" fill="none" xmlns="http://www.w3.org/2000/svg">
<path d="M11.7783 1.33398H4.22298C2.74165 1.33398 2.00098 2.07466 2.00098 3.55599V10.2227C2.00098 11.704 2.74165 12.4447 4.22298 12.4447H5.22298C5.57298 12.4447 5.90232 12.6093 6.11165 12.8893L7.11165 14.2227C7.55632 14.8153 8.44498 14.8153 8.88965 14.2227L9.88965 12.8893C10.0996 12.6093 10.429 12.4447 10.7783 12.4447H11.7783C13.2597 12.4447 14.0003 11.704 14.0003 10.2227V3.55599C14.0003 2.07466 13.2597 1.33398 11.7783 1.33398ZM9.33366 8.20866C9.33366 8.22999 9.33032 8.25066 9.32365 8.27132L8.60034 10.474C8.51367 10.7007 8.30032 10.834 8.07365 10.834C7.96698 10.834 7.86034 10.8073 7.76701 10.7406C7.47367 10.5473 7.30029 10.214 7.30029 9.86064V8.72066H5.92033C4.867 8.72066 4.69366 8.01398 4.92033 7.33398L5.62695 5.22066C5.76695 4.794 5.92029 4.50065 6.62695 4.50065H9.13363C9.24429 4.50065 9.33366 4.58998 9.33366 4.70064V8.20866V8.20866ZM11.167 7.49398C11.167 7.78398 10.9303 8.02067 10.6403 8.02067H10.2004C10.0897 8.02067 10.0003 7.9313 10.0003 7.82064V4.70064C10.0003 4.58998 10.0897 4.50065 10.2004 4.50065H10.6403C10.931 4.50065 11.167 4.73664 11.167 5.0273V7.49398Z" fill="#3B3B3E"/>
</svg>
