<svg width="16" height="16" viewBox="0 0 16 16" fill="none" xmlns="http://www.w3.org/2000/svg">
<path d="M4 2.66699H9.29997C9.41063 2.66699 9.5 2.75636 9.5 2.86702V7.30029C9.5 7.41096 9.41063 7.50033 9.29997 7.50033H2.20003C2.08937 7.50033 2 7.41096 2 7.30029V4.66699C2 3.33366 2.66667 2.66699 4 2.66699ZM2 8.70036V11.3337C2 12.667 2.66667 13.3337 4 13.3337H9.29997C9.41063 13.3337 9.5 13.2443 9.5 13.1336V8.70036C9.5 8.58969 9.41063 8.50033 9.29997 8.50033H2.20003C2.08937 8.50033 2 8.58969 2 8.70036ZM12 2.66699H10.7C10.5894 2.66699 10.5 2.75636 10.5 2.86702V13.1336C10.5 13.2443 10.5894 13.3337 10.7 13.3337H12C13.3333 13.3337 14 12.667 14 11.3337V4.66699C14 3.33366 13.3333 2.66699 12 2.66699Z" fill="#3B3B3E"/>
</svg>
