<svg width="16" height="16" viewBox="0 0 16 16" fill="none" xmlns="http://www.w3.org/2000/svg">
<path d="M8.66667 8.00033C8.66667 9.84033 7.17333 11.3337 5.33333 11.3337C3.49333 11.3337 2 9.84033 2 8.00033C2 6.16033 3.49333 4.66699 5.33333 4.66699C7.17333 4.66699 8.66667 6.16033 8.66667 8.00033ZM10.74 4.79366C9.80667 4.79366 9.04667 6.22699 9.04667 8.00033C9.04667 9.77366 9.80667 11.207 10.74 11.207C11.6733 11.207 12.4333 9.77366 12.4333 8.00033C12.4333 6.22699 11.6733 4.79366 10.74 4.79366ZM13.4067 5.12699C13.08 5.12699 12.8133 6.41366 12.8133 8.00033C12.8133 9.58699 13.08 10.8737 13.4067 10.8737C13.7333 10.8737 14 9.58699 14 8.00033C14 6.41366 13.7333 5.12699 13.4067 5.12699Z" fill="#3B3B3E"/>
</svg>
