<svg width="16" height="16" viewBox="0 0 16 16" fill="none" xmlns="http://www.w3.org/2000/svg">
<path d="M14 5.33301V6.16634H2V5.33301C2 3.99967 2.66667 3.33301 4 3.33301H12C13.3333 3.33301 14 3.99967 14 5.33301ZM14 7.16634V10.6663C14 11.9997 13.3333 12.6663 12 12.6663H4C2.66667 12.6663 2 11.9997 2 10.6663V7.16634H14ZM7.16667 9.99967C7.16667 9.72367 6.94267 9.49967 6.66667 9.49967H4.66667C4.39067 9.49967 4.16667 9.72367 4.16667 9.99967C4.16667 10.2757 4.39067 10.4997 4.66667 10.4997H6.66667C6.94267 10.4997 7.16667 10.2757 7.16667 9.99967Z" fill="#3B3B3E"/>
</svg>
