<svg width="16" height="16" viewBox="0 0 16 16" fill="none" xmlns="http://www.w3.org/2000/svg">
<path d="M8 2.66699C4.68667 2.66699 2 4.66698 2 8.00098C2 9.41431 2.48663 10.595 3.29997 11.475C3.19997 12.115 2.83995 12.8483 2.11328 13.435C1.89328 13.6216 2.01997 13.9883 2.30664 13.995C3.25331 14.0283 4.71327 13.9017 5.60661 12.9483C6.33994 13.2017 7.14667 13.335 8 13.335C8.45333 13.335 8.89739 13.2963 9.32406 13.219C9.44272 13.1977 9.50797 13.0743 9.47331 12.9583C9.38264 12.6583 9.33465 12.3416 9.33398 12.0123C9.32865 10.4096 10.5067 8.97567 12.0881 8.71501C12.6614 8.62034 13.2126 8.66833 13.7166 8.83366C13.8013 8.86166 13.946 8.80901 13.9653 8.65568C13.9873 8.44368 14.0007 8.22701 14.0007 7.99967C14 4.66701 11.3133 2.66699 8 2.66699ZM8.66667 9.83366H5.33333C5.05733 9.83366 4.83333 9.60966 4.83333 9.33366C4.83333 9.05766 5.05733 8.83366 5.33333 8.83366H8.66667C8.94267 8.83366 9.16667 9.05766 9.16667 9.33366C9.16667 9.60966 8.94267 9.83366 8.66667 9.83366ZM10.6667 7.16699H5.33333C5.05733 7.16699 4.83333 6.94299 4.83333 6.66699C4.83333 6.39099 5.05733 6.16699 5.33333 6.16699H10.6667C10.9427 6.16699 11.1667 6.39099 11.1667 6.66699C11.1667 6.94299 10.9427 7.16699 10.6667 7.16699ZM14.3534 12.9803C14.5487 13.1756 14.5487 13.4923 14.3534 13.6877C14.256 13.785 14.128 13.8343 14 13.8343C13.872 13.8343 13.744 13.7857 13.6466 13.6877L12.6667 12.7077L11.6867 13.6877C11.5894 13.785 11.4613 13.8343 11.3333 13.8343C11.2053 13.8343 11.0773 13.7857 10.98 13.6877C10.7846 13.4923 10.7846 13.1756 10.98 12.9803L11.96 12.0003L10.98 11.0203C10.7846 10.825 10.7846 10.5083 10.98 10.313C11.1753 10.1177 11.492 10.1177 11.6873 10.313L12.6673 11.293L13.6473 10.313C13.8426 10.1177 14.1593 10.1177 14.3547 10.313C14.55 10.5083 14.55 10.825 14.3547 11.0203L13.3747 12.0003L14.3534 12.9803Z" fill="#3B3B3E"/>
</svg>
