<svg width="16" height="16" viewBox="0 0 16 16" fill="none" xmlns="http://www.w3.org/2000/svg">
<path d="M14.6665 8.00051C14.6665 8.36851 14.3685 8.66718 13.9999 8.66718H3.60926L7.1379 12.1958C7.39857 12.4565 7.39857 12.8779 7.1379 13.1385C7.0079 13.2685 6.83721 13.3338 6.66655 13.3338C6.49588 13.3338 6.32519 13.2685 6.19519 13.1385L1.52918 8.47252C1.46718 8.41052 1.41848 8.33723 1.38448 8.25523C1.31715 8.09257 1.31715 7.90846 1.38448 7.74579C1.41848 7.66379 1.46718 7.59051 1.52918 7.52851L6.19519 2.86249C6.45586 2.60183 6.87724 2.60183 7.1379 2.86249C7.39857 3.12316 7.39857 3.54453 7.1379 3.8052L3.60926 7.33385H13.9999C14.3685 7.33385 14.6665 7.63251 14.6665 8.00051Z" fill="#3B3B3E"/>
</svg>
