<svg width="16" height="16" viewBox="0 0 16 16" fill="none" xmlns="http://www.w3.org/2000/svg">
<path d="M13.8337 11.3337C13.8337 11.6097 13.6097 11.8337 13.3337 11.8337H11.8337V13.3337C11.8337 13.6097 11.6097 13.8337 11.3337 13.8337C11.0577 13.8337 10.8337 13.6097 10.8337 13.3337V11.8337H9.33366C9.05766 11.8337 8.83366 11.6097 8.83366 11.3337C8.83366 11.0577 9.05766 10.8337 9.33366 10.8337H10.8337V9.33366C10.8337 9.05766 11.0577 8.83366 11.3337 8.83366C11.6097 8.83366 11.8337 9.05766 11.8337 9.33366V10.8337H13.3337C13.6097 10.8337 13.8337 11.0577 13.8337 11.3337ZM12.3337 2.66699H10.3337C9.66699 2.66699 9.33366 3.00033 9.33366 3.66699V5.66699C9.33366 6.33366 9.66699 6.66699 10.3337 6.66699H12.3337C13.0003 6.66699 13.3337 6.33366 13.3337 5.66699V3.66699C13.3337 3.00033 13.0003 2.66699 12.3337 2.66699ZM5.66699 2.66699H3.66699C3.00033 2.66699 2.66699 3.00033 2.66699 3.66699V5.66699C2.66699 6.33366 3.00033 6.66699 3.66699 6.66699H5.66699C6.33366 6.66699 6.66699 6.33366 6.66699 5.66699V3.66699C6.66699 3.00033 6.33366 2.66699 5.66699 2.66699ZM5.66699 9.33366H3.66699C3.00033 9.33366 2.66699 9.66699 2.66699 10.3337V12.3337C2.66699 13.0003 3.00033 13.3337 3.66699 13.3337H5.66699C6.33366 13.3337 6.66699 13.0003 6.66699 12.3337V10.3337C6.66699 9.66699 6.33366 9.33366 5.66699 9.33366Z" fill="#3B3B3E"/>
</svg>
