<svg width="16" height="16" viewBox="0 0 16 16" fill="none" xmlns="http://www.w3.org/2000/svg">
<path d="M11.75 2H4.25C2.75 2 2 2.75 2 4.25V11.75C2 13.25 2.75 14 4.25 14H11.75C13.25 14 14 13.25 14 11.75V4.25C14 2.75 13.25 2 11.75 2ZM11.1167 7.96802C10.7027 10.1034 8 11.3333 8 11.3333C8 11.3333 5.2973 10.1034 4.8833 7.96802C4.6293 6.65802 5.18403 5.34 6.59603 5.33333C7.64736 5.328 8 6.38798 8 6.38798C8 6.38798 8.35264 5.328 9.40397 5.33333C10.8186 5.34 11.3707 6.65802 11.1167 7.96802Z" fill="#3B3B3E"/>
</svg>
