<svg width="16" height="16" viewBox="0 0 16 16" fill="none" xmlns="http://www.w3.org/2000/svg">
<path d="M10 2C7.79333 2 6 3.79333 6 6C6 6.40667 6.06001 6.79333 6.17334 7.15999L2 11.3333V14H4.66667V12H6.66667L8.84001 9.82666C9.20667 9.93999 9.59333 10 10 10C12.2067 10 14 8.20667 14 6C14 3.79333 12.2067 2 10 2ZM10.68 6.16667C10.2207 6.16667 9.84326 5.79333 9.84326 5.33333C9.84326 4.87333 10.2133 4.5 10.6733 4.5H10.68C11.14 4.5 11.5133 4.87333 11.5133 5.33333C11.5133 5.79333 11.14 6.16667 10.68 6.16667Z" fill="#3B3B3E"/>
</svg>
