<svg width="16" height="16" viewBox="0 0 16 16" fill="none" xmlns="http://www.w3.org/2000/svg">
<path d="M14 4V7.986C14 8.12534 13.8639 8.21537 13.7313 8.17204C13.3973 8.06137 13.038 8 12.6667 8C10.8267 8 9.33333 9.49333 9.33333 11.3333C9.33333 11.4813 9.34201 11.6293 9.36068 11.774C9.37068 11.8507 9.32006 12 9.16406 12H4L2 14V4C2 2.66667 2.66667 2 4 2H12C13.3333 2 14 2.66667 14 4ZM13.374 11.3333L14.354 10.3534C14.5493 10.158 14.5493 9.84133 14.354 9.646C14.1587 9.45066 13.842 9.45066 13.6466 9.646L12.6667 10.626L11.6867 9.646C11.4914 9.45066 11.1747 9.45066 10.9793 9.646C10.784 9.84133 10.784 10.158 10.9793 10.3534L11.9593 11.3333L10.9793 12.3133C10.784 12.5086 10.784 12.8253 10.9793 13.0207C11.0767 13.118 11.2047 13.1673 11.3327 13.1673C11.4607 13.1673 11.5887 13.1187 11.686 13.0207L12.666 12.0407L13.646 13.0207C13.7433 13.118 13.8713 13.1673 13.9993 13.1673C14.1273 13.1673 14.2554 13.1187 14.3527 13.0207C14.548 12.8253 14.548 12.5086 14.3527 12.3133L13.374 11.3333Z" fill="#3B3B3E"/>
</svg>
