<svg width="16" height="16" viewBox="0 0 16 16" fill="none" xmlns="http://www.w3.org/2000/svg">
<path d="M14.5 7.33366V11.3337C14.5 12.9457 13.612 13.8337 12 13.8337H4C2.388 13.8337 1.5 12.9457 1.5 11.3337V4.66699C1.5 3.05499 2.388 2.16699 4 2.16699H8.66667C8.94267 2.16699 9.16667 2.39099 9.16667 2.66699C9.16667 2.94299 8.94267 3.16699 8.66667 3.16699H4C2.94867 3.16699 2.5 3.61566 2.5 4.66699V10.8337L4.19336 9.1403C4.45336 8.8803 4.87997 8.8803 5.13997 9.1403L5.76668 9.76693C5.89335 9.89359 6.10665 9.89359 6.23332 9.76693L9.52669 6.47363C9.78669 6.21363 10.2133 6.21363 10.4733 6.47363L13.5 9.50033V7.33366C13.5 7.05766 13.724 6.83366 14 6.83366C14.276 6.83366 14.5 7.05766 14.5 7.33366ZM5.32869 5.16699C4.86936 5.16699 4.5 5.54033 4.5 6.00033C4.5 6.46033 4.87597 6.83366 5.33464 6.83366C5.79397 6.83366 6.16667 6.46033 6.16667 6.00033C6.16667 5.54033 5.79464 5.16699 5.33464 5.16699H5.32869ZM11.3333 3.83366H14C14.276 3.83366 14.5 3.60966 14.5 3.33366C14.5 3.05766 14.276 2.83366 14 2.83366H11.3333C11.0573 2.83366 10.8333 3.05766 10.8333 3.33366C10.8333 3.60966 11.0573 3.83366 11.3333 3.83366Z" fill="#3B3B3E"/>
</svg>
