<svg width="16" height="16" viewBox="0 0 16 16" fill="none" xmlns="http://www.w3.org/2000/svg">
<path d="M8.83362 7.33366C8.83362 7.79366 8.46028 8.16699 8.00028 8.16699C7.54028 8.16699 7.16695 7.79366 7.16695 7.33366C7.16695 6.87366 7.53361 6.50033 7.99361 6.50033H8.00028C8.46028 6.50033 8.83362 6.87366 8.83362 7.33366ZM13.667 7.33366C13.667 10.6557 10.5809 12.6943 8.53894 14.043L8.18563 14.2777C8.12963 14.315 8.06494 14.3337 8.00094 14.3337C7.93694 14.3337 7.87228 14.315 7.81628 14.2777L7.46293 14.043C5.42093 12.6943 2.33496 10.6557 2.33496 7.33366C2.33496 4.20899 4.87696 1.66699 8.00163 1.66699C11.1263 1.66699 13.667 4.20899 13.667 7.33366ZM10.547 6.89372C10.1803 6.28038 9.36695 5.24707 8.00028 5.24707C6.63362 5.24707 5.82028 6.28038 5.45361 6.89372C5.29361 7.16705 5.29361 7.50027 5.45361 7.7736C5.82028 8.38693 6.63362 9.41374 8.00028 9.41374C9.36695 9.41374 10.1803 8.38693 10.547 7.7736C10.707 7.50027 10.707 7.16705 10.547 6.89372Z" fill="#3B3B3E"/>
</svg>
