<svg width="16" height="16" viewBox="0 0 16 16" fill="none" xmlns="http://www.w3.org/2000/svg">
<path d="M13.8467 3.95333C13.9467 3.76666 14 3.55333 14 3.33333C14 2.6 13.4 2 12.6667 2C12.4467 2 12.2333 2.05334 12.0467 2.15334C11.7 2.34001 11.3067 2.40666 10.9267 2.28666C8.9 1.64666 6.3 2.36667 4.37333 4.29334C2.44666 6.22 1.72667 8.79334 2.34667 10.82C2.46667 11.22 2.39334 11.6333 2.18 11.9933C2.06667 12.1933 2 12.42 2 12.6667C2 13.4 2.6 14 3.33333 14C3.58 14 3.80666 13.9333 4.00666 13.82C4.36666 13.6067 4.78 13.5333 5.18 13.6533C7.20667 14.2733 9.78 13.5533 11.7067 11.6267C13.6333 9.7 14.3533 7.09999 13.7133 5.07332C13.5933 4.69332 13.66 4.3 13.8467 3.95333V3.95333ZM6.01334 11.6667C5.64667 11.6667 5.34667 11.3667 5.34667 11C5.34667 10.6333 5.64 10.3333 6.01334 10.3333C6.38 10.3333 6.68 10.6333 6.68 11C6.68 11.3667 6.38 11.6667 6.01334 11.6667ZM7.34667 9.66667C6.98 9.66667 6.68 9.36667 6.68 9C6.68 8.63333 6.97334 8.33333 7.34667 8.33333C7.71334 8.33333 8.01334 8.63333 8.01334 9C8.01334 9.36667 7.71334 9.66667 7.34667 9.66667ZM8.68 11.6667C8.31334 11.6667 8.01334 11.3667 8.01334 11C8.01334 10.6333 8.30667 10.3333 8.68 10.3333C9.04667 10.3333 9.34667 10.6333 9.34667 11C9.34667 11.3667 9.04667 11.6667 8.68 11.6667Z" fill="#3B3B3E"/>
</svg>
