<svg width="16" height="16" viewBox="0 0 16 16" fill="none" xmlns="http://www.w3.org/2000/svg">
<path d="M8.83301 8.33333V9.06667H7.83301V8.33333C7.83301 8.05733 8.05767 7.83333 8.33301 7.83333C8.60834 7.83333 8.83301 8.05733 8.83301 8.33333ZM11.333 5.5H12.833L9.83301 2.5V4C9.83301 5.05333 10.2797 5.5 11.333 5.5ZM13.333 6.5V12C13.333 13.3333 12.6663 14 11.333 14H5.33301C3.99967 14 3.33301 13.3333 3.33301 12V4C3.33301 2.66667 3.99967 2 5.33301 2H8.83301V4C8.83301 5.61333 9.71967 6.5 11.333 6.5H13.333ZM10.333 9.96666C10.333 9.52 10.1657 9.24067 9.83301 9.12667V8.33333C9.83301 7.506 9.15967 6.83333 8.33301 6.83333C7.50634 6.83333 6.83301 7.506 6.83301 8.33333V9.12667C6.50034 9.24067 6.33301 9.52 6.33301 9.96666V11.3667C6.33301 11.9667 6.63307 12.2667 7.23307 12.2667H9.43294C10.0329 12.2667 10.333 11.9667 10.333 11.3667V9.96666Z" fill="#3B3B3E"/>
</svg>
