<svg width="16" height="16" viewBox="0 0 16 16" fill="none" xmlns="http://www.w3.org/2000/svg">
<path fill-rule="evenodd" clip-rule="evenodd" d="M13.0463 5.72454L9.07031 2.39048C8.45098 1.87114 7.54764 1.87114 6.9283 2.39048L2.95231 5.72454C2.34831 6.23121 1.99902 6.43584 1.99902 7.76784V12.0005C1.99902 13.3338 2.66569 14.0005 3.99902 14.0005H11.999C13.3324 14.0005 13.999 13.3338 13.999 12.0005V7.76784C13.9997 6.43517 13.651 6.23121 13.0463 5.72454ZM11.1663 9.87583C11.1663 10.1518 10.9423 10.3758 10.6663 10.3758C10.3903 10.3758 10.1663 10.1518 10.1663 9.87583V9.41587L9.12703 10.4545C8.76503 10.8172 8.13164 10.8172 7.76831 10.4545L6.98234 9.66782L5.68636 11.0191C5.58903 11.1165 5.46101 11.1659 5.33301 11.1659C5.20501 11.1659 5.07699 11.1171 4.97965 11.0191C4.78432 10.8238 4.78432 10.5072 4.97965 10.3119L6.33097 8.96046C6.69364 8.5978 7.32768 8.5978 7.69035 8.96046L8.47567 9.74652L9.48437 8.70786H8.99967C8.72367 8.70786 8.49967 8.48386 8.49967 8.20786C8.49967 7.93186 8.72367 7.70786 8.99967 7.70786H10.6663C10.7317 7.70786 10.7963 7.72118 10.8577 7.74652C10.9797 7.79718 11.077 7.89452 11.1283 8.01719C11.1537 8.07852 11.167 8.14318 11.167 8.20851V9.87583H11.1663Z" fill="#3B3B3E"/>
</svg>
