<svg width="16" height="16" viewBox="0 0 16 16" fill="none" xmlns="http://www.w3.org/2000/svg">
<path d="M14.0335 10.4996C13.8801 10.7396 13.7001 10.9663 13.4935 11.173L11.1668 13.4996C10.9601 13.7063 10.7335 13.8796 10.4935 14.0396V12.673C10.4935 11.4796 11.4668 10.5063 12.6601 10.5063H14.0268L14.0335 10.4996ZM9.50014 14.493C9.1268 14.6063 8.74014 14.6663 8.34014 14.6663H8.00014C4.25347 14.6663 1.23347 11.5796 1.33347 7.81298C1.4268 4.33298 4.3268 1.43298 7.8068 1.33965C11.5735 1.23298 14.6601 4.25965 14.6601 8.00632V8.3463C14.6601 8.73964 14.6001 9.13298 14.4868 9.50632H12.6601C10.9135 9.50632 9.49346 10.9263 9.49346 12.673V14.4996L9.50014 14.493ZM9.18013 7.09964C9.42013 7.23964 9.72681 7.15297 9.86014 6.91297C9.92014 6.81297 10.0801 6.81297 10.1401 6.91297C10.2335 7.07297 10.4001 7.16631 10.5735 7.16631C10.6535 7.16631 10.7401 7.14631 10.8201 7.09964C11.0601 6.96631 11.1468 6.65965 11.0068 6.41965C10.8001 6.05965 10.4135 5.83298 10.0001 5.83298C9.5868 5.83298 9.19346 6.05965 8.99346 6.41965C8.86013 6.65965 8.94013 6.96631 9.18013 7.09964V7.09964ZM6.01346 7.49964C6.47346 7.49964 6.84679 7.12631 6.84679 6.66631C6.84679 6.20631 6.47346 5.83298 6.01346 5.83298C5.55346 5.83298 5.18013 6.20631 5.18013 6.66631C5.18013 7.12631 5.56013 7.49964 6.01346 7.49964ZM9.55346 10.1396C9.80013 10.0196 9.90014 9.71965 9.78014 9.46632C9.66014 9.21965 9.36014 9.11963 9.11348 9.23963C8.43348 9.57963 7.60013 9.5863 6.88679 9.23963C6.64013 9.11963 6.34013 9.2263 6.22013 9.47297C6.10013 9.71964 6.2068 10.0196 6.45346 10.1396C6.94013 10.373 7.46013 10.493 7.99346 10.493C8.5268 10.493 9.07346 10.373 9.55346 10.133V10.1396Z" fill="#3B3B3E"/>
</svg>
