<svg width="16" height="16" viewBox="0 0 16 16" fill="none" xmlns="http://www.w3.org/2000/svg">
<path d="M12 4.66699H8.66667L6.66667 2.66699H4C2.66667 2.66699 2 3.33366 2 4.66699V11.3337C2 12.667 2.66667 13.3337 4 13.3337H12C13.3333 13.3337 14 12.667 14 11.3337V6.66699C14 5.33366 13.3333 4.66699 12 4.66699ZM8.46126 9.52498C8.43593 9.58632 8.39935 9.64166 8.35335 9.68766L7.02002 11.021C6.92269 11.1183 6.79467 11.1677 6.66667 11.1677C6.53867 11.1677 6.41065 11.119 6.31331 11.021C6.11798 10.8257 6.11798 10.509 6.31331 10.3137L6.79329 9.83366H4.66667C4.39067 9.83366 4.16667 9.60966 4.16667 9.33366C4.16667 9.05766 4.39067 8.83366 4.66667 8.83366H6.79264L6.31266 8.35366C6.11733 8.15832 6.11733 7.84166 6.31266 7.64632C6.508 7.45099 6.82469 7.45099 7.02002 7.64632L8.35335 8.97966C8.39935 9.02566 8.43593 9.081 8.46126 9.14233C8.51193 9.265 8.51193 9.40232 8.46126 9.52498Z" fill="#3B3B3E"/>
</svg>
