<svg width="16" height="16" viewBox="0 0 16 16" fill="none" xmlns="http://www.w3.org/2000/svg">
<path d="M8.01343 3.99967C7.27743 3.99967 6.67676 3.40234 6.67676 2.66634C6.67676 1.93034 7.27009 1.33301 8.00675 1.33301H8.01343C8.74943 1.33301 9.34676 1.93034 9.34676 2.66634C9.34676 3.40234 8.75009 3.99967 8.01343 3.99967ZM9.34676 7.99967C9.34676 7.26367 8.74943 6.66634 8.01343 6.66634H8.00675C7.27075 6.66634 6.67676 7.26367 6.67676 7.99967C6.67676 8.73567 7.27676 9.33301 8.01343 9.33301C8.75009 9.33301 9.34676 8.73567 9.34676 7.99967ZM9.34676 13.333C9.34676 12.597 8.74943 11.9997 8.01343 11.9997H8.00675C7.27075 11.9997 6.67676 12.597 6.67676 13.333C6.67676 14.069 7.27676 14.6663 8.01343 14.6663C8.75009 14.6663 9.34676 14.069 9.34676 13.333Z" fill="#3B3B3E"/>
</svg>
