<svg width="16" height="16" viewBox="0 0 16 16" fill="none" xmlns="http://www.w3.org/2000/svg">
<path d="M9.33301 3.33301H3.33301C1.99967 3.33301 1.33301 3.99967 1.33301 5.33301V10.6663C1.33301 11.9997 1.99967 12.6663 3.33301 12.6663H9.33301C10.6663 12.6663 11.333 11.9997 11.333 10.6663V5.33301C11.333 3.99967 10.6663 3.33301 9.33301 3.33301ZM8.35303 6.68636L5.87305 9.16634H6.66634C6.94234 9.16634 7.16634 9.39034 7.16634 9.66634C7.16634 9.94234 6.94234 10.1663 6.66634 10.1663H4.66634C4.60101 10.1663 4.53627 10.1529 4.47493 10.1276C4.35293 10.0769 4.25574 9.97975 4.20508 9.85775C4.17974 9.79641 4.16634 9.73167 4.16634 9.66634V7.66634C4.16634 7.39034 4.39034 7.16634 4.66634 7.16634C4.94234 7.16634 5.16634 7.39034 5.16634 7.66634V8.45898L7.64632 5.979C7.84165 5.78367 8.15834 5.78367 8.35368 5.979C8.54901 6.17434 8.54836 6.49103 8.35303 6.68636ZM14.6663 5.03971V10.9596C14.6663 11.381 14.1789 11.6144 13.8503 11.3511L12.4077 10.193C12.3604 10.155 12.333 10.0976 12.333 10.0369V5.9624C12.333 5.90174 12.3604 5.84431 12.4077 5.80631L13.8503 4.64827C14.1789 4.38494 14.6663 4.61838 14.6663 5.03971Z" fill="#3B3B3E"/>
</svg>
