<svg width="16" height="16" viewBox="0 0 16 16" fill="none" xmlns="http://www.w3.org/2000/svg">
<path d="M10.7072 13.3403C9.89382 13.7603 8.97379 14.0003 8.00045 14.0003C7.02712 14.0003 6.10708 13.7603 5.29375 13.3403C5.12708 13.2537 5.07379 13.0404 5.16712 12.8737L6.79375 9.99364C7.14708 10.2136 7.56045 10.3336 8.00045 10.3336C8.44045 10.3336 8.85382 10.2136 9.20716 9.99364L10.8338 12.8737C10.9265 13.0404 10.8732 13.2537 10.7072 13.3403ZM11.2998 2.72036C11.1398 2.6137 10.9265 2.67365 10.8331 2.84032L9.0798 5.93358C9.78646 6.30691 10.2798 7.02033 10.3265 7.85366C10.3331 7.85366 10.3331 7.85366 10.3398 7.85366H13.6591C13.8525 7.85366 14.0125 7.69364 13.9991 7.50031C13.8865 5.50031 12.8398 3.7537 11.2998 2.72036ZM5.16777 2.84032C5.07444 2.67365 4.86114 2.6137 4.70114 2.72036C3.16114 3.7537 2.11442 5.50031 2.00175 7.50031C1.98842 7.69364 2.14843 7.85366 2.34176 7.85366H5.6611C5.66776 7.85366 5.66778 7.85366 5.67444 7.85366C5.72111 7.02033 6.21444 6.30691 6.92111 5.93358L5.16777 2.84032ZM8.00045 7.16698C7.54045 7.16698 7.16712 7.54031 7.16712 8.00031C7.16712 8.46031 7.54045 8.83364 8.00045 8.83364C8.46045 8.83364 8.83379 8.46031 8.83379 8.00031C8.83379 7.54031 8.46045 7.16698 8.00045 7.16698Z" fill="#3B3B3E"/>
</svg>
