<svg width="16" height="16" viewBox="0 0 16 16" fill="none" xmlns="http://www.w3.org/2000/svg">
<path d="M13.1385 9.80436L8.47252 14.4704C8.41052 14.5324 8.33723 14.5811 8.25523 14.6151C8.1739 14.6491 8.08718 14.6663 8.00051 14.6663C7.91385 14.6663 7.82713 14.6484 7.74579 14.6151C7.66379 14.5811 7.59051 14.5324 7.52851 14.4704L2.86249 9.80436C2.60183 9.54369 2.60183 9.12232 2.86249 8.86165C3.12316 8.60099 3.54453 8.60099 3.8052 8.86165L7.33385 12.3903V1.99967C7.33385 1.63167 7.63185 1.33301 8.00051 1.33301C8.36918 1.33301 8.66718 1.63167 8.66718 1.99967V12.3903L12.1958 8.86165C12.4565 8.60099 12.8779 8.60099 13.1385 8.86165C13.3992 9.12232 13.3992 9.54369 13.1385 9.80436Z" fill="#3B3B3E"/>
</svg>
