<svg width="16" height="16" viewBox="0 0 16 16" fill="none" xmlns="http://www.w3.org/2000/svg">
<path d="M13.8867 9.73334C13.2667 9.37334 12.8867 8.71333 12.8867 8C12.8867 7.28667 13.2667 6.62666 13.8867 6.26666C13.9933 6.2 14.0333 6.06667 13.9667 5.96L12.8533 4.04C12.8133 3.96667 12.74 3.92668 12.6667 3.92668C12.6267 3.92668 12.5867 3.94 12.5533 3.96C12.2467 4.13334 11.9 4.22666 11.5533 4.22666C11.2 4.22666 10.8533 4.13333 10.54 3.95333C9.92 3.59333 9.54 2.94 9.54 2.22666C9.54 2.1 9.44001 2 9.32001 2H6.67999C6.55999 2 6.46 2.1 6.46 2.22666C6.46 2.94 6.08 3.59333 5.46 3.95333C5.14667 4.13333 4.80001 4.22666 4.44668 4.22666C4.10001 4.22666 3.75334 4.13334 3.44668 3.96C3.34001 3.89334 3.20667 3.93333 3.14667 4.04L2.02667 5.96C2.00667 5.99334 2 6.03334 2 6.06667C2 6.14667 2.04001 6.22 2.11334 6.26666C2.73334 6.62666 3.11334 7.27999 3.11334 7.99333C3.11334 8.71333 2.73333 9.37334 2.12 9.73334H2.11334C2.00668 9.8 1.96666 9.93333 2.03333 10.04L3.14667 11.96C3.18667 12.0333 3.26 12.0733 3.33333 12.0733C3.37333 12.0733 3.41334 12.06 3.44668 12.04C4.07334 11.6867 4.84 11.6867 5.46 12.0467C6.07334 12.4067 6.45333 13.06 6.45333 13.7733C6.45333 13.9 6.55333 14 6.67999 14H9.32001C9.44001 14 9.54 13.9 9.54 13.7733C9.54 13.06 9.92 12.4067 10.54 12.0467C10.8533 11.8667 11.2 11.7733 11.5533 11.7733C11.9 11.7733 12.2467 11.8667 12.5533 12.04C12.66 12.1067 12.7933 12.0667 12.8533 11.96L13.9733 10.04C13.9933 10.0067 14 9.96666 14 9.93333C14 9.85333 13.96 9.78 13.8867 9.73334ZM8 10C6.89333 10 6 9.10667 6 8C6 6.89333 6.89333 6 8 6C9.10667 6 10 6.89333 10 8C10 9.10667 9.10667 10 8 10Z" fill="#3B3B3E"/>
</svg>
