<svg width="16" height="16" viewBox="0 0 16 16" fill="none" xmlns="http://www.w3.org/2000/svg">
<path d="M8.49967 12.4749V14.0003C8.49967 14.2763 8.27567 14.5003 7.99967 14.5003C7.72367 14.5003 7.49967 14.2763 7.49967 14.0003V12.4749C4.88434 12.2229 2.83301 10.0137 2.83301 7.33366C2.83301 7.05766 3.05701 6.83366 3.33301 6.83366C3.60901 6.83366 3.83301 7.05766 3.83301 7.33366C3.83301 9.63099 5.70234 11.5003 7.99967 11.5003C10.297 11.5003 12.1663 9.63099 12.1663 7.33366C12.1663 7.05766 12.3903 6.83366 12.6663 6.83366C12.9423 6.83366 13.1663 7.05766 13.1663 7.33366C13.1663 10.0137 11.115 12.2223 8.49967 12.4749ZM7.99967 1.66699C6.34567 1.66699 4.99967 3.01299 4.99967 4.66699V7.33366C4.99967 8.98766 6.34567 10.3337 7.99967 10.3337C9.65367 10.3337 10.9997 8.98766 10.9997 7.33366V4.66699C10.9997 3.01299 9.65367 1.66699 7.99967 1.66699Z" fill="#3B3B3E"/>
</svg>
