<svg width="16" height="16" viewBox="0 0 16 16" fill="none" xmlns="http://www.w3.org/2000/svg">
<path d="M8.5 3.33301V1.83301L11.5 4.83301H10C8.94667 4.83301 8.5 4.38634 8.5 3.33301ZM8.49333 13.0663C8.53333 13.1997 8.43997 13.333 8.30664 13.333H4C2.66667 13.333 2 12.6663 2 11.333V3.33301C2 1.99967 2.66667 1.33301 4 1.33301H7.5V3.33301C7.5 4.94634 8.38667 5.83301 10 5.83301H12V8.13967C12 8.24634 11.9133 8.33301 11.8066 8.33968C9.87997 8.43968 8.33333 10.0463 8.33333 11.9997C8.33333 12.373 8.38666 12.733 8.49333 13.0663ZM7.83333 9.99967C7.83333 9.72367 7.60933 9.49967 7.33333 9.49967H4.66667C4.39067 9.49967 4.16667 9.72367 4.16667 9.99967C4.16667 10.2757 4.39067 10.4997 4.66667 10.4997H7.33333C7.60933 10.4997 7.83333 10.2757 7.83333 9.99967ZM9.33333 7.83301C9.60933 7.83301 9.83333 7.60901 9.83333 7.33301C9.83333 7.05701 9.60933 6.83301 9.33333 6.83301H4.66667C4.39067 6.83301 4.16667 7.05701 4.16667 7.33301C4.16667 7.60901 4.39067 7.83301 4.66667 7.83301H9.33333ZM14.6667 11.9997C14.6667 13.4723 13.4727 14.6663 12 14.6663C10.5273 14.6663 9.33333 13.4723 9.33333 11.9997C9.33333 10.527 10.5273 9.33301 12 9.33301C13.4727 9.33301 14.6667 10.527 14.6667 11.9997ZM12.4714 11.9997L12.902 11.569C13.032 11.439 13.032 11.2277 12.902 11.0977C12.772 10.9677 12.5607 10.9677 12.4307 11.0977L12 11.5283L11.5693 11.0977C11.4393 10.9677 11.228 10.9677 11.098 11.0977C10.968 11.2277 10.968 11.439 11.098 11.569L11.5286 11.9997L11.098 12.4303C10.968 12.5603 10.968 12.7717 11.098 12.9017C11.1633 12.967 11.2487 12.999 11.334 12.999C11.4193 12.999 11.5047 12.9663 11.57 12.9017L12.0007 12.471L12.4313 12.9017C12.4966 12.967 12.582 12.999 12.6673 12.999C12.7527 12.999 12.838 12.9663 12.9033 12.9017C13.0333 12.7717 13.0333 12.5603 12.9033 12.4303L12.4714 11.9997Z" fill="#3B3B3E"/>
</svg>
