<svg width="16" height="16" viewBox="0 0 16 16" fill="none" xmlns="http://www.w3.org/2000/svg">
<path d="M12.9995 7.00602C12.9995 7.84936 12.5135 8.33333 11.6655 8.33333H9.00011C8.15278 8.33333 7.66613 7.84936 7.66613 7.00602C7.66613 6.08069 8.19013 5 9.66613 5H10.9995C12.4755 5 12.9995 6.08069 12.9995 7.00602ZM10.3361 4C11.1628 4 11.8361 3.32733 11.8361 2.5C11.8361 1.67267 11.1628 1 10.3361 1C9.50946 1 8.83613 1.67267 8.83613 2.5C8.83613 3.32733 9.50946 4 10.3361 4ZM7.66613 13.6727C7.66613 14.516 7.18014 15 6.33214 15H3.66678C2.81945 15 2.33279 14.516 2.33279 13.6727C2.33279 12.7474 2.85679 11.6667 4.33279 11.6667H5.66613C7.14213 11.6667 7.66613 12.7474 7.66613 13.6727ZM5.0028 10.6667C5.82946 10.6667 6.5028 9.994 6.5028 9.16667C6.5028 8.33933 5.82946 7.66667 5.0028 7.66667C4.17613 7.66667 3.5028 8.33933 3.5028 9.16667C3.5028 9.994 4.17613 10.6667 5.0028 10.6667ZM2.49612 7.45801C2.67012 5.86934 3.51009 4.46868 4.79276 3.57601V4.73665C4.79276 5.01265 5.01676 5.23665 5.29276 5.23665C5.56876 5.23665 5.79276 5.01265 5.79276 4.73665V2.70337C5.79276 2.5307 5.7035 2.36998 5.55683 2.27865C5.41017 2.18731 5.22813 2.17799 5.07213 2.25399C3.07813 3.23199 1.74348 5.13663 1.50215 7.34863C1.47148 7.6233 1.67011 7.86998 1.94477 7.89998C1.96277 7.90198 1.98146 7.90267 1.99946 7.90267C2.25213 7.90334 2.46812 7.71401 2.49612 7.45801ZM10.9261 13.8193C12.9201 12.8407 14.2548 10.936 14.4961 8.72469C14.5268 8.45002 14.3282 8.20334 14.0535 8.17334C13.7782 8.14534 13.5328 8.3413 13.5028 8.61597C13.3288 10.2046 12.4888 11.6053 11.2062 12.498V11.3373C11.2062 11.0613 10.9822 10.8373 10.7062 10.8373C10.4302 10.8373 10.2062 11.0613 10.2062 11.3373V13.3707C10.2062 13.5434 10.2954 13.704 10.4421 13.7953C10.5228 13.8453 10.6148 13.8707 10.7062 13.8707C10.7815 13.8707 10.8561 13.8533 10.9261 13.8193Z" fill="#3B3B3E"/>
</svg>
