<svg width="16" height="16" viewBox="0 0 16 16" fill="none" xmlns="http://www.w3.org/2000/svg">
<path d="M14.0335 10.4996C13.8801 10.7396 13.7001 10.9663 13.4935 11.173L11.1668 13.4996C10.9601 13.7063 10.7335 13.8796 10.4935 14.0396V12.673C10.4935 11.4796 11.4668 10.5063 12.6601 10.5063H14.0268L14.0335 10.4996ZM9.50014 14.493C9.1268 14.6063 8.74014 14.6663 8.34014 14.6663H8.00014C4.25347 14.6663 1.23347 11.5796 1.33347 7.81298C1.4268 4.33298 4.3268 1.43298 7.8068 1.33965C11.5735 1.23298 14.6601 4.25965 14.6601 8.00632V8.3463C14.6601 8.73964 14.6001 9.13298 14.4868 9.50632H12.6601C10.9135 9.50632 9.49346 10.9263 9.49346 12.673V14.4996L9.50014 14.493ZM9.17348 6.66631C9.17348 7.12631 9.55348 7.49964 10.0068 7.49964C10.4601 7.49964 10.8401 7.12631 10.8401 6.66631C10.8401 6.20631 10.4668 5.83298 10.0068 5.83298C9.54681 5.83298 9.17348 6.20631 9.17348 6.66631ZM6.00681 7.49964C6.46681 7.49964 6.84014 7.12631 6.84014 6.66631C6.84014 6.20631 6.46681 5.83298 6.00681 5.83298C5.54681 5.83298 5.17348 6.20631 5.17348 6.66631C5.17348 7.12631 5.55348 7.49964 6.00681 7.49964ZM9.11348 10.4463C9.36014 10.5663 9.66014 10.4596 9.78014 10.213C9.90014 9.96631 9.79347 9.66631 9.54681 9.54631C8.55347 9.07298 7.40014 9.08631 6.44014 9.55964C6.19347 9.67964 6.09347 9.97965 6.21347 10.233C6.30014 10.4063 6.48013 10.513 6.66013 10.513C6.73346 10.513 6.81347 10.4996 6.88014 10.4596C7.56014 10.1196 8.39347 10.113 9.1068 10.4596L9.11348 10.4463Z" fill="#3B3B3E"/>
</svg>
