<svg width="16" height="16" viewBox="0 0 16 16" fill="none" xmlns="http://www.w3.org/2000/svg">
<path d="M12 3H4C2.66667 3 2 3.66667 2 5V11C2 12.3333 2.66667 13 4 13H12C13.3333 13 14 12.3333 14 11V5C14 3.66667 13.3333 3 12 3ZM6.00399 5C6.79465 5 7.43734 5.64268 7.43734 6.43335C7.43734 7.22402 6.79399 7.8667 6.00399 7.8667C5.21399 7.8667 4.57133 7.22402 4.57133 6.43335C4.57133 5.64268 5.21332 5 6.00399 5ZM8.33333 10.6667C8.33333 10.8507 8.184 11 8 11H4C3.816 11 3.66667 10.8507 3.66667 10.6667V10.4647C3.66667 9.57135 4.32065 8.66667 5.57198 8.66667H6.42733C7.67866 8.66667 8.33268 9.57068 8.33268 10.4647V10.6667H8.33333ZM11.9667 9.83333H9.96668C9.69068 9.83333 9.46668 9.60933 9.46668 9.33333C9.46668 9.05733 9.69068 8.83333 9.96668 8.83333H11.9667C12.2427 8.83333 12.4667 9.05733 12.4667 9.33333C12.4667 9.60933 12.2427 9.83333 11.9667 9.83333ZM12 7.12533H9.33333C9.05733 7.12533 8.83333 6.90133 8.83333 6.62533C8.83333 6.34933 9.05733 6.12533 9.33333 6.12533H12C12.276 6.12533 12.5 6.34933 12.5 6.62533C12.5 6.90133 12.276 7.12533 12 7.12533Z" fill="#3B3B3E"/>
</svg>
