<svg width="16" height="16" viewBox="0 0 16 16" fill="none" xmlns="http://www.w3.org/2000/svg">
<path d="M11.7783 1.33398H4.22298C2.74165 1.33398 2.00098 2.07466 2.00098 3.55599V10.2227C2.00098 11.704 2.74165 12.4447 4.22298 12.4447H5.22298C5.57298 12.4447 5.90232 12.6093 6.11165 12.8893L7.11165 14.2227C7.55632 14.8153 8.44498 14.8153 8.88965 14.2227L9.88965 12.8893C10.0996 12.6093 10.429 12.4447 10.7783 12.4447H11.7783C13.2597 12.4447 14.0003 11.704 14.0003 10.2227V3.55599C14.0003 2.07466 13.2597 1.33398 11.7783 1.33398ZM8.00033 3.33398C8.82699 3.33398 9.50033 4.00665 9.50033 4.83398C9.50033 5.66132 8.82699 6.33398 8.00033 6.33398C7.17366 6.33398 6.50033 5.66132 6.50033 4.83398C6.50033 4.00665 7.17366 3.33398 8.00033 3.33398ZM9.32967 10.6673H6.66496C5.81696 10.6673 5.33032 10.1833 5.33032 9.34001C5.33032 8.41467 5.85432 7.33398 7.33032 7.33398H8.66366C10.1397 7.33398 10.6637 8.41467 10.6637 9.34001C10.6637 10.1833 10.1777 10.6673 9.32967 10.6673Z" fill="#3B3B3E"/>
</svg>
