<svg width="16" height="16" viewBox="0 0 16 16" fill="none" xmlns="http://www.w3.org/2000/svg">
<path d="M1.5 5.33333V3C1.5 2.06067 2.06067 1.5 3 1.5H5.33333C5.60933 1.5 5.83333 1.724 5.83333 2C5.83333 2.276 5.60933 2.5 5.33333 2.5H3C2.60733 2.5 2.5 2.60733 2.5 3V5.33333C2.5 5.60933 2.276 5.83333 2 5.83333C1.724 5.83333 1.5 5.60933 1.5 5.33333ZM13 1.5H10.6667C10.3907 1.5 10.1667 1.724 10.1667 2C10.1667 2.276 10.3907 2.5 10.6667 2.5H13C13.3927 2.5 13.5 2.60733 13.5 3V5.33333C13.5 5.60933 13.724 5.83333 14 5.83333C14.276 5.83333 14.5 5.60933 14.5 5.33333V3C14.5 2.06067 13.9393 1.5 13 1.5ZM5.33333 13.5H3C2.60733 13.5 2.5 13.3927 2.5 13V10.6667C2.5 10.3907 2.276 10.1667 2 10.1667C1.724 10.1667 1.5 10.3907 1.5 10.6667V13C1.5 13.9393 2.06067 14.5 3 14.5H5.33333C5.60933 14.5 5.83333 14.276 5.83333 14C5.83333 13.724 5.60933 13.5 5.33333 13.5ZM14 10.1667C13.724 10.1667 13.5 10.3907 13.5 10.6667V13C13.5 13.3927 13.3927 13.5 13 13.5H10.6667C10.3907 13.5 10.1667 13.724 10.1667 14C10.1667 14.276 10.3907 14.5 10.6667 14.5H13C13.9393 14.5 14.5 13.9393 14.5 13V10.6667C14.5 10.3907 14.276 10.1667 14 10.1667ZM8.00399 7.44466C9.04532 7.44466 9.89331 6.59732 9.89331 5.55599C9.89331 4.51466 9.04599 3.66732 8.00399 3.66732C6.96199 3.66732 6.11532 4.51466 6.11532 5.55599C6.11532 6.59732 6.96199 7.44466 8.00399 7.44466ZM11.1113 10.6746C11.1113 9.79064 10.6667 8.44466 8.88932 8.44466C8.38999 8.44466 8.01799 8.44466 7.11133 8.44466C5.33333 8.44466 4.88932 9.77798 4.88932 10.6746C4.88932 11.5553 5.33404 12 6.22404 12H9.77734C10.6667 12 11.1113 11.5553 11.1113 10.6746Z" fill="#3B3B3E"/>
</svg>
