<svg width="16" height="16" viewBox="0 0 16 16" fill="none" xmlns="http://www.w3.org/2000/svg">
<path d="M2.35966 7.44634L4.27966 8.82634L7.25301 7.33301C7.71968 7.09967 8.27967 7.09967 8.74634 7.33301L11.7197 8.81967L13.6397 7.44634L14.553 6.79301C13.9864 3.68634 11.2663 1.33301 7.99967 1.33301C4.73301 1.33301 2.013 3.69301 1.44633 6.79301L2.35966 7.44634V7.44634ZM8.85966 5.83967C9.06633 5.23967 9.63299 4.83301 10.273 4.83301C10.913 4.83301 11.4797 5.233 11.6864 5.83967C11.773 6.09967 11.6397 6.38635 11.3797 6.47301C11.3263 6.49301 11.273 6.49967 11.213 6.49967C11.0063 6.49967 10.813 6.37301 10.7397 6.15968C10.673 5.96634 10.4797 5.83301 10.273 5.83301C10.0663 5.83301 9.87302 5.96634 9.80636 6.15968C9.71969 6.41968 9.43301 6.55967 9.17301 6.46634C8.91301 6.37301 8.773 6.09301 8.86633 5.83301L8.85966 5.83967ZM4.31299 5.83967C4.51965 5.23967 5.08636 4.83301 5.72636 4.83301C6.36636 4.83301 6.93302 5.233 7.13969 5.83967C7.22636 6.09967 7.09301 6.38635 6.83301 6.47301C6.77967 6.49301 6.72634 6.49967 6.66634 6.49967C6.45967 6.49967 6.26633 6.37301 6.19299 6.15968C6.12633 5.96634 5.93303 5.83301 5.72636 5.83301C5.51969 5.83301 5.32635 5.96634 5.25968 6.15968C5.17302 6.41968 4.88634 6.55967 4.62634 6.46634C4.36634 6.37301 4.22633 6.09301 4.31966 5.83301L4.31299 5.83967ZM8.66634 11.4997C8.93967 11.4997 9.16634 11.7263 9.16634 11.9997C9.16634 12.273 8.93967 12.4997 8.66634 12.4997H7.33301C7.05967 12.4997 6.83301 12.273 6.83301 11.9997C6.83301 11.7263 7.05967 11.4997 7.33301 11.4997H8.66634ZM14.6663 7.94634C14.6663 7.94634 14.6663 7.97967 14.6663 7.99967C14.6663 10.2063 13.593 12.1663 11.933 13.3797C10.833 14.1863 9.47301 14.6663 7.99967 14.6663C6.52634 14.6663 5.16632 14.1863 4.06632 13.3797C2.40632 12.1663 1.33301 10.2063 1.33301 7.99967C1.33301 7.97967 1.33301 7.96634 1.33301 7.94634L2.37968 8.693L3.71969 9.653C3.71969 9.713 3.70635 9.76634 3.71301 9.82634L3.913 11.8463C3.913 11.893 3.93969 11.9397 3.97302 11.973C4.18636 12.193 4.413 12.393 4.65967 12.573C5.633 13.2863 6.78634 13.6663 7.99967 13.6663C9.21301 13.6663 10.3663 13.2863 11.3397 12.573C11.5863 12.393 11.813 12.193 12.0263 11.973C12.0597 11.9397 12.0797 11.893 12.0863 11.8463L12.2863 9.82634C12.293 9.76634 12.2797 9.713 12.2797 9.653L13.6197 8.693L14.6663 7.94634V7.94634Z" fill="#3B3B3E"/>
</svg>
