<svg width="16" height="16" viewBox="0 0 16 16" fill="none" xmlns="http://www.w3.org/2000/svg">
<path d="M7.99967 1.33301C4.31767 1.33301 1.33301 4.31767 1.33301 7.99967C1.33301 11.6817 4.31767 14.6663 7.99967 14.6663C11.6817 14.6663 14.6663 11.6817 14.6663 7.99967C14.6663 4.31767 11.6817 1.33301 7.99967 1.33301ZM11.4997 8.49967C11.4997 8.77567 11.2757 8.99967 10.9997 8.99967H9.49967C9.22367 8.99967 8.99967 8.77567 8.99967 8.49967C8.99967 8.22367 9.22367 7.99967 9.49967 7.99967H9.97835C9.50635 7.38234 8.76363 6.99967 7.95964 6.99967C6.77497 6.99967 5.75766 7.80107 5.48633 8.9484C5.43233 9.1784 5.22699 9.33301 5.00033 9.33301C4.96166 9.33301 4.92361 9.32899 4.88428 9.31966C4.61561 9.25566 4.44969 8.98628 4.51302 8.71761C4.89102 7.11761 6.30832 5.99967 7.95898 5.99967C8.93698 5.99967 9.84501 6.41093 10.4997 7.08626V7.00098C10.4997 6.72498 10.7237 6.50098 10.9997 6.50098C11.2757 6.50098 11.4997 6.72498 11.4997 7.00098V8.49967V8.49967Z" fill="#3B3B3E"/>
</svg>
