<svg width="16" height="16" viewBox="0 0 16 16" fill="none" xmlns="http://www.w3.org/2000/svg">
<g clip-path="url(#clip0_36251_7494)">
<path d="M14.3529 2.35386L1.68621 15.0205C1.58888 15.1179 1.46086 15.1672 1.33286 15.1672C1.20486 15.1672 1.07684 15.1185 0.979508 15.0205C0.784174 14.8252 0.784174 14.5085 0.979508 14.3132L1.57619 13.7165C1.19819 13.3272 0.999527 12.7579 0.999527 12.0132C0.999527 10.3132 1.95953 8.33319 4.66619 8.33319H6.95884L9.23154 6.06048C9.50954 5.54648 9.67222 4.96319 9.67222 4.33319C9.67222 4.11319 9.65216 3.89321 9.61216 3.68654C9.59882 3.61321 9.62556 3.53985 9.67889 3.49985C10.0456 3.18652 10.5255 2.99985 11.0388 2.99985C11.4022 2.99985 11.7389 3.09516 12.0375 3.25449L13.6455 1.6465C13.8409 1.45117 14.1575 1.45117 14.3529 1.6465C14.5482 1.84183 14.5482 2.15852 14.3529 2.35386ZM13.0862 5.83384C13.1195 5.7205 13.1462 5.60717 13.1662 5.5005L11.4062 7.26051C11.5129 7.24718 11.6195 7.22052 11.7262 7.18719C12.3595 6.98719 12.8795 6.47384 13.0862 5.83384ZM12.0729 8.18719H10.7529C10.6395 8.18719 10.5528 8.27381 10.5528 8.38714C10.5528 8.44048 10.5729 8.49386 10.6129 8.5272C10.6196 8.53386 10.6262 8.54047 10.6328 8.54714C11.5662 9.44714 11.9995 10.7339 11.9995 12.0139C11.9995 12.2605 11.9862 12.5005 11.9462 12.7205C11.9396 12.7498 11.9375 12.7745 11.9375 12.8012C11.9375 12.9145 12.0262 13.0005 12.1328 13.0005H13.1062C14.3262 13.0005 14.9995 12.3339 14.9995 11.1205C14.9995 9.76721 14.2329 8.18719 12.0729 8.18719ZM6.0062 7.0005C7.47287 7.0005 8.67287 5.80717 8.67287 4.33384C8.67287 2.8605 7.47287 1.66717 6.0062 1.66717C4.53287 1.66717 3.33953 2.8605 3.33953 4.33384C3.33953 5.80717 4.53287 7.0005 6.0062 7.0005ZM9.79087 9.13714C9.71154 9.06914 9.58889 9.07714 9.51556 9.15114L4.67417 13.9925C4.54817 14.1185 4.63753 14.3338 4.81553 14.3338H8.66619C10.1929 14.3338 10.9995 13.5339 10.9995 12.0139C10.9995 10.9959 10.6515 9.87581 9.79087 9.13714Z" fill="#3B3B3E"/>
</g>
<defs>
<clipPath id="clip0_36251_7494">
<rect width="16" height="16" fill="white"/>
</clipPath>
</defs>
</svg>
