<svg width="16" height="16" viewBox="0 0 16 16" fill="none" xmlns="http://www.w3.org/2000/svg">
<path d="M7.99967 1.33301C4.31967 1.33301 1.33301 4.31967 1.33301 7.99967C1.33301 11.6797 4.31967 14.6663 7.99967 14.6663C11.6797 14.6663 14.6663 11.6797 14.6663 7.99967C14.6663 4.31967 11.6797 1.33301 7.99967 1.33301ZM9.99967 5.49967C10.4797 5.49967 10.833 5.99301 10.833 6.66634C10.833 7.33967 10.4797 7.83301 9.99967 7.83301C9.51967 7.83301 9.16634 7.33967 9.16634 6.66634C9.16634 5.99301 9.51967 5.49967 9.99967 5.49967ZM5.99967 5.49967C6.47967 5.49967 6.83301 5.99301 6.83301 6.66634C6.83301 7.33967 6.47967 7.83301 5.99967 7.83301C5.51967 7.83301 5.16634 7.33967 5.16634 6.66634C5.16634 5.99301 5.51967 5.49967 5.99967 5.49967ZM10.9663 11.733C10.873 11.7997 10.773 11.833 10.6663 11.833C10.513 11.833 10.3663 11.7663 10.2663 11.633C9.733 10.9263 8.88634 10.4997 8.00634 10.4997C7.12634 10.4997 6.28634 10.913 5.73967 11.633C5.57301 11.853 5.25967 11.893 5.03967 11.7263C4.81967 11.5597 4.77967 11.2463 4.94634 11.0263C5.68634 10.053 6.79968 9.49301 8.01301 9.49301C9.22634 9.49301 10.353 10.0663 11.073 11.0263C11.2397 11.2463 11.193 11.5597 10.973 11.7263L10.9663 11.733Z" fill="#3B3B3E"/>
</svg>
