<svg width="16" height="16" viewBox="0 0 16 16" fill="none" xmlns="http://www.w3.org/2000/svg">
<path d="M8.58903 10.4957C8.8757 9.23032 9.89627 8.20966 11.1623 7.92232C11.8403 7.76832 12.4836 7.82166 13.0636 8.021C13.1956 8.06633 13.333 7.97633 13.333 7.837V4.66699C13.333 3.33366 12.6663 2.66699 11.333 2.66699H3.33301C1.99967 2.66699 1.33301 3.33366 1.33301 4.66699V10.667C1.33301 12.0003 1.99967 12.667 3.33301 12.667H8.50374C8.64374 12.667 8.73366 12.5297 8.68766 12.3977C8.48766 11.8177 8.43503 11.1737 8.58903 10.4957ZM8.01904 8.11966C7.81371 8.26899 7.57301 8.34366 7.33301 8.34366C7.09301 8.34366 6.85164 8.26899 6.64697 8.12032L3.3724 5.73832C3.14906 5.57632 3.0997 5.263 3.26237 5.03966C3.42437 4.81766 3.73627 4.76632 3.96094 4.92966L7.23568 7.31099C7.29434 7.35299 7.37232 7.35366 7.43099 7.31099L10.7057 4.92966C10.9311 4.76632 11.2423 4.817 11.4043 5.03966C11.567 5.263 11.5176 5.57566 11.2943 5.73832L8.01904 8.11966ZM15.0197 13.647L13.9863 12.6143C14.2383 12.2297 14.3883 11.7717 14.3883 11.279C14.3883 9.93099 13.2917 8.83433 11.9443 8.83433C10.5963 8.83433 9.49967 9.93099 9.49967 11.279C9.49967 12.6263 10.5963 13.723 11.9443 13.723C12.4377 13.723 12.895 13.5737 13.2796 13.3217L14.313 14.3543C14.4103 14.4517 14.5383 14.501 14.6663 14.501C14.7943 14.501 14.9224 14.4523 15.0197 14.3543C15.215 14.1583 15.215 13.8423 15.0197 13.647ZM11.9443 12.7223C11.1477 12.7223 10.4997 12.0743 10.4997 11.2783C10.4997 10.4817 11.1477 9.83366 11.9443 9.83366C12.7403 9.83366 13.3883 10.4817 13.3883 11.2783C13.3883 12.0743 12.7403 12.7223 11.9443 12.7223Z" fill="#3B3B3E"/>
</svg>
