<svg width="16" height="16" viewBox="0 0 16 16" fill="none" xmlns="http://www.w3.org/2000/svg">
<path d="M8.66671 7.50013V8.41679H7.33338V7.50013C7.33338 7.13279 7.63205 6.83346 8.00005 6.83346C8.36805 6.83346 8.66671 7.13279 8.66671 7.50013ZM14.386 6.76079C14.2874 6.88079 14.144 6.94275 14 6.94275C13.888 6.94275 13.7753 6.90549 13.682 6.82882L13 6.26746V12.0001C13 13.5268 12.1934 14.3335 10.6667 14.3335H5.33338C3.80671 14.3335 3.00005 13.5268 3.00005 12.0001V6.26811L2.31808 6.82947C2.10541 7.00414 1.79006 6.97479 1.61406 6.76079C1.43806 6.54679 1.46941 6.2321 1.68275 6.05677L6.62407 1.99345C7.42207 1.33812 8.57867 1.33812 9.37667 1.99345L14.3181 6.0575C14.5307 6.23217 14.562 6.54679 14.386 6.76079ZM10.3334 9.41679C10.3334 8.87679 10.1034 8.56749 9.66671 8.46416V7.50013C9.66671 6.58146 8.91938 5.83346 8.00005 5.83346C7.08071 5.83346 6.33338 6.58146 6.33338 7.50013V8.46416C5.89671 8.56682 5.66671 8.87679 5.66671 9.41679V10.9168C5.66671 11.5835 6.00005 11.9168 6.66671 11.9168H9.33338C10 11.9168 10.3334 11.5835 10.3334 10.9168V9.41679Z" fill="#3B3B3E"/>
</svg>
