<svg width="16" height="16" viewBox="0 0 16 16" fill="none" xmlns="http://www.w3.org/2000/svg">
<path d="M13.293 5.32635C13.2997 5.43969 13.2997 5.55969 13.2997 5.67969C13.2997 9.23969 10.553 13.3397 5.52634 13.3397C3.97967 13.3397 2.53967 12.8997 1.33301 12.133C1.55301 12.1597 1.76634 12.1664 1.99301 12.1664C3.27301 12.1664 4.44634 11.7397 5.38634 11.0197C4.18634 10.993 3.17967 10.2197 2.83301 9.15301C2.99967 9.17968 3.17301 9.19301 3.34634 9.19301C3.59301 9.19301 3.83968 9.15968 4.06635 9.09968C2.81301 8.84635 1.87301 7.76635 1.87301 6.45969V6.42635C2.23967 6.62635 2.65968 6.75301 3.10634 6.76635C2.37301 6.27968 1.88634 5.45968 1.88634 4.52635C1.88634 4.02635 2.01967 3.56635 2.25967 3.16635C3.60634 4.79968 5.62634 5.86635 7.89301 5.98635C7.85301 5.78635 7.82635 5.57968 7.82635 5.37302C7.82635 3.88635 9.04634 2.67969 10.5597 2.67969C11.3463 2.67969 12.0597 3.00635 12.553 3.52635C13.173 3.41301 13.7597 3.18636 14.2863 2.87969C14.0863 3.50636 13.653 4.03301 13.0863 4.35968C13.633 4.29968 14.1663 4.15302 14.6597 3.94635C14.2863 4.47968 13.8197 4.95301 13.2863 5.33968L13.293 5.32635Z" fill="#3B3B3E"/>
</svg>
