<svg width="16" height="16" viewBox="0 0 16 16" fill="none" xmlns="http://www.w3.org/2000/svg">
<path d="M13.464 7.35507L11.1913 8.82577C10.7573 9.10644 10.496 9.58775 10.496 10.1044C10.496 11.3851 9.9873 12.6131 9.08197 13.5185L2.48265 6.91838C3.38798 6.01305 4.61597 5.50448 5.89664 5.50448C6.4133 5.50448 6.89464 5.2425 7.1753 4.80917L8.64598 2.53638C8.99198 2.00172 9.55397 1.73382 10.1926 2.37248L13.6286 5.80836C14.2673 6.44702 13.9986 7.00907 13.464 7.35507ZM1.64598 13.6464C1.45264 13.8397 1.45264 14.1598 1.64598 14.3531C1.74598 14.4531 1.87264 14.4998 1.99931 14.4998C2.12598 14.4998 2.25264 14.4531 2.35264 14.3531L6.13264 10.5732L5.42598 9.86646L1.64598 13.6464Z" fill="#3B3B3E"/>
</svg>
