<svg width="16" height="16" viewBox="0 0 16 16" fill="none" xmlns="http://www.w3.org/2000/svg">
<path d="M13.9997 14H2.99967C1.97167 14 1.33301 13.3613 1.33301 12.3333V2.66667C1.33301 2.29867 1.63167 2 1.99967 2C2.36767 2 2.66634 2.29867 2.66634 2.66667V12.3333C2.66634 12.6327 2.70034 12.6667 2.99967 12.6667H13.9997C14.3677 12.6667 14.6663 12.9653 14.6663 13.3333C14.6663 13.7013 14.3677 14 13.9997 14ZM5.13767 9.80469L7.33434 7.60799L8.40501 8.67131C8.92634 9.18864 9.77168 9.18602 10.289 8.66602L13.1383 5.80469C13.3983 5.54335 13.3977 5.12198 13.1363 4.86198C12.875 4.60198 12.4537 4.60268 12.1937 4.86401L9.34434 7.72534L8.27434 6.66268C7.75434 6.14668 6.90967 6.14735 6.39167 6.66602L4.19501 8.86263C3.93434 9.1233 3.93434 9.54467 4.19501 9.80534C4.32501 9.93534 4.49567 10.0007 4.66634 10.0007C4.83701 10.0007 5.00767 9.93469 5.13767 9.80469Z" fill="#3B3B3E"/>
</svg>
