<svg width="16" height="16" viewBox="0 0 16 16" fill="none" xmlns="http://www.w3.org/2000/svg">
<path d="M11.6663 7.99967C11.6663 8.91967 10.9197 9.66634 9.99967 9.66634C9.07967 9.66634 8.33301 8.91967 8.33301 7.99967C8.33301 7.07967 9.07967 6.33301 9.99967 6.33301C10.9197 6.33301 11.6663 7.07967 11.6663 7.99967ZM5.99967 10.333C5.07967 10.333 4.33301 11.0797 4.33301 11.9997C4.33301 12.9197 5.07967 13.6663 5.99967 13.6663C6.91967 13.6663 7.66634 12.9197 7.66634 11.9997V10.333H5.99967ZM9.99967 2.33301H8.33301V5.66634H9.99967C10.9197 5.66634 11.6663 4.91967 11.6663 3.99967C11.6663 3.07967 10.9197 2.33301 9.99967 2.33301ZM5.99967 2.33301C5.07967 2.33301 4.33301 3.07967 4.33301 3.99967C4.33301 4.91967 5.07967 5.66634 5.99967 5.66634H7.66634V2.33301H5.99967ZM5.99967 6.33301C5.07967 6.33301 4.33301 7.07967 4.33301 7.99967C4.33301 8.91967 5.07967 9.66634 5.99967 9.66634H7.66634V6.33301H5.99967Z" fill="#3B3B3E"/>
</svg>
