<svg width="16" height="16" viewBox="0 0 16 16" fill="none" xmlns="http://www.w3.org/2000/svg">
<path d="M8.88737 7.40566L6.40592 9.88765C6.25859 9.62365 6.16667 9.32366 6.16667 9.00033C6.16667 7.98966 6.98867 7.16699 8 7.16699C8.32333 7.16699 8.62337 7.25833 8.88737 7.40566ZM7.11263 10.595C7.37663 10.7423 7.676 10.8337 8 10.8337C9.01133 10.8337 9.83333 10.011 9.83333 9.00033C9.83333 8.67699 9.74208 8.377 9.59408 8.113L7.11263 10.595ZM14 6.66699V11.3337C14 12.667 13.3333 13.3337 12 13.3337H4C2.66667 13.3337 2 12.667 2 11.3337V4.66699C2 3.33366 2.66667 2.66699 4 2.66699H6.66667L8.66667 4.66699H12C13.3333 4.66699 14 5.33366 14 6.66699ZM10.8333 9.00033C10.8333 7.43766 9.56267 6.16699 8 6.16699C6.43733 6.16699 5.16667 7.43766 5.16667 9.00033C5.16667 10.563 6.43733 11.8337 8 11.8337C9.56267 11.8337 10.8333 10.563 10.8333 9.00033Z" fill="#3B3B3E"/>
</svg>
