<svg width="16" height="16" viewBox="0 0 16 16" fill="none" xmlns="http://www.w3.org/2000/svg">
<path d="M7.99967 1.33398C4.31767 1.33398 1.33301 4.31865 1.33301 8.00065C1.33301 11.6827 4.31767 14.6673 7.99967 14.6673C11.6817 14.6673 14.6663 11.6827 14.6663 8.00065C14.6663 4.31865 11.6817 1.33398 7.99967 1.33398ZM9.33301 8.87533C9.33301 8.89666 9.32966 8.91732 9.323 8.93799L8.59969 11.1407C8.51302 11.3673 8.29966 11.5007 8.073 11.5007C7.96633 11.5007 7.85969 11.474 7.76636 11.4073C7.47302 11.214 7.29964 10.8806 7.29964 10.5273V9.38733H5.91968C4.86634 9.38733 4.69301 8.68065 4.91968 8.00065L5.6263 5.88733C5.7663 5.46066 5.91964 5.16732 6.6263 5.16732H9.13297C9.24364 5.16732 9.33301 5.25664 9.33301 5.36731V8.87533V8.87533ZM11.1663 8.16064C11.1663 8.45064 10.9296 8.68734 10.6396 8.68734H10.1997C10.089 8.68734 9.99967 8.59797 9.99967 8.4873V5.36731C9.99967 5.25664 10.089 5.16732 10.1997 5.16732H10.6396C10.9303 5.16732 11.1663 5.4033 11.1663 5.69397V8.16064Z" fill="#3B3B3E"/>
</svg>
