<svg width="16" height="16" viewBox="0 0 16 16" fill="none" xmlns="http://www.w3.org/2000/svg">
<path d="M14.4915 11.0996C14.5395 11.3716 14.3581 11.6309 14.0861 11.6789L6.97275 12.9309C6.84475 13.7236 6.16144 14.3329 5.33277 14.3329C4.41344 14.3329 3.6661 13.5849 3.6661 12.6663C3.6661 11.9216 4.16014 11.2969 4.83481 11.0836L3.44679 3.18628C3.36745 2.73494 2.93212 2.43428 2.47812 2.51161L2.08212 2.57895C1.81545 2.62361 1.55144 2.44161 1.50611 2.16961C1.46011 1.89695 1.64279 1.63894 1.91545 1.59294L2.30876 1.52627C3.29676 1.35361 4.25607 2.01961 4.4314 3.01227L5.85076 11.0896C6.28009 11.2309 6.63075 11.5389 6.82675 11.9403L13.9128 10.6929C14.1854 10.6456 14.4441 10.8276 14.4915 11.0996ZM6.38079 6.05827C6.13879 4.68561 6.6708 3.92561 8.04346 3.68361L10.4661 3.25627C11.8387 3.01427 12.5987 3.54627 12.8407 4.91894L13.2681 7.34161C13.5101 8.71428 12.9781 9.47427 11.6055 9.71627L9.18279 10.1436C7.81012 10.3856 7.05011 9.85361 6.80811 8.48094L6.38079 6.05827ZM8.60873 7.61095L9.7614 8.42294C9.7834 8.43827 9.80814 8.44627 9.83147 8.45761C9.8508 8.46694 9.86809 8.47895 9.88876 8.48561C9.93876 8.50295 9.99008 8.51228 10.0421 8.51295C10.0441 8.51295 10.0461 8.51428 10.0488 8.51428C10.0774 8.51428 10.1067 8.51161 10.1361 8.50627C10.1674 8.50027 10.1928 8.48361 10.2214 8.47228C10.2461 8.46294 10.2701 8.45761 10.2935 8.44428C10.3555 8.40895 10.4094 8.36427 10.4508 8.30827C10.4528 8.30561 10.4561 8.30495 10.4581 8.30161L11.2761 7.14228C11.4348 6.91628 11.3808 6.60428 11.1554 6.44561C10.9281 6.28628 10.6174 6.34028 10.4581 6.56628L10.3328 6.74428L10.0781 5.30094C10.0308 5.02961 9.7721 4.84761 9.49944 4.89561C9.22744 4.94361 9.04542 5.20294 9.09408 5.47494L9.34677 6.90628L9.18612 6.79294C8.95812 6.63361 8.64811 6.68828 8.48878 6.91361C8.32944 7.13961 8.3834 7.45161 8.60873 7.61095Z" fill="#3B3B3E"/>
</svg>
