<svg width="16" height="16" viewBox="0 0 16 16" fill="none" xmlns="http://www.w3.org/2000/svg">
<path d="M8.99468 9.45488L6.54546 7.00567C6.46346 6.92367 6.32865 6.92824 6.25265 7.01624L2.36675 11.507C1.85342 12.1003 1.87999 13.0004 2.43999 13.5604C2.73332 13.8537 3.12006 14.0003 3.50672 14.0003C3.86006 14.0003 4.21338 13.8803 4.49338 13.6336L8.9841 9.74769C9.0721 9.67169 9.07668 9.53688 8.99468 9.45488ZM6.98475 9.7223L6.32264 10.3836C6.22531 10.4809 6.09678 10.5296 5.96945 10.5296C5.84145 10.5296 5.71343 10.4809 5.6161 10.3829C5.42076 10.1876 5.42076 9.87092 5.6161 9.67559L6.27804 9.01429C6.47404 8.81962 6.79073 8.81962 6.9854 9.01429C7.18007 9.21029 7.18008 9.52697 6.98475 9.7223ZM13.0487 7.00892L8.99142 2.95163C8.90542 2.86563 8.91264 2.71831 9.00998 2.64564C10.2273 1.73364 11.744 1.75368 12.9953 3.00501C14.2467 4.25635 14.2667 5.77303 13.3547 6.99037C13.282 7.0877 13.1347 7.09492 13.0487 7.00892ZM7.95073 3.62692C7.06607 4.51159 6.91808 5.29761 7.03342 6.02894C7.04008 6.07161 7.06134 6.11155 7.09201 6.14222L9.85536 8.90557C9.88602 8.93623 9.9253 8.95766 9.96864 8.96432C10.7 9.07966 11.486 8.93167 12.3707 8.04701C12.3707 8.04701 12.5254 7.90223 12.3754 7.7529C12.25 7.62756 8.40869 3.78637 8.25135 3.62904C8.09469 3.4717 7.95073 3.62692 7.95073 3.62692Z" fill="#3B3B3E"/>
</svg>
