<svg width="16" height="16" viewBox="0 0 16 16" fill="none" xmlns="http://www.w3.org/2000/svg">
<path d="M11.8333 8.62C11.9333 8.6 12 8.52668 12 8.42668V6.5H10C8.38667 6.5 7.5 5.61333 7.5 4V2H4C2.66667 2 2 2.66667 2 4V12C2 13.3333 2.66667 14 4 14H9.1333C9.24663 14 9.33333 13.9133 9.33333 13.8V12.7C9.33333 12.1333 9.50667 11.6667 9.83333 11.3333V11.0667C9.83333 9.86 10.6933 8.84666 11.8333 8.62ZM7.33333 11.1667H4.66667C4.39067 11.1667 4.16667 10.9427 4.16667 10.6667C4.16667 10.3907 4.39067 10.1667 4.66667 10.1667H7.33333C7.60933 10.1667 7.83333 10.3907 7.83333 10.6667C7.83333 10.9427 7.60933 11.1667 7.33333 11.1667ZM9.33333 8.5H4.66667C4.39067 8.5 4.16667 8.276 4.16667 8C4.16667 7.724 4.39067 7.5 4.66667 7.5H9.33333C9.60933 7.5 9.83333 7.724 9.83333 8C9.83333 8.276 9.60933 8.5 9.33333 8.5ZM8.5 4V2.5L11.5 5.5H10C8.94667 5.5 8.5 5.05333 8.5 4ZM13.8333 11.86V11.0667C13.8333 10.2393 13.16 9.56667 12.3333 9.56667C11.5067 9.56667 10.8333 10.2393 10.8333 11.0667V11.86C10.5007 11.974 10.3333 12.2533 10.3333 12.7V14.1C10.3333 14.7 10.6334 15 11.2334 15H13.4333C14.0333 15 14.3333 14.7 14.3333 14.1V12.7C14.3333 12.2533 14.166 11.974 13.8333 11.86ZM12.8333 11.8H11.8333V11.0667C11.8333 10.7907 12.058 10.5667 12.3333 10.5667C12.6087 10.5667 12.8333 10.7907 12.8333 11.0667V11.8Z" fill="#3B3B3E"/>
</svg>
