<svg width="16" height="16" viewBox="0 0 16 16" fill="none" xmlns="http://www.w3.org/2000/svg">
<path d="M7.99967 1.33301C4.31967 1.33301 1.33301 4.31967 1.33301 7.99967C1.33301 11.6797 4.31967 14.6663 7.99967 14.6663C11.6797 14.6663 14.6663 11.6797 14.6663 7.99967C14.6663 4.31967 11.6797 1.33301 7.99967 1.33301ZM10.353 9.64632C10.5463 9.83965 10.5463 10.1597 10.353 10.353C10.253 10.453 10.1263 10.4997 9.99967 10.4997C9.87301 10.4997 9.74634 10.453 9.64634 10.353L7.99967 8.70634L6.35301 10.353C6.25301 10.453 6.12634 10.4997 5.99967 10.4997C5.87301 10.4997 5.74634 10.453 5.64634 10.353C5.45301 10.1597 5.45301 9.83965 5.64634 9.64632L7.29301 7.99967L5.64634 6.35303C5.45301 6.15969 5.45301 5.83965 5.64634 5.64632C5.83968 5.45299 6.15967 5.45299 6.35301 5.64632L7.99967 7.29301L9.64634 5.64632C9.83967 5.45299 10.1597 5.45299 10.353 5.64632C10.5463 5.83965 10.5463 6.15969 10.353 6.35303L8.70634 7.99967L10.353 9.64632Z" fill="#3B3B3E"/>
</svg>
