<svg width="16" height="16" viewBox="0 0 16 16" fill="none" xmlns="http://www.w3.org/2000/svg">
<path d="M6.31966 7.43401C6.48633 7.50735 6.65967 7.55403 6.83301 7.59403V13.9407C6.72634 13.914 6.61969 13.874 6.51969 13.8273L2.51969 12.0474C1.79969 11.7274 1.33301 11.014 1.33301 10.2207V5.78069C1.33301 5.60069 1.35966 5.42069 1.40633 5.25402L6.31966 7.43401ZM12.753 4.37402C12.5797 4.20068 12.3797 4.05401 12.1463 3.95401L8.14632 2.17402C7.62632 1.94069 7.03969 1.94069 6.51969 2.17402L2.51969 3.95401C2.28636 4.05401 2.08634 4.20068 1.913 4.37402L6.71964 6.51401C7.10631 6.68734 7.55304 6.68734 7.94637 6.51401L12.753 4.37402ZM8.37231 10.7847C8.61765 9.06401 10.1256 7.73068 11.8623 7.67001C12.2863 7.65535 12.6903 7.70936 13.069 7.82669C13.2003 7.86736 13.333 7.77801 13.333 7.64068V5.78069C13.333 5.60069 13.3064 5.42069 13.2597 5.25402L8.34635 7.43401C8.17969 7.50068 8.00634 7.55403 7.83301 7.59403V13.9407C7.84567 13.9487 7.84565 13.9487 7.85832 13.9567L8.79435 13.536C8.90569 13.486 8.94235 13.3507 8.87769 13.2467C8.44169 12.5453 8.24165 11.6993 8.37231 10.7847ZM14.6663 11.334C14.6663 12.8073 13.473 14.0007 11.9997 14.0007C10.5263 14.0007 9.33301 12.8073 9.33301 11.334C9.33301 9.86068 10.5263 8.66735 11.9997 8.66735C13.473 8.66735 14.6663 9.86068 14.6663 11.334ZM12.473 11.334L12.8997 10.9007C13.033 10.774 13.033 10.5607 12.8997 10.434C12.773 10.3007 12.5597 10.3007 12.433 10.434L11.9997 10.8607L11.5663 10.434C11.4397 10.3007 11.2264 10.3007 11.0997 10.434C10.9664 10.5607 10.9664 10.774 11.0997 10.9007L11.5264 11.334L11.0997 11.7673C10.9664 11.894 10.9664 12.1074 11.0997 12.234C11.1597 12.3007 11.2463 12.334 11.333 12.334C11.4197 12.334 11.5063 12.3007 11.5663 12.234L11.9997 11.8073L12.433 12.234C12.493 12.3007 12.5797 12.334 12.6663 12.334C12.753 12.334 12.8397 12.3007 12.8997 12.234C13.033 12.1074 13.033 11.894 12.8997 11.7673L12.473 11.334Z" fill="#3B3B3E"/>
</svg>
