<svg width="16" height="16" viewBox="0 0 16 16" fill="none" xmlns="http://www.w3.org/2000/svg">
<path d="M6.41341 3.66667C4.69341 3.66667 3.66667 4.69333 3.66667 6.41333V11.1167C3.66667 11.2333 3.56327 11.3313 3.44727 11.32C2.48593 11.224 2 10.6427 2 9.58667V3.74666C2 2.58666 2.58674 2 3.74674 2H9.58659C10.6426 2 11.224 2.48601 11.32 3.44735C11.332 3.56335 11.234 3.66667 11.1174 3.66667H6.41341V3.66667ZM14 6.41667V12.25C14 13.4167 13.4167 14 12.25 14H6.41667C5.25 14 4.66667 13.4167 4.66667 12.25V11.3333V6.41667C4.66667 5.25 5.25 4.66667 6.41667 4.66667H11.3333H12.25C13.4167 4.66667 14 5.25 14 6.41667ZM11.3534 7.86865C11.158 7.67332 10.8413 7.67332 10.646 7.86865L8.77734 9.73735L8.01937 8.97998C7.82404 8.78465 7.50735 8.78465 7.31201 8.97998C7.11668 9.17531 7.11668 9.492 7.31201 9.68734L8.42334 10.7987C8.51734 10.8927 8.64403 10.9454 8.77669 10.9454C8.90936 10.9454 9.03671 10.8927 9.13005 10.7987L11.3521 8.57666C11.5487 8.38066 11.5487 8.06399 11.3534 7.86865Z" fill="#3B3B3E"/>
</svg>
