<svg width="16" height="16" viewBox="0 0 16 16" fill="none" xmlns="http://www.w3.org/2000/svg">
<path fill-rule="evenodd" clip-rule="evenodd" d="M13.5136 6.04153L9.05895 2.3795C8.44362 1.8735 7.55628 1.8735 6.94095 2.3795L2.48693 6.04153C2.11293 6.34886 1.93493 6.83416 2.0216 7.31016L2.99165 12.6315C3.13631 13.4235 3.8263 13.9995 4.63097 13.9995H11.3683C12.1736 13.9995 12.8636 13.4235 13.0076 12.6315L13.9776 7.30951C14.0656 6.83485 13.8876 6.34886 13.5136 6.04153ZM9.33361 11.8335H6.66694C6.39094 11.8335 6.16694 11.6095 6.16694 11.3335C6.16694 11.0575 6.39094 10.8335 6.66694 10.8335H9.33361C9.60961 10.8335 9.83361 11.0575 9.83361 11.3335C9.83361 11.6095 9.60961 11.8335 9.33361 11.8335Z" fill="#3B3B3E"/>
</svg>
