<svg width="16" height="16" viewBox="0 0 16 16" fill="none" xmlns="http://www.w3.org/2000/svg">
<path d="M10.3337 2H6.74772C6.48239 2 6.22836 2.10531 6.04036 2.29264L3.95964 4.37337C3.7723 4.56071 3.66699 4.8154 3.66699 5.08073V12C3.66699 13.3333 4.33366 14 5.66699 14H10.3337C11.667 14 12.3337 13.3333 12.3337 12V4C12.3337 2.66667 11.667 2 10.3337 2ZM6.83366 6.33333C6.83366 6.60933 6.60966 6.83333 6.33366 6.83333C6.05766 6.83333 5.83366 6.60933 5.83366 6.33333V4.66667C5.83366 4.39067 6.05766 4.16667 6.33366 4.16667C6.60966 4.16667 6.83366 4.39067 6.83366 4.66667V6.33333ZM8.83366 6.33333C8.83366 6.60933 8.60966 6.83333 8.33366 6.83333C8.05766 6.83333 7.83366 6.60933 7.83366 6.33333V4.66667C7.83366 4.39067 8.05766 4.16667 8.33366 4.16667C8.60966 4.16667 8.83366 4.39067 8.83366 4.66667V6.33333ZM10.8337 6.33333C10.8337 6.60933 10.6097 6.83333 10.3337 6.83333C10.0577 6.83333 9.83366 6.60933 9.83366 6.33333V4.66667C9.83366 4.39067 10.0577 4.16667 10.3337 4.16667C10.6097 4.16667 10.8337 4.39067 10.8337 4.66667V6.33333Z" fill="#3B3B3E"/>
</svg>
