<svg width="16" height="16" viewBox="0 0 16 16" fill="none" xmlns="http://www.w3.org/2000/svg">
<path d="M14.5002 7.00018V9.00018C14.5002 9.27351 14.2735 9.50018 14.0002 9.50018C13.7268 9.50018 13.5002 9.27351 13.5002 9.00018V8.50018H12.3022C12.2068 9.32285 11.8822 10.0722 11.3955 10.6888L12.2402 11.5335L12.5935 11.1802C12.7935 10.9869 13.1068 10.9869 13.3068 11.1802C13.5002 11.3802 13.5002 11.6936 13.3068 11.8869L11.8868 13.3068C11.7935 13.4002 11.6669 13.4468 11.5335 13.4468C11.4069 13.4468 11.2802 13.4002 11.1802 13.3068C10.9869 13.1068 10.9869 12.7934 11.1802 12.5934L11.5335 12.2403L10.6888 11.3955C10.0722 11.8815 9.32285 12.2068 8.50018 12.3021V13.5002H9.00018C9.27351 13.5002 9.50018 13.7268 9.50018 14.0002C9.50018 14.2735 9.27351 14.5002 9.00018 14.5002H7.00018C6.72685 14.5002 6.50018 14.2735 6.50018 14.0002C6.50018 13.7268 6.72685 13.5002 7.00018 13.5002H7.50018V12.3014C7.29618 12.2781 7.0962 12.2435 6.9022 12.1935C6.75086 12.1542 6.69755 11.9668 6.80755 11.8561L11.8555 6.80812C11.9662 6.69746 12.1541 6.75085 12.1928 6.90285C12.2428 7.09685 12.2775 7.2975 12.3009 7.50083H13.4995V7.00083C13.4995 6.7275 13.7262 6.50083 13.9995 6.50083C14.2729 6.50083 14.5002 6.72685 14.5002 7.00018ZM14.3529 1.64553C14.1569 1.45086 13.8402 1.45148 13.6455 1.64748L12.2429 3.05015L11.8862 2.69354C11.6928 2.50021 11.3795 2.50021 11.1795 2.69354C10.9862 2.89354 10.9862 3.20692 11.1795 3.40692L11.5328 3.76011L10.6888 4.60418C10.0722 4.11752 9.32286 3.79293 8.49953 3.69826V2.50083H8.99953C9.27286 2.50083 9.49953 2.27416 9.49953 2.00083C9.49953 1.7275 9.27286 1.50083 8.99953 1.50083H6.99953C6.7262 1.50083 6.49953 1.7275 6.49953 2.00083C6.49953 2.27416 6.7262 2.50083 6.99953 2.50083H7.49953V3.69826C6.6762 3.79293 5.92682 4.11752 5.31016 4.60418L4.46616 3.76011L4.81952 3.40692C5.01285 3.20692 5.01285 2.89354 4.81952 2.69354C4.61952 2.50021 4.30614 2.50021 4.11281 2.69354L2.69281 4.11346C2.49947 4.30679 2.49947 4.62017 2.69281 4.82017C2.79281 4.9135 2.9195 4.96681 3.05283 4.96681C3.1795 4.96681 3.30619 4.9135 3.40619 4.82017L3.75954 4.46681L4.60353 5.31089C4.11687 5.92756 3.79153 6.67751 3.69753 7.50018H2.50018V7.00018C2.50018 6.72685 2.27351 6.50018 2.00018 6.50018C1.72685 6.50018 1.50018 6.72685 1.50018 7.00018V9.00018C1.50018 9.27351 1.72685 9.50018 2.00018 9.50018C2.27351 9.50018 2.50018 9.27351 2.50018 9.00018V8.50018H3.69753C3.79219 9.32351 4.11687 10.0728 4.60353 10.6895L3.75954 11.5335L3.40619 11.1802C3.20619 10.9869 2.89281 10.9869 2.69281 11.1802C2.49947 11.3802 2.49947 11.6936 2.69281 11.8869L3.04885 12.2429L1.64618 13.6455C1.45084 13.8402 1.44954 14.1569 1.64487 14.3529C1.74221 14.4509 1.87088 14.5002 1.99888 14.5002C2.12621 14.5002 2.25416 14.4515 2.3515 14.3548L14.3529 2.35288C14.5495 2.15688 14.5482 1.84086 14.3529 1.64553Z" fill="#3B3B3E"/>
</svg>
