<svg width="16" height="16" viewBox="0 0 16 16" fill="none" xmlns="http://www.w3.org/2000/svg">
<path d="M10.6663 2H5.33301C3.99967 2 3.33301 2.66667 3.33301 4V14L7.99967 11.3333L12.6663 14V4C12.6663 2.66667 11.9997 2 10.6663 2ZM10.2544 6.55599L9.41439 7.35799C9.35305 7.41666 9.32501 7.50132 9.33968 7.58398L9.53174 8.68132C9.57107 8.90398 9.33307 9.07334 9.12907 8.96867L8.12093 8.45003C8.04493 8.41137 7.95505 8.41137 7.87972 8.45003L6.8724 8.96802C6.6684 9.07335 6.42974 8.90268 6.46908 8.68001L6.66097 7.58398C6.67564 7.50132 6.6476 7.41666 6.58626 7.35799L5.74642 6.55599C5.59175 6.40866 5.67697 6.15134 5.8903 6.12134L7.05241 5.95597C7.13708 5.94397 7.21039 5.89198 7.24772 5.81665L7.75098 4.81803C7.85298 4.61537 8.14767 4.61537 8.24967 4.81803L8.75293 5.81665C8.79093 5.89198 8.8644 5.94397 8.9484 5.95597L10.1104 6.12134C10.3237 6.152 10.4084 6.40866 10.2544 6.55599Z" fill="#3B3B3E"/>
</svg>
