<svg width="16" height="16" viewBox="0 0 16 16" fill="none" xmlns="http://www.w3.org/2000/svg">
<path d="M4.78001 9.33333H2.66667C2.3 9.33333 2 9.03333 2 8.66667V6C2 4.66667 2.66667 4 4 4H10C11.3333 4 12 4.66667 12 6V8.66667C12 9.03333 11.7 9.33333 11.3333 9.33333H9.21999C8.87332 9.33333 8.55333 9.15333 8.37333 8.86L7.56667 7.56667C7.30667 7.14667 6.7 7.14667 6.43333 7.56667L5.62667 8.86C5.44667 9.15333 5.12668 9.33333 4.78001 9.33333V9.33333ZM14 1.5C13.7267 1.5 13.5 1.72667 13.5 2V12C13.5 13.0533 13.0533 13.5 12 13.5H9C7.94667 13.5 7.5 13.0533 7.5 12V11.8333H8.33333C8.60667 11.8333 8.83333 11.6067 8.83333 11.3333C8.83333 11.06 8.60667 10.8333 8.33333 10.8333H5.66667C5.39333 10.8333 5.16667 11.06 5.16667 11.3333C5.16667 11.6067 5.39333 11.8333 5.66667 11.8333H6.5V12C6.5 13.6133 7.38667 14.5 9 14.5H12C13.6133 14.5 14.5 13.6133 14.5 12V2C14.5 1.72667 14.2733 1.5 14 1.5Z" fill="#3B3B3E"/>
</svg>
