<svg width="16" height="16" viewBox="0 0 16 16" fill="none" xmlns="http://www.w3.org/2000/svg">
<path d="M13.3681 9.99365C13.2348 10.087 13.1948 10.2671 13.2882 10.4004C13.6415 10.9271 13.6481 11.5737 13.2615 12.0737C12.6148 12.9137 11.4282 12.827 10.8808 12.0337C10.7675 11.867 10.6941 11.6803 10.6541 11.5003C10.5941 11.1537 10.3209 10.8803 9.97419 10.8136L8.00015 10.4336L6.02611 10.8136C5.67944 10.8803 5.40618 11.1537 5.34618 11.5003C5.30618 11.6803 5.23278 11.867 5.11945 12.0337C4.57278 12.827 3.3855 12.9137 2.73883 12.0737C2.35217 11.5737 2.35881 10.9271 2.71214 10.4004C2.80548 10.2671 2.76548 10.087 2.63215 9.99365C1.86548 9.47365 1.75878 8.33365 2.51878 7.67432C2.87212 7.37432 3.36549 7.26102 3.80549 7.38102C4.18549 7.48769 4.47217 7.70763 4.65884 7.98763C4.85884 8.2943 5.20549 8.46104 5.55882 8.39437L7.33348 8.00033L8.00015 10.429L8.66681 8.00033L10.4408 8.39437C10.7942 8.46104 11.1408 8.2943 11.3408 7.98763C11.5275 7.70763 11.8142 7.48769 12.1942 7.38102C12.6342 7.26102 13.1274 7.37432 13.4808 7.67432C14.2414 8.33365 14.1348 9.47365 13.3681 9.99365ZM8.00015 5.16699C8.27615 5.16699 8.50015 4.94299 8.50015 4.66699V2.66699C8.50015 2.39099 8.27615 2.16699 8.00015 2.16699C7.72415 2.16699 7.50015 2.39099 7.50015 2.66699V4.66699C7.50015 4.94299 7.72415 5.16699 8.00015 5.16699ZM9.64679 5.68701C9.45146 5.49168 9.45146 5.17499 9.64679 4.97966L10.9801 3.64632C11.1755 3.45099 11.4922 3.45099 11.6875 3.64632C11.8828 3.84166 11.8828 4.15835 11.6875 4.35368L10.3542 5.68701C10.2568 5.78435 10.1288 5.83366 10.0008 5.83366C9.8728 5.83366 9.74413 5.78501 9.64679 5.68701ZM4.31346 4.35368C4.11813 4.15835 4.11813 3.84166 4.31346 3.64632C4.50879 3.45099 4.82548 3.45099 5.02082 3.64632L6.35415 4.97966C6.54948 5.17499 6.54948 5.49168 6.35415 5.68701C6.25682 5.78435 6.1288 5.83366 6.0008 5.83366C5.8728 5.83366 5.74478 5.78501 5.64745 5.68701L4.31346 4.35368Z" fill="#3B3B3E"/>
</svg>
