<svg width="16" height="16" viewBox="0 0 16 16" fill="none" xmlns="http://www.w3.org/2000/svg">
<path d="M13.8337 9.00029C13.8337 7.44029 12.5603 6.16695 11.0003 6.16695H3.00033C2.54033 6.16695 2.16699 6.54029 2.16699 7.00029V12.0003C2.16699 13.6136 3.05366 14.5003 4.66699 14.5003H8.66699C10.2803 14.5003 11.167 13.6136 11.167 12.0003V11.8136C12.6537 11.727 13.8337 10.5003 13.8337 9.00029ZM11.167 10.8136V7.18029C12.1003 7.26696 12.8337 8.04029 12.8337 8.99362C12.8337 9.94696 12.1003 10.727 11.167 10.807V10.8136ZM7.88033 3.58028C7.38033 3.07362 7.38033 2.24695 7.88033 1.74695L7.98033 1.64695C8.17366 1.45362 8.49366 1.45362 8.68699 1.64695C8.88032 1.84029 8.88699 2.16028 8.68699 2.35362L8.587 2.45361C8.467 2.57361 8.467 2.76029 8.587 2.88029L8.78699 3.08028C9.28699 3.58695 9.28699 4.41362 8.78699 4.91362L8.68699 5.01362C8.58699 5.11362 8.46033 5.16029 8.33366 5.16029C8.20699 5.16029 8.08033 5.11362 7.98033 5.01362C7.78699 4.82029 7.78033 4.50029 7.98033 4.30696L8.08032 4.20695C8.20032 4.08695 8.20032 3.90028 8.08032 3.78028L7.88033 3.58028ZM4.547 3.58028C4.047 3.07362 4.047 2.24695 4.547 1.74695L4.64699 1.64695C4.84033 1.45362 5.16032 1.45362 5.35366 1.64695C5.54699 1.84029 5.55366 2.16028 5.35366 2.35362L5.25366 2.45361C5.13366 2.57361 5.13366 2.76029 5.25366 2.88029L5.45365 3.08028C5.95365 3.58695 5.95365 4.41362 5.45365 4.91362L5.35366 5.01362C5.25366 5.11362 5.12699 5.16029 5.00033 5.16029C4.87366 5.16029 4.74699 5.11362 4.64699 5.01362C4.45366 4.82029 4.44699 4.50029 4.64699 4.30696L4.74699 4.20695C4.86699 4.08695 4.86699 3.90028 4.74699 3.78028L4.547 3.58028Z" fill="#3B3B3E"/>
</svg>
