<svg width="16" height="16" viewBox="0 0 16 16" fill="none" xmlns="http://www.w3.org/2000/svg">
<path d="M14.5 7.33319V11.3332C14.5 12.9452 13.612 13.8332 12 13.8332H4C2.388 13.8332 1.5 12.9452 1.5 11.3332V4.66652C1.5 3.05452 2.388 2.16652 4 2.16652H9.33333C9.60933 2.16652 9.83333 2.39052 9.83333 2.66652C9.83333 2.94252 9.60933 3.16652 9.33333 3.16652H4C2.94867 3.16652 2.5 3.61519 2.5 4.66652V10.8332L4.19336 9.13983C4.45336 8.87983 4.87997 8.87983 5.13997 9.13983L5.76668 9.76645C5.89335 9.89312 6.10665 9.89312 6.23332 9.76645L9.52669 6.47316C9.78669 6.21316 10.2133 6.21316 10.4733 6.47316L13.5 9.49985V7.33319C13.5 7.05719 13.724 6.83319 14 6.83319C14.276 6.83319 14.5 7.05719 14.5 7.33319ZM5.32869 5.16652C4.86936 5.16652 4.5 5.53985 4.5 5.99985C4.5 6.45985 4.87597 6.83319 5.33464 6.83319C5.79397 6.83319 6.16667 6.45985 6.16667 5.99985C6.16667 5.53985 5.79464 5.16652 5.33464 5.16652H5.32869ZM13.7074 3.66652L14.354 3.01987C14.5493 2.82454 14.5493 2.50785 14.354 2.31252C14.1587 2.11718 13.842 2.11718 13.6466 2.31252L13 2.95916L12.3534 2.31252C12.158 2.11718 11.8413 2.11718 11.646 2.31252C11.4507 2.50785 11.4507 2.82454 11.646 3.01987L12.2926 3.66652L11.646 4.31317C11.4507 4.5085 11.4507 4.82519 11.646 5.02052C11.7433 5.11786 11.8713 5.16717 11.9993 5.16717C12.1273 5.16717 12.2554 5.11852 12.3527 5.02052L12.9993 4.37388L13.646 5.02052C13.7433 5.11786 13.8713 5.16717 13.9993 5.16717C14.1273 5.16717 14.2554 5.11852 14.3527 5.02052C14.548 4.82519 14.548 4.5085 14.3527 4.31317L13.7074 3.66652Z" fill="#3B3B3E"/>
</svg>
