<svg width="16" height="16" viewBox="0 0 16 16" fill="none" xmlns="http://www.w3.org/2000/svg">
<path d="M10.1745 13.5939C9.94518 13.7032 9.6779 13.7846 9.3739 13.8393L4.99385 14.6059C3.53385 14.8659 2.67378 14.2659 2.42045 12.8059L1.39392 6.9726C1.13392 5.5126 1.73388 4.6526 3.19388 4.3926L4.39245 4.18191C4.52912 4.15791 4.64856 4.27726 4.6239 4.41392L3.83988 8.8526C3.48655 10.8726 4.43983 12.2326 6.45316 12.5859C6.45316 12.5859 9.93252 13.1972 10.1119 13.2319C10.3332 13.2719 10.3685 13.5079 10.1745 13.5939ZM12.8065 2.16193L8.42924 1.38991C6.97057 1.13258 6.11186 1.73323 5.85453 3.19257L5.72058 3.95123L4.82523 9.02859C4.5679 10.4879 5.16847 11.3459 6.6278 11.6033L11.0046 12.3753C11.0586 12.3846 11.1053 12.3846 11.1573 12.3919C12.5199 12.5792 13.3311 11.9779 13.5791 10.5726L14.6086 4.73659C14.8666 3.27793 14.2658 2.41926 12.8065 2.16193Z" fill="#3B3B3E"/>
</svg>
