<svg width="16" height="16" viewBox="0 0 16 16" fill="none" xmlns="http://www.w3.org/2000/svg">
<path d="M11.75 2H4.25C2.75 2 2 2.75 2 4.25V11.75C2 13.25 2.75 14 4.25 14H11.75C13.25 14 14 13.25 14 11.75V4.25C14 2.75 13.25 2 11.75 2ZM6 10.6333C6 10.744 5.91063 10.8333 5.79997 10.8333H5.36003C5.06936 10.8333 4.83333 10.5973 4.83333 10.3067V7.84001C4.83333 7.55001 5.07003 7.31331 5.36003 7.31331H5.79997C5.91063 7.31331 6 7.40268 6 7.51335V10.6333ZM11.0793 8L10.3726 10.1133C10.2326 10.54 10.0793 10.8333 9.37264 10.8333H6.86597C6.7553 10.8333 6.66602 10.744 6.66602 10.6333V7.12533C6.66602 7.10399 6.66936 7.08333 6.67603 7.06266L7.39933 4.85999C7.486 4.63332 7.69936 4.5 7.92603 4.5C8.03269 4.5 8.13933 4.52668 8.23267 4.59334C8.526 4.78668 8.6993 5.12001 8.6993 5.47335V6.61332H10.0793C11.1327 6.61332 11.306 7.32 11.0793 8Z" fill="#3B3B3E"/>
</svg>
