<svg width="16" height="16" viewBox="0 0 16 16" fill="none" xmlns="http://www.w3.org/2000/svg">
<path d="M4.00635 4.33268C4.00635 2.86202 5.20235 1.66602 6.67301 1.66602C8.14368 1.66602 9.33968 2.86202 9.33968 4.33268C9.33968 5.80335 8.14368 6.99935 6.67301 6.99935C5.20235 6.99935 4.00635 5.80335 4.00635 4.33268ZM10.705 9.45272C10.705 9.37805 10.6384 9.31198 10.6204 9.29264C10.0404 8.71931 9.19366 8.33268 8.00033 8.33268H5.33366C2.62699 8.33268 1.66699 10.3127 1.66699 12.0127C1.66699 13.5327 2.47366 14.3327 4.00033 14.3327H7.46696C7.52029 14.3327 7.57368 14.3127 7.60702 14.2727C7.64035 14.2394 7.66699 14.1826 7.66699 14.1293V12.9993C7.66699 12.7327 7.77362 12.4793 7.96029 12.2926L10.647 9.59269C10.6803 9.55936 10.705 9.50605 10.705 9.45272ZM8.66699 13V14.666H10.333L13.359 11.6533L11.6797 9.97404L8.66699 13ZM14.4723 9.60734L13.7257 8.86068C13.4657 8.60068 13.0456 8.60068 12.7856 8.86068L12.1457 9.50732L13.825 11.1867L14.4717 10.5467C14.7317 10.2874 14.7317 9.86734 14.4723 9.60734Z" fill="#3B3B3E"/>
</svg>
