<svg width="16" height="16" viewBox="0 0 16 16" fill="none" xmlns="http://www.w3.org/2000/svg">
<path d="M8.66659 9.06038L4.04858 11.8003C3.12925 12.3456 1.94727 11.7064 1.94727 10.6637V5.33561C1.94727 4.29295 3.12925 3.65372 4.04858 4.19906L8.66659 6.93896C9.48525 7.4243 9.48525 8.57505 8.66659 9.06038ZM11.7806 11.6663V4.33301C11.7806 4.05701 11.5566 3.83301 11.2806 3.83301C11.0046 3.83301 10.7806 4.05701 10.7806 4.33301V11.6663C10.7806 11.9423 11.0046 12.1663 11.2806 12.1663C11.5566 12.1663 11.7806 11.9423 11.7806 11.6663ZM14.4473 11.6663V4.33301C14.4473 4.05701 14.2233 3.83301 13.9473 3.83301C13.6713 3.83301 13.4473 4.05701 13.4473 4.33301V11.6663C13.4473 11.9423 13.6713 12.1663 13.9473 12.1663C14.2233 12.1663 14.4473 11.9423 14.4473 11.6663Z" fill="#3B3B3E"/>
</svg>
