<svg width="16" height="16" viewBox="0 0 16 16" fill="none" xmlns="http://www.w3.org/2000/svg">
<path d="M11.75 2H4.25C2.75 2 2 2.75 2 4.25V11.75C2 13.25 2.75 14 4.25 14H11.75C13.25 14 14 13.25 14 11.75V4.25C14 2.75 13.25 2 11.75 2ZM10.9647 5.51139L8.47868 10.7946C8.33801 11.0933 7.902 11.0587 7.81067 10.7407L7.44735 9.46859C7.32068 9.02525 6.97466 8.6794 6.53133 8.55273L5.25932 8.18929C4.94132 8.09862 4.90599 7.66199 5.20532 7.52132L10.4886 5.03532C10.792 4.89265 11.1073 5.20806 10.9647 5.51139Z" fill="#3B3B3E"/>
</svg>
