<svg width="16" height="16" viewBox="0 0 16 16" fill="none" xmlns="http://www.w3.org/2000/svg">
<path d="M14.4915 11.0996C14.5395 11.3716 14.3581 11.6309 14.0861 11.6789L6.97275 12.9309C6.84475 13.7236 6.16144 14.3329 5.33277 14.3329C4.41344 14.3329 3.6661 13.5849 3.6661 12.6663C3.6661 11.9216 4.16014 11.2969 4.83481 11.0836L3.44679 3.18628C3.36745 2.73494 2.93278 2.43428 2.47812 2.51161L2.08212 2.57895C1.81212 2.62361 1.55144 2.44161 1.50611 2.16961C1.46011 1.89695 1.64279 1.63894 1.91545 1.59294L2.30876 1.52627C3.29343 1.35361 4.25607 2.01961 4.4314 3.01227L5.85076 11.0896C6.28009 11.2309 6.63075 11.5389 6.82675 11.9403L13.9128 10.6929C14.1854 10.6456 14.4448 10.8276 14.4915 11.0996ZM11.6047 9.71627L9.18214 10.1436C7.80947 10.3856 7.04946 9.85361 6.80746 8.48094L6.38014 6.05827C6.13814 4.68561 6.67007 3.92561 8.04273 3.68361L10.4654 3.25627C11.8381 3.01427 12.5981 3.54627 12.8401 4.91894L13.2674 7.34161C13.5101 8.71428 12.9781 9.47427 11.6047 9.71627ZM11.0401 5.78961L9.8921 4.98094C9.83743 4.94094 9.77478 4.91295 9.70745 4.89828C9.57811 4.86961 9.44274 4.89428 9.33074 4.96561C9.29207 4.99028 9.26341 5.02427 9.23341 5.05827C9.22007 5.07294 9.20276 5.08228 9.19076 5.09894L8.37281 6.25895C8.21414 6.48428 8.26808 6.79628 8.49342 6.95561C8.58142 7.01761 8.68142 7.04694 8.78142 7.04694C8.93875 7.04694 9.09343 6.97361 9.19076 6.83561L9.31609 6.65761L9.57081 8.10094C9.61281 8.34361 9.8241 8.51428 10.0621 8.51428C10.0908 8.51428 10.1201 8.51161 10.1494 8.50627C10.4214 8.45827 10.6034 8.19895 10.5548 7.92695L10.3021 6.49494L10.4627 6.60827C10.6894 6.76761 11.0007 6.71294 11.1601 6.48761C11.3187 6.26027 11.2648 5.94827 11.0401 5.78961Z" fill="#3B3B3E"/>
</svg>
