<svg width="16" height="16" viewBox="0 0 16 16" fill="none" xmlns="http://www.w3.org/2000/svg">
<path d="M13.1667 13.333C13.1667 13.609 12.9427 13.833 12.6667 13.833H9.2347C9.0367 14.321 8.55933 14.6663 8 14.6663C7.44067 14.6663 6.9633 14.321 6.7653 13.833H3.33333C3.05733 13.833 2.83333 13.609 2.83333 13.333C2.83333 13.057 3.05733 12.833 3.33333 12.833H6.7653C6.90063 12.4997 7.166 12.2337 7.5 12.0983V9.99967H6.33333C3.94 9.99967 2 8.05967 2 5.66634C2 3.27301 3.94 1.33301 6.33333 1.33301C7.43067 1.33301 8.43199 1.74166 9.19466 2.41366C9.516 2.69699 9.79467 3.02703 10.0207 3.39303C10.234 3.35303 10.4473 3.33301 10.6673 3.33301C12.5073 3.33301 14.0007 4.82634 14.0007 6.66634C14.0007 8.50634 12.5073 9.99967 10.6673 9.99967H8.50065V12.0983C8.83398 12.2337 9.10002 12.499 9.23535 12.833H12.6667C12.9427 12.833 13.1667 13.057 13.1667 13.333Z" fill="#3B3B3E"/>
</svg>
