<svg width="16" height="16" viewBox="0 0 16 16" fill="none" xmlns="http://www.w3.org/2000/svg">
<path d="M11.9997 8.66602C10.5263 8.66602 9.33301 9.85935 9.33301 11.3327C9.33301 12.806 10.5263 13.9993 11.9997 13.9993C13.473 13.9993 14.6663 12.806 14.6663 11.3327C14.6663 9.85935 13.473 8.66602 11.9997 8.66602ZM12.833 11.666H11.1663C10.9797 11.666 10.833 11.5193 10.833 11.3327C10.833 11.146 10.9797 10.9993 11.1663 10.9993H12.833C13.0197 10.9993 13.1663 11.146 13.1663 11.3327C13.1663 11.5193 13.0197 11.666 12.833 11.666ZM1.33301 6.49935V9.99935C1.33301 11.3327 1.99967 11.9993 3.33301 11.9993H8.15301C8.26635 11.9993 8.35968 11.906 8.35968 11.7927C8.33968 11.6394 8.33301 11.486 8.33301 11.3327C8.33301 9.31268 9.97967 7.66602 11.9997 7.66602C12.3663 7.66602 12.713 7.71934 13.0463 7.81934C13.073 7.826 13.0997 7.83268 13.1263 7.83268C13.2397 7.83268 13.333 7.74602 13.333 7.63269V6.49935H1.33301ZM5.99967 9.83268H3.99967C3.72634 9.83268 3.49967 9.60602 3.49967 9.33268C3.49967 9.05935 3.72634 8.83268 3.99967 8.83268H5.99967C6.27301 8.83268 6.49967 9.05935 6.49967 9.33268C6.49967 9.60602 6.27301 9.83268 5.99967 9.83268ZM11.333 2.66602H3.33301C1.99967 2.66602 1.33301 3.33268 1.33301 4.66602V5.49935H13.333V4.66602C13.333 3.33268 12.6663 2.66602 11.333 2.66602Z" fill="#3B3B3E"/>
</svg>
