<svg width="16" height="16" viewBox="0 0 16 16" fill="none" xmlns="http://www.w3.org/2000/svg">
<path d="M7.99967 1.33301C4.31767 1.33301 1.33301 4.31767 1.33301 7.99967C1.33301 11.6817 4.31767 14.6663 7.99967 14.6663C11.6817 14.6663 14.6663 11.6817 14.6663 7.99967C14.6663 4.31767 11.6817 1.33301 7.99967 1.33301ZM9.68636 8.35303L7.68636 10.353C7.58903 10.4504 7.46101 10.4997 7.33301 10.4997C7.20501 10.4997 7.07699 10.451 6.97965 10.353C6.78432 10.1577 6.78432 9.841 6.97965 9.64567L8.6263 7.99902L6.97965 6.35238C6.78432 6.15704 6.78432 5.84035 6.97965 5.64502C7.17499 5.44969 7.49168 5.44969 7.68701 5.64502L9.68701 7.64502C9.88168 7.84169 9.88169 8.15769 9.68636 8.35303Z" fill="#3B3B3E"/>
</svg>
