<svg width="16" height="16" viewBox="0 0 16 16" fill="none" xmlns="http://www.w3.org/2000/svg">
<path d="M13.3333 4.66634H2.66667C2.298 4.66634 2 4.36767 2 3.99967C2 3.63167 2.298 3.33301 2.66667 3.33301H13.3333C13.702 3.33301 14 3.63167 14 3.99967C14 4.36767 13.702 4.66634 13.3333 4.66634ZM12 7.99967C12 7.63167 11.702 7.33301 11.3333 7.33301H4.66667C4.298 7.33301 4 7.63167 4 7.99967C4 8.36767 4.298 8.66634 4.66667 8.66634H11.3333C11.702 8.66634 12 8.36767 12 7.99967ZM10 11.9997C10 11.6317 9.702 11.333 9.33333 11.333H6.66667C6.298 11.333 6 11.6317 6 11.9997C6 12.3677 6.298 12.6663 6.66667 12.6663H9.33333C9.702 12.6663 10 12.3677 10 11.9997Z" fill="#3B3B3E"/>
</svg>
