<svg width="16" height="16" viewBox="0 0 16 16" fill="none" xmlns="http://www.w3.org/2000/svg">
<path d="M13.6863 12.3463C14.613 11.1397 15.1663 9.63301 15.1663 7.99967C15.1663 4.04634 11.953 0.833008 7.99967 0.833008C5.65967 0.833008 3.57968 1.96635 2.27301 3.71301C2.25968 3.72635 2.25301 3.73967 2.24634 3.74634C1.36634 4.93967 0.833008 6.40634 0.833008 7.99967C0.833008 9.59301 1.38634 11.1397 2.31301 12.3463C2.31301 12.3463 2.31301 12.3463 2.31968 12.353C3.17968 13.473 4.36634 14.3397 5.73967 14.793C5.75967 14.7997 5.77967 14.8063 5.79967 14.813C6.49301 15.0397 7.23301 15.1597 7.99967 15.1597C8.76634 15.1597 9.50634 15.033 10.1997 14.813C10.2197 14.813 10.2397 14.7997 10.2597 14.793C11.633 14.333 12.813 13.473 13.6797 12.353C13.6797 12.353 13.6797 12.353 13.6863 12.3463ZM3.63967 7.07967L4.91967 7.50634L5.68634 10.573L5.06634 11.4997H2.93301C2.31968 10.613 1.93968 9.56634 1.85968 8.433L3.64634 7.07967H3.63967ZM10.933 11.4997L10.313 10.573L11.0797 7.49967L12.3463 7.07967L14.1397 8.43968C14.0597 9.57301 13.6797 10.6197 13.0663 11.4997H10.933ZM12.8063 4.15301L12.053 6.11967L10.733 6.55967L8.49301 5.06635V3.80635L10.4463 2.34634C11.373 2.75301 12.1797 3.37301 12.8063 4.15301ZM5.53967 2.34634L7.49301 3.80635V5.06635L5.25301 6.55967L3.92634 6.11967L3.17967 4.15968C3.80634 3.37968 4.61301 2.75301 5.54635 2.34634H5.53967ZM6.33967 13.933L5.86634 12.093L6.47967 11.1663H9.50634L10.1197 12.093L9.64634 13.933C9.11967 14.0797 8.56634 14.1663 7.99301 14.1663C7.41968 14.1663 6.86634 14.0797 6.33967 13.933V13.933Z" fill="#3B3B3E"/>
</svg>
