<svg width="16" height="16" viewBox="0 0 16 16" fill="none" xmlns="http://www.w3.org/2000/svg">
<path d="M11.75 2H4.25C2.75 2 2 2.75 2 4.25V11.75C2 13.25 2.75 14 4.25 14H11.75C13.25 14 14 13.25 14 11.75V4.25C14 2.75 13.25 2 11.75 2ZM10.6667 10.5H8C7.724 10.5 7.5 10.276 7.5 10C7.5 9.724 7.724 9.5 8 9.5H10.6667C10.9427 9.5 11.1667 9.724 11.1667 10C11.1667 10.276 10.9427 10.5 10.6667 10.5ZM10.6667 8.5H5.33333C5.05733 8.5 4.83333 8.276 4.83333 8C4.83333 7.724 5.05733 7.5 5.33333 7.5H10.6667C10.9427 7.5 11.1667 7.724 11.1667 8C11.1667 8.276 10.9427 8.5 10.6667 8.5ZM10.6667 6.5H6.66667C6.39067 6.5 6.16667 6.276 6.16667 6C6.16667 5.724 6.39067 5.5 6.66667 5.5H10.6667C10.9427 5.5 11.1667 5.724 11.1667 6C11.1667 6.276 10.9427 6.5 10.6667 6.5Z" fill="#3B3B3E"/>
</svg>
