<svg width="16" height="16" viewBox="0 0 16 16" fill="none" xmlns="http://www.w3.org/2000/svg">
<path d="M13.7077 5.04102L10.9603 2.29362C10.773 2.10629 10.5183 2.00098 10.2529 2.00098H5.74837C5.48304 2.00098 5.22902 2.10629 5.04102 2.29362L2.29362 5.04102C2.10629 5.22835 2.00098 5.48304 2.00098 5.74837V10.2529C2.00098 10.5183 2.10629 10.7723 2.29362 10.9603L5.04102 13.7077C5.22835 13.895 5.48304 14.0003 5.74837 14.0003H10.2529C10.5183 14.0003 10.7723 13.895 10.9603 13.7077L13.7077 10.9603C13.895 10.773 14.0003 10.5183 14.0003 10.2529V5.74837C14.0003 5.48304 13.895 5.22835 13.7077 5.04102ZM7.50033 5.33366C7.50033 5.05766 7.72433 4.83366 8.00033 4.83366C8.27633 4.83366 8.50033 5.05766 8.50033 5.33366V8.00033C8.50033 8.27633 8.27633 8.50033 8.00033 8.50033C7.72433 8.50033 7.50033 8.27633 7.50033 8.00033V5.33366ZM8.01367 10.667C7.64567 10.667 7.34359 10.3683 7.34359 10.0003C7.34359 9.63233 7.639 9.33366 8.007 9.33366H8.01367C8.38234 9.33366 8.68034 9.63233 8.68034 10.0003C8.68034 10.3683 8.38167 10.667 8.01367 10.667Z" fill="#3B3B3E"/>
</svg>
