<svg width="16" height="16" viewBox="0 0 16 16" fill="none" xmlns="http://www.w3.org/2000/svg">
<path d="M6.75967 7.12064L4.58633 9.29398L4.19965 8.90731C3.05965 7.76731 2.16632 5.61397 2.16632 4.00064V2.66731C2.16632 2.46731 2.28632 2.28064 2.47298 2.20731C2.65965 2.12731 2.87965 2.17398 3.01965 2.31398L6.47966 5.77398C6.48632 6.24064 6.58633 6.69397 6.75967 7.12064V7.12064ZM14.353 13.6473L10.2196 9.51398C9.75965 9.50731 9.30631 9.41397 8.88631 9.24064L6.70632 11.414L7.41299 12.1206C7.56632 12.274 7.77965 12.3606 7.99965 12.3606C8.21965 12.3606 8.43299 12.274 8.58632 12.1206L9.99966 10.7073L13.6463 14.354C13.7463 14.454 13.873 14.5006 13.9997 14.5006C14.1263 14.5006 14.253 14.454 14.353 14.354C14.5463 14.1606 14.5463 13.8406 14.353 13.6473ZM14.353 4.98064C14.253 4.88064 14.1263 4.83397 13.9997 4.83397C13.873 4.83397 13.7463 4.88064 13.6463 4.98064L11.6463 6.98064L11.193 6.5273L13.193 4.52064C13.3863 4.32731 13.3863 4.00731 13.193 3.81398C12.9997 3.62064 12.6797 3.62064 12.4863 3.81398L10.493 5.81398L10.1996 5.52064L12.1996 3.51398C12.393 3.32064 12.393 3.00065 12.1996 2.80731C12.0063 2.61398 11.6863 2.61398 11.493 2.80731L9.49966 4.80731L9.03298 4.34064L11.033 2.34064C11.2263 2.1473 11.2263 1.82731 11.033 1.63397C10.933 1.53397 10.8063 1.4873 10.6796 1.4873C10.553 1.4873 10.4263 1.53397 10.3263 1.63397L8.32632 3.63397C7.78632 4.17397 7.48633 4.89397 7.48633 5.65397C7.48633 6.23397 7.66632 6.77397 7.97966 7.2473C7.98632 7.26064 7.99966 7.27397 8.00633 7.2873L1.65965 13.634C1.46632 13.8273 1.46632 14.1473 1.65965 14.3406C1.75965 14.4406 1.88631 14.4873 2.01298 14.4873C2.13965 14.4873 2.26631 14.4406 2.36631 14.3406L8.71299 7.99398C8.71299 7.99398 8.73966 8.01397 8.75299 8.02064C9.23966 8.34064 9.78631 8.5073 10.3463 8.5073C11.0796 8.5073 11.8063 8.23397 12.3663 7.67397L14.3663 5.67397C14.5596 5.48064 14.5596 5.16064 14.3663 4.96731L14.353 4.98064Z" fill="#3B3B3E"/>
</svg>
