<svg width="16" height="16" viewBox="0 0 16 16" fill="none" xmlns="http://www.w3.org/2000/svg">
<path d="M4.68654 13.12C4.17987 13.6267 2.2532 14.1067 2.03987 14.16C2.02654 14.16 2.0132 14.16 1.99987 14.16C1.9532 14.16 1.91321 14.14 1.87988 14.1133C1.83988 14.0733 1.81988 14.0133 1.83988 13.9533C1.89988 13.7267 2.44655 11.72 2.94655 11.2133C3.20655 10.9533 3.54653 10.8067 3.88653 10.82C4.2132 10.8267 4.53321 10.9667 4.77988 11.2133C5.27988 11.7133 5.2332 12.5667 4.67986 13.12H4.68654ZM5.15986 4.88C3.95986 5.07333 2.93321 5.9 2.48655 7.02667L1.84653 8.62C1.81986 8.67333 1.8332 8.74 1.8732 8.78667C1.90654 8.82667 1.9532 8.84666 1.99987 8.84666C2.0132 8.84666 2.02653 8.84667 2.0332 8.84L4.27988 8.34C4.70655 6.96 5.12653 5.85333 5.9332 4.72L5.15986 4.88V4.88ZM7.67321 11.72C9.03988 11.3333 10.1465 10.9333 11.2865 10.1333L11.1332 10.8533C10.9465 12.0467 10.1199 13.0667 8.98655 13.5133L7.3932 14.1533C7.3932 14.1533 7.3532 14.1667 7.3332 14.1667C7.2932 14.1667 7.2532 14.1533 7.22654 14.1267C7.17987 14.0867 7.15988 14.0267 7.17321 13.9667L7.67321 11.72V11.72ZM5.5132 6.84666L9.18654 10.5133C8.76654 10.6867 8.32654 10.8333 7.83988 10.9733C7.51988 11.0667 7.17321 11.16 6.81321 11.26C6.78654 11.26 6.7532 11.2733 6.72654 11.2733C6.63987 11.2733 6.55321 11.24 6.48655 11.1733L4.80653 9.49333C4.71987 9.40667 4.68654 9.27333 4.72654 9.16C4.8332 8.81333 4.9332 8.48667 5.0332 8.17333C5.18653 7.7 5.33986 7.26 5.5132 6.84666ZM13.8465 2.38667C13.8199 2.25333 13.7199 2.15333 13.5799 2.12667C13.2999 2.07333 12.7732 2 12.1132 2C10.8332 2 9.06653 2.28667 7.74653 3.61333C7.4132 3.94667 7.12654 4.26 6.8732 4.56667C6.42654 5.11333 6.08654 5.64667 5.81321 6.20667C5.81321 6.20667 5.81764 6.20889 5.82653 6.21333L9.82653 10.2067L9.83988 10.22C10.3865 9.96 10.8999 9.63333 11.4332 9.20667C11.7532 8.94667 12.0865 8.64666 12.4332 8.3C14.4399 6.29333 14.0065 3.22 13.8465 2.38667V2.38667ZM10.1665 7.34666C9.33987 7.34666 8.66654 6.68 8.66654 5.85333C8.66654 5.02667 9.33987 4.35333 10.1665 4.35333C10.9932 4.35333 11.6665 5.02667 11.6665 5.85333C11.6665 6.68 10.9932 7.34666 10.1665 7.34666Z" fill="#3B3B3E"/>
</svg>
