<svg width="16" height="16" viewBox="0 0 16 16" fill="none" xmlns="http://www.w3.org/2000/svg">
<path d="M11.75 2H4.25C2.75 2 2 2.75 2 4.25V11.75C2 13.25 2.75 14 4.25 14H11.75C13.25 14 14 13.25 14 11.75V4.25C14 2.75 13.25 2 11.75 2ZM10.5 8.66667C10.5 8.94267 10.276 9.16667 10 9.16667C9.724 9.16667 9.5 8.94267 9.5 8.66667V7.20736L6.35335 10.354C6.25602 10.4513 6.128 10.5007 6 10.5007C5.872 10.5007 5.74398 10.452 5.64665 10.354C5.45131 10.1587 5.45131 9.84198 5.64665 9.64665L8.79329 6.5H7.33333C7.05733 6.5 6.83333 6.276 6.83333 6C6.83333 5.724 7.05733 5.5 7.33333 5.5H10C10.0653 5.5 10.1301 5.5134 10.1914 5.53874C10.3134 5.5894 10.4107 5.68674 10.4621 5.80941C10.4874 5.87074 10.5007 5.93532 10.5007 6.00065V8.66667H10.5Z" fill="#3B3B3E"/>
</svg>
