<svg width="16" height="16" viewBox="0 0 16 16" fill="none" xmlns="http://www.w3.org/2000/svg">
<path fill-rule="evenodd" clip-rule="evenodd" d="M11.3693 14.0005H4.63195C3.82662 14.0005 3.13663 13.4245 2.99263 12.6325L2.02257 7.31114C1.93591 6.83514 2.11392 6.34917 2.48726 6.0425L6.94193 2.38048C7.55726 1.87448 8.4446 1.87448 9.05993 2.38048L13.5146 6.0425C13.8886 6.34984 14.0659 6.83514 13.9793 7.31114L13.0092 12.6332C12.8646 13.4245 12.1746 14.0005 11.3693 14.0005ZM8.0006 8.53388C8.79127 8.53388 9.43395 7.8912 9.43395 7.10053C9.43395 6.30986 8.7906 5.66718 8.0006 5.66718C7.2106 5.66718 6.56725 6.30986 6.56725 7.10053C6.56725 7.8912 7.20994 8.53388 8.0006 8.53388ZM10.3339 11.1319V11.3338C10.3339 11.5178 10.1846 11.6672 10.0006 11.6672H6.0006C5.8166 11.6672 5.66727 11.5178 5.66727 11.3338V11.1319C5.66727 10.2385 6.32129 9.33385 7.57262 9.33385H8.42793C9.67993 9.33385 10.3339 10.2379 10.3339 11.1319Z" fill="#3B3B3E"/>
</svg>
