<svg width="16" height="16" viewBox="0 0 16 16" fill="none" xmlns="http://www.w3.org/2000/svg">
<path d="M7.99967 1.66699C4.87501 1.66699 2.33301 4.20899 2.33301 7.33366C2.33301 10.6557 5.41901 12.6943 7.46101 14.043L7.81434 14.2777C7.87034 14.315 7.935 14.3337 7.999 14.3337C8.063 14.3337 8.12768 14.315 8.18368 14.2777L8.53701 14.043C10.579 12.6943 13.665 10.6557 13.665 7.33366C13.6663 4.20899 11.1243 1.66699 7.99967 1.66699ZM10.0197 6.79834L7.79768 9.02035C7.70035 9.11768 7.57235 9.16699 7.44435 9.16699C7.31635 9.16699 7.18834 9.11835 7.091 9.02035L5.97968 7.90902C5.78434 7.71368 5.78434 7.39699 5.97968 7.20166C6.17501 7.00633 6.49168 7.00633 6.68701 7.20166L7.44435 7.95898L9.31301 6.09033C9.50834 5.895 9.82501 5.895 10.0203 6.09033C10.2157 6.28567 10.215 6.60301 10.0197 6.79834Z" fill="#3B3B3E"/>
</svg>
