<svg width="16" height="16" viewBox="0 0 16 16" fill="none" xmlns="http://www.w3.org/2000/svg">
<path d="M12 4.66699H8.66667L6.66667 2.66699H4C2.66667 2.66699 2 3.33366 2 4.66699V11.3337C2 12.667 2.66667 13.3337 4 13.3337H12C13.3333 13.3337 14 12.667 14 11.3337V6.66699C14 5.33366 13.3333 4.66699 12 4.66699ZM8 9.83366H5.87402L6.354 10.3137C6.54934 10.509 6.54934 10.8257 6.354 11.021C6.25667 11.1183 6.12865 11.1677 6.00065 11.1677C5.87265 11.1677 5.74463 11.119 5.6473 11.021L4.31396 9.68766C4.26796 9.64166 4.23139 9.58632 4.20605 9.52498C4.15539 9.40298 4.15539 9.26499 4.20605 9.14299C4.23139 9.08165 4.26796 9.02633 4.31396 8.98033L5.6473 7.64699C5.84263 7.45166 6.15932 7.45166 6.35466 7.64699C6.54999 7.84233 6.54999 8.159 6.35466 8.35433L5.87467 8.83433H8C8.276 8.83433 8.5 9.05833 8.5 9.33433C8.5 9.61033 8.276 9.83366 8 9.83366Z" fill="#3B3B3E"/>
</svg>
