<svg width="16" height="16" viewBox="0 0 16 16" fill="none" xmlns="http://www.w3.org/2000/svg">
<path d="M9.49967 6.66634C9.49967 7.12567 9.12567 7.49967 8.66634 7.49967H6.49967V5.83301H8.66634C9.12567 5.83301 9.49967 6.20701 9.49967 6.66634ZM14.6663 7.99967C14.6663 11.6817 11.6817 14.6663 7.99967 14.6663C4.31767 14.6663 1.33301 11.6817 1.33301 7.99967C1.33301 4.31767 4.31767 1.33301 7.99967 1.33301C11.6817 1.33301 14.6663 4.31767 14.6663 7.99967ZM9.39827 8.34505C10.0456 8.06172 10.4997 7.41701 10.4997 6.66634C10.4997 5.65501 9.67767 4.83301 8.66634 4.83301H5.99967C5.72367 4.83301 5.49967 5.05701 5.49967 5.33301V10.6663C5.49967 10.9423 5.72367 11.1663 5.99967 11.1663C6.27567 11.1663 6.49967 10.9423 6.49967 10.6663V8.49967H8.35693L9.55241 10.8896C9.64041 11.065 9.81633 11.1663 10.0003 11.1663C10.075 11.1663 10.1516 11.1496 10.223 11.1136C10.4703 10.9896 10.5703 10.6897 10.4469 10.443L9.39827 8.34505Z" fill="#3B3B3E"/>
</svg>
