<svg width="16" height="16" viewBox="0 0 16 16" fill="none" xmlns="http://www.w3.org/2000/svg">
<path d="M7.99967 1.66699C4.87501 1.66699 2.33301 4.20899 2.33301 7.33366C2.33301 10.6557 5.41902 12.6943 7.46102 14.043L7.81433 14.2777C7.87033 14.315 7.93502 14.3337 7.99902 14.3337C8.06302 14.3337 8.12767 14.315 8.18367 14.2777L8.53703 14.043C10.579 12.6943 13.665 10.6557 13.665 7.33366C13.6663 4.20899 11.1243 1.66699 7.99967 1.66699ZM7.49967 5.33366C7.49967 5.05766 7.72367 4.83366 7.99967 4.83366C8.27567 4.83366 8.49967 5.05766 8.49967 5.33366V7.33366C8.49967 7.60966 8.27567 7.83366 7.99967 7.83366C7.72367 7.83366 7.49967 7.60966 7.49967 7.33366V5.33366ZM8.01302 10.0003C7.64502 10.0003 7.34302 9.70166 7.34302 9.33366C7.34302 8.96566 7.63835 8.66699 8.00635 8.66699H8.01302C8.38169 8.66699 8.67969 8.96566 8.67969 9.33366C8.67969 9.70166 8.38102 10.0003 8.01302 10.0003Z" fill="#3B3B3E"/>
</svg>
