<svg width="16" height="16" viewBox="0 0 16 16" fill="none" xmlns="http://www.w3.org/2000/svg">
<path d="M8.00033 11.6667C10.2937 11.6667 12.2337 11.0334 13.3337 10.0334V11.3333C13.3337 12.8067 10.947 14 8.00033 14C5.05366 14 2.66699 12.8067 2.66699 11.3333V10.0334C3.77366 11.0334 5.70699 11.6667 8.00033 11.6667ZM2.66699 6.70003V8C2.66699 9.47333 5.05366 10.6667 8.00033 10.6667C10.947 10.6667 13.3337 9.47333 13.3337 8V6.70003C12.2337 7.70003 10.2937 8.33333 8.00033 8.33333C5.70699 8.33333 3.77366 7.70003 2.66699 6.70003ZM8.00033 7.33333C10.9457 7.33333 13.3337 6.13933 13.3337 4.66667C13.3337 3.194 10.9457 2 8.00033 2C5.05499 2 2.66699 3.194 2.66699 4.66667C2.66699 6.13933 5.05499 7.33333 8.00033 7.33333Z" fill="#3B3B3E"/>
</svg>
