<svg width="16" height="16" viewBox="0 0 16 16" fill="none" xmlns="http://www.w3.org/2000/svg">
<path d="M11.0797 2H3.58634C2.07968 2 1.33301 2.74674 1.33301 4.24674V11.7467C1.33301 13.2467 2.07968 14 3.58634 14H9.67968C9.75968 14 9.83901 13.9586 9.86235 13.8779C9.86901 13.8513 9.87435 13.8293 9.87968 13.8L9.91767 13.5913C9.91767 13.5913 9.93234 13.5254 9.913 13.4774C9.89567 13.4327 9.85901 13.3966 9.85901 13.3966L9.38634 12.9466C9.03968 12.6133 8.91301 12.12 9.05967 11.66C9.20634 11.1933 9.59967 10.8666 10.0797 10.8L10.8597 10.6867L11.193 10.0334C11.4063 9.60003 11.8463 9.33333 12.333 9.33333C12.5863 9.33333 12.833 9.40671 13.033 9.54004C13.1597 9.62671 13.333 9.5267 13.333 9.3667V4.24674C13.333 2.74674 12.5863 2 11.0797 2ZM11.0197 7.02002L9.15767 8.882C8.70367 9.33667 7.96301 9.33732 7.50834 8.88265L6.44901 7.82601C6.38367 7.76068 6.27835 7.76068 6.21301 7.82601L4.35235 9.68669C4.25501 9.78402 4.127 9.83333 3.999 9.83333C3.871 9.83333 3.743 9.78469 3.64567 9.68669C3.45034 9.49135 3.45034 9.17466 3.64567 8.97933L5.50634 7.11865C5.961 6.66399 6.701 6.664 7.15567 7.118L8.21501 8.17464C8.28034 8.23931 8.38568 8.23931 8.45101 8.17464L10.313 6.31266C10.5083 6.11733 10.825 6.11733 11.0203 6.31266C11.2157 6.508 11.215 6.82469 11.0197 7.02002ZM13.7463 13.0267C13.6863 13.08 13.6597 13.1666 13.673 13.2533L13.8663 14.3467C13.893 14.5267 13.753 14.6667 13.593 14.6667C13.5463 14.6667 13.5063 14.66 13.4597 14.6333L12.453 14.1133C12.413 14.0999 12.373 14.0866 12.333 14.0866C12.293 14.0866 12.253 14.0999 12.213 14.1133L11.2063 14.6333C11.1597 14.6533 11.1197 14.6667 11.073 14.6667C10.913 14.6667 10.773 14.52 10.7997 14.3467L10.993 13.2533C11.0063 13.1666 10.9797 13.08 10.9197 13.0267L10.0797 12.2201C9.92634 12.0734 10.0063 11.82 10.2197 11.7866L11.3863 11.62C11.4663 11.6133 11.5397 11.56 11.5797 11.4867L12.0863 10.4867C12.133 10.3867 12.233 10.3333 12.333 10.3333C12.433 10.3333 12.533 10.3867 12.5797 10.4867L13.0863 11.4867C13.1263 11.56 13.1997 11.6133 13.2797 11.62L14.4463 11.7866C14.6597 11.82 14.7397 12.0734 14.5863 12.2201L13.7463 13.0267Z" fill="#3B3B3E"/>
</svg>
