<svg width="16" height="16" viewBox="0 0 16 16" fill="none" xmlns="http://www.w3.org/2000/svg">
<path d="M9.05534 7.61165C9.05534 8.40832 8.40733 9.05632 7.61133 9.05632C6.81466 9.05632 6.16667 8.40832 6.16667 7.61165C6.16667 6.81499 6.81466 6.16699 7.61133 6.16699C8.40733 6.16699 9.05534 6.81499 9.05534 7.61165ZM14 8.00098C14 11.335 11.3133 13.335 8 13.335C7.14667 13.335 6.33994 13.2017 5.60661 12.9483C4.71327 13.9017 3.25331 14.0283 2.30664 13.995C2.01997 13.9883 1.89328 13.6216 2.11328 13.435C2.83995 12.8483 3.19997 12.115 3.29997 11.475C2.48663 10.595 2 9.41431 2 8.00098C2 4.66698 4.68667 2.66699 8 2.66699C11.3133 2.66699 14 4.66698 14 8.00098ZM10.6867 9.98031L9.65332 8.94702C9.90532 8.56235 10.0547 8.10434 10.0547 7.611C10.0547 6.26367 8.95801 5.16634 7.61068 5.16634C6.26268 5.16634 5.16602 6.263 5.16602 7.611C5.16602 8.959 6.26268 10.0557 7.61068 10.0557C8.10401 10.0557 8.56196 9.90631 8.94596 9.65365L9.97868 10.6864C10.076 10.7837 10.204 10.833 10.332 10.833C10.46 10.833 10.5881 10.7844 10.6854 10.6864C10.8821 10.4917 10.882 10.1756 10.6867 9.98031Z" fill="#3B3B3E"/>
</svg>
