<svg width="16" height="16" viewBox="0 0 16 16" fill="none" xmlns="http://www.w3.org/2000/svg">
<path d="M4.66667 11.167H11.3333V13.1337C11.3333 13.247 11.2467 13.3337 11.1333 13.3337H4.86666C4.75333 13.3337 4.66667 13.247 4.66667 13.1337V11.167V11.167ZM14 5.33366L12.3333 7.00033L11.3333 6.00033V8.16699H4.66667V6.00033L3.66667 7.00033L2 5.33366L4.27332 3.06032C4.52665 2.80699 4.86 2.66699 5.21334 2.66699H6.00667C6.17334 2.66699 6.32669 2.77366 6.35335 2.94033C6.48002 3.73366 7.17333 4.33366 8 4.33366C8.82667 4.33366 9.51331 3.72699 9.64665 2.94033C9.67331 2.78033 9.82666 2.66699 9.99333 2.66699H10.7867C11.14 2.66699 11.48 2.80699 11.7267 3.06032L14 5.33366ZM10.3467 6.66699C10.3467 6.30033 10.0467 6.00033 9.68001 6.00033H9.67334C9.30667 6.00033 9.01335 6.30033 9.01335 6.66699C9.01335 7.03366 9.31335 7.33366 9.68001 7.33366C10.0467 7.33366 10.3467 7.03366 10.3467 6.66699ZM4.66667 10.167H11.3333V9.16699H4.66667V10.167Z" fill="#3B3B3E"/>
</svg>
