<svg width="16" height="16" viewBox="0 0 16 16" fill="none" xmlns="http://www.w3.org/2000/svg">
<path d="M11.667 14.0003L9.8203 13.2603C8.86696 12.8803 7.80032 12.8803 6.84699 13.2603L5.00031 14.0003L5.91372 10.787C5.99372 10.8003 6.06696 10.807 6.14696 10.8136C6.19363 10.8136 6.24027 10.8203 6.29361 10.8203H6.47362L6.60692 10.9537C7.06692 11.4137 7.68031 11.667 8.33364 11.667C8.98698 11.667 9.60037 11.4137 10.0604 10.9537L10.1937 10.8203H10.3737C10.427 10.8203 10.4737 10.8136 10.5203 10.8136C10.6003 10.807 10.6736 10.8003 10.7536 10.787L11.667 14.0003ZM12.2443 7.35431L12.0317 7.56696C11.8964 7.70229 11.8203 7.88629 11.8203 8.07762V8.37629C11.8203 9.15162 11.2076 9.77962 10.4403 9.81362C10.4189 9.81429 10.3983 9.8203 10.3763 9.8203H10.0776C9.88629 9.8203 9.70238 9.89631 9.56704 10.0316L9.35431 10.2443C8.79031 10.8083 7.87631 10.8083 7.31297 10.2443L7.10025 10.0316C6.96491 9.89631 6.781 9.8203 6.58967 9.8203H6.291C6.269 9.8203 6.24904 9.81496 6.22704 9.81362C5.46037 9.77962 4.84699 9.15162 4.84699 8.37629V8.07762C4.84699 7.88629 4.7709 7.70229 4.63557 7.56696L4.423 7.35431C3.859 6.79031 3.859 5.87631 4.423 5.31297L4.63557 5.10033C4.7709 4.96499 4.84699 4.781 4.84699 4.58967V4.291C4.84699 3.49367 5.49302 2.84699 6.29035 2.84699H6.58902C6.78035 2.84699 6.96426 2.77098 7.0996 2.63565L7.31232 2.423C7.87632 1.859 8.79033 1.859 9.35366 2.423L9.56639 2.63565C9.70173 2.77098 9.88564 2.84699 10.077 2.84699H10.3756C11.173 2.84699 11.819 3.493 11.819 4.291V4.58967C11.819 4.781 11.8949 4.96499 12.0303 5.10033L12.243 5.31297C12.8077 5.87631 12.8076 6.79098 12.2443 7.35431ZM10.0003 6.33364C10.0003 5.41298 9.25431 4.66698 8.33364 4.66698C7.41298 4.66698 6.66698 5.41298 6.66698 6.33364C6.66698 7.25431 7.41298 8.00031 8.33364 8.00031C9.25431 8.00031 10.0003 7.25431 10.0003 6.33364Z" fill="#3B3B3E"/>
</svg>
