<svg width="16" height="16" viewBox="0 0 16 16" fill="none" xmlns="http://www.w3.org/2000/svg">
<path d="M10.6663 11.9998H9.33301C8.96434 11.9998 8.66634 11.7012 8.66634 11.3332C8.66634 10.9652 8.96434 10.6665 9.33301 10.6665H10.6663C12.137 10.6665 13.333 9.47051 13.333 7.99984C13.333 6.52918 12.137 5.33318 10.6663 5.33318H9.33301C8.96434 5.33318 8.66634 5.03451 8.66634 4.66651C8.66634 4.29851 8.96434 3.99984 9.33301 3.99984H10.6663C12.8723 3.99984 14.6663 5.79451 14.6663 7.99984C14.6663 10.2052 12.8723 11.9998 10.6663 11.9998ZM7.33301 11.3332C7.33301 10.9652 7.03501 10.6665 6.66634 10.6665H5.33301C3.86234 10.6665 2.66634 9.47051 2.66634 7.99984C2.66634 6.52918 3.86234 5.33318 5.33301 5.33318H6.66634C7.03501 5.33318 7.33301 5.03451 7.33301 4.66651C7.33301 4.29851 7.03501 3.99984 6.66634 3.99984H5.33301C3.12701 3.99984 1.33301 5.79451 1.33301 7.99984C1.33301 10.2052 3.12701 11.9998 5.33301 11.9998H6.66634C7.03501 11.9998 7.33301 11.7012 7.33301 11.3332ZM7.47103 3.13784C7.73169 2.87784 7.73169 2.45517 7.47103 2.19517L6.80436 1.52851C6.5437 1.26784 6.12232 1.26784 5.86165 1.52851C5.60099 1.78851 5.60099 2.21118 5.86165 2.47118L6.52832 3.13784C6.65832 3.26784 6.82901 3.33318 6.99967 3.33318C7.17034 3.33318 7.34103 3.26784 7.47103 3.13784ZM9.47103 3.13784L10.1377 2.47118C10.3984 2.21118 10.3984 1.78851 10.1377 1.52851C9.87703 1.26784 9.45565 1.26784 9.19499 1.52851L8.52832 2.19517C8.26765 2.45517 8.26765 2.87784 8.52832 3.13784C8.65832 3.26784 8.82901 3.33318 8.99967 3.33318C9.17034 3.33318 9.34103 3.26784 9.47103 3.13784ZM10.1377 14.4712C10.3984 14.2112 10.3984 13.7885 10.1377 13.5285L9.47103 12.8618C9.21036 12.6012 8.78899 12.6012 8.52832 12.8618C8.26765 13.1218 8.26765 13.5445 8.52832 13.8045L9.19499 14.4712C9.32499 14.6012 9.49567 14.6665 9.66634 14.6665C9.83701 14.6665 10.0077 14.6012 10.1377 14.4712ZM6.80436 14.4712L7.47103 13.8045C7.73169 13.5445 7.73169 13.1218 7.47103 12.8618C7.21036 12.6012 6.78899 12.6012 6.52832 12.8618L5.86165 13.5285C5.60099 13.7885 5.60099 14.2112 5.86165 14.4712C5.99165 14.6012 6.16234 14.6665 6.33301 14.6665C6.50367 14.6665 6.67436 14.6012 6.80436 14.4712Z" fill="#3B3B3E"/>
</svg>
