<svg width="16" height="16" viewBox="0 0 16 16" fill="none" xmlns="http://www.w3.org/2000/svg">
<path d="M11.1385 11.5285C11.3992 11.7892 11.3992 12.2105 11.1385 12.4712C11.0085 12.6012 10.8378 12.6665 10.6672 12.6665C10.4965 12.6665 10.3258 12.6012 10.1958 12.4712L8.00051 10.2759L5.8052 12.4712C5.54453 12.7319 5.12316 12.7319 4.86249 12.4712C4.60183 12.2105 4.60183 11.7892 4.86249 11.5285L7.52916 8.86184C7.78983 8.60117 8.2112 8.60117 8.47187 8.86184L11.1385 11.5285ZM7.52916 7.13788C7.65916 7.26788 7.82985 7.3332 8.00051 7.3332C8.17118 7.3332 8.34187 7.26788 8.47187 7.13788L11.1385 4.47122C11.3992 4.21055 11.3992 3.78917 11.1385 3.52851C10.8779 3.26784 10.4565 3.26784 10.1958 3.52851L8.00051 5.72382L5.8052 3.52851C5.54453 3.26784 5.12316 3.26784 4.86249 3.52851C4.60183 3.78917 4.60183 4.21055 4.86249 4.47122L7.52916 7.13788Z" fill="#3B3B3E"/>
</svg>
