<svg width="16" height="16" viewBox="0 0 16 16" fill="none" xmlns="http://www.w3.org/2000/svg">
<path d="M14.333 8.15301C14.333 10.1797 13.613 11.893 12.3597 13.053C11.2663 14.0663 9.76636 14.6663 7.97302 14.6663C5.37969 14.6663 3.13301 13.1663 2.04635 10.9863C1.59301 10.0863 1.33301 9.07301 1.33301 7.99967C1.33301 6.92634 1.59301 5.913 2.04635 5.013C3.13968 2.833 5.37969 1.33301 7.97302 1.33301C9.76636 1.33301 11.2663 1.993 12.413 3.073L10.5197 4.973C9.82636 4.313 8.95302 3.973 7.97302 3.973C6.23969 3.973 4.773 5.14634 4.24634 6.72634C4.113 7.12634 4.033 7.55301 4.033 7.99967C4.033 8.44634 4.10634 8.87301 4.24634 9.27301C4.773 10.8597 6.23969 12.0263 7.97302 12.0263C8.86636 12.0263 9.62636 11.7797 10.2264 11.3797C10.9264 10.9063 11.393 10.213 11.553 9.393H7.97302V6.88633H14.2264C14.293 7.293 14.333 7.70634 14.333 8.14634V8.15301Z" fill="#3B3B3E"/>
</svg>
