<svg width="16" height="16" viewBox="0 0 16 16" fill="none" xmlns="http://www.w3.org/2000/svg">
<path d="M7.08076 2.06859C4.88009 2.39592 3.00075 3.97592 2.31009 6.09126C1.79875 7.65726 1.95668 9.21525 2.55602 10.5046C2.69602 10.7979 2.69606 11.1379 2.59606 11.4512L2.036 13.1173C1.86 13.6406 2.35934 14.1399 2.88268 13.9639L4.54934 13.4039C4.86268 13.3039 5.20264 13.3039 5.49531 13.4439C6.25531 13.7972 7.10866 13.9972 8.00133 13.9972C8.33666 13.9972 8.66735 13.9712 8.98668 13.9186C9.10535 13.8992 9.17268 13.7779 9.13935 13.6626C9.02868 13.2719 8.98065 12.8552 9.00865 12.4199C9.12599 10.6199 10.622 9.12322 12.4227 9.00589C12.858 8.97789 13.2741 9.02592 13.6654 9.13658C13.7807 9.16925 13.9014 9.10191 13.9214 8.98391C13.9741 8.66458 14 8.3339 14 7.99856C14 4.3839 10.8014 1.51526 7.08076 2.06859ZM8.66669 9.83324H5.33336C5.05736 9.83324 4.83336 9.60924 4.83336 9.33324C4.83336 9.05724 5.05736 8.83324 5.33336 8.83324H8.66669C8.94269 8.83324 9.16669 9.05724 9.16669 9.33324C9.16669 9.60924 8.94269 9.83324 8.66669 9.83324ZM10.6667 7.16657H5.33336C5.05736 7.16657 4.83336 6.94257 4.83336 6.66657C4.83336 6.39057 5.05736 6.16657 5.33336 6.16657H10.6667C10.9427 6.16657 11.1667 6.39057 11.1667 6.66657C11.1667 6.94257 10.9427 7.16657 10.6667 7.16657ZM14.5 12.3332C14.5 12.6092 14.276 12.8332 14 12.8332H12.8334V13.9999C12.8334 14.2759 12.6094 14.4999 12.3334 14.4999C12.0574 14.4999 11.8334 14.2759 11.8334 13.9999V12.8332H10.6667C10.3907 12.8332 10.1667 12.6092 10.1667 12.3332C10.1667 12.0572 10.3907 11.8332 10.6667 11.8332H11.8334V10.6666C11.8334 10.3906 12.0574 10.1666 12.3334 10.1666C12.6094 10.1666 12.8334 10.3906 12.8334 10.6666V11.8332H14C14.276 11.8332 14.5 12.0572 14.5 12.3332Z" fill="#3B3B3E"/>
</svg>
