<svg width="16" height="16" viewBox="0 0 16 16" fill="none" xmlns="http://www.w3.org/2000/svg">
<path d="M14.5005 3.453C14.5005 4.01967 14.1805 4.44634 13.7271 4.59967C13.6071 4.64634 13.4738 4.66634 13.3338 4.66634C12.6871 4.66634 12.1671 4.173 12.1671 3.453C12.1671 3.273 12.2138 3.08634 12.2871 2.89301C12.5871 2.11967 13.3338 1.33301 13.3338 1.33301C13.3338 1.33301 14.5005 2.55967 14.5005 3.453ZM14.6671 7.99967C14.6671 11.7397 11.5738 14.7663 7.80714 14.6663C4.32714 14.5663 1.42712 11.673 1.33379 8.193C1.22712 4.42634 4.25379 1.33301 8.00046 1.33301C9.20712 1.33301 10.3271 1.65301 11.3005 2.21301C11.3871 2.26635 11.4205 2.37301 11.3805 2.46634C11.2538 2.79301 11.1604 3.12634 11.1604 3.45968C11.1604 4.69968 12.1138 5.673 13.3271 5.673C13.5604 5.673 13.7738 5.63968 13.9871 5.57301C14.0938 5.53968 14.2004 5.58634 14.2404 5.68634C14.5138 6.40634 14.6604 7.18634 14.6604 8.00634L14.6671 7.99967ZM5.72714 6.16634C5.93381 6.16634 6.12711 6.29968 6.19378 6.49301C6.26711 6.69968 6.46046 6.83301 6.66712 6.83301C6.72046 6.83301 6.77379 6.82635 6.83379 6.80635C7.09379 6.71301 7.2338 6.433 7.14047 6.173C6.9338 5.573 6.36714 5.16634 5.72714 5.16634C5.08714 5.16634 4.52044 5.56634 4.31377 6.173C4.2271 6.433 4.36045 6.71968 4.62045 6.80635C4.88712 6.89968 5.16713 6.75967 5.25379 6.49967C5.32046 6.30634 5.5138 6.173 5.72047 6.173L5.72714 6.16634ZM10.6604 9.88634C10.7204 9.61968 10.4405 9.41301 10.1871 9.51967C8.73381 10.0997 7.28044 10.0997 5.82044 9.51967C5.56711 9.41967 5.28047 9.61968 5.34714 9.88634C5.62714 11.0997 6.70713 11.9997 8.00713 11.9997C9.30713 11.9997 10.3871 11.0997 10.6671 9.88634H10.6604ZM11.6871 6.16634C11.4805 5.56634 10.9138 5.15968 10.2738 5.15968C9.63377 5.15968 9.06711 5.55967 8.86044 6.16634C8.77377 6.42634 8.90712 6.71301 9.16712 6.79967C9.43379 6.89301 9.7138 6.75301 9.80046 6.49301C9.86713 6.29968 10.0605 6.16634 10.2671 6.16634C10.4738 6.16634 10.6671 6.29968 10.7338 6.49301C10.8071 6.69968 11.0005 6.83301 11.2071 6.83301C11.2605 6.83301 11.3138 6.82635 11.3738 6.80635C11.6338 6.71301 11.7738 6.433 11.6805 6.173L11.6871 6.16634Z" fill="#3B3B3E"/>
</svg>
