<svg width="16" height="16" viewBox="0 0 16 16" fill="none" xmlns="http://www.w3.org/2000/svg">
<path d="M13.9995 11.3545C13.9995 11.4212 13.9928 11.4878 13.9795 11.5545C13.6395 13.2612 11.9261 14.3545 10.2455 13.8945C8.97813 13.5432 7.7942 12.9912 6.7422 12.2612C6.63887 12.1898 6.62749 12.0392 6.71616 11.9505L8.07961 10.5872C8.14227 10.5245 8.23828 10.5125 8.31561 10.5565C8.58894 10.7125 8.87219 10.8532 9.16619 10.9745L9.91294 9.86116C10.3196 9.26116 11.1263 9.0745 11.7463 9.44783L13.5129 10.5012C13.8129 10.6878 13.9995 11.0145 13.9995 11.3545ZM14.3529 1.6465C14.1575 1.45117 13.8409 1.45117 13.6455 1.6465L6.35418 8.93784C5.80552 8.31517 5.35225 7.60316 5.02492 6.82116L6.13153 6.08782C6.73819 5.68116 6.92478 4.87449 6.55145 4.25449L5.51157 2.4945C5.29157 2.12784 4.87151 1.93451 4.45151 2.02117H4.44484C2.73817 2.36784 1.64483 4.08116 2.10483 5.75449C2.6055 7.57383 3.52953 9.19983 4.7562 10.5365L1.64552 13.6465C1.45019 13.8418 1.45019 14.1585 1.64552 14.3538C1.74286 14.4512 1.87088 14.5005 1.99888 14.5005C2.12688 14.5005 2.2549 14.4518 2.35223 14.3538L14.3522 2.35384C14.5482 2.1585 14.5482 1.84117 14.3529 1.6465Z" fill="#3B3B3E"/>
</svg>
