<svg width="16" height="16" viewBox="0 0 16 16" fill="none" xmlns="http://www.w3.org/2000/svg">
<path d="M7.66634 1.33301C4.16634 1.33301 1.33301 4.16634 1.33301 7.66634C1.33301 11.1663 4.16634 13.9997 7.66634 13.9997C8.37301 13.9997 9.05967 13.8797 9.693 13.6663C9.713 13.6597 9.72634 13.6597 9.73968 13.6463C9.85301 13.593 9.89301 13.4397 9.79301 13.333L9.38634 12.9463C9.03968 12.613 8.91301 12.1197 9.05967 11.6597C9.20634 11.193 9.59967 10.8663 10.0797 10.7996L10.8597 10.6864L11.193 10.033C11.4063 9.59971 11.8463 9.33301 12.333 9.33301C12.7263 9.33301 13.093 9.50631 13.3263 9.80631C13.3597 9.83965 13.413 9.86637 13.4663 9.86637C13.553 9.86637 13.6197 9.81308 13.653 9.73975C13.8797 9.09308 13.9997 8.39301 13.9997 7.66634C13.9997 4.16634 11.1663 1.33301 7.66634 1.33301ZM11.0197 6.81966L9.34368 8.49561C8.91501 8.92361 8.21834 8.92442 7.78834 8.49642L6.83501 7.545C6.79501 7.50567 6.73234 7.50634 6.693 7.545L5.01901 9.21908C4.92168 9.31641 4.79367 9.36572 4.66567 9.36572C4.53767 9.36572 4.40967 9.31708 4.31234 9.21908C4.117 9.02374 4.117 8.70705 4.31234 8.51172L5.98634 6.83765C6.41567 6.40898 7.11301 6.409 7.54168 6.837L8.49501 7.78833C8.53434 7.827 8.597 7.827 8.637 7.78833L10.313 6.1123C10.5083 5.91697 10.825 5.91697 11.0203 6.1123C11.2157 6.30764 11.215 6.62499 11.0197 6.81966ZM13.7463 13.0264C13.6863 13.0797 13.6597 13.1663 13.673 13.2529L13.8663 14.3464C13.893 14.5264 13.753 14.6663 13.593 14.6663C13.5463 14.6663 13.5063 14.6596 13.4597 14.633L12.453 14.113C12.413 14.0996 12.373 14.0863 12.333 14.0863C12.293 14.0863 12.253 14.0996 12.213 14.113L11.2063 14.633C11.1597 14.653 11.1197 14.6663 11.073 14.6663C10.913 14.6663 10.773 14.5197 10.7997 14.3464L10.993 13.2529C11.0063 13.1663 10.9797 13.0797 10.9197 13.0264L10.0797 12.2197C9.92634 12.0731 10.0063 11.8196 10.2197 11.7863L11.3863 11.6196C11.4663 11.613 11.5397 11.5597 11.5797 11.4863L12.0863 10.4863C12.133 10.3863 12.233 10.333 12.333 10.333C12.433 10.333 12.533 10.3863 12.5797 10.4863L13.0863 11.4863C13.1263 11.5597 13.1997 11.613 13.2797 11.6196L14.4463 11.7863C14.6597 11.8196 14.7397 12.0731 14.5863 12.2197L13.7463 13.0264Z" fill="#3B3B3E"/>
</svg>
