<svg width="16" height="16" viewBox="0 0 16 16" fill="none" xmlns="http://www.w3.org/2000/svg">
<path d="M14.3186 6.05619L9.37716 1.99223C8.57916 1.33756 7.42256 1.33689 6.62456 1.99223L1.68323 6.05554C1.47056 6.23087 1.43921 6.54556 1.61455 6.75956C1.78988 6.97356 2.10523 7.00291 2.31857 6.82825L3.00053 6.26688V11.9996C3.00053 13.5262 3.8072 14.3329 5.33387 14.3329H10.6672C12.1939 14.3329 13.0005 13.5262 13.0005 11.9996V6.26754L13.6825 6.8289C13.7758 6.90556 13.8885 6.94291 14.0005 6.94291C14.1445 6.94291 14.2879 6.88086 14.3865 6.76086C14.5625 6.5462 14.5312 6.23152 14.3186 6.05619ZM9.23385 11.1315C9.03052 11.3389 8.77653 11.4768 8.50053 11.5375V11.6662C8.50053 11.9422 8.27653 12.1662 8.00053 12.1662C7.72453 12.1662 7.50053 11.9422 7.50053 11.6662V11.5362C6.89053 11.4015 6.41522 10.891 6.34322 10.2396C6.31256 9.96496 6.51053 9.71754 6.7852 9.68754C7.05253 9.65887 7.30588 9.85493 7.33655 10.1296C7.36455 10.3829 7.57118 10.5736 7.81718 10.5736H8.18453C8.31053 10.5736 8.43052 10.5222 8.52185 10.4296C8.61652 10.3336 8.66785 10.2082 8.66785 10.0749C8.66785 9.84558 8.51585 9.64621 8.29985 9.59021L7.4552 9.37748C7.1332 9.29415 6.84518 9.10419 6.64384 8.84086C6.44451 8.58553 6.33387 8.25819 6.33387 7.92419C6.33387 7.20753 6.83453 6.60888 7.50053 6.46155V6.33288C7.50053 6.05688 7.72453 5.83288 8.00053 5.83288C8.27653 5.83288 8.50053 6.05688 8.50053 6.33288V6.46285C9.11053 6.59752 9.58584 7.10823 9.65784 7.75956C9.68851 8.03423 9.49053 8.28156 9.21586 8.31156C8.9492 8.34023 8.69518 8.14425 8.66451 7.86959C8.63651 7.61625 8.42988 7.42558 8.18388 7.42558H7.81653C7.55053 7.42558 7.33321 7.64886 7.33321 7.92419C7.33321 8.03753 7.3692 8.14618 7.43453 8.23018C7.50387 8.32085 7.59523 8.38156 7.70056 8.40889L8.54521 8.62162C9.20588 8.79162 9.66655 9.38891 9.66655 10.0749C9.66721 10.4729 9.51385 10.8482 9.23385 11.1315Z" fill="#3B3B3E"/>
</svg>
