<svg width="16" height="16" viewBox="0 0 16 16" fill="none" xmlns="http://www.w3.org/2000/svg">
<path d="M3.20902 6.4917L2.65837 6.76693C2.25437 6.96893 1.99902 7.38167 1.99902 7.83301V13.4463C1.99902 13.9463 2.51903 14.2664 2.9657 14.0464L4.98903 13.0283C5.05637 12.9943 5.09902 12.9249 5.09902 12.8496V9.58838C5.09902 9.53571 5.07837 9.48637 5.04104 9.44971C4.2937 8.71104 3.6637 7.79164 3.4917 6.64697C3.4717 6.51031 3.33169 6.43037 3.20902 6.4917ZM8.54637 11.2796L7.99302 11.653L7.4397 11.2796C7.4397 11.2796 6.85302 10.8936 6.41302 10.5856C6.28102 10.4929 6.09969 10.589 6.09969 10.7503V12.7744C6.09969 12.8577 6.1517 12.9324 6.2297 12.9618L9.6297 14.2383C9.76037 14.2869 9.8997 14.1903 9.8997 14.0509V10.7389C9.8997 10.5776 9.71904 10.4824 9.58704 10.5737C9.1417 10.8831 8.54637 11.2796 8.54637 11.2796ZM13.033 5.77962L12.6657 5.96305C12.5504 6.01172 12.551 6.1344 12.5484 6.19173C12.4884 7.5444 11.7957 8.60637 10.957 9.44303C10.9204 9.4797 10.899 9.52904 10.899 9.58171V13.9557C10.899 14.1044 11.0557 14.2009 11.189 14.1343L13.339 13.0537C13.7457 12.847 13.999 12.4336 13.999 11.9803V6.3737C13.9997 5.7797 13.4797 5.55962 13.033 5.77962ZM7.99302 2.44629C6.03302 2.44629 4.4397 4.03301 4.4397 5.99967C4.4397 8.21967 6.65969 9.55296 7.99302 10.4463C9.32635 9.55296 11.553 8.21967 11.553 5.99967C11.553 4.03301 9.95969 2.44629 7.99302 2.44629ZM7.99302 7.11296C7.37969 7.11296 6.88635 6.61301 6.88635 5.99967C6.88635 5.38634 7.37969 4.88639 7.99302 4.88639C8.60635 4.88639 9.10636 5.38634 9.10636 5.99967C9.10636 6.61301 8.60635 7.11296 7.99302 7.11296Z" fill="#3B3B3E"/>
</svg>
