<svg width="16" height="16" viewBox="0 0 16 16" fill="none" xmlns="http://www.w3.org/2000/svg">
<path d="M14 1.5H2C1.724 1.5 1.5 1.724 1.5 2C1.5 2.276 1.724 2.5 2 2.5H2.66667V8.66667C2.66667 10.1933 3.47333 11 5 11H7.5V12.4L5.71999 13.5867C5.49332 13.74 5.43334 14.0467 5.58667 14.28C5.74 14.5067 6.04668 14.5667 6.28001 14.4133L8 13.2667L9.71999 14.4133C9.80666 14.4733 9.90667 14.5 10 14.5C10.16 14.5 10.32 14.42 10.4133 14.28C10.5667 14.0467 10.5067 13.74 10.28 13.5867L8.5 12.4V11H11C12.5267 11 13.3333 10.1933 13.3333 8.66667V2.5H14C14.276 2.5 14.5 2.276 14.5 2C14.5 1.724 14.276 1.5 14 1.5ZM9.05066 8.60466C8.65599 8.86532 8.20001 9 7.73067 9C7.56067 9 7.38933 8.9827 7.218 8.9467C6.31133 8.75803 5.57532 8.02198 5.38666 7.11532C5.25266 6.47132 5.374 5.82063 5.72933 5.28263C6.08 4.75063 6.63733 4.37467 7.258 4.25C7.356 4.23 7.45934 4.25597 7.538 4.32064C7.61934 4.3873 7.66667 4.48598 7.66667 4.59131V6.30664C7.66667 6.50531 7.82799 6.66732 8.02732 6.66732H9.74333C9.84866 6.66732 9.94666 6.71398 10.0133 6.79598C10.0787 6.87531 10.104 6.97734 10.084 7.07601C9.95867 7.69601 9.58199 8.25332 9.05066 8.60466ZM10.5787 5.99333C10.51 6.07199 10.4107 6.11735 10.3067 6.11735H8.57467C8.37733 6.11735 8.21668 5.95669 8.21668 5.75936V4.02734C8.21668 3.92334 8.262 3.82404 8.34133 3.75537C8.41933 3.68737 8.52267 3.65665 8.624 3.67065C9.678 3.81799 10.5167 4.65669 10.664 5.71069C10.6773 5.81203 10.6467 5.91466 10.5787 5.99333Z" fill="#3B3B3E"/>
</svg>
