<svg width="16" height="16" viewBox="0 0 16 16" fill="none" xmlns="http://www.w3.org/2000/svg">
<path d="M14.3334 8.95979C14.2267 8.86646 14.0867 8.81979 13.9467 8.83313L10.7134 9.1598L9.70006 6.45312L12.7001 6.17979C12.9134 6.15979 13.0601 5.94645 12.9867 5.74645C12.1401 3.39979 9.78674 1.77313 7.10007 2.03313C4.36007 2.29979 2.15341 4.60646 2.00007 7.35312C1.90007 9.16646 2.6534 10.8198 3.90673 11.9198C3.96673 11.9731 4.05341 12.0065 4.13341 12.0065H5.38008C6.16674 12.0065 6.88008 12.4465 7.23341 13.1531C7.28674 13.2665 7.40673 13.3398 7.5334 13.3398H9.50007C9.73341 13.3398 9.90007 13.1065 9.81341 12.8865L8.80673 10.3665L10.0467 10.2398L11.0401 12.8865C11.4067 13.8598 12.3467 14.5065 13.3801 14.5065H13.9934C14.2667 14.5065 14.4934 14.2798 14.4934 14.0065V9.33979C14.4934 9.19979 14.4334 9.06646 14.3267 8.96646L14.3334 8.95979ZM6.0134 10.6665C5.64673 10.6665 5.34673 10.3665 5.34673 9.99979C5.34673 9.63313 5.64008 9.33313 6.00675 9.33313H6.0134C6.38007 9.33313 6.68007 9.63313 6.68007 9.99979C6.68007 10.3665 6.38007 10.6665 6.0134 10.6665ZM8.56674 9.37312C8.52008 9.37312 8.48007 9.39979 8.4334 9.41312L7.83341 7.90646C7.58674 7.28646 8.00675 6.59979 8.67341 6.53979H8.70006C8.70006 6.57979 8.70006 6.62645 8.72006 6.67312L9.69341 9.25979L8.56674 9.37312V9.37312ZM13.5001 9.88646V10.8798L11.4401 11.0865L11.0801 10.1331L13.5001 9.89312V9.88646ZM13.3867 13.4998C12.7667 13.4998 12.2001 13.1065 11.9801 12.5265L11.8001 12.0531L13.4934 11.8865V13.4998H13.3801H13.3867Z" fill="#3B3B3E"/>
</svg>
