<svg width="16" height="16" viewBox="0 0 16 16" fill="none" xmlns="http://www.w3.org/2000/svg">
<path d="M11.7131 8.39099C12.1944 8.30232 12.6516 8.32166 13.0856 8.41699C13.2123 8.44499 13.333 8.355 13.333 8.225V4.66699C13.333 3.33366 12.6663 2.66699 11.333 2.66699H3.33301C1.99967 2.66699 1.33301 3.33366 1.33301 4.66699V10.667C1.33301 12.0003 1.99967 12.667 3.33301 12.667H8.89095C9.02095 12.667 9.11101 12.5463 9.08301 12.4197C8.98701 11.9843 8.96762 11.5257 9.05762 11.043C9.30428 9.71366 10.3837 8.63566 11.7131 8.39099ZM8.01904 8.11966C7.81371 8.26899 7.57301 8.34366 7.33301 8.34366C7.09301 8.34366 6.85164 8.26899 6.64697 8.12032L3.3724 5.73832C3.14906 5.57632 3.0997 5.263 3.26237 5.03966C3.42437 4.81766 3.73627 4.76632 3.96094 4.92966L7.23568 7.31099C7.29434 7.35299 7.37232 7.35366 7.43099 7.31099L10.7057 4.92966C10.9311 4.76632 11.2423 4.817 11.4043 5.03966C11.567 5.263 11.5176 5.57566 11.2943 5.73832L8.01904 8.11966ZM12.333 9.33366C11.0443 9.33366 9.99967 10.3783 9.99967 11.667C9.99967 12.9557 11.0443 14.0003 12.333 14.0003C13.6217 14.0003 14.6663 12.9557 14.6663 11.667C14.6663 10.3783 13.6217 9.33366 12.333 9.33366ZM13.1937 12.5277C13.1284 12.593 13.043 12.625 12.9577 12.625C12.8723 12.625 12.787 12.5923 12.7217 12.5277L12.0964 11.903C12.0337 11.8403 11.999 11.7557 11.999 11.667V10.7923C11.999 10.6083 12.1484 10.459 12.3324 10.459C12.5164 10.459 12.6657 10.6083 12.6657 10.7923V11.529L13.193 12.0563C13.3237 12.1863 13.3237 12.397 13.1937 12.5277Z" fill="#3B3B3E"/>
</svg>
