<svg width="16" height="16" viewBox="0 0 16 16" fill="none" xmlns="http://www.w3.org/2000/svg">
<path d="M11.3337 2H4.66699C3.33366 2 2.66699 2.66667 2.66699 4V12C2.66699 13.3333 3.33366 14 4.66699 14H11.3337C12.667 14 13.3337 13.3333 13.3337 12V4C13.3337 2.66667 12.667 2 11.3337 2ZM8.66699 11.1667H5.33366C5.05766 11.1667 4.83366 10.9427 4.83366 10.6667C4.83366 10.3907 5.05766 10.1667 5.33366 10.1667H8.66699C8.94299 10.1667 9.16699 10.3907 9.16699 10.6667C9.16699 10.9427 8.94299 11.1667 8.66699 11.1667ZM10.667 8.5H5.33366C5.05766 8.5 4.83366 8.276 4.83366 8C4.83366 7.724 5.05766 7.5 5.33366 7.5H10.667C10.943 7.5 11.167 7.724 11.167 8C11.167 8.276 10.943 8.5 10.667 8.5ZM10.667 5.83333H5.33366C5.05766 5.83333 4.83366 5.60933 4.83366 5.33333C4.83366 5.05733 5.05766 4.83333 5.33366 4.83333H10.667C10.943 4.83333 11.167 5.05733 11.167 5.33333C11.167 5.60933 10.943 5.83333 10.667 5.83333Z" fill="#3B3B3E"/>
</svg>
