<svg width="16" height="16" viewBox="0 0 16 16" fill="none" xmlns="http://www.w3.org/2000/svg">
<path d="M11.7533 2H4.25334C2.75334 2 2 2.74666 2 4.24666V11.7467C2 13.2467 2.75334 14 4.25334 14H11.7533C13.2533 14 14 13.2467 14 11.7467V4.24666C14 2.74666 13.2533 2 11.7533 2ZM6.5 9.12667C6.7 9.32 6.7 9.64 6.5 9.83333C6.40667 9.93333 6.27333 9.98 6.14667 9.98C6.02 9.98 5.89334 9.93333 5.79334 9.83333L4.31333 8.35333C4.12 8.16 4.12 7.84 4.31333 7.64667L5.79334 6.16667C5.98667 5.96667 6.30667 5.96667 6.5 6.16667C6.7 6.36 6.7 6.68 6.5 6.87333L5.37333 8L6.5 9.12667ZM9.15334 5.45333L7.82001 10.7867C7.76001 11.0133 7.56 11.1667 7.33333 11.1667C7.29333 11.1667 7.25334 11.16 7.21334 11.1533C6.94667 11.0867 6.77999 10.8133 6.84666 10.5467L8.17999 5.21334C8.24666 4.94667 8.52 4.77999 8.78666 4.84666C9.05333 4.91333 9.22001 5.18666 9.15334 5.45333ZM11.6867 8.35333L10.2067 9.83333C10.1067 9.93333 9.98 9.98 9.85333 9.98C9.72667 9.98 9.59333 9.93333 9.5 9.83333C9.3 9.64 9.3 9.32 9.5 9.12667L10.6267 8L9.5 6.87333C9.3 6.68 9.3 6.36 9.5 6.16667C9.69333 5.96667 10.0133 5.96667 10.2067 6.16667L11.6867 7.64667C11.88 7.84 11.88 8.16 11.6867 8.35333Z" fill="#3B3B3E"/>
</svg>
