<svg width="16" height="16" viewBox="0 0 16 16" fill="none" xmlns="http://www.w3.org/2000/svg">
<path d="M11.75 2H4.25C2.75 2 2 2.75 2 4.25V11.75C2 13.25 2.75 14 4.25 14H11.75C13.25 14 14 13.25 14 11.75V4.25C14 2.75 13.25 2 11.75 2ZM5.83333 10.6667C5.83333 10.9427 5.60933 11.1667 5.33333 11.1667C5.05733 11.1667 4.83333 10.9427 4.83333 10.6667V7.33333C4.83333 7.05733 5.05733 6.83333 5.33333 6.83333C5.60933 6.83333 5.83333 7.05733 5.83333 7.33333V10.6667ZM8.5 10.6667C8.5 10.9427 8.276 11.1667 8 11.1667C7.724 11.1667 7.5 10.9427 7.5 10.6667V5.33333C7.5 5.05733 7.724 4.83333 8 4.83333C8.276 4.83333 8.5 5.05733 8.5 5.33333V10.6667ZM11.1667 10.6667C11.1667 10.9427 10.9427 11.1667 10.6667 11.1667C10.3907 11.1667 10.1667 10.9427 10.1667 10.6667V8.66667C10.1667 8.39067 10.3907 8.16667 10.6667 8.16667C10.9427 8.16667 11.1667 8.39067 11.1667 8.66667V10.6667Z" fill="#3B3B3E"/>
</svg>
