<svg width="16" height="16" viewBox="0 0 16 16" fill="none" xmlns="http://www.w3.org/2000/svg">
<path d="M9.83333 6.66667V9.33333C9.83333 9.726 9.726 9.83333 9.33333 9.83333H6.66667C6.274 9.83333 6.16667 9.726 6.16667 9.33333V6.66667C6.16667 6.274 6.274 6.16667 6.66667 6.16667H9.33333C9.726 6.16667 9.83333 6.274 9.83333 6.66667ZM14.5 10C14.5 10.2733 14.28 10.5 14 10.5H12.6667V10.6667C12.6667 12 12 12.6667 10.6667 12.6667H10.5V14C10.5 14.2733 10.28 14.5 10 14.5C9.72667 14.5 9.5 14.2733 9.5 14V12.6667H6.5V14C6.5 14.2733 6.28 14.5 6 14.5C5.72667 14.5 5.5 14.2733 5.5 14V12.6667H5.33333C4 12.6667 3.33333 12 3.33333 10.6667V10.5H2C1.72667 10.5 1.5 10.2733 1.5 10C1.5 9.72667 1.72667 9.5 2 9.5H3.33333V6.5H2C1.72667 6.5 1.5 6.27333 1.5 6C1.5 5.72667 1.72667 5.5 2 5.5H3.33333V5.33333C3.33333 4 4 3.33333 5.33333 3.33333H5.5V2C5.5 1.72667 5.72667 1.5 6 1.5C6.28 1.5 6.5 1.72667 6.5 2V3.33333H9.5V2C9.5 1.72667 9.72667 1.5 10 1.5C10.28 1.5 10.5 1.72667 10.5 2V3.33333H10.6667C12 3.33333 12.6667 4 12.6667 5.33333V5.5H14C14.28 5.5 14.5 5.72667 14.5 6C14.5 6.27333 14.28 6.5 14 6.5H12.6667V9.5H14C14.28 9.5 14.5 9.72667 14.5 10ZM10.8333 6.66667C10.8333 5.72733 10.2727 5.16667 9.33333 5.16667H6.66667C5.72733 5.16667 5.16667 5.72733 5.16667 6.66667V9.33333C5.16667 10.2727 5.72733 10.8333 6.66667 10.8333H9.33333C10.2727 10.8333 10.8333 10.2727 10.8333 9.33333V6.66667Z" fill="#3B3B3E"/>
</svg>
