<svg width="16" height="16" viewBox="0 0 16 16" fill="none" xmlns="http://www.w3.org/2000/svg">
<path d="M13.0035 6.66183C13.0068 6.9285 12.9022 7.18183 12.7089 7.37517L5.84218 14.2352C5.77751 14.2998 5.69218 14.3325 5.60618 14.3325C5.54551 14.3325 5.48421 14.3158 5.42954 14.2818C5.29821 14.1998 5.24087 14.0378 5.29087 13.8912L5.7842 12.4578C5.8002 12.4098 5.82754 12.3665 5.86354 12.3305L12.2302 5.96383C12.3582 5.8365 12.5642 5.83383 12.6949 5.95783C12.8875 6.13916 12.9995 6.3965 13.0035 6.66183ZM14.3529 1.6465C14.1575 1.45117 13.8409 1.45117 13.6455 1.6465L10.4849 4.80716L11.2389 3.06716C11.3722 2.75383 11.3389 2.4005 11.1522 2.11384C10.9655 1.83384 10.6522 1.66717 10.3189 1.66717H7.33286C6.76619 1.66717 6.3062 2.0205 6.1262 2.56716L4.37953 7.0205C4.2862 7.32717 4.33951 7.6605 4.52618 7.9205C4.71951 8.18716 5.01286 8.33384 5.33286 8.33384L6.9942 8.2985L1.64552 13.6472C1.45019 13.8425 1.45019 14.1592 1.64552 14.3545C1.74286 14.4518 1.87088 14.5012 1.99888 14.5012C2.12688 14.5012 2.25486 14.4525 2.35219 14.3545L14.3522 2.3545C14.5482 2.1585 14.5482 1.84117 14.3529 1.6465Z" fill="#3B3B3E"/>
</svg>
