<svg width="16" height="16" viewBox="0 0 16 16" fill="none" xmlns="http://www.w3.org/2000/svg">
<path fill-rule="evenodd" clip-rule="evenodd" d="M12 4.666H8.70671L11.02 2.35268C11.2134 2.15935 11.2134 1.83931 11.02 1.64598C10.8267 1.45264 10.5066 1.45264 10.3133 1.64598L8 3.95929L5.68669 1.64598C5.49335 1.45264 5.17331 1.45264 4.97998 1.64598C4.78665 1.83931 4.78665 2.15935 4.97998 2.35268L7.29329 4.666H4C2.66667 4.666 2 5.33266 2 6.666V11.9993C2 13.3327 2.66667 13.9993 4 13.9993H12C13.3333 13.9993 14 13.3327 14 11.9993V6.666C14 5.33266 13.3333 4.666 12 4.666ZM10 10.9993C10 11.666 9.66667 11.9993 9 11.9993H5C4.33333 11.9993 4 11.666 4 10.9993V7.666C4 6.99933 4.33333 6.666 5 6.666H9C9.66667 6.666 10 6.99933 10 7.666V10.9993ZM12 9.99933C11.632 9.99933 11.3333 9.70066 11.3333 9.33266C11.3333 8.96466 11.632 8.666 12 8.666C12.368 8.666 12.6667 8.96466 12.6667 9.33266C12.6667 9.70066 12.368 9.99933 12 9.99933ZM12 7.99933C11.632 7.99933 11.3333 7.70066 11.3333 7.33266C11.3333 6.96466 11.632 6.666 12 6.666C12.368 6.666 12.6667 6.96466 12.6667 7.33266C12.6667 7.70066 12.368 7.99933 12 7.99933Z" fill="#3B3B3E"/>
</svg>
