<svg width="16" height="16" viewBox="0 0 16 16" fill="none" xmlns="http://www.w3.org/2000/svg">
<path d="M4.16634 12.6663C4.16634 13.0477 4.26439 13.4023 4.43506 13.7103C4.50706 13.841 4.40894 13.9997 4.2596 13.9997H3.33301C1.99967 13.9997 1.33301 13.333 1.33301 11.9997V4.66634C1.33301 3.70634 1.68168 3.08968 2.37435 2.82568C2.46568 2.79102 2.66634 2.82229 2.66634 3.00163V10.9997C2.66634 11.973 3.23967 12.593 4.16634 12.6597V12.6663ZM6.99967 13.1663H6.33301C6.05767 13.1663 5.83301 12.9423 5.83301 12.6663V11.9997H6.33301C6.99967 11.9997 7.33301 11.6663 7.33301 10.9997V2.33301C7.33301 1.66634 6.99967 1.33301 6.33301 1.33301H4.33301C3.66634 1.33301 3.33301 1.66634 3.33301 2.33301V10.9997C3.33301 11.6663 3.66634 11.9997 4.33301 11.9997H4.83301V12.6663C4.83301 13.4937 5.50634 14.1663 6.33301 14.1663H6.99967C7.27501 14.1663 7.49967 14.3903 7.49967 14.6663C7.49967 14.9423 7.72367 15.1663 7.99967 15.1663C8.27567 15.1663 8.49967 14.9423 8.49967 14.6663C8.49967 13.839 7.82634 13.1663 6.99967 13.1663ZM14.6663 4.66634V11.9997C14.6663 13.333 13.9997 13.9997 12.6663 13.9997H9.19629C9.11362 13.9997 9.04367 13.9476 9.01367 13.8709C8.713 13.1103 7.99231 12.557 7.13965 12.5063C7.68631 12.253 7.99967 11.7197 7.99967 10.9997V2.86637C7.99967 2.75571 8.08904 2.66634 8.19971 2.66634H12.6663C13.9997 2.66634 14.6663 3.33301 14.6663 4.66634ZM10.6663 11.333C10.6663 10.965 10.3677 10.6663 9.99967 10.6663C9.63167 10.6663 9.33301 10.965 9.33301 11.333C9.33301 11.701 9.63167 11.9997 9.99967 11.9997C10.3677 11.9997 10.6663 11.701 10.6663 11.333ZM10.6663 9.33301C10.6663 8.96501 10.3677 8.66634 9.99967 8.66634C9.63167 8.66634 9.33301 8.96501 9.33301 9.33301C9.33301 9.70101 9.63167 9.99967 9.99967 9.99967C10.3677 9.99967 10.6663 9.70101 10.6663 9.33301ZM12.6663 11.333C12.6663 10.965 12.3677 10.6663 11.9997 10.6663C11.6317 10.6663 11.333 10.965 11.333 11.333C11.333 11.701 11.6317 11.9997 11.9997 11.9997C12.3677 11.9997 12.6663 11.701 12.6663 11.333ZM12.6663 9.33301C12.6663 8.96501 12.3677 8.66634 11.9997 8.66634C11.6317 8.66634 11.333 8.96501 11.333 9.33301C11.333 9.70101 11.6317 9.99967 11.9997 9.99967C12.3677 9.99967 12.6663 9.70101 12.6663 9.33301ZM12.9997 6.33301C12.9997 5.78101 12.5517 5.33301 11.9997 5.33301H9.99967C9.44767 5.33301 8.99967 5.78101 8.99967 6.33301C8.99967 6.88501 9.44767 7.33301 9.99967 7.33301H11.9997C12.5517 7.33301 12.9997 6.88501 12.9997 6.33301Z" fill="#3B3B3E"/>
</svg>
