<svg width="16" height="16" viewBox="0 0 16 16" fill="none" xmlns="http://www.w3.org/2000/svg">
<path d="M12.0133 9.99969C12.0133 10.3664 11.7133 10.6664 11.3467 10.6664C10.98 10.6664 10.68 10.3664 10.68 9.99969C10.68 9.63302 10.9733 9.33302 11.3467 9.33302C11.7133 9.33302 12.0133 9.63302 12.0133 9.99969ZM8.68001 10.833C8.40668 10.833 8.18001 11.0597 8.18001 11.333C8.18001 11.6064 8.40668 11.833 8.68001 11.833C8.95335 11.833 9.18001 11.6064 9.18001 11.333C9.18001 11.0597 8.96001 10.833 8.68001 10.833ZM5.34668 9.83302C4.88668 9.83302 4.51335 10.2064 4.51335 10.6664C4.51335 11.1264 4.89335 11.4997 5.34668 11.4997C5.80001 11.4997 6.18001 11.1264 6.18001 10.6664C6.18001 10.2064 5.80668 9.83302 5.34668 9.83302ZM14.5 7.99969V11.9997C14.5 13.013 13.68 13.833 12.6667 13.833H3.33333C2.32 13.833 1.5 13.013 1.5 11.9997V8.51969C1.5 8.03302 1.74001 7.57303 2.13334 7.29303L9.04 2.41969C9.41333 2.15969 9.87332 2.09302 10.28 2.24635C12.7067 3.15302 14.36 5.3997 14.5 7.97303C14.5 7.9797 14.5 7.99302 14.5 7.99969V7.99969ZM13.5 11.9997V8.49969H2.50667C2.50667 8.49969 2.50667 8.51302 2.50667 8.51969V11.9997C2.50667 12.4597 2.88001 12.833 3.34001 12.833H12.6733C13.1333 12.833 13.5067 12.4597 13.5067 11.9997H13.5Z" fill="#3B3B3E"/>
</svg>
