<svg width="16" height="16" viewBox="0 0 16 16" fill="none" xmlns="http://www.w3.org/2000/svg">
<path d="M12.0004 4H6.00036C5.73502 4 5.481 4.10533 5.293 4.29266L2.293 7.29266C1.90233 7.68333 1.90233 8.31667 2.293 8.70667L5.293 11.7067C5.48033 11.894 5.73502 11.9993 6.00036 11.9993H12.0004C13.3337 11.9993 14.0004 11.3327 14.0004 9.99933V5.99933C14.0004 4.66666 13.3337 4 12.0004 4ZM11.0204 8.98C11.2157 9.17533 11.2157 9.492 11.0204 9.68734C10.923 9.78467 10.795 9.834 10.667 9.834C10.539 9.834 10.411 9.78534 10.3137 9.68734L9.33369 8.70734L8.35371 9.68734C8.25638 9.78467 8.12836 9.834 8.00036 9.834C7.87236 9.834 7.74434 9.78534 7.647 9.68734C7.45167 9.492 7.45167 9.17533 7.647 8.98L8.62698 8L7.647 7.02C7.45167 6.82467 7.45167 6.508 7.647 6.31266C7.84234 6.11733 8.15903 6.11733 8.35436 6.31266L9.33434 7.29266L10.3143 6.31266C10.5097 6.11733 10.8263 6.11733 11.0217 6.31266C11.217 6.508 11.217 6.82467 11.0217 7.02L10.0417 8L11.0204 8.98Z" fill="#3B3B3E"/>
</svg>
