<svg width="16" height="16" viewBox="0 0 16 16" fill="none" xmlns="http://www.w3.org/2000/svg">
<path d="M10.011 6.16667H5.98966C5.86166 6.16667 5.76633 6.04801 5.79433 5.92334L6.49365 2.77995C6.59365 2.32661 6.83367 2 7.467 2H8.53365C9.16698 2 9.407 2.32661 9.507 2.77995L10.2063 5.92334C10.2337 6.04801 10.139 6.16667 10.011 6.16667ZM11.093 9.92334L10.515 7.32341C10.4943 7.23207 10.4137 7.16667 10.3197 7.16667H5.68032C5.58632 7.16667 5.50565 7.23207 5.48499 7.32341L4.90698 9.92334C4.87898 10.048 4.97434 10.1667 5.10234 10.1667H10.897C11.0257 10.1667 11.121 10.048 11.093 9.92334ZM13.3337 13.5H11.887L11.4017 11.3234C11.381 11.2321 11.3003 11.1667 11.2063 11.1667H4.79366C4.69966 11.1667 4.61899 11.2321 4.59833 11.3234L4.113 13.5H2.66699C2.39099 13.5 2.16699 13.724 2.16699 14C2.16699 14.276 2.39099 14.5 2.66699 14.5H13.3337C13.6097 14.5 13.8337 14.276 13.8337 14C13.8337 13.724 13.6097 13.5 13.3337 13.5Z" fill="#3B3B3E"/>
</svg>
