<svg width="16" height="16" viewBox="0 0 16 16" fill="none" xmlns="http://www.w3.org/2000/svg">
<path d="M14 4.66699V7.30029C14 7.41096 13.9106 7.50033 13.8 7.50033H2.20003C2.08937 7.50033 2 7.41096 2 7.30029V4.66699C2 3.33366 2.66667 2.66699 4 2.66699H12C13.3333 2.66699 14 3.33366 14 4.66699ZM2 8.70036V11.3337C2 12.667 2.66667 13.3337 4 13.3337H12C13.3333 13.3337 14 12.667 14 11.3337V8.70036C14 8.58969 13.9106 8.50033 13.8 8.50033H2.20003C2.08937 8.50033 2 8.58969 2 8.70036Z" fill="#3B3B3E"/>
</svg>
