<svg width="16" height="16" viewBox="0 0 16 16" fill="none" xmlns="http://www.w3.org/2000/svg">
<path d="M7.08076 2.06859C4.88009 2.39592 3.00075 3.97592 2.31009 6.09126C1.79875 7.65726 1.95668 9.21525 2.55602 10.5046C2.69602 10.7979 2.69606 11.1379 2.59606 11.4512L2.036 13.1173C1.86 13.6406 2.35934 14.1399 2.88268 13.9639L4.54934 13.4039C4.86268 13.3039 5.20262 13.3039 5.49596 13.4439C6.25596 13.7972 7.10865 13.9972 8.00198 13.9972C8.33731 13.9972 8.668 13.9712 8.98733 13.9186C9.106 13.8992 9.17333 13.7779 9.14 13.6626C9.02933 13.2719 8.9813 12.8552 9.0093 12.4199C9.12664 10.6199 10.6227 9.12322 12.4234 9.00589C12.8587 8.97789 13.2747 9.02592 13.666 9.13658C13.7814 9.16925 13.9021 9.10191 13.9221 8.98391C13.9747 8.66458 14.0007 8.3339 14.0007 7.99856C14 4.3839 10.8014 1.51526 7.08076 2.06859ZM5.34671 8.66657C4.97871 8.66657 4.67662 8.36791 4.67662 7.99991C4.67662 7.63191 4.97203 7.33324 5.34003 7.33324H5.34671C5.71537 7.33324 6.01337 7.63191 6.01337 7.99991C6.01337 8.36791 5.71471 8.66657 5.34671 8.66657ZM8.01337 8.66657C7.64537 8.66657 7.34329 8.36791 7.34329 7.99991C7.34329 7.63191 7.6387 7.33324 8.0067 7.33324H8.01337C8.38204 7.33324 8.68004 7.63191 8.68004 7.99991C8.68004 8.36791 8.38137 8.66657 8.01337 8.66657ZM10.68 8.66657C10.312 8.66657 10.01 8.36791 10.01 7.99991C10.01 7.63191 10.3054 7.33324 10.6734 7.33324H10.68C11.0487 7.33324 11.3467 7.63191 11.3467 7.99991C11.3467 8.36791 11.048 8.66657 10.68 8.66657ZM14 12.4999H10.6667C10.3907 12.4999 10.1667 12.2759 10.1667 11.9999C10.1667 11.7239 10.3907 11.4999 10.6667 11.4999H14C14.276 11.4999 14.5 11.7239 14.5 11.9999C14.5 12.2759 14.276 12.4999 14 12.4999Z" fill="#3B3B3E"/>
</svg>
