<svg width="16" height="16" viewBox="0 0 16 16" fill="none" xmlns="http://www.w3.org/2000/svg">
<path d="M7.99967 1.33301C4.31767 1.33301 1.33301 4.31767 1.33301 7.99967C1.33301 11.6817 4.31767 14.6663 7.99967 14.6663C11.6817 14.6663 14.6663 11.6817 14.6663 7.99967C14.6663 4.31767 11.6817 1.33301 7.99967 1.33301ZM5.83301 11.333C5.83301 11.609 5.60901 11.833 5.33301 11.833C5.05701 11.833 4.83301 11.609 4.83301 11.333V7.99967C4.83301 7.72367 5.05701 7.49967 5.33301 7.49967C5.60901 7.49967 5.83301 7.72367 5.83301 7.99967V11.333ZM8.49967 11.333C8.49967 11.609 8.27567 11.833 7.99967 11.833C7.72367 11.833 7.49967 11.609 7.49967 11.333V9.33301C7.49967 9.05701 7.72367 8.83301 7.99967 8.83301C8.27567 8.83301 8.49967 9.05701 8.49967 9.33301V11.333ZM11.1663 11.333C11.1663 11.609 10.9423 11.833 10.6663 11.833C10.3903 11.833 10.1663 11.609 10.1663 11.333V10.333C10.1663 10.057 10.3903 9.83301 10.6663 9.83301C10.9423 9.83301 11.1663 10.057 11.1663 10.333V11.333ZM11.1663 6.87964C11.1663 6.88631 11.163 6.89169 11.1624 6.89836C11.1604 6.95702 11.1504 7.01565 11.1277 7.07031C11.105 7.12498 11.071 7.17299 11.0317 7.21566C11.027 7.22099 11.0257 7.22767 11.0203 7.23234C11.0203 7.23234 11.0204 7.23234 11.0197 7.23234C10.9737 7.27834 10.9183 7.315 10.857 7.34033C10.7957 7.36567 10.731 7.37899 10.6657 7.37899H9.19901C8.92301 7.37899 8.69901 7.15499 8.69901 6.87899C8.69901 6.60299 8.92301 6.37899 9.19901 6.37899H9.45569L8.25635 5.18367L7.39836 6.03231C7.00902 6.41831 6.37632 6.41632 5.98832 6.02832L4.979 5.01904C4.78367 4.82371 4.78367 4.50702 4.979 4.31169C5.17434 4.11635 5.49103 4.11635 5.68636 4.31169L6.69568 5.32104L7.55367 4.47233C7.94367 4.087 8.57565 4.08902 8.96232 4.47502L10.1663 5.67432V5.4117C10.1663 5.1357 10.3903 4.9117 10.6663 4.9117C10.9423 4.9117 11.1663 5.1357 11.1663 5.4117V6.87964Z" fill="#3B3B3E"/>
</svg>
