<svg width="16" height="16" viewBox="0 0 16 16" fill="none" xmlns="http://www.w3.org/2000/svg">
<path fill-rule="evenodd" clip-rule="evenodd" d="M13.5129 6.04153L9.05825 2.3795C8.44292 1.8735 7.55559 1.8735 6.94025 2.3795L2.48558 6.04153C2.11158 6.34886 1.93357 6.83416 2.0209 7.31016L2.99095 12.6315C3.13562 13.4235 3.82561 13.9995 4.63028 13.9995H11.3676C12.1729 13.9995 12.8629 13.4235 13.0076 12.6315L13.9776 7.30951C14.0649 6.83485 13.8869 6.34886 13.5129 6.04153ZM11.1662 9.22154C11.1662 9.49754 10.9422 9.72154 10.6662 9.72154C10.3902 9.72154 10.1662 9.49754 10.1662 9.22154V8.7615L9.12694 9.80015C8.76494 10.1628 8.13155 10.1628 7.76822 9.80015L6.98225 9.01418L5.68627 10.3655C5.58893 10.4628 5.46091 10.5121 5.33291 10.5121C5.20491 10.5121 5.07689 10.4635 4.97956 10.3655C4.78423 10.1702 4.78423 9.85356 4.97956 9.65823L6.33088 8.30683C6.69354 7.94416 7.32759 7.94416 7.69025 8.30683L8.47557 9.09215L9.48428 8.05349H8.99958C8.72358 8.05349 8.49958 7.82949 8.49958 7.55349C8.49958 7.27749 8.72358 7.05349 8.99958 7.05349H10.6662C10.7316 7.05349 10.7962 7.06681 10.8576 7.09215C10.9796 7.14281 11.0769 7.24015 11.1282 7.36282C11.1536 7.42415 11.1669 7.48889 11.1669 7.55422V9.22154H11.1662Z" fill="#3B3B3E"/>
</svg>
