<svg width="16" height="16" viewBox="0 0 16 16" fill="none" xmlns="http://www.w3.org/2000/svg">
<path d="M14 7.66667V12.1667C14 12.6267 13.6267 13 13.1667 13C12.7067 13 12.3333 12.6267 12.3333 12.1667V6.66667H13C13.552 6.66667 14 7.11467 14 7.66667ZM11.3333 12.6667V4C11.3333 2.66667 10.6667 2 9.33333 2H4C2.66667 2 2 2.66667 2 4V12C2 13.3333 2.66667 14 4 14H12.6667C11.9307 14 11.3333 13.4033 11.3333 12.6667ZM4.33333 11.1667C4.05733 11.1667 3.83333 10.9427 3.83333 10.6667C3.83333 10.3907 4.05733 10.1667 4.33333 10.1667C4.60933 10.1667 4.83333 10.3907 4.83333 10.6667C4.83333 10.9427 4.60933 11.1667 4.33333 11.1667ZM4.33333 8.5C4.05733 8.5 3.83333 8.276 3.83333 8C3.83333 7.724 4.05733 7.5 4.33333 7.5C4.60933 7.5 4.83333 7.724 4.83333 8C4.83333 8.276 4.60933 8.5 4.33333 8.5ZM4.33333 5.83333C4.05733 5.83333 3.83333 5.60933 3.83333 5.33333C3.83333 5.05733 4.05733 4.83333 4.33333 4.83333C4.60933 4.83333 4.83333 5.05733 4.83333 5.33333C4.83333 5.60933 4.60933 5.83333 4.33333 5.83333ZM9 11.1667H6C5.724 11.1667 5.5 10.9427 5.5 10.6667C5.5 10.3907 5.724 10.1667 6 10.1667H9C9.276 10.1667 9.5 10.3907 9.5 10.6667C9.5 10.9427 9.276 11.1667 9 11.1667ZM9 8.5H6C5.724 8.5 5.5 8.276 5.5 8C5.5 7.724 5.724 7.5 6 7.5H9C9.276 7.5 9.5 7.724 9.5 8C9.5 8.276 9.276 8.5 9 8.5ZM9 5.83333H6C5.724 5.83333 5.5 5.60933 5.5 5.33333C5.5 5.05733 5.724 4.83333 6 4.83333H9C9.276 4.83333 9.5 5.05733 9.5 5.33333C9.5 5.60933 9.276 5.83333 9 5.83333Z" fill="#3B3B3E"/>
</svg>
