<svg width="16" height="16" viewBox="0 0 16 16" fill="none" xmlns="http://www.w3.org/2000/svg">
<path d="M12 4.66699H10.6667L10.228 3.35091C10.092 2.94224 9.70996 2.66699 9.2793 2.66699H6.7207C6.29004 2.66699 5.90797 2.94224 5.77197 3.35091L5.33333 4.66699H4C2.66667 4.66699 2 5.33366 2 6.66699V12.0003C2 13.3337 2.66667 14.0003 4 14.0003H12C13.3333 14.0003 14 13.3337 14 12.0003V6.66699C14 5.33366 13.3333 4.66699 12 4.66699ZM8 11.3337C6.89533 11.3337 6 10.4383 6 9.33366C6 8.22899 6.89533 7.33366 8 7.33366C9.10467 7.33366 10 8.22899 10 9.33366C10 10.4383 9.10467 11.3337 8 11.3337ZM11.6667 7.66699C11.2987 7.66699 11 7.36833 11 7.00033C11 6.63233 11.2987 6.33366 11.6667 6.33366C12.0347 6.33366 12.3333 6.63233 12.3333 7.00033C12.3333 7.36833 12.0347 7.66699 11.6667 7.66699Z" fill="#3B3B3E"/>
</svg>
