<svg width="16" height="16" viewBox="0 0 16 16" fill="none" xmlns="http://www.w3.org/2000/svg">
<path d="M11.75 2H4.25C2.75 2 2 2.75 2 4.25V11.75C2 13.25 2.75 14 4.25 14H11.75C13.25 14 14 13.25 14 11.75V4.25C14 2.75 13.25 2 11.75 2ZM11.2207 7.59534L10.0207 8.76668C9.93267 8.85202 9.89266 8.97601 9.91333 9.09668L10.188 10.7C10.2433 11.0253 9.9033 11.2733 9.61263 11.12L8.17269 10.362C8.06469 10.3054 7.93596 10.3054 7.82796 10.362L6.38932 11.1193C6.09732 11.2727 5.75733 11.024 5.81266 10.6986L6.08732 9.09668C6.10799 8.97535 6.06798 8.85202 5.97998 8.76668L4.78003 7.59534C4.55936 7.38 4.68068 7.00467 4.98535 6.96L6.64535 6.71867C6.76601 6.70134 6.87064 6.62467 6.92464 6.51534L7.64396 5.05599C7.78996 4.75999 8.21069 4.75999 8.35669 5.05599L9.07601 6.51534C9.13001 6.62534 9.23464 6.70134 9.35531 6.71867L11.0153 6.96C11.32 7.004 11.4414 7.38 11.2207 7.59534Z" fill="#3B3B3E"/>
</svg>
