<svg width="16" height="16" viewBox="0 0 16 16" fill="none" xmlns="http://www.w3.org/2000/svg">
<path d="M14 6.66699V4.66699C14 3.33366 13.3333 2.66699 12 2.66699H4C2.66667 2.66699 2 3.33366 2 4.66699V6.66699C2.73333 6.66699 3.33333 7.26699 3.33333 8.00033C3.33333 8.73366 2.73333 9.33366 2 9.33366V11.3337C2 12.667 2.66667 13.3337 4 13.3337H12C13.3333 13.3337 14 12.667 14 11.3337V9.33366C13.2667 9.33366 12.6667 8.73366 12.6667 8.00033C12.6667 7.26699 13.2667 6.66699 14 6.66699ZM6.34001 5.66699H6.34668C6.71535 5.66699 7.01335 5.96566 7.01335 6.33366C7.01335 6.70166 6.71535 7.00033 6.34668 7.00033C5.97868 7.00033 5.67668 6.70166 5.67668 6.33366C5.67668 5.96566 5.97201 5.66699 6.34001 5.66699ZM6.33333 10.167C6.20533 10.167 6.07731 10.1183 5.97998 10.0203C5.78465 9.82499 5.78465 9.50832 5.97998 9.31299L9.31331 5.97966C9.50865 5.78432 9.82534 5.78432 10.0207 5.97966C10.216 6.17499 10.216 6.49166 10.0207 6.68699L6.68734 10.0203C6.58934 10.1183 6.46133 10.167 6.33333 10.167ZM9.68001 10.3337C9.31201 10.3337 9.01001 10.035 9.01001 9.66699C9.01001 9.29899 9.30534 9.00033 9.67334 9.00033H9.68001C10.0487 9.00033 10.3467 9.29899 10.3467 9.66699C10.3467 10.035 10.048 10.3337 9.68001 10.3337Z" fill="#3B3B3E"/>
</svg>
