<svg width="16" height="16" viewBox="0 0 16 16" fill="none" xmlns="http://www.w3.org/2000/svg">
<path d="M13.6663 4C13.6663 5.28667 12.6197 6.33333 11.333 6.33333C10.0463 6.33333 8.99967 5.28667 8.99967 4C8.99967 2.71333 10.0463 1.66667 11.333 1.66667C12.6197 1.66667 13.6663 2.71333 13.6663 4ZM4.66634 9.66667C3.37967 9.66667 2.33301 10.7133 2.33301 12C2.33301 13.2867 3.37967 14.3333 4.66634 14.3333C5.95301 14.3333 6.99967 13.2867 6.99967 12C6.99967 10.7133 5.95301 9.66667 4.66634 9.66667ZM11.833 14V10C11.833 9.724 11.609 9.5 11.333 9.5C11.057 9.5 10.833 9.724 10.833 10V14C10.833 14.276 11.057 14.5 11.333 14.5C11.609 14.5 11.833 14.276 11.833 14ZM5.16634 6V2C5.16634 1.724 4.94234 1.5 4.66634 1.5C4.39034 1.5 4.16634 1.724 4.16634 2V6C4.16634 6.276 4.39034 6.5 4.66634 6.5C4.94234 6.5 5.16634 6.276 5.16634 6Z" fill="#3B3B3E"/>
</svg>
