<svg width="16" height="16" viewBox="0 0 16 16" fill="none" xmlns="http://www.w3.org/2000/svg">
<path d="M14 14.5H2C1.724 14.5 1.5 14.276 1.5 14C1.5 13.724 1.724 13.5 2 13.5H14C14.276 13.5 14.5 13.724 14.5 14C14.5 14.276 14.276 14.5 14 14.5ZM9.33333 11V3C9.33333 2.33333 9 2 8.33333 2H7.66667C7 2 6.66667 2.33333 6.66667 3V11C6.66667 11.6667 7 12 7.66667 12H8.33333C9 12 9.33333 11.6667 9.33333 11ZM14 11V5.66667C14 5 13.6667 4.66667 13 4.66667H12.3333C11.6667 4.66667 11.3333 5 11.3333 5.66667V11C11.3333 11.6667 11.6667 12 12.3333 12H13C13.6667 12 14 11.6667 14 11ZM4.66667 11V7.66667C4.66667 7 4.33333 6.66667 3.66667 6.66667H3C2.33333 6.66667 2 7 2 7.66667V11C2 11.6667 2.33333 12 3 12H3.66667C4.33333 12 4.66667 11.6667 4.66667 11Z" fill="#3B3B3E"/>
</svg>
