<svg width="16" height="16" viewBox="0 0 16 16" fill="none" xmlns="http://www.w3.org/2000/svg">
<path d="M3.89979 2.28634L3.91313 1.97301C3.93313 1.61301 4.22646 1.33301 4.58646 1.33301H11.4198C11.7731 1.33301 12.0665 1.61301 12.0865 1.96634L12.0998 2.28634C12.0998 2.39967 12.0131 2.49301 11.8998 2.49301H4.09312C3.97979 2.49301 3.88646 2.39967 3.89312 2.27967L3.89979 2.28634ZM11.7398 4.82634C11.8531 4.82634 11.9598 4.79967 12.0598 4.75967C12.0598 4.75967 12.2198 4.68634 12.2198 4.58634C12.2198 4.48634 12.1665 3.68634 12.1665 3.68634C12.1665 3.57967 12.0731 3.49967 11.9665 3.49967H10.6998C10.5865 3.49967 10.4931 3.59301 10.4998 3.71301C10.4998 3.73301 10.4998 3.75967 10.4998 3.77967C10.5665 4.39301 11.1198 4.85967 11.7331 4.83301L11.7398 4.82634ZM5.49312 3.77301C5.49312 3.77301 5.49312 3.72634 5.49312 3.70634C5.49312 3.59301 5.40646 3.49301 5.29313 3.49301H4.02646C3.91979 3.49301 3.83312 3.57968 3.82646 3.67968C3.82646 3.67968 3.77313 4.47967 3.77313 4.57967C3.77313 4.67967 3.93313 4.75301 3.93313 4.75301C4.03313 4.79301 4.13312 4.81301 4.25312 4.81967C4.86646 4.85301 5.41979 4.37967 5.48646 3.76634L5.49312 3.77301ZM12.2798 6.01301C12.2798 5.79968 12.1065 5.77968 12.0331 5.79301C11.9131 5.81301 11.7931 5.82634 11.6665 5.82634C10.4731 5.82634 9.49979 4.85301 9.49979 3.65968C9.49979 3.60634 9.49979 3.49301 9.29979 3.49301H6.70646C6.52646 3.49301 6.50646 3.60634 6.50646 3.65968C6.50646 4.85301 5.53313 5.82634 4.33979 5.82634C4.19979 5.82634 4.06646 5.81301 3.93979 5.79301C3.87313 5.77968 3.72646 5.85301 3.72646 6.01301C3.72646 6.17301 3.33979 13.953 3.33979 13.953C3.31979 14.3397 3.62646 14.6597 4.01312 14.6597H5.45312C5.76646 14.6597 6.03979 14.4397 6.10646 14.133L7.87312 6.07967C7.90646 5.93967 8.10646 5.93967 8.13979 6.07967L9.90646 14.133C9.97312 14.4397 10.2465 14.6597 10.5598 14.6597H11.9998C12.3865 14.6597 12.6931 14.3397 12.6731 13.953C12.6731 13.953 12.2865 6.22634 12.2865 6.01301H12.2798Z" fill="#3B3B3E"/>
</svg>
