<svg width="16" height="16" viewBox="0 0 16 16" fill="none" xmlns="http://www.w3.org/2000/svg">
<path d="M9.44254 13.1677C9.50187 13.271 9.50121 13.399 9.44121 13.5017C9.13721 14.0223 8.59854 14.3337 7.99987 14.3337C7.4012 14.3337 6.86254 14.0223 6.55854 13.5017C6.49854 13.399 6.49787 13.271 6.5572 13.1677C6.61654 13.0643 6.72654 13.0003 6.84654 13.0003H9.1532C9.27253 13.0003 9.38254 13.0643 9.44254 13.1677ZM13.5939 11.7923C13.5812 11.777 12.3299 10.1883 12.3299 8.33366V5.99699C12.3299 3.60966 10.3872 1.66699 7.99987 1.66699C5.61254 1.66699 3.66987 3.60966 3.66987 5.99699V8.33366C3.66987 10.1877 2.4192 11.7763 2.40587 11.7923C2.32587 11.8923 2.31054 12.0297 2.36587 12.145C2.42121 12.2603 2.53787 12.3337 2.66587 12.3337H13.3325C13.4605 12.3337 13.5772 12.2603 13.6325 12.145C13.6892 12.029 13.6732 11.8923 13.5939 11.7923Z" fill="#3B3B3E"/>
</svg>
