<svg width="16" height="16" viewBox="0 0 16 16" fill="none" xmlns="http://www.w3.org/2000/svg">
<g clip-path="url(#clip0_36251_7624)">
<path d="M8.00016 0.833008C4.04816 0.833008 0.833496 4.04767 0.833496 7.99967C0.833496 11.9517 4.04816 15.1663 8.00016 15.1663C11.9522 15.1663 15.1668 11.9517 15.1668 7.99967C15.1668 4.04767 11.9522 0.833008 8.00016 0.833008ZM8.00016 14.1663C4.5995 14.1663 1.8335 11.4003 1.8335 7.99967C1.8335 4.59901 4.5995 1.83301 8.00016 1.83301C11.4008 1.83301 14.1668 4.59901 14.1668 7.99967C14.1668 11.4003 11.4008 14.1663 8.00016 14.1663ZM11.6868 6.31299C11.8822 6.50832 11.8822 6.82501 11.6868 7.02034L9.82483 8.88232C9.37083 9.33699 8.63016 9.33764 8.1755 8.88297L7.11616 7.82633C7.05083 7.761 6.9455 7.761 6.88017 7.82633L5.0195 9.68701C4.92216 9.78434 4.79416 9.83366 4.66616 9.83366C4.53816 9.83366 4.41016 9.78501 4.31283 9.68701C4.1175 9.49168 4.1175 9.17499 4.31283 8.97965L6.17349 7.11898C6.62816 6.66431 7.36816 6.66433 7.82282 7.11833L8.88216 8.17497C8.94749 8.23963 9.05283 8.23963 9.11816 8.17497L10.9802 6.31299C11.1755 6.11765 11.4915 6.11765 11.6868 6.31299Z" fill="#3B3B3E"/>
</g>
<defs>
<clipPath id="clip0_36251_7624">
<rect width="16" height="16" fill="white"/>
</clipPath>
</defs>
</svg>
