<svg width="16" height="16" viewBox="0 0 16 16" fill="none" xmlns="http://www.w3.org/2000/svg">
<g clip-path="url(#clip0_36251_7627)">
<path d="M8.49949 13.9644C8.51549 14.2404 8.30483 14.4763 8.02883 14.4923C7.9055 14.4997 7.79016 14.4997 7.66683 14.4997C3.89883 14.4997 0.833496 11.4343 0.833496 7.66634C0.833496 3.89834 3.89883 0.833008 7.66683 0.833008C11.4348 0.833008 14.5002 3.89834 14.5002 7.66634C14.5002 7.78967 14.5002 7.90499 14.4928 8.02832C14.4775 8.30365 14.2462 8.52036 13.9648 8.49902C13.6888 8.48369 13.4788 8.24703 13.4942 7.97103C13.5002 7.86769 13.4995 7.76967 13.4995 7.66634C13.4995 4.44967 10.8828 1.83301 7.66616 1.83301C4.44949 1.83301 1.83282 4.44967 1.83282 7.66634C1.83282 10.883 4.44949 13.4997 7.66616 13.4997C7.77016 13.4977 7.86683 13.4996 7.97083 13.4943C8.25349 13.4723 8.48349 13.689 8.49949 13.9644ZM11.0202 6.11304C10.8248 5.9177 10.5082 5.9177 10.3128 6.11304L8.63682 7.78898C8.59682 7.82765 8.53417 7.82765 8.49483 7.78898L7.5415 6.83765C7.11284 6.40965 6.4155 6.40971 5.98617 6.83838L4.31215 8.51237C4.11682 8.7077 4.11682 9.02439 4.31215 9.21973C4.40949 9.31706 4.53749 9.36637 4.66549 9.36637C4.79349 9.36637 4.92151 9.31773 5.01884 9.21973L6.69283 7.54565C6.73216 7.50632 6.79551 7.50565 6.83484 7.54565L7.78817 8.49707C8.21817 8.9244 8.91484 8.92442 9.34351 8.49642L11.0195 6.82031C11.2155 6.62498 11.2155 6.30837 11.0202 6.11304ZM15.1135 12.333C14.7628 14.109 12.6282 15.0824 12.5375 15.123C12.4728 15.1517 12.4028 15.1663 12.3335 15.1663C12.2642 15.1663 12.1942 15.1517 12.1295 15.123C12.0388 15.0824 9.90349 14.109 9.55349 12.333C9.41149 11.6117 9.55217 10.9263 9.94084 10.451C10.2695 10.049 10.7395 9.83567 11.3002 9.83301C11.7508 9.80567 12.0862 10.0016 12.3342 10.2249C12.5815 10.0016 12.9175 9.80701 13.3675 9.83301C13.9288 9.83567 14.3988 10.049 14.7268 10.4504C15.1148 10.925 15.2555 11.611 15.1135 12.333ZM13.9528 11.0837C13.8155 10.9163 13.6228 10.8343 13.3628 10.833C13.3622 10.833 13.3608 10.833 13.3602 10.833C12.9742 10.833 12.8215 11.2171 12.8055 11.2611C12.7328 11.4597 12.5628 11.5796 12.3288 11.5916C12.1168 11.589 11.9282 11.4557 11.8602 11.2557C11.8462 11.217 11.6935 10.8337 11.3068 10.8337C11.3062 10.8337 11.3055 10.8337 11.3042 10.8337C11.0448 10.835 10.8522 10.917 10.7148 11.0843C10.5188 11.3236 10.4515 11.7183 10.5348 12.1396C10.7322 13.1423 11.8635 13.8509 12.3335 14.1063C12.8042 13.8509 13.9342 13.1423 14.1322 12.1396C14.2155 11.7176 14.1482 11.323 13.9528 11.0837Z" fill="#3B3B3E"/>
</g>
<defs>
<clipPath id="clip0_36251_7627">
<rect width="16" height="16" fill="white"/>
</clipPath>
</defs>
</svg>
