<svg width="16" height="16" viewBox="0 0 16 16" fill="none" xmlns="http://www.w3.org/2000/svg">
<g clip-path="url(#clip0_36251_7637)">
<path d="M11.7467 14.4997H4.25334C2.478 14.4997 1.5 13.5218 1.5 11.7464V4.24642C1.5 2.47509 2.478 1.49967 4.25334 1.49967H9.33333C9.60933 1.49967 9.83333 1.72367 9.83333 1.99967C9.83333 2.27567 9.60933 2.49967 9.33333 2.49967H4.25334C3.02467 2.49967 2.5 3.02242 2.5 4.24642V11.7464C2.5 12.9751 3.02467 13.4997 4.25334 13.4997H11.7467C12.9753 13.4997 13.5 12.9751 13.5 11.7464V6.66634C13.5 6.39034 13.724 6.16634 14 6.16634C14.276 6.16634 14.5 6.39034 14.5 6.66634V11.7464C14.5 13.5218 13.522 14.4997 11.7467 14.4997ZM5.02 9.68636L6.88067 7.82568C6.946 7.76035 7.05134 7.76035 7.11667 7.82568L8.17601 8.88232C8.63067 9.33632 9.37067 9.33634 9.82534 8.88167L11.6873 7.01969C11.8827 6.82436 11.8827 6.50767 11.6873 6.31234C11.492 6.117 11.1753 6.117 10.98 6.31234L9.118 8.17432C9.05267 8.23898 8.94733 8.23965 8.882 8.17432L7.82266 7.11768C7.368 6.66368 6.628 6.66366 6.17333 7.11833L4.31266 8.979C4.11733 9.17434 4.11733 9.49103 4.31266 9.68636C4.41 9.78369 4.538 9.83301 4.666 9.83301C4.794 9.83301 4.92267 9.78436 5.02 9.68636ZM15.1667 2.66634C15.1667 1.65501 14.3447 0.833008 13.3333 0.833008C12.322 0.833008 11.5 1.65501 11.5 2.66634C11.5 3.67767 12.322 4.49967 13.3333 4.49967C14.3447 4.49967 15.1667 3.67767 15.1667 2.66634ZM14.1667 2.66634C14.1667 3.12567 13.7927 3.49967 13.3333 3.49967C12.874 3.49967 12.5 3.12567 12.5 2.66634C12.5 2.20701 12.874 1.83301 13.3333 1.83301C13.7927 1.83301 14.1667 2.20701 14.1667 2.66634Z" fill="#3B3B3E"/>
</g>
<defs>
<clipPath id="clip0_36251_7637">
<rect width="16" height="16" fill="white"/>
</clipPath>
</defs>
</svg>
