<svg width="16" height="16" viewBox="0 0 16 16" fill="none" xmlns="http://www.w3.org/2000/svg">
<g clip-path="url(#clip0_36251_7626)">
<path d="M8.49949 13.9644C8.51549 14.2404 8.30483 14.4763 8.02883 14.4923C7.9055 14.4997 7.79016 14.4997 7.66683 14.4997C3.89883 14.4997 0.833496 11.4343 0.833496 7.66634C0.833496 3.89834 3.89883 0.833008 7.66683 0.833008C11.4348 0.833008 14.5002 3.89834 14.5002 7.66634C14.5002 7.78967 14.5002 7.90499 14.4928 8.02832C14.4775 8.30365 14.2522 8.52036 13.9648 8.49902C13.6888 8.48369 13.4788 8.24703 13.4942 7.97103C13.5002 7.86769 13.4995 7.76967 13.4995 7.66634C13.4995 4.44967 10.8828 1.83301 7.66616 1.83301C4.44949 1.83301 1.83282 4.44967 1.83282 7.66634C1.83282 10.883 4.44949 13.4997 7.66616 13.4997C7.77149 13.4977 7.86683 13.4996 7.97083 13.4943C8.25016 13.4723 8.48349 13.689 8.49949 13.9644ZM11.0202 6.11304C10.8248 5.9177 10.5082 5.9177 10.3128 6.11304L8.63683 7.78898C8.59683 7.82765 8.53417 7.82765 8.49483 7.78898L7.54149 6.83765C7.11283 6.40965 6.4155 6.40971 5.98617 6.83838L4.31216 8.51237C4.11683 8.7077 4.11683 9.02439 4.31216 9.21973C4.4095 9.31706 4.5375 9.36637 4.6655 9.36637C4.7935 9.36637 4.9215 9.31773 5.01883 9.21973L6.69283 7.54565C6.73216 7.50632 6.79483 7.50565 6.83483 7.54565L7.78817 8.49707C8.2175 8.9244 8.91416 8.92442 9.3435 8.49642L11.0195 6.82031C11.2155 6.62498 11.2155 6.30837 11.0202 6.11304ZM14.9335 12.5837L14.1882 13.2943L14.3575 14.2604C14.4082 14.5504 14.2922 14.839 14.0542 15.0137C13.9168 15.115 13.7555 15.1663 13.5922 15.1663C13.4702 15.1663 13.3468 15.1376 13.2328 15.0783L12.3328 14.6157L11.4335 15.0783C11.1675 15.215 10.8528 15.1904 10.6122 15.013C10.3742 14.8384 10.2582 14.5496 10.3088 14.2596L10.4775 13.2943L9.73283 12.5843C9.52216 12.383 9.44683 12.0864 9.53549 11.8104C9.62483 11.5324 9.86083 11.3343 10.1515 11.293L11.1902 11.145L11.6368 10.2596C11.7695 9.99627 12.0362 9.83301 12.3322 9.83301C12.6282 9.83301 12.8955 9.99642 13.0282 10.2604L13.4742 11.1457L14.5128 11.2936C14.8035 11.335 15.0402 11.533 15.1288 11.811C15.2195 12.0864 15.1435 12.383 14.9335 12.5837ZM12.1362 10.7096C12.1362 10.7096 12.1362 10.7103 12.1368 10.7103L12.1362 10.7096ZM13.8748 12.2118L13.2122 12.1177C12.9648 12.0823 12.7515 11.929 12.6402 11.7077L12.3342 11.1011L12.0275 11.709C11.9168 11.9297 11.7028 12.083 11.4562 12.1183L10.7935 12.2131L11.2655 12.6631C11.4475 12.8378 11.5308 13.0889 11.4875 13.3363L11.3742 13.987L11.9848 13.6724C12.2042 13.5597 12.4655 13.5597 12.6848 13.673L13.2948 13.987L13.1808 13.3377C13.1382 13.0897 13.2208 12.8384 13.4028 12.6644L13.8748 12.2118Z" fill="#3B3B3E"/>
</g>
<defs>
<clipPath id="clip0_36251_7626">
<rect width="16" height="16" fill="white"/>
</clipPath>
</defs>
</svg>
