<svg width="16" height="16" viewBox="0 0 16 16" fill="none" xmlns="http://www.w3.org/2000/svg">
<g clip-path="url(#clip0_36251_7625)">
<path d="M15.0235 6.56632C15.1188 7.03432 15.1668 7.51634 15.1668 7.99967C15.1668 11.9517 11.9522 15.1663 8.00016 15.1663C4.04816 15.1663 0.833496 11.9517 0.833496 7.99967C0.833496 4.04767 4.04816 0.833008 8.00016 0.833008C8.4835 0.833008 8.96549 0.880985 9.43349 0.976318C9.70416 1.03165 9.87816 1.29566 9.8235 1.56632C9.76816 1.83632 9.50483 2.01038 9.2335 1.95638C8.8315 1.87438 8.41616 1.83301 8.00016 1.83301C4.5995 1.83301 1.8335 4.59901 1.8335 7.99967C1.8335 11.4003 4.5995 14.1663 8.00016 14.1663C11.4008 14.1663 14.1668 11.4003 14.1668 7.99967C14.1668 7.58301 14.1255 7.16836 14.0435 6.76636C13.9882 6.49569 14.1628 6.23168 14.4335 6.17635C14.7048 6.12235 14.9682 6.29632 15.0235 6.56632ZM8.88216 8.17562L7.82282 7.11898C7.36816 6.66498 6.62816 6.66504 6.17349 7.11971L4.31283 8.98031C4.11749 9.17564 4.11749 9.49233 4.31283 9.68766C4.41016 9.785 4.53816 9.83431 4.66616 9.83431C4.79416 9.83431 4.92217 9.78566 5.0195 9.68766L6.88017 7.82699C6.9455 7.76165 7.05083 7.76165 7.11616 7.82699L8.1755 8.88363C8.63016 9.33763 9.37016 9.33764 9.82483 8.88297L11.6868 7.021C11.8822 6.82566 11.8822 6.50897 11.6868 6.31364C11.4915 6.11831 11.1748 6.11831 10.9795 6.31364L9.11749 8.17562C9.05283 8.23962 8.94683 8.24028 8.88216 8.17562ZM11.5002 2.66634C11.5002 1.65501 12.3222 0.833008 13.3335 0.833008C14.3448 0.833008 15.1668 1.65501 15.1668 2.66634C15.1668 3.67767 14.3448 4.49967 13.3335 4.49967C12.3222 4.49967 11.5002 3.67767 11.5002 2.66634ZM12.5002 2.66634C12.5002 3.12567 12.8742 3.49967 13.3335 3.49967C13.7928 3.49967 14.1668 3.12567 14.1668 2.66634C14.1668 2.20701 13.7928 1.83301 13.3335 1.83301C12.8742 1.83301 12.5002 2.20701 12.5002 2.66634Z" fill="#3B3B3E"/>
</g>
<defs>
<clipPath id="clip0_36251_7625">
<rect width="16" height="16" fill="white"/>
</clipPath>
</defs>
</svg>
