<svg width="16" height="16" viewBox="0 0 16 16" fill="none" xmlns="http://www.w3.org/2000/svg">
<path d="M7.99998 14.5H3.58665C1.81132 14.5 0.833313 13.5221 0.833313 11.7467V4.24674C0.833313 2.47541 1.81132 1.5 3.58665 1.5H11.08C12.8553 1.5 13.8333 2.47541 13.8333 4.24674V8C13.8333 8.276 13.6093 8.5 13.3333 8.5C13.0573 8.5 12.8333 8.276 12.8333 8V4.24674C12.8333 3.02274 12.3086 2.5 11.08 2.5H3.58665C2.35798 2.5 1.83331 3.02274 1.83331 4.24674V11.7467C1.83331 12.9754 2.35798 13.5 3.58665 13.5H7.99998C8.27598 13.5 8.49998 13.724 8.49998 14C8.49998 14.276 8.27598 14.5 7.99998 14.5ZM14.054 15.014C14.292 14.8393 14.408 14.5507 14.3573 14.2607L14.188 13.2946L14.9333 12.584C15.1433 12.3833 15.2193 12.0867 15.1306 11.8107C15.0413 11.5327 14.8053 11.3346 14.5146 11.2933L13.476 11.1453L13.03 10.2599C12.8973 9.99593 12.6307 9.83268 12.334 9.83268C12.0373 9.83268 11.7706 9.99594 11.6386 10.2593L11.192 11.1447L10.1533 11.2926C9.86264 11.334 9.62598 11.5321 9.53731 11.8101C9.44865 12.0861 9.52398 12.3827 9.73465 12.584L10.4793 13.2939L10.3106 14.2593C10.26 14.5493 10.376 14.838 10.614 15.0127C10.8547 15.19 11.1693 15.2146 11.4353 15.078L12.3346 14.6154L13.2347 15.078C13.3487 15.1366 13.4713 15.166 13.594 15.166C13.7553 15.1667 13.9166 15.1153 14.054 15.014ZM12.2253 14.5607H12.226H12.2253ZM12.4426 14.5601L12.442 14.5607C12.442 14.5607 12.442 14.5607 12.4426 14.5601ZM11.4553 12.118C11.7026 12.0827 11.916 11.9293 12.0266 11.7087L12.3333 11.1006L12.6393 11.7074C12.7506 11.9294 12.9646 12.082 13.2113 12.1174L13.874 12.2113L13.4013 12.6626C13.22 12.8366 13.1366 13.0879 13.1793 13.3359L13.2933 13.9854L12.6833 13.6714C12.4633 13.5581 12.202 13.5581 11.9833 13.6707L11.3727 13.9854L11.486 13.3346C11.5286 13.0873 11.446 12.836 11.264 12.6613L10.792 12.2113L11.4553 12.118ZM14.374 12.2834H14.3806H14.374ZM4.35331 9.68669L6.21398 7.82601C6.27931 7.76068 6.38465 7.76068 6.44998 7.82601L7.50932 8.88265C7.96398 9.33665 8.70398 9.33667 9.15865 8.882L11.0207 7.02002C11.216 6.82469 11.216 6.508 11.0207 6.31266C10.8253 6.11733 10.5086 6.11733 10.3133 6.31266L8.45131 8.17464C8.38665 8.23931 8.28131 8.23998 8.21531 8.17464L7.15598 7.118C6.70131 6.664 5.96131 6.66399 5.50664 7.11865L3.64598 8.97933C3.45064 9.17466 3.45064 9.49135 3.64598 9.68669C3.74331 9.78402 3.87131 9.83333 3.99931 9.83333C4.12731 9.83333 4.25598 9.78469 4.35331 9.68669Z" fill="#3B3B3E"/>
</svg>
