<svg width="16" height="16" viewBox="0 0 16 16" fill="none" xmlns="http://www.w3.org/2000/svg">
<path d="M7.99998 14.5H3.58665C1.81132 14.5 0.833313 13.5221 0.833313 11.7467V4.24674C0.833313 2.47541 1.81132 1.5 3.58665 1.5H11.08C12.8553 1.5 13.8333 2.47541 13.8333 4.24674V8C13.8333 8.276 13.6093 8.5 13.3333 8.5C13.0573 8.5 12.8333 8.276 12.8333 8V4.24674C12.8333 3.02274 12.3086 2.5 11.08 2.5H3.58665C2.35798 2.5 1.83331 3.02274 1.83331 4.24674V11.7467C1.83331 12.9754 2.35798 13.5 3.58665 13.5H7.99998C8.27598 13.5 8.49998 13.724 8.49998 14C8.49998 14.276 8.27598 14.5 7.99998 14.5ZM4.35331 9.68669L6.21399 7.82601C6.27932 7.76068 6.38464 7.76068 6.44997 7.82601L7.50932 8.88265C7.96398 9.33665 8.70398 9.33667 9.15865 8.882L11.0206 7.02002C11.216 6.82469 11.216 6.508 11.0206 6.31266C10.8253 6.11733 10.5086 6.11733 10.3133 6.31266L8.45131 8.17464C8.38665 8.23931 8.28131 8.23998 8.21531 8.17464L7.15599 7.118C6.70132 6.664 5.96132 6.66399 5.50665 7.11865L3.64598 8.97933C3.45064 9.17466 3.45064 9.49135 3.64598 9.68669C3.74331 9.78402 3.87131 9.83333 3.99931 9.83333C4.12731 9.83333 4.25598 9.78469 4.35331 9.68669ZM12.5373 15.1234C12.628 15.0827 14.7627 14.1093 15.1133 12.3333C15.2553 11.6113 15.1146 10.9254 14.726 10.4507C14.398 10.0494 13.928 9.836 13.3666 9.83333C12.9166 9.826 12.5806 10.0026 12.3333 10.2253C12.0853 10.0026 11.75 9.82467 11.2993 9.83333C10.7386 9.836 10.2686 10.0493 9.93998 10.4513C9.55131 10.926 9.41065 11.612 9.55265 12.3333C9.90265 14.1093 12.038 15.0827 12.1286 15.1234C12.1933 15.152 12.2633 15.1667 12.3326 15.1667C12.402 15.1667 12.4726 15.152 12.5373 15.1234ZM11.86 11.2554C11.928 11.456 12.1167 11.5886 12.3287 11.5913C12.5633 11.5913 12.7327 11.4594 12.8053 11.2607C12.8213 11.2167 12.9506 10.84 13.3626 10.8327C13.6226 10.834 13.816 10.916 13.9526 11.0833C14.148 11.3227 14.2153 11.7173 14.1326 12.1387C13.9346 13.1407 12.804 13.85 12.334 14.1053C11.8633 13.85 10.7327 13.1413 10.5353 12.1387C10.452 11.718 10.5193 11.3233 10.7153 11.0833C10.8526 10.916 11.0453 10.8333 11.3046 10.8327C11.3053 10.8327 11.3066 10.8327 11.3073 10.8327C11.6933 10.8333 11.846 11.2174 11.86 11.2554ZM14.6226 12.236H14.6293H14.6226Z" fill="#3B3B3E"/>
</svg>
