<svg width="16" height="16" viewBox="0 0 16 16" fill="none" xmlns="http://www.w3.org/2000/svg">
<path d="M11.75 14.5H4.25C2.47667 14.5 1.5 13.5233 1.5 11.75V4.25C1.5 2.47667 2.47667 1.5 4.25 1.5H11.75C13.5233 1.5 14.5 2.47667 14.5 4.25V11.75C14.5 13.5233 13.5233 14.5 11.75 14.5ZM4.25 2.5C3.02333 2.5 2.5 3.02333 2.5 4.25V11.75C2.5 12.9767 3.02333 13.5 4.25 13.5H11.75C12.9767 13.5 13.5 12.9767 13.5 11.75V4.25C13.5 3.02333 12.9767 2.5 11.75 2.5H4.25ZM5.02 9.68669L6.88067 7.82601C6.946 7.76068 7.05134 7.76068 7.11667 7.82601L8.17601 8.88265C8.63067 9.33665 9.37067 9.33667 9.82534 8.882L11.6873 7.02002C11.8827 6.82469 11.8827 6.508 11.6873 6.31266C11.492 6.11733 11.1753 6.11733 10.98 6.31266L9.118 8.17464C9.05267 8.23931 8.94733 8.23998 8.882 8.17464L7.82266 7.118C7.368 6.664 6.628 6.66399 6.17333 7.11865L4.31267 8.97933C4.11733 9.17466 4.11733 9.49135 4.31267 9.68669C4.41 9.78402 4.538 9.83333 4.666 9.83333C4.794 9.83333 4.92267 9.78469 5.02 9.68669Z" fill="#3B3B3E"/>
</svg>
