<svg width="16" height="16" viewBox="0 0 16 16" fill="none" xmlns="http://www.w3.org/2000/svg">
<path d="M8.33333 1.5H7.66667C6.72733 1.5 6.16667 2.06067 6.16667 3V13C6.16667 13.9393 6.72733 14.5 7.66667 14.5H8.33333C9.27267 14.5 9.83333 13.9393 9.83333 13V3C9.83333 2.06067 9.27267 1.5 8.33333 1.5ZM8.83333 13C8.83333 13.3927 8.726 13.5 8.33333 13.5H7.66667C7.274 13.5 7.16667 13.3927 7.16667 13V3C7.16667 2.60733 7.274 2.5 7.66667 2.5H8.33333C8.726 2.5 8.83333 2.60733 8.83333 3V13ZM13 4.83333H12.3333C11.394 4.83333 10.8333 5.394 10.8333 6.33333V13C10.8333 13.9393 11.394 14.5 12.3333 14.5H13C13.9393 14.5 14.5 13.9393 14.5 13V6.33333C14.5 5.394 13.9393 4.83333 13 4.83333ZM13.5 13C13.5 13.3927 13.3927 13.5 13 13.5H12.3333C11.9407 13.5 11.8333 13.3927 11.8333 13V6.33333C11.8333 5.94067 11.9407 5.83333 12.3333 5.83333H13C13.3927 5.83333 13.5 5.94067 13.5 6.33333V13ZM3.66667 7.5H3C2.06067 7.5 1.5 8.06067 1.5 9V13C1.5 13.9393 2.06067 14.5 3 14.5H3.66667C4.606 14.5 5.16667 13.9393 5.16667 13V9C5.16667 8.06067 4.606 7.5 3.66667 7.5ZM4.16667 13C4.16667 13.3927 4.05933 13.5 3.66667 13.5H3C2.60733 13.5 2.5 13.3927 2.5 13V9C2.5 8.60733 2.60733 8.5 3 8.5H3.66667C4.05933 8.5 4.16667 8.60733 4.16667 9V13Z" fill="#3B3B3E"/>
</svg>
