<svg width="16" height="16" viewBox="0 0 16 16" fill="none" xmlns="http://www.w3.org/2000/svg">
<g clip-path="url(#clip0_36251_7635)">
<path d="M8.00016 15.1663C4.04816 15.1663 0.833496 11.9517 0.833496 7.99967C0.833496 4.04767 4.04816 0.833008 8.00016 0.833008C11.9522 0.833008 15.1668 4.04767 15.1668 7.99967C15.1668 11.9517 11.9522 15.1663 8.00016 15.1663ZM8.00016 1.83301C4.5995 1.83301 1.8335 4.59901 1.8335 7.99967C1.8335 11.4003 4.5995 14.1663 8.00016 14.1663C11.4008 14.1663 14.1668 11.4003 14.1668 7.99967C14.1668 4.59901 11.4008 1.83301 8.00016 1.83301ZM10.0002 11.833C9.06083 11.833 8.50016 11.2723 8.50016 10.333V5.66634C8.50016 4.72701 9.06083 4.16634 10.0002 4.16634C10.9395 4.16634 11.5002 4.72701 11.5002 5.66634V10.333C11.5002 11.2723 10.9395 11.833 10.0002 11.833ZM10.0002 5.16634C9.6075 5.16634 9.50016 5.27367 9.50016 5.66634V10.333C9.50016 10.7257 9.6075 10.833 10.0002 10.833C10.3928 10.833 10.5002 10.7257 10.5002 10.333V5.66634C10.5002 5.27367 10.3928 5.16634 10.0002 5.16634ZM6.00016 11.833C5.06083 11.833 4.50016 11.2723 4.50016 10.333V8.33301C4.50016 7.39367 5.06083 6.83301 6.00016 6.83301C6.9395 6.83301 7.50016 7.39367 7.50016 8.33301V10.333C7.50016 11.2723 6.9395 11.833 6.00016 11.833ZM6.00016 7.83301C5.6075 7.83301 5.50016 7.94034 5.50016 8.33301V10.333C5.50016 10.7257 5.6075 10.833 6.00016 10.833C6.39283 10.833 6.50016 10.7257 6.50016 10.333V8.33301C6.50016 7.94034 6.39283 7.83301 6.00016 7.83301Z" fill="#3B3B3E"/>
</g>
<defs>
<clipPath id="clip0_36251_7635">
<rect width="16" height="16" fill="white"/>
</clipPath>
</defs>
</svg>
