<svg width="16" height="16" viewBox="0 0 16 16" fill="none" xmlns="http://www.w3.org/2000/svg">
<path d="M11.75 14.5H4.25C2.47667 14.5 1.5 13.5233 1.5 11.75V4.25C1.5 2.47667 2.47667 1.5 4.25 1.5H11.75C13.5233 1.5 14.5 2.47667 14.5 4.25V11.75C14.5 13.5233 13.5233 14.5 11.75 14.5ZM4.25 2.5C3.02333 2.5 2.5 3.02333 2.5 4.25V11.75C2.5 12.9767 3.02333 13.5 4.25 13.5H11.75C12.9767 13.5 13.5 12.9767 13.5 11.75V4.25C13.5 3.02333 12.9767 2.5 11.75 2.5H4.25ZM10 11.8333C9.06067 11.8333 8.5 11.2727 8.5 10.3333V5.66667C8.5 4.72733 9.06067 4.16667 10 4.16667C10.9393 4.16667 11.5 4.72733 11.5 5.66667V10.3333C11.5 11.2727 10.9393 11.8333 10 11.8333ZM10 5.16667C9.60733 5.16667 9.5 5.274 9.5 5.66667V10.3333C9.5 10.726 9.60733 10.8333 10 10.8333C10.3927 10.8333 10.5 10.726 10.5 10.3333V5.66667C10.5 5.274 10.3927 5.16667 10 5.16667ZM6 11.8333C5.06067 11.8333 4.5 11.2727 4.5 10.3333V8.33333C4.5 7.394 5.06067 6.83333 6 6.83333C6.93933 6.83333 7.5 7.394 7.5 8.33333V10.3333C7.5 11.2727 6.93933 11.8333 6 11.8333ZM6 7.83333C5.60733 7.83333 5.5 7.94067 5.5 8.33333V10.3333C5.5 10.726 5.60733 10.8333 6 10.8333C6.39267 10.8333 6.5 10.726 6.5 10.3333V8.33333C6.5 7.94067 6.39267 7.83333 6 7.83333Z" fill="#3B3B3E"/>
</svg>
