<svg width="16" height="16" viewBox="0 0 16 16" fill="none" xmlns="http://www.w3.org/2000/svg">
<path d="M14.5 13.3337C14.5 13.6097 14.276 13.8337 14 13.8337H3C2.06067 13.8337 1.5 13.273 1.5 12.3337V2.66699C1.5 2.39099 1.724 2.16699 2 2.16699C2.276 2.16699 2.5 2.39099 2.5 2.66699V12.3337C2.5 12.7263 2.60733 12.8337 3 12.8337H14C14.276 12.8337 14.5 13.0577 14.5 13.3337ZM5.34666 9.66699C5.89933 9.66699 6.34666 9.21966 6.34666 8.66699C6.34666 8.57433 6.32999 8.48629 6.30666 8.40096L7.74733 6.96029C7.83267 6.98362 7.92066 7.00033 8.01333 7.00033C8.09866 7.00033 8.18 6.98631 8.25867 6.96631L9.71132 8.41829C9.69066 8.49829 9.67668 8.58033 9.67668 8.66699C9.67668 9.21966 10.1273 9.66699 10.68 9.66699C11.2327 9.66699 11.68 9.21966 11.68 8.66699C11.68 8.57433 11.6633 8.48629 11.64 8.40096L13.0807 6.96029C13.166 6.98362 13.254 7.00033 13.3467 7.00033C13.8993 7.00033 14.3467 6.55299 14.3467 6.00033C14.3467 5.44766 13.8993 5.00033 13.3467 5.00033H13.34C12.788 5.00033 12.3433 5.44766 12.3433 6.00033C12.3433 6.08633 12.358 6.16829 12.378 6.24829L10.9253 7.70101C10.846 7.68101 10.7647 7.66699 10.68 7.66699H10.6733C10.5827 7.66699 10.496 7.68298 10.4127 7.70565L8.97333 6.26636C8.99666 6.18102 9.01333 6.09299 9.01333 6.00033C9.01333 5.44766 8.56599 5.00033 8.01333 5.00033H8.00667C7.45467 5.00033 7.01001 5.44766 7.01001 6.00033C7.01001 6.08633 7.02466 6.16829 7.04466 6.24829L5.592 7.70101C5.51267 7.68101 5.43133 7.66699 5.34666 7.66699H5.34001C4.78801 7.66699 4.34334 8.11433 4.34334 8.66699C4.34334 9.21966 4.79399 9.66699 5.34666 9.66699Z" fill="#3B3B3E"/>
</svg>
