<svg width="16" height="16" viewBox="0 0 16 16" fill="none" xmlns="http://www.w3.org/2000/svg">
<path d="M14.5 13.3333C14.5 13.6093 14.276 13.8333 14 13.8333H3C2.06067 13.8333 1.5 13.2727 1.5 12.3333V2.66667C1.5 2.39067 1.724 2.16667 2 2.16667C2.276 2.16667 2.5 2.39067 2.5 2.66667V12.3333C2.5 12.726 2.60733 12.8333 3 12.8333H14C14.276 12.8333 14.5 13.0573 14.5 13.3333ZM8.16667 8V10.6667C8.16667 10.9427 8.39067 11.1667 8.66667 11.1667C8.94267 11.1667 9.16667 10.9427 9.16667 10.6667V8C9.16667 7.724 8.94267 7.5 8.66667 7.5C8.39067 7.5 8.16667 7.724 8.16667 8ZM12 6.16667C11.724 6.16667 11.5 6.39067 11.5 6.66667V10.6667C11.5 10.9427 11.724 11.1667 12 11.1667C12.276 11.1667 12.5 10.9427 12.5 10.6667V6.66667C12.5 6.39067 12.276 6.16667 12 6.16667ZM5.33333 11.1667C5.60933 11.1667 5.83333 10.9427 5.83333 10.6667V9.33333C5.83333 9.05733 5.60933 8.83333 5.33333 8.83333C5.05733 8.83333 4.83333 9.05733 4.83333 9.33333V10.6667C4.83333 10.9427 5.05733 11.1667 5.33333 11.1667ZM5.33333 5.93335C5.46133 5.93335 5.58933 5.8847 5.68667 5.7867L6.80332 4.67C6.92866 4.54467 7.15401 4.54467 7.28001 4.67L8.04667 5.43669C8.56801 5.95869 9.41667 5.95802 9.93667 5.43669L11.5 3.87337V4.66667C11.5 4.94267 11.724 5.16667 12 5.16667C12.276 5.16667 12.5 4.94267 12.5 4.66667V2.66667C12.5 2.60133 12.4867 2.53668 12.4613 2.47534C12.4107 2.35334 12.3133 2.256 12.1913 2.20467C12.13 2.17934 12.0653 2.16602 12 2.16602H10C9.724 2.16602 9.5 2.39002 9.5 2.66602C9.5 2.94202 9.724 3.16602 10 3.16602H10.7927L9.22933 4.72933C9.1 4.85866 8.882 4.858 8.75334 4.72933L7.98667 3.96265C7.46534 3.44131 6.61734 3.44131 6.09601 3.96265L4.97933 5.07935C4.784 5.27468 4.784 5.59137 4.97933 5.7867C5.07733 5.8847 5.20533 5.93335 5.33333 5.93335Z" fill="#3B3B3E"/>
</svg>
