<svg width="16" height="16" viewBox="0 0 16 16" fill="none" xmlns="http://www.w3.org/2000/svg">
<path d="M14.5 13.3332C14.5 13.6092 14.276 13.8332 14 13.8332H3C2.06067 13.8332 1.5 13.2725 1.5 12.3332V2.66652C1.5 2.39052 1.724 2.16652 2 2.16652C2.276 2.16652 2.5 2.39052 2.5 2.66652V12.3332C2.5 12.7259 2.60733 12.8332 3 12.8332H14C14.276 12.8332 14.5 13.0572 14.5 13.3332ZM6.09668 4.13649C6.61801 4.65782 7.46601 4.65782 7.98735 4.13649L8.75399 3.36989C8.88265 3.24122 9.10131 3.24056 9.22998 3.36989L10.7933 4.9332H10C9.724 4.9332 9.5 5.1572 9.5 5.4332C9.5 5.7092 9.724 5.9332 10 5.9332H12C12.0653 5.9332 12.13 5.91988 12.1913 5.89455C12.3133 5.84388 12.4107 5.74654 12.4613 5.62388C12.4867 5.56254 12.5 5.49788 12.5 5.43255V3.33319C12.5 3.05719 12.276 2.83319 12 2.83319C11.724 2.83319 11.5 3.05719 11.5 3.33319V4.22585L9.93669 2.66253C9.41602 2.1412 8.56734 2.14053 8.04667 2.66253L7.27999 3.42921C7.15132 3.55788 6.93268 3.55788 6.80334 3.42921L5.68669 2.31252C5.49135 2.11718 5.17466 2.11718 4.97933 2.31252C4.784 2.50785 4.784 2.82454 4.97933 3.01987L6.09668 4.13649ZM8.16667 7.99985V10.6665C8.16667 10.9425 8.39067 11.1665 8.66667 11.1665C8.94267 11.1665 9.16667 10.9425 9.16667 10.6665V7.99985C9.16667 7.72385 8.94267 7.49985 8.66667 7.49985C8.39067 7.49985 8.16667 7.72385 8.16667 7.99985ZM5.33333 11.1665C5.60933 11.1665 5.83333 10.9425 5.83333 10.6665V6.66652C5.83333 6.39052 5.60933 6.16652 5.33333 6.16652C5.05733 6.16652 4.83333 6.39052 4.83333 6.66652V10.6665C4.83333 10.9425 5.05733 11.1665 5.33333 11.1665ZM12 8.83319C11.724 8.83319 11.5 9.05719 11.5 9.33319V10.6665C11.5 10.9425 11.724 11.1665 12 11.1665C12.276 11.1665 12.5 10.9425 12.5 10.6665V9.33319C12.5 9.05719 12.276 8.83319 12 8.83319Z" fill="#3B3B3E"/>
</svg>
