<svg width="16" height="16" viewBox="0 0 16 16" fill="none" xmlns="http://www.w3.org/2000/svg">
<path d="M14.5 14C14.5 14.276 14.276 14.5 14 14.5H2C1.724 14.5 1.5 14.276 1.5 14C1.5 13.724 1.724 13.5 2 13.5H14C14.276 13.5 14.5 13.724 14.5 14ZM6.16667 11V3C6.16667 2.06067 6.72733 1.5 7.66667 1.5H8.33333C9.27267 1.5 9.83333 2.06067 9.83333 3V11C9.83333 11.9393 9.27267 12.5 8.33333 12.5H7.66667C6.72733 12.5 6.16667 11.9393 6.16667 11ZM7.16667 11C7.16667 11.3927 7.274 11.5 7.66667 11.5H8.33333C8.726 11.5 8.83333 11.3927 8.83333 11V3C8.83333 2.60733 8.726 2.5 8.33333 2.5H7.66667C7.274 2.5 7.16667 2.60733 7.16667 3V11ZM14.5 5.66667V11C14.5 11.9393 13.9393 12.5 13 12.5H12.3333C11.394 12.5 10.8333 11.9393 10.8333 11V5.66667C10.8333 4.72733 11.394 4.16667 12.3333 4.16667H13C13.9393 4.16667 14.5 4.72733 14.5 5.66667ZM13.5 5.66667C13.5 5.274 13.3927 5.16667 13 5.16667H12.3333C11.9407 5.16667 11.8333 5.274 11.8333 5.66667V11C11.8333 11.3927 11.9407 11.5 12.3333 11.5H13C13.3927 11.5 13.5 11.3927 13.5 11V5.66667ZM1.5 11V7.66667C1.5 6.72733 2.06067 6.16667 3 6.16667H3.66667C4.606 6.16667 5.16667 6.72733 5.16667 7.66667V11C5.16667 11.9393 4.606 12.5 3.66667 12.5H3C2.06067 12.5 1.5 11.9393 1.5 11ZM2.5 11C2.5 11.3927 2.60733 11.5 3 11.5H3.66667C4.05933 11.5 4.16667 11.3927 4.16667 11V7.66667C4.16667 7.274 4.05933 7.16667 3.66667 7.16667H3C2.60733 7.16667 2.5 7.274 2.5 7.66667V11Z" fill="#3B3B3E"/>
</svg>
