<svg width="16" height="16" viewBox="0 0 16 16" fill="none" xmlns="http://www.w3.org/2000/svg">
<path d="M14.5 13.3337C14.5 13.6097 14.276 13.8337 14 13.8337H3C2.06067 13.8337 1.5 13.273 1.5 12.3337V2.66699C1.5 2.39099 1.724 2.16699 2 2.16699C2.276 2.16699 2.5 2.39099 2.5 2.66699V12.3337C2.5 12.7263 2.60733 12.8337 3 12.8337H14C14.276 12.8337 14.5 13.0577 14.5 13.3337ZM4.66667 9.83366C4.79467 9.83366 4.92267 9.78501 5.02 9.68701L7.21666 7.49032C7.282 7.42498 7.38666 7.42565 7.452 7.49032L8.52266 8.55298C8.97733 9.00498 9.71734 9.00301 10.1713 8.54834L13.0207 5.68701C13.2153 5.49168 13.2153 5.17432 13.0193 4.97966C12.8233 4.78432 12.5067 4.78562 12.312 4.98096L9.46267 7.84229C9.39733 7.90695 9.292 7.90768 9.22666 7.84302L8.15667 6.78035C7.70267 6.32969 6.96334 6.32963 6.50934 6.78296L4.31267 8.97966C4.11733 9.17499 4.11733 9.49168 4.31267 9.68701C4.41067 9.78501 4.53867 9.83366 4.66667 9.83366Z" fill="#3B3B3E"/>
</svg>
