<svg width="16" height="16" viewBox="0 0 16 16" fill="none" xmlns="http://www.w3.org/2000/svg">
<path d="M14.4888 6.51291C14.1274 3.92958 12.0708 1.87284 9.48746 1.51218C9.15813 1.46551 8.8228 1.56618 8.5688 1.78618C8.3128 2.00885 8.16613 2.32953 8.16613 2.66753V6.6729C8.16613 7.3129 8.6868 7.8342 9.32747 7.8342H13.3334C13.6708 7.8342 13.9921 7.68751 14.2141 7.43218C14.4348 7.17818 14.5348 6.84358 14.4888 6.51291ZM13.4595 6.77487C13.4408 6.79687 13.3988 6.83355 13.3334 6.83355H9.32812C9.23878 6.83355 9.16678 6.76158 9.16678 6.67225V2.66688C9.16678 2.60088 9.20346 2.55892 9.22546 2.54025C9.24346 2.52425 9.27878 2.50021 9.32812 2.50021C9.33478 2.50021 9.34212 2.50085 9.34879 2.50152C9.34945 2.50152 9.34944 2.50152 9.34944 2.50152C11.4921 2.80085 13.1981 4.50751 13.4981 6.65085C13.5068 6.71085 13.4781 6.7542 13.4595 6.77487ZM12.0295 8.4382H8.06213C7.78679 8.4382 7.56213 8.2142 7.56213 7.9382V3.97092C7.56213 3.62758 7.40946 3.30553 7.14346 3.08753C6.8828 2.87487 6.54613 2.78887 6.21813 2.85487C4.6968 3.1602 3.33079 4.08352 2.47012 5.38685C1.60012 6.70485 1.3021 8.29952 1.63077 9.87619C2.0941 12.0995 3.89944 13.9049 6.12344 14.3689C6.54211 14.4562 6.9621 14.4996 7.37743 14.4996C8.52743 14.4996 9.64412 14.1688 10.6128 13.5295C11.9161 12.6688 12.8394 11.3035 13.1448 9.7822C13.2108 9.45553 13.1268 9.11757 12.9128 8.8569C12.6948 8.5909 12.3728 8.4382 12.0295 8.4382ZM10.0621 12.6955C8.96813 13.4182 7.64078 13.6655 6.32812 13.3902C4.48745 13.0062 2.99343 11.5123 2.6101 9.67225C2.3361 8.35825 2.58276 7.03222 3.30476 5.93755C4.01943 4.85488 5.15279 4.08891 6.41479 3.83558C6.42279 3.83425 6.42944 3.83355 6.43611 3.83355C6.46811 3.83355 6.49278 3.84754 6.50878 3.86154C6.52478 3.87421 6.56143 3.91092 6.56143 3.97092V7.9382C6.56143 8.76553 7.23477 9.4382 8.06143 9.4382H12.0288C12.0888 9.4382 12.1254 9.47485 12.1381 9.49085C12.1541 9.51085 12.1721 9.54357 12.1634 9.58623C11.9108 10.8476 11.1448 11.9809 10.0621 12.6955Z" fill="#3B3B3E"/>
</svg>
