<svg width="16" height="16" viewBox="0 0 16 16" fill="none" xmlns="http://www.w3.org/2000/svg">
<path d="M14.5 13.3337C14.5 13.6097 14.276 13.8337 14 13.8337H3C2.06067 13.8337 1.5 13.273 1.5 12.3337V2.66699C1.5 2.39099 1.724 2.16699 2 2.16699C2.276 2.16699 2.5 2.39099 2.5 2.66699V12.3337C2.5 12.7263 2.60733 12.8337 3 12.8337H14C14.276 12.8337 14.5 13.0577 14.5 13.3337ZM4.66667 11.167C4.94267 11.167 5.16667 10.943 5.16667 10.667V8.66699C5.16667 8.39099 4.94267 8.16699 4.66667 8.16699C4.39067 8.16699 4.16667 8.39099 4.16667 8.66699V10.667C4.16667 10.943 4.39067 11.167 4.66667 11.167ZM7.33333 11.167C7.60933 11.167 7.83333 10.943 7.83333 10.667V6.00033C7.83333 5.72433 7.60933 5.50033 7.33333 5.50033C7.05733 5.50033 6.83333 5.72433 6.83333 6.00033V10.667C6.83333 10.943 7.05733 11.167 7.33333 11.167ZM10 11.167C10.276 11.167 10.5 10.943 10.5 10.667V7.33366C10.5 7.05766 10.276 6.83366 10 6.83366C9.724 6.83366 9.5 7.05766 9.5 7.33366V10.667C9.5 10.943 9.724 11.167 10 11.167ZM12.6667 11.167C12.9427 11.167 13.1667 10.943 13.1667 10.667V3.33366C13.1667 3.05766 12.9427 2.83366 12.6667 2.83366C12.3907 2.83366 12.1667 3.05766 12.1667 3.33366V10.667C12.1667 10.943 12.3907 11.167 12.6667 11.167Z" fill="#3B3B3E"/>
</svg>
