<svg width="16" height="16" viewBox="0 0 16 16" fill="none" xmlns="http://www.w3.org/2000/svg">
<path d="M14.5 13.3337C14.5 13.6097 14.276 13.8337 14 13.8337H3C2.06067 13.8337 1.5 13.273 1.5 12.3337V2.66699C1.5 2.39099 1.724 2.16699 2 2.16699C2.276 2.16699 2.5 2.39099 2.5 2.66699V12.3337C2.5 12.7263 2.60733 12.8337 3 12.8337H14C14.276 12.8337 14.5 13.0577 14.5 13.3337ZM6.51 7.21769C6.96333 7.67103 7.70267 7.6723 8.15667 7.2203L9.22734 6.15698C9.29267 6.09232 9.39801 6.09297 9.46334 6.15763L12.1293 8.83366H11.3333C11.0573 8.83366 10.8333 9.05766 10.8333 9.33366C10.8333 9.60966 11.0573 9.83366 11.3333 9.83366H13.3333C13.3987 9.83366 13.4633 9.82034 13.524 9.795C13.578 9.77234 13.626 9.73829 13.668 9.69963C13.6733 9.69496 13.6807 9.693 13.6853 9.68766C13.7313 9.64166 13.768 9.58632 13.7933 9.52498C13.8187 9.46365 13.832 9.39898 13.832 9.33431C13.832 9.33431 13.832 9.33433 13.832 9.33366V7.33366C13.832 7.05766 13.608 6.83366 13.332 6.83366C13.056 6.83366 12.832 7.05766 12.832 7.33366V8.1237L10.17 5.45231C9.716 4.99698 8.97667 4.99567 8.52133 5.44767L7.45066 6.51099C7.386 6.57565 7.28067 6.57565 7.21533 6.51099L5.01867 4.31429C4.82333 4.11896 4.50666 4.11896 4.31133 4.31429C4.116 4.50962 4.116 4.82631 4.31133 5.02165L6.51 7.21769Z" fill="#3B3B3E"/>
</svg>
