<svg width="16" height="16" viewBox="0 0 16 16" fill="none" xmlns="http://www.w3.org/2000/svg">
<path d="M14.3195 11.705L9.53344 3.07031C9.22011 2.50431 8.64677 2.16699 8.00077 2.16699C7.35477 2.16699 6.78147 2.50431 6.46814 3.07031L1.68213 11.7056C1.43279 12.1543 1.44011 12.6863 1.70011 13.1283C1.96078 13.5703 2.4221 13.8343 2.93477 13.8343H13.0668C13.5801 13.8343 14.0415 13.5703 14.3015 13.1283C14.5608 12.6857 14.5681 12.1537 14.3195 11.705ZM5.15543 7.50033H10.8455L12.1388 9.83366H3.86279L5.15543 7.50033ZM7.34212 3.55501C7.47679 3.31168 7.72279 3.16699 8.00012 3.16699C8.27745 3.16699 8.52345 3.31168 8.65812 3.55501L10.2908 6.50033H5.70947L7.34212 3.55501ZM13.4388 12.6204C13.4008 12.6844 13.2888 12.8337 13.0655 12.8337H2.93347C2.7108 12.8337 2.59879 12.6844 2.56079 12.6204C2.52279 12.5564 2.44679 12.3857 2.55546 12.1897L3.30745 10.833H12.6921L13.4441 12.1897C13.5528 12.3857 13.4768 12.5557 13.4388 12.6204Z" fill="#3B3B3E"/>
</svg>
