<svg width="16" height="16" viewBox="0 0 16 16" fill="none" xmlns="http://www.w3.org/2000/svg">
<path d="M14 13.8337H3C2.06067 13.8337 1.5 13.273 1.5 12.3337V2.66699C1.5 2.39099 1.724 2.16699 2 2.16699C2.276 2.16699 2.5 2.39099 2.5 2.66699V12.3337C2.5 12.7263 2.60733 12.8337 3 12.8337H14C14.276 12.8337 14.5 13.0577 14.5 13.3337C14.5 13.6097 14.276 13.8337 14 13.8337ZM9.83333 4.66699C9.83333 4.39099 9.60933 4.16699 9.33333 4.16699H4.66667C4.39067 4.16699 4.16667 4.39099 4.16667 4.66699C4.16667 4.94299 4.39067 5.16699 4.66667 5.16699H9.33333C9.60933 5.16699 9.83333 4.94299 9.83333 4.66699ZM8.5 7.33366C8.5 7.05766 8.276 6.83366 8 6.83366H4.66667C4.39067 6.83366 4.16667 7.05766 4.16667 7.33366C4.16667 7.60966 4.39067 7.83366 4.66667 7.83366H8C8.276 7.83366 8.5 7.60966 8.5 7.33366ZM11.8333 10.0003C11.8333 9.72433 11.6093 9.50033 11.3333 9.50033H4.66667C4.39067 9.50033 4.16667 9.72433 4.16667 10.0003C4.16667 10.2763 4.39067 10.5003 4.66667 10.5003H11.3333C11.6093 10.5003 11.8333 10.2763 11.8333 10.0003Z" fill="#3B3B3E"/>
</svg>
