<svg width="16" height="16" viewBox="0 0 16 16" fill="none" xmlns="http://www.w3.org/2000/svg">
<path d="M14.5 13.3337C14.5 13.6097 14.276 13.8337 14 13.8337H3C2.06067 13.8337 1.5 13.273 1.5 12.3337V2.66699C1.5 2.39099 1.724 2.16699 2 2.16699C2.276 2.16699 2.5 2.39099 2.5 2.66699V12.3337C2.5 12.7263 2.60733 12.8337 3 12.8337H14C14.276 12.8337 14.5 13.0577 14.5 13.3337ZM4.66667 9.83366C4.79467 9.83366 4.92267 9.78501 5.02 9.68701L7.21666 7.49032C7.282 7.42498 7.38666 7.42565 7.452 7.49032L8.52266 8.55363C8.978 9.0063 9.71734 9.00366 10.1713 8.54899L12.8333 5.87769V6.66699C12.8333 6.94299 13.0573 7.16699 13.3333 7.16699C13.6093 7.16699 13.8333 6.94299 13.8333 6.66699V4.66699C13.8333 4.66699 13.8333 4.66701 13.8333 4.66634C13.8333 4.60101 13.82 4.53635 13.7947 4.47502C13.7693 4.41368 13.7327 4.35899 13.6867 4.31299C13.682 4.30832 13.6753 4.30633 13.67 4.30233C13.6273 4.26299 13.5793 4.22831 13.524 4.20565C13.47 4.18365 13.4127 4.1743 13.3553 4.17163C13.3473 4.17163 13.3407 4.16699 13.3333 4.16699H11.3333C11.0573 4.16699 10.8333 4.39099 10.8333 4.66699C10.8333 4.94299 11.0573 5.16699 11.3333 5.16699H12.1293L9.46334 7.84302C9.39801 7.90835 9.29267 7.90834 9.22734 7.84367L8.15733 6.78035C7.70266 6.32969 6.964 6.32963 6.51 6.78296L4.31333 8.97966C4.118 9.17499 4.118 9.49168 4.31333 9.68701C4.41067 9.78501 4.53867 9.83366 4.66667 9.83366Z" fill="#3B3B3E"/>
</svg>
