<svg width="16" height="16" viewBox="0 0 16 16" fill="none" xmlns="http://www.w3.org/2000/svg">
<path d="M12.7273 4.68669L9.9799 1.93929C9.70057 1.65996 9.31386 1.5 8.91919 1.5H5.33325C3.72125 1.5 2.83325 2.388 2.83325 4V12C2.83325 13.612 3.72125 14.5 5.33325 14.5H10.6666C12.2786 14.5 13.1666 13.612 13.1666 12V5.7474C13.1666 5.35273 13.0066 4.96602 12.7273 4.68669ZM12.1666 12C12.1666 13.0513 11.7179 13.5 10.6666 13.5H5.33325C4.28192 13.5 3.83325 13.0513 3.83325 12V4C3.83325 2.94867 4.28192 2.5 5.33325 2.5H8.91919C9.05052 2.5 9.17988 2.55331 9.27254 2.64665L12.0199 5.39404C12.1133 5.48738 12.1666 5.61606 12.1666 5.7474V12ZM9.66658 6.16667H6.33325C5.39392 6.16667 4.83325 6.72733 4.83325 7.66667V11C4.83325 11.9393 5.39392 12.5 6.33325 12.5H9.66658C10.6059 12.5 11.1666 11.9393 11.1666 11V7.66667C11.1666 6.72733 10.6059 6.16667 9.66658 6.16667ZM10.1666 7.66667V8.83333H8.49992V7.16667H9.66658C10.0593 7.16667 10.1666 7.274 10.1666 7.66667ZM5.83325 11V7.66667C5.83325 7.274 5.94059 7.16667 6.33325 7.16667H7.49992V11.5H6.33325C5.94059 11.5 5.83325 11.3927 5.83325 11ZM9.66658 11.5H8.49992V9.83333H10.1666V11C10.1666 11.3927 10.0593 11.5 9.66658 11.5Z" fill="#3B3B3E"/>
</svg>
