<svg width="16" height="16" viewBox="0 0 16 16" fill="none" xmlns="http://www.w3.org/2000/svg">
<path d="M6.08333 5.37667C6.34533 4.98134 6.5 4.50867 6.5 4C6.5 2.62133 5.37867 1.5 4 1.5C2.62133 1.5 1.5 2.62133 1.5 4C1.5 5.37867 2.62133 6.5 4 6.5C4.50867 6.5 4.98133 6.34533 5.37667 6.08333L7.29333 8L5.37667 9.91667C4.98133 9.65467 4.50867 9.5 4 9.5C2.62133 9.5 1.5 10.6213 1.5 12C1.5 13.3787 2.62133 14.5 4 14.5C5.37867 14.5 6.5 13.3787 6.5 12C6.5 11.4913 6.34533 11.0187 6.08333 10.6233L8 8.70667L12.98 13.6867C13.0773 13.784 13.2053 13.8333 13.3333 13.8333C13.4613 13.8333 13.5894 13.7847 13.6867 13.6867C13.882 13.4913 13.882 13.1747 13.6867 12.9793L6.08333 5.37667ZM4 13.5C3.17267 13.5 2.5 12.8273 2.5 12C2.5 11.1727 3.17267 10.5 4 10.5C4.41333 10.5 4.78733 10.668 5.05933 10.9387C5.05933 10.9387 5.06002 10.9393 5.06002 10.94C5.06002 10.9407 5.06065 10.9407 5.06132 10.9407C5.33265 11.212 5.5 11.5867 5.5 12C5.5 12.8273 4.82733 13.5 4 13.5ZM2.5 4C2.5 3.17267 3.17267 2.5 4 2.5C4.82733 2.5 5.5 3.17267 5.5 4C5.5 4.41333 5.33199 4.78733 5.06132 5.05933C5.06132 5.05933 5.06068 5.06 5.06002 5.06C5.05935 5.06 5.05933 5.06067 5.05933 5.06134C4.78799 5.33201 4.41333 5.5 4 5.5C3.17267 5.5 2.5 4.82733 2.5 4ZM9.31331 6.68667C9.11798 6.49133 9.11798 6.17466 9.31331 5.97933L12.98 2.31266C13.1753 2.11733 13.492 2.11733 13.6873 2.31266C13.8827 2.508 13.8827 2.82467 13.6873 3.02L10.0207 6.68667C9.92334 6.784 9.79532 6.83333 9.66732 6.83333C9.53932 6.83333 9.41065 6.78467 9.31331 6.68667Z" fill="#3B3B3E"/>
</svg>
