<svg width="16" height="16" viewBox="0 0 16 16" fill="none" xmlns="http://www.w3.org/2000/svg">
<path d="M14 1.5H2C1.724 1.5 1.5 1.724 1.5 2C1.5 2.276 1.724 2.5 2 2.5H2.5V8.66667C2.5 10.2787 3.388 11.1667 5 11.1667H7.5V12.3993L5.72266 13.584C5.49266 13.7373 5.43065 14.0473 5.58398 14.2773C5.73665 14.5073 6.04734 14.5693 6.27734 14.416L8 13.2673L9.72266 14.416C9.80799 14.4727 9.904 14.5 10 14.5C10.1613 14.5 10.32 14.422 10.4167 14.2773C10.57 14.0473 10.508 13.7373 10.278 13.584L8.50065 12.3993V11.1667H11.0007C12.6127 11.1667 13.5007 10.2787 13.5007 8.66667V2.5H14C14.276 2.5 14.5 2.276 14.5 2C14.5 1.724 14.276 1.5 14 1.5ZM12.5 8.66667C12.5 9.718 12.0513 10.1667 11 10.1667H5C3.94867 10.1667 3.5 9.718 3.5 8.66667V2.5H12.5V8.66667ZM4.83333 5.33333C4.83333 5.05733 5.05733 4.83333 5.33333 4.83333H10.6667C10.9427 4.83333 11.1667 5.05733 11.1667 5.33333C11.1667 5.60933 10.9427 5.83333 10.6667 5.83333H5.33333C5.05733 5.83333 4.83333 5.60933 4.83333 5.33333ZM4.83333 7.33333C4.83333 7.05733 5.05733 6.83333 5.33333 6.83333H8C8.276 6.83333 8.5 7.05733 8.5 7.33333C8.5 7.60933 8.276 7.83333 8 7.83333H5.33333C5.05733 7.83333 4.83333 7.60933 4.83333 7.33333Z" fill="#3B3B3E"/>
</svg>
