<svg width="16" height="16" viewBox="0 0 16 16" fill="none" xmlns="http://www.w3.org/2000/svg">
<path d="M14.2754 5.81134L13.5621 3.31333C13.3074 2.422 13.0441 1.5 11.1588 1.5H4.84204C2.95671 1.5 2.69272 2.422 2.43872 3.31333L1.72542 5.81134C1.57609 6.33267 1.50073 6.872 1.50073 7.414V12C1.50073 13.612 2.38873 14.5 4.00073 14.5H12.0007C13.6127 14.5 14.5007 13.612 14.5007 12V7.41333C14.5001 6.87133 14.4247 6.33267 14.2754 5.81134ZM12.6007 3.58799L13.314 6.086C13.3214 6.11267 13.324 6.14067 13.3314 6.16734H8.50008V2.50067H11.1581C12.2901 2.5 12.3681 2.77399 12.6007 3.58799ZM3.39941 3.58799C3.63275 2.77399 3.71071 2.5 4.84204 2.5H7.50008V6.16667H2.66878C2.67612 6.14 2.67812 6.112 2.68612 6.086L3.39941 3.58799ZM13.5001 12C13.5001 13.0513 13.0514 13.5 12.0001 13.5H4.00008C2.94875 13.5 2.50008 13.0513 2.50008 12V7.41333C2.50008 7.33066 2.51275 7.24867 2.51742 7.16667H13.4827C13.4867 7.24933 13.5001 7.33066 13.5001 7.41333V12V12ZM10.0201 8.75732C10.2154 8.95266 10.2154 9.26933 10.0201 9.46466L7.7981 11.6867C7.70076 11.784 7.57274 11.8333 7.44474 11.8333C7.31674 11.8333 7.18872 11.7847 7.09139 11.6867L5.98006 10.5753C5.78473 10.38 5.78473 10.0633 5.98006 9.868C6.1754 9.67267 6.49209 9.67267 6.68742 9.868L7.44539 10.6253L9.31405 8.75667C9.50871 8.56267 9.82477 8.56266 10.0201 8.75732Z" fill="#3B3B3E"/>
</svg>
