<svg width="16" height="16" viewBox="0 0 16 16" fill="none" xmlns="http://www.w3.org/2000/svg">
<path d="M8 5.49967C6.62133 5.49967 5.5 6.62101 5.5 7.99967C5.5 9.37834 6.62133 10.4997 8 10.4997C9.37867 10.4997 10.5 9.37834 10.5 7.99967C10.5 6.62101 9.37867 5.49967 8 5.49967ZM8 9.49967C7.17267 9.49967 6.5 8.82701 6.5 7.99967C6.5 7.17234 7.17267 6.49967 8 6.49967C8.82733 6.49967 9.5 7.17234 9.5 7.99967C9.5 8.82701 8.82733 9.49967 8 9.49967ZM12 2.83301H4C2.388 2.83301 1.5 3.72101 1.5 5.33301V10.6663C1.5 12.2783 2.388 13.1663 4 13.1663H12C13.612 13.1663 14.5 12.2783 14.5 10.6663V5.33301C14.5 3.72101 13.612 2.83301 12 2.83301ZM13.5 10.6663C13.5 11.7177 13.0513 12.1663 12 12.1663H4C2.94867 12.1663 2.5 11.7177 2.5 10.6663V5.33301C2.5 4.28167 2.94867 3.83301 4 3.83301H12C13.0513 3.83301 13.5 4.28167 13.5 5.33301V10.6663ZM4.66667 7.99967C4.66667 8.36767 4.368 8.66634 4 8.66634C3.632 8.66634 3.33333 8.36767 3.33333 7.99967C3.33333 7.63167 3.632 7.33301 4 7.33301C4.368 7.33301 4.66667 7.63167 4.66667 7.99967ZM12.6667 7.99967C12.6667 8.36767 12.368 8.66634 12 8.66634C11.632 8.66634 11.3333 8.36767 11.3333 7.99967C11.3333 7.63167 11.632 7.33301 12 7.33301C12.368 7.33301 12.6667 7.63167 12.6667 7.99967Z" fill="#3B3B3E"/>
</svg>
