<svg width="16" height="16" viewBox="0 0 16 16" fill="none" xmlns="http://www.w3.org/2000/svg">
<path d="M11.75 14.5H4.25C2.47667 14.5 1.5 13.5233 1.5 11.75V4.25C1.5 2.47667 2.47667 1.5 4.25 1.5H11.75C13.5233 1.5 14.5 2.47667 14.5 4.25V11.75C14.5 13.5233 13.5233 14.5 11.75 14.5ZM4.25 2.5C3.02333 2.5 2.5 3.02333 2.5 4.25V11.75C2.5 12.9767 3.02333 13.5 4.25 13.5H11.75C12.9767 13.5 13.5 12.9767 13.5 11.75V4.25C13.5 3.02333 12.9767 2.5 11.75 2.5H4.25ZM11.1667 6C11.1667 5.724 10.9427 5.5 10.6667 5.5H6.66667C6.39067 5.5 6.16667 5.724 6.16667 6C6.16667 6.276 6.39067 6.5 6.66667 6.5H10.6667C10.9427 6.5 11.1667 6.276 11.1667 6ZM11.1667 8C11.1667 7.724 10.9427 7.5 10.6667 7.5H5.33333C5.05733 7.5 4.83333 7.724 4.83333 8C4.83333 8.276 5.05733 8.5 5.33333 8.5H10.6667C10.9427 8.5 11.1667 8.276 11.1667 8ZM11.1667 10C11.1667 9.724 10.9427 9.5 10.6667 9.5H8C7.724 9.5 7.5 9.724 7.5 10C7.5 10.276 7.724 10.5 8 10.5H10.6667C10.9427 10.5 11.1667 10.276 11.1667 10Z" fill="#3B3B3E"/>
</svg>
