<svg width="16" height="16" viewBox="0 0 16 16" fill="none" xmlns="http://www.w3.org/2000/svg">
<path d="M13.3333 1.5H10.6667C10.0233 1.5 9.5 2.02333 9.5 2.66667V8C9.5 8.82733 8.82667 9.5 8 9.5C7.17333 9.5 6.5 8.82733 6.5 8V2.66667C6.5 2.02333 5.97667 1.5 5.33333 1.5H2.66667C2.02333 1.5 1.5 2.02333 1.5 2.66667V8C1.5 11.584 4.416 14.5 8 14.5C11.584 14.5 14.5 11.584 14.5 8V2.66667C14.5 2.02333 13.9767 1.5 13.3333 1.5ZM10.6667 2.5H13.3333C13.4253 2.5 13.5 2.57467 13.5 2.66667V4.83333H10.5V2.66667C10.5 2.57467 10.5747 2.5 10.6667 2.5ZM2.66667 2.5H5.33333C5.42533 2.5 5.5 2.57467 5.5 2.66667V4.83333H2.5V2.66667C2.5 2.57467 2.57467 2.5 2.66667 2.5ZM8 13.5C4.96733 13.5 2.5 11.0327 2.5 8V5.83333H5.5V8C5.5 9.37867 6.622 10.5 8 10.5C9.378 10.5 10.5 9.37867 10.5 8V5.83333H13.5V8C13.5 11.0327 11.0327 13.5 8 13.5Z" fill="#3B3B3E"/>
</svg>
