<svg width="16" height="16" viewBox="0 0 16 16" fill="none" xmlns="http://www.w3.org/2000/svg">
<path d="M13 6.16667H11.8333V4C11.8333 2.388 10.9453 1.5 9.33333 1.5H4C2.388 1.5 1.5 2.388 1.5 4V12C1.5 13.612 2.388 14.5 4 14.5H12.6667C13.678 14.5 14.5 13.678 14.5 12.6667V7.66667C14.5 6.83933 13.8267 6.16667 13 6.16667ZM4 13.5C2.94867 13.5 2.5 13.0513 2.5 12V4C2.5 2.94867 2.94867 2.5 4 2.5H9.33333C10.3847 2.5 10.8333 2.94867 10.8333 4V12.6667C10.8333 12.9667 10.9054 13.25 11.034 13.5H4ZM13.5 12.6667C13.5 13.126 13.126 13.5 12.6667 13.5C12.2073 13.5 11.8333 13.126 11.8333 12.6667V7.16667H13C13.2753 7.16667 13.5 7.39067 13.5 7.66667V12.6667ZM9.5 5.33333C9.5 5.60933 9.276 5.83333 9 5.83333H6C5.724 5.83333 5.5 5.60933 5.5 5.33333C5.5 5.05733 5.724 4.83333 6 4.83333H9C9.276 4.83333 9.5 5.05733 9.5 5.33333ZM9.5 8C9.5 8.276 9.276 8.5 9 8.5H6C5.724 8.5 5.5 8.276 5.5 8C5.5 7.724 5.724 7.5 6 7.5H9C9.276 7.5 9.5 7.724 9.5 8ZM9.5 10.6667C9.5 10.9427 9.276 11.1667 9 11.1667H6C5.724 11.1667 5.5 10.9427 5.5 10.6667C5.5 10.3907 5.724 10.1667 6 10.1667H9C9.276 10.1667 9.5 10.3907 9.5 10.6667ZM4.83333 5.33333C4.83333 5.60933 4.60933 5.83333 4.33333 5.83333C4.05733 5.83333 3.83333 5.60933 3.83333 5.33333C3.83333 5.05733 4.05733 4.83333 4.33333 4.83333C4.60933 4.83333 4.83333 5.05733 4.83333 5.33333ZM4.83333 8C4.83333 8.276 4.60933 8.5 4.33333 8.5C4.05733 8.5 3.83333 8.276 3.83333 8C3.83333 7.724 4.05733 7.5 4.33333 7.5C4.60933 7.5 4.83333 7.724 4.83333 8ZM4.83333 10.6667C4.83333 10.9427 4.60933 11.1667 4.33333 11.1667C4.05733 11.1667 3.83333 10.9427 3.83333 10.6667C3.83333 10.3907 4.05733 10.1667 4.33333 10.1667C4.60933 10.1667 4.83333 10.3907 4.83333 10.6667Z" fill="#3B3B3E"/>
</svg>
