<svg width="16" height="16" viewBox="0 0 16 16" fill="none" xmlns="http://www.w3.org/2000/svg">
<path d="M12.4886 4.84436C12.4306 3.54969 11.6753 2.83301 10.3333 2.83301H3.66667C2.26933 2.83301 1.5 3.60234 1.5 4.99967V9.66634C1.5 11.0083 2.21669 11.7637 3.51135 11.8217C3.56935 13.1163 4.32467 13.833 5.66667 13.833H12.3333C13.7307 13.833 14.5 13.0637 14.5 11.6663V6.99967C14.5 5.65767 13.7833 4.90236 12.4886 4.84436ZM2.5 9.66634V4.99967C2.5 4.16034 2.82733 3.83301 3.66667 3.83301H10.3333C11.1727 3.83301 11.5 4.16034 11.5 4.99967V9.66634C11.5 10.5057 11.1727 10.833 10.3333 10.833H3.66667C2.82733 10.833 2.5 10.5057 2.5 9.66634ZM13.5 11.6663C13.5 12.5057 13.1733 12.833 12.3333 12.833H5.66667C4.88733 12.833 4.55333 12.545 4.50867 11.833H10.3333C11.7307 11.833 12.5 11.0637 12.5 9.66634V5.84167C13.2127 5.88634 13.5 6.21967 13.5 6.99967V11.6663ZM3.66667 7.99967C3.29867 7.99967 3 7.70101 3 7.33301C3 6.96501 3.29867 6.66634 3.66667 6.66634C4.03467 6.66634 4.33333 6.96501 4.33333 7.33301C4.33333 7.70101 4.03467 7.99967 3.66667 7.99967ZM9.66667 7.33301C9.66667 6.96501 9.96533 6.66634 10.3333 6.66634C10.7013 6.66634 11 6.96501 11 7.33301C11 7.70101 10.7013 7.99967 10.3333 7.99967C9.96533 7.99967 9.66667 7.70101 9.66667 7.33301ZM7 9.49967C8.19467 9.49967 9.16667 8.52767 9.16667 7.33301C9.16667 6.13834 8.19467 5.16634 7 5.16634C5.80533 5.16634 4.83333 6.13834 4.83333 7.33301C4.83333 8.52767 5.80533 9.49967 7 9.49967ZM7 6.16634C7.64333 6.16634 8.16667 6.68967 8.16667 7.33301C8.16667 7.97634 7.64333 8.49967 7 8.49967C6.35667 8.49967 5.83333 7.97634 5.83333 7.33301C5.83333 6.68967 6.35667 6.16634 7 6.16634Z" fill="#3B3B3E"/>
</svg>
