<svg width="16" height="16" viewBox="0 0 16 16" fill="none" xmlns="http://www.w3.org/2000/svg">
<path d="M7.54862 14.5004C7.17596 14.5004 6.80997 14.3691 6.50997 14.1151L4.04928 12.0303C3.89928 11.903 3.70795 11.8331 3.51062 11.8331H2.33264C1.50597 11.8331 0.832642 11.1604 0.832642 10.3331V5.66705C0.832642 4.83972 1.50597 4.16705 2.33264 4.16705H3.51062C3.70795 4.16705 3.89926 4.09712 4.04993 3.96979L6.51062 1.88499C6.99595 1.47365 7.65466 1.38507 8.23132 1.6524C8.80799 1.91974 9.16598 2.48043 9.16598 3.11643V12.885C9.16598 13.521 8.80799 14.0817 8.23132 14.349C8.01199 14.4504 7.77929 14.5004 7.54862 14.5004ZM2.33329 5.1664C2.05796 5.1664 1.83329 5.3904 1.83329 5.6664V10.3324C1.83329 10.6084 2.05796 10.8324 2.33329 10.8324H3.51127C3.9446 10.8324 4.36526 10.9863 4.69592 11.267L7.15662 13.3518C7.34262 13.5098 7.58792 13.5443 7.81059 13.4403C8.03325 13.337 8.16598 13.129 8.16598 12.8837V3.11513C8.16598 2.8698 8.03325 2.66166 7.81059 2.55833C7.58859 2.45499 7.34327 2.48836 7.15727 2.64703L4.69592 4.73167C4.36526 5.01167 3.9446 5.1664 3.51127 5.1664H2.33329V5.1664ZM11.1779 11.1804C12.0306 10.3317 12.5 9.20173 12.5 7.99973C12.5 6.79773 12.0306 5.66774 11.1779 4.81907C10.9819 4.6244 10.6653 4.62437 10.4707 4.82037C10.2753 5.0157 10.2766 5.33306 10.472 5.52773C11.1346 6.18773 11.5 7.06638 11.5 8.00038C11.5 8.93438 11.1346 9.81304 10.472 10.473C10.2766 10.6677 10.2753 10.9844 10.4707 11.1804C10.568 11.2784 10.6967 11.3277 10.8247 11.3277C10.9527 11.3264 11.0799 11.2777 11.1779 11.1804ZM13.0647 13.0671C14.42 11.7151 15.1666 9.91507 15.1666 7.99973C15.1666 6.0844 14.42 4.28435 13.0647 2.93235C12.8687 2.73702 12.552 2.73767 12.3573 2.933C12.1626 3.12833 12.1626 3.44502 12.3586 3.64036C13.5246 4.80302 14.1666 6.35107 14.1666 7.99973C14.1666 9.6484 13.5246 11.1958 12.3586 12.3591C12.1626 12.5544 12.1626 12.8711 12.3573 13.0665C12.4546 13.1645 12.5833 13.2131 12.7113 13.2131C12.8393 13.2131 12.9667 13.1644 13.0647 13.0671Z" fill="#3B3B3E"/>
</svg>
