<svg width="16" height="16" viewBox="0 0 16 16" fill="none" xmlns="http://www.w3.org/2000/svg">
<g clip-path="url(#clip0_36251_9011)">
<path d="M8.00016 0.833008C4.04683 0.833008 0.833496 4.04634 0.833496 7.99967C0.833496 11.953 4.04683 15.1663 8.00016 15.1663C11.9535 15.1663 15.1668 11.953 15.1668 7.99967C15.1668 4.04634 11.9535 0.833008 8.00016 0.833008ZM8.00016 1.83301C9.4735 1.83301 10.8268 2.35301 11.8868 3.21968C11.5335 3.42634 11.3135 3.82634 11.3135 4.24634C11.3135 4.793 11.6268 5.26634 11.9735 5.81967C12.2268 6.25967 12.5202 6.83301 12.5202 7.66634C12.5202 8.23967 12.3002 8.90634 12.0135 9.83301L11.3402 12.0663L8.92017 4.85967C9.3335 4.83967 9.69349 4.79967 9.69349 4.79967C10.0602 4.75967 10.0068 4.233 9.64683 4.24634C9.64683 4.24634 8.56683 4.33967 7.87349 4.33967C7.18016 4.33967 6.10683 4.24634 6.10683 4.24634C5.74683 4.233 5.70683 4.78635 6.06683 4.80635C6.30017 4.83301 6.54016 4.853 6.76683 4.85967L7.8135 7.71968L6.34683 12.113L3.90017 4.85967C4.3135 4.84634 4.67349 4.79967 4.67349 4.79967C5.04016 4.75967 4.99349 4.233 4.63349 4.24634C4.63349 4.24634 3.76016 4.31967 3.0735 4.33301C4.20016 2.82634 5.9935 1.83967 8.0135 1.83967L8.00016 1.83301ZM1.8335 7.99967C1.8335 7.31301 1.9535 6.65301 2.16017 6.03301L4.80016 13.2597C3.02683 12.173 1.8335 10.2263 1.8335 7.99967V7.99967ZM6.28682 13.9197L8.12016 8.58634L10.0335 13.813C9.3935 14.033 8.7135 14.1663 8.00016 14.1663C7.40683 14.1663 6.83349 14.0797 6.28682 13.9197V13.9197ZM11.6535 12.953L13.4135 7.87301C13.6535 7.30634 13.7935 6.70634 13.8602 6.09967C14.0535 6.69967 14.1602 7.33301 14.1602 7.99967C14.1602 10.033 13.1668 11.8263 11.6535 12.953V12.953Z" fill="#3B3B3E"/>
</g>
<defs>
<clipPath id="clip0_36251_9011">
<rect width="16" height="16" fill="white"/>
</clipPath>
</defs>
</svg>
