<svg width="16" height="16" viewBox="0 0 16 16" fill="none" xmlns="http://www.w3.org/2000/svg">
<path d="M10.5447 12.3859C9.63066 13.0433 8.64065 13.2646 7.72198 13.2646C6.71065 13.2646 5.78997 12.9966 5.14597 12.746C4.80931 13.5573 4.68796 14.0893 4.68463 14.1033C4.63463 14.3386 4.42665 14.4993 4.19598 14.4993C4.16198 14.4993 4.12729 14.4959 4.09263 14.4886C3.82263 14.4319 3.64998 14.1673 3.70664 13.8973C3.74464 13.7166 4.68463 9.43262 9.1393 6.08862C9.36063 5.92262 9.67396 5.96797 9.83929 6.18863C10.0053 6.4093 9.96063 6.72262 9.73997 6.88862C7.5733 8.51529 6.29797 10.3993 5.56797 11.8366C6.6173 12.236 8.45065 12.66 9.96132 11.574C13.1273 9.29663 12.124 4.73328 11.5473 2.88061C11.172 3.26994 10.6013 3.72594 9.81732 3.99861C9.25465 4.19128 8.74064 4.32728 8.2433 4.45861C7.4293 4.67394 6.72665 4.85927 6.02931 5.23327C3.57265 6.55727 3.56798 9.2766 4.16465 10.7819C4.26665 11.0386 4.14064 11.3293 3.88397 11.4313C3.62797 11.5326 3.33664 11.4073 3.23464 11.1506C2.50664 9.31329 2.52332 5.98664 5.55532 4.35331C6.35732 3.92331 7.14932 3.71394 7.98732 3.49194C8.46732 3.36527 8.96397 3.23396 9.48997 3.0533C10.434 2.72463 10.9773 2.04997 11.1673 1.7753C11.292 1.5833 11.522 1.47394 11.7646 1.50394C12.0053 1.53394 12.2026 1.69661 12.28 1.92728C12.726 3.12995 14.76 9.35461 10.5447 12.3859Z" fill="#3B3B3E"/>
</svg>
