<svg width="16" height="16" viewBox="0 0 16 16" fill="none" xmlns="http://www.w3.org/2000/svg">
<path d="M13.484 3.68132C12.8606 3.37998 12.138 3.45934 11.5946 3.88867L8.5 6.33203V5.30941C8.5 4.60941 8.11063 3.98597 7.48397 3.68197C6.86063 3.38063 6.13798 3.45999 5.59465 3.88932L2.5 6.33268V4C2.5 3.724 2.276 3.5 2 3.5C1.724 3.5 1.5 3.724 1.5 4V12C1.5 12.276 1.724 12.5 2 12.5C2.276 12.5 2.5 12.276 2.5 12V9.66732L5.59465 12.112C5.91931 12.368 6.308 12.5 6.70133 12.5C6.966 12.5 7.2333 12.44 7.48397 12.3193C8.11063 12.0153 8.5 11.3921 8.5 10.6921V9.66862L11.5946 12.1133C11.9193 12.3693 12.308 12.5013 12.7013 12.5013C12.966 12.5013 13.2333 12.4413 13.484 12.3206C14.1106 12.0166 14.5 11.3934 14.5 10.6934V5.31136C14.5 4.60869 14.1106 3.98532 13.484 3.68132ZM7.5 10.6914C7.5 11.0101 7.3307 11.2813 7.04736 11.4186C6.7687 11.554 6.45803 11.5186 6.21403 11.3273L2.80664 8.63607C2.61197 8.48207 2.5 8.25 2.5 8C2.5 7.75 2.61197 7.51793 2.80664 7.36393L6.21403 4.67334C6.45803 4.48134 6.7687 4.44738 7.04736 4.58138C7.3307 4.71871 7.5 4.99059 7.5 5.30859V10.6914ZM13.5 10.6914C13.5 11.0101 13.3307 11.2813 13.0474 11.4186C12.7687 11.554 12.458 11.5186 12.214 11.3273L8.80664 8.63607C8.61197 8.48207 8.5 8.25 8.5 8C8.5 7.75 8.61197 7.51793 8.80664 7.36393L12.214 4.67334C12.458 4.48134 12.7694 4.44738 13.0474 4.58138C13.3307 4.71871 13.5 4.99059 13.5 5.30859V10.6914Z" fill="#3B3B3E"/>
</svg>
