<svg width="16" height="16" viewBox="0 0 16 16" fill="none" xmlns="http://www.w3.org/2000/svg">
<g clip-path="url(#clip0_36251_7317)">
<path d="M5.33337 11.1663C5.20537 11.1663 5.07735 11.1177 4.98002 11.0197C4.78469 10.8244 4.78469 10.5077 4.98002 10.3123L10.3134 4.979C10.5087 4.78367 10.8254 4.78367 11.0207 4.979C11.216 5.17434 11.216 5.49103 11.0207 5.68636L5.68738 11.0197C5.58938 11.1177 5.46137 11.1663 5.33337 11.1663ZM11.1667 9.83301C11.1667 9.09767 10.5687 8.49967 9.83337 8.49967C9.09804 8.49967 8.50004 9.09767 8.50004 9.83301C8.50004 10.5683 9.09804 11.1663 9.83337 11.1663C10.5687 11.1663 11.1667 10.5683 11.1667 9.83301ZM10.1667 9.83301C10.1667 10.017 10.0174 10.1663 9.83337 10.1663C9.64937 10.1663 9.50004 10.017 9.50004 9.83301C9.50004 9.64901 9.64937 9.49967 9.83337 9.49967C10.0174 9.49967 10.1667 9.64901 10.1667 9.83301ZM7.50004 6.16634C7.50004 5.43101 6.90204 4.83301 6.16671 4.83301C5.43137 4.83301 4.83337 5.43101 4.83337 6.16634C4.83337 6.90167 5.43137 7.49967 6.16671 7.49967C6.90204 7.49967 7.50004 6.90167 7.50004 6.16634ZM6.50004 6.16634C6.50004 6.35034 6.35071 6.49967 6.16671 6.49967C5.98271 6.49967 5.83337 6.35034 5.83337 6.16634C5.83337 5.98234 5.98271 5.83301 6.16671 5.83301C6.35071 5.83301 6.50004 5.98234 6.50004 6.16634ZM15.1667 7.99967C15.1667 4.04767 11.952 0.833008 8.00004 0.833008C4.04804 0.833008 0.833374 4.04767 0.833374 7.99967C0.833374 11.9517 4.04804 15.1663 8.00004 15.1663C11.952 15.1663 15.1667 11.9517 15.1667 7.99967ZM14.1667 7.99967C14.1667 11.4003 11.4007 14.1663 8.00004 14.1663C4.59937 14.1663 1.83337 11.4003 1.83337 7.99967C1.83337 4.59901 4.59937 1.83301 8.00004 1.83301C11.4007 1.83301 14.1667 4.59901 14.1667 7.99967Z" fill="#3B3B3E"/>
</g>
<defs>
<clipPath id="clip0_36251_7317">
<rect width="16" height="16" fill="white"/>
</clipPath>
</defs>
</svg>
