<svg width="16" height="16" viewBox="0 0 16 16" fill="none" xmlns="http://www.w3.org/2000/svg">
<path d="M11.75 1.5H4.25C2.47667 1.5 1.5 2.47667 1.5 4.25V11.75C1.5 13.5233 2.47667 14.5 4.25 14.5H11.75C13.5233 14.5 14.5 13.5233 14.5 11.75V4.25C14.5 2.47667 13.5233 1.5 11.75 1.5ZM13.5 11.75C13.5 12.9767 12.9767 13.5 11.75 13.5H4.25C3.02333 13.5 2.5 12.9767 2.5 11.75V4.25C2.5 3.02333 3.02333 2.5 4.25 2.5H11.75C12.9767 2.5 13.5 3.02333 13.5 4.25V11.75ZM11.1667 5.6307V7.11198C11.1667 7.38798 10.9427 7.61198 10.6667 7.61198H9.18473C8.90873 7.61198 8.68473 7.38798 8.68473 7.11198C8.68473 6.83598 8.90873 6.61198 9.18473 6.61198H9.65527C9.25261 6.13198 8.65267 5.83398 8 5.83398C6.80533 5.83398 5.83333 6.80598 5.83333 8.00065C5.83333 9.19532 6.80533 10.1673 8 10.1673C8.828 10.1673 9.57127 9.70605 9.93994 8.96338C10.0626 8.71671 10.3607 8.61462 10.6107 8.73796C10.858 8.86129 10.9586 9.16071 10.8359 9.40804C10.2966 10.4927 9.21067 11.1673 8 11.1673C6.254 11.1673 4.83333 9.74665 4.83333 8.00065C4.83333 6.25465 6.254 4.83398 8 4.83398C8.824 4.83398 9.592 5.15598 10.1667 5.69531V5.63005C10.1667 5.35405 10.3907 5.13005 10.6667 5.13005C10.9427 5.13005 11.1667 5.3547 11.1667 5.6307Z" fill="#3B3B3E"/>
</svg>
