<svg width="16" height="16" viewBox="0 0 16 16" fill="none" xmlns="http://www.w3.org/2000/svg">
<path d="M8.00016 0.833008C4.04816 0.833008 0.833496 4.04767 0.833496 7.99967C0.833496 11.9517 4.04816 15.1663 8.00016 15.1663C11.9522 15.1663 15.1668 11.9517 15.1668 7.99967C15.1668 4.04767 11.9522 0.833008 8.00016 0.833008ZM8.00016 14.1663C4.5995 14.1663 1.8335 11.4003 1.8335 7.99967C1.8335 4.59901 4.5995 1.83301 8.00016 1.83301C11.4008 1.83301 14.1668 4.59901 14.1668 7.99967C14.1668 11.4003 11.4008 14.1663 8.00016 14.1663ZM9.68685 7.64632C9.88218 7.84165 9.88218 8.15834 9.68685 8.35368L7.68685 10.3537C7.58952 10.451 7.4615 10.5003 7.3335 10.5003C7.2055 10.5003 7.07748 10.4517 6.98014 10.3537C6.78481 10.1583 6.78481 9.84165 6.98014 9.64632L8.62679 7.99967L6.98014 6.35303C6.78481 6.15769 6.78481 5.841 6.98014 5.64567C7.17548 5.45034 7.49217 5.45034 7.6875 5.64567L9.68685 7.64632Z" fill="#3B3B3E"/>
</svg>
