<svg width="16" height="16" viewBox="0 0 16 16" fill="none" xmlns="http://www.w3.org/2000/svg">
<path d="M8.00066 1.5C4.41733 1.5 1.50197 4.41535 1.50197 7.99935C1.50197 8.93268 1.70937 9.87198 2.10337 10.7213C2.18003 10.8833 2.18595 11.0887 2.12062 11.2933L1.56007 12.9607C1.42007 13.382 1.52874 13.84 1.84474 14.1553C2.06874 14.3793 2.36462 14.4993 2.66928 14.4993C2.79328 14.4993 2.91804 14.4793 3.0407 14.4387L4.70005 13.8813C4.91138 13.814 5.11805 13.8193 5.28338 13.8987C6.12805 14.2913 7.06735 14.4987 8.00001 14.4987C11.584 14.4987 14.4994 11.5833 14.4994 7.99935C14.4994 4.41535 11.5847 1.5 8.00066 1.5ZM8.00066 13.4987C7.212 13.4987 6.41864 13.3234 5.70997 12.994C5.31731 12.8067 4.85202 12.784 4.38868 12.9313L2.72332 13.4907C2.63999 13.5187 2.57993 13.476 2.55193 13.448C2.52393 13.42 2.48129 13.3607 2.50929 13.2773L3.07195 11.6034C3.21662 11.148 3.19331 10.682 3.00864 10.2947C2.67731 9.58134 2.50197 8.78799 2.50197 7.99866C2.50197 4.96666 4.96866 2.49935 8.00066 2.49935C11.0333 2.49935 13.5 4.96599 13.5 7.99866C13.5 11.0313 11.0333 13.4987 8.00066 13.4987ZM9.65333 8.94665C9.90533 8.56199 10.0554 8.10466 10.0554 7.61133C10.0554 6.26333 8.95867 5.16667 7.61134 5.16667C6.26334 5.16667 5.16668 6.26333 5.16668 7.61133C5.16668 8.95933 6.26334 10.056 7.61134 10.056C8.10467 10.056 8.56196 9.90666 8.94663 9.65466L9.97999 10.6873C10.0773 10.7847 10.2053 10.834 10.3333 10.834C10.4613 10.834 10.5894 10.7853 10.6867 10.6873C10.882 10.492 10.882 10.1753 10.6867 9.97998L9.65333 8.94665ZM6.16668 7.61133C6.16668 6.81466 6.81467 6.16667 7.61134 6.16667C8.40734 6.16667 9.05535 6.81466 9.05535 7.61133C9.05535 8.40799 8.40734 9.05599 7.61134 9.05599C6.81467 9.05532 6.16668 8.40733 6.16668 7.61133Z" fill="#3B3B3E"/>
</svg>
