<svg width="16" height="16" viewBox="0 0 16 16" fill="none" xmlns="http://www.w3.org/2000/svg">
<path d="M14.2867 4.18667C14.4267 3.92667 14.5001 3.62667 14.5001 3.33333C14.5001 2.32 13.6801 1.5 12.6667 1.5C12.3734 1.5 12.0801 1.57334 11.8134 1.71334C11.6334 1.80667 11.3601 1.9 11.0801 1.81333C8.80673 1.09333 6.0334 1.93334 4.02007 3.94668C2.02007 5.94668 1.17341 8.70666 1.86674 10.9733C1.96007 11.2867 1.8534 11.5667 1.74673 11.7467C1.58007 12.0267 1.49341 12.3467 1.49341 12.6733C1.49341 13.6867 2.31341 14.5067 3.32674 14.5067C3.65341 14.5067 3.97341 14.42 4.25341 14.2533C4.43341 14.1467 4.7134 14.04 5.02673 14.1333C7.2934 14.8333 10.0534 13.9867 12.0534 11.98C14.0667 9.96667 14.9001 7.2 14.1867 4.92C14.1001 4.63334 14.1867 4.36 14.2867 4.18667V4.18667ZM13.2334 5.22666C13.8401 7.14666 13.1001 9.52667 11.3467 11.2733C9.60007 13.02 7.2334 13.76 5.32007 13.1733C4.80674 13.0133 4.24673 13.0933 3.74673 13.3867C3.62007 13.46 3.47341 13.5 3.32674 13.5C2.86674 13.5 2.49341 13.1267 2.49341 12.6667C2.49341 12.52 2.53341 12.3733 2.60674 12.2467C2.90007 11.7467 2.9734 11.1867 2.82007 10.6733C2.2334 8.75334 2.98007 6.39333 4.72007 4.64667C6.06674 3.3 7.78007 2.55332 9.3734 2.55332C9.8534 2.55332 10.3267 2.62001 10.7734 2.76001C11.2534 2.91334 11.7867 2.85334 12.2801 2.59334C12.4001 2.53334 12.5334 2.5 12.6667 2.5C13.1267 2.5 13.5001 2.87333 13.5001 3.33333C13.5001 3.46667 13.4667 3.59999 13.4067 3.71999C13.1467 4.21332 13.0867 4.74666 13.2401 5.22666H13.2334ZM6.6734 11C6.6734 11.3667 6.3734 11.6667 6.00673 11.6667C5.64007 11.6667 5.34007 11.3667 5.34007 11C5.34007 10.6333 5.6334 10.3333 6.00673 10.3333C6.3734 10.3333 6.6734 10.6333 6.6734 11ZM9.34007 11C9.34007 11.3667 9.04007 11.6667 8.6734 11.6667C8.30673 11.6667 8.00673 11.3667 8.00673 11C8.00673 10.6333 8.30007 10.3333 8.6734 10.3333C9.04007 10.3333 9.34007 10.6333 9.34007 11ZM8.00673 9C8.00673 9.36667 7.70673 9.66667 7.34007 9.66667C6.9734 9.66667 6.6734 9.36667 6.6734 9C6.6734 8.63333 6.96673 8.33333 7.34007 8.33333C7.70673 8.33333 8.00673 8.63333 8.00673 9Z" fill="#3B3B3E"/>
</svg>
