<svg width="16" height="16" viewBox="0 0 16 16" fill="none" xmlns="http://www.w3.org/2000/svg">
<path d="M8 2.16699C4.17333 2.16699 1.5 4.56631 1.5 8.00098C1.5 9.38698 1.9346 10.6317 2.75993 11.6177C2.65993 11.9977 2.41137 12.553 1.79004 13.0544C1.52937 13.2757 1.4353 13.6283 1.54997 13.9523C1.66397 14.2743 1.95605 14.4877 2.28939 14.4957C2.38139 14.499 2.47527 14.5003 2.57194 14.5003C3.57661 14.5003 4.82862 14.307 5.73796 13.5156C6.44996 13.7276 7.20932 13.835 8.00065 13.835C11.8273 13.835 14.5007 11.4356 14.5007 8.00098C14.5007 4.56631 11.8267 2.16699 8 2.16699ZM8 12.8357C7.21 12.8357 6.46002 12.715 5.77002 12.4763C5.58335 12.4117 5.37602 12.463 5.24202 12.607C4.60202 13.2897 3.56207 13.4684 2.78874 13.4957C3.33007 12.9424 3.68195 12.2663 3.79395 11.5523C3.81728 11.401 3.77065 11.2477 3.66732 11.1357C2.90332 10.309 2.5 9.22498 2.5 8.00098C2.5 5.15431 4.762 3.16699 8 3.16699C11.238 3.16699 13.5 5.15498 13.5 8.00098C13.5 10.847 11.238 12.8357 8 12.8357ZM9.66667 7.24764V6.50033C9.66667 5.58166 8.91933 4.83366 8 4.83366C7.08067 4.83366 6.33333 5.58166 6.33333 6.50033V7.24764C5.80467 7.41964 5.5 7.86833 5.5 8.52433V9.8103C5.5 10.6596 6.00726 11.1676 6.85726 11.1676H9.14274C9.99274 11.1676 10.5 10.6603 10.5 9.8103V8.52433C10.5 7.86833 10.1953 7.41964 9.66667 7.24764ZM8 5.83366C8.368 5.83366 8.66667 6.13299 8.66667 6.50033V7.16699H7.33333V6.50033C7.33333 6.13299 7.632 5.83366 8 5.83366ZM9.5 9.80965C9.5 10.103 9.43674 10.167 9.14274 10.167H6.85726C6.56326 10.167 6.5 10.1037 6.5 9.80965V8.52368C6.5 8.23035 6.56326 8.16634 6.85726 8.16634H9.14274C9.43674 8.16634 9.5 8.22968 9.5 8.52368V9.80965Z" fill="#3B3B3E"/>
</svg>
