<svg width="16" height="16" viewBox="0 0 16 16" fill="none" xmlns="http://www.w3.org/2000/svg">
<path d="M4.6746 14.502C4.2546 14.502 3.83326 14.3933 3.44592 14.1766C2.64459 13.7279 2.16663 12.9126 2.16663 11.9959V4.00408C2.16663 3.08742 2.64459 2.27275 3.44592 1.82342C4.24992 1.37275 5.19793 1.39142 5.98393 1.87209L12.7013 5.98276C13.41 6.4161 13.8333 7.17068 13.8333 8.00002C13.8333 8.82935 13.41 9.58327 12.7013 10.0173L5.98393 14.1279C5.57659 14.3766 5.12593 14.502 4.6746 14.502ZM4.6746 2.50002C4.42127 2.50002 4.16793 2.56531 3.93526 2.69598C3.45393 2.96531 3.16728 3.45475 3.16728 4.00408V11.9959C3.16728 12.5453 3.4546 13.0347 3.93526 13.3041C4.41793 13.5747 4.98862 13.5647 5.46195 13.2754L12.1793 9.16473C12.5887 8.91406 12.8333 8.47868 12.8333 8.00002C12.8333 7.52135 12.5887 7.08597 12.1793 6.8353L5.46195 2.72462C5.21662 2.57529 4.94593 2.50002 4.6746 2.50002Z" fill="#3B3B3E"/>
</svg>
