<svg width="16" height="16" viewBox="0 0 16 16" fill="none" xmlns="http://www.w3.org/2000/svg">
<path d="M12 13.8337H4C2.388 13.8337 1.5 12.9457 1.5 11.3337V4.66699C1.5 3.05499 2.388 2.16699 4 2.16699H12C13.612 2.16699 14.5 3.05499 14.5 4.66699V11.3337C14.5 12.9457 13.612 13.8337 12 13.8337ZM4 3.16699C2.94867 3.16699 2.5 3.61566 2.5 4.66699V11.3337C2.5 12.385 2.94867 12.8337 4 12.8337H12C13.0513 12.8337 13.5 12.385 13.5 11.3337V4.66699C13.5 3.61566 13.0513 3.16699 12 3.16699H4ZM11.8333 8.50033H10.8333C10.8333 8.86766 10.5347 9.16699 10.1667 9.16699C9.79867 9.16699 9.5 8.86766 9.5 8.50033V7.50033C9.5 7.13299 9.79867 6.83366 10.1667 6.83366C10.5347 6.83366 10.8333 7.13299 10.8333 7.50033H11.8333C11.8333 6.58166 11.086 5.83366 10.1667 5.83366C9.24733 5.83366 8.5 6.58166 8.5 7.50033V8.50033C8.5 9.41899 9.24733 10.167 10.1667 10.167C11.086 10.167 11.8333 9.41899 11.8333 8.50033ZM7.5 8.50033H6.5C6.5 8.86766 6.20133 9.16699 5.83333 9.16699C5.46533 9.16699 5.16667 8.86766 5.16667 8.50033V7.50033C5.16667 7.13299 5.46533 6.83366 5.83333 6.83366C6.20133 6.83366 6.5 7.13299 6.5 7.50033H7.5C7.5 6.58166 6.75267 5.83366 5.83333 5.83366C4.914 5.83366 4.16667 6.58166 4.16667 7.50033V8.50033C4.16667 9.41899 4.914 10.167 5.83333 10.167C6.75267 10.167 7.5 9.41899 7.5 8.50033Z" fill="#3B3B3E"/>
</svg>
