<svg width="16" height="16" viewBox="0 0 16 16" fill="none" xmlns="http://www.w3.org/2000/svg">
<path d="M11.6667 4.83301C10.1041 4.83301 8.83341 6.10367 8.83341 7.66634C8.83341 8.36901 9.09949 9.00434 9.52482 9.49967H6.47616C6.90082 9.00434 7.1674 8.36901 7.1674 7.66634C7.1674 6.10367 5.89673 4.83301 4.33407 4.83301C2.7714 4.83301 1.50073 6.10367 1.50073 7.66634C1.50073 9.22901 2.7714 10.4997 4.33407 10.4997H11.6674C13.2301 10.4997 14.5007 9.22901 14.5007 7.66634C14.5007 6.10367 13.2294 4.83301 11.6667 4.83301ZM2.50008 7.66634C2.50008 6.65567 3.32208 5.83301 4.33341 5.83301C5.34475 5.83301 6.16675 6.65567 6.16675 7.66634C6.16675 8.67701 5.34475 9.49967 4.33341 9.49967C3.32208 9.49967 2.50008 8.67701 2.50008 7.66634ZM11.6667 9.49967C10.6554 9.49967 9.83341 8.67701 9.83341 7.66634C9.83341 6.65567 10.6554 5.83301 11.6667 5.83301C12.6781 5.83301 13.5001 6.65567 13.5001 7.66634C13.5001 8.67701 12.6781 9.49967 11.6667 9.49967Z" fill="#3B3B3E"/>
</svg>
