<svg width="16" height="16" viewBox="0 0 16 16" fill="none" xmlns="http://www.w3.org/2000/svg">
<path d="M12.0001 4.16699H8.87411L7.02075 2.31366C6.92675 2.21966 6.80007 2.16699 6.6674 2.16699H4.00073C2.38873 2.16699 1.50073 3.05499 1.50073 4.66699V11.3337C1.50073 12.9457 2.38873 13.8337 4.00073 13.8337H12.0007C13.6127 13.8337 14.5007 12.9457 14.5007 11.3337V6.66699C14.5001 5.05499 13.6121 4.16699 12.0001 4.16699ZM4.00008 3.16699H6.45939L8.31274 5.02032C8.40674 5.11432 8.53343 5.16699 8.6661 5.16699H11.9994C13.0508 5.16699 13.4994 5.61566 13.4994 6.66699V9.50033H2.49943V4.66699C2.5001 3.61566 2.94875 3.16699 4.00008 3.16699ZM12.0001 12.8337H4.00008C2.94875 12.8337 2.50008 12.385 2.50008 11.3337V10.5003H13.5001V11.3337C13.5001 12.385 13.0514 12.8337 12.0001 12.8337Z" fill="#3B3B3E"/>
</svg>
