<svg width="16" height="16" viewBox="0 0 16 16" fill="none" xmlns="http://www.w3.org/2000/svg">
<path d="M11.0199 11.6462C11.2152 11.8415 11.2152 12.1582 11.0199 12.3535C10.9225 12.4509 10.7945 12.5002 10.6665 12.5002C10.5385 12.5002 10.4105 12.4515 10.3132 12.3535L7.99985 10.0402L5.68654 12.3535C5.49121 12.5489 5.17452 12.5489 4.97918 12.3535C4.78385 12.1582 4.78385 11.8415 4.97918 11.6462L7.64585 8.97951C7.84118 8.78417 8.15787 8.78417 8.35321 8.97951L11.0199 11.6462ZM7.6465 7.01955C7.74383 7.11688 7.87185 7.16619 7.99985 7.16619C8.12785 7.16619 8.25587 7.11755 8.35321 7.01955L11.0199 4.35288C11.2152 4.15755 11.2152 3.84086 11.0199 3.64552C10.8245 3.45019 10.5078 3.45019 10.3125 3.64552L7.9992 5.95884L5.68589 3.64552C5.49055 3.45019 5.17386 3.45019 4.97853 3.64552C4.7832 3.84086 4.7832 4.15755 4.97853 4.35288L7.6465 7.01955Z" fill="#3B3B3E"/>
</svg>
