<svg width="16" height="16" viewBox="0 0 16 16" fill="none" xmlns="http://www.w3.org/2000/svg">
<path d="M2 14.5C1.93533 14.5 1.87059 14.4873 1.80859 14.462C1.62193 14.3847 1.5 14.202 1.5 14V4C1.5 2.388 2.388 1.5 4 1.5H12C13.612 1.5 14.5 2.388 14.5 4V10C14.5 11.612 13.612 12.5 12 12.5H4.20736L2.354 14.3534C2.258 14.4494 2.13 14.5 2 14.5ZM4 2.5C2.94867 2.5 2.5 2.94867 2.5 4V12.7926L3.64665 11.646C3.74065 11.552 3.86733 11.4993 4 11.4993H12C13.0513 11.4993 13.5 11.0507 13.5 9.99935V3.99935C13.5 2.94802 13.0513 2.49935 12 2.49935H4V2.5ZM8.68001 5C8.68001 4.632 8.38201 4.33333 8.01335 4.33333H8.00667C7.63867 4.33333 7.34326 4.632 7.34326 5C7.34326 5.368 7.64535 5.66667 8.01335 5.66667C8.38135 5.66667 8.68001 5.368 8.68001 5ZM8.5 9V7C8.5 6.724 8.276 6.5 8 6.5C7.724 6.5 7.5 6.724 7.5 7V9C7.5 9.276 7.724 9.5 8 9.5C8.276 9.5 8.5 9.276 8.5 9Z" fill="#3B3B3E"/>
</svg>
