<svg width="16" height="16" viewBox="0 0 16 16" fill="none" xmlns="http://www.w3.org/2000/svg">
<path d="M11.8333 11.3329C11.8333 11.3982 11.8199 11.4629 11.7946 11.5243C11.7439 11.6463 11.6468 11.7435 11.5248 11.7941C11.4634 11.8195 11.3987 11.8329 11.3333 11.8329H7.33335C7.05735 11.8329 6.83335 11.6089 6.83335 11.3329C6.83335 11.0569 7.05735 10.8329 7.33335 10.8329H10.126L3.64601 4.35288C3.45068 4.15755 3.45068 3.84086 3.64601 3.64552C3.84135 3.45019 4.15804 3.45019 4.35337 3.64552L10.8333 10.1255V7.33286C10.8333 7.05686 11.0573 6.83286 11.3333 6.83286C11.6093 6.83286 11.8333 7.05686 11.8333 7.33286V11.3329Z" fill="#3B3B3E"/>
</svg>
