<svg width="16" height="16" viewBox="0 0 16 16" fill="none" xmlns="http://www.w3.org/2000/svg">
<path d="M11.75 1.5H4.25C2.47667 1.5 1.5 2.47667 1.5 4.25V11.75C1.5 13.5233 2.47667 14.5 4.25 14.5H11.75C13.5233 14.5 14.5 13.5233 14.5 11.75V4.25C14.5 2.47667 13.5233 1.5 11.75 1.5ZM13.5 11.75C13.5 12.9767 12.9767 13.5 11.75 13.5H4.25C3.02333 13.5 2.5 12.9767 2.5 11.75V4.25C2.5 3.02333 3.02333 2.5 4.25 2.5H11.75C12.9767 2.5 13.5 3.02333 13.5 4.25V11.75ZM11.5 6.33333C11.5 6.60933 11.276 6.83333 11 6.83333H8.33333C8.05733 6.83333 7.83333 6.60933 7.83333 6.33333C7.83333 6.05733 8.05733 5.83333 8.33333 5.83333H11C11.276 5.83333 11.5 6.05733 11.5 6.33333ZM11.5 9.66667C11.5 9.94267 11.276 10.1667 11 10.1667H8.33333C8.05733 10.1667 7.83333 9.94267 7.83333 9.66667C7.83333 9.39067 8.05733 9.16667 8.33333 9.16667H11C11.276 9.16667 11.5 9.39067 11.5 9.66667ZM6.68669 5.53532C6.88202 5.73065 6.88202 6.04734 6.68669 6.24268L5.79801 7.13135C5.70068 7.22868 5.57266 7.27799 5.44466 7.27799C5.31733 7.27799 5.18864 7.22933 5.09131 7.132L4.64665 6.68734C4.45131 6.492 4.45131 6.17531 4.64665 5.97998C4.84198 5.78531 5.158 5.78465 5.354 5.97998L5.44531 6.07133L5.98063 5.53601C6.1753 5.34001 6.49135 5.33999 6.68669 5.53532ZM6.68669 8.86865C6.88202 9.06399 6.88202 9.38068 6.68669 9.57601L5.79801 10.4647C5.70068 10.562 5.57266 10.6113 5.44466 10.6113C5.31733 10.6113 5.18864 10.5627 5.09131 10.4653L4.64665 10.0207C4.45131 9.82534 4.45131 9.50865 4.64665 9.31331C4.84198 9.11865 5.158 9.11798 5.354 9.31331L5.44531 9.40466L5.98063 8.86934C6.1753 8.67334 6.49135 8.67332 6.68669 8.86865Z" fill="#3B3B3E"/>
</svg>
