<svg width="16" height="16" viewBox="0 0 16 16" fill="none" xmlns="http://www.w3.org/2000/svg">
<path d="M9.33333 1.5C6.38667 1.5 4.16667 3.72 4.16667 6.66667C4.16667 7.86667 3.55999 8.39333 2.85999 9C2.21999 9.55333 1.5 10.18 1.5 11.3333C1.5 13.84 4.00667 14.5 5.33333 14.5C12.1 14.5 14.5 10.46 14.5 7C14.5 3.54 12.4733 1.5 9.33333 1.5ZM5.33333 13.5C5.22 13.5 2.5 13.4733 2.5 11.3333C2.5 10.6667 2.86669 10.3133 3.52002 9.75334C4.25335 9.12 5.16667 8.32667 5.16667 6.66667C5.16667 4.29333 6.96 2.5 9.33333 2.5C11.3467 2.5 13.5 3.68 13.5 7C13.5 8.08667 13.1067 13.5 5.33333 13.5ZM9.33333 3.5C7.5 3.5 6.16667 4.83333 6.16667 6.66667C6.16667 8.5 5.53999 9.07334 4.81999 9.67334L4.54 9.91333C4.31333 10.1067 3.61335 10.6933 3.84668 11.5733C4.04668 12.3267 4.78665 12.5933 5.35999 12.5933C12.3 12.5933 12.5 7.57333 12.5 7C12.5 4.77333 11.3467 3.5 9.33333 3.5V3.5ZM5.35999 11.5933C5.35999 11.5933 4.88665 11.5933 4.81331 11.32C4.75331 11.0933 4.91335 10.9067 5.18001 10.68C5.18001 10.68 5.22665 10.64 5.23332 10.64L5.46 10.4467C6.26 9.78001 7.16667 9.02667 7.16667 6.67334C7.16667 5.38001 8.04 4.50667 9.33333 4.50667C10.7933 4.50667 11.5 5.32667 11.5 7.00667C11.5 7.77334 11.2067 11.6 5.35999 11.6V11.5933ZM10.18 6.66667C10.18 7.12667 9.80668 7.5 9.34668 7.5C8.88668 7.5 8.51335 7.12667 8.51335 6.66667C8.51335 6.20667 8.88001 5.83333 9.34668 5.83333C9.80668 5.83333 10.18 6.20667 10.18 6.66667Z" fill="#3B3B3E"/>
</svg>
