<svg width="16" height="16" viewBox="0 0 16 16" fill="none" xmlns="http://www.w3.org/2000/svg">
<path d="M8 15.1669C7.94667 15.1669 7.89329 15.1582 7.84196 15.1409C6.78263 14.7875 1.5 12.7482 1.5 7.25887V3.33357C1.5 3.09557 1.66802 2.8895 1.90202 2.8435C5.15535 2.19283 6.3087 1.6209 7.76937 0.896236C7.9107 0.826236 8.0973 0.816958 8.2373 0.886958C9.67797 1.61296 10.816 2.18683 14.0986 2.8435C14.3326 2.89017 14.5007 3.09557 14.5007 3.33357V7.25952C14.5007 12.7488 9.21802 14.7882 8.15869 15.1415C8.10669 15.1582 8.05333 15.1669 8 15.1669ZM2.5 3.74161V7.25887C2.5 11.8355 6.77867 13.699 8 14.137C9.22133 13.699 13.5 11.8349 13.5 7.25887V3.74161C10.5527 3.12495 9.31326 2.54617 8.00993 1.89217C6.62526 2.57683 5.42333 3.13095 2.5 3.74161ZM8.47331 8.41088C8.47864 8.39755 8.532 8.27691 8.896 8.03491C9.552 7.59891 9.84599 6.97291 9.72266 6.27091C9.59799 5.56491 9.01865 4.98557 8.31331 4.86157C7.79465 4.7709 7.27199 4.91023 6.87533 5.24357C6.47866 5.5769 6.25 6.06556 6.25 6.58422C6.25 6.86022 6.474 7.08422 6.75 7.08422C7.026 7.08422 7.25 6.86022 7.25 6.58422C7.25 6.36222 7.3474 6.15285 7.51807 6.00952C7.69073 5.86485 7.91331 5.80559 8.13997 5.84692C8.43464 5.89892 8.68596 6.15025 8.73796 6.44425C8.77129 6.63492 8.76664 6.92021 8.34131 7.20288C8.05531 7.39354 7.66072 7.69288 7.52539 8.09155C7.43806 8.34955 7.57732 8.62227 7.83398 8.71427C7.88798 8.7336 7.94273 8.74226 7.9974 8.74226C8.2034 8.7416 8.39797 8.61222 8.47331 8.41088ZM8.68001 10.0002C8.68001 9.63224 8.38201 9.33357 8.01335 9.33357H8.00667C7.63867 9.33357 7.34326 9.63224 7.34326 10.0002C7.34326 10.3682 7.64535 10.6669 8.01335 10.6669C8.38135 10.6669 8.68001 10.3682 8.68001 10.0002Z" fill="#3B3B3E"/>
</svg>
