<svg width="16" height="16" viewBox="0 0 16 16" fill="none" xmlns="http://www.w3.org/2000/svg">
<path d="M14.5 4.82031C14.5007 4.32965 14.3101 3.86832 13.9627 3.52165L12.4774 2.03638C12.13 1.68971 11.67 1.49836 11.1787 1.49903C10.688 1.49969 10.2273 1.69165 9.882 2.03898L1.646 10.313C1.552 10.407 1.5 10.5337 1.5 10.6657V13.999C1.5 14.275 1.724 14.499 2 14.499H5.33333C5.46533 14.499 5.5927 14.4463 5.68603 14.3537L13.96 6.11703C14.308 5.77169 14.4993 5.31098 14.5 4.82031ZM5.12663 13.4997H2.5V10.873L8.49528 4.85034L11.1501 7.50432L5.12663 13.4997ZM13.2547 5.40902L11.8587 6.79899L9.20068 4.14168L10.5907 2.74504C10.748 2.58704 10.9573 2.50034 11.1807 2.49968H11.1813C11.404 2.49968 11.6133 2.58632 11.7713 2.74365L13.2567 4.22901C13.414 4.38701 13.5007 4.59633 13.5007 4.81966C13.5 5.04233 13.4127 5.25169 13.2547 5.40902ZM14.5 13.9997C14.5 14.2757 14.276 14.4997 14 14.4997H9.33333C9.05733 14.4997 8.83333 14.2757 8.83333 13.9997C8.83333 13.7237 9.05733 13.4997 9.33333 13.4997H14C14.276 13.4997 14.5 13.7237 14.5 13.9997Z" fill="#3B3B3E"/>
</svg>
