<svg width="16" height="16" viewBox="0 0 16 16" fill="none" xmlns="http://www.w3.org/2000/svg">
<path d="M12 3.5H11.1667V2.66667C11.1667 2.02333 10.6433 1.5 10 1.5H6C5.35667 1.5 4.83333 2.02333 4.83333 2.66667V3.5H4C2.388 3.5 1.5 4.388 1.5 6V12C1.5 13.612 2.388 14.5 4 14.5H9.33333C9.60933 14.5 9.83333 14.276 9.83333 14C9.83333 13.724 9.60933 13.5 9.33333 13.5H4C2.94867 13.5 2.5 13.0513 2.5 12V8.92C3.13333 9.194 4.14867 9.56135 5.56067 9.85002C6.02 9.94335 6.49999 9.74003 6.77466 9.32869C7.07199 8.88469 7.53 8.62004 8 8.62004C8.47 8.62004 8.928 8.88469 9.22467 9.32869C9.45534 9.67336 9.82734 9.87264 10.2133 9.87264C10.288 9.87264 10.3633 9.86535 10.438 9.85002C11.8507 9.56135 12.866 9.194 13.4993 8.92V9.33333C13.4993 9.60933 13.7233 9.83333 13.9993 9.83333C14.2753 9.83333 14.4993 9.60933 14.4993 9.33333V6C14.5 4.388 13.612 3.5 12 3.5ZM5.83333 2.66667C5.83333 2.57467 5.908 2.5 6 2.5H10C10.092 2.5 10.1667 2.57467 10.1667 2.66667V3.5H5.83333V2.66667ZM13.2027 7.95931C12.626 8.21664 11.6433 8.58337 10.2387 8.87004C10.1687 8.88404 10.096 8.83137 10.056 8.77271C9.57268 8.05071 8.80467 7.62004 8 7.62004C7.19533 7.62004 6.42732 8.05071 5.94399 8.77271C5.90466 8.83204 5.83267 8.88537 5.76133 8.87004C4.35733 8.58337 3.37401 8.21664 2.79734 7.95931C2.61401 7.87731 2.5 7.70197 2.5 7.5013V6.07869V6C2.5 4.94867 2.94867 4.5 4 4.5H12C13.0513 4.5 13.5 4.94867 13.5 6V6.07935V7.50203C13.5 7.7027 13.386 7.87798 13.2027 7.95931ZM8.01333 9.33333C8.38133 9.33333 8.67999 9.632 8.67999 10C8.67999 10.368 8.38133 10.6667 8.01333 10.6667C7.64533 10.6667 7.34334 10.368 7.34334 10C7.34334 9.632 7.63801 9.33333 8.00667 9.33333H8.01333ZM14.5 12.6667C14.5 12.9427 14.276 13.1667 14 13.1667H13.1667V14C13.1667 14.276 12.9427 14.5 12.6667 14.5C12.3907 14.5 12.1667 14.276 12.1667 14V13.1667H11.3333C11.0573 13.1667 10.8333 12.9427 10.8333 12.6667C10.8333 12.3907 11.0573 12.1667 11.3333 12.1667H12.1667V11.3333C12.1667 11.0573 12.3907 10.8333 12.6667 10.8333C12.9427 10.8333 13.1667 11.0573 13.1667 11.3333V12.1667H14C14.276 12.1667 14.5 12.3907 14.5 12.6667Z" fill="#3B3B3E"/>
</svg>
