<svg width="16" height="16" viewBox="0 0 16 16" fill="none" xmlns="http://www.w3.org/2000/svg">
<path d="M14.4634 11.8113C14.374 11.5333 14.1387 11.3347 13.8473 11.2933L12.8079 11.1453L12.362 10.26C12.2293 9.99668 11.962 9.83333 11.666 9.83333C11.37 9.83333 11.1027 9.99668 10.9701 10.26L10.5239 11.1453L9.4847 11.2933C9.19337 11.3347 8.95799 11.5333 8.86865 11.8113C8.77932 12.088 8.85541 12.384 9.06608 12.5847L9.81071 13.2953L9.64193 14.2607C9.59126 14.5507 9.70733 14.8393 9.94466 15.014C10.1853 15.1907 10.5006 15.2167 10.7653 15.0793L11.6654 14.6167L12.5661 15.08C12.6794 15.1387 12.802 15.1673 12.924 15.1673C13.0873 15.1673 13.2487 15.116 13.3861 15.0147C13.6234 14.84 13.74 14.5513 13.6886 14.262L13.52 13.296L14.2646 12.5853C14.4766 12.384 14.5527 12.0873 14.4634 11.8113ZM12.7354 12.6633C12.554 12.8373 12.4713 13.0887 12.514 13.3367L12.6273 13.986L12.0166 13.672C11.9073 13.616 11.7867 13.5873 11.6673 13.5873C11.548 13.5873 11.428 13.6153 11.3187 13.6713L10.7074 13.9853L10.8213 13.3353C10.8633 13.088 10.7806 12.8367 10.5986 12.6627L10.1266 12.212L10.7894 12.1173C11.0347 12.0827 11.248 11.9307 11.3613 11.708L11.6673 11.1007L11.9746 11.71C12.0873 11.93 12.3001 12.082 12.5454 12.1167L13.208 12.2113L12.7354 12.6633ZM7.33333 13.5H4C2.94867 13.5 2.5 13.0513 2.5 12V4C2.5 2.94867 2.94867 2.5 4 2.5H7.5V4C7.5 5.612 8.388 6.5 10 6.5H11.5V8C11.5 8.276 11.724 8.5 12 8.5C12.276 8.5 12.5 8.276 12.5 8V6C12.5 5.86733 12.4474 5.74 12.3534 5.64667L8.35335 1.64667C8.25935 1.55267 8.13267 1.5 8 1.5H4C2.388 1.5 1.5 2.388 1.5 4V12C1.5 13.612 2.388 14.5 4 14.5H7.33333C7.60933 14.5 7.83333 14.276 7.83333 14C7.83333 13.724 7.60933 13.5 7.33333 13.5ZM8.5 4V3.20734L10.7926 5.5H10C8.94867 5.5 8.5 5.05133 8.5 4ZM9.33333 7.5C9.60933 7.5 9.83333 7.724 9.83333 8C9.83333 8.276 9.60933 8.5 9.33333 8.5H4.66667C4.39067 8.5 4.16667 8.276 4.16667 8C4.16667 7.724 4.39067 7.5 4.66667 7.5H9.33333ZM7.83333 10.6667C7.83333 10.9427 7.60933 11.1667 7.33333 11.1667H4.66667C4.39067 11.1667 4.16667 10.9427 4.16667 10.6667C4.16667 10.3907 4.39067 10.1667 4.66667 10.1667H7.33333C7.60933 10.1667 7.83333 10.3907 7.83333 10.6667Z" fill="#3B3B3E"/>
</svg>
