<svg width="16" height="16" viewBox="0 0 16 16" fill="none" xmlns="http://www.w3.org/2000/svg">
<path d="M11.75 1.5H4.25C2.47667 1.5 1.5 2.47667 1.5 4.25V11.75C1.5 13.5233 2.47667 14.5 4.25 14.5H11.75C13.5233 14.5 14.5 13.5233 14.5 11.75V4.25C14.5 2.47667 13.5233 1.5 11.75 1.5ZM13.5 11.75C13.5 12.9767 12.9767 13.5 11.75 13.5H4.25C3.02333 13.5 2.5 12.9767 2.5 11.75V4.25C2.5 3.02333 3.02333 2.5 4.25 2.5H11.75C12.9767 2.5 13.5 3.02333 13.5 4.25V11.75ZM11.5 8.5013C11.5 9.60397 10.6027 10.5013 9.5 10.5013H6C5.724 10.5013 5.5 10.2773 5.5 10.0013C5.5 9.7253 5.724 9.5013 6 9.5013H9.5C10.0513 9.5013 10.5 9.05264 10.5 8.5013C10.5 7.94997 10.0513 7.5013 9.5 7.5013H6.20736L6.354 7.64795C6.54934 7.84328 6.54934 8.15997 6.354 8.35531C6.25667 8.45264 6.12865 8.50195 6.00065 8.50195C5.87265 8.50195 5.74463 8.45331 5.6473 8.35531L4.6473 7.35531C4.6013 7.30931 4.56472 7.25404 4.53939 7.19271C4.48872 7.07071 4.48872 6.93271 4.53939 6.81071C4.56472 6.74938 4.6013 6.69395 4.6473 6.64795L5.6473 5.64795C5.84263 5.45262 6.15932 5.45262 6.35466 5.64795C6.54999 5.84328 6.54999 6.15997 6.35466 6.35531L6.20801 6.50195H9.50065C10.6027 6.50129 11.5 7.39864 11.5 8.5013Z" fill="#3B3B3E"/>
</svg>
