<svg width="16" height="16" viewBox="0 0 16 16" fill="none" xmlns="http://www.w3.org/2000/svg">
<path d="M14.5 4V12C14.5 13.612 13.612 14.5 12 14.5H8C6.388 14.5 5.5 13.612 5.5 12V11.3333C5.5 11.0573 5.724 10.8333 6 10.8333C6.276 10.8333 6.5 11.0573 6.5 11.3333V12C6.5 13.0513 6.94867 13.5 8 13.5H12C13.0513 13.5 13.5 13.0513 13.5 12V4C13.5 2.94867 13.0513 2.5 12 2.5H8C6.94867 2.5 6.5 2.94867 6.5 4V4.66667C6.5 4.94267 6.276 5.16667 6 5.16667C5.724 5.16667 5.5 4.94267 5.5 4.66667V4C5.5 2.388 6.388 1.5 8 1.5H12C13.612 1.5 14.5 2.388 14.5 4ZM8.31331 9.64667C8.11798 9.842 8.11798 10.1587 8.31331 10.354C8.41065 10.4513 8.53867 10.5007 8.66667 10.5007C8.79467 10.5007 8.92269 10.452 9.02002 10.354L11.02 8.354C11.066 8.308 11.1027 8.25266 11.128 8.19133C11.1787 8.06933 11.1787 7.93133 11.128 7.80933C11.1027 7.74799 11.066 7.69267 11.02 7.64667L9.02002 5.64667C8.82469 5.45133 8.508 5.45133 8.31266 5.64667C8.11733 5.842 8.11733 6.15867 8.31266 6.354L9.45935 7.50067H2C1.724 7.50067 1.5 7.72467 1.5 8.00067C1.5 8.27667 1.724 8.50067 2 8.50067H9.45935L8.31331 9.64667Z" fill="#3B3B3E"/>
</svg>
