<svg width="16" height="16" viewBox="0 0 16 16" fill="none" xmlns="http://www.w3.org/2000/svg">
<path d="M14.0981 2.84373C10.8155 2.18707 9.67748 1.61386 8.23682 0.887191C8.09615 0.817191 7.90955 0.825802 7.76888 0.896469C6.30888 1.62047 5.15486 2.19307 1.90153 2.84373C1.66753 2.8904 1.49951 3.09581 1.49951 3.33381V7.25975C1.49951 12.7491 6.78214 14.7884 7.84147 15.1417C7.8928 15.1591 7.94618 15.1678 7.99951 15.1678C8.05285 15.1678 8.10622 15.1591 8.15755 15.1417C9.21689 14.7884 14.4995 12.7491 14.4995 7.25975V3.33381C14.5002 3.09581 14.3321 2.88973 14.0981 2.84373ZM13.5002 7.25975C13.5002 11.8364 9.2215 13.6998 8.00016 14.1378C6.77883 13.6998 2.50016 11.8357 2.50016 7.25975V3.7425C5.4235 3.13183 6.62542 2.57788 8.01009 1.89321C9.31342 2.54721 10.5528 3.12583 13.5002 3.7425V7.25975ZM7.99219 7.29312L9.3055 5.9798C9.50083 5.78447 9.81752 5.78447 10.0129 5.9798C10.2082 6.17513 10.2082 6.49182 10.0129 6.68716L8.69954 8.00047L10.0129 9.31379C10.2082 9.50912 10.2082 9.82581 10.0129 10.0211C9.91552 10.1185 9.78751 10.1678 9.65951 10.1678C9.53151 10.1678 9.40349 10.1191 9.30615 10.0211L7.99284 8.70783L6.67952 10.0211C6.58219 10.1185 6.45417 10.1678 6.32617 10.1678C6.19817 10.1678 6.07015 10.1191 5.97282 10.0211C5.77749 9.82581 5.77749 9.50912 5.97282 9.31379L7.28613 8.00047L5.97282 6.68716C5.77749 6.49182 5.77749 6.17513 5.97282 5.9798C6.16815 5.78447 6.48484 5.78447 6.68018 5.9798L7.99219 7.29312Z" fill="#3B3B3E"/>
</svg>
