<svg width="16" height="16" viewBox="0 0 16 16" fill="none" xmlns="http://www.w3.org/2000/svg">
<path d="M14.5 8C14.5 8.276 14.276 8.5 14 8.5H5.87402L8.354 10.98C8.54934 11.1753 8.54934 11.492 8.354 11.6873C8.25667 11.7847 8.12865 11.834 8.00065 11.834C7.87265 11.834 7.74463 11.7853 7.6473 11.6873L4.31396 8.354C4.26796 8.308 4.23139 8.25274 4.20605 8.19141C4.15539 8.06941 4.15539 7.93141 4.20605 7.80941C4.23139 7.74807 4.26796 7.69265 4.31396 7.64665L7.6473 4.31331C7.84263 4.11798 8.15932 4.11798 8.35466 4.31331C8.54999 4.50865 8.54999 4.82534 8.35466 5.02067L5.87467 7.50065L14 7.50065C14.276 7.49999 14.5 7.724 14.5 8ZM2 3.5C1.724 3.5 1.5 3.724 1.5 4L1.5 12C1.5 12.276 1.724 12.5 2 12.5C2.276 12.5 2.5 12.276 2.5 12L2.5 4C2.5 3.724 2.276 3.5 2 3.5Z" fill="#3B3B3E"/>
</svg>
