<svg width="16" height="16" viewBox="0 0 16 16" fill="none" xmlns="http://www.w3.org/2000/svg">
<path d="M5.16659 2C5.16659 1.724 5.39059 1.5 5.66659 1.5H9.66658C9.94258 1.5 10.1666 1.724 10.1666 2C10.1666 2.276 9.94258 2.5 9.66658 2.5H5.66659C5.39059 2.5 5.16659 2.276 5.16659 2ZM9.66658 13.5H5.66659C5.39059 13.5 5.16659 13.724 5.16659 14C5.16659 14.276 5.39059 14.5 5.66659 14.5H9.66658C9.94258 14.5 10.1666 14.276 10.1666 14C10.1666 13.724 9.94258 13.5 9.66658 13.5ZM13.1666 7.83333C13.1666 8.10933 12.9426 8.33333 12.6666 8.33333H12.4999V10.3333C12.4999 11.9453 11.6119 12.8333 9.99992 12.8333H5.33325C3.72125 12.8333 2.83325 11.9453 2.83325 10.3333V5.66667C2.83325 4.05467 3.72125 3.16667 5.33325 3.16667H9.99992C11.6119 3.16667 12.4999 4.05467 12.4999 5.66667V7.33333H12.6666C12.9426 7.33333 13.1666 7.55733 13.1666 7.83333ZM11.4999 5.66667C11.4999 4.61533 11.0513 4.16667 9.99992 4.16667H5.33325C4.28192 4.16667 3.83325 4.61533 3.83325 5.66667V10.3333C3.83325 11.3847 4.28192 11.8333 5.33325 11.8333H9.99992C11.0513 11.8333 11.4999 11.3847 11.4999 10.3333V5.66667ZM8.16658 7.75V5.66667C8.16658 5.39067 7.94258 5.16667 7.66658 5.16667C7.39059 5.16667 7.16659 5.39067 7.16659 5.66667V8C7.16659 8.15733 7.24062 8.3054 7.36662 8.40007L8.69995 9.40007C8.78995 9.4674 8.89527 9.5 8.99927 9.5C9.15193 9.5 9.30198 9.43063 9.39998 9.29997C9.56598 9.07863 9.5212 8.76527 9.30054 8.59994L8.16658 7.75Z" fill="#3B3B3E"/>
</svg>
