<svg width="16" height="16" viewBox="0 0 16 16" fill="none" xmlns="http://www.w3.org/2000/svg">
<path d="M9.99731 14.5H6.00269C5.55802 14.5 5.15733 14.252 4.95866 13.8534C4.75866 13.4527 4.80132 12.9814 5.06999 12.624L7.06803 9.96598C7.51337 9.37332 8.48737 9.37332 8.9327 9.96598L10.9307 12.6234C11.1993 12.9807 11.242 13.452 11.042 13.8527C10.8427 14.252 10.442 14.5 9.99731 14.5ZM8 10.5C7.96933 10.5 7.91068 10.5087 7.86735 10.5667L5.8693 13.2246C5.8133 13.2986 5.83535 13.3699 5.85335 13.4059C5.87069 13.4406 5.91334 13.4993 6.00334 13.4993H9.99797C10.088 13.4993 10.13 13.4406 10.148 13.4059C10.1654 13.3699 10.188 13.2986 10.132 13.2246L8.13403 10.5667C8.08937 10.5087 8.03067 10.5 8 10.5ZM10.4353 8.58594C10.478 8.38794 10.5 8.19067 10.5 8C10.5 6.62133 9.378 5.5 8 5.5C6.622 5.5 5.5 6.62133 5.5 8C5.5 8.19067 5.52136 8.38794 5.5647 8.58594C5.62336 8.85594 5.88999 9.02792 6.15999 8.96859C6.42933 8.91059 6.60064 8.64402 6.54264 8.37402C6.51398 8.24336 6.50065 8.12068 6.50065 7.99935C6.50065 7.17202 7.17398 6.49935 8.00065 6.49935C8.82732 6.49935 9.50065 7.17202 9.50065 7.99935C9.50065 8.12068 9.48666 8.24269 9.45866 8.37402C9.40066 8.64402 9.57198 8.90992 9.84131 8.96859C9.87731 8.97659 9.91266 8.97998 9.948 8.97998C10.1773 8.97998 10.3846 8.81994 10.4353 8.58594ZM11.7053 10.564C12.2253 9.8113 12.5 8.92467 12.5 8C12.5 5.51867 10.4813 3.5 8 3.5C5.51867 3.5 3.5 5.51867 3.5 8C3.5 8.92467 3.77468 9.8113 4.29468 10.564C4.45068 10.7906 4.76131 10.8487 4.99064 10.6914C5.21731 10.5347 5.27468 10.2226 5.11735 9.99593C4.71335 9.41126 4.49935 8.72067 4.49935 8C4.49935 6.07 6.06935 4.5 7.99935 4.5C9.92935 4.5 11.4993 6.07 11.4993 8C11.4993 8.72067 11.286 9.4106 10.8813 9.99593C10.7247 10.2233 10.782 10.5347 11.008 10.6914C11.0953 10.7514 11.194 10.7799 11.292 10.7799C11.452 10.7799 11.608 10.7046 11.7053 10.564ZM12.91 12.2487C13.9353 11.074 14.5 9.56533 14.5 8C14.5 4.416 11.584 1.5 8 1.5C4.416 1.5 1.5 4.416 1.5 8C1.5 9.56533 2.06467 11.074 3.09001 12.2487C3.27134 12.4567 3.58665 12.478 3.79598 12.2967C4.00398 12.1154 4.02599 11.7993 3.84399 11.5913C2.97733 10.5986 2.5 9.32333 2.5 8C2.5 4.96733 4.96733 2.5 8 2.5C11.0327 2.5 13.5 4.96733 13.5 8C13.5 9.32333 13.0227 10.5986 12.156 11.5913C11.9747 11.7993 11.996 12.1154 12.204 12.2967C12.2994 12.3794 12.416 12.4199 12.5326 12.4199C12.6726 12.4199 12.8113 12.362 12.91 12.2487Z" fill="#3B3B3E"/>
</svg>
