<svg width="16" height="16" viewBox="0 0 16 16" fill="none" xmlns="http://www.w3.org/2000/svg">
<path d="M8.00008 1.5C4.72941 1.5 2.16675 2.89067 2.16675 4.66667V11.3333C2.16675 13.05 4.83808 14.5 8.00008 14.5C11.1621 14.5 13.8334 13.05 13.8334 11.3333V4.66667C13.8334 2.89067 11.2707 1.5 8.00008 1.5ZM12.8334 8C12.8334 9.02467 10.8481 10.1667 8.00008 10.1667C5.15208 10.1667 3.16675 9.02467 3.16675 8V6.46126C4.20741 7.2946 5.96608 7.83333 8.00008 7.83333C10.0341 7.83333 11.7927 7.2946 12.8334 6.46126V8ZM8.00008 2.5C10.8481 2.5 12.8334 3.642 12.8334 4.66667C12.8334 5.69133 10.8481 6.83333 8.00008 6.83333C5.15208 6.83333 3.16675 5.69133 3.16675 4.66667C3.16675 3.642 5.15208 2.5 8.00008 2.5ZM8.00008 13.5C5.09475 13.5 3.16675 12.196 3.16675 11.3333V9.7946C4.20741 10.6279 5.96608 11.1667 8.00008 11.1667C10.0341 11.1667 11.7927 10.6279 12.8334 9.7946V11.3333C12.8334 12.196 10.9054 13.5 8.00008 13.5Z" fill="#3B3B3E"/>
</svg>
