<svg width="16" height="16" viewBox="0 0 16 16" fill="none" xmlns="http://www.w3.org/2000/svg">
<path d="M7.99996 1.5C4.78329 1.5 2.16663 4.11667 2.16663 7.33333C2.16663 10.7453 5.29795 12.8133 7.36995 14.182L7.72262 14.416C7.80662 14.472 7.90329 14.5 7.99996 14.5C8.09663 14.5 8.1933 14.472 8.2773 14.416L8.62996 14.182C10.702 12.8133 13.8333 10.7453 13.8333 7.33333C13.8333 4.11667 11.2166 1.5 7.99996 1.5ZM8.07931 13.3473L7.99996 13.4001L7.92061 13.3473C5.91395 12.022 3.16663 10.2073 3.16663 7.33333C3.16663 4.668 5.33463 2.5 7.99996 2.5C10.6653 2.5 12.8333 4.668 12.8333 7.33333C12.8333 10.2073 10.0853 12.0227 8.07931 13.3473ZM10.1806 5.95996L9.14197 5.81201L8.69596 4.9266C8.5633 4.6626 8.29663 4.49935 7.99996 4.49935C7.70329 4.49935 7.43661 4.66261 7.30461 4.92594L6.85795 5.81136L5.8193 5.95931C5.52863 6.00064 5.29195 6.19873 5.20329 6.47673C5.11462 6.75273 5.18997 7.04932 5.40063 7.25065L6.1453 7.96061L5.97664 8.92594C5.92598 9.21594 6.04195 9.5047 6.27995 9.67936C6.51995 9.8567 6.83461 9.8813 7.10128 9.74463L8.00061 9.28206L8.90063 9.74463C9.01463 9.8033 9.1373 9.83268 9.25997 9.83268C9.4233 9.83268 9.58463 9.78135 9.72196 9.68001C9.95996 9.50535 10.076 9.2166 10.0253 8.9266L9.85596 7.96061L10.6013 7.25C10.8113 7.04933 10.8873 6.75273 10.7986 6.47673C10.708 6.19939 10.472 6.00129 10.1806 5.95996ZM9.06864 7.33008C8.88731 7.50408 8.80397 7.75526 8.84664 8.00326L8.96061 8.65267L8.35063 8.3387C8.13063 8.22537 7.8693 8.22539 7.65063 8.33805L7.03996 8.65267L7.15328 8.00195C7.19595 7.75462 7.11327 7.50328 6.93127 7.32861L6.45931 6.87874L7.12195 6.78402C7.36928 6.74868 7.58261 6.59534 7.69328 6.37467L7.99996 5.7666L8.30595 6.37337C8.41728 6.59537 8.6313 6.74803 8.87797 6.78337L9.54061 6.87728L9.06864 7.33008Z" fill="#3B3B3E"/>
</svg>
