<svg width="16" height="16" viewBox="0 0 16 16" fill="none" xmlns="http://www.w3.org/2000/svg">
<path d="M15.0374 6.41901C14.3934 3.23434 11.3427 0.833008 7.94002 0.833008C4.02136 0.833008 0.833374 4.04834 0.833374 7.99967C0.833374 11.951 4.04804 15.1663 8.00004 15.1663C8.77404 15.1663 9.32471 14.8277 9.47404 14.2597C9.64004 13.6284 9.24139 12.953 8.43339 12.497C8.22406 12.379 8.11206 12.1663 8.16073 11.9803C8.22339 11.7417 8.60938 11.463 9.48938 11.463H10.9727C11.5 11.463 13.3034 11.361 14.384 10.045C15.1174 9.15167 15.3374 7.93234 15.0374 6.41901ZM13.6114 9.40967C12.8087 10.387 11.3894 10.463 10.9727 10.463H9.48938C7.66738 10.463 7.27136 11.4303 7.19336 11.7263C7.02869 12.3517 7.3367 13.0263 7.94137 13.3677C8.4187 13.637 8.52938 13.9183 8.50671 14.0057C8.48938 14.0723 8.32006 14.1663 7.99939 14.1663C4.59872 14.1663 1.83272 11.4003 1.83272 7.99967C1.83272 4.59901 4.57204 1.83301 7.93937 1.83301C10.8754 1.83301 13.5054 3.88968 14.056 6.61568C14.2954 7.81901 14.1454 8.759 13.6114 9.40967ZM12.1801 6.66634C12.1801 7.12634 11.8067 7.49967 11.3467 7.49967C10.8867 7.49967 10.5101 7.12634 10.5101 6.66634C10.5101 6.20634 10.88 5.83301 11.34 5.83301H11.3467C11.8067 5.83301 12.1801 6.20634 12.1801 6.66634ZM7.51339 4.66634C7.51339 5.12634 7.14005 5.49967 6.68005 5.49967C6.22005 5.49967 5.84338 5.12634 5.84338 4.66634C5.84338 4.20634 6.21338 3.83301 6.67338 3.83301H6.68005C7.14005 3.83301 7.51339 4.20634 7.51339 4.66634ZM10.1801 4.66634C10.1801 5.12634 9.80672 5.49967 9.34672 5.49967C8.88672 5.49967 8.51005 5.12634 8.51005 4.66634C8.51005 4.20634 8.88005 3.83301 9.34005 3.83301H9.34672C9.80672 3.83301 10.1801 4.20634 10.1801 4.66634ZM5.51339 6.66634C5.51339 7.12634 5.14005 7.49967 4.68005 7.49967C4.22005 7.49967 3.84338 7.12634 3.84338 6.66634C3.84338 6.20634 4.21338 5.83301 4.67338 5.83301H4.68005C5.14005 5.83301 5.51339 6.20634 5.51339 6.66634ZM5.51339 9.33301C5.51339 9.79301 5.14005 10.1663 4.68005 10.1663C4.22005 10.1663 3.84338 9.79301 3.84338 9.33301C3.84338 8.87301 4.21338 8.49967 4.67338 8.49967H4.68005C5.14005 8.49967 5.51339 8.87301 5.51339 9.33301Z" fill="#3B3B3E"/>
</svg>
