<svg width="16" height="16" viewBox="0 0 16 16" fill="none" xmlns="http://www.w3.org/2000/svg">
<path d="M8.00066 1.5C4.41733 1.5 1.50197 4.41535 1.50197 7.99935C1.50197 8.93268 1.70937 9.87198 2.10337 10.7213C2.18003 10.8833 2.18595 11.0887 2.12062 11.2933L1.56007 12.9607C1.42007 13.382 1.52874 13.84 1.84474 14.1553C2.06874 14.3793 2.36462 14.4993 2.66928 14.4993C2.79328 14.4993 2.91804 14.4793 3.0407 14.4387L4.70005 13.8813C4.91138 13.814 5.11805 13.8193 5.28338 13.8987C6.12805 14.2913 7.06735 14.4987 8.00001 14.4987C11.584 14.4987 14.4994 11.5833 14.4994 7.99935C14.4994 4.41535 11.5847 1.5 8.00066 1.5ZM8.00066 13.4987C7.212 13.4987 6.41864 13.3234 5.70997 12.994C5.31731 12.8067 4.85135 12.784 4.38868 12.9313L2.72332 13.4907C2.63999 13.5187 2.57993 13.476 2.55193 13.448C2.52393 13.42 2.48129 13.3607 2.50929 13.2773L3.07195 11.6034C3.21662 11.148 3.19331 10.682 3.00864 10.2947C2.67731 9.58134 2.50197 8.78799 2.50197 7.99866C2.50197 4.96666 4.96866 2.49935 8.00066 2.49935C11.0333 2.49935 13.5 4.96599 13.5 7.99866C13.5 11.0313 11.0333 13.4987 8.00066 13.4987ZM10.4567 5.69865C9.28339 5.40065 8.73543 5.14531 8.23276 4.88798C8.09076 4.81598 7.92264 4.81468 7.77931 4.88668C7.27131 5.14268 6.71733 5.40067 5.52866 5.74133C5.31466 5.80267 5.16668 5.99867 5.16668 6.222V7.70333C5.16668 9.56999 6.54735 10.7027 7.84002 11.14C7.89202 11.1573 7.94601 11.1667 8.00001 11.1667C8.05401 11.1667 8.10801 11.158 8.16001 11.14C9.45201 10.7027 10.8333 9.56999 10.8333 7.70333V6.18335C10.8333 5.95468 10.6787 5.75532 10.4567 5.69865ZM9.83335 7.70402C9.83335 9.23469 8.52801 9.91934 8.00001 10.1333C7.47201 9.91934 6.16668 9.23469 6.16668 7.70402V6.59599C6.97268 6.35065 7.49193 6.13934 8.00327 5.89201C8.5066 6.13667 9.03601 6.34802 9.83335 6.56868V7.70402Z" fill="#3B3B3E"/>
</svg>
