<svg width="16" height="16" viewBox="0 0 16 16" fill="none" xmlns="http://www.w3.org/2000/svg">
<path d="M14.0417 7.09667C13.9151 5.764 12.891 4.83333 11.553 4.83333H11.1664V4.66667C11.1664 2.92067 9.74573 1.5 7.99973 1.5C6.25373 1.5 4.83307 2.92067 4.83307 4.66667V4.83333H4.44643C3.10776 4.83333 2.08441 5.764 1.95774 7.09667L1.51308 11.7633C1.44241 12.5113 1.65969 13.206 2.12636 13.7193C2.58503 14.2233 3.25103 14.5007 4.00103 14.5007H11.9984C12.7491 14.5007 13.4151 14.2227 13.8731 13.7193C14.3398 13.206 14.5571 12.5113 14.4864 11.764L14.0417 7.09667ZM5.83307 4.66667C5.83307 3.472 6.80507 2.5 7.99973 2.5C9.1944 2.5 10.1664 3.472 10.1664 4.66667V4.83333H5.83307V4.66667ZM13.133 13.0453C12.863 13.3427 12.4704 13.5 11.9984 13.5H4.00103C3.52903 13.5 3.13643 13.3433 2.86643 13.0453C2.59177 12.7433 2.46442 12.3213 2.50909 11.8573L2.95375 7.19134C3.03042 6.37867 3.6311 5.83333 4.44643 5.83333H11.553C12.369 5.83333 12.969 6.37867 13.0457 7.19134L13.4904 11.858C13.535 12.3213 13.4077 12.7433 13.133 13.0453ZM6.01308 8C6.01308 8.368 5.71508 8.66667 5.34641 8.66667C4.97841 8.66667 4.67641 8.368 4.67641 8C4.67641 7.632 4.97174 7.33333 5.33974 7.33333H5.34641C5.71441 7.33333 6.01308 7.632 6.01308 8ZM11.3464 8C11.3464 8.368 11.0484 8.66667 10.6797 8.66667C10.3117 8.66667 10.0097 8.368 10.0097 8C10.0097 7.632 10.3051 7.33333 10.6731 7.33333H10.6797C11.0477 7.33333 11.3464 7.632 11.3464 8Z" fill="#3B3B3E"/>
</svg>
