<svg width="16" height="16" viewBox="0 0 16 16" fill="none" xmlns="http://www.w3.org/2000/svg">
<path d="M14.4998 8.66652V11.9999C14.4998 12.2759 14.2758 12.4999 13.9998 12.4999C13.7238 12.4999 13.4998 12.2759 13.4998 11.9999V8.66652C13.4998 7.83919 12.8265 7.16652 11.9998 7.16652H3.20719L5.0205 8.97983C5.21584 9.17517 5.21584 9.49186 5.0205 9.68719C4.92317 9.78452 4.79515 9.83384 4.66715 9.83384C4.53915 9.83384 4.41113 9.78519 4.3138 9.68719L1.64713 7.02052C1.60113 6.97452 1.56455 6.91926 1.53922 6.85793C1.48855 6.73593 1.48855 6.59793 1.53922 6.47593C1.56455 6.41459 1.60113 6.35917 1.64713 6.31317L4.3138 3.6465C4.50913 3.45117 4.82582 3.45117 5.02115 3.6465C5.21649 3.84183 5.21649 4.15852 5.02115 4.35386L3.20784 6.16717H11.9998C13.3778 6.1665 14.4998 7.28785 14.4998 8.66652Z" fill="#3B3B3E"/>
</svg>
