<svg width="16" height="16" viewBox="0 0 16 16" fill="none" xmlns="http://www.w3.org/2000/svg">
<path d="M12.88 10.0199C11.5533 9.39321 11.52 8.2532 11.5267 8.0332V8.0132C11.5267 7.2132 11.8667 6.62654 12.6133 6.16654C12.7333 6.09321 12.8133 5.97988 12.84 5.83988C12.8667 5.70655 12.84 5.56653 12.76 5.4532C12.1733 4.60653 11.2933 4.13321 10.14 4.04654C10.0266 4.03988 9.91331 4.04653 9.79331 4.0532C9.83331 4.0132 9.87331 3.97988 9.91331 3.93988C10.7733 2.91988 10.7 1.95988 10.6733 1.63321C10.6533 1.35988 10.4133 1.15321 10.1466 1.17321C9.37998 1.21988 8.50665 1.65988 7.97998 2.27321C7.41998 2.90654 7.15332 3.64654 7.17332 4.41988C6.74665 4.26654 6.21331 4.0732 5.70664 4.0732C3.93998 4.09986 2.15332 5.50653 2.15332 8.13987C2.15332 8.8932 2.29332 9.67987 2.56665 10.4799C2.89998 11.4465 4.21331 14.1732 5.85331 14.1732C5.86665 14.1732 5.88665 14.1732 5.89998 14.1732C6.29332 14.1665 6.61332 14.0399 6.91998 13.9199C7.22665 13.7999 7.51998 13.6932 7.89998 13.6932C8.23998 13.6932 8.49999 13.7932 8.79999 13.9132C9.11332 14.0332 9.47332 14.1732 9.93998 14.1732C11.6133 14.1465 12.8133 11.6065 13.1333 10.6332C13.2133 10.3932 13.1 10.1332 12.8733 10.0265L12.88 10.0199ZM8.73997 2.92655C8.96664 2.66655 9.30665 2.43321 9.65332 2.29988C9.59999 2.57988 9.45999 2.91987 9.15332 3.28653C8.92665 3.5532 8.59997 3.84653 8.19997 3.9732C8.26664 3.60653 8.4533 3.25322 8.73997 2.92655ZM9.93998 13.1665C9.67331 13.1665 9.45332 13.0799 9.17332 12.9732C8.83332 12.8399 8.43998 12.6865 7.91331 12.6865C7.35331 12.6865 6.91998 12.8532 6.57998 12.9799C6.32664 13.0732 6.1133 13.1599 5.88664 13.1665C5.88664 13.1665 5.8733 13.1665 5.86664 13.1665C5.0733 13.1665 3.95332 11.3865 3.52665 10.1532C3.29332 9.45988 3.17332 8.77987 3.17332 8.13987C3.17332 6.05987 4.50665 5.0932 5.73332 5.0732C6.05332 5.0732 6.47998 5.22653 6.85331 5.36653C7.21331 5.49986 7.49999 5.59987 7.75999 5.59987C7.98666 5.59987 8.2333 5.50654 8.5733 5.37988C9.01997 5.21321 9.57997 4.99987 10.0733 5.03987C10.7266 5.0932 11.24 5.29321 11.6266 5.64654C10.9 6.25321 10.5333 7.04654 10.5333 7.99987C10.5266 8.30654 10.5666 9.7732 12.0533 10.6999C11.6 11.8132 10.7 13.1532 9.94665 13.1665H9.93998Z" fill="#3B3B3E"/>
</svg>
