<svg width="16" height="16" viewBox="0 0 16 16" fill="none" xmlns="http://www.w3.org/2000/svg">
<path d="M14.4378 1.75934C14.3498 1.59934 14.1818 1.5 13.9998 1.5H10.6664C10.4951 1.5 10.3364 1.58733 10.2444 1.73199L8.26442 4.84666C8.17642 4.84199 8.0891 4.83333 7.99977 4.83333C7.91044 4.83333 7.82312 4.84199 7.73512 4.84666L5.75514 1.73199C5.66314 1.58733 5.50444 1.5 5.3331 1.5H1.99977C1.81777 1.5 1.64978 1.59934 1.56178 1.75934C1.47378 1.91934 1.4804 2.11401 1.57773 2.26801L4.30381 6.55868C3.59514 7.40001 3.16644 8.48333 3.16644 9.66667C3.16644 12.332 5.33444 14.5 7.99977 14.5C10.6651 14.5 12.8331 12.332 12.8331 9.66667C12.8331 8.48333 12.4044 7.40001 11.6957 6.55868L14.4218 2.26801C14.5191 2.11401 14.5258 1.91934 14.4378 1.75934ZM5.05845 2.5L6.66375 5.02533C6.06709 5.19733 5.51846 5.48134 5.04046 5.854L2.91042 2.5H5.05845ZM7.99977 13.5C5.88577 13.5 4.16644 11.7807 4.16644 9.66667C4.16644 7.55267 5.88577 5.83333 7.99977 5.83333C10.1138 5.83333 11.8331 7.55267 11.8331 9.66667C11.8331 11.7807 10.1138 13.5 7.99977 13.5ZM10.9591 5.854C10.4811 5.482 9.93246 5.19733 9.33579 5.02533L10.9411 2.5H13.0898L10.9591 5.854ZM9.88047 8.55133L9.02842 8.428L8.6618 7.68866C8.53647 7.43533 8.2831 7.27799 7.99977 7.27799C7.71644 7.27799 7.46314 7.43534 7.33848 7.68801L6.97112 8.428L6.11907 8.55133C5.84507 8.59066 5.62107 8.77934 5.53574 9.04334C5.44974 9.30667 5.52042 9.59066 5.71909 9.784L6.33441 10.3807L6.19443 11.1907C6.14643 11.4693 6.25776 11.746 6.48642 11.9127C6.71509 12.0793 7.0124 12.1027 7.26507 11.9707L8.00042 11.586L8.73577 11.9707C8.84444 12.0273 8.96243 12.056 9.07977 12.056C9.23243 12.056 9.38443 12.008 9.51377 11.9133C9.7431 11.7467 9.85443 11.47 9.80576 11.1927L9.66579 10.3807L10.2811 9.78333C10.4804 9.58999 10.5505 9.30666 10.4645 9.04266C10.3785 8.77933 10.1545 8.59066 9.88047 8.55133ZM7.76507 8.132C7.76507 8.13267 7.76507 8.132 7.76507 8.132V8.132ZM8.86444 9.76467C8.69244 9.93067 8.61446 10.17 8.65513 10.4053L8.72975 10.8387L8.33514 10.632C8.12581 10.5227 7.8744 10.5227 7.6644 10.632L7.26979 10.8387L7.34442 10.4047C7.38508 10.17 7.30642 9.93 7.13576 9.76467L6.82114 9.46L7.25709 9.39667C7.49243 9.36333 7.69577 9.216 7.80177 9.00267L7.99912 8.60468L8.19647 9.00267C8.30247 9.21533 8.50641 9.36266 8.74041 9.396L9.1771 9.45933L8.86444 9.76467Z" fill="#3B3B3E"/>
</svg>
