<svg width="16" height="16" viewBox="0 0 16 16" fill="none" xmlns="http://www.w3.org/2000/svg">
<path d="M15.1667 5.03957V10.9595C15.1667 11.3475 14.9493 11.6935 14.5986 11.8615C14.4586 11.9295 14.3093 11.9623 14.1619 11.9623C13.9413 11.9623 13.7233 11.8882 13.5413 11.7435L11.8333 10.3742V10.6662C11.8333 12.2782 10.9453 13.1662 9.33333 13.1662H6C5.724 13.1662 5.5 12.9422 5.5 12.6662C5.5 12.3902 5.724 12.1662 6 12.1662H9.33333C10.3847 12.1662 10.8333 11.7175 10.8333 10.6662V7.33286C10.8333 7.05686 11.0573 6.83286 11.3333 6.83286C11.6093 6.83286 11.8333 7.05686 11.8333 7.33286V9.09279L14.166 10.9623L14.1667 5.03957C13.904 5.06357 13.6501 4.85284 13.6294 4.57684C13.6094 4.30151 13.814 4.06154 14.0894 4.04087C14.3754 4.02154 14.6453 4.11814 14.8499 4.30747C15.0539 4.49747 15.1667 4.75757 15.1667 5.03957ZM14.3534 2.35288L2.35335 14.3529C2.25602 14.4502 2.128 14.4995 2 14.4995C1.872 14.4995 1.74398 14.4509 1.64665 14.3529C1.45131 14.1575 1.45131 13.8409 1.64665 13.6455L2.28532 13.0069C1.34199 12.6862 0.833984 11.8835 0.833984 10.6655V5.33221C0.833984 3.72021 1.72198 2.83221 3.33398 2.83221H9.33398C10.326 2.83221 11.054 3.18285 11.4593 3.83351L13.6473 1.64552C13.8426 1.45019 14.1593 1.45019 14.3547 1.64552C14.55 1.84086 14.5487 2.15755 14.3534 2.35288ZM3.13802 12.1548L10.7147 4.57814C10.578 4.19347 10.2533 3.83286 9.33333 3.83286H3.33333C2.282 3.83286 1.83333 4.28153 1.83333 5.33286V10.6662C1.83333 11.6475 2.23069 12.0981 3.13802 12.1548Z" fill="#3B3B3E"/>
</svg>
