<svg width="16" height="16" viewBox="0 0 16 16" fill="none" xmlns="http://www.w3.org/2000/svg">
<path d="M12.6665 6.24649C12.6665 8.77982 11.0798 10.8198 8.87317 10.8198C8.13317 10.8198 7.43983 10.4332 7.19983 9.97316C7.19983 9.97316 6.83317 11.3798 6.7465 11.7198C6.57983 12.3598 5.84649 13.6132 5.39982 13.9932L5.33984 13.4732C5.27318 12.8932 5.21983 11.9932 5.3665 11.3598C5.49983 10.7865 6.22652 7.70649 6.22652 7.70649C6.22652 7.70649 6.00651 7.26649 6.00651 6.61316C6.00651 5.59316 6.59316 4.8265 7.3265 4.8265C7.95316 4.8265 8.25317 5.29982 8.25317 5.85982C8.25317 6.49316 7.85315 7.43316 7.64648 8.3065C7.47315 9.03983 8.01319 9.63316 8.72652 9.63316C10.0265 9.63316 11.0265 8.25316 11.0265 6.26649C11.0265 4.50649 9.76652 3.27316 7.97318 3.27316C5.89319 3.27316 4.67318 4.83982 4.67318 6.46649C4.67318 7.09982 4.91318 7.77983 5.21985 8.14649C5.27985 8.21983 5.28649 8.28649 5.27315 8.35982C5.21982 8.59316 5.09316 9.09316 5.07316 9.19316C5.03983 9.32649 4.9665 9.35316 4.8265 9.29316C3.91316 8.86649 3.33984 7.51983 3.33984 6.44649C3.33984 4.12649 5.01317 1.99316 8.1665 1.99316C10.6998 1.99316 12.6732 3.81316 12.6732 6.23983L12.6665 6.24649Z" fill="#3B3B3E"/>
</svg>
