<svg width="16" height="16" viewBox="0 0 16 16" fill="none" xmlns="http://www.w3.org/2000/svg">
<path d="M8.00004 14.5C5.15137 14.5 2.83337 12.182 2.83337 9.33329C2.83337 7.78595 3.27604 6.68327 4.31337 5.6466C4.51271 5.44727 4.73737 5.24796 4.9707 5.04129C5.8867 4.22929 6.83337 3.38994 6.83337 2.0006C6.83337 1.81594 6.9347 1.64664 7.09737 1.55997C7.2607 1.4733 7.45736 1.48263 7.6107 1.58463C7.6507 1.6113 11.2094 4.04995 9.71804 8.25195C10.0227 8.02061 10.3234 7.71062 10.534 7.30395C10.7327 6.91995 10.8334 6.48127 10.8334 6.0006C10.8334 5.79794 10.956 5.61462 11.144 5.53796C11.3314 5.46129 11.5474 5.50527 11.69 5.64994C12.6287 6.60327 13.1667 7.9466 13.1667 9.33394C13.1667 12.1819 10.8487 14.5 8.00004 14.5ZM7.70805 2.98128C7.37271 4.24794 6.42472 5.08797 5.63338 5.7893C5.41605 5.98197 5.20604 6.16731 5.02004 6.35331C4.17671 7.19664 3.83337 8.05995 3.83337 9.33329C3.83337 11.6306 5.70271 13.5 8.00004 13.5C10.2974 13.5 12.1667 11.6306 12.1667 9.33329C12.1667 8.59462 11.9807 7.8726 11.6394 7.24727C11.5801 7.42527 11.5074 7.59797 11.422 7.7633C10.602 9.3493 8.86204 9.79997 8.78804 9.81864C8.59338 9.8673 8.38871 9.79529 8.26805 9.63529C8.14671 9.47529 8.1327 9.25928 8.23203 9.08528C9.98337 6.02061 8.62405 3.92528 7.70805 2.98128Z" fill="#3B3B3E"/>
</svg>
