<svg width="16" height="16" viewBox="0 0 16 16" fill="none" xmlns="http://www.w3.org/2000/svg">
<path d="M12 2.83301H4C2.388 2.83301 1.5 3.72101 1.5 5.33301V10.6663C1.5 12.2783 2.388 13.1663 4 13.1663H12C13.612 13.1663 14.5 12.2783 14.5 10.6663V5.33301C14.5 3.72101 13.612 2.83301 12 2.83301ZM13.5 10.6663C13.5 11.7177 13.0513 12.1663 12 12.1663H4C2.94867 12.1663 2.5 11.7177 2.5 10.6663V7.16634H13.5V10.6663ZM13.5 6.16634H2.5V5.33301C2.5 4.28167 2.94867 3.83301 4 3.83301H12C13.0513 3.83301 13.5 4.28167 13.5 5.33301V6.16634ZM4.16667 9.99967C4.16667 9.72367 4.39067 9.49967 4.66667 9.49967H6.66667C6.94267 9.49967 7.16667 9.72367 7.16667 9.99967C7.16667 10.2757 6.94267 10.4997 6.66667 10.4997H4.66667C4.39067 10.4997 4.16667 10.2757 4.16667 9.99967Z" fill="#3B3B3E"/>
</svg>
