<svg width="16" height="16" viewBox="0 0 16 16" fill="none" xmlns="http://www.w3.org/2000/svg">
<path d="M12.3535 4.35288L4.5402 12.1662H10.0002C10.2762 12.1662 10.5002 12.3902 10.5002 12.6662C10.5002 12.9422 10.2762 13.1662 10.0002 13.1662H3.3335C3.26816 13.1662 3.20342 13.1528 3.14209 13.1275C3.02009 13.0768 2.9229 12.9796 2.87223 12.8576C2.8469 12.7963 2.8335 12.7315 2.8335 12.6662V5.99953C2.8335 5.72353 3.0575 5.49953 3.3335 5.49953C3.6095 5.49953 3.8335 5.72353 3.8335 5.99953V11.4588L11.6468 3.64552C11.8421 3.45019 12.1588 3.45019 12.3542 3.64552C12.5495 3.84086 12.5488 4.15755 12.3535 4.35288Z" fill="#3B3B3E"/>
</svg>
