<svg width="16" height="16" viewBox="0 0 16 16" fill="none" xmlns="http://www.w3.org/2000/svg">
<path d="M2.0006 7.8667C1.9826 7.8667 1.96397 7.86601 1.94531 7.86401C1.67064 7.83401 1.47264 7.58666 1.50264 7.31266C1.74464 5.10133 3.07929 3.19668 5.07263 2.21802C5.22729 2.14202 5.41129 2.15134 5.55729 2.24268C5.70395 2.33401 5.79329 2.49465 5.79329 2.66732V4.70068C5.79329 4.97668 5.56929 5.20068 5.29329 5.20068C5.01729 5.20068 4.79329 4.97668 4.79329 4.70068V3.54004C3.51129 4.43204 2.6706 5.83264 2.49727 7.42131C2.46927 7.67664 2.25194 7.8667 2.0006 7.8667ZM14.0546 8.13664C13.7773 8.10797 13.5333 8.30468 13.5033 8.57935C13.33 10.168 12.4893 11.5687 11.2073 12.4607V11.3C11.2073 11.024 10.9833 10.8 10.7073 10.8C10.4313 10.8 10.2073 11.024 10.2073 11.3V13.3333C10.2073 13.506 10.2966 13.6666 10.4433 13.758C10.5239 13.808 10.6153 13.8333 10.7073 13.8333C10.7826 13.8333 10.858 13.8166 10.928 13.782C12.9213 12.804 14.256 10.8993 14.498 8.68734C14.5273 8.41334 14.3286 8.16664 14.0546 8.13664ZM6.83329 5.66667V3C6.83329 2.06067 7.39395 1.5 8.33329 1.5H12.3333C13.2726 1.5 13.8333 2.06067 13.8333 3V5.66667C13.8333 6.606 13.2726 7.16667 12.3333 7.16667H8.33329C7.39395 7.16667 6.83329 6.606 6.83329 5.66667ZM7.83329 5.66667C7.83329 6.05933 7.94062 6.16667 8.33329 6.16667H12.3333C12.726 6.16667 12.8333 6.05933 12.8333 5.66667V3C12.8333 2.60733 12.726 2.5 12.3333 2.5H8.33329C7.94062 2.5 7.83329 2.60733 7.83329 3V5.66667ZM9.16662 10.3333V13C9.16662 13.9393 8.60595 14.5 7.66662 14.5H3.66662C2.72729 14.5 2.16662 13.9393 2.16662 13V10.3333C2.16662 9.394 2.72729 8.83333 3.66662 8.83333H7.66662C8.60595 8.83333 9.16662 9.394 9.16662 10.3333ZM8.16662 10.3333C8.16662 9.94067 8.05929 9.83333 7.66662 9.83333H3.66662C3.27395 9.83333 3.16662 9.94067 3.16662 10.3333V13C3.16662 13.3927 3.27395 13.5 3.66662 13.5H7.66662C8.05929 13.5 8.16662 13.3927 8.16662 13V10.3333ZM5.66662 10.7633C5.20662 10.7633 4.83329 11.1367 4.83329 11.5967C4.83329 12.0567 5.20662 12.43 5.66662 12.43C6.12662 12.43 6.49995 12.0567 6.49995 11.5967C6.49995 11.1367 6.12662 10.7633 5.66662 10.7633ZM10.3333 5.08464C10.7933 5.08464 11.1666 4.7113 11.1666 4.2513C11.1666 3.7913 10.7933 3.41797 10.3333 3.41797C9.87329 3.41797 9.49995 3.7913 9.49995 4.2513C9.49995 4.7113 9.87329 5.08464 10.3333 5.08464Z" fill="#3B3B3E"/>
</svg>
