<svg width="16" height="16" viewBox="0 0 16 16" fill="none" xmlns="http://www.w3.org/2000/svg">
<g clip-path="url(#clip0_36251_7361)">
<path d="M14.0413 14.0167C13.8093 14.2573 13.5174 14.412 13.2007 14.4707V14.6667C13.2007 14.9427 12.9767 15.1667 12.7007 15.1667C12.4247 15.1667 12.2007 14.9427 12.2007 14.6667V14.4674C11.536 14.3314 11.0154 13.77 10.9367 13.054C10.9074 12.7794 11.1053 12.5327 11.38 12.5027C11.6533 12.472 11.9013 12.6706 11.9313 12.946C11.9653 13.262 12.2147 13.5 12.5107 13.5H12.9154C13.0667 13.5 13.21 13.4373 13.32 13.3227C13.4353 13.2033 13.4987 13.0446 13.4987 12.8766C13.4987 12.5886 13.3153 12.3393 13.052 12.2707L12.1213 12.0307C11.776 11.9407 11.4693 11.7334 11.2546 11.4467C11.044 11.1687 10.9267 10.8167 10.9267 10.4567C10.9267 9.67071 11.4746 9.01398 12.1993 8.86532V8.66667C12.1993 8.39067 12.4233 8.16667 12.6993 8.16667C12.9753 8.16667 13.1993 8.39067 13.1993 8.66667V8.86068C13.8766 8.98668 14.41 9.55396 14.4893 10.2793C14.5187 10.554 14.3206 10.8006 14.046 10.8306C13.776 10.8606 13.5246 10.6627 13.4946 10.3874C13.4606 10.0714 13.2114 9.83333 12.9154 9.83333H12.5107C12.1893 9.83333 11.9273 10.1127 11.9273 10.4567C11.9273 10.5994 11.972 10.7367 12.0533 10.844C12.1366 10.9553 12.2467 11.0293 12.3734 11.0627L13.304 11.3027C14.0087 11.4873 14.4987 12.1346 14.4987 12.8766C14.5 13.3053 14.3373 13.7107 14.0413 14.0167ZM3.83936 4.33333C3.83936 2.77133 5.11002 1.5 6.67269 1.5C8.23536 1.5 9.50602 2.77133 9.50602 4.33333C9.50602 5.89533 8.23536 7.16667 6.67269 7.16667C5.11002 7.16667 3.83936 5.89533 3.83936 4.33333ZM4.83936 4.33333C4.83936 5.34467 5.66136 6.16667 6.67269 6.16667C7.68402 6.16667 8.50602 5.34467 8.50602 4.33333C8.50602 3.322 7.68402 2.5 6.67269 2.5C5.66136 2.5 4.83936 3.322 4.83936 4.33333ZM9.33333 13.5H4C2.94867 13.5 2.5 13.0553 2.5 12.0133C2.5 11.346 2.70467 9.16667 5.33333 9.16667H8C8.444 9.16667 8.83597 9.22599 9.16463 9.34399C9.4253 9.43599 9.7107 9.30201 9.80404 9.04134C9.89737 8.78134 9.76203 8.49534 9.50203 8.40267C9.0647 8.246 8.55933 8.16667 8 8.16667H5.33333C2.504 8.16667 1.5 10.2387 1.5 12.0133C1.5 13.6167 2.388 14.5 4 14.5H9.33333C9.60933 14.5 9.83333 14.276 9.83333 14C9.83333 13.724 9.60933 13.5 9.33333 13.5Z" fill="#3B3B3E"/>
</g>
<defs>
<clipPath id="clip0_36251_7361">
<rect width="16" height="16" fill="white"/>
</clipPath>
</defs>
</svg>
