<svg width="16" height="16" viewBox="0 0 16 16" fill="none" xmlns="http://www.w3.org/2000/svg">
<path d="M6.48665 8.16634C6.37999 8.16634 6.26666 8.13968 6.16666 8.08634L5.63332 7.80635L5.09999 8.08634C4.86665 8.20634 4.58665 8.18634 4.37332 8.03301C4.15999 7.87968 4.05332 7.61967 4.09999 7.35967L4.19999 6.76634L3.75333 6.33301C3.56666 6.15301 3.49999 5.88635 3.57999 5.63968C3.65999 5.39301 3.86666 5.21968 4.12666 5.17968L4.75333 5.08634L5.01999 4.54635C5.25332 4.07301 6.01999 4.07301 6.25333 4.54635L6.51999 5.08634L7.14666 5.17968C7.40666 5.21968 7.61332 5.39301 7.69332 5.63968C7.77332 5.88635 7.70666 6.15301 7.51999 6.33301L7.07332 6.76634L7.17332 7.35967C7.21999 7.61967 7.11333 7.87968 6.89999 8.03301C6.77999 8.11968 6.63999 8.16634 6.49333 8.16634H6.48665ZM4.91332 6.07301L5.01333 6.16634C5.17333 6.31967 5.24665 6.54634 5.20665 6.76634L5.17999 6.90634L5.30666 6.83967C5.49999 6.73967 5.73999 6.73967 5.93332 6.83967L6.05999 6.90634L6.03332 6.76634C5.99332 6.54634 6.06665 6.31967 6.22665 6.16634L6.32666 6.07301L6.18666 6.05301C5.96666 6.01968 5.77999 5.88634 5.67999 5.68634L5.61332 5.55301L5.54666 5.67968C5.44666 5.87968 5.25332 6.01968 5.03999 6.04635L4.89999 6.06634L4.91332 6.07301ZM11.3067 8.16634C11.2 8.16634 11.0867 8.13968 10.9867 8.08634L10.4533 7.80635L9.91999 8.08634C9.68666 8.20634 9.40665 8.18634 9.19332 8.03301C8.97998 7.87968 8.87333 7.61967 8.91999 7.35967L9.01999 6.77301L8.57332 6.33967C8.38666 6.15967 8.31999 5.89301 8.39999 5.64634C8.47999 5.39968 8.68665 5.22634 8.94665 5.18634L9.57332 5.09301L9.83999 4.55301C10.0733 4.07968 10.84 4.07968 11.0733 4.55301L11.34 5.09301L11.9667 5.18634C12.2267 5.22634 12.4333 5.39968 12.5133 5.64634C12.5933 5.89301 12.5267 6.15967 12.34 6.33967L11.8933 6.77301L11.9933 7.36634C12.04 7.62634 11.9333 7.88634 11.72 8.03967C11.6 8.12634 11.46 8.173 11.3133 8.173L11.3067 8.16634ZM9.73333 6.07301L9.83332 6.173C9.99332 6.32634 10.0667 6.55301 10.0267 6.77301L9.99999 6.913L10.1267 6.84634C10.32 6.74634 10.56 6.74634 10.7533 6.84634L10.88 6.913L10.8533 6.77301C10.8133 6.55301 10.8867 6.32634 11.0533 6.173L11.1467 6.07967L11.0067 6.05967C10.7867 6.02634 10.6 5.893 10.5 5.693L10.4333 5.55967L10.3667 5.68634C10.2667 5.88634 10.0733 6.02634 9.85998 6.05301L9.71999 6.07301H9.73333ZM7.99333 15.1663C4.03999 15.1663 0.82666 11.953 0.82666 7.99967C0.82666 4.04634 4.03999 0.833008 7.99333 0.833008C11.9467 0.833008 15.16 4.04634 15.16 7.99967C15.16 11.953 11.9467 15.1663 7.99333 15.1663ZM7.99333 1.83301C4.59333 1.83301 1.82666 4.59967 1.82666 7.99967C1.82666 11.3997 4.59333 14.1663 7.99333 14.1663C11.3933 14.1663 14.16 11.3997 14.16 7.99967C14.16 4.59967 11.3933 1.83301 7.99333 1.83301ZM8.03332 12.4997C6.51999 12.4997 5.22666 11.473 4.88666 9.99967C4.81999 9.70634 4.91999 9.39968 5.15332 9.19968C5.39999 8.99301 5.73999 8.93301 6.03999 9.05301C7.37999 9.59301 8.68666 9.59301 10.0333 9.05301C10.3333 8.93301 10.6733 8.98634 10.92 9.19968C11.1533 9.39968 11.2533 9.70634 11.1867 9.99967C10.8467 11.473 9.55332 12.4997 8.03999 12.4997H8.03332ZM5.95999 10.093C6.28666 10.933 7.09999 11.4997 8.03332 11.4997C8.96666 11.4997 9.77999 10.933 10.1067 10.093C8.72666 10.573 7.33332 10.573 5.95999 10.093V10.093Z" fill="#3B3B3E"/>
</svg>
