<svg width="16" height="16" viewBox="0 0 16 16" fill="none" xmlns="http://www.w3.org/2000/svg">
<path d="M14.6668 9.63967C14.6668 10.573 13.9402 11.333 13.0468 11.333H8.00016V5.81301C8.44683 5.51301 8.96682 5.33301 9.53349 5.33301C11.0402 5.33301 12.2602 6.55301 12.3735 8.10634C13.4602 7.58634 14.6602 8.42634 14.6602 9.63967H14.6668ZM4.66683 11.333H5.22015V6.62634C5.02015 6.69968 4.8335 6.80634 4.66683 6.933V11.333ZM6.88682 6.66634V11.333H7.44016V6.29968C7.3135 6.44635 7.19351 6.59967 7.09351 6.76634L6.88017 6.66634H6.88682ZM5.7735 6.49967V11.333H6.32682V6.50635C6.04682 6.46635 5.98016 6.47968 5.7735 6.50635V6.49967ZM3.55349 8.23966V11.333H4.10683V7.50635C3.9335 7.75301 3.80015 8.033 3.72015 8.34633L3.54683 8.24634L3.55349 8.23966ZM1.88682 10.9397V8.46635C1.55349 8.76635 1.3335 9.20634 1.3335 9.70634C1.3335 10.2063 1.55349 10.6464 1.88682 10.9464V10.9397ZM2.44017 8.15302V11.253C2.68683 11.333 2.79349 11.3263 2.99349 11.3263V8.07967C2.82682 8.06634 2.70017 8.06634 2.44017 8.14634V8.15302Z" fill="#3B3B3E"/>
</svg>
