<svg width="16" height="16" viewBox="0 0 16 16" fill="none" xmlns="http://www.w3.org/2000/svg">
<path d="M7.33337 11.5003H3.33337C2.28204 11.5003 1.83337 11.0517 1.83337 10.0003V6.50033H12.8334V6.66699C12.8334 6.94299 13.0574 7.16699 13.3334 7.16699C13.6094 7.16699 13.8334 6.94299 13.8334 6.66699V4.66699C13.8334 3.05499 12.9454 2.16699 11.3334 2.16699H3.33337C1.72137 2.16699 0.833374 3.05499 0.833374 4.66699V10.0003C0.833374 11.6123 1.72137 12.5003 3.33337 12.5003H7.33337C7.60937 12.5003 7.83337 12.2763 7.83337 12.0003C7.83337 11.7243 7.60937 11.5003 7.33337 11.5003ZM3.33337 3.16699H11.3334C12.3847 3.16699 12.8334 3.61566 12.8334 4.66699V5.50033H1.83337V4.66699C1.83337 3.61566 2.28204 3.16699 3.33337 3.16699ZM6.00004 8.83366C6.27604 8.83366 6.50004 9.05766 6.50004 9.33366C6.50004 9.60966 6.27604 9.83366 6.00004 9.83366H4.00004C3.72404 9.83366 3.50004 9.60966 3.50004 9.33366C3.50004 9.05766 3.72404 8.83366 4.00004 8.83366H6.00004ZM11.6667 8.16699C10.1047 8.16699 8.83337 9.43833 8.83337 11.0003C8.83337 12.5623 10.1047 13.8337 11.6667 13.8337C13.2287 13.8337 14.5 12.5623 14.5 11.0003C14.5 9.43833 13.2287 8.16699 11.6667 8.16699ZM11.6667 9.16699C11.99 9.16699 12.29 9.25831 12.554 9.40564L10.072 11.8877C9.92471 11.6237 9.83337 11.3237 9.83337 11.0003C9.83337 9.98899 10.6554 9.16699 11.6667 9.16699ZM11.6667 12.8337C11.3434 12.8337 11.0434 12.7423 10.7794 12.595L13.2614 10.113C13.4087 10.377 13.5 10.677 13.5 11.0003C13.5 12.0117 12.678 12.8337 11.6667 12.8337Z" fill="#3B3B3E"/>
</svg>
