<svg width="16" height="16" viewBox="0 0 16 16" fill="none" xmlns="http://www.w3.org/2000/svg">
<path d="M14.5 6.00016C14.5 4.98883 13.678 4.16683 12.6667 4.16683H11.278L9.83667 1.74416C9.69534 1.50816 9.3887 1.42816 9.15137 1.57016C8.9147 1.71149 8.83596 2.01816 8.9773 2.25549L10.114 4.16616H6.01335L7.16732 2.25816C7.31065 2.02216 7.2347 1.71483 6.9987 1.57149C6.7607 1.42816 6.45468 1.50416 6.31201 1.74016L4.84465 4.1655H3.33333C2.322 4.1655 1.5 4.9875 1.5 5.99883C1.5 6.72483 1.92734 7.34816 2.54134 7.64483L3.0013 12.2475C3.15264 13.7622 3.96602 14.4988 5.48869 14.4988H10.5353C12.058 14.4988 12.872 13.7628 13.0227 12.2475L13.484 7.63083C14.084 7.33016 14.5 6.7155 14.5 6.00016ZM3.33333 5.16683H12.6667C13.126 5.16683 13.5 5.54083 13.5 6.00016C13.5 6.4595 13.126 6.8335 12.6667 6.8335H3.33333C2.874 6.8335 2.5 6.4595 2.5 6.00016C2.5 5.54083 2.874 5.16683 3.33333 5.16683ZM12.0286 12.1495C11.9426 13.0048 11.6713 13.5002 10.536 13.5002H5.48934C4.34801 13.5002 4.08466 13.0255 3.99666 12.1495L3.56535 7.8335H12.4607L12.0286 12.1495ZM9.35335 9.98017C9.54869 10.1755 9.54869 10.4922 9.35335 10.6875C9.25602 10.7848 9.128 10.8342 9 10.8342C8.872 10.8342 8.74398 10.7855 8.64665 10.6875L8.5 10.5408V12.0002C8.5 12.2762 8.276 12.5002 8 12.5002C7.724 12.5002 7.5 12.2762 7.5 12.0002V10.5408L7.35335 10.6875C7.15802 10.8828 6.84133 10.8828 6.646 10.6875C6.45066 10.4922 6.45066 10.1755 6.646 9.98017L7.646 8.98017C7.692 8.93417 7.74734 8.8975 7.80868 8.87216C7.93068 8.8215 8.06867 8.8215 8.19067 8.87216C8.25201 8.8975 8.30735 8.93417 8.35335 8.98017L9.35335 9.98017Z" fill="#3B3B3E"/>
</svg>
