<svg width="16" height="16" viewBox="0 0 16 16" fill="none" xmlns="http://www.w3.org/2000/svg">
<path d="M8 2.16699C4.17333 2.16699 1.5 4.56631 1.5 8.00098C1.5 9.38698 1.9346 10.6317 2.75993 11.6177C2.65993 11.9977 2.41137 12.553 1.79004 13.0544C1.52937 13.2757 1.4353 13.6283 1.54997 13.9523C1.66397 14.2743 1.95605 14.4877 2.28939 14.4957C2.38139 14.499 2.47527 14.5003 2.57194 14.5003C3.57661 14.5003 4.82862 14.307 5.73796 13.5156C6.44996 13.7276 7.20932 13.835 8.00065 13.835C11.8273 13.835 14.5007 11.4356 14.5007 8.00098C14.5007 4.56631 11.8267 2.16699 8 2.16699ZM8 12.8357C7.21 12.8357 6.46002 12.715 5.77002 12.4763C5.58402 12.4117 5.37602 12.463 5.24202 12.607C4.60202 13.2897 3.56207 13.4684 2.78874 13.4957C3.33007 12.9424 3.68195 12.2663 3.79395 11.5523C3.81728 11.401 3.77065 11.2477 3.66732 11.1357C2.90332 10.309 2.5 9.22498 2.5 8.00098C2.5 5.15431 4.762 3.16699 8 3.16699C11.238 3.16699 13.5 5.15498 13.5 8.00098C13.5 10.847 11.238 12.8357 8 12.8357ZM10.02 6.68701L8.70671 8.00033L10.02 9.31364C10.2154 9.50897 10.2154 9.82566 10.02 10.021C9.92269 10.1183 9.79467 10.1676 9.66667 10.1676C9.53867 10.1676 9.41065 10.119 9.31331 10.021L8 8.70768L6.68669 10.021C6.58935 10.1183 6.46133 10.1676 6.33333 10.1676C6.20533 10.1676 6.07731 10.119 5.97998 10.021C5.78465 9.82566 5.78465 9.50897 5.97998 9.31364L7.29329 8.00033L5.97998 6.68701C5.78465 6.49168 5.78465 6.17499 5.97998 5.97965C6.17531 5.78432 6.492 5.78432 6.68734 5.97965L8.00065 7.29297L9.31397 5.97965C9.5093 5.78432 9.82599 5.78432 10.0213 5.97965C10.2167 6.17499 10.2154 6.49168 10.02 6.68701Z" fill="#3B3B3E"/>
</svg>
