<svg width="16" height="16" viewBox="0 0 16 16" fill="none" xmlns="http://www.w3.org/2000/svg">
<g clip-path="url(#clip0_36251_7458)">
<path d="M11.6199 0.833008H7.04728C5.64062 0.833008 4.8339 1.63964 4.8339 3.04631V3.49967H4.38127C2.95327 3.49967 2.16724 4.28637 2.16724 5.7137V14.6663C2.16724 14.845 2.26259 15.0097 2.41659 15.099C2.49392 15.1437 2.58057 15.1663 2.66724 15.1663C2.75257 15.1663 2.83862 15.1443 2.91528 15.1003L6.66724 12.9564L10.4192 15.1003C10.5739 15.189 10.7646 15.1883 10.9179 15.0983C11.0719 15.009 11.1672 14.8443 11.1672 14.6663V11.3357L13.0852 12.4337C13.1625 12.4777 13.2479 12.4997 13.3339 12.4997C13.4206 12.4997 13.5072 12.477 13.5846 12.4324C13.7386 12.343 13.8339 12.1783 13.8339 11.9997V3.04631C13.8332 1.63964 13.0265 0.833008 11.6199 0.833008ZM10.1666 13.8044L6.91463 11.9464C6.7613 11.8584 6.57187 11.8584 6.41854 11.9464L3.16659 13.805V5.71436C3.16659 4.85236 3.51795 4.50033 4.38062 4.50033H8.9519C9.81457 4.50033 10.1659 4.85236 10.1659 5.71436V13.8044H10.1666ZM12.8333 11.1377L11.1666 10.183V5.7137C11.1666 4.2857 10.3799 3.49967 8.95256 3.49967H5.83325V3.04631C5.83325 2.18497 6.18463 1.83301 7.04663 1.83301H11.6192C12.4812 1.83301 12.8326 2.18431 12.8326 3.04631V11.1377H12.8333ZM8.89526 6.46167C8.75593 6.22834 8.45861 6.14901 8.22127 6.28101L8.14396 6.32438C8.04663 6.37905 7.92733 6.37832 7.83 6.32365C7.74 6.27298 7.68465 6.18234 7.68465 6.08634C7.68465 5.76234 7.42065 5.49902 7.09465 5.49902H6.20532C5.87999 5.49902 5.61532 5.76234 5.61532 6.08634C5.61532 6.18368 5.56129 6.27232 5.47062 6.32365C5.37262 6.37898 5.25184 6.37838 5.15584 6.32438C4.87984 6.16838 4.52058 6.26299 4.36125 6.53499L3.91333 7.28638C3.84466 7.40238 3.81729 7.60504 3.85262 7.73437C3.89395 7.88571 3.99525 8.01568 4.13192 8.09302C4.22192 8.14368 4.27791 8.23437 4.27791 8.33171C4.27858 8.42837 4.22258 8.51971 4.13192 8.57104C3.99458 8.64838 3.89264 8.77899 3.85197 8.93099C3.8173 9.06099 3.84595 9.26437 3.91528 9.38037L4.3619 10.1304C4.5279 10.405 4.87784 10.4963 5.15584 10.3397C5.25318 10.2857 5.37265 10.285 5.46932 10.3397C5.55932 10.3903 5.61466 10.4803 5.61466 10.577C5.61466 10.901 5.87851 11.1643 6.20451 11.1643H7.0953C7.41996 11.1643 7.68465 10.901 7.68465 10.577C7.68465 10.481 7.73998 10.3903 7.83065 10.3397C7.92665 10.285 8.04663 10.285 8.14396 10.3397C8.42463 10.4963 8.77188 10.405 8.93921 10.1283L9.38387 9.38167C9.4532 9.26567 9.48265 9.06231 9.44865 8.93164C9.40798 8.77964 9.30655 8.64765 9.16789 8.57031C9.07789 8.51965 9.02189 8.42836 9.02189 8.33236C9.02189 8.23502 9.07789 8.14303 9.16789 8.09237L9.2452 8.04899C9.36253 7.98299 9.44867 7.87235 9.48267 7.74235C9.51667 7.61235 9.49795 7.47367 9.42928 7.35767L8.89526 6.46167ZM8.34465 9.17432L8.25317 9.32764C7.94517 9.26497 7.61861 9.31238 7.33927 9.47038C7.06194 9.62638 6.85596 9.87636 6.75529 10.1657H6.54598C6.44531 9.87636 6.23998 9.62631 5.96265 9.46964C5.96198 9.46964 5.962 9.46964 5.962 9.46964C5.68333 9.31231 5.35458 9.2643 5.04858 9.32764L4.95728 9.17432C5.16261 8.94298 5.2799 8.64369 5.27856 8.32902C5.2779 8.01769 5.15996 7.72038 4.95662 7.49105L5.04858 7.33765C5.35858 7.39965 5.68398 7.35232 5.96265 7.19499C6.23998 7.03899 6.44531 6.78901 6.54598 6.49967H6.75529C6.85596 6.78901 7.06129 7.03899 7.33862 7.19499C7.61796 7.35299 7.94384 7.40098 8.25317 7.33765L8.34465 7.49105C8.13998 7.72171 8.02254 8.02038 8.02254 8.33504C8.02254 8.64771 8.14065 8.94432 8.34465 9.17432ZM7.3466 8.33301C7.3466 8.70101 7.0486 8.99967 6.67993 8.99967C6.31193 8.99967 6.00985 8.70101 6.00985 8.33301C6.00985 7.96501 6.30526 7.66634 6.67326 7.66634H6.67993C7.04793 7.66634 7.3466 7.96501 7.3466 8.33301Z" fill="#3B3B3E"/>
</g>
<defs>
<clipPath id="clip0_36251_7458">
<rect width="16" height="16" fill="white"/>
</clipPath>
</defs>
</svg>
