<svg width="16" height="16" viewBox="0 0 16 16" fill="none" xmlns="http://www.w3.org/2000/svg">
<path d="M11.3333 1.5C9.95463 1.5 8.83329 2.62133 8.83329 4C8.83329 5.37867 9.95463 6.5 11.3333 6.5C12.712 6.5 13.8333 5.37867 13.8333 4C13.8333 2.62133 12.712 1.5 11.3333 1.5ZM11.3333 5.5C10.506 5.5 9.83329 4.82733 9.83329 4C9.83329 3.17267 10.506 2.5 11.3333 2.5C12.1606 2.5 12.8333 3.17267 12.8333 4C12.8333 4.82733 12.1606 5.5 11.3333 5.5ZM4.66663 9.5C3.28796 9.5 2.16663 10.6213 2.16663 12C2.16663 13.3787 3.28796 14.5 4.66663 14.5C6.04529 14.5 7.16663 13.3787 7.16663 12C7.16663 10.6213 6.04529 9.5 4.66663 9.5ZM4.66663 13.5C3.83929 13.5 3.16663 12.8273 3.16663 12C3.16663 11.1727 3.83929 10.5 4.66663 10.5C5.49396 10.5 6.16663 11.1727 6.16663 12C6.16663 12.8273 5.49396 13.5 4.66663 13.5ZM11.3333 9.5C11.0573 9.5 10.8333 9.724 10.8333 10V14C10.8333 14.276 11.0573 14.5 11.3333 14.5C11.6093 14.5 11.8333 14.276 11.8333 14V10C11.8333 9.724 11.6093 9.5 11.3333 9.5ZM4.66663 6.5C4.94263 6.5 5.16663 6.276 5.16663 6V2C5.16663 1.724 4.94263 1.5 4.66663 1.5C4.39063 1.5 4.16663 1.724 4.16663 2V6C4.16663 6.276 4.39063 6.5 4.66663 6.5Z" fill="#3B3B3E"/>
</svg>
