<svg width="16" height="16" viewBox="0 0 16 16" fill="none" xmlns="http://www.w3.org/2000/svg">
<path d="M7.99675 15.1634C4.04474 15.1634 0.830078 11.9487 0.830078 7.99674C0.830078 4.04474 4.04474 0.830078 7.99675 0.830078C11.9487 0.830078 15.1634 4.04474 15.1634 7.99674C15.1634 11.9487 11.9487 15.1634 7.99675 15.1634ZM7.99675 1.83008C4.59608 1.83008 1.83008 4.59608 1.83008 7.99674C1.83008 11.3974 4.59608 14.1634 7.99675 14.1634C11.3974 14.1634 14.1634 11.3974 14.1634 7.99674C14.1634 4.59608 11.3974 1.83008 7.99675 1.83008ZM8.49675 10.9967V7.94938C8.49675 7.67338 8.27275 7.44938 7.99675 7.44938C7.72075 7.44938 7.49675 7.67338 7.49675 7.94938V10.9967C7.49675 11.2727 7.72075 11.4967 7.99675 11.4967C8.27275 11.4967 8.49675 11.2727 8.49675 10.9967ZM8.67676 5.66341C8.67676 5.29541 8.37876 4.99675 8.01009 4.99675H8.00342C7.63542 4.99675 7.34001 5.29541 7.34001 5.66341C7.34001 6.03141 7.64209 6.33008 8.01009 6.33008C8.37809 6.33008 8.67676 6.03141 8.67676 5.66341Z" fill="#3B3B3E"/>
</svg>
