<svg width="16" height="16" viewBox="0 0 16 16" fill="none" xmlns="http://www.w3.org/2000/svg">
<path d="M12 2.83301H4C2.38667 2.83301 1.5 3.71967 1.5 5.33301V10.6663C1.5 12.2797 2.38667 13.1663 4 13.1663H12C13.6133 13.1663 14.5 12.2797 14.5 10.6663V5.33301C14.5 3.71967 13.6133 2.83301 12 2.83301ZM13.5 10.6663C13.5 11.7197 13.0533 12.1663 12 12.1663H4C2.94667 12.1663 2.5 11.7197 2.5 10.6663V5.33301C2.5 4.27967 2.94667 3.83301 4 3.83301H12C13.0533 3.83301 13.5 4.27967 13.5 5.33301V10.6663ZM7.86001 6.63967L7.42 9.35301H6.71999L7.15999 6.63967H7.86001ZM6.87333 6.63967L5.76666 9.35301H5.02667L4.4 6.993C4.18667 6.86633 3.93999 6.76635 3.65999 6.69301L3.67334 6.63967H4.80666C4.95999 6.64634 5.08667 6.693 5.12667 6.86633L5.37333 8.11302L5.44668 8.48635L6.13334 6.63302H6.87333V6.63967ZM9.86001 8.46635C9.86001 9.02635 9.37333 9.393 8.63999 9.393C8.32666 9.393 8.02001 9.32634 7.86001 9.24634L7.96 8.63967L8.05332 8.68634C8.27999 8.78634 8.43334 8.83301 8.71334 8.83301C8.91334 8.83301 9.13334 8.74634 9.13334 8.56634C9.13334 8.44634 9.04 8.35967 8.76666 8.22634C8.5 8.09301 8.14667 7.87968 8.15334 7.48635C8.15334 6.95968 8.64667 6.58634 9.34001 6.58634C9.61334 6.58634 9.83334 6.64633 9.96668 6.69967L9.87333 7.28634L9.81333 7.25968C9.68667 7.20635 9.52 7.153 9.29334 7.15967C9.02 7.15967 8.89332 7.27967 8.88666 7.39301C8.88666 7.51967 9.04001 7.60634 9.28001 7.72634C9.68668 7.91967 9.87333 8.15302 9.86666 8.46635H9.86001ZM11.22 6.63967C11.0533 6.63967 10.9267 6.68633 10.8533 6.86633L9.81333 9.35301H10.5533C10.5533 9.35301 10.6733 9.01968 10.7 8.94635H11.6C11.62 9.03968 11.6867 9.35301 11.6867 9.35301H12.3333L11.7667 6.63967H11.22V6.63967ZM10.9 8.39301C10.96 8.23967 11.18 7.63302 11.18 7.63302C11.18 7.63302 11.24 7.47301 11.2733 7.37301L11.32 7.60634C11.32 7.60634 11.4533 8.25301 11.48 8.39301H10.8933H10.9Z" fill="#3B3B3E"/>
</svg>
