<svg width="16" height="16" viewBox="0 0 16 16" fill="none" xmlns="http://www.w3.org/2000/svg">
<path d="M7.68638 5.68686L5.37306 8.00018L7.68638 10.3135C7.88171 10.5088 7.88171 10.8255 7.68638 11.0208C7.58904 11.1182 7.46102 11.1675 7.33302 11.1675C7.20502 11.1675 7.077 11.1188 6.97967 11.0208L4.313 8.35418C4.11767 8.15885 4.11767 7.84216 4.313 7.64683L6.97967 4.98016C7.175 4.78483 7.49169 4.78483 7.68703 4.98016C7.88236 5.17549 7.88171 5.49153 7.68638 5.68686ZM9.37371 8.00018L11.687 5.68686C11.8824 5.49153 11.8824 5.17484 11.687 4.97951C11.4917 4.78417 11.175 4.78417 10.9797 4.97951L8.313 7.64617C8.11767 7.84151 8.11767 8.1582 8.313 8.35353L10.9797 11.0202C11.077 11.1175 11.205 11.1668 11.333 11.1668C11.461 11.1668 11.589 11.1182 11.6864 11.0202C11.8817 10.8249 11.8817 10.5082 11.6864 10.3128L9.37371 8.00018Z" fill="#3B3B3E"/>
</svg>
