<svg width="16" height="16" viewBox="0 0 16 16" fill="none" xmlns="http://www.w3.org/2000/svg">
<path d="M2.08659 13.9131C1.91326 13.9131 1.73929 13.8397 1.61995 13.7131C1.55329 13.6531 1.50656 13.5797 1.47323 13.4997C1.43989 13.4197 1.41992 13.3331 1.41992 13.2464C1.41992 13.1998 1.4266 13.153 1.43327 13.113C1.4406 13.073 1.45329 13.0263 1.47396 12.9863C1.48729 12.9463 1.51394 12.9064 1.53394 12.873C1.5606 12.8397 1.58727 12.8063 1.62061 12.7729C1.86727 12.5263 2.31388 12.5263 2.56055 12.7729C2.68055 12.8929 2.75391 13.0664 2.75391 13.2464C2.75391 13.3331 2.73994 13.4197 2.70728 13.4997C2.67394 13.5797 2.62055 13.6531 2.56055 13.7131C2.43255 13.8397 2.26592 13.9131 2.08659 13.9131ZM4.48324 13.7464C4.75657 13.7091 4.94788 13.4569 4.91121 13.1829C4.81588 12.4849 4.49796 11.8483 3.99129 11.3416C3.48529 10.8356 2.84857 10.5177 2.1499 10.4224C1.88057 10.3884 1.62459 10.5763 1.58659 10.8496C1.54926 11.1236 1.7399 11.3758 2.01457 11.4131C2.49523 11.4791 2.93394 11.699 3.28394 12.049C3.6346 12.3997 3.85392 12.839 3.91992 13.319C3.95459 13.5697 4.16855 13.751 4.41455 13.751C4.43722 13.751 4.4599 13.7498 4.48324 13.7464ZM6.70459 13.8317C6.97992 13.811 7.18662 13.5711 7.16528 13.2957C7.06595 11.9731 6.49189 10.7257 5.54989 9.78304C4.60722 8.84104 3.35994 8.26698 2.03727 8.16764C1.76127 8.14564 1.52257 8.35307 1.50057 8.62907C1.4799 8.9044 1.68593 9.14437 1.96126 9.16504C3.04593 9.24704 4.06855 9.71773 4.84188 10.4904C5.61455 11.2637 6.08525 12.2863 6.16659 13.3703C6.18659 13.6329 6.40522 13.833 6.66455 13.833C6.67922 13.833 6.69126 13.833 6.70459 13.8317ZM14.4999 11.333V5.33301C14.4999 3.72101 13.6119 2.83301 11.9999 2.83301H3.99992C2.38792 2.83301 1.49992 3.72101 1.49992 5.33301V5.99967C1.49992 6.27567 1.72392 6.49967 1.99992 6.49967C2.27592 6.49967 2.49992 6.27567 2.49992 5.99967V5.33301C2.49992 4.28167 2.94859 3.83301 3.99992 3.83301H11.9999C13.0513 3.83301 13.4999 4.28167 13.4999 5.33301V11.333C13.4999 12.3843 13.0513 12.833 11.9999 12.833H9.33325C9.05725 12.833 8.83325 13.057 8.83325 13.333C8.83325 13.609 9.05725 13.833 9.33325 13.833H11.9999C13.6119 13.833 14.4999 12.945 14.4999 11.333Z" fill="#3B3B3E"/>
</svg>
