<svg width="16" height="16" viewBox="0 0 16 16" fill="none" xmlns="http://www.w3.org/2000/svg">
<path d="M11.778 0.833008H4.22201C2.46667 0.833008 1.5 1.79968 1.5 3.55501V10.2217C1.5 11.977 2.46667 12.9437 4.22201 12.9437H5.22201C5.41334 12.9437 5.59668 13.035 5.71134 13.1884L6.71069 14.5216C7.01803 14.931 7.48733 15.1663 8 15.1663C8.51267 15.1663 8.98199 14.931 9.28866 14.5224L10.2887 13.189C10.404 13.0357 10.5867 12.9437 10.778 12.9437H11.778C13.5333 12.9437 14.5 11.977 14.5 10.2217V3.55501C14.5 1.79968 13.5333 0.833008 11.778 0.833008ZM13.5 10.2217C13.5 11.429 12.9853 11.9437 11.778 11.9437H10.778C10.274 11.9437 9.79202 12.1843 9.48869 12.5883L8.48804 13.9217C8.25604 14.2324 7.74399 14.2324 7.51066 13.9217L6.51066 12.5883C6.20799 12.185 5.72535 11.9443 5.22135 11.9443H4.22135C3.01402 11.9443 2.49935 11.4297 2.49935 10.2223V3.55566C2.49935 2.34833 3.01402 1.83366 4.22135 1.83366H11.7773C12.9847 1.83366 13.4993 2.34833 13.4993 3.55566V10.2217H13.5ZM10.6387 3.99967H6.62598C5.64064 3.99967 5.33465 4.51099 5.14998 5.06299L4.44596 7.17436C4.2573 7.74236 4.30468 8.26499 4.57935 8.64632C4.76868 8.90899 5.15536 9.22168 5.92269 9.22168H6.79663V9.86035C6.79663 10.3817 7.05601 10.8657 7.48934 11.1543C7.66667 11.2723 7.86936 11.333 8.07536 11.333C8.18469 11.333 8.2947 11.3157 8.40137 11.281C8.7107 11.1817 8.95331 10.9497 9.07397 10.6263L9.76937 8.51766H10.6387C11.206 8.51766 11.6667 8.057 11.6667 7.48966V5.02633C11.6667 4.46033 11.206 3.99967 10.6387 3.99967ZM8.9327 7.86169L8.12467 10.3137L8.04403 10.323C7.88936 10.2197 7.79663 10.047 7.79663 9.861V8.72233C7.79663 8.44633 7.57263 8.22233 7.29663 8.22233H5.92269C5.65469 8.22233 5.46471 8.16569 5.39071 8.06169C5.31271 7.95302 5.31401 7.73434 5.39535 7.49101L6.09863 5.37968C6.20663 5.05768 6.22531 4.99967 6.62598 4.99967L9.16667 5.01701V7.58634C9.05933 7.64634 8.9727 7.73969 8.9327 7.86169ZM10.6667 7.49036L10.1667 7.50167V5.02368L10.6667 5.02702V7.49036Z" fill="#3B3B3E"/>
</svg>
