<svg width="16" height="16" viewBox="0 0 16 16" fill="none" xmlns="http://www.w3.org/2000/svg">
<path d="M13.8334 9.00029C13.8334 7.44029 12.5601 6.16695 11.0001 6.16695H3.00008C2.54008 6.16695 2.16675 6.54029 2.16675 7.00029V12.0003C2.16675 13.6136 3.05341 14.5003 4.66675 14.5003H8.66675C10.2801 14.5003 11.1667 13.6136 11.1667 12.0003V11.8136C12.6534 11.727 13.8334 10.5003 13.8334 9.00029ZM10.1667 12.0003C10.1667 13.0536 9.72008 13.5003 8.66675 13.5003H4.66675C3.61341 13.5003 3.16675 13.0536 3.16675 12.0003V7.16695H10.1667V12.0003ZM11.1667 10.8136V7.18029C12.1001 7.26696 12.8334 8.04029 12.8334 8.99362C12.8334 9.94696 12.1001 10.727 11.1667 10.807V10.8136ZM7.88009 3.58028C7.38009 3.07362 7.38009 2.24695 7.88009 1.74695L7.98008 1.64695C8.17342 1.45362 8.49341 1.45362 8.68675 1.64695C8.88008 1.84029 8.88675 2.16028 8.68675 2.35362L8.58675 2.45361C8.46675 2.57361 8.46675 2.76029 8.58675 2.88029L8.78674 3.08028C9.28674 3.58695 9.28674 4.41362 8.78674 4.91362L8.68675 5.01362C8.58675 5.11362 8.46008 5.16029 8.33341 5.16029C8.20675 5.16029 8.08008 5.11362 7.98008 5.01362C7.78675 4.82029 7.78008 4.50029 7.98008 4.30696L8.08008 4.20695C8.20008 4.08695 8.20008 3.90028 8.08008 3.78028L7.88009 3.58028ZM4.54675 3.58028C4.04675 3.07362 4.04675 2.24695 4.54675 1.74695L4.64675 1.64695C4.84008 1.45362 5.16008 1.45362 5.35341 1.64695C5.54675 1.84029 5.55341 2.16028 5.35341 2.35362L5.25342 2.45361C5.13342 2.57361 5.13342 2.76029 5.25342 2.88029L5.45341 3.08028C5.95341 3.58695 5.95341 4.41362 5.45341 4.91362L5.35341 5.01362C5.25341 5.11362 5.12675 5.16029 5.00008 5.16029C4.87341 5.16029 4.74675 5.11362 4.64675 5.01362C4.45342 4.82029 4.44675 4.50029 4.64675 4.30696L4.74674 4.20695C4.86674 4.08695 4.86674 3.90028 4.74674 3.78028L4.54675 3.58028Z" fill="#3B3B3E"/>
</svg>
