<svg width="16" height="16" viewBox="0 0 16 16" fill="none" xmlns="http://www.w3.org/2000/svg">
<path d="M2.67002 14.4993C2.36535 14.4993 2.06947 14.3793 1.84547 14.1553C1.52947 13.84 1.4208 13.382 1.5608 12.9607L2.12135 11.2933C2.18668 11.0887 2.18076 10.8833 2.1041 10.7213C1.70943 9.87265 1.5027 8.93268 1.5027 7.99935C1.5027 4.41602 4.41806 1.5 8.0014 1.5C11.5854 1.5 14.5007 4.41535 14.5007 7.99935C14.5007 11.5833 11.5854 14.4987 8.0014 14.4987C7.06873 14.4987 6.12876 14.2913 5.28476 13.8987C5.11876 13.8193 4.91276 13.814 4.70143 13.8813L3.04209 14.4387C2.91875 14.4793 2.79335 14.4993 2.67002 14.4993ZM8.00074 2.5C4.96875 2.5 2.50205 4.96668 2.50205 7.99935C2.50205 8.78802 2.67739 9.58199 3.00872 10.2953C3.19272 10.6827 3.2167 11.1487 3.07203 11.604L2.50937 13.278C2.48137 13.3613 2.52401 13.4206 2.55201 13.4486C2.58001 13.4766 2.64007 13.5193 2.7234 13.4913L4.38877 12.932C4.85143 12.7847 5.31872 12.8073 5.71005 12.9947C6.41805 13.324 7.21208 13.4993 8.00074 13.4993C11.0334 13.4993 13.5001 11.0327 13.5001 8C13.5001 4.96733 11.0334 2.5 8.00074 2.5ZM8.49017 11.1667H7.4721C7.1401 11.1667 6.87005 10.898 6.87005 10.5673C6.87005 10.4313 6.79338 10.3033 6.66871 10.234C6.53605 10.1593 6.37217 10.1593 6.24017 10.2333C5.9515 10.394 5.59469 10.2987 5.42669 10.0173L4.91676 9.16268C4.83543 9.02535 4.81213 8.85867 4.8528 8.70467C4.89413 8.55 4.99811 8.416 5.13811 8.33667C5.26478 8.26534 5.34272 8.13665 5.34205 8.00065C5.34205 7.86398 5.26408 7.73602 5.13942 7.66602C4.99742 7.58602 4.89413 7.45199 4.8528 7.29732C4.81146 7.14332 4.83541 6.97598 4.91741 6.83931L5.42669 5.98401C5.59269 5.70601 5.95817 5.60868 6.24017 5.76868C6.37217 5.84268 6.53605 5.84267 6.66871 5.76733C6.79338 5.69733 6.8707 5.56933 6.8707 5.434C6.8707 5.10333 7.14073 4.83468 7.4734 4.83468H8.48935C8.82202 4.83468 9.09205 5.104 9.09205 5.434C9.09205 5.56933 9.16937 5.69733 9.29404 5.76733C9.42604 5.842 9.59073 5.84265 9.7234 5.76798L9.81276 5.71867C10.0488 5.586 10.3474 5.668 10.4861 5.89933L11.0968 6.92468C11.1661 7.04068 11.1848 7.17933 11.1502 7.30933C11.1155 7.43933 11.0294 7.55067 10.9127 7.61601L10.8241 7.66602C10.6988 7.73668 10.6214 7.86534 10.6214 8.00134C10.6214 8.13801 10.6988 8.266 10.8241 8.33667C10.9668 8.41667 11.0675 8.54665 11.1095 8.70199C11.1515 8.85732 11.1301 9.01932 11.0488 9.15865L10.5361 10.0187C10.3694 10.2967 10.0021 10.3927 9.72275 10.234C9.59075 10.16 9.42671 10.16 9.29404 10.2354C9.16937 10.3054 9.09205 10.4334 9.09205 10.5687C9.09272 10.8974 8.82217 11.1667 8.49017 11.1667ZM7.81015 10.1667H8.15341C8.25608 9.832 8.4868 9.54134 8.80413 9.36267C9.1228 9.18267 9.50074 9.13468 9.84808 9.21802L10.0061 8.95268C9.76278 8.69801 9.62135 8.35868 9.62135 8.00134C9.62068 7.64334 9.76212 7.30266 10.0061 7.04732L9.84873 6.78198C9.49939 6.86532 9.12213 6.818 8.80413 6.63733C8.4868 6.45866 8.25675 6.168 8.15341 5.83333H7.81015C7.70749 6.168 7.47677 6.45866 7.15944 6.63733C6.84077 6.81733 6.46549 6.86465 6.11549 6.78198L5.95745 7.04732C6.20078 7.30132 6.34204 7.64 6.3427 7.99666C6.34404 8.356 6.20278 8.69733 5.95745 8.95333L6.11549 9.21802C6.46482 9.13402 6.84077 9.18267 7.15944 9.36267C7.47677 9.54134 7.70749 9.832 7.81015 10.1667ZM10.2101 9.35933C10.2107 9.36 10.2115 9.36001 10.2128 9.36068C10.2115 9.36001 10.2107 9.36 10.2101 9.35933ZM5.75009 6.63932C5.75143 6.63999 5.75203 6.64 5.7527 6.64067C5.75203 6.64 5.75143 6.63932 5.75009 6.63932ZM8.68011 8C8.68011 7.632 8.38211 7.33333 8.01344 7.33333H8.00677C7.63877 7.33333 7.34336 7.632 7.34336 8C7.34336 8.368 7.64544 8.66667 8.01344 8.66667C8.38144 8.66667 8.68011 8.368 8.68011 8Z" fill="#3B3B3E"/>
</svg>
