<svg width="16" height="16" viewBox="0 0 16 16" fill="none" xmlns="http://www.w3.org/2000/svg">
<path d="M6.05332 9.12667L6.86001 7.83333C6.94667 7.69333 7.05999 7.69333 7.13999 7.83333L7.94668 9.12667C8.22001 9.56667 8.69999 9.83333 9.21999 9.83333H11.3333C11.9733 9.83333 12.5 9.30667 12.5 8.66667V6C12.5 4.38667 11.6133 3.5 10 3.5H4C2.38667 3.5 1.5 4.38667 1.5 6V8.66667C1.5 9.30667 2.02667 9.83333 2.66667 9.83333H4.78001C5.30001 9.83333 5.77332 9.56667 6.05332 9.12667V9.12667ZM4.78001 8.83333H2.66667C2.57333 8.83333 2.5 8.76 2.5 8.66667V6C2.5 4.94667 2.94667 4.5 4 4.5H10C11.0533 4.5 11.5 4.94667 11.5 6V8.66667C11.5 8.76 11.4267 8.83333 11.3333 8.83333H9.21999C9.04666 8.83333 8.88667 8.74666 8.79334 8.6L7.98667 7.30667C7.77334 6.96 7.4 6.76 7 6.76C6.6 6.76 6.22666 6.96667 6.01333 7.30667L5.20667 8.6C5.11333 8.74666 4.95334 8.83333 4.78001 8.83333ZM14.5 2V12C14.5 13.6133 13.6133 14.5 12 14.5H9C7.38667 14.5 6.5 13.6133 6.5 12V11.8333H5.66667C5.39333 11.8333 5.16667 11.6067 5.16667 11.3333C5.16667 11.06 5.39333 10.8333 5.66667 10.8333H8.33333C8.60667 10.8333 8.83333 11.06 8.83333 11.3333C8.83333 11.6067 8.60667 11.8333 8.33333 11.8333H7.5V12C7.5 13.0533 7.94667 13.5 9 13.5H12C13.0533 13.5 13.5 13.0533 13.5 12V2C13.5 1.72667 13.7267 1.5 14 1.5C14.2733 1.5 14.5 1.72667 14.5 2Z" fill="#3B3B3E"/>
</svg>
