<svg width="16" height="16" viewBox="0 0 16 16" fill="none" xmlns="http://www.w3.org/2000/svg">
<path d="M8.00008 14.4998C7.61608 14.4998 7.23212 14.3538 6.93945 14.0611L5.59277 12.7151C5.41744 12.5404 5.13605 12.5211 4.93872 12.6691L4.03345 13.3485C3.67745 13.6151 3.20876 13.6571 2.81209 13.4585C2.41409 13.2598 2.16675 12.8598 2.16675 12.4151V3.58645C2.16675 3.14178 2.41409 2.74178 2.81209 2.54311C3.20876 2.34378 3.67745 2.38645 4.03345 2.65312L4.93945 3.33311C5.13612 3.48111 5.41811 3.46177 5.59277 3.28644L6.93945 1.94045C7.52412 1.35579 8.47604 1.35579 9.06071 1.94045L10.4074 3.28711C10.5827 3.46178 10.8641 3.48111 11.0614 3.33311L11.9667 2.65379C12.3227 2.38712 12.7907 2.34445 13.1881 2.54379C13.5861 2.74245 13.8334 3.14245 13.8334 3.58712V12.4158C13.8334 12.8604 13.5861 13.2604 13.1881 13.4591C12.7907 13.6578 12.3227 13.6158 11.9667 13.3491L11.0607 12.6691C10.864 12.5211 10.5821 12.5404 10.4074 12.7158L9.06071 14.0618C8.76804 14.3538 8.38408 14.4998 8.00008 14.4998ZM5.23739 11.5711C5.62472 11.5711 6.01072 11.7191 6.30005 12.0078L7.64673 13.3545C7.8354 13.5431 8.16475 13.5431 8.35409 13.3545L9.70077 12.0084C10.2254 11.4838 11.0701 11.4251 11.6607 11.8691L12.5674 12.5491C12.6394 12.6038 12.7074 12.5818 12.7421 12.5651C12.7761 12.5478 12.8341 12.5058 12.8341 12.4158V3.58712C12.8341 3.49712 12.7761 3.45512 12.7421 3.43779C12.7074 3.42045 12.64 3.39911 12.5674 3.45378L11.6614 4.13379C11.0687 4.57779 10.2254 4.51912 9.70077 3.99445L8.35409 2.64779C8.15875 2.45312 7.84206 2.45312 7.64673 2.64779L6.30005 3.99378C5.77538 4.51844 4.93142 4.57712 4.34009 4.13312L3.43343 3.45311C3.3621 3.39844 3.29404 3.41978 3.25871 3.43712C3.22471 3.45445 3.16675 3.49645 3.16675 3.58645V12.4151C3.16675 12.5051 3.22471 12.5471 3.25871 12.5645C3.29404 12.5818 3.36143 12.6031 3.43343 12.5484L4.33944 11.8685C4.60544 11.6691 4.92205 11.5711 5.23739 11.5711ZM11.1667 6.66712C11.1667 6.39112 10.9427 6.16712 10.6667 6.16712H5.33341C5.05741 6.16712 4.83341 6.39112 4.83341 6.66712C4.83341 6.94312 5.05741 7.16712 5.33341 7.16712H10.6667C10.9427 7.16712 11.1667 6.94312 11.1667 6.66712ZM9.16675 9.33378C9.16675 9.05778 8.94275 8.83378 8.66675 8.83378H5.33341C5.05741 8.83378 4.83341 9.05778 4.83341 9.33378C4.83341 9.60978 5.05741 9.83378 5.33341 9.83378H8.66675C8.94275 9.83378 9.16675 9.60978 9.16675 9.33378Z" fill="#3B3B3E"/>
</svg>
