<svg width="16" height="16" viewBox="0 0 16 16" fill="none" xmlns="http://www.w3.org/2000/svg">
<path d="M14.4378 1.75934C14.3498 1.59934 14.1818 1.5 13.9998 1.5H10.6664C10.4951 1.5 10.3364 1.58733 10.2444 1.73199L8.26442 4.84666C8.17642 4.84199 8.0891 4.83333 7.99977 4.83333C7.91044 4.83333 7.82312 4.84199 7.73512 4.84666L5.75514 1.73199C5.66314 1.58733 5.50444 1.5 5.3331 1.5H1.99977C1.81777 1.5 1.64978 1.59934 1.56178 1.75934C1.47378 1.91934 1.4804 2.11401 1.57773 2.26801L4.30381 6.55868C3.59514 7.40001 3.16644 8.48333 3.16644 9.66667C3.16644 12.332 5.33444 14.5 7.99977 14.5C10.6651 14.5 12.8331 12.332 12.8331 9.66667C12.8331 8.48333 12.4044 7.40001 11.6957 6.55868L14.4218 2.26801C14.5191 2.11401 14.5258 1.91934 14.4378 1.75934ZM5.05845 2.5L6.66375 5.02533C6.06709 5.19733 5.51846 5.48134 5.04046 5.854L2.91042 2.5H5.05845ZM7.99977 13.5C5.88577 13.5 4.16644 11.7807 4.16644 9.66667C4.16644 7.55267 5.88577 5.83333 7.99977 5.83333C10.1138 5.83333 11.8331 7.55267 11.8331 9.66667C11.8331 11.7807 10.1138 13.5 7.99977 13.5ZM10.9591 5.854C10.4811 5.482 9.93246 5.19733 9.33579 5.02533L10.9411 2.5H13.0898L10.9591 5.854Z" fill="#3B3B3E"/>
</svg>
