<svg width="16" height="16" viewBox="0 0 16 16" fill="none" xmlns="http://www.w3.org/2000/svg">
<path d="M8.00066 1.5C4.41733 1.5 1.50197 4.41535 1.50197 7.99935C1.50197 8.93268 1.70937 9.87198 2.10337 10.7213C2.18003 10.8833 2.18595 11.0887 2.12062 11.2933L1.56007 12.9607C1.42007 13.382 1.52874 13.84 1.84474 14.1553C2.06874 14.3793 2.36462 14.4993 2.66928 14.4993C2.79328 14.4993 2.91804 14.4793 3.0407 14.4387L4.70005 13.8813C4.91205 13.814 5.11805 13.8193 5.28338 13.8987C6.12805 14.2913 7.06735 14.4987 8.00001 14.4987C11.584 14.4987 14.4994 11.5833 14.4994 7.99935C14.4994 4.41535 11.5847 1.5 8.00066 1.5ZM8.00066 13.4987C7.212 13.4987 6.41864 13.3234 5.70997 12.994C5.31731 12.8067 4.85135 12.784 4.38868 12.9313L2.72332 13.4907C2.63999 13.5187 2.57993 13.476 2.55193 13.448C2.52393 13.42 2.48129 13.3607 2.50929 13.2773L3.07195 11.6034C3.21662 11.148 3.19331 10.682 3.00864 10.2947C2.67731 9.58134 2.50197 8.78799 2.50197 7.99866C2.50197 4.96666 4.96866 2.49935 8.00066 2.49935C11.0333 2.49935 13.5 4.96599 13.5 7.99866C13.5 11.0313 11.0333 13.4987 8.00066 13.4987ZM10.186 5.15332C9.97938 4.94665 9.70541 4.83333 9.41408 4.83333C9.41341 4.83333 9.41261 4.83333 9.41261 4.83333C9.12061 4.83333 8.84532 4.94798 8.63999 5.15531L4.97934 8.83268C4.88534 8.92602 4.83335 9.05334 4.83335 9.18534V10.6667C4.83335 10.9427 5.05735 11.1667 5.33335 11.1667H6.81528C6.94728 11.1667 7.07465 11.114 7.16798 11.0207L10.8454 7.35999C11.0527 7.15399 11.166 6.87932 11.1667 6.58732C11.1667 6.29532 11.0534 6.01998 10.8467 5.81331L10.186 5.15332ZM9.41408 5.83333C9.43141 5.83333 9.45668 5.83801 9.47934 5.86068L10.1393 6.52067C10.162 6.54334 10.1667 6.56934 10.1667 6.58667C10.1667 6.604 10.162 6.62935 10.1393 6.65202L9.71534 7.07401L8.92596 6.28467L9.34799 5.86068C9.37133 5.83801 9.39674 5.83333 9.41408 5.83333ZM6.60874 10.1667H5.83335V9.39132L8.22072 6.99333L9.00669 7.77934L6.60874 10.1667Z" fill="#3B3B3E"/>
</svg>
