<svg width="16" height="16" viewBox="0 0 16 16" fill="none" xmlns="http://www.w3.org/2000/svg">
<path d="M8 2.16699C4.17333 2.16699 1.5 4.56631 1.5 8.00098C1.5 9.38698 1.9346 10.6317 2.75993 11.6177C2.65993 11.9977 2.41137 12.553 1.79004 13.0544C1.52937 13.2757 1.4353 13.6283 1.54997 13.9523C1.66397 14.2743 1.95605 14.4877 2.28939 14.4957C2.38139 14.499 2.47527 14.5003 2.57194 14.5003C3.57661 14.5003 4.82862 14.307 5.73796 13.5156C6.44996 13.7276 7.20932 13.835 8.00065 13.835C11.8273 13.835 14.5007 11.4356 14.5007 8.00098C14.5007 4.56631 11.8267 2.16699 8 2.16699ZM8 12.8357C7.21 12.8357 6.46002 12.715 5.77002 12.4763C5.58469 12.4117 5.37669 12.463 5.24202 12.607C4.60202 13.2897 3.56207 13.4684 2.78874 13.4957C3.33007 12.9424 3.68195 12.2663 3.79395 11.5523C3.81728 11.401 3.77065 11.2477 3.66732 11.1357C2.90332 10.309 2.5 9.22498 2.5 8.00098C2.5 5.15431 4.762 3.16699 8 3.16699C11.238 3.16699 13.5 5.15498 13.5 8.00098C13.5 10.847 11.238 12.8357 8 12.8357ZM10.186 5.15365C9.97937 4.94698 9.7054 4.83366 9.41406 4.83366C9.4134 4.83366 9.41261 4.83366 9.41195 4.83366C9.11995 4.83366 8.84531 4.94836 8.63997 5.15503L4.97933 8.83236C4.88533 8.92636 4.83333 9.05298 4.83333 9.18498V10.667C4.83333 10.943 5.05733 11.167 5.33333 11.167H6.81527C6.94727 11.167 7.07464 11.1143 7.16797 11.0216L10.8454 7.361C11.0527 7.155 11.166 6.8803 11.1667 6.5883C11.1667 6.2963 11.0533 6.02096 10.8467 5.81429L10.186 5.15365ZM9.41341 5.83366C9.43075 5.83366 9.456 5.83834 9.47933 5.861L10.1393 6.521C10.162 6.54366 10.1667 6.56966 10.1667 6.587C10.1667 6.60433 10.162 6.62968 10.1393 6.65234L9.71533 7.07503L8.9266 6.28564L9.34928 5.861C9.37128 5.83834 9.39675 5.83366 9.41341 5.83366ZM6.60872 10.167H5.83333V9.39168L8.2207 6.99365L9.00602 7.77962L6.60872 10.167Z" fill="#3B3B3E"/>
</svg>
