<svg width="16" height="16" viewBox="0 0 16 16" fill="none" xmlns="http://www.w3.org/2000/svg">
<path d="M13.8402 3.49297C13.4535 3.07964 12.9269 2.85296 12.2669 2.83963C10.9669 2.79296 9.24019 3.3263 8.39352 6.09963C8.34019 6.2863 8.39352 6.4863 8.54019 6.61963C8.68686 6.7463 8.89353 6.7863 9.07353 6.7063C9.31353 6.59963 9.54685 6.55297 9.76685 6.55297C9.89352 6.55297 9.99352 6.57297 10.0269 6.61297C10.0669 6.65963 10.1002 6.79297 10.0735 7.03963C10.0535 7.2663 9.90686 7.73297 9.34019 8.63297C9.00686 9.1663 8.78686 9.4063 8.67352 9.51963C8.58019 9.35963 8.42019 8.9863 8.22686 8.13297C8.14019 7.79297 7.9802 6.87964 7.75353 5.41964C7.40686 3.2263 6.18686 3.01296 5.48686 3.07963C4.97352 3.1263 4.32019 3.5063 3.42019 4.2863C2.84686 4.8063 2.26686 5.3263 1.67353 5.8463C1.47353 6.01964 1.44686 6.31963 1.60686 6.5263L2.17353 7.25297C2.34019 7.4663 2.63352 7.5063 2.85352 7.35963C3.22019 7.09963 3.42019 6.97297 3.52686 6.91964C3.62686 7.01964 3.88019 7.35964 4.18019 8.45964L5.16019 12.0596C5.77352 13.7063 6.50686 14.5063 7.4002 14.5063C8.64686 14.5063 10.0469 13.4063 11.9335 10.9463C13.5935 8.8063 14.4269 7.1463 14.4869 5.85963C14.5335 4.81296 14.3135 4.0263 13.8335 3.5063L13.8402 3.49297ZM11.1535 10.3263C9.53352 12.433 8.27353 13.4996 7.40686 13.4996C7.01353 13.4996 6.52019 12.8263 6.11352 11.7463L5.14686 8.1863C4.84686 7.11297 4.39353 5.87964 3.50686 5.87964C3.36686 5.87964 3.23352 5.9063 2.78019 6.19964C3.22019 5.8063 3.65353 5.41964 4.08019 5.03297C5.04019 4.19964 5.44686 4.0863 5.58019 4.07297C5.86019 4.0463 6.51353 3.97963 6.76019 5.57297C7.00019 7.07963 7.1602 7.99963 7.25353 8.35963C7.50686 9.51963 7.85352 10.593 8.63352 10.593C9.10019 10.593 9.54686 10.1796 10.1869 9.1663C10.7402 8.29297 11.0269 7.6263 11.0735 7.13297C11.1269 6.6263 11.0269 6.2263 10.7735 5.9463C10.5202 5.6663 10.1402 5.5463 9.6802 5.55297C10.2402 4.3663 11.0869 3.81296 12.2469 3.83963C12.6335 3.85296 12.9135 3.95964 13.1135 4.17964C13.4002 4.49297 13.5335 5.05297 13.5002 5.80631C13.4535 6.86631 12.6669 8.3863 11.1535 10.333V10.3263Z" fill="#3B3B3E"/>
</svg>
