<svg width="16" height="16" viewBox="0 0 16 16" fill="none" xmlns="http://www.w3.org/2000/svg">
<path d="M13.8317 5.65475L9.37699 1.99273C8.57899 1.33739 7.421 1.33673 6.623 1.99273L2.16833 5.65475C1.655 6.07675 1.41034 6.74538 1.52901 7.39938L2.49906 12.7214C2.68706 13.7514 3.58372 14.4994 4.63106 14.4994H11.3677C12.415 14.4994 13.3117 13.7514 13.4997 12.7214L14.4697 7.39938C14.5897 6.74538 14.345 6.07675 13.8317 5.65475ZM13.4864 7.2201L12.5164 12.542C12.4157 13.0967 11.9324 13.4994 11.3684 13.4994H4.63171C4.06771 13.4994 3.58501 13.0967 3.48368 12.542L2.51371 7.22075C2.45904 6.92342 2.5704 6.61938 2.8044 6.42738L7.25899 2.76543C7.47365 2.58877 7.73703 2.5007 8.00036 2.5007C8.26369 2.5007 8.52707 2.58942 8.74173 2.76608L13.1963 6.42803C13.4297 6.61936 13.541 6.92277 13.4864 7.2201ZM8.66703 11.0074C8.66703 11.3754 8.36836 11.674 8.00036 11.674C7.63236 11.674 7.33369 11.3754 7.33369 11.0074C7.33369 10.6394 7.63236 10.3407 8.00036 10.3407C8.36836 10.3407 8.66703 10.6394 8.66703 11.0074ZM9.80301 9.10869C10.023 9.27603 10.0657 9.59004 9.89839 9.80938C9.80039 9.93871 9.65104 10.0067 9.49971 10.0067C9.39438 10.0067 9.28837 9.97342 9.19771 9.90475C8.51171 9.38275 7.48968 9.38275 6.80301 9.90475C6.58301 10.0714 6.26966 10.0294 6.10233 9.80938C5.935 9.58938 5.97704 9.27603 6.19771 9.10869C7.23437 8.32003 8.76635 8.32003 9.80301 9.10869ZM11.3264 7.73141C11.535 7.91141 11.5597 8.2274 11.379 8.43674C11.2804 8.5514 11.141 8.61073 11.0004 8.61073C10.8844 8.61073 10.7684 8.57072 10.6744 8.48939C9.93302 7.85072 8.98303 7.4994 8.00036 7.4994C7.01769 7.4994 6.06837 7.85072 5.32637 8.48939C5.1177 8.66939 4.80171 8.64607 4.62105 8.43674C4.44038 8.2274 4.46503 7.91141 4.6737 7.73141C5.59703 6.93675 6.77771 6.4994 7.99971 6.4994C9.22171 6.4994 10.403 6.93675 11.3264 7.73141Z" fill="#3B3B3E"/>
</svg>
