<svg width="16" height="16" viewBox="0 0 16 16" fill="none" xmlns="http://www.w3.org/2000/svg">
<path d="M11.3334 2.83333H11.1534C11.0887 1.99733 10.5474 1.5 9.66675 1.5H6.33341C5.45275 1.5 4.91143 1.99733 4.84676 2.83333H4.66675C3.05475 2.83333 2.16675 3.72133 2.16675 5.33333V12C2.16675 13.612 3.05475 14.5 4.66675 14.5H11.3334C12.9454 14.5 13.8334 13.612 13.8334 12V5.33333C13.8334 3.72133 12.9454 2.83333 11.3334 2.83333ZM5.83341 3C5.83341 2.60733 5.94075 2.5 6.33341 2.5H9.66675C10.0594 2.5 10.1667 2.60733 10.1667 3V3.66667C10.1667 4.05933 10.0594 4.16667 9.66675 4.16667H6.33341C5.94075 4.16667 5.83341 4.05933 5.83341 3.66667V3ZM12.8334 12C12.8334 13.0513 12.3847 13.5 11.3334 13.5H4.66675C3.61541 13.5 3.16675 13.0513 3.16675 12V5.33333C3.16675 4.282 3.61541 3.83333 4.66675 3.83333H4.84676C4.91143 4.66933 5.45275 5.16667 6.33341 5.16667H9.66675C10.5474 5.16667 11.0887 4.66933 11.1534 3.83333H11.3334C12.3847 3.83333 12.8334 4.282 12.8334 5.33333V12ZM9.0341 6.5C9.03077 6.5 9.02814 6.5 9.02547 6.5C8.58414 6.5 8.24608 6.67068 8.00008 6.89201C7.75408 6.67001 7.41602 6.5 6.97469 6.5C6.97202 6.5 6.9694 6.5 6.96606 6.5C6.40606 6.50267 5.93601 6.71602 5.60734 7.11735C5.21934 7.59202 5.07747 8.278 5.22013 9C5.57013 10.7753 7.70549 11.7493 7.79549 11.79C7.86083 11.8193 7.93008 11.8333 8.00008 11.8333C8.07008 11.8333 8.13934 11.8187 8.20467 11.79C8.29534 11.7493 10.43 10.7753 10.78 9C10.78 9 10.7807 9.00002 10.7807 8.99935C10.9227 8.27735 10.7815 7.59135 10.3928 7.11735C10.0648 6.71602 9.59477 6.50267 9.0341 6.5ZM9.7994 8.80599C9.60073 9.80866 8.47008 10.5173 8.00008 10.7727C7.53008 10.5173 6.39942 9.80868 6.20142 8.80668C6.11808 8.38535 6.18608 7.99068 6.38208 7.75134C6.51941 7.58401 6.71209 7.50132 6.97209 7.50065C6.97275 7.50065 6.97402 7.50065 6.97469 7.50065C7.36069 7.50065 7.51343 7.88465 7.52743 7.92265C7.59543 8.12331 7.78336 8.25665 7.99536 8.25932C7.99736 8.25932 7.99937 8.25932 8.00203 8.25932C8.2107 8.25932 8.40009 8.12534 8.47209 7.92867C8.48809 7.88467 8.64077 7.50065 9.02677 7.50065C9.02744 7.50065 9.02871 7.50065 9.02938 7.50065C9.29005 7.50198 9.4827 7.58401 9.62004 7.75134C9.81537 7.99001 9.88206 8.38399 9.7994 8.80599Z" fill="#3B3B3E"/>
</svg>
