<svg width="16" height="16" viewBox="0 0 16 16" fill="none" xmlns="http://www.w3.org/2000/svg">
<path d="M8.07668 14.4993C7.75668 14.4993 7.43336 14.4767 7.10736 14.43C4.18136 14.0127 1.89537 11.6933 1.54737 8.79C1.37403 7.34333 1.6747 5.92533 2.41803 4.68933C3.6007 2.722 5.77335 1.5 8.08869 1.5C8.40269 1.50067 8.66935 1.68601 8.77535 1.97201C8.88269 2.26067 8.80069 2.57733 8.56669 2.77867C7.51469 3.684 7.04403 5.04599 7.3087 6.42133C7.61536 8.01999 8.93135 9.242 10.582 9.46267C11.58 9.59533 12.5407 9.372 13.3547 8.81333C13.61 8.63933 13.938 8.64068 14.1894 8.81734C14.44 8.99268 14.5527 9.29734 14.4774 9.59267C13.7287 12.5193 11.07 14.4987 8.07668 14.4993ZM7.39002 2.54401C5.69068 2.75801 4.15668 3.73667 3.27468 5.20467C2.64801 6.248 2.39335 7.44667 2.54002 8.67067C2.83402 11.1253 4.77003 13.086 7.24803 13.44C9.87736 13.8147 12.3613 12.364 13.2947 10.002C12.4227 10.426 11.4354 10.586 10.448 10.4547C8.37002 10.1773 6.71336 8.63199 6.32536 6.61066C6.04136 5.12599 6.43602 3.65401 7.39002 2.54401ZM2.84668 4.94668H2.85336H2.84668Z" fill="#3B3B3E"/>
</svg>
