<svg width="16" height="16" viewBox="0 0 16 16" fill="none" xmlns="http://www.w3.org/2000/svg">
<g clip-path="url(#clip0_36251_9007)">
<path d="M13.1935 3.06635C11.8468 1.64635 9.9535 0.833008 8.00016 0.833008C7.04016 0.833008 6.12017 1.01968 5.26017 1.37968C5.26017 1.37968 5.26017 1.37968 5.2535 1.37968C2.84683 2.37301 1.18017 4.59967 0.886841 7.16634C0.886841 7.16634 0.886841 7.16634 0.886841 7.173C0.853507 7.42634 0.833496 7.693 0.833496 7.98634C0.833496 9.933 1.60015 11.753 2.98682 13.0997C4.33348 14.4197 6.1135 15.153 8.00016 15.153C9.00016 15.153 9.96018 14.953 10.8535 14.5597C13.3135 13.4863 14.9535 11.1663 15.1335 8.51301C15.1468 8.34634 15.1535 8.17301 15.1535 7.99301C15.1535 6.15301 14.4535 4.39967 13.1802 3.05967L13.1935 3.06635ZM9.81348 7.673C9.64681 7.25967 9.46684 6.83967 9.26017 6.42634C10.5535 5.81967 11.7335 5.04634 12.7802 4.11301C13.6335 5.15967 14.1135 6.45301 14.1535 7.80635C12.7402 7.44635 11.2468 7.39967 9.80684 7.673H9.81348ZM12.0935 3.39301C11.1135 4.25967 10.0068 4.98635 8.80017 5.54635C8.10684 4.29301 7.28015 3.13301 6.32015 2.06635C6.86015 1.91301 7.42016 1.82634 8.00016 1.82634C9.50683 1.82634 10.9668 2.39301 12.0935 3.39301V3.39301ZM5.32682 2.45968C6.32016 3.51301 7.17349 4.67968 7.87349 5.93968C6.00683 6.64634 4.0535 6.93967 1.96684 6.78634C2.34017 4.89967 3.58015 3.29968 5.32015 2.45968H5.32682ZM1.84017 7.77967C2.2335 7.81301 2.62016 7.83301 3.00016 7.83301C4.84016 7.83301 6.6335 7.48634 8.34017 6.82634C8.52017 7.18634 8.68016 7.55301 8.8335 7.91968C6.5735 8.57301 4.60014 10.0063 3.27348 11.9597C2.34014 10.853 1.8335 9.473 1.8335 8.00634C1.8335 7.933 1.8335 7.85967 1.8335 7.78634L1.84017 7.77967ZM3.99349 12.673C5.20682 10.813 7.05351 9.45301 9.18018 8.85301C9.73351 10.4397 10.0535 12.0863 10.1268 13.773C9.4535 14.0263 8.74016 14.1597 7.99349 14.1597C6.50682 14.1597 5.10682 13.6263 3.98682 12.6663L3.99349 12.673ZM11.1002 13.3197C10.9935 11.713 10.6735 10.1397 10.1602 8.62634C11.4735 8.40634 12.8202 8.47967 14.0935 8.83301C13.8402 10.7197 12.7468 12.3663 11.1002 13.3197Z" fill="#3B3B3E"/>
</g>
<defs>
<clipPath id="clip0_36251_9007">
<rect width="16" height="16" fill="white"/>
</clipPath>
</defs>
</svg>
