<svg width="16" height="16" viewBox="0 0 16 16" fill="none" xmlns="http://www.w3.org/2000/svg">
<path d="M14.4998 2.66699V6.00033C14.4998 6.27633 14.2758 6.50033 13.9998 6.50033H10.6665C10.3905 6.50033 10.1665 6.27633 10.1665 6.00033C10.1665 5.72433 10.3905 5.50033 10.6665 5.50033H12.8866C11.9599 3.68299 10.0818 2.50033 7.99984 2.50033C4.96717 2.50033 2.49984 4.96766 2.49984 8.00033C2.49984 11.033 4.96717 13.5003 7.99984 13.5003C10.1018 13.5003 11.9891 12.3297 12.9251 10.445C13.0478 10.1983 13.3472 10.0957 13.5959 10.2197C13.8425 10.3431 13.9438 10.6423 13.8211 10.8896C12.7151 13.117 10.4845 14.501 8.00049 14.501C4.41649 14.501 1.50049 11.585 1.50049 8.00098C1.50049 4.41698 4.41649 1.50098 8.00049 1.50098C10.2652 1.50098 12.3312 2.68162 13.5005 4.54362V2.66699C13.5005 2.39099 13.7245 2.16699 14.0005 2.16699C14.2765 2.16699 14.4998 2.39099 14.4998 2.66699Z" fill="#3B3B3E"/>
</svg>
