<svg width="16" height="16" viewBox="0 0 16 16" fill="none" xmlns="http://www.w3.org/2000/svg">
<path d="M14.3534 2.35288L10.5401 6.16619H13.3333C13.6093 6.16619 13.8333 6.39019 13.8333 6.66619C13.8333 6.94219 13.6093 7.16619 13.3333 7.16619H9.33335C9.26802 7.16619 9.20328 7.15279 9.14194 7.12746C9.01994 7.07679 8.92275 6.9796 8.87209 6.8576C8.84675 6.79627 8.83335 6.73153 8.83335 6.66619V2.66619C8.83335 2.39019 9.05735 2.16619 9.33335 2.16619C9.60935 2.16619 9.83335 2.39019 9.83335 2.66619V5.45884L13.6467 1.64552C13.842 1.45019 14.1587 1.45019 14.354 1.64552C14.5494 1.84086 14.5487 2.15755 14.3534 2.35288ZM6.85809 8.8716C6.79676 8.84626 6.73202 8.83286 6.66668 8.83286H2.66668C2.39068 8.83286 2.16668 9.05686 2.16668 9.33286C2.16668 9.60886 2.39068 9.83286 2.66668 9.83286H5.45933L1.64601 13.6462C1.45068 13.8415 1.45068 14.1582 1.64601 14.3535C1.74335 14.4509 1.87136 14.5002 1.99936 14.5002C2.12736 14.5002 2.25538 14.4515 2.35272 14.3535L6.16603 10.5402V13.3329C6.16603 13.6089 6.39003 13.8329 6.66603 13.8329C6.94203 13.8329 7.16603 13.6089 7.16603 13.3329V9.33286C7.16603 9.26753 7.15263 9.20279 7.12729 9.14145C7.07729 9.01945 6.98009 8.92226 6.85809 8.8716Z" fill="#3B3B3E"/>
</svg>
