<svg width="16" height="16" viewBox="0 0 16 16" fill="none" xmlns="http://www.w3.org/2000/svg">
<path d="M5.16667 8C5.16667 8.276 4.94267 8.5 4.66667 8.5C4.39067 8.5 4.16667 8.276 4.16667 8C4.16667 7.724 4.39067 7.5 4.66667 7.5C4.94267 7.5 5.16667 7.724 5.16667 8ZM4.66667 10.1667C4.39067 10.1667 4.16667 10.3907 4.16667 10.6667C4.16667 10.9427 4.39067 11.1667 4.66667 11.1667C4.94267 11.1667 5.16667 10.9427 5.16667 10.6667C5.16667 10.3907 4.94267 10.1667 4.66667 10.1667ZM6.33333 7.5C6.05733 7.5 5.83333 7.724 5.83333 8C5.83333 8.276 6.05733 8.5 6.33333 8.5H9.33333C9.60933 8.5 9.83333 8.276 9.83333 8C9.83333 7.724 9.60933 7.5 9.33333 7.5H6.33333ZM7.33333 10.1667H6.33333C6.05733 10.1667 5.83333 10.3907 5.83333 10.6667C5.83333 10.9427 6.05733 11.1667 6.33333 11.1667H7.33333C7.60933 11.1667 7.83333 10.9427 7.83333 10.6667C7.83333 10.3907 7.60933 10.1667 7.33333 10.1667ZM14.266 12.5847L13.5213 13.2953L13.6899 14.2613C13.7413 14.5507 13.6247 14.8393 13.3874 15.014C13.25 15.1153 13.0886 15.1667 12.9253 15.1667C12.8033 15.1667 12.6807 15.138 12.5674 15.0793L11.6667 14.616L10.7666 15.0787C10.5019 15.216 10.1866 15.19 9.94596 15.0133C9.70863 14.838 9.59273 14.5493 9.64339 14.26L9.81201 13.2947L9.06738 12.584C8.85738 12.3827 8.78062 12.0867 8.86995 11.8107C8.95929 11.5327 9.19467 11.334 9.486 11.2927L10.5254 11.1447L10.9714 10.2593C11.104 9.99601 11.3713 9.83266 11.6673 9.83266C11.9633 9.83266 12.2306 9.99601 12.3633 10.2593L12.8094 11.1447L13.8486 11.2927C14.14 11.334 14.3753 11.5327 14.4647 11.8107C14.5527 12.0873 14.4766 12.384 14.266 12.5847ZM13.208 12.2127L12.5454 12.118C12.3001 12.0833 12.0866 11.9313 11.9746 11.7113L11.6673 11.102L11.3613 11.7093C11.2473 11.9313 11.0347 12.084 10.7894 12.1187L10.1266 12.2133L10.5986 12.664C10.7806 12.8387 10.8633 13.09 10.8213 13.3367L10.7074 13.9867L11.3187 13.6727C11.428 13.6167 11.548 13.5887 11.6673 13.5887C11.7867 13.5887 11.9073 13.6167 12.0166 13.6733L12.6273 13.9873L12.514 13.338C12.4713 13.09 12.554 12.8387 12.7354 12.6647L13.208 12.2127ZM7.83333 14C7.83333 14.276 7.60933 14.5 7.33333 14.5H4C2.388 14.5 1.5 13.612 1.5 12V4C1.5 2.388 2.388 1.5 4 1.5H8C8.13267 1.5 8.26002 1.55267 8.35335 1.64667L12.3534 5.64667C12.4474 5.74067 12.5 5.86733 12.5 6V8C12.5 8.276 12.276 8.5 12 8.5C11.724 8.5 11.5 8.276 11.5 8V6.5H10C8.388 6.5 7.5 5.612 7.5 4V2.5H4C2.94867 2.5 2.5 2.94867 2.5 4V12C2.5 13.0513 2.94867 13.5 4 13.5H7.33333C7.60933 13.5 7.83333 13.724 7.83333 14ZM10 5.5H10.7926L8.5 3.20734V4C8.5 5.05133 8.94867 5.5 10 5.5Z" fill="#3B3B3E"/>
</svg>
