<svg width="16" height="16" viewBox="0 0 16 16" fill="none" xmlns="http://www.w3.org/2000/svg">
<path d="M8.00004 15.1663C4.04804 15.1663 0.833374 11.951 0.833374 7.99967C0.833374 4.04834 4.04804 0.833008 8.00004 0.833008C11.952 0.833008 15.1667 4.04834 15.1667 7.99967C15.1667 11.951 11.952 15.1663 8.00004 15.1663ZM8.00004 1.83301C4.59937 1.83301 1.83337 4.59901 1.83337 7.99967C1.83337 11.4003 4.59937 14.1663 8.00004 14.1663C11.4007 14.1663 14.1667 11.4003 14.1667 7.99967C14.1667 4.59901 11.4007 1.83301 8.00004 1.83301ZM8.00004 11.833C7.92937 11.833 7.85868 11.8183 7.79268 11.7883C7.67268 11.7337 4.85005 10.4243 4.39205 8.06368C4.21072 7.12835 4.39737 6.20902 4.8927 5.60502C5.30403 5.10369 5.89207 4.83634 6.59273 4.83301C6.59673 4.83301 6.60006 4.83301 6.60339 4.83301C7.25739 4.83301 7.70604 5.12967 8.00004 5.44967C8.29337 5.12967 8.74202 4.83301 9.39669 4.83301C9.40002 4.83301 9.40335 4.83301 9.40735 4.83301C10.1087 4.83634 10.6967 5.10301 11.1074 5.60368C11.61 6.21568 11.792 7.11232 11.608 8.06299C11.15 10.4243 8.3274 11.7337 8.2074 11.7877C8.1414 11.8183 8.07071 11.833 8.00004 11.833ZM6.60274 5.83301C6.60074 5.83301 6.59936 5.83301 6.59802 5.83301C6.19869 5.83501 5.88606 5.97168 5.66606 6.23901C5.35806 6.61501 5.24873 7.22569 5.37406 7.87235C5.67206 9.41035 7.39606 10.4517 7.99939 10.773C8.60139 10.4503 10.3287 9.40434 10.6254 7.87301C10.7507 7.22501 10.6414 6.61432 10.3334 6.23832C10.114 5.97165 9.80074 5.83501 9.40141 5.83301C9.40007 5.83301 9.39802 5.83301 9.39669 5.83301C8.73269 5.83301 8.48336 6.52035 8.4727 6.54968C8.40203 6.75035 8.21204 6.88566 8.00004 6.88566C7.99871 6.88566 7.99739 6.88566 7.99605 6.88566C7.78205 6.88366 7.5927 6.74832 7.5247 6.54565C7.51603 6.52032 7.26674 5.83301 6.60274 5.83301ZM11.1167 7.96769H11.1234H11.1167Z" fill="#3B3B3E"/>
</svg>
