<svg width="16" height="16" viewBox="0 0 16 16" fill="none" xmlns="http://www.w3.org/2000/svg">
<path d="M13.6866 5.64667L9.68661 1.64667C9.59261 1.55267 9.46592 1.5 9.33325 1.5H5.33325C3.72125 1.5 2.83325 2.388 2.83325 4V12C2.83325 13.612 3.72125 14.5 5.33325 14.5H11.3333C12.9453 14.5 13.8333 13.612 13.8333 12V6C13.8333 5.86733 13.7806 5.74 13.6866 5.64667ZM9.83325 3.20734L12.1259 5.5H11.3333C10.2819 5.5 9.83325 5.05133 9.83325 4V3.20734ZM11.3333 13.5H5.33325C4.28192 13.5 3.83325 13.0513 3.83325 12V4C3.83325 2.94867 4.28192 2.5 5.33325 2.5H8.83325V4C8.83325 5.612 9.72125 6.5 11.3333 6.5H12.8333V12C12.8333 13.0513 12.3846 13.5 11.3333 13.5ZM10.7112 6.668C10.4858 6.498 10.1806 6.45667 9.85392 6.548L8.47795 6.93466C8.01128 7.07066 7.6853 7.50333 7.6853 7.98666V9.86134C7.51797 9.79801 7.33785 9.75934 7.14852 9.75934C6.30119 9.75934 5.61125 10.4487 5.61125 11.2967C5.61125 12.1447 6.30052 12.834 7.14852 12.834C7.99585 12.834 8.6853 12.1447 8.6853 11.2967V9.66667C8.6853 9.58 8.73117 9.52333 8.75317 9.51733L10.3639 9.06733C10.7845 8.95067 11.0559 8.60934 11.0559 8.19734V7.45667C11.0552 7.02 10.8685 6.78733 10.7112 6.668ZM7.14852 11.8333C6.85252 11.8333 6.61125 11.5927 6.61125 11.296C6.61125 10.9993 6.85185 10.7587 7.14852 10.7587C7.44385 10.7587 7.6853 10.9993 7.6853 11.296C7.6853 11.5927 7.44385 11.8333 7.14852 11.8333ZM10.0553 8.11466L8.68465 8.49734V7.986C8.68465 7.944 8.71384 7.90666 8.75317 7.896L10.0553 7.536V8.11466Z" fill="#3B3B3E"/>
</svg>
