<svg width="16" height="16" viewBox="0 0 16 16" fill="none" xmlns="http://www.w3.org/2000/svg">
<path d="M6.98699 8.78017C6.98699 9.5135 6.45364 10.1135 5.78697 10.1135C5.12031 10.1135 4.58698 9.5135 4.58698 8.78017C4.58698 8.04683 5.11364 7.44683 5.78697 7.44683C6.46031 7.44683 7.00032 8.04683 6.98699 8.78017ZM10.2137 7.44683C9.54032 7.44683 9.01364 8.04683 9.01364 8.78017C9.01364 9.5135 9.55365 10.1135 10.2137 10.1135C10.8737 10.1135 11.4136 9.5135 11.4136 8.78017C11.427 8.04683 10.8803 7.44683 10.2137 7.44683ZM15.1003 11.7135C15.087 11.8535 15.0136 11.9868 14.8936 12.0668C13.807 12.8535 12.6536 13.4202 11.367 13.8135C11.3203 13.8268 11.267 13.8335 11.2203 13.8335C11.067 13.8335 10.9137 13.7602 10.8203 13.6335C10.527 13.2335 10.267 12.8268 10.0603 12.4135C8.70031 12.7535 7.29366 12.7535 5.92699 12.4135C5.70699 12.8535 5.44697 13.2668 5.16031 13.6402C5.03364 13.8068 4.82032 13.8802 4.61365 13.8135C3.34699 13.4268 2.19365 12.8602 1.08698 12.0668C0.966982 11.9802 0.893651 11.8535 0.880317 11.7068C0.613651 8.87349 1.28697 6.31348 2.95364 3.88682C3.00697 3.81348 3.07364 3.7535 3.16031 3.7135C4.07364 3.2935 5.04031 3.00016 6.04031 2.83349C6.25364 2.80016 6.46031 2.90016 6.56031 3.08683C6.64031 3.2335 6.71365 3.36682 6.77365 3.49349C7.58698 3.40682 8.40698 3.40682 9.22698 3.49349C9.29364 3.35349 9.37365 3.20682 9.44699 3.08016C9.55365 2.90016 9.75365 2.80683 9.96031 2.84017C10.947 3.00683 11.9137 3.30015 12.8403 3.72015C12.9203 3.76015 12.9937 3.81349 13.047 3.89349C14.7003 6.27349 15.3936 8.90683 15.107 11.7135H15.1003ZM12.2936 4.57348C11.6003 4.26682 10.8736 4.04016 10.1403 3.89349C10.0803 4.01349 10.027 4.12682 9.99364 4.22682C9.90697 4.44016 9.68698 4.57349 9.46031 4.54016C8.48698 4.40016 7.50031 4.40016 6.54031 4.54016C6.30698 4.57349 6.08698 4.44682 6.00031 4.22682C5.96698 4.14016 5.91364 4.02682 5.84697 3.89349C5.10697 4.04016 4.38697 4.27348 3.7003 4.57348C2.27364 6.70015 1.67365 8.92682 1.86032 11.3868C2.72032 11.9735 3.60698 12.4268 4.56698 12.7468C4.64032 12.6402 4.70698 12.5402 4.77365 12.4268C4.54698 12.3202 4.32032 12.2002 4.09366 12.0668C3.95366 11.9802 3.86031 11.8335 3.84697 11.6668C3.84031 11.5002 3.90698 11.3401 4.04031 11.2401L4.11365 11.1868C4.17365 11.1402 4.24031 11.0935 4.29365 11.0468C4.44031 10.9202 4.64697 10.8935 4.82697 10.9735C6.88031 11.9002 9.12697 11.9002 11.1603 10.9735C11.3336 10.8935 11.547 10.9202 11.6937 11.0468C11.767 11.1135 11.8536 11.1735 11.9336 11.2335C12.0736 11.3335 12.147 11.4935 12.1403 11.6602C12.1336 11.8268 12.0403 11.9802 11.8936 12.0668C11.6736 12.2002 11.447 12.3202 11.207 12.4268C11.2736 12.5335 11.3403 12.6402 11.4136 12.7468C12.387 12.4202 13.2736 11.9735 14.1203 11.3868C14.3203 8.92015 13.7203 6.68682 12.2936 4.57348Z" fill="#3B3B3E"/>
</svg>
