<svg width="16" height="16" viewBox="0 0 16 16" fill="none" xmlns="http://www.w3.org/2000/svg">
<path d="M12.0001 4.16699H8.87411L7.02075 2.31366C6.92675 2.21966 6.80007 2.16699 6.6674 2.16699H4.00073C2.38873 2.16699 1.50073 3.05499 1.50073 4.66699V11.3337C1.50073 12.9457 2.38873 13.8337 4.00073 13.8337H12.0007C13.6127 13.8337 14.5007 12.9457 14.5007 11.3337V6.66699C14.5001 5.05499 13.6121 4.16699 12.0001 4.16699ZM13.5001 11.3337C13.5001 12.385 13.0514 12.8337 12.0001 12.8337H4.00008C2.94875 12.8337 2.50008 12.385 2.50008 11.3337V4.66699C2.50008 3.61566 2.94875 3.16699 4.00008 3.16699H6.45939L8.31274 5.02032C8.40674 5.11432 8.53343 5.16699 8.6661 5.16699H11.9994C13.0508 5.16699 13.4994 5.61566 13.4994 6.66699V11.3337H13.5001ZM9.68677 8.02032L8.70679 9.00033L9.68677 9.98033C9.8821 10.1757 9.8821 10.4923 9.68677 10.6877C9.58943 10.785 9.46141 10.8343 9.33341 10.8343C9.20541 10.8343 9.0774 10.7857 8.98006 10.6877L8.00008 9.70766L7.0201 10.6877C6.92277 10.785 6.79475 10.8343 6.66675 10.8343C6.53875 10.8343 6.41073 10.7857 6.3134 10.6877C6.11806 10.4923 6.11806 10.1757 6.3134 9.98033L7.29338 9.00033L6.3134 8.02032C6.11806 7.82499 6.11806 7.50832 6.3134 7.31299C6.50873 7.11766 6.82542 7.11766 7.02075 7.31299L8.00073 8.29299L8.98071 7.31299C9.17605 7.11766 9.49274 7.11766 9.68807 7.31299C9.88207 7.50832 9.8821 7.82566 9.68677 8.02032Z" fill="#3B3B3E"/>
</svg>
