<svg width="16" height="16" viewBox="0 0 16 16" fill="none" xmlns="http://www.w3.org/2000/svg">
<path d="M14.5 11.3333V9.33333C14.5 8.51333 14.2667 7.88667 13.8333 7.46V4C13.8333 2.38667 12.9467 1.5 11.3333 1.5H4.66667C3.05333 1.5 2.16667 2.38667 2.16667 4V7.46C1.73333 7.88667 1.5 8.51333 1.5 9.33333V11.3333V13V14C1.5 14.2733 1.72667 14.5 2 14.5C2.27333 14.5 2.5 14.2733 2.5 14V13.5H13.5V14C13.5 14.2733 13.7267 14.5 14 14.5C14.2733 14.5 14.5 14.2733 14.5 14V11.3333ZM3.16667 4C3.16667 2.94667 3.61333 2.5 4.66667 2.5H11.3333C12.3867 2.5 12.8333 2.94667 12.8333 4V6.94C12.7267 6.91334 12.62 6.88667 12.5 6.87333V5.24C12.5 4.46667 11.8267 3.84 11 3.84H9C8.61333 3.84 8.26667 3.98 8 4.20667C7.73333 3.98 7.38667 3.84 7 3.84H5C4.17333 3.84 3.5 4.46667 3.5 5.24V6.87333C3.38 6.88667 3.27333 6.91334 3.16667 6.94V4ZM11.5 5.23334V6.83333H8.5V5.23334C8.5 5.01334 8.72667 4.83333 9 4.83333H11C11.2733 4.83333 11.5 5.01334 11.5 5.23334ZM7.5 5.23334V6.83333H4.5V5.23334C4.5 5.01334 4.72667 4.83333 5 4.83333H7C7.27333 4.83333 7.5 5.01334 7.5 5.23334ZM2.5 10.8333V9.33333C2.5 8.28 2.94667 7.83333 4 7.83333H12C13.0533 7.83333 13.5 8.28 13.5 9.33333V10.8333H2.5ZM13.5 12.5H2.5V11.8333H13.5V12.5Z" fill="#3B3B3E"/>
</svg>
