<svg width="16" height="16" viewBox="0 0 16 16" fill="none" xmlns="http://www.w3.org/2000/svg">
<path d="M14.3181 6.05619L9.37667 1.99223C8.57867 1.33756 7.42207 1.33689 6.62407 1.99223L1.68274 6.05554C1.47008 6.23087 1.43872 6.54556 1.61406 6.75956C1.78939 6.97356 2.10474 7.00291 2.31808 6.82825L2.83338 6.40425V11.9995C2.83338 13.6115 3.72138 14.4996 5.33338 14.4996H10.6667C12.2787 14.4996 13.1667 13.6115 13.1667 11.9995V6.40425L13.682 6.82825C13.7753 6.90491 13.888 6.94218 14 6.94218C14.144 6.94218 14.2874 6.88021 14.386 6.76021C14.562 6.54621 14.5307 6.23152 14.3181 6.05619ZM12.1667 11.9995C12.1667 13.0509 11.718 13.4996 10.6667 13.4996H5.33338C4.28204 13.4996 3.83338 13.0509 3.83338 11.9995V5.58223L7.2594 2.76558C7.68807 2.41292 8.31275 2.41292 8.74142 2.76558L12.1674 5.58288V11.9995H12.1667ZM9.12805 8.21163L10.1667 9.2502V8.79089C10.1667 8.51489 10.3907 8.29089 10.6667 8.29089C10.9427 8.29089 11.1667 8.51489 11.1667 8.79089V10.4576C11.1667 10.5229 11.1534 10.5876 11.1281 10.649C11.0774 10.771 10.98 10.8682 10.858 10.9188C10.7967 10.9442 10.732 10.9576 10.6667 10.9576H9.00004C8.72404 10.9576 8.50004 10.7336 8.50004 10.4576C8.50004 10.1816 8.72404 9.95756 9.00004 9.95756H9.45935L8.4207 8.91882L7.69007 9.70495C7.32807 10.067 6.69469 10.0683 6.33069 9.70495L4.98002 8.35355C4.78469 8.15822 4.78469 7.84153 4.98002 7.6462C5.17536 7.45086 5.49205 7.45086 5.68738 7.6462L7.0387 8.9976L7.76941 8.21163C8.13208 7.84829 8.76472 7.84829 9.12805 8.21163Z" fill="#3B3B3E"/>
</svg>
