<svg width="16" height="16" viewBox="0 0 16 16" fill="none" xmlns="http://www.w3.org/2000/svg">
<path d="M12.4585 15.166H3.53593C2.57659 15.166 1.70992 14.6754 1.21659 13.8534C0.725258 13.0334 0.701161 12.0407 1.15116 11.1981L5.55513 2.96143C6.0438 2.04609 6.95722 1.5 7.99589 1.5C9.03455 1.5 9.94781 2.04609 10.4365 2.96143L14.8405 11.1981C15.2918 12.0407 15.2678 13.0334 14.7758 13.8534C14.2858 14.6754 13.4185 15.166 12.4585 15.166ZM7.99719 2.49935C7.33319 2.49935 6.75045 2.84797 6.43778 3.43197L2.03381 11.6686C1.75048 12.1986 1.76649 12.8227 2.07515 13.3387C2.38582 13.8567 2.93191 14.1654 3.53658 14.1654H12.4593C13.0639 14.1654 13.6105 13.856 13.9205 13.3387C14.2292 12.8234 14.2439 12.1993 13.9612 11.6686L9.55725 3.43197C9.24392 2.84797 8.66119 2.49935 7.99719 2.49935ZM8.49719 9.33268V6.66602C8.49719 6.39002 8.27319 6.16602 7.99719 6.16602C7.72119 6.16602 7.49719 6.39002 7.49719 6.66602V9.33268C7.49719 9.60868 7.72119 9.83268 7.99719 9.83268C8.27319 9.83268 8.49719 9.60868 8.49719 9.33268ZM8.6772 11.3327C8.6772 10.9647 8.3792 10.666 8.01054 10.666H8.00386C7.63586 10.666 7.34045 10.9647 7.34045 11.3327C7.34045 11.7007 7.64254 11.9993 8.01054 11.9993C8.37854 11.9993 8.6772 11.7007 8.6772 11.3327Z" fill="#3B3B3E"/>
</svg>
