<svg width="16" height="16" viewBox="0 0 16 16" fill="none" xmlns="http://www.w3.org/2000/svg">
<path d="M8.49985 6.27897C8.49985 6.55497 8.27585 6.77897 7.99985 6.77897C7.10719 6.77897 6.38183 7.44763 6.31317 8.33496C6.2925 8.59696 6.07379 8.79639 5.81512 8.79639C5.80179 8.79639 5.78924 8.79642 5.77524 8.79508C5.50058 8.77375 5.29393 8.53298 5.31593 8.25765C5.42393 6.86765 6.60319 5.77897 7.99985 5.77897C8.27585 5.77897 8.49985 6.00297 8.49985 6.27897ZM13.8332 13.6657V14.6663C13.8332 14.9423 13.6092 15.1663 13.3332 15.1663H2.66652C2.39052 15.1663 2.16652 14.9423 2.16652 14.6663V13.6663C2.16652 13.0763 2.51183 12.5703 3.00783 12.3257V9.13363C3.00783 5.76363 5.01452 3.49967 7.99985 3.49967C10.9852 3.49967 12.9919 5.76363 12.9919 9.13363V12.3257C13.4879 12.5697 13.8332 13.0764 13.8332 13.6657ZM4.00783 12.1663H11.9925V9.13363C11.9925 6.31896 10.4252 4.49967 8.0005 4.49967C5.57584 4.49967 4.00848 6.31896 4.00848 9.13363V12.1663H4.00783ZM12.8332 13.6657C12.8332 13.3904 12.6092 13.1663 12.3338 13.1663H3.66652C3.39119 13.1663 3.16652 13.3903 3.16652 13.6663V14.1663H12.8332V13.6657ZM7.99985 2.83301C8.27585 2.83301 8.49985 2.60901 8.49985 2.33301V1.33301C8.49985 1.05701 8.27585 0.833008 7.99985 0.833008C7.72385 0.833008 7.49985 1.05701 7.49985 1.33301V2.33301C7.49985 2.60901 7.72385 2.83301 7.99985 2.83301ZM12.3332 4.16634C12.4612 4.16634 12.5892 4.11769 12.6865 4.01969L13.6865 3.01969C13.8819 2.82436 13.8819 2.50767 13.6865 2.31234C13.4912 2.117 13.1745 2.117 12.9792 2.31234L11.9792 3.31234C11.7838 3.50767 11.7838 3.82436 11.9792 4.01969C12.0772 4.11769 12.2052 4.16634 12.3332 4.16634ZM3.31317 4.01969C3.4105 4.11703 3.53852 4.16634 3.66652 4.16634C3.79452 4.16634 3.92254 4.11769 4.01987 4.01969C4.21521 3.82436 4.21521 3.50767 4.01987 3.31234L3.01987 2.31234C2.82454 2.117 2.50785 2.117 2.31252 2.31234C2.11718 2.50767 2.11718 2.82436 2.31252 3.01969L3.31317 4.01969Z" fill="#3B3B3E"/>
</svg>
