<svg width="16" height="16" viewBox="0 0 16 16" fill="none" xmlns="http://www.w3.org/2000/svg">
<path d="M8 15.1669C7.94667 15.1669 7.89329 15.1582 7.84196 15.1409C6.78263 14.7875 1.5 12.7482 1.5 7.25887V3.33357C1.5 3.09557 1.66802 2.8895 1.90202 2.8435C5.15535 2.19283 6.3087 1.6209 7.76937 0.896236C7.91004 0.826236 8.09664 0.816958 8.2373 0.886958C9.67797 1.61296 10.816 2.18683 14.0986 2.8435C14.3326 2.89017 14.5007 3.09557 14.5007 3.33357V7.25952C14.5007 12.7488 9.21802 14.7882 8.15869 15.1415C8.10669 15.1582 8.05333 15.1669 8 15.1669ZM2.5 3.74161V7.25887C2.5 11.8355 6.77867 13.699 8 14.137C9.22133 13.699 13.5 11.8349 13.5 7.25887V3.74161C10.5527 3.12495 9.31326 2.54617 8.00993 1.89217C6.62526 2.57683 5.42333 3.13095 2.5 3.74161ZM7.08659 10.6682C6.87659 10.6682 6.66599 10.6143 6.47266 10.5056C6.07199 10.2816 5.83333 9.8736 5.83333 9.4156V6.41821C5.83333 5.95954 6.07199 5.5522 6.47266 5.3282C6.87466 5.10287 7.34807 5.11294 7.74007 5.35294L10.2593 6.89428C10.6179 7.11428 10.8327 7.49624 10.8327 7.91691C10.8327 8.33757 10.6186 8.72018 10.2593 8.94018L7.74007 10.4815C7.53741 10.6055 7.31192 10.6682 7.08659 10.6682ZM7.0874 6.16691C7.03007 6.16691 6.98474 6.18761 6.96208 6.20027C6.92341 6.22161 6.83398 6.28621 6.83398 6.41821V9.4156C6.83398 9.5476 6.92408 9.61154 6.96208 9.63354C7.00141 9.65554 7.10592 9.69832 7.21859 9.62898L9.73796 8.08764C9.82129 8.03631 9.83398 7.95891 9.83398 7.91691C9.83398 7.87557 9.82129 7.79832 9.73796 7.74698L7.21859 6.20564C7.17125 6.17698 7.12607 6.16691 7.0874 6.16691Z" fill="#3B3B3E"/>
</svg>
