<svg width="16" height="16" viewBox="0 0 16 16" fill="none" xmlns="http://www.w3.org/2000/svg">
<path d="M6.31658 8.56824C6.56391 9.97291 7.34656 10.6996 8.59523 10.6996C8.80656 10.6996 9.03195 10.6789 9.26995 10.6362L11.6926 10.2089C12.5232 10.0629 13.0986 9.74557 13.4526 9.24024C13.8066 8.73424 13.9079 8.08558 13.7612 7.25491L13.3339 4.83224C13.1872 4.00224 12.8712 3.42691 12.3652 3.07224C11.8592 2.71824 11.2106 2.61757 10.3806 2.76424L7.95794 3.19158C7.12794 3.33758 6.55194 3.65491 6.19728 4.16091C5.84394 4.66624 5.74259 5.31557 5.88925 6.14557L6.31658 8.56824ZM7.01661 4.73491C7.21061 4.45758 7.57529 4.27491 8.13063 4.17691L10.5532 3.74957C10.7406 3.71624 10.9113 3.70024 11.0653 3.70024C11.3679 3.70024 11.6073 3.76424 11.7913 3.89291C12.0686 4.08758 12.2506 4.45157 12.3493 5.0069L12.7766 7.42957C12.874 7.9849 12.8272 8.38957 12.6332 8.66691C12.4392 8.94424 12.0746 9.12624 11.5193 9.22491L9.09661 9.65224C7.99661 9.8449 7.49528 9.4929 7.30128 8.3949L6.87395 5.97224C6.77595 5.4169 6.82261 5.01158 7.01661 4.73491ZM13.9133 10.6949L6.99928 11.9122C6.77661 11.4229 6.34527 11.0536 5.81927 10.9076L4.43263 3.01424C4.2573 2.0209 3.29924 1.35558 2.30991 1.52825L1.9166 1.59491C1.64393 1.64091 1.46059 1.89958 1.50726 2.17158C1.55259 2.44358 1.81326 2.62558 2.08326 2.58091L2.47926 2.51358C2.93193 2.43558 3.3686 2.73691 3.44793 3.18824L4.80657 10.9209C4.05324 11.1489 3.49993 11.8416 3.49993 12.6682C3.49993 13.6796 4.32193 14.5016 5.33326 14.5016C6.26393 14.5016 7.02592 13.8022 7.14259 12.9029L14.0866 11.6809C14.3586 11.6329 14.5406 11.3736 14.492 11.1016C14.4446 10.8282 14.1859 10.6462 13.9133 10.6949ZM5.33326 13.5002C4.87393 13.5002 4.49993 13.1262 4.49993 12.6669C4.49993 12.2076 4.87393 11.8336 5.33326 11.8336C5.7926 11.8336 6.1666 12.2076 6.1666 12.6669C6.1666 13.1262 5.7926 13.5002 5.33326 13.5002Z" fill="#3B3B3E"/>
</svg>
