<svg width="16" height="16" viewBox="0 0 16 16" fill="none" xmlns="http://www.w3.org/2000/svg">
<path d="M14.5 7.33333C14.5 9.15133 13.2093 10.7313 11.432 11.09C11.3986 11.0967 11.3653 11.1 11.3327 11.1C11.0993 11.1 10.8913 10.936 10.8433 10.6986C10.7886 10.428 10.964 10.164 11.2347 10.11C12.548 9.84532 13.5 8.67733 13.5 7.33333C13.5 5.77067 12.2293 4.5 10.6667 4.5C10.478 4.5 10.2966 4.51668 10.1126 4.55135C9.9093 4.59002 9.70338 4.49867 9.59538 4.32267C9.40071 4.00867 9.15338 3.71532 8.85938 3.45199C8.16738 2.83865 7.26933 2.5 6.33333 2.5C4.21933 2.5 2.5 4.21933 2.5 6.33333C2.5 7.88533 3.42604 9.27399 4.85938 9.87199C5.11404 9.97799 5.23393 10.2713 5.12793 10.526C5.02126 10.7813 4.72729 10.9007 4.47396 10.7947C2.66729 10.0413 1.5 8.29 1.5 6.33333C1.5 3.668 3.668 1.5 6.33333 1.5C7.514 1.5 8.64807 1.92801 9.52474 2.70601C9.80474 2.95668 10.0507 3.22934 10.2607 3.52067C10.3947 3.50667 10.5293 3.5 10.6667 3.5C12.7807 3.5 14.5 5.21933 14.5 7.33333ZM8.354 6.97998C8.308 6.93398 8.25274 6.89732 8.19141 6.87199C8.06941 6.82132 7.93141 6.82132 7.80941 6.87199C7.74807 6.89732 7.69265 6.93398 7.64665 6.97998L6.31331 8.31331C6.11798 8.50865 6.11798 8.82534 6.31331 9.02067C6.50865 9.216 6.82534 9.216 7.02067 9.02067L7.50065 8.54065V14C7.50065 14.276 7.72465 14.5 8.00065 14.5C8.27665 14.5 8.50065 14.276 8.50065 14V8.54065L8.98063 9.02067C9.07797 9.118 9.20598 9.16732 9.33398 9.16732C9.46198 9.16732 9.59 9.11867 9.68734 9.02067C9.88267 8.82534 9.88267 8.50865 9.68734 8.31331L8.354 6.97998Z" fill="#3B3B3E"/>
</svg>
