<svg width="16" height="16" viewBox="0 0 16 16" fill="none" xmlns="http://www.w3.org/2000/svg">
<path d="M14.3534 7.64665C14.5487 7.84198 14.5487 8.15867 14.3534 8.354C14.256 8.45134 14.128 8.50065 14 8.50065C13.872 8.50065 13.744 8.452 13.6466 8.354L12.6667 7.37402L11.6867 8.354C11.5894 8.45134 11.4613 8.50065 11.3333 8.50065C11.2053 8.50065 11.0773 8.452 10.98 8.354C10.7846 8.15867 10.7846 7.84198 10.98 7.64665L11.96 6.66667L10.98 5.68669C10.7846 5.49135 10.7846 5.17466 10.98 4.97933C11.1753 4.784 11.492 4.784 11.6873 4.97933L12.6673 5.95931L13.6473 4.97933C13.8426 4.784 14.1593 4.784 14.3547 4.97933C14.55 5.17466 14.55 5.49135 14.3547 5.68669L13.3747 6.66667L14.3534 7.64665ZM3.83936 4.33333C3.83936 2.77133 5.11002 1.5 6.67269 1.5C8.23536 1.5 9.50602 2.77133 9.50602 4.33333C9.50602 5.89533 8.23536 7.16667 6.67269 7.16667C5.11002 7.16667 3.83936 5.89533 3.83936 4.33333ZM4.83936 4.33333C4.83936 5.34467 5.66136 6.16667 6.67269 6.16667C7.68402 6.16667 8.50602 5.34467 8.50602 4.33333C8.50602 3.322 7.68402 2.5 6.67269 2.5C5.66136 2.5 4.83936 3.322 4.83936 4.33333ZM8 8.16667H5.33333C2.504 8.16667 1.5 10.238 1.5 12.0127V14C1.5 14.276 1.724 14.5 2 14.5C2.276 14.5 2.5 14.276 2.5 14V12.0127C2.5 11.3454 2.70467 9.16667 5.33333 9.16667H8C10.6287 9.16667 10.8333 11.3447 10.8333 12.0127V14C10.8333 14.276 11.0573 14.5 11.3333 14.5C11.6093 14.5 11.8333 14.276 11.8333 14V12.0127C11.8333 10.238 10.8293 8.16667 8 8.16667Z" fill="#3B3B3E"/>
</svg>
