<svg width="16" height="16" viewBox="0 0 16 16" fill="none" xmlns="http://www.w3.org/2000/svg">
<path d="M11.6667 14.5H4.16675C2.39341 14.5 1.41675 13.5233 1.41675 11.75V4.25C1.41675 2.47667 2.39341 1.5 4.16675 1.5H11.6667C13.4401 1.5 14.4167 2.47667 14.4167 4.25V11.75C14.4167 13.5233 13.4401 14.5 11.6667 14.5ZM4.16675 2.5C2.94008 2.5 2.41675 3.02333 2.41675 4.25V11.75C2.41675 12.9767 2.94008 13.5 4.16675 13.5H11.6667C12.8934 13.5 13.4167 12.9767 13.4167 11.75V4.25C13.4167 3.02333 12.8934 2.5 11.6667 2.5H4.16675ZM10.4167 12.5H5.41675C4.14608 12.5 3.41675 11.7713 3.41675 10.5V5.5C3.41675 4.22867 4.14608 3.5 5.41675 3.5H10.4167C11.6874 3.5 12.4167 4.22867 12.4167 5.5V10.5C12.4167 11.7713 11.6874 12.5 10.4167 12.5ZM5.41675 4.5C4.69741 4.5 4.41675 4.78 4.41675 5.5V10.5C4.41675 11.22 4.69741 11.5 5.41675 11.5H10.4167C11.1361 11.5 11.4167 11.22 11.4167 10.5V5.5C11.4167 4.78 11.1361 4.5 10.4167 4.5H5.41675Z" fill="#3B3B3E"/>
</svg>
