<svg width="16" height="16" viewBox="0 0 16 16" fill="none" xmlns="http://www.w3.org/2000/svg">
<g clip-path="url(#clip0_36251_7357)">
<path d="M6.67269 7.16667C8.23536 7.16667 9.50602 5.89533 9.50602 4.33333C9.50602 2.77133 8.23536 1.5 6.67269 1.5C5.11002 1.5 3.83936 2.77133 3.83936 4.33333C3.83936 5.89533 5.11002 7.16667 6.67269 7.16667ZM6.67269 2.5C7.68402 2.5 8.50602 3.322 8.50602 4.33333C8.50602 5.34467 7.68402 6.16667 6.67269 6.16667C5.66136 6.16667 4.83936 5.34467 4.83936 4.33333C4.83936 3.322 5.66136 2.5 6.67269 2.5ZM8.58732 9.20671C8.41932 9.17937 8.22733 9.16667 8 9.16667H5.33333C2.70467 9.16667 2.5 11.346 2.5 12.0133C2.5 13.0553 2.94867 13.5 4 13.5H7.33333C7.60933 13.5 7.83333 13.724 7.83333 14C7.83333 14.276 7.60933 14.5 7.33333 14.5H4C2.388 14.5 1.5 13.6167 1.5 12.0133C1.5 10.2387 2.504 8.16667 5.33333 8.16667H8C8.28067 8.16667 8.52468 8.18397 8.74601 8.21997C9.01868 8.2633 9.20466 8.51998 9.15999 8.79264C9.11666 9.06531 8.85132 9.25004 8.58732 9.20671ZM12 8.83333C10.254 8.83333 8.83333 10.254 8.83333 12C8.83333 13.746 10.254 15.1667 12 15.1667C13.746 15.1667 15.1667 13.746 15.1667 12C15.1667 10.254 13.746 8.83333 12 8.83333ZM12 9.83333C12.416 9.83333 12.8013 9.9573 13.132 10.1613L10.1613 13.132C9.9573 12.8013 9.83333 12.4167 9.83333 12C9.83333 10.8053 10.8053 9.83333 12 9.83333ZM12 14.1667C11.584 14.1667 11.1987 14.0427 10.868 13.8387L13.8387 10.868C14.0427 11.1987 14.1667 11.5833 14.1667 12C14.1667 13.1947 13.1947 14.1667 12 14.1667Z" fill="#3B3B3E"/>
</g>
<defs>
<clipPath id="clip0_36251_7357">
<rect width="16" height="16" fill="white"/>
</clipPath>
</defs>
</svg>
