<svg width="16" height="16" viewBox="0 0 16 16" fill="none" xmlns="http://www.w3.org/2000/svg">
<path d="M10.4312 5.44401C10.2679 5.35801 10.1666 5.19064 10.1666 5.00798V2.5H10.6666C10.9426 2.5 11.1666 2.276 11.1666 2C11.1666 1.724 10.9426 1.5 10.6666 1.5H5.33325C5.05725 1.5 4.83325 1.724 4.83325 2C4.83325 2.276 5.05725 2.5 5.33325 2.5H5.83325V5.00798C5.83325 5.19064 5.73195 5.35799 5.56795 5.44466C3.88129 6.33866 2.83325 8.084 2.83325 10C2.83325 11.4287 3.40259 12.756 4.43392 13.738L4.53328 13.8346C4.97062 14.26 5.27123 14.5007 6.37256 14.5007H9.62655C10.7272 14.5007 11.0286 14.26 11.4659 13.8346L11.5646 13.7386C12.5973 12.7566 13.1659 11.4287 13.1659 10.0007C13.1666 8.08332 12.1192 6.33801 10.4312 5.44401ZM6.03589 6.32796C6.52789 6.0673 6.83325 5.56198 6.83325 5.00798V2.5H9.16658V5.00798C9.16658 5.56198 9.47188 6.06796 9.96322 6.32796C11.1352 6.9493 11.9219 8.08269 12.1159 9.37402C11.5839 9.63869 10.1219 10.1681 8.22257 9.2194C6.41457 8.31473 4.90257 8.52998 4.00057 8.83398C4.30924 7.77132 5.03056 6.86063 6.03589 6.32796ZM10.8752 13.014L10.7686 13.1174C10.4659 13.4114 10.3745 13.5 9.62655 13.5H6.37256C5.62456 13.5 5.53322 13.4114 5.23055 13.1174L5.12329 13.014C4.29129 12.222 3.8326 11.1527 3.8326 10C3.8326 9.99467 3.8339 9.98937 3.8339 9.9847C4.31724 9.73137 5.81121 9.1326 7.77588 10.1139C8.74588 10.5993 9.63058 10.762 10.3819 10.762C11.1099 10.762 11.7086 10.6086 12.1413 10.4473C12.0393 11.4266 11.5992 12.3253 10.8752 13.014Z" fill="#3B3B3E"/>
</svg>
