<svg width="16" height="16" viewBox="0 0 16 16" fill="none" xmlns="http://www.w3.org/2000/svg">
<path d="M2.67002 14.4993C2.36535 14.4993 2.06947 14.3793 1.84547 14.1553C1.52947 13.84 1.4208 13.382 1.5608 12.9607L2.12135 11.2933C2.18668 11.0887 2.18076 10.8833 2.1041 10.7213C1.70943 9.87265 1.5027 8.93268 1.5027 7.99935C1.5027 4.41602 4.41806 1.5 8.0014 1.5C11.5854 1.5 14.5007 4.41535 14.5007 7.99935C14.5007 11.5833 11.5854 14.4987 8.0014 14.4987C7.06873 14.4987 6.12876 14.2913 5.28476 13.8987C5.11876 13.8193 4.91276 13.814 4.70143 13.8813L3.04209 14.4387C2.91875 14.4793 2.79335 14.4993 2.67002 14.4993ZM8.00074 2.5C4.96875 2.5 2.50205 4.96668 2.50205 7.99935C2.50205 8.78802 2.67739 9.58199 3.00872 10.2953C3.19272 10.6827 3.2167 11.1487 3.07203 11.604L2.50937 13.278C2.48137 13.3613 2.52401 13.4206 2.55201 13.4486C2.58001 13.4766 2.64007 13.5193 2.7234 13.4913L4.38877 12.932C4.85143 12.7847 5.31805 12.8073 5.71005 12.9947C6.41805 13.324 7.21208 13.4993 8.00074 13.4993C11.0334 13.4993 13.5001 11.0327 13.5001 8C13.5001 4.96733 11.0334 2.5 8.00074 2.5ZM9.52809 11.1667C9.39542 11.1667 9.26275 11.1347 9.13942 11.0707L8.00009 10.476L6.86142 11.07C6.57742 11.2187 6.23811 11.1933 5.97877 11.004C5.72011 10.8153 5.59338 10.502 5.64804 10.1873L5.86403 8.93669L4.91481 8.01868C4.69014 7.80134 4.61013 7.48198 4.7068 7.18465C4.80347 6.88665 5.05549 6.67398 5.36549 6.62931L6.68206 6.43998L7.25009 5.29801C7.39209 5.01201 7.68008 4.83333 8.00074 4.83333C8.32074 4.83333 8.60873 5.01135 8.7514 5.29801L9.31943 6.43998L10.6362 6.62931C10.9462 6.67398 11.1987 6.88665 11.2947 7.18465C11.3914 7.48198 11.3107 7.80134 11.0867 8.01868L10.1375 8.93669L10.3541 10.1887C10.4081 10.5047 10.2807 10.8167 10.0221 11.0053C9.87407 11.112 9.70209 11.1667 9.52809 11.1667ZM8.00009 9.45333C8.12943 9.45333 8.25937 9.48398 8.37737 9.54598L9.31015 10.0327L9.13274 9.00932C9.08741 8.74332 9.1754 8.47268 9.3694 8.28601L10.1148 7.56535L9.07871 7.41602C8.81471 7.37802 8.58543 7.21268 8.46543 6.97335L7.99879 6.03467L7.53281 6.972C7.41214 7.212 7.1834 7.37735 6.91806 7.41602L5.88274 7.56535L6.62884 8.28666C6.82217 8.47266 6.91084 8.74333 6.86484 9.00867L6.68743 10.032L7.62005 9.54598C7.74071 9.48398 7.87076 9.45333 8.00009 9.45333ZM5.93483 9.00533C5.93549 9.00533 5.93549 9.00533 5.93483 9.00533V9.00533ZM10.0662 9.00468C10.0655 9.00468 10.0655 9.00468 10.0662 9.00468V9.00468ZM10.4915 7.61865H10.4988H10.4915ZM7.85475 5.74268C7.85475 5.74268 7.8554 5.74335 7.8554 5.74402L7.85475 5.74268Z" fill="#3B3B3E"/>
</svg>
