<svg width="16" height="16" viewBox="0 0 16 16" fill="none" xmlns="http://www.w3.org/2000/svg">
<path d="M1.6464 5.01955C1.6004 4.97355 1.56382 4.91812 1.53849 4.85679C1.48782 4.73479 1.48782 4.59679 1.53849 4.47479C1.56382 4.41345 1.6004 4.35819 1.6464 4.31219L4.31307 1.64552C4.5084 1.45019 4.82509 1.45019 5.02042 1.64552C5.21576 1.84086 5.21576 2.15755 5.02042 2.35288L3.20711 4.16619H11.3331C11.6091 4.16619 11.8331 4.39019 11.8331 4.66619C11.8331 4.94219 11.6091 5.16619 11.3331 5.16619H3.20711L5.02042 6.97951C5.21576 7.17484 5.21576 7.49153 5.02042 7.68687C4.92309 7.7842 4.79507 7.83351 4.66707 7.83351C4.53907 7.83351 4.41105 7.78487 4.31372 7.68687L1.6464 5.01955ZM14.461 11.1415C14.4357 11.0801 14.3991 11.0249 14.3531 10.9789L11.6864 8.31219C11.4911 8.11686 11.1744 8.11686 10.9791 8.31219C10.7837 8.50752 10.7837 8.82421 10.9791 9.01955L12.7924 10.8329H4.66642C4.39042 10.8329 4.16642 11.0569 4.16642 11.3329C4.16642 11.6089 4.39042 11.8329 4.66642 11.8329H12.7924L10.9791 13.6462C10.7837 13.8415 10.7837 14.1582 10.9791 14.3535C11.0764 14.4509 11.2044 14.5002 11.3324 14.5002C11.4604 14.5002 11.5885 14.4515 11.6858 14.3535L14.3525 11.6869C14.3985 11.6409 14.435 11.5856 14.4604 11.5243C14.5117 11.4016 14.5117 11.2641 14.461 11.1415Z" fill="#3B3B3E"/>
</svg>
