<svg width="16" height="16" viewBox="0 0 16 16" fill="none" xmlns="http://www.w3.org/2000/svg">
<path d="M12 2.5H11.1667V2C11.1667 1.724 10.9427 1.5 10.6667 1.5C10.3907 1.5 10.1667 1.724 10.1667 2V2.5H5.83333V2C5.83333 1.724 5.60933 1.5 5.33333 1.5C5.05733 1.5 4.83333 1.724 4.83333 2V2.5H4C2.388 2.5 1.5 3.388 1.5 5V12C1.5 13.612 2.388 14.5 4 14.5H12C13.612 14.5 14.5 13.612 14.5 12V5C14.5 3.388 13.612 2.5 12 2.5ZM4 3.5H4.83333V4C4.83333 4.276 5.05733 4.5 5.33333 4.5C5.60933 4.5 5.83333 4.276 5.83333 4V3.5H10.1667V4C10.1667 4.276 10.3907 4.5 10.6667 4.5C10.9427 4.5 11.1667 4.276 11.1667 4V3.5H12C13.0513 3.5 13.5 3.94867 13.5 5V5.5H2.5V5C2.5 3.94867 2.94867 3.5 4 3.5ZM12 13.5H4C2.94867 13.5 2.5 13.0513 2.5 12V6.5H13.5V12C13.5 13.0513 13.0513 13.5 12 13.5ZM9.5 9.28467V8.66667C9.5 7.83933 8.82667 7.16667 8 7.16667C7.17333 7.16667 6.5 7.83933 6.5 8.66667V9.28467C6.08067 9.46933 5.83333 9.86667 5.83333 10.4167V11.5833C5.83333 12.3547 6.31267 12.8333 7.08333 12.8333H8.91667C9.68733 12.8333 10.1667 12.3547 10.1667 11.5833V10.4167C10.1667 9.86667 9.91933 9.46933 9.5 9.28467ZM8 8.16667C8.27533 8.16667 8.5 8.39067 8.5 8.66667V9.16667H7.5V8.66667C7.5 8.39067 7.72467 8.16667 8 8.16667ZM9.16667 11.5833C9.16667 11.8073 9.14133 11.8333 8.91667 11.8333H7.08333C6.85867 11.8333 6.83333 11.8073 6.83333 11.5833V10.4167C6.83333 10.23 6.85799 10.1834 6.99333 10.172C6.99599 10.172 6.998 10.1733 7 10.1733C7.00467 10.1733 7.00803 10.1707 7.0127 10.1707C7.03603 10.1694 7.054 10.1667 7.08333 10.1667H8.91667C8.946 10.1667 8.96464 10.1694 8.9873 10.1707C8.99197 10.1707 8.99533 10.1733 9 10.1733C9.00267 10.1733 9.00467 10.172 9.00667 10.172C9.14134 10.1834 9.16667 10.2307 9.16667 10.4167V11.5833Z" fill="#3B3B3E"/>
</svg>
