<svg width="16" height="16" viewBox="0 0 16 16" fill="none" xmlns="http://www.w3.org/2000/svg">
<path d="M14.3181 6.05619L9.37667 1.99223C8.57867 1.33756 7.42207 1.33689 6.62407 1.99223L1.68274 6.05554C1.47008 6.23087 1.43872 6.54556 1.61406 6.75956C1.78939 6.97356 2.10474 7.00291 2.31808 6.82825L2.83338 6.40425V11.9995C2.83338 13.6115 3.72138 14.4996 5.33338 14.4996H10.6667C12.2787 14.4996 13.1667 13.6115 13.1667 11.9995V6.40425L13.682 6.82825C13.7753 6.90491 13.888 6.94218 14 6.94218C14.144 6.94218 14.2874 6.88021 14.386 6.76021C14.562 6.54621 14.5307 6.23152 14.3181 6.05619ZM12.1667 11.9995C12.1667 13.0509 11.718 13.4996 10.6667 13.4996H5.33338C4.28204 13.4996 3.83338 13.0509 3.83338 11.9995V5.58223L7.2594 2.76558C7.68807 2.41292 8.31275 2.41292 8.74142 2.76558L12.1674 5.58288V11.9995H12.1667ZM8.66671 11.0075C8.66671 11.3755 8.36804 11.6742 8.00004 11.6742C7.63204 11.6742 7.33338 11.3755 7.33338 11.0075C7.33338 10.6395 7.63204 10.3409 8.00004 10.3409C8.36804 10.3409 8.66671 10.6395 8.66671 11.0075ZM9.8027 9.10893C10.022 9.27559 10.0654 9.58961 9.89873 9.80961C9.80006 9.93894 9.65073 10.0069 9.49939 10.0069C9.39406 10.0069 9.28806 9.97349 9.19739 9.90482C8.51139 9.38349 7.48936 9.38349 6.8027 9.90482C6.58203 10.0728 6.26936 10.029 6.10136 9.80896C5.9347 9.58896 5.97739 9.27561 6.19739 9.10827C7.23539 8.32027 8.7647 8.32026 9.8027 9.10893ZM8.00004 6.49955C9.22204 6.49955 10.4027 6.9369 11.3261 7.73157C11.5347 7.91157 11.5594 8.22755 11.3787 8.43689C11.28 8.55155 11.1407 8.61088 11 8.61088C10.884 8.61088 10.768 8.57096 10.674 8.48962C9.9327 7.85096 8.98271 7.49955 8.00004 7.49955C7.01738 7.49955 6.06805 7.85096 5.32605 8.48962C5.11739 8.66962 4.8014 8.64622 4.62073 8.43689C4.44006 8.22755 4.46472 7.91157 4.67338 7.73157C5.59738 6.9369 6.77804 6.49955 8.00004 6.49955Z" fill="#3B3B3E"/>
</svg>
