<svg width="16" height="16" viewBox="0 0 16 16" fill="none" xmlns="http://www.w3.org/2000/svg">
<path d="M5.66731 14.5003C5.19398 14.5003 4.73602 14.3483 4.35335 14.0569C3.85335 13.6756 3.55002 13.1123 3.50602 12.493C2.62202 12.433 1.89066 11.8817 1.618 11.053C1.39 10.3617 1.49666 9.6369 1.90999 9.0649C2.48866 8.2649 3.60601 7.95567 4.51334 8.33834C4.70201 8.41967 4.91604 8.37763 5.05737 8.23563L8.23331 5.05969C8.37598 4.91702 8.41135 4.69698 8.32535 4.48498C8.12802 3.99698 8.11597 3.44635 8.2893 2.93502C8.51064 2.28302 9.06333 1.765 9.73266 1.58166C10.4053 1.397 11.102 1.52901 11.6433 1.94234C12.144 2.32301 12.4487 2.88697 12.4933 3.5063C13.3767 3.5663 14.108 4.11836 14.3813 4.94836C14.6093 5.6397 14.5027 6.36432 14.0894 6.93632C13.5107 7.73632 12.3927 8.04555 11.486 7.66288C11.2987 7.58288 11.0833 7.62358 10.942 7.76558L7.76603 10.9417C7.62336 11.0844 7.58799 11.3042 7.67399 11.5162C7.87132 12.0042 7.88329 12.555 7.70996 13.0664C7.48929 13.7184 6.93603 14.2362 6.26603 14.4196C6.06736 14.4729 5.86598 14.5003 5.66731 14.5003ZM3.6687 11.4983C3.89003 11.4983 4.09863 11.5844 4.25463 11.7404C4.41263 11.8984 4.5 12.1096 4.5 12.3349C4.5 12.7009 4.66796 13.0397 4.95996 13.2623C5.25596 13.4883 5.62535 13.5562 6.00268 13.4542C6.35001 13.3589 6.64934 13.0802 6.76334 12.7449C6.88801 12.3796 6.82331 12.0789 6.74731 11.8916C6.51131 11.3096 6.63399 10.659 7.05932 10.2343L10.2353 7.05888C10.6667 6.62688 11.3106 6.50297 11.876 6.74231C12.3626 6.94631 12.9673 6.78155 13.2793 6.35022C13.5066 6.03688 13.5607 5.65034 13.4327 5.26168C13.2754 4.78568 12.8646 4.5016 12.3346 4.50093C11.876 4.50093 11.5013 4.12568 11.5 3.66435C11.4987 3.29835 11.3307 2.96091 11.0387 2.73824C10.7433 2.51357 10.3733 2.44433 9.99731 2.547C9.64464 2.64366 9.35265 2.91562 9.23665 3.25696C9.11198 3.62229 9.17668 3.92232 9.25268 4.10966C9.48868 4.69166 9.366 5.34222 8.94067 5.76688L5.76464 8.94234C5.33264 9.37367 4.68735 9.49824 4.12402 9.25891C3.63602 9.05424 3.0327 9.219 2.7207 9.651C2.49337 9.96433 2.4393 10.3509 2.5673 10.7395C2.72396 11.2142 3.13531 11.4983 3.66731 11.4983C3.66731 11.4983 3.66803 11.4983 3.6687 11.4983ZM3.66796 11.9983H3.67464H3.66796Z" fill="#3B3B3E"/>
</svg>
