<svg width="16" height="16" viewBox="0 0 16 16" fill="none" xmlns="http://www.w3.org/2000/svg">
<path d="M12.2733 2.42699C12.1133 2.26033 11.8933 2.16699 11.6666 2.16699H4.3333C4.10664 2.16699 3.88665 2.26033 3.72665 2.42699C3.56665 2.59366 3.48664 2.82033 3.49997 3.047L4.02662 11.487C4.11329 12.887 5.1733 13.827 6.65996 13.827H9.32663C10.8133 13.827 11.8733 12.887 11.96 11.4803L12.4933 3.04032C12.5066 2.81366 12.4267 2.58699 12.2667 2.41366L12.2733 2.42699ZM11.4933 3.16699L11.34 5.65366C10.9133 5.78032 9.8933 5.96032 8.12664 5.52032C6.5733 5.13366 5.35329 5.24032 4.65329 5.37366L4.51331 3.17366H11.4933V3.16699ZM10.9733 11.427C10.9333 12.107 10.48 12.8337 9.3333 12.8337H6.66663C5.52663 12.8337 5.07329 12.107 5.02662 11.427L4.70663 6.37366C5.24663 6.25366 6.37997 6.10699 7.8733 6.48033C8.8133 6.71366 9.57331 6.79366 10.18 6.79366C10.62 6.79366 10.98 6.75365 11.26 6.69365L10.96 11.4203L10.9733 11.427Z" fill="#3B3B3E"/>
</svg>
