<svg width="16" height="16" viewBox="0 0 16 16" fill="none" xmlns="http://www.w3.org/2000/svg">
<path d="M13.7947 10.3617C13.3533 10.1117 12.83 10.1183 12.3947 10.3796L11.0813 11.1676C10.8753 10.585 10.3187 10.1663 9.66667 10.1663H6C5.57267 10.1663 5.18401 10.3197 4.87201 10.5657C4.65801 10.323 4.34867 10.1663 4 10.1663H2.66667C2.02333 10.1663 1.5 10.6897 1.5 11.333V13.9997C1.5 14.643 2.02333 15.1663 2.66667 15.1663H4C4.348 15.1663 4.65801 15.0097 4.87201 14.767C5.18401 15.013 5.57267 15.1663 6 15.1663H9.73132C10.4473 15.1663 11.15 14.9197 11.71 14.4723L13.9787 12.657C14.31 12.3916 14.5 11.9957 14.5 11.5717C14.5 11.0644 14.236 10.6117 13.7947 10.3617ZM4.16667 13.9997C4.16667 14.0917 4.092 14.1663 4 14.1663H2.66667C2.57467 14.1663 2.5 14.0917 2.5 13.9997V11.333C2.5 11.241 2.57467 11.1663 2.66667 11.1663H4C4.092 11.1663 4.16667 11.241 4.16667 11.333V11.9997V13.333V13.9997ZM13.3533 11.8763L11.0847 13.691C10.702 13.997 10.2213 14.1657 9.73067 14.1657H6C5.54067 14.1657 5.16667 13.7917 5.16667 13.3324V11.999C5.16667 11.5397 5.54067 11.1657 6 11.1657H9.66667C9.94267 11.1657 10.1667 11.3897 10.1667 11.6657C10.1667 11.9417 9.94267 12.1657 9.66667 12.1657H7.33333C7.05733 12.1657 6.83333 12.3897 6.83333 12.6657C6.83333 12.9417 7.05733 13.1657 7.33333 13.1657H9.66667C10.2287 13.1657 10.72 12.855 10.9767 12.3963L12.9093 11.237C13.084 11.131 13.242 11.1984 13.302 11.2317C13.3613 11.2657 13.5 11.3664 13.5 11.5717C13.5 11.691 13.4467 11.8023 13.3533 11.8763ZM8 9.16634C10.2973 9.16634 12.1667 7.29701 12.1667 4.99967C12.1667 2.70234 10.2973 0.833008 8 0.833008C5.70267 0.833008 3.83333 2.70234 3.83333 4.99967C3.83333 7.29701 5.70267 9.16634 8 9.16634ZM8 1.83301C9.746 1.83301 11.1667 3.25367 11.1667 4.99967C11.1667 6.74567 9.746 8.16634 8 8.16634C6.254 8.16634 4.83333 6.74567 4.83333 4.99967C4.83333 3.25367 6.254 1.83301 8 1.83301ZM6.77799 4.89567C6.59933 4.661 6.5 4.363 6.5 4.059C6.5 3.427 6.92132 2.899 7.48999 2.73966V2.66634C7.48999 2.39034 7.71399 2.16634 7.98999 2.16634C8.26599 2.16634 8.48999 2.39034 8.48999 2.66634V2.73299C9.01999 2.87166 9.42934 3.32835 9.492 3.90902C9.522 4.18368 9.32333 4.43037 9.04867 4.46037C8.77 4.48837 8.52667 4.29167 8.49734 4.01701C8.47667 3.82767 8.33066 3.68498 8.15666 3.68498H7.84133C7.65266 3.68498 7.49866 3.85233 7.49866 4.059C7.49866 4.14567 7.52533 4.22903 7.574 4.2937C7.624 4.3597 7.68801 4.40368 7.76268 4.42301L8.486 4.6097C9.08334 4.7657 9.49866 5.31365 9.49866 5.94165C9.49866 6.30365 9.36133 6.64635 9.11133 6.90568C8.93666 7.08635 8.72133 7.20633 8.48867 7.26766V7.33431C8.48867 7.61031 8.26467 7.83431 7.98867 7.83431C7.71267 7.83431 7.48867 7.61031 7.48867 7.33431V7.26237C6.96867 7.11704 6.56867 6.66503 6.50667 6.09237C6.47667 5.8177 6.67533 5.57102 6.94999 5.54102C7.22866 5.51168 7.47134 5.70971 7.50134 5.98437C7.52201 6.17371 7.668 6.31632 7.842 6.31632H8.15733C8.27466 6.31632 8.35533 6.25099 8.39333 6.21232C8.462 6.14099 8.5 6.04503 8.5 5.94303C8.5 5.7697 8.39134 5.61969 8.236 5.57902L7.51268 5.39233C7.22001 5.31367 6.95933 5.13834 6.77799 4.89567Z" fill="#3B3B3E"/>
</svg>
