<svg width="16" height="16" viewBox="0 0 16 16" fill="none" xmlns="http://www.w3.org/2000/svg">
<path d="M6.66667 11.1663H4.66667C3.828 11.1663 3.03336 10.8384 2.42936 10.2424C1.8287 9.63302 1.5 8.83834 1.5 7.99967C1.5 6.25367 2.92067 4.83301 4.66667 4.83301H5.33333C5.60933 4.83301 5.83333 5.05701 5.83333 5.33301C5.83333 5.60901 5.60933 5.83301 5.33333 5.83301H4.66667C3.472 5.83301 2.5 6.80501 2.5 7.99967C2.5 8.57434 2.72607 9.11901 3.13607 9.53501C3.54673 9.94035 4.09267 10.1663 4.66667 10.1663H6.66667C7.86133 10.1663 8.83333 9.19434 8.83333 7.99967C8.83333 7.72367 9.05733 7.49967 9.33333 7.49967C9.60933 7.49967 9.83333 7.72367 9.83333 7.99967C9.83333 9.74567 8.41267 11.1663 6.66667 11.1663ZM14.5 7.99967C14.5 7.16101 14.172 6.36633 13.5706 5.757C12.9666 5.161 12.1713 4.83301 11.3333 4.83301H9.33333C7.58733 4.83301 6.16667 6.25367 6.16667 7.99967C6.16667 8.27567 6.39067 8.49967 6.66667 8.49967C6.94267 8.49967 7.16667 8.27567 7.16667 7.99967C7.16667 6.80501 8.13867 5.83301 9.33333 5.83301H11.3333C11.9073 5.83301 12.4533 6.059 12.8639 6.46434C13.2739 6.88034 13.5 7.42567 13.5 7.99967C13.5 9.19434 12.528 10.1663 11.3333 10.1663H10.6667C10.3907 10.1663 10.1667 10.3903 10.1667 10.6663C10.1667 10.9423 10.3907 11.1663 10.6667 11.1663H11.3333C13.0793 11.1663 14.5 9.74567 14.5 7.99967Z" fill="#3B3B3E"/>
</svg>
