<svg width="16" height="16" viewBox="0 0 16 16" fill="none" xmlns="http://www.w3.org/2000/svg">
<path d="M8.24517 13.833C7.86383 13.833 7.50582 13.6504 7.28048 13.3317L5.66777 11.047C5.64111 11.009 5.6045 10.9884 5.5505 10.9877L2.65785 11.031C2.65185 11.031 2.64511 11.031 2.63978 11.031C2.20911 11.031 1.82178 10.7944 1.62578 10.4104C1.42645 10.0204 1.46648 9.55971 1.72848 9.20771L3.46579 6.88235C3.49379 6.84502 3.50179 6.79571 3.48646 6.75104L2.59111 4.09638C2.44578 3.66571 2.55582 3.19835 2.87782 2.87702C3.19848 2.55635 3.6638 2.44572 4.09714 2.59105L6.75111 3.48636C6.79644 3.50102 6.84515 3.49303 6.88115 3.46503L9.20578 1.72769C9.55578 1.46502 10.0178 1.42569 10.4078 1.62503C10.7978 1.82369 11.0358 2.21905 11.0298 2.65705L10.9865 5.55105C10.9858 5.59772 11.0078 5.64104 11.0458 5.66771L13.3318 7.28168C13.7025 7.54302 13.8892 7.98438 13.8178 8.43305C13.7478 8.88238 13.4338 9.24635 12.9992 9.38235L10.3152 10.2224C10.2712 10.2364 10.2352 10.2717 10.2212 10.317L9.3818 12.9984C9.2458 13.433 8.88177 13.747 8.43177 13.8177C8.37044 13.8284 8.30717 13.833 8.24517 13.833ZM5.55246 9.9877C5.92379 9.9877 6.27051 10.167 6.48451 10.4704L8.09648 12.755C8.15448 12.837 8.23515 12.8377 8.27715 12.831C8.31981 12.8244 8.39712 12.7984 8.42778 12.701L9.26714 10.019C9.3798 9.66103 9.6598 9.38103 10.0171 9.26903L12.7011 8.42902C12.7978 8.39902 12.8238 8.32237 12.8298 8.27904C12.8365 8.23704 12.8358 8.15705 12.7544 8.09972L10.4685 6.4857C10.1605 6.26837 9.98047 5.91372 9.98581 5.53706L10.0291 2.6437C10.0304 2.5717 9.98784 2.53504 9.95317 2.51704C9.91784 2.49904 9.86316 2.48638 9.80449 2.53038L7.47978 4.26769C7.17845 4.49235 6.78644 4.55505 6.43177 4.43505L3.77715 3.5397C3.67982 3.50703 3.61511 3.55436 3.58444 3.58503C3.55311 3.6157 3.50644 3.68236 3.53911 3.7777L4.43446 6.43305C4.55379 6.78905 4.49114 7.18103 4.26714 7.48103L2.5291 9.80638C2.48577 9.86505 2.49784 9.91972 2.51584 9.95572C2.53384 9.99105 2.59715 10.0304 2.64181 10.0317L5.53512 9.98835C5.54112 9.98768 5.54712 9.9877 5.55246 9.9877ZM14.3532 14.3531C14.5485 14.1577 14.5485 13.841 14.3532 13.6457L12.3532 11.6457C12.1578 11.4504 11.8411 11.4504 11.6458 11.6457C11.4505 11.841 11.4505 12.1577 11.6458 12.3531L13.6458 14.3531C13.7431 14.4504 13.8712 14.4997 13.9992 14.4997C14.1272 14.4997 14.2558 14.4511 14.3532 14.3531Z" fill="#3B3B3E"/>
</svg>
