<svg width="16" height="16" viewBox="0 0 16 16" fill="none" xmlns="http://www.w3.org/2000/svg">
<path d="M8.12337 0.833008H7.87728C3.99328 0.833008 0.833984 3.9923 0.833984 7.8763V8.12305C0.833984 12.007 3.99328 15.1663 7.87728 15.1663C9.16461 15.1663 10.3753 14.665 11.286 13.7543L13.7547 11.2856C14.6654 10.3756 15.1667 9.1643 15.1667 7.8763C15.1667 3.9923 12.0074 0.833008 8.12337 0.833008ZM1.83333 8.12305V7.8763C1.83333 4.54364 4.54396 1.83301 7.87663 1.83301H8.12272C11.4554 1.83301 14.166 4.54364 14.166 7.8763C14.166 8.2583 14.0934 8.6257 13.9854 8.98104H12.444C10.5347 8.98104 8.98128 10.5344 8.98128 12.4437V13.9857C8.62595 14.093 8.25863 14.1663 7.87663 14.1663C4.54396 14.1663 1.83333 11.4557 1.83333 8.12305ZM10.5786 13.047C10.3946 13.231 10.1939 13.393 9.98128 13.5337V12.4437C9.98128 11.0857 11.086 9.98104 12.444 9.98104H13.534C13.3934 10.1937 13.2314 10.3944 13.0467 10.5784L10.5786 13.047Z" fill="#3B3B3E"/>
</svg>
