<svg width="16" height="16" viewBox="0 0 16 16" fill="none" xmlns="http://www.w3.org/2000/svg">
<path d="M12.6666 14.5H10.3333C9.87398 14.5 9.49998 14.126 9.49998 13.6667V12.6667C9.49998 12.2073 9.12598 11.8333 8.66665 11.8333C8.20731 11.8333 7.83331 12.2073 7.83331 12.6667V13.6667C7.83331 14.126 7.45931 14.5 6.99998 14.5H5.33331C4.32198 14.5 3.49998 13.6773 3.49998 12.6667V11.1667H2.66665C1.65531 11.1667 0.833313 10.344 0.833313 9.33333C0.833313 8.32267 1.65531 7.5 2.66665 7.5H3.49998V6C3.49998 4.98933 4.32198 4.16667 5.33331 4.16667H6.83331V3.33333C6.83331 2.32267 7.65531 1.5 8.66665 1.5C9.67798 1.5 10.5 2.32267 10.5 3.33333V4.16667H12.6666C13.678 4.16667 14.5 4.98933 14.5 6V7.66667C14.5 8.126 14.126 8.5 13.6666 8.5H12.6666C12.2073 8.5 11.8333 8.874 11.8333 9.33333C11.8333 9.79267 12.2073 10.1667 12.6666 10.1667H13.6666C14.126 10.1667 14.5 10.5407 14.5 11V12.6667C14.5 13.6773 13.678 14.5 12.6666 14.5ZM10.5 13.5H12.6666C13.126 13.5 13.5 13.126 13.5 12.6667V11.1667H12.6666C11.6553 11.1667 10.8333 10.344 10.8333 9.33333C10.8333 8.32267 11.6553 7.5 12.6666 7.5H13.5V6C13.5 5.54067 13.126 5.16667 12.6666 5.16667H10.3333C9.87398 5.16667 9.49998 4.79267 9.49998 4.33333V3.33333C9.49998 2.874 9.12598 2.5 8.66665 2.5C8.20731 2.5 7.83331 2.874 7.83331 3.33333V4.33333C7.83331 4.79267 7.45931 5.16667 6.99998 5.16667H5.33331C4.87398 5.16667 4.49998 5.54067 4.49998 6V7.66667C4.49998 8.126 4.12598 8.5 3.66665 8.5H2.66665C2.20731 8.5 1.83331 8.874 1.83331 9.33333C1.83331 9.79267 2.20731 10.1667 2.66665 10.1667H3.66665C4.12598 10.1667 4.49998 10.5407 4.49998 11V12.6667C4.49998 13.126 4.87398 13.5 5.33331 13.5H6.83331V12.6667C6.83331 11.656 7.65531 10.8333 8.66665 10.8333C9.67798 10.8333 10.5 11.656 10.5 12.6667V13.5Z" fill="#3B3B3E"/>
</svg>
