<svg width="16" height="16" viewBox="0 0 16 16" fill="none" xmlns="http://www.w3.org/2000/svg">
<path d="M12.5 6C12.5 3.52 10.48 1.5 8 1.5C5.52 1.5 3.5 3.52 3.5 6C3.5 7.64667 4.38667 9.08 5.71334 9.86667C5.50667 10.18 5.54668 10.5867 5.80668 10.84L6.53333 11.5667L6.81331 13.8267C6.85998 14.2133 7.19332 14.5 7.57332 14.5H8.43998C8.81998 14.5 9.15333 14.2133 9.19999 13.8267L9.47998 11.5667L10.2067 10.84C10.4667 10.5867 10.5067 10.18 10.3 9.87333C11.62 9.08 12.5133 7.64667 12.5133 6H12.5ZM8.71334 10.9133C8.59334 11.0333 8.51333 11.1933 8.49333 11.36L8.22668 13.5H7.77332L7.50667 11.36C7.48667 11.1933 7.40666 11.0333 7.28666 10.9133L6.68001 10.3C7.10001 10.4267 7.54 10.5 8 10.5C8.46 10.5 8.89999 10.4333 9.31999 10.3L8.71334 10.9133V10.9133ZM8 9.5C6.06667 9.5 4.5 7.93333 4.5 6C4.5 4.06667 6.06667 2.5 8 2.5C9.93333 2.5 11.5 4.06667 11.5 6C11.5 7.93333 9.93333 9.5 8 9.5ZM6.83333 6.66667C6.83333 6.94 6.60667 7.16667 6.33333 7.16667C5.69333 7.16667 5.16667 6.64 5.16667 6C5.16667 5.72667 5.39333 5.5 5.66667 5.5C5.94 5.5 6.16667 5.72667 6.16667 6C6.16667 6.09333 6.24 6.16667 6.33333 6.16667C6.60667 6.16667 6.83333 6.39333 6.83333 6.66667ZM8.5 8.33333C8.5 8.60667 8.27333 8.83333 8 8.83333C7.36 8.83333 6.83333 8.30667 6.83333 7.66667C6.83333 7.39333 7.06 7.16667 7.33333 7.16667C7.60667 7.16667 7.83333 7.39333 7.83333 7.66667C7.83333 7.76 7.90667 7.83333 8 7.83333C8.27333 7.83333 8.5 8.06 8.5 8.33333ZM8.83333 6.33333C8.83333 6.60667 8.60667 6.83333 8.33333 6.83333C7.69333 6.83333 7.16667 6.30667 7.16667 5.66667C7.16667 5.39333 7.39333 5.16667 7.66667 5.16667C7.94 5.16667 8.16667 5.39333 8.16667 5.66667C8.16667 5.76 8.24 5.83333 8.33333 5.83333C8.60667 5.83333 8.83333 6.06 8.83333 6.33333Z" fill="#3B3B3E"/>
</svg>
