<svg width="16" height="16" viewBox="0 0 16 16" fill="none" xmlns="http://www.w3.org/2000/svg">
<path d="M2.97967 8.35353C2.78434 8.1582 2.78434 7.84151 2.97967 7.64617L7.64634 2.97951C7.84167 2.78417 8.15836 2.78417 8.35369 2.97951L13.0204 7.64617C13.2157 7.84151 13.2157 8.1582 13.0204 8.35353C12.923 8.45087 12.795 8.50018 12.667 8.50018C12.539 8.50018 12.411 8.45153 12.3137 8.35353L8.00034 4.04022L3.68703 8.35353C3.49103 8.54887 3.175 8.54887 2.97967 8.35353ZM8.35304 7.64683C8.15771 7.45149 7.84102 7.45149 7.64569 7.64683L2.97902 12.3135C2.78369 12.5088 2.78369 12.8255 2.97902 13.0208C3.17435 13.2162 3.49104 13.2162 3.68638 13.0208L7.99969 8.70754L12.313 13.0208C12.4103 13.1182 12.5384 13.1675 12.6664 13.1675C12.7944 13.1675 12.9224 13.1188 13.0197 13.0208C13.215 12.8255 13.215 12.5088 13.0197 12.3135L8.35304 7.64683Z" fill="#3B3B3E"/>
</svg>
