<svg width="16" height="16" viewBox="0 0 16 16" fill="none" xmlns="http://www.w3.org/2000/svg">
<path d="M11.75 1.5H4.25C2.47667 1.5 1.5 2.47667 1.5 4.25V11.75C1.5 13.5233 2.47667 14.5 4.25 14.5H11.75C13.5233 14.5 14.5 13.5233 14.5 11.75V4.25C14.5 2.47667 13.5233 1.5 11.75 1.5ZM13.5 11.75C13.5 12.9767 12.9767 13.5 11.75 13.5H4.25C3.02333 13.5 2.5 12.9767 2.5 11.75V4.25C2.5 3.02333 3.02333 2.5 4.25 2.5H11.75C12.9767 2.5 13.5 3.02333 13.5 4.25V11.75ZM10.6387 4.66667H6.62598C5.64064 4.66667 5.33465 5.17798 5.14998 5.72998L4.44596 7.84135C4.2573 8.40935 4.30468 8.93198 4.57935 9.31331C4.76868 9.57598 5.15536 9.88867 5.92269 9.88867H6.79663V10.5273C6.79663 11.0487 7.05601 11.5327 7.48934 11.8213C7.66667 11.9393 7.86936 12 8.07536 12C8.18469 12 8.2947 11.9827 8.40137 11.948C8.7107 11.8487 8.95331 11.6167 9.07397 11.2933L9.76937 9.18465H10.6387C11.206 9.18465 11.6667 8.72399 11.6667 8.15666V5.69332C11.6667 5.12732 11.206 4.66667 10.6387 4.66667ZM8.9327 8.52869L8.12467 10.9807L8.04403 10.99C7.88936 10.8867 7.79663 10.714 7.79663 10.528V9.38932C7.79663 9.11332 7.57263 8.88932 7.29663 8.88932H5.92269C5.65469 8.88932 5.46471 8.83268 5.39071 8.72868C5.31271 8.62001 5.31401 8.40133 5.39535 8.158L6.09863 6.04667C6.20663 5.72467 6.22531 5.66667 6.62598 5.66667L9.16667 5.684V8.25334C9.05933 8.31334 8.9727 8.40669 8.9327 8.52869ZM10.6667 8.15735L10.1667 8.16866V5.69067L10.6667 5.69401V8.15735Z" fill="#3B3B3E"/>
</svg>
