<svg width="16" height="16" viewBox="0 0 16 16" fill="none" xmlns="http://www.w3.org/2000/svg">
<path d="M8.00016 15.1663C4.04683 15.1663 0.833496 11.953 0.833496 7.99967C0.833496 4.04634 4.04683 0.833008 8.00016 0.833008C11.9535 0.833008 15.1668 4.04634 15.1668 7.99967C15.1668 11.953 11.9535 15.1663 8.00016 15.1663ZM8.00016 1.83301C4.60016 1.83301 1.8335 4.59967 1.8335 7.99967C1.8335 11.3997 4.60016 14.1663 8.00016 14.1663C11.4002 14.1663 14.1668 11.3997 14.1668 7.99967C14.1668 4.59967 11.4002 1.83301 8.00016 1.83301ZM6.13349 8.13968C6.13349 8.13968 6.10683 8.13968 6.0935 8.13968C6.02683 8.13968 4.42683 7.99967 3.7735 6.90634C3.4935 6.44634 3.42683 5.93967 3.5735 5.50634C3.70016 5.14634 3.98016 4.86634 4.36016 4.72634C4.62016 4.63301 4.8535 4.64634 5.06683 4.70634C5.18683 4.51967 5.36017 4.35967 5.62017 4.26634C6.00683 4.12634 6.39349 4.15967 6.72683 4.35301C7.11349 4.58634 7.38683 5.01968 7.4735 5.55301C7.6735 6.81301 6.54016 7.93968 6.48683 7.99301C6.39349 8.08634 6.26683 8.13301 6.13349 8.13301V8.13968ZM4.7335 5.65968C4.7335 5.65968 4.7135 5.65968 4.70683 5.65968C4.5735 5.70634 4.5335 5.77967 4.5135 5.83301C4.46683 5.97301 4.5135 6.18634 4.62683 6.38634C4.88683 6.81968 5.5335 7.02634 5.9335 7.10634C6.1935 6.78634 6.5535 6.21968 6.4735 5.71301C6.44017 5.48635 6.33349 5.29301 6.20683 5.21968C6.16016 5.19301 6.08683 5.16635 5.94683 5.21301C5.86016 5.24635 5.85349 5.45301 5.85349 5.49301C5.86016 5.71301 5.72683 5.91968 5.52016 5.99301C5.3135 6.06634 5.08016 5.993 4.9535 5.81967C4.9335 5.79967 4.82017 5.66634 4.7335 5.66634V5.65968ZM9.86017 8.13968C9.72683 8.13968 9.60684 8.08634 9.50684 7.99967C9.46017 7.95301 8.32016 6.81967 8.52016 5.55967C8.60016 5.02634 8.8735 4.593 9.26684 4.35967C9.5935 4.16634 9.98683 4.13301 10.3735 4.27301C10.6335 4.36634 10.8068 4.51967 10.9335 4.693C11.1402 4.63967 11.3735 4.63301 11.6335 4.72634C12.0135 4.86634 12.2935 5.14634 12.4202 5.50634C12.5735 5.933 12.5002 6.44634 12.2202 6.90634C11.5602 7.99967 9.96016 8.13968 9.89349 8.13968C9.88016 8.13968 9.86683 8.13968 9.85349 8.13968H9.86017ZM9.90683 5.17968C9.84683 5.17968 9.80683 5.19968 9.78016 5.21301C9.65349 5.28635 9.54683 5.48634 9.5135 5.70634C9.4335 6.21301 9.7935 6.78634 10.0535 7.09967C10.4602 7.02634 11.1068 6.81968 11.3668 6.37968C11.4868 6.18635 11.5268 5.96634 11.4802 5.82634C11.4602 5.77301 11.4268 5.70634 11.2868 5.653C11.1735 5.613 11.0668 5.71967 11.0468 5.74634C10.9068 5.90634 10.6802 5.96634 10.4868 5.88634C10.2935 5.81301 10.1602 5.61967 10.1668 5.413C10.1668 5.393 10.1602 5.23968 10.0468 5.19968C9.9935 5.17968 9.95349 5.173 9.91349 5.173L9.90683 5.17968ZM8.00016 12.493C6.48683 12.493 5.1935 11.4663 4.8535 9.99301C4.78683 9.69968 4.88683 9.393 5.12016 9.193C5.36683 8.98634 5.70684 8.92635 6.00684 9.04635C7.34684 9.58635 8.6535 9.58635 10.0002 9.04635C10.3002 8.92635 10.6402 8.97967 10.8868 9.193C11.1202 9.393 11.2202 9.69968 11.1535 9.99301C10.8135 11.4663 9.52017 12.493 8.00684 12.493H8.00016ZM5.92683 10.0863C6.2535 10.9263 7.06683 11.493 8.00016 11.493C8.9335 11.493 9.74683 10.9263 10.0735 10.0863C8.6935 10.5663 7.30016 10.5663 5.92683 10.0863V10.0863Z" fill="#3B3B3E"/>
</svg>
