<svg width="16" height="16" viewBox="0 0 16 16" fill="none" xmlns="http://www.w3.org/2000/svg">
<path d="M11.236 13.038C11.0087 13.3487 10.6047 13.5 10 13.5H4C2.94867 13.5 2.5 13.0513 2.5 12V4C2.5 2.94867 2.94867 2.5 4 2.5H7.5V4C7.5 5.612 8.388 6.5 10 6.5H11.5V8C11.5 8.276 11.724 8.5 12 8.5C12.276 8.5 12.5 8.276 12.5 8V6C12.5 5.86733 12.4474 5.74 12.3534 5.64667L8.35335 1.64667C8.25935 1.55267 8.13267 1.5 8 1.5H4C2.388 1.5 1.5 2.388 1.5 4V12C1.5 13.612 2.388 14.5 4 14.5H10C10.9327 14.5 11.6206 14.2073 12.0433 13.6287C12.206 13.406 12.1581 13.0933 11.9354 12.93C11.7114 12.766 11.3993 12.816 11.236 13.038ZM8.5 4V3.20734L10.7926 5.5H10C8.94867 5.5 8.5 5.05133 8.5 4ZM15.02 11.02L13.6867 12.3533C13.5894 12.4507 13.4613 12.5 13.3333 12.5C13.2053 12.5 13.0773 12.4513 12.98 12.3533C12.7846 12.158 12.7846 11.8413 12.98 11.646L13.46 11.166H8.66667C8.39067 11.166 8.16667 10.942 8.16667 10.666C8.16667 10.39 8.39067 10.166 8.66667 10.166H13.4593L12.9793 9.686C12.784 9.49067 12.784 9.174 12.9793 8.97867C13.1747 8.78334 13.4914 8.78334 13.6867 8.97867L15.02 10.312C15.066 10.358 15.1026 10.4133 15.1279 10.4747C15.1786 10.5967 15.1786 10.7347 15.1279 10.8567C15.1026 10.9187 15.066 10.974 15.02 11.02Z" fill="#3B3B3E"/>
</svg>
