<svg width="16" height="16" viewBox="0 0 16 16" fill="none" xmlns="http://www.w3.org/2000/svg">
<path d="M7.9999 14.5C7.93524 14.5 7.8705 14.4874 7.8085 14.462C7.62183 14.3847 7.4999 14.2027 7.4999 14V9.45604L5.0012 11.7047C4.7952 11.8894 4.47983 11.8727 4.2945 11.6674C4.10983 11.4621 4.1266 11.146 4.33193 10.9614L7.19798 8.38205L4.37995 6.40939C4.15328 6.25072 4.09857 5.93938 4.25657 5.71271C4.41391 5.48671 4.72587 5.43139 4.95254 5.59005L7.49925 7.37271V2.00005C7.49925 1.79805 7.62118 1.61539 7.80784 1.53805C7.99451 1.46072 8.20994 1.50338 8.3526 1.64672L11.6859 4.98005C11.7833 5.07738 11.8359 5.20937 11.8326 5.34671C11.8286 5.48404 11.7686 5.61339 11.6672 5.70539L8.80117 8.28472L11.6192 10.2574C11.7405 10.342 11.818 10.476 11.8306 10.6234C11.8433 10.7707 11.7906 10.9161 11.6859 11.0207L8.3526 14.3541C8.25794 14.4494 8.1299 14.5 7.9999 14.5ZM8.4999 9.29338V12.7927L10.5585 10.7341L8.4999 9.29338ZM8.4999 3.20738V7.21072L10.6072 5.3147L8.4999 3.20738Z" fill="#3B3B3E"/>
</svg>
