<svg width="16" height="16" viewBox="0 0 16 16" fill="none" xmlns="http://www.w3.org/2000/svg">
<path d="M12.0001 4.16699H8.87411L7.02075 2.31366C6.92675 2.21966 6.80007 2.16699 6.6674 2.16699H4.00073C2.38873 2.16699 1.50073 3.05499 1.50073 4.66699V11.3337C1.50073 12.9457 2.38873 13.8337 4.00073 13.8337H12.0007C13.6127 13.8337 14.5007 12.9457 14.5007 11.3337V6.66699C14.5001 5.05499 13.6121 4.16699 12.0001 4.16699ZM13.5001 11.3337C13.5001 12.385 13.0514 12.8337 12.0001 12.8337H4.00008C2.94875 12.8337 2.50008 12.385 2.50008 11.3337V4.66699C2.50008 3.61566 2.94875 3.16699 4.00008 3.16699H6.45939L8.31274 5.02032C8.40674 5.11432 8.53343 5.16699 8.6661 5.16699H11.9994C13.0508 5.16699 13.4994 5.61566 13.4994 6.66699V11.3337H13.5001ZM8.50008 9.33366C8.50008 9.60966 8.27608 9.83366 8.00008 9.83366H5.8741L6.35409 10.3137C6.54942 10.509 6.54942 10.8257 6.35409 11.021C6.25675 11.1183 6.12873 11.1677 6.00073 11.1677C5.87273 11.1677 5.74471 11.119 5.64738 11.021L4.31405 9.68766C4.26805 9.64166 4.23147 9.58632 4.20614 9.52498C4.15547 9.40298 4.15547 9.26499 4.20614 9.14299C4.23147 9.08165 4.26805 9.02633 4.31405 8.98033L5.64738 7.64699C5.84271 7.45166 6.1594 7.45166 6.35474 7.64699C6.55007 7.84233 6.55007 8.159 6.35474 8.35433L5.87476 8.83433H8.00008C8.27608 8.83366 8.50008 9.05766 8.50008 9.33366Z" fill="#3B3B3E"/>
</svg>
