<svg width="16" height="16" viewBox="0 0 16 16" fill="none" xmlns="http://www.w3.org/2000/svg">
<path d="M12.4999 2C12.4999 2.276 12.2759 2.5 11.9999 2.5H8.6666C7.83993 2.5 7.1666 3.17267 7.1666 4V12.7926L8.97991 10.9793C9.17525 10.784 9.49194 10.784 9.68727 10.9793C9.8826 11.1747 9.8826 11.4914 9.68727 11.6867L7.0206 14.3534C6.9746 14.3994 6.91932 14.4359 6.85866 14.4613C6.79799 14.4866 6.73259 14.5 6.66725 14.5C6.60192 14.5 6.53734 14.4866 6.47601 14.4613C6.41467 14.4359 6.3599 14.3994 6.3139 14.3534L3.64723 11.6867C3.4519 11.4914 3.4519 11.1747 3.64723 10.9793C3.84257 10.784 4.15926 10.784 4.35459 10.9793L6.1679 12.7926V4C6.1679 2.62133 7.2899 1.5 8.6679 1.5H12.0012C12.2759 1.5 12.4999 1.724 12.4999 2Z" fill="#3B3B3E"/>
</svg>
