<svg width="16" height="16" viewBox="0 0 16 16" fill="none" xmlns="http://www.w3.org/2000/svg">
<path d="M14.4801 11.8668C14.0735 10.3602 13.1335 9.06015 11.8468 8.20015C12.9135 7.33349 13.6868 6.12684 14.0068 4.78017C14.0401 4.63351 14.0068 4.4735 13.9134 4.3535C13.8201 4.2335 13.6734 4.16016 13.5201 4.16016H11.5735C11.3535 4.16016 11.1668 4.30017 11.1001 4.50684C10.7734 5.52017 10.0268 6.42684 9.27345 6.80017V4.66016C9.27345 4.38682 9.04679 4.16016 8.77345 4.16016H6.84011C6.56678 4.16016 6.34011 4.38682 6.34011 4.66016V8.93349C5.47345 8.36683 4.64012 7.02683 4.56678 4.64683C4.56012 4.38016 4.34012 4.16016 4.06678 4.16016H2.00678C1.87345 4.16016 1.74012 4.2135 1.64678 4.3135C1.55345 4.4135 1.50012 4.54017 1.50678 4.6735C1.64678 9.56684 4.28011 12.4935 8.54011 12.4935H8.78012C9.05345 12.4935 9.28012 12.2668 9.28012 11.9935V9.92684C10.2534 10.2202 11.0468 11.0335 11.4068 12.1468C11.4735 12.3535 11.6668 12.4935 11.8801 12.4935H14.0068C14.1601 12.4935 14.3068 12.4202 14.4068 12.3002C14.5001 12.1735 14.5335 12.0135 14.4935 11.8668H14.4801ZM12.2201 11.5002C11.6068 9.98683 10.3268 8.97349 8.81345 8.82682C8.67345 8.81349 8.53345 8.86016 8.42678 8.95349C8.32012 9.04682 8.26012 9.18016 8.26012 9.32682V11.4935C4.86012 11.3802 2.78678 9.10016 2.51345 5.16683H3.57345C3.81345 8.34016 5.32012 9.84016 6.70012 10.1868C6.84679 10.2202 7.00678 10.1868 7.12678 10.0935C7.24678 10.0002 7.32011 9.85349 7.32011 9.70015V5.16683H8.25345V7.47349C8.25345 7.61349 8.31345 7.75349 8.42012 7.84682C8.52679 7.94016 8.66679 7.98682 8.80679 7.97349C10.0201 7.84682 11.3001 6.66683 11.9068 5.16683H12.8268C12.4201 6.26016 11.6468 7.20684 10.6468 7.82017C10.4935 7.9135 10.4001 8.08683 10.4068 8.26683C10.4135 8.44683 10.5201 8.6135 10.6868 8.6935C11.8734 9.28683 12.7934 10.2868 13.2868 11.5002H12.2068H12.2201Z" fill="#3B3B3E"/>
</svg>
