<svg width="16" height="16" viewBox="0 0 16 16" fill="none" xmlns="http://www.w3.org/2000/svg">
<path d="M4.96516 14.5013C4.33182 14.5013 3.70649 14.3246 3.14582 13.9786C2.31049 13.4633 1.72047 12.616 1.52847 11.6533C1.4038 11.032 1.68577 10.3953 2.23111 10.07L3.9938 9.01932C4.8458 8.51065 5.9491 8.75799 6.50243 9.58399L7.01057 10.342C8.45057 9.63799 9.6358 8.44999 10.3411 7.00265L9.58723 6.50133C8.75989 5.95133 8.50847 4.85065 9.01447 3.99598L10.0565 2.23599C10.3818 1.68799 11.0172 1.40399 11.6432 1.52933C12.6165 1.72399 13.4632 2.31399 13.9792 3.14999C14.4925 3.98199 14.6325 4.95533 14.3765 5.88933C13.2478 9.996 9.99378 13.2487 5.88378 14.3767C5.57911 14.46 5.27116 14.5013 4.96516 14.5013ZM4.94986 9.75599C4.79786 9.75599 4.64518 9.79598 4.50585 9.87865L2.7438 10.9293C2.56247 11.038 2.46777 11.25 2.5091 11.4573C2.6471 12.1487 3.07121 12.7573 3.67121 13.1273C4.26321 13.4927 4.95381 13.594 5.61848 13.412C9.38914 12.3767 12.3758 9.39266 13.4105 5.62399C13.5931 4.95999 13.4925 4.26798 13.1265 3.67398C12.7565 3.07331 12.1479 2.64999 11.4565 2.51132C11.2392 2.46799 11.0245 2.562 10.9158 2.74533L9.87385 4.50532C9.63851 4.90199 9.75515 5.41332 10.1391 5.66865L11.2466 6.40532C11.4466 6.53799 11.5231 6.79332 11.4311 7.01399C10.6031 8.99732 8.99646 10.608 7.0218 11.4333C6.80313 11.5253 6.54655 11.4493 6.41389 11.2507L5.67056 10.1407C5.50523 9.89199 5.23052 9.75599 4.94986 9.75599Z" fill="#3B3B3E"/>
</svg>
