<svg width="16" height="16" viewBox="0 0 16 16" fill="none" xmlns="http://www.w3.org/2000/svg">
<path d="M12.3334 1.5H10.6667H8.00008H4.66675C3.05475 1.5 2.16675 2.388 2.16675 4V12C2.16675 13.4953 3.17141 14.5 4.66675 14.5H12.3334C13.1601 14.5 13.8334 13.8273 13.8334 13V9V7.33333V3C13.8334 2.17267 13.1601 1.5 12.3334 1.5ZM10.1667 2.5V5.80534L9.58146 5.4707C9.5048 5.4267 9.41941 5.4047 9.33341 5.4047C9.24741 5.4047 9.16203 5.4267 9.08537 5.4707L8.50008 5.80534V2.5H10.1667ZM4.66675 2.5H7.50008V6.66667C7.50008 6.84533 7.59543 7.01003 7.74943 7.09937C7.90276 7.1887 8.09346 7.18933 8.24813 7.10067L9.33341 6.47998L10.4187 7.10067C10.4954 7.14467 10.5814 7.16667 10.6667 7.16667C10.7534 7.16667 10.8401 7.14403 10.9174 7.09937C11.0714 7.01003 11.1667 6.84533 11.1667 6.66667V2.5H12.3334C12.6087 2.5 12.8334 2.724 12.8334 3V7.33333V9C12.8334 9.276 12.6087 9.5 12.3334 9.5H4.66675C4.07941 9.5 3.57141 9.65931 3.16675 9.93864V4C3.16675 2.94867 3.61541 2.5 4.66675 2.5ZM12.3334 13.5H4.66675C3.72741 13.5 3.16675 12.9393 3.16675 12C3.16675 11.0607 3.72741 10.5 4.66675 10.5H12.3334C12.5094 10.5 12.6761 10.464 12.8334 10.408V13C12.8334 13.276 12.6087 13.5 12.3334 13.5Z" fill="#3B3B3E"/>
</svg>
