<svg width="16" height="16" viewBox="0 0 16 16" fill="none" xmlns="http://www.w3.org/2000/svg">
<path d="M12.5 14.0002C12.5 14.2762 12.276 14.5002 12 14.5002H8.66668C7.28868 14.5002 6.16668 13.3789 6.16668 12.0002V3.2076L4.35337 5.02091C4.15804 5.21624 3.84135 5.21624 3.64601 5.02091C3.45068 4.82558 3.45068 4.50889 3.64601 4.31355L6.31268 1.64689C6.35868 1.60089 6.41394 1.56431 6.47528 1.53898C6.59728 1.48831 6.73527 1.48831 6.85727 1.53898C6.91861 1.56431 6.97404 1.60089 7.02004 1.64689L9.6867 4.31355C9.88204 4.50889 9.88204 4.82558 9.6867 5.02091C9.58937 5.11824 9.46135 5.16756 9.33335 5.16756C9.20535 5.16756 9.07733 5.11891 8.98 5.02091L7.16668 3.2076V12.0002C7.16668 12.8276 7.84002 13.5002 8.66668 13.5002H12C12.276 13.5002 12.5 13.7242 12.5 14.0002Z" fill="#3B3B3E"/>
</svg>
