<svg width="16" height="16" viewBox="0 0 16 16" fill="none" xmlns="http://www.w3.org/2000/svg">
<path d="M11.3686 14.4996H4.63195C3.58462 14.4996 2.68795 13.7517 2.49995 12.7217L1.52998 7.39963C1.41132 6.74563 1.65597 6.077 2.16931 5.655L6.62398 1.99298C7.42198 1.33698 8.57996 1.33698 9.37796 1.99298L13.8326 5.655C14.346 6.077 14.5906 6.74563 14.472 7.39963L13.502 12.7217C13.3127 13.7517 12.4159 14.4996 11.3686 14.4996ZM7.99995 2.5003C7.73595 2.5003 7.47325 2.58828 7.25858 2.76495L2.80399 6.42698C2.56999 6.61898 2.45863 6.92302 2.5133 7.22035L3.48327 12.5416C3.58394 13.0963 4.0673 13.499 4.6313 13.499H11.368C11.932 13.499 12.4147 13.0963 12.516 12.5416L13.486 7.21962C13.54 6.92229 13.4286 6.61898 13.1953 6.42698L8.7406 2.76495C8.5266 2.58895 8.26395 2.5003 7.99995 2.5003ZM13.0086 12.6316H13.0153H13.0086ZM9.83329 11.333C9.83329 11.057 9.60929 10.833 9.33329 10.833H6.66662C6.39062 10.833 6.16662 11.057 6.16662 11.333C6.16662 11.609 6.39062 11.833 6.66662 11.833H9.33329C9.60929 11.833 9.83329 11.609 9.83329 11.333Z" fill="#3B3B3E"/>
</svg>
