<svg width="16" height="16" viewBox="0 0 16 16" fill="none" xmlns="http://www.w3.org/2000/svg">
<path d="M13.0003 10.8332H11.0003C10.0603 10.8332 9.50033 11.3932 9.50033 12.3332V12.9999C9.50033 13.9399 10.0603 14.4999 11.0003 14.4999H13.0003C13.9403 14.4999 14.5003 13.9399 14.5003 12.9999V12.3332C14.5003 11.3932 13.9403 10.8332 13.0003 10.8332ZM13.5003 12.9999C13.5003 13.3932 13.3937 13.4999 13.0003 13.4999H11.0003C10.607 13.4999 10.5003 13.3932 10.5003 12.9999V12.3332C10.5003 11.9399 10.607 11.8332 11.0003 11.8332H13.0003C13.3937 11.8332 13.5003 11.9399 13.5003 12.3332V12.9999ZM12.1803 1.53319C11.9203 1.43319 11.6337 1.55985 11.5337 1.81985L9.17366 7.87986C8.947 8.45986 8.40031 8.83319 7.77364 8.83319H2.99365C2.16699 8.83319 1.49365 9.50652 1.49365 10.3332V12.9999C1.49365 13.8265 2.16699 14.4999 2.99365 14.4999H5.96033C6.98699 14.4999 7.92032 13.8599 8.28699 12.9065L12.4603 2.17986C12.5603 1.91986 12.4337 1.63319 12.1737 1.53319H12.1803ZM2.50033 12.9999V10.3332C2.50033 10.0599 2.72699 9.83319 3.00033 9.83319H4.16699V13.4999H3.00033C2.72699 13.4999 2.50033 13.2732 2.50033 12.9999ZM7.36031 12.5465C7.14031 13.1132 6.58033 13.4999 5.967 13.4999H5.16699V9.83319H7.78031C8.01365 9.83319 8.24032 9.79985 8.45365 9.73985L7.36031 12.5465V12.5465Z" fill="#3B3B3E"/>
</svg>
