<svg width="16" height="16" viewBox="0 0 16 16" fill="none" xmlns="http://www.w3.org/2000/svg">
<path d="M11.3334 2.83333H11.1534C11.0887 1.99733 10.5474 1.5 9.66675 1.5H6.33341C5.45275 1.5 4.91143 1.99733 4.84676 2.83333H4.66675C3.05475 2.83333 2.16675 3.72133 2.16675 5.33333V12C2.16675 13.612 3.05475 14.5 4.66675 14.5H11.3334C12.9454 14.5 13.8334 13.612 13.8334 12V5.33333C13.8334 3.72133 12.9454 2.83333 11.3334 2.83333ZM5.83341 3C5.83341 2.60733 5.94075 2.5 6.33341 2.5H9.66675C10.0594 2.5 10.1667 2.60733 10.1667 3V3.66667C10.1667 4.05933 10.0594 4.16667 9.66675 4.16667H6.33341C5.94075 4.16667 5.83341 4.05933 5.83341 3.66667V3ZM12.8334 12C12.8334 13.0513 12.3847 13.5 11.3334 13.5H4.66675C3.61541 13.5 3.16675 13.0513 3.16675 12V5.33333C3.16675 4.282 3.61541 3.83333 4.66675 3.83333H4.84676C4.91143 4.66933 5.45275 5.16667 6.33341 5.16667H9.66675C10.5474 5.16667 11.0887 4.66933 11.1534 3.83333H11.3334C12.3847 3.83333 12.8334 4.282 12.8334 5.33333V12ZM9.6534 9.94666C9.9054 9.56199 10.0554 9.10466 10.0554 8.61133C10.0554 7.26333 8.95874 6.16667 7.61141 6.16667C6.26341 6.16667 5.16675 7.26333 5.16675 8.61133C5.16675 9.95933 6.26341 11.056 7.61141 11.056C8.10474 11.056 8.56203 10.9067 8.9467 10.6547L9.98006 11.6873C10.0774 11.7847 10.2054 11.834 10.3334 11.834C10.4614 11.834 10.5894 11.7853 10.6868 11.6873C10.8821 11.492 10.8821 11.1753 10.6868 10.98L9.6534 9.94666ZM6.16675 8.61133C6.16675 7.81466 6.81474 7.16667 7.61141 7.16667C8.40741 7.16667 9.05542 7.81466 9.05542 8.61133C9.05542 9.408 8.40741 10.056 7.61141 10.056C6.81474 10.0553 6.16675 9.40733 6.16675 8.61133Z" fill="#3B3B3E"/>
</svg>
