<svg width="16" height="16" viewBox="0 0 16 16" fill="none" xmlns="http://www.w3.org/2000/svg">
<path d="M12.5973 4.95815L12.3846 4.74615C12.3432 4.70415 12.3193 4.64818 12.3193 4.58885V4.29018C12.3193 3.21885 11.4473 2.34682 10.3759 2.34682H10.0773C10.0186 2.34682 9.96122 2.32279 9.91989 2.28212L9.70797 2.06948C8.95131 1.31214 7.71861 1.31081 6.95928 2.06948L6.74736 2.28147C6.70603 2.32281 6.64864 2.34682 6.58997 2.34682H6.29131C5.21997 2.34682 4.34795 3.21885 4.34795 4.29018V4.58885C4.34795 4.64818 4.32468 4.70417 4.28268 4.7455L4.06995 4.9588C3.31262 5.71613 3.31262 6.9495 4.06995 7.7075L4.28268 7.91949C4.32401 7.96149 4.34795 8.01747 4.34795 8.0768V8.37547C4.34795 9.19213 4.85529 9.88948 5.56995 10.1768L4.51933 13.8621C4.46733 14.0455 4.52398 14.2428 4.66598 14.3708C4.80665 14.4982 5.00865 14.5349 5.18665 14.4635L7.03203 13.7242C7.87203 13.3895 8.7959 13.3895 9.63457 13.7242L11.4812 14.4642C11.5419 14.4882 11.6053 14.5001 11.6673 14.5001C11.7893 14.5001 11.9086 14.4561 12.0019 14.3715C12.1439 14.2435 12.2006 14.0469 12.1486 13.8629L11.0979 10.1775C11.8126 9.89013 12.32 9.19278 12.32 8.37612V8.07745C12.32 8.01812 12.3432 7.96213 12.3852 7.92079L12.5979 7.70815C12.5979 7.70815 12.5979 7.70816 12.5979 7.7075C13.3546 6.9495 13.3546 5.71615 12.5973 4.95815ZM10.0053 12.7948C8.92867 12.3655 7.74129 12.3648 6.65996 12.7948L5.75989 13.1555L6.56865 10.3188H6.58867C6.64734 10.3188 6.70456 10.3429 6.7459 10.3835L6.95797 10.5962C7.33664 10.9748 7.83398 11.1649 8.33265 11.1649C8.82998 11.1649 9.32799 10.9755 9.70732 10.5962L9.91924 10.3842C9.96057 10.3428 10.018 10.3188 10.0766 10.3188H10.0966L10.9052 13.1555L10.0053 12.7948ZM11.8906 7.00014L11.678 7.21279C11.4467 7.44345 11.32 7.7508 11.32 8.0768V8.37547C11.32 8.89547 10.8966 9.31883 10.3766 9.31883H10.0779C9.75593 9.31883 9.44068 9.44947 9.21334 9.67747L9.00127 9.88946C8.6446 10.2455 8.0233 10.2455 7.66663 9.88946L7.45456 9.67682C7.22722 9.44948 6.91264 9.31883 6.58997 9.31883H6.29131C5.77131 9.31883 5.34795 8.89547 5.34795 8.37547V8.0768C5.34795 7.75013 5.22137 7.44347 4.99004 7.21214L4.77731 7.00014C4.40998 6.63214 4.40998 6.03284 4.77731 5.66551L4.99004 5.45286C5.22137 5.22219 5.34795 4.91485 5.34795 4.58885V4.29018C5.34795 3.77018 5.77131 3.34682 6.29131 3.34682H6.58997C6.91197 3.34682 7.22722 3.21618 7.45456 2.98818L7.66663 2.77618C8.0233 2.42018 8.6446 2.42018 9.00127 2.77618L9.21334 2.98883C9.44068 3.21616 9.75526 3.34682 10.0779 3.34682H10.3766C10.8966 3.34682 11.32 3.77018 11.32 4.29018V4.58885C11.32 4.91551 11.4467 5.22218 11.678 5.45351L11.8906 5.66551C12.2579 6.03351 12.2579 6.63214 11.8906 7.00014ZM10.02 5.09015C10.2153 5.28548 10.2153 5.60217 10.02 5.7975L8.24199 7.5755C8.14799 7.6695 8.0213 7.72215 7.88864 7.72215C7.75597 7.72215 7.62862 7.6695 7.53529 7.5755L6.64661 6.68683C6.45128 6.49149 6.45128 6.1748 6.64661 5.97947C6.84261 5.78347 7.1593 5.7848 7.35397 5.97947L7.88929 6.51479L9.31393 5.09015C9.5086 4.89481 9.82465 4.89481 10.02 5.09015Z" fill="#3B3B3E"/>
</svg>
