<svg width="16" height="16" viewBox="0 0 16 16" fill="none" xmlns="http://www.w3.org/2000/svg">
<path d="M12.0001 4.16699H8.87411L7.02075 2.31366C6.92675 2.21966 6.80007 2.16699 6.6674 2.16699H4.00073C2.38873 2.16699 1.50073 3.05499 1.50073 4.66699V11.3337C1.50073 12.9457 2.38873 13.8337 4.00073 13.8337H12.0007C13.6127 13.8337 14.5007 12.9457 14.5007 11.3337V6.66699C14.5001 5.05499 13.6121 4.16699 12.0001 4.16699ZM13.5001 11.3337C13.5001 12.385 13.0514 12.8337 12.0001 12.8337H4.00008C2.94875 12.8337 2.50008 12.385 2.50008 11.3337V4.66699C2.50008 3.61566 2.94875 3.16699 4.00008 3.16699H6.45939L8.31274 5.02032C8.40674 5.11432 8.53343 5.16699 8.6661 5.16699H11.9994C13.0508 5.16699 13.4994 5.61566 13.4994 6.66699V11.3337H13.5001ZM10.1667 9.00033C10.1667 9.27633 9.94275 9.50033 9.66675 9.50033H8.50008V10.667C8.50008 10.943 8.27608 11.167 8.00008 11.167C7.72408 11.167 7.50008 10.943 7.50008 10.667V9.50033H6.33341C6.05741 9.50033 5.83341 9.27633 5.83341 9.00033C5.83341 8.72433 6.05741 8.50033 6.33341 8.50033H7.50008V7.33366C7.50008 7.05766 7.72408 6.83366 8.00008 6.83366C8.27608 6.83366 8.50008 7.05766 8.50008 7.33366V8.50033H9.66675C9.94275 8.50033 10.1667 8.72433 10.1667 9.00033Z" fill="#3B3B3E"/>
</svg>
