<svg width="16" height="16" viewBox="0 0 16 16" fill="none" xmlns="http://www.w3.org/2000/svg">
<path d="M8 15.1669C7.94667 15.1669 7.89329 15.1582 7.84196 15.1409C6.78263 14.7875 1.5 12.7482 1.5 7.25887V3.33357C1.5 3.09557 1.66802 2.8895 1.90202 2.8435C5.15535 2.19283 6.3087 1.6209 7.76937 0.896236C7.9107 0.826236 8.0973 0.816958 8.2373 0.886958C9.67664 1.61296 10.814 2.18617 14.0986 2.8435C14.3326 2.89017 14.5007 3.09557 14.5007 3.33357V7.25952C14.5007 12.7488 9.21802 14.7882 8.15869 15.1415C8.10669 15.1582 8.05333 15.1669 8 15.1669ZM2.5 3.74161V7.25887C2.5 11.8355 6.77867 13.699 8 14.137C9.22133 13.699 13.5 11.8349 13.5 7.25887V3.74161C10.5513 3.12428 9.31193 2.54617 8.00993 1.89217C6.62526 2.57683 5.42333 3.13095 2.5 3.74161ZM8 11.0002C7.93 11.0002 7.85928 10.9856 7.79395 10.9563C7.69195 10.9103 5.28459 9.80156 4.89193 7.79223C4.73326 6.97956 4.89071 6.20893 5.32471 5.6796C5.68604 5.23827 6.20205 5.00356 6.81738 5.00089C6.82072 5.00089 6.82333 5.00089 6.82666 5.00089C7.33999 5.00089 7.72602 5.21227 7.99935 5.47827C8.27268 5.21227 8.65872 5.00089 9.17139 5.00089C9.17405 5.00089 9.17733 5.00089 9.18066 5.00089C9.79666 5.00356 10.3127 5.23828 10.674 5.67895C11.1073 6.20828 11.2659 6.97823 11.1066 7.79223C10.7139 9.80156 8.30726 10.9103 8.20459 10.9563C8.14059 10.9856 8.07 11.0002 8 11.0002ZM6.82666 6.00024C6.82533 6.00024 6.82474 6.00024 6.82341 6.00024C6.51141 6.00157 6.2673 6.10692 6.09863 6.31225C5.85797 6.60625 5.77402 7.08819 5.87402 7.59952C6.11069 8.81152 7.47402 9.65486 7.99935 9.93953C8.52468 9.65553 9.88801 8.81219 10.1247 7.59952C10.2247 7.08686 10.1407 6.6056 9.90007 6.3116C9.7314 6.10627 9.48798 6.00159 9.17464 5.99959C9.17331 5.99959 9.17272 5.99959 9.17139 5.99959C8.68072 5.99959 8.49069 6.48623 8.47135 6.54223C8.40002 6.7409 8.21002 6.87556 7.99935 6.87556C7.99802 6.87556 7.99598 6.87556 7.99398 6.87556C7.78131 6.87356 7.59207 6.73886 7.52474 6.53686C7.50807 6.48686 7.31866 6.00024 6.82666 6.00024ZM10.6167 7.69555H10.6234H10.6167Z" fill="#3B3B3E"/>
</svg>
