<svg width="16" height="16" viewBox="0 0 16 16" fill="none" xmlns="http://www.w3.org/2000/svg">
<path d="M12.6666 11.3337C12.6666 11.6097 12.4426 11.8337 12.1666 11.8337H11.8333V12.167C11.8333 12.443 11.6093 12.667 11.3333 12.667C11.0573 12.667 10.8333 12.443 10.8333 12.167V11.8337H10.4999C10.2239 11.8337 9.99995 11.6097 9.99995 11.3337C9.99995 11.0577 10.2239 10.8337 10.4999 10.8337H10.8333V10.5003C10.8333 10.2243 11.0573 10.0003 11.3333 10.0003C11.6093 10.0003 11.8333 10.2243 11.8333 10.5003V10.8337H12.1666C12.4426 10.8337 12.6666 11.0577 12.6666 11.3337ZM14.4999 11.3337C14.4999 13.0797 13.0793 14.5003 11.3333 14.5003C10.5966 14.5003 9.92662 14.237 9.38862 13.8136C8.70729 14.2283 8.22859 14.4457 8.20592 14.4563C8.13992 14.4857 8.07061 14.5003 7.99995 14.5003C7.92928 14.5003 7.85859 14.4856 7.79259 14.4556C7.57459 14.3563 2.44129 11.9803 1.62128 7.74166C1.30328 6.09899 1.62264 4.49833 2.47464 3.46033C3.16464 2.62033 4.15596 2.17299 5.34329 2.16699C5.34729 2.16699 5.35199 2.16699 5.35599 2.16699C6.71465 2.16699 7.54128 2.93965 7.99995 3.59631C8.45795 2.93965 9.28527 2.16699 10.6426 2.16699C10.6466 2.16699 10.6506 2.16699 10.6553 2.16699C11.8446 2.17299 12.8373 2.61968 13.5266 3.45968C14.378 4.49701 14.6966 6.09764 14.378 7.74231C14.268 8.30231 14.0746 8.85298 13.8113 9.38631C14.236 9.92498 14.4999 10.5957 14.4999 11.3337ZM8.68794 13.0663C8.3606 12.5677 8.16661 11.9737 8.16661 11.3337C8.16661 9.58766 9.58728 8.16699 11.3333 8.16699C11.9586 8.16699 12.5379 8.35499 13.0292 8.66899C13.1886 8.30099 13.3213 7.92832 13.3953 7.55098C13.658 6.19698 13.4173 4.90432 12.7526 4.09432C12.2513 3.48365 11.5439 3.17166 10.6499 3.16699C10.6473 3.16699 10.6446 3.16699 10.642 3.16699C9.05796 3.16699 8.49592 4.75298 8.47325 4.82031C8.40392 5.02231 8.21328 5.15967 7.99995 5.15967C7.99861 5.15967 7.99793 5.15967 7.99726 5.15967C7.78326 5.159 7.59327 5.02234 7.52461 4.81901C7.50261 4.75368 6.94059 3.16764 5.35525 3.16764C5.35259 3.16764 5.34994 3.16764 5.34728 3.16764C4.45594 3.17231 3.74926 3.48433 3.24726 4.09566C2.58193 4.907 2.34132 6.19899 2.60265 7.55233C3.23732 10.8363 7.06393 12.9677 8.0006 13.4443C8.15793 13.365 8.39994 13.235 8.68794 13.0663ZM13.4999 11.3337C13.4999 10.139 12.5279 9.16699 11.3333 9.16699C10.1386 9.16699 9.16661 10.139 9.16661 11.3337C9.16661 12.5283 10.1386 13.5003 11.3333 13.5003C12.5279 13.5003 13.4999 12.5283 13.4999 11.3337Z" fill="#3B3B3E"/>
</svg>
