<svg width="16" height="16" viewBox="0 0 16 16" fill="none" xmlns="http://www.w3.org/2000/svg">
<path d="M11.778 0.833008H4.22201C2.46667 0.833008 1.5 1.79968 1.5 3.55501V10.2217C1.5 11.977 2.46667 12.9437 4.22201 12.9437H5.22201C5.41334 12.9437 5.59668 13.035 5.71134 13.1884L6.71069 14.5216C7.01803 14.931 7.48733 15.1663 8 15.1663C8.51267 15.1663 8.98199 14.931 9.28866 14.5224L10.2887 13.189C10.404 13.0357 10.5867 12.9437 10.778 12.9437H11.778C13.5333 12.9437 14.5 11.977 14.5 10.2217V3.55501C14.5 1.79968 13.5333 0.833008 11.778 0.833008ZM13.5 10.2217C13.5 11.429 12.9853 11.9437 11.778 11.9437H10.778C10.274 11.9437 9.79202 12.1843 9.48869 12.5883L8.48804 13.9217C8.25604 14.2324 7.74399 14.2324 7.51066 13.9217L6.51066 12.5883C6.20799 12.185 5.72535 11.9443 5.22135 11.9443H4.22135C3.01402 11.9443 2.49935 11.4297 2.49935 10.2223V3.55566C2.49935 2.34833 3.01402 1.83366 4.22135 1.83366H11.7773C12.9847 1.83366 13.4993 2.34833 13.4993 3.55566V10.2217H13.5ZM10.0767 5.111H9.20264V4.47233C9.20264 3.951 8.94334 3.46701 8.51001 3.17834C8.23868 2.99768 7.90598 2.95234 7.59798 3.05168C7.28865 3.15101 7.04596 3.38301 6.92529 3.70634L6.22998 5.81502H5.36068C4.79334 5.81502 4.33268 6.27568 4.33268 6.84302V9.30636C4.33268 9.87302 4.79334 10.3344 5.36068 10.3344H9.37337C10.3587 10.3344 10.6647 9.823 10.8494 9.271L11.5533 7.15967C11.742 6.59167 11.6947 6.069 11.42 5.68766C11.2307 5.42366 10.844 5.111 10.0767 5.111ZM5.33333 9.309V6.81502H5.83333V9.309H5.33333ZM10.604 6.84167L9.90064 8.953C9.79264 9.275 9.77404 9.33301 9.37337 9.33301L6.83268 9.31567V6.74634C6.94002 6.68634 7.02665 6.59299 7.06665 6.47099L7.87467 4.019L7.95532 4.00968C8.10999 4.11302 8.20264 4.28568 8.20264 4.47168V5.61035C8.20264 5.88635 8.42664 6.11035 8.70264 6.11035H10.0767C10.3447 6.11035 10.5346 6.167 10.6086 6.271C10.6866 6.37966 10.6853 6.59834 10.604 6.84167Z" fill="#3B3B3E"/>
</svg>
