<svg width="16" height="16" viewBox="0 0 16 16" fill="none" xmlns="http://www.w3.org/2000/svg">
<path d="M13.8133 6.57919L10.406 3.88795C9.86263 3.45928 9.13998 3.38058 8.51664 3.68124C7.88998 3.98524 7.50061 4.60852 7.50061 5.30852V6.33131L4.40596 3.8873C3.86263 3.45863 3.13998 3.37992 2.51664 3.68059C1.88998 3.98459 1.50061 4.60787 1.50061 5.30787V10.6899C1.50061 11.3899 1.88998 12.0133 2.51664 12.3173C2.76731 12.4386 3.03394 12.498 3.29928 12.498C3.69261 12.498 4.0813 12.3666 4.40596 12.11L7.50061 9.66594V10.6892C7.50061 11.3892 7.88998 12.0127 8.51664 12.3167C8.76731 12.438 9.03394 12.4973 9.29928 12.4973C9.69261 12.4973 10.0813 12.366 10.406 12.1093L13.8133 9.4179C14.2493 9.07323 14.5 8.55532 14.5 7.99732C14.5 7.43932 14.2493 6.92386 13.8133 6.57919ZM7.19332 8.63599L3.78593 11.3272C3.54326 11.5199 3.23193 11.5539 2.9526 11.4192C2.66926 11.2819 2.49996 11.01 2.49996 10.692V5.30999C2.49996 4.99132 2.66926 4.71994 2.9526 4.58261C3.06526 4.52794 3.18326 4.50123 3.29993 4.50123C3.47193 4.50123 3.64126 4.55992 3.78593 4.67392L7.19332 7.36467C7.38798 7.51867 7.49996 7.75058 7.49996 8.00058C7.49996 8.25058 7.38798 8.48199 7.19332 8.63599ZM13.1933 8.63599L9.78593 11.3272C9.54326 11.5199 9.23193 11.5539 8.9526 11.4192C8.66926 11.2819 8.49996 11.01 8.49996 10.692V5.30999C8.49996 4.99132 8.66926 4.71994 8.9526 4.58261C9.06526 4.52794 9.18326 4.50123 9.29993 4.50123C9.47193 4.50123 9.64126 4.55992 9.78593 4.67392L13.1933 7.36467C13.388 7.51867 13.5 7.75058 13.5 8.00058C13.5 8.25058 13.388 8.48199 13.1933 8.63599Z" fill="#3B3B3E"/>
</svg>
