<svg width="16" height="16" viewBox="0 0 16 16" fill="none" xmlns="http://www.w3.org/2000/svg">
<path d="M14.0981 2.84373C10.8135 2.18707 9.67615 1.61386 8.23682 0.887191C8.09615 0.817191 7.90955 0.825802 7.76888 0.896469C6.30888 1.62047 5.15486 2.19307 1.90153 2.84373C1.66753 2.8904 1.49951 3.09581 1.49951 3.33381V7.25975C1.49951 12.7491 6.78214 14.7884 7.84147 15.1417C7.8928 15.1591 7.94618 15.1678 7.99951 15.1678C8.05285 15.1678 8.10622 15.1591 8.15755 15.1417C9.21689 14.7884 14.4995 12.7491 14.4995 7.25975V3.33381C14.5002 3.09581 14.3321 2.88973 14.0981 2.84373ZM13.5002 7.25975C13.5002 11.8364 9.2215 13.6998 8.00016 14.1378C6.77883 13.6998 2.50016 11.8357 2.50016 7.25975V3.7425C5.4235 3.13183 6.62542 2.57788 8.01009 1.89321C9.31209 2.54721 10.5515 3.12516 13.5002 3.7425V7.25975ZM8.00684 6.33381H8.01351C8.56618 6.33381 9.01351 6.78114 9.01351 7.33381C9.01351 7.70847 8.8055 8.03112 8.50016 8.20246V10.0005C8.50016 10.2765 8.27616 10.5005 8.00016 10.5005C7.72416 10.5005 7.50016 10.2765 7.50016 10.0005V8.18846C7.20816 8.01379 7.01009 7.69781 7.01009 7.33381C7.01009 6.78114 7.45484 6.33381 8.00684 6.33381Z" fill="#3B3B3E"/>
</svg>
