<svg width="16" height="16" viewBox="0 0 16 16" fill="none" xmlns="http://www.w3.org/2000/svg">
<path d="M7.99977 13.1665C7.87177 13.1665 7.74375 13.1179 7.64642 13.0199L2.97975 8.35321C2.78442 8.15787 2.78442 7.84118 2.97975 7.64585L7.64642 2.97918C7.84175 2.78385 8.15844 2.78385 8.35378 2.97918C8.54911 3.17452 8.54911 3.49121 8.35378 3.68654L4.04046 7.99985L8.35378 12.3132C8.54911 12.5085 8.54911 12.8252 8.35378 13.0205C8.25578 13.1179 8.12777 13.1665 7.99977 13.1665ZM13.0198 13.0199C13.2151 12.8245 13.2151 12.5078 13.0198 12.3125L8.70648 7.9992L13.0198 3.68589C13.2151 3.49055 13.2151 3.17386 13.0198 2.97853C12.8245 2.7832 12.5078 2.7832 12.3124 2.97853L7.64577 7.6452C7.45043 7.84053 7.45043 8.15722 7.64577 8.35256L12.3124 13.0192C12.4098 13.1166 12.5378 13.1659 12.6658 13.1659C12.7938 13.1659 12.9225 13.1179 13.0198 13.0199Z" fill="#3B3B3E"/>
</svg>
