<svg width="16" height="16" viewBox="0 0 16 16" fill="none" xmlns="http://www.w3.org/2000/svg">
<path d="M14.4593 8.67234C14.4593 8.67034 14.4606 8.66834 14.4606 8.66634C14.4606 8.66034 14.4574 8.65568 14.4574 8.64968C14.4494 8.60235 14.44 8.555 14.4287 8.50767C14.4234 8.49167 14.4207 8.47568 14.4141 8.46035C14.3821 8.33568 14.35 8.21168 14.2987 8.09168L12.9793 5.01434C12.6453 4.23501 12.33 3.499 10.6813 3.499C10.4053 3.499 10.1813 3.723 10.1813 3.999C10.1813 4.275 10.4053 4.499 10.6813 4.499C11.6706 4.499 11.7607 4.70968 12.0601 5.40835L13.242 8.16567H11.3633C10.5299 8.16567 9.75741 8.63567 9.29541 9.42367C9.02808 9.881 8.53133 10.1657 8 10.1657C7.46867 10.1657 6.97192 9.88101 6.70459 9.42301C6.24326 8.63568 5.47005 8.16567 4.63672 8.16567H2.75798L3.93994 5.40835C4.23927 4.70968 4.32935 4.499 5.31869 4.499C5.59469 4.499 5.81869 4.275 5.81869 3.999C5.81869 3.723 5.59469 3.499 5.31869 3.499C3.66935 3.499 3.35467 4.23501 3.02067 5.01434L1.70133 8.09235C1.65 8.21168 1.61794 8.33568 1.58594 8.45968C1.57927 8.47501 1.57662 8.49167 1.57129 8.50767C1.55996 8.55434 1.55131 8.60167 1.54264 8.64901C1.54264 8.65501 1.53939 8.65967 1.53939 8.66567C1.53939 8.66767 1.54069 8.66901 1.54069 8.67167C1.51869 8.80501 1.5 8.93967 1.5 9.07633V11.9997C1.5 13.6117 2.388 14.4997 4 14.4997H12C13.612 14.4997 14.5 13.6117 14.5 11.9997V9.07701C14.5 8.93967 14.4813 8.80568 14.4593 8.67234ZM12 13.4997H4C2.94867 13.4997 2.5 13.051 2.5 11.9997V9.16634H4.63672C5.11139 9.16634 5.56131 9.45168 5.84131 9.92902C6.28731 10.6923 7.11467 11.1663 8 11.1663C8.88533 11.1663 9.71269 10.6923 10.1587 9.92967C10.4387 9.45167 10.8886 9.16634 11.3633 9.16634H13.5V11.9997C13.5 13.051 13.0513 13.4997 12 13.4997ZM6.31331 5.68634C6.11798 5.49101 6.11798 5.17434 6.31331 4.979C6.50865 4.78367 6.82534 4.78367 7.02067 4.979L7.50065 5.459V1.33301C7.50065 1.05701 7.72465 0.833008 8.00065 0.833008C8.27665 0.833008 8.50065 1.05701 8.50065 1.33301V5.459L8.98063 4.979C9.17597 4.78367 9.49266 4.78367 9.68799 4.979C9.88332 5.17434 9.88332 5.49101 9.68799 5.68634L8.35466 7.01967C8.30866 7.06567 8.25339 7.10233 8.19206 7.12767C8.13072 7.153 8.06598 7.16634 8.00065 7.16634C7.93532 7.16634 7.87074 7.153 7.80941 7.12767C7.74807 7.10233 7.69265 7.06567 7.64665 7.01967L6.31331 5.68634Z" fill="#3B3B3E"/>
</svg>
