<svg width="16" height="16" viewBox="0 0 16 16" fill="none" xmlns="http://www.w3.org/2000/svg">
<path d="M8.00016 0.833008C4.04816 0.833008 0.833496 4.04767 0.833496 7.99967C0.833496 11.9517 4.04816 15.1663 8.00016 15.1663C11.9522 15.1663 15.1668 11.9517 15.1668 7.99967C15.1668 4.04767 11.9522 0.833008 8.00016 0.833008ZM8.00016 14.1663C4.5995 14.1663 1.8335 11.4003 1.8335 7.99967C1.8335 4.59901 4.5995 1.83301 8.00016 1.83301C11.4008 1.83301 14.1668 4.59901 14.1668 7.99967C14.1668 11.4003 11.4008 14.1663 8.00016 14.1663ZM9.3068 9.28564C9.23947 9.16698 9.12679 9.08104 8.99479 9.04704C8.86212 9.01437 8.72153 9.03508 8.6062 9.10775C8.25087 9.32975 7.74946 9.32975 7.39412 9.10775C7.27812 9.03575 7.1382 9.01437 7.00553 9.04704C6.87353 9.08104 6.76086 9.16698 6.69352 9.28564L5.51685 11.369C5.41818 11.547 5.39415 11.7603 5.45215 11.9536C5.51015 12.1456 5.63884 12.3011 5.81551 12.3931C6.49951 12.7464 7.23484 12.9256 7.99951 12.9256C8.76418 12.9256 9.49951 12.7464 10.1835 12.3931C10.1835 12.3931 10.1835 12.3931 10.1842 12.3924C10.3602 12.3011 10.4888 12.1449 10.5468 11.9536C10.6048 11.7596 10.5815 11.5471 10.4808 11.3657L9.3068 9.28564ZM6.52287 11.6217L7.34017 10.1756C7.76217 10.3103 8.23882 10.3103 8.66016 10.1756L9.47746 11.6217C8.53946 12.0264 7.45953 12.0257 6.52287 11.6217ZM10.6608 3.86361C10.4921 3.75027 10.2808 3.71307 10.0848 3.76107C9.88346 3.80973 9.71016 3.94163 9.61149 4.11963L8.34546 6.35368C8.27813 6.47101 8.26286 6.6104 8.30086 6.7404C8.33886 6.86973 8.42746 6.97898 8.54679 7.04232C8.92146 7.24032 9.15881 7.60364 9.18148 8.01497C9.19614 8.27964 9.4255 8.48698 9.69084 8.48698H12.0881C12.2955 8.48698 12.4948 8.40036 12.6361 8.24902C12.7741 8.10102 12.8448 7.90168 12.8328 7.70101C12.7428 6.15101 11.9315 4.71627 10.6608 3.86361ZM10.1002 7.48633C9.98618 7.08433 9.75752 6.72572 9.44019 6.44906L10.3381 4.86442C11.1455 5.50042 11.6782 6.44966 11.8088 7.48633H10.1002ZM6.8195 8.01432C6.84217 7.60299 7.08018 7.23967 7.45418 7.04167C7.57352 6.97833 7.66219 6.86975 7.70019 6.73975C7.73819 6.60975 7.72218 6.47036 7.65552 6.35303L6.39152 4.1224C6.29085 3.94106 6.11751 3.80907 5.91618 3.76107C5.72018 3.71307 5.50885 3.75042 5.33952 3.86442C4.06885 4.71775 3.25751 6.15227 3.16951 7.69694C3.15551 7.89894 3.22681 8.09969 3.36548 8.24902C3.50681 8.40036 3.70683 8.48698 3.91349 8.48698H6.32015C6.58482 8.48631 6.80417 8.27899 6.8195 8.01432ZM4.19149 7.48633C4.32215 6.44966 4.85486 5.50042 5.66219 4.86442L6.56014 6.44906C6.24214 6.72572 6.01415 7.08433 5.90015 7.48633H4.19149ZM8.00016 7.40706C8.36816 7.40706 8.66683 7.70573 8.66683 8.07373C8.66683 8.44173 8.36816 8.7404 8.00016 8.7404C7.63216 8.7404 7.3335 8.44173 7.3335 8.07373C7.3335 7.70573 7.63216 7.40706 8.00016 7.40706Z" fill="#3B3B3E"/>
</svg>
