<svg width="16" height="16" viewBox="0 0 16 16" fill="none" xmlns="http://www.w3.org/2000/svg">
<path d="M14.1154 10.4863C14.0761 10.4957 14.038 10.4997 13.9993 10.4997C13.7727 10.4997 13.568 10.3451 13.5133 10.1151C12.916 7.59374 10.6827 5.83301 8.08008 5.83301C5.98874 5.83301 4.08994 7.01567 3.14128 8.83301H4.66992C4.94592 8.83301 5.16992 9.05701 5.16992 9.33301C5.16992 9.60901 4.94592 9.83301 4.66992 9.83301H2C1.724 9.83301 1.5 9.60901 1.5 9.33301V6.66634C1.5 6.39034 1.724 6.16634 2 6.16634C2.276 6.16634 2.5 6.39034 2.5 6.66634V7.93294C3.68333 6.03828 5.78474 4.83301 8.08008 4.83301C11.1487 4.83301 13.7827 6.91028 14.486 9.88428C14.55 10.1529 14.3841 10.4223 14.1154 10.4863Z" fill="#3B3B3E"/>
</svg>
