<svg width="16" height="16" viewBox="0 0 16 16" fill="none" xmlns="http://www.w3.org/2000/svg">
<path d="M5.01983 5.68641L2.7065 7.99974L5.01983 10.3131C5.21517 10.5084 5.21517 10.8251 5.01983 11.0204C4.9225 11.1177 4.7945 11.1671 4.6665 11.1671C4.5385 11.1671 4.4105 11.1184 4.31317 11.0204L1.6465 8.35375C1.45117 8.15841 1.45117 7.84174 1.6465 7.64641L4.31317 4.97974C4.5085 4.78441 4.82517 4.78441 5.0205 4.97974C5.21517 5.17441 5.21517 5.49174 5.01983 5.68641ZM14.3532 7.64641L11.6865 4.97974C11.4912 4.78441 11.1745 4.78441 10.9792 4.97974C10.7838 5.17508 10.7838 5.49175 10.9792 5.68708L13.2925 8.00041L10.9792 10.3137C10.7838 10.5091 10.7838 10.8258 10.9792 11.0211C11.0765 11.1184 11.2045 11.1678 11.3325 11.1678C11.4605 11.1678 11.5885 11.1191 11.6858 11.0211L14.3525 8.35442C14.5485 8.15842 14.5485 7.84108 14.3532 7.64641ZM10.1752 2.19841C9.91783 2.10041 9.6285 2.23241 9.53184 2.49108L5.53184 13.1577C5.4345 13.4164 5.56583 13.7044 5.8245 13.8017C5.88183 13.8237 5.94183 13.8337 5.99983 13.8337C6.2025 13.8337 6.3925 13.7097 6.46783 13.5091L10.4678 2.84241C10.5652 2.58308 10.4338 2.29508 10.1752 2.19841Z" fill="#3B3B3E"/>
</svg>
