<svg width="16" height="16" viewBox="0 0 16 16" fill="none" xmlns="http://www.w3.org/2000/svg">
<path d="M5.66671 14.5H4.33337C3.39404 14.5 2.83337 13.9393 2.83337 13V3C2.83337 2.06067 3.39404 1.5 4.33337 1.5H5.66671C6.60604 1.5 7.16671 2.06067 7.16671 3V13C7.16671 13.9393 6.60604 14.5 5.66671 14.5ZM4.33337 2.5C3.94071 2.5 3.83337 2.60733 3.83337 3V13C3.83337 13.3927 3.94071 13.5 4.33337 13.5H5.66671C6.05937 13.5 6.16671 13.3927 6.16671 13V3C6.16671 2.60733 6.05937 2.5 5.66671 2.5H4.33337ZM11.6667 14.5H10.3334C9.39404 14.5 8.83337 13.9393 8.83337 13V3C8.83337 2.06067 9.39404 1.5 10.3334 1.5H11.6667C12.606 1.5 13.1667 2.06067 13.1667 3V13C13.1667 13.9393 12.606 14.5 11.6667 14.5ZM10.3334 2.5C9.94071 2.5 9.83337 2.60733 9.83337 3V13C9.83337 13.3927 9.94071 13.5 10.3334 13.5H11.6667C12.0594 13.5 12.1667 13.3927 12.1667 13V3C12.1667 2.60733 12.0594 2.5 11.6667 2.5H10.3334Z" fill="#3B3B3E"/>
</svg>
