<svg width="16" height="16" viewBox="0 0 16 16" fill="none" xmlns="http://www.w3.org/2000/svg">
<path d="M14.5 6.66667C14.5 6.94267 14.276 7.16667 14 7.16667H12.8333V8.33333C12.8333 8.60933 12.6093 8.83333 12.3333 8.83333C12.0573 8.83333 11.8333 8.60933 11.8333 8.33333V7.16667H10.6667C10.3907 7.16667 10.1667 6.94267 10.1667 6.66667C10.1667 6.39067 10.3907 6.16667 10.6667 6.16667H11.8333V5C11.8333 4.724 12.0573 4.5 12.3333 4.5C12.6093 4.5 12.8333 4.724 12.8333 5V6.16667H14C14.276 6.16667 14.5 6.39067 14.5 6.66667ZM3.83936 4.33333C3.83936 2.77133 5.11002 1.5 6.67269 1.5C8.23536 1.5 9.50602 2.77133 9.50602 4.33333C9.50602 5.89533 8.23536 7.16667 6.67269 7.16667C5.11002 7.16667 3.83936 5.89533 3.83936 4.33333ZM4.83936 4.33333C4.83936 5.34467 5.66136 6.16667 6.67269 6.16667C7.68402 6.16667 8.50602 5.34467 8.50602 4.33333C8.50602 3.322 7.68402 2.5 6.67269 2.5C5.66136 2.5 4.83936 3.322 4.83936 4.33333ZM8 8.16667H5.33333C2.504 8.16667 1.5 10.238 1.5 12.0127V14C1.5 14.276 1.724 14.5 2 14.5C2.276 14.5 2.5 14.276 2.5 14V12.0127C2.5 11.3454 2.70467 9.16667 5.33333 9.16667H8C10.6287 9.16667 10.8333 11.3447 10.8333 12.0127V14C10.8333 14.276 11.0573 14.5 11.3333 14.5C11.6093 14.5 11.8333 14.276 11.8333 14V12.0127C11.8333 10.238 10.8293 8.16667 8 8.16667Z" fill="#3B3B3E"/>
</svg>
