<svg width="16" height="16" viewBox="0 0 16 16" fill="none" xmlns="http://www.w3.org/2000/svg">
<path d="M13.8317 5.65475L9.37699 1.99273C8.57899 1.33739 7.421 1.33673 6.623 1.99273L2.16833 5.65475C1.655 6.07675 1.41034 6.74538 1.52901 7.39938L2.49906 12.7214C2.68706 13.7514 3.58372 14.4994 4.63106 14.4994H11.3677C12.415 14.4994 13.3117 13.7514 13.4997 12.7214L14.4697 7.39938C14.5897 6.74538 14.345 6.07675 13.8317 5.65475ZM13.4864 7.2201L12.5164 12.542C12.4157 13.0967 11.9324 13.4994 11.3684 13.4994H4.63171C4.06771 13.4994 3.58501 13.0967 3.48368 12.542L2.51371 7.22075C2.45904 6.92342 2.5704 6.61938 2.8044 6.42738L7.25899 2.76543C7.47365 2.58877 7.73703 2.5007 8.00036 2.5007C8.26369 2.5007 8.52707 2.58942 8.74173 2.76608L13.1963 6.42803C13.4297 6.61936 13.541 6.92277 13.4864 7.2201ZM11.1284 7.36276C11.1537 7.4241 11.167 7.48875 11.167 7.55409V9.22075C11.167 9.49675 10.943 9.72075 10.667 9.72075C10.391 9.72075 10.167 9.49675 10.167 9.22075V8.76071L9.12772 9.79937C8.76572 10.162 8.13233 10.162 7.769 9.79937L6.98303 9.0134L5.68705 10.3647C5.58971 10.462 5.46169 10.5114 5.33369 10.5114C5.20569 10.5114 5.07767 10.4627 4.98034 10.3647C4.78501 10.1694 4.78501 9.85277 4.98034 9.65744L6.33166 8.30604C6.69433 7.94337 7.32837 7.94337 7.69103 8.30604L8.47635 9.09136L9.48506 8.0527H9.00036C8.72436 8.0527 8.50036 7.8287 8.50036 7.5527C8.50036 7.2767 8.72436 7.0527 9.00036 7.0527H10.667C10.7324 7.0527 10.797 7.06603 10.8584 7.09136C10.9804 7.14336 11.0777 7.24076 11.1284 7.36276Z" fill="#3B3B3E"/>
</svg>
