<svg width="16" height="16" viewBox="0 0 16 16" fill="none" xmlns="http://www.w3.org/2000/svg">
<path d="M14.5 5.5666C14.5 4.96926 14.2173 4.38386 13.66 3.82653L12.174 2.34052C11.0507 1.21786 9.81601 1.21919 8.69401 2.34052L2.34001 8.69453C1.78267 9.25186 1.5 9.83712 1.5 10.4338C1.49933 11.0311 1.78267 11.6165 2.34001 12.1739L3.82601 13.6599C4.38334 14.2172 4.96867 14.4999 5.566 14.4999C6.16333 14.4999 6.74867 14.2172 7.30534 13.6599L9.12997 11.8352C9.1373 11.8285 9.14599 11.8265 9.15332 11.8199C9.16065 11.8132 9.16204 11.8039 9.1687 11.7972L11.7974 9.16849C11.804 9.16249 11.8133 9.1605 11.82 9.15384C11.8267 9.14717 11.8286 9.13855 11.8346 9.13121L13.6593 7.30651C14.2173 6.74917 14.5 6.16393 14.5 5.5666ZM8.79598 10.7559L5.24398 7.2038L7.20337 5.24449L10.7554 8.79658L8.79598 10.7559ZM6.59863 12.9532C5.87197 13.6798 5.25663 13.6778 4.53263 12.9532L3.04663 11.4672C2.6833 11.1045 2.5 10.7566 2.5 10.4346C2.5 10.1126 2.6833 9.76455 3.04663 9.40188L4.5367 7.91181L8.08871 11.4639L6.59863 12.9532ZM12.9534 6.5985L11.4633 8.08857L7.9113 4.53649L9.40202 3.04593C9.76869 2.67926 10.102 2.4958 10.4353 2.4958C10.768 2.4958 11.1014 2.67926 11.468 3.04593L12.954 4.53193C13.3167 4.8946 13.5007 5.24247 13.5007 5.56513C13.5007 5.8878 13.316 6.23583 12.9534 6.5985ZM10.3333 4.8332C10.3333 5.1092 10.1093 5.3332 9.83333 5.3332C9.55733 5.3332 9.33333 5.1092 9.33333 4.8332C9.33333 4.5572 9.55733 4.3332 9.83333 4.3332C10.1093 4.3332 10.3333 4.5572 10.3333 4.8332ZM5.33333 9.86657C5.33333 10.1426 5.10933 10.3666 4.83333 10.3666C4.55733 10.3666 4.33333 10.1426 4.33333 9.86657C4.33333 9.59057 4.55733 9.36657 4.83333 9.36657C5.10933 9.36657 5.33333 9.59057 5.33333 9.86657ZM5 11.4999C5 11.7759 4.776 11.9999 4.5 11.9999C4.224 11.9999 4 11.7759 4 11.4999C4 11.2239 4.224 10.9999 4.5 10.9999C4.776 10.9999 5 11.2239 5 11.4999ZM6.66667 11.1665C6.66667 11.4425 6.44267 11.6665 6.16667 11.6665C5.89067 11.6665 5.66667 11.4425 5.66667 11.1665C5.66667 10.8905 5.89067 10.6665 6.16667 10.6665C6.44267 10.6665 6.66667 10.8905 6.66667 11.1665ZM12 4.53323C12 4.80923 11.776 5.03323 11.5 5.03323C11.224 5.03323 11 4.80923 11 4.53323C11 4.25723 11.224 4.03323 11.5 4.03323C11.776 4.03323 12 4.25723 12 4.53323ZM11.6667 6.16653C11.6667 6.44253 11.4427 6.66653 11.1667 6.66653C10.8907 6.66653 10.6667 6.44253 10.6667 6.16653C10.6667 5.89053 10.8907 5.66653 11.1667 5.66653C11.4427 5.66653 11.6667 5.89053 11.6667 6.16653Z" fill="#3B3B3E"/>
</svg>
