<svg width="16" height="16" viewBox="0 0 16 16" fill="none" xmlns="http://www.w3.org/2000/svg">
<path d="M12.8928 1.67072L8.51597 0.898752C7.65464 0.747419 6.94464 0.86141 6.40464 1.23941C5.86464 1.61741 5.51463 2.24539 5.3633 3.10672L5.29136 3.51606L3.10532 3.90075C1.37599 4.20808 0.59275 5.32939 0.900084 7.05805L1.92938 12.8934C2.07871 13.7548 2.42668 14.3827 2.96535 14.7607C3.35068 15.0307 3.82268 15.1667 4.37534 15.1667C4.59668 15.1667 4.83195 15.1447 5.07928 15.1007L9.45998 14.3294C10.7046 14.1041 11.2653 13.5027 11.5147 12.9234C11.5467 12.9241 11.5834 12.9327 11.6148 12.9327C12.9481 12.9327 13.8108 12.1447 14.0734 10.6601L15.1021 4.82409C15.4054 3.09542 14.6221 1.97539 12.8928 1.67072ZM9.28403 13.3454L4.90529 14.116C4.31329 14.22 3.85406 14.1627 3.54006 13.942C3.22672 13.722 3.01673 13.3121 2.91473 12.7207L1.88462 6.88272C1.67395 5.69339 2.09132 5.09609 3.27932 4.88475L5.10598 4.56338L4.334 8.94274C4.02934 10.6721 4.81334 11.7921 6.54201 12.0967L10.4421 12.7841C10.2567 13.0034 9.92137 13.2294 9.28403 13.3454ZM14.1167 4.65075L13.0881 10.4867C12.8781 11.6761 12.2813 12.0941 11.092 11.8841L6.71535 11.1121C5.52668 10.9028 5.10872 10.3061 5.31805 9.11673L6.34735 3.28075C6.45135 2.69008 6.66405 2.27875 6.97805 2.05875C7.19205 1.90941 7.4721 1.83405 7.8161 1.83405C7.97743 1.83405 8.1533 1.85073 8.34263 1.88406L12.7194 2.65608C13.9081 2.86474 14.3261 3.46141 14.1167 4.65075Z" fill="#3B3B3E"/>
</svg>
