<svg width="16" height="16" viewBox="0 0 16 16" fill="none" xmlns="http://www.w3.org/2000/svg">
<path d="M10.6666 12.5H5.33325C2.85192 12.5 0.833252 10.4813 0.833252 8C0.833252 5.51867 2.85192 3.5 5.33325 3.5H10.6666C13.1479 3.5 15.1666 5.51867 15.1666 8C15.1666 10.4813 13.1479 12.5 10.6666 12.5ZM5.33325 4.5C3.40325 4.5 1.83325 6.07 1.83325 8C1.83325 9.93 3.40325 11.5 5.33325 11.5H10.6666C12.5966 11.5 14.1666 9.93 14.1666 8C14.1666 6.07 12.5966 4.5 10.6666 4.5H5.33325ZM5.33325 10.5C3.95525 10.5 2.83325 9.37867 2.83325 8C2.83325 6.62133 3.95525 5.5 5.33325 5.5C6.71125 5.5 7.83325 6.62133 7.83325 8C7.83325 9.37867 6.71125 10.5 5.33325 10.5ZM5.33325 6.5C4.50659 6.5 3.83325 7.17267 3.83325 8C3.83325 8.82733 4.50659 9.5 5.33325 9.5C6.15992 9.5 6.83325 8.82733 6.83325 8C6.83325 7.17267 6.15992 6.5 5.33325 6.5Z" fill="#3B3B3E"/>
</svg>
