<svg width="16" height="16" viewBox="0 0 16 16" fill="none" xmlns="http://www.w3.org/2000/svg">
<path d="M11.0346 14.5014C10.7286 14.5014 10.4207 14.4601 10.1167 14.3768C6.00732 13.2488 2.75265 9.99676 1.62398 5.88943C1.36732 4.95543 1.50795 3.98209 2.02128 3.15009C2.53661 2.31409 3.38399 1.72475 4.34599 1.53209C4.98132 1.40475 5.61865 1.68876 5.94332 2.23676L6.98531 3.99608C7.49131 4.85074 7.23989 5.95208 6.41256 6.50208L5.65865 7.00342C6.36332 8.45075 7.54855 9.63876 8.98922 10.3428L9.49735 9.58476C10.05 8.75876 11.152 8.51142 12.006 9.02008L13.768 10.0707C14.3134 10.3961 14.596 11.0321 14.4713 11.6541C14.2793 12.6161 13.6893 13.4634 12.854 13.9787C12.2926 14.3247 11.668 14.5014 11.0346 14.5014ZM4.65198 2.50008C4.61931 2.50008 4.58599 2.50343 4.55399 2.51009C3.85133 2.65076 3.24333 3.07408 2.87333 3.67475C2.50733 4.26808 2.40665 4.96075 2.58931 5.62409C3.62465 9.39342 6.61064 12.3774 10.3813 13.4121C11.0446 13.5941 11.7366 13.4928 12.3286 13.1274C12.9286 12.7574 13.3527 12.1481 13.4907 11.4574C13.532 11.2501 13.438 11.0374 13.256 10.9294L11.4939 9.87875C11.0953 9.64208 10.5839 9.75809 10.3279 10.1414L9.58459 11.2514C9.45126 11.4501 9.19402 11.5261 8.97668 11.4341C7.00135 10.6088 5.39467 8.99742 4.56734 7.01475C4.47534 6.79342 4.55324 6.53876 4.75191 6.40609L5.85933 5.66942C6.24333 5.41408 6.35997 4.90275 6.12463 4.50609L5.08264 2.74675C4.99131 2.59141 4.82598 2.50008 4.65198 2.50008ZM9.91256 9.86276H9.91923H9.91256ZM11.8333 6.66675C11.8333 5.28808 10.7113 4.16675 9.33329 4.16675C9.05729 4.16675 8.83329 4.39075 8.83329 4.66675C8.83329 4.94275 9.05729 5.16675 9.33329 5.16675C10.16 5.16675 10.8333 5.83942 10.8333 6.66675C10.8333 6.94275 11.0573 7.16675 11.3333 7.16675C11.6093 7.16675 11.8333 6.94275 11.8333 6.66675ZM13.8333 6.66675C13.8333 4.18542 11.8146 2.16675 9.33329 2.16675C9.05729 2.16675 8.83329 2.39075 8.83329 2.66675C8.83329 2.94275 9.05729 3.16675 9.33329 3.16675C11.2633 3.16675 12.8333 4.73675 12.8333 6.66675C12.8333 6.94275 13.0573 7.16675 13.3333 7.16675C13.6093 7.16675 13.8333 6.94275 13.8333 6.66675Z" fill="#3B3B3E"/>
</svg>
