<svg width="16" height="16" viewBox="0 0 16 16" fill="none" xmlns="http://www.w3.org/2000/svg">
<path d="M10.302 10.281C10.522 10.4477 10.5653 10.7616 10.3987 10.9816C10.3007 11.111 10.1507 11.1797 9.9994 11.1797C9.89473 11.1797 9.78813 11.1463 9.69813 11.0777C8.72413 10.3383 7.27597 10.3383 6.30197 11.0777C6.08331 11.245 5.76812 11.2016 5.60145 10.9816C5.43478 10.7616 5.47746 10.4483 5.69813 10.281C7.02213 9.27565 8.97797 9.27565 10.302 10.281ZM8.00005 6.84033C6.41072 6.84033 4.87471 7.409 3.67404 8.441C3.46538 8.621 3.44064 8.93632 3.62131 9.14632C3.80197 9.35632 4.11738 9.379 4.32671 9.19967C5.34538 8.32367 6.65004 7.84098 8.0007 7.84098C9.35137 7.84098 10.6554 8.32367 11.6747 9.19967C11.7694 9.281 11.8847 9.32033 12.0007 9.32033C12.1414 9.32033 12.2808 9.26099 12.3794 9.14632C12.5601 8.93699 12.5354 8.621 12.3267 8.441C11.1254 7.409 9.58939 6.84033 8.00005 6.84033ZM14.3334 6.58966C12.5894 5.02766 10.3407 4.16699 8.00005 4.16699C5.65939 4.16699 3.41072 5.02766 1.66672 6.58966C1.46072 6.77366 1.44333 7.08965 1.62733 7.29565C1.81133 7.50165 2.12805 7.51833 2.33338 7.33433C3.89405 5.937 5.90605 5.16699 8.00005 5.16699C10.0941 5.16699 12.1061 5.937 13.6667 7.33433C13.7621 7.41966 13.8807 7.46165 14.0001 7.46165C14.1374 7.46165 14.2734 7.40565 14.3728 7.29498C14.5568 7.08965 14.5394 6.77366 14.3334 6.58966ZM8.00005 12.0003C7.63205 12.0003 7.33339 12.299 7.33339 12.667C7.33339 13.035 7.63205 13.3337 8.00005 13.3337C8.36805 13.3337 8.66672 13.035 8.66672 12.667C8.66672 12.299 8.36805 12.0003 8.00005 12.0003Z" fill="#3B3B3E"/>
</svg>
