<svg width="16" height="16" viewBox="0 0 16 16" fill="none" xmlns="http://www.w3.org/2000/svg">
<path d="M8.00002 1.5C4.78335 1.5 2.16669 4.11667 2.16669 7.33333C2.16669 10.7453 5.29802 12.8133 7.37002 14.182L7.7227 14.416C7.8067 14.472 7.90335 14.5 8.00002 14.5C8.09669 14.5 8.19334 14.472 8.27734 14.416L8.63003 14.182C10.702 12.8133 13.8334 10.7453 13.8334 7.33333C13.8334 4.11667 11.2167 1.5 8.00002 1.5ZM8.07935 13.3473L8.00002 13.4001L7.9207 13.3473C5.91403 12.022 3.16669 10.2073 3.16669 7.33333C3.16669 4.668 5.33469 2.5 8.00002 2.5C10.6654 2.5 12.8334 4.668 12.8334 7.33333C12.8334 10.2073 10.0853 12.0227 8.07935 13.3473ZM10.1867 4.15332C9.98002 3.94665 9.70602 3.83333 9.41402 3.83333C9.41336 3.83333 9.41335 3.83333 9.41268 3.83333C9.12068 3.83333 8.84536 3.94796 8.63936 4.15462L4.97868 7.83203C4.88535 7.92603 4.83335 8.05273 4.83335 8.18473V9.66602C4.83335 9.94202 5.05735 10.166 5.33335 10.166H6.81468C6.94668 10.166 7.07403 10.1133 7.16736 10.0207L10.8447 6.36003C11.052 6.15403 11.166 5.87926 11.166 5.58659C11.166 5.29392 11.0527 5.01933 10.846 4.81266L10.1867 4.15332ZM9.41402 4.83333C9.41536 4.83667 9.45669 4.83734 9.48002 4.86068L10.14 5.52067C10.1627 5.54334 10.1674 5.56859 10.1674 5.58659C10.1674 5.60459 10.1627 5.63002 10.14 5.65202L9.71602 6.07406L8.9267 5.28467L9.34869 4.86068C9.37069 4.83801 9.39602 4.83333 9.41402 4.83333ZM6.60868 9.16667H5.83335V8.39128L8.22068 5.99333L9.00669 6.7793L6.60868 9.16667Z" fill="#3B3B3E"/>
</svg>
