<svg width="16" height="16" viewBox="0 0 16 16" fill="none" xmlns="http://www.w3.org/2000/svg">
<path d="M10.6666 1.5H5.33325C3.72125 1.5 2.83325 2.388 2.83325 4V14C2.83325 14.1787 2.9286 14.3433 3.0826 14.432C3.15993 14.4773 3.24659 14.5 3.33325 14.5C3.41859 14.5 3.50463 14.478 3.5813 14.434L7.99992 11.9087L12.4185 14.4333C12.5739 14.522 12.7646 14.5213 12.9172 14.4313C13.0712 14.342 13.1666 14.1773 13.1666 13.9993V3.99935C13.1666 2.38802 12.2786 1.5 10.6666 1.5ZM12.1666 13.138L8.24797 10.8993C8.09463 10.8113 7.9052 10.8113 7.75187 10.8993L3.83325 13.1387V4C3.83325 2.94867 4.28192 2.5 5.33325 2.5H10.6666C11.7179 2.5 12.1666 2.94867 12.1666 4V13.138V13.138ZM10.2286 5.12866C10.0893 4.89533 9.79194 4.81666 9.55461 4.948L9.47729 4.99137C9.38063 5.04604 9.26133 5.04531 9.16333 4.99064C9.07333 4.93997 9.01798 4.84934 9.01798 4.75334C9.01798 4.42934 8.75398 4.16602 8.42798 4.16602H7.53866C7.21332 4.16602 6.94865 4.42934 6.94865 4.75334C6.94865 4.85067 6.89462 4.93931 6.80395 4.99064C6.70595 5.04597 6.58518 5.04537 6.48918 4.99137C6.21318 4.83537 5.85458 4.93065 5.69458 5.20199L5.24666 5.95337C5.178 6.06937 5.15062 6.27203 5.18595 6.40137C5.22729 6.5527 5.32858 6.68268 5.46525 6.76001C5.55525 6.81068 5.61123 6.90197 5.6119 6.99797C5.6119 7.0953 5.55592 7.18737 5.46525 7.23804C5.32792 7.31537 5.22597 7.44598 5.1853 7.59798C5.15064 7.72798 5.17928 7.93136 5.24862 8.04736L5.69523 8.79736C5.86123 9.07203 6.21051 9.16334 6.48918 9.00667C6.58651 8.95267 6.70599 8.95201 6.80265 9.00667C6.89265 9.05734 6.948 9.14731 6.948 9.24398C6.948 9.56798 7.21184 9.8313 7.53784 9.8313H8.42863C8.7533 9.8313 9.01798 9.56798 9.01798 9.24398C9.01798 9.14798 9.07333 9.05734 9.16333 9.00667C9.26066 8.95201 9.38063 8.95136 9.47729 9.00602C9.75729 9.16269 10.1052 9.07134 10.2725 8.79468L10.7172 8.04801C10.7865 7.93201 10.816 7.72865 10.782 7.59798C10.7413 7.44598 10.6399 7.31399 10.5012 7.23665C10.4112 7.18599 10.3552 7.0947 10.3552 6.9987C10.3552 6.90136 10.4112 6.80929 10.5012 6.75863L10.5785 6.71533C10.6959 6.64933 10.782 6.53869 10.816 6.40869C10.85 6.27869 10.8313 6.14001 10.7626 6.02401L10.2286 5.12866ZM9.67798 7.84131L9.58651 7.99463C9.27784 7.93196 8.95261 7.98004 8.67261 8.13737C8.39527 8.29337 8.18929 8.54335 8.08862 8.83268H7.87931C7.77865 8.54335 7.57331 8.2933 7.29598 8.13664C7.29531 8.13664 7.29533 8.13664 7.29533 8.13664C7.01666 7.9793 6.68858 7.9313 6.38192 7.99463L6.29061 7.84131C6.49594 7.61064 6.61322 7.31063 6.61255 6.99463C6.61122 6.6833 6.49329 6.38671 6.28996 6.15804L6.38192 6.00464C6.69125 6.06664 7.01665 6.01931 7.29598 5.86198C7.57331 5.70598 7.77865 5.456 7.87931 5.16667H8.08862C8.18929 5.456 8.39461 5.70598 8.67261 5.86198C8.95194 6.01998 9.27784 6.06731 9.58651 6.00464L9.67798 6.15804C9.47331 6.38871 9.35588 6.68737 9.35588 7.00203C9.35588 7.3147 9.47398 7.61131 9.67798 7.84131ZM8.67993 7C8.67993 7.368 8.38193 7.66667 8.01326 7.66667C7.64526 7.66667 7.34318 7.368 7.34318 7C7.34318 6.632 7.63859 6.33333 8.00659 6.33333H8.01326C8.38126 6.33333 8.67993 6.632 8.67993 7Z" fill="#3B3B3E"/>
</svg>
