<svg width="16" height="16" viewBox="0 0 16 16" fill="none" xmlns="http://www.w3.org/2000/svg">
<path d="M15.0533 3.62032C14.94 3.48032 14.7666 3.42033 14.6 3.44033C14.6666 3.30699 14.72 3.16699 14.7666 3.02699C14.8333 2.82699 14.7667 2.61366 14.6067 2.48033C14.4467 2.35366 14.22 2.33366 14.04 2.44033C13.6333 2.68033 13.18 2.86033 12.7133 2.97366C12.1267 2.46033 11.3533 2.16699 10.56 2.16699C8.77998 2.16699 7.32665 3.60032 7.32665 5.36032C7.32665 5.38032 7.32665 5.40033 7.32665 5.42033C5.49332 5.18033 3.81332 4.25365 2.64665 2.84032C2.53998 2.71366 2.37998 2.647 2.21998 2.66033C2.05998 2.67366 1.91332 2.76699 1.82665 2.90699C1.53332 3.40033 1.38665 3.94699 1.38665 4.52032C1.38665 5.02699 1.50665 5.51365 1.72665 5.95365C1.68665 5.96699 1.64665 5.98699 1.61331 6.00699C1.45998 6.09365 1.36665 6.28032 1.36665 6.45365C1.36665 7.38032 1.77332 8.23366 2.43998 8.827C2.33332 8.96033 2.29332 9.14032 2.34665 9.30032C2.62665 10.167 3.26665 10.8537 4.07332 11.2203C3.23998 11.5937 2.29332 11.7403 1.37999 11.6337C1.14665 11.607 0.926647 11.747 0.853314 11.967C0.773314 12.187 0.859979 12.4337 1.05998 12.5537C2.38665 13.3937 3.93331 13.8403 5.52664 13.8403C10.7066 13.8403 13.8 9.69366 13.8 5.68033V5.57366C14.2866 5.19366 14.7133 4.74032 15.0733 4.22699C15.2 4.04699 15.1933 3.80033 15.0533 3.62699V3.62032ZM13 4.92033C12.86 5.02033 12.78 5.18699 12.7933 5.36032C12.8 5.46699 12.8 5.56699 12.8 5.67365C12.8 9.19365 10.08 12.8337 5.52664 12.8337C4.77998 12.8337 4.04665 12.7203 3.34665 12.507C4.19332 12.3137 4.98665 11.9403 5.68665 11.4003C5.85331 11.2737 5.91998 11.047 5.85331 10.847C5.78665 10.647 5.59998 10.507 5.38665 10.5003C4.69998 10.487 4.06665 10.167 3.66665 9.66033C3.83998 9.64033 4.01332 9.61366 4.17998 9.567C4.40665 9.507 4.55998 9.30033 4.55332 9.067C4.55332 8.83366 4.37998 8.63366 4.15331 8.587C3.37331 8.43366 2.75998 7.88699 2.49998 7.16699C2.69331 7.20699 2.88665 7.23366 3.07998 7.24033C3.33331 7.25366 3.50665 7.10699 3.57332 6.89366C3.63998 6.68032 3.55998 6.44699 3.37331 6.32032C2.75331 5.91366 2.37999 5.23366 2.37999 4.49366C2.37999 4.347 2.39332 4.20032 2.41998 4.06032C3.85998 5.48032 5.79998 6.34032 7.85998 6.44699C8.01331 6.44699 8.16664 6.39366 8.26664 6.27366C8.36664 6.15366 8.40665 6.00033 8.37331 5.84699C8.33331 5.66699 8.31998 5.49366 8.31998 5.33366C8.31998 4.12699 9.31998 3.14033 10.5533 3.14033C11.18 3.14033 11.76 3.38699 12.1866 3.83366C12.3066 3.95366 12.4733 4.01366 12.64 3.98033C12.6733 3.98033 12.7 3.96699 12.7333 3.96033C12.5933 4.09366 12.5467 4.29366 12.6067 4.48033C12.6733 4.68699 12.8666 4.827 13.08 4.827C13.08 4.827 13.02 4.87366 12.9866 4.89366L13 4.92033Z" fill="#3B3B3E"/>
</svg>
