<svg width="16" height="16" viewBox="0 0 16 16" fill="none" xmlns="http://www.w3.org/2000/svg">
<path d="M15.1666 10.3334V9.37345C15.1333 8.26678 14.4333 6.17345 12 6.17345C10.1333 6.17345 7.90665 4.31345 7.87998 4.29345C7.83331 4.25345 7.78665 4.22678 7.73331 4.20678C7.49998 4.12011 7.23331 4.16678 7.03998 4.33345C5.86665 5.34678 3.73331 5.40011 2.63998 4.44678C2.46665 4.30012 2.23998 4.24012 2.01998 4.28012C1.80665 4.32678 1.63331 4.46678 1.53998 4.66678C1.41998 4.92678 0.833313 6.33345 0.833313 8.66678C0.833313 9.30012 0.87998 9.85345 0.933313 10.3268C0.97998 10.7001 1.02665 11.0268 1.07998 11.2801C1.21998 11.9801 1.83331 12.4935 2.55331 12.4935H13.6666C14.4933 12.4935 15.1666 11.8201 15.1666 10.9935V10.3334ZM2.31331 5.45344C3.75998 6.43344 6.01998 6.36012 7.48665 5.26012C7.65331 5.38678 7.89998 5.56678 8.19331 5.76678L7.64665 6.31345C7.45331 6.50678 7.45331 6.82678 7.64665 7.02012C7.74665 7.12012 7.87331 7.16678 7.99998 7.16678C8.12665 7.16678 8.25331 7.12012 8.35331 7.02012L9.07998 6.29345C9.33998 6.43345 9.61331 6.57345 9.90665 6.70012L9.64665 6.96012C9.45331 7.15345 9.45331 7.47345 9.64665 7.66678C9.74665 7.76678 9.87331 7.81345 9.99998 7.81345C10.1266 7.81345 10.2533 7.76678 10.3533 7.66678L10.98 7.04011C11.32 7.12011 11.66 7.18012 12 7.18012C14.0266 7.18012 14.16 9.18011 14.1666 9.39345V9.84011H4.46665C4.31998 8.16678 3.45331 7.14678 1.96665 6.91345C2.06665 6.26011 2.20665 5.76678 2.31331 5.46012V5.45344ZM1.83331 8.67345C1.83331 8.39345 1.84665 8.14012 1.85998 7.88678C2.45998 7.98678 3.31331 8.34678 3.47331 9.83345H1.88665C1.85331 9.48012 1.83331 9.09345 1.83331 8.66678V8.67345ZM13.6666 11.5001H2.55331C2.31331 11.5001 2.10665 11.3334 2.05998 11.1001C2.04665 11.0268 2.02665 10.9268 2.01331 10.8401H14.1666V11.0068C14.1666 11.2801 13.94 11.5068 13.6666 11.5068V11.5001Z" fill="#3B3B3E"/>
</svg>
