<svg width="16" height="16" viewBox="0 0 16 16" fill="none" xmlns="http://www.w3.org/2000/svg">
<path d="M14.5 3V5.33333C14.5 5.60933 14.276 5.83333 14 5.83333C13.724 5.83333 13.5 5.60933 13.5 5.33333V3C13.5 2.60733 13.3927 2.5 13 2.5H10.6667C10.3907 2.5 10.1667 2.276 10.1667 2C10.1667 1.724 10.3907 1.5 10.6667 1.5H13C13.9393 1.5 14.5 2.06067 14.5 3ZM2 5.83333C2.276 5.83333 2.5 5.60933 2.5 5.33333V3C2.5 2.60733 2.60733 2.5 3 2.5H5.33333C5.60933 2.5 5.83333 2.276 5.83333 2C5.83333 1.724 5.60933 1.5 5.33333 1.5H3C2.06067 1.5 1.5 2.06067 1.5 3V5.33333C1.5 5.60933 1.724 5.83333 2 5.83333ZM5.33333 13.5H3C2.60733 13.5 2.5 13.3927 2.5 13V10.6667C2.5 10.3907 2.276 10.1667 2 10.1667C1.724 10.1667 1.5 10.3907 1.5 10.6667V13C1.5 13.9393 2.06067 14.5 3 14.5H5.33333C5.60933 14.5 5.83333 14.276 5.83333 14C5.83333 13.724 5.60933 13.5 5.33333 13.5ZM14 10.1667C13.724 10.1667 13.5 10.3907 13.5 10.6667V13C13.5 13.3927 13.3927 13.5 13 13.5H10.6667C10.3907 13.5 10.1667 13.724 10.1667 14C10.1667 14.276 10.3907 14.5 10.6667 14.5H13C13.9393 14.5 14.5 13.9393 14.5 13V10.6667C14.5 10.3907 14.276 10.1667 14 10.1667ZM4.16667 5.92V6C4.16667 6.276 4.39067 6.5 4.66667 6.5C4.94267 6.5 5.16667 6.276 5.16667 6V5.92C5.16667 5.35667 5.35667 5.16667 5.92 5.16667H10.08C10.6433 5.16667 10.8333 5.35667 10.8333 5.92V6C10.8333 6.276 11.0573 6.5 11.3333 6.5C11.6093 6.5 11.8333 6.276 11.8333 6V5.92C11.8333 4.806 11.194 4.16667 10.08 4.16667H5.92C4.806 4.16667 4.16667 4.80534 4.16667 5.92ZM10.08 11.8333H5.92C4.806 11.8333 4.16667 11.194 4.16667 10.08V8.5H3.33333C3.05733 8.5 2.83333 8.276 2.83333 8C2.83333 7.724 3.05733 7.5 3.33333 7.5H12.6667C12.9427 7.5 13.1667 7.724 13.1667 8C13.1667 8.276 12.9427 8.5 12.6667 8.5H11.8333V10.08C11.8333 11.194 11.194 11.8333 10.08 11.8333ZM10.8333 10.08V8.5H5.16667V10.08C5.16667 10.6433 5.35667 10.8333 5.92 10.8333H10.08C10.6433 10.8333 10.8333 10.6433 10.8333 10.08Z" fill="#3B3B3E"/>
</svg>
