<svg width="16" height="16" viewBox="0 0 16 16" fill="none" xmlns="http://www.w3.org/2000/svg">
<path d="M13.498 3.66536L11.7074 2.33203C11.5647 2.22536 11.388 2.16667 11.2094 2.16667H8.50002V2C8.50002 1.724 8.27602 1.5 8.00002 1.5C7.72402 1.5 7.50002 1.724 7.50002 2V2.16667H5.00002C4.06069 2.16667 3.50002 2.72733 3.50002 3.66667V5C3.50002 5.93933 4.06069 6.5 5.00002 6.5H7.50002V7.5H4.79069C4.61269 7.5 4.43602 7.5587 4.29336 7.66536L2.50202 8.9987C2.28936 9.15736 2.16669 9.40133 2.16669 9.66667C2.16669 9.932 2.28936 10.176 2.50202 10.3346L4.29268 11.668C4.43535 11.7746 4.61202 11.8333 4.79069 11.8333H7.50002V13.5H6.00002C5.72402 13.5 5.50002 13.724 5.50002 14C5.50002 14.276 5.72402 14.5 6.00002 14.5H10C10.276 14.5 10.5 14.276 10.5 14C10.5 13.724 10.276 13.5 10 13.5H8.50002V11.8333H11C11.9394 11.8333 12.5 11.2727 12.5 10.3333V9C12.5 8.06067 11.9394 7.5 11 7.5H8.50002V6.5H11.2094C11.3874 6.5 11.564 6.4413 11.7067 6.33464L13.498 5.0013C13.7107 4.84264 13.8334 4.59867 13.8334 4.33333C13.8334 4.068 13.7107 3.82403 13.498 3.66536ZM11.5 9V10.3333C11.5 10.726 11.3927 10.8333 11 10.8333H4.84669L3.27936 9.66667L4.84669 8.5H11C11.3927 8.5 11.5 8.60733 11.5 9ZM11.1534 5.5H5.00002C4.60735 5.5 4.50002 5.39267 4.50002 5V3.66667C4.50002 3.274 4.60735 3.16667 5.00002 3.16667H11.1534L12.7207 4.33333L11.1534 5.5Z" fill="#3B3B3E"/>
</svg>
