<svg width="16" height="16" viewBox="0 0 16 16" fill="none" xmlns="http://www.w3.org/2000/svg">
<path d="M13.0727 5.23796L5.16671 2.31803V2C5.16671 1.724 4.94271 1.5 4.66671 1.5C4.39071 1.5 4.16671 1.724 4.16671 2V13.5H3.33337C3.05737 13.5 2.83337 13.724 2.83337 14C2.83337 14.276 3.05737 14.5 3.33337 14.5H6.00004C6.27604 14.5 6.50004 14.276 6.50004 14C6.50004 13.724 6.27604 13.5 6.00004 13.5H5.16671V10.348L13.0727 7.42806C13.5347 7.25739 13.8334 6.82735 13.8334 6.33268C13.8334 5.83802 13.5347 5.40929 13.0727 5.23796ZM12.726 6.49007L5.16671 9.28206V3.38395L12.726 6.17594C12.8147 6.20861 12.8334 6.27935 12.8334 6.33268C12.8334 6.38602 12.8147 6.45807 12.726 6.49007Z" fill="#3B3B3E"/>
</svg>
