<svg width="16" height="16" viewBox="0 0 16 16" fill="none" xmlns="http://www.w3.org/2000/svg">
<path d="M8.00016 15.1663C4.04683 15.1663 0.833496 11.953 0.833496 7.99967C0.833496 4.04634 4.04683 0.833008 8.00016 0.833008C11.9535 0.833008 15.1668 4.04634 15.1668 7.99967C15.1668 11.953 11.9535 15.1663 8.00016 15.1663ZM8.00016 1.83301C4.60016 1.83301 1.8335 4.59967 1.8335 7.99967C1.8335 11.3997 4.60016 14.1663 8.00016 14.1663C11.4002 14.1663 14.1668 11.3997 14.1668 7.99967C14.1668 4.59967 11.4002 1.83301 8.00016 1.83301ZM10.8335 6.66634C10.8335 5.99301 10.4802 5.49967 10.0002 5.49967C9.52016 5.49967 9.16683 5.99301 9.16683 6.66634C9.16683 7.33967 9.52016 7.83301 10.0002 7.83301C10.4802 7.83301 10.8335 7.33967 10.8335 6.66634ZM6.8335 6.66634C6.8335 5.99301 6.48016 5.49967 6.00016 5.49967C5.52016 5.49967 5.16683 5.99301 5.16683 6.66634C5.16683 7.33967 5.52016 7.83301 6.00016 7.83301C6.48016 7.83301 6.8335 7.33967 6.8335 6.66634ZM10.9668 11.733C11.1868 11.5663 11.2335 11.253 11.0668 11.033C10.3468 10.073 9.20016 9.49967 8.00683 9.49967C6.81349 9.49967 5.68016 10.0597 4.94016 11.033C4.7735 11.253 4.8135 11.5663 5.0335 11.733C5.2535 11.8997 5.56683 11.8597 5.7335 11.6397C6.28017 10.9197 7.10683 10.5063 8.00016 10.5063C8.8935 10.5063 9.72683 10.933 10.2602 11.6397C10.3602 11.773 10.5068 11.8397 10.6602 11.8397C10.7668 11.8397 10.8668 11.8063 10.9602 11.7397L10.9668 11.733Z" fill="#3B3B3E"/>
</svg>
