<svg width="16" height="16" viewBox="0 0 16 16" fill="none" xmlns="http://www.w3.org/2000/svg">
<path d="M14.0239 2.78856C14.0233 2.78856 14.0233 2.78858 14.0226 2.78791C13.5486 2.56324 13.0493 2.41319 12.5347 2.31119C12.4927 2.29252 12.4453 2.28725 12.3986 2.28059C11.7233 2.16125 11.018 2.13588 10.2834 2.22655C9.31403 2.34588 8.49467 2.89985 8 3.67585C7.506 2.90052 6.68597 2.34588 5.71663 2.22655C4.3693 2.06188 3.11204 2.25056 1.97738 2.78856C1.97671 2.78856 1.97674 2.78855 1.97607 2.78921C1.68674 2.92721 1.5 3.22525 1.5 3.54792V12.2179C1.5 12.4806 1.61995 12.7212 1.82861 12.8792C2.03728 13.0372 2.31407 13.0873 2.56673 13.0166C4.5054 12.4659 6.14401 12.6992 7.72201 13.7506C7.72867 13.7552 7.73666 13.7566 7.74333 13.7606C7.75066 13.7646 7.756 13.7712 7.764 13.7752C7.77133 13.7792 7.77994 13.7772 7.78727 13.7812C7.85461 13.8132 7.92602 13.8345 7.99935 13.8345C8.07268 13.8345 8.14393 13.8132 8.21126 13.7812C8.2186 13.7779 8.22737 13.7792 8.2347 13.7752C8.24203 13.7712 8.24804 13.7646 8.25537 13.7606C8.26204 13.7566 8.27003 13.7546 8.27669 13.7506C9.85403 12.6992 11.4933 12.4659 13.432 13.0159C13.6853 13.0879 13.9613 13.0372 14.1699 12.8792C14.3786 12.7219 14.4987 12.4806 14.4987 12.2179V3.54792C14.5 3.22459 14.3133 2.92656 14.0239 2.78856ZM11.8333 3.1979V5.80459L11.582 5.66055C11.4287 5.57255 11.238 5.57255 11.0846 5.66055L10.8333 5.80459V3.19188C10.9647 3.18388 11.1 3.16657 11.2287 3.16657C11.434 3.16657 11.6353 3.17724 11.8333 3.1979ZM4.48861 11.7292C3.84794 11.7292 3.186 11.8192 2.5 11.9972V3.6472C3.44667 3.21854 4.46006 3.07859 5.59473 3.21792C6.68139 3.35192 7.5 4.27853 7.5 5.3732V12.4605C6.54333 11.9725 5.54461 11.7292 4.48861 11.7292ZM13.5 11.9979C11.6827 11.5245 10.0367 11.6766 8.5 12.4613V5.37393C8.5 4.48326 9.046 3.71185 9.83333 3.38052V6.66722C9.83333 6.84589 9.92868 7.01059 10.0827 7.09992C10.2367 7.18926 10.428 7.18922 10.582 7.10122L11.3333 6.67056L12.0846 7.10122C12.1613 7.14522 12.2473 7.16722 12.3333 7.16722C12.42 7.16722 12.5067 7.14459 12.584 7.09992C12.738 7.01059 12.8333 6.84589 12.8333 6.66722V3.40323C13.0593 3.47123 13.282 3.54919 13.5 3.64786V11.9979V11.9979Z" fill="#3B3B3E"/>
</svg>
