<svg width="16" height="16" viewBox="0 0 16 16" fill="none" xmlns="http://www.w3.org/2000/svg">
<path d="M12.4134 10.8747C12.4694 10.5913 12.5 10.2993 12.5 10V9.16667H14C14.276 9.16667 14.5 8.94267 14.5 8.66667C14.5 8.39067 14.276 8.16667 14 8.16667H12.5V6.66667C12.5 6.58067 12.4874 6.50467 12.4827 6.42334C13.3094 6.22334 13.9927 5.61796 14.2607 4.79329L14.474 4.15999C14.562 3.89799 14.4213 3.61471 14.1593 3.52604C13.8987 3.43938 13.6147 3.57934 13.526 3.84001L13.3114 4.47868C13.1527 4.96668 12.7494 5.31594 12.2627 5.43994C11.9594 4.74394 11.3633 4.3173 10.5 4.20264V4C10.5 2.62133 9.378 1.5 8 1.5C6.622 1.5 5.5 2.62133 5.5 4V4.20264C4.63667 4.3173 4.04064 4.74394 3.7373 5.43994C3.2513 5.31594 2.84732 4.96597 2.68799 4.47331L2.47461 3.84001C2.38661 3.57867 2.10398 3.43871 1.84131 3.52604C1.57931 3.61404 1.43869 3.89799 1.52669 4.15999L1.73861 4.78792C2.00794 5.61726 2.6914 6.22267 3.51807 6.42334C3.5134 6.50534 3.50065 6.58067 3.50065 6.66667V8.16667H2C1.724 8.16667 1.5 8.39067 1.5 8.66667C1.5 8.94267 1.724 9.16667 2 9.16667H3.5V10C3.5 10.2993 3.53059 10.592 3.58659 10.8747C2.40526 11.0733 1.5 12.096 1.5 13.3333C1.5 13.6093 1.724 13.8333 2 13.8333C2.276 13.8333 2.5 13.6093 2.5 13.3333C2.5 12.5407 3.12008 11.8959 3.89941 11.8433C4.60541 13.4073 6.176 14.5 8 14.5C9.824 14.5 11.3946 13.4073 12.1006 11.8433C12.8799 11.8959 13.5 12.5407 13.5 13.3333C13.5 13.6093 13.724 13.8333 14 13.8333C14.276 13.8333 14.5 13.6093 14.5 13.3333C14.5 12.096 13.5947 11.0733 12.4134 10.8747ZM6.5 4C6.5 3.17267 7.17333 2.5 8 2.5C8.82667 2.5 9.5 3.17267 9.5 4V4.16667H6.5V4ZM8.5 13.4494V8.66667C8.5 8.39067 8.276 8.16667 8 8.16667C7.724 8.16667 7.5 8.39067 7.5 8.66667V13.4494C5.808 13.204 4.5 11.7587 4.5 10V6.66667C4.5 5.61533 4.94867 5.16667 6 5.16667H10C11.0513 5.16667 11.5 5.61533 11.5 6.66667V10C11.5 11.7587 10.192 13.204 8.5 13.4494Z" fill="#3B3B3E"/>
</svg>
