<svg width="16" height="16" viewBox="0 0 16 16" fill="none" xmlns="http://www.w3.org/2000/svg">
<path d="M8.00016 0.833008C4.04816 0.833008 0.833496 4.04767 0.833496 7.99967C0.833496 11.9517 4.04816 15.1663 8.00016 15.1663C11.9522 15.1663 15.1668 11.9517 15.1668 7.99967C15.1668 4.04767 11.9522 0.833008 8.00016 0.833008ZM8.00016 14.1663C4.5995 14.1663 1.8335 11.4003 1.8335 7.99967C1.8335 4.59901 4.5995 1.83301 8.00016 1.83301C11.4008 1.83301 14.1668 4.59901 14.1668 7.99967C14.1668 11.4003 11.4008 14.1663 8.00016 14.1663ZM8.96077 5.83431C8.48144 5.26764 7.51823 5.26764 7.0389 5.83431L5.09212 8.14241C4.81479 8.47175 4.75486 8.91827 4.9362 9.30827C5.1182 9.70027 5.50075 9.94434 5.93408 9.94434H10.0654C10.4988 9.94434 10.8815 9.70093 11.0635 9.30827C11.2441 8.91827 11.1849 8.47173 10.9076 8.14307L8.96077 5.83431ZM10.1569 8.88704C10.1396 8.92504 10.1088 8.94368 10.0654 8.94368H5.93408C5.89142 8.94368 5.86077 8.92438 5.84277 8.88704C5.81811 8.83304 5.84677 8.79893 5.85677 8.7876L7.80355 6.47965C7.87088 6.40099 7.9555 6.389 8.00016 6.389C8.04483 6.389 8.13011 6.40099 8.19678 6.47965L10.1436 8.78841C10.1529 8.79908 10.1816 8.83304 10.1569 8.88704Z" fill="#3B3B3E"/>
</svg>
