<svg width="16" height="16" viewBox="0 0 16 16" fill="none" xmlns="http://www.w3.org/2000/svg">
<path d="M12.6666 12.5H3.33325C1.72125 12.5 0.833252 11.612 0.833252 10V6C0.833252 4.388 1.72125 3.5 3.33325 3.5H12.6666C14.2786 3.5 15.1666 4.388 15.1666 6V10C15.1666 11.612 14.2786 12.5 12.6666 12.5ZM3.33325 4.5C2.28192 4.5 1.83325 4.94867 1.83325 6V10C1.83325 11.0513 2.28192 11.5 3.33325 11.5H12.6666C13.7179 11.5 14.1666 11.0513 14.1666 10V6C14.1666 4.94867 13.7179 4.5 12.6666 4.5H3.33325ZM6.33325 10.5H4.33325C3.39392 10.5 2.83325 9.93933 2.83325 9V7C2.83325 6.06067 3.39392 5.5 4.33325 5.5H6.33325C7.27258 5.5 7.83325 6.06067 7.83325 7V9C7.83325 9.93933 7.27258 10.5 6.33325 10.5ZM4.33325 6.5C3.94059 6.5 3.83325 6.60733 3.83325 7V9C3.83325 9.39267 3.94059 9.5 4.33325 9.5H6.33325C6.72592 9.5 6.83325 9.39267 6.83325 9V7C6.83325 6.60733 6.72592 6.5 6.33325 6.5H4.33325Z" fill="#3B3B3E"/>
</svg>
