<svg width="16" height="16" viewBox="0 0 16 16" fill="none" xmlns="http://www.w3.org/2000/svg">
<path d="M6.01349 7.50049C5.55349 7.50049 5.18015 7.12715 5.18015 6.66715C5.18015 6.20715 5.54682 5.83382 6.01349 5.83382C6.47349 5.83382 6.84682 6.20715 6.84682 6.66715C6.84682 7.12715 6.47349 7.50049 6.01349 7.50049ZM9.78017 9.46716C9.66017 9.22049 9.36017 9.12048 9.1135 9.24048C8.4335 9.58048 7.60015 9.58714 6.88682 9.24048C6.64015 9.12048 6.34015 9.22715 6.22015 9.47381C6.10015 9.72048 6.20682 10.0205 6.45349 10.1405C6.94016 10.3738 7.46015 10.4938 7.99349 10.4938C8.52682 10.4938 9.07348 10.3738 9.55348 10.1338C9.80015 10.0138 9.90017 9.71382 9.78017 9.46049V9.46716ZM9.18015 7.10048C9.42015 7.24048 9.72683 7.15382 9.86017 6.91382C9.92017 6.81382 10.0802 6.81382 10.1402 6.91382C10.2335 7.07382 10.4002 7.16715 10.5735 7.16715C10.6535 7.16715 10.7402 7.14715 10.8202 7.10048C11.0602 6.96715 11.1468 6.66049 11.0068 6.42049C10.8002 6.06049 10.4135 5.83382 10.0002 5.83382C9.58683 5.83382 9.19349 6.06049 8.99349 6.42049C8.86015 6.66049 8.94015 6.96715 9.18015 7.10048V7.10048ZM15.1668 8.00049V8.34049C15.1668 9.54049 14.7002 10.6738 13.8468 11.5205L11.5268 13.8405C10.6735 14.6872 9.54682 15.1605 8.34682 15.1605H8.00683C6.0535 15.1605 4.23349 14.3871 2.86682 12.9938C1.50682 11.5938 0.786833 9.74715 0.840167 7.79382C0.946833 4.06049 4.06684 0.933819 7.80017 0.833819C9.76684 0.780485 11.6002 1.50049 13.0002 2.86049C14.4002 4.22049 15.1668 6.04715 15.1668 8.00049ZM8.34017 14.1672C8.74017 14.1672 9.12683 14.0872 9.50016 13.9605V12.6672C9.50016 10.9205 10.9202 9.50049 12.6668 9.50049H13.9602C14.0868 9.13382 14.1668 8.74716 14.1668 8.34049V8.00049C14.1668 6.32049 13.5002 4.75382 12.3002 3.58048C11.1402 2.45382 9.62016 1.83382 8.00016 1.83382C7.94016 1.83382 7.88015 1.83382 7.82682 1.83382C4.61349 1.92049 1.92683 4.60716 1.84017 7.82049C1.7935 9.50049 2.4135 11.0938 3.58683 12.2938C4.76016 13.5005 6.32683 14.1605 8.00683 14.1605H8.34682L8.34017 14.1672ZM13.1402 10.8205C13.2402 10.7205 13.3135 10.6072 13.4002 10.5005H12.6668C11.4735 10.5005 10.5002 11.4738 10.5002 12.6672V13.4005C10.6068 13.3138 10.7202 13.2405 10.8202 13.1405L13.1402 10.8205Z" fill="#3B3B3E"/>
</svg>
