<svg width="16" height="16" viewBox="0 0 16 16" fill="none" xmlns="http://www.w3.org/2000/svg">
<path d="M8.00016 0.833008C4.04816 0.833008 0.833496 4.04767 0.833496 7.99967C0.833496 11.9517 4.04816 15.1663 8.00016 15.1663C11.9522 15.1663 15.1668 11.9517 15.1668 7.99967C15.1668 4.04767 11.9522 0.833008 8.00016 0.833008ZM8.00016 14.1663C4.5995 14.1663 1.8335 11.4003 1.8335 7.99967C1.8335 4.59901 4.5995 1.83301 8.00016 1.83301C11.4008 1.83301 14.1668 4.59901 14.1668 7.99967C14.1668 11.4003 11.4008 14.1663 8.00016 14.1663ZM10.5002 7.33301V9.99967C10.5002 10.065 10.4868 10.1297 10.4614 10.1911C10.4108 10.3131 10.3136 10.4103 10.1916 10.4609C10.1302 10.4863 10.0655 10.4997 10.0002 10.4997H7.3335C7.0575 10.4997 6.8335 10.2757 6.8335 9.99967C6.8335 9.72367 7.0575 9.49967 7.3335 9.49967H8.79281L5.64616 6.35303C5.45083 6.15769 5.45083 5.841 5.64616 5.64567C5.84149 5.45034 6.15818 5.45034 6.35352 5.64567L9.50016 8.79232V7.33301C9.50016 7.05701 9.72416 6.83301 10.0002 6.83301C10.2762 6.83301 10.5002 7.05701 10.5002 7.33301Z" fill="#3B3B3E"/>
</svg>
