<svg width="16" height="16" viewBox="0 0 16 16" fill="none" xmlns="http://www.w3.org/2000/svg">
<path d="M4.66667 10.1667H2C1.724 10.1667 1.5 10.3907 1.5 10.6667C1.5 10.9427 1.724 11.1667 2 11.1667H2.83333V14C2.83333 14.276 3.05733 14.5 3.33333 14.5C3.60933 14.5 3.83333 14.276 3.83333 14V11.1667H4.66667C4.94267 11.1667 5.16667 10.9427 5.16667 10.6667C5.16667 10.3907 4.94267 10.1667 4.66667 10.1667ZM3.33333 8.5C3.60933 8.5 3.83333 8.276 3.83333 8V2C3.83333 1.724 3.60933 1.5 3.33333 1.5C3.05733 1.5 2.83333 1.724 2.83333 2V8C2.83333 8.276 3.05733 8.5 3.33333 8.5ZM8 7.5C7.724 7.5 7.5 7.724 7.5 8V14C7.5 14.276 7.724 14.5 8 14.5C8.276 14.5 8.5 14.276 8.5 14V8C8.5 7.724 8.276 7.5 8 7.5ZM9.33333 4.83333H8.5V2C8.5 1.724 8.276 1.5 8 1.5C7.724 1.5 7.5 1.724 7.5 2V4.83333H6.66667C6.39067 4.83333 6.16667 5.05733 6.16667 5.33333C6.16667 5.60933 6.39067 5.83333 6.66667 5.83333H9.33333C9.60933 5.83333 9.83333 5.60933 9.83333 5.33333C9.83333 5.05733 9.60933 4.83333 9.33333 4.83333ZM14 10.1667H11.3333C11.0573 10.1667 10.8333 10.3907 10.8333 10.6667C10.8333 10.9427 11.0573 11.1667 11.3333 11.1667H12.1667V14C12.1667 14.276 12.3907 14.5 12.6667 14.5C12.9427 14.5 13.1667 14.276 13.1667 14V11.1667H14C14.276 11.1667 14.5 10.9427 14.5 10.6667C14.5 10.3907 14.276 10.1667 14 10.1667ZM12.6667 8.5C12.9427 8.5 13.1667 8.276 13.1667 8V2C13.1667 1.724 12.9427 1.5 12.6667 1.5C12.3907 1.5 12.1667 1.724 12.1667 2V8C12.1667 8.276 12.3907 8.5 12.6667 8.5Z" fill="#3B3B3E"/>
</svg>
