<svg width="16" height="16" viewBox="0 0 16 16" fill="none" xmlns="http://www.w3.org/2000/svg">
<path d="M14.1066 11.0894C14.3599 10.0627 14.5 9.00333 14.5 8C14.5 4.416 11.584 1.5 8 1.5C4.416 1.5 1.5 4.416 1.5 8C1.5 9.00333 1.64006 10.062 1.89339 11.0894C1.89806 11.1114 1.89734 11.1333 1.90267 11.1546C1.91467 11.2033 1.93069 11.2481 1.94336 11.2961C1.95803 11.3527 1.96937 11.4106 1.9847 11.4666C1.98803 11.48 1.99795 11.4886 2.00195 11.5013C2.06529 11.732 2.12608 11.9659 2.19808 12.1839L2.51335 13.2061C2.75601 13.9921 3.48392 14.4993 4.26725 14.4993C4.44459 14.4993 4.62394 14.4733 4.80127 14.4193L5.44466 14.2227C5.74266 14.132 5.98794 13.93 6.1346 13.654C6.2806 13.3786 6.3114 13.0633 6.2194 12.7653L5.22998 9.52799C5.13865 9.22999 4.9373 8.98537 4.6613 8.8387C4.3853 8.69204 4.06797 8.66207 3.77197 8.75407L3.14404 8.94661C2.93271 9.01128 2.74398 9.11534 2.57731 9.24268C2.53064 8.82268 2.5 8.40468 2.5 7.99935C2.5 4.96668 4.96733 2.49935 8 2.49935C11.0327 2.49935 13.5 4.96668 13.5 7.99935C13.5 8.40535 13.4694 8.82333 13.4227 9.24333C13.256 9.11599 13.0673 9.01193 12.856 8.94727L12.228 8.75472C11.9327 8.66339 11.6154 8.69336 11.3387 8.83936C11.0634 8.98536 10.8614 9.22998 10.77 9.52865L9.7806 12.7646C9.6886 13.0626 9.7194 13.3787 9.8654 13.6533C10.0121 13.9293 10.2574 14.1307 10.5547 14.222L11.1987 14.4186C11.3761 14.4733 11.5554 14.4987 11.7327 14.4987C12.5161 14.4987 13.244 13.9914 13.4867 13.2054L13.8006 12.1886C13.874 11.9673 13.9333 11.7373 13.9953 11.5086C14.0013 11.494 14.0106 11.482 14.0153 11.466C14.0306 11.41 14.042 11.3521 14.0566 11.2954C14.0693 11.2474 14.0853 11.2013 14.0973 11.1533C14.1027 11.1327 14.1019 11.1114 14.1066 11.0894ZM3.43669 9.90332L4.06462 9.71061C4.08195 9.70528 4.0986 9.70329 4.11393 9.70329C4.1486 9.70329 4.17606 9.71466 4.19206 9.72266C4.21472 9.73466 4.25594 9.76397 4.27327 9.82064L5.2627 13.0579C5.28003 13.1146 5.26267 13.1613 5.25 13.1839C5.238 13.2066 5.2087 13.2473 5.15137 13.2653L4.50863 13.4621C4.06863 13.5967 3.60327 13.348 3.46794 12.91L3.14941 11.8779C3.05875 11.6053 2.98136 11.324 2.90869 11.04C2.89536 10.9887 2.88392 10.9374 2.87126 10.8861C2.78326 10.4587 3.02335 10.0307 3.43669 9.90332ZM12.8486 11.8794C12.8473 11.8827 12.8467 11.886 12.8454 11.8893L12.5299 12.9113C12.3953 13.3493 11.9286 13.5967 11.4893 13.4634L10.846 13.2666C10.7887 13.2493 10.7594 13.2087 10.748 13.1854C10.7354 13.1627 10.718 13.1159 10.7354 13.0586L11.7246 9.82194C11.7419 9.76461 11.7833 9.73531 11.806 9.72331C11.822 9.71464 11.8493 9.70394 11.884 9.70394C11.8993 9.70394 11.9159 9.70593 11.9333 9.71126L12.5614 9.90462C12.9747 10.0313 13.2147 10.4594 13.1253 10.888C13.112 10.9394 13.1014 10.9913 13.0881 11.042C13.0174 11.3253 12.9393 11.6074 12.8486 11.8794Z" fill="#3B3B3E"/>
</svg>
