<svg width="16" height="16" viewBox="0 0 16 16" fill="none" xmlns="http://www.w3.org/2000/svg">
<path d="M8.46199 13.1358L7.94132 13.3691C7.90666 13.3851 7.86933 13.3918 7.83333 13.4044V7.59111C8.00933 7.55577 8.1827 7.50378 8.34936 7.43111L12.786 5.46045C12.8093 5.56512 12.8333 5.67111 12.8333 5.78111V8.00045C12.8333 8.27645 13.0573 8.50045 13.3333 8.50045C13.6093 8.50045 13.8333 8.27645 13.8333 8.00045V5.78111C13.8333 5.35644 13.72 4.95179 13.5253 4.59312C13.5246 4.59112 13.5247 4.58844 13.524 4.58578C13.5213 4.57978 13.516 4.57646 13.5133 4.57046C13.2547 4.10579 12.8553 3.72246 12.35 3.49846L8.35197 1.71979C7.70464 1.42979 6.9633 1.42912 6.3173 1.71912L2.3173 3.49846C1.81197 3.72312 1.41264 4.10644 1.15397 4.57111C1.1513 4.57711 1.14598 4.58045 1.14331 4.58645C1.14264 4.58845 1.14268 4.59113 1.14201 4.59379C0.947342 4.95246 0.833984 5.35778 0.833984 5.78178V10.2204C0.833984 11.2064 1.4167 12.1031 2.31803 12.5038L6.316 14.2825C6.63933 14.4278 6.98732 14.5004 7.33398 14.5004C7.68065 14.5004 8.02865 14.4278 8.35132 14.2825L8.87134 14.0491C9.12334 13.9364 9.23604 13.6404 9.12337 13.3884C9.01004 13.1358 8.71333 13.0231 8.46199 13.1358ZM6.72534 2.63178C7.11201 2.45778 7.55536 2.45845 7.94336 2.63245L11.9434 4.41179C12.0554 4.46179 12.154 4.53112 12.2487 4.60445L10.4294 5.41246L5.59131 3.13578L6.72534 2.63178ZM4.38403 3.67312L9.22135 5.94912L7.94735 6.51512C7.55735 6.68512 7.11004 6.68511 6.72404 6.51644L2.4187 4.60445C2.51337 4.53112 2.61137 4.46179 2.72404 4.41179L4.38403 3.67312ZM2.72331 11.5891C2.18264 11.3491 1.83333 10.8111 1.83333 10.2198V5.78111C1.83333 5.67044 1.85736 5.56512 1.8807 5.46045L6.32064 7.43246C6.48664 7.50446 6.65865 7.55711 6.83398 7.59178V13.4051C6.79732 13.3918 6.75937 13.3851 6.72404 13.3691L2.72331 11.5891ZM15.02 13.6445L13.9867 12.6118C14.2387 12.2271 14.388 11.7698 14.388 11.2765C14.388 9.92912 13.2913 8.83244 11.944 8.83244C10.596 8.83244 9.49935 9.92912 9.49935 11.2765C9.49935 12.6238 10.596 13.7204 11.944 13.7204C12.4373 13.7204 12.8946 13.5711 13.2793 13.3191L14.3127 14.3518C14.41 14.4491 14.538 14.4978 14.666 14.4978C14.794 14.4978 14.922 14.4491 15.0194 14.3511C15.2154 14.1564 15.2154 13.8398 15.02 13.6445ZM10.5 11.2765C10.5 10.4805 11.148 9.83244 11.9447 9.83244C12.7407 9.83244 13.3887 10.4805 13.3887 11.2765C13.3887 12.0725 12.7407 12.7204 11.9447 12.7204C11.148 12.7204 10.5 12.0725 10.5 11.2765Z" fill="#3B3B3E"/>
</svg>
