<svg width="16" height="16" viewBox="0 0 16 16" fill="none" xmlns="http://www.w3.org/2000/svg">
<path d="M7.99996 1.5C4.78329 1.5 2.16663 4.11667 2.16663 7.33333C2.16663 10.7453 5.29795 12.8133 7.36995 14.182L7.72264 14.416C7.80664 14.472 7.90329 14.5 7.99996 14.5C8.09663 14.5 8.19328 14.472 8.27728 14.416L8.62996 14.182C10.702 12.8133 13.8333 10.7453 13.8333 7.33333C13.8333 4.11667 11.2166 1.5 7.99996 1.5ZM8.07928 13.3473L7.99996 13.4001L7.92063 13.3473C5.91397 12.022 3.16663 10.2073 3.16663 7.33333C3.16663 4.668 5.33463 2.5 7.99996 2.5C10.6653 2.5 12.8333 4.668 12.8333 7.33333C12.8333 10.2073 10.0853 12.0227 8.07928 13.3473ZM9.49996 6.618V6C9.49996 5.17267 8.82729 4.5 7.99996 4.5C7.17263 4.5 6.49996 5.17267 6.49996 6V6.618C6.08063 6.80267 5.83329 7.2 5.83329 7.75V8.91667C5.83329 9.688 6.31196 10.1667 7.08329 10.1667H8.91663C9.68796 10.1667 10.1666 9.688 10.1666 8.91667V7.75C10.1666 7.2 9.91929 6.80267 9.49996 6.618ZM7.99996 5.5C8.27596 5.5 8.49996 5.724 8.49996 6V6.5H7.49996V6C7.49996 5.724 7.72396 5.5 7.99996 5.5ZM9.16663 8.91667C9.16663 9.14067 9.14063 9.16667 8.91663 9.16667H7.08329C6.85929 9.16667 6.83329 9.14067 6.83329 8.91667V7.75C6.83329 7.56333 6.85797 7.5167 6.99264 7.50537C6.9953 7.50537 6.99729 7.50667 6.99996 7.50667C7.00463 7.50667 7.00797 7.50407 7.01263 7.50407C7.03597 7.50274 7.05396 7.5 7.08329 7.5H8.91663C8.94663 7.5 8.96462 7.50274 8.98728 7.50407C8.99195 7.50407 8.99529 7.50667 8.99996 7.50667C9.00263 7.50667 9.00462 7.50537 9.00728 7.50537C9.14195 7.5167 9.16663 7.564 9.16663 7.75V8.91667Z" fill="#3B3B3E"/>
</svg>
