<svg width="16" height="16" viewBox="0 0 16 16" fill="none" xmlns="http://www.w3.org/2000/svg">
<g clip-path="url(#clip0_36251_9082)">
<path d="M12.2132 7.65967C12.8332 6.913 13.1665 5.98635 13.1665 5.00635C13.1665 4.69301 13.1265 4.38634 13.0598 4.08634C13.0598 4.08634 13.0598 4.07966 13.0598 4.073C13.0598 4.073 13.0598 4.07301 13.0598 4.06635C12.8865 3.31301 12.5065 2.613 11.9398 2.053C11.2332 1.34633 10.3132 0.926334 9.31983 0.846334C9.2065 0.839667 9.09317 0.833008 8.97984 0.833008C7.85984 0.833008 6.81317 1.26633 6.0265 2.053L5.6865 2.39301C5.3465 2.73301 5.1665 3.17968 5.1665 3.65301C5.1665 4.12635 5.35317 4.57967 5.6865 4.913C6.35984 5.58634 7.52651 5.593 8.21318 4.913C8.31984 4.80634 8.45984 4.74634 8.62651 4.74634C8.72651 4.74634 8.87984 4.773 9.01984 4.90633C9.15317 5.033 9.17984 5.20634 9.17984 5.29301C9.17984 5.48634 9.10651 5.67968 8.97318 5.81301L2.69984 12.0797C2.35984 12.4197 2.1665 12.873 2.1665 13.3597C2.1665 13.8463 2.35317 14.2997 2.69317 14.6397C3.03317 14.9797 3.5065 15.1663 3.97317 15.1663C4.43984 15.1663 4.89984 14.993 5.25317 14.6397L9.86651 10.033C9.86651 10.033 9.87984 10.0197 9.89317 10.0063L11.9398 7.95968C12.0265 7.87301 12.0998 7.78633 12.1798 7.69967C12.1932 7.68633 12.2065 7.673 12.2198 7.65967H12.2132ZM9.31317 9.16634H7.0265L8.35983 7.83301H10.6465L9.31317 9.16634ZM6.97984 11.4997H4.69317L6.0265 10.1663H8.31317L6.97984 11.4997ZM9.35983 6.83301L9.67317 6.51967C9.95983 6.23301 10.1332 5.83968 10.1598 5.42635L12.1532 4.85968C12.1532 4.91301 12.1665 4.95967 12.1665 5.013C12.1665 5.67967 11.9532 6.30635 11.5798 6.83968H9.36651L9.35983 6.83301ZM11.9465 3.87301L9.9265 4.453C9.85984 4.353 9.78651 4.25301 9.69984 4.17301C9.63317 4.11301 9.56651 4.06633 9.49317 4.013L9.7065 1.92635C10.2798 2.05968 10.8065 2.33968 11.2265 2.75968C11.5465 3.07968 11.7865 3.45967 11.9465 3.87301ZM7.49317 4.20634C7.19984 4.49967 6.67984 4.49967 6.38651 4.20634C6.23984 4.05967 6.15984 3.85968 6.15984 3.65301C6.15984 3.44635 6.23984 3.24634 6.38651 3.09967L6.7265 2.75968C7.25983 2.22635 7.95984 1.91968 8.7065 1.85968L8.51317 3.75301C8.11984 3.77968 7.75984 3.93301 7.49317 4.20634ZM4.53984 13.9264C4.2265 14.2397 3.71317 14.2397 3.39984 13.9264C3.2465 13.773 3.15984 13.573 3.15984 13.353C3.15984 13.133 3.2465 12.933 3.39984 12.7797L3.6865 12.493H5.97318L4.53984 13.9264V13.9264Z" fill="#3B3B3E"/>
</g>
<defs>
<clipPath id="clip0_36251_9082">
<rect width="16" height="16" fill="white"/>
</clipPath>
</defs>
</svg>
