<svg width="16" height="16" viewBox="0 0 16 16" fill="none" xmlns="http://www.w3.org/2000/svg">
<path fill-rule="evenodd" clip-rule="evenodd" d="M14.5 9.86633C14.5 8.093 13.0267 6.61968 11.1 6.31968C10.6933 4.29968 8.70666 2.83301 6.34 2.83301C3.67333 2.83301 1.5 4.72634 1.5 7.05967C1.5 8.25301 2.08 9.38635 3.09333 10.193L2.9 10.9663C2.89334 10.9997 2.88667 11.033 2.88667 11.073C2.88667 11.433 3.17334 11.7197 3.53334 11.7197C3.58667 11.7197 3.64 11.713 3.68667 11.693L3.77334 11.6663C3.80667 11.653 3.84 11.6397 3.87333 11.6197L4.78666 11.0597H4.81333C5.30667 11.2063 5.82 11.2797 6.35333 11.2797H6.6C7.22666 12.5597 8.68667 13.4663 10.3867 13.4663C10.84 13.4663 11.28 13.3997 11.6467 13.293L12.4 13.7397C12.4333 13.7597 12.4667 13.773 12.5 13.7863L12.5667 13.8063C12.62 13.8263 12.6733 13.833 12.7267 13.833C13.0667 13.833 13.3467 13.553 13.3467 13.2063C13.3467 13.173 13.3467 13.133 13.3333 13.0997L13.18 12.5063C14.02 11.8263 14.5 10.8663 14.5 9.85968V9.86633ZM6.27334 9.86633C6.27334 10.0063 6.28666 10.1464 6.3 10.2797C5.88 10.2797 5.46 10.2197 5.06 10.0997C5.04 10.0997 5.01334 10.0863 4.99334 10.0863L4.86667 10.0663C4.67334 10.0397 4.48 10.093 4.30667 10.1997L4.08667 10.333L4.11333 10.1997C4.11333 10.1997 4.11333 10.1463 4.11333 10.1197C4.11333 9.86634 3.99334 9.61967 3.79334 9.473C2.96667 8.85967 2.49334 7.97967 2.49334 7.05967C2.49334 5.27967 4.21333 3.83301 6.33333 3.83301C8.08667 3.83301 9.61333 4.86634 10.04 6.27301C7.93333 6.42634 6.26666 7.97301 6.26666 9.85968L6.27334 9.86633ZM12.4533 11.813C12.26 11.953 12.1467 12.1797 12.1467 12.4197V12.433L12.1133 12.413C11.9467 12.313 11.7667 12.2663 11.5867 12.293L11.42 12.3263C11.0867 12.4263 10.7333 12.473 10.38 12.473C8.66001 12.473 7.26666 11.3063 7.26666 9.86633C7.26666 8.42633 8.66667 7.25968 10.38 7.25968C12.0933 7.25968 13.4933 8.42633 13.4933 9.86633C13.4933 10.6063 13.1133 11.313 12.4467 11.813H12.4533ZM9.66 9.013C9.66 9.27967 9.44667 9.493 9.18 9.493C8.91334 9.493 8.7 9.27967 8.7 9.013C8.7 8.74633 8.91334 8.533 9.18 8.533C9.44667 8.533 9.66 8.74633 9.66 9.013ZM12.0667 9.013C12.0667 9.27967 11.8533 9.493 11.5867 9.493C11.32 9.493 11.1067 9.27967 11.1067 9.013C11.1067 8.74633 11.32 8.533 11.5867 8.533C11.8533 8.533 12.0667 8.74633 12.0667 9.013ZM5.46666 6.10634C5.46666 6.42634 5.20667 6.68634 4.88667 6.68634C4.56667 6.68634 4.30667 6.42634 4.30667 6.10634C4.30667 5.78634 4.56667 5.52635 4.88667 5.52635C5.20667 5.52635 5.46666 5.78634 5.46666 6.10634ZM8.36 6.10634C8.36 6.42634 8.1 6.68634 7.78 6.68634C7.46 6.68634 7.2 6.42634 7.2 6.10634C7.2 5.78634 7.46 5.52635 7.78 5.52635C8.1 5.52635 8.36 5.78634 8.36 6.10634Z" fill="#3B3B3E"/>
</svg>
