<svg width="16" height="16" viewBox="0 0 16 16" fill="none" xmlns="http://www.w3.org/2000/svg">
<path d="M6.84668 14.0003C6.84668 14.4603 6.47335 14.8336 6.01335 14.8336C5.55401 14.8336 5.17668 14.4603 5.17668 14.0003C5.17668 13.5403 5.54667 13.167 6.00667 13.167H6.01335C6.47335 13.167 6.84668 13.5403 6.84668 14.0003ZM11.3467 13.167H11.34C10.88 13.167 10.51 13.5403 10.51 14.0003C10.51 14.4603 10.8867 14.8336 11.3467 14.8336C11.8067 14.8336 12.18 14.4603 12.18 14.0003C12.18 13.5403 11.8067 13.167 11.3467 13.167ZM14.47 5.66164L13.794 9.77231C13.6187 10.7363 13.1827 11.8336 11.3333 11.8336H5.82267C4.91667 11.8336 4.13598 11.157 4.00798 10.2596L3.0013 3.21631C2.94264 2.80831 2.58868 2.50098 2.17668 2.50098H2C1.724 2.50098 1.5 2.27698 1.5 2.00098C1.5 1.72498 1.724 1.50098 2 1.50098H2.17733C3.08333 1.50098 3.86402 2.17764 3.99202 3.07497L4.0533 3.50098H12.6667C13.212 3.50098 13.7254 3.74097 14.0747 4.15964C14.4234 4.57764 14.568 5.12564 14.47 5.66164ZM13.306 4.79964C13.1473 4.60964 12.914 4.5003 12.666 4.5003H4.19531L4.99797 10.1183C5.05663 10.5263 5.41067 10.8336 5.82267 10.8336H11.3333C12.398 10.8336 12.6573 10.4363 12.8087 9.6023L13.4847 5.49097C13.5307 5.23897 13.4647 4.98964 13.306 4.79964ZM10.1867 6.31364C9.99135 6.11831 9.67466 6.11831 9.47933 6.31364L8.83268 6.96031L8.18604 6.31364C7.9907 6.11831 7.67401 6.11831 7.47868 6.31364C7.28335 6.50897 7.28335 6.82564 7.47868 7.02098L8.12533 7.66764L7.47868 8.3143C7.28335 8.50963 7.28335 8.8263 7.47868 9.02164C7.57601 9.11897 7.70403 9.1683 7.83203 9.1683C7.96003 9.1683 8.08797 9.11964 8.1853 9.02164L8.83203 8.37497L9.47868 9.02164C9.57601 9.11897 9.70403 9.1683 9.83203 9.1683C9.96003 9.1683 10.088 9.11964 10.1853 9.02164C10.3806 8.8263 10.3806 8.50963 10.1853 8.3143L9.53866 7.66764L10.1853 7.02098C10.382 6.82498 10.382 6.50897 10.1867 6.31364Z" fill="#3B3B3E"/>
</svg>
