<svg width="16" height="16" viewBox="0 0 16 16" fill="none" xmlns="http://www.w3.org/2000/svg">
<path d="M14.3634 5.24764L13.6707 3.19964C13.3447 2.23697 12.9414 1.50098 11.0001 1.50098H5.00008C3.05875 1.50098 2.65541 2.23697 2.33008 3.19964L1.63607 5.2483C1.32874 6.15763 1.55742 7.12564 2.16675 7.76297V12.0003C2.16675 13.6123 3.05475 14.5003 4.66675 14.5003H11.3334C12.9454 14.5003 13.8334 13.6123 13.8334 12.0003V7.76231C14.4428 7.12498 14.6708 6.15697 14.3634 5.24764ZM2.58342 5.56831L3.27743 3.51964C3.50676 2.84098 3.62208 2.50031 5.00008 2.50031H11.0001C12.3781 2.50031 12.4934 2.84098 12.7234 3.51964L13.4161 5.56764C13.6454 6.24364 13.4027 6.97031 12.8407 7.29497C12.0227 7.76697 10.7847 7.2963 10.5014 6.49963C10.4307 6.3003 10.2414 6.16697 10.0301 6.16697C10.0294 6.16697 10.0287 6.16697 10.0281 6.16697C9.81608 6.16764 9.62679 6.3023 9.55746 6.50297C9.36012 7.07164 8.69075 7.50031 8.00008 7.50031C7.30942 7.50031 6.64005 7.07164 6.44271 6.50297C6.37338 6.3023 6.18409 6.16764 5.97209 6.16697C5.78209 6.18964 5.56945 6.29963 5.49878 6.49963C5.29612 7.06963 4.62345 7.50031 3.93278 7.50031C3.65878 7.50031 3.39143 7.42964 3.15943 7.29497C2.59743 6.97097 2.35475 6.24431 2.58342 5.56831ZM8.85344 13.5003H7.18677V11.667C7.18677 11.2076 7.56077 10.8336 8.0201 10.8336C8.47944 10.8336 8.85344 11.2076 8.85344 11.667V13.5003ZM11.3334 13.5003H9.85344V11.667C9.85344 10.6556 9.03144 9.83364 8.0201 9.83364C7.00877 9.83364 6.18677 10.6556 6.18677 11.667V13.5003H4.66675C3.61542 13.5003 3.16675 13.0516 3.16675 12.0003V8.36964C4.14675 8.65764 5.30412 8.3343 5.96745 7.60897C6.46212 8.1523 7.21608 8.49963 8.00008 8.49963C8.78408 8.49963 9.53805 8.1523 10.0327 7.60897C10.5301 8.1523 11.2847 8.49963 12.0674 8.49963C12.3294 8.49963 12.5868 8.45497 12.8334 8.37763V12.0003C12.8334 13.0516 12.3848 13.5003 11.3334 13.5003Z" fill="#3B3B3E"/>
</svg>
