<svg width="16" height="16" viewBox="0 0 16 16" fill="none" xmlns="http://www.w3.org/2000/svg">
<path d="M11.6867 10.3133C11.882 10.5086 11.882 10.8253 11.6867 11.0207L8.35335 14.354C8.30735 14.4 8.25207 14.4367 8.19141 14.4621C8.13074 14.4874 8.06533 14.5007 8 14.5007C7.93467 14.5007 7.86993 14.4874 7.80859 14.4621C7.74726 14.4367 7.69265 14.4 7.64665 14.354L4.31331 11.0207C4.11798 10.8253 4.11798 10.5086 4.31331 10.3133C4.50865 10.118 4.82534 10.118 5.02067 10.3133L7.50065 12.7933V4.66667C7.50065 4.39067 7.72465 4.16667 8.00065 4.16667C8.27665 4.16667 8.50065 4.39067 8.50065 4.66667V12.7926L10.9806 10.3127C11.1753 10.118 11.4914 10.118 11.6867 10.3133ZM12 1.5H4C3.724 1.5 3.5 1.724 3.5 2C3.5 2.276 3.724 2.5 4 2.5H12C12.276 2.5 12.5 2.276 12.5 2C12.5 1.724 12.276 1.5 12 1.5Z" fill="#3B3B3E"/>
</svg>
