<svg width="16" height="16" viewBox="0 0 16 16" fill="none" xmlns="http://www.w3.org/2000/svg">
<path d="M14.3932 4.59963C14.0332 3.1463 12.8599 1.97296 11.4132 1.59963C10.4199 1.3463 9.34655 1.55964 8.46655 2.17298C7.54655 2.81964 6.42653 3.17297 5.0332 3.25297C4.20653 3.29964 3.43319 3.61298 2.85986 4.13298C1.71319 5.15964 1.23986 6.78631 1.65319 8.27964C1.90653 9.19298 2.57319 9.99963 3.48653 10.493C4.47319 11.0263 5.17987 11.653 5.53987 12.313C6.27987 13.673 7.57321 14.493 8.91988 14.493C9.06654 14.493 9.21322 14.4863 9.35322 14.4663C10.1732 14.3596 10.9332 14.013 11.5465 13.4663C12.2532 12.833 12.6665 11.893 12.7065 10.8196C12.7465 9.70631 13.1465 8.59297 13.8799 7.49964C14.4599 6.63964 14.6465 5.58631 14.3999 4.59298L14.3932 4.59963ZM13.0399 6.94631C12.1999 8.19298 11.7465 9.4863 11.6932 10.7863C11.6599 11.5863 11.3665 12.273 10.8665 12.7196C10.3999 13.133 9.82654 13.393 9.20654 13.4796C8.1132 13.6263 7.01986 12.9796 6.39986 11.8396C5.94652 10.9996 5.11986 10.253 3.94653 9.61963C3.27319 9.25296 2.78652 8.67297 2.60652 8.01964C2.29985 6.89297 2.65323 5.65963 3.51989 4.88629C3.93323 4.51963 4.48654 4.29298 5.08654 4.25965C6.66654 4.16631 7.95986 3.75297 9.0332 2.99964C9.66653 2.55964 10.4599 2.39963 11.1599 2.57963C12.2599 2.85963 13.1465 3.7463 13.4199 4.8463C13.5932 5.55296 13.4532 6.33963 13.0399 6.95296V6.94631ZM7.65987 4.83297C6.09987 4.83297 4.82653 6.1063 4.82653 7.6663C4.82653 9.2263 6.09987 10.4996 7.65987 10.4996C9.21987 10.4996 10.4932 9.2263 10.4932 7.6663C10.4932 6.1063 9.21987 4.83297 7.65987 4.83297ZM7.65987 9.49964C6.64653 9.49964 5.82653 8.67964 5.82653 7.6663C5.82653 6.65297 6.64653 5.83297 7.65987 5.83297C8.6732 5.83297 9.4932 6.65297 9.4932 7.6663C9.4932 8.67964 8.6732 9.49964 7.65987 9.49964Z" fill="#3B3B3E"/>
</svg>
