<svg width="16" height="16" viewBox="0 0 16 16" fill="none" xmlns="http://www.w3.org/2000/svg">
<path d="M14 3.5H11.6273C11.0267 3.5 11.0013 3.424 10.8367 2.93066L10.702 2.526C10.4973 1.91267 9.926 1.5 9.27934 1.5H6.72066C6.074 1.5 5.502 1.912 5.298 2.526L5.16334 2.93066C4.99867 3.42466 4.97333 3.5 4.37267 3.5H2C1.724 3.5 1.5 3.724 1.5 4C1.5 4.276 1.724 4.5 2 4.5H2.86533L3.37667 12.166C3.47534 13.6493 4.38467 14.5 5.87134 14.5H10.1293C11.6153 14.5 12.5247 13.6493 12.624 12.166L13.1353 4.5H14C14.276 4.5 14.5 4.276 14.5 4C14.5 3.724 14.276 3.5 14 3.5ZM6.24666 2.842C6.31533 2.63733 6.50533 2.5 6.72066 2.5H9.27934C9.49467 2.5 9.68534 2.63733 9.75334 2.842L9.888 3.24666C9.91733 3.334 9.94667 3.41867 9.97867 3.5H6.02C6.052 3.418 6.08201 3.33333 6.11134 3.24666L6.24666 2.842ZM11.6253 12.0993C11.562 13.0547 11.086 13.5 10.1287 13.5H5.87067C4.91333 13.5 4.438 13.0553 4.374 12.0993L3.86734 4.5H4.372C4.45533 4.5 4.52467 4.49134 4.59933 4.486C4.622 4.48934 4.64267 4.5 4.666 4.5H11.3327C11.3567 4.5 11.3767 4.48934 11.3993 4.486C11.474 4.49134 11.5433 4.5 11.6267 4.5H12.1313L11.6253 12.0993ZM9.83333 7.33333V10.6667C9.83333 10.9427 9.60933 11.1667 9.33333 11.1667C9.05733 11.1667 8.83333 10.9427 8.83333 10.6667V7.33333C8.83333 7.05733 9.05733 6.83333 9.33333 6.83333C9.60933 6.83333 9.83333 7.05733 9.83333 7.33333ZM7.16667 7.33333V10.6667C7.16667 10.9427 6.94267 11.1667 6.66667 11.1667C6.39067 11.1667 6.16667 10.9427 6.16667 10.6667V7.33333C6.16667 7.05733 6.39067 6.83333 6.66667 6.83333C6.94267 6.83333 7.16667 7.05733 7.16667 7.33333Z" fill="#3B3B3E"/>
</svg>
