<svg width="16" height="16" viewBox="0 0 16 16" fill="none" xmlns="http://www.w3.org/2000/svg">
<path d="M8.49992 12.4746V14C8.49992 14.276 8.27592 14.5 7.99992 14.5C7.72392 14.5 7.49992 14.276 7.49992 14V12.4746C4.88459 12.2226 2.83325 10.0133 2.83325 7.33333C2.83325 7.05733 3.05725 6.83333 3.33325 6.83333C3.60925 6.83333 3.83325 7.05733 3.83325 7.33333C3.83325 9.63067 5.70259 11.5 7.99992 11.5C10.2973 11.5 12.1666 9.63067 12.1666 7.33333C12.1666 7.05733 12.3906 6.83333 12.6666 6.83333C12.9426 6.83333 13.1666 7.05733 13.1666 7.33333C13.1666 10.0133 11.1153 12.2219 8.49992 12.4746ZM4.83325 7.33333V4.66667C4.83325 2.92067 6.25392 1.5 7.99992 1.5C9.74592 1.5 11.1666 2.92067 11.1666 4.66667V7.33333C11.1666 9.07933 9.74592 10.5 7.99992 10.5C6.25392 10.5 4.83325 9.07933 4.83325 7.33333ZM5.83325 7.33333C5.83325 8.528 6.80525 9.5 7.99992 9.5C9.19458 9.5 10.1666 8.528 10.1666 7.33333V4.66667C10.1666 3.472 9.19458 2.5 7.99992 2.5C6.80525 2.5 5.83325 3.472 5.83325 4.66667V7.33333Z" fill="#3B3B3E"/>
</svg>
