<svg width="16" height="16" viewBox="0 0 16 16" fill="none" xmlns="http://www.w3.org/2000/svg">
<path d="M11.75 1.5H4.25C2.47667 1.5 1.5 2.47667 1.5 4.25V11.75C1.5 13.5233 2.47667 14.5 4.25 14.5H11.75C13.5233 14.5 14.5 13.5233 14.5 11.75V4.25C14.5 2.47667 13.5233 1.5 11.75 1.5ZM13.5 11.75C13.5 12.9767 12.9767 13.5 11.75 13.5H4.25C3.02333 13.5 2.5 12.9767 2.5 11.75V4.25C2.5 3.02333 3.02333 2.5 4.25 2.5H11.75C12.9767 2.5 13.5 3.02333 13.5 4.25V11.75ZM10.8333 8C10.8333 8.276 10.6093 8.5 10.3333 8.5H5.66667C5.39067 8.5 5.16667 8.276 5.16667 8C5.16667 7.724 5.39067 7.5 5.66667 7.5H10.3333C10.6093 7.5 10.8333 7.724 10.8333 8Z" fill="#3B3B3E"/>
</svg>
