<svg width="16" height="16" viewBox="0 0 16 16" fill="none" xmlns="http://www.w3.org/2000/svg">
<path d="M8.00016 0.833008C4.04816 0.833008 0.833496 4.04767 0.833496 7.99967C0.833496 11.9517 4.04816 15.1663 8.00016 15.1663C11.9522 15.1663 15.1668 11.9517 15.1668 7.99967C15.1668 4.04767 11.9522 0.833008 8.00016 0.833008ZM8.00016 14.1663C4.5995 14.1663 1.8335 11.4003 1.8335 7.99967C1.8335 4.59901 4.5995 1.83301 8.00016 1.83301C11.4008 1.83301 14.1668 4.59901 14.1668 7.99967C14.1668 11.4003 11.4008 14.1663 8.00016 14.1663ZM10.5002 5.33301V10.6663C10.5002 10.9423 10.2762 11.1663 10.0002 11.1663C9.72416 11.1663 9.50016 10.9423 9.50016 10.6663V8.49967H6.50016V10.6663C6.50016 10.9423 6.27616 11.1663 6.00016 11.1663C5.72416 11.1663 5.50016 10.9423 5.50016 10.6663V5.33301C5.50016 5.05701 5.72416 4.83301 6.00016 4.83301C6.27616 4.83301 6.50016 5.05701 6.50016 5.33301V7.49967H9.50016V5.33301C9.50016 5.05701 9.72416 4.83301 10.0002 4.83301C10.2762 4.83301 10.5002 5.05701 10.5002 5.33301Z" fill="#3B3B3E"/>
</svg>
