<svg width="16" height="16" viewBox="0 0 16 16" fill="none" xmlns="http://www.w3.org/2000/svg">
<g clip-path="url(#clip0_36251_7456)">
<path d="M11.6199 0.833008H7.04728C5.64062 0.833008 4.8339 1.63964 4.8339 3.04631V3.49967H4.38127C2.95327 3.49967 2.16724 4.28637 2.16724 5.7137V14.6663C2.16724 14.845 2.26259 15.0097 2.41659 15.099C2.49392 15.1437 2.58057 15.1663 2.66724 15.1663C2.75257 15.1663 2.83862 15.1443 2.91528 15.1003L6.66724 12.9564L10.4192 15.1003C10.5739 15.189 10.7646 15.1883 10.9179 15.0983C11.0719 15.009 11.1672 14.8443 11.1672 14.6663V11.3357L13.0852 12.4337C13.1625 12.4777 13.2479 12.4997 13.3339 12.4997C13.4206 12.4997 13.5072 12.477 13.5846 12.4324C13.7386 12.343 13.8339 12.1783 13.8339 11.9997V3.04631C13.8332 1.63964 13.0265 0.833008 11.6199 0.833008ZM10.1666 13.8044L6.91463 11.9464C6.7613 11.8584 6.57187 11.8584 6.41854 11.9464L3.16659 13.805V5.71436C3.16659 4.85236 3.51795 4.50033 4.38062 4.50033H8.9519C9.81457 4.50033 10.1659 4.85236 10.1659 5.71436V13.8044H10.1666ZM12.8333 11.1377L11.1666 10.183V5.7137C11.1666 4.2857 10.3799 3.49967 8.95256 3.49967H5.83325V3.04631C5.83325 2.18497 6.18463 1.83301 7.04663 1.83301H11.6192C12.4812 1.83301 12.8326 2.18431 12.8326 3.04631V11.1377H12.8333ZM7.62655 5.78703C7.62388 5.78703 7.62125 5.78703 7.61792 5.78703C7.21259 5.78703 6.89793 5.94032 6.66593 6.14298C6.43393 5.94032 6.11995 5.78703 5.71395 5.78703C5.71128 5.78703 5.70799 5.78703 5.70532 5.78703C5.17866 5.78969 4.73526 5.99166 4.42326 6.37166C4.04993 6.82633 3.91392 7.48504 4.04858 8.17904C4.37592 9.86904 6.37326 10.7956 6.45793 10.8343C6.52393 10.8643 6.59395 10.879 6.66528 10.879C6.73662 10.879 6.80664 10.8643 6.87264 10.8343C6.95731 10.7956 8.95398 9.86902 9.28198 8.17969C9.41665 7.48502 9.28063 6.82566 8.90796 6.37166C8.59729 5.991 8.15388 5.78969 7.62655 5.78703ZM8.30119 7.98836C8.12185 8.91036 7.10992 9.56834 6.66659 9.81567C6.22325 9.56767 5.20998 8.91036 5.03198 7.98836C4.95665 7.59903 5.01933 7.22238 5.198 7.00505C5.318 6.85905 5.486 6.78704 5.712 6.78638C5.71266 6.78638 5.71327 6.78638 5.7146 6.78638C6.04593 6.78638 6.18063 7.13032 6.19263 7.16366C6.26063 7.36566 6.4492 7.49903 6.66187 7.50236C6.66387 7.50236 6.66587 7.50236 6.66854 7.50236C6.87787 7.50236 7.06789 7.36768 7.13989 7.16968C7.15389 7.13034 7.28852 6.78638 7.62052 6.78638C7.62119 6.78638 7.62197 6.78638 7.62264 6.78638C7.84931 6.78704 8.0173 6.85905 8.13664 7.00505C8.31397 7.22171 8.37719 7.59903 8.30119 7.98836Z" fill="#3B3B3E"/>
</g>
<defs>
<clipPath id="clip0_36251_7456">
<rect width="16" height="16" fill="white"/>
</clipPath>
</defs>
</svg>
