<svg width="16" height="16" viewBox="0 0 16 16" fill="none" xmlns="http://www.w3.org/2000/svg">
<path d="M8.49309 6.95428C8.26776 6.79495 8.21374 6.48294 8.3724 6.25761L9.19044 5.09761C9.20244 5.08095 9.21975 5.07161 9.23308 5.05694C9.26308 5.02361 9.29241 4.98895 9.33041 4.96428C9.44174 4.89295 9.57779 4.86827 9.70712 4.89694C9.77445 4.91161 9.8371 4.93961 9.89177 4.97961L11.0398 5.78828C11.2651 5.94761 11.3191 6.25961 11.1604 6.48494C11.0011 6.71027 10.6897 6.76494 10.4631 6.60561L10.3024 6.49228L10.5551 7.92427C10.6031 8.19627 10.4217 8.45561 10.1497 8.50361C10.1204 8.50894 10.0911 8.51161 10.0624 8.51161C9.82443 8.51161 9.61313 8.34094 9.57113 8.09827L9.31641 6.65494L9.19109 6.83294C9.09375 6.97094 8.93908 7.04428 8.78175 7.04428C8.68108 7.04494 8.58109 7.01561 8.49309 6.95428ZM5.88909 6.14494C5.74242 5.31494 5.84378 4.66561 6.19711 4.16027C6.55111 3.65427 7.12777 3.33761 7.95777 3.19094L10.3805 2.76361C12.0218 2.47361 13.0444 3.1896 13.3337 4.83227L13.7611 7.25494C13.9077 8.08494 13.8064 8.73427 13.4524 9.24027C13.0991 9.7456 12.5224 10.0623 11.6924 10.2089L9.26978 10.6363C9.03245 10.6783 8.80706 10.6996 8.59506 10.6996C7.34639 10.6996 6.56375 9.97294 6.31641 8.56827L5.88909 6.14494ZM6.87379 5.9716L7.30111 8.39427C7.49511 9.49161 7.99711 9.84427 9.09644 9.65161L11.5191 9.22428C12.0745 9.12628 12.4391 8.94428 12.6331 8.66695C12.8271 8.38961 12.8738 7.98495 12.7765 7.42961L12.3491 5.00694C12.1885 4.09761 11.8158 3.69894 11.0684 3.69894C10.9138 3.69894 10.7425 3.71628 10.5538 3.74961L8.13111 4.17695C7.57578 4.27495 7.2111 4.45761 7.0171 4.73494C6.82243 5.01094 6.77579 5.41627 6.87379 5.9716ZM14.4918 11.0996C14.5398 11.3716 14.3584 11.6309 14.0864 11.6789L7.14242 12.9009C7.02576 13.8003 6.26376 14.4996 5.3331 14.4996C4.32176 14.4996 3.49976 13.6776 3.49976 12.6663C3.49976 11.8396 4.05307 11.1469 4.8064 10.9189L3.44776 3.18628C3.36843 2.73494 2.93376 2.43428 2.47909 2.51161L2.0831 2.57895C1.8131 2.62361 1.55242 2.44161 1.50709 2.16961C1.46109 1.89695 1.64376 1.63894 1.91643 1.59294L2.30974 1.52627C3.29441 1.35361 4.25713 2.01961 4.43246 3.01227L5.8191 10.9056C6.3451 11.0516 6.77645 11.4209 6.99911 11.9103L13.9131 10.6929C14.1858 10.6456 14.4451 10.8276 14.4918 11.0996ZM6.16643 12.6663C6.16643 12.2069 5.79243 11.8329 5.3331 11.8329C4.87376 11.8329 4.49976 12.2069 4.49976 12.6663C4.49976 13.1256 4.87376 13.4996 5.3331 13.4996C5.79243 13.4996 6.16643 13.1256 6.16643 12.6663Z" fill="#3B3B3E"/>
</svg>
