<svg width="16" height="16" viewBox="0 0 16 16" fill="none" xmlns="http://www.w3.org/2000/svg">
<path d="M10.0201 6.68712L6.68677 10.0205C6.58943 10.1178 6.46141 10.1671 6.33341 10.1671C6.20541 10.1671 6.0774 10.1185 5.98006 10.0205C5.78473 9.82512 5.78473 9.50845 5.98006 9.31311L9.3134 5.97978C9.50873 5.78445 9.82542 5.78445 10.0208 5.97978C10.2154 6.17511 10.2154 6.49245 10.0201 6.68712ZM6.34676 7.00045C6.71543 7.00045 7.01343 6.70178 7.01343 6.33378C7.01343 5.96578 6.71543 5.66712 6.34676 5.66712H6.34009C5.97209 5.66712 5.67676 5.96578 5.67676 6.33378C5.67676 6.70178 5.97876 7.00045 6.34676 7.00045ZM9.68009 9.00045H9.67342C9.30542 9.00045 9.01009 9.29912 9.01009 9.66712C9.01009 10.0351 9.31209 10.3338 9.68009 10.3338C10.0488 10.3338 10.3468 10.0351 10.3468 9.66712C10.3468 9.29912 10.0481 9.00045 9.68009 9.00045ZM13.8334 3.58645V12.4151C13.8334 12.8598 13.5861 13.2598 13.1881 13.4585C12.7914 13.6571 12.3234 13.6151 11.9667 13.3485L11.0607 12.6685C10.8634 12.5205 10.5821 12.5398 10.4074 12.7151L9.06071 14.0611C8.76871 14.3538 8.38408 14.4998 8.00008 14.4998C7.61608 14.4998 7.23212 14.3538 6.93945 14.0611L5.59277 12.7151C5.41744 12.5404 5.13672 12.5211 4.93872 12.6691L4.03345 13.3485C3.67745 13.6151 3.20876 13.6571 2.81209 13.4585C2.41409 13.2598 2.16675 12.8598 2.16675 12.4151V3.58645C2.16675 3.14178 2.41409 2.74178 2.81209 2.54311C3.20876 2.34378 3.67745 2.38645 4.03345 2.65312L4.93945 3.33311C5.13612 3.48111 5.41811 3.46177 5.59277 3.28644L6.93945 1.94045C7.52412 1.35579 8.47604 1.35579 9.06071 1.94045L10.4074 3.28711C10.5827 3.46178 10.8634 3.48111 11.0614 3.33311L11.9667 2.65379C12.3234 2.38712 12.7914 2.34445 13.1881 2.54379C13.5861 2.74179 13.8334 3.14112 13.8334 3.58645ZM12.8334 3.58645C12.8334 3.49645 12.7755 3.45445 12.7415 3.43712C12.7061 3.41978 12.6394 3.39844 12.5667 3.45311L11.6607 4.13312C11.0681 4.57712 10.2254 4.51844 9.70011 3.99378L8.35343 2.64712C8.1581 2.45245 7.84141 2.45245 7.64608 2.64712L6.2994 3.99313C5.77473 4.51779 4.9301 4.57645 4.33944 4.13245L3.43278 3.45246C3.36145 3.39779 3.29339 3.41911 3.25806 3.43645C3.22406 3.45378 3.1661 3.49578 3.1661 3.58578V12.4145C3.1661 12.5045 3.22406 12.5465 3.25806 12.5638C3.29339 12.5811 3.36078 12.6025 3.43278 12.5478L4.33879 11.8678C4.60479 11.6684 4.92139 11.5705 5.23739 11.5705C5.62472 11.5705 6.01072 11.7185 6.30005 12.0071L7.64673 13.3538C7.8354 13.5424 8.16475 13.5424 8.35409 13.3538L9.70077 12.0078C10.2254 11.4831 11.0694 11.4245 11.6607 11.8685L12.5674 12.5484C12.6394 12.6031 12.7068 12.5811 12.7421 12.5645C12.7761 12.5471 12.8341 12.5051 12.8341 12.4151V3.58645H12.8334Z" fill="#3B3B3E"/>
</svg>
