<svg width="16" height="16" viewBox="0 0 16 16" fill="none" xmlns="http://www.w3.org/2000/svg">
<path d="M11.1601 4.84C11.1601 4.78666 11.1601 4.72667 11.1601 4.66667C11.1601 2.92 9.74007 1.5 7.9934 1.5C6.24674 1.5 4.82673 2.92 4.82673 4.66667C4.82673 4.72667 4.82673 4.78 4.82673 4.84C3.70673 4.92 2.82007 5.86 2.82007 7C2.82007 8.14 3.7934 9.16667 4.98674 9.16667H4.9934L7.10674 13.9267C7.26007 14.28 7.60006 14.5 7.98673 14.5C8.3734 14.5 8.70674 14.28 8.86674 13.9267L10.9801 9.16667H10.9867C12.1801 9.16667 13.1534 8.19333 13.1534 7C13.1534 5.80667 12.2667 4.92 11.1467 4.84H11.1601ZM8.00007 13.44L6.10006 9.16667H9.8934L7.9934 13.44H8.00007ZM11.0001 8.16667H5.00007C4.36007 8.16667 3.8334 7.64 3.8334 7C3.8334 6.36 4.36007 5.83333 5.00007 5.83333C5.10007 5.83333 5.20007 5.84667 5.2934 5.87333C5.46673 5.92667 5.65339 5.87333 5.78673 5.74666C5.91339 5.62 5.96673 5.42667 5.9134 5.25334C5.86006 5.06667 5.8334 4.87333 5.8334 4.66667C5.8334 3.47333 6.80673 2.5 8.00007 2.5C9.1934 2.5 10.1667 3.47333 10.1667 4.66667C10.1667 4.87333 10.1401 5.06667 10.0867 5.25334C10.0334 5.42667 10.0867 5.61333 10.2134 5.74666C10.3401 5.87333 10.5334 5.92667 10.7067 5.87333C10.8001 5.84667 10.9001 5.83333 11.0001 5.83333C11.6401 5.83333 12.1667 6.36 12.1667 7C12.1667 7.64 11.6401 8.16667 11.0001 8.16667Z" fill="#3B3B3E"/>
</svg>
