<svg width="16" height="16" viewBox="0 0 16 16" fill="none" xmlns="http://www.w3.org/2000/svg">
<path d="M8.00016 15.1663C4.04683 15.1663 0.833496 11.953 0.833496 7.99967C0.833496 4.04634 4.04683 0.833008 8.00016 0.833008C11.9535 0.833008 15.1668 4.04634 15.1668 7.99967C15.1668 11.953 11.9535 15.1663 8.00016 15.1663ZM8.00016 1.83301C4.60016 1.83301 1.8335 4.59967 1.8335 7.99967C1.8335 11.3997 4.60016 14.1663 8.00016 14.1663C11.4002 14.1663 14.1668 11.3997 14.1668 7.99967C14.1668 4.59967 11.4002 1.83301 8.00016 1.83301ZM10.8202 6.66634C10.8202 5.99301 10.4668 5.49967 9.98683 5.49967C9.50683 5.49967 9.15349 5.99301 9.15349 6.66634C9.15349 7.33967 9.50683 7.83301 9.98683 7.83301C10.4668 7.83301 10.8202 7.33967 10.8202 6.66634ZM6.82016 6.66634C6.82016 5.99301 6.46683 5.49967 5.98683 5.49967C5.50683 5.49967 5.15349 5.99301 5.15349 6.66634C5.15349 7.33967 5.50683 7.83301 5.98683 7.83301C6.46683 7.83301 6.82016 7.33967 6.82016 6.66634Z" fill="#3B3B3E"/>
</svg>
