<svg width="16" height="16" viewBox="0 0 16 16" fill="none" xmlns="http://www.w3.org/2000/svg">
<path d="M10.9067 4C9.81336 4 8.95337 4.8 8.18003 5.82667C7.11337 4.50667 6.2267 4 5.16003 4C3.00003 4 1.33337 6.76 1.33337 9.68667C1.33337 11.5133 2.24004 12.6667 3.75338 12.6667C4.84671 12.6667 5.62671 12.1667 7.02004 9.78C7.02004 9.78 7.60004 8.77334 8.00004 8.08667C8.14004 8.31334 8.29338 8.55334 8.44672 8.80667L9.09338 9.88667C10.3667 11.9667 11.0867 12.6733 12.3667 12.6733C13.84 12.6733 14.66 11.5067 14.66 9.63333C14.66 6.58 12.9667 4.00666 10.9 4.00666L10.9067 4ZM5.96672 9.13333C4.83338 10.8667 4.44004 11.26 3.81337 11.26C3.18671 11.26 2.77338 10.7 2.77338 9.71334C2.77338 7.58667 3.86004 5.42 5.14671 5.42C5.85337 5.42 6.43337 5.81334 7.3267 7.06667C6.48003 8.33334 5.96672 9.13333 5.96672 9.13333V9.13333ZM12.4067 11.26C11.76 11.26 11.4534 10.84 10.2334 8.92L9.45337 7.64C9.23337 7.30667 9.03337 6.98666 8.8467 6.70666C9.55337 5.64666 10.1334 5.11333 10.82 5.11333C12.26 5.11333 13.4134 7.18 13.4134 9.72C13.4134 10.6867 13.0867 11.26 12.4134 11.26H12.4067Z" fill="#3B3B3E"/>
</svg>
