<svg width="16" height="16" viewBox="0 0 16 16" fill="none" xmlns="http://www.w3.org/2000/svg">
<path d="M12 2.16699H4C2.388 2.16699 1.5 3.05499 1.5 4.66699V11.3337C1.5 12.9457 2.388 13.8337 4 13.8337H12C13.612 13.8337 14.5 12.9457 14.5 11.3337V4.66699C14.5 3.05499 13.612 2.16699 12 2.16699ZM4 3.16699H12C13.0513 3.16699 13.5 3.61566 13.5 4.66699V8.79297L10.8267 6.12028C10.3867 5.67961 9.61334 5.67961 9.17334 6.12028L6 9.29297L5.49333 8.78695C5.05333 8.34628 4.28001 8.34628 3.84001 8.78695L2.5 10.127V4.66699C2.5 3.61566 2.94867 3.16699 4 3.16699ZM12 12.8337H4C3.01867 12.8337 2.56798 12.4363 2.51131 11.529L4.54663 9.49365C4.6313 9.40965 4.7013 9.40965 4.78597 9.49365L5.41203 10.1196C5.72336 10.4316 6.27602 10.431 6.58602 10.1196L9.87931 6.82633C9.96398 6.74233 10.034 6.74233 10.1187 6.82633L13.4987 10.2064V11.3337C13.5 12.385 13.0513 12.8337 12 12.8337ZM4.5 6.00033C4.5 5.54033 4.87333 5.16699 5.33333 5.16699C5.79333 5.16699 6.16667 5.54033 6.16667 6.00033C6.16667 6.46033 5.79333 6.83366 5.33333 6.83366C4.87333 6.83366 4.5 6.46033 4.5 6.00033Z" fill="#3B3B3E"/>
</svg>
