<svg width="16" height="16" viewBox="0 0 16 16" fill="none" xmlns="http://www.w3.org/2000/svg">
<path d="M8.66658 13.167H3.33325C1.72125 13.167 0.833252 12.279 0.833252 10.667V4.66699C0.833252 3.05499 1.72125 2.16699 3.33325 2.16699H11.3333C12.9453 2.16699 13.8333 3.05499 13.8333 4.66699V7.33366C13.8333 7.60966 13.6093 7.83366 13.3333 7.83366C13.0573 7.83366 12.8333 7.60966 12.8333 7.33366V4.66699C12.8333 3.61566 12.3846 3.16699 11.3333 3.16699H3.33325C2.28192 3.16699 1.83325 3.61566 1.83325 4.66699V10.667C1.83325 11.7183 2.28192 12.167 3.33325 12.167H8.66658C8.94258 12.167 9.16658 12.391 9.16658 12.667C9.16658 12.943 8.94258 13.167 8.66658 13.167ZM8.01929 8.11966L11.2939 5.73832C11.5172 5.57632 11.5666 5.263 11.4039 5.03966C11.2419 4.817 10.93 4.76632 10.7053 4.92966L7.43058 7.31099C7.37192 7.35366 7.29394 7.35366 7.23527 7.31099L3.96053 4.92966C3.73586 4.76632 3.42396 4.81766 3.26196 5.03966C3.0993 5.263 3.14866 5.57566 3.37199 5.73832L6.64657 8.12032C6.8519 8.26965 7.0926 8.34366 7.3326 8.34366C7.5726 8.34366 7.81462 8.26899 8.01929 8.11966ZM12.83 14.473C13.9593 14.0823 15.1666 13.0723 15.1666 11.4077V10.0777C15.1666 9.84966 15.0126 9.65099 14.7919 9.59366C13.7932 9.33499 13.3286 9.11366 12.9019 8.89033C12.7566 8.815 12.5846 8.81432 12.442 8.88899C12.0113 9.11099 11.54 9.33433 10.526 9.63166C10.3133 9.69433 10.1666 9.88966 10.1666 10.1117V11.4077C10.1666 13.0723 11.3738 14.0823 12.5032 14.473C12.5558 14.4917 12.6113 14.5003 12.6666 14.5003C12.7219 14.5003 12.7773 14.491 12.83 14.473ZM12.6692 9.89366C13.0832 10.097 13.5226 10.275 14.1666 10.4597V11.4077C14.1666 12.683 13.1246 13.2683 12.6666 13.4643C12.2086 13.269 11.1666 12.683 11.1666 11.4077V10.4823C11.8186 10.2777 12.2499 10.099 12.6692 9.89366Z" fill="#3B3B3E"/>
</svg>
