<svg width="16" height="16" viewBox="0 0 16 16" fill="none" xmlns="http://www.w3.org/2000/svg">
<path d="M8.50016 13.335C8.50016 13.611 8.27616 13.835 8.00016 13.835C7.20883 13.835 6.45013 13.7277 5.73747 13.5157C4.82813 14.307 3.57612 14.5003 2.57145 14.5003C2.47479 14.5003 2.3809 14.499 2.2889 14.4957C1.95557 14.4877 1.66348 14.2743 1.54948 13.9523C1.43481 13.6283 1.52955 13.2757 1.78955 13.0544C2.41088 12.553 2.65944 11.9983 2.75944 11.6177C1.93477 10.6317 1.49951 9.38698 1.49951 8.00098C1.49951 4.56564 4.17285 2.16699 7.99951 2.16699C11.8262 2.16699 14.4995 4.56631 14.4995 8.00098C14.4995 8.25364 14.4849 8.49899 14.4562 8.72965C14.4209 9.00365 14.1641 9.19566 13.8981 9.16366C13.6241 9.12966 13.4295 8.87971 13.4642 8.60571C13.4882 8.41238 13.5002 8.20631 13.5002 8.00098C13.5002 5.15431 11.2382 3.16699 8.00016 3.16699C4.76216 3.16699 2.50016 5.15498 2.50016 8.00098C2.50016 9.22498 2.90348 10.309 3.66748 11.1357C3.77081 11.2477 3.81811 11.401 3.79411 11.5523C3.68211 12.2663 3.33023 12.9417 2.7889 13.4957C3.56223 13.4677 4.60219 13.2897 5.24219 12.607C5.37685 12.463 5.58485 12.4117 5.77018 12.4763C6.46018 12.715 7.21016 12.8357 8.00016 12.8357C8.27616 12.835 8.50016 13.059 8.50016 13.335ZM13.6468 10.757L11.7782 12.6257L11.0202 11.8683C10.8248 11.673 10.5082 11.673 10.3128 11.8683C10.1175 12.0637 10.1175 12.3803 10.3128 12.5757L11.4242 13.687C11.5215 13.7843 11.6495 13.8337 11.7775 13.8337C11.9055 13.8337 12.0335 13.785 12.1309 13.687L14.3529 11.465C14.5482 11.2697 14.5482 10.953 14.3529 10.7576C14.1575 10.5623 13.8421 10.5617 13.6468 10.757ZM8.01351 7.33301H8.00684C7.63884 7.33301 7.34342 7.63167 7.34342 7.99967C7.34342 8.36767 7.64551 8.66634 8.01351 8.66634C8.38218 8.66634 8.68018 8.36767 8.68018 7.99967C8.68018 7.63167 8.38151 7.33301 8.01351 7.33301ZM10.6802 8.66634C11.0488 8.66634 11.3468 8.36767 11.3468 7.99967C11.3468 7.63167 11.0488 7.33301 10.6802 7.33301H10.6735C10.3055 7.33301 10.0101 7.63167 10.0101 7.99967C10.0101 8.36767 10.3122 8.66634 10.6802 8.66634ZM5.34017 7.33301C4.97217 7.33301 4.67676 7.63167 4.67676 7.99967C4.67676 8.36767 4.97884 8.66634 5.34684 8.66634C5.71551 8.66634 6.01351 8.36767 6.01351 7.99967C6.01351 7.63167 5.71551 7.33301 5.34684 7.33301H5.34017Z" fill="#3B3B3E"/>
</svg>
