<svg width="16" height="16" viewBox="0 0 16 16" fill="none" xmlns="http://www.w3.org/2000/svg">
<path d="M8 2.16699C4.17333 2.16699 1.5 4.56631 1.5 8.00098C1.5 9.38698 1.9346 10.6317 2.75993 11.6177C2.65993 11.9977 2.41137 12.553 1.79004 13.0544C1.52937 13.2757 1.4353 13.6283 1.54997 13.9523C1.66397 14.2743 1.95605 14.4877 2.28939 14.4957C2.38139 14.499 2.47527 14.5003 2.57194 14.5003C3.57661 14.5003 4.82862 14.307 5.73796 13.5156C6.44996 13.7276 7.20932 13.835 8.00065 13.835C11.8273 13.835 14.5007 11.4356 14.5007 8.00098C14.5007 4.56631 11.8267 2.16699 8 2.16699ZM8 12.8357C7.21 12.8357 6.46002 12.715 5.77002 12.4763C5.58335 12.4117 5.37602 12.463 5.24202 12.607C4.60202 13.2897 3.56207 13.4684 2.78874 13.4957C3.33007 12.9424 3.68195 12.2663 3.79395 11.5523C3.81728 11.401 3.77065 11.2477 3.66732 11.1357C2.90332 10.309 2.5 9.22498 2.5 8.00098C2.5 5.15431 4.762 3.16699 8 3.16699C11.238 3.16699 13.5 5.15498 13.5 8.00098C13.5 10.847 11.238 12.8357 8 12.8357ZM9.65397 8.94702C9.90597 8.56235 10.0553 8.10434 10.0553 7.611C10.0553 6.26367 8.95866 5.16634 7.61133 5.16634C6.26333 5.16634 5.16667 6.263 5.16667 7.611C5.16667 8.959 6.26333 10.0557 7.61133 10.0557C8.10466 10.0557 8.56261 9.90631 8.94661 9.65365L9.97933 10.6864C10.0767 10.7837 10.2047 10.833 10.3327 10.833C10.4607 10.833 10.5887 10.7844 10.686 10.6864C10.8814 10.491 10.8814 10.1743 10.686 9.979L9.65397 8.94702ZM6.16667 7.61165C6.16667 6.81499 6.81466 6.16699 7.61133 6.16699C8.40733 6.16699 9.05534 6.81499 9.05534 7.61165C9.05534 8.40832 8.40733 9.05631 7.61133 9.05631C6.81466 9.05565 6.16667 8.40765 6.16667 7.61165Z" fill="#3B3B3E"/>
</svg>
