<svg width="16" height="16" viewBox="0 0 16 16" fill="none" xmlns="http://www.w3.org/2000/svg">
<g clip-path="url(#clip0_36251_7455)">
<path d="M11.6199 0.833008H7.04728C5.64062 0.833008 4.8339 1.63964 4.8339 3.04631V3.49967H4.38127C2.95327 3.49967 2.16724 4.28637 2.16724 5.7137V14.6663C2.16724 14.845 2.26259 15.0097 2.41659 15.099C2.49392 15.1437 2.58057 15.1663 2.66724 15.1663C2.75257 15.1663 2.83862 15.1443 2.91528 15.1003L6.66724 12.9564L10.4192 15.1003C10.5745 15.189 10.7646 15.1883 10.9179 15.0983C11.0719 15.009 11.1672 14.8443 11.1672 14.6663V11.3357L13.0852 12.4337C13.1625 12.4777 13.2479 12.4997 13.3339 12.4997C13.4206 12.4997 13.5072 12.477 13.5846 12.4324C13.7386 12.343 13.8339 12.1783 13.8339 11.9997V3.04631C13.8332 1.63964 13.0265 0.833008 11.6199 0.833008ZM10.1666 13.8044L6.91463 11.9464C6.7613 11.8584 6.57187 11.8584 6.41854 11.9464L3.16659 13.805V5.71436C3.16659 4.85236 3.51795 4.50033 4.38062 4.50033H8.9519C9.81457 4.50033 10.1659 4.85236 10.1659 5.71436V13.8044H10.1666ZM12.8333 11.1377L11.1666 10.183V5.7137C11.1666 4.2857 10.3799 3.49967 8.95256 3.49967H5.83325V3.04631C5.83325 2.18497 6.18463 1.83301 7.04663 1.83301H11.6192C12.4812 1.83301 12.8326 2.18431 12.8326 3.04631V11.1377H12.8333ZM8.698 7.16634L7.75317 7.0297L7.3466 6.20898C7.21793 5.94898 6.95725 5.78768 6.66659 5.78768C6.37592 5.78768 6.11591 5.94898 5.98657 6.20898L5.58 7.0297L4.63517 7.16634C4.35317 7.20701 4.12322 7.40103 4.03589 7.67236C3.94856 7.94303 4.02185 8.23367 4.22518 8.43034L4.90666 9.09237L4.75187 9.9917C4.70254 10.2777 4.81799 10.5617 5.05265 10.733C5.28732 10.9043 5.59384 10.9277 5.8505 10.7917L6.66659 10.365L7.48332 10.7923C7.59532 10.851 7.71587 10.8796 7.83521 10.8796C7.99254 10.8796 8.14865 10.8303 8.28198 10.733C8.51665 10.5617 8.63063 10.2783 8.5813 9.993L8.42651 9.09237L9.10718 8.43099C9.31184 8.23366 9.38462 7.94238 9.29728 7.67171C9.20928 7.40105 8.98 7.20701 8.698 7.16634ZM7.62996 8.47103C7.45663 8.64036 7.37657 8.88503 7.41724 9.12703L7.51261 9.67969L7.01066 9.41699C6.79599 9.30433 6.53799 9.30433 6.32332 9.41699L5.82121 9.67969L5.91724 9.12435C5.95724 8.88502 5.87656 8.64038 5.70256 8.47038L5.30054 8.08097L5.85588 8.00033C6.09788 7.96633 6.30793 7.81504 6.41593 7.5957L6.66724 7.08903L6.91789 7.59432C7.02655 7.81432 7.23664 7.96567 7.47664 7.99967L8.03394 8.08032L7.62996 8.47103Z" fill="#3B3B3E"/>
</g>
<defs>
<clipPath id="clip0_36251_7455">
<rect width="16" height="16" fill="white"/>
</clipPath>
</defs>
</svg>
