<svg width="16" height="16" viewBox="0 0 16 16" fill="none" xmlns="http://www.w3.org/2000/svg">
<path d="M7.49992 11.3333C7.49992 11.6093 7.27592 11.8333 6.99992 11.8333H3.33325C1.72125 11.8333 0.833252 10.9453 0.833252 9.33333V4C0.833252 2.388 1.72125 1.5 3.33325 1.5H11.3333C12.9453 1.5 13.8333 2.388 13.8333 4C13.8333 4.276 13.6093 4.5 13.3333 4.5C13.0573 4.5 12.8333 4.276 12.8333 4C12.8333 2.94867 12.3846 2.5 11.3333 2.5H3.33325C2.28192 2.5 1.83325 2.94867 1.83325 4V9.33333C1.83325 10.3847 2.28192 10.8333 3.33325 10.8333H6.99992C7.27592 10.8333 7.49992 11.0573 7.49992 11.3333ZM7.99992 4.83333H3.99992C3.72392 4.83333 3.49992 5.05733 3.49992 5.33333C3.49992 5.60933 3.72392 5.83333 3.99992 5.83333H7.99992C8.27592 5.83333 8.49992 5.60933 8.49992 5.33333C8.49992 5.05733 8.27592 4.83333 7.99992 4.83333ZM5.99992 8.5C6.27592 8.5 6.49992 8.276 6.49992 8C6.49992 7.724 6.27592 7.5 5.99992 7.5H3.99992C3.72392 7.5 3.49992 7.724 3.49992 8C3.49992 8.276 3.72392 8.5 3.99992 8.5H5.99992ZM14.7379 9.92269L14.5959 10.0647L14.602 10.2507C14.602 10.8107 14.282 11.2927 13.818 11.538L14.4806 13.8626C14.5326 14.046 14.4759 14.2433 14.3339 14.3713C14.2406 14.4553 14.1213 14.5 13.9993 14.5C13.9366 14.5 13.8739 14.488 13.8132 14.464L12.582 13.9707C12.064 13.7634 11.4913 13.764 10.9706 13.9707L9.74064 14.464C9.56197 14.5347 9.36064 14.4987 9.21997 14.3713C9.07797 14.2433 9.02132 14.0466 9.07332 13.8626L9.73592 11.5374C9.27259 11.292 8.95256 10.81 8.95256 10.25V10.0507L8.816 9.92204C8.24667 9.35204 8.246 8.424 8.816 7.854L8.95858 7.712L8.95256 7.52596C8.95256 6.71996 9.60863 6.06331 10.4146 6.06331H10.6139L10.7413 5.92733C11.296 5.37399 12.258 5.37399 12.8106 5.92733L12.9519 6.06869L13.1386 6.06331C13.9446 6.06331 14.6005 6.71929 14.6005 7.52596V7.72534L14.7359 7.85335C15.3086 8.42535 15.3079 9.35269 14.7379 9.92269ZM13.2392 13.1567L12.8539 11.8047L12.8113 11.85C12.5359 12.126 12.1686 12.278 11.7779 12.278C11.3872 12.278 11.0199 12.126 10.7432 11.85L10.7006 11.8074L10.316 13.1573L10.6005 13.0433C11.3612 12.7406 12.1965 12.7406 12.9539 13.0433L13.2392 13.1567ZM14.0313 8.56201L13.8899 8.42065C13.7039 8.23332 13.602 7.98733 13.602 7.72599V7.52669C13.602 7.27136 13.3939 7.06397 13.1399 7.06397H12.9405C12.6765 7.06397 12.4299 6.96131 12.2452 6.77531L12.1052 6.63534C11.9292 6.45934 11.6246 6.46 11.4506 6.63534L11.31 6.77596C11.124 6.96129 10.878 7.06397 10.6153 7.06397H10.4159C10.1613 7.06397 9.95386 7.27136 9.95386 7.52669V7.72599C9.95386 7.98799 9.85193 8.23467 9.66593 8.42L9.52319 8.56201C9.34319 8.74201 9.34318 9.03533 9.52384 9.21533L9.66593 9.35734C9.85127 9.54201 9.95386 9.78868 9.95386 10.0514V10.2507C9.95386 10.506 10.1619 10.7133 10.4159 10.7133H10.6153C10.8773 10.7133 11.1232 10.8153 11.3085 11L11.4513 11.1427C11.6246 11.3167 11.9306 11.3173 12.1046 11.1427L12.2473 11.0007C12.4306 10.816 12.6778 10.7133 12.9405 10.7133H13.1399C13.3946 10.7133 13.602 10.506 13.602 10.2507V10.0514C13.602 9.78935 13.7033 9.54333 13.8886 9.35799L14.0313 9.21533C14.2113 9.03533 14.2113 8.74201 14.0313 8.56201ZM13.3886 8.88867C13.3886 9.77734 12.6659 10.5 11.7779 10.5C10.8892 10.5 10.1666 9.77734 10.1666 8.88867C10.1666 8.00001 10.8892 7.27734 11.7779 7.27734C12.6659 7.27801 13.3886 8.00067 13.3886 8.88867ZM12.3886 8.88867C12.3886 8.55134 12.1146 8.27734 11.7779 8.27734C11.4406 8.27734 11.1666 8.55134 11.1666 8.88867C11.1666 9.22534 11.4406 9.5 11.7779 9.5C12.1146 9.5 12.3886 9.22601 12.3886 8.88867Z" fill="#3B3B3E"/>
</svg>
