<svg width="16" height="16" viewBox="0 0 16 16" fill="none" xmlns="http://www.w3.org/2000/svg">
<path d="M2 14.5C1.93533 14.5 1.87059 14.4873 1.80859 14.462C1.62193 14.3847 1.5 14.202 1.5 14V4C1.5 2.388 2.388 1.5 4 1.5H12C13.612 1.5 14.5 2.388 14.5 4V10C14.5 11.612 13.612 12.5 12 12.5H4.20736L2.354 14.3534C2.258 14.4494 2.13 14.5 2 14.5ZM4 2.5C2.94867 2.5 2.5 2.94867 2.5 4V12.7926L3.64665 11.646C3.74065 11.552 3.86733 11.4993 4 11.4993H12C13.0513 11.4993 13.5 11.0507 13.5 9.99935V3.99935C13.5 2.94802 13.0513 2.49935 12 2.49935H4V2.5ZM8 10.1667C7.93 10.1667 7.85928 10.152 7.79395 10.1226C7.69195 10.0766 5.28459 8.96799 4.89193 6.95866C4.73326 6.14533 4.89071 5.3753 5.32471 4.8453C5.68604 4.40463 6.20205 4.16998 6.81738 4.16732C6.82072 4.16732 6.82399 4.16732 6.82666 4.16732C7.33999 4.16732 7.72602 4.37869 7.99935 4.64469C8.27268 4.37869 8.65872 4.16732 9.17139 4.16732C9.17405 4.16732 9.17733 4.16732 9.18066 4.16732C9.79666 4.16998 10.3127 4.40465 10.6733 4.84465C11.1073 5.37398 11.2659 6.14466 11.1066 6.95866C10.7139 8.96799 8.30726 10.0766 8.20459 10.1226C8.14059 10.152 8.07 10.1667 8 10.1667ZM6.82666 5.16667C6.82533 5.16667 6.82474 5.16667 6.82341 5.16667C6.51074 5.168 6.26728 5.27335 6.09928 5.47868C5.85795 5.77268 5.77402 6.25468 5.87402 6.76668C6.11069 7.97868 7.47402 8.82202 7.99935 9.10669C8.52468 8.82269 9.88801 7.97935 10.1247 6.76668C10.2247 6.25402 10.1407 5.77201 9.90007 5.47868C9.7314 5.27335 9.48798 5.16865 9.17464 5.16732C9.17398 5.16732 9.17272 5.16732 9.17139 5.16732C8.68072 5.16732 8.49069 5.65396 8.47135 5.70996C8.40002 5.90863 8.21002 6.04329 7.99935 6.04329C7.99802 6.04329 7.99598 6.04329 7.99398 6.04329C7.78131 6.04129 7.59207 5.90667 7.52474 5.70467C7.50807 5.65334 7.31866 5.16667 6.82666 5.16667ZM10.6167 6.86198H10.6234H10.6167Z" fill="#3B3B3E"/>
</svg>
