<svg width="16" height="16" viewBox="0 0 16 16" fill="none" xmlns="http://www.w3.org/2000/svg">
<path d="M13.1666 7.99967C13.1666 8.27567 12.9426 8.49967 12.6666 8.49967H8.49998V12.6663C8.49998 12.9423 8.27598 13.1663 7.99998 13.1663C7.72398 13.1663 7.49998 12.9423 7.49998 12.6663V8.49967H3.33331C3.05731 8.49967 2.83331 8.27567 2.83331 7.99967C2.83331 7.72367 3.05731 7.49967 3.33331 7.49967H7.49998V3.33301C7.49998 3.05701 7.72398 2.83301 7.99998 2.83301C8.27598 2.83301 8.49998 3.05701 8.49998 3.33301V7.49967H12.6666C12.9426 7.49967 13.1666 7.72367 13.1666 7.99967Z" fill="#3B3B3E"/>
</svg>
