<svg width="16" height="16" viewBox="0 0 16 16" fill="none" xmlns="http://www.w3.org/2000/svg">
<path d="M2.67997 9C2.12731 9 1.67664 8.55267 1.67664 8C1.67664 7.44733 2.1213 7 2.6733 7H2.67997C3.23264 7 3.67997 7.44733 3.67997 8C3.67997 8.55267 3.23264 9 2.67997 9ZM8.01331 9C7.46064 9 7.00997 8.55267 7.00997 8C7.00997 7.44733 7.45463 7 8.00663 7H8.01331C8.56597 7 9.01331 7.44733 9.01331 8C9.01331 8.55267 8.56597 9 8.01331 9ZM13.3466 9C12.794 9 12.3433 8.55267 12.3433 8C12.3433 7.44733 12.788 7 13.34 7H13.3466C13.8993 7 14.3466 7.44733 14.3466 8C14.3466 8.55267 13.8993 9 13.3466 9Z" fill="#3B3B3E"/>
</svg>
