<svg width="16" height="16" viewBox="0 0 16 16" fill="none" xmlns="http://www.w3.org/2000/svg">
<path d="M12 12.5003C11.724 12.5003 11.5 12.2763 11.5 12.0003C11.5 11.7243 11.724 11.5003 12 11.5003C13.0513 11.5003 13.5 11.0517 13.5 10.0003V4.66699C13.5 3.61566 13.0513 3.16699 12 3.16699H4C2.94867 3.16699 2.5 3.61566 2.5 4.66699V10.0003C2.5 11.0517 2.94867 11.5003 4 11.5003C4.276 11.5003 4.5 11.7243 4.5 12.0003C4.5 12.2763 4.276 12.5003 4 12.5003C2.388 12.5003 1.5 11.6123 1.5 10.0003V4.66699C1.5 3.05499 2.388 2.16699 4 2.16699H12C13.612 2.16699 14.5 3.05499 14.5 4.66699V10.0003C14.5 11.6123 13.612 12.5003 12 12.5003ZM11.0413 13.8537C11.2413 13.453 11.1987 12.9817 10.93 12.6243L8.93197 9.96696C8.48663 9.37363 7.51263 9.37429 7.0673 9.96696L5.06934 12.625C4.80067 12.9823 4.75801 13.4537 4.95801 13.8543C5.15734 14.253 5.55737 14.501 6.00203 14.501H9.99666C10.442 14.5003 10.8427 14.2523 11.0413 13.8537ZM8.13265 10.5677L10.1307 13.2256C10.1867 13.2996 10.1646 13.3717 10.1466 13.4071C10.1293 13.4417 10.0867 13.5003 9.99666 13.5003H6.00203C5.91203 13.5003 5.86997 13.4417 5.85197 13.4071C5.83464 13.3711 5.812 13.2996 5.868 13.2256L7.86597 10.5677C7.9093 10.5097 7.96803 10.501 7.9987 10.501C8.02936 10.501 8.08932 10.509 8.13265 10.5677Z" fill="#3B3B3E"/>
</svg>
