<svg width="16" height="16" viewBox="0 0 16 16" fill="none" xmlns="http://www.w3.org/2000/svg">
<path d="M14 10.167H13.8333V4.66699C13.8333 3.05499 12.9453 2.16699 11.3333 2.16699H4.66667C3.05467 2.16699 2.16667 3.05499 2.16667 4.66699V10.167H2C1.724 10.167 1.5 10.391 1.5 10.667V11.3337C1.5 12.499 2.168 13.167 3.33333 13.167H12.6667C13.832 13.167 14.5 12.499 14.5 11.3337V10.667C14.5 10.391 14.276 10.167 14 10.167ZM3.16667 4.66699C3.16667 3.61566 3.61533 3.16699 4.66667 3.16699H11.3333C12.3847 3.16699 12.8333 3.61566 12.8333 4.66699V10.167H3.16667V4.66699ZM13.5 11.3337C13.5 11.949 13.282 12.167 12.6667 12.167H3.33333C2.718 12.167 2.5 11.949 2.5 11.3337V11.167H13.5V11.3337Z" fill="#3B3B3E"/>
</svg>
