<svg width="16" height="16" viewBox="0 0 16 16" fill="none" xmlns="http://www.w3.org/2000/svg">
<path d="M5.16667 10C5.16667 10.8273 5.83933 11.5 6.66667 11.5H8C8.276 11.5 8.5 11.724 8.5 12C8.5 12.276 8.276 12.5 8 12.5H6.66667C5.288 12.5 4.16667 11.3787 4.16667 10C4.16667 8.62133 5.288 7.5 6.66667 7.5H9.33333C10.1607 7.5 10.8333 6.82733 10.8333 6C10.8333 5.17267 10.1607 4.5 9.33333 4.5H8C7.724 4.5 7.5 4.276 7.5 4C7.5 3.724 7.724 3.5 8 3.5H9.33333C10.712 3.5 11.8333 4.62133 11.8333 6C11.8333 7.37867 10.712 8.5 9.33333 8.5H6.66667C5.83933 8.5 5.16667 9.17267 5.16667 10ZM4.27734 6.91602C4.19334 6.97202 4.09667 7 4 7C3.90333 7 3.80666 6.97202 3.72266 6.91602L3.59135 6.82926C2.80935 6.3126 1.5 5.448 1.5 4C1.5 2.62133 2.62133 1.5 4 1.5C5.37867 1.5 6.5 2.62133 6.5 4C6.5 5.44733 5.19065 6.3126 4.40865 6.82926L4.27734 6.91602ZM4 5.90072C4.674 5.45205 5.5 4.84867 5.5 4C5.5 3.17267 4.82733 2.5 4 2.5C3.17267 2.5 2.5 3.17267 2.5 4C2.5 4.84867 3.326 5.45138 4 5.90072ZM4.01335 3.33333H4.00667C3.63867 3.33333 3.34334 3.632 3.34334 4C3.34334 4.368 3.64535 4.66667 4.01335 4.66667C4.38135 4.66667 4.68001 4.368 4.68001 4C4.68001 3.632 4.38135 3.33333 4.01335 3.33333ZM14.5 11.5C14.5 12.9473 13.1907 13.8126 12.4087 14.3293L12.2773 14.416C12.1933 14.472 12.0967 14.5 12 14.5C11.9033 14.5 11.8067 14.472 11.7227 14.416L11.5913 14.3293C10.8093 13.8126 9.5 12.948 9.5 11.5C9.5 10.1213 10.6213 9 12 9C13.3787 9 14.5 10.1213 14.5 11.5ZM13.5 11.5C13.5 10.6727 12.8273 10 12 10C11.1727 10 10.5 10.6727 10.5 11.5C10.5 12.3487 11.326 12.9514 12 13.4007C12.674 12.9514 13.5 12.3487 13.5 11.5ZM12.0133 10.8333H12.0067C11.6387 10.8333 11.3433 11.132 11.3433 11.5C11.3433 11.868 11.6453 12.1667 12.0133 12.1667C12.3813 12.1667 12.68 11.868 12.68 11.5C12.68 11.132 12.3813 10.8333 12.0133 10.8333Z" fill="#3B3B3E"/>
</svg>
