<svg width="16" height="16" viewBox="0 0 16 16" fill="none" xmlns="http://www.w3.org/2000/svg">
<path d="M11.75 1.5H4.25C2.47667 1.5 1.5 2.47667 1.5 4.25V11.75C1.5 13.5233 2.47667 14.5 4.25 14.5H11.75C13.5233 14.5 14.5 13.5233 14.5 11.75V4.25C14.5 2.47667 13.5233 1.5 11.75 1.5ZM13.5 11.75C13.5 12.9767 12.9767 13.5 11.75 13.5H4.25C3.02333 13.5 2.5 12.9767 2.5 11.75V4.25C2.5 3.02333 3.02333 2.5 4.25 2.5H11.75C12.9767 2.5 13.5 3.02333 13.5 4.25V11.75ZM5.77799 8.27865C5.64999 8.27865 5.52198 8.23 5.42464 8.132L4.31331 7.02067C4.26731 6.97467 4.23139 6.92069 4.20605 6.86003C4.18072 6.79936 4.16732 6.73398 4.16732 6.66732C4.16732 6.60065 4.18139 6.53528 4.20605 6.47461C4.23139 6.41394 4.26798 6.35931 4.31331 6.31331L5.42464 5.20199C5.61998 5.00665 5.93667 5.00665 6.132 5.20199C6.32733 5.39732 6.32733 5.71401 6.132 5.90934L5.87402 6.16732H10C10.276 6.16732 10.5 6.39132 10.5 6.66732C10.5 6.94332 10.276 7.16732 10 7.16732H5.87402L6.13135 7.42464C6.32668 7.61931 6.32668 7.93667 6.13135 8.132C6.03401 8.23 5.90599 8.27865 5.77799 8.27865ZM11.8333 9.33203C11.8333 9.3987 11.8193 9.46407 11.7946 9.52474C11.7693 9.58541 11.7327 9.64004 11.6873 9.68604L10.576 10.7974C10.4787 10.8947 10.35 10.944 10.2227 10.944C10.0947 10.944 9.96664 10.8954 9.8693 10.7974C9.67397 10.602 9.67397 10.2853 9.8693 10.09L10.1266 9.83268H6C5.724 9.83268 5.5 9.60868 5.5 9.33268C5.5 9.05668 5.724 8.83268 6 8.83268H10.126L9.86865 8.57536C9.67332 8.38069 9.67332 8.06333 9.86865 7.868C10.064 7.67267 10.3807 7.67267 10.576 7.868L11.6873 8.97933C11.7333 9.02533 11.7693 9.07996 11.7946 9.14063C11.8193 9.19996 11.8333 9.26536 11.8333 9.33203Z" fill="#3B3B3E"/>
</svg>
