<svg width="16" height="16" viewBox="0 0 16 16" fill="none" xmlns="http://www.w3.org/2000/svg">
<path d="M12 3.5H11.1667V2.66667C11.1667 2.02333 10.6433 1.5 10 1.5H6C5.35667 1.5 4.83333 2.02333 4.83333 2.66667V3.5H4C2.388 3.5 1.5 4.388 1.5 6V6.07935V7.50203V12C1.5 13.612 2.388 14.5 4 14.5H12C13.612 14.5 14.5 13.612 14.5 12V7.50203V6.07935V6C14.5 4.388 13.612 3.5 12 3.5ZM5.83333 2.66667C5.83333 2.57467 5.908 2.5 6 2.5H10C10.092 2.5 10.1667 2.57467 10.1667 2.66667V3.5H5.83333V2.66667ZM2.5 6C2.5 4.94867 2.94867 4.5 4 4.5H12C13.0513 4.5 13.5 4.94867 13.5 6V6.07935V7.50203C13.5 7.7027 13.386 7.87796 13.2027 7.95996C12.626 8.21729 11.6433 8.58402 10.2387 8.87069C10.17 8.88469 10.096 8.83202 10.056 8.77336C9.57267 8.05136 8.80467 7.62069 8 7.62069C7.19533 7.62069 6.42733 8.05136 5.944 8.77336C5.90467 8.83269 5.83333 8.88602 5.76133 8.87069C4.35733 8.58402 3.374 8.21729 2.79733 7.95996C2.614 7.87796 2.5 7.7027 2.5 7.50203V6.07935V6ZM12 13.5H4C2.94867 13.5 2.5 13.0513 2.5 12V8.92C3.13333 9.194 4.14867 9.56135 5.56067 9.85002C6.02067 9.94335 6.49934 9.74003 6.77467 9.32869C7.072 8.88469 7.53 8.62004 8 8.62004C8.47 8.62004 8.928 8.88469 9.22467 9.32869C9.45534 9.67336 9.82734 9.87264 10.2133 9.87264C10.288 9.87264 10.3633 9.86535 10.438 9.85002C11.8507 9.56135 12.866 9.194 13.4993 8.92V12C13.5 13.0513 13.0513 13.5 12 13.5ZM8.68 10C8.68 10.368 8.38134 10.6667 8.01334 10.6667C7.64534 10.6667 7.34333 10.368 7.34333 10C7.34333 9.632 7.638 9.33333 8.00666 9.33333H8.01334C8.38134 9.33333 8.68 9.632 8.68 10Z" fill="#3B3B3E"/>
</svg>
