<svg width="16" height="16" viewBox="0 0 16 16" fill="none" xmlns="http://www.w3.org/2000/svg">
<path d="M14.0607 4.68669L11.3133 1.93929C11.034 1.65996 10.6473 1.5 10.2526 1.5H5.7474C5.35273 1.5 4.96602 1.65996 4.68669 1.93929L1.93929 4.68669C1.65996 4.96602 1.5 5.35273 1.5 5.7474V10.2526C1.5 10.6473 1.65996 11.034 1.93929 11.3133L4.68669 14.0607C4.96602 14.34 5.35273 14.5 5.7474 14.5H10.2526C10.6473 14.5 11.034 14.34 11.3133 14.0607L14.0607 11.3133C14.34 11.034 14.5 10.6473 14.5 10.2526V5.7474C14.5 5.35273 14.34 4.96602 14.0607 4.68669ZM13.5 10.2526C13.5 10.3839 13.4467 10.5133 13.3534 10.606L10.606 13.3534C10.5126 13.4467 10.3839 13.5 10.2526 13.5H5.7474C5.61606 13.5 5.48671 13.4467 5.39404 13.3534L2.64665 10.606C2.55331 10.5126 2.5 10.3839 2.5 10.2526V5.7474C2.5 5.61606 2.55331 5.48671 2.64665 5.39404L5.39404 2.64665C5.48738 2.55331 5.61606 2.5 5.7474 2.5H10.2526C10.3839 2.5 10.5133 2.55331 10.606 2.64665L13.3534 5.39404C13.4467 5.48738 13.5 5.61606 13.5 5.7474V10.2526ZM10.5 8C10.5 8.276 10.276 8.5 10 8.5H8.5V10C8.5 10.276 8.276 10.5 8 10.5C7.724 10.5 7.5 10.276 7.5 10V8.5H6C5.724 8.5 5.5 8.276 5.5 8C5.5 7.724 5.724 7.5 6 7.5H7.5V6C7.5 5.724 7.724 5.5 8 5.5C8.276 5.5 8.5 5.724 8.5 6V7.5H10C10.276 7.5 10.5 7.724 10.5 8Z" fill="#3B3B3E"/>
</svg>
