<svg width="16" height="16" viewBox="0 0 16 16" fill="none" xmlns="http://www.w3.org/2000/svg">
<path d="M10.2967 14.5C8.78867 14.5 8.55005 12.934 8.37472 11.7907C8.31072 11.372 8.17804 10.5 8.00004 10.5C7.82204 10.5 7.6887 11.3714 7.62537 11.7907C7.45003 12.934 7.21141 14.5 5.70341 14.5C4.56408 14.5 4.26075 13.1707 3.93941 11.7627C3.72208 10.8094 3.47607 9.72936 2.98141 8.92936C1.96874 7.29203 1.89073 5.02137 2.79073 3.40804C3.47607 2.17737 4.62739 1.5 6.03072 1.5C6.85006 1.5 7.59334 1.736 8.21 2.18734C8.63734 1.74067 9.24338 1.5 9.96871 1.5C11.372 1.5 12.5234 2.17737 13.2087 3.40804C14.1087 5.02137 14.03 7.29201 13.018 8.93001C12.524 9.73001 12.278 10.81 12.06 11.7633C11.7394 13.1707 11.436 14.5 10.2967 14.5ZM8.00004 9.5C9.03738 9.5 9.21006 10.6367 9.36406 11.6393C9.56072 12.926 9.74134 13.5 10.2967 13.5C10.6387 13.5 10.8867 12.4134 11.0854 11.5407C11.3207 10.512 11.586 9.3453 12.168 8.40397C12.9853 7.08197 13.0554 5.18536 12.3361 3.89469C11.9814 3.25803 11.2827 2.5 9.96871 2.5C9.51204 2.5 9.17006 2.62471 8.93006 2.88005C9.20806 3.22005 9.39272 3.54671 9.50672 3.78271C9.62672 4.03138 9.52207 4.33003 9.2734 4.45003C9.02207 4.56937 8.72602 4.46463 8.60535 4.21663C8.49002 3.9773 8.28073 3.61864 7.94007 3.27197C7.9394 3.27131 7.93935 3.27067 7.93868 3.27067C7.43468 2.75934 6.79272 2.5 6.03072 2.5C4.71672 2.5 4.01804 3.25869 3.66337 3.89469C2.94404 5.18536 3.01401 7.08132 3.83134 8.40332C4.41334 9.34465 4.67869 10.5114 4.91402 11.54C5.11269 12.4134 5.36068 13.4993 5.70268 13.4993C6.25801 13.4993 6.43871 12.9253 6.63538 11.6387C6.79004 10.6367 6.96271 9.5 8.00004 9.5Z" fill="#3B3B3E"/>
</svg>
