<svg width="16" height="16" viewBox="0 0 16 16" fill="none" xmlns="http://www.w3.org/2000/svg">
<path d="M11.7367 7.09367L7.47001 2.82231C7.05401 2.40564 6.47803 2.16699 5.88936 2.16699H2.48938C1.57605 2.16699 0.833374 2.91034 0.833374 3.82434V7.22766C0.833374 7.82433 1.06601 8.38633 1.48735 8.809L5.75468 13.0803C6.25401 13.5803 6.78534 13.8337 7.33468 13.8337C7.88334 13.8337 8.41536 13.5803 8.91402 13.0803L11.736 10.2557C12.7554 9.23632 12.7554 8.113 11.7367 7.09367ZM11.0301 9.54899L8.20805 12.3737C7.59605 12.985 7.07202 12.9837 6.46269 12.3737L2.196 8.10234C1.962 7.86834 1.83403 7.55766 1.83403 7.22766V3.82434C1.83403 3.46167 2.12803 3.16699 2.49003 3.16699H5.89001C6.21535 3.16699 6.53339 3.29901 6.76339 3.52901L11.0301 7.80033C11.6581 8.42967 11.6581 8.91966 11.0301 9.54899ZM15.1667 8.67965C15.166 9.22098 14.9074 9.75099 14.3994 10.2557L11.5807 13.0803C11.09 13.5797 10.5574 13.8337 10 13.8337C9.72404 13.8337 9.50004 13.6097 9.50004 13.3337C9.50004 13.0577 9.72404 12.8337 10 12.8337C10.2794 12.8337 10.5714 12.6797 10.8701 12.3763L13.6927 9.547C14.0073 9.235 14.166 8.94299 14.1667 8.67765C14.1674 8.41032 14.0081 8.115 13.6934 7.80033L9.42672 3.52698C9.22005 3.31698 8.94273 3.19231 8.6414 3.17297C8.3654 3.15497 8.15602 2.91698 8.17468 2.64164C8.19202 2.36564 8.4547 2.16034 8.70536 2.17501C9.25403 2.21034 9.76274 2.44101 10.1374 2.82434L14.4007 7.09432C14.91 7.60299 15.168 8.13698 15.1667 8.67965ZM4.33337 5.00033C4.33337 5.36833 4.03601 5.66699 3.66801 5.66699C3.30134 5.66699 3.00004 5.36833 3.00004 5.00033C3.00004 4.63233 3.29474 4.33366 3.66207 4.33366H3.66874C4.03608 4.33366 4.33337 4.63233 4.33337 5.00033Z" fill="#3B3B3E"/>
</svg>
