<svg width="16" height="16" viewBox="0 0 16 16" fill="none" xmlns="http://www.w3.org/2000/svg">
<path d="M14.4998 7.99967C14.4998 11.5837 11.5838 14.4997 7.99984 14.4997C5.51517 14.4997 3.2852 13.1157 2.1792 10.8883C2.05587 10.641 2.15779 10.3409 2.40446 10.2183C2.65379 10.0943 2.95253 10.1977 3.0752 10.4437C4.01053 12.3284 5.89782 13.499 8.00049 13.499C11.0332 13.499 13.5005 11.0317 13.5005 7.99902C13.5005 4.96636 11.0332 2.49902 8.00049 2.49902C5.91782 2.49902 4.04044 3.68169 3.11377 5.49902H5.33382C5.60982 5.49902 5.83382 5.72302 5.83382 5.99902C5.83382 6.27502 5.60982 6.49902 5.33382 6.49902H2.00049C1.72449 6.49902 1.50049 6.27502 1.50049 5.99902V2.66569C1.50049 2.38969 1.72449 2.16569 2.00049 2.16569C2.27649 2.16569 2.50049 2.38969 2.50049 2.66569V4.54167C3.66982 2.67967 5.73582 1.49902 8.00049 1.49902C11.5838 1.49969 14.4998 4.41567 14.4998 7.99967Z" fill="#3B3B3E"/>
</svg>
