<svg width="16" height="16" viewBox="0 0 16 16" fill="none" xmlns="http://www.w3.org/2000/svg">
<path d="M6.87066 14.5003C5.59733 14.5003 4.41132 14.0143 3.53065 13.1316C1.67332 11.269 1.70211 8.20963 3.59478 6.3123L7.41346 2.48297C8.0448 1.84964 8.88537 1.50098 9.7787 1.50098C10.672 1.50098 11.5128 1.84964 12.1441 2.48297C13.4468 3.78964 13.4468 5.91564 12.1441 7.22231L8.30669 11.0696C7.58136 11.7976 6.31546 11.7983 5.58746 11.0696C4.83879 10.319 4.83879 9.09763 5.58746 8.34696L8.95806 4.96698C9.15339 4.77165 9.47008 4.77098 9.66542 4.96631C9.86142 5.16098 9.86139 5.47765 9.66672 5.67365L6.29611 9.05363C5.93545 9.41496 5.93545 10.003 6.29611 10.3643C6.64345 10.7136 7.25135 10.713 7.59869 10.3643L11.4361 6.51697C12.3508 5.59963 12.3508 4.10697 11.4361 3.18964C10.5508 2.30164 9.00746 2.30164 8.12212 3.18964L4.30344 7.01898C2.82411 8.50165 2.79531 10.9783 4.23931 12.4263C4.93064 13.1196 5.86466 13.501 6.87066 13.501C7.90199 13.501 8.90665 13.0863 9.62798 12.363L12.9794 9.00165C13.174 8.80631 13.4907 8.80564 13.6867 9.00098C13.8827 9.19564 13.8827 9.51231 13.688 9.70831L10.3366 13.0696C9.42864 13.9783 8.16532 14.5003 6.87066 14.5003Z" fill="#3B3B3E"/>
</svg>
