<svg width="16" height="16" viewBox="0 0 16 16" fill="none" xmlns="http://www.w3.org/2000/svg">
<path d="M14.5 6.00016C14.5 4.98883 13.678 4.16683 12.6667 4.16683H11.2907L9.84937 1.74416C9.70803 1.50816 9.40131 1.42816 9.16398 1.57016C8.92731 1.71149 8.84866 2.01816 8.98999 2.25549L10.1266 4.16616H6.02596L7.18001 2.25816C7.32335 2.02216 7.24731 1.71483 7.01131 1.57149C6.77331 1.42816 6.46737 1.50416 6.32471 1.74016L4.85734 4.1655H3.33333C2.322 4.1655 1.5 4.9875 1.5 5.99883C1.5 6.72483 1.92734 7.34816 2.54134 7.64483L3.0013 12.2475C3.15264 13.7622 3.96602 14.4988 5.48869 14.4988H10.5353C12.058 14.4988 12.872 13.7628 13.0227 12.2475L13.484 7.63083C14.084 7.33016 14.5 6.7155 14.5 6.00016ZM3.33333 5.16683H12.6667C13.126 5.16683 13.5 5.54083 13.5 6.00016C13.5 6.4595 13.126 6.8335 12.6667 6.8335H3.33333C2.874 6.8335 2.5 6.4595 2.5 6.00016C2.5 5.54083 2.874 5.16683 3.33333 5.16683ZM12.0286 12.1495C11.9426 13.0048 11.6713 13.5002 10.536 13.5002H5.48934C4.34801 13.5002 4.08466 13.0255 3.99666 12.1495L3.56535 7.8335H12.4607L12.0286 12.1495ZM9.8807 9.44017L9.02865 9.31684L8.66203 8.5775C8.53669 8.32416 8.28333 8.16683 8 8.16683C7.71667 8.16683 7.46337 8.32417 7.3387 8.57683L6.97135 9.31684L6.1193 9.44017C5.8453 9.48017 5.6213 9.66816 5.53597 9.93216C5.44997 10.1955 5.52065 10.4795 5.71932 10.6722L6.33464 11.2695L6.19466 12.0795C6.14666 12.3582 6.25865 12.6348 6.48665 12.8015C6.71665 12.9688 7.01463 12.9908 7.2653 12.8595L8.00065 12.4748L8.736 12.8595C8.84534 12.9168 8.96266 12.9448 9.08 12.9448C9.23266 12.9448 9.38465 12.8968 9.51465 12.8022C9.74332 12.6355 9.85464 12.3588 9.80664 12.0815L9.66667 11.2695L10.282 10.6722C10.4813 10.4788 10.5513 10.1955 10.4653 9.93216C10.3787 9.66816 10.1547 9.48017 9.8807 9.44017ZM8.86466 10.6535C8.69266 10.8195 8.61469 11.0588 8.65536 11.2942L8.72998 11.7275L8.33398 11.5202C8.12598 11.4115 7.8753 11.4115 7.66463 11.5208L7.27002 11.7275L7.34465 11.2942C7.38531 11.0588 7.30665 10.8195 7.13599 10.6542L6.82137 10.3488L7.25798 10.2855C7.49331 10.2515 7.696 10.1048 7.802 9.8915L7.99935 9.4935L8.1967 9.8915C8.3027 10.1042 8.50597 10.2515 8.74064 10.2848L9.17733 10.3482L8.86466 10.6535Z" fill="#3B3B3E"/>
</svg>
