<svg width="16" height="16" viewBox="0 0 16 16" fill="none" xmlns="http://www.w3.org/2000/svg">
<g clip-path="url(#clip0_36251_6204)">
<path fill-rule="evenodd" clip-rule="evenodd" d="M7.99508 0.830078C11.9522 0.830078 15.1601 4.03796 15.1601 7.99508C15.1601 11.9522 11.9522 15.1601 7.99508 15.1601C4.03796 15.1601 0.830078 11.9522 0.830078 7.99508C0.830078 4.03796 4.03796 0.830078 7.99508 0.830078ZM7.99508 1.7257C4.5326 1.7257 1.7257 4.5326 1.7257 7.99508C1.7257 11.4576 4.5326 14.2645 7.99508 14.2645C11.4576 14.2645 14.2645 11.4576 14.2645 7.99508C14.2645 4.5326 11.4576 1.7257 7.99508 1.7257ZM11.5546 5.6144C11.6241 5.82296 11.5317 6.04652 11.3455 6.14855L11.2714 6.18085L8.89058 6.97407L8.8907 9.26597L9.76335 11.8838C9.83287 12.0923 9.7404 12.3159 9.55421 12.4179L9.48013 12.4502C9.27157 12.5197 9.04802 12.4273 8.94598 12.2411L8.91368 12.167L8.01806 9.48013L7.99508 9.33852L7.9721 9.48013L7.07647 12.167C6.99826 12.4016 6.74466 12.5284 6.51003 12.4502C6.30147 12.3807 6.17811 12.1726 6.2082 11.9624L6.22681 11.8838L7.09945 9.26328L7.09933 6.97407L4.71878 6.18085C4.48415 6.10264 4.35735 5.84903 4.43556 5.6144C4.50508 5.40585 4.71318 5.28248 4.92336 5.31257L5.002 5.33118L7.6216 6.20383H8.36766L10.9882 5.33118C11.2228 5.25297 11.4764 5.37978 11.5546 5.6144ZM7.99508 3.51695C8.48972 3.51695 8.8907 3.91794 8.8907 4.41258C8.8907 4.90722 8.48972 5.3082 7.99508 5.3082C7.50044 5.3082 7.09945 4.90722 7.09945 4.41258C7.09945 3.91794 7.50044 3.51695 7.99508 3.51695Z" fill="#3B3B3E"/>
</g>
<defs>
<clipPath id="clip0_36251_6204">
<rect width="16" height="16" fill="white"/>
</clipPath>
</defs>
</svg>
