<svg width="16" height="16" viewBox="0 0 16 16" fill="none" xmlns="http://www.w3.org/2000/svg">
<path d="M4 2.16699C2.62133 2.16699 1.5 3.28833 1.5 4.66699C1.5 6.04566 2.62133 7.16699 4 7.16699C5.37867 7.16699 6.5 6.04566 6.5 4.66699C6.5 3.28833 5.37867 2.16699 4 2.16699ZM4 6.16699C3.17267 6.16699 2.5 5.49433 2.5 4.66699C2.5 3.83966 3.17267 3.16699 4 3.16699C4.82733 3.16699 5.5 3.83966 5.5 4.66699C5.5 5.49433 4.82733 6.16699 4 6.16699ZM12 8.83366C10.6213 8.83366 9.5 9.95499 9.5 11.3337C9.5 12.7123 10.6213 13.8337 12 13.8337C13.3787 13.8337 14.5 12.7123 14.5 11.3337C14.5 9.95499 13.3787 8.83366 12 8.83366ZM12 12.8337C11.1727 12.8337 10.5 12.161 10.5 11.3337C10.5 10.5063 11.1727 9.83366 12 9.83366C12.8273 9.83366 13.5 10.5063 13.5 11.3337C13.5 12.161 12.8273 12.8337 12 12.8337ZM10 5.16699H14C14.276 5.16699 14.5 4.94299 14.5 4.66699C14.5 4.39099 14.276 4.16699 14 4.16699H10C9.724 4.16699 9.5 4.39099 9.5 4.66699C9.5 4.94299 9.724 5.16699 10 5.16699ZM6 10.8337H2C1.724 10.8337 1.5 11.0577 1.5 11.3337C1.5 11.6097 1.724 11.8337 2 11.8337H6C6.276 11.8337 6.5 11.6097 6.5 11.3337C6.5 11.0577 6.276 10.8337 6 10.8337Z" fill="#3B3B3E"/>
</svg>
