<svg width="16" height="16" viewBox="0 0 16 16" fill="none" xmlns="http://www.w3.org/2000/svg">
<path d="M14 1.5H2C1.724 1.5 1.5 1.724 1.5 2C1.5 2.276 1.724 2.5 2 2.5H2.5V8.66667C2.5 10.2787 3.388 11.1667 5 11.1667H7.5V12.3993L5.72268 13.584C5.49268 13.7373 5.43067 14.0473 5.584 14.2773C5.73667 14.5073 6.04666 14.5693 6.27732 14.416L8 13.2673L9.72268 14.416C9.80801 14.4727 9.904 14.5 10 14.5C10.1613 14.5 10.32 14.422 10.4167 14.2773C10.57 14.0473 10.508 13.7373 10.278 13.584L8.50067 12.3993V11.1667H11.0007C12.6127 11.1667 13.5007 10.2787 13.5007 8.66667V2.5H14C14.276 2.5 14.5 2.276 14.5 2C14.5 1.724 14.276 1.5 14 1.5ZM12.5 8.66667C12.5 9.718 12.0513 10.1667 11 10.1667H5C3.94867 10.1667 3.5 9.718 3.5 8.66667V2.5H12.5V8.66667ZM4.98 5.45801C4.78467 5.26267 4.78467 4.94598 4.98 4.75065C5.17533 4.55532 5.492 4.55532 5.68734 4.75065L7.03868 6.10197L7.76933 5.316C8.14399 4.94133 8.75399 4.94133 9.12799 5.316L10.1667 6.35466V5.89535C10.1667 5.61935 10.3907 5.39535 10.6667 5.39535C10.9427 5.39535 11.1667 5.61935 11.1667 5.89535V7.56201C11.1667 7.62735 11.1533 7.692 11.128 7.75334C11.0773 7.87534 10.98 7.97267 10.858 8.02401C10.7967 8.04934 10.732 8.06266 10.6667 8.06266H9C8.724 8.06266 8.5 7.83866 8.5 7.56266C8.5 7.28666 8.724 7.06266 9 7.06266H9.45933L8.42067 6.02401L7.69 6.80998C7.31534 7.18464 6.70534 7.18464 6.33134 6.80998L4.98 5.45801Z" fill="#3B3B3E"/>
</svg>
