<svg width="16" height="16" viewBox="0 0 16 16" fill="none" xmlns="http://www.w3.org/2000/svg">
<path d="M14.2339 13.2083C13.8539 12.9003 13.6812 12.5617 13.6038 12.3117C14.1912 11.5844 14.4998 10.6764 14.4998 9.66903C14.4998 8.12836 13.7638 6.83567 12.4811 6.06567C12.2911 3.35967 10.0938 1.50098 6.99984 1.50098C3.7625 1.50098 1.50049 3.53502 1.50049 6.44702C1.50049 7.60702 1.85983 8.65029 2.54183 9.48096C2.45516 9.78362 2.25114 10.2076 1.77181 10.595C1.52848 10.8023 1.43988 11.1317 1.54655 11.4343C1.65322 11.7363 1.9271 11.9356 2.2391 11.943C2.31643 11.9456 2.39588 11.947 2.47721 11.947C3.30721 11.947 4.33645 11.7883 5.10645 11.157C5.72645 12.9043 7.46784 14.023 9.6665 14.023C10.2332 14.023 10.7698 13.951 11.2671 13.8077C11.9478 14.363 12.8444 14.501 13.5584 14.501C13.6338 14.501 13.7085 14.4997 13.7798 14.497C14.0858 14.497 14.3505 14.3097 14.4565 14.0197C14.5619 13.727 14.4766 13.4103 14.2339 13.2083ZM2.85791 10.9316C3.24124 10.4883 3.49115 9.96703 3.57715 9.41903C3.60048 9.26769 3.55385 9.11436 3.45052 9.00236C2.82852 8.32903 2.49984 7.44562 2.49984 6.44629C2.49984 4.12296 4.34985 2.50033 6.99919 2.50033C9.64919 2.50033 11.4992 4.12296 11.4992 6.44629C11.4992 8.76962 9.64919 10.3923 6.99919 10.3923C6.35119 10.3923 5.73512 10.293 5.16846 10.0977C4.97979 10.033 4.77448 10.085 4.63981 10.2284C4.18048 10.7204 3.45658 10.8863 2.85791 10.9316ZM13.1025 13.4736C12.6332 13.4203 12.1052 13.2703 11.7559 12.8997C11.6192 12.755 11.4111 12.705 11.2244 12.771C10.7551 12.9377 10.2305 13.0223 9.6652 13.0223C8.14654 13.0223 6.91119 12.3803 6.29053 11.3443C6.52453 11.3683 6.75787 11.3923 6.99854 11.3923C9.92787 11.3923 12.0525 9.72498 12.4318 7.25098C13.1225 7.84431 13.4985 8.67764 13.4985 9.66764C13.4985 10.5156 13.2192 11.265 12.6912 11.835C12.5879 11.9476 12.5405 12.101 12.5645 12.2524C12.6338 12.691 12.8199 13.1096 13.1025 13.4736ZM13.7438 13.4976C13.7491 13.4976 13.7538 13.497 13.7585 13.497H13.7591C13.7544 13.497 13.7491 13.497 13.7438 13.4976ZM6.28451 6.39233C6.28451 6.02433 6.57992 5.72567 6.94792 5.72567H6.95443C7.32309 5.72567 7.62109 6.02433 7.62109 6.39233C7.62109 6.76033 7.32309 7.059 6.95443 7.059C6.58643 7.059 6.28451 6.761 6.28451 6.39233ZM4.73519 7.059C4.36719 7.059 4.0651 6.76033 4.0651 6.39233C4.0651 6.02433 4.36052 5.72567 4.72852 5.72567H4.73519C5.10386 5.72567 5.40186 6.02433 5.40186 6.39233C5.40186 6.76033 5.10319 7.059 4.73519 7.059ZM8.48047 6.39233C8.48047 6.02433 8.77588 5.72567 9.14388 5.72567H9.15055C9.51922 5.72567 9.81722 6.02433 9.81722 6.39233C9.81722 6.76033 9.51922 7.059 9.15055 7.059C8.78255 7.059 8.48047 6.761 8.48047 6.39233Z" fill="#3B3B3E"/>
</svg>
