<svg width="16" height="16" viewBox="0 0 16 16" fill="none" xmlns="http://www.w3.org/2000/svg">
<path d="M6.8 7.67967C7.46 7.36633 7.8 6.89302 7.8 6.15302C7.8 4.68635 6.71334 4.33301 5.46 4.33301H2V11.6663H5.55333C6.88667 11.6663 8.14 11.0263 8.14 9.53967C8.14 8.61301 7.7 7.933 6.8 7.67967V7.67967ZM3.62 5.40633H5.14667C5.73333 5.40633 6.26 5.56634 6.26 6.24634C6.26 6.873 5.84666 7.12634 5.26666 7.12634H3.62V5.40633V5.40633ZM5.36 10.273H3.62V8.23966H5.39333C6.10666 8.23966 6.56 8.53968 6.56 9.29301C6.56 10.0463 6.02 10.273 5.36 10.273V10.273ZM12.8267 5.25968H9.83333V4.533H12.8267V5.25968ZM14 8.933C14 7.353 13.0733 6.033 11.4 6.033C9.72667 6.033 8.66667 7.25968 8.66667 8.85968C8.66667 10.4597 9.71334 11.6663 11.4 11.6663C12.6733 11.6663 13.5 11.093 13.9 9.87301H12.6067C12.4667 10.3263 11.8933 10.5663 11.4467 10.5663C10.5867 10.5663 10.1333 10.0663 10.1333 9.20634H13.9867C13.9933 9.11967 14 9.02634 14 8.933V8.933ZM10.1333 8.27968C10.18 7.57968 10.6467 7.13967 11.3533 7.13967C12.06 7.13967 12.46 7.57302 12.52 8.27968H10.1333Z" fill="#3B3B3E"/>
</svg>
