<svg width="16" height="16" viewBox="0 0 16 16" fill="none" xmlns="http://www.w3.org/2000/svg">
<path d="M11.3334 1.5H4.66675C3.05475 1.5 2.16675 2.388 2.16675 4V12C2.16675 13.612 3.05475 14.5 4.66675 14.5H11.3334C12.9454 14.5 13.8334 13.612 13.8334 12V4C13.8334 2.388 12.9454 1.5 11.3334 1.5ZM12.8334 12C12.8334 13.0513 12.3847 13.5 11.3334 13.5H4.66675C3.61541 13.5 3.16675 13.0513 3.16675 12V4C3.16675 2.94867 3.61541 2.5 4.66675 2.5H11.3334C12.3847 2.5 12.8334 2.94867 12.8334 4V12ZM5.83341 5.33333C5.83341 5.60933 5.60941 5.83333 5.33341 5.83333C5.05741 5.83333 4.83341 5.60933 4.83341 5.33333C4.83341 5.05733 5.05741 4.83333 5.33341 4.83333C5.60941 4.83333 5.83341 5.05733 5.83341 5.33333ZM5.83341 8C5.83341 8.276 5.60941 8.5 5.33341 8.5C5.05741 8.5 4.83341 8.276 4.83341 8C4.83341 7.724 5.05741 7.5 5.33341 7.5C5.60941 7.5 5.83341 7.724 5.83341 8ZM5.83341 10.6667C5.83341 10.9427 5.60941 11.1667 5.33341 11.1667C5.05741 11.1667 4.83341 10.9427 4.83341 10.6667C4.83341 10.3907 5.05741 10.1667 5.33341 10.1667C5.60941 10.1667 5.83341 10.3907 5.83341 10.6667ZM11.1667 5.33333C11.1667 5.60933 10.9427 5.83333 10.6667 5.83333H7.33341C7.05741 5.83333 6.83341 5.60933 6.83341 5.33333C6.83341 5.05733 7.05741 4.83333 7.33341 4.83333H10.6667C10.9427 4.83333 11.1667 5.05733 11.1667 5.33333ZM11.1667 8C11.1667 8.276 10.9427 8.5 10.6667 8.5H7.33341C7.05741 8.5 6.83341 8.276 6.83341 8C6.83341 7.724 7.05741 7.5 7.33341 7.5H10.6667C10.9427 7.5 11.1667 7.724 11.1667 8ZM11.1667 10.6667C11.1667 10.9427 10.9427 11.1667 10.6667 11.1667H7.33341C7.05741 11.1667 6.83341 10.9427 6.83341 10.6667C6.83341 10.3907 7.05741 10.1667 7.33341 10.1667H10.6667C10.9427 10.1667 11.1667 10.3907 11.1667 10.6667Z" fill="#3B3B3E"/>
</svg>
