<svg width="16" height="16" viewBox="0 0 16 16" fill="none" xmlns="http://www.w3.org/2000/svg">
<path d="M12 2.83301H4C2.38667 2.83301 1.5 3.71967 1.5 5.33301V10.6663C1.5 12.2797 2.38667 13.1663 4 13.1663H12C13.6133 13.1663 14.5 12.2797 14.5 10.6663V5.33301C14.5 3.71967 13.6133 2.83301 12 2.83301ZM13.5 10.6663C13.5 11.7197 13.0533 12.1663 12 12.1663H4C2.94667 12.1663 2.5 11.7197 2.5 10.6663V5.33301C2.5 4.27967 2.94667 3.83301 4 3.83301H12C13.0533 3.83301 13.5 4.27967 13.5 5.33301V10.6663ZM5.84001 8.34633C5.84001 8.34633 5.77334 8.56635 5.62667 8.77968C5.5 8.96635 5.36665 9.153 5.15332 9.15967C4.94665 9.15967 4.87998 9.03967 4.64665 9.03967C4.41331 9.03967 4.33998 9.15967 4.14665 9.16634C3.93998 9.17301 3.78666 8.96634 3.65999 8.77301C3.39333 8.39301 3.19334 7.69301 3.46667 7.22634C3.60001 6.99301 3.84002 6.84635 4.10002 6.83968C4.30002 6.83968 4.48665 6.973 4.60665 6.973C4.72665 6.973 4.94666 6.813 5.19999 6.82633C5.29999 6.833 5.58002 6.85968 5.76668 7.13302C5.75335 7.14635 5.42668 7.333 5.43335 7.71967C5.43335 8.18633 5.84001 8.33967 5.84668 8.34633H5.84001ZM5.04 6.573C4.93333 6.69966 4.75333 6.80634 4.58 6.79301C4.56 6.61968 4.64666 6.43301 4.74666 6.31968C4.85333 6.18635 5.04666 6.09301 5.19999 6.08634C5.21999 6.26634 5.14667 6.44634 5.04 6.57967V6.573ZM12.22 7.073H12.6667L11.8934 9.24634C11.7134 9.74634 11.5133 9.90633 11.0867 9.90633C11.0533 9.90633 10.9467 9.90634 10.92 9.893V9.553C10.92 9.553 11.0133 9.55967 11.0467 9.55967C11.24 9.55967 11.3533 9.47967 11.42 9.26634L11.46 9.13967L10.7133 7.073H11.1733L11.6933 8.75301H11.7L12.22 7.073V7.073ZM7.72668 6.29301H6.65999V9.13302H7.10002V8.15967H7.71334C8.27334 8.15967 8.65999 7.77967 8.65999 7.21967C8.65999 6.65967 8.27335 6.28634 7.72668 6.28634V6.29301ZM7.60665 7.79301H7.10002V6.66634H7.60665C7.98665 6.66634 8.20667 6.87301 8.20667 7.23301C8.20667 7.59301 7.98668 7.79968 7.60002 7.79968L7.60665 7.79301ZM9.69999 7.04635C9.23333 7.04635 8.88667 7.313 8.87333 7.67967H9.27332C9.30665 7.50633 9.46665 7.39301 9.69332 7.39301C9.95999 7.39301 10.1133 7.51968 10.1133 7.75301V7.913L9.56002 7.94635C9.04668 7.97968 8.77332 8.18633 8.77332 8.553C8.77332 8.91967 9.06001 9.16634 9.46668 9.16634C9.74668 9.16634 10 9.02634 10.12 8.80634H10.1267V9.14634H10.5333V7.73301C10.5333 7.31968 10.2067 7.05967 9.69999 7.05967V7.04635ZM10.1066 8.36633C10.1066 8.633 9.88 8.81968 9.58 8.81968C9.34666 8.81968 9.19332 8.70633 9.19332 8.533C9.19332 8.35967 9.33999 8.25301 9.61332 8.23301L10.1066 8.19967V8.35968V8.36633Z" fill="#3B3B3E"/>
</svg>
