<svg width="16" height="16" viewBox="0 0 16 16" fill="none" xmlns="http://www.w3.org/2000/svg">
<path d="M11.6597 8.16679L10.1064 4.69345C9.95305 4.35345 9.57974 4.15346 9.2064 4.21346C6.7664 4.60679 6.37306 3.10679 6.11306 2.11345L6.05976 1.91345C6.03309 1.81345 5.92642 1.56678 5.55976 1.50678C5.08642 1.42678 4.33973 1.69346 3.81973 2.46012L1.11306 6.68012C0.599729 7.48679 0.793091 8.56012 1.55976 9.13345L8.21308 14.1268C8.52641 14.3601 8.91972 14.4934 9.31305 14.4934H13.6597C14.4864 14.4934 15.1597 13.8201 15.1597 12.9935V11.7801C15.1597 9.82012 13.5931 8.22012 11.6531 8.16679H11.6597ZM4.66641 3.01346C4.84641 2.74012 5.05306 2.60679 5.19973 2.54679C5.47306 3.55346 6.2064 5.65345 9.2464 5.22012L9.44639 5.66012H8.00641C7.73308 5.66012 7.50641 5.88679 7.50641 6.16012C7.50641 6.43346 7.73308 6.66012 8.00641 6.66012H9.89972L10.1997 7.32679H8.67975C8.40642 7.32679 8.17975 7.55346 8.17975 7.82679C8.17975 8.10012 8.40642 8.32679 8.67975 8.32679H10.6464L10.7997 8.66679C10.9331 8.96679 11.2331 9.16012 11.5598 9.16012C12.9064 9.16012 14.0064 10.1868 14.1464 11.4935H9.99307C9.81307 11.4935 9.63973 11.4335 9.49307 11.3268L2.63975 6.18679L4.67308 3.01346H4.66641ZM13.6731 13.5001H9.3264C9.1464 13.5001 8.9664 13.4401 8.8264 13.3335L2.17308 8.34012C1.82641 8.08012 1.73975 7.58678 1.97309 7.22678L2.09308 7.03346L8.88642 12.1335C9.19975 12.3668 9.59306 12.5001 9.98639 12.5001H14.1664V13.0001C14.1664 13.2735 13.9397 13.5001 13.6664 13.5001H13.6731ZM6.50641 14.0001C6.50641 14.2735 6.27975 14.5001 6.00641 14.5001H1.33975C1.06641 14.5001 0.839747 14.2735 0.839747 14.0001C0.839747 13.7268 1.06641 13.5001 1.33975 13.5001H6.00641C6.27975 13.5001 6.50641 13.7268 6.50641 14.0001ZM0.839747 11.6668C0.839747 11.3935 1.06641 11.1668 1.33975 11.1668H2.67308C2.94641 11.1668 3.17308 11.3935 3.17308 11.6668C3.17308 11.9401 2.94641 12.1668 2.67308 12.1668H1.33975C1.06641 12.1668 0.839747 11.9401 0.839747 11.6668Z" fill="#3B3B3E"/>
</svg>
