<svg width="16" height="16" viewBox="0 0 16 16" fill="none" xmlns="http://www.w3.org/2000/svg">
<path d="M11.75 1.5H4.25C2.47667 1.5 1.5 2.47667 1.5 4.25V11.75C1.5 13.5233 2.47667 14.5 4.25 14.5H11.75C13.5233 14.5 14.5 13.5233 14.5 11.75V4.25C14.5 2.47667 13.5233 1.5 11.75 1.5ZM13.5 11.75C13.5 12.9767 12.9767 13.5 11.75 13.5H4.25C3.02333 13.5 2.5 12.9767 2.5 11.75V4.25C2.5 3.02333 3.02333 2.5 4.25 2.5H11.75C12.9767 2.5 13.5 3.02333 13.5 4.25V11.75ZM10.0367 6.27801H9.33468L9.84334 5.1C9.96468 4.81866 9.93668 4.498 9.76868 4.242C9.60001 3.986 9.31668 3.83333 9.01001 3.83333H7.18534C6.72001 3.83333 6.31932 4.13134 6.17399 4.56934L5.10266 7.306C5.01066 7.582 5.05799 7.888 5.22799 8.12333C5.39799 8.35933 5.67332 8.5 5.96399 8.5H6.68998L5.65934 11.5047C5.58401 11.7247 5.67002 11.9673 5.86735 12.0907C5.94935 12.142 6.04133 12.1667 6.132 12.1667C6.26067 12.1667 6.38935 12.1167 6.48535 12.02L10.678 7.82667C10.9387 7.566 11.016 7.178 10.8747 6.838C10.734 6.49734 10.404 6.27801 10.0367 6.27801ZM7.30599 9.78467L7.77934 8.40533C7.85067 8.19733 7.818 7.966 7.68933 7.786C7.562 7.60667 7.35334 7.49933 7.13334 7.49933H6.09932L7.11332 4.90867C7.13932 4.83267 7.16999 4.83266 7.18465 4.83266H8.86865L8.22465 6.32333C8.13332 6.53533 8.15532 6.77666 8.28198 6.96933C8.40865 7.162 8.62266 7.27733 8.85266 7.27733H9.81132L7.30599 9.78467Z" fill="#3B3B3E"/>
</svg>
