<svg width="16" height="16" viewBox="0 0 16 16" fill="none" xmlns="http://www.w3.org/2000/svg">
<path d="M15.1192 12.4078L14.7753 10.7906V10.7898V10.7892L13.4 4.31855C13.4 4.31788 13.4 4.31718 13.4 4.31651C13.4 4.31585 13.3993 4.31515 13.3993 4.31448L13.0559 2.69786C12.9586 2.24119 12.7526 1.90717 12.442 1.70584C12.1313 1.5045 11.7439 1.45053 11.2859 1.54853L9.99194 1.82384C9.57528 1.9125 9.26458 2.10186 9.06258 2.36453C8.85925 1.81519 8.36922 1.50117 7.66789 1.50117H6.33455C5.92055 1.50117 5.58589 1.61582 5.33455 1.81782C5.08322 1.61582 4.74855 1.50117 4.33455 1.50117H3.00122C2.06189 1.50117 1.50122 2.06183 1.50122 3.00117V13.0012C1.50122 13.9405 2.06189 14.5012 3.00122 14.5012H4.33455C4.74855 14.5012 5.08322 14.3865 5.33455 14.1845C5.58589 14.3865 5.92055 14.5012 6.33455 14.5012H7.66789C8.60722 14.5012 9.16789 13.9405 9.16789 13.0012V5.12787L10.5619 11.6839C10.5619 11.6845 10.5619 11.6845 10.5619 11.6852C10.5619 11.6858 10.5626 11.6859 10.5626 11.6865L10.9067 13.3032C11.004 13.7598 11.2099 14.0939 11.5206 14.2952C11.7306 14.4319 11.9766 14.4999 12.2553 14.4999C12.388 14.4999 12.5293 14.4845 12.6773 14.4525L13.9713 14.1772C14.4286 14.0799 14.7626 13.8732 14.9633 13.5632C15.1633 13.2532 15.2166 12.8638 15.1192 12.4078ZM2.49992 5.16718H4.83325V10.8338H2.49992V5.16718ZM5.83325 5.16718H8.16658V10.8338H5.83325V5.16718ZM6.33325 2.50051H7.66658C8.05925 2.50051 8.16658 2.60785 8.16658 3.00051V4.16718H5.83325V3.00051C5.83325 2.60785 5.94059 2.50051 6.33325 2.50051ZM2.99992 2.50051H4.33325C4.72592 2.50051 4.83325 2.60785 4.83325 3.00051V4.16718H2.49992V3.00051C2.49992 2.60785 2.60725 2.50051 2.99992 2.50051ZM4.33325 13.5005H2.99992C2.60725 13.5005 2.49992 13.3932 2.49992 13.0005V11.8338H4.83325V13.0005C4.83325 13.3932 4.72592 13.5005 4.33325 13.5005ZM7.66658 13.5005H6.33325C5.94059 13.5005 5.83325 13.3932 5.83325 13.0005V11.8338H8.16658V13.0005C8.16658 13.3932 8.05925 13.5005 7.66658 13.5005ZM10.2659 5.49254L12.5253 5.01248L13.6933 10.5078L11.4347 10.9878L10.2659 5.49254ZM10.1986 2.80121L11.4932 2.52582C11.5579 2.51182 11.6346 2.50051 11.7066 2.50051C11.7786 2.50051 11.8466 2.51181 11.8959 2.54381C11.9952 2.60848 12.0492 2.77588 12.0766 2.90522L12.3166 4.03453L10.0572 4.51451L9.8173 3.3852C9.73797 3.0072 9.81932 2.88121 10.1986 2.80121ZM14.1233 13.0191C14.0586 13.1185 13.8913 13.1718 13.7626 13.1998C13.7619 13.1998 13.762 13.1998 13.762 13.1998L12.4672 13.4752C12.3385 13.5025 12.1632 13.5212 12.0645 13.4572C11.9652 13.3926 11.9112 13.2251 11.8839 13.0958L11.644 11.9665L13.9026 11.4865L14.1427 12.6158C14.1687 12.7452 14.188 12.9191 14.1233 13.0191Z" fill="#3B3B3E"/>
</svg>
