<svg width="16" height="16" viewBox="0 0 16 16" fill="none" xmlns="http://www.w3.org/2000/svg">
<path d="M7.99994 14.4997C7.92927 14.4997 7.85858 14.485 7.79258 14.455C7.57458 14.3557 2.44394 11.9764 1.62128 7.73905C1.30328 6.09971 1.62261 4.50037 2.47528 3.4617C3.16528 2.62037 4.15725 2.17303 5.34458 2.16703C5.35058 2.16703 5.35658 2.16703 5.36192 2.16703C6.71658 2.16703 7.54262 2.93838 7.99929 3.59505C8.45795 2.93571 9.29058 2.16103 10.6539 2.16703C11.8419 2.17303 12.8346 2.62037 13.5252 3.4617C14.3766 4.4997 14.6952 6.09903 14.3766 7.7397C13.5552 11.977 8.42391 14.3571 8.20591 14.4557C8.14125 14.4851 8.07061 14.4997 7.99994 14.4997ZM5.36127 3.16638C5.35727 3.16638 5.35396 3.16638 5.34996 3.16638C4.45795 3.17038 3.7513 3.48303 3.24864 4.0957C2.58264 4.90703 2.34196 6.19771 2.60329 7.54837C3.23996 10.831 7.06194 12.9644 7.99994 13.443C8.93794 12.9644 12.7599 10.831 13.3959 7.54837C13.6586 6.19704 13.4179 4.90636 12.7533 4.0957C12.2506 3.4837 11.5439 3.17169 10.6499 3.16703C10.6459 3.16703 10.6419 3.16703 10.6386 3.16703C9.05728 3.16703 8.49664 4.75171 8.47398 4.81905C8.40464 5.02105 8.21392 5.15836 8.00059 5.15836C7.99926 5.15836 7.99857 5.15836 7.9979 5.15836C7.7839 5.15769 7.59325 5.02104 7.52525 4.8177C7.50325 4.75104 6.94193 3.16638 5.36127 3.16638Z" fill="#3B3B3E"/>
</svg>
