<svg width="16" height="16" viewBox="0 0 16 16" fill="none" xmlns="http://www.w3.org/2000/svg">
<g clip-path="url(#clip0_36251_9052)">
<path d="M7.34666 13.0005C7.34666 13.2738 7.12666 13.5005 6.84666 13.5005C6.56666 13.5005 6.34666 13.2738 6.34666 13.0005C6.34666 12.7271 6.56666 12.5005 6.84666 12.5005C7.12666 12.5005 7.34666 12.7271 7.34666 13.0005ZM11.1667 1.66714V9.00048C11.1667 9.46048 10.7933 9.83381 10.3333 9.83381H9.57332C9.18666 9.83381 8.82667 10.0071 8.58667 10.3138C8.34667 10.6205 8.26667 11.0071 8.36001 11.3871L8.69334 12.7271C8.84001 13.3205 8.71333 13.9338 8.33333 14.4071C7.96 14.8871 7.39333 15.1605 6.78666 15.1605C5.70666 15.1605 4.82666 14.2805 4.82666 13.2005V3.41381C4.82666 1.72047 5.72 0.827148 7.41333 0.827148H10.3267C10.7867 0.827148 11.16 1.20048 11.16 1.66048L11.1667 1.66714ZM7.72666 12.9738L7.44 11.8338H5.83333V13.2071C5.83333 13.7405 6.26667 14.1671 6.79333 14.1671C7.09333 14.1671 7.36666 14.0338 7.55332 13.8005C7.73999 13.5671 7.8 13.2671 7.72666 12.9738V12.9738ZM10.1667 1.83381H7.42C6.28 1.83381 5.83333 2.28048 5.83333 3.42048V10.8338H7.35333C7.4 10.4271 7.53999 10.0338 7.80666 9.70048C8.23333 9.15381 8.88 8.83381 9.58 8.83381H10.1733V1.83381H10.1667Z" fill="#3B3B3E"/>
</g>
<defs>
<clipPath id="clip0_36251_9052">
<rect width="16" height="16" fill="white"/>
</clipPath>
</defs>
</svg>
