<svg width="16" height="16" viewBox="0 0 16 16" fill="none" xmlns="http://www.w3.org/2000/svg">
<path d="M14.5 4.66698V7.26024C14.5 11.5122 11.224 14.1196 8.15804 15.1409C8.10671 15.1583 8.05333 15.167 8 15.167C7.946 15.167 7.89266 15.1583 7.84066 15.1409C7.15932 14.9116 6.12204 14.4823 5.05404 13.7376C4.82737 13.5796 4.77136 13.2677 4.92936 13.0417C5.0867 12.8157 5.39733 12.759 5.62533 12.9176C6.51666 13.539 7.384 13.919 8 14.139C9.22133 13.701 13.5 11.8377 13.5 7.2617V4.66698C13.5 4.39098 13.724 4.16698 14 4.16698C14.276 4.16698 14.5 4.39098 14.5 4.66698ZM14.3534 2.35366L2.35335 14.3537C2.25602 14.451 2.128 14.5003 2 14.5003C1.872 14.5003 1.74398 14.4517 1.64665 14.3537C1.45131 14.1583 1.45131 13.8416 1.64665 13.6463L3.2347 12.0583C2.08803 10.6716 1.5 9.06159 1.5 7.25959V3.33364C1.5 3.09564 1.66802 2.88957 1.90202 2.84357C5.15335 2.1929 6.30673 1.62161 7.76807 0.897607C7.90873 0.828274 8.09794 0.817012 8.23861 0.887679C9.47661 1.51301 10.4779 2.01232 12.7453 2.54832L13.6466 1.64696C13.842 1.45162 14.1587 1.45162 14.354 1.64696C14.5493 1.84229 14.5487 2.15833 14.3534 2.35366ZM3.94271 11.3502L11.9167 3.37629C10.0613 2.89562 9.06274 2.42224 8.01074 1.89224C6.62408 2.57757 5.42135 3.13102 2.49935 3.74168V7.26024C2.50002 8.78957 2.98804 10.1622 3.94271 11.3502Z" fill="#3B3B3E"/>
</svg>
