<svg width="16" height="16" viewBox="0 0 16 16" fill="none" xmlns="http://www.w3.org/2000/svg">
<path d="M4.82586 7.38885H10.5065C11.0285 7.38885 11.4898 7.09555 11.7092 6.62355C11.9272 6.15422 11.8552 5.61621 11.5212 5.22088L8.84392 2.04689C8.25792 1.35156 7.07445 1.35156 6.48845 2.04689L3.81121 5.22023C3.47721 5.61623 3.40522 6.15422 3.62322 6.62355C3.84322 7.09622 4.30386 7.38885 4.82586 7.38885ZM4.57586 5.86558L7.2531 2.69158C7.35577 2.56958 7.50651 2.50018 7.66651 2.50018C7.82651 2.50018 7.97726 2.56958 8.07992 2.69158L10.7572 5.86558C10.8752 6.00491 10.8279 6.1475 10.8026 6.20216C10.7766 6.25816 10.6952 6.38885 10.5072 6.38885H4.82651C4.63851 6.38885 4.55726 6.25816 4.53126 6.20216C4.50526 6.1475 4.45852 6.00491 4.57586 5.86558ZM10.5072 8.61151H4.82651C4.30451 8.61151 3.8432 8.90481 3.62387 9.37681C3.40587 9.84614 3.47786 10.3841 3.81186 10.7795L6.4891 13.9535C6.78177 14.3008 7.21116 14.5002 7.66716 14.5002C8.12316 14.5002 8.55189 14.3008 8.84522 13.9535L11.5225 10.7801C11.8565 10.3841 11.9285 9.84614 11.7105 9.37681C11.4898 8.90414 11.0292 8.61151 10.5072 8.61151ZM10.7572 10.1348L8.07992 13.3088C7.87392 13.5521 7.45844 13.5521 7.2531 13.3088L4.57586 10.1348C4.45786 9.99545 4.50511 9.85286 4.53045 9.79819C4.55645 9.74219 4.63786 9.61151 4.82586 9.61151H10.5065C10.6945 9.61151 10.7758 9.74219 10.8018 9.79819C10.8278 9.85286 10.8745 9.99545 10.7572 10.1348Z" fill="#3B3B3E"/>
</svg>
