<svg width="16" height="16" viewBox="0 0 16 16" fill="none" xmlns="http://www.w3.org/2000/svg">
<path d="M14 5.83333H11.6667C10.7273 5.83333 10.1667 5.27267 10.1667 4.33333V2C10.1667 1.724 10.3907 1.5 10.6667 1.5C10.9427 1.5 11.1667 1.724 11.1667 2V4.33333C11.1667 4.726 11.274 4.83333 11.6667 4.83333H14C14.276 4.83333 14.5 5.05733 14.5 5.33333C14.5 5.60933 14.276 5.83333 14 5.83333ZM5.83333 4.33333V2C5.83333 1.724 5.60933 1.5 5.33333 1.5C5.05733 1.5 4.83333 1.724 4.83333 2V4.33333C4.83333 4.726 4.726 4.83333 4.33333 4.83333H2C1.724 4.83333 1.5 5.05733 1.5 5.33333C1.5 5.60933 1.724 5.83333 2 5.83333H4.33333C5.27267 5.83333 5.83333 5.27267 5.83333 4.33333ZM5.83333 14V11.6667C5.83333 10.7273 5.27267 10.1667 4.33333 10.1667H2C1.724 10.1667 1.5 10.3907 1.5 10.6667C1.5 10.9427 1.724 11.1667 2 11.1667H4.33333C4.726 11.1667 4.83333 11.274 4.83333 11.6667V14C4.83333 14.276 5.05733 14.5 5.33333 14.5C5.60933 14.5 5.83333 14.276 5.83333 14ZM11.1667 14V11.6667C11.1667 11.274 11.274 11.1667 11.6667 11.1667H14C14.276 11.1667 14.5 10.9427 14.5 10.6667C14.5 10.3907 14.276 10.1667 14 10.1667H11.6667C10.7273 10.1667 10.1667 10.7273 10.1667 11.6667V14C10.1667 14.276 10.3907 14.5 10.6667 14.5C10.9427 14.5 11.1667 14.276 11.1667 14Z" fill="#3B3B3E"/>
</svg>
