<svg width="16" height="16" viewBox="0 0 16 16" fill="none" xmlns="http://www.w3.org/2000/svg">
<path d="M11.75 14.5H4.25C2.47667 14.5 1.5 13.5233 1.5 11.75V4.25C1.5 2.47667 2.47667 1.5 4.25 1.5H11.75C13.5233 1.5 14.5 2.47667 14.5 4.25V11.75C14.5 13.5233 13.5233 14.5 11.75 14.5ZM4.25 2.5C3.02333 2.5 2.5 3.02333 2.5 4.25V11.75C2.5 12.9767 3.02333 13.5 4.25 13.5H11.75C12.9767 13.5 13.5 12.9767 13.5 11.75V4.25C13.5 3.02333 12.9767 2.5 11.75 2.5H4.25ZM6.85531 11.168C6.62197 11.168 6.38867 11.108 6.17334 10.9873C5.72867 10.738 5.4633 10.2854 5.4633 9.77604V6.22396C5.4633 5.71463 5.72867 5.26203 6.17334 5.0127C6.62067 4.7627 7.14603 4.77271 7.58203 5.04004L10.568 6.8667C10.966 7.1107 11.204 7.53398 11.204 8.00065C11.204 8.46732 10.966 8.8906 10.568 9.1346L7.58203 10.9613C7.35603 11.0986 7.10597 11.168 6.85531 11.168ZM6.85669 5.83333C6.76869 5.83333 6.69803 5.86459 6.66203 5.88525C6.60203 5.91859 6.46265 6.01929 6.46265 6.22396V9.77604C6.46265 9.98138 6.60203 10.0814 6.66203 10.1147C6.72269 10.1487 6.88198 10.2166 7.05998 10.1073L10.046 8.2806C10.1886 8.19327 10.204 8.05533 10.204 8C10.204 7.94467 10.1886 7.80672 10.046 7.72005L7.05998 5.89339C6.98731 5.84806 6.91802 5.83333 6.85669 5.83333Z" fill="#3B3B3E"/>
</svg>
