<svg width="16" height="16" viewBox="0 0 16 16" fill="none" xmlns="http://www.w3.org/2000/svg">
<path d="M8.50015 5.33333V7.79264L9.68684 8.97933C9.88217 9.17466 9.88217 9.49135 9.68684 9.68669C9.5895 9.78402 9.46148 9.83333 9.33348 9.83333C9.20548 9.83333 9.07746 9.78469 8.98013 9.68669L7.6468 8.35335C7.5528 8.25935 7.50015 8.132 7.50015 8V5.33333C7.50015 5.05733 7.72415 4.83333 8.00015 4.83333C8.27615 4.83333 8.50015 5.05733 8.50015 5.33333ZM8.0174 1.5C6.1434 1.5 4.38748 2.3093 3.16682 3.69596V2C3.16682 1.724 2.94282 1.5 2.66682 1.5C2.39082 1.5 2.16682 1.724 2.16682 2V4.66667C2.16682 4.94267 2.39082 5.16667 2.66682 5.16667H5.33348C5.60948 5.16667 5.83348 4.94267 5.83348 4.66667C5.83348 4.39067 5.60948 4.16667 5.33348 4.16667H4.1022C5.12353 3.114 6.52422 2.5 8.01822 2.5C11.0409 2.5 13.5008 4.96733 13.5008 8C13.5008 11.0327 11.0415 13.5 8.01822 13.5C5.91822 13.5 4.03953 12.3299 3.1162 10.4466C2.9942 10.1993 2.69676 10.0953 2.44676 10.2179C2.19876 10.3393 2.09677 10.6387 2.21744 10.8867C3.31077 13.1154 5.53274 14.5 8.0174 14.5C11.5914 14.5 14.5001 11.584 14.5001 8C14.5001 4.416 11.5921 1.5 8.0174 1.5Z" fill="#3B3B3E"/>
</svg>
