<svg width="16" height="16" viewBox="0 0 16 16" fill="none" xmlns="http://www.w3.org/2000/svg">
<path d="M10.6666 12.5H5.33325C2.85192 12.5 0.833252 10.4813 0.833252 8C0.833252 5.51867 2.85192 3.5 5.33325 3.5H10.6666C13.1479 3.5 15.1666 5.51867 15.1666 8C15.1666 10.4813 13.1479 12.5 10.6666 12.5ZM5.33325 4.5C3.40325 4.5 1.83325 6.07 1.83325 8C1.83325 9.93 3.40325 11.5 5.33325 11.5H10.6666C12.5966 11.5 14.1666 9.93 14.1666 8C14.1666 6.07 12.5966 4.5 10.6666 4.5H5.33325ZM10.6666 10.5C9.28858 10.5 8.16658 9.37867 8.16658 8C8.16658 6.62133 9.28858 5.5 10.6666 5.5C12.0446 5.5 13.1666 6.62133 13.1666 8C13.1666 9.37867 12.0446 10.5 10.6666 10.5ZM10.6666 6.5C9.83992 6.5 9.16658 7.17267 9.16658 8C9.16658 8.82733 9.83992 9.5 10.6666 9.5C11.4933 9.5 12.1666 8.82733 12.1666 8C12.1666 7.17267 11.4933 6.5 10.6666 6.5Z" fill="#3B3B3E"/>
</svg>
