<svg width="16" height="16" viewBox="0 0 16 16" fill="none" xmlns="http://www.w3.org/2000/svg">
<path d="M11.296 11.0656C11.5086 11.0656 11.7227 10.9843 11.8853 10.8216L12.3613 10.3456C12.88 9.82629 13.04 9.05029 12.7667 8.36829L12.0353 6.53964C11.9527 6.3343 12.014 6.10299 12.1873 5.96432L13.8373 4.64429C14.2293 4.33096 14.4693 3.86363 14.4973 3.36296C14.5253 2.86229 14.338 2.37164 13.9833 2.01697C13.628 1.66231 13.1453 1.47364 12.636 1.50298C12.1353 1.53098 11.6693 1.77164 11.356 2.16297L10.036 3.81295C9.89934 3.98295 9.66465 4.04565 9.46065 3.96432L7.632 3.23296C6.95067 2.96029 6.17398 3.11963 5.65531 3.63896L5.17932 4.11496C4.94732 4.34696 4.88866 4.68165 4.988 4.97299L1.94067 8.02031C1.65734 8.30364 1.50134 8.68031 1.50134 9.08098C1.50134 9.48165 1.65734 9.85831 1.94067 10.1416L5.85933 14.0603C6.14267 14.3443 6.51932 14.5003 6.92065 14.5003C7.32132 14.5003 7.69799 14.3443 7.98132 14.061L11.0287 11.0136C11.1147 11.043 11.2046 11.0656 11.296 11.0656ZM7.26001 4.16098L9.08866 4.8923C9.70666 5.13963 10.4006 4.95631 10.8166 4.43698L12.1367 2.78699C12.274 2.61499 12.4713 2.51365 12.6913 2.50098C12.9073 2.48898 13.1193 2.56762 13.276 2.72429C13.4313 2.88029 13.5113 3.08762 13.4987 3.30762C13.486 3.52829 13.3847 3.72565 13.212 3.86365L11.562 5.18364C11.042 5.59964 10.8593 6.29496 11.1066 6.91163L11.838 8.73963C11.962 9.04963 11.8893 9.40231 11.654 9.63831L11.3313 9.96163C11.28 9.9163 11.2233 9.88298 11.1613 9.86231L6.13733 4.8383C6.11666 4.77697 6.08334 4.72033 6.038 4.66899L6.36133 4.34563C6.59733 4.10963 6.94934 4.03764 7.26001 4.16098ZM7.27266 13.353C7.084 13.5417 6.75468 13.5423 6.56535 13.353L3.95935 10.747L5.02002 9.68633C5.21535 9.49099 5.21535 9.1743 5.02002 8.97897C4.82469 8.78364 4.508 8.78364 4.31266 8.97897L3.25199 10.0396L2.646 9.43364C2.55133 9.33897 2.49935 9.21362 2.49935 9.08029C2.49935 8.94695 2.55133 8.82099 2.646 8.72632L5.62866 5.74366L10.2547 10.3703L7.27266 13.353ZM14.5 13.9996C14.5 14.2756 14.276 14.4996 14 14.4996H10.6667C10.3907 14.4996 10.1667 14.2756 10.1667 13.9996C10.1667 13.7236 10.3907 13.4996 10.6667 13.4996H14C14.276 13.4996 14.5 13.7236 14.5 13.9996Z" fill="#3B3B3E"/>
</svg>
