<svg width="16" height="16" viewBox="0 0 16 16" fill="none" xmlns="http://www.w3.org/2000/svg">
<g clip-path="url(#clip0_36251_6185)">
<path d="M8.00016 0.830078C4.04816 0.830078 0.833496 4.04541 0.833496 7.99675C0.833496 11.9481 4.04816 15.1634 8.00016 15.1634C11.9522 15.1634 15.1668 11.9481 15.1668 7.99675C15.1668 4.04541 11.9522 0.830078 8.00016 0.830078ZM8.00016 14.1634C4.5995 14.1634 1.8335 11.3974 1.8335 7.99675C1.8335 4.59608 4.5995 1.83008 8.00016 1.83008C11.4008 1.83008 14.1668 4.59608 14.1668 7.99675C14.1668 11.3974 11.4008 14.1634 8.00016 14.1634ZM10.8335 7.99675C10.8335 8.27275 10.6095 8.49675 10.3335 8.49675H8.50016V10.3301C8.50016 10.6061 8.27616 10.8301 8.00016 10.8301C7.72416 10.8301 7.50016 10.6061 7.50016 10.3301V8.49675H5.66683C5.39083 8.49675 5.16683 8.27275 5.16683 7.99675C5.16683 7.72075 5.39083 7.49675 5.66683 7.49675H7.50016V5.66341C7.50016 5.38741 7.72416 5.16341 8.00016 5.16341C8.27616 5.16341 8.50016 5.38741 8.50016 5.66341V7.49675H10.3335C10.6095 7.49675 10.8335 7.72075 10.8335 7.99675Z" fill="#3B3B3E"/>
</g>
<defs>
<clipPath id="clip0_36251_6185">
<rect width="16" height="16" fill="white"/>
</clipPath>
</defs>
</svg>
