<svg width="16" height="16" viewBox="0 0 16 16" fill="none" xmlns="http://www.w3.org/2000/svg">
<path d="M11.6113 10.6667V8C11.6113 7.01533 11.1293 6.39073 10.278 6.2194V5.77734C10.278 4.52134 9.256 3.49935 8 3.49935C6.744 3.49935 5.72201 4.52134 5.72201 5.77734V6.2194C4.87067 6.39073 4.38867 7.01533 4.38867 8V10.6667C4.38867 11.832 5.05667 12.5 6.22201 12.5H9.778C10.9433 12.5 11.6113 11.832 11.6113 10.6667ZM8 4.5C8.70467 4.5 9.278 5.07333 9.278 5.77799V6.16667H6.72201V5.77799C6.72201 5.07333 7.29533 4.5 8 4.5ZM10.6113 10.6667C10.6113 11.282 10.3933 11.5 9.778 11.5H6.22201C5.60667 11.5 5.38867 11.282 5.38867 10.6667V8C5.38867 7.38467 5.60667 7.16667 6.22201 7.16667H9.778C10.3933 7.16667 10.6113 7.38467 10.6113 8V10.6667ZM8.84668 8.88867C8.84668 9.16334 8.70533 9.39538 8.5 9.54671V10.222C8.5 10.498 8.276 10.722 8 10.722C7.724 10.722 7.5 10.498 7.5 10.222V9.52995C7.308 9.37728 7.1766 9.15201 7.1766 8.88867C7.1766 8.42867 7.54667 8.05534 8.00667 8.05534H8.01335C8.47335 8.05534 8.84668 8.42867 8.84668 8.88867ZM14.5 3V5.33333C14.5 5.60933 14.276 5.83333 14 5.83333C13.724 5.83333 13.5 5.60933 13.5 5.33333V3C13.5 2.60733 13.3927 2.5 13 2.5H10.6667C10.3907 2.5 10.1667 2.276 10.1667 2C10.1667 1.724 10.3907 1.5 10.6667 1.5H13C13.9393 1.5 14.5 2.06067 14.5 3ZM1.5 5.33333V3C1.5 2.06067 2.06067 1.5 3 1.5H5.33333C5.60933 1.5 5.83333 1.724 5.83333 2C5.83333 2.276 5.60933 2.5 5.33333 2.5H3C2.60733 2.5 2.5 2.60733 2.5 3V5.33333C2.5 5.60933 2.276 5.83333 2 5.83333C1.724 5.83333 1.5 5.60933 1.5 5.33333ZM5.83333 14C5.83333 14.276 5.60933 14.5 5.33333 14.5H3C2.06067 14.5 1.5 13.9393 1.5 13V10.6667C1.5 10.3907 1.724 10.1667 2 10.1667C2.276 10.1667 2.5 10.3907 2.5 10.6667V13C2.5 13.3927 2.60733 13.5 3 13.5H5.33333C5.60933 13.5 5.83333 13.724 5.83333 14ZM14.5 10.6667V13C14.5 13.9393 13.9393 14.5 13 14.5H10.6667C10.3907 14.5 10.1667 14.276 10.1667 14C10.1667 13.724 10.3907 13.5 10.6667 13.5H13C13.3927 13.5 13.5 13.3927 13.5 13V10.6667C13.5 10.3907 13.724 10.1667 14 10.1667C14.276 10.1667 14.5 10.3907 14.5 10.6667Z" fill="#3B3B3E"/>
</svg>
