<svg width="16" height="16" viewBox="0 0 16 16" fill="none" xmlns="http://www.w3.org/2000/svg">
<path d="M10.3201 12.4997C10.2135 12.4997 10.1002 12.4797 10.0002 12.4397C8.6535 11.8997 7.3535 11.8997 6.00684 12.4397C5.70684 12.5597 5.36682 12.5063 5.12016 12.293C4.88682 12.093 4.78685 11.7863 4.85352 11.493C5.19352 10.0197 6.48683 8.99301 8.00016 8.99301C9.5135 8.99301 10.8068 10.0197 11.1468 11.493C11.2135 11.7863 11.1135 12.093 10.8802 12.293C10.7202 12.4263 10.5201 12.4997 10.3201 12.4997ZM8.00016 9.98634C7.06683 9.98634 6.25351 10.553 5.92684 11.393C7.30684 10.913 8.70015 10.913 10.0735 11.393C9.74682 10.553 8.9335 9.98634 8.00016 9.98634ZM11.1135 7.55301C11.2402 7.30634 11.1402 7.00635 10.8868 6.87968L10.4468 6.65968L10.8868 6.43968C11.1335 6.31301 11.2335 6.013 11.1135 5.76634C10.9868 5.51967 10.6868 5.41967 10.4401 5.53967L9.10681 6.20634C8.94014 6.29301 8.82682 6.46634 8.82682 6.653C8.82682 6.83967 8.93348 7.013 9.10681 7.09967L10.4401 7.76634C10.5135 7.79967 10.5868 7.81967 10.6602 7.81967C10.8468 7.81967 11.0201 7.71968 11.1068 7.54635L11.1135 7.55301ZM5.56018 7.77967L6.89351 7.11301C7.06018 7.02634 7.16683 6.85301 7.16683 6.66634C7.16683 6.47967 7.06017 6.30634 6.88684 6.21968L5.55351 5.55301C5.30684 5.43301 5.00683 5.53301 4.88017 5.77967C4.7535 6.02634 4.85348 6.32634 5.10681 6.453L5.54683 6.673L5.10681 6.89301C4.86014 7.01967 4.76017 7.31968 4.88684 7.56634C4.97351 7.73968 5.1535 7.83967 5.3335 7.83967C5.40683 7.83967 5.48684 7.81967 5.55351 7.78634L5.56018 7.77967ZM8.00016 15.1663C4.04683 15.1663 0.833496 11.953 0.833496 7.99967C0.833496 4.04634 4.04683 0.833008 8.00016 0.833008C11.9535 0.833008 15.1668 4.04634 15.1668 7.99967C15.1668 11.953 11.9535 15.1663 8.00016 15.1663ZM8.00016 1.83301C4.60016 1.83301 1.8335 4.59967 1.8335 7.99967C1.8335 11.3997 4.60016 14.1663 8.00016 14.1663C11.4002 14.1663 14.1668 11.3997 14.1668 7.99967C14.1668 4.59967 11.4002 1.83301 8.00016 1.83301Z" fill="#3B3B3E"/>
</svg>
