<svg width="16" height="16" viewBox="0 0 16 16" fill="none" xmlns="http://www.w3.org/2000/svg">
<path d="M12.4987 8.70402C12.502 8.64735 12.4927 8.5913 12.4767 8.53597C12.472 8.51997 12.4654 8.50599 12.4594 8.48999C12.452 8.47132 12.448 8.45135 12.438 8.43335L8.91736 2.04199C8.73336 1.70799 8.38203 1.5 8.00069 1.5C7.61936 1.5 7.26736 1.70799 7.08403 2.04199L3.56336 8.43335C3.55336 8.45135 3.54935 8.47132 3.54201 8.48999C3.53601 8.50532 3.52935 8.51997 3.52468 8.53597C3.50868 8.5913 3.49935 8.64735 3.50269 8.70402C3.50269 8.70602 3.50336 8.70803 3.50336 8.71069C3.50402 8.71869 3.50735 8.72532 3.50802 8.73332C3.51402 8.78198 3.52736 8.82934 3.54736 8.87467C3.55003 8.88001 3.54936 8.88602 3.55202 8.89136C3.55336 8.89336 3.55268 8.89602 3.55402 8.89868C3.55535 8.90068 3.55736 8.90204 3.5587 8.9047C3.56136 8.91004 3.5667 8.91402 3.57003 8.91935C3.57803 8.93335 3.58202 8.94801 3.59135 8.96134L7.14268 14.052C7.33801 14.3327 7.65936 14.5 8.00136 14.5C8.34336 14.5 8.66469 14.3327 8.86003 14.052L12.4114 8.96069C12.4187 8.95003 12.422 8.93866 12.428 8.92733C12.434 8.91666 12.4427 8.9087 12.4487 8.89803C12.45 8.89603 12.4494 8.89337 12.4507 8.89071C12.4534 8.88537 12.4527 8.87936 12.4554 8.87402C12.4754 8.82802 12.4887 8.78133 12.4947 8.73267C12.4954 8.72467 12.4994 8.71796 12.4994 8.70996C12.498 8.70796 12.4987 8.70602 12.4987 8.70402ZM7.95868 2.52466H8.04136L10.7874 7.50936L8.22402 6.2273C8.08335 6.1573 7.91736 6.1573 7.77669 6.2273L5.21336 7.50936L7.95868 2.52466ZM10.6967 8.58203L8.00002 9.48063L5.30335 8.58203L8.00002 7.23332L10.6967 8.58203ZM8.0387 13.48C8.0387 13.48 7.99068 13.48 7.97068 13.48C7.96535 13.48 7.96202 13.48 7.96202 13.48L5.27336 9.62663L7.84202 10.4827C7.89336 10.5 7.94669 10.5086 8.00002 10.5086C8.05336 10.5086 8.10669 10.5 8.15802 10.4827L10.7267 9.62663L8.0387 13.48Z" fill="#3B3B3E"/>
</svg>
