<svg width="16" height="16" viewBox="0 0 16 16" fill="none" xmlns="http://www.w3.org/2000/svg">
<path d="M8 14.5C7.77667 14.5 7.58066 14.352 7.51933 14.1373L7 12.3193C6.538 10.7027 5.29666 9.46133 3.68066 9L1.86267 8.48067C1.648 8.41934 1.5 8.22333 1.5 8C1.5 7.77667 1.648 7.58066 1.86267 7.51933L3.68066 7C5.29733 6.538 6.538 5.29733 7 3.68066L7.51933 1.86267C7.58066 1.648 7.77667 1.5 8 1.5C8.22333 1.5 8.41934 1.648 8.48067 1.86267L9 3.68066C9.462 5.29733 10.7033 6.53867 12.3193 7L14.1373 7.51933C14.352 7.58066 14.5 7.77667 14.5 8C14.5 8.22333 14.352 8.41934 14.1373 8.48067L12.3193 9C10.7027 9.462 9.462 10.7027 9 12.3193L8.48067 14.1373C8.41934 14.352 8.22333 14.5 8 14.5ZM3.82001 8L3.95534 8.03868C5.90601 8.59601 7.404 10.094 7.962 12.0453L8.00067 12.18L8.03933 12.0453C8.59733 10.094 10.0947 8.59668 12.046 8.03868L12.18 8L12.0447 7.96132C10.094 7.40399 8.596 5.906 8.038 3.95467L8 3.82066L7.96132 3.95534C7.40332 5.90668 5.906 7.404 3.95467 7.962L3.82001 8Z" fill="#3B3B3E"/>
</svg>
