<svg width="16" height="16" viewBox="0 0 16 16" fill="none" xmlns="http://www.w3.org/2000/svg">
<path d="M14.5 3.66667V3C14.5 2.06067 13.9394 1.5 13 1.5H12.3334C11.4527 1.5 10.9114 1.99733 10.846 2.83333H5.15336C5.08869 1.99733 4.54672 1.5 3.66606 1.5H2.99939C2.06006 1.5 1.49939 2.06067 1.49939 3V3.66667C1.49939 4.54733 1.99672 5.08867 2.83272 5.15334V10.846C1.99672 10.9107 1.49939 11.452 1.49939 12.3327V12.9993C1.49939 13.9387 2.06006 14.4993 2.99939 14.4993H3.66606C4.54672 14.4993 5.08803 14.002 5.15336 13.166H10.846C10.9107 14.002 11.4527 14.4993 12.3334 14.4993H13C13.9394 14.4993 14.5 13.9387 14.5 12.9993V12.3327C14.5 11.452 14.0027 10.9107 13.1667 10.846V5.15334C14.0027 5.08867 14.5 4.54733 14.5 3.66667ZM11.8334 3C11.8334 2.60733 11.9407 2.5 12.3334 2.5H13C13.3927 2.5 13.5 2.60733 13.5 3V3.66667C13.5 4.05933 13.3927 4.16667 13 4.16667H12.3334C11.9407 4.16667 11.8334 4.05933 11.8334 3.66667V3ZM10.846 12.1667H5.15336C5.09269 11.3867 4.61339 10.9067 3.83272 10.8467V5.15399C4.61272 5.09333 5.09269 4.614 5.15336 3.834H10.846C10.9067 4.614 11.386 5.09399 12.1667 5.15399V10.8467C11.3867 10.9067 10.9067 11.3867 10.846 12.1667ZM2.50004 3.66667V3C2.50004 2.60733 2.60737 2.5 3.00004 2.5H3.66671C4.05937 2.5 4.16671 2.60733 4.16671 3V3.66667C4.16671 4.05933 4.05937 4.16667 3.66671 4.16667H3.00004C2.60737 4.16667 2.50004 4.05933 2.50004 3.66667ZM4.16671 13C4.16671 13.3927 4.05937 13.5 3.66671 13.5H3.00004C2.60737 13.5 2.50004 13.3927 2.50004 13V12.3333C2.50004 11.9407 2.60737 11.8333 3.00004 11.8333H3.66671C4.05937 11.8333 4.16671 11.9407 4.16671 12.3333V13ZM13.5 12.3333V13C13.5 13.3927 13.3927 13.5 13 13.5H12.3334C11.9407 13.5 11.8334 13.3927 11.8334 13V12.3333C11.8334 11.9407 11.9407 11.8333 12.3334 11.8333H13C13.3927 11.8333 13.5 11.9407 13.5 12.3333Z" fill="#3B3B3E"/>
</svg>
