<svg width="16" height="16" viewBox="0 0 16 16" fill="none" xmlns="http://www.w3.org/2000/svg">
<path d="M8.00016 0.833008C4.04816 0.833008 0.833496 4.04767 0.833496 7.99967C0.833496 11.9517 4.04816 15.1663 8.00016 15.1663C11.9522 15.1663 15.1668 11.9517 15.1668 7.99967C15.1668 4.04767 11.9522 0.833008 8.00016 0.833008ZM8.00016 14.1663C4.5995 14.1663 1.8335 11.4003 1.8335 7.99967C1.8335 4.59901 4.5995 1.83301 8.00016 1.83301C11.4008 1.83301 14.1668 4.59901 14.1668 7.99967C14.1668 11.4003 11.4008 14.1663 8.00016 14.1663ZM10.4614 5.80827C10.4868 5.8696 10.5002 5.93434 10.5002 5.99967V8.66634C10.5002 8.94234 10.2762 9.16634 10.0002 9.16634C9.72416 9.16634 9.50016 8.94234 9.50016 8.66634V7.20703L6.35352 10.3537C6.25618 10.451 6.12816 10.5003 6.00016 10.5003C5.87216 10.5003 5.74414 10.4517 5.64681 10.3537C5.45148 10.1583 5.45148 9.84165 5.64681 9.64632L8.79346 6.49967H7.3335C7.0575 6.49967 6.8335 6.27567 6.8335 5.99967C6.8335 5.72367 7.0575 5.49967 7.3335 5.49967H10.0002C10.0655 5.49967 10.1302 5.51308 10.1916 5.53841C10.3136 5.58908 10.4108 5.68627 10.4614 5.80827Z" fill="#3B3B3E"/>
</svg>
