<svg width="16" height="16" viewBox="0 0 16 16" fill="none" xmlns="http://www.w3.org/2000/svg">
<path d="M12 13.8337H4C2.388 13.8337 1.5 12.9457 1.5 11.3337V4.66699C1.5 3.05499 2.388 2.16699 4 2.16699H6.66667C6.79933 2.16699 6.92669 2.21966 7.02002 2.31366L8.87337 4.16699H12C13.612 4.16699 14.5 5.05499 14.5 6.66699V11.3337C14.5 12.9457 13.612 13.8337 12 13.8337ZM4 3.16699C2.94867 3.16699 2.5 3.61566 2.5 4.66699V11.3337C2.5 12.385 2.94867 12.8337 4 12.8337H12C13.0513 12.8337 13.5 12.385 13.5 11.3337V6.66699C13.5 5.61566 13.0513 5.16699 12 5.16699H8.66667C8.534 5.16699 8.40665 5.11432 8.31331 5.02032L6.45996 3.16699H4ZM8 8.93365C7.118 8.93365 6.40007 8.21566 6.40007 7.33366C6.40007 6.45166 7.118 5.73366 8 5.73366C8.882 5.73366 9.59994 6.45166 9.59994 7.33366C9.59994 8.21566 8.882 8.93365 8 8.93365ZM8 6.73366C7.66933 6.73366 7.40007 7.00299 7.40007 7.33366C7.40007 7.66433 7.66933 7.93365 8 7.93365C8.33067 7.93365 8.59994 7.66433 8.59994 7.33366C8.59994 7.00299 8.33067 6.73366 8 6.73366ZM10.5 11.567V11.365C10.5 10.389 9.78873 9.40033 8.42806 9.40033H7.57259C6.21192 9.40033 5.50065 10.3883 5.50065 11.365V11.567C5.50065 11.843 5.72465 12.067 6.00065 12.067C6.27665 12.067 6.50065 11.843 6.50065 11.567V11.365C6.50065 10.885 6.83192 10.4003 7.57259 10.4003H8.42806C9.16873 10.4003 9.5 10.885 9.5 11.365V11.567C9.5 11.843 9.724 12.067 10 12.067C10.276 12.067 10.5 11.843 10.5 11.567Z" fill="#3B3B3E"/>
</svg>
