<svg width="16" height="16" viewBox="0 0 16 16" fill="none" xmlns="http://www.w3.org/2000/svg">
<path d="M13.4067 3.71442C13.3221 3.18108 13.0087 2.7144 12.5474 2.43374C12.0867 2.15374 11.528 2.09105 11.0153 2.26105L10.508 2.4304C10.246 2.51773 10.1047 2.80105 10.1921 3.06305C10.2787 3.32505 10.5594 3.46705 10.8241 3.37905L11.3314 3.2097C11.5647 3.13236 11.8187 3.16106 12.028 3.28839C12.2373 3.41572 12.3793 3.62838 12.4313 3.93105C12.762 5.07505 13.1673 6.65841 13.37 8.47174C12.9973 8.27574 12.5434 8.1664 11.9987 8.1664H11.332C9.83136 8.1664 8.96799 8.94437 8.85465 10.3517C8.58799 10.237 8.3007 10.1664 7.9987 10.1664C7.6967 10.1664 7.40941 10.237 7.14274 10.3517C7.02941 8.94437 6.16603 8.1664 4.66536 8.1664H3.9987C3.4547 8.1664 3.0006 8.27574 2.62793 8.47174C2.83126 6.65441 3.24008 5.05842 3.58008 3.87042C3.61874 3.62775 3.76072 3.41574 3.97005 3.28774C4.17939 3.16107 4.434 3.13238 4.66667 3.20904L5.17399 3.3784C5.43866 3.46573 5.71866 3.3244 5.80599 3.0624C5.89399 2.8004 5.75207 2.51775 5.49007 2.42975L4.98275 2.2604C4.47075 2.08973 3.91202 2.15242 3.45068 2.43308C2.98935 2.71375 2.67599 3.18039 2.60465 3.65306C2.12932 5.29839 1.49805 7.81508 1.49805 10.6658V11.3324C1.49805 12.9444 2.38605 13.8324 3.99805 13.8324H4.66471C6.20138 13.8324 7.07075 13.0177 7.14941 11.5457C7.59475 11.077 8.40135 11.077 8.84668 11.5457C8.92535 13.0177 9.79471 13.8324 11.3314 13.8324H11.998C13.61 13.8324 14.498 12.9444 14.498 11.3324V10.6658C14.5 7.81575 13.8687 5.29908 13.4067 3.71442ZM6.16667 11.3331C6.16667 12.3844 5.718 12.8331 4.66667 12.8331H4C2.94867 12.8331 2.5 12.3844 2.5 11.3331V10.6664C2.5 9.61507 2.94867 9.1664 4 9.1664H4.66667C5.718 9.1664 6.16667 9.61507 6.16667 10.6664V11.3331ZM13.5 11.3331C13.5 12.3844 13.0513 12.8331 12 12.8331H11.3333C10.282 12.8331 9.83333 12.3844 9.83333 11.3331V10.6664C9.83333 9.61507 10.282 9.1664 11.3333 9.1664H12C13.0513 9.1664 13.5 9.61507 13.5 10.6664V11.3331Z" fill="#3B3B3E"/>
</svg>
