<svg width="16" height="16" viewBox="0 0 16 16" fill="none" xmlns="http://www.w3.org/2000/svg">
<path d="M12 13.8337H4C2.388 13.8337 1.5 12.9457 1.5 11.3337V8.83366H2C2.45933 8.83366 2.83333 8.45966 2.83333 8.00033C2.83333 7.54099 2.45933 7.16699 2 7.16699H1.5V4.66699C1.5 3.05499 2.388 2.16699 4 2.16699H12C13.612 2.16699 14.5 3.05499 14.5 4.66699V7.16699H14C13.5407 7.16699 13.1667 7.54099 13.1667 8.00033C13.1667 8.45966 13.5407 8.83366 14 8.83366H14.5V11.3337C14.5 12.9457 13.612 13.8337 12 13.8337ZM2.5 9.76432V11.3337C2.5 12.385 2.94867 12.8337 4 12.8337H12C13.0513 12.8337 13.5 12.385 13.5 11.3337V9.76432C12.7313 9.54632 12.1667 8.83833 12.1667 8.00033C12.1667 7.16233 12.7313 6.45433 13.5 6.23633V4.66699C13.5 3.61566 13.0513 3.16699 12 3.16699H4C2.94867 3.16699 2.5 3.61566 2.5 4.66699V6.23633C3.26867 6.45433 3.83333 7.16233 3.83333 8.00033C3.83333 8.83833 3.26867 9.54632 2.5 9.76432ZM8 11.0003C7.93 11.0003 7.85936 10.9857 7.79403 10.9563C7.69203 10.9103 5.28468 9.80165 4.89201 7.79232C4.73334 6.97965 4.89071 6.209 5.32471 5.679C5.68604 5.23833 6.20197 5.00366 6.8173 5.00033C6.82063 5.00033 6.82399 5.00033 6.82666 5.00033C7.33999 5.00033 7.72602 5.21166 7.99935 5.47766C8.27468 5.20966 8.68935 5.00966 9.18001 5.00033C9.79601 5.00299 10.312 5.23766 10.6733 5.67832C11.1067 6.20766 11.2654 6.97767 11.106 7.79167C10.7134 9.80167 8.30669 10.9097 8.20402 10.9557C8.14069 10.9857 8.07 11.0003 8 11.0003ZM6.82666 6.00033C6.82533 6.00033 6.82466 6.00033 6.82332 6.00033C6.51066 6.00166 6.2673 6.10698 6.09863 6.31232C5.85797 6.60632 5.77402 7.08765 5.87402 7.59965C6.11069 8.81232 7.47402 9.65499 7.99935 9.93966C8.52468 9.65566 9.88801 8.81232 10.1247 7.60032C10.2247 7.08765 10.1407 6.60565 9.89998 6.31232C9.73132 6.10698 9.48798 6.00233 9.17464 6.00033C9.17398 6.00033 9.17264 6.00033 9.17131 6.00033C8.68064 6.00033 8.49069 6.48699 8.47135 6.54299C8.40002 6.74166 8.21002 6.87632 7.99935 6.87632C7.99802 6.87632 7.99598 6.87632 7.99398 6.87632C7.78131 6.87432 7.59199 6.73966 7.52466 6.53766C7.50799 6.48699 7.31866 6.00033 6.82666 6.00033ZM10.6167 7.69566H10.6234H10.6167Z" fill="#3B3B3E"/>
</svg>
