<svg width="16" height="16" viewBox="0 0 16 16" fill="none" xmlns="http://www.w3.org/2000/svg">
<path d="M14.0601 10.4507C13.7321 10.0493 13.262 9.836 12.7007 9.83333C12.6974 9.83333 12.6947 9.83333 12.6921 9.83333C12.2514 9.83333 11.9127 10.004 11.6667 10.2253C11.4207 10.0033 11.0819 9.83333 10.6413 9.83333C10.6386 9.83333 10.6353 9.83333 10.6327 9.83333C10.0727 9.836 9.60259 10.0493 9.27393 10.4507C8.88593 10.9253 8.74405 11.6113 8.88672 12.3327C9.23672 14.108 11.3721 15.082 11.4621 15.1227C11.5274 15.152 11.5967 15.166 11.6667 15.166C11.7367 15.166 11.8059 15.1513 11.8713 15.1227C11.9619 15.082 14.0966 14.1087 14.446 12.3327C14.5886 11.6113 14.4481 10.9253 14.0601 10.4507ZM13.4653 12.1393C13.2673 13.142 12.1367 13.8507 11.6667 14.106C11.1967 13.8507 10.066 13.142 9.868 12.14C9.78467 11.7187 9.85267 11.324 10.0487 11.0847C10.186 10.9173 10.3787 10.8347 10.6387 10.834C10.6393 10.834 10.6399 10.834 10.6413 10.834C11.0273 10.834 11.18 11.218 11.194 11.256C11.262 11.4567 11.4499 11.5893 11.6619 11.5927C11.6639 11.5927 11.666 11.5927 11.6686 11.5927C11.8773 11.5927 12.0667 11.4587 12.1387 11.262C12.1547 11.218 12.3074 10.834 12.6934 10.834C12.6947 10.834 12.6953 10.834 12.696 10.834C12.9566 10.8353 13.15 10.9173 13.2866 11.0847C13.4813 11.3233 13.548 11.718 13.4653 12.1393ZM7.33333 13.5H4C2.94867 13.5 2.5 13.0513 2.5 12V4C2.5 2.94867 2.94867 2.5 4 2.5H7.5V4C7.5 5.612 8.388 6.5 10 6.5H11.5V8C11.5 8.276 11.724 8.5 12 8.5C12.276 8.5 12.5 8.276 12.5 8V6C12.5 5.86733 12.4474 5.74 12.3534 5.64667L8.35335 1.64667C8.25935 1.55267 8.13267 1.5 8 1.5H4C2.388 1.5 1.5 2.388 1.5 4V12C1.5 13.612 2.388 14.5 4 14.5H7.33333C7.60933 14.5 7.83333 14.276 7.83333 14C7.83333 13.724 7.60933 13.5 7.33333 13.5ZM8.5 4V3.20734L10.7926 5.5H10C8.94867 5.5 8.5 5.05133 8.5 4ZM9.33333 7.5C9.60933 7.5 9.83333 7.724 9.83333 8C9.83333 8.276 9.60933 8.5 9.33333 8.5H4.66667C4.39067 8.5 4.16667 8.276 4.16667 8C4.16667 7.724 4.39067 7.5 4.66667 7.5H9.33333ZM7.83333 10.6667C7.83333 10.9427 7.60933 11.1667 7.33333 11.1667H4.66667C4.39067 11.1667 4.16667 10.9427 4.16667 10.6667C4.16667 10.3907 4.39067 10.1667 4.66667 10.1667H7.33333C7.60933 10.1667 7.83333 10.3907 7.83333 10.6667Z" fill="#3B3B3E"/>
</svg>
