<svg width="16" height="16" viewBox="0 0 16 16" fill="none" xmlns="http://www.w3.org/2000/svg">
<path d="M12 13.8337H4C2.388 13.8337 1.5 12.9457 1.5 11.3337V4.66699C1.5 3.05499 2.388 2.16699 4 2.16699H6.66667C6.79933 2.16699 6.92669 2.21966 7.02002 2.31366L8.87337 4.16699H12C13.612 4.16699 14.5 5.05499 14.5 6.66699V11.3337C14.5 12.9457 13.612 13.8337 12 13.8337ZM4 3.16699C2.94867 3.16699 2.5 3.61566 2.5 4.66699V11.3337C2.5 12.385 2.94867 12.8337 4 12.8337H12C13.0513 12.8337 13.5 12.385 13.5 11.3337V6.66699C13.5 5.61566 13.0513 5.16699 12 5.16699H8.66667C8.534 5.16699 8.40665 5.11432 8.31331 5.02032L6.45996 3.16699H4ZM7.79801 10.465L10.02 8.243C10.2154 8.04767 10.2154 7.731 10.02 7.53567C9.82469 7.34033 9.508 7.34033 9.31266 7.53567L7.44401 9.40432L6.68604 8.64699C6.4907 8.45166 6.17401 8.45166 5.97868 8.64699C5.78335 8.84233 5.78335 9.159 5.97868 9.35433L7.09001 10.4657C7.18401 10.5597 7.31069 10.6123 7.44336 10.6123C7.57603 10.6123 7.70468 10.559 7.79801 10.465Z" fill="#3B3B3E"/>
</svg>
