<svg width="16" height="16" viewBox="0 0 16 16" fill="none" xmlns="http://www.w3.org/2000/svg">
<path d="M11.6865 8.35321L9.01987 11.0199C8.92254 11.1172 8.79452 11.1665 8.66652 11.1665C8.53852 11.1665 8.4105 11.1179 8.31317 11.0199C8.11783 10.8245 8.11783 10.5078 8.31317 10.3125L10.6265 7.9992L8.31317 5.68589C8.11783 5.49055 8.11783 5.17386 8.31317 4.97853C8.5085 4.7832 8.82519 4.7832 9.02052 4.97853L11.6872 7.6452C11.8819 7.84186 11.8819 8.15787 11.6865 8.35321ZM5.01987 4.97983C4.82454 4.7845 4.50785 4.7845 4.31252 4.97983C4.11718 5.17517 4.11718 5.49186 4.31252 5.68719L6.62583 8.0005L4.31252 10.3138C4.11718 10.5092 4.11718 10.8258 4.31252 11.0212C4.40985 11.1185 4.53787 11.1678 4.66587 11.1678C4.79387 11.1678 4.92189 11.1192 5.01922 11.0212L7.68589 8.35451C7.88122 8.15917 7.88122 7.84248 7.68589 7.64715L5.01987 4.97983Z" fill="#3B3B3E"/>
</svg>
