<svg width="16" height="16" viewBox="0 0 16 16" fill="none" xmlns="http://www.w3.org/2000/svg">
<path d="M11.9999 9.5C11.0946 9.5 10.3072 9.98866 9.86857 10.712L6.31453 8.93534C6.43187 8.64601 6.49992 8.33133 6.49992 8C6.49992 7.66867 6.43187 7.35399 6.31453 7.06466L9.86857 5.288C10.3072 6.01067 11.0946 6.5 11.9999 6.5C13.3779 6.5 14.4999 5.37867 14.4999 4C14.4999 2.62133 13.3779 1.5 11.9999 1.5C10.6219 1.5 9.49992 2.62133 9.49992 4C9.49992 4.11533 9.5186 4.22601 9.53394 4.33734L5.75724 6.22534C5.30524 5.77734 4.6846 5.5 3.99927 5.5C2.62127 5.5 1.49927 6.62133 1.49927 8C1.49927 9.37867 2.62127 10.5 3.99927 10.5C4.68393 10.5 5.30524 10.222 5.75724 9.77466L9.53394 11.6627C9.5186 11.774 9.49992 11.8847 9.49992 12C9.49992 13.3787 10.6219 14.5 11.9999 14.5C13.3779 14.5 14.4999 13.3787 14.4999 12C14.4999 10.6213 13.3779 9.5 11.9999 9.5ZM11.9999 2.5C12.8266 2.5 13.4999 3.17267 13.4999 4C13.4999 4.82733 12.8266 5.5 11.9999 5.5C11.1733 5.5 10.4999 4.82733 10.4999 4C10.4999 3.17267 11.1733 2.5 11.9999 2.5ZM3.99992 9.5C3.17325 9.5 2.49992 8.82733 2.49992 8C2.49992 7.17267 3.17325 6.5 3.99992 6.5C4.82659 6.5 5.49992 7.17267 5.49992 8C5.49992 8.82733 4.82659 9.5 3.99992 9.5ZM11.9999 13.5C11.1733 13.5 10.4999 12.8273 10.4999 12C10.4999 11.1727 11.1733 10.5 11.9999 10.5C12.8266 10.5 13.4999 11.1727 13.4999 12C13.4999 12.8273 12.8266 13.5 11.9999 13.5Z" fill="#3B3B3E"/>
</svg>
