<svg width="16" height="16" viewBox="0 0 16 16" fill="none" xmlns="http://www.w3.org/2000/svg">
<path d="M11.5002 7.00098V8.49967C11.5002 8.77567 11.2762 8.99967 11.0002 8.99967H9.50016C9.22416 8.99967 9.00016 8.77567 9.00016 8.49967C9.00016 8.22367 9.22416 7.99967 9.50016 7.99967H9.97884C9.50684 7.38234 8.76412 6.99967 7.96012 6.99967C6.77546 6.99967 5.75815 7.80107 5.48682 8.9484C5.43282 9.1784 5.22748 9.33301 5.00081 9.33301C4.96215 9.33301 4.9241 9.32899 4.88477 9.31966C4.6161 9.25566 4.45018 8.98628 4.51351 8.71761C4.89151 7.11761 6.30881 5.99967 7.95947 5.99967C8.93747 5.99967 9.8455 6.41093 10.5002 7.08626V7.00098C10.5002 6.72498 10.7242 6.50098 11.0002 6.50098C11.2762 6.50098 11.5002 6.72498 11.5002 7.00098ZM15.1668 7.99967C15.1668 11.9517 11.9522 15.1663 8.00016 15.1663C4.04816 15.1663 0.833496 11.9517 0.833496 7.99967C0.833496 4.04767 4.04816 0.833008 8.00016 0.833008C11.9522 0.833008 15.1668 4.04767 15.1668 7.99967ZM14.1668 7.99967C14.1668 4.59901 11.4008 1.83301 8.00016 1.83301C4.5995 1.83301 1.8335 4.59901 1.8335 7.99967C1.8335 11.4003 4.5995 14.1663 8.00016 14.1663C11.4008 14.1663 14.1668 11.4003 14.1668 7.99967Z" fill="#3B3B3E"/>
</svg>
