<svg width="16" height="16" viewBox="0 0 16 16" fill="none" xmlns="http://www.w3.org/2000/svg">
<path d="M12 2.83301H4C2.38667 2.83301 1.5 3.71967 1.5 5.33301V10.6663C1.5 12.2797 2.38667 13.1663 4 13.1663H12C13.6133 13.1663 14.5 12.2797 14.5 10.6663V5.33301C14.5 3.71967 13.6133 2.83301 12 2.83301ZM13.5 9.49967H12.6667C12.5733 9.49967 12.5 9.42634 12.5 9.33301V6.66634C12.5 6.57301 12.5733 6.49967 12.6667 6.49967H13.5V9.49967ZM8 9.16634C7.36 9.16634 6.83333 8.63967 6.83333 7.99967C6.83333 7.35967 7.36 6.83301 8 6.83301C8.64 6.83301 9.16667 7.35967 9.16667 7.99967C9.16667 8.63967 8.64 9.16634 8 9.16634ZM2.5 6.49967H3.33333C3.42667 6.49967 3.5 6.57301 3.5 6.66634V9.33301C3.5 9.42634 3.42667 9.49967 3.33333 9.49967H2.5V6.49967ZM2.5 10.6663V10.4997H3.33333C3.97333 10.4997 4.5 9.97301 4.5 9.33301V6.66634C4.5 6.02634 3.97333 5.49967 3.33333 5.49967H2.5V5.33301C2.5 4.27967 2.94667 3.83301 4 3.83301H7.5V5.89968C6.54667 6.12635 5.83333 6.97967 5.83333 7.99967C5.83333 9.01967 6.54667 9.873 7.5 10.0997V12.1663H4C2.94667 12.1663 2.5 11.7197 2.5 10.6663ZM12 12.1663H8.5V10.0997C9.45333 9.873 10.1667 9.01967 10.1667 7.99967C10.1667 6.97967 9.45333 6.12635 8.5 5.89968V3.83301H12C13.0533 3.83301 13.5 4.27967 13.5 5.33301V5.49967H12.6667C12.0267 5.49967 11.5 6.02634 11.5 6.66634V9.33301C11.5 9.97301 12.0267 10.4997 12.6667 10.4997H13.5V10.6663C13.5 11.7197 13.0533 12.1663 12 12.1663Z" fill="#3B3B3E"/>
</svg>
