<svg width="16" height="16" viewBox="0 0 16 16" fill="none" xmlns="http://www.w3.org/2000/svg">
<path d="M12 4.83333H8C7.724 4.83333 7.5 5.05733 7.5 5.33333V9.5H2.5V4C2.5 3.724 2.276 3.5 2 3.5C1.724 3.5 1.5 3.724 1.5 4V12C1.5 12.276 1.724 12.5 2 12.5C2.276 12.5 2.5 12.276 2.5 12V10.5H13.5V12C13.5 12.276 13.724 12.5 14 12.5C14.276 12.5 14.5 12.276 14.5 12V7.33333C14.5 5.72133 13.612 4.83333 12 4.83333ZM8.5 9.5V5.83333H12C13.0513 5.83333 13.5 6.282 13.5 7.33333V9.5H8.5ZM5 8.5C6.01133 8.5 6.83333 7.67733 6.83333 6.66667C6.83333 5.656 6.01133 4.83333 5 4.83333C3.98867 4.83333 3.16667 5.656 3.16667 6.66667C3.16667 7.67733 3.98867 8.5 5 8.5ZM5 5.83333C5.45933 5.83333 5.83333 6.20733 5.83333 6.66667C5.83333 7.126 5.45933 7.5 5 7.5C4.54067 7.5 4.16667 7.126 4.16667 6.66667C4.16667 6.20733 4.54067 5.83333 5 5.83333Z" fill="#3B3B3E"/>
</svg>
