<svg width="16" height="16" viewBox="0 0 16 16" fill="none" xmlns="http://www.w3.org/2000/svg">
<path d="M8.00016 0.833008C4.04816 0.833008 0.833496 4.04767 0.833496 7.99967C0.833496 11.9517 4.04816 15.1663 8.00016 15.1663C11.9522 15.1663 15.1668 11.9517 15.1668 7.99967C15.1668 4.04767 11.9522 0.833008 8.00016 0.833008ZM8.00016 14.1663C4.5995 14.1663 1.8335 11.4003 1.8335 7.99967C1.8335 4.59901 4.5995 1.83301 8.00016 1.83301C11.4008 1.83301 14.1668 4.59901 14.1668 7.99967C14.1668 11.4003 11.4008 14.1663 8.00016 14.1663ZM8.66683 4.83301H6.66683C6.39083 4.83301 6.16683 5.05701 6.16683 5.33301V10.6663C6.16683 10.9423 6.39083 11.1663 6.66683 11.1663C6.94283 11.1663 7.16683 10.9423 7.16683 10.6663V8.49967H8.66683C9.67816 8.49967 10.5002 7.67767 10.5002 6.66634C10.5002 5.65501 9.67816 4.83301 8.66683 4.83301ZM8.66683 7.49967H7.16683V5.83301H8.66683C9.12616 5.83301 9.50016 6.20701 9.50016 6.66634C9.50016 7.12567 9.12616 7.49967 8.66683 7.49967Z" fill="#3B3B3E"/>
</svg>
