<svg width="16" height="16" viewBox="0 0 16 16" fill="none" xmlns="http://www.w3.org/2000/svg">
<path d="M12.6666 12.5H3.33325C1.72125 12.5 0.833252 11.612 0.833252 10V6C0.833252 4.388 1.72125 3.5 3.33325 3.5H12.6666C14.2786 3.5 15.1666 4.388 15.1666 6V10C15.1666 11.612 14.2786 12.5 12.6666 12.5ZM3.33325 4.5C2.28192 4.5 1.83325 4.94867 1.83325 6V10C1.83325 11.0513 2.28192 11.5 3.33325 11.5H12.6666C13.7179 11.5 14.1666 11.0513 14.1666 10V6C14.1666 4.94867 13.7179 4.5 12.6666 4.5H3.33325ZM11.6666 10.5H9.66658C8.72725 10.5 8.16658 9.93933 8.16658 9V7C8.16658 6.06067 8.72725 5.5 9.66658 5.5H11.6666C12.6059 5.5 13.1666 6.06067 13.1666 7V9C13.1666 9.93933 12.6059 10.5 11.6666 10.5ZM9.66658 6.5C9.27392 6.5 9.16658 6.60733 9.16658 7V9C9.16658 9.39267 9.27392 9.5 9.66658 9.5H11.6666C12.0593 9.5 12.1666 9.39267 12.1666 9V7C12.1666 6.60733 12.0593 6.5 11.6666 6.5H9.66658Z" fill="#3B3B3E"/>
</svg>
