<svg width="16" height="16" viewBox="0 0 16 16" fill="none" xmlns="http://www.w3.org/2000/svg">
<path d="M14.3534 2.35286L2.3534 14.3529C2.25607 14.4502 2.12805 14.4995 2.00005 14.4995C1.87205 14.4995 1.74403 14.4509 1.6467 14.3529C1.45137 14.1575 1.45137 13.8409 1.6467 13.6455L7.42079 7.87154C6.27812 7.98887 5.19605 8.44753 4.32671 9.19753C4.23205 9.27886 4.11605 9.31886 4.00005 9.31886C3.86005 9.31886 3.72079 9.26019 3.62212 9.14552C3.44146 8.93686 3.46472 8.62087 3.67339 8.4402C4.87006 7.40753 6.40672 6.83886 8.00005 6.83886C8.14672 6.83886 8.28805 6.85219 8.43072 6.86153L9.90598 5.38619C9.27998 5.24285 8.64205 5.16552 8.00005 5.16552C5.90605 5.16552 3.89405 5.93485 2.33338 7.33152C2.23805 7.41685 2.11938 7.45886 2.00005 7.45886C1.86272 7.45886 1.726 7.40286 1.62733 7.29219C1.44333 7.08619 1.46072 6.7702 1.66672 6.5862C3.41072 5.02486 5.66005 4.16552 8.00005 4.16552C8.92272 4.16552 9.83539 4.30619 10.7221 4.57019L13.6467 1.64552C13.842 1.45019 14.1587 1.45019 14.3541 1.64552C14.5487 1.84086 14.5487 2.15819 14.3534 2.35286ZM8.00005 11.9995C7.63205 11.9995 7.33339 12.2982 7.33339 12.6662C7.33339 13.0342 7.63205 13.3329 8.00005 13.3329C8.36805 13.3329 8.66672 13.0342 8.66672 12.6662C8.66672 12.2982 8.36805 11.9995 8.00005 11.9995ZM8.68869 9.57419C8.41669 9.52553 8.15746 9.70619 8.10812 9.97819C8.05946 10.2502 8.24011 10.5102 8.51144 10.5589C8.94611 10.6369 9.35536 10.8155 9.69536 11.0769C9.78603 11.1462 9.89275 11.1802 9.99875 11.1802C10.1494 11.1802 10.2974 11.1129 10.396 10.9849C10.5647 10.7655 10.5228 10.4515 10.3034 10.2835C9.8381 9.92552 9.27936 9.68019 8.68869 9.57419ZM10.9187 7.51619C10.6673 7.39486 10.3714 7.49953 10.2501 7.74753C10.1294 7.9962 10.2333 8.29486 10.4813 8.41552C10.9167 8.62686 11.3174 8.89019 11.6734 9.19753C11.7681 9.27953 11.8841 9.31954 12.0001 9.31954C12.1401 9.31954 12.2793 9.26086 12.378 9.1462C12.5586 8.93753 12.5354 8.62152 12.3267 8.44085C11.9054 8.07685 11.4313 7.76552 10.9187 7.51619ZM12.938 5.5582C12.7014 5.41554 12.3947 5.49153 12.252 5.72753C12.1087 5.96353 12.1848 6.27153 12.4214 6.4142C12.8568 6.6782 13.2767 6.98754 13.6687 7.3342C13.764 7.4182 13.8821 7.45953 14.0001 7.45953C14.1381 7.45953 14.2754 7.40287 14.3747 7.29087C14.5574 7.0842 14.5388 6.76819 14.3321 6.58485C13.8948 6.19885 13.426 5.85354 12.938 5.5582Z" fill="#3B3B3E"/>
</svg>
