<svg width="16" height="16" viewBox="0 0 16 16" fill="none" xmlns="http://www.w3.org/2000/svg">
<path d="M7.33931 7.16667C8.90198 7.16667 10.1726 5.89533 10.1726 4.33333C10.1726 2.77133 8.90198 1.5 7.33931 1.5C5.77665 1.5 4.50598 2.77133 4.50598 4.33333C4.50598 5.89533 5.77665 7.16667 7.33931 7.16667ZM7.33931 2.5C8.35065 2.5 9.17265 3.322 9.17265 4.33333C9.17265 5.34467 8.35065 6.16667 7.33931 6.16667C6.32798 6.16667 5.50598 5.34467 5.50598 4.33333C5.50598 3.322 6.32798 2.5 7.33931 2.5ZM3.16663 12.0133C3.16663 13.0553 3.61529 13.5 4.66663 13.5H9.33329C9.60929 13.5 9.83329 13.724 9.83329 14C9.83329 14.276 9.60929 14.5 9.33329 14.5H4.66663C3.05463 14.5 2.16663 13.6167 2.16663 12.0133C2.16663 10.2387 3.17063 8.16667 5.99996 8.16667H8.66663C10.4766 8.16667 11.4026 9.01665 11.8606 9.72998C12.01 9.96198 11.9426 10.2713 11.7099 10.4207C11.4773 10.57 11.1687 10.5027 11.0193 10.27C10.5487 9.53802 9.75663 9.16667 8.66663 9.16667H5.99996C3.37129 9.16667 3.16663 11.346 3.16663 12.0133ZM13.6866 13.6466C13.882 13.842 13.882 14.1587 13.6866 14.354C13.5893 14.4513 13.4613 14.5007 13.3333 14.5007C13.2053 14.5007 13.0773 14.452 12.9799 14.354L12.3333 13.7074L11.6866 14.354C11.5893 14.4513 11.4613 14.5007 11.3333 14.5007C11.2053 14.5007 11.0773 14.452 10.9799 14.354C10.7846 14.1587 10.7846 13.842 10.9799 13.6466L11.6266 13L10.9799 12.3534C10.7846 12.158 10.7846 11.8413 10.9799 11.646C11.1753 11.4507 11.492 11.4507 11.6873 11.646L12.3339 12.2926L12.9806 11.646C13.1759 11.4507 13.4926 11.4507 13.6879 11.646C13.8833 11.8413 13.8833 12.158 13.6879 12.3534L13.0413 13L13.6866 13.6466Z" fill="#3B3B3E"/>
</svg>
