<svg width="16" height="16" viewBox="0 0 16 16" fill="none" xmlns="http://www.w3.org/2000/svg">
<path d="M2.0006 7.90332C1.9826 7.90332 1.96397 7.90263 1.94531 7.90063C1.67064 7.87063 1.47264 7.62337 1.50264 7.34937C1.74464 5.13803 3.07929 3.23331 5.07263 2.25464C5.22796 2.17864 5.41129 2.18796 5.55729 2.2793C5.70395 2.37063 5.79329 2.53135 5.79329 2.70402V4.7373C5.79329 5.0133 5.56929 5.2373 5.29329 5.2373C5.01729 5.2373 4.79329 5.0133 4.79329 4.7373V3.57666C3.51129 4.46866 2.6706 5.86934 2.49727 7.45801C2.46927 7.71401 2.25194 7.90332 2.0006 7.90332ZM14.0546 8.17334C13.7793 8.14401 13.5333 8.3413 13.5033 8.61597C13.33 10.2046 12.4893 11.6053 11.2073 12.498V11.3373C11.2073 11.0613 10.9833 10.8373 10.7073 10.8373C10.4313 10.8373 10.2073 11.0613 10.2073 11.3373V13.3707C10.2073 13.5434 10.2966 13.704 10.4433 13.7953C10.5239 13.8453 10.6153 13.8707 10.7073 13.8707C10.7826 13.8707 10.858 13.854 10.928 13.8193C12.922 12.8407 14.2566 10.936 14.498 8.72469C14.5273 8.45002 14.3286 8.20334 14.0546 8.17334ZM6.83329 5.66667V3C6.83329 2.06067 7.39395 1.5 8.33329 1.5H12.3333C13.2726 1.5 13.8333 2.06067 13.8333 3V5.66667C13.8333 6.606 13.2726 7.16667 12.3333 7.16667H8.33329C7.39395 7.16667 6.83329 6.606 6.83329 5.66667ZM12.8333 5.66667V4.16667H7.83329V5.66667C7.83329 6.05933 7.94062 6.16667 8.33329 6.16667H12.3333C12.726 6.16667 12.8333 6.05933 12.8333 5.66667ZM7.83329 3V3.16667H12.8333V3C12.8333 2.60733 12.726 2.5 12.3333 2.5H8.33329C7.94062 2.5 7.83329 2.60733 7.83329 3ZM9.66662 4.83333H8.66662C8.39062 4.83333 8.16662 5.05733 8.16662 5.33333C8.16662 5.60933 8.39062 5.83333 8.66662 5.83333H9.66662C9.94262 5.83333 10.1666 5.60933 10.1666 5.33333C10.1666 5.05733 9.94262 4.83333 9.66662 4.83333ZM9.16662 10.3333V13C9.16662 13.9393 8.60595 14.5 7.66662 14.5H3.66662C2.72729 14.5 2.16662 13.9393 2.16662 13V10.3333C2.16662 9.394 2.72729 8.83333 3.66662 8.83333H7.66662C8.60595 8.83333 9.16662 9.394 9.16662 10.3333ZM3.16662 10.3333V10.5H8.16662V10.3333C8.16662 9.94067 8.05929 9.83333 7.66662 9.83333H3.66662C3.27395 9.83333 3.16662 9.94067 3.16662 10.3333ZM8.16662 13V11.5H3.16662V13C3.16662 13.3927 3.27395 13.5 3.66662 13.5H7.66662C8.05929 13.5 8.16662 13.3927 8.16662 13ZM4.99995 12.1667H3.99995C3.72395 12.1667 3.49995 12.3907 3.49995 12.6667C3.49995 12.9427 3.72395 13.1667 3.99995 13.1667H4.99995C5.27595 13.1667 5.49995 12.9427 5.49995 12.6667C5.49995 12.3907 5.27595 12.1667 4.99995 12.1667Z" fill="#3B3B3E"/>
</svg>
