<svg width="16" height="16" viewBox="0 0 16 16" fill="none" xmlns="http://www.w3.org/2000/svg">
<path d="M14.5 6.46368C14.5 5.77234 14.1373 5.16163 13.5306 4.83029L9.21598 2.47629C8.45532 2.06162 7.54668 2.06096 6.78402 2.47629L2.4694 4.83029C1.86273 5.16163 1.5 5.77234 1.5 6.46368C1.5 7.15501 1.86273 7.76564 2.4694 8.09698L3.5 8.65899V11.1323C3.5 11.7696 3.82669 12.355 4.37402 12.6997C5.57736 13.4563 6.78867 13.835 8 13.835C9.21133 13.835 10.4233 13.457 11.626 12.6997C12.1726 12.3557 12.5 11.7696 12.5 11.1323V8.65899L13.5 8.11366V10.6663C13.5 10.9423 13.724 11.1663 14 11.1663C14.276 11.1663 14.5 10.9423 14.5 10.6663V6.66631C14.5 6.63831 14.488 6.61298 14.484 6.58632C14.4867 6.54432 14.5 6.50634 14.5 6.46368ZM11.5 11.1323C11.5 11.419 11.3447 11.6957 11.0941 11.853C9.01274 13.1617 6.98941 13.1623 4.90674 11.853C4.65607 11.6957 4.50065 11.419 4.50065 11.1323V9.20432L6.78467 10.4503C7.16533 10.6583 7.58265 10.7623 8.00065 10.7623C8.41865 10.7623 8.83597 10.6583 9.21663 10.4503L11.5007 9.20432V11.1323H11.5ZM13.0513 7.21962L8.73665 9.57362C8.27599 9.82562 7.72336 9.82562 7.2627 9.57362L2.94808 7.21962C2.66675 7.06628 2.49935 6.78433 2.49935 6.46433C2.49935 6.14433 2.66675 5.86229 2.94808 5.70896L7.2627 3.35495C7.49336 3.22962 7.74668 3.16631 7.99935 3.16631C8.25202 3.16631 8.506 3.22962 8.736 3.35495L13.0506 5.70896C13.332 5.86229 13.4993 6.14433 13.4993 6.46433C13.4993 6.78433 13.3326 7.06628 13.0513 7.21962Z" fill="#3B3B3E"/>
</svg>
