<svg width="16" height="16" viewBox="0 0 16 16" fill="none" xmlns="http://www.w3.org/2000/svg">
<path d="M11.75 14.5H4.25C2.47667 14.5 1.5 13.5233 1.5 11.75V4.25C1.5 2.47667 2.47667 1.5 4.25 1.5H11.75C13.5233 1.5 14.5 2.47667 14.5 4.25V11.75C14.5 13.5233 13.5233 14.5 11.75 14.5ZM4.25 2.5C3.02333 2.5 2.5 3.02333 2.5 4.25V11.75C2.5 12.9767 3.02333 13.5 4.25 13.5H11.75C12.9767 13.5 13.5 12.9767 13.5 11.75V4.25C13.5 3.02333 12.9767 2.5 11.75 2.5H4.25ZM8.5 11V7.95264C8.5 7.67664 8.276 7.45264 8 7.45264C7.724 7.45264 7.5 7.67664 7.5 7.95264V11C7.5 11.276 7.724 11.5 8 11.5C8.276 11.5 8.5 11.276 8.5 11ZM8.68001 5.66667C8.68001 5.29867 8.38201 5 8.01335 5H8.00667C7.63867 5 7.34326 5.29867 7.34326 5.66667C7.34326 6.03467 7.64535 6.33333 8.01335 6.33333C8.38135 6.33333 8.68001 6.03467 8.68001 5.66667Z" fill="#3B3B3E"/>
</svg>
