<svg width="16" height="16" viewBox="0 0 16 16" fill="none" xmlns="http://www.w3.org/2000/svg">
<path d="M14.3181 6.05619L9.37667 1.99223C8.57867 1.33756 7.42207 1.33689 6.62407 1.99223L1.68274 6.05554C1.47008 6.23087 1.43872 6.54556 1.61406 6.75956C1.78939 6.97356 2.10474 7.00291 2.31808 6.82825L2.83338 6.40425V11.9995C2.83338 13.6115 3.72138 14.4996 5.33338 14.4996H10.6667C12.2787 14.4996 13.1667 13.6115 13.1667 11.9995V6.40425L13.682 6.82825C13.7753 6.90491 13.888 6.94218 14 6.94218C14.144 6.94218 14.2874 6.88021 14.386 6.76021C14.562 6.54621 14.5307 6.23152 14.3181 6.05619ZM12.1667 11.9995C12.1667 13.0509 11.718 13.4996 10.6667 13.4996H5.33338C4.28204 13.4996 3.83338 13.0509 3.83338 11.9995V5.58223L7.2594 2.76558C7.68807 2.41292 8.31275 2.41292 8.74142 2.76558L12.1674 5.58288V11.9995H12.1667ZM8.00004 5.83288C7.67938 5.83288 7.39139 6.01091 7.24939 6.29691L6.68136 7.43892L5.36471 7.62886C5.05404 7.67353 4.80202 7.88695 4.70602 8.18428C4.60935 8.48095 4.69002 8.80028 4.91402 9.01762L5.86341 9.93559L5.64734 11.1862C5.59268 11.5009 5.7194 11.8135 5.97807 12.0028C6.2374 12.1921 6.57539 12.2182 6.86072 12.0695L7.99939 11.4763L9.13872 12.0702C9.26205 12.1342 9.39472 12.1662 9.52739 12.1662C9.70139 12.1662 9.87405 12.1116 10.0207 12.0043C10.2794 11.8156 10.406 11.5035 10.352 11.1875L10.1354 9.93559L11.0847 9.01762C11.3093 8.80028 11.3894 8.48095 11.2927 8.18428C11.196 7.88628 10.9447 7.67353 10.6341 7.62886L9.31734 7.43892L8.74939 6.29756C8.60873 6.0109 8.32071 5.83288 8.00004 5.83288ZM9.08004 8.41491L10.116 8.56417L9.37073 9.28552C9.17673 9.47285 9.08808 9.74284 9.13408 10.0082L9.3114 11.0323L8.38001 10.5463C8.26067 10.4836 8.13069 10.4528 8.00069 10.4528C7.87136 10.4528 7.7414 10.4836 7.62407 10.5456L6.69137 11.0316L6.8687 10.0075C6.91403 9.74219 6.82603 9.47219 6.63269 9.28552L5.88668 8.56417L6.92135 8.41491C7.18602 8.37691 7.41608 8.21157 7.53675 7.9709L8.00273 7.03292L8.46936 7.97156C8.5867 8.21156 8.81671 8.37758 9.08004 8.41491Z" fill="#3B3B3E"/>
</svg>
