<svg width="16" height="16" viewBox="0 0 16 16" fill="none" xmlns="http://www.w3.org/2000/svg">
<path d="M11.75 14.5H4.25C2.47667 14.5 1.5 13.5233 1.5 11.75V4.25C1.5 2.47667 2.47667 1.5 4.25 1.5H11.75C13.5233 1.5 14.5 2.47667 14.5 4.25V11.75C14.5 13.5233 13.5233 14.5 11.75 14.5ZM4.25 2.5C3.02333 2.5 2.5 3.02333 2.5 4.25V11.75C2.5 12.9767 3.02333 13.5 4.25 13.5H11.75C12.9767 13.5 13.5 12.9767 13.5 11.75V4.25C13.5 3.02333 12.9767 2.5 11.75 2.5H4.25ZM11.1667 6.33333C11.1667 6.05733 10.9427 5.83333 10.6667 5.83333H5.33333C5.05733 5.83333 4.83333 6.05733 4.83333 6.33333C4.83333 6.60933 5.05733 6.83333 5.33333 6.83333H10.6667C10.9427 6.83333 11.1667 6.60933 11.1667 6.33333ZM9.16667 9.66667C9.16667 9.39067 8.94267 9.16667 8.66667 9.16667H5.33333C5.05733 9.16667 4.83333 9.39067 4.83333 9.66667C4.83333 9.94267 5.05733 10.1667 5.33333 10.1667H8.66667C8.94267 10.1667 9.16667 9.94267 9.16667 9.66667Z" fill="#3B3B3E"/>
</svg>
