<svg width="16" height="16" viewBox="0 0 16 16" fill="none" xmlns="http://www.w3.org/2000/svg">
<path d="M11.5002 7.99967V8.99967C11.5002 9.82701 10.8268 10.4997 10.0002 10.4997H6.20752L6.35417 10.6463C6.5495 10.8417 6.5495 11.1583 6.35417 11.3537C6.25683 11.451 6.12881 11.5003 6.00081 11.5003C5.87281 11.5003 5.74479 11.4517 5.64746 11.3537L4.64746 10.3537C4.60146 10.3077 4.56488 10.2524 4.53955 10.1911C4.48888 10.0691 4.48888 9.93108 4.53955 9.80908C4.56488 9.74775 4.60146 9.69232 4.64746 9.64632L5.64746 8.64632C5.84279 8.45099 6.15948 8.45099 6.35482 8.64632C6.55015 8.84165 6.55015 9.15834 6.35482 9.35368L6.20817 9.50033H10.0002C10.2755 9.50033 10.5002 9.27633 10.5002 9.00033V8.00033C10.5002 7.72433 10.7242 7.50033 11.0002 7.50033C11.2762 7.50033 11.5002 7.72367 11.5002 7.99967ZM11.3535 5.64632L10.3535 4.64632C10.1582 4.45099 9.84149 4.45099 9.64616 4.64632C9.45082 4.84165 9.45082 5.15834 9.64616 5.35368L9.79281 5.50033H6.00016C5.1735 5.50033 4.50016 6.17299 4.50016 7.00033V8.00033C4.50016 8.27633 4.72416 8.50033 5.00016 8.50033C5.27616 8.50033 5.50016 8.27633 5.50016 8.00033V7.00033C5.50016 6.72433 5.72483 6.50033 6.00016 6.50033H9.79281L9.64616 6.64697C9.45082 6.84231 9.45082 7.159 9.64616 7.35433C9.74349 7.45166 9.87151 7.50098 9.99951 7.50098C10.1275 7.50098 10.2555 7.45233 10.3529 7.35433L11.3529 6.35433C11.3989 6.30833 11.4354 6.25306 11.4608 6.19173C11.5114 6.06973 11.5114 5.93173 11.4608 5.80973C11.4361 5.74773 11.3995 5.69232 11.3535 5.64632ZM15.1668 7.99967C15.1668 11.9517 11.9522 15.1663 8.00016 15.1663C4.04816 15.1663 0.833496 11.9517 0.833496 7.99967C0.833496 4.04767 4.04816 0.833008 8.00016 0.833008C11.9522 0.833008 15.1668 4.04767 15.1668 7.99967ZM14.1668 7.99967C14.1668 4.59901 11.4008 1.83301 8.00016 1.83301C4.5995 1.83301 1.8335 4.59901 1.8335 7.99967C1.8335 11.4003 4.5995 14.1663 8.00016 14.1663C11.4008 14.1663 14.1668 11.4003 14.1668 7.99967Z" fill="#3B3B3E"/>
</svg>
