<svg width="16" height="16" viewBox="0 0 16 16" fill="none" xmlns="http://www.w3.org/2000/svg">
<path d="M9.17334 6.66715C9.17334 6.20715 9.54 5.83382 10.0067 5.83382C10.4667 5.83382 10.84 6.20715 10.84 6.66715C10.84 7.12715 10.4667 7.50049 10.0067 7.50049C9.54667 7.50049 9.17334 7.12715 9.17334 6.66715ZM6.84 6.66715C6.84 6.20715 6.46667 5.83382 6.00667 5.83382C5.54667 5.83382 5.17334 6.20715 5.17334 6.66715C5.17334 7.12715 5.55334 7.50049 6.00667 7.50049C6.46 7.50049 6.84 7.12715 6.84 6.66715ZM9.78001 10.2072C9.90001 9.96048 9.79334 9.66048 9.54667 9.54048C8.55334 9.06715 7.4 9.08048 6.44 9.55381C6.19333 9.67381 6.09334 9.97382 6.21334 10.2272C6.3 10.4005 6.47999 10.5072 6.65999 10.5072C6.73332 10.5072 6.81334 10.4938 6.88 10.4538C7.56 10.1138 8.39333 10.1071 9.10667 10.4538C9.35333 10.5738 9.65333 10.4671 9.77333 10.2205L9.78001 10.2072ZM15.16 8.00049V8.34049C15.16 9.54049 14.6933 10.6738 13.84 11.5205L11.52 13.8405C10.6667 14.6872 9.54 15.1605 8.34 15.1605H8C6.04666 15.1605 4.22667 14.3871 2.86 12.9938C1.5 11.5938 0.779997 9.74715 0.83333 7.79382C0.939997 4.06049 4.06 0.933819 7.79333 0.833819C9.76 0.780485 11.5933 1.50049 12.9933 2.86049C14.3933 4.22049 15.16 6.04715 15.16 8.00049ZM8.33333 14.1672C8.73333 14.1672 9.11999 14.0872 9.49332 13.9605V12.6672C9.49332 10.9205 10.9133 9.50049 12.66 9.50049H13.9533C14.08 9.13382 14.16 8.74716 14.16 8.34049V8.00049C14.16 6.32049 13.4933 4.75382 12.2933 3.58048C11.1333 2.45382 9.61332 1.83382 7.99332 1.83382C7.93332 1.83382 7.87334 1.83382 7.82 1.83382C4.60667 1.92049 1.92 4.60716 1.83333 7.82049C1.78666 9.50049 2.40666 11.0938 3.57999 12.2938C4.75333 13.5005 6.32 14.1605 8 14.1605H8.34L8.33333 14.1672ZM13.1333 10.8205C13.2333 10.7205 13.3067 10.6072 13.3933 10.5005H12.66C11.4667 10.5005 10.4933 11.4738 10.4933 12.6672V13.4005C10.6 13.3138 10.7133 13.2405 10.8133 13.1405L13.1333 10.8205Z" fill="#3B3B3E"/>
</svg>
