<svg width="16" height="16" viewBox="0 0 16 16" fill="none" xmlns="http://www.w3.org/2000/svg">
<path d="M14.3573 3.68288C14.2593 3.78288 14.1293 3.83286 14 3.83286C13.874 3.83286 13.7474 3.78553 13.6501 3.6902L12.3167 2.38356C12.1201 2.19023 12.1168 1.87354 12.3094 1.6762C12.5034 1.47887 12.8193 1.47555 13.0173 1.66888L14.3506 2.97552C14.5466 3.16885 14.5499 3.48554 14.3573 3.68288ZM3.6867 2.35288C3.88204 2.15755 3.88204 1.84086 3.6867 1.64552C3.49137 1.45019 3.17468 1.45019 2.97935 1.64552L1.64601 2.97886C1.45068 3.17419 1.45068 3.49088 1.64601 3.68621C1.74335 3.78355 1.87136 3.83286 1.99936 3.83286C2.12736 3.83286 2.25538 3.78421 2.35272 3.68621L3.6867 2.35288ZM11.424 12.7123L12.354 13.6468C12.5494 13.8428 12.5481 14.1595 12.3527 14.3542C12.2554 14.4515 12.1273 14.4995 12 14.4995C11.872 14.4995 11.7433 14.4502 11.646 14.3522L10.5414 13.2422C9.77202 13.6169 8.91202 13.8329 8.00002 13.8329C7.08802 13.8329 6.22867 13.6169 5.45867 13.2422L4.35402 14.3522C4.25669 14.4502 4.12802 14.4995 4.00002 14.4995C3.87268 14.4995 3.74465 14.4508 3.64731 14.3542C3.45198 14.1595 3.45068 13.8428 3.64601 13.6468L4.57602 12.7123C3.11936 11.6509 2.16668 9.93619 2.16668 7.99953C2.16668 4.78286 4.78335 2.16619 8.00002 2.16619C11.2167 2.16619 13.8333 4.78286 13.8333 7.99953C13.8333 9.93619 12.8807 11.6509 11.424 12.7123ZM8.00002 12.8329C10.6653 12.8329 12.8333 10.6649 12.8333 7.99953C12.8333 5.33419 10.6653 3.16619 8.00002 3.16619C5.33468 3.16619 3.16668 5.33419 3.16668 7.99953C3.16668 10.6649 5.33468 12.8329 8.00002 12.8329ZM9.31333 6.78354L7.44468 8.6522L6.6867 7.89487C6.49137 7.69954 6.17468 7.69954 5.97935 7.89487C5.78401 8.09021 5.78401 8.4069 5.97935 8.60223L7.09067 9.71356C7.18801 9.81089 7.31603 9.8602 7.44403 9.8602C7.57203 9.8602 7.70005 9.81156 7.79738 9.71356L10.0194 7.49155C10.2147 7.29622 10.2147 6.97953 10.0194 6.7842C9.82405 6.58886 9.50866 6.58821 9.31333 6.78354Z" fill="#3B3B3E"/>
</svg>
