<svg width="16" height="16" viewBox="0 0 16 16" fill="none" xmlns="http://www.w3.org/2000/svg">
<path d="M13 10.167H11C10.8167 10.167 10.6527 10.1943 10.5 10.2357V8.33366C10.5 7.39433 9.93933 6.83366 9 6.83366H7C6.06067 6.83366 5.5 7.39433 5.5 8.33366V8.90234C5.34733 8.86101 5.18333 8.83366 5 8.83366H3C2.06067 8.83366 1.5 9.39433 1.5 10.3337V14.0003C1.5 14.2763 1.724 14.5003 2 14.5003H6H10H14C14.276 14.5003 14.5 14.2763 14.5 14.0003V11.667C14.5 10.7277 13.9393 10.167 13 10.167ZM2.5 10.3337C2.5 9.94099 2.60733 9.83366 3 9.83366H5C5.39267 9.83366 5.5 9.94099 5.5 10.3337V13.5003H2.5V10.3337ZM6.5 10.3337V8.33366C6.5 7.94099 6.60733 7.83366 7 7.83366H9C9.39267 7.83366 9.5 7.94099 9.5 8.33366V11.667V13.5003H6.5V10.3337ZM13.5 13.5003H10.5V11.667C10.5 11.2743 10.6073 11.167 11 11.167H13C13.3927 11.167 13.5 11.2743 13.5 11.667V13.5003ZM6.334 4.60303L6.19467 5.41366C6.14667 5.69166 6.25866 5.96834 6.48666 6.13501C6.716 6.30168 7.014 6.3243 7.26467 6.1923L8 5.8077L8.736 6.19295C8.84467 6.24962 8.962 6.27767 9.07934 6.27767C9.232 6.27767 9.384 6.22966 9.51334 6.13566C9.74134 5.96966 9.854 5.69297 9.806 5.41431L9.666 4.60229L10.2807 4.0057C10.4793 3.81236 10.55 3.52897 10.4647 3.26497C10.3793 3.00097 10.1553 2.81303 9.88134 2.77303L9.02867 2.64966L8.662 1.90967C8.53666 1.65633 8.28333 1.49902 8 1.49902C7.71667 1.49902 7.46334 1.65633 7.338 1.90967L6.97133 2.64966L6.11933 2.77303C5.84467 2.81303 5.62066 3.00097 5.53533 3.26497C5.45 3.52897 5.52066 3.81236 5.71933 4.0057L6.334 4.60303ZM7.258 3.61963C7.49333 3.5863 7.69666 3.439 7.80266 3.22567L8 2.82764L8.19734 3.22632C8.30334 3.43898 8.50667 3.5863 8.74133 3.61963L9.178 3.68302L8.864 3.98763C8.692 4.1543 8.614 4.395 8.65533 4.62834L8.73 5.06169L8.33467 4.85498C8.23 4.79965 8.11467 4.7723 8 4.7723C7.88533 4.7723 7.77 4.79965 7.66466 4.85498L7.27 5.06169L7.344 4.63029C7.38534 4.39429 7.30733 4.1543 7.136 3.98763L6.822 3.68229L7.258 3.61963Z" fill="#3B3B3E"/>
</svg>
