<svg width="16" height="16" viewBox="0 0 16 16" fill="none" xmlns="http://www.w3.org/2000/svg">
<path d="M7.83008 13.9213C7.86208 14.196 7.66593 14.444 7.39193 14.4766C7.25859 14.4926 7.13333 14.5 7 14.5C3.96733 14.5 1.5 12.0327 1.5 9C1.5 5.96733 3.96733 3.5 7 3.5C8.23267 3.5 9.38872 3.922 10.3241 4.63534L10.98 3.97933C11.1753 3.784 11.492 3.784 11.6873 3.97933C11.8827 4.17466 11.8827 4.49135 11.6873 4.68669L11.0586 5.31535C11.5399 5.84602 11.9327 6.46397 12.1787 7.16797C12.27 7.42864 12.1327 7.71401 11.8721 7.80534C11.6087 7.89467 11.3267 7.7587 11.2347 7.4987C10.6067 5.70536 8.90467 4.5 7 4.5C4.51867 4.5 2.5 6.51867 2.5 9C2.5 11.4813 4.51867 13.5 7 13.5C7.09333 13.5 7.18141 13.4946 7.27474 13.484C7.54807 13.4453 7.79808 13.6473 7.83008 13.9213ZM6.5 6.66667V9C6.5 9.276 6.724 9.5 7 9.5C7.276 9.5 7.5 9.276 7.5 9V6.66667C7.5 6.39067 7.276 6.16667 7 6.16667C6.724 6.16667 6.5 6.39067 6.5 6.66667ZM5.33333 2.5H8.66667C8.94267 2.5 9.16667 2.276 9.16667 2C9.16667 1.724 8.94267 1.5 8.66667 1.5H5.33333C5.05733 1.5 4.83333 1.724 4.83333 2C4.83333 2.276 5.05733 2.5 5.33333 2.5ZM15.1667 11.3333V12.6667C15.1667 14.2787 14.2787 15.1667 12.6667 15.1667H11.3333C9.72133 15.1667 8.83333 14.2787 8.83333 12.6667V11.3333C8.83333 9.72133 9.72133 8.83333 11.3333 8.83333H12.6667C14.2787 8.83333 15.1667 9.72133 15.1667 11.3333ZM14.1667 11.3333C14.1667 10.282 13.718 9.83333 12.6667 9.83333H11.3333C10.282 9.83333 9.83333 10.282 9.83333 11.3333V12.6667C9.83333 13.718 10.282 14.1667 11.3333 14.1667H12.6667C13.718 14.1667 14.1667 13.718 14.1667 12.6667V11.3333ZM12.8333 11.5H12.5V11.1667C12.5 10.8907 12.276 10.6667 12 10.6667C11.724 10.6667 11.5 10.8907 11.5 11.1667V11.5H11.1667C10.8907 11.5 10.6667 11.724 10.6667 12C10.6667 12.276 10.8907 12.5 11.1667 12.5H11.5V12.8333C11.5 13.1093 11.724 13.3333 12 13.3333C12.276 13.3333 12.5 13.1093 12.5 12.8333V12.5H12.8333C13.1093 12.5 13.3333 12.276 13.3333 12C13.3333 11.724 13.1093 11.5 12.8333 11.5Z" fill="#3B3B3E"/>
</svg>
