<svg width="16" height="16" viewBox="0 0 16 16" fill="none" xmlns="http://www.w3.org/2000/svg">
<path d="M8.5 4.50732C8.5 4.78332 8.276 5.00732 8 5.00732C6.99133 5.00732 6.17273 5.7633 6.09473 6.7653C6.07406 7.0273 5.85535 7.22607 5.59668 7.22607C5.58335 7.22607 5.57064 7.22594 5.55664 7.22461C5.28131 7.20328 5.07533 6.96267 5.09733 6.68734C5.21733 5.15934 6.46467 4.00732 8 4.00732C8.276 4.00732 8.5 4.23132 8.5 4.50732ZM14.5 12.9993V14C14.5 14.276 14.276 14.5 14 14.5H2C1.724 14.5 1.5 14.276 1.5 14V13C1.5 12.3273 1.94793 11.7641 2.55859 11.5741V7.6473C2.55859 3.97063 4.74533 1.5 8 1.5C11.2547 1.5 13.4414 3.97063 13.4414 7.6473V11.5741C14.0521 11.7634 14.5 12.3267 14.5 12.9993ZM3.55859 11.5H12.4414V7.6473C12.4414 4.52063 10.698 2.5 8 2.5C5.302 2.5 3.55859 4.52063 3.55859 7.6473V11.5V11.5ZM13.5 12.9993C13.5 12.724 13.276 12.5 13.0007 12.5H12.9414H3.05859H3C2.72467 12.5 2.5 12.724 2.5 13V13.5H13.5V12.9993Z" fill="#3B3B3E"/>
</svg>
