<svg width="16" height="16" viewBox="0 0 16 16" fill="none" xmlns="http://www.w3.org/2000/svg">
<path d="M12 7.49936C11.7073 7.49936 11.432 7.52676 11.1667 7.56609V4.5394C11.1667 3.84207 10.6767 3.22662 10.006 3.07862L3.34066 1.5394C2.89332 1.4334 2.43 1.53872 2.06934 1.82472C1.708 2.11138 1.5 2.54003 1.5 2.99936V12.666C1.5 12.7434 1.50198 12.8207 1.50798 12.8514C1.57064 13.8314 2.16801 14.4293 3.11068 14.488C3.17934 14.4973 3.256 14.4994 3.33333 14.4994H10.6667C10.7807 14.4994 10.8807 14.4547 10.9647 14.39C11.2907 14.456 11.6353 14.4994 12 14.4994C13.746 14.4994 15.1667 13.6774 15.1667 12.666V9.33269C15.1667 8.28736 13.8053 7.49936 12 7.49936ZM14.1667 10.9994C14.1667 11.3314 13.3027 11.8327 12 11.8327C10.6973 11.8327 9.83333 11.3314 9.83333 10.9994V10.686C10.392 10.9847 11.1427 11.166 12 11.166C12.8573 11.166 13.608 10.984 14.1667 10.686V10.9994ZM14.1667 9.33269C14.1667 9.66469 13.3027 10.166 12 10.166C10.6973 10.166 9.83333 9.66469 9.83333 9.33269C9.83333 9.00069 10.6973 8.49936 12 8.49936C13.3027 8.49936 14.1667 9.00069 14.1667 9.33269ZM3.21134 13.494C2.72734 13.4633 2.53603 13.272 2.50203 12.7507C2.4987 12.7247 2.5 12.6954 2.5 12.666V2.99936C2.5 2.84669 2.56934 2.70473 2.69067 2.60873C2.81067 2.5134 2.96801 2.47869 3.11401 2.51336L9.78532 4.05405C10.0067 4.10271 10.1667 4.30673 10.1667 4.5394V7.82195C9.35067 8.14662 8.83333 8.69003 8.83333 9.33269V12.666C8.83333 12.9674 8.97198 13.248 9.19531 13.4994H8.16667V11.3327C8.16667 10.3214 7.34467 9.49936 6.33333 9.49936C5.322 9.49936 4.5 10.3214 4.5 11.3327V13.4994H3.33333C3.30267 13.4994 3.27334 13.5007 3.21134 13.494ZM7.16667 13.4994H5.5V11.3327C5.5 10.8734 5.874 10.4994 6.33333 10.4994C6.79267 10.4994 7.16667 10.8734 7.16667 11.3327V13.4994ZM12 13.4994C10.6747 13.4994 9.83333 12.9134 9.83333 12.666V12.3527C10.392 12.6514 11.1427 12.8327 12 12.8327C12.8573 12.8327 13.608 12.6507 14.1667 12.3527V12.666C14.1667 12.9134 13.3253 13.4994 12 13.4994ZM6.83333 5.99936C6.83333 5.72336 7.05733 5.49936 7.33333 5.49936H8C8.276 5.49936 8.5 5.72336 8.5 5.99936C8.5 6.27536 8.276 6.49936 8 6.49936H7.33333C7.05733 6.49936 6.83333 6.27536 6.83333 5.99936ZM4.16667 5.99936C4.16667 5.72336 4.39067 5.49936 4.66667 5.49936H5.33333C5.60933 5.49936 5.83333 5.72336 5.83333 5.99936C5.83333 6.27536 5.60933 6.49936 5.33333 6.49936H4.66667C4.39067 6.49936 4.16667 6.27536 4.16667 5.99936ZM6.83333 7.99936C6.83333 7.72336 7.05733 7.49936 7.33333 7.49936H8C8.276 7.49936 8.5 7.72336 8.5 7.99936C8.5 8.27536 8.276 8.49936 8 8.49936H7.33333C7.05733 8.49936 6.83333 8.27536 6.83333 7.99936ZM4.16667 7.99936C4.16667 7.72336 4.39067 7.49936 4.66667 7.49936H5.33333C5.60933 7.49936 5.83333 7.72336 5.83333 7.99936C5.83333 8.27536 5.60933 8.49936 5.33333 8.49936H4.66667C4.39067 8.49936 4.16667 8.27536 4.16667 7.99936Z" fill="#3B3B3E"/>
</svg>
