<svg width="16" height="16" viewBox="0 0 16 16" fill="none" xmlns="http://www.w3.org/2000/svg">
<path d="M10.3334 14.5H5.66675C4.05475 14.5 3.16675 13.612 3.16675 12V5.08073C3.16675 4.68606 3.32671 4.29935 3.60604 4.02002L5.68677 1.93929C5.9661 1.65996 6.35281 1.5 6.74748 1.5H10.3334C11.9454 1.5 12.8334 2.388 12.8334 4V12C12.8334 13.612 11.9454 14.5 10.3334 14.5ZM6.74748 2.5C6.61614 2.5 6.48679 2.55331 6.39412 2.64665L4.3134 4.72738C4.22006 4.82071 4.16675 4.9494 4.16675 5.08073V12C4.16675 13.0513 4.61541 13.5 5.66675 13.5H10.3334C11.3847 13.5 11.8334 13.0513 11.8334 12V4C11.8334 2.94867 11.3847 2.5 10.3334 2.5H6.74748ZM10.8334 6.33333V4.66667C10.8334 4.39067 10.6094 4.16667 10.3334 4.16667C10.0574 4.16667 9.83341 4.39067 9.83341 4.66667V6.33333C9.83341 6.60933 10.0574 6.83333 10.3334 6.83333C10.6094 6.83333 10.8334 6.60933 10.8334 6.33333ZM8.83341 6.33333V4.66667C8.83341 4.39067 8.60941 4.16667 8.33341 4.16667C8.05741 4.16667 7.83341 4.39067 7.83341 4.66667V6.33333C7.83341 6.60933 8.05741 6.83333 8.33341 6.83333C8.60941 6.83333 8.83341 6.60933 8.83341 6.33333ZM6.83341 6.33333V4.66667C6.83341 4.39067 6.60941 4.16667 6.33341 4.16667C6.05741 4.16667 5.83341 4.39067 5.83341 4.66667V6.33333C5.83341 6.60933 6.05741 6.83333 6.33341 6.83333C6.60941 6.83333 6.83341 6.60933 6.83341 6.33333Z" fill="#3B3B3E"/>
</svg>
