<svg width="16" height="16" viewBox="0 0 16 16" fill="none" xmlns="http://www.w3.org/2000/svg">
<path d="M13.6866 5.64667L9.68661 1.64667C9.59261 1.55267 9.46592 1.5 9.33325 1.5H5.33325C3.72125 1.5 2.83325 2.388 2.83325 4V12C2.83325 13.612 3.72125 14.5 5.33325 14.5H11.3333C12.9453 14.5 13.8333 13.612 13.8333 12V6C13.8333 5.86733 13.7806 5.74 13.6866 5.64667ZM9.83325 3.20734L12.1259 5.5H11.3333C10.2819 5.5 9.83325 5.05133 9.83325 4V3.20734ZM11.3333 13.5H5.33325C4.28192 13.5 3.83325 13.0513 3.83325 12V4C3.83325 2.94867 4.28192 2.5 5.33325 2.5H8.83325V4C8.83325 5.612 9.72125 6.5 11.3333 6.5H12.8333V12C12.8333 13.0513 12.3846 13.5 11.3333 13.5ZM9.79452 10.1913C9.76918 10.2527 9.73261 10.308 9.68661 10.354L8.35327 11.6873C8.25594 11.7847 8.12792 11.834 7.99992 11.834C7.87192 11.834 7.7439 11.7853 7.64657 11.6873C7.45123 11.492 7.45123 11.1753 7.64657 10.98L8.12655 10.5H5.99992C5.72392 10.5 5.49992 10.276 5.49992 10C5.49992 9.724 5.72392 9.5 5.99992 9.5H8.1259L7.64591 9.02C7.45058 8.82467 7.45058 8.508 7.64591 8.31266C7.84125 8.11733 8.15794 8.11733 8.35327 8.31266L9.68661 9.646C9.73261 9.692 9.76918 9.74733 9.79452 9.80867C9.84518 9.93067 9.84518 10.0693 9.79452 10.1913Z" fill="#3B3B3E"/>
</svg>
