<svg width="16" height="16" viewBox="0 0 16 16" fill="none" xmlns="http://www.w3.org/2000/svg">
<path d="M12.8666 1.99362C12.64 1.70028 12.2933 1.52029 11.9266 1.50029C11.5466 1.47362 11.18 1.61363 10.9133 1.8803L9.9133 2.8803L1.88662 10.9069C1.61996 11.1736 1.47997 11.5403 1.50664 11.9203C1.52664 12.2936 1.70663 12.6336 1.99997 12.8603C3.3733 13.9336 5.01996 14.4936 6.73996 14.4936C7.17996 14.4936 7.62663 14.4536 8.07996 14.3803C11.2666 13.847 13.86 11.247 14.3933 8.06696C14.76 5.87363 14.22 3.71363 12.8733 1.98696L12.8666 1.99362ZM3.97329 10.2403L6.2533 7.96029V11.187C5.41997 11.0936 4.63329 10.767 3.97329 10.247V10.2403ZM7.2533 7.96029L9.53329 10.2403C8.89329 10.7536 8.1133 11.0936 7.2533 11.187V7.96029V7.96029ZM10.24 9.53362L7.95997 7.25363H11.1866C11.0933 8.10696 10.7533 8.89362 10.24 9.53362V9.53362ZM7.95997 6.25363L10.24 3.97362C10.7666 4.63362 11.0866 5.42029 11.18 6.25363H7.95997V6.25363ZM13.4066 7.91362C12.94 10.6803 10.6866 12.9403 7.9133 13.4069C6.00663 13.7269 4.11997 13.2603 2.61331 12.0803C2.52664 12.0136 2.50663 11.9136 2.49997 11.867C2.49997 11.7736 2.52664 11.687 2.59331 11.627L3.25998 10.9603C4.23998 11.7736 5.46664 12.2203 6.7533 12.2203C9.76664 12.2203 12.2133 9.77363 12.2133 6.7603C12.2133 5.47363 11.7666 4.25362 10.9533 3.26695L11.62 2.60029C11.68 2.54029 11.76 2.50696 11.84 2.50696C11.84 2.50696 11.8533 2.50696 11.86 2.50696C11.9133 2.50696 12.0066 2.52695 12.0733 2.62029C13.2466 4.12695 13.72 6.00696 13.4 7.92029L13.4066 7.91362Z" fill="#3B3B3E"/>
</svg>
