<svg width="16" height="16" viewBox="0 0 16 16" fill="none" xmlns="http://www.w3.org/2000/svg">
<path d="M2.57145 14.5003C2.47479 14.5003 2.3809 14.499 2.2889 14.4957C1.95557 14.4877 1.66348 14.2743 1.54948 13.9523C1.43481 13.6283 1.52955 13.2757 1.78955 13.0544C2.41088 12.553 2.65944 11.9983 2.75944 11.6177C1.93477 10.6317 1.49951 9.38698 1.49951 8.00098C1.49951 4.56564 4.17285 2.16699 7.99951 2.16699C8.24151 2.16699 8.47676 2.1743 8.71143 2.19564C8.98676 2.22097 9.18956 2.46435 9.16423 2.73901C9.13823 3.01435 8.8961 3.21565 8.62077 3.19165C8.41544 3.17298 8.21085 3.16699 7.99951 3.16699C4.76151 3.16699 2.49951 5.15498 2.49951 8.00098C2.49951 9.22498 2.90283 10.309 3.66683 11.1357C3.77016 11.2477 3.81746 11.401 3.79346 11.5523C3.68146 12.2663 3.32942 12.9417 2.78809 13.4957C3.56142 13.4677 4.60154 13.2897 5.24154 12.607C5.3762 12.463 5.5842 12.4117 5.76953 12.4763C6.45953 12.715 7.20951 12.8357 7.99951 12.8357C11.2375 12.8357 13.4995 10.8476 13.4995 8.00163C13.4995 7.72563 13.7235 7.50163 13.9995 7.50163C14.2755 7.50163 14.4995 7.72563 14.4995 8.00163C14.4995 11.437 11.8262 13.8357 7.99951 13.8357C7.20818 13.8357 6.44948 13.7284 5.73682 13.5164C4.82815 14.307 3.57612 14.5003 2.57145 14.5003ZM2.31885 13.4957C2.32018 13.4957 2.32142 13.4957 2.32275 13.4957C2.32075 13.4964 2.31951 13.4964 2.31885 13.4957ZM12.6668 5.83366C11.6555 5.83366 10.8335 5.01166 10.8335 4.00033C10.8335 2.98899 11.6555 2.16699 12.6668 2.16699C13.6782 2.16699 14.5002 2.98899 14.5002 4.00033C14.5002 5.01166 13.6782 5.83366 12.6668 5.83366ZM12.6668 3.16699C12.2075 3.16699 11.8335 3.54099 11.8335 4.00033C11.8335 4.45966 12.2075 4.83366 12.6668 4.83366C13.1262 4.83366 13.5002 4.45966 13.5002 4.00033C13.5002 3.54099 13.1262 3.16699 12.6668 3.16699ZM8.68018 8.00033C8.68018 7.63233 8.38218 7.33366 8.01351 7.33366H8.00684C7.63884 7.33366 7.34342 7.63233 7.34342 8.00033C7.34342 8.36833 7.64551 8.66699 8.01351 8.66699C8.38151 8.66699 8.68018 8.36833 8.68018 8.00033ZM11.3468 8.00033C11.3468 7.63233 11.0488 7.33366 10.6802 7.33366H10.6735C10.3055 7.33366 10.0101 7.63233 10.0101 8.00033C10.0101 8.36833 10.3122 8.66699 10.6802 8.66699C11.0482 8.66699 11.3468 8.36833 11.3468 8.00033ZM6.01351 8.00033C6.01351 7.63233 5.71551 7.33366 5.34684 7.33366H5.34017C4.97217 7.33366 4.67676 7.63233 4.67676 8.00033C4.67676 8.36833 4.97884 8.66699 5.34684 8.66699C5.71484 8.66699 6.01351 8.36833 6.01351 8.00033Z" fill="#3B3B3E"/>
</svg>
