<svg width="16" height="16" viewBox="0 0 16 16" fill="none" xmlns="http://www.w3.org/2000/svg">
<path d="M8.00016 15.1663C4.04816 15.1663 0.833496 11.9517 0.833496 7.99967C0.833496 4.04767 4.04816 0.833008 8.00016 0.833008C11.9522 0.833008 15.1668 4.04767 15.1668 7.99967C15.1668 11.9517 11.9522 15.1663 8.00016 15.1663ZM8.00016 1.83301C4.5995 1.83301 1.8335 4.59901 1.8335 7.99967C1.8335 11.4003 4.5995 14.1663 8.00016 14.1663C11.4008 14.1663 14.1668 11.4003 14.1668 7.99967C14.1668 4.59901 11.4008 1.83301 8.00016 1.83301ZM8.47412 8.90902C8.49012 8.86102 8.58085 8.67904 9.06885 8.35238C9.85551 7.82504 10.2075 7.07164 10.0615 6.23031C9.91352 5.38031 9.22079 4.68236 8.37679 4.53369C7.76012 4.42436 7.13547 4.5903 6.66081 4.98763C6.18147 5.38963 5.9069 5.9796 5.9069 6.60693C5.9069 6.88293 6.1309 7.10693 6.4069 7.10693C6.6829 7.10693 6.9069 6.88293 6.9069 6.60693C6.9069 6.27627 7.05155 5.96508 7.30355 5.75374C7.55421 5.54374 7.87413 5.45774 8.2028 5.51774C8.63347 5.59374 9.00082 5.96504 9.07682 6.40104C9.10549 6.56571 9.19287 7.06566 8.51221 7.521C7.96087 7.891 7.64752 8.23033 7.52686 8.59033C7.43886 8.85233 7.58012 9.13563 7.84212 9.22363C7.89479 9.24163 7.94815 9.24967 8.00081 9.24967C8.20881 9.24967 8.40345 9.11768 8.47412 8.90902ZM8.68018 10.9997C8.68018 10.6317 8.38218 10.333 8.01351 10.333H8.00684C7.63884 10.333 7.34342 10.6317 7.34342 10.9997C7.34342 11.3677 7.64551 11.6663 8.01351 11.6663C8.38151 11.6663 8.68018 11.3677 8.68018 10.9997Z" fill="#3B3B3E"/>
</svg>
