<svg width="16" height="16" viewBox="0 0 16 16" fill="none" xmlns="http://www.w3.org/2000/svg">
<path d="M14 13.5H12.8333V3C12.8333 2.17267 12.1607 1.5 11.3333 1.5H4.66667C3.83933 1.5 3.16667 2.17267 3.16667 3V13.5H2C1.724 13.5 1.5 13.724 1.5 14C1.5 14.276 1.724 14.5 2 14.5H14C14.276 14.5 14.5 14.276 14.5 14C14.5 13.724 14.276 13.5 14 13.5ZM4.16667 13.5V3C4.16667 2.724 4.39067 2.5 4.66667 2.5H11.3333C11.6093 2.5 11.8333 2.724 11.8333 3V13.5H4.16667ZM10.68 8C10.68 8.368 10.3813 8.66667 10.0133 8.66667C9.64535 8.66667 9.34334 8.368 9.34334 8C9.34334 7.632 9.63801 7.33333 10.0067 7.33333H10.0133C10.3813 7.33333 10.68 7.632 10.68 8Z" fill="#3B3B3E"/>
</svg>
