<svg width="16" height="16" viewBox="0 0 16 16" fill="none" xmlns="http://www.w3.org/2000/svg">
<path d="M8.00016 0.833008C4.04816 0.833008 0.833496 4.04767 0.833496 7.99967C0.833496 11.9517 4.04816 15.1663 8.00016 15.1663C11.9522 15.1663 15.1668 11.9517 15.1668 7.99967C15.1668 4.04767 11.9522 0.833008 8.00016 0.833008ZM8.00016 14.1663C4.5995 14.1663 1.8335 11.4003 1.8335 7.99967C1.8335 4.59901 4.5995 1.83301 8.00016 1.83301C11.4008 1.83301 14.1668 4.59901 14.1668 7.99967C14.1668 11.4003 11.4008 14.1663 8.00016 14.1663ZM10.3535 8.31299C10.5488 8.50832 10.5488 8.82501 10.3535 9.02034L8.35352 11.0203C8.30752 11.0663 8.25224 11.1031 8.19157 11.1284C8.1309 11.1538 8.0655 11.167 8.00016 11.167C7.93483 11.167 7.87009 11.1538 7.80876 11.1284C7.74742 11.1031 7.69281 11.0663 7.64681 11.0203L5.64681 9.02034C5.45148 8.82501 5.45148 8.50832 5.64681 8.31299C5.84214 8.11765 6.15883 8.11765 6.35417 8.31299L7.50081 9.45963V5.33301C7.50081 5.05701 7.72481 4.83301 8.00081 4.83301C8.27681 4.83301 8.50081 5.05701 8.50081 5.33301V9.45898L9.64746 8.31234C9.84213 8.11767 10.1582 8.11765 10.3535 8.31299Z" fill="#3B3B3E"/>
</svg>
