<svg width="16" height="16" viewBox="0 0 16 16" fill="none" xmlns="http://www.w3.org/2000/svg">
<path d="M8.00004 0.833008C4.04804 0.833008 0.833374 4.04767 0.833374 7.99967C0.833374 11.9517 4.04804 15.1663 8.00004 15.1663C11.952 15.1663 15.1667 11.9517 15.1667 7.99967C15.1667 4.04767 11.952 0.833008 8.00004 0.833008ZM8.00004 14.1663C4.59937 14.1663 1.83337 11.4003 1.83337 7.99967C1.83337 4.59901 4.59937 1.83301 8.00004 1.83301C11.4007 1.83301 14.1667 4.59901 14.1667 7.99967C14.1667 11.4003 11.4007 14.1663 8.00004 14.1663ZM11.1434 8.30965C11.1414 8.30365 11.1434 8.29702 11.1414 8.29102C11.138 8.28168 11.1307 8.27504 11.1267 8.26571C11.1187 8.24637 11.1147 8.22635 11.1047 8.20768L8.75736 3.94637C8.60536 3.67037 8.31537 3.49902 8.00004 3.49902C7.68471 3.49902 7.39472 3.67037 7.24272 3.94637L4.89539 8.20768C4.88539 8.22635 4.88071 8.24631 4.87337 8.26497C4.86937 8.27431 4.86206 8.28103 4.85872 8.29036C4.85672 8.29636 4.85802 8.303 4.85669 8.309C4.84002 8.36567 4.83137 8.42434 4.83537 8.48234C4.83603 8.49034 4.83871 8.49768 4.84005 8.50635C4.84605 8.55568 4.85938 8.60301 4.88005 8.64901C4.88671 8.66434 4.89406 8.6783 4.90206 8.6923C4.91006 8.7063 4.91405 8.72104 4.92338 8.73437L7.29069 12.1283C7.45269 12.3603 7.71737 12.4984 8.00004 12.4984C8.28271 12.4984 8.54739 12.3603 8.70939 12.1283L11.0767 8.73437C11.086 8.72104 11.09 8.70563 11.098 8.6923C11.106 8.67763 11.1134 8.66434 11.12 8.64901C11.14 8.60301 11.154 8.55568 11.16 8.50635C11.1607 8.49835 11.164 8.49101 11.1647 8.48234C11.1687 8.42501 11.1601 8.36698 11.1434 8.30965ZM8.00004 4.64502L9.93937 8.16504L8.00004 8.81103L6.06071 8.16504L8.00004 4.64502ZM8.00004 11.399L6.60604 9.40104L7.84139 9.81299C7.89272 9.83032 7.94606 9.83903 7.99939 9.83903C8.05272 9.83903 8.10606 9.83032 8.15739 9.81299L9.3927 9.40104L8.00004 11.399Z" fill="#3B3B3E"/>
</svg>
