<svg width="16" height="16" viewBox="0 0 16 16" fill="none" xmlns="http://www.w3.org/2000/svg">
<path d="M7.99996 14.4993C7.61596 14.4993 7.232 14.3533 6.93933 14.0607L5.59265 12.7147C5.41732 12.54 5.13593 12.5207 4.9386 12.6687L4.03333 13.348C3.67733 13.6147 3.20864 13.6567 2.81197 13.458C2.41397 13.2593 2.16663 12.8593 2.16663 12.4147V4C2.16663 2.388 3.05463 1.5 4.66663 1.5H11.3333C12.9453 1.5 13.8333 2.388 13.8333 4V12.414C13.8333 12.8587 13.5859 13.2587 13.1879 13.4573C12.7913 13.656 12.3226 13.614 11.9666 13.3473L11.0606 12.6673C10.8639 12.5193 10.5819 12.5387 10.4073 12.714L9.06059 14.06C8.76792 14.3533 8.38396 14.4993 7.99996 14.4993ZM5.23726 11.5707C5.6246 11.5707 6.01059 11.7187 6.29993 12.0073L7.64661 13.354C7.83527 13.5427 8.16463 13.5427 8.35396 13.354L9.70064 12.008C10.2253 11.4833 11.0693 11.4247 11.6606 11.8687L12.5673 12.5487C12.6386 12.6033 12.7067 12.5813 12.742 12.5647C12.776 12.5473 12.8339 12.5053 12.8339 12.4153V4C12.8339 2.94867 12.3853 2.5 11.3339 2.5H4.66728C3.61594 2.5 3.16728 2.94867 3.16728 4V12.414C3.16728 12.504 3.22532 12.546 3.25932 12.5633C3.29398 12.5807 3.36129 12.602 3.43396 12.5473L4.33997 11.8673C4.6053 11.6687 4.92193 11.5707 5.23726 11.5707ZM7.99996 10.4813C7.92996 10.4813 7.85932 10.4667 7.79399 10.4373C7.69199 10.3913 5.28463 9.28267 4.89197 7.27334C4.7333 6.46067 4.89067 5.68999 5.32467 5.15999C5.686 4.71933 6.20193 4.48466 6.81726 4.48132C6.82059 4.48132 6.82395 4.48132 6.82662 4.48132C7.33995 4.48132 7.72598 4.69266 7.99931 4.95866C8.27464 4.69066 8.68464 4.49532 9.17997 4.48132C9.79597 4.48399 10.312 4.71868 10.6733 5.15934C11.1066 5.68868 11.2653 6.45934 11.106 7.27334C10.7133 9.28267 8.30665 10.3913 8.20398 10.4373C8.14065 10.4667 8.06996 10.4813 7.99996 10.4813ZM6.82662 5.48132C6.82529 5.48132 6.82462 5.48132 6.82328 5.48132C6.51062 5.48266 6.26732 5.588 6.09932 5.79334C5.85799 6.08734 5.77398 6.56867 5.87398 7.08067C6.11065 8.29267 7.47398 9.13601 7.99931 9.42067C8.52464 9.13667 9.88797 8.29334 10.1246 7.08134C10.2246 6.56867 10.1406 6.08667 9.89994 5.79334C9.73128 5.588 9.48793 5.48332 9.1746 5.48132C9.17393 5.48132 9.1726 5.48132 9.17126 5.48132C8.6806 5.48132 8.49065 5.96801 8.47131 6.02401C8.39998 6.22267 8.20998 6.35734 7.99931 6.35734C7.99798 6.35734 7.99594 6.35734 7.99394 6.35734C7.78127 6.35534 7.59195 6.22068 7.52462 6.01868C7.50795 5.96868 7.31862 5.48132 6.82662 5.48132ZM10.6167 7.17733H10.6233H10.6167Z" fill="#3B3B3E"/>
</svg>
