<svg width="16" height="16" viewBox="0 0 16 16" fill="none" xmlns="http://www.w3.org/2000/svg">
<path d="M14.0239 2.78824C14.0233 2.78824 14.0233 2.78825 14.0226 2.78759C12.888 2.24959 11.63 2.06091 10.2834 2.22557C9.31403 2.34491 8.494 2.89887 8 3.67487C7.50533 2.89954 6.68597 2.34491 5.71663 2.22557C4.36797 2.06091 3.11138 2.24959 1.97738 2.78759C1.97738 2.78759 1.97739 2.78759 1.97673 2.78759C1.68739 2.92492 1.5 3.22286 1.5 3.54686V12.2169C1.5 12.4795 1.61995 12.7202 1.82861 12.8782C2.03661 13.0362 2.31407 13.0862 2.56673 13.0155C4.5054 12.4649 6.14467 12.6982 7.722 13.7496C7.72867 13.7542 7.73666 13.7556 7.74333 13.7596C7.75066 13.7636 7.756 13.7702 7.764 13.7742C7.77133 13.7782 7.77994 13.7763 7.78727 13.7803C7.85461 13.8123 7.92602 13.8336 7.99935 13.8336C8.07268 13.8336 8.14393 13.8123 8.21126 13.7803C8.2186 13.7769 8.22737 13.7782 8.2347 13.7742C8.24203 13.7702 8.24805 13.7643 8.25472 13.7596C8.26139 13.7556 8.26937 13.7542 8.27604 13.7496C9.85337 12.6976 11.492 12.4642 13.4313 13.0149C13.6846 13.0869 13.9606 13.0362 14.1693 12.8782C14.3779 12.7209 14.498 12.4795 14.498 12.2169V3.54686C14.5 3.2242 14.3133 2.92624 14.0239 2.78824ZM4.48861 11.7289C3.84794 11.7289 3.186 11.8189 2.5 11.9969V3.64688C3.44667 3.21821 4.46206 3.0776 5.59473 3.2176C6.68139 3.35093 7.5 4.27755 7.5 5.37222V12.4595C6.54333 11.9722 5.54461 11.7289 4.48861 11.7289ZM13.5 11.9975C11.6813 11.5249 10.0373 11.6763 8.5 12.4609V5.3736C8.5 4.27827 9.31927 3.35223 10.4053 3.2189C10.6866 3.18423 10.9607 3.1669 11.228 3.1669C12.038 3.1669 12.788 3.32626 13.4993 3.64826V11.9975H13.5ZM10 5.50023H12C12.276 5.50023 12.5 5.72423 12.5 6.00023C12.5 6.27623 12.276 6.50023 12 6.50023H10C9.724 6.50023 9.5 6.27623 9.5 6.00023C9.5 5.72423 9.724 5.50023 10 5.50023ZM11.8333 8.00023C11.8333 8.27623 11.6093 8.50023 11.3333 8.50023H10C9.724 8.50023 9.5 8.27623 9.5 8.00023C9.5 7.72423 9.724 7.50023 10 7.50023H11.3333C11.6093 7.50023 11.8333 7.72423 11.8333 8.00023Z" fill="#3B3B3E"/>
</svg>
