<svg width="16" height="16" viewBox="0 0 16 16" fill="none" xmlns="http://www.w3.org/2000/svg">
<path d="M13.9469 2.00547C13.6002 1.79147 13.1762 1.77203 12.8115 1.95403L10.5269 3.09612C10.4289 3.14479 10.3122 3.15139 10.2075 3.11273L6.14219 1.58815C5.77886 1.45148 5.37084 1.47274 5.02484 1.64674L2.51286 2.90277C1.88752 3.21543 1.49951 3.84407 1.49951 4.54274V13.0014C1.49951 13.4087 1.70619 13.7794 2.05286 13.9934C2.39952 14.2074 2.82353 14.2269 3.18819 14.0449L5.47286 12.9028C5.57086 12.8541 5.68751 12.8475 5.79218 12.8862L9.85752 14.4107C10.0155 14.4701 10.1822 14.4994 10.3489 14.4994C10.3635 14.4994 10.3775 14.4947 10.3922 14.4947C10.3955 14.4947 10.3975 14.4962 10.4009 14.4962C10.4122 14.4962 10.4215 14.4909 10.4322 14.4895C10.6195 14.4782 10.8049 14.4368 10.9755 14.3515L13.4875 13.0955C14.1128 12.7828 14.5009 12.1542 14.5009 11.4555V2.99684C14.5002 2.59017 14.2935 2.21947 13.9469 2.00547ZM2.74152 13.1502C2.66952 13.1855 2.60884 13.1615 2.57951 13.1428C2.55018 13.1248 2.50018 13.0821 2.50018 13.0014V4.54274C2.50018 4.22474 2.67686 3.93946 2.96086 3.79746L5.10018 2.72812V11.9814C5.07551 11.992 5.04951 11.9961 5.02551 12.0087L2.74152 13.1502ZM6.14284 11.9495C6.12884 11.9441 6.11418 11.9428 6.10018 11.9374V2.64007L9.85752 4.04876C9.87152 4.05409 9.88619 4.05549 9.90019 4.06015V13.3582L6.14284 11.9495ZM13.5002 11.4562C13.5002 11.7742 13.3235 12.0594 13.0395 12.2014L10.9002 13.2708V4.01881C10.9249 4.00815 10.9509 4.00282 10.9749 3.99082L13.2589 2.84873C13.3302 2.81273 13.3915 2.83739 13.4209 2.85605C13.4502 2.87472 13.5002 2.91683 13.5002 2.99749V11.4562V11.4562Z" fill="#3B3B3E"/>
</svg>
