<svg width="16" height="16" viewBox="0 0 16 16" fill="none" xmlns="http://www.w3.org/2000/svg">
<path d="M6.50004 7.33333V4.66667C6.50004 4.39067 6.72404 4.16667 7.00004 4.16667C7.27604 4.16667 7.50004 4.39067 7.50004 4.66667V5.5H8.50004V4.66667C8.50004 4.39067 8.72404 4.16667 9.00004 4.16667C9.27604 4.16667 9.50004 4.39067 9.50004 4.66667V7.33333C9.50004 7.60933 9.27604 7.83333 9.00004 7.83333C8.72404 7.83333 8.50004 7.60933 8.50004 7.33333V6.5H7.50004V7.33333C7.50004 7.60933 7.27604 7.83333 7.00004 7.83333C6.72404 7.83333 6.50004 7.60933 6.50004 7.33333ZM15.1667 14C15.1667 14.276 14.9427 14.5 14.6667 14.5H1.33337C1.05737 14.5 0.833374 14.276 0.833374 14C0.833374 13.724 1.05737 13.5 1.33337 13.5H1.50004V7.33333C1.50004 6.168 2.16804 5.5 3.33337 5.5H3.50004V4C3.50004 2.388 4.38804 1.5 6.00004 1.5H10C11.612 1.5 12.5 2.388 12.5 4V5.5H12.6667C13.832 5.5 14.5 6.168 14.5 7.33333V13.5H14.6667C14.9427 13.5 15.1667 13.724 15.1667 14ZM4.50004 13.5H6.16671V11.3333C6.16671 10.322 6.98871 9.5 8.00004 9.5C9.01137 9.5 9.83337 10.322 9.83337 11.3333V13.5H11.5V4C11.5 2.94867 11.0514 2.5 10 2.5H6.00004C4.94871 2.5 4.50004 2.94867 4.50004 4V13.5ZM8.83337 11.3333C8.83337 10.874 8.45937 10.5 8.00004 10.5C7.54071 10.5 7.16671 10.874 7.16671 11.3333V13.5H8.83337V11.3333ZM2.50004 13.5H3.50004V6.5H3.33337C2.72604 6.5 2.50004 6.726 2.50004 7.33333V13.5ZM13.5 13.5V7.33333C13.5 6.726 13.274 6.5 12.6667 6.5H12.5V13.5H13.5Z" fill="#3B3B3E"/>
</svg>
