<svg width="16" height="16" viewBox="0 0 16 16" fill="none" xmlns="http://www.w3.org/2000/svg">
<g clip-path="url(#clip0_36251_7784)">
<path d="M8.00016 0.833008C4.04816 0.833008 0.833496 4.04767 0.833496 7.99967C0.833496 11.9517 4.04816 15.1663 8.00016 15.1663C11.9522 15.1663 15.1668 11.9517 15.1668 7.99967C15.1668 4.04767 11.9522 0.833008 8.00016 0.833008ZM8.00016 14.1663C4.5995 14.1663 1.8335 11.4003 1.8335 7.99967C1.8335 4.59901 4.5995 1.83301 8.00016 1.83301C11.4008 1.83301 14.1668 4.59901 14.1668 7.99967C14.1668 11.4003 11.4008 14.1663 8.00016 14.1663ZM10.3535 9.64632C10.5488 9.84165 10.5488 10.1583 10.3535 10.3537C10.2562 10.451 10.1282 10.5003 10.0002 10.5003C9.87216 10.5003 9.74414 10.4517 9.64681 10.3537L7.64681 8.35368C7.55281 8.25968 7.50016 8.13233 7.50016 8.00033V4.66699C7.50016 4.39099 7.72416 4.16699 8.00016 4.16699C8.27616 4.16699 8.50016 4.39099 8.50016 4.66699V7.79297L10.3535 9.64632Z" fill="#3B3B3E"/>
</g>
<defs>
<clipPath id="clip0_36251_7784">
<rect width="16" height="16" fill="white"/>
</clipPath>
</defs>
</svg>
