<svg width="16" height="16" viewBox="0 0 16 16" fill="none" xmlns="http://www.w3.org/2000/svg">
<path d="M12.4609 15.167H3.53755C2.57889 15.167 1.7117 14.6763 1.21903 13.855C0.727699 13.035 0.703603 12.0424 1.1536 11.1991L5.55757 2.9624C6.04624 2.04707 6.95966 1.50098 7.99833 1.50098C9.037 1.50098 9.95026 2.04707 10.4389 2.9624L14.8429 11.1991C15.2936 12.0424 15.2696 13.035 14.7776 13.855C14.2876 14.6763 13.4202 15.167 12.4609 15.167ZM7.99963 2.50033C7.33563 2.50033 6.75289 2.84894 6.44022 3.43294L2.03625 11.6696C1.75292 12.1996 1.76826 12.8243 2.07759 13.3397C2.38826 13.857 2.9337 14.1663 3.53837 14.1663H12.4617C13.0664 14.1663 13.6123 13.8577 13.9223 13.3397C14.2317 12.8243 14.2463 12.1996 13.9637 11.6696L9.55969 3.43294C9.24636 2.84894 8.66363 2.50033 7.99963 2.50033Z" fill="#3B3B3E"/>
</svg>
