<svg width="16" height="16" viewBox="0 0 16 16" fill="none" xmlns="http://www.w3.org/2000/svg">
<g clip-path="url(#clip0_36251_9013)">
<path d="M8.00016 0.833008C4.04683 0.833008 0.833496 4.04634 0.833496 7.99967C0.833496 11.953 4.04683 15.1663 8.00016 15.1663C11.9535 15.1663 15.1668 11.953 15.1668 7.99967C15.1668 4.04634 11.9535 0.833008 8.00016 0.833008ZM8.00016 14.1663C4.60016 14.1663 1.8335 11.3997 1.8335 7.99967C1.8335 4.59967 4.60016 1.83301 8.00016 1.83301C11.4002 1.83301 14.1668 4.59967 14.1668 7.99967C14.1668 11.3997 11.4002 14.1663 8.00016 14.1663ZM11.1135 10.7263C11.1135 10.973 10.9202 11.1397 10.7068 11.1397C10.5935 11.1397 10.5268 11.1063 10.4202 11.0397C8.74017 10.0263 6.79349 9.98635 4.86682 10.3797C4.76015 10.4063 4.62683 10.4463 4.54683 10.4463C4.28683 10.4463 4.12016 10.2397 4.12016 10.0197C4.12016 9.73967 4.28684 9.61301 4.48684 9.56634C6.68684 9.07968 8.94017 9.11968 10.8602 10.273C11.0268 10.3797 11.1202 10.473 11.1202 10.7197L11.1135 10.7263ZM11.9468 8.85301C11.9468 9.14634 11.7202 9.37968 11.4268 9.37968C11.2868 9.37968 11.1935 9.31967 11.0935 9.26634C9.41351 8.273 6.90682 7.87301 4.68016 8.47301C4.55349 8.50635 4.48017 8.53967 4.36017 8.53967C4.0735 8.53967 3.84017 8.30634 3.84017 8.01967C3.84017 7.73301 3.98017 7.53967 4.2535 7.46634C5.00017 7.25967 5.76683 7.09967 6.88017 7.09967C8.62683 7.09967 10.3135 7.533 11.6402 8.31967C11.8602 8.44634 11.9468 8.61301 11.9468 8.84634V8.85301ZM12.8802 6.69968C12.8802 7.06634 12.5868 7.32634 12.2535 7.32634C12.1135 7.32634 12.0268 7.29301 11.9068 7.21968C9.99349 6.07968 6.57349 5.80634 4.3535 6.41968C4.2535 6.44634 4.1335 6.48634 4.00684 6.48634C3.6535 6.48634 3.38017 6.20634 3.38017 5.85301C3.38017 5.49967 3.60682 5.27968 3.84682 5.21301C4.79349 4.93301 5.8535 4.80635 7.00684 4.80635C8.96684 4.80635 11.0268 5.21301 12.5268 6.09301C12.7335 6.21301 12.8735 6.37968 12.8735 6.69968H12.8802Z" fill="#3B3B3E"/>
</g>
<defs>
<clipPath id="clip0_36251_9013">
<rect width="16" height="16" fill="white"/>
</clipPath>
</defs>
</svg>
