<svg width="16" height="16" viewBox="0 0 16 16" fill="none" xmlns="http://www.w3.org/2000/svg">
<path d="M8.49992 12.667C8.49992 12.943 8.27592 13.167 7.99992 13.167H3.33325C1.72125 13.167 0.833252 12.279 0.833252 10.667V4.66699C0.833252 3.05499 1.72125 2.16699 3.33325 2.16699H11.3333C12.9453 2.16699 13.8333 3.05499 13.8333 4.66699V7.33366C13.8333 7.60966 13.6093 7.83366 13.3333 7.83366C13.0573 7.83366 12.8333 7.60966 12.8333 7.33366V4.66699C12.8333 3.61566 12.3846 3.16699 11.3333 3.16699H3.33325C2.28192 3.16699 1.83325 3.61566 1.83325 4.66699V10.667C1.83325 11.7183 2.28192 12.167 3.33325 12.167H7.99992C8.27592 12.167 8.49992 12.391 8.49992 12.667ZM10.706 4.92966L7.43123 7.31099C7.37257 7.35299 7.29459 7.35299 7.23592 7.31099L3.96118 4.92966C3.73651 4.76632 3.42461 4.81766 3.26261 5.03966C3.09995 5.263 3.14931 5.57632 3.37264 5.73832L6.64722 8.11966C6.85255 8.26899 7.09325 8.34366 7.33325 8.34366C7.57325 8.34366 7.81462 8.26899 8.01929 8.11966L11.2939 5.73832C11.5172 5.57632 11.5666 5.263 11.4039 5.03966C11.2419 4.817 10.9306 4.76566 10.706 4.92966ZM15.1666 11.667C15.1666 13.2297 13.8959 14.5003 12.3333 14.5003C10.7706 14.5003 9.49992 13.2297 9.49992 11.667C9.49992 10.1043 10.7706 8.83366 12.3333 8.83366C13.8959 8.83366 15.1666 10.1043 15.1666 11.667ZM10.4999 11.667C10.4999 11.9903 10.5912 12.2903 10.7392 12.5543L13.2206 10.0723C12.9566 9.92499 12.6573 9.83366 12.3333 9.83366C11.3219 9.83366 10.4999 10.6557 10.4999 11.667ZM14.1666 11.667C14.1666 11.3437 14.0753 11.0437 13.9273 10.7797L11.4459 13.2617C11.7099 13.409 12.0093 13.5003 12.3333 13.5003C13.3446 13.5003 14.1666 12.6783 14.1666 11.667Z" fill="#3B3B3E"/>
</svg>
