<svg width="16" height="16" viewBox="0 0 16 16" fill="none" xmlns="http://www.w3.org/2000/svg">
<path d="M9.84668 9.33333C9.84668 9.60667 9.62668 9.83333 9.34668 9.83333C9.06668 9.83333 8.84668 9.60667 8.84668 9.33333C8.84668 9.06 9.06668 8.83333 9.34668 8.83333C9.62668 8.83333 9.84668 9.06 9.84668 9.33333ZM6.68001 7.5C6.40668 7.5 6.18001 7.72667 6.18001 8C6.18001 8.27333 6.40668 8.5 6.68001 8.5C6.95335 8.5 7.18001 8.27333 7.18001 8C7.18001 7.72667 6.96001 7.5 6.68001 7.5ZM10.68 11.5C10.4067 11.5 10.18 11.7267 10.18 12C10.18 12.2733 10.4067 12.5 10.68 12.5C10.9533 12.5 11.18 12.2733 11.18 12C11.18 11.7267 10.96 11.5 10.68 11.5ZM6.01335 10.8333C5.74001 10.8333 5.51335 11.06 5.51335 11.3333C5.51335 11.6067 5.74001 11.8333 6.01335 11.8333C6.28668 11.8333 6.51335 11.6067 6.51335 11.3333C6.51335 11.06 6.29335 10.8333 6.01335 10.8333ZM10.5133 6C10.5133 5.72667 10.2933 5.5 10.0133 5.5C9.74001 5.5 9.51335 5.72667 9.51335 6C9.51335 6.27333 9.74001 6.5 10.0133 6.5C10.2867 6.5 10.5133 6.27333 10.5133 6ZM5.84668 5.33333C5.84668 5.06 5.62668 4.83333 5.34668 4.83333C5.07335 4.83333 4.84668 5.06 4.84668 5.33333C4.84668 5.60667 5.07335 5.83333 5.34668 5.83333C5.62001 5.83333 5.84668 5.60667 5.84668 5.33333ZM14.5 4.54667C14.5 5.18667 14.2467 5.79333 13.7933 6.24666L13.1667 6.87333V13C13.1667 13.8267 12.4933 14.5 11.6667 14.5H4.33333C3.50667 14.5 2.83333 13.8267 2.83333 13V6.97333C2.00667 6.55999 1.5 5.74001 1.5 4.82001V4.54C1.5 3.52667 2.14002 2.61334 3.10002 2.27334C4.08002 1.92 5.73333 1.5 8 1.5C10.2667 1.5 11.9133 1.92 12.9 2.27334C13.86 2.62 14.5 3.52667 14.5 4.54V4.54667ZM13.5 4.54667C13.5 3.95334 13.12 3.41999 12.56 3.21999C11.6534 2.89332 10.12 2.5 8 2.5C5.88 2.5 4.34665 2.88666 3.43998 3.21999C2.87998 3.41999 2.5 3.95334 2.5 4.54667V4.82666C2.5 5.35999 2.79999 5.84667 3.27999 6.08667L3.56002 6.22666C3.72668 6.31333 3.84001 6.48667 3.84001 6.67334V13.0067C3.84001 13.28 4.06667 13.5067 4.34001 13.5067H11.6733C11.9467 13.5067 12.1733 13.28 12.1733 13.0067V6.67334C12.1733 6.54001 12.2267 6.41334 12.32 6.32001L13.0933 5.54667C13.36 5.28 13.5067 4.92666 13.5067 4.55332L13.5 4.54667Z" fill="#3B3B3E"/>
</svg>
