<svg width="16" height="16" viewBox="0 0 16 16" fill="none" xmlns="http://www.w3.org/2000/svg">
<path d="M11.6867 7.64665C11.882 7.84198 11.882 8.15867 11.6867 8.354C11.5894 8.45134 11.4613 8.50065 11.3333 8.50065C11.2053 8.50065 11.0773 8.452 10.98 8.354L8.5 5.87402V14C8.5 14.276 8.276 14.5 8 14.5C7.724 14.5 7.5 14.276 7.5 14V5.87402L5.02002 8.354C4.82469 8.54934 4.508 8.54934 4.31266 8.354C4.11733 8.15867 4.11733 7.84198 4.31266 7.64665L7.646 4.31331C7.692 4.26731 7.74726 4.23074 7.80859 4.2054C7.93059 4.15474 8.06859 4.15474 8.19059 4.2054C8.25193 4.23074 8.30735 4.26731 8.35335 4.31331L11.6867 7.64665ZM12 1.5H4C3.724 1.5 3.5 1.724 3.5 2C3.5 2.276 3.724 2.5 4 2.5H12C12.276 2.5 12.5 2.276 12.5 2C12.5 1.724 12.276 1.5 12 1.5Z" fill="#3B3B3E"/>
</svg>
