<svg width="16" height="16" viewBox="0 0 16 16" fill="none" xmlns="http://www.w3.org/2000/svg">
<path d="M12.0001 4.16699H8.87411L7.02075 2.31366C6.92675 2.21966 6.80007 2.16699 6.6674 2.16699H4.00073C2.38873 2.16699 1.50073 3.05499 1.50073 4.66699V11.3337C1.50073 12.9457 2.38873 13.8337 4.00073 13.8337H12.0007C13.6127 13.8337 14.5007 12.9457 14.5007 11.3337V6.66699C14.5001 5.05499 13.6121 4.16699 12.0001 4.16699ZM13.5001 11.3337C13.5001 12.385 13.0514 12.8337 12.0001 12.8337H4.00008C2.94875 12.8337 2.50008 12.385 2.50008 11.3337V4.66699C2.50008 3.61566 2.94875 3.16699 4.00008 3.16699H6.45939L8.31274 5.02032C8.40674 5.11432 8.53343 5.16699 8.6661 5.16699H11.9994C13.0508 5.16699 13.4994 5.61566 13.4994 6.66699V11.3337H13.5001ZM8.00008 6.16699C6.43741 6.16699 5.16675 7.43766 5.16675 9.00033C5.16675 10.563 6.43741 11.8337 8.00008 11.8337C9.56275 11.8337 10.8334 10.563 10.8334 9.00033C10.8334 7.43766 9.56275 6.16699 8.00008 6.16699ZM8.00008 7.16699C8.32341 7.16699 8.62345 7.25833 8.88745 7.40566L6.40601 9.88765C6.25867 9.62365 6.16675 9.32366 6.16675 9.00033C6.16675 7.98966 6.98875 7.16699 8.00008 7.16699ZM8.00008 10.8337C7.67675 10.8337 7.37671 10.7423 7.11271 10.595L9.59416 8.113C9.74149 8.377 9.83341 8.67699 9.83341 9.00033C9.83341 10.011 9.01141 10.8337 8.00008 10.8337Z" fill="#3B3B3E"/>
</svg>
