<svg width="16" height="16" viewBox="0 0 16 16" fill="none" xmlns="http://www.w3.org/2000/svg">
<path d="M14.4601 5.49977C14.4201 4.6531 14.2534 3.56644 13.3468 2.65978C12.4401 1.75311 11.3534 1.58644 10.5068 1.54644C9.5001 1.49311 6.50677 1.48644 5.50677 1.54644C4.6601 1.58644 3.57343 1.74644 2.66677 2.65978C1.7601 3.56644 1.59342 4.6531 1.55342 5.49977C1.49342 6.50644 1.49342 9.49977 1.55342 10.4998C1.59342 11.3464 1.75343 12.4331 2.66677 13.3464C3.5801 14.2531 4.66677 14.4198 5.50677 14.4598C6.01344 14.4864 7.01342 14.4998 8.01342 14.4998C9.01342 14.4998 10.0068 14.4864 10.5068 14.4598C11.3534 14.4198 12.4401 14.2598 13.3534 13.3464C14.2601 12.4398 14.4268 11.3531 14.4668 10.5064C14.5268 9.49977 14.5268 6.5131 14.4668 5.50643L14.4601 5.49977ZM13.4601 10.4464C13.4068 11.4531 13.1668 12.1064 12.6334 12.6331C12.1068 13.1598 11.4534 13.4064 10.4468 13.4531C9.46677 13.5064 6.5401 13.5064 5.54677 13.4531C4.54677 13.3998 3.89344 13.1531 3.3601 12.6264C2.83344 12.0998 2.58676 11.4464 2.5401 10.4398C2.48676 9.47977 2.48676 6.50644 2.5401 5.53977C2.59343 4.5331 2.83344 3.87977 3.3601 3.3531C3.88677 2.82644 4.54677 2.57977 5.54677 2.53311C6.0401 2.50644 7.01343 2.49311 7.99342 2.49311C8.97342 2.49311 9.95344 2.50644 10.4468 2.53311C11.4534 2.58644 12.1068 2.82643 12.6334 3.35977C13.1601 3.88643 13.4068 4.53978 13.4534 5.54644C13.5068 6.53311 13.5068 9.45977 13.4534 10.4464H13.4601ZM8.0001 4.8331C6.25343 4.8331 4.83343 6.2531 4.83343 7.99977C4.83343 9.74644 6.25343 11.1664 8.0001 11.1664C9.74676 11.1664 11.1668 9.74644 11.1668 7.99977C11.1668 6.2531 9.74676 4.8331 8.0001 4.8331ZM8.0001 10.1664C6.80676 10.1664 5.83343 9.1931 5.83343 7.99977C5.83343 6.80644 6.80676 5.8331 8.0001 5.8331C9.19343 5.8331 10.1668 6.80644 10.1668 7.99977C10.1668 9.1931 9.19343 10.1664 8.0001 10.1664ZM12.3468 4.3331C12.3468 4.69977 12.0468 4.99977 11.6801 4.99977C11.3134 4.99977 11.0134 4.69977 11.0134 4.3331C11.0134 3.96644 11.3068 3.66644 11.6801 3.66644C12.0468 3.66644 12.3468 3.96644 12.3468 4.3331Z" fill="#3B3B3E"/>
</svg>
