<svg width="16" height="16" viewBox="0 0 16 16" fill="none" xmlns="http://www.w3.org/2000/svg">
<path d="M7.83337 13.4128V7.5908C8.00937 7.55547 8.18274 7.5028 8.34941 7.43014L12.786 5.4588C12.8093 5.56414 12.8334 5.66949 12.8334 5.78015V7.33281C12.8334 7.60881 13.0574 7.83281 13.3334 7.83281C13.6094 7.83281 13.8334 7.60881 13.8334 7.33281V5.78015C13.8334 5.35549 13.72 4.95081 13.5253 4.59214C13.524 4.58948 13.5247 4.58682 13.5234 4.58415C13.5207 4.57748 13.5147 4.57348 13.5114 4.56681C13.2527 4.10348 12.8541 3.72081 12.3501 3.49748L8.35201 1.71881C7.70468 1.42881 6.96334 1.42814 6.31734 1.71814L2.31734 3.49748C1.81334 3.72148 1.41406 4.10415 1.1554 4.56749C1.15206 4.57415 1.14602 4.57815 1.14335 4.58482C1.14202 4.58749 1.14273 4.59015 1.1414 4.59282C0.946731 4.95148 0.833374 5.35614 0.833374 5.7808V10.2188C0.833374 11.2048 1.41601 12.1008 2.31734 12.5015L6.31539 14.2795C6.64139 14.4261 6.98874 14.5001 7.33541 14.5001C7.61741 14.5001 7.89938 14.4515 8.17004 14.3535C8.43004 14.2595 8.56401 13.9728 8.47001 13.7135C8.37668 13.4548 8.09137 13.3215 7.83337 13.4128ZM6.72538 2.63147C7.11205 2.45747 7.5554 2.45814 7.9434 2.63214L11.9434 4.41148C12.0554 4.46148 12.1533 4.53081 12.248 4.60415L10.4294 5.41215L5.59273 3.13548L6.72538 2.63147ZM4.38538 3.67214L9.22139 5.94881L7.94674 6.51548C7.55674 6.68548 7.10935 6.68481 6.72335 6.51681L2.41874 4.60415C2.51274 4.53081 2.61135 4.46148 2.72335 4.41148L4.38538 3.67214ZM2.72335 11.5875C2.18268 11.3475 1.83337 10.8095 1.83337 10.2181V5.78015C1.83337 5.66949 1.8574 5.56414 1.88074 5.4588L6.32068 7.43148C6.48668 7.50348 6.65869 7.55613 6.83402 7.5908V13.4041C6.79736 13.3908 6.76008 13.3828 6.72408 13.3668L2.72335 11.5875ZM13.3334 11.3328C13.3334 11.6088 13.1094 11.8328 12.8334 11.8328H12.5V12.1661C12.5 12.4421 12.276 12.6661 12 12.6661C11.724 12.6661 11.5 12.4421 11.5 12.1661V11.8328H11.1667C10.8907 11.8328 10.6667 11.6088 10.6667 11.3328C10.6667 11.0568 10.8907 10.8328 11.1667 10.8328H11.5V10.4995C11.5 10.2235 11.724 9.99947 12 9.99947C12.276 9.99947 12.5 10.2235 12.5 10.4995V10.8328H12.8334C13.1094 10.8328 13.3334 11.0561 13.3334 11.3328ZM12 8.16614C10.254 8.16614 8.83337 9.58681 8.83337 11.3328C8.83337 13.0788 10.254 14.4995 12 14.4995C13.746 14.4995 15.1667 13.0788 15.1667 11.3328C15.1667 9.58681 13.746 8.16614 12 8.16614ZM12 13.4995C10.8054 13.4995 9.83337 12.5275 9.83337 11.3328C9.83337 10.1381 10.8054 9.16614 12 9.16614C13.1947 9.16614 14.1667 10.1381 14.1667 11.3328C14.1667 12.5275 13.1947 13.4995 12 13.4995Z" fill="#3B3B3E"/>
</svg>
