<svg width="16" height="16" viewBox="0 0 16 16" fill="none" xmlns="http://www.w3.org/2000/svg">
<path d="M13.0198 9.68669L8.35312 14.3534C8.30712 14.3994 8.25184 14.4359 8.19118 14.4613C8.13051 14.4866 8.0651 14.5 7.99977 14.5C7.93444 14.5 7.8697 14.4866 7.80836 14.4613C7.74703 14.4359 7.69242 14.3994 7.64642 14.3534L2.97975 9.68669C2.78442 9.49135 2.78442 9.17466 2.97975 8.97933C3.17509 8.784 3.49178 8.784 3.68711 8.97933L7.50042 12.7926V2C7.50042 1.724 7.72442 1.5 8.00042 1.5C8.27642 1.5 8.50042 1.724 8.50042 2V12.7926L12.3137 8.97933C12.5091 8.784 12.8258 8.784 13.0211 8.97933C13.2164 9.17466 13.2151 9.49135 13.0198 9.68669Z" fill="#3B3B3E"/>
</svg>
