<svg width="16" height="16" viewBox="0 0 16 16" fill="none" xmlns="http://www.w3.org/2000/svg">
<path d="M8.00008 6.16699C6.43741 6.16699 5.16675 7.43766 5.16675 9.00033C5.16675 10.563 6.43741 11.8337 8.00008 11.8337C9.56275 11.8337 10.8334 10.563 10.8334 9.00033C10.8334 7.43766 9.56275 6.16699 8.00008 6.16699ZM8.00008 10.8337C6.98875 10.8337 6.16675 10.011 6.16675 9.00033C6.16675 7.98966 6.98875 7.16699 8.00008 7.16699C9.01141 7.16699 9.83341 7.98966 9.83341 9.00033C9.83341 10.011 9.01141 10.8337 8.00008 10.8337ZM8.97876 9.27167C9.17409 9.467 9.17409 9.78365 8.97876 9.97898C8.88143 10.0763 8.75341 10.1257 8.62541 10.1257C8.49741 10.1257 8.36939 10.077 8.27205 9.97966L7.64673 9.355C7.55273 9.261 7.50008 9.13366 7.50008 9.001V8.12632C7.50008 7.85032 7.72408 7.62632 8.00008 7.62632C8.27608 7.62632 8.50008 7.85032 8.50008 8.12632V8.79433L8.97876 9.27167ZM12.0001 4.16699H8.87411L7.02075 2.31366C6.92675 2.21966 6.80007 2.16699 6.6674 2.16699H4.00073C2.38873 2.16699 1.50073 3.05499 1.50073 4.66699V11.3337C1.50073 12.9457 2.38873 13.8337 4.00073 13.8337H12.0007C13.6127 13.8337 14.5007 12.9457 14.5007 11.3337V6.66699C14.5001 5.05499 13.6121 4.16699 12.0001 4.16699ZM13.5001 11.3337C13.5001 12.385 13.0514 12.8337 12.0001 12.8337H4.00008C2.94875 12.8337 2.50008 12.385 2.50008 11.3337V4.66699C2.50008 3.61566 2.94875 3.16699 4.00008 3.16699H6.45939L8.31274 5.02032C8.40674 5.11432 8.53343 5.16699 8.6661 5.16699H11.9994C13.0508 5.16699 13.4994 5.61566 13.4994 6.66699V11.3337H13.5001Z" fill="#3B3B3E"/>
</svg>
