<svg width="16" height="16" viewBox="0 0 16 16" fill="none" xmlns="http://www.w3.org/2000/svg">
<path d="M7.83325 12.667C7.83325 12.943 7.60925 13.167 7.33325 13.167H3.33325C1.72125 13.167 0.833252 12.279 0.833252 10.667V4.66699C0.833252 3.05499 1.72125 2.16699 3.33325 2.16699H11.3333C12.9453 2.16699 13.8333 3.05499 13.8333 4.66699V6.66699C13.8333 6.94299 13.6093 7.16699 13.3333 7.16699C13.0573 7.16699 12.8333 6.94299 12.8333 6.66699V4.66699C12.8333 3.61566 12.3846 3.16699 11.3333 3.16699H3.33325C2.28192 3.16699 1.83325 3.61566 1.83325 4.66699V10.667C1.83325 11.7183 2.28192 12.167 3.33325 12.167H7.33325C7.60925 12.167 7.83325 12.391 7.83325 12.667ZM11.4039 5.03966C11.2419 4.817 10.93 4.76632 10.7053 4.92966L7.43058 7.31099C7.37192 7.35299 7.29394 7.35299 7.23527 7.31099L3.96053 4.92966C3.7352 4.76632 3.42396 4.81766 3.26196 5.03966C3.0993 5.263 3.14866 5.57632 3.37199 5.73832L6.64657 8.11966C6.8519 8.26899 7.0926 8.34366 7.3326 8.34366C7.5726 8.34366 7.81397 8.26899 8.01864 8.11966L11.2932 5.73832C11.5172 5.57566 11.5672 5.263 11.4039 5.03966ZM12.8333 10.8337H12.4999V10.5003C12.4999 10.2243 12.2759 10.0003 11.9999 10.0003C11.7239 10.0003 11.4999 10.2243 11.4999 10.5003V10.8337H11.1666C10.8906 10.8337 10.6666 11.0577 10.6666 11.3337C10.6666 11.6097 10.8906 11.8337 11.1666 11.8337H11.4999V12.167C11.4999 12.443 11.7239 12.667 11.9999 12.667C12.2759 12.667 12.4999 12.443 12.4999 12.167V11.8337H12.8333C13.1093 11.8337 13.3333 11.6097 13.3333 11.3337C13.3333 11.0577 13.1093 10.8337 12.8333 10.8337ZM15.1666 11.3337C15.1666 13.0797 13.7459 14.5003 11.9999 14.5003C10.2539 14.5003 8.83325 13.0797 8.83325 11.3337C8.83325 9.58766 10.2539 8.16699 11.9999 8.16699C13.7459 8.16699 15.1666 9.58766 15.1666 11.3337ZM14.1666 11.3337C14.1666 10.139 13.1946 9.16699 11.9999 9.16699C10.8053 9.16699 9.83325 10.139 9.83325 11.3337C9.83325 12.5283 10.8053 13.5003 11.9999 13.5003C13.1946 13.5003 14.1666 12.5283 14.1666 11.3337Z" fill="#3B3B3E"/>
</svg>
