<svg width="16" height="16" viewBox="0 0 16 16" fill="none" xmlns="http://www.w3.org/2000/svg">
<path d="M14 7.16699H14.5V4.66699C14.5 3.05499 13.612 2.16699 12 2.16699H4C2.388 2.16699 1.5 3.05499 1.5 4.66699V7.16699H2C2.45933 7.16699 2.83333 7.54099 2.83333 8.00033C2.83333 8.45966 2.45933 8.83366 2 8.83366H1.5V11.3337C1.5 12.9457 2.388 13.8337 4 13.8337H12C13.612 13.8337 14.5 12.9457 14.5 11.3337V8.83366H14C13.5407 8.83366 13.1667 8.45966 13.1667 8.00033C13.1667 7.54099 13.5407 7.16699 14 7.16699ZM13.5 9.76432V11.3337C13.5 12.385 13.0513 12.8337 12 12.8337H10.5V11.0003C10.5 10.7243 10.276 10.5003 10 10.5003C9.724 10.5003 9.5 10.7243 9.5 11.0003V12.8337H4C2.94867 12.8337 2.5 12.385 2.5 11.3337V9.76432C3.26867 9.54632 3.83333 8.83833 3.83333 8.00033C3.83333 7.16233 3.26867 6.45433 2.5 6.23633V4.66699C2.5 3.61566 2.94867 3.16699 4 3.16699H9.5V5.00033C9.5 5.27633 9.724 5.50033 10 5.50033C10.276 5.50033 10.5 5.27633 10.5 5.00033V3.16699H12C13.0513 3.16699 13.5 3.61566 13.5 4.66699V6.23633C12.7313 6.45433 12.1667 7.16233 12.1667 8.00033C12.1667 8.83833 12.7313 9.54632 13.5 9.76432ZM10.5 7.16699V8.83366C10.5 9.10966 10.276 9.33366 10 9.33366C9.724 9.33366 9.5 9.10966 9.5 8.83366V7.16699C9.5 6.89099 9.724 6.66699 10 6.66699C10.276 6.66699 10.5 6.89099 10.5 7.16699Z" fill="#3B3B3E"/>
</svg>
