<svg width="16" height="16" viewBox="0 0 16 16" fill="none" xmlns="http://www.w3.org/2000/svg">
<path d="M11.75 1.5H4.25C2.47667 1.5 1.5 2.47667 1.5 4.25V11.75C1.5 13.5233 2.47667 14.5 4.25 14.5H11.75C13.5233 14.5 14.5 13.5233 14.5 11.75V4.25C14.5 2.47667 13.5233 1.5 11.75 1.5ZM13.5 11.75C13.5 12.9767 12.9767 13.5 11.75 13.5H4.25C3.02333 13.5 2.5 12.9767 2.5 11.75V4.25C2.5 3.02333 3.02333 2.5 4.25 2.5H11.75C12.9767 2.5 13.5 3.02333 13.5 4.25V11.75ZM10.5 6.66667C10.5 5.65533 9.678 4.83333 8.66667 4.83333H6C5.724 4.83333 5.5 5.05733 5.5 5.33333V10.6667C5.5 10.9427 5.724 11.1667 6 11.1667C6.276 11.1667 6.5 10.9427 6.5 10.6667V8.5H8.35726L9.55273 10.89C9.64073 11.0653 9.81665 11.1667 10.0007 11.1667C10.0753 11.1667 10.152 11.1499 10.2233 11.1139C10.4706 10.9899 10.5706 10.69 10.4473 10.4434L9.3986 8.34603C10.0459 8.06203 10.5 7.41733 10.5 6.66667ZM8.66667 7.5H6.5V5.83333H8.66667C9.126 5.83333 9.5 6.20733 9.5 6.66667C9.5 7.126 9.126 7.5 8.66667 7.5Z" fill="#3B3B3E"/>
</svg>
