<svg width="16" height="16" viewBox="0 0 16 16" fill="none" xmlns="http://www.w3.org/2000/svg">
<path d="M14.9593 7.60168C14.688 7.13835 14.204 6.86167 13.666 6.861H13.1667V6.66634C13.1667 5.05434 12.2787 4.16634 10.6667 4.16634H6.87402L5.68734 2.97968C5.59334 2.88568 5.46665 2.83301 5.33398 2.83301H3.33398C1.72198 2.83301 0.833984 3.72101 0.833984 5.33301V12.3303C0.833984 12.333 0.835286 12.335 0.835286 12.3377C0.835286 12.5977 0.90269 12.8577 1.04069 13.093C1.31269 13.5564 1.79664 13.833 2.33464 13.833H10.8553C11.762 13.833 12.5987 13.3423 13.04 12.553L14.9753 9.08567C15.2359 8.61834 15.2306 8.06368 14.9593 7.60168ZM3.33333 3.83301H5.12598L6.31266 5.01967C6.40666 5.11367 6.53335 5.16634 6.66602 5.16634H10.666C11.7173 5.16634 12.166 5.61501 12.166 6.66634V6.861L5.14665 6.85702C5.14598 6.85702 5.14536 6.85702 5.14469 6.85702C4.23736 6.85702 3.39998 7.34768 2.95931 8.13835L1.83333 10.1583V5.33301C1.83333 4.28167 2.282 3.83301 3.33333 3.83301ZM14.1021 8.59835L12.1667 12.0657C11.9027 12.539 11.4 12.8337 10.8553 12.8337H2.33464C2.0753 12.8337 1.94665 12.6617 1.90332 12.5877C1.86065 12.5143 1.77395 12.3203 1.89795 12.0977L3.83333 8.62634C4.09733 8.15234 4.60001 7.85834 5.14535 7.85834C5.14601 7.85834 5.14598 7.85834 5.14665 7.85834L13.666 7.86302C13.9253 7.86302 14.054 8.03568 14.0967 8.10968C14.14 8.18101 14.2267 8.37568 14.1021 8.59835Z" fill="#3B3B3E"/>
</svg>
