<svg width="16" height="16" viewBox="0 0 16 16" fill="none" xmlns="http://www.w3.org/2000/svg">
<path d="M14.0981 2.84373C10.8135 2.18707 9.67615 1.61386 8.23682 0.887191C8.09615 0.817191 7.90955 0.825802 7.76888 0.896469C6.30888 1.62047 5.15486 2.19307 1.90153 2.84373C1.66753 2.8904 1.49951 3.09581 1.49951 3.33381V7.25975C1.49951 12.7491 6.78214 14.7884 7.84147 15.1417C7.8928 15.1591 7.94618 15.1678 7.99951 15.1678C8.05285 15.1678 8.10622 15.1591 8.15755 15.1417C9.21689 14.7884 14.4995 12.7491 14.4995 7.25975V3.33381C14.5002 3.09581 14.3321 2.88973 14.0981 2.84373ZM13.5002 7.25975C13.5002 11.8364 9.2215 13.6998 8.00016 14.1378C6.77883 13.6998 2.50016 11.8357 2.50016 7.25975V3.7425C5.4235 3.13183 6.62542 2.57788 8.01009 1.89321C9.31209 2.54721 10.5515 3.12516 13.5002 3.7425V7.25975ZM5.16683 7.27847C5.16683 8.62647 6.26349 9.72313 7.61149 9.72313C8.10482 9.72313 8.56278 9.57378 8.94678 9.32111L9.97949 10.3538C10.0768 10.4512 10.2048 10.5005 10.3328 10.5005C10.4608 10.5005 10.5889 10.4518 10.6862 10.3538C10.8815 10.1585 10.8815 9.8418 10.6862 9.64647L9.65283 8.6131C9.90483 8.22844 10.0542 7.7705 10.0542 7.27716C10.0542 5.92983 8.95752 4.8325 7.61019 4.8325C6.26352 4.83384 5.16683 5.93047 5.16683 7.27847ZM9.0555 7.27847C9.0555 8.07513 8.40749 8.72313 7.61149 8.72313C6.81482 8.72313 6.16683 8.07513 6.16683 7.27847C6.16683 6.4818 6.81482 5.83381 7.61149 5.83381C8.40749 5.83381 9.0555 6.4818 9.0555 7.27847Z" fill="#3B3B3E"/>
</svg>
