<svg width="16" height="16" viewBox="0 0 16 16" fill="none" xmlns="http://www.w3.org/2000/svg">
<path d="M11.1667 7.33301C11.1667 7.60901 10.9427 7.83301 10.6667 7.83301H5.33333C5.05733 7.83301 4.83333 7.60901 4.83333 7.33301C4.83333 7.05701 5.05733 6.83301 5.33333 6.83301H10.6667C10.9427 6.83301 11.1667 7.05701 11.1667 7.33301ZM8.66667 9.49967H5.33333C5.05733 9.49967 4.83333 9.72367 4.83333 9.99967C4.83333 10.2757 5.05733 10.4997 5.33333 10.4997H8.66667C8.94267 10.4997 9.16667 10.2757 9.16667 9.99967C9.16667 9.72367 8.94267 9.49967 8.66667 9.49967ZM14.5 4.55033V12.449C14.5 14.201 13.5347 15.1663 11.7814 15.1663H4.21859C2.46525 15.1663 1.5 14.201 1.5 12.449V4.55033C1.5 2.79833 2.46525 1.83301 4.21859 1.83301H4.53727V1.33301C4.53727 1.05701 4.76127 0.833008 5.03727 0.833008C5.31327 0.833008 5.53727 1.05701 5.53727 1.33301V1.83301H7.5V1.33301C7.5 1.05701 7.724 0.833008 8 0.833008C8.276 0.833008 8.5 1.05701 8.5 1.33301V1.83301H10.4627V1.33301C10.4627 1.05701 10.6867 0.833008 10.9627 0.833008C11.2387 0.833008 11.4627 1.05701 11.4627 1.33301V1.83301H11.7814C13.5347 1.83301 14.5 2.79833 14.5 4.55033ZM13.5 4.55033C13.5 3.34633 12.9861 2.83301 11.7814 2.83301H11.4627V3.33301C11.4627 3.60901 11.2387 3.83301 10.9627 3.83301C10.6867 3.83301 10.4627 3.60901 10.4627 3.33301V2.83301H8.5V3.33301C8.5 3.60901 8.276 3.83301 8 3.83301C7.724 3.83301 7.5 3.60901 7.5 3.33301V2.83301H5.53727V3.33301C5.53727 3.60901 5.31327 3.83301 5.03727 3.83301C4.76127 3.83301 4.53727 3.60901 4.53727 3.33301V2.83301H4.21859C3.01392 2.83301 2.5 3.347 2.5 4.55033V12.449C2.5 13.653 3.01392 14.1663 4.21859 14.1663H11.7814C12.9861 14.1663 13.5 13.6523 13.5 12.449V4.55033Z" fill="#3B3B3E"/>
</svg>
