<svg width="16" height="16" viewBox="0 0 16 16" fill="none" xmlns="http://www.w3.org/2000/svg">
<path d="M14.0027 4.63367C13.6201 4.36567 13.1321 4.34898 12.7327 4.59098L11.0707 5.59633C10.9981 5.63967 10.9061 5.61899 10.8594 5.54899L8.96604 2.68632C8.7507 2.36099 8.39005 2.16699 8.00005 2.16699C7.61005 2.16699 7.2494 2.36099 7.03407 2.68632L5.14271 5.547C5.09538 5.61833 5.00074 5.63966 4.92807 5.59499L3.26804 4.59098C2.86804 4.34898 2.38073 4.36567 1.99806 4.63367C1.61473 4.90167 1.43272 5.35366 1.52605 5.82499L2.60874 10.6677L2.23939 12.8623C2.19873 13.1043 2.26674 13.351 2.42474 13.539C2.5834 13.7263 2.81537 13.8343 3.06137 13.8343H12.9394C13.1854 13.8343 13.4167 13.727 13.5761 13.539C13.7347 13.3517 13.8021 13.105 13.7614 12.8623L13.3921 10.6677L14.4747 5.82499C14.4754 5.82099 14.4761 5.81699 14.4774 5.81299C14.5681 5.35366 14.3861 4.90233 14.0027 4.63367ZM3.25807 12.8337L3.53871 11.167H12.462L12.7427 12.8337H3.25807ZM12.4794 10.167H3.52138L2.50404 5.619C2.48604 5.52766 2.53805 5.47565 2.57138 5.45298C2.60338 5.42965 2.6707 5.399 2.7507 5.447L4.41005 6.45099C4.94471 6.77432 5.63207 6.619 5.97674 6.099L7.86805 3.23832C7.95005 3.11432 8.05005 3.11432 8.13205 3.23832L10.0247 6.10032C10.3687 6.62032 11.0547 6.77433 11.5881 6.45233L13.2501 5.447C13.3294 5.399 13.3967 5.42965 13.4294 5.45298C13.4614 5.47565 13.5127 5.52632 13.4974 5.61499L12.4794 10.167Z" fill="#3B3B3E"/>
</svg>
