<svg width="16" height="16" viewBox="0 0 16 16" fill="none" xmlns="http://www.w3.org/2000/svg">
<path d="M11.0135 9.63968C11.2068 9.83301 11.2068 10.153 11.0135 10.3463L10.6335 10.7263C10.3535 11.0063 9.97349 11.1663 9.57349 11.1663H5.98682C5.71348 11.1663 5.48682 10.9397 5.48682 10.6663C5.48682 10.393 5.71348 10.1663 5.98682 10.1663H9.57349C9.70682 10.1663 9.83351 10.113 9.92684 10.0197L10.3068 9.63968C10.5002 9.44635 10.8202 9.44635 11.0135 9.63968V9.63968ZM15.1668 7.99967C15.1668 11.953 11.9535 15.1663 8.00016 15.1663C4.04683 15.1663 0.833496 11.953 0.833496 7.99967C0.833496 4.04634 4.04683 0.833008 8.00016 0.833008C11.9535 0.833008 15.1668 4.04634 15.1668 7.99967ZM14.1668 7.99967C14.1668 4.59967 11.4002 1.83301 8.00016 1.83301C4.60016 1.83301 1.8335 4.59967 1.8335 7.99967C1.8335 11.3997 4.60016 14.1663 8.00016 14.1663C11.4002 14.1663 14.1668 11.3997 14.1668 7.99967ZM11.0002 6.16634H9.3335C9.06016 6.16634 8.8335 6.39301 8.8335 6.66634C8.8335 6.93967 9.06016 7.16634 9.3335 7.16634H10.1802C10.1802 7.21967 10.1668 7.27301 10.1668 7.33301C10.1668 8.00634 10.5202 8.49967 11.0002 8.49967C11.4802 8.49967 11.8335 8.00634 11.8335 7.33301C11.8335 6.65967 11.4802 6.16634 11.0002 6.16634ZM5.50016 7.33301C5.50016 8.00634 5.8535 8.49967 6.3335 8.49967C6.8135 8.49967 7.16683 8.00634 7.16683 7.33301C7.16683 6.65967 6.8135 6.16634 6.3335 6.16634H4.66683C4.3935 6.16634 4.16683 6.39301 4.16683 6.66634C4.16683 6.93967 4.3935 7.16634 4.66683 7.16634H5.51351C5.51351 7.21967 5.50016 7.27301 5.50016 7.33301Z" fill="#3B3B3E"/>
</svg>
