<svg width="16" height="16" viewBox="0 0 16 16" fill="none" xmlns="http://www.w3.org/2000/svg">
<path d="M10.0002 7.16634C9.52016 7.16634 9.16683 6.67301 9.16683 5.99967C9.16683 5.32634 9.52016 4.83301 10.0002 4.83301C10.4802 4.83301 10.8335 5.32634 10.8335 5.99967C10.8335 6.67301 10.4802 7.16634 10.0002 7.16634ZM6.8335 5.99967C6.8335 5.32634 6.48016 4.83301 6.00016 4.83301C5.52016 4.83301 5.16683 5.32634 5.16683 5.99967C5.16683 6.67301 5.52016 7.16634 6.00016 7.16634C6.48016 7.16634 6.8335 6.67301 6.8335 5.99967ZM15.1668 7.99967C15.1668 4.04634 11.9535 0.833008 8.00016 0.833008C4.04683 0.833008 0.833496 4.04634 0.833496 7.99967C0.833496 11.953 4.04683 15.1663 8.00016 15.1663C11.9535 15.1663 15.1668 11.953 15.1668 7.99967ZM14.1668 7.99967C14.1668 11.3997 11.4002 14.1663 8.00016 14.1663C4.60016 14.1663 1.8335 11.3997 1.8335 7.99967C1.8335 4.59967 4.60016 1.83301 8.00016 1.83301C11.4002 1.83301 14.1668 4.59967 14.1668 7.99967ZM11.1335 9.79967C11.1668 9.55301 11.1002 9.31301 10.9402 9.12634C10.7802 8.94634 10.5535 8.83967 10.3135 8.83967H5.70015C5.46015 8.83967 5.22682 8.94634 5.07349 9.12634C4.91349 9.31301 4.84017 9.55967 4.88017 9.79967C5.10683 11.3397 6.45349 12.4997 8.01349 12.4997C9.57349 12.4997 10.9202 11.3397 11.1468 9.79967H11.1335ZM10.1068 9.83301C9.88016 10.793 9.00683 11.4997 8.00016 11.4997C6.9935 11.4997 6.12016 10.793 5.89349 9.83301H10.1135H10.1068Z" fill="#3B3B3E"/>
</svg>
