<svg width="16" height="16" viewBox="0 0 16 16" fill="none" xmlns="http://www.w3.org/2000/svg">
<path d="M13 4.16667H12.29C12.4194 3.91533 12.5 3.63467 12.5 3.33333C12.5 2.32267 11.678 1.5 10.6667 1.5C10.1187 1.5 9.60335 1.74399 9.24935 2.17399C9.23135 2.19666 8.482 3.19265 8 3.83398C7.51733 3.19198 6.76735 2.19466 6.74601 2.16866C6.39668 1.74333 5.88133 1.5 5.33333 1.5C4.322 1.5 3.5 2.32267 3.5 3.33333C3.5 3.63467 3.57996 3.91533 3.70996 4.16667H3C2.17333 4.16667 1.5 4.83933 1.5 5.66667V8C1.5 8.276 1.724 8.5 2 8.5H2.16667V12C2.16667 13.612 3.05467 14.5 4.66667 14.5H11.3333C12.9453 14.5 13.8333 13.612 13.8333 12V8.5H14C14.276 8.5 14.5 8.276 14.5 8V5.66667C14.5 4.83933 13.8267 4.16667 13 4.16667ZM13.5 5.66667V7.5H8.5V5.16667H10.6667H13C13.2753 5.16667 13.5 5.39067 13.5 5.66667ZM10.026 2.80465C10.1873 2.60865 10.4147 2.5 10.6667 2.5C11.126 2.5 11.5 2.874 11.5 3.33333C11.5 3.79267 11.126 4.16667 10.6667 4.16667H9.0013C9.4513 3.568 9.99463 2.84531 10.026 2.80465ZM4.5 3.33333C4.5 2.874 4.874 2.5 5.33333 2.5C5.58533 2.5 5.81267 2.60799 5.96533 2.79399C6.002 2.84132 6.54736 3.56667 6.9987 4.16667H5.33333C4.874 4.16667 4.5 3.79267 4.5 3.33333ZM2.5 5.66667C2.5 5.39067 2.72467 5.16667 3 5.16667H5.33333H7.5V7.5H2.5V5.66667ZM3.16667 12V8.5H7.5V13.5H4.66667C3.61533 13.5 3.16667 13.0513 3.16667 12ZM12.8333 12C12.8333 13.0513 12.3847 13.5 11.3333 13.5H8.5V8.5H12.8333V12Z" fill="#3B3B3E"/>
</svg>
