<svg width="16" height="16" viewBox="0 0 16 16" fill="none" xmlns="http://www.w3.org/2000/svg">
<path d="M14.4998 8.99985C14.4998 10.9299 12.9298 12.4999 10.9998 12.4999H3.99983C3.72383 12.4999 3.49983 12.2759 3.49983 11.9999C3.49983 11.7239 3.72383 11.4999 3.99983 11.4999H10.9998C12.3778 11.4999 13.4998 10.3785 13.4998 8.99985C13.4998 7.62119 12.3778 6.49985 10.9998 6.49985H3.20719L4.35384 7.6465C4.54917 7.84183 4.54917 8.15852 4.35384 8.35386C4.2565 8.45119 4.12848 8.5005 4.00048 8.5005C3.87248 8.5005 3.74446 8.45186 3.64713 8.35386L1.64713 6.35386C1.60113 6.30786 1.56455 6.25259 1.53922 6.19126C1.48855 6.06926 1.48855 5.93126 1.53922 5.80926C1.56455 5.74793 1.60113 5.6925 1.64713 5.6465L3.64713 3.6465C3.84246 3.45117 4.15915 3.45117 4.35449 3.6465C4.54982 3.84183 4.54982 4.15852 4.35449 4.35386L3.20784 5.5005H11.0005C12.9298 5.49984 14.4998 7.06985 14.4998 8.99985Z" fill="#3B3B3E"/>
</svg>
