<svg width="16" height="16" viewBox="0 0 16 16" fill="none" xmlns="http://www.w3.org/2000/svg">
<path d="M8.00016 0.833008C4.04683 0.833008 0.833496 4.04634 0.833496 7.99967C0.833496 11.953 4.04683 15.1663 8.00016 15.1663C11.9535 15.1663 15.1668 11.953 15.1668 7.99967C15.1668 4.04634 11.9535 0.833008 8.00016 0.833008ZM8.00016 14.1663C4.60016 14.1663 1.8335 11.3997 1.8335 7.99967C1.8335 4.59967 4.60016 1.83301 8.00016 1.83301C11.4002 1.83301 14.1668 4.59967 14.1668 7.99967C14.1668 11.3997 11.4002 14.1663 8.00016 14.1663ZM9.16683 6.66634C9.16683 5.99301 9.52016 5.49967 10.0002 5.49967C10.4802 5.49967 10.8335 5.99301 10.8335 6.66634C10.8335 7.33967 10.4802 7.83301 10.0002 7.83301C9.52016 7.83301 9.16683 7.33967 9.16683 6.66634ZM5.16683 6.66634C5.16683 5.99301 5.52016 5.49967 6.00016 5.49967C6.48016 5.49967 6.8335 5.99301 6.8335 6.66634C6.8335 7.33967 6.48016 7.83301 6.00016 7.83301C5.52016 7.83301 5.16683 7.33967 5.16683 6.66634ZM11.0668 11.033C11.2335 11.253 11.1868 11.5663 10.9668 11.733C10.8802 11.7997 10.7735 11.833 10.6668 11.833C10.5135 11.833 10.3668 11.7663 10.2668 11.633C9.84682 11.0797 9.24683 10.6997 8.5735 10.5663C8.30016 10.513 8.12683 10.253 8.18017 9.97967C8.2335 9.70634 8.50016 9.53301 8.76682 9.58634C9.68682 9.76634 10.5068 10.2797 11.0735 11.0397L11.0668 11.033ZM5.64017 8.65301C5.46017 8.83968 4.56683 9.82635 4.56683 10.693C4.56683 11.513 5.1935 12.1597 6.00016 12.1597C6.80683 12.1597 7.43349 11.513 7.43349 10.693C7.43349 9.81968 6.54016 8.83968 6.36016 8.65301C6.17349 8.45301 5.82683 8.45301 5.63349 8.65301H5.64017ZM6.00016 11.1663C5.74683 11.1663 5.56683 10.973 5.56683 10.6997C5.56683 10.473 5.76683 10.1063 6.00016 9.78634C6.2335 10.1063 6.43349 10.4663 6.43349 10.6997C6.43349 10.973 6.2535 11.1663 6.00016 11.1663Z" fill="#3B3B3E"/>
</svg>
