<svg width="16" height="16" viewBox="0 0 16 16" fill="none" xmlns="http://www.w3.org/2000/svg">
<path d="M14.2735 8.83288C14.4202 8.23288 14.5002 7.61288 14.5002 6.99955C14.5002 5.13288 13.8069 3.33954 12.5469 1.95287C12.1335 1.50621 11.5135 1.37287 10.9669 1.61954C10.4069 1.86621 10.0802 2.42621 10.1335 3.03954C10.1535 3.24621 10.1669 3.45288 10.1669 3.65955C10.1669 4.47955 10.0135 5.25955 9.73351 5.97955C9.23351 5.95955 8.73352 6.13955 8.36018 6.51288L6.52685 8.34622C6.15352 8.71955 5.97352 9.21288 5.99352 9.71288C5.06686 10.0729 4.04021 10.2129 3.05354 10.1262C2.42687 10.0662 1.8802 10.3929 1.62686 10.9595C1.3802 11.5129 1.51353 12.1329 1.9602 12.5395C3.34686 13.7995 5.13353 14.4862 7.0002 14.4862C7.60686 14.4862 8.2202 14.4062 8.83353 14.2529C9.0402 14.3662 9.2602 14.4462 9.5002 14.4729C9.57353 14.4795 9.6402 14.4862 9.71353 14.4862C10.2002 14.4862 10.6602 14.2996 11.0069 13.9462L13.9669 10.9862C14.3669 10.5862 14.5535 10.0395 14.4935 9.48621C14.4669 9.24621 14.3868 9.02622 14.2735 8.82622V8.83288ZM11.1335 2.95287C11.1069 2.67287 11.3135 2.55955 11.3735 2.53288C11.4469 2.49955 11.6402 2.43955 11.8135 2.62621C12.9002 3.82621 13.5069 5.37955 13.5069 6.99955C13.5069 7.33288 13.4735 7.66621 13.4202 8.00621L10.6869 6.29954C11.0069 5.46621 11.1735 4.58621 11.1735 3.66621C11.1735 3.42621 11.1602 3.19287 11.1402 2.95287H11.1335ZM2.63354 11.8129C2.44687 11.6395 2.50686 11.4462 2.54019 11.3729C2.56686 11.3129 2.67353 11.1062 2.9602 11.1329C4.07353 11.2329 5.23354 11.0795 6.3002 10.6729L8.01354 13.4129C6.08021 13.7062 4.0802 13.1262 2.63354 11.8129ZM13.2602 10.2929L10.3002 13.2529C10.1202 13.4329 9.86685 13.5195 9.61352 13.4929C9.36019 13.4662 9.13353 13.3262 9.0002 13.1062L7.12019 10.0929C6.91353 9.75955 6.96019 9.33954 7.24019 9.05954L9.07352 7.22621C9.23352 7.06621 9.44686 6.97955 9.66019 6.97955C9.81352 6.97955 9.96688 7.01955 10.1002 7.10621L13.1135 8.98621C13.3335 9.11954 13.4735 9.34621 13.5002 9.59954C13.5269 9.85287 13.4402 10.0995 13.2602 10.2795V10.2929Z" fill="#3B3B3E"/>
</svg>
