<svg width="16" height="16" viewBox="0 0 16 16" fill="none" xmlns="http://www.w3.org/2000/svg">
<path d="M14.0607 4.02002L11.98 1.93929C11.7006 1.65996 11.3139 1.5 10.9193 1.5H4C2.388 1.5 1.5 2.388 1.5 4V12C1.5 13.612 2.388 14.5 4 14.5H12C13.612 14.5 14.5 13.612 14.5 12V5.08073C14.5 4.68606 14.34 4.29935 14.0607 4.02002ZM10.8333 13.5H5.16667V9.66667C5.16667 9.274 5.274 9.16667 5.66667 9.16667H10.3333C10.726 9.16667 10.8333 9.274 10.8333 9.66667V13.5ZM13.5 12C13.5 13.0513 13.0513 13.5 12 13.5H11.8333V9.66667C11.8333 8.72733 11.2727 8.16667 10.3333 8.16667H5.66667C4.72733 8.16667 4.16667 8.72733 4.16667 9.66667V13.5H4C2.94867 13.5 2.5 13.0513 2.5 12V4C2.5 2.94867 2.94867 2.5 4 2.5H10.9193C11.0506 2.5 11.18 2.55331 11.2726 2.64665L13.3534 4.72738C13.4467 4.82071 13.5 4.9494 13.5 5.08073V12ZM10.1667 5.33333C10.1667 5.60933 9.94267 5.83333 9.66667 5.83333H6.33333C6.05733 5.83333 5.83333 5.60933 5.83333 5.33333C5.83333 5.05733 6.05733 4.83333 6.33333 4.83333H9.66667C9.94267 4.83333 10.1667 5.05733 10.1667 5.33333Z" fill="#3B3B3E"/>
</svg>
