<svg width="16" height="16" viewBox="0 0 16 16" fill="none" xmlns="http://www.w3.org/2000/svg">
<path d="M11.3334 2.83333H11.1534C11.0887 1.99733 10.5474 1.5 9.66675 1.5H6.33341C5.45275 1.5 4.91143 1.99733 4.84676 2.83333H4.66675C3.05475 2.83333 2.16675 3.72133 2.16675 5.33333V12C2.16675 13.612 3.05475 14.5 4.66675 14.5H11.3334C12.9454 14.5 13.8334 13.612 13.8334 12V5.33333C13.8334 3.72133 12.9454 2.83333 11.3334 2.83333ZM5.83341 3C5.83341 2.60733 5.94075 2.5 6.33341 2.5H9.66675C10.0594 2.5 10.1667 2.60733 10.1667 3V3.66667C10.1667 4.05933 10.0594 4.16667 9.66675 4.16667H6.33341C5.94075 4.16667 5.83341 4.05933 5.83341 3.66667V3ZM12.8334 12C12.8334 13.0513 12.3847 13.5 11.3334 13.5H4.66675C3.61541 13.5 3.16675 13.0513 3.16675 12V5.33333C3.16675 4.282 3.61541 3.83333 4.66675 3.83333H4.84676C4.91143 4.66933 5.45275 5.16667 6.33341 5.16667H9.66675C10.5474 5.16667 11.0887 4.66933 11.1534 3.83333H11.3334C12.3847 3.83333 12.8334 4.282 12.8334 5.33333V12ZM11.5001 8C11.5001 8.276 11.2761 8.5 11.0001 8.5H8.33341C8.05741 8.5 7.83341 8.276 7.83341 8C7.83341 7.724 8.05741 7.5 8.33341 7.5H11.0001C11.2761 7.5 11.5001 7.724 11.5001 8ZM11.5001 10.6667C11.5001 10.9427 11.2761 11.1667 11.0001 11.1667H8.33341C8.05741 11.1667 7.83341 10.9427 7.83341 10.6667C7.83341 10.3907 8.05741 10.1667 8.33341 10.1667H11.0001C11.2761 10.1667 11.5001 10.3907 11.5001 10.6667ZM6.68677 7.20199C6.8821 7.39732 6.8821 7.71401 6.68677 7.90934L5.7981 8.79801C5.7041 8.89201 5.57741 8.94466 5.44474 8.94466C5.31208 8.94466 5.18472 8.892 5.09139 8.79867L4.64673 8.354C4.4514 8.15867 4.4514 7.84198 4.64673 7.64665C4.84206 7.45131 5.15875 7.45131 5.35409 7.64665L5.44539 7.738L5.98071 7.20268C6.17538 7.00668 6.49143 7.00665 6.68677 7.20199ZM6.68677 9.86865C6.8821 10.064 6.8821 10.3807 6.68677 10.576L5.7981 11.4647C5.7041 11.5587 5.57741 11.6113 5.44474 11.6113C5.31208 11.6113 5.18472 11.5587 5.09139 11.4653L4.64673 11.0207C4.4514 10.8253 4.4514 10.5086 4.64673 10.3133C4.84206 10.118 5.15875 10.118 5.35409 10.3133L5.44539 10.4047L5.98071 9.86934C6.17538 9.67334 6.49143 9.67332 6.68677 9.86865Z" fill="#3B3B3E"/>
</svg>
