<svg width="16" height="16" viewBox="0 0 16 16" fill="none" xmlns="http://www.w3.org/2000/svg">
<path d="M14.3532 1.6465C14.1586 1.45183 13.8419 1.4505 13.6459 1.6465L10.2019 5.08986L9.0886 2.84784C8.88393 2.42784 8.46658 2.16717 7.99924 2.16717C7.53191 2.16717 7.11452 2.42787 6.91119 2.84454L5.61855 5.44985C5.58455 5.51651 5.5266 5.53853 5.48793 5.54453L2.5012 5.97784C2.05653 6.04251 1.6946 6.3492 1.55727 6.7772C1.41993 7.20186 1.5332 7.6572 1.85186 7.96453L4.01324 10.0592C4.05191 10.0978 4.07054 10.1519 4.05987 10.2065L3.84657 11.4432L1.64589 13.6439C1.45056 13.8392 1.45056 14.1558 1.64589 14.3512C1.74322 14.4485 1.87124 14.4979 1.99924 14.4979C2.12724 14.4979 2.25526 14.4492 2.3526 14.3512L14.3526 2.35386C14.5486 2.15852 14.5486 1.84183 14.3532 1.6465ZM4.71392 9.34584L2.54726 7.24587C2.48659 7.18787 2.49719 7.11919 2.50852 7.08319C2.52052 7.04519 2.55392 6.97986 2.64459 6.96653L5.63393 6.53253C6.01393 6.47519 6.34257 6.23652 6.51324 5.89386L7.80792 3.28452C7.85858 3.18119 7.94926 3.16587 7.99859 3.16587C8.04793 3.16587 8.13857 3.18119 8.19057 3.28786L9.45522 5.83453L5.05255 10.2365C5.07121 9.91117 4.95659 9.58784 4.71392 9.34584ZM14.4425 6.7772C14.5799 7.20186 14.4666 7.65719 14.1479 7.96519L11.9813 10.0639C11.9479 10.0979 11.9292 10.1518 11.9385 10.1998L12.4332 13.0799C12.5112 13.5359 12.3272 13.9892 11.9519 14.2632C11.7379 14.4199 11.4859 14.4999 11.2326 14.4999C11.0406 14.4999 10.8479 14.4545 10.6692 14.3619L8.08054 13.0005C8.02854 12.9752 7.96921 12.9759 7.91054 13.0052L5.33192 14.3539C5.09992 14.4752 4.8492 14.5205 4.60186 14.4859C4.32853 14.4465 4.13921 14.1939 4.17787 13.9199C4.21721 13.6465 4.46654 13.4552 4.74387 13.4959C4.79054 13.5025 4.83721 13.4839 4.86855 13.4679L7.45522 12.1145C7.80522 11.9392 8.19591 11.9399 8.53725 12.1105L11.1325 13.4745C11.2392 13.5298 11.3285 13.4798 11.3625 13.4552C11.4025 13.4258 11.4672 13.3598 11.4479 13.2485L10.9546 10.3759C10.8859 10.0092 11.0079 9.62319 11.2812 9.35052L13.4533 7.24587C13.5139 7.1872 13.5033 7.11852 13.4919 7.08319C13.4799 7.04519 13.4465 6.97986 13.3552 6.96653L12.2772 6.81386C12.0039 6.77519 11.8139 6.52184 11.8526 6.24851C11.8913 5.97518 12.1425 5.78454 12.4179 5.82387L13.4979 5.97719C13.9432 6.04252 14.3052 6.34853 14.4425 6.7772Z" fill="#3B3B3E"/>
</svg>
