<svg width="16" height="16" viewBox="0 0 16 16" fill="none" xmlns="http://www.w3.org/2000/svg">
<path d="M14 13.5H13.5V4C13.5 2.388 12.612 1.5 11 1.5H5C3.388 1.5 2.5 2.388 2.5 4V13.5H2C1.724 13.5 1.5 13.724 1.5 14C1.5 14.276 1.724 14.5 2 14.5H14C14.276 14.5 14.5 14.276 14.5 14C14.5 13.724 14.276 13.5 14 13.5ZM9 13.5H7V11.6667C7 11.274 7.10733 11.1667 7.5 11.1667H8.5C8.89267 11.1667 9 11.274 9 11.6667V13.5ZM10 13.5V11.6667C10 10.7273 9.43933 10.1667 8.5 10.1667H7.5C6.56067 10.1667 6 10.7273 6 11.6667V13.5H3.5V4C3.5 2.94867 3.94867 2.5 5 2.5H11C12.0513 2.5 12.5 2.94867 12.5 4V13.5H10ZM10.5 8.66667C10.5 8.94267 10.276 9.16667 10 9.16667H9.33333C9.05733 9.16667 8.83333 8.94267 8.83333 8.66667C8.83333 8.39067 9.05733 8.16667 9.33333 8.16667H10C10.276 8.16667 10.5 8.39067 10.5 8.66667ZM7.16667 8.66667C7.16667 8.94267 6.94267 9.16667 6.66667 9.16667H6C5.724 9.16667 5.5 8.94267 5.5 8.66667C5.5 8.39067 5.724 8.16667 6 8.16667H6.66667C6.94267 8.16667 7.16667 8.39067 7.16667 8.66667ZM10.5 6.66667C10.5 6.94267 10.276 7.16667 10 7.16667H9.33333C9.05733 7.16667 8.83333 6.94267 8.83333 6.66667C8.83333 6.39067 9.05733 6.16667 9.33333 6.16667H10C10.276 6.16667 10.5 6.39067 10.5 6.66667ZM7.16667 6.66667C7.16667 6.94267 6.94267 7.16667 6.66667 7.16667H6C5.724 7.16667 5.5 6.94267 5.5 6.66667C5.5 6.39067 5.724 6.16667 6 6.16667H6.66667C6.94267 6.16667 7.16667 6.39067 7.16667 6.66667ZM10.5 4.66667C10.5 4.94267 10.276 5.16667 10 5.16667H9.33333C9.05733 5.16667 8.83333 4.94267 8.83333 4.66667C8.83333 4.39067 9.05733 4.16667 9.33333 4.16667H10C10.276 4.16667 10.5 4.39067 10.5 4.66667ZM7.16667 4.66667C7.16667 4.94267 6.94267 5.16667 6.66667 5.16667H6C5.724 5.16667 5.5 4.94267 5.5 4.66667C5.5 4.39067 5.724 4.16667 6 4.16667H6.66667C6.94267 4.16667 7.16667 4.39067 7.16667 4.66667Z" fill="#3B3B3E"/>
</svg>
