<svg width="16" height="16" viewBox="0 0 16 16" fill="none" xmlns="http://www.w3.org/2000/svg">
<path d="M12 13.8337H4C2.388 13.8337 1.5 12.9457 1.5 11.3337V4.66699C1.5 3.05499 2.388 2.16699 4 2.16699H6.66667C6.79933 2.16699 6.92669 2.21966 7.02002 2.31366L8.87337 4.16699H12C13.612 4.16699 14.5 5.05499 14.5 6.66699V11.3337C14.5 12.9457 13.612 13.8337 12 13.8337ZM4 3.16699C2.94867 3.16699 2.5 3.61566 2.5 4.66699V11.3337C2.5 12.385 2.94867 12.8337 4 12.8337H12C13.0513 12.8337 13.5 12.385 13.5 11.3337V6.66699C13.5 5.61566 13.0513 5.16699 12 5.16699H8.66667C8.534 5.16699 8.40665 5.11432 8.31331 5.02032L6.45996 3.16699H4ZM8 11.8337C7.94467 11.8337 7.88926 11.8243 7.83659 11.8063C6.70726 11.4157 5.5 10.4057 5.5 8.74099V7.44499C5.5 7.22299 5.64671 7.02765 5.85938 6.96499C6.87338 6.66765 7.34472 6.44433 7.77539 6.22233C7.91939 6.14833 8.09069 6.14832 8.23535 6.22365C8.66202 6.44632 9.12666 6.66834 10.1253 6.927C10.3453 6.98434 10.5 7.18299 10.5 7.41099V8.74099C10.5 10.4057 9.29275 11.4157 8.16341 11.8063C8.11074 11.8243 8.05533 11.8337 8 11.8337ZM6.5 7.81565V8.74099C6.5 10.0163 7.542 10.6017 8 10.7977C8.458 10.6023 9.5 10.0163 9.5 8.74099V7.79299C8.856 7.60899 8.4166 7.43099 8.0026 7.22699C7.58327 7.43232 7.152 7.61099 6.5 7.81565Z" fill="#3B3B3E"/>
</svg>
