<svg width="16" height="16" viewBox="0 0 16 16" fill="none" xmlns="http://www.w3.org/2000/svg">
<path d="M8.00016 15.1663C4.04683 15.1663 0.833496 11.953 0.833496 7.99967C0.833496 4.04634 4.04683 0.833008 8.00016 0.833008C11.9535 0.833008 15.1668 4.04634 15.1668 7.99967C15.1668 11.953 11.9535 15.1663 8.00016 15.1663ZM8.00016 1.83301C4.60016 1.83301 1.8335 4.59967 1.8335 7.99967C1.8335 11.3997 4.60016 14.1663 8.00016 14.1663C11.4002 14.1663 14.1668 11.3997 14.1668 7.99967C14.1668 4.59967 11.4002 1.83301 8.00016 1.83301ZM10.5002 10.6663C10.5002 10.393 10.2735 10.1663 10.0002 10.1663H6.00016C5.72683 10.1663 5.50016 10.393 5.50016 10.6663C5.50016 10.9397 5.72683 11.1663 6.00016 11.1663H10.0002C10.2735 11.1663 10.5002 10.9397 10.5002 10.6663ZM11.1668 6.66634C11.1668 6.39301 10.9402 6.16634 10.6668 6.16634H9.3335C9.06016 6.16634 8.8335 6.39301 8.8335 6.66634C8.8335 6.93967 9.06016 7.16634 9.3335 7.16634H10.6668C10.9402 7.16634 11.1668 6.93967 11.1668 6.66634ZM7.16683 6.66634C7.16683 6.39301 6.94016 6.16634 6.66683 6.16634H5.3335C5.06016 6.16634 4.8335 6.39301 4.8335 6.66634C4.8335 6.93967 5.06016 7.16634 5.3335 7.16634H6.66683C6.94016 7.16634 7.16683 6.93967 7.16683 6.66634Z" fill="#3B3B3E"/>
</svg>
