<svg width="16" height="16" viewBox="0 0 16 16" fill="none" xmlns="http://www.w3.org/2000/svg">
<path d="M9.16351 13.898C9.19684 14.172 9.00214 14.4213 8.72747 14.4547C7.5808 14.5933 6.35211 14.3947 5.28411 13.898C5.11878 13.8193 4.91278 13.8133 4.70078 13.8813L3.04143 14.4387C2.91877 14.4793 2.79402 14.4993 2.67002 14.4993C2.36535 14.4993 2.06947 14.3793 1.84547 14.1553C1.52947 13.84 1.4208 13.382 1.5608 12.9607L2.12135 11.2933C2.18668 11.0887 2.18076 10.8833 2.1041 10.7213C1.70943 9.87265 1.5027 8.93268 1.5027 7.99935C1.5027 4.41602 4.41806 1.5 8.0014 1.5C11.5854 1.5 14.5007 4.41535 14.5007 7.99935C14.5007 8.27535 14.2767 8.49935 14.0007 8.49935C13.7247 8.49935 13.5007 8.27535 13.5007 7.99935C13.5007 4.96735 11.0341 2.5 8.0014 2.5C4.9694 2.5 2.5027 4.96668 2.5027 7.99935C2.5027 8.78802 2.67804 9.58199 3.00937 10.2953C3.19337 10.6827 3.21735 11.1487 3.07268 11.604L2.51002 13.278C2.48202 13.3613 2.52483 13.4206 2.55283 13.4486C2.58083 13.4766 2.64072 13.5193 2.72405 13.4913L4.38942 12.932C4.85208 12.7847 5.31939 12.8073 5.71005 12.9947C6.60472 13.41 7.64083 13.58 8.60817 13.4626C8.8735 13.43 9.13084 13.624 9.16351 13.898ZM14.0001 11.5H10.6668C10.3908 11.5 10.1668 11.724 10.1668 12C10.1668 12.276 10.3908 12.5 10.6668 12.5H14.0001C14.2761 12.5 14.5001 12.276 14.5001 12C14.5001 11.724 14.2761 11.5 14.0001 11.5ZM5.33343 6.16667C5.05743 6.16667 4.83343 6.39067 4.83343 6.66667C4.83343 6.94267 5.05743 7.16667 5.33343 7.16667H10.6668C10.9428 7.16667 11.1668 6.94267 11.1668 6.66667C11.1668 6.39067 10.9428 6.16667 10.6668 6.16667H5.33343ZM8.66676 8.83333H5.33343C5.05743 8.83333 4.83343 9.05733 4.83343 9.33333C4.83343 9.60933 5.05743 9.83333 5.33343 9.83333H8.66676C8.94276 9.83333 9.16676 9.60933 9.16676 9.33333C9.16676 9.05733 8.94276 8.83333 8.66676 8.83333Z" fill="#3B3B3E"/>
</svg>
