<svg width="16" height="16" viewBox="0 0 16 16" fill="none" xmlns="http://www.w3.org/2000/svg">
<path d="M11.3686 14.4996H4.63195C3.58462 14.4996 2.68795 13.7517 2.49995 12.7217L1.52998 7.39963C1.41132 6.74563 1.65597 6.077 2.16931 5.655L6.62398 1.99298C7.42198 1.33698 8.57996 1.33698 9.37796 1.99298L13.8326 5.655C14.346 6.077 14.5906 6.74563 14.472 7.39963L13.502 12.7217C13.3127 13.7517 12.4159 14.4996 11.3686 14.4996ZM7.99995 2.5003C7.73595 2.5003 7.47325 2.58828 7.25858 2.76495L2.80399 6.42698C2.56999 6.61898 2.45863 6.92302 2.5133 7.22035L3.48327 12.5416C3.58394 13.0963 4.0673 13.499 4.6313 13.499H11.368C11.932 13.499 12.4147 13.0963 12.516 12.5416L13.486 7.21962C13.54 6.92229 13.4286 6.61898 13.1953 6.42698L8.7406 2.76495C8.5266 2.58895 8.26329 2.5003 7.99995 2.5003ZM13.0086 12.6316H13.0153H13.0086ZM7.99995 12.1663C7.94595 12.1663 7.89196 12.1576 7.83996 12.1396C6.54796 11.7023 5.16662 10.5697 5.16662 8.70302V7.22165C5.16662 6.99899 5.3146 6.80302 5.5286 6.74102C6.71727 6.39969 7.27125 6.14164 7.77925 5.88564C7.92258 5.8143 8.09062 5.81435 8.23262 5.88702C8.73529 6.14435 9.28333 6.39965 10.4567 6.69765C10.6787 6.75365 10.8333 6.95368 10.8333 7.18235V8.70229C10.8333 10.569 9.45261 11.7016 8.15995 12.139C8.10795 12.1576 8.05395 12.1663 7.99995 12.1663ZM6.16662 7.59568V8.70367C6.16662 10.2343 7.47195 10.9189 7.99995 11.1329C8.52795 10.9189 9.83329 10.2343 9.83329 8.70367V7.56833C9.03595 7.34767 8.50662 7.13699 8.00329 6.89166C7.49196 7.13832 6.97262 7.35034 6.16662 7.59568Z" fill="#3B3B3E"/>
</svg>
