<svg width="16" height="16" viewBox="0 0 16 16" fill="none" xmlns="http://www.w3.org/2000/svg">
<path d="M12.6668 2.16634H7.82015C7.75548 1.33101 7.21416 0.833008 6.3335 0.833008H4.3335C3.44016 0.833008 2.89542 1.34433 2.84342 2.20166C1.54476 2.37033 0.833496 3.22701 0.833496 4.66634V11.9997C0.833496 13.6117 1.7215 14.4997 3.3335 14.4997C3.6095 14.4997 3.8335 14.2757 3.8335 13.9997C3.8335 13.7237 3.6095 13.4997 3.3335 13.4997C2.28216 13.4997 1.8335 13.051 1.8335 11.9997V4.66634C1.8335 3.80301 2.14283 3.35099 2.8335 3.21566V10.9997C2.8335 11.939 3.39416 12.4997 4.3335 12.4997H4.8335V12.6663C4.8335 13.4937 5.50683 14.1663 6.3335 14.1663H7.00016C7.2755 14.1663 7.50016 14.3903 7.50016 14.6663C7.50016 14.9423 7.72416 15.1663 8.00016 15.1663C8.27616 15.1663 8.50016 14.9423 8.50016 14.6663C8.50016 13.839 7.82683 13.1663 7.00016 13.1663H6.3335C6.05816 13.1663 5.8335 12.9423 5.8335 12.6663V12.4997H6.3335C7.27283 12.4997 7.8335 11.939 7.8335 10.9997V3.16634H12.6668C13.7182 3.16634 14.1668 3.61501 14.1668 4.66634V11.9997C14.1668 13.051 13.7182 13.4997 12.6668 13.4997H10.0002C9.72416 13.4997 9.50016 13.7237 9.50016 13.9997C9.50016 14.2757 9.72416 14.4997 10.0002 14.4997H12.6668C14.2788 14.4997 15.1668 13.6117 15.1668 11.9997V4.66634C15.1668 3.05434 14.2788 2.16634 12.6668 2.16634ZM6.8335 10.9997C6.8335 11.3923 6.72616 11.4997 6.3335 11.4997H4.3335C3.94083 11.4997 3.8335 11.3923 3.8335 10.9997V2.33301C3.8335 1.94034 3.94083 1.83301 4.3335 1.83301H6.3335C6.72616 1.83301 6.8335 1.94034 6.8335 2.33301V10.9997ZM12.0002 7.83301C12.8268 7.83301 13.5002 7.16034 13.5002 6.33301C13.5002 5.50567 12.8268 4.83301 12.0002 4.83301H10.0002C9.1735 4.83301 8.50016 5.50567 8.50016 6.33301C8.50016 7.16034 9.1735 7.83301 10.0002 7.83301H12.0002ZM9.50016 6.33301C9.50016 6.05701 9.72483 5.83301 10.0002 5.83301H12.0002C12.2755 5.83301 12.5002 6.05701 12.5002 6.33301C12.5002 6.60901 12.2755 6.83301 12.0002 6.83301H10.0002C9.72483 6.83301 9.50016 6.60901 9.50016 6.33301ZM12.6668 9.33301C12.6668 9.70101 12.3682 9.99967 12.0002 9.99967C11.6322 9.99967 11.3335 9.70101 11.3335 9.33301C11.3335 8.96501 11.6322 8.66634 12.0002 8.66634C12.3682 8.66634 12.6668 8.96501 12.6668 9.33301ZM10.0002 8.66634C10.3682 8.66634 10.6668 8.96501 10.6668 9.33301C10.6668 9.70101 10.3682 9.99967 10.0002 9.99967C9.63216 9.99967 9.3335 9.70101 9.3335 9.33301C9.3335 8.96501 9.63216 8.66634 10.0002 8.66634ZM12.6668 11.333C12.6668 11.701 12.3682 11.9997 12.0002 11.9997C11.6322 11.9997 11.3335 11.701 11.3335 11.333C11.3335 10.965 11.6322 10.6663 12.0002 10.6663C12.3682 10.6663 12.6668 10.965 12.6668 11.333ZM9.3335 11.333C9.3335 10.965 9.63216 10.6663 10.0002 10.6663C10.3682 10.6663 10.6668 10.965 10.6668 11.333C10.6668 11.701 10.3682 11.9997 10.0002 11.9997C9.63216 11.9997 9.3335 11.701 9.3335 11.333Z" fill="#3B3B3E"/>
</svg>
