<svg width="16" height="16" viewBox="0 0 16 16" fill="none" xmlns="http://www.w3.org/2000/svg">
<g clip-path="url(#clip0_36251_9056)">
<path d="M10.6664 0.833008C9.09308 0.833008 7.79309 1.99301 7.55309 3.49967H2.66641C2.47974 3.49967 2.30642 3.60634 2.21976 3.77301C2.13309 3.93968 2.15309 4.14634 2.26643 4.29967L6.16641 9.49967V12.5197C6.00641 12.7463 5.53308 13.2863 4.37308 13.833C4.07308 13.973 3.91974 14.293 3.99307 14.6197C4.0664 14.9397 4.34642 15.1663 4.67308 15.1663H8.66641C8.99308 15.1663 9.27976 14.9397 9.34642 14.6197C9.41976 14.2997 9.25975 13.973 8.96642 13.833C7.80642 13.2863 7.33308 12.7463 7.17308 12.5197V9.49967L9.19974 6.79967C9.65307 7.03967 10.1531 7.16634 10.6731 7.16634C12.4198 7.16634 13.8398 5.74634 13.8398 3.99967C13.8398 2.25301 12.4198 0.833008 10.6731 0.833008H10.6664ZM9.66641 4.49967L6.66641 8.49967L3.66641 4.49967H9.66641ZM7.51309 14.1663H5.81973C6.19307 13.9197 6.46641 13.6797 6.66641 13.473C6.86641 13.6797 7.13976 13.9197 7.51309 14.1663ZM10.6664 6.16634C10.3664 6.16634 10.0731 6.09967 9.80643 5.97967L11.0664 4.29967C11.1797 4.14634 11.1997 3.94634 11.1131 3.77301C11.0264 3.59968 10.8531 3.49967 10.6664 3.49967H8.5664C8.79306 2.54634 9.64641 1.83301 10.6664 1.83301C11.8597 1.83301 12.8331 2.80634 12.8331 3.99967C12.8331 5.19301 11.8597 6.16634 10.6664 6.16634V6.16634Z" fill="#3B3B3E"/>
</g>
<defs>
<clipPath id="clip0_36251_9056">
<rect width="16" height="16" fill="white"/>
</clipPath>
</defs>
</svg>
