<svg width="16" height="16" viewBox="0 0 16 16" fill="none" xmlns="http://www.w3.org/2000/svg">
<path d="M12 1.5H4C2.388 1.5 1.5 2.388 1.5 4V9.33333C1.5 10.9453 2.388 11.8333 4 11.8333H6.16667V13.5H5C4.724 13.5 4.5 13.724 4.5 14C4.5 14.276 4.724 14.5 5 14.5H11C11.276 14.5 11.5 14.276 11.5 14C11.5 13.724 11.276 13.5 11 13.5H9.83333V11.8333H12C13.612 11.8333 14.5 10.9453 14.5 9.33333V4C14.5 2.388 13.612 1.5 12 1.5ZM4 2.5H12C13.0513 2.5 13.5 2.94867 13.5 4V8.16667H2.5V4C2.5 2.94867 2.94867 2.5 4 2.5ZM8.83333 13.5H7.16667V11.8333H8.83333V13.5ZM12 10.8333H9.33333H6.66667H4C2.94867 10.8333 2.5 10.3847 2.5 9.33333V9.16667H13.5V9.33333C13.5 10.3847 13.0513 10.8333 12 10.8333Z" fill="#3B3B3E"/>
</svg>
