<svg width="16" height="16" viewBox="0 0 16 16" fill="none" xmlns="http://www.w3.org/2000/svg">
<path d="M13.8332 11.3337C13.8332 11.6097 13.6092 11.8337 13.3332 11.8337H11.8332V13.3337C11.8332 13.6097 11.6092 13.8337 11.3332 13.8337C11.0572 13.8337 10.8332 13.6097 10.8332 13.3337V11.8337H9.33317C9.05717 11.8337 8.83317 11.6097 8.83317 11.3337C8.83317 11.0577 9.05717 10.8337 9.33317 10.8337H10.8332V9.33366C10.8332 9.05766 11.0572 8.83366 11.3332 8.83366C11.6092 8.83366 11.8332 9.05766 11.8332 9.33366V10.8337H13.3332C13.6092 10.8337 13.8332 11.0577 13.8332 11.3337ZM13.8332 3.66699V5.66699C13.8332 6.60633 13.2725 7.16699 12.3332 7.16699H10.3332C9.39384 7.16699 8.83317 6.60633 8.83317 5.66699V3.66699C8.83317 2.72766 9.39384 2.16699 10.3332 2.16699H12.3332C13.2725 2.16699 13.8332 2.72766 13.8332 3.66699ZM12.8332 3.66699C12.8332 3.27433 12.7258 3.16699 12.3332 3.16699H10.3332C9.9405 3.16699 9.83317 3.27433 9.83317 3.66699V5.66699C9.83317 6.05966 9.9405 6.16699 10.3332 6.16699H12.3332C12.7258 6.16699 12.8332 6.05966 12.8332 5.66699V3.66699ZM7.1665 3.66699V5.66699C7.1665 6.60633 6.60584 7.16699 5.6665 7.16699H3.6665C2.72717 7.16699 2.1665 6.60633 2.1665 5.66699V3.66699C2.1665 2.72766 2.72717 2.16699 3.6665 2.16699H5.6665C6.60584 2.16699 7.1665 2.72766 7.1665 3.66699ZM6.1665 3.66699C6.1665 3.27433 6.05917 3.16699 5.6665 3.16699H3.6665C3.27384 3.16699 3.1665 3.27433 3.1665 3.66699V5.66699C3.1665 6.05966 3.27384 6.16699 3.6665 6.16699H5.6665C6.05917 6.16699 6.1665 6.05966 6.1665 5.66699V3.66699ZM7.1665 10.3337V12.3337C7.1665 13.273 6.60584 13.8337 5.6665 13.8337H3.6665C2.72717 13.8337 2.1665 13.273 2.1665 12.3337V10.3337C2.1665 9.39433 2.72717 8.83366 3.6665 8.83366H5.6665C6.60584 8.83366 7.1665 9.39433 7.1665 10.3337ZM6.1665 10.3337C6.1665 9.94099 6.05917 9.83366 5.6665 9.83366H3.6665C3.27384 9.83366 3.1665 9.94099 3.1665 10.3337V12.3337C3.1665 12.7263 3.27384 12.8337 3.6665 12.8337H5.6665C6.05917 12.8337 6.1665 12.7263 6.1665 12.3337V10.3337Z" fill="#3B3B3E"/>
</svg>
