<svg width="16" height="16" viewBox="0 0 16 16" fill="none" xmlns="http://www.w3.org/2000/svg">
<g clip-path="url(#clip0_36251_7697)">
<path d="M8.00016 7.16721C9.0115 7.16721 9.8335 6.34521 9.8335 5.33388C9.8335 4.32255 9.0115 3.50055 8.00016 3.50055C6.98883 3.50055 6.16683 4.32255 6.16683 5.33388C6.16683 6.34521 6.98883 7.16721 8.00016 7.16721ZM8.00016 4.50055C8.4595 4.50055 8.8335 4.87455 8.8335 5.33388C8.8335 5.79321 8.4595 6.16721 8.00016 6.16721C7.54083 6.16721 7.16683 5.79321 7.16683 5.33388C7.16683 4.87455 7.54083 4.50055 8.00016 4.50055ZM14.6668 14.1672H14.5002V8.33388C14.5002 7.39455 13.9395 6.83388 13.0002 6.83388H12.5002V4.71523L13.0575 5.08453C13.1422 5.14053 13.2382 5.16786 13.3328 5.16786C13.4948 5.16786 13.6535 5.08924 13.7502 4.94391C13.9028 4.71391 13.8401 4.40321 13.6095 4.25055L8.83219 1.08583C8.32686 0.749167 7.67351 0.748516 7.16951 1.08518L2.39087 4.25055C2.1602 4.40321 2.0975 4.71324 2.25016 4.94391C2.40283 5.17391 2.71212 5.2372 2.94279 5.08453L3.50016 4.71523V6.83388H3.00016C2.06083 6.83388 1.50016 7.39455 1.50016 8.33388V14.1672H1.3335C1.0575 14.1672 0.833496 14.3912 0.833496 14.6672C0.833496 14.9432 1.0575 15.1672 1.3335 15.1672H14.6668C14.9428 15.1672 15.1668 14.9432 15.1668 14.6672C15.1668 14.3912 14.9428 14.1672 14.6668 14.1672ZM2.50016 8.33388C2.50016 7.94121 2.6075 7.83388 3.00016 7.83388H3.50016V14.1672H2.50016V8.33388ZM4.50016 4.05247L7.72282 1.91786C7.89149 1.80586 8.10881 1.80518 8.27881 1.91852L11.5002 4.05247V14.1672H9.8335V12.6672C9.8335 11.6559 9.0115 10.8339 8.00016 10.8339C6.98883 10.8339 6.16683 11.6559 6.16683 12.6672V14.1672H4.50016V4.05247V4.05247ZM7.16683 14.1672V12.6672C7.16683 12.2079 7.54083 11.8339 8.00016 11.8339C8.4595 11.8339 8.8335 12.2079 8.8335 12.6672V14.1672H7.16683ZM12.5002 14.1672V7.83388H13.0002C13.3928 7.83388 13.5002 7.94121 13.5002 8.33388V14.1672H12.5002ZM10.0002 8.50055C10.2762 8.50055 10.5002 8.72455 10.5002 9.00055C10.5002 9.27655 10.2762 9.50055 10.0002 9.50055C9.72416 9.50055 9.50016 9.27655 9.50016 9.00055C9.50016 8.72455 9.72416 8.50055 10.0002 8.50055ZM8.50016 9.00055C8.50016 9.27655 8.27616 9.50055 8.00016 9.50055C7.72416 9.50055 7.50016 9.27655 7.50016 9.00055C7.50016 8.72455 7.72416 8.50055 8.00016 8.50055C8.27616 8.50055 8.50016 8.72455 8.50016 9.00055ZM6.00016 9.50055C5.72416 9.50055 5.50016 9.27655 5.50016 9.00055C5.50016 8.72455 5.72416 8.50055 6.00016 8.50055C6.27616 8.50055 6.50016 8.72455 6.50016 9.00055C6.50016 9.27655 6.27616 9.50055 6.00016 9.50055Z" fill="#3B3B3E"/>
</g>
<defs>
<clipPath id="clip0_36251_7697">
<rect width="16" height="16" fill="white"/>
</clipPath>
</defs>
</svg>
