<svg width="16" height="16" viewBox="0 0 16 16" fill="none" xmlns="http://www.w3.org/2000/svg">
<path d="M13.5194 5.45638C13.7274 6.05905 13.8333 6.69034 13.8333 7.33301C13.8333 10.745 10.702 12.813 8.63002 14.1816L8.27735 14.4157C8.19335 14.4717 8.09668 14.4997 8.00002 14.4997C7.90402 14.4997 7.80802 14.4717 7.72469 14.417L7.52069 14.283C6.97269 13.923 6.35201 13.5149 5.72401 13.0376C5.50401 12.8709 5.46135 12.5571 5.62802 12.3371C5.79468 12.1171 6.10801 12.0744 6.32868 12.241C6.90268 12.677 7.48135 13.0604 7.99868 13.3997L8.07868 13.3464C10.0853 12.021 12.8327 10.2064 12.8327 7.33236C12.8327 6.80169 12.7453 6.27972 12.5733 5.78239C12.4833 5.52172 12.6214 5.23699 12.8827 5.14632C13.1447 5.05632 13.4287 5.19505 13.5194 5.45638ZM14.3533 2.35303L9.82335 6.88298C9.82068 6.88564 9.81802 6.88828 9.81468 6.89095L7.56802 9.1377C7.55935 9.14703 7.55135 9.15507 7.54202 9.16374L2.35269 14.353C2.25535 14.4504 2.12734 14.4997 1.99934 14.4997C1.87134 14.4997 1.74335 14.451 1.64601 14.353C1.45068 14.1577 1.45068 13.841 1.64601 13.6457L3.89068 11.401C2.73535 10.1277 2.16601 8.79369 2.16601 7.33236C2.16601 4.11569 4.78268 1.49902 7.99934 1.49902C9.54801 1.49902 11.0114 2.11302 12.098 3.19368L13.646 1.64567C13.8413 1.45034 14.158 1.45034 14.3533 1.64567C14.5487 1.841 14.5487 2.15769 14.3533 2.35303ZM4.59802 10.6943L6.44868 8.84375C6.06135 8.44375 5.83335 7.90569 5.83335 7.33236C5.83335 6.13769 6.80535 5.16569 8.00002 5.16569C8.57268 5.16569 9.11135 5.39375 9.51135 5.78109L11.3927 3.89974C10.4927 3.00641 9.28135 2.49902 8.00002 2.49902C5.33468 2.49902 3.16668 4.66702 3.16668 7.33236C3.16668 8.51969 3.63868 9.62367 4.59802 10.6943ZM8.80468 6.48828C8.59002 6.28561 8.30402 6.16634 8.00002 6.16634C7.35668 6.16634 6.83335 6.68967 6.83335 7.33301C6.83335 7.63701 6.95402 7.92106 7.15668 8.13639L8.80468 6.48828Z" fill="#3B3B3E"/>
</svg>
