<svg width="16" height="16" viewBox="0 0 16 16" fill="none" xmlns="http://www.w3.org/2000/svg">
<path d="M2.67002 14.4993C2.36535 14.4993 2.06947 14.3793 1.84547 14.1553C1.52947 13.84 1.4208 13.382 1.5608 12.9607L2.12135 11.2933C2.18668 11.0887 2.18076 10.8833 2.1041 10.7213C1.70943 9.87265 1.5027 8.93268 1.5027 7.99935C1.5027 4.41602 4.41806 1.5 8.0014 1.5C11.5854 1.5 14.5007 4.41535 14.5007 7.99935C14.5007 11.5833 11.5854 14.4987 8.0014 14.4987C7.06873 14.4987 6.12876 14.2913 5.28476 13.8987C5.11943 13.8193 4.91276 13.814 4.70143 13.8813L3.04209 14.4387C2.91875 14.4793 2.79335 14.4993 2.67002 14.4993ZM8.00074 2.5C4.96875 2.5 2.50205 4.96668 2.50205 7.99935C2.50205 8.78802 2.67739 9.58199 3.00872 10.2953C3.19272 10.6827 3.2167 11.1487 3.07203 11.604L2.50937 13.278C2.48137 13.3613 2.52401 13.4206 2.55201 13.4486C2.58001 13.4766 2.64007 13.5193 2.7234 13.4913L4.38877 12.932C4.85143 12.7847 5.31805 12.8073 5.71005 12.9947C6.41805 13.324 7.21208 13.4993 8.00074 13.4993C11.0334 13.4993 13.5001 11.0327 13.5001 8C13.5001 4.96733 11.0334 2.5 8.00074 2.5ZM8.00009 11.1667C7.93009 11.1667 7.85937 11.152 7.79404 11.1227C7.69204 11.0767 5.28469 9.96799 4.89202 7.95866C4.73335 7.14599 4.8908 6.37534 5.3248 5.84534C5.68613 5.40467 6.20214 5.17 6.81748 5.16667C6.82081 5.16667 6.82409 5.16667 6.82675 5.16667C7.34009 5.16667 7.72611 5.378 7.99944 5.644C8.27478 5.376 8.64211 5.164 9.18011 5.16667C9.79611 5.16933 10.3121 5.40402 10.6734 5.84469C11.1068 6.37402 11.2654 7.14401 11.1061 7.95801C10.7134 9.96801 8.3067 11.076 8.20403 11.122C8.1407 11.152 8.07009 11.1667 8.00009 11.1667ZM6.82675 6.16667C6.82542 6.16667 6.82483 6.16667 6.8235 6.16667C6.51083 6.168 6.26739 6.27334 6.09873 6.47868C5.85806 6.77268 5.77412 7.25399 5.87412 7.76599C6.11078 8.97866 7.47411 9.82133 7.99944 10.106C8.52478 9.822 9.8881 8.97868 10.1248 7.76668C10.2248 7.25402 10.1408 6.77201 9.90016 6.47868C9.73149 6.27334 9.48807 6.16867 9.17474 6.16667C9.17407 6.16667 9.17281 6.16667 9.17148 6.16667C8.68081 6.16667 8.49078 6.65335 8.47145 6.70935C8.40011 6.90802 8.21011 7.04268 7.99944 7.04268C7.99811 7.04268 7.99607 7.04268 7.99407 7.04268C7.7814 7.04068 7.59217 6.90602 7.52483 6.70402C7.50817 6.65335 7.31875 6.16667 6.82675 6.16667ZM10.6168 7.86202H10.6235H10.6168Z" fill="#3B3B3E"/>
</svg>
