<svg width="16" height="16" viewBox="0 0 16 16" fill="none" xmlns="http://www.w3.org/2000/svg">
<path d="M9.83325 12.667C9.83325 12.943 9.60925 13.167 9.33325 13.167H3.33325C1.72125 13.167 0.833252 12.279 0.833252 10.667V4.66699C0.833252 3.05499 1.72125 2.16699 3.33325 2.16699H11.3333C12.9453 2.16699 13.8333 3.05499 13.8333 4.66699V7.33366C13.8333 7.60966 13.6093 7.83366 13.3333 7.83366C13.0573 7.83366 12.8333 7.60966 12.8333 7.33366V4.66699C12.8333 3.61566 12.3846 3.16699 11.3333 3.16699H3.33325C2.28192 3.16699 1.83325 3.61566 1.83325 4.66699V10.667C1.83325 11.7183 2.28192 12.167 3.33325 12.167H9.33325C9.60925 12.167 9.83325 12.391 9.83325 12.667ZM10.706 4.92966L7.43123 7.31099C7.37257 7.35299 7.29459 7.35299 7.23592 7.31099L3.96118 4.92966C3.73585 4.76632 3.42461 4.81766 3.26261 5.03966C3.09995 5.263 3.14931 5.57632 3.37264 5.73832L6.64722 8.11966C6.85255 8.26899 7.09325 8.34366 7.33325 8.34366C7.57325 8.34366 7.81462 8.26899 8.01929 8.11966L11.2939 5.73832C11.5172 5.57632 11.5666 5.263 11.4039 5.03966C11.2419 4.817 10.9306 4.76566 10.706 4.92966ZM15.1666 12.0837V13.2503C15.1666 14.021 14.6873 14.5003 13.9166 14.5003H12.0833C11.3126 14.5003 10.8333 14.021 10.8333 13.2503V12.0837C10.8333 11.5337 11.0806 11.1363 11.4999 10.9517V10.3337C11.4999 9.50633 12.1733 8.83366 12.9999 8.83366C13.8266 8.83366 14.4999 9.50633 14.4999 10.3337V10.9517C14.9193 11.1363 15.1666 11.5337 15.1666 12.0837ZM12.4999 10.3337V10.8337H13.4999V10.3337C13.4999 10.0577 13.2753 9.83366 12.9999 9.83366C12.7246 9.83366 12.4999 10.0577 12.4999 10.3337ZM14.1666 12.0837C14.1666 11.8977 14.1419 11.8503 14.0072 11.839C14.0046 11.839 14.0026 11.8403 13.9999 11.8403C13.9953 11.8403 13.9913 11.8377 13.9859 11.8377C13.9633 11.8363 13.9453 11.8337 13.9166 11.8337H12.0833C12.0539 11.8337 12.0366 11.8363 12.0139 11.8377C12.0092 11.8377 12.0053 11.8403 11.9999 11.8403C11.9973 11.8403 11.9953 11.839 11.9926 11.839C11.8579 11.8503 11.8333 11.8977 11.8333 12.0837V13.2503C11.8333 13.4743 11.8586 13.5003 12.0833 13.5003H13.9166C14.1413 13.5003 14.1666 13.4743 14.1666 13.2503V12.0837Z" fill="#3B3B3E"/>
</svg>
