<svg width="16" height="16" viewBox="0 0 16 16" fill="none" xmlns="http://www.w3.org/2000/svg">
<path d="M12.8933 3.04L10.8067 2.23999C10.8067 2.23999 10.8067 2.22666 10.8067 2.21999C10.6267 1.77999 10.2 1.5 9.72665 1.5H6.27998C5.80665 1.5 5.38665 1.77999 5.19999 2.21999C5.19999 2.21999 5.19999 2.23332 5.19999 2.23999L3.11332 3.04C2.15332 3.40667 1.50665 4.34667 1.50665 5.37333V9.46C1.50665 9.96 1.75999 10.4333 2.17332 10.7067L3.43332 11.5467L2.85332 13.8733C2.81332 14.02 2.85332 14.18 2.94665 14.3C3.03998 14.42 3.18665 14.4933 3.33999 14.4933H12.6733C12.8266 14.4933 12.9733 14.42 13.0667 14.3C13.16 14.18 13.1933 14.02 13.16 13.8733L12.58 11.5467L13.84 10.7067C14.26 10.4267 14.5066 9.96 14.5066 9.46V5.36666C14.5066 4.33999 13.86 3.39999 12.9 3.03333L12.8933 3.04ZM6.27332 2.5H9.71999C9.81999 2.5 9.85998 2.56666 9.87332 2.6C9.88665 2.63333 9.90665 2.71334 9.83998 2.78001L7.99998 4.62L6.15999 2.78001C6.09332 2.71334 6.10665 2.64 6.12665 2.6C6.14665 2.56 6.18665 2.5 6.27998 2.5H6.27332ZM2.49998 9.46668V5.38C2.49998 4.76 2.88665 4.2 3.45999 3.98L5.28665 3.28001C5.33332 3.35334 5.37998 3.43333 5.44665 3.5L7.28665 5.34001L4.49332 8.13334V6.00667C4.49332 5.73334 4.26665 5.50667 3.99332 5.50667C3.71998 5.50667 3.49332 5.73334 3.49332 6.00667V10.4067L2.71332 9.88666C2.57332 9.79332 2.49332 9.63999 2.49332 9.47333L2.49998 9.46668ZM3.97332 13.5L4.48665 11.4533C4.49999 11.4133 4.49998 11.3733 4.49998 11.3333V11.1667H6.79332L6.31332 11.6467C6.11999 11.84 6.11999 12.16 6.31332 12.3533C6.50665 12.5467 6.82665 12.5467 7.01998 12.3533L7.99998 11.3733L8.97999 12.3533C9.07999 12.4533 9.20665 12.5 9.33332 12.5C9.45998 12.5 9.58665 12.4533 9.68665 12.3533C9.87998 12.16 9.87998 11.84 9.68665 11.6467L9.20665 11.1667H11.5V11.3333C11.5 11.3333 11.5 11.38 11.5066 11.4067C11.5066 11.42 11.5066 11.4267 11.5066 11.44C11.5066 11.44 11.5066 11.4533 11.5066 11.46L12.02 13.5067H3.96665L3.97332 13.5ZM13.5 9.46668C13.5 9.63334 13.42 9.78667 13.28 9.88001L12.5 10.4V6C12.5 5.72667 12.2733 5.5 12 5.5C11.7267 5.5 11.5 5.72667 11.5 6V10.1667H4.49998V9.54L10.5467 3.49333C10.6133 3.42666 10.66 3.35334 10.7067 3.27334L12.5333 3.97333C13.1067 4.19333 13.4933 4.76 13.4933 5.37333V9.46668H13.5Z" fill="#3B3B3E"/>
</svg>
