<svg width="16" height="16" viewBox="0 0 16 16" fill="none" xmlns="http://www.w3.org/2000/svg">
<path d="M12 2.83301H4C2.38667 2.83301 1.5 3.71967 1.5 5.33301V10.6663C1.5 12.2797 2.38667 13.1663 4 13.1663H12C13.6133 13.1663 14.5 12.2797 14.5 10.6663V5.33301C14.5 3.71967 13.6133 2.83301 12 2.83301ZM13.5 10.6663C13.5 11.7197 13.0533 12.1663 12 12.1663H4C2.94667 12.1663 2.5 11.7197 2.5 10.6663V5.33301C2.5 4.27967 2.94667 3.83301 4 3.83301H12C13.0533 3.83301 13.5 4.27967 13.5 5.33301V10.6663ZM6.61334 7.33301H6.23334C6.23334 7.33301 6.18001 7.35301 6.17334 7.37968L6.15999 7.46635C6.15999 7.46635 5.86666 7.14635 5.34666 7.35968C5.05333 7.47968 4.90666 7.73968 4.84666 7.92635C4.84666 7.92635 4.65334 8.48634 5.09334 8.80634C5.09334 8.80634 5.5 9.10634 5.95333 8.79301V8.83968C5.95333 8.83968 5.95333 8.88634 5.97333 8.89301C5.97999 8.89967 5.98666 8.89968 5.99333 8.89968H6.37333C6.37333 8.89968 6.42666 8.87967 6.43333 8.85301L6.66667 7.39968C6.66667 7.39968 6.66001 7.353 6.63334 7.34633C6.62667 7.33967 6.62001 7.33968 6.61334 7.33968V7.33301ZM6.05332 8.13302C6.03999 8.23302 5.99333 8.32634 5.91333 8.39301C5.82666 8.45967 5.72667 8.493 5.62667 8.493C5.58667 8.493 5.54666 8.48634 5.51333 8.47967C5.34666 8.42634 5.25334 8.273 5.28001 8.09967C5.29334 7.99967 5.34001 7.90635 5.42668 7.83968C5.50668 7.77301 5.60667 7.73966 5.70667 7.73966C5.75333 7.73966 5.79333 7.74634 5.82666 7.75301C5.98666 7.80634 6.08001 7.95968 6.04667 8.13302H6.05332ZM12.0667 7.33301H11.68C11.68 7.33301 11.6267 7.35301 11.6267 7.37968L11.6133 7.46635C11.6133 7.46635 11.32 7.14635 10.8 7.35968C10.5067 7.47968 10.36 7.73968 10.3 7.92635C10.3 7.92635 10.1067 8.48634 10.5467 8.80634C10.5467 8.80634 10.9533 9.10634 11.4067 8.79301V8.83968C11.4067 8.83968 11.4067 8.88634 11.4267 8.89301C11.4333 8.89967 11.44 8.89968 11.4467 8.89968H11.8267C11.8267 8.89968 11.88 8.87967 11.8867 8.85301L12.12 7.39968C12.12 7.39968 12.1133 7.36635 12.1067 7.35968C12.1 7.34635 12.0867 7.33968 12.0667 7.33968V7.33301ZM11.5067 8.13302C11.4933 8.23302 11.4467 8.32634 11.3667 8.39301C11.28 8.45967 11.18 8.493 11.08 8.493C11.04 8.493 11 8.48634 10.9667 8.47967C10.8 8.42634 10.7067 8.273 10.7333 8.09967C10.7467 7.99967 10.7933 7.90635 10.8733 7.83968C10.96 7.77968 11.06 7.73966 11.16 7.73966C11.2 7.73966 11.24 7.74634 11.2733 7.75301C11.44 7.80634 11.5333 7.95968 11.5067 8.13302ZM4.15334 6.66634H3.4C3.4 6.66634 3.34667 6.68633 3.34001 6.71967L3.00667 8.83301C3.00667 8.83301 3.01333 8.87967 3.04 8.88633C3.04667 8.893 3.05333 8.89301 3.06 8.89301H3.46C3.46 8.89301 3.51333 8.873 3.51333 8.84633L3.61334 8.22634C3.61334 8.22634 3.64667 8.17301 3.67334 8.17301H4.03333C4.23333 8.17301 4.43334 8.10634 4.58667 7.973C4.74667 7.83967 4.84667 7.65967 4.88 7.453C4.94667 7.03967 4.62 6.66634 4.14667 6.66634H4.15334ZM3.99333 7.70634H3.69999L3.78666 7.14634H4.08C4.32 7.14634 4.39333 7.28634 4.37333 7.43968C4.35333 7.59301 4.22666 7.70634 3.99333 7.70634ZM8.55332 7.40633L7.39333 9.31301C7.39333 9.31301 7.35333 9.34633 7.33333 9.34633H6.88666C6.88666 9.34633 6.87333 9.34633 6.86666 9.34633C6.84666 9.333 6.84 9.30634 6.85333 9.28634L7.22666 8.68634L6.81333 7.40633C6.81333 7.40633 6.81333 7.393 6.81333 7.38633C6.81333 7.36633 6.83334 7.34633 6.86001 7.34633H7.27334C7.27334 7.34633 7.31999 7.36633 7.32666 7.38633L7.56 8.14634L8.01333 7.37968C8.01333 7.37968 8.05333 7.34633 8.08 7.34633H8.52667C8.52667 7.34633 8.56 7.353 8.56667 7.36633C8.57334 7.37967 8.57334 7.39967 8.56667 7.413L8.55332 7.40633ZM9.61334 6.66634H8.86001C8.86001 6.66634 8.80668 6.68633 8.80001 6.71967L8.46668 8.83301C8.46668 8.83301 8.47333 8.87967 8.5 8.89301H8.91333C8.91333 8.89301 8.96666 8.873 8.97333 8.84633L9.07332 8.22634C9.07332 8.22634 9.10668 8.17301 9.13334 8.17301H9.49333C9.69333 8.17301 9.89334 8.10634 10.0467 7.973C10.2067 7.83967 10.3067 7.65967 10.34 7.453C10.4067 7.03967 10.08 6.66634 9.60667 6.66634H9.61334ZM9.45333 7.70634H9.15999L9.24666 7.14634H9.54C9.78 7.14634 9.85333 7.28634 9.83333 7.43968C9.81333 7.59301 9.68666 7.70634 9.45333 7.70634ZM12.9667 6.67301C12.9667 6.67301 13.0133 6.70634 13.0133 6.73301L12.6733 8.85301C12.6733 8.85301 12.6467 8.89968 12.6133 8.89968H12.2133C12.2133 8.89968 12.2133 8.89968 12.2067 8.89968C12.18 8.89968 12.16 8.86635 12.16 8.83968L12.5 6.71967C12.5 6.71967 12.5267 6.66635 12.56 6.67301H12.96C12.96 6.67301 12.96 6.67301 12.9667 6.67301Z" fill="#3B3B3E"/>
</svg>
