<svg width="16" height="16" viewBox="0 0 16 16" fill="none" xmlns="http://www.w3.org/2000/svg">
<path d="M12 1.5H4C2.38667 1.5 1.5 2.38667 1.5 4V12C1.5 13.6133 2.38667 14.5 4 14.5H12C13.6133 14.5 14.5 13.6133 14.5 12V4C14.5 2.38667 13.6133 1.5 12 1.5ZM13.5 12C13.5 13.0533 13.0533 13.5 12 13.5H4C2.94667 13.5 2.5 13.0533 2.5 12V4C2.5 2.94667 2.94667 2.5 4 2.5H12C13.0533 2.5 13.5 2.94667 13.5 4V12ZM4.47333 11.5267C4.59333 11.6533 4.66667 11.82 4.66667 12C4.66667 12.0867 4.64667 12.1733 4.61333 12.2533C4.58 12.34 4.53333 12.4133 4.47333 12.4733C4.34667 12.5933 4.17333 12.6667 4 12.6667C3.82667 12.6667 3.65333 12.5933 3.52667 12.4733C3.40667 12.3467 3.33333 12.1733 3.33333 12C3.33333 11.96 3.33333 11.9133 3.34667 11.8667C3.34667 11.8267 3.36667 11.7867 3.38667 11.7467C3.4 11.7067 3.42 11.6667 3.44667 11.6267C3.46667 11.5933 3.5 11.56 3.52667 11.5267C3.77333 11.28 4.22 11.28 4.47333 11.5267V11.5267ZM12.4733 11.5267C12.5933 11.6533 12.6667 11.8267 12.6667 12C12.6667 12.1733 12.5933 12.3467 12.4733 12.4733C12.4067 12.5333 12.34 12.58 12.2533 12.6133C12.1733 12.6467 12.0867 12.6667 12 12.6667C11.8267 12.6667 11.6533 12.5933 11.5267 12.4733C11.4067 12.3467 11.3333 12.1733 11.3333 12C11.3333 11.8267 11.4067 11.6533 11.5267 11.5267C11.7133 11.34 12.0133 11.2867 12.2533 11.3867C12.34 11.42 12.4067 11.4667 12.4733 11.5267V11.5267ZM11.24 4.32C9.26667 3.25333 6.73333 3.25333 4.75333 4.32C4.23333 4.6 4.02 5.23333 4.26667 5.76L5.00667 7.35333C5.14 7.64667 5.44 7.83333 5.76 7.83333H10.2267C10.5467 7.83333 10.8467 7.64667 10.98 7.35333L11.72 5.76C11.9667 5.23333 11.7533 4.6 11.2333 4.32H11.24ZM10.82 5.34L10.1267 6.83333H8.5V5.66667C8.5 5.39333 8.27333 5.16667 8 5.16667C7.72667 5.16667 7.5 5.39333 7.5 5.66667V6.83333H5.87333L5.18 5.34C5.15333 5.28667 5.19333 5.22667 5.24 5.2C6.92667 4.28667 9.08667 4.28667 10.7733 5.2C10.82 5.22667 10.86 5.28667 10.8333 5.34H10.82Z" fill="#3B3B3E"/>
</svg>
