<svg width="16" height="16" viewBox="0 0 16 16" fill="none" xmlns="http://www.w3.org/2000/svg">
<path d="M12.44 2.83333H10.2907C9.94334 1.96933 9.164 1.5 8 1.5H4C2.388 1.5 1.5 2.388 1.5 4V12C1.5 13.612 2.388 14.5 4 14.5H8C9.164 14.5 9.944 14.0307 10.2907 13.1667H12.44C13.7493 13.1667 14.5 12.416 14.5 11.1067V4.89333C14.5 3.584 13.7493 2.83333 12.44 2.83333ZM8 13.5H4C2.94867 13.5 2.5 13.0513 2.5 12V4C2.5 2.94867 2.94867 2.5 4 2.5H8C9.05133 2.5 9.5 2.94867 9.5 4V12C9.5 13.0513 9.05133 13.5 8 13.5ZM13.5 11.1067C13.5 11.8693 13.2027 12.1667 12.44 12.1667H10.488C10.4907 12.11 10.5 12.0587 10.5 12V4C10.5 3.94133 10.49 3.89 10.488 3.83333H12.44C13.2027 3.83333 13.5 4.13066 13.5 4.89333V11.1067Z" fill="#3B3B3E"/>
</svg>
