<svg width="16" height="16" viewBox="0 0 16 16" fill="none" xmlns="http://www.w3.org/2000/svg">
<path d="M5.45596 11.2502L7.04661 9.65952C7.04728 9.65885 7.04725 9.65887 7.04792 9.65887C7.04792 9.6582 7.04857 9.65819 7.04857 9.65753L14.3533 2.35286C14.5486 2.15753 14.5486 1.84086 14.3533 1.64552C14.1579 1.45019 13.8412 1.45019 13.6459 1.64552L6.70531 8.5862C6.28997 8.11153 5.93649 7.58286 5.65583 7.00219L6.4112 6.50219C7.2412 5.94553 7.49198 4.84486 6.98265 3.99886L5.94131 2.23553C5.61664 1.69553 4.99597 1.4122 4.38597 1.52286C4.37264 1.5242 4.35926 1.52687 4.34593 1.52954C3.38193 1.72554 2.5333 2.31886 2.01797 3.15686C1.5073 3.98752 1.36727 4.9562 1.62327 5.88553C2.13661 7.75153 3.09589 9.4682 4.40322 10.8882L1.6459 13.6455C1.45056 13.8409 1.45056 14.1575 1.6459 14.3529C1.74323 14.4502 1.87125 14.4995 1.99925 14.4995C2.12725 14.4995 2.25527 14.4509 2.3526 14.3529L5.44587 11.2595C5.44987 11.2562 5.45262 11.2535 5.45596 11.2502ZM2.5873 5.62087C2.40664 4.96153 2.50651 4.27286 2.87051 3.68086C3.23651 3.08553 3.83594 2.66152 4.51927 2.51552C4.53127 2.51419 4.54194 2.5122 4.55394 2.50954C4.75994 2.4662 4.96992 2.56087 5.08258 2.74753L6.12458 4.51086C6.36058 4.90219 6.24183 5.4122 5.85716 5.66953L4.75055 6.40287C4.55055 6.53553 4.4725 6.79152 4.56517 7.01285C4.92117 7.86219 5.40784 8.62287 6.00251 9.29087L5.11123 10.1822C3.9259 8.88485 3.0553 7.31953 2.5873 5.62087ZM14.4999 11.3542C14.4999 11.4555 14.4893 11.5562 14.4693 11.6549C14.2786 12.6135 13.6899 13.4609 12.8552 13.9769C12.2932 14.3235 11.6679 14.5015 11.0326 14.5015C10.7266 14.5015 10.4185 14.4602 10.1138 14.3769C8.7005 13.9849 7.40185 13.3622 6.25185 12.5255C6.02852 12.3629 5.97916 12.0502 6.14183 11.8269C6.30383 11.6042 6.61589 11.5535 6.84056 11.7169C7.89323 12.4829 9.08395 13.0535 10.3799 13.4129C11.0453 13.5942 11.7366 13.4929 12.33 13.1262C12.9293 12.7555 13.3526 12.1475 13.49 11.4569C13.4973 11.4215 13.5006 11.3889 13.5006 11.3542C13.5006 11.1882 13.4026 11.0202 13.2493 10.9255L11.4913 9.87687C11.0986 9.64087 10.5879 9.75754 10.3272 10.1415L9.58193 11.2529C9.44993 11.4509 9.19663 11.5282 8.97663 11.4369C8.62729 11.2929 8.27455 11.1162 7.93122 10.9109C7.69388 10.7695 7.61589 10.4622 7.75723 10.2255C7.89923 9.98885 8.20661 9.91087 8.44261 10.0522C8.62328 10.1595 8.80457 10.2575 8.9859 10.3462L9.49795 9.58286C10.0579 8.75686 11.1579 8.51019 12.0053 9.01953L13.7693 10.0722C14.2233 10.3535 14.4999 10.8429 14.4999 11.3542Z" fill="#3B3B3E"/>
</svg>
