<svg width="16" height="16" viewBox="0 0 16 16" fill="none" xmlns="http://www.w3.org/2000/svg">
<path d="M9.16667 10.0003V12.887C9.16667 13.521 8.81002 14.081 8.23535 14.3476C8.01468 14.4503 7.78202 14.5003 7.55135 14.5003C7.17868 14.5003 6.81264 14.3697 6.51131 14.1157L5.48267 13.241C5.27267 13.0617 5.24669 12.7463 5.42603 12.5363C5.60536 12.3263 5.92068 12.301 6.13135 12.4796L7.15804 13.353C7.34471 13.511 7.59063 13.5442 7.81396 13.4409C8.03463 13.3382 8.16667 13.131 8.16667 12.887V10.0003C8.16667 9.72432 8.39067 9.50032 8.66667 9.50032C8.94267 9.50032 9.16667 9.72432 9.16667 10.0003ZM12.3033 6.69368C12.2233 6.43034 11.9486 6.28163 11.678 6.3623C11.414 6.44363 11.266 6.72297 11.3473 6.98697C11.7253 8.21897 11.39 9.55496 10.472 10.4736C10.2767 10.669 10.2767 10.9856 10.472 11.181C10.5693 11.2783 10.6974 11.3276 10.8254 11.3276C10.9534 11.3276 11.0813 11.279 11.1786 11.181C12.36 9.99965 12.7913 8.28034 12.3033 6.69368ZM14.2907 4.57291C14.1587 4.33091 13.856 4.24231 13.6113 4.37564C13.37 4.50831 13.2813 4.81235 13.414 5.05435C14.718 7.43035 14.284 10.4344 12.3586 12.3597C12.1633 12.555 12.1633 12.8717 12.3586 13.067C12.456 13.1644 12.584 13.2137 12.712 13.2137C12.84 13.2137 12.968 13.165 13.0653 13.067C15.3033 10.829 15.8074 7.33624 14.2907 4.57291ZM14.3534 2.35367L2.35335 14.3537C2.25602 14.451 2.128 14.5003 2 14.5003C1.872 14.5003 1.74398 14.4517 1.64665 14.3537C1.45131 14.1583 1.45131 13.8416 1.64665 13.6463L3.45996 11.833H2.33398C1.50732 11.833 0.833984 11.1603 0.833984 10.333V5.66633C0.833984 4.839 1.50732 4.16633 2.33398 4.16633H3.514C3.71 4.16633 3.90137 4.09624 4.05404 3.96891L6.51131 1.88492C6.99931 1.47292 7.65932 1.38369 8.23665 1.65169C8.81132 1.91835 9.16797 2.4783 9.16797 3.1123V6.12564L13.648 1.64566C13.8434 1.45033 14.16 1.45033 14.3553 1.64566C14.5506 1.841 14.5487 2.15834 14.3534 2.35367ZM8.16667 3.1136C8.16667 2.8696 8.03463 2.66239 7.81396 2.55973C7.5893 2.45573 7.34467 2.48958 7.15601 2.64892L4.69735 4.73437C4.36268 5.0137 3.94333 5.16633 3.514 5.16633H2.33398C2.05865 5.16633 1.83398 5.39033 1.83398 5.66633V10.333C1.83398 10.609 2.05865 10.833 2.33398 10.833H3.514C3.782 10.833 4.04263 10.8991 4.28263 11.0111L8.16732 7.12629V3.1136H8.16667Z" fill="#3B3B3E"/>
</svg>
