<svg width="16" height="16" viewBox="0 0 16 16" fill="none" xmlns="http://www.w3.org/2000/svg">
<path d="M12 2.83301H4C2.38667 2.83301 1.5 3.71967 1.5 5.33301V10.6663C1.5 12.2797 2.38667 13.1663 4 13.1663H12C13.6133 13.1663 14.5 12.2797 14.5 10.6663V5.33301C14.5 3.71967 13.6133 2.83301 12 2.83301ZM13.5 10.6663C13.5 11.7197 13.0533 12.1663 12 12.1663H4C2.94667 12.1663 2.5 11.7197 2.5 10.6663V5.33301C2.5 4.27967 2.94667 3.83301 4 3.83301H12C13.0533 3.83301 13.5 4.27967 13.5 5.33301V10.6663ZM5.83333 6.933H6.32666V7.48635H5.84001V8.39968C5.84001 8.77968 6.24666 8.65968 6.32666 8.62634V9.15301C6.23999 9.19968 6.08667 9.23966 5.87333 9.23966C5.51333 9.253 5.21333 8.96635 5.20667 8.61302C5.20667 8.59968 5.20667 8.593 5.20667 8.57967V6.51967L5.84001 6.38633V6.93968L5.83333 6.933ZM7.69336 6.933V7.52635C7.61336 7.49968 7.33334 7.45967 7.17334 7.65967V9.19301H6.52669V6.933H7.10669L7.12667 7.12634C7.28 6.84634 7.60669 6.90634 7.69336 6.933ZM5.06669 8.50635C5.06669 8.97301 4.70667 9.23301 4.17334 9.23301C3.93334 9.23301 3.69335 9.18634 3.47335 9.08634V8.473C3.68668 8.593 3.96001 8.67967 4.17334 8.67967C4.32001 8.67967 4.41333 8.63968 4.41333 8.52635C4.41333 8.21968 3.43335 8.333 3.43335 7.61967C3.43335 7.16634 3.78669 6.89301 4.31335 6.89301C4.52669 6.89301 4.74 6.92633 4.95333 7.013V7.61967C4.75333 7.513 4.53335 7.45967 4.31335 7.453C4.18002 7.453 4.08667 7.49302 4.08667 7.59302C4.08667 7.87968 5.06669 7.74633 5.06669 8.513V8.50635ZM7.84668 6.933H8.49333V9.19301H7.84668V6.933ZM7.84668 6.19967L8.49333 6.06635V6.59302L7.84668 6.73301V6.20634V6.19967ZM9.84001 6.89301C9.65334 6.89301 9.47333 6.96635 9.33333 7.09302L9.32003 6.933H8.73336V9.933L9.38001 9.79968V9.073C9.47334 9.13966 9.61333 9.23301 9.83333 9.23301C10.2933 9.23301 10.7133 8.85968 10.7133 8.04635C10.7133 7.29301 10.2867 6.88633 9.83333 6.88633L9.84001 6.89301ZM9.68669 8.66634C9.53335 8.66634 9.44667 8.61301 9.38001 8.54635V7.58634C9.44667 7.51301 9.53335 7.45968 9.68669 7.45968C9.92002 7.45968 10.0867 7.72634 10.0867 8.05967C10.0867 8.39301 9.92669 8.66634 9.68669 8.66634ZM11.8333 6.89301C11.22 6.89301 10.8467 7.41301 10.8467 8.06634C10.8467 8.84634 11.2867 9.23301 11.9133 9.23301C12.16 9.24634 12.4133 9.18634 12.6267 9.05967V8.53967C12.4533 8.63301 12.2467 8.68634 11.9933 8.68634C11.74 8.68634 11.52 8.58634 11.4933 8.28634H12.7533C12.7533 8.253 12.76 8.11967 12.76 8.053C12.76 7.393 12.44 6.87968 11.8267 6.87968L11.8333 6.89301ZM11.4933 7.81968C11.4933 7.53301 11.6733 7.413 11.8333 7.413C11.9933 7.413 12.16 7.52635 12.16 7.81968H11.4933Z" fill="#3B3B3E"/>
</svg>
