<svg width="16" height="16" viewBox="0 0 16 16" fill="none" xmlns="http://www.w3.org/2000/svg">
<path d="M5.33333 11.1667C5.20533 11.1667 5.07731 11.118 4.97998 11.02C4.78465 10.8247 4.78465 10.508 4.97998 10.3127L10.3133 4.97933C10.5086 4.784 10.8253 4.784 11.0207 4.97933C11.216 5.17466 11.216 5.49135 11.0207 5.68669L5.68734 11.02C5.58934 11.118 5.46133 11.1667 5.33333 11.1667ZM11.1667 9.83333C11.1667 9.098 10.5687 8.5 9.83333 8.5C9.098 8.5 8.5 9.098 8.5 9.83333C8.5 10.5687 9.098 11.1667 9.83333 11.1667C10.5687 11.1667 11.1667 10.5687 11.1667 9.83333ZM10.1667 9.83333C10.1667 10.0173 10.0173 10.1667 9.83333 10.1667C9.64933 10.1667 9.5 10.0173 9.5 9.83333C9.5 9.64933 9.64933 9.5 9.83333 9.5C10.0173 9.5 10.1667 9.64933 10.1667 9.83333ZM7.5 6.16667C7.5 5.43133 6.902 4.83333 6.16667 4.83333C5.43133 4.83333 4.83333 5.43133 4.83333 6.16667C4.83333 6.902 5.43133 7.5 6.16667 7.5C6.902 7.5 7.5 6.902 7.5 6.16667ZM6.5 6.16667C6.5 6.35067 6.35067 6.5 6.16667 6.5C5.98267 6.5 5.83333 6.35067 5.83333 6.16667C5.83333 5.98267 5.98267 5.83333 6.16667 5.83333C6.35067 5.83333 6.5 5.98267 6.5 6.16667ZM14.5 11.75V4.25C14.5 2.47667 13.5233 1.5 11.75 1.5H4.25C2.47667 1.5 1.5 2.47667 1.5 4.25V11.75C1.5 13.5233 2.47667 14.5 4.25 14.5H11.75C13.5233 14.5 14.5 13.5233 14.5 11.75ZM11.75 2.5C12.9767 2.5 13.5 3.02333 13.5 4.25V11.75C13.5 12.9767 12.9767 13.5 11.75 13.5H4.25C3.02333 13.5 2.5 12.9767 2.5 11.75V4.25C2.5 3.02333 3.02333 2.5 4.25 2.5H11.75Z" fill="#3B3B3E"/>
</svg>
