<svg width="16" height="16" viewBox="0 0 16 16" fill="none" xmlns="http://www.w3.org/2000/svg">
<path d="M12.6706 8.76634L13.7499 10.3904C13.9025 10.6204 13.8399 10.9311 13.6099 11.0837C13.5246 11.1404 13.4292 11.1671 13.3339 11.1671C13.1719 11.1671 13.0132 11.0884 12.9165 10.9437L11.8771 9.38043C11.3678 9.72043 10.7679 10.0097 10.0699 10.2103L10.4846 11.8798C10.5519 12.1478 10.3878 12.4191 10.1198 12.4857C10.0792 12.4957 10.0392 12.5004 9.99857 12.5004C9.77457 12.5004 9.56987 12.3483 9.51387 12.121L9.09118 10.4184C8.74518 10.4664 8.38655 10.5004 7.99922 10.5004C7.61188 10.5004 7.25326 10.4664 6.90726 10.4184L6.48457 12.121C6.42857 12.3483 6.22387 12.5004 5.99987 12.5004C5.9592 12.5004 5.91928 12.4957 5.87861 12.4857C5.61061 12.4191 5.4472 12.1478 5.51387 11.8798L5.92858 10.2103C5.23125 10.009 4.63046 9.71976 4.12113 9.38043L3.0819 10.9437C2.98523 11.0884 2.82658 11.1671 2.66458 11.1671C2.56925 11.1671 2.47387 11.1397 2.38854 11.0837C2.15854 10.9311 2.09657 10.6204 2.24857 10.3904L3.32783 8.76634C2.01383 7.567 1.53246 6.18309 1.52379 6.15843C1.43646 5.89643 1.57853 5.61311 1.84053 5.52578C2.10519 5.43844 2.38519 5.58039 2.47253 5.84039C2.50319 5.93039 2.97059 7.23365 4.25459 8.26031C4.25726 8.26165 4.25991 8.26173 4.26191 8.26373C4.26858 8.2684 4.27251 8.27567 4.27851 8.28033C5.12785 8.95167 6.32725 9.49973 7.99792 9.49973C9.66858 9.49973 10.8678 8.951 11.7172 8.28033C11.7238 8.27567 11.7273 8.26773 11.7339 8.26373C11.7366 8.2624 11.7392 8.26231 11.7412 8.26031C13.0252 7.23365 13.4925 5.93039 13.5231 5.84039C13.6125 5.57906 13.8959 5.44043 14.1566 5.52643C14.4179 5.61443 14.5585 5.89644 14.4719 6.15777C14.4659 6.18311 13.9846 7.56767 12.6706 8.76634Z" fill="#3B3B3E"/>
</svg>
