<svg width="16" height="16" viewBox="0 0 16 16" fill="none" xmlns="http://www.w3.org/2000/svg">
<path d="M5.64665 4.35335C5.45131 4.15802 5.45131 3.84132 5.64665 3.64599L7.64665 1.64599C7.69265 1.59999 7.74807 1.56333 7.80941 1.538C7.93141 1.48733 8.06941 1.48733 8.19141 1.538C8.25274 1.56333 8.308 1.59999 8.354 1.64599L10.354 3.64599C10.5493 3.84132 10.5493 4.15802 10.354 4.35335C10.2567 4.45068 10.1287 4.5 10.0007 4.5C9.87265 4.5 9.74463 4.45135 9.6473 4.35335L8.50065 3.20666V10.6667C8.50065 10.9427 8.27665 11.1667 8.00065 11.1667C7.72465 11.1667 7.50065 10.9427 7.50065 10.6667V3.20731L6.354 4.354C6.158 4.54867 5.84198 4.54868 5.64665 4.35335ZM12 6.16666C11.724 6.16666 11.5 6.39066 11.5 6.66666C11.5 6.94266 11.724 7.16666 12 7.16666C13.0513 7.16666 13.5 7.61533 13.5 8.66666V12C13.5 13.0513 13.0513 13.5 12 13.5H4C2.94867 13.5 2.5 13.0513 2.5 12V8.66666C2.5 7.61533 2.94867 7.16666 4 7.16666C4.276 7.16666 4.5 6.94266 4.5 6.66666C4.5 6.39066 4.276 6.16666 4 6.16666C2.388 6.16666 1.5 7.05466 1.5 8.66666V12C1.5 13.612 2.388 14.5 4 14.5H12C13.612 14.5 14.5 13.612 14.5 12V8.66666C14.5 7.05466 13.612 6.16666 12 6.16666Z" fill="#3B3B3E"/>
</svg>
