<svg width="16" height="16" viewBox="0 0 16 16" fill="none" xmlns="http://www.w3.org/2000/svg">
<path d="M13.8317 5.65475L9.37699 1.99273C8.57899 1.33739 7.421 1.33673 6.623 1.99273L2.16833 5.65475C1.655 6.07675 1.41034 6.74538 1.52901 7.39938L2.49906 12.7214C2.68706 13.7514 3.58372 14.4994 4.63106 14.4994H11.3677C12.415 14.4994 13.3117 13.7514 13.4997 12.7214L14.4697 7.39938C14.5897 6.74538 14.345 6.07675 13.8317 5.65475ZM13.4864 7.2201L12.5164 12.542C12.4157 13.0967 11.9324 13.4994 11.3684 13.4994H4.63171C4.06771 13.4994 3.58501 13.0967 3.48368 12.542L2.51371 7.22075C2.45904 6.92342 2.5704 6.61938 2.8044 6.42738L7.25899 2.76543C7.47365 2.58877 7.73703 2.5007 8.00036 2.5007C8.26369 2.5007 8.52707 2.58877 8.74173 2.76543L13.1963 6.42738C13.4297 6.61938 13.541 6.92277 13.4864 7.2201ZM9.65433 9.9461C9.90633 9.56143 10.0557 9.10341 10.0557 8.61008C10.0557 7.26274 8.95902 6.16542 7.61169 6.16542C6.26369 6.16542 5.16703 7.26208 5.16703 8.61008C5.16703 9.95808 6.26369 11.0547 7.61169 11.0547C8.10502 11.0547 8.56306 10.9054 8.94706 10.6527L9.97969 11.6854C10.077 11.7828 10.205 11.8321 10.333 11.8321C10.461 11.8321 10.5891 11.7834 10.6864 11.6854C10.8817 11.4901 10.8817 11.1734 10.6864 10.9781L9.65433 9.9461ZM6.16703 8.61073C6.16703 7.81406 6.81502 7.16607 7.61169 7.16607C8.40769 7.16607 9.0557 7.81406 9.0557 8.61073C9.0557 9.40739 8.40769 10.0554 7.61169 10.0554C6.81502 10.0547 6.16703 9.40673 6.16703 8.61073Z" fill="#3B3B3E"/>
</svg>
