<svg width="16" height="16" viewBox="0 0 16 16" fill="none" xmlns="http://www.w3.org/2000/svg">
<path d="M13.472 5.42718L9.39201 2.00652C8.58601 1.32986 7.41399 1.32986 6.60799 2.00652L2.52799 5.42718C1.89066 5.95584 1.5 6.35187 1.5 7.76653V11.9999C1.5 13.6119 2.388 14.4999 4 14.4999H12C13.612 14.4999 14.5 13.6119 14.5 11.9999V7.76653C14.5 6.35187 14.1093 5.95584 13.472 5.42718ZM13.5 11.9999C13.5 13.0512 13.0513 13.4999 12 13.4999H4C2.94867 13.4999 2.5 13.0512 2.5 11.9999V7.76653C2.5 6.7492 2.66802 6.60988 3.16602 6.19655L7.25 2.77256C7.46733 2.59056 7.734 2.4992 8 2.4992C8.266 2.4992 8.53267 2.59056 8.75 2.77256L12.834 6.19655C13.332 6.60988 13.5 6.7492 13.5 7.76653V11.9999ZM9.66667 8.24716V7.49985C9.66667 6.58118 8.91933 5.83318 8 5.83318C7.08067 5.83318 6.33333 6.58118 6.33333 7.49985V8.24716C5.80467 8.41916 5.5 8.86786 5.5 9.52386V10.8098C5.5 11.6592 6.00734 12.1672 6.85734 12.1672H9.14266C9.99266 12.1672 10.5 11.6598 10.5 10.8098V9.52386C10.5 8.86786 10.1953 8.41916 9.66667 8.24716ZM8 6.83318C8.368 6.83318 8.66667 7.13252 8.66667 7.49985V8.16652H7.33333V7.49985C7.33333 7.13252 7.632 6.83318 8 6.83318ZM9.5 10.8092C9.5 11.1025 9.43666 11.1665 9.14266 11.1665H6.85734C6.56334 11.1665 6.5 11.1032 6.5 10.8092V9.52321C6.5 9.22987 6.56334 9.16587 6.85734 9.16587H9.14266C9.43666 9.16587 9.5 9.22921 9.5 9.52321V10.8092Z" fill="#3B3B3E"/>
</svg>
