<svg width="16" height="16" viewBox="0 0 16 16" fill="none" xmlns="http://www.w3.org/2000/svg">
<path d="M11.02 5.68621L14.3533 2.35288C14.5486 2.15755 14.5486 1.84086 14.3533 1.64552C14.158 1.45019 13.8413 1.45019 13.6459 1.64552L10.448 4.84352C10.3853 4.84685 10.3219 4.84688 10.2599 4.85288C10.0505 4.56221 9.80386 4.28952 9.52386 4.03818C8.64719 3.26018 7.51328 2.83221 6.33262 2.83221C3.66728 2.83221 1.49928 5.00021 1.49928 7.66554C1.49928 9.27821 2.31528 10.7829 3.62461 11.6662L1.64528 13.6455C1.44995 13.8409 1.44995 14.1575 1.64528 14.3529C1.74261 14.4502 1.87063 14.4995 1.99863 14.4995C2.12663 14.4995 2.25465 14.4509 2.35199 14.3529L11.02 5.68621ZM2.49993 7.66619C2.49993 5.55219 4.21927 3.83286 6.33327 3.83286C7.26927 3.83286 8.16731 4.17151 8.85931 4.78485C9.15264 5.04818 9.40065 5.34087 9.59531 5.65553C9.60065 5.6642 9.60868 5.66953 9.61468 5.6782L4.35589 10.9369C3.22122 10.2562 2.49993 9.01219 2.49993 7.66619ZM14.4999 8.66619C14.4999 10.7802 12.7806 12.4995 10.6666 12.4995H6.6666C6.3906 12.4995 6.1666 12.2755 6.1666 11.9995C6.1666 11.7235 6.3906 11.4995 6.6666 11.4995H10.6666C12.2293 11.4995 13.4999 10.2289 13.4999 8.66619C13.4999 7.78086 13.076 6.93286 12.366 6.39886C12.1453 6.23286 12.1012 5.91953 12.2672 5.69887C12.4325 5.47887 12.7445 5.43288 12.9679 5.59954C13.9272 6.32154 14.4999 7.46819 14.4999 8.66619Z" fill="#3B3B3E"/>
</svg>
