<svg width="16" height="16" viewBox="0 0 16 16" fill="none" xmlns="http://www.w3.org/2000/svg">
<path d="M13.8317 5.65475L9.37699 1.99273C8.57899 1.33739 7.421 1.33673 6.623 1.99273L2.16833 5.65475C1.655 6.07675 1.41034 6.74538 1.52901 7.39938L2.49906 12.7214C2.68706 13.7514 3.58372 14.4994 4.63106 14.4994H11.3677C12.415 14.4994 13.3117 13.7514 13.4997 12.7214L14.4697 7.39938C14.5897 6.74538 14.345 6.07675 13.8317 5.65475ZM13.4864 7.2201L12.5164 12.542C12.4157 13.0967 11.9324 13.4994 11.3684 13.4994H4.63171C4.06771 13.4994 3.58501 13.0967 3.48368 12.542L2.51371 7.22075C2.45904 6.92342 2.5704 6.61938 2.8044 6.42738L7.25899 2.76543C7.47365 2.58877 7.73703 2.5007 8.00036 2.5007C8.26369 2.5007 8.52707 2.58942 8.74173 2.76608L13.1963 6.42803C13.4297 6.61936 13.541 6.92277 13.4864 7.2201ZM11.167 8.34543V10.0121C11.167 10.0774 11.1537 10.1421 11.1284 10.2034C11.0777 10.3254 10.9804 10.4228 10.8584 10.4734C10.797 10.4988 10.7324 10.5121 10.667 10.5121H9.00036C8.72436 10.5121 8.50036 10.2881 8.50036 10.0121C8.50036 9.7361 8.72436 9.5121 9.00036 9.5121H9.45967L8.42101 8.47344L7.69038 9.25941C7.32838 9.62141 6.69501 9.62274 6.33101 9.25941L4.98034 7.90809C4.78501 7.71276 4.78501 7.39607 4.98034 7.20073C5.17567 7.0054 5.49236 7.0054 5.6877 7.20073L7.03902 8.55205L7.76973 7.76608C8.13306 7.40275 8.76569 7.40342 9.12902 7.76608L10.1677 8.80474V8.34543C10.1677 8.06943 10.3917 7.84543 10.6677 7.84543C10.9437 7.84543 11.167 8.06876 11.167 8.34543Z" fill="#3B3B3E"/>
</svg>
