<svg width="16" height="16" viewBox="0 0 16 16" fill="none" xmlns="http://www.w3.org/2000/svg">
<path d="M10.2754 4.58333L4.99333 7.06934C4.66666 7.22267 4.47402 7.55473 4.50269 7.91406C4.53202 8.27406 4.77468 8.57059 5.12268 8.66992L6.394 9.03337C6.67334 9.11337 6.88667 9.32664 6.96667 9.60531L7.33 10.8779C7.42933 11.2246 7.72669 11.4674 8.08602 11.4967C8.11002 11.4987 8.13332 11.4993 8.15666 11.4993C8.48866 11.4993 8.78733 11.3113 8.93066 11.0067L11.4167 5.72331C11.572 5.39197 11.506 5.01064 11.2467 4.7513C10.988 4.49397 10.608 4.42733 10.2754 4.58333ZM8.18734 10.2393L7.92802 9.33138C7.75269 8.71805 7.28201 8.24727 6.66801 8.07194L5.76135 7.81266L10.344 5.65592L8.18734 10.2393ZM11.75 1.5H4.25C2.47667 1.5 1.5 2.47667 1.5 4.25V11.75C1.5 13.5233 2.47667 14.5 4.25 14.5H11.75C13.5233 14.5 14.5 13.5233 14.5 11.75V4.25C14.5 2.47667 13.5233 1.5 11.75 1.5ZM13.5 11.75C13.5 12.9767 12.9767 13.5 11.75 13.5H4.25C3.02333 13.5 2.5 12.9767 2.5 11.75V4.25C2.5 3.02333 3.02333 2.5 4.25 2.5H11.75C12.9767 2.5 13.5 3.02333 13.5 4.25V11.75Z" fill="#3B3B3E"/>
</svg>
