<svg width="16" height="16" viewBox="0 0 16 16" fill="none" xmlns="http://www.w3.org/2000/svg">
<path d="M13.9805 5.45522L10.5445 2.01918C10.0652 1.53918 9.61583 1.47582 9.32249 1.50649C8.90183 1.55115 8.51184 1.82046 8.2245 2.26446L6.75383 4.53709C6.5645 4.82975 6.24383 5.00453 5.89517 5.00453C4.47183 5.00453 3.13383 5.55841 2.12716 6.56508C2.03316 6.65908 1.98049 6.78577 1.98049 6.91843C1.98049 7.0511 2.03316 7.17845 2.12716 7.27179L5.07383 10.2178L1.6465 13.6458C1.45117 13.8411 1.45117 14.1578 1.6465 14.3532C1.74383 14.4505 1.87183 14.4998 1.99983 14.4998C2.12783 14.4998 2.25583 14.4512 2.35317 14.3532L5.7805 10.9251L8.72717 13.8711C8.8245 13.9684 8.9525 14.0179 9.0805 14.0179C9.2085 14.0179 9.3365 13.9691 9.43383 13.8711C10.4398 12.8651 10.9945 11.5265 10.9945 10.1038C10.9945 9.75582 11.1692 9.43443 11.4618 9.24509L13.7352 7.77374C14.1792 7.48641 14.4485 7.09576 14.4932 6.67576C14.5238 6.38376 14.4598 5.93455 13.9805 5.45522ZM13.1918 6.9352L10.9185 8.40574C10.3398 8.78041 9.9945 9.41515 9.9945 10.1038C9.9945 11.0912 9.66583 12.0292 9.0605 12.7905L3.2085 6.93845C3.9705 6.33312 4.90783 6.00453 5.89517 6.00453C6.58383 6.00453 7.2185 5.65921 7.59317 5.08054L9.06383 2.80776C9.18049 2.62709 9.31717 2.51245 9.4285 2.50112C9.57384 2.48912 9.74717 2.63589 9.83783 2.72589L13.2738 6.16176C13.3645 6.25243 13.5138 6.42577 13.4985 6.5711C13.4865 6.68244 13.3725 6.8192 13.1918 6.9352Z" fill="#3B3B3E"/>
</svg>
