<svg width="16" height="16" viewBox="0 0 16 16" fill="none" xmlns="http://www.w3.org/2000/svg">
<path d="M8.23206 1.6524C7.65539 1.38507 6.99669 1.47365 6.51135 1.88499L4.05074 3.96979C3.90007 4.09712 3.70869 4.16705 3.51135 4.16705H2.33337C1.50671 4.16705 0.833374 4.83972 0.833374 5.66705V10.3331C0.833374 11.1604 1.50671 11.8331 2.33337 11.8331H3.51135C3.70869 11.8331 3.90001 11.903 4.05001 12.0303L6.5107 14.1151C6.81004 14.3691 7.17669 14.5004 7.54936 14.5004C7.78002 14.5004 8.01206 14.4504 8.23206 14.3477C8.80872 14.0804 9.16671 13.5197 9.16671 12.8837V3.11513C9.16671 2.48046 8.80872 1.91907 8.23206 1.6524ZM8.16671 12.885C8.16671 13.1303 8.03407 13.3385 7.8114 13.4418C7.58873 13.5458 7.34402 13.5111 7.15735 13.3531L4.69674 11.2685C4.36607 10.9885 3.94534 10.8337 3.512 10.8337H2.33403C2.05869 10.8337 1.83403 10.6097 1.83403 10.3337V5.6677C1.83403 5.3917 2.05869 5.1677 2.33403 5.1677H3.512C3.94534 5.1677 4.36607 5.0138 4.69674 4.73313L7.15808 2.64833C7.34341 2.48967 7.58873 2.45646 7.8114 2.55979C8.03407 2.66312 8.16671 2.8711 8.16671 3.11643V12.885ZM15.0201 8.98036C15.2154 9.1757 15.2154 9.49239 15.0201 9.68772C14.9227 9.78505 14.7947 9.83437 14.6667 9.83437C14.5387 9.83437 14.4107 9.78572 14.3134 9.68772L13.3334 8.70774L12.3534 9.68772C12.2561 9.78505 12.128 9.83437 12 9.83437C11.872 9.83437 11.744 9.78572 11.6467 9.68772C11.4514 9.49239 11.4514 9.1757 11.6467 8.98036L12.6267 8.00038L11.6467 7.0204C11.4514 6.82507 11.4514 6.50838 11.6467 6.31305C11.842 6.11771 12.1587 6.11771 12.354 6.31305L13.334 7.29303L14.314 6.31305C14.5093 6.11771 14.826 6.11771 15.0214 6.31305C15.2167 6.50838 15.2167 6.82507 15.0214 7.0204L14.0414 8.00038L15.0201 8.98036Z" fill="#3B3B3E"/>
</svg>
