<svg width="16" height="16" viewBox="0 0 16 16" fill="none" xmlns="http://www.w3.org/2000/svg">
<path d="M2.5 8.33351C2.5 8.83618 2.6167 9.32077 2.84603 9.7741C2.97136 10.0208 2.87198 10.3215 2.62598 10.4461C2.55398 10.4828 2.47597 10.5002 2.40063 10.5002C2.21797 10.5002 2.04202 10.4003 1.95402 10.2263C1.65735 9.64025 1.5 8.98551 1.5 8.33351C1.5 5.88018 3.21333 4.16685 5.66667 4.16685H10.126L9.646 3.68686C9.45066 3.49153 9.45066 3.17484 9.646 2.97951C9.84133 2.78417 10.158 2.78417 10.3534 2.97951L11.6867 4.31284C11.7327 4.35884 11.7693 4.41411 11.7947 4.47544C11.8453 4.59744 11.8453 4.73544 11.7947 4.85744C11.7693 4.91877 11.7327 4.9742 11.6867 5.0202L10.3534 6.35353C10.256 6.45086 10.128 6.50018 10 6.50018C9.872 6.50018 9.74398 6.45153 9.64665 6.35353C9.45131 6.1582 9.45131 5.84151 9.64665 5.64617L10.1266 5.16619H5.66732C3.47932 5.16686 2.5 6.75751 2.5 8.33351ZM14.046 6.44077C13.9213 6.19477 13.6207 6.09488 13.374 6.22088C13.128 6.34555 13.0286 6.64625 13.154 6.89292C13.3833 7.34625 13.5 7.83085 13.5 8.33351C13.5 9.90951 12.5207 11.5002 10.3333 11.5002H5.87402L6.354 11.0202C6.54934 10.8249 6.54934 10.5082 6.354 10.3128C6.15867 10.1175 5.84198 10.1175 5.64665 10.3128L4.31331 11.6462C4.11798 11.8415 4.11798 12.1582 4.31331 12.3535L5.64665 13.6869C5.74398 13.7842 5.872 13.8335 6 13.8335C6.128 13.8335 6.25602 13.7849 6.35335 13.6869C6.54869 13.4915 6.54869 13.1748 6.35335 12.9795L5.87337 12.4995H10.3327C12.786 12.4995 14.4993 10.7862 14.4993 8.33286C14.5 7.68153 14.3433 7.02677 14.046 6.44077Z" fill="#3B3B3E"/>
</svg>
