<svg width="16" height="16" viewBox="0 0 16 16" fill="none" xmlns="http://www.w3.org/2000/svg">
<path d="M8.00016 0.833008C4.04816 0.833008 0.833496 4.04767 0.833496 7.99967C0.833496 11.9517 4.04816 15.1663 8.00016 15.1663C11.9522 15.1663 15.1668 11.9517 15.1668 7.99967C15.1668 4.04767 11.9522 0.833008 8.00016 0.833008ZM8.00016 14.1663C4.5995 14.1663 1.8335 11.4003 1.8335 7.99967C1.8335 4.59901 4.5995 1.83301 8.00016 1.83301C11.4008 1.83301 14.1668 4.59901 14.1668 7.99967C14.1668 11.4003 11.4008 14.1663 8.00016 14.1663ZM7.85677 5.09228C7.5281 4.81495 7.08009 4.75569 6.69075 4.93636C6.29875 5.11836 6.0555 5.50107 6.0555 5.93441V10.0658C6.0555 10.4991 6.29875 10.8816 6.69075 11.0636C6.84009 11.133 6.99813 11.167 7.15413 11.167C7.40547 11.167 7.65344 11.0784 7.85677 10.9071L10.1649 8.96094C10.4489 8.7216 10.6115 8.37167 10.6115 7.99967C10.6115 7.62767 10.4489 7.27773 10.1649 7.03906L7.85677 5.09228ZM9.52018 8.19629L7.21224 10.1431C7.20024 10.1524 7.16814 10.1824 7.11214 10.1571C7.07414 10.1397 7.0555 10.1091 7.0555 10.0658V5.93441C7.0555 5.89174 7.07414 5.86094 7.11214 5.84294C7.12747 5.8356 7.14215 5.83301 7.15348 5.83301C7.18415 5.83301 7.20357 5.84962 7.21224 5.85628L9.52018 7.80306C9.59885 7.86973 9.61149 7.95436 9.61149 7.99902C9.61149 8.04369 9.59885 8.12962 9.52018 8.19629Z" fill="#3B3B3E"/>
</svg>
