<svg width="16" height="16" viewBox="0 0 16 16" fill="none" xmlns="http://www.w3.org/2000/svg">
<path d="M13.0802 13.0463C14.3668 11.753 15.1668 9.96634 15.1668 7.99967C15.1668 6.03301 14.3668 4.24634 13.0802 2.953C13.0802 2.953 13.0735 2.93967 13.0668 2.933C13.0602 2.92634 13.0535 2.92634 13.0468 2.91968C11.7535 1.63301 9.96683 0.833008 8.00016 0.833008C6.0335 0.833008 4.24682 1.63301 2.95349 2.91968C2.95349 2.91968 2.94016 2.92634 2.93349 2.933C2.92683 2.93967 2.92683 2.94634 2.92017 2.953C1.6335 4.24634 0.833496 6.03301 0.833496 7.99967C0.833496 9.96634 1.6335 11.753 2.92017 13.0463C2.92017 13.0463 2.92683 13.0597 2.93349 13.0663C2.94016 13.073 2.94682 13.073 2.95349 13.0797C4.24682 14.3663 6.0335 15.1663 8.00016 15.1663C9.96683 15.1663 11.7535 14.3663 13.0468 13.0797C13.0468 13.0797 13.0602 13.073 13.0668 13.0663C13.0735 13.0597 13.0735 13.053 13.0802 13.0463ZM1.86016 8.52634C3.17349 8.63967 4.37349 9.15968 5.32016 9.97301L3.30683 11.9863C2.50017 11.033 1.97349 9.83967 1.86016 8.52634ZM3.30683 4.01301L7.2935 7.99967L6.02682 9.26634C4.89349 8.27967 3.44683 7.64634 1.8535 7.52634C1.9535 6.193 2.48016 4.97301 3.30016 4.01301H3.30683ZM14.1402 7.47301C12.8268 7.35968 11.6268 6.83967 10.6802 6.02634L12.6935 4.01301C13.5002 4.96634 14.0268 6.15968 14.1402 7.47301ZM9.9735 5.31967C9.16683 4.36634 8.64016 3.173 8.52682 1.85967C9.84016 1.973 11.0402 2.49301 11.9868 3.30635L9.9735 5.31967ZM9.26682 6.02634L8.00016 7.29301L4.0135 3.30635C4.9735 2.48635 6.19349 1.95967 7.52682 1.85967C7.64016 3.453 8.28016 4.89301 9.26682 6.03301V6.02634ZM6.0335 10.6797C6.84016 11.633 7.36683 12.8263 7.48016 14.1397C6.16683 14.0263 4.96683 13.5063 4.02016 12.693L6.0335 10.6797ZM6.74016 9.97301L8.00683 8.70634L11.9935 12.693C11.0335 13.513 9.8135 14.0397 8.48016 14.1397C8.36683 12.5463 7.72683 11.1063 6.74016 9.96634V9.97301ZM8.7135 7.99967L9.98016 6.73301C11.1135 7.71968 12.5602 8.35301 14.1535 8.47301C14.0535 9.80635 13.5268 11.0263 12.7068 11.9863L8.72016 7.99967H8.7135Z" fill="#3B3B3E"/>
</svg>
