<svg width="16" height="16" viewBox="0 0 16 16" fill="none" xmlns="http://www.w3.org/2000/svg">
<path d="M7.99996 14.4993C7.61596 14.4993 7.232 14.3533 6.93933 14.0607L5.59265 12.7147C5.41665 12.54 5.1366 12.5207 4.9386 12.6687L4.03333 13.348C3.67733 13.6147 3.20864 13.6567 2.81197 13.458C2.41397 13.2593 2.16663 12.8593 2.16663 12.4147V4C2.16663 2.388 3.05463 1.5 4.66663 1.5H11.3333C12.9453 1.5 13.8333 2.388 13.8333 4V12.414C13.8333 12.8587 13.5859 13.2587 13.1879 13.4573C12.7913 13.656 12.3226 13.614 11.9666 13.3473L11.0606 12.6673C10.8633 12.5193 10.5819 12.5387 10.4073 12.714L9.06059 14.06C8.76792 14.3533 8.38396 14.4993 7.99996 14.4993ZM5.23726 11.5707C5.6246 11.5707 6.01059 11.7187 6.29993 12.0073L7.64661 13.354C7.83527 13.5427 8.16463 13.5427 8.35396 13.354L9.70064 12.008C10.2253 11.4833 11.0699 11.4247 11.6606 11.8687L12.5673 12.5487C12.6393 12.6033 12.7067 12.5813 12.742 12.5647C12.776 12.5473 12.8339 12.5053 12.8339 12.4153V4C12.8339 2.94867 12.3853 2.5 11.3339 2.5H4.66728C3.61594 2.5 3.16728 2.94867 3.16728 4V12.414C3.16728 12.504 3.22532 12.546 3.25932 12.5633C3.29465 12.5807 3.36129 12.602 3.43396 12.5473L4.33997 11.8673C4.6053 11.6687 4.92193 11.5707 5.23726 11.5707ZM11.1666 6C11.1666 5.724 10.9426 5.5 10.6666 5.5H7.33329C7.05729 5.5 6.83329 5.724 6.83329 6C6.83329 6.276 7.05729 6.5 7.33329 6.5H10.6666C10.9426 6.5 11.1666 6.276 11.1666 6ZM11.1666 8.66667C11.1666 8.39067 10.9426 8.16667 10.6666 8.16667H7.33329C7.05729 8.16667 6.83329 8.39067 6.83329 8.66667C6.83329 8.94267 7.05729 9.16667 7.33329 9.16667H10.6666C10.9426 9.16667 11.1666 8.94267 11.1666 8.66667ZM5.33329 5.5C5.05729 5.5 4.83329 5.724 4.83329 6C4.83329 6.276 5.05729 6.5 5.33329 6.5C5.60929 6.5 5.83329 6.276 5.83329 6C5.83329 5.724 5.60929 5.5 5.33329 5.5ZM5.33329 8.16667C5.05729 8.16667 4.83329 8.39067 4.83329 8.66667C4.83329 8.94267 5.05729 9.16667 5.33329 9.16667C5.60929 9.16667 5.83329 8.94267 5.83329 8.66667C5.83329 8.39067 5.60929 8.16667 5.33329 8.16667Z" fill="#3B3B3E"/>
</svg>
