<svg width="16" height="16" viewBox="0 0 16 16" fill="none" xmlns="http://www.w3.org/2000/svg">
<path d="M7.83341 2V4.66667C7.83341 6.06 6.82675 7.21333 5.50008 7.44667V14C5.50008 14.2733 5.27341 14.5 5.00008 14.5C4.72675 14.5 4.50008 14.2733 4.50008 14V7.44667C3.17341 7.20667 2.16675 6.05333 2.16675 4.66667V2C2.16675 1.72667 2.39341 1.5 2.66675 1.5C2.94008 1.5 3.16675 1.72667 3.16675 2V4.66667C3.16675 5.68 3.98675 6.5 5.00008 6.5C6.01341 6.5 6.83341 5.68 6.83341 4.66667V2C6.83341 1.72667 7.06008 1.5 7.33341 1.5C7.60675 1.5 7.83341 1.72667 7.83341 2ZM5.66675 5.5C5.94008 5.5 6.16675 5.27333 6.16675 5V2C6.16675 1.72667 5.94008 1.5 5.66675 1.5C5.39341 1.5 5.16675 1.72667 5.16675 2V5C5.16675 5.27333 5.39341 5.5 5.66675 5.5ZM4.33341 5.5C4.60675 5.5 4.83341 5.27333 4.83341 5V2C4.83341 1.72667 4.60675 1.5 4.33341 1.5C4.06008 1.5 3.83341 1.72667 3.83341 2V5C3.83341 5.27333 4.06008 5.5 4.33341 5.5ZM13.2667 7.08C13.0201 7.35333 12.6001 7.66666 11.9067 7.78666V14C11.9067 14.2733 11.6801 14.5 11.4067 14.5C11.1334 14.5 10.9067 14.2733 10.9067 14V7.80667C10.1267 7.71334 9.66674 7.37333 9.40674 7.08C8.94674 6.56 8.76007 5.82667 8.86674 4.96L9.03341 3.59333C9.18007 2.4 10.1668 1.5 11.3401 1.5C12.5134 1.5 13.5001 2.4 13.6467 3.59333L13.8134 4.96C13.9201 5.83334 13.7334 6.56666 13.2734 7.08H13.2667ZM12.8134 5.08L12.6467 3.71334C12.5601 3.02 12.0001 2.5 11.3334 2.5C10.6667 2.5 10.1001 3.02 10.0201 3.71334L9.85341 5.08C9.78675 5.65333 9.88675 6.12667 10.1467 6.42C10.3934 6.7 10.7867 6.84 11.3334 6.84C11.8801 6.84 12.2734 6.7 12.5201 6.42C12.7801 6.12667 12.8867 5.65333 12.8134 5.08V5.08Z" fill="#3B3B3E"/>
</svg>
