<svg width="16" height="16" viewBox="0 0 16 16" fill="none" xmlns="http://www.w3.org/2000/svg">
<path d="M11.1666 5.53597V4.66667C11.1666 2.92067 9.74592 1.5 7.99992 1.5C6.25392 1.5 4.83325 2.92067 4.83325 4.66667V5.53597C3.54125 5.7073 2.83325 6.564 2.83325 8V12C2.83325 13.612 3.72125 14.5 5.33325 14.5H10.6666C12.2786 14.5 13.1666 13.612 13.1666 12V8C13.1666 6.56467 12.4586 5.70797 11.1666 5.53597ZM7.99992 2.5C9.19458 2.5 10.1666 3.472 10.1666 4.66667V5.5H5.83325V4.66667C5.83325 3.472 6.80525 2.5 7.99992 2.5ZM12.1666 12C12.1666 13.0513 11.7179 13.5 10.6666 13.5H5.33325C4.28192 13.5 3.83325 13.0513 3.83325 12V8C3.83325 6.94867 4.28192 6.5 5.33325 6.5H10.6666C11.7179 6.5 12.1666 6.94867 12.1666 8V12ZM8.8466 9.33333C8.8466 9.608 8.70525 9.84004 8.49992 9.99137V11.3333C8.49992 11.6093 8.27592 11.8333 7.99992 11.8333C7.72392 11.8333 7.49992 11.6093 7.49992 11.3333V9.97461C7.30792 9.82194 7.17651 9.59667 7.17651 9.33333C7.17651 8.87333 7.54659 8.5 8.00659 8.5H8.01326C8.47326 8.5 8.8466 8.87333 8.8466 9.33333Z" fill="#3B3B3E"/>
</svg>
