<svg width="16" height="16" viewBox="0 0 16 16" fill="none" xmlns="http://www.w3.org/2000/svg">
<path d="M8.66671 11.5003H3.33337C2.28204 11.5003 1.83337 11.0517 1.83337 10.0003V6.50033H12.8334V6.66699C12.8334 6.94299 13.0574 7.16699 13.3334 7.16699C13.6094 7.16699 13.8334 6.94299 13.8334 6.66699V4.66699C13.8334 3.05499 12.9454 2.16699 11.3334 2.16699H3.33337C1.72137 2.16699 0.833374 3.05499 0.833374 4.66699V10.0003C0.833374 11.6123 1.72137 12.5003 3.33337 12.5003H8.66671C8.94271 12.5003 9.16671 12.2763 9.16671 12.0003C9.16671 11.7243 8.94271 11.5003 8.66671 11.5003ZM3.33337 3.16699H11.3334C12.3847 3.16699 12.8334 3.61566 12.8334 4.66699V5.50033H1.83337V4.66699C1.83337 3.61566 2.28204 3.16699 3.33337 3.16699ZM6.00004 8.83366C6.27604 8.83366 6.50004 9.05766 6.50004 9.33366C6.50004 9.60966 6.27604 9.83366 6.00004 9.83366H4.00004C3.72404 9.83366 3.50004 9.60966 3.50004 9.33366C3.50004 9.05766 3.72404 8.83366 4.00004 8.83366H6.00004ZM15.1287 12.4757C15.206 12.6623 15.1634 12.8777 15.0201 13.0203L14.3534 13.687C14.2561 13.7843 14.128 13.8337 14 13.8337C13.872 13.8337 13.744 13.785 13.6467 13.687C13.506 13.5463 13.4667 13.3423 13.5287 13.167H11.6667C10.8394 13.167 10.1667 12.4943 10.1667 11.667V11.3337C10.1667 11.0577 10.3907 10.8337 10.6667 10.8337C10.9427 10.8337 11.1667 11.0577 11.1667 11.3337V11.667C11.1667 11.943 11.3907 12.167 11.6667 12.167H14.6667C14.8687 12.167 15.0514 12.289 15.1287 12.4757ZM15.1667 10.667V11.0003C15.1667 11.2763 14.9427 11.5003 14.6667 11.5003C14.3907 11.5003 14.1667 11.2763 14.1667 11.0003V10.667C14.1667 10.391 13.9427 10.167 13.6667 10.167H10.6667C10.4647 10.167 10.282 10.045 10.2047 9.85832C10.1274 9.67165 10.17 9.45631 10.3134 9.31364L10.98 8.64697C11.1754 8.45164 11.492 8.45164 11.6874 8.64697C11.828 8.78764 11.8674 8.99166 11.8054 9.16699H13.6667C14.494 9.16699 15.1667 9.83966 15.1667 10.667Z" fill="#3B3B3E"/>
</svg>
