<svg width="16" height="16" viewBox="0 0 16 16" fill="none" xmlns="http://www.w3.org/2000/svg">
<path d="M11.732 5.30868L12.3541 4.68669C12.5494 4.49135 12.5494 4.17466 12.3541 3.97933C12.1588 3.784 11.8421 3.784 11.6467 3.97933L10.9947 4.63135C10.0694 3.92468 8.91808 3.5 7.66675 3.5C4.63408 3.5 2.16675 5.96733 2.16675 9C2.16675 12.0327 4.63408 14.5 7.66675 14.5C10.6994 14.5 13.1667 12.0327 13.1667 9C13.1667 7.57867 12.62 6.28601 11.732 5.30868ZM7.66675 13.5C5.18541 13.5 3.16675 11.4813 3.16675 9C3.16675 6.51867 5.18541 4.5 7.66675 4.5C10.1481 4.5 12.1667 6.51867 12.1667 9C12.1667 11.4813 10.1481 13.5 7.66675 13.5ZM5.50008 2C5.50008 1.724 5.72408 1.5 6.00008 1.5H9.33341C9.60941 1.5 9.83341 1.724 9.83341 2C9.83341 2.276 9.60941 2.5 9.33341 2.5H6.00008C5.72408 2.5 5.50008 2.276 5.50008 2ZM9.35343 8.02002L8.37345 9L9.35343 9.97998C9.54877 10.1753 9.54877 10.492 9.35343 10.6873C9.2561 10.7847 9.12808 10.834 9.00008 10.834C8.87208 10.834 8.74406 10.7853 8.64673 10.6873L7.66675 9.70736L6.68677 10.6873C6.58943 10.7847 6.46141 10.834 6.33341 10.834C6.20541 10.834 6.0774 10.7853 5.98006 10.6873C5.78473 10.492 5.78473 10.1753 5.98006 9.97998L6.96004 9L5.98006 8.02002C5.78473 7.82469 5.78473 7.508 5.98006 7.31266C6.1754 7.11733 6.49209 7.11733 6.68742 7.31266L7.6674 8.29264L8.64738 7.31266C8.84271 7.11733 9.1594 7.11733 9.35474 7.31266C9.55007 7.508 9.54877 7.82469 9.35343 8.02002Z" fill="#3B3B3E"/>
</svg>
