<svg width="16" height="16" viewBox="0 0 16 16" fill="none" xmlns="http://www.w3.org/2000/svg">
<path d="M12 4.16599H7.74805L10.8254 3.13995C11.0874 3.05262 11.2286 2.7693 11.1419 2.5073C11.0539 2.2453 10.7726 2.10272 10.5093 2.19139L4.58659 4.16534H4C2.388 4.16534 1.5 5.05334 1.5 6.66534V11.332C1.5 12.944 2.388 13.832 4 13.832H12C13.612 13.832 14.5 12.944 14.5 11.332V6.66534C14.5 5.05401 13.612 4.16599 12 4.16599ZM13.5 11.3327C13.5 12.384 13.0513 12.8327 12 12.8327H4C2.94867 12.8327 2.5 12.384 2.5 11.3327V6.66599C2.5 5.61466 2.94867 5.16599 4 5.16599H12C13.0513 5.16599 13.5 5.61466 13.5 6.66599V11.3327ZM5.66667 6.83266C4.472 6.83266 3.5 7.80466 3.5 8.99933C3.5 10.194 4.472 11.166 5.66667 11.166C6.86133 11.166 7.83333 10.194 7.83333 8.99933C7.83333 7.80466 6.86133 6.83266 5.66667 6.83266ZM5.66667 10.166C5.02333 10.166 4.5 9.64266 4.5 8.99933C4.5 8.35599 5.02333 7.83266 5.66667 7.83266C6.31 7.83266 6.83333 8.35599 6.83333 8.99933C6.83333 9.64266 6.31 10.166 5.66667 10.166ZM12.5 7.99933C12.5 8.27533 12.276 8.49933 12 8.49933H9.33333C9.05733 8.49933 8.83333 8.27533 8.83333 7.99933C8.83333 7.72333 9.05733 7.49933 9.33333 7.49933H12C12.276 7.49933 12.5 7.72333 12.5 7.99933ZM12.5 9.99933C12.5 10.2753 12.276 10.4993 12 10.4993H9.33333C9.05733 10.4993 8.83333 10.2753 8.83333 9.99933C8.83333 9.72333 9.05733 9.49933 9.33333 9.49933H12C12.276 9.49933 12.5 9.72333 12.5 9.99933Z" fill="#3B3B3E"/>
</svg>
