<svg width="16" height="16" viewBox="0 0 16 16" fill="none" xmlns="http://www.w3.org/2000/svg">
<g clip-path="url(#clip0_36251_7779)">
<path d="M7.3335 12.833H3.3335C2.28216 12.833 1.8335 12.3843 1.8335 11.333V5.83301H12.8335V7.33301C12.8335 7.60901 13.0575 7.83301 13.3335 7.83301C13.6095 7.83301 13.8335 7.60901 13.8335 7.33301V4.33301C13.8335 2.72101 12.9455 1.83301 11.3335 1.83301H10.5002V1.33301C10.5002 1.05701 10.2762 0.833008 10.0002 0.833008C9.72416 0.833008 9.50016 1.05701 9.50016 1.33301V1.83301H5.16683V1.33301C5.16683 1.05701 4.94283 0.833008 4.66683 0.833008C4.39083 0.833008 4.16683 1.05701 4.16683 1.33301V1.83301H3.3335C1.7215 1.83301 0.833496 2.72101 0.833496 4.33301V11.333C0.833496 12.945 1.7215 13.833 3.3335 13.833H7.3335C7.6095 13.833 7.8335 13.609 7.8335 13.333C7.8335 13.057 7.6095 12.833 7.3335 12.833ZM3.3335 2.83301H4.16683V3.33301C4.16683 3.60901 4.39083 3.83301 4.66683 3.83301C4.94283 3.83301 5.16683 3.60901 5.16683 3.33301V2.83301H9.50016V3.33301C9.50016 3.60901 9.72416 3.83301 10.0002 3.83301C10.2762 3.83301 10.5002 3.60901 10.5002 3.33301V2.83301H11.3335C12.3848 2.83301 12.8335 3.28167 12.8335 4.33301V4.83301H1.8335V4.33301C1.8335 3.28167 2.28216 2.83301 3.3335 2.83301ZM5.34684 7.99967C5.34684 8.36767 5.04884 8.66634 4.68018 8.66634C4.31218 8.66634 4.01009 8.36767 4.01009 7.99967C4.01009 7.63167 4.3055 7.33301 4.6735 7.33301H4.68018C5.04818 7.33301 5.34684 7.63167 5.34684 7.99967ZM8.01351 7.99967C8.01351 8.36767 7.71551 8.66634 7.34684 8.66634C6.97884 8.66634 6.67676 8.36767 6.67676 7.99967C6.67676 7.63167 6.97217 7.33301 7.34017 7.33301H7.34684C7.71484 7.33301 8.01351 7.63167 8.01351 7.99967ZM12.0002 8.83301C10.2542 8.83301 8.8335 10.2537 8.8335 11.9997C8.8335 13.7457 10.2542 15.1663 12.0002 15.1663C13.7462 15.1663 15.1668 13.7457 15.1668 11.9997C15.1668 10.2537 13.7462 8.83301 12.0002 8.83301ZM12.0002 14.1663C10.8055 14.1663 9.8335 13.1943 9.8335 11.9997C9.8335 10.805 10.8055 9.83301 12.0002 9.83301C13.1948 9.83301 14.1668 10.805 14.1668 11.9997C14.1668 13.1943 13.1948 14.1663 12.0002 14.1663ZM13.1868 11.0903C13.3822 11.2857 13.3822 11.6024 13.1868 11.7977L12.0755 12.909C11.9815 13.003 11.8548 13.0557 11.7222 13.0557C11.5895 13.0557 11.4621 13.003 11.3688 12.909L10.8135 12.3537C10.6181 12.1583 10.6181 11.8417 10.8135 11.6463C11.0095 11.4503 11.3262 11.4517 11.5208 11.6463L11.7228 11.8483L12.4808 11.091C12.6755 10.895 12.9915 10.895 13.1868 11.0903ZM5.34684 10.6663C5.34684 11.0343 5.04884 11.333 4.68018 11.333C4.31218 11.333 4.01009 11.0343 4.01009 10.6663C4.01009 10.2983 4.3055 9.99967 4.6735 9.99967H4.68018C5.04818 9.99967 5.34684 10.2983 5.34684 10.6663Z" fill="#3B3B3E"/>
</g>
<defs>
<clipPath id="clip0_36251_7779">
<rect width="16" height="16" fill="white"/>
</clipPath>
</defs>
</svg>
