<svg width="16" height="16" viewBox="0 0 16 16" fill="none" xmlns="http://www.w3.org/2000/svg">
<path d="M14.0239 2.78824C14.0233 2.78824 14.0233 2.78825 14.0226 2.78759C12.8886 2.24959 11.6307 2.06091 10.2834 2.22557C9.31403 2.34491 8.494 2.89887 8 3.67487C7.50533 2.89954 6.68598 2.34491 5.71598 2.22557C4.36732 2.06091 3.11138 2.24959 1.97738 2.78759C1.97738 2.78759 1.97739 2.78759 1.97673 2.78759C1.68739 2.92492 1.5 3.22286 1.5 3.54686V12.2169C1.5 12.4795 1.61993 12.7202 1.82926 12.8782C2.03793 13.0362 2.31407 13.0875 2.56673 13.0149C4.50606 12.4642 6.14334 12.6976 7.722 13.7489C7.72867 13.7536 7.73666 13.7549 7.74333 13.7589C7.75066 13.7629 7.756 13.7696 7.764 13.7736C7.77133 13.7776 7.77994 13.7755 7.78727 13.7795C7.85461 13.8115 7.92602 13.8329 7.99935 13.8329C8.07268 13.8329 8.14393 13.8115 8.21126 13.7795C8.2186 13.7762 8.22737 13.7776 8.2347 13.7736C8.24203 13.7696 8.24805 13.7635 8.25472 13.7589C8.26139 13.7549 8.26937 13.7536 8.27604 13.7489C9.85271 12.6976 11.4906 12.4642 13.4313 13.0149C13.6833 13.0862 13.96 13.0362 14.1686 12.8782C14.378 12.7202 14.498 12.4789 14.498 12.2169V3.54686C14.5 3.2242 14.3133 2.92624 14.0239 2.78824ZM4.48926 11.7296C3.84859 11.7296 3.18667 11.8189 2.5 11.9975V3.64753C3.446 3.21953 4.45874 3.07825 5.59408 3.21825C6.68074 3.35158 7.5 4.2782 7.5 5.37287V12.4602C6.54333 11.9722 5.54526 11.7296 4.48926 11.7296ZM13.5 11.9975C11.6827 11.5249 10.038 11.6755 8.5 12.4602V5.37287C8.5 4.27754 9.31927 3.35158 10.4053 3.21825C10.6866 3.18358 10.9607 3.16625 11.228 3.16625C12.038 3.16625 12.788 3.32553 13.4993 3.64753V11.9975H13.5Z" fill="#3B3B3E"/>
</svg>
