<svg width="16" height="16" viewBox="0 0 16 16" fill="none" xmlns="http://www.w3.org/2000/svg">
<path d="M12 1.5H4C2.388 1.5 1.5 2.388 1.5 4V9.33333C1.5 10.9453 2.388 11.8333 4 11.8333H6.16667V13.5H5C4.724 13.5 4.5 13.724 4.5 14C4.5 14.276 4.724 14.5 5 14.5H11C11.276 14.5 11.5 14.276 11.5 14C11.5 13.724 11.276 13.5 11 13.5H9.83333V11.8333H12C13.612 11.8333 14.5 10.9453 14.5 9.33333V4C14.5 2.388 13.612 1.5 12 1.5ZM8.83333 13.5H7.16667V11.8333H8.83333V13.5ZM13.5 9.33333C13.5 10.3847 13.0513 10.8333 12 10.8333H9.33333H6.66667H4C2.94867 10.8333 2.5 10.3847 2.5 9.33333V4C2.5 2.94867 2.94867 2.5 4 2.5H12C13.0513 2.5 13.5 2.94867 13.5 4V9.33333ZM7.02002 5.68669L6.04004 6.66667L7.02002 7.64665C7.21535 7.84198 7.21535 8.15867 7.02002 8.354C6.92269 8.45134 6.79467 8.50065 6.66667 8.50065C6.53867 8.50065 6.41065 8.452 6.31331 8.354L4.97998 7.02067C4.78465 6.82534 4.78465 6.50865 4.97998 6.31331L6.31331 4.97998C6.50865 4.78465 6.82534 4.78465 7.02067 4.97998C7.216 5.17531 7.21535 5.49135 7.02002 5.68669ZM11.02 6.31331C11.2154 6.50865 11.2154 6.82534 11.02 7.02067L9.68669 8.354C9.58935 8.45134 9.46133 8.50065 9.33333 8.50065C9.20533 8.50065 9.07731 8.452 8.97998 8.354C8.78465 8.15867 8.78465 7.84198 8.97998 7.64665L9.95996 6.66667L8.97998 5.68669C8.78465 5.49135 8.78465 5.17466 8.97998 4.97933C9.17531 4.784 9.492 4.784 9.68734 4.97933L11.02 6.31331Z" fill="#3B3B3E"/>
</svg>
