<svg width="16" height="16" viewBox="0 0 16 16" fill="none" xmlns="http://www.w3.org/2000/svg">
<path d="M14.5 3.8201C14.5267 3.2001 14.2934 2.58677 13.8534 2.14677C13.4134 1.70677 12.8134 1.47344 12.18 1.50011C11.56 1.52677 10.9733 1.8201 10.58 2.3001L5.27333 8.60677L3.06003 11.2334C2.6467 11.1201 2.18667 11.2201 1.86 11.5468C1.38 12.0268 1.38 12.8068 1.86 13.2868L2.71335 14.1401C2.95335 14.3801 3.26668 14.5001 3.58668 14.5001C3.90668 14.5001 4.22002 14.3801 4.46002 14.1401C4.78668 13.8134 4.8867 13.3534 4.7667 12.9401L13.7 5.42011C14.18 5.02678 14.4733 4.4401 14.5 3.8201V3.8201ZM3.88002 11.8201L5.66668 9.70011L6.3067 10.3401L4.1867 12.1268L3.88002 11.8201ZM3.75335 13.4334C3.66002 13.5268 3.51336 13.5268 3.42669 13.4334L2.57334 12.5801C2.48 12.4868 2.48 12.3401 2.57334 12.2534C2.62 12.2068 2.68 12.1868 2.74 12.1868C2.8 12.1868 2.86 12.2068 2.90667 12.2534L3.76002 13.1068C3.85336 13.2001 3.85336 13.3468 3.76002 13.4334H3.75335ZM13.06 4.65344L7.07334 9.69343L6.31333 8.93344L11.3534 2.94011C11.5734 2.67344 11.8867 2.52011 12.2333 2.50011C12.5867 2.48011 12.9067 2.60677 13.1467 2.85344C13.3933 3.1001 13.52 3.42677 13.5 3.76677C13.4867 4.11343 13.3267 4.42677 13.0534 4.64677L13.06 4.65344ZM4.34002 5.83344C5.53335 5.83344 6.50669 4.86011 6.50669 3.66677C6.50669 2.47344 5.53335 1.50011 4.34002 1.50011C3.14669 1.50011 2.17335 2.47344 2.17335 3.66677C2.17335 4.86011 3.14669 5.83344 4.34002 5.83344ZM4.34002 2.50011C4.98002 2.50011 5.50669 3.02677 5.50669 3.66677C5.50669 4.30677 4.98002 4.83344 4.34002 4.83344C3.70002 4.83344 3.17335 4.30677 3.17335 3.66677C3.17335 3.02677 3.70002 2.50011 4.34002 2.50011Z" fill="#3B3B3E"/>
</svg>
