<svg width="16" height="16" viewBox="0 0 16 16" fill="none" xmlns="http://www.w3.org/2000/svg">
<path d="M9.53875 6.19093C9.51342 6.1296 9.50002 6.06486 9.50002 5.99953V3.33286C9.50002 3.05686 9.72402 2.83286 10 2.83286C10.276 2.83286 10.5 3.05686 10.5 3.33286V4.79217L13.6467 1.64552C13.842 1.45019 14.1587 1.45019 14.354 1.64552C14.5494 1.84086 14.5494 2.15755 14.354 2.35288L11.2074 5.49953H12.6667C12.9427 5.49953 13.1667 5.72353 13.1667 5.99953C13.1667 6.27553 12.9427 6.49953 12.6667 6.49953H10C9.93468 6.49953 9.86994 6.48612 9.80861 6.46079C9.68661 6.41012 9.58942 6.31293 9.53875 6.19093ZM6.00002 2.83286C5.72402 2.83286 5.50002 3.05686 5.50002 3.33286V4.79217L2.35337 1.64552C2.15804 1.45019 1.84135 1.45019 1.64601 1.64552C1.45068 1.84086 1.45068 2.15755 1.64601 2.35288L4.79266 5.49953H3.33335C3.05735 5.49953 2.83335 5.72353 2.83335 5.99953C2.83335 6.27553 3.05735 6.49953 3.33335 6.49953H6.00002C6.06535 6.49953 6.13009 6.48612 6.19142 6.46079C6.31342 6.41012 6.41061 6.31293 6.46128 6.19093C6.48661 6.1296 6.50002 6.06486 6.50002 5.99953V3.33286C6.50002 3.05686 6.27602 2.83286 6.00002 2.83286ZM11.2074 10.4995H12.6667C12.9427 10.4995 13.1667 10.2755 13.1667 9.99953C13.1667 9.72353 12.9427 9.49953 12.6667 9.49953H10C9.93468 9.49953 9.86994 9.51293 9.80861 9.53826C9.68661 9.58893 9.58927 9.68627 9.53794 9.80893C9.51261 9.87027 9.49936 9.93484 9.49936 10.0002V12.6668C9.49936 12.9428 9.72336 13.1668 9.99936 13.1668C10.2754 13.1668 10.4994 12.9428 10.4994 12.6668V11.2075L13.646 14.3542C13.7433 14.4515 13.8714 14.5008 13.9994 14.5008C14.1274 14.5008 14.2554 14.4522 14.3527 14.3542C14.548 14.1588 14.548 13.8422 14.3527 13.6468L11.2074 10.4995ZM6.19142 9.53826C6.13009 9.51293 6.06535 9.49953 6.00002 9.49953H3.33335C3.05735 9.49953 2.83335 9.72353 2.83335 9.99953C2.83335 10.2755 3.05735 10.4995 3.33335 10.4995H4.79266L1.64601 13.6462C1.45068 13.8415 1.45068 14.1582 1.64601 14.3535C1.74335 14.4509 1.87136 14.5002 1.99936 14.5002C2.12736 14.5002 2.25538 14.4515 2.35272 14.3535L5.49936 11.2069V12.6662C5.49936 12.9422 5.72336 13.1662 5.99936 13.1662C6.27536 13.1662 6.49936 12.9422 6.49936 12.6662V9.99953C6.49936 9.93419 6.48596 9.86945 6.46063 9.80812C6.41063 9.68612 6.31342 9.58893 6.19142 9.53826Z" fill="#3B3B3E"/>
</svg>
