<svg width="16" height="16" viewBox="0 0 16 16" fill="none" xmlns="http://www.w3.org/2000/svg">
<path d="M10.6667 4.16667H11.8979C10.8766 3.114 9.47593 2.5 7.98193 2.5C4.95927 2.5 2.49935 4.96733 2.49935 8C2.49935 11.0327 4.9586 13.5 7.98193 13.5C10.0819 13.5 11.9606 12.3299 12.884 10.4466C13.006 10.1993 13.3047 10.0953 13.5534 10.2179C13.8014 10.3393 13.9034 10.6387 13.7827 10.8867C12.6894 13.1154 10.4674 14.5 7.98275 14.5C4.40875 14.5 1.5 11.584 1.5 8C1.5 4.416 4.40808 1.5 7.98275 1.5C9.85675 1.5 11.6127 2.3093 12.8333 3.69596V2C12.8333 1.724 13.0573 1.5 13.3333 1.5C13.6093 1.5 13.8333 1.724 13.8333 2V4.66667C13.8333 4.94267 13.6093 5.16667 13.3333 5.16667H10.6667C10.3907 5.16667 10.1667 4.94267 10.1667 4.66667C10.1667 4.39067 10.3907 4.16667 10.6667 4.16667ZM8 4.83333C7.724 4.83333 7.5 5.05733 7.5 5.33333V8C7.5 8.13267 7.55265 8.26002 7.64665 8.35335L8.97998 9.68669C9.07731 9.78402 9.20533 9.83333 9.33333 9.83333C9.46133 9.83333 9.58935 9.78469 9.68669 9.68669C9.88202 9.49135 9.88202 9.17466 9.68669 8.97933L8.5 7.79264V5.33333C8.5 5.05733 8.276 4.83333 8 4.83333Z" fill="#3B3B3E"/>
</svg>
