<svg width="16" height="16" viewBox="0 0 16 16" fill="none" xmlns="http://www.w3.org/2000/svg">
<path d="M11.6667 4.83301H3C2.06067 4.83301 1.5 5.39367 1.5 6.33301V10.333C1.5 11.2723 2.06067 11.833 3 11.833H11.6667C12.606 11.833 13.1667 11.2723 13.1667 10.333V6.33301C13.1667 5.39367 12.606 4.83301 11.6667 4.83301ZM12.1667 10.333C12.1667 10.7257 12.0593 10.833 11.6667 10.833H3C2.60733 10.833 2.5 10.7257 2.5 10.333V6.33301C2.5 5.94034 2.60733 5.83301 3 5.83301H11.6667C12.0593 5.83301 12.1667 5.94034 12.1667 6.33301V10.333ZM14.5 7.33301V9.33301C14.5 9.60901 14.276 9.83301 14 9.83301C13.724 9.83301 13.5 9.60901 13.5 9.33301V7.33301C13.5 7.05701 13.724 6.83301 14 6.83301C14.276 6.83301 14.5 7.05701 14.5 7.33301Z" fill="#3B3B3E"/>
</svg>
