<svg width="16" height="16" viewBox="0 0 16 16" fill="none" xmlns="http://www.w3.org/2000/svg">
<path d="M14.1456 7.96667C14.4663 7.65467 14.5802 7.1967 14.4422 6.77136C14.3042 6.34536 13.943 6.0407 13.499 5.97603L10.5109 5.54403C10.4563 5.53603 10.4096 5.50201 10.3849 5.45268L9.09027 2.84135C8.8836 2.42468 8.46625 2.16602 8.00092 2.16602C7.53558 2.16602 7.11823 2.42468 6.91156 2.84135L5.61623 5.45337C5.59223 5.50204 5.54557 5.53603 5.4909 5.54403L2.50295 5.97603C2.05895 6.04003 1.69759 6.3447 1.55959 6.77136C1.42159 7.19736 1.53564 7.65534 1.8563 7.96667L4.01695 10.064C4.05628 10.102 4.07356 10.1567 4.06423 10.2107L3.57025 13.078C3.49158 13.536 3.67627 13.9907 4.05227 14.264C4.42893 14.5387 4.92028 14.5747 5.33295 14.3587L7.92295 13.0033C7.94562 12.9913 7.97096 12.986 7.99563 12.9854C7.99763 12.9854 7.99957 12.9867 8.00157 12.9867C8.00357 12.9867 8.00559 12.9854 8.00759 12.9854C8.03225 12.986 8.05759 12.9913 8.08026 13.0033L10.6723 14.36C10.8516 14.4534 11.0449 14.5 11.2376 14.5C11.4889 14.5 11.7389 14.4213 11.9516 14.2653C12.3269 13.992 12.5116 13.538 12.433 13.0807L11.9389 10.212C11.9296 10.158 11.9476 10.1027 11.9869 10.0647L14.1456 7.96667ZM4.86826 13.472C4.76293 13.526 4.68092 13.4847 4.63959 13.4554C4.59959 13.426 4.53562 13.36 4.55495 13.2474L5.04893 10.38C5.11426 10 4.98761 9.61336 4.71161 9.34603L2.55161 7.24935C2.48695 7.18668 2.49762 7.11666 2.50962 7.08C2.52162 7.04333 2.55496 6.97936 2.64496 6.96602L5.63291 6.53402C6.01358 6.47935 6.34224 6.24067 6.51158 5.89734L7.49961 3.90401V12.1007C7.48561 12.1073 7.47095 12.1094 7.45762 12.1167L4.86826 13.472ZM10.9516 10.38L11.4456 13.2493C11.4649 13.362 11.4016 13.4273 11.3616 13.456C11.3216 13.4853 11.2376 13.5274 11.1343 13.4727L8.54226 12.116C8.52892 12.1093 8.5136 12.1067 8.50026 12.1V3.90401L9.48757 5.896C9.65757 6.24 9.9863 6.4787 10.367 6.53337L13.3549 6.96533C13.4449 6.97867 13.4789 7.04201 13.4903 7.07935C13.5023 7.11601 13.5123 7.18603 13.4483 7.2487L11.2889 9.34469C11.0129 9.61335 10.8863 10 10.9516 10.38Z" fill="#3B3B3E"/>
</svg>
