<svg width="16" height="16" viewBox="0 0 16 16" fill="none" xmlns="http://www.w3.org/2000/svg">
<path d="M11.6463 2.35288C11.451 2.15755 11.451 1.84086 11.6463 1.64552C11.8417 1.45019 12.1584 1.45019 12.3537 1.64552L13.687 2.97886C13.8824 3.17419 13.8824 3.49088 13.687 3.68621C13.5897 3.78355 13.4617 3.83286 13.3337 3.83286C13.2057 3.83286 13.0777 3.78421 12.9803 3.68621L11.6463 2.35288ZM3.01971 2.35288C3.21504 2.15755 3.21504 1.84086 3.01971 1.64552C2.82438 1.45019 2.50769 1.45019 2.31235 1.64552L0.97902 2.97886C0.783686 3.17419 0.783686 3.49088 0.97902 3.68621C1.07635 3.78355 1.20437 3.83286 1.33237 3.83286C1.46037 3.83286 1.58839 3.78421 1.68573 3.68621L3.01971 2.35288ZM7.35304 12.8329C6.49638 12.8329 5.66241 12.6082 4.93507 12.1789C3.44574 11.3249 2.51971 9.72353 2.51971 7.99953C2.51971 5.33419 4.68771 3.16619 7.35304 3.16619C9.07704 3.16619 10.6783 4.09151 11.535 5.58685C11.8583 6.13552 12.0658 6.74483 12.1498 7.39683C12.1851 7.67083 12.437 7.86489 12.7096 7.82822C12.9836 7.79289 13.1769 7.54216 13.1416 7.26816C13.0396 6.48083 12.7891 5.74418 12.3998 5.08351C11.3678 3.28351 9.43438 2.16554 7.35304 2.16554C4.13638 2.16554 1.51971 4.78221 1.51971 7.99888C1.51971 9.87621 2.43502 11.6269 3.93035 12.7082L2.98244 13.6429C2.78577 13.8369 2.78307 14.1534 2.97707 14.3501C3.0744 14.4494 3.20436 14.4995 3.33302 14.4995C3.45969 14.4995 3.58628 14.4515 3.68361 14.3555L4.81837 13.2368C5.60037 13.6202 6.46438 13.8329 7.35304 13.8329C7.62904 13.8329 7.85304 13.6089 7.85304 13.3329C7.85304 13.0569 7.62904 12.8329 7.35304 12.8329ZM6.83302 5.35955V8.02622C6.83302 8.30222 7.05702 8.52622 7.33302 8.52622C7.60902 8.52622 7.83302 8.30222 7.83302 8.02622V5.35955C7.83302 5.08355 7.60902 4.85955 7.33302 4.85955C7.05702 4.85955 6.83302 5.08355 6.83302 5.35955ZM15.1664 11.3329V12.6662C15.1664 14.2782 14.2784 15.1662 12.6664 15.1662H11.333C9.72102 15.1662 8.83302 14.2782 8.83302 12.6662V11.3329C8.83302 9.72086 9.72102 8.83286 11.333 8.83286H12.6664C14.2784 8.83286 15.1664 9.72086 15.1664 11.3329ZM14.1664 11.3329C14.1664 10.2815 13.7177 9.83286 12.6664 9.83286H11.333C10.2817 9.83286 9.83302 10.2815 9.83302 11.3329V12.6662C9.83302 13.7175 10.2817 14.1662 11.333 14.1662H12.6664C13.7177 14.1662 14.1664 13.7175 14.1664 12.6662V11.3329ZM13.0197 10.9795C12.8244 10.7842 12.5077 10.7842 12.3124 10.9795L11.999 11.2928L11.6857 10.9795C11.4904 10.7842 11.1737 10.7842 10.9784 10.9795C10.783 11.1748 10.783 11.4915 10.9784 11.6869L11.2917 12.0002L10.9784 12.3135C10.783 12.5088 10.783 12.8255 10.9784 13.0208C11.0757 13.1182 11.2037 13.1675 11.3317 13.1675C11.4597 13.1675 11.5877 13.1188 11.6851 13.0208L11.9984 12.7075L12.3117 13.0208C12.409 13.1182 12.5371 13.1675 12.6651 13.1675C12.7931 13.1675 12.9211 13.1188 13.0184 13.0208C13.2137 12.8255 13.2137 12.5088 13.0184 12.3135L12.7051 12.0002L13.0184 11.6869C13.2151 11.4909 13.215 11.1748 13.0197 10.9795Z" fill="#3B3B3E"/>
</svg>
