<svg width="16" height="16" viewBox="0 0 16 16" fill="none" xmlns="http://www.w3.org/2000/svg">
<path d="M8 13.5H4C2.94867 13.5 2.5 13.0513 2.5 12V4C2.5 2.94867 2.94867 2.5 4 2.5H7.5V4C7.5 5.612 8.388 6.5 10 6.5H11.5V8C11.5 8.276 11.724 8.5 12 8.5C12.276 8.5 12.5 8.276 12.5 8V6C12.5 5.86733 12.4474 5.74 12.3534 5.64667L8.35335 1.64667C8.25935 1.55267 8.13267 1.5 8 1.5H4C2.388 1.5 1.5 2.388 1.5 4V12C1.5 13.612 2.388 14.5 4 14.5H8C8.276 14.5 8.5 14.276 8.5 14C8.5 13.724 8.276 13.5 8 13.5ZM8.5 4V3.20734L10.7926 5.5H10C8.94867 5.5 8.5 5.05133 8.5 4ZM5.16667 8C5.16667 8.276 4.94267 8.5 4.66667 8.5C4.39067 8.5 4.16667 8.276 4.16667 8C4.16667 7.724 4.39067 7.5 4.66667 7.5C4.94267 7.5 5.16667 7.724 5.16667 8ZM5.16667 10.6667C5.16667 10.9427 4.94267 11.1667 4.66667 11.1667C4.39067 11.1667 4.16667 10.9427 4.16667 10.6667C4.16667 10.3907 4.39067 10.1667 4.66667 10.1667C4.94267 10.1667 5.16667 10.3907 5.16667 10.6667ZM9.33333 8.5H6.33333C6.05733 8.5 5.83333 8.276 5.83333 8C5.83333 7.724 6.05733 7.5 6.33333 7.5H9.33333C9.60933 7.5 9.83333 7.724 9.83333 8C9.83333 8.276 9.60933 8.5 9.33333 8.5ZM6.33333 11.1667C6.05733 11.1667 5.83333 10.9427 5.83333 10.6667C5.83333 10.3907 6.05733 10.1667 6.33333 10.1667H7.33333C7.60933 10.1667 7.83333 10.3907 7.83333 10.6667C7.83333 10.9427 7.60933 11.1667 7.33333 11.1667H6.33333ZM15.02 14.3133L13.9867 13.28C14.2387 12.8953 14.3887 12.438 14.3887 11.9447C14.3887 10.5967 13.292 9.5 11.9447 9.5C10.5967 9.5 9.5 10.5967 9.5 11.9447C9.5 13.2927 10.5967 14.3893 11.9447 14.3893C12.438 14.3893 12.8953 14.24 13.2799 13.988L14.3133 15.0207C14.4106 15.118 14.5387 15.1673 14.6667 15.1673C14.7947 15.1673 14.9227 15.1187 15.02 15.0207C15.2154 14.8247 15.2154 14.508 15.02 14.3133ZM10.5 11.9447C10.5 11.148 11.148 10.5 11.9447 10.5C12.7407 10.5 13.3887 11.148 13.3887 11.9447C13.3887 12.7413 12.7407 13.3893 11.9447 13.3893C11.148 13.3887 10.5 12.7407 10.5 11.9447Z" fill="#3B3B3E"/>
</svg>
