<svg width="16" height="16" viewBox="0 0 16 16" fill="none" xmlns="http://www.w3.org/2000/svg">
<path d="M7.99992 1.5C4.99992 1.5 2.83325 6.18 2.83325 9.33333C2.83325 11.4133 4.20659 14.5 7.99992 14.5C11.7933 14.5 13.1666 11.4133 13.1666 9.33333C13.1666 6.18 10.9999 1.5 7.99992 1.5ZM7.99992 13.5C4.93992 13.5 3.83325 11.0067 3.83325 9.33333C3.83325 6.63333 5.69992 2.5 7.99992 2.5C10.2999 2.5 12.1666 6.63333 12.1666 9.33333C12.1666 11.0067 11.0599 13.5 7.99992 13.5ZM6.61991 5.60667C6.61991 5.60667 5.83325 6.84 5.83325 8C5.83325 8.27333 5.60659 8.5 5.33325 8.5C5.05992 8.5 4.83325 8.27333 4.83325 8C4.83325 6.53333 5.73991 5.12 5.77991 5.06C5.93324 4.82666 6.23993 4.76 6.47327 4.91333C6.7066 5.06666 6.77325 5.37334 6.61991 5.60667V5.60667Z" fill="#3B3B3E"/>
</svg>
