<svg width="16" height="16" viewBox="0 0 16 16" fill="none" xmlns="http://www.w3.org/2000/svg">
<path d="M13.8335 6.20898V3.33301C13.8335 1.72101 12.9455 0.833008 11.3335 0.833008H3.3335C1.7215 0.833008 0.833496 1.72101 0.833496 3.33301V8.66634C0.833496 10.2783 1.7215 11.1663 3.3335 11.1663H5.50016V12.833H4.3335C4.0575 12.833 3.8335 13.057 3.8335 13.333C3.8335 13.609 4.0575 13.833 4.3335 13.833H8.21077C8.36944 14.685 8.98215 15.1663 9.95215 15.1663H13.3809C14.5155 15.1663 15.1668 14.5124 15.1668 13.3717V7.96094C15.1668 6.98294 14.6855 6.36632 13.8335 6.20898ZM3.3335 1.83301H11.3335C12.3848 1.83301 12.8335 2.28167 12.8335 3.33301V6.16634H9.9528C8.98213 6.16634 8.36943 6.64767 8.21143 7.49967H1.83415V3.33301C1.83348 2.28167 2.28216 1.83301 3.3335 1.83301ZM1.8335 8.66634V8.49967H8.16683V10.1663H8.00016H6.00016H3.3335C2.28216 10.1663 1.8335 9.71767 1.8335 8.66634ZM6.50016 11.1663H8.00016H8.16683V12.833H6.50016V11.1663ZM14.1668 13.3717C14.1668 13.9584 13.9609 14.1663 13.3809 14.1663H9.95215C9.37215 14.1663 9.16618 13.9584 9.16618 13.3717V7.96094C9.16618 7.37427 9.37215 7.16634 9.95215 7.16634H13.3809C13.9609 7.16634 14.1668 7.37427 14.1668 7.96094V13.3717ZM12.3335 12.9997C12.3335 13.3677 12.0348 13.6663 11.6668 13.6663C11.2988 13.6663 11.0002 13.3677 11.0002 12.9997C11.0002 12.6317 11.2988 12.333 11.6668 12.333C12.0348 12.333 12.3335 12.6317 12.3335 12.9997Z" fill="#3B3B3E"/>
</svg>
