<svg width="16" height="16" viewBox="0 0 16 16" fill="none" xmlns="http://www.w3.org/2000/svg">
<path d="M14.2554 6.40999C14.098 6.25333 13.8887 6.16667 13.6667 6.16667C13.666 6.16667 13.6654 6.16667 13.6654 6.16667H13.6647C12.346 6.16933 11.0534 6.20604 9.73405 6.62004C8.99205 6.8527 8.39333 7.33731 8 7.95597C7.60733 7.33731 7.00795 6.8527 6.26595 6.62004C4.94662 6.20604 3.65329 6.16933 2.33529 6.16667H2.33464C2.33464 6.16667 2.334 6.16667 2.33333 6.16667C2.11133 6.16667 1.90263 6.25333 1.74463 6.40999C1.5873 6.56799 1.5 6.77732 1.5 7.00065V12.334C1.5 12.7913 1.87068 13.1653 2.32601 13.1673C5.08134 13.1793 6.87066 13.5787 7.646 14.3534C7.65066 14.358 7.65663 14.3593 7.6613 14.364C7.70396 14.404 7.75194 14.4387 7.80794 14.462H7.80859C7.86926 14.4867 7.93402 14.5 7.99935 14.5C8.06468 14.5 8.12927 14.4867 8.18994 14.462H8.19059C8.24659 14.4387 8.29474 14.404 8.3374 14.364C8.34207 14.3593 8.3487 14.358 8.3527 14.3534C9.12804 13.578 10.918 13.1793 13.6733 13.1673C14.1287 13.1653 14.4987 12.7913 14.4987 12.334V7.00065C14.5 6.77798 14.4127 6.56799 14.2554 6.40999ZM2.5 7.16732C3.68067 7.17265 4.83463 7.21931 5.96663 7.57397C6.88397 7.86197 7.5 8.696 7.5 9.64933V13.0353C6.11 12.31 4.07733 12.1826 2.5 12.168V7.16732ZM13.5 12.168C11.9227 12.182 9.89 12.31 8.5 13.0353V9.64933C8.5 8.696 9.11603 7.86197 10.0334 7.57397C11.1654 7.21864 12.32 7.17265 13.5 7.16732V12.168ZM8 5.83333C9.19467 5.83333 10.1667 4.86133 10.1667 3.66667C10.1667 2.472 9.19467 1.5 8 1.5C6.80533 1.5 5.83333 2.472 5.83333 3.66667C5.83333 4.86133 6.80533 5.83333 8 5.83333ZM8 2.5C8.64333 2.5 9.16667 3.02333 9.16667 3.66667C9.16667 4.31 8.64333 4.83333 8 4.83333C7.35667 4.83333 6.83333 4.31 6.83333 3.66667C6.83333 3.02333 7.35667 2.5 8 2.5Z" fill="#3B3B3E"/>
</svg>
