<svg width="16" height="16" viewBox="0 0 16 16" fill="none" xmlns="http://www.w3.org/2000/svg">
<g clip-path="url(#clip0_36251_7359)">
<path d="M6.67269 7.16667C8.23536 7.16667 9.50602 5.89533 9.50602 4.33333C9.50602 2.77133 8.23536 1.5 6.67269 1.5C5.11002 1.5 3.83936 2.77133 3.83936 4.33333C3.83936 5.89533 5.11002 7.16667 6.67269 7.16667ZM6.67269 2.5C7.68402 2.5 8.50602 3.322 8.50602 4.33333C8.50602 5.34467 7.68402 6.16667 6.67269 6.16667C5.66136 6.16667 4.83936 5.34467 4.83936 4.33333C4.83936 3.322 5.66136 2.5 6.67269 2.5ZM8.58732 9.20671C8.41932 9.17937 8.22733 9.16667 8 9.16667H5.33333C2.70467 9.16667 2.5 11.346 2.5 12.0133C2.5 13.0553 2.94867 13.5 4 13.5H7.33333C7.60933 13.5 7.83333 13.724 7.83333 14C7.83333 14.276 7.60933 14.5 7.33333 14.5H4C2.388 14.5 1.5 13.6167 1.5 12.0133C1.5 10.2387 2.504 8.16667 5.33333 8.16667H8C8.28067 8.16667 8.52468 8.18397 8.74601 8.21997C9.01868 8.2633 9.20466 8.51998 9.15999 8.79264C9.11666 9.06531 8.85265 9.25004 8.58732 9.20671ZM12 8.83333C10.254 8.83333 8.83333 10.254 8.83333 12C8.83333 13.746 10.254 15.1667 12 15.1667C13.746 15.1667 15.1667 13.746 15.1667 12C15.1667 10.254 13.746 8.83333 12 8.83333ZM12 14.1667C10.8053 14.1667 9.83333 13.1947 9.83333 12C9.83333 10.8053 10.8053 9.83333 12 9.83333C13.1947 9.83333 14.1667 10.8053 14.1667 12C14.1667 13.1947 13.1947 14.1667 12 14.1667ZM13.068 12.3607C13.2634 12.5553 13.2634 12.8727 13.068 13.068C12.9707 13.1654 12.8427 13.2147 12.7147 13.2147C12.5867 13.2147 12.4587 13.166 12.3613 13.068L11.6473 12.354C11.5533 12.26 11.5007 12.1333 11.5007 12.0007V11.0007C11.5007 10.7247 11.7247 10.5007 12.0007 10.5007C12.2767 10.5007 12.5007 10.7247 12.5007 11.0007V11.7933L13.068 12.3607Z" fill="#3B3B3E"/>
</g>
<defs>
<clipPath id="clip0_36251_7359">
<rect width="16" height="16" fill="white"/>
</clipPath>
</defs>
</svg>
