<svg width="16" height="16" viewBox="0 0 16 16" fill="none" xmlns="http://www.w3.org/2000/svg">
<path d="M12.6668 13.5002H8.8335V13.0862C10.9175 12.6942 12.5002 10.8636 12.5002 8.66692C12.5002 7.46092 12.0268 6.33289 11.1882 5.49423L11.8521 4.83033C12.1795 4.50366 12.3455 4.15095 12.3455 3.78362C12.3455 3.54228 12.2668 3.3089 12.1255 3.08423C12.2955 2.88757 12.2929 2.59284 12.1062 2.40617L11.4395 1.73951C11.2522 1.55217 10.9568 1.54962 10.7608 1.72095C10.1875 1.36495 9.55819 1.45091 9.01619 1.99358L5.83887 5.17099C5.42887 5.58099 5.27549 6.04087 5.37882 6.48821L4.88485 6.98218C4.41085 7.45618 4.41085 8.04497 4.88485 8.51897L5.32747 8.96233C5.56347 9.19766 5.82219 9.31698 6.09619 9.31698C6.37019 9.31698 6.62951 9.19751 6.86418 8.96151L7.35685 8.46884C7.44685 8.4895 7.53749 8.4996 7.62882 8.4996C7.99616 8.4996 8.34814 8.3336 8.6748 8.00627L10.4808 6.20028C11.1321 6.85295 11.4995 7.72893 11.4995 8.66627C11.4995 10.5963 9.92951 12.1663 7.99951 12.1663C7.07551 12.1663 6.20082 11.7963 5.55615 11.1663H6.66683C6.94283 11.1663 7.16683 10.9423 7.16683 10.6663C7.16683 10.3903 6.94283 10.1663 6.66683 10.1663H3.3335C3.0575 10.1663 2.8335 10.3903 2.8335 10.6663C2.8335 10.9423 3.0575 11.1663 3.3335 11.1663H4.27417C5.07217 12.3569 6.39616 13.1009 7.8335 13.1549V13.4996H4.00016C3.72416 13.4996 3.50016 13.7236 3.50016 13.9996C3.50016 14.2756 3.72416 14.4996 4.00016 14.4996H12.6668C12.9428 14.4996 13.1668 14.2756 13.1668 13.9996C13.1668 13.7236 12.9428 13.5002 12.6668 13.5002ZM6.0988 8.30966C6.0848 8.30032 6.06286 8.28365 6.03353 8.25432L5.59082 7.81096C5.56149 7.78163 5.54547 7.76019 5.53613 7.75285C5.54547 7.73885 5.56149 7.71757 5.59082 7.68824L5.92749 7.3523L6.49349 7.91822L6.15682 8.25497C6.12749 8.2843 6.10613 8.30099 6.0988 8.30966ZM7.96818 7.30022C7.71018 7.55822 7.54682 7.55822 7.28882 7.30022L6.54549 6.55689C6.27949 6.29022 6.27949 6.14419 6.54549 5.87753L9.72282 2.70093C9.85615 2.5676 9.95883 2.5009 10.0628 2.5009C10.1668 2.5009 10.2695 2.5676 10.4028 2.70093L11.1455 3.44426C11.2742 3.57359 11.3462 3.69427 11.3462 3.78427C11.3462 3.87427 11.2748 3.99429 11.1455 4.12362L7.96818 7.30022Z" fill="#3B3B3E"/>
</svg>
