<svg width="16" height="16" viewBox="0 0 16 16" fill="none" xmlns="http://www.w3.org/2000/svg">
<path d="M13.6265 4.07279C13.5332 4.03946 13.4732 3.96613 13.4732 3.8728C13.4732 3.20613 12.9198 2.66614 12.2465 2.66614C12.1532 2.66614 12.0665 2.60613 12.0331 2.51279L11.9665 2.32613C11.8198 1.8928 11.4465 1.58613 10.9998 1.51279C10.5465 1.43946 10.0865 1.62614 9.81983 1.99947C9.35983 2.61947 9.15315 3.27947 9.17982 3.99947C8.80648 3.88614 8.41316 3.82613 7.99982 3.82613C5.69982 3.82613 3.83316 5.6928 3.83316 7.9928C3.83316 8.40613 3.89316 8.80613 4.0065 9.17946C3.41316 9.19279 2.78649 9.35281 2.14649 9.69281C1.70649 9.92614 1.45982 10.3795 1.49982 10.8728C1.53982 11.3595 1.85982 11.7595 2.36648 11.9261C2.45982 11.9595 2.51982 12.0328 2.51982 12.1261C2.51982 12.7928 3.07315 13.3328 3.74649 13.3328C3.83982 13.3328 3.92649 13.3928 3.95983 13.4861L4.0265 13.6728C4.17316 14.1061 4.54648 14.4128 4.99315 14.4861C5.05982 14.4995 5.11982 14.4995 5.18649 14.4995C5.57316 14.4995 5.94648 14.3195 6.17982 13.9995C6.63982 13.3795 6.8465 12.7195 6.81983 11.9995C7.19316 12.1128 7.58649 12.1728 7.99982 12.1728C10.2998 12.1728 12.1665 10.3061 12.1665 8.00614C12.1665 7.59948 12.1065 7.20614 11.9932 6.8328C12.5865 6.81947 13.2131 6.64613 13.8465 6.30613C14.2865 6.0728 14.5331 5.61947 14.4931 5.12614C14.4531 4.63947 14.1332 4.23946 13.6265 4.07279V4.07279ZM6.49982 10.7728V5.23281C6.80649 5.06614 7.13982 4.94613 7.49982 4.88613V11.1195C7.13982 11.0595 6.80649 10.9395 6.49982 10.7728V10.7728ZM8.49982 4.88613C8.85982 4.94613 9.19316 5.06614 9.49982 5.23281V10.7728C9.19316 10.9395 8.85982 11.0595 8.49982 11.1195V4.88613V4.88613ZM5.49982 6.07947V9.91947C5.08649 9.38614 4.83316 8.72614 4.83316 7.99947C4.83316 7.2728 5.08649 6.6128 5.49982 6.07947ZM5.37316 13.4061C5.29982 13.5061 5.19316 13.5061 5.15316 13.4995C5.1065 13.4928 5.01315 13.4661 4.97315 13.3461L4.90648 13.1595C4.74648 12.6661 4.27983 12.3328 3.75316 12.3328C3.63316 12.3328 3.5265 12.2395 3.5265 12.1261C3.5265 11.6061 3.19316 11.1461 2.65316 10.9661C2.53316 10.9261 2.5065 10.8395 2.5065 10.7928C2.5065 10.7528 2.50649 10.6461 2.62649 10.5861C3.30649 10.2261 3.9265 10.1128 4.4865 10.2195C4.81316 10.7328 5.23982 11.1661 5.74649 11.4995C5.91982 12.2261 5.81316 12.8195 5.37983 13.4061H5.37316ZM10.4998 9.91947V6.07947C10.9132 6.6128 11.1665 7.2728 11.1665 7.99947C11.1665 8.72614 10.9132 9.38614 10.4998 9.91947ZM13.3798 5.41947C12.6998 5.77947 12.0798 5.8928 11.5198 5.78613C11.1932 5.2728 10.7665 4.83948 10.2598 4.50614C10.0865 3.77948 10.1932 3.18613 10.6265 2.59946C10.6998 2.49946 10.8065 2.49948 10.8465 2.50614C10.8931 2.51281 10.9865 2.53946 11.0265 2.65946L11.0932 2.84613C11.2532 3.33946 11.7198 3.67281 12.2465 3.67281C12.3665 3.67281 12.4732 3.76614 12.4732 3.87947C12.4732 4.39947 12.8065 4.85947 13.3465 5.03947C13.4665 5.07947 13.4931 5.16614 13.4931 5.21281C13.4931 5.25281 13.4932 5.35947 13.3732 5.41947H13.3798Z" fill="#3B3B3E"/>
</svg>
