<svg width="16" height="16" viewBox="0 0 16 16" fill="none" xmlns="http://www.w3.org/2000/svg">
<path d="M8.13281 9.86702C8.32815 10.0624 8.32815 10.379 8.13281 10.5744L7.02148 11.6857C6.97548 11.7317 6.9202 11.7683 6.85954 11.7936C6.79887 11.819 6.73346 11.8324 6.66813 11.8324C6.6028 11.8324 6.53822 11.819 6.47689 11.7936C6.41555 11.7683 6.36078 11.7317 6.31478 11.6857L5.20345 10.5744C5.00812 10.3797 5.00812 10.0624 5.20345 9.86702C5.39878 9.67169 5.71547 9.67169 5.91081 9.86702L6.16878 10.1243V5.99772C6.16878 5.72172 6.39278 5.49772 6.66878 5.49772C6.94478 5.49772 7.16878 5.72172 7.16878 5.99772V10.1243L7.42676 9.86702C7.62209 9.67169 7.93815 9.67236 8.13281 9.86702ZM9.68555 4.31169C9.63955 4.26569 9.58412 4.22895 9.52279 4.20361C9.40079 4.15295 9.26279 4.15295 9.14079 4.20361C9.07945 4.22895 9.02419 4.26569 8.97819 4.31169L7.86686 5.42301C7.67153 5.61768 7.67153 5.93504 7.86686 6.13037C8.06153 6.32504 8.37822 6.32637 8.57422 6.13037L8.83219 5.87305V9.99967C8.83219 10.2757 9.05619 10.4997 9.33219 10.4997C9.60819 10.4997 9.83219 10.2757 9.83219 9.99967V5.87305L10.0902 6.13037C10.1875 6.2277 10.3155 6.27702 10.4435 6.27702C10.5715 6.27702 10.6995 6.22837 10.7969 6.13037C10.9922 5.93504 10.9922 5.61835 10.7969 5.42301L9.68555 4.31169ZM15.1668 7.99967C15.1668 11.9517 11.9522 15.1663 8.00016 15.1663C4.04816 15.1663 0.833496 11.9517 0.833496 7.99967C0.833496 4.04767 4.04816 0.833008 8.00016 0.833008C11.9522 0.833008 15.1668 4.04767 15.1668 7.99967ZM14.1668 7.99967C14.1668 4.59901 11.4008 1.83301 8.00016 1.83301C4.5995 1.83301 1.8335 4.59901 1.8335 7.99967C1.8335 11.4003 4.5995 14.1663 8.00016 14.1663C11.4008 14.1663 14.1668 11.4003 14.1668 7.99967Z" fill="#3B3B3E"/>
</svg>
