<svg width="16" height="16" viewBox="0 0 16 16" fill="none" xmlns="http://www.w3.org/2000/svg">
<path d="M8.882 14.5004C8.50933 14.5004 8.14334 14.3691 7.84334 14.1151L5.38265 12.0303C5.23265 11.903 5.04133 11.8331 4.84399 11.8331H3.66602C2.83935 11.8331 2.16602 11.1604 2.16602 10.3331V5.66705C2.16602 4.83972 2.83935 4.16705 3.66602 4.16705H4.84399C5.04133 4.16705 5.23263 4.09712 5.3833 3.96979L7.84399 1.88499C8.32933 1.47365 8.98803 1.38507 9.5647 1.6524C10.1414 1.91974 10.4993 2.48043 10.4993 3.11643V12.885C10.4993 13.521 10.1414 14.0817 9.5647 14.349C9.34536 14.4504 9.11266 14.5004 8.882 14.5004ZM3.66667 5.1664C3.39133 5.1664 3.16667 5.3904 3.16667 5.6664V10.3324C3.16667 10.6084 3.39133 10.8324 3.66667 10.8324H4.84465C5.27798 10.8324 5.69863 10.9863 6.0293 11.267L8.48999 13.3518C8.67666 13.5098 8.92129 13.5443 9.14396 13.4403C9.36663 13.337 9.49935 13.129 9.49935 12.8837V3.11513C9.49935 2.8698 9.36663 2.66166 9.14396 2.55833C8.92129 2.45499 8.67664 2.48836 8.49064 2.64703L6.0293 4.73167C5.69863 5.01167 5.27798 5.1664 4.84465 5.1664H3.66667V5.1664ZM12.5113 11.1804C13.364 10.3317 13.8333 9.20173 13.8333 7.99973C13.8333 6.79773 13.364 5.66774 12.5113 4.81907C12.3153 4.6244 11.9987 4.62437 11.804 4.82037C11.6087 5.0157 11.61 5.33306 11.8053 5.52773C12.468 6.18773 12.8333 7.06638 12.8333 8.00038C12.8333 8.93438 12.468 9.81304 11.8053 10.473C11.61 10.6677 11.6087 10.9844 11.804 11.1804C11.9014 11.2784 12.03 11.3277 12.158 11.3277C12.286 11.3264 12.4133 11.2777 12.5113 11.1804Z" fill="#3B3B3E"/>
</svg>
