<svg width="16" height="16" viewBox="0 0 16 16" fill="none" xmlns="http://www.w3.org/2000/svg">
<path d="M13.8667 1.61166C13.476 1.42433 13.0227 1.47501 12.686 1.74635L11.9979 2.29566C11.0266 3.073 9.80661 3.50099 8.56327 3.50099H4.99996C3.06996 3.50099 1.50061 5.071 1.50061 7.00034C1.50061 8.819 2.89927 10.3003 4.6746 10.467L6.18461 13.487C6.49728 14.1123 7.126 14.5003 7.82467 14.5003H8.66663C8.81396 14.5003 8.95331 14.4357 9.04797 14.3237C9.14264 14.2117 9.18395 14.063 9.15995 13.9183L8.59062 10.501C9.82462 10.5077 11.0333 10.9337 11.9973 11.705L12.684 12.2543C12.888 12.417 13.1326 12.5003 13.3799 12.5003C13.5446 12.5003 13.7106 12.4636 13.8659 12.3883C14.2566 12.201 14.4993 11.815 14.4993 11.3817V2.61834C14.5 2.18567 14.2573 1.79966 13.8667 1.61166ZM2.49996 7.00034C2.49996 5.62234 3.62131 4.50099 4.99931 4.50099H8.56262C9.10596 4.50099 9.64463 4.43099 10.1666 4.29766V9.70301C9.64463 9.56968 9.10529 9.49968 8.56262 9.49968H4.99931C3.62131 9.49968 2.49996 8.37834 2.49996 7.00034ZM7.82393 13.5003C7.50593 13.5003 7.22065 13.3237 7.07865 13.0397L5.80863 10.4997H7.57597L8.07597 13.5003H7.82393ZM13.5 11.3817C13.5 11.4303 13.478 11.4663 13.4333 11.4877C13.3893 11.5083 13.346 11.5044 13.3086 11.4737L12.6219 10.9243C12.1759 10.5677 11.6853 10.275 11.166 10.0483V3.95232C11.6846 3.72565 12.1753 3.433 12.6213 3.077L13.3093 2.52699C13.3466 2.49699 13.388 2.49166 13.4333 2.51299C13.4633 2.52766 13.5 2.55765 13.5 2.61899V11.3817Z" fill="#3B3B3E"/>
</svg>
