<svg width="16" height="16" viewBox="0 0 16 16" fill="none" xmlns="http://www.w3.org/2000/svg">
<path d="M14.3181 6.05619L9.37667 1.99223C8.57867 1.33756 7.42207 1.33689 6.62407 1.99223L1.68274 6.05554C1.47008 6.23087 1.43872 6.54556 1.61406 6.75956C1.78939 6.97356 2.10474 7.00291 2.31808 6.82825L2.83338 6.40425V11.9995C2.83338 13.6115 3.72138 14.4996 5.33338 14.4996H10.6667C12.2787 14.4996 13.1667 13.6115 13.1667 11.9995V6.40425L13.682 6.82825C13.7753 6.90491 13.888 6.94218 14 6.94218C14.144 6.94218 14.2874 6.88021 14.386 6.76021C14.562 6.54621 14.5307 6.23152 14.3181 6.05619ZM9.16671 13.4996H6.83338V10.9995C6.83338 10.3562 7.35671 9.83288 8.00004 9.83288C8.64338 9.83288 9.16671 10.3562 9.16671 10.9995V13.4996ZM12.1667 11.9995C12.1667 13.0509 11.718 13.4996 10.6667 13.4996H10.1667V10.9995C10.1667 9.80488 9.19471 8.83288 8.00004 8.83288C6.80538 8.83288 5.83338 9.80488 5.83338 10.9995V13.4996H5.33338C4.28204 13.4996 3.83338 13.0509 3.83338 11.9995V5.58223L7.2594 2.76558C7.68807 2.41292 8.31275 2.41292 8.74142 2.76558L12.1674 5.58288V11.9995H12.1667Z" fill="#3B3B3E"/>
</svg>
