<svg width="16" height="16" viewBox="0 0 16 16" fill="none" xmlns="http://www.w3.org/2000/svg">
<path d="M4.27799 5.33333C4.27799 5.05733 4.50199 4.83333 4.77799 4.83333H9.22201C9.49801 4.83333 9.72201 5.05733 9.72201 5.33333C9.72201 5.60933 9.49801 5.83333 9.22201 5.83333H4.77799C4.50199 5.83333 4.27799 5.60933 4.27799 5.33333ZM8.05534 7.55534C8.05534 7.27934 7.83134 7.05534 7.55534 7.05534H4.77799C4.50199 7.05534 4.27799 7.27934 4.27799 7.55534C4.27799 7.83134 4.50199 8.05534 4.77799 8.05534H7.55534C7.83134 8.05534 8.05534 7.83201 8.05534 7.55534ZM14.4561 14.0186C14.3507 14.3086 14.0853 14.496 13.7793 14.496C13.708 14.4987 13.6333 14.5 13.5579 14.5C12.8446 14.5 11.9479 14.362 11.2666 13.8066C10.7693 13.9493 10.232 14.022 9.66602 14.022C7.46735 14.022 5.72596 12.9033 5.10596 11.156C4.33596 11.788 3.30673 11.946 2.47673 11.946C2.39539 11.946 2.31594 11.9446 2.23861 11.942C1.92661 11.9346 1.65273 11.7353 1.54606 11.4333C1.43939 11.13 1.52799 10.8007 1.77132 10.594C2.25132 10.2067 2.45467 9.78265 2.54134 9.47998C1.86001 8.64865 1.5 7.6053 1.5 6.44596C1.5 3.5333 3.76202 1.5 6.99935 1.5C10.0933 1.5 12.2906 3.35936 12.4806 6.0647C13.7633 6.8347 14.4993 8.1273 14.4993 9.66797C14.4993 10.6753 14.1907 11.5833 13.6034 12.3106C13.6807 12.5606 13.8534 12.8994 14.2334 13.2074C14.4767 13.41 14.5621 13.7266 14.4561 14.0186ZM4.63997 10.2287C4.77464 10.0853 4.97995 10.0333 5.16862 10.098C5.73595 10.2933 6.35135 10.3927 6.99935 10.3927C9.64935 10.3927 11.4993 8.77003 11.4993 6.4467C11.4993 4.12336 9.64935 2.50065 6.99935 2.50065C4.35002 2.50065 2.5 4.12336 2.5 6.4467C2.5 7.44603 2.82868 8.33002 3.45068 9.00269C3.55402 9.11469 3.60131 9.26802 3.57731 9.41935C3.49131 9.96735 3.24141 10.4886 2.85807 10.932C3.45674 10.886 4.18064 10.72 4.63997 10.2287ZM12.5653 12.2533C12.5419 12.102 12.5887 11.948 12.6921 11.836C13.2201 11.266 13.4993 10.5167 13.4993 9.6687C13.4993 8.67803 13.1233 7.84537 12.4326 7.25203C12.0533 9.72603 9.92868 11.3933 6.99935 11.3933C6.75802 11.3933 6.52467 11.3693 6.29134 11.3453C6.91201 12.3813 8.14802 13.0234 9.66602 13.0234C10.2313 13.0234 10.7559 12.9386 11.2253 12.772C11.4119 12.706 11.62 12.756 11.7567 12.9006C12.1053 13.2713 12.6334 13.4214 13.1034 13.4747C12.82 13.1094 12.6339 12.6907 12.5653 12.2533ZM13.7599 13.4967C13.7539 13.4967 13.7493 13.4966 13.7446 13.4973C13.7493 13.4966 13.7546 13.4967 13.7599 13.4967Z" fill="#3B3B3E"/>
</svg>
