<svg width="16" height="16" viewBox="0 0 16 16" fill="none" xmlns="http://www.w3.org/2000/svg">
<path d="M14.3573 3.68288C14.2593 3.78288 14.1293 3.83286 14 3.83286C13.874 3.83286 13.7474 3.78553 13.6501 3.6902L12.3167 2.38356C12.1201 2.19023 12.1168 1.87354 12.3094 1.6762C12.5034 1.47887 12.8193 1.47555 13.0173 1.66888L14.3506 2.97552C14.5466 3.16885 14.5499 3.48554 14.3573 3.68288ZM3.6867 2.35288C3.88204 2.15755 3.88204 1.84086 3.6867 1.64552C3.49137 1.45019 3.17468 1.45019 2.97935 1.64552L1.64601 2.97886C1.45068 3.17419 1.45068 3.49088 1.64601 3.68621C1.74335 3.78355 1.87136 3.83286 1.99936 3.83286C2.12736 3.83286 2.25538 3.78421 2.35272 3.68621L3.6867 2.35288ZM11.3973 12.7123L12.3273 13.6468C12.5227 13.8428 12.5214 14.1595 12.326 14.3542C12.2287 14.4515 12.1007 14.4995 11.9733 14.4995C11.8453 14.4995 11.7167 14.4502 11.6193 14.3522L10.5147 13.2422C9.74533 13.6169 8.88532 13.8329 7.97332 13.8329C7.06132 13.8329 6.20198 13.6169 5.43198 13.2422L4.32733 14.3522C4.22999 14.4502 4.10132 14.4995 3.97332 14.4995C3.84599 14.4995 3.71795 14.4508 3.62062 14.3542C3.42529 14.1595 3.42399 13.8428 3.61932 13.6468L4.54933 12.7123C3.09267 11.6509 2.13999 9.93619 2.13999 7.99953C2.13999 4.78286 4.75666 2.16619 7.97332 2.16619C11.19 2.16619 13.8067 4.78286 13.8067 7.99953C13.8067 9.93619 12.854 11.6509 11.3973 12.7123ZM7.97332 12.8329C10.6387 12.8329 12.8067 10.6649 12.8067 7.99953C12.8067 5.33419 10.6387 3.16619 7.97332 3.16619C5.30799 3.16619 3.13999 5.33419 3.13999 7.99953C3.13999 10.6649 5.30799 12.8329 7.97332 12.8329ZM9.66668 7.49953H6.33335C6.05735 7.49953 5.83335 7.72353 5.83335 7.99953C5.83335 8.27553 6.05735 8.49953 6.33335 8.49953H9.66668C9.94268 8.49953 10.1667 8.27553 10.1667 7.99953C10.1667 7.72353 9.94268 7.49953 9.66668 7.49953Z" fill="#3B3B3E"/>
</svg>
