<svg width="16" height="16" viewBox="0 0 16 16" fill="none" xmlns="http://www.w3.org/2000/svg">
<path d="M7.16644 3.99997V14C7.16644 14.202 7.04451 14.3847 6.85784 14.462C6.79584 14.488 6.7311 14.5 6.66644 14.5C6.53644 14.5 6.40842 14.4493 6.31309 14.3533L2.97975 11.02C2.78442 10.8247 2.78442 10.508 2.97975 10.3126C3.17509 10.1173 3.49178 10.1173 3.68711 10.3126L6.16709 12.7926V3.99997C6.16709 3.72397 6.39109 3.49997 6.66709 3.49997C6.94309 3.49997 7.16644 3.72397 7.16644 3.99997ZM13.6865 4.97995L10.3531 1.64661C10.2105 1.50395 9.99437 1.46056 9.80837 1.53789C9.6217 1.61522 9.49977 1.79797 9.49977 1.99997V12C9.49977 12.276 9.72377 12.5 9.99977 12.5C10.2758 12.5 10.4998 12.276 10.4998 12V3.20732L12.9798 5.6873C13.1751 5.88264 13.4918 5.88264 13.6871 5.6873C13.8824 5.49197 13.8818 5.17528 13.6865 4.97995Z" fill="#3B3B3E"/>
</svg>
