<svg width="16" height="16" viewBox="0 0 16 16" fill="none" xmlns="http://www.w3.org/2000/svg">
<path d="M11.75 1.5H4.25C2.47667 1.5 1.5 2.47667 1.5 4.25V11.75C1.5 13.5233 2.47667 14.5 4.25 14.5H11.75C13.5233 14.5 14.5 13.5233 14.5 11.75V4.25C14.5 2.47667 13.5233 1.5 11.75 1.5ZM13.5 11.75C13.5 12.9767 12.9767 13.5 11.75 13.5H4.25C3.02333 13.5 2.5 12.9767 2.5 11.75V4.25C2.5 3.02333 3.02333 2.5 4.25 2.5H11.75C12.9767 2.5 13.5 3.02333 13.5 4.25V11.75ZM9.02002 6.35335L7.37337 8L9.02002 9.64665C9.21535 9.84198 9.21535 10.1587 9.02002 10.354C8.92269 10.4513 8.79467 10.5007 8.66667 10.5007C8.53867 10.5007 8.41065 10.452 8.31331 10.354L6.31331 8.354C6.11798 8.15867 6.11798 7.84198 6.31331 7.64665L8.31331 5.64665C8.50865 5.45131 8.82534 5.45131 9.02067 5.64665C9.216 5.84198 9.21535 6.15802 9.02002 6.35335Z" fill="#3B3B3E"/>
</svg>
