<svg width="16" height="16" viewBox="0 0 16 16" fill="none" xmlns="http://www.w3.org/2000/svg">
<path d="M6.00659 7.5C5.54659 7.5 5.17326 7.12667 5.17326 6.66667C5.17326 6.20667 5.53993 5.83333 6.00659 5.83333C6.46659 5.83333 6.83993 6.20667 6.83993 6.66667C6.83993 7.12667 6.46659 7.5 6.00659 7.5ZM9.77323 9.46668C9.65323 9.22001 9.35323 9.11999 9.10657 9.23999C8.42657 9.57999 7.58659 9.58666 6.87992 9.23999C6.62659 9.11999 6.33326 9.22666 6.21326 9.47333C6.09326 9.71999 6.19991 10.02 6.44657 10.14C6.93324 10.3733 7.45324 10.4933 7.98657 10.4933C8.51991 10.4933 9.06659 10.3733 9.54659 10.1333C9.79326 10.0133 9.89323 9.71334 9.77323 9.46V9.46668ZM9.17326 7.1C9.41326 7.24 9.71994 7.15333 9.85327 6.91333C9.87994 6.86666 9.93325 6.83333 9.99325 6.83333C10.0732 6.83333 10.1199 6.88666 10.1333 6.91333C10.2266 7.07333 10.3932 7.16667 10.5666 7.16667C10.6466 7.16667 10.7332 7.14666 10.8132 7.1C11.0532 6.96666 11.1399 6.66 10.9999 6.42C10.7933 6.06 10.4066 5.83333 9.99325 5.83333C9.57991 5.83333 9.18657 6.06 8.98657 6.42C8.85324 6.66 8.93326 6.96666 9.17326 7.1ZM14.4999 4.24666V9.16667C14.4999 9.83333 14.2399 10.46 13.7666 10.9333L10.9399 13.76C10.4732 14.2267 9.83326 14.4933 9.17326 14.4933H4.25326C2.39992 14.4933 1.50659 13.5933 1.50659 11.7467V4.24666C1.50659 2.39333 2.40659 1.5 4.25326 1.5H11.7533C13.6066 1.5 14.4999 2.4 14.4999 4.24666ZM9.17326 13.5C9.28659 13.5 9.39325 13.4867 9.49992 13.46V12.3333C9.49992 10.7733 10.7733 9.5 12.3333 9.5H13.4599C13.4866 9.39333 13.4999 9.28667 13.4999 9.17334V4.25334C13.4999 2.94667 13.0599 2.50667 11.7533 2.50667H4.25326C2.94659 2.50667 2.50659 2.94667 2.50659 4.25334V11.7533C2.50659 13.06 2.94659 13.5 4.25326 13.5H9.17326ZM12.7933 10.5H12.3333C11.3199 10.5 10.4999 11.32 10.4999 12.3333V12.7933L12.7933 10.5Z" fill="#3B3B3E"/>
</svg>
