<svg width="16" height="16" viewBox="0 0 16 16" fill="none" xmlns="http://www.w3.org/2000/svg">
<path d="M12.9833 5.97636L13.3933 5.56637C13.6773 5.28303 13.8333 4.90636 13.8333 4.5057V2.99902C13.8333 2.17169 13.16 1.49902 12.3333 1.49902H3.66663C2.83996 1.49902 2.16663 2.17169 2.16663 2.99902V4.5057C2.16663 4.9057 2.32265 5.28236 2.60665 5.56569L6.01933 8.97902C6.11466 9.07369 6.16663 9.19902 6.16663 9.33236V11.999C6.16663 12.1564 6.24066 12.3044 6.36666 12.399L9.03332 14.399C9.12199 14.465 9.22729 14.499 9.33329 14.499C9.40929 14.499 9.48593 14.4817 9.5566 14.4464C9.7266 14.3617 9.83329 14.1884 9.83329 13.999V11.437C10.282 11.681 10.788 11.8324 11.3333 11.8324C13.0793 11.8324 14.5 10.4117 14.5 8.66569C14.5 7.52702 13.8893 6.53436 12.9833 5.97636ZM7.16663 11.7497V9.33303C7.16663 8.93303 7.0106 8.55636 6.7266 8.27303L3.31392 4.8597C3.21859 4.76503 3.16663 4.6397 3.16663 4.50637V2.99969C3.16663 2.72369 3.39129 2.49969 3.66663 2.49969H12.3333C12.6086 2.49969 12.8333 2.72369 12.8333 2.99969V4.50637C12.8333 4.63903 12.7813 4.76437 12.686 4.8597L11.9786 5.56704C11.77 5.5237 11.554 5.49969 11.3326 5.49969C9.58664 5.49969 8.16597 6.92036 8.16597 8.66636C8.16597 9.3917 8.42064 10.053 8.83264 10.587V12.9997L7.16663 11.7497ZM11.3333 10.833C10.1386 10.833 9.16663 9.86103 9.16663 8.66636C9.16663 7.47169 10.1386 6.49969 11.3333 6.49969C12.528 6.49969 13.5 7.47169 13.5 8.66636C13.5 9.86103 12.528 10.833 11.3333 10.833ZM12.3533 8.35303L12.04 8.66636L12.3533 8.9797C12.5486 9.17503 12.5486 9.4917 12.3533 9.68703C12.256 9.78437 12.128 9.8337 12 9.8337C11.872 9.8337 11.7439 9.78503 11.6466 9.68703L11.3333 9.3737L11.02 9.68703C10.9226 9.78437 10.7946 9.8337 10.6666 9.8337C10.5386 9.8337 10.4106 9.78503 10.3133 9.68703C10.1179 9.4917 10.1179 9.17503 10.3133 8.9797L10.6266 8.66636L10.3133 8.35303C10.1179 8.15769 10.1179 7.84102 10.3133 7.64569C10.5086 7.45036 10.8253 7.45036 11.0206 7.64569L11.3339 7.95903L11.6473 7.64569C11.8426 7.45036 12.1593 7.45036 12.3546 7.64569C12.5486 7.84102 12.5486 8.15836 12.3533 8.35303Z" fill="#3B3B3E"/>
</svg>
