<svg width="16" height="16" viewBox="0 0 16 16" fill="none" xmlns="http://www.w3.org/2000/svg">
<path d="M14.1213 6.71058L10.1693 2.53057C9.83994 2.18323 9.33865 2.07329 8.89665 2.25062C8.45265 2.42729 8.166 2.84995 8.16667 3.32728V5.17201C3.862 5.30067 1.5 7.11995 1.5 10.3273C1.5 11.4286 1.77992 12.526 2.28792 13.4173C2.43859 13.682 2.7066 13.834 2.99593 13.834C3.06793 13.834 3.14265 13.8247 3.21598 13.8047C3.57732 13.7067 3.81731 13.3887 3.81331 13.0127C3.80265 12.2027 3.88603 11.61 4.33203 11.158C4.9347 10.5473 6.22398 10.2146 8.16732 10.1666V11.9974C8.16665 12.4747 8.4533 12.898 8.8973 13.0747C9.3393 13.2513 9.84059 13.1412 10.1699 12.7939L14.1221 8.6139C14.6254 8.08057 14.6253 7.24458 14.1213 6.71058ZM13.3947 7.92738L9.44271 12.1066C9.38004 12.1726 9.31127 12.1633 9.2666 12.1453C9.22127 12.1273 9.16667 12.0867 9.16667 11.9974V9.66061C9.16667 9.38461 8.94267 9.16061 8.66667 9.16061C6.09533 9.16061 4.49129 9.57204 3.61995 10.4554C3.10129 10.9807 2.90666 11.604 2.84066 12.2433C2.61866 11.65 2.5 10.9906 2.5 10.3266C2.5 6.88596 5.85333 6.16403 8.66667 6.16403C8.94267 6.16403 9.16667 5.94003 9.16667 5.66403V3.32663C9.16667 3.23796 9.2206 3.19733 9.2666 3.17933C9.2846 3.172 9.30738 3.16598 9.33138 3.16598C9.36671 3.16598 9.40537 3.17857 9.44271 3.21791L13.3947 7.39792C13.5354 7.54592 13.5354 7.77871 13.3947 7.92738Z" fill="#3B3B3E"/>
</svg>
