<svg width="16" height="16" viewBox="0 0 16 16" fill="none" xmlns="http://www.w3.org/2000/svg">
<path d="M13.6868 12.3463C14.6135 11.1397 15.1668 9.63301 15.1668 7.99967C15.1668 4.04634 11.9535 0.833008 8.00016 0.833008C5.66016 0.833008 3.58017 1.96635 2.2735 3.71301C2.26017 3.72635 2.2535 3.73967 2.24683 3.74634C1.36683 4.93967 0.833496 6.40634 0.833496 7.99967C0.833496 9.59301 1.38683 11.1397 2.3135 12.3463C2.3135 12.3463 2.3135 12.3463 2.32016 12.353C3.18016 13.473 4.36683 14.3397 5.74016 14.793C5.76016 14.7997 5.78016 14.8063 5.80016 14.813C6.49349 15.0397 7.2335 15.1597 8.00016 15.1597C8.76683 15.1597 9.50683 15.033 10.2002 14.813C10.2202 14.813 10.2402 14.7997 10.2602 14.793C11.6335 14.333 12.8135 13.473 13.6802 12.353C13.6802 12.353 13.6802 12.353 13.6868 12.3463ZM2.51349 5.20634L2.94683 6.34634L1.90016 7.13968C2.00016 6.45301 2.20683 5.79968 2.51349 5.19968V5.20634ZM3.64016 7.07967L4.92016 7.50634L5.68683 10.573L5.06683 11.4997H2.9335C2.32016 10.613 1.94016 9.56634 1.86016 8.433L3.64683 7.07967H3.64016ZM4.94683 12.4997L5.20016 13.4863C4.68683 13.2263 4.21349 12.893 3.80016 12.4997H4.94683ZM6.61349 10.1663L5.90683 7.33301L8.00016 5.933L10.0935 7.33301L9.38683 10.1663H6.61349V10.1663ZM11.0535 12.4997H12.2002C11.7802 12.893 11.3135 13.2263 10.8002 13.4863L11.0535 12.4997ZM10.9335 11.4997L10.3135 10.573L11.0802 7.49967L12.3468 7.07967L14.1402 8.43968C14.0602 9.57301 13.6802 10.6197 13.0668 11.4997H10.9335ZM14.1002 7.14634L13.0468 6.34634L13.4868 5.193C13.7935 5.793 14.0068 6.45301 14.1068 7.14634H14.1002ZM12.8068 4.15301L12.0535 6.11967L10.7335 6.55967L8.4935 5.06635V3.80635L10.4468 2.34634C11.3735 2.75301 12.1802 3.37301 12.8068 4.15301ZM9.28016 1.97301L7.9935 2.933L6.70683 1.97301C7.12016 1.88635 7.5535 1.83301 7.9935 1.83301C8.4335 1.83301 8.86683 1.87968 9.28016 1.97301ZM5.54016 2.34634L7.4935 3.80635V5.06635L5.25349 6.55967L3.92683 6.11967L3.18016 4.15968C3.80683 3.37968 4.6135 2.75301 5.54683 2.34634H5.54016ZM6.34016 13.933L5.86683 12.093L6.48016 11.1663H9.50683L10.1202 12.093L9.64683 13.933C9.12016 14.0797 8.56683 14.1663 7.9935 14.1663C7.42017 14.1663 6.86683 14.0797 6.34016 13.933V13.933Z" fill="#3B3B3E"/>
</svg>
