<svg width="16" height="16" viewBox="0 0 16 16" fill="none" xmlns="http://www.w3.org/2000/svg">
<path d="M8.00016 15.1663C4.04816 15.1663 0.833496 11.9517 0.833496 7.99967C0.833496 4.04767 4.04816 0.833008 8.00016 0.833008C11.9522 0.833008 15.1668 4.04767 15.1668 7.99967C15.1668 11.9517 11.9522 15.1663 8.00016 15.1663ZM8.00016 1.83301C4.5995 1.83301 1.8335 4.59901 1.8335 7.99967C1.8335 11.4003 4.5995 14.1663 8.00016 14.1663C11.4008 14.1663 14.1668 11.4003 14.1668 7.99967C14.1668 4.59901 11.4008 1.83301 8.00016 1.83301ZM6.18018 7.99967C6.18018 7.53967 5.80684 7.16634 5.34684 7.16634H5.34017C4.88017 7.16634 4.51017 7.53967 4.51017 7.99967C4.51017 8.45967 4.88618 8.83301 5.34684 8.83301C5.80751 8.83301 6.18018 8.45967 6.18018 7.99967ZM8.84684 7.99967C8.84684 7.53967 8.47351 7.16634 8.01351 7.16634H8.00684C7.54684 7.16634 7.17684 7.53967 7.17684 7.99967C7.17684 8.45967 7.55284 8.83301 8.01351 8.83301C8.47418 8.83301 8.84684 8.45967 8.84684 7.99967ZM11.5135 7.99967C11.5135 7.53967 11.1402 7.16634 10.6802 7.16634H10.6735C10.2135 7.16634 9.84351 7.53967 9.84351 7.99967C9.84351 8.45967 10.2195 8.83301 10.6802 8.83301C11.1408 8.83301 11.5135 8.45967 11.5135 7.99967Z" fill="#3B3B3E"/>
</svg>
