<svg width="16" height="16" viewBox="0 0 16 16" fill="none" xmlns="http://www.w3.org/2000/svg">
<path d="M15.1666 8.66667C15.1666 10.7807 13.4473 12.5 11.3333 12.5H7.33325C7.05725 12.5 6.83325 12.276 6.83325 12C6.83325 11.724 7.05725 11.5 7.33325 11.5H11.3333C12.8959 11.5 14.1666 10.2293 14.1666 8.66667C14.1666 7.104 12.8959 5.83333 11.3333 5.83333C11.1446 5.83333 10.9632 5.85002 10.7792 5.88468C10.5739 5.92335 10.37 5.83201 10.262 5.65601C10.0673 5.34201 9.81996 5.04865 9.52596 4.78532C8.83396 4.17199 7.93592 3.83333 6.99992 3.83333C5.68792 3.83333 4.48266 4.49466 3.77466 5.60266C3.62666 5.83466 3.31722 5.904 3.08455 5.75533C2.85122 5.60666 2.78322 5.29732 2.93188 5.06466C3.82388 3.66799 5.34458 2.83398 6.99992 2.83398C8.18058 2.83398 9.31466 3.262 10.1913 4.04C10.4713 4.29066 10.7173 4.56332 10.9273 4.85465C11.0613 4.84065 11.1959 4.83398 11.3333 4.83398C13.4473 4.83332 15.1666 6.55267 15.1666 8.66667ZM5.83325 10.524V11.81C5.83325 12.66 5.32599 13.1673 4.47599 13.1673H2.19051C1.34051 13.1673 0.833252 12.66 0.833252 11.81V10.524C0.833252 9.86801 1.13792 9.41931 1.66659 9.24731V8.5C1.66659 7.58133 2.41392 6.83333 3.33325 6.83333C4.25259 6.83333 4.99992 7.58133 4.99992 8.5V9.24731C5.52858 9.41931 5.83325 9.86801 5.83325 10.524ZM2.66659 8.5V9.16667H3.99992V8.5C3.99992 8.132 3.70125 7.83333 3.33325 7.83333C2.96525 7.83333 2.66659 8.132 2.66659 8.5ZM4.83325 10.524C4.83325 10.2307 4.76999 10.1667 4.47599 10.1667H2.19051C1.89651 10.1667 1.83325 10.23 1.83325 10.524V11.81C1.83325 12.1034 1.89651 12.1673 2.19051 12.1673H4.47599C4.76999 12.1673 4.83325 12.104 4.83325 11.81V10.524Z" fill="#3B3B3E"/>
</svg>
