<svg width="16" height="16" viewBox="0 0 16 16" fill="none" xmlns="http://www.w3.org/2000/svg">
<path d="M12 2.5H11.1667V2C11.1667 1.724 10.9427 1.5 10.6667 1.5C10.3907 1.5 10.1667 1.724 10.1667 2V2.5H5.83333V2C5.83333 1.724 5.60933 1.5 5.33333 1.5C5.05733 1.5 4.83333 1.724 4.83333 2V2.5H4C2.388 2.5 1.5 3.388 1.5 5V12C1.5 13.612 2.388 14.5 4 14.5H12C13.612 14.5 14.5 13.612 14.5 12V5C14.5 3.388 13.612 2.5 12 2.5ZM4 3.5H4.83333V4C4.83333 4.276 5.05733 4.5 5.33333 4.5C5.60933 4.5 5.83333 4.276 5.83333 4V3.5H10.1667V4C10.1667 4.276 10.3907 4.5 10.6667 4.5C10.9427 4.5 11.1667 4.276 11.1667 4V3.5H12C13.0513 3.5 13.5 3.94867 13.5 5V5.5H2.5V5C2.5 3.94867 2.94867 3.5 4 3.5ZM12 13.5H4C2.94867 13.5 2.5 13.0513 2.5 12V6.5H13.5V12C13.5 13.0513 13.0513 13.5 12 13.5ZM9.03402 7.33333C9.03068 7.33333 9.02806 7.33333 9.02539 7.33333C8.58472 7.33333 8.246 7.50393 8 7.72526C7.75267 7.50259 7.42198 7.334 6.96598 7.33333C6.40598 7.336 5.93593 7.54935 5.60726 7.95068C5.21926 8.42535 5.07739 9.11133 5.22005 9.83333C5.57005 11.6087 7.70541 12.5827 7.79541 12.6234C7.86074 12.652 7.93 12.6667 8 12.6667C8.07 12.6667 8.13926 12.652 8.20459 12.6234C8.29526 12.5827 10.43 11.6087 10.7793 9.83333C10.922 9.11133 10.7814 8.426 10.3934 7.95133C10.0654 7.54933 9.59535 7.336 9.03402 7.33333ZM9.79867 9.63932C9.60067 10.642 8.47 11.3506 8 11.606C7.53 11.3506 6.39933 10.642 6.20133 9.63932C6.118 9.21799 6.186 8.82332 6.382 8.58398C6.51933 8.41665 6.71201 8.33467 6.97201 8.33333C6.97267 8.33333 6.97328 8.33333 6.97461 8.33333C7.36061 8.33333 7.51334 8.71737 7.52734 8.75537C7.59534 8.95604 7.78328 9.08864 7.99528 9.09131C7.99728 9.09131 7.99929 9.09131 8.00195 9.09131C8.21062 9.09131 8.40001 8.95741 8.47201 8.76074C8.48801 8.71674 8.64069 8.33268 9.02669 8.33268C9.02803 8.33268 9.02863 8.33268 9.0293 8.33268C9.28996 8.33402 9.48329 8.416 9.61995 8.58333C9.81462 8.82333 9.88133 9.21799 9.79867 9.63932Z" fill="#3B3B3E"/>
</svg>
