<svg width="16" height="16" viewBox="0 0 16 16" fill="none" xmlns="http://www.w3.org/2000/svg">
<path d="M12.0001 4.16699H8.87411L7.02075 2.31366C6.92675 2.21966 6.80007 2.16699 6.6674 2.16699H4.00073C2.38873 2.16699 1.50073 3.05499 1.50073 4.66699V11.3337C1.50073 12.9457 2.38873 13.8337 4.00073 13.8337H12.0007C13.6127 13.8337 14.5007 12.9457 14.5007 11.3337V6.66699C14.5001 5.05499 13.6121 4.16699 12.0001 4.16699ZM13.5001 11.3337C13.5001 12.385 13.0514 12.8337 12.0001 12.8337H4.00008C2.94875 12.8337 2.50008 12.385 2.50008 11.3337V4.66699C2.50008 3.61566 2.94875 3.16699 4.00008 3.16699H6.45939L8.31274 5.02032C8.40674 5.11432 8.53343 5.16699 8.6661 5.16699H11.9994C13.0508 5.16699 13.4994 5.61566 13.4994 6.66699V11.3337H13.5001ZM10.1861 6.15367C9.97945 5.947 9.70548 5.83366 9.41414 5.83366C9.41348 5.83366 9.41268 5.83366 9.41268 5.83366C9.12068 5.83366 8.84539 5.94833 8.64006 6.15566L4.97941 9.83299C4.88541 9.92632 4.83341 10.0537 4.83341 10.1857V11.667C4.83341 11.943 5.05741 12.167 5.33341 12.167H6.81535C6.94735 12.167 7.07472 12.1143 7.16805 12.021L10.8455 8.36033C11.0528 8.15433 11.1661 7.87967 11.1667 7.58767C11.1667 7.29567 11.0534 7.02033 10.8468 6.81366L10.1861 6.15367ZM9.41414 6.83366C9.43148 6.83366 9.45674 6.83832 9.47941 6.86098L10.1394 7.521C10.1621 7.54366 10.1667 7.56966 10.1667 7.587C10.1667 7.60433 10.1621 7.62966 10.1394 7.65232L9.71541 8.07432L8.92603 7.28499L9.34806 6.86098C9.3714 6.83832 9.39681 6.83366 9.41414 6.83366ZM6.60881 11.167H5.83341V10.3917L8.22078 7.99365L9.00675 8.77966L6.60881 11.167Z" fill="#3B3B3E"/>
</svg>
