<svg width="16" height="16" viewBox="0 0 16 16" fill="none" xmlns="http://www.w3.org/2000/svg">
<path d="M7.99996 14.4998C7.61596 14.4998 7.232 14.3538 6.93933 14.0611L5.59265 12.7151C5.41665 12.5404 5.1366 12.5211 4.9386 12.6691L4.03333 13.3485C3.67733 13.6151 3.20864 13.6571 2.81197 13.4585C2.41397 13.2598 2.16663 12.8598 2.16663 12.4151V3.58645C2.16663 3.14178 2.41397 2.74178 2.81197 2.54311C3.20864 2.34378 3.67733 2.38645 4.03333 2.65312L4.93933 3.33311C5.13666 3.48111 5.41732 3.46177 5.59265 3.28644L6.93933 1.94045C7.524 1.35579 8.47592 1.35579 9.06059 1.94045L10.4073 3.28711C10.5826 3.46178 10.8633 3.48111 11.0613 3.33311L11.9666 2.65379C12.3226 2.38712 12.7913 2.34445 13.1879 2.54379C13.5859 2.74245 13.8333 3.14245 13.8333 3.58712V12.4158C13.8333 12.8604 13.5859 13.2604 13.1879 13.4591C12.7913 13.6578 12.3226 13.6158 11.9666 13.3491L11.0606 12.6691C10.8633 12.5211 10.5819 12.5404 10.4073 12.7158L9.06059 14.0618C8.76792 14.3538 8.38396 14.4998 7.99996 14.4998ZM5.23726 11.5711C5.6246 11.5711 6.01059 11.7191 6.29993 12.0078L7.64661 13.3545C7.83527 13.5431 8.16463 13.5431 8.35396 13.3545L9.70064 12.0084C10.2253 11.4838 11.0699 11.4251 11.6606 11.8691L12.5673 12.5491C12.6393 12.6038 12.7067 12.5818 12.742 12.5651C12.776 12.5478 12.8339 12.5058 12.8339 12.4158V3.58712C12.8339 3.49712 12.776 3.45512 12.742 3.43779C12.7067 3.42045 12.6399 3.39911 12.5673 3.45378L11.6613 4.13379C11.0686 4.57779 10.2253 4.51912 9.70064 3.99445L8.35396 2.64779C8.15863 2.45312 7.84194 2.45312 7.64661 2.64779L6.29993 3.99378C5.77526 4.51844 4.93063 4.57712 4.33997 4.13312L3.43331 3.45311C3.36131 3.39844 3.29392 3.41978 3.25859 3.43712C3.22459 3.45445 3.16663 3.49645 3.16663 3.58645V12.4151C3.16663 12.5051 3.22459 12.5471 3.25859 12.5645C3.29392 12.5818 3.36064 12.6031 3.43331 12.5484L4.33931 11.8685C4.60531 11.6691 4.92193 11.5711 5.23726 11.5711Z" fill="#3B3B3E"/>
</svg>
