<svg width="16" height="16" viewBox="0 0 16 16" fill="none" xmlns="http://www.w3.org/2000/svg">
<path d="M14.5001 7.99953C14.5001 8.27553 14.2761 8.49953 14.0001 8.49953H3.20743L7.02075 12.3128C7.21608 12.5082 7.21608 12.8249 7.02075 13.0202C6.92341 13.1175 6.79539 13.1668 6.66739 13.1668C6.53939 13.1668 6.41138 13.1182 6.31404 13.0202L1.64738 8.35353C1.60138 8.30753 1.5648 8.25227 1.53946 8.19093C1.4888 8.06893 1.4888 7.93093 1.53946 7.80893C1.5648 7.7476 1.60138 7.69217 1.64738 7.64617L6.31404 2.97951C6.50938 2.78417 6.82607 2.78417 7.0214 2.97951C7.21673 3.17484 7.21673 3.49153 7.0214 3.68686L3.20808 7.50018H14.0001C14.2761 7.49951 14.5001 7.72353 14.5001 7.99953Z" fill="#3B3B3E"/>
</svg>
