<svg width="16" height="16" viewBox="0 0 16 16" fill="none" xmlns="http://www.w3.org/2000/svg">
<path d="M2.57145 14.5003C2.47479 14.5003 2.3809 14.4989 2.2889 14.4956C1.95557 14.4876 1.66348 14.2743 1.54948 13.9523C1.43481 13.6283 1.52955 13.2757 1.78955 13.0544C2.41088 12.553 2.65944 11.9983 2.75944 11.6177C1.93477 10.6317 1.49951 9.38698 1.49951 8.00098C1.49951 4.56564 4.17285 2.16699 7.99951 2.16699C11.8262 2.16699 14.4995 4.56631 14.4995 8.00098C14.4995 11.4356 11.8262 13.835 7.99951 13.835C7.20818 13.835 6.44948 13.7276 5.73682 13.5156C4.82815 14.307 3.57612 14.5003 2.57145 14.5003ZM2.31885 13.4956C2.32018 13.4956 2.32142 13.4956 2.32275 13.4956C2.32075 13.4963 2.31951 13.4963 2.31885 13.4956ZM8.00016 3.16699C4.76216 3.16699 2.50016 5.15498 2.50016 8.00098C2.50016 9.22498 2.90348 10.3089 3.66748 11.1356C3.77081 11.2476 3.81811 11.4009 3.79411 11.5522C3.68211 12.2662 3.33023 12.9416 2.7889 13.4956C3.56223 13.4676 4.60219 13.2896 5.24219 12.6069C5.37619 12.4629 5.58352 12.4117 5.77018 12.4764C6.46018 12.7151 7.21016 12.8356 8.00016 12.8356C11.2382 12.8356 13.5002 10.8476 13.5002 8.00163C13.5002 5.15563 11.2382 3.16699 8.00016 3.16699ZM7.35352 9.68701C7.54885 9.49168 7.54885 9.17499 7.35352 8.97965L6.37354 7.99967L7.35352 7.01969C7.54885 6.82436 7.54885 6.50767 7.35352 6.31234C7.15818 6.117 6.84149 6.117 6.64616 6.31234L5.31283 7.64567C5.11749 7.841 5.11749 8.15769 5.31283 8.35303L6.64616 9.68636C6.74349 9.78369 6.87151 9.83301 6.99951 9.83301C7.12751 9.83301 7.25618 9.78501 7.35352 9.68701ZM9.35352 9.68701L10.6868 8.35368C10.8822 8.15834 10.8822 7.84165 10.6868 7.64632L9.35352 6.31299C9.15818 6.11765 8.84149 6.11765 8.64616 6.31299C8.45083 6.50832 8.45083 6.82501 8.64616 7.02034L9.62614 8.00033L8.64616 8.98031C8.45083 9.17564 8.45083 9.49233 8.64616 9.68766C8.74349 9.785 8.87151 9.83431 8.99951 9.83431C9.12751 9.83431 9.25618 9.78501 9.35352 9.68701Z" fill="#3B3B3E"/>
</svg>
