<svg width="16" height="16" viewBox="0 0 16 16" fill="none" xmlns="http://www.w3.org/2000/svg">
<path d="M12 2.5H11.1667V2C11.1667 1.724 10.9427 1.5 10.6667 1.5C10.3907 1.5 10.1667 1.724 10.1667 2V2.5H5.83333V2C5.83333 1.724 5.60933 1.5 5.33333 1.5C5.05733 1.5 4.83333 1.724 4.83333 2V2.5H4C2.388 2.5 1.5 3.388 1.5 5V12C1.5 13.612 2.388 14.5 4 14.5H12C13.612 14.5 14.5 13.612 14.5 12V5C14.5 3.388 13.612 2.5 12 2.5ZM4 3.5H4.83333V4C4.83333 4.276 5.05733 4.5 5.33333 4.5C5.60933 4.5 5.83333 4.276 5.83333 4V3.5H10.1667V4C10.1667 4.276 10.3907 4.5 10.6667 4.5C10.9427 4.5 11.1667 4.276 11.1667 4V3.5H12C13.0513 3.5 13.5 3.94867 13.5 5V5.5H2.5V5C2.5 3.94867 2.94867 3.5 4 3.5ZM12 13.5H4C2.94867 13.5 2.5 13.0513 2.5 12V6.5H13.5V12C13.5 13.0513 13.0513 13.5 12 13.5ZM10.0719 7.31006C9.87261 7.11006 9.60802 7 9.32536 7C9.04202 7 8.77664 7.11071 8.57731 7.31071L5.146 10.758C5.052 10.852 5 10.9787 5 11.1107V12.4993C5 12.7753 5.224 12.9993 5.5 12.9993H6.88867C7.02067 12.9993 7.14804 12.9467 7.24137 12.854L10.6893 9.42204C10.8893 9.2227 11 8.95731 11 8.67464C11 8.39198 10.8906 8.12741 10.6906 7.92741L10.0719 7.31006ZM6.68197 12H6V11.3174C6 11.3174 7.24871 10.0633 8.20671 9.10059L8.89941 9.79329C7.93675 10.7513 6.68197 12 6.68197 12ZM9.98405 8.71338C9.97605 8.72138 9.83007 8.86739 9.60807 9.08805L8.91195 8.39193C9.13261 8.17059 9.27797 8.02394 9.28597 8.0166C9.32397 7.9786 9.36475 8.0166 9.36475 8.0166L9.98405 8.63525C9.98405 8.63525 10.0214 8.67538 9.98405 8.71338Z" fill="#3B3B3E"/>
</svg>
