<svg width="16" height="16" viewBox="0 0 16 16" fill="none" xmlns="http://www.w3.org/2000/svg">
<path d="M15.1599 7.91334C15.1599 7.91334 15.1599 7.90668 15.1599 7.90001C15.0999 4.03335 11.9732 0.900013 8.10652 0.84668C8.10652 0.84668 8.09985 0.84668 8.09318 0.84668C8.05985 0.84668 8.03318 0.84668 8.00651 0.84668C4.05318 0.84668 0.839844 4.06001 0.839844 8.01335C0.839844 8.04001 0.839844 8.07334 0.839844 8.10001C0.839844 8.10001 0.839844 8.10668 0.839844 8.11334C0.899844 11.98 4.02651 15.1133 7.89318 15.1667C7.91318 15.1667 7.93318 15.1667 7.95318 15.1667C7.95318 15.1667 7.95318 15.1667 7.95985 15.1667C7.97318 15.1667 7.97985 15.1667 7.99318 15.1667C11.9465 15.1667 15.1599 11.9533 15.1599 8.00001C15.1599 7.97334 15.1599 7.94001 15.1599 7.91334ZM14.1399 7.49335C14.0932 7.49335 14.0465 7.50001 13.9998 7.50001C10.9665 7.50001 8.49985 5.03334 8.49985 2.00001C8.49985 1.95334 8.50651 1.90667 8.50651 1.86001C11.4998 2.10667 13.8932 4.50001 14.1399 7.49335V7.49335ZM1.85984 8.51335C1.90651 8.51335 1.95318 8.50667 1.99985 8.50667C5.03318 8.50667 7.49985 10.9733 7.49985 14.0067C7.49985 14.0533 7.49318 14.1 7.49318 14.1467C4.49985 13.9 2.10651 11.5067 1.85984 8.51335V8.51335ZM8.49318 14.1467C8.49318 14.1 8.49985 14.0533 8.49985 14.0067C8.49985 10.42 5.58651 7.50667 1.99985 7.50667C1.95318 7.50667 1.90651 7.51335 1.85984 7.51335C2.09984 4.50668 4.49985 2.10001 7.51318 1.86001C7.51318 1.90667 7.50651 1.95334 7.50651 2.00001C7.50651 5.58668 10.4198 8.50001 14.0065 8.50001C14.0532 8.50001 14.0998 8.49335 14.1465 8.49335C13.9065 11.5 11.5065 13.9067 8.49318 14.1467Z" fill="#3B3B3E"/>
</svg>
