<svg width="16" height="16" viewBox="0 0 16 16" fill="none" xmlns="http://www.w3.org/2000/svg">
<path d="M13.3333 10.8333H2.66667C2.20667 10.8333 1.83333 11.2067 1.83333 11.6667V12C1.83333 13.6133 2.72 14.5 4.33333 14.5H11.6667C13.28 14.5 14.1667 13.6133 14.1667 12V11.6667C14.1667 11.2067 13.7933 10.8333 13.3333 10.8333ZM13.1667 12C13.1667 13.0533 12.72 13.5 11.6667 13.5H4.33333C3.28 13.5 2.83333 13.0533 2.83333 12V11.8333H13.1667V12ZM2.66667 7.83333H13.3333C13.7933 7.83333 14.1667 7.46 14.1667 7V6.66667C14.1667 3.52667 11.7467 1.5 8 1.5C4.25333 1.5 1.83333 3.52667 1.83333 6.66667V7C1.83333 7.46 2.20667 7.83333 2.66667 7.83333ZM2.83333 6.66667C2.83333 4.1 4.81333 2.5 8 2.5C11.1867 2.5 13.1667 4.1 13.1667 6.66667V6.83333H2.83333V6.66667ZM14.5 9.81333C14.5 10.0867 14.2733 10.3133 14 10.3133C13.3 10.3133 12.9267 9.95333 12.6533 9.69333C12.4067 9.46 12.2867 9.35333 12 9.35333C11.7133 9.35333 11.5933 9.46 11.3467 9.69333C11.0733 9.95333 10.7 10.3133 10 10.3133C9.3 10.3133 8.92667 9.95333 8.65334 9.69333C8.40667 9.46 8.28667 9.35333 8 9.35333C7.71333 9.35333 7.59333 9.46 7.34666 9.69333C7.07333 9.95333 6.7 10.3133 6 10.3133C5.3 10.3133 4.92667 9.95333 4.65334 9.69333C4.40667 9.46 4.28667 9.35333 4 9.35333C3.71333 9.35333 3.59333 9.46 3.34666 9.69333C3.07333 9.95333 2.7 10.3133 2 10.3133C1.72667 10.3133 1.5 10.0867 1.5 9.81333C1.5 9.54 1.72667 9.31333 2 9.31333C2.27333 9.31333 2.40667 9.20667 2.65334 8.97334C2.92667 8.71334 3.3 8.35333 4 8.35333C4.7 8.35333 5.07333 8.71334 5.34666 8.97334C5.59333 9.20667 5.71333 9.31333 6 9.31333C6.28667 9.31333 6.40667 9.20667 6.65334 8.97334C6.92667 8.71334 7.3 8.35333 8 8.35333C8.7 8.35333 9.07333 8.71334 9.34666 8.97334C9.59333 9.20667 9.71333 9.31333 10 9.31333C10.2867 9.31333 10.4067 9.20667 10.6533 8.97334C10.9267 8.71334 11.3 8.35333 12 8.35333C12.7 8.35333 13.0733 8.71334 13.3467 8.97334C13.5933 9.20667 13.7133 9.31333 14 9.31333C14.2867 9.31333 14.5 9.54 14.5 9.81333ZM5.68667 4.31333C5.78 4.40667 5.83333 4.53333 5.83333 4.66667C5.83333 4.8 5.78 4.92667 5.68667 5.02C5.59333 5.11333 5.46667 5.16667 5.33333 5.16667C5.2 5.16667 5.07333 5.11333 4.98 5.02C4.88667 4.92667 4.83333 4.8 4.83333 4.66667C4.83333 4.6 4.84667 4.54 4.87333 4.47334C4.9 4.41334 4.93333 4.36 4.98 4.31333C5.16 4.12667 5.5 4.12667 5.68667 4.31333V4.31333ZM8.35333 3.64667C8.44667 3.74 8.5 3.86667 8.5 4C8.5 4.06667 8.48667 4.12666 8.46 4.19333C8.43334 4.25333 8.4 4.30667 8.35333 4.35333C8.30667 4.4 8.25334 4.43334 8.19334 4.46C8.12667 4.48667 8.06667 4.5 8 4.5C7.86667 4.5 7.74 4.44667 7.64667 4.35333C7.6 4.30667 7.56667 4.25333 7.54 4.19333C7.51333 4.12666 7.5 4.06667 7.5 4C7.5 3.86667 7.55333 3.74 7.64667 3.64667C7.78667 3.50667 8.00667 3.46 8.19334 3.54C8.25334 3.56 8.30667 3.6 8.35333 3.64667ZM11.02 4.31333C11.1133 4.40667 11.1667 4.53333 11.1667 4.66667C11.1667 4.73333 11.1533 4.8 11.1267 4.86C11.1 4.92 11.0667 4.97333 11.02 5.02C10.9733 5.06667 10.92 5.1 10.86 5.12667C10.7933 5.15334 10.7333 5.16667 10.6667 5.16667C10.5333 5.16667 10.4067 5.11333 10.3133 5.02C10.2667 4.97333 10.2267 4.92 10.2067 4.86C10.18 4.8 10.1667 4.73333 10.1667 4.66667C10.1667 4.53333 10.22 4.40667 10.3133 4.31333C10.4467 4.17333 10.6733 4.12667 10.86 4.20667C10.92 4.23333 10.9733 4.26667 11.02 4.31333Z" fill="#3B3B3E"/>
</svg>
