<svg width="16" height="16" viewBox="0 0 16 16" fill="none" xmlns="http://www.w3.org/2000/svg">
<path d="M7.33931 7.16667C8.90198 7.16667 10.1726 5.89533 10.1726 4.33333C10.1726 2.77133 8.90198 1.5 7.33931 1.5C5.77665 1.5 4.50598 2.77133 4.50598 4.33333C4.50598 5.89533 5.77665 7.16667 7.33931 7.16667ZM7.33931 2.5C8.35065 2.5 9.17265 3.322 9.17265 4.33333C9.17265 5.34467 8.35065 6.16667 7.33931 6.16667C6.32798 6.16667 5.50598 5.34467 5.50598 4.33333C5.50598 3.322 6.32798 2.5 7.33931 2.5ZM3.16663 12.0133C3.16663 13.0553 3.61529 13.5 4.66663 13.5H9.33329C9.60929 13.5 9.83329 13.724 9.83329 14C9.83329 14.276 9.60929 14.5 9.33329 14.5H4.66663C3.05463 14.5 2.16663 13.6167 2.16663 12.0133C2.16663 10.2387 3.17063 8.16667 5.99996 8.16667H8.66663C11.0453 8.16667 11.9293 9.626 12.2433 10.4967C12.3373 10.756 12.2027 11.0426 11.9433 11.1366C11.6853 11.232 11.3979 11.0967 11.3033 10.8367C10.9019 9.72867 10.0153 9.16667 8.66663 9.16667H5.99996C3.37129 9.16667 3.16663 11.346 3.16663 12.0133ZM14.5 12.6667C14.5 12.9427 14.276 13.1667 14 13.1667H11.3333C11.0573 13.1667 10.8333 12.9427 10.8333 12.6667C10.8333 12.3907 11.0573 12.1667 11.3333 12.1667H14C14.276 12.1667 14.5 12.3907 14.5 12.6667Z" fill="#3B3B3E"/>
</svg>
