<svg width="16" height="16" viewBox="0 0 16 16" fill="none" xmlns="http://www.w3.org/2000/svg">
<path d="M11.71 9.53066C11.5826 9.53066 11.4546 9.482 11.3573 9.38534C11.1619 9.19067 11.1606 8.874 11.356 8.678L12.6673 7.35933C13.206 6.82733 13.5 6.11401 13.5 5.34867C13.5 4.58467 13.2046 3.86866 12.6686 3.33199C11.5593 2.22199 9.75259 2.22199 8.64193 3.33199L7.33073 4.65C7.13606 4.846 6.81937 4.84666 6.62337 4.652C6.42804 4.45733 6.42659 4.14066 6.62126 3.94466L7.93392 2.626C9.43525 1.12466 11.8753 1.12599 13.3753 2.62533C14.1007 3.34999 14.5 4.31734 14.5 5.34867C14.5 6.38334 14.1 7.34868 13.374 8.06734L12.0653 9.38334C11.9666 9.48201 11.8386 9.53066 11.71 9.53066ZM8.06608 13.3753L9.38525 12.0633C9.58059 11.8687 9.58205 11.552 9.38672 11.356C9.19205 11.16 8.87536 11.16 8.67936 11.354L7.36003 12.6673C6.25069 13.7773 4.444 13.7773 3.33333 12.6673C2.22333 11.5573 2.22335 9.75134 3.33268 8.64201L4.65202 7.33C4.84735 7.13533 4.84865 6.81866 4.65332 6.62266C4.45865 6.42666 4.14196 6.42667 3.94596 6.62067L2.62663 7.934C1.12663 9.434 1.12663 11.874 2.62663 13.374C3.37729 14.124 4.36266 14.4987 5.34733 14.4987C6.332 14.4987 7.31675 14.1247 8.06608 13.3753ZM14.5 11.3333C14.5 11.0573 14.276 10.8333 14 10.8333H12.6667C12.3907 10.8333 12.1667 11.0573 12.1667 11.3333C12.1667 11.6093 12.3907 11.8333 12.6667 11.8333H14C14.276 11.8333 14.5 11.6093 14.5 11.3333ZM11.8333 14V12.6667C11.8333 12.3907 11.6093 12.1667 11.3333 12.1667C11.0573 12.1667 10.8333 12.3907 10.8333 12.6667V14C10.8333 14.276 11.0573 14.5 11.3333 14.5C11.6093 14.5 11.8333 14.276 11.8333 14ZM3.83333 4.66667C3.83333 4.39067 3.60933 4.16667 3.33333 4.16667H2C1.724 4.16667 1.5 4.39067 1.5 4.66667C1.5 4.94267 1.724 5.16667 2 5.16667H3.33333C3.60933 5.16667 3.83333 4.94267 3.83333 4.66667ZM5.16667 3.33333V2C5.16667 1.724 4.94267 1.5 4.66667 1.5C4.39067 1.5 4.16667 1.724 4.16667 2V3.33333C4.16667 3.60933 4.39067 3.83333 4.66667 3.83333C4.94267 3.83333 5.16667 3.60933 5.16667 3.33333Z" fill="#3B3B3E"/>
</svg>
