<svg width="16" height="16" viewBox="0 0 16 16" fill="none" xmlns="http://www.w3.org/2000/svg">
<path d="M10.8807 4.28337L11.4907 3.26668C11.7093 2.90135 11.7147 2.46198 11.5047 2.09131C11.2947 1.72064 10.9153 1.5 10.49 1.5H5.51003C5.08403 1.5 4.70469 1.72131 4.49536 2.09131C4.28603 2.46198 4.2907 2.90135 4.51003 3.26668L5.11934 4.28337C3.16001 6.09137 2.16669 8.01267 2.16669 10C2.16669 11.0553 2.58735 14.5 8.00002 14.5C13.4127 14.5 13.8334 11.0553 13.8334 10C13.8334 8.01267 12.8407 6.09137 10.8807 4.28337ZM5.36536 2.58398C5.38336 2.55265 5.42603 2.5 5.51003 2.5H10.49C10.574 2.5 10.6167 2.55332 10.6347 2.58398C10.6527 2.61532 10.676 2.68003 10.6327 2.75203L9.95669 3.87931H6.04336L5.36735 2.75203C5.32402 2.68003 5.34736 2.61598 5.36536 2.58398ZM8.00002 13.5C3.63802 13.5 3.16669 11.0527 3.16669 10C3.16669 8.25467 4.11002 6.5333 5.95669 4.87996H10.0434C11.8907 6.5333 12.8334 8.25467 12.8334 10C12.8334 11.0527 12.362 13.5 8.00002 13.5ZM8.54535 8.95532L7.70203 8.74268C7.59536 8.71468 7.5047 8.6547 7.43536 8.5647C7.36936 8.48003 7.33335 8.37064 7.33335 8.25798C7.33335 7.98264 7.55002 7.75936 7.81669 7.75936H8.18402C8.43002 7.75936 8.63602 7.95004 8.66402 8.20337C8.69402 8.47804 8.93736 8.67401 9.21602 8.64535C9.49069 8.61535 9.68802 8.36734 9.65802 8.09334C9.58602 7.44201 9.11002 6.9313 8.50002 6.79663V6.66667C8.50002 6.39067 8.27602 6.16667 8.00002 6.16667C7.72402 6.16667 7.50002 6.39067 7.50002 6.66667V6.79533C6.83402 6.94266 6.33335 7.54131 6.33335 8.25798C6.33335 8.59198 6.44468 8.91864 6.64268 9.17464C6.84335 9.43798 7.13069 9.62801 7.45469 9.71134L8.29801 9.92399C8.51535 9.97999 8.66669 10.1794 8.66669 10.4087C8.66669 10.542 8.61536 10.668 8.52136 10.7633C8.43003 10.8567 8.31002 10.9073 8.18335 10.9073H7.81602C7.57002 10.9073 7.36402 10.7166 7.33602 10.4633C7.30535 10.1886 7.06202 9.99132 6.78402 10.0213C6.50935 10.0513 6.31202 10.2993 6.34202 10.5733C6.41402 11.2247 6.89002 11.7354 7.50002 11.87V12C7.50002 12.276 7.72402 12.5 8.00002 12.5C8.27602 12.5 8.50002 12.276 8.50002 12V11.8713C8.77602 11.8107 9.03003 11.6727 9.23403 11.4653C9.5127 11.1827 9.66669 10.8073 9.66669 10.4093C9.66669 9.72268 9.20668 9.12532 8.54535 8.95532Z" fill="#3B3B3E"/>
</svg>
