<svg width="16" height="16" viewBox="0 0 16 16" fill="none" xmlns="http://www.w3.org/2000/svg">
<path d="M12.6666 8.66667C12.6666 8.94267 12.4426 9.16667 12.1666 9.16667H11.8333V9.5C11.8333 9.776 11.6093 10 11.3333 10C11.0573 10 10.8333 9.776 10.8333 9.5V9.16667H10.5C10.224 9.16667 9.99996 8.94267 9.99996 8.66667C9.99996 8.39067 10.224 8.16667 10.5 8.16667H10.8333V7.83333C10.8333 7.55733 11.0573 7.33333 11.3333 7.33333C11.6093 7.33333 11.8333 7.55733 11.8333 7.83333V8.16667H12.1666C12.4426 8.16667 12.6666 8.39067 12.6666 8.66667ZM14.5 8.66667C14.5 10.4127 13.0793 11.8333 11.3333 11.8333C10.788 11.8333 10.282 11.682 9.83329 11.438V14C9.83329 14.1893 9.7266 14.3627 9.5566 14.4473C9.4866 14.4827 9.40929 14.5 9.33329 14.5C9.22729 14.5 9.12199 14.466 9.03332 14.4L6.36666 12.4C6.24132 12.3053 6.16663 12.1573 6.16663 12V9.33333C6.16663 9.20067 6.11466 9.07533 6.01933 8.98L2.60665 5.56667C2.32265 5.28334 2.16663 4.90667 2.16663 4.50667V3C2.16663 2.17267 2.83996 1.5 3.66663 1.5H12.3333C13.16 1.5 13.8333 2.17267 13.8333 3V4.50667C13.8333 4.90667 13.6773 5.28334 13.3933 5.56734L12.9833 5.97734C13.8893 6.53467 14.5 7.52733 14.5 8.66667ZM8.83329 13V10.5873C8.42129 10.0527 8.16663 9.392 8.16663 8.66667C8.16663 6.92067 9.58729 5.5 11.3333 5.5C11.5546 5.5 11.7706 5.52334 11.9793 5.56734L12.6866 4.86001C12.782 4.76534 12.8339 4.64001 12.8339 4.50667V3C12.8339 2.724 12.6093 2.5 12.3339 2.5H3.66728C3.39194 2.5 3.16728 2.724 3.16728 3V4.50667C3.16728 4.63934 3.21932 4.76467 3.31466 4.86001L6.72725 8.27334C7.01125 8.55667 7.16728 8.93333 7.16728 9.33333V11.75L8.83329 13ZM13.5 8.66667C13.5 7.472 12.528 6.5 11.3333 6.5C10.1386 6.5 9.16663 7.472 9.16663 8.66667C9.16663 9.86133 10.1386 10.8333 11.3333 10.8333C12.528 10.8333 13.5 9.86133 13.5 8.66667Z" fill="#3B3B3E"/>
</svg>
