<svg width="16" height="16" viewBox="0 0 16 16" fill="none" xmlns="http://www.w3.org/2000/svg">
<path d="M14 7.5H2C1.724 7.5 1.5 7.724 1.5 8C1.5 8.276 1.724 8.5 2 8.5H2.83333V12C2.83333 13.612 3.72133 14.5 5.33333 14.5H10.6667C12.2787 14.5 13.1667 13.612 13.1667 12V8.5H14C14.276 8.5 14.5 8.276 14.5 8C14.5 7.724 14.276 7.5 14 7.5ZM12.1667 12C12.1667 13.0513 11.718 13.5 10.6667 13.5H5.33333C4.282 13.5 3.83333 13.0513 3.83333 12V8.5H12.1667V12ZM2.83333 6V4C2.83333 2.388 3.72133 1.5 5.33333 1.5H10.6667C12.2787 1.5 13.1667 2.388 13.1667 4V6C13.1667 6.276 12.9427 6.5 12.6667 6.5C12.3907 6.5 12.1667 6.276 12.1667 6V4C12.1667 2.94867 11.718 2.5 10.6667 2.5H5.33333C4.282 2.5 3.83333 2.94867 3.83333 4V6C3.83333 6.276 3.60933 6.5 3.33333 6.5C3.05733 6.5 2.83333 6.276 2.83333 6Z" fill="#3B3B3E"/>
</svg>
