<svg width="16" height="16" viewBox="0 0 16 16" fill="none" xmlns="http://www.w3.org/2000/svg">
<path d="M10.6665 1.50064H6.6665C5.2865 1.50064 4.1665 2.62064 4.1665 4.00064V4.25398C4.01317 4.20064 3.83984 4.16731 3.6665 4.16731C2.83984 4.16731 2.1665 4.84064 2.1665 5.66731V8.06731C2.1665 8.90731 2.57985 9.68064 3.27985 10.1473L3.94651 10.5873C4.08651 10.6806 4.1665 10.834 4.1665 11.0006V12.994C4.1665 13.8206 4.83984 14.494 5.6665 14.494H11.6665C12.4932 14.494 13.1665 13.8206 13.1665 12.994V10.7006C13.1665 10.6206 13.1865 10.5473 13.2198 10.474L13.5665 9.77398C13.7398 9.42731 13.8332 9.04064 13.8332 8.65397V4.65397C13.8332 2.9073 12.4132 1.4873 10.6665 1.4873V1.50064ZM3.83317 9.31398C3.41317 9.03398 3.1665 8.56731 3.1665 8.06731V5.66731C3.1665 5.39397 3.39317 5.16731 3.6665 5.16731C3.93984 5.16731 4.1665 5.39397 4.1665 5.66731V8.00064C4.1665 8.27397 4.39317 8.50064 4.6665 8.50064C4.93984 8.50064 5.1665 8.27397 5.1665 8.00064V4.00064C5.1665 3.17397 5.83984 2.50064 6.6665 2.50064H10.6665C11.8598 2.50064 12.8332 3.47397 12.8332 4.66731V8.66731C12.8332 8.90064 12.7798 9.13397 12.6732 9.34064L12.3265 10.0406C12.2198 10.2473 12.1665 10.4806 12.1665 10.714V10.8406H5.1465C5.09317 10.4073 4.8665 10.014 4.49984 9.7673L3.83317 9.32731V9.31398ZM11.6665 13.5006H5.6665C5.39317 13.5006 5.1665 13.274 5.1665 13.0006V11.834H12.1665V13.0006C12.1665 13.274 11.9398 13.5006 11.6665 13.5006Z" fill="#3B3B3E"/>
</svg>
