<svg width="16" height="16" viewBox="0 0 16 16" fill="none" xmlns="http://www.w3.org/2000/svg">
<path d="M7.83309 5.17209V3.32801C7.83376 2.85001 7.54711 2.42737 7.10311 2.2507C6.65978 2.07337 6.15915 2.1828 5.83049 2.53146L1.8785 6.71131C1.37383 7.24465 1.37383 8.08146 1.8785 8.6148L5.83049 12.7946C6.15982 13.142 6.66111 13.2521 7.10311 13.0748C7.54711 12.8974 7.83376 12.4748 7.83309 11.9981V10.1667C9.77642 10.2147 11.0657 10.5474 11.6684 11.1581C12.1144 11.6101 12.1978 12.2027 12.1871 13.0134C12.1824 13.3887 12.4231 13.7067 12.7844 13.8047C12.8578 13.8247 12.9325 13.834 13.0045 13.834C13.2938 13.834 13.5618 13.6814 13.7118 13.4174C14.2205 12.5254 14.5004 11.428 14.5004 10.3267C14.4997 7.12004 12.1378 5.30075 7.83309 5.17209ZM13.1591 12.2434C13.0931 11.604 12.8985 10.9801 12.3798 10.4555C11.5078 9.57212 9.90442 9.16069 7.33309 9.16069C7.05709 9.16069 6.83309 9.38469 6.83309 9.66069V11.9981C6.83309 12.0868 6.77849 12.1267 6.73316 12.1454C6.68849 12.1641 6.61971 12.1727 6.55705 12.1067L2.60506 7.92665C2.4644 7.77798 2.4644 7.54535 2.60506 7.39735L6.55705 3.21799C6.61905 3.15265 6.68716 3.16143 6.73316 3.17876C6.77916 3.19676 6.83309 3.23738 6.83309 3.32671V5.66346C6.83309 5.93946 7.05709 6.16346 7.33309 6.16346C10.1464 6.16346 13.4998 6.88539 13.4998 10.3261C13.4998 10.9907 13.3811 11.65 13.1591 12.2434Z" fill="#3B3B3E"/>
</svg>
