<svg width="16" height="16" viewBox="0 0 16 16" fill="none" xmlns="http://www.w3.org/2000/svg">
<path d="M10.6667 11.8329H9.33333C9.05733 11.8329 8.83333 11.6089 8.83333 11.3329C8.83333 11.0569 9.05733 10.8329 9.33333 10.8329H10.6667C12.2293 10.8329 13.5 9.56219 13.5 7.99953C13.5 6.43686 12.2293 5.16619 10.6667 5.16619H9.33333C9.05733 5.16619 8.83333 4.94219 8.83333 4.66619C8.83333 4.39019 9.05733 4.16619 9.33333 4.16619H10.6667C12.7807 4.16619 14.5 5.88553 14.5 7.99953C14.5 10.1135 12.7807 11.8329 10.6667 11.8329ZM7.16667 11.3329C7.16667 11.0569 6.94267 10.8329 6.66667 10.8329H5.33333C3.77067 10.8329 2.5 9.56219 2.5 7.99953C2.5 6.43686 3.77067 5.16619 5.33333 5.16619H6.66667C6.94267 5.16619 7.16667 4.94219 7.16667 4.66619C7.16667 4.39019 6.94267 4.16619 6.66667 4.16619H5.33333C3.21933 4.16619 1.5 5.88553 1.5 7.99953C1.5 10.1135 3.21933 11.8329 5.33333 11.8329H6.66667C6.94267 11.8329 7.16667 11.6089 7.16667 11.3329ZM7.35335 3.01953C7.54869 2.82419 7.54869 2.50752 7.35335 2.31219L6.68669 1.64552C6.49135 1.45019 6.17466 1.45019 5.97933 1.64552C5.784 1.84086 5.784 2.15753 5.97933 2.35286L6.646 3.01953C6.74333 3.11686 6.87135 3.16619 6.99935 3.16619C7.12735 3.16619 7.25602 3.11753 7.35335 3.01953ZM9.35335 3.01953L10.02 2.35286C10.2154 2.15753 10.2154 1.84086 10.02 1.64552C9.82469 1.45019 9.508 1.45019 9.31266 1.64552L8.646 2.31219C8.45066 2.50752 8.45066 2.82419 8.646 3.01953C8.74333 3.11686 8.87135 3.16619 8.99935 3.16619C9.12735 3.16619 9.25602 3.11753 9.35335 3.01953ZM10.02 14.3529C10.2154 14.1575 10.2154 13.8409 10.02 13.6455L9.35335 12.9789C9.15802 12.7835 8.84133 12.7835 8.646 12.9789C8.45066 13.1742 8.45066 13.4909 8.646 13.6862L9.31266 14.3529C9.41 14.4502 9.53802 14.4995 9.66602 14.4995C9.79402 14.4995 9.92269 14.4509 10.02 14.3529ZM6.68669 14.3529L7.35335 13.6862C7.54869 13.4909 7.54869 13.1742 7.35335 12.9789C7.15802 12.7835 6.84133 12.7835 6.646 12.9789L5.97933 13.6455C5.784 13.8409 5.784 14.1575 5.97933 14.3529C6.07666 14.4502 6.20468 14.4995 6.33268 14.4995C6.46068 14.4995 6.58935 14.4509 6.68669 14.3529Z" fill="#3B3B3E"/>
</svg>
