<svg width="16" height="16" viewBox="0 0 16 16" fill="none" xmlns="http://www.w3.org/2000/svg">
<path d="M8.00004 0.833008C4.04804 0.833008 0.833374 4.04834 0.833374 7.99967C0.833374 11.951 4.04804 15.1663 8.00004 15.1663C11.952 15.1663 15.1667 11.951 15.1667 7.99967C15.1667 4.04834 11.952 0.833008 8.00004 0.833008ZM14.1667 7.99967C14.1667 8.02234 14.1634 8.04435 14.1634 8.06702C13.8647 8.13702 13.5654 8.28966 13.3334 8.527C13.232 8.44633 13 8.20567 12.6247 7.513C12.21 6.74833 12.3747 6.393 12.624 5.855C12.7087 5.673 12.7921 5.48967 12.8534 5.30033C12.9514 5.01033 12.9354 4.625 12.8654 4.223C13.6774 5.26834 14.1667 6.57634 14.1667 7.99967ZM1.83337 7.99967C1.83337 7.67301 1.86603 7.355 1.91536 7.04234C2.49736 8.71434 3.80337 9.37701 4.53137 9.74434C4.65404 9.80634 4.79935 9.87967 4.87935 9.92967C4.91135 10.1077 4.90605 10.233 4.89539 10.451C4.88539 10.669 4.8727 10.941 4.8927 11.3643C4.9327 12.1877 5.60206 12.5377 6.09139 12.793C6.38472 12.9463 6.66269 13.091 6.80469 13.301C6.87602 13.403 6.94203 13.723 6.9187 14.065C4.03337 13.5523 1.83337 11.031 1.83337 7.99967ZM7.91203 14.1617C7.95403 13.6183 7.85402 13.055 7.62935 12.7343C7.35002 12.3217 6.92805 12.101 6.55538 11.907C6.05938 11.6477 5.9027 11.5323 5.8927 11.317C5.8747 10.9383 5.88672 10.6943 5.89539 10.499C5.90872 10.2177 5.92004 9.97435 5.83337 9.60168C5.74871 9.23835 5.41071 9.06768 4.98271 8.85168C4.07537 8.39435 2.57006 7.62901 2.62606 4.98568C3.68406 3.10634 5.69469 1.83301 8.00069 1.83301C8.26269 1.83301 8.51936 1.855 8.77336 1.887C8.66602 2.02767 8.51272 2.14435 8.35539 2.19568C6.97739 2.64701 6.96272 3.87234 6.95272 4.68367C6.94472 5.36434 6.90072 5.48834 6.80139 5.51168C6.71806 5.50568 6.48337 5.379 6.34403 5.303C5.98603 5.10833 5.61672 4.90701 5.23206 5.00035C4.91472 5.07501 4.52869 5.36968 4.40535 5.78835C4.34402 5.99635 4.3007 6.40835 4.70003 6.82235C4.94137 7.07235 4.95004 7.17035 4.96871 7.36568C4.98271 7.51501 5.00273 7.719 5.11206 7.96967C5.53273 8.899 6.7947 8.75567 7.2747 8.69967C8.02003 8.60633 8.15473 8.60235 8.52873 8.99168C8.68073 9.14968 8.76938 9.351 8.86271 9.56433C9.04071 9.96833 9.28337 10.5217 10.0347 10.6083C10.6214 10.681 10.9974 10.8657 11.11 11.017C11.1374 11.0537 11.1441 11.079 11.1367 11.1217C11.1014 11.331 10.8387 11.581 10.5341 11.871C10.0287 12.351 9.35939 12.995 9.11739 14.061C8.75472 14.1277 8.38204 14.1677 8.00004 14.1677C7.97004 14.1663 7.94136 14.1623 7.91203 14.1617ZM10.2927 13.7197C10.5261 13.2617 10.8767 12.923 11.2227 12.5943C11.6394 12.1983 12.032 11.825 12.1234 11.2863C12.176 10.9737 12.1034 10.673 11.9127 10.4177C11.4941 9.85568 10.634 9.673 10.1547 9.61367C9.99737 9.59567 9.95538 9.56034 9.77938 9.16034C9.66671 8.90367 9.52602 8.58367 9.25069 8.29767C8.51802 7.535 7.91403 7.61033 7.1567 7.70567C6.24203 7.80967 6.06003 7.635 6.02669 7.56167C5.98403 7.46433 5.97669 7.38701 5.96602 7.27034C5.93402 6.93234 5.86803 6.59035 5.42069 6.12701C5.38336 6.08835 5.36805 6.06167 5.36605 6.06834C5.37671 6.03967 5.43603 5.98434 5.42403 5.97701C5.5047 5.98434 5.73137 6.10768 5.8667 6.18101C6.22203 6.37434 6.59003 6.57301 6.97603 6.49367C7.9347 6.29634 7.94537 5.37101 7.95337 4.69501C7.9647 3.77634 8.03536 3.35234 8.66736 3.14567C9.12736 2.995 9.58804 2.60835 9.79537 2.10101C10.3347 2.26568 10.84 2.50434 11.3054 2.80168C11.6327 3.30434 12.0314 4.61233 11.9054 4.987C11.8547 5.143 11.7861 5.28901 11.7181 5.43435C11.4394 6.03501 11.0927 6.783 11.7467 7.98966C12.3114 9.03033 12.7647 9.49835 13.2634 9.55568C13.2907 9.55902 13.322 9.56101 13.3574 9.56101C13.5354 9.56101 13.8 9.50368 14.0434 9.23301C13.6254 11.279 12.1901 12.9563 10.2927 13.7197Z" fill="#3B3B3E"/>
</svg>
