<svg width="16" height="16" viewBox="0 0 16 16" fill="none" xmlns="http://www.w3.org/2000/svg">
<path d="M8.00004 0.833008C4.04804 0.833008 0.833374 4.04834 0.833374 7.99967C0.833374 11.951 4.04804 15.1663 8.00004 15.1663C11.952 15.1663 15.1667 11.951 15.1667 7.99967C15.1667 4.04834 11.952 0.833008 8.00004 0.833008ZM8.00004 14.1663C4.59937 14.1663 1.83337 11.4003 1.83337 7.99967C1.83337 4.59901 4.59937 1.83301 8.00004 1.83301C11.4007 1.83301 14.1667 4.59901 14.1667 7.99967C14.1667 11.4003 11.4007 14.1663 8.00004 14.1663ZM10.8334 7.99967C10.8334 8.27567 10.6094 8.49967 10.3334 8.49967H5.66671C5.39071 8.49967 5.16671 8.27567 5.16671 7.99967C5.16671 7.72367 5.39071 7.49967 5.66671 7.49967H10.3334C10.6094 7.49967 10.8334 7.72367 10.8334 7.99967Z" fill="#3B3B3E"/>
</svg>
