<svg width="16" height="16" viewBox="0 0 16 16" fill="none" xmlns="http://www.w3.org/2000/svg">
<path d="M10.3582 3.6306C9.86157 3.39994 9.29414 3.47651 8.87614 3.82917L5.41357 6.74926C5.04491 7.06059 4.8335 7.51592 4.8335 7.99926C4.8335 8.48259 5.04491 8.93859 5.41357 9.24926L8.87614 12.1692C9.13414 12.3872 9.44888 12.4993 9.76888 12.4993C9.96755 12.4993 10.1682 12.4566 10.3582 12.3679C10.8569 12.1359 11.1668 11.6492 11.1668 11.0979V4.89997C11.1668 4.34931 10.8569 3.8626 10.3582 3.6306ZM10.1668 11.0985C10.1668 11.3365 9.99085 11.4367 9.93685 11.462C9.86818 11.4933 9.6935 11.5505 9.52083 11.4058L6.05811 8.48591C5.91544 8.36524 5.8335 8.18791 5.8335 7.99991C5.8335 7.81191 5.91544 7.63457 6.05811 7.51391L9.52083 4.59398C9.6935 4.44865 9.86818 4.5065 9.93685 4.53783C9.99085 4.56316 10.1668 4.66328 10.1668 4.90128V11.0985Z" fill="#3B3B3E"/>
</svg>
