<svg width="16" height="16" viewBox="0 0 16 16" fill="none" xmlns="http://www.w3.org/2000/svg">
<path d="M8.00016 15.1663C4.04816 15.1663 0.833496 11.9517 0.833496 7.99967C0.833496 4.04767 4.04816 0.833008 8.00016 0.833008C11.9522 0.833008 15.1668 4.04767 15.1668 7.99967C15.1668 11.9517 11.9522 15.1663 8.00016 15.1663ZM8.00016 1.83301C4.5995 1.83301 1.8335 4.59901 1.8335 7.99967C1.8335 11.4003 4.5995 14.1663 8.00016 14.1663C11.4008 14.1663 14.1668 11.4003 14.1668 7.99967C14.1668 4.59901 11.4008 1.83301 8.00016 1.83301ZM10.4115 9.61768C10.5681 9.39101 10.5115 9.07903 10.2848 8.92236C10.0575 8.76436 9.7462 8.82232 9.58887 9.04899C9.24887 9.54032 8.68942 9.83366 8.09342 9.83366C7.08209 9.83366 6.26009 9.01166 6.26009 8.00033C6.26009 6.98899 7.08209 6.16699 8.09342 6.16699C8.69009 6.16699 9.24887 6.46033 9.58887 6.95166C9.7462 7.17833 10.0575 7.23695 10.2848 7.07829C10.5122 6.92095 10.5688 6.60964 10.4115 6.38297C9.88412 5.62164 9.01744 5.16764 8.09277 5.16764C6.53011 5.16764 5.25944 6.43898 5.25944 8.00098C5.25944 9.56298 6.53011 10.8343 8.09277 10.8343C9.01744 10.833 9.88412 10.3783 10.4115 9.61768Z" fill="#3B3B3E"/>
</svg>
