<svg width="16" height="16" viewBox="0 0 16 16" fill="none" xmlns="http://www.w3.org/2000/svg">
<path d="M14.2754 5.81134L13.5621 3.31333C13.3074 2.422 13.0441 1.5 11.1588 1.5H4.84204C2.95671 1.5 2.69272 2.422 2.43872 3.31333L1.72542 5.81134C1.57609 6.33267 1.50073 6.872 1.50073 7.414V12C1.50073 13.612 2.38873 14.5 4.00073 14.5H12.0007C13.6127 14.5 14.5007 13.612 14.5007 12V7.41333C14.5001 6.87133 14.4247 6.33267 14.2754 5.81134ZM12.6007 3.58799L13.314 6.086C13.3214 6.11267 13.324 6.14067 13.3314 6.16734H8.50008V2.50067H11.1581C12.2901 2.5 12.3681 2.77399 12.6007 3.58799ZM3.39941 3.58799C3.63275 2.77399 3.71071 2.5 4.84204 2.5H7.50008V6.16667H2.66878C2.67612 6.14 2.67812 6.112 2.68612 6.086L3.39941 3.58799ZM13.5001 12C13.5001 13.0513 13.0514 13.5 12.0001 13.5H4.00008C2.94875 13.5 2.50008 13.0513 2.50008 12V7.41333C2.50008 7.33066 2.51275 7.24867 2.51742 7.16667H13.4827C13.4867 7.24933 13.5001 7.33066 13.5001 7.41333V12V12ZM9.50008 11.2747C9.50008 11.6373 9.36271 11.9793 9.11271 12.2387C8.93871 12.4193 8.72341 12.5393 8.49007 12.6007V12.6673C8.49007 12.9433 8.26607 13.1673 7.99007 13.1673C7.71407 13.1673 7.49007 12.9433 7.49007 12.6673V12.5953C6.97007 12.45 6.57007 11.998 6.50741 11.4253C6.47807 11.1507 6.67677 10.904 6.95077 10.8747C7.22477 10.8453 7.47212 11.0433 7.50212 11.318C7.52212 11.5073 7.66871 11.65 7.84204 11.65H8.15739C8.27539 11.65 8.35541 11.5853 8.39274 11.5467C8.46207 11.4747 8.50008 11.3787 8.50008 11.2767C8.50008 11.1033 8.39142 10.9533 8.23608 10.9127L7.51343 10.7267C7.21943 10.6493 6.95809 10.4733 6.77743 10.23C6.60009 9.99733 6.50073 9.69934 6.50073 9.39467C6.50073 8.76267 6.92206 8.23467 7.49072 8.07534V8C7.49072 7.724 7.71472 7.5 7.99072 7.5C8.26672 7.5 8.49072 7.724 8.49072 8V8.06667C9.02006 8.20534 9.42942 8.66268 9.49276 9.24268C9.52209 9.51734 9.3234 9.764 9.0494 9.79334C8.7794 9.82334 8.52805 9.62466 8.49805 9.35C8.47805 9.16133 8.33146 9.01868 8.15812 9.01868H7.84277C7.65411 9.01868 7.50008 9.18599 7.50008 9.39266C7.50008 9.47933 7.52677 9.56266 7.57544 9.626C7.62544 9.69333 7.68941 9.73734 7.76408 9.75667L8.48674 9.94267C9.08474 10.0993 9.50008 10.6467 9.50008 11.2747Z" fill="#3B3B3E"/>
</svg>
