<svg width="16" height="16" viewBox="0 0 16 16" fill="none" xmlns="http://www.w3.org/2000/svg">
<g clip-path="url(#clip0_36251_7348)">
<path d="M8 15.1663C7.48733 15.1663 7.01803 14.931 6.71069 14.5216L5.71134 13.1883C5.59601 13.035 5.41334 12.9437 5.22201 12.9437H4.22201C2.46667 12.9437 1.5 11.977 1.5 10.2217V3.55501C1.5 1.79968 2.46667 0.833008 4.22201 0.833008H11.778C13.5333 0.833008 14.5 1.79968 14.5 3.55501V10.2217C14.5 11.977 13.5333 12.9437 11.778 12.9437H10.778C10.5867 12.9437 10.4033 13.035 10.2887 13.189L9.28866 14.5224C8.98199 14.931 8.51267 15.1663 8 15.1663ZM4.22201 1.83301C3.01467 1.83301 2.5 2.34768 2.5 3.55501V10.2217C2.5 11.429 3.01467 11.9437 4.22201 11.9437H5.22201C5.72601 11.9437 6.20798 12.1843 6.51131 12.5876L7.51131 13.921C7.74465 14.2323 8.25669 14.2316 8.48869 13.921L9.48934 12.5876C9.79201 12.1843 10.2746 11.943 10.7786 11.943H11.7786C12.986 11.943 13.5007 11.4284 13.5007 10.221V3.55436C13.5007 2.34703 12.986 1.83236 11.7786 1.83236H4.22201V1.83301ZM8 6.49967C7.08067 6.49967 6.33333 5.75167 6.33333 4.83301C6.33333 3.91434 7.08067 3.16634 8 3.16634C8.91933 3.16634 9.66667 3.91434 9.66667 4.83301C9.66667 5.75167 8.91933 6.49967 8 6.49967ZM8 4.16634C7.632 4.16634 7.33333 4.46567 7.33333 4.83301C7.33333 5.20034 7.632 5.49967 8 5.49967C8.368 5.49967 8.66667 5.20034 8.66667 4.83301C8.66667 4.46567 8.368 4.16634 8 4.16634ZM9.32935 10.833H6.66463C5.72463 10.833 5.16333 10.2744 5.16333 9.33903C5.16333 8.25703 5.83333 7.16634 7.33 7.16634H8.66333C10.16 7.16634 10.83 8.2577 10.83 9.33903C10.83 10.2744 10.2687 10.833 9.32935 10.833ZM7.33 8.16634C6.31533 8.16634 6.16333 8.90103 6.16333 9.33903C6.16333 9.72236 6.27597 9.83301 6.66463 9.83301H9.32935C9.71801 9.83301 9.83 9.72236 9.83 9.33903C9.83 8.90103 9.678 8.16634 8.66333 8.16634H7.33Z" fill="#3B3B3E"/>
</g>
<defs>
<clipPath id="clip0_36251_7348">
<rect width="16" height="16" fill="white"/>
</clipPath>
</defs>
</svg>
