<svg width="16" height="16" viewBox="0 0 16 16" fill="none" xmlns="http://www.w3.org/2000/svg">
<path d="M9.66667 4.5C10.4933 4.5 11.1667 3.82667 11.1667 3C11.1667 2.17333 10.4933 1.5 9.66667 1.5C8.84 1.5 8.16667 2.17333 8.16667 3C8.16667 3.82667 8.84 4.5 9.66667 4.5ZM9.66667 2.5C9.94 2.5 10.1667 2.72667 10.1667 3C10.1667 3.27333 9.94 3.5 9.66667 3.5C9.39333 3.5 9.16667 3.27333 9.16667 3C9.16667 2.72667 9.39333 2.5 9.66667 2.5ZM6.66667 7.37333C6.55333 7.48667 6.50001 7.64667 6.52667 7.80667C6.55334 7.96667 6.65334 8.1 6.79334 8.17333L7.66667 8.60667C8.18 8.86 8.49333 9.37333 8.49333 9.94667V11.9933C8.49333 12.2667 8.26666 12.4933 7.99333 12.4933C7.71999 12.4933 7.49333 12.2667 7.49333 11.9933V9.94667C7.49333 9.75333 7.38666 9.58667 7.21999 9.5L6.34666 9.06667C5.91333 8.84667 5.61333 8.44666 5.54 7.96666C5.46 7.48666 5.61334 7.01333 5.96 6.66667L6.94 5.68667C7.52667 5.1 8.47333 5.1 9.06 5.68667L10.06 6.68667C10.1533 6.78 10.28 6.83333 10.4133 6.83333H11.3333C11.6067 6.83333 11.8333 7.06 11.8333 7.33333C11.8333 7.60667 11.6067 7.83333 11.3333 7.83333H10.4133C10.02 7.83333 9.63333 7.67333 9.35333 7.39333L8.35333 6.39333C8.16 6.2 7.84 6.2 7.64667 6.39333L6.66667 7.37333V7.37333ZM12 9.5C10.62 9.5 9.5 10.62 9.5 12C9.5 13.38 10.62 14.5 12 14.5C13.38 14.5 14.5 13.38 14.5 12C14.5 10.62 13.38 9.5 12 9.5ZM12 13.5C11.1733 13.5 10.5 12.8267 10.5 12C10.5 11.1733 11.1733 10.5 12 10.5C12.8267 10.5 13.5 11.1733 13.5 12C13.5 12.8267 12.8267 13.5 12 13.5ZM4 9.5C2.62 9.5 1.5 10.62 1.5 12C1.5 13.38 2.62 14.5 4 14.5C5.38 14.5 6.5 13.38 6.5 12C6.5 10.62 5.38 9.5 4 9.5ZM4 13.5C3.17333 13.5 2.5 12.8267 2.5 12C2.5 11.1733 3.17333 10.5 4 10.5C4.82667 10.5 5.5 11.1733 5.5 12C5.5 12.8267 4.82667 13.5 4 13.5Z" fill="#3B3B3E"/>
</svg>
