<svg width="16" height="16" viewBox="0 0 16 16" fill="none" xmlns="http://www.w3.org/2000/svg">
<path d="M13.0199 7.64683C13.2152 7.84216 13.2152 8.15885 13.0199 8.35418L8.35321 13.0208C8.25587 13.1182 8.12785 13.1675 7.99985 13.1675C7.87185 13.1675 7.74383 13.1188 7.6465 13.0208L2.97983 8.35418C2.7845 8.15885 2.7845 7.84216 2.97983 7.64683C3.17517 7.45149 3.49186 7.45149 3.68719 7.64683L8.0005 11.9601L12.3138 7.64683C12.5085 7.45149 12.8245 7.45149 13.0199 7.64683ZM7.6465 8.35353C7.74383 8.45087 7.87185 8.50018 7.99985 8.50018C8.12785 8.50018 8.25587 8.45153 8.35321 8.35353L13.0199 3.68686C13.2152 3.49153 13.2152 3.17484 13.0199 2.97951C12.8245 2.78417 12.5078 2.78417 12.3125 2.97951L7.9992 7.29282L3.68589 2.97951C3.49055 2.78417 3.17386 2.78417 2.97853 2.97951C2.7832 3.17484 2.7832 3.49153 2.97853 3.68686L7.6465 8.35353Z" fill="#3B3B3E"/>
</svg>
