<svg width="16" height="16" viewBox="0 0 16 16" fill="none" xmlns="http://www.w3.org/2000/svg">
<path d="M14.3181 6.05619L9.37667 1.99223C8.57867 1.33756 7.42207 1.33689 6.62407 1.99223L1.68274 6.05554C1.47008 6.23087 1.43872 6.54556 1.61406 6.75956C1.78939 6.97356 2.10541 7.00291 2.31808 6.82825L2.83338 6.40425V11.9995C2.83338 13.6115 3.72138 14.4996 5.33338 14.4996H10.6667C12.2787 14.4996 13.1667 13.6115 13.1667 11.9995V6.40425L13.682 6.82825C13.7753 6.90491 13.888 6.94218 14 6.94218C14.144 6.94218 14.2874 6.88021 14.386 6.76021C14.562 6.54621 14.5307 6.23152 14.3181 6.05619ZM12.1667 11.9995C12.1667 13.0509 11.718 13.4996 10.6667 13.4996H5.33338C4.28204 13.4996 3.83338 13.0509 3.83338 11.9995V5.58223L7.2594 2.76558C7.68807 2.41292 8.31275 2.41292 8.74142 2.76558L12.1674 5.58288V11.9995H12.1667ZM9.00004 7.49955H10.6667C10.732 7.49955 10.7967 7.51287 10.858 7.53821C10.98 7.58887 11.0774 7.68621 11.1287 7.80888C11.154 7.87021 11.1674 7.93487 11.1674 8.0002V9.66687C11.1674 9.94287 10.9434 10.1669 10.6674 10.1669C10.3914 10.1669 10.1674 9.94287 10.1674 9.66687V9.20691L9.12805 10.2455C8.76605 10.6081 8.13275 10.6081 7.76941 10.2455L6.98336 9.45886L5.68738 10.8103C5.59005 10.9076 5.46203 10.9569 5.33403 10.9569C5.20603 10.9569 5.07801 10.9083 4.98068 10.8103C4.78534 10.6149 4.78534 10.2982 4.98068 10.1029L6.33207 8.7515C6.69474 8.38884 7.3287 8.38884 7.69137 8.7515L8.47669 9.53747L9.4854 8.4989H9.00069C8.72469 8.4989 8.50069 8.2749 8.50069 7.9989C8.50069 7.7229 8.72404 7.49955 9.00004 7.49955Z" fill="#3B3B3E"/>
</svg>
