<svg width="16" height="16" viewBox="0 0 16 16" fill="none" xmlns="http://www.w3.org/2000/svg">
<path d="M13.4914 5.17529L11.5887 3.27262C11.3054 2.98929 10.9287 2.83333 10.528 2.83333H7.83268V2C7.83268 1.724 7.60868 1.5 7.33268 1.5C7.05668 1.5 6.83268 1.724 6.83268 2V2.83333H3.89669C2.79669 2.83333 2.16602 3.46396 2.16602 4.56396V7.43604C2.16602 8.53604 2.79669 9.16667 3.89669 9.16667H6.83268V13.5H5.33335C5.05735 13.5 4.83335 13.724 4.83335 14C4.83335 14.276 5.05735 14.5 5.33335 14.5H9.33335C9.60935 14.5 9.83335 14.276 9.83335 14C9.83335 13.724 9.60935 13.5 9.33335 13.5H7.83335V9.16667H10.5287C10.9294 9.16667 11.306 9.01071 11.5894 8.72738L13.492 6.82471C13.946 6.37004 13.946 5.62996 13.4914 5.17529ZM12.7847 6.118L10.882 8.02067C10.7874 8.11534 10.662 8.16732 10.5287 8.16732H3.89736C3.35069 8.16732 3.16669 7.98335 3.16669 7.43669V4.56462C3.16669 4.01795 3.35069 3.83398 3.89736 3.83398H10.5287C10.662 3.83398 10.788 3.88596 10.882 3.98063L12.7847 5.8833C12.8494 5.9473 12.8494 6.05267 12.7847 6.118Z" fill="#3B3B3E"/>
</svg>
