<svg width="16" height="16" viewBox="0 0 16 16" fill="none" xmlns="http://www.w3.org/2000/svg">
<path d="M7.25304 9.24636C7.12504 9.24636 6.99719 9.19769 6.89985 9.09969C5.79719 7.99636 5.66377 6.28769 6.58377 5.03636C6.6531 4.92902 6.76187 4.79769 6.8992 4.65969L9.13911 2.41903C9.73244 1.82569 10.5205 1.49902 11.3592 1.49902C12.1972 1.49902 12.9851 1.82569 13.5784 2.41836C14.8024 3.64302 14.8024 5.63436 13.5784 6.85903L12.3518 8.08569C12.1565 8.28103 11.8398 8.28103 11.6445 8.08569C11.4491 7.89036 11.4491 7.57369 11.6445 7.37836L12.871 6.15169C13.705 5.31769 13.705 3.95969 12.871 3.12502C12.0617 2.31635 10.6538 2.31702 9.84582 3.12502L7.60639 5.36503C7.51906 5.45303 7.45371 5.53103 7.40571 5.6037C6.76438 6.4777 6.85573 7.64037 7.60639 8.39103C7.80173 8.58637 7.80173 8.90304 7.60639 9.09837C7.50906 9.1977 7.38038 9.24636 7.25304 9.24636ZM4.64041 14.4997C3.80241 14.4997 3.01451 14.173 2.42117 13.5804C1.19717 12.3557 1.19717 10.3644 2.42117 9.13969L3.64774 7.91303C3.84307 7.71769 4.15976 7.71769 4.35509 7.91303C4.55043 8.10836 4.55043 8.42503 4.35509 8.62036L3.12853 9.84703C2.29453 10.681 2.29453 12.039 3.12853 12.8737C3.93786 13.6824 5.34576 13.6817 6.15376 12.8737L8.39318 10.6337C8.62385 10.403 8.79586 10.129 8.89253 9.8417C9.17653 9.05036 8.98385 8.19837 8.39318 7.60704C8.19785 7.4117 8.19785 7.09503 8.39318 6.8997C8.58918 6.70437 8.90571 6.70503 9.10037 6.8997C9.95437 7.75437 10.2439 9.03769 9.83719 10.169C9.69586 10.5924 9.43904 11.001 9.10037 11.3404L6.86111 13.5804C6.26711 14.173 5.47908 14.4997 4.64041 14.4997Z" fill="#3B3B3E"/>
</svg>
