<svg width="16" height="16" viewBox="0 0 16 16" fill="none" xmlns="http://www.w3.org/2000/svg">
<path d="M7.33331 11.5003H3.33331C2.28198 11.5003 1.83331 11.0517 1.83331 10.0003V6.50033H12.8333V6.66699C12.8333 6.94299 13.0573 7.16699 13.3333 7.16699C13.6093 7.16699 13.8333 6.94299 13.8333 6.66699V4.66699C13.8333 3.05499 12.9453 2.16699 11.3333 2.16699H3.33331C1.72131 2.16699 0.833313 3.05499 0.833313 4.66699V10.0003C0.833313 11.6123 1.72131 12.5003 3.33331 12.5003H7.33331C7.60931 12.5003 7.83331 12.2763 7.83331 12.0003C7.83331 11.7243 7.60931 11.5003 7.33331 11.5003ZM3.33331 3.16699H11.3333C12.3846 3.16699 12.8333 3.61566 12.8333 4.66699V5.50033H1.83331V4.66699C1.83331 3.61566 2.28198 3.16699 3.33331 3.16699ZM5.99998 8.83366C6.27598 8.83366 6.49998 9.05766 6.49998 9.33366C6.49998 9.60966 6.27598 9.83366 5.99998 9.83366H3.99998C3.72398 9.83366 3.49998 9.60966 3.49998 9.33366C3.49998 9.05766 3.72398 8.83366 3.99998 8.83366H5.99998ZM13.3333 11.3337C13.3333 11.6097 13.1093 11.8337 12.8333 11.8337H12.5V12.167C12.5 12.443 12.276 12.667 12 12.667C11.724 12.667 11.5 12.443 11.5 12.167V11.8337H11.1666C10.8906 11.8337 10.6666 11.6097 10.6666 11.3337C10.6666 11.0577 10.8906 10.8337 11.1666 10.8337H11.5V10.5003C11.5 10.2243 11.724 10.0003 12 10.0003C12.276 10.0003 12.5 10.2243 12.5 10.5003V10.8337H12.8333C13.1093 10.8337 13.3333 11.0577 13.3333 11.3337ZM12 8.16699C10.254 8.16699 8.83331 9.58766 8.83331 11.3337C8.83331 13.0797 10.254 14.5003 12 14.5003C13.746 14.5003 15.1666 13.0797 15.1666 11.3337C15.1666 9.58766 13.746 8.16699 12 8.16699ZM12 13.5003C10.8053 13.5003 9.83331 12.5283 9.83331 11.3337C9.83331 10.139 10.8053 9.16699 12 9.16699C13.1946 9.16699 14.1666 10.139 14.1666 11.3337C14.1666 12.5283 13.1946 13.5003 12 13.5003Z" fill="#3B3B3E"/>
</svg>
