<svg width="16" height="16" viewBox="0 0 16 16" fill="none" xmlns="http://www.w3.org/2000/svg">
<path d="M14.3534 5.02026C14.256 5.11759 14.128 5.16691 14 5.16691C13.872 5.16691 13.744 5.11826 13.6467 5.02026L11.8333 3.20695V11.3336C11.8333 11.6096 11.6093 11.8336 11.3333 11.8336C11.0573 11.8336 10.8333 11.6096 10.8333 11.3336V3.2076L9.02004 5.02091C8.8247 5.21624 8.50801 5.21624 8.31268 5.02091C8.11735 4.82558 8.11735 4.50889 8.31268 4.31355L10.9793 1.64689C11.0253 1.60089 11.0806 1.56431 11.1419 1.53898C11.2639 1.48831 11.4019 1.48831 11.5239 1.53898C11.5853 1.56431 11.6407 1.60089 11.6867 1.64689L14.3534 4.31355C14.5487 4.50889 14.5487 4.82493 14.3534 5.02026ZM6.98 10.9802L5.16668 12.7935V4.66691C5.16668 4.39091 4.94268 4.16691 4.66668 4.16691C4.39068 4.16691 4.16668 4.39091 4.16668 4.66691V12.7929L2.35337 10.9796C2.15804 10.7842 1.84135 10.7842 1.64601 10.9796C1.45068 11.1749 1.45068 11.4916 1.64601 11.6869L4.31268 14.3536C4.35868 14.3996 4.41396 14.4362 4.47463 14.4615C4.53529 14.4868 4.6007 14.5002 4.66603 14.5002C4.73136 14.5002 4.79594 14.4868 4.85727 14.4615C4.91861 14.4362 4.97338 14.3996 5.01938 14.3536L7.68605 11.6869C7.88138 11.4916 7.88138 11.1749 7.68605 10.9796C7.49072 10.7842 7.17533 10.7849 6.98 10.9802Z" fill="#3B3B3E"/>
</svg>
