<svg width="16" height="16" viewBox="0 0 16 16" fill="none" xmlns="http://www.w3.org/2000/svg">
<path d="M14.2754 5.81134L13.5621 3.31333C13.3074 2.422 13.0441 1.5 11.1588 1.5H4.84204C2.95671 1.5 2.69272 2.422 2.43872 3.31333L1.72542 5.81134C1.57609 6.33267 1.50073 6.872 1.50073 7.414V12C1.50073 13.612 2.38873 14.5 4.00073 14.5H12.0007C13.6127 14.5 14.5007 13.612 14.5007 12V7.41333C14.5001 6.87133 14.4247 6.33267 14.2754 5.81134ZM12.6007 3.58799L13.314 6.086C13.3214 6.11267 13.324 6.14067 13.3314 6.16734H8.50008V2.50067H11.1581C12.2901 2.5 12.3681 2.77399 12.6007 3.58799ZM3.39941 3.58799C3.63275 2.77399 3.71071 2.5 4.84204 2.5H7.50008V6.16667H2.66878C2.67612 6.14 2.67812 6.112 2.68612 6.086L3.39941 3.58799ZM13.5001 12C13.5001 13.0513 13.0514 13.5 12.0001 13.5H4.00008C2.94875 13.5 2.50008 13.0513 2.50008 12V7.41333C2.50008 7.33066 2.51275 7.24867 2.51742 7.16667H13.4827C13.4867 7.24933 13.5001 7.33066 13.5001 7.41333V12V12ZM9.0341 7.66667C9.03077 7.66667 9.02806 7.66667 9.02539 7.66667C8.58406 7.66667 8.24608 7.83734 8.00008 8.05868C7.75408 7.83668 7.41611 7.66667 6.97477 7.66667C6.97211 7.66667 6.9694 7.66667 6.96606 7.66667C6.40606 7.66933 5.93609 7.88266 5.60742 8.284C5.21942 8.75866 5.07739 9.44467 5.22005 10.1667C5.57005 11.942 7.70541 12.916 7.79541 12.9567C7.86074 12.986 7.93008 13 8.00008 13C8.07008 13 8.13942 12.9853 8.20475 12.9567C8.29542 12.916 10.43 11.942 10.7794 10.1667C10.922 9.44467 10.7814 8.75933 10.3934 8.28467C10.0654 7.88267 9.59543 7.66933 9.0341 7.66667ZM9.79875 9.97268C9.60075 10.9753 8.47008 11.684 8.00008 11.9393C7.53008 11.684 6.39942 10.9753 6.20142 9.97333C6.11808 9.55199 6.18608 9.15734 6.38208 8.91801C6.51941 8.75068 6.71209 8.668 6.97209 8.66734C6.97275 8.66734 6.97411 8.66734 6.97477 8.66734C7.36077 8.66734 7.51343 9.05134 7.52743 9.08934C7.59543 9.29 7.78344 9.42334 7.99544 9.42601C8.18144 9.43067 8.39875 9.29467 8.47209 9.09534C8.48809 9.05134 8.64077 8.66734 9.02677 8.66734C9.02744 8.66734 9.02871 8.66734 9.02938 8.66734C9.29005 8.66867 9.48345 8.75068 9.62012 8.91801C9.81478 9.15668 9.88141 9.55134 9.79875 9.97268Z" fill="#3B3B3E"/>
</svg>
