<svg width="16" height="16" viewBox="0 0 16 16" fill="none" xmlns="http://www.w3.org/2000/svg">
<path d="M13.9647 6.71029C13.622 6.35962 13.1613 6.16634 12.6667 6.16634H7.23861C6.66394 5.36234 5.728 4.83301 4.66667 4.83301C2.92067 4.83301 1.5 6.25367 1.5 7.99967C1.5 9.74567 2.92067 11.1663 4.66667 11.1663C5.728 11.1663 6.66394 10.637 7.23861 9.83301H12.6667C13.678 9.83301 14.5 9.01101 14.5 7.99967C14.5 7.50434 14.3067 7.04295 13.9647 6.71029ZM4.66667 10.1663C3.472 10.1663 2.5 9.19434 2.5 7.99967C2.5 6.80501 3.472 5.83301 4.66667 5.83301C5.86133 5.83301 6.83333 6.80501 6.83333 7.99967C6.83333 9.19434 5.86133 10.1663 4.66667 10.1663ZM12.6667 8.83301H7.70801C7.78134 8.56567 7.83333 8.29034 7.83333 7.99967C7.83333 7.70967 7.78134 7.43367 7.70801 7.16634H12.6667C12.89 7.16634 13.0966 7.25231 13.258 7.41764C13.414 7.56964 13.5 7.77634 13.5 7.99967C13.5 8.45901 13.126 8.83301 12.6667 8.83301Z" fill="#3B3B3E"/>
</svg>
