<svg width="16" height="16" viewBox="0 0 16 16" fill="none" xmlns="http://www.w3.org/2000/svg">
<path d="M8.00016 0.833008C4.04683 0.833008 0.833496 4.04634 0.833496 7.99967C0.833496 11.953 4.04683 15.1663 8.00016 15.1663C11.9535 15.1663 15.1668 11.953 15.1668 7.99967C15.1668 4.04634 11.9535 0.833008 8.00016 0.833008ZM8.00016 14.1663C4.60016 14.1663 1.8335 11.3997 1.8335 7.99967C1.8335 4.59967 4.60016 1.83301 8.00016 1.83301C11.4002 1.83301 14.1668 4.59967 14.1668 7.99967C14.1668 11.3997 11.4002 14.1663 8.00016 14.1663ZM11.8335 7.33301C11.8335 8.00634 11.4802 8.49967 11.0002 8.49967C10.5202 8.49967 10.1668 8.00634 10.1668 7.33301C10.1668 7.27301 10.1668 7.21967 10.1802 7.16634H9.3335C9.06016 7.16634 8.8335 6.93967 8.8335 6.66634C8.8335 6.39301 9.06016 6.16634 9.3335 6.16634H11.0002C11.4802 6.16634 11.8335 6.65967 11.8335 7.33301ZM5.51349 7.16634H4.66683C4.3935 7.16634 4.16683 6.93967 4.16683 6.66634C4.16683 6.39301 4.3935 6.16634 4.66683 6.16634H6.3335C6.8135 6.16634 7.16683 6.65967 7.16683 7.33301C7.16683 8.00634 6.8135 8.49967 6.3335 8.49967C5.8535 8.49967 5.50016 8.00634 5.50016 7.33301C5.50016 7.27301 5.50016 7.21967 5.51349 7.16634ZM10.2868 10.2663C10.5068 10.433 10.5535 10.7463 10.3868 10.9663C10.2202 11.1863 9.90683 11.233 9.68683 11.0663C8.70016 10.3197 7.26682 10.3263 6.28682 11.0663C6.19349 11.133 6.0935 11.1663 5.98684 11.1663C5.8335 11.1663 5.68683 11.0997 5.58683 10.9663C5.42017 10.7463 5.46683 10.433 5.68683 10.2663C7.01349 9.26634 8.94682 9.25967 10.2868 10.2663V10.2663Z" fill="#3B3B3E"/>
</svg>
