<svg width="16" height="16" viewBox="0 0 16 16" fill="none" xmlns="http://www.w3.org/2000/svg">
<path d="M14.5001 6.66634V9.33301C14.5001 9.60901 14.2761 9.83301 14.0001 9.83301H11.3302C11.0542 9.83301 10.8302 9.60901 10.8302 9.33301C10.8302 9.05701 11.0542 8.83301 11.3302 8.83301H12.8589C11.9102 7.01567 10.0114 5.83301 7.92005 5.83301C5.31738 5.83301 3.08345 7.59374 2.48678 10.1151C2.43278 10.3451 2.22745 10.4997 2.00078 10.4997C1.96211 10.4997 1.92407 10.4957 1.88473 10.4863C1.61607 10.4223 1.45014 10.1529 1.51348 9.88428C2.21748 6.91028 4.8514 4.83301 7.9194 4.83301C10.2147 4.83301 12.3161 6.03828 13.4995 7.93294V6.66634C13.4995 6.39034 13.7235 6.16634 13.9995 6.16634C14.2755 6.16634 14.5001 6.39034 14.5001 6.66634Z" fill="#3B3B3E"/>
</svg>
