<svg width="16" height="16" viewBox="0 0 16 16" fill="none" xmlns="http://www.w3.org/2000/svg">
<path d="M11.0346 14.5016C10.7286 14.5016 10.4207 14.4603 10.1167 14.3769C6.00666 13.2489 2.75265 9.99694 1.62398 5.88961C1.36732 4.95561 1.50795 3.98227 2.02128 3.15027C2.53661 2.31427 3.38399 1.72427 4.34599 1.53227C4.98599 1.40427 5.61865 1.68961 5.94332 2.23694L6.98531 3.99693C7.49131 4.8516 7.23989 5.95226 6.41256 6.50293L5.65865 7.00427C6.36332 8.45094 7.54855 9.63961 8.98922 10.3436L9.49735 9.58559C10.0514 8.75959 11.152 8.51227 12.006 9.02094L13.768 10.0716C14.3134 10.3969 14.5953 11.0336 14.4713 11.6549C14.2793 12.6169 13.6893 13.4643 12.854 13.9796C12.2926 14.3249 11.668 14.5016 11.0346 14.5016ZM4.65198 2.50027C4.61931 2.50027 4.58599 2.50361 4.55399 2.51028C3.85133 2.65094 3.24266 3.07426 2.87333 3.67493C2.50733 4.26826 2.40665 4.96094 2.58931 5.62427C3.62465 9.39294 6.61064 12.3776 10.3813 13.4123C11.0453 13.5943 11.7359 13.4929 12.3286 13.1276C12.9286 12.7576 13.3527 12.1483 13.4907 11.4576C13.532 11.2503 13.438 11.0376 13.2553 10.9289L11.4939 9.87826C11.0973 9.64226 10.5853 9.7576 10.3279 10.1409L9.58459 11.2509C9.45126 11.4496 9.19402 11.5256 8.97668 11.4336C7.00135 10.6076 5.39401 8.99693 4.56734 7.01426C4.47534 6.79293 4.55258 6.53827 4.75191 6.4056L5.85933 5.66893C6.24333 5.41359 6.35997 4.90226 6.12463 4.5056L5.08264 2.74626C4.99131 2.59159 4.82598 2.50027 4.65198 2.50027Z" fill="#3B3B3E"/>
</svg>
