<svg width="16" height="16" viewBox="0 0 16 16" fill="none" xmlns="http://www.w3.org/2000/svg">
<path d="M2 14.5C1.93533 14.5 1.87059 14.4873 1.80859 14.462C1.62193 14.3847 1.5 14.202 1.5 14V4C1.5 2.388 2.388 1.5 4 1.5H12C13.612 1.5 14.5 2.388 14.5 4V10C14.5 11.612 13.612 12.5 12 12.5H4.20736L2.354 14.3534C2.258 14.4494 2.13 14.5 2 14.5ZM4 2.5C2.94867 2.5 2.5 2.94867 2.5 4V12.7926L3.64665 11.646C3.74065 11.552 3.86733 11.4993 4 11.4993H12C13.0513 11.4993 13.5 11.0507 13.5 9.99935V3.99935C13.5 2.94802 13.0513 2.49935 12 2.49935H4V2.5ZM5.68669 8.42L7.22266 6.93197L8.06999 7.77799C8.26465 7.97266 8.52398 8.07935 8.79932 8.07935C8.79998 8.07935 8.79997 8.07935 8.79997 8.07935C9.07597 8.07935 9.33595 7.97136 9.52995 7.77669L11.02 6.2867C11.2154 6.09137 11.2154 5.77468 11.02 5.57935C10.8247 5.38401 10.508 5.38401 10.3127 5.57935L8.77539 7.06934L7.92806 6.22331C7.52539 5.82131 6.86995 5.82204 6.46729 6.22404L4.97933 7.712C4.784 7.90733 4.784 8.22402 4.97933 8.41935C5.07666 8.51669 5.20468 8.566 5.33268 8.566C5.46068 8.566 5.58935 8.518 5.68669 8.42Z" fill="#3B3B3E"/>
</svg>
