<svg width="16" height="16" viewBox="0 0 16 16" fill="none" xmlns="http://www.w3.org/2000/svg">
<path d="M14.3181 6.05619L9.37667 1.99223C8.57867 1.33756 7.42207 1.33689 6.62407 1.99223L1.68274 6.05554C1.47008 6.23087 1.43872 6.54556 1.61406 6.75956C1.78939 6.97356 2.10474 7.00291 2.31808 6.82825L2.83338 6.40425V11.9995C2.83338 13.6115 3.72138 14.4996 5.33338 14.4996H10.6667C12.2787 14.4996 13.1667 13.6115 13.1667 11.9995V6.40425L13.682 6.82825C13.7753 6.90491 13.888 6.94218 14 6.94218C14.144 6.94218 14.2874 6.88021 14.386 6.76021C14.562 6.54621 14.5307 6.23152 14.3181 6.05619ZM12.1667 11.9995C12.1667 13.0509 11.718 13.4996 10.6667 13.4996H5.33338C4.28204 13.4996 3.83338 13.0509 3.83338 11.9995V5.58223L7.2594 2.76558C7.68807 2.41292 8.31275 2.41292 8.74142 2.76558L12.1674 5.58288V11.9995H12.1667ZM8.50004 6.46285C9.11004 6.59751 9.58535 7.10823 9.65735 7.75956C9.68802 8.03423 9.49004 8.28156 9.21538 8.31156C8.94871 8.34023 8.69469 8.14425 8.66402 7.86959C8.63602 7.61625 8.42939 7.42558 8.18339 7.42558H7.81604C7.55004 7.42558 7.33273 7.64886 7.33273 7.92419C7.33273 8.03753 7.36871 8.14618 7.43404 8.23018C7.50338 8.32085 7.59474 8.38156 7.70008 8.40889L8.54472 8.62162C9.20539 8.79162 9.66606 9.38891 9.66606 10.0749C9.66606 10.4729 9.51271 10.8482 9.23271 11.1309C9.02938 11.3382 8.77539 11.4762 8.49939 11.5368V11.6656C8.49939 11.9416 8.27539 12.1656 7.99939 12.1656C7.72339 12.1656 7.49939 11.9416 7.49939 11.6656V11.5355C6.88939 11.4009 6.414 10.8901 6.342 10.2388C6.31134 9.96414 6.50939 9.71689 6.78406 9.68689C7.05139 9.65822 7.30474 9.85428 7.33541 10.1289C7.36341 10.3823 7.57004 10.573 7.81604 10.573H8.18339C8.30939 10.573 8.42938 10.5216 8.52071 10.4289C8.61538 10.3329 8.66671 10.2076 8.66671 10.0743C8.66671 9.84492 8.51471 9.64556 8.29871 9.58956L7.45406 9.37683C7.13206 9.2935 6.84404 9.10354 6.6427 8.84021C6.44337 8.58487 6.33273 8.25754 6.33273 7.92354C6.33273 7.20687 6.83339 6.60823 7.49939 6.46089V6.33223C7.49939 6.05623 7.72339 5.83223 7.99939 5.83223C8.27539 5.83223 8.49939 6.05623 8.49939 6.33223V6.46285H8.50004Z" fill="#3B3B3E"/>
</svg>
