<svg width="16" height="16" viewBox="0 0 16 16" fill="none" xmlns="http://www.w3.org/2000/svg">
<path d="M11.02 10.9802C11.2154 11.1756 11.2154 11.4922 11.02 11.6876L8.35337 14.3542C8.30737 14.4002 8.25209 14.437 8.19142 14.4623C8.13076 14.4876 8.06535 14.5009 8.00002 14.5009C7.93468 14.5009 7.86994 14.4876 7.80861 14.4623C7.74728 14.437 7.69266 14.4002 7.64666 14.3542L4.98 11.6876C4.78466 11.4922 4.78466 11.1756 4.98 10.9802C5.17533 10.7849 5.49202 10.7849 5.68735 10.9802L7.50067 12.7935V3.2076L5.68735 5.02091C5.49202 5.21624 5.17533 5.21624 4.98 5.02091C4.78466 4.82558 4.78466 4.50889 4.98 4.31355L7.64666 1.64689C7.69266 1.60089 7.74809 1.56431 7.80942 1.53898C7.93142 1.48831 8.06942 1.48831 8.19142 1.53898C8.25276 1.56431 8.30802 1.60089 8.35402 1.64689L11.0207 4.31355C11.216 4.50889 11.216 4.82558 11.0207 5.02091C10.9234 5.11824 10.7953 5.16756 10.6673 5.16756C10.5393 5.16756 10.4113 5.11891 10.314 5.02091L8.50067 3.2076V12.7935L10.314 10.9802C10.5086 10.7849 10.8247 10.7849 11.02 10.9802Z" fill="#3B3B3E"/>
</svg>
