<svg width="16" height="16" viewBox="0 0 16 16" fill="none" xmlns="http://www.w3.org/2000/svg">
<path d="M8.50074 13.999C8.50074 14.275 8.27674 14.499 8.00074 14.499C7.06741 14.499 6.12811 14.2917 5.28411 13.899C5.11878 13.8203 4.91278 13.8143 4.70078 13.8823L3.04143 14.4397C2.91877 14.4803 2.79402 14.5003 2.67002 14.5003C2.36535 14.5003 2.06947 14.3803 1.84547 14.1563C1.52947 13.841 1.4208 13.383 1.5608 12.9617L2.12135 11.2943C2.18668 11.0896 2.18076 10.8843 2.1041 10.7223C1.70943 9.87366 1.5027 8.93366 1.5027 8.00033C1.5027 4.41699 4.41806 1.50098 8.0014 1.50098C11.5854 1.50098 14.5007 4.41633 14.5007 8.00033C14.5007 8.24766 14.4868 8.48701 14.4575 8.72701C14.4241 9.00101 14.1781 9.19434 13.9008 9.163C13.6268 9.12967 13.4314 8.88032 13.4654 8.60632C13.4894 8.40632 13.5014 8.20633 13.5014 8.00033C13.5014 4.96833 11.0347 2.50098 8.00205 2.50098C4.97005 2.50098 2.50335 4.96766 2.50335 8.00033C2.50335 8.78899 2.67869 9.58297 3.01002 10.2963C3.19402 10.6836 3.21817 11.1496 3.0735 11.605L2.51084 13.279C2.48284 13.3623 2.52548 13.4217 2.55348 13.4497C2.58148 13.4777 2.64137 13.5203 2.7247 13.4923L4.39007 12.933C4.85273 12.7857 5.32004 12.8083 5.71071 12.9956C6.41937 13.325 7.21338 13.5003 8.00205 13.5003C8.27671 13.499 8.50074 13.7223 8.50074 13.999ZM13.6467 11.4243L11.7781 13.293L11.0201 12.5356C10.8248 12.3403 10.5081 12.3403 10.3128 12.5356C10.1174 12.731 10.1174 13.0477 10.3128 13.243L11.4241 14.3543C11.5214 14.4517 11.6494 14.501 11.7774 14.501C11.9054 14.501 12.0335 14.4523 12.1308 14.3543L14.3528 12.1323C14.5481 11.937 14.5481 11.6203 14.3528 11.425C14.1581 11.2297 13.8421 11.2297 13.6467 11.4243ZM8.01344 7.33366H8.00677C7.63877 7.33366 7.34336 7.63233 7.34336 8.00033C7.34336 8.36833 7.64544 8.66699 8.01344 8.66699C8.38211 8.66699 8.68011 8.36833 8.68011 8.00033C8.68011 7.63233 8.38144 7.33366 8.01344 7.33366ZM10.6801 8.66699C11.0488 8.66699 11.3468 8.36833 11.3468 8.00033C11.3468 7.63233 11.0488 7.33366 10.6801 7.33366H10.6734C10.3054 7.33366 10.01 7.63233 10.01 8.00033C10.01 8.36833 10.3121 8.66699 10.6801 8.66699ZM5.3401 7.33366C4.9721 7.33366 4.67669 7.63233 4.67669 8.00033C4.67669 8.36833 4.97877 8.66699 5.34677 8.66699C5.71544 8.66699 6.01344 8.36833 6.01344 8.00033C6.01344 7.63233 5.71544 7.33366 5.34677 7.33366H5.3401Z" fill="#3B3B3E"/>
</svg>
