<svg width="16" height="16" viewBox="0 0 16 16" fill="none" xmlns="http://www.w3.org/2000/svg">
<path d="M10.9668 8.933C11.1868 9.09967 11.2268 9.41301 11.0602 9.63301C10.8935 9.85301 10.7002 10.053 10.4935 10.233V11.9997C10.4935 12.273 10.2668 12.4997 9.99349 12.4997C9.72016 12.4997 9.49349 12.273 9.49349 11.9997V10.853C9.38682 10.8997 9.27349 10.9397 9.16016 10.9797V11.333C9.16016 11.6063 8.93349 11.833 8.66016 11.833C8.38682 11.833 8.16016 11.6063 8.16016 11.333V11.1597C8.10682 11.1597 8.04682 11.1663 7.99349 11.1663C6.80016 11.1663 5.65351 10.593 4.93351 9.63301C4.76685 9.41301 4.81349 9.09967 5.03349 8.933C5.26015 8.76634 5.56681 8.81301 5.73348 9.03301C6.26681 9.73968 7.11349 10.1663 7.99349 10.1663C8.87349 10.1663 9.71351 9.75301 10.2602 9.03301C10.4268 8.81301 10.7402 8.77301 10.9602 8.93968L10.9668 8.933ZM15.1668 7.99967C15.1668 11.953 11.9535 15.1663 8.00016 15.1663C4.04683 15.1663 0.833496 11.953 0.833496 7.99967C0.833496 4.04634 4.04683 0.833008 8.00016 0.833008C11.9535 0.833008 15.1668 4.04634 15.1668 7.99967ZM14.1668 7.99967C14.1668 4.59967 11.4002 1.83301 8.00016 1.83301C4.60016 1.83301 1.8335 4.59967 1.8335 7.99967C1.8335 11.3997 4.60016 14.1663 8.00016 14.1663C11.4002 14.1663 14.1668 11.3997 14.1668 7.99967ZM10.2735 5.49967C9.63348 5.49967 9.06681 5.89967 8.86015 6.50634C8.77348 6.76634 8.90683 7.05301 9.16683 7.13968C9.42683 7.23301 9.7135 7.09301 9.80017 6.83301C9.86684 6.63967 10.0602 6.50634 10.2668 6.50634C10.4735 6.50634 10.6668 6.63967 10.7335 6.83301C10.8068 7.03967 11.0002 7.173 11.2068 7.173C11.2602 7.173 11.3135 7.16634 11.3735 7.14634C11.6335 7.05301 11.7735 6.77301 11.6802 6.51301C11.4735 5.91301 10.9068 5.50634 10.2668 5.50634L10.2735 5.49967ZM5.26017 6.82634C5.32684 6.63301 5.52018 6.49967 5.72685 6.49967C5.93351 6.49967 6.12681 6.63301 6.19348 6.82634C6.26681 7.03301 6.46016 7.16634 6.66683 7.16634C6.72016 7.16634 6.7735 7.15968 6.8335 7.13968C7.0935 7.04635 7.23351 6.76634 7.14018 6.50634C6.93351 5.90634 6.36685 5.49967 5.72685 5.49967C5.08685 5.49967 4.52014 5.89967 4.31348 6.50634C4.22681 6.76634 4.36016 7.05301 4.62016 7.13968C4.88016 7.23301 5.16683 7.09301 5.2535 6.83301L5.26017 6.82634Z" fill="#3B3B3E"/>
</svg>
