<svg width="16" height="16" viewBox="0 0 16 16" fill="none" xmlns="http://www.w3.org/2000/svg">
<path d="M8.23206 1.6524C7.65539 1.38507 6.99602 1.47365 6.51135 1.88499L4.05074 3.96979C3.90007 4.09712 3.70869 4.16705 3.51135 4.16705H2.33337C1.50671 4.16705 0.833374 4.83972 0.833374 5.66705V10.3331C0.833374 11.1604 1.50671 11.8331 2.33337 11.8331H3.51135C3.70869 11.8331 3.90001 11.903 4.05001 12.0303L6.5107 14.1151C6.81003 14.3691 7.17669 14.5004 7.54936 14.5004C7.78002 14.5004 8.01206 14.4504 8.23206 14.3477C8.80872 14.0804 9.16671 13.5197 9.16671 12.8837V3.11513C9.16671 2.48046 8.80872 1.91907 8.23206 1.6524ZM8.16671 12.885C8.16671 13.1303 8.03407 13.3385 7.8114 13.4418C7.58807 13.5458 7.34401 13.5111 7.15735 13.3531L4.69674 11.2685C4.36607 10.9885 3.94534 10.8337 3.512 10.8337H2.33402C2.05869 10.8337 1.83403 10.6097 1.83403 10.3337V5.6677C1.83403 5.3917 2.05869 5.1677 2.33402 5.1677H3.512C3.94534 5.1677 4.36607 5.0138 4.69674 4.73313L7.15808 2.64833C7.34408 2.48967 7.58873 2.45646 7.8114 2.55979C8.03407 2.66312 8.16671 2.8711 8.16671 3.11643V12.885ZM15.1667 8.00038C15.1667 8.27638 14.9427 8.50038 14.6667 8.50038H13.5V9.66705C13.5 9.94305 13.276 10.1671 13 10.1671C12.724 10.1671 12.5 9.94305 12.5 9.66705V8.50038H11.3334C11.0574 8.50038 10.8334 8.27638 10.8334 8.00038C10.8334 7.72438 11.0574 7.50038 11.3334 7.50038H12.5V6.33372C12.5 6.05772 12.724 5.83372 13 5.83372C13.276 5.83372 13.5 6.05772 13.5 6.33372V7.50038H14.6667C14.9427 7.50038 15.1667 7.72438 15.1667 8.00038Z" fill="#3B3B3E"/>
</svg>
