<svg width="16" height="16" viewBox="0 0 16 16" fill="none" xmlns="http://www.w3.org/2000/svg">
<path d="M7.83325 12.667C7.83325 12.943 7.60925 13.167 7.33325 13.167H3.33325C1.72125 13.167 0.833252 12.279 0.833252 10.667V4.66699C0.833252 3.05499 1.72125 2.16699 3.33325 2.16699H11.3333C12.9453 2.16699 13.8333 3.05499 13.8333 4.66699V6.66699C13.8333 6.94299 13.6093 7.16699 13.3333 7.16699C13.0573 7.16699 12.8333 6.94299 12.8333 6.66699V4.66699C12.8333 3.61566 12.3846 3.16699 11.3333 3.16699H3.33325C2.28192 3.16699 1.83325 3.61566 1.83325 4.66699V10.667C1.83325 11.7183 2.28192 12.167 3.33325 12.167H7.33325C7.60925 12.167 7.83325 12.391 7.83325 12.667ZM11.4039 5.03966C11.2419 4.817 10.93 4.76632 10.7053 4.92966L7.43058 7.31099C7.37192 7.35299 7.29394 7.35299 7.23527 7.31099L3.96053 4.92966C3.7352 4.76632 3.42396 4.81766 3.26196 5.03966C3.0993 5.263 3.14866 5.57632 3.37199 5.73832L6.64657 8.11966C6.8519 8.26899 7.0926 8.34366 7.3326 8.34366C7.5726 8.34366 7.81397 8.26899 8.01864 8.11966L11.2932 5.73832C11.5172 5.57566 11.5672 5.263 11.4039 5.03966ZM15.1666 9.92166C15.1659 10.2137 15.052 10.4883 14.8453 10.6943L11.1679 14.3543C11.0739 14.4477 10.9472 14.5003 10.8152 14.5003H9.33325C9.05725 14.5003 8.83325 14.2763 8.83325 14.0003V12.519C8.83325 12.387 8.88525 12.2597 8.97925 12.1663L12.6399 8.48832C12.8459 8.28099 13.1205 8.16699 13.4125 8.16699C13.4125 8.16699 13.4133 8.16699 13.414 8.16699C13.706 8.16699 13.98 8.28032 14.186 8.48699L14.8459 9.14765C15.0533 9.35432 15.1666 9.62899 15.1666 9.92166ZM13.3479 9.19433L12.9259 9.61833L13.7152 10.4077L14.1392 9.98566C14.1619 9.96366 14.1666 9.93833 14.1666 9.92033C14.1666 9.90233 14.1619 9.877 14.1392 9.85433L13.4792 9.19365C13.4572 9.17099 13.432 9.16632 13.414 9.16632C13.396 9.16632 13.3712 9.17166 13.3479 9.19433ZM13.0066 11.113L12.2206 10.327L9.83325 12.7257V13.501H10.6086L13.0066 11.113Z" fill="#3B3B3E"/>
</svg>
