<svg width="16" height="16" viewBox="0 0 16 16" fill="none" xmlns="http://www.w3.org/2000/svg">
<path d="M14.4613 11.5243C14.436 11.5856 14.3994 11.6409 14.3534 11.6869L13.02 13.0202C12.9227 13.1175 12.7947 13.1668 12.6667 13.1668C12.5387 13.1668 12.4106 13.1182 12.3133 13.0202C12.118 12.8249 12.118 12.5082 12.3133 12.3128L12.7933 11.8329H11.628C10.864 11.8329 10.1534 11.4909 9.67603 10.8942L5.54329 5.72886C5.25729 5.37086 4.83064 5.16554 4.37264 5.16554H2C1.724 5.16554 1.5 4.94154 1.5 4.66554C1.5 4.38954 1.724 4.16554 2 4.16554H4.37264C5.13664 4.16554 5.84737 4.50752 6.32471 5.10418L10.4574 10.2695C10.7434 10.6275 11.17 10.8329 11.628 10.8329H12.7933L12.3133 10.3529C12.118 10.1575 12.118 9.84086 12.3133 9.64552C12.5086 9.45019 12.8253 9.45019 13.0207 9.64552L14.354 10.9789C14.4 11.0249 14.4367 11.0801 14.462 11.1415C14.512 11.2641 14.512 11.4016 14.4613 11.5243ZM9.33333 6.83286C9.48 6.83286 9.62537 6.76886 9.72404 6.64552L10.4574 5.72886C10.7434 5.37086 11.17 5.16619 11.628 5.16619H12.7933L12.3133 5.64617C12.118 5.84151 12.118 6.1582 12.3133 6.35353C12.4106 6.45086 12.5387 6.50018 12.6667 6.50018C12.7947 6.50018 12.9227 6.45153 13.02 6.35353L14.3534 5.0202C14.3994 4.9742 14.436 4.91893 14.4613 4.8576C14.512 4.7356 14.512 4.5976 14.4613 4.4756C14.436 4.41427 14.3994 4.35884 14.3534 4.31284L13.02 2.97951C12.8247 2.78417 12.508 2.78417 12.3127 2.97951C12.1173 3.17484 12.1173 3.49153 12.3127 3.68686L12.7926 4.16685H11.6274C10.8634 4.16685 10.1526 4.50883 9.67529 5.10483L8.94198 6.02085C8.76931 6.23685 8.80469 6.55082 9.02002 6.72349C9.11335 6.79682 9.22333 6.83286 9.33333 6.83286ZM6.27596 9.35353L5.54264 10.2702C5.25664 10.6282 4.82999 10.8329 4.37199 10.8329H2C1.724 10.8329 1.5 11.0569 1.5 11.3329C1.5 11.6089 1.724 11.8329 2 11.8329H4.37264C5.13664 11.8329 5.84737 11.4909 6.32471 10.8949L7.05802 9.97886C7.23069 9.76286 7.19531 9.44889 6.97998 9.27622C6.76398 9.10422 6.44996 9.1382 6.27596 9.35353Z" fill="#3B3B3E"/>
</svg>
