<svg width="16" height="16" viewBox="0 0 16 16" fill="none" xmlns="http://www.w3.org/2000/svg">
<path d="M5.16659 2C5.16659 1.724 5.39059 1.5 5.66659 1.5H9.66658C9.94258 1.5 10.1666 1.724 10.1666 2C10.1666 2.276 9.94258 2.5 9.66658 2.5H5.66659C5.39059 2.5 5.16659 2.276 5.16659 2ZM13.1666 8C13.1666 8.276 12.9426 8.5 12.6666 8.5H12.4739C12.2232 10.9307 10.1633 12.8333 7.66658 12.8333C5.00125 12.8333 2.83325 10.6653 2.83325 8C2.83325 5.33467 5.00125 3.16667 7.66658 3.16667C10.1633 3.16667 12.2225 5.06933 12.4739 7.5H12.6666C12.9426 7.5 13.1666 7.724 13.1666 8ZM11.4999 8C11.4999 5.88667 9.78058 4.16667 7.66658 4.16667C5.55259 4.16667 3.83325 5.88667 3.83325 8C3.83325 10.1133 5.55259 11.8333 7.66658 11.8333C9.78058 11.8333 11.4999 10.1133 11.4999 8ZM9.66658 13.5H5.66659C5.39059 13.5 5.16659 13.724 5.16659 14C5.16659 14.276 5.39059 14.5 5.66659 14.5H9.66658C9.94258 14.5 10.1666 14.276 10.1666 14C10.1666 13.724 9.94258 13.5 9.66658 13.5ZM8.16658 7.75V5.66667C8.16658 5.39067 7.94258 5.16667 7.66658 5.16667C7.39059 5.16667 7.16659 5.39067 7.16659 5.66667V8C7.16659 8.15733 7.24062 8.3054 7.36662 8.40007L8.69995 9.40007C8.78995 9.4674 8.89527 9.5 8.99927 9.5C9.15193 9.5 9.30198 9.43063 9.39998 9.29997C9.56598 9.07863 9.5212 8.76527 9.30054 8.59994L8.16658 7.75Z" fill="#3B3B3E"/>
</svg>
