<svg width="16" height="16" viewBox="0 0 16 16" fill="none" xmlns="http://www.w3.org/2000/svg">
<path d="M13.6868 4.98L10.3534 1.64667C10.2594 1.55267 10.1327 1.5 10.0001 1.5H6.93335C5.59868 1.5 4.83341 2.26533 4.83341 3.6V4.16667H4.26668C2.93202 4.16667 2.16675 4.932 2.16675 6.26666V13.0667C2.16675 14.4007 2.93202 15.1667 4.26668 15.1667H9.06616C10.4008 15.1667 11.1661 14.4013 11.1661 13.0667V12.5H11.7328C13.0675 12.5 13.8328 11.7347 13.8328 10.4V5.33333C13.8334 5.20067 13.7808 5.07333 13.6868 4.98ZM10.5001 3.20734L12.1261 4.83333H11.6667C10.8267 4.83333 10.5001 4.506 10.5001 3.66667V3.20734ZM10.1667 13.0667C10.1667 13.858 9.85815 14.1667 9.06681 14.1667H4.26733C3.47533 14.1667 3.1674 13.858 3.1674 13.0667V6.26666C3.1674 5.47533 3.476 5.16667 4.26733 5.16667H4.83407V10.4C4.83407 11.734 5.59933 12.5 6.934 12.5H10.1674V13.0667H10.1667ZM11.7335 11.5H6.934C6.142 11.5 5.83407 11.1913 5.83407 10.4V3.6C5.83407 2.80866 6.14267 2.5 6.934 2.5H9.50073V3.66667C9.50073 5.064 10.2701 5.83333 11.6674 5.83333H12.8341V10.4C12.8334 11.1913 12.5248 11.5 11.7335 11.5Z" fill="#3B3B3E"/>
</svg>
