<svg width="16" height="16" viewBox="0 0 16 16" fill="none" xmlns="http://www.w3.org/2000/svg">
<path d="M11.732 5.30868L12.3541 4.68669C12.5494 4.49135 12.5494 4.17466 12.3541 3.97933C12.1588 3.784 11.8421 3.784 11.6467 3.97933L10.9947 4.63135C10.0694 3.92468 8.91808 3.5 7.66675 3.5C4.63408 3.5 2.16675 5.96733 2.16675 9C2.16675 12.0327 4.63408 14.5 7.66675 14.5C10.6994 14.5 13.1667 12.0327 13.1667 9C13.1667 7.57867 12.62 6.28601 11.732 5.30868ZM7.66675 13.5C5.18541 13.5 3.16675 11.4813 3.16675 9C3.16675 6.51867 5.18541 4.5 7.66675 4.5C10.1481 4.5 12.1667 6.51867 12.1667 9C12.1667 11.4813 10.1481 13.5 7.66675 13.5ZM5.50008 2C5.50008 1.724 5.72408 1.5 6.00008 1.5H9.33341C9.60941 1.5 9.83341 1.724 9.83341 2C9.83341 2.276 9.60941 2.5 9.33341 2.5H6.00008C5.72408 2.5 5.50008 2.276 5.50008 2ZM9.68677 7.53532C9.8821 7.73065 9.8821 8.04734 9.68677 8.24268L7.46476 10.4647C7.36743 10.562 7.23941 10.6113 7.11141 10.6113C6.98341 10.6113 6.85539 10.5627 6.75806 10.4647L5.64673 9.35335C5.4514 9.15869 5.4514 8.84133 5.64673 8.646C5.84206 8.45066 6.15875 8.45066 6.35409 8.646L7.11206 9.40332L8.98071 7.53467C9.17538 7.34 9.49143 7.33999 9.68677 7.53532Z" fill="#3B3B3E"/>
</svg>
