<svg width="16" height="16" viewBox="0 0 16 16" fill="none" xmlns="http://www.w3.org/2000/svg">
<g clip-path="url(#clip0_36251_9053)">
<path d="M8.00016 0.833008C4.04683 0.833008 0.833496 4.04634 0.833496 7.99967C0.833496 11.953 4.04683 15.1663 8.00016 15.1663C11.9535 15.1663 15.1668 11.953 15.1668 7.99967C15.1668 4.04634 11.9535 0.833008 8.00016 0.833008ZM8.00016 14.1663C4.60016 14.1663 1.8335 11.3997 1.8335 7.99967C1.8335 4.59967 4.60016 1.83301 8.00016 1.83301C11.4002 1.83301 14.1668 4.59967 14.1668 7.99967C14.1668 11.3997 11.4002 14.1663 8.00016 14.1663ZM8.00016 4.16634C5.88683 4.16634 4.16683 5.88634 4.16683 7.99967C4.16683 10.113 5.88683 11.833 8.00016 11.833C10.1135 11.833 11.8335 10.113 11.8335 7.99967C11.8335 5.88634 10.1135 4.16634 8.00016 4.16634ZM8.00016 10.833C6.44016 10.833 5.16683 9.55967 5.16683 7.99967C5.16683 6.43967 6.44016 5.16634 8.00016 5.16634C9.56016 5.16634 10.8335 6.43967 10.8335 7.99967C10.8335 9.55967 9.56016 10.833 8.00016 10.833Z" fill="#3B3B3E"/>
</g>
<defs>
<clipPath id="clip0_36251_9053">
<rect width="16" height="16" fill="white"/>
</clipPath>
</defs>
</svg>
