<svg width="16" height="16" viewBox="0 0 16 16" fill="none" xmlns="http://www.w3.org/2000/svg">
<path d="M12.1707 8.87527L9.24996 5.41335C8.62863 4.67602 7.37129 4.67602 6.74996 5.41335L3.82922 8.87527C3.47656 9.29393 3.40064 9.86201 3.63131 10.358C3.86331 10.8567 4.34934 11.166 4.90068 11.166H11.0986C11.6499 11.166 12.1366 10.8567 12.368 10.358C12.5986 9.86201 12.5234 9.29393 12.1707 8.87527ZM11.4612 9.93598C11.4366 9.98998 11.3359 10.166 11.0986 10.166H4.90068C4.66334 10.166 4.56255 9.98998 4.53788 9.93598C4.50588 9.86798 4.44789 9.69198 4.59322 9.51931L7.51396 6.05723C7.63462 5.91457 7.81129 5.83262 7.99996 5.83262C8.18863 5.83262 8.3653 5.91457 8.48596 6.05723L11.4067 9.51931C11.5514 9.69198 11.4932 9.86864 11.4612 9.93598Z" fill="#3B3B3E"/>
</svg>
