<svg width="16" height="16" viewBox="0 0 16 16" fill="none" xmlns="http://www.w3.org/2000/svg">
<path d="M8.00016 0.833008C4.04816 0.833008 0.833496 4.04767 0.833496 7.99967C0.833496 11.9517 4.04816 15.1663 8.00016 15.1663C11.9522 15.1663 15.1668 11.9517 15.1668 7.99967C15.1668 4.04767 11.9522 0.833008 8.00016 0.833008ZM8.00016 14.1663C4.5995 14.1663 1.8335 11.4003 1.8335 7.99967C1.8335 4.59901 4.5995 1.83301 8.00016 1.83301C11.4008 1.83301 14.1668 4.59901 14.1668 7.99967C14.1668 11.4003 11.4008 14.1663 8.00016 14.1663ZM10.2368 4.24772L7.00149 5.507C6.33283 5.76767 5.79883 6.29897 5.53616 6.96631L4.25016 10.2316C4.0755 10.6743 4.1775 11.157 4.5155 11.4923C4.7415 11.7157 5.03216 11.8337 5.33216 11.8337C5.48083 11.8337 5.6315 11.8049 5.7775 11.7456L9.03016 10.429C9.67883 10.1664 10.1988 9.64362 10.4588 8.99495L11.7482 5.77295C11.9242 5.33295 11.8262 4.85099 11.4935 4.51432C11.1595 4.17832 10.6795 4.07505 10.2368 4.24772ZM10.8195 5.40169L9.53016 8.62435C9.37149 9.02168 9.05216 9.34228 8.6555 9.50228L5.40283 10.819C5.31017 10.8563 5.24883 10.8117 5.2195 10.7824C5.1895 10.7531 5.14483 10.6896 5.18083 10.599L6.46683 7.33301C6.62816 6.92434 6.95483 6.59831 7.36483 6.43831L10.6002 5.17969C10.6922 5.14302 10.7535 5.18893 10.7828 5.21826C10.8122 5.24759 10.8555 5.31103 10.8195 5.40169ZM8.61349 7.74642C8.64683 7.82642 8.66683 7.91301 8.66683 7.99967C8.66683 8.17301 8.5935 8.34631 8.4735 8.47298C8.34683 8.59298 8.1735 8.66634 8.00016 8.66634C7.82683 8.66634 7.65349 8.59298 7.52682 8.47298C7.50016 8.43965 7.47349 8.40638 7.44683 8.37305C7.42016 8.33305 7.40016 8.29293 7.38683 8.25293C7.36683 8.21293 7.3535 8.17297 7.34683 8.13297C7.34017 8.08631 7.3335 8.03967 7.3335 7.99967C7.3335 7.82634 7.40682 7.65303 7.52682 7.52637C7.71349 7.34637 8.00683 7.27973 8.2535 7.38639C8.3335 7.41973 8.40683 7.46637 8.4735 7.52637C8.5335 7.59303 8.58016 7.66642 8.61349 7.74642Z" fill="#3B3B3E"/>
</svg>
