<svg width="16" height="16" viewBox="0 0 16 16" fill="none" xmlns="http://www.w3.org/2000/svg">
<path d="M11.3334 1.5H4.66675C3.05475 1.5 2.16675 2.388 2.16675 4V12C2.16675 13.612 3.05475 14.5 4.66675 14.5H11.3334C12.9454 14.5 13.8334 13.612 13.8334 12V4C13.8334 2.388 12.9454 1.5 11.3334 1.5ZM12.8334 12C12.8334 13.0513 12.3847 13.5 11.3334 13.5H4.66675C3.61541 13.5 3.16675 13.0513 3.16675 12V4C3.16675 2.94867 3.61541 2.5 4.66675 2.5H11.3334C12.3847 2.5 12.8334 2.94867 12.8334 4V12ZM10.0001 3.5H6.00008C5.06075 3.5 4.50008 4.06067 4.50008 5V5.66667C4.50008 6.606 5.06075 7.16667 6.00008 7.16667H10.0001C10.9394 7.16667 11.5001 6.606 11.5001 5.66667V5C11.5001 4.06067 10.9394 3.5 10.0001 3.5ZM10.5001 5.66667C10.5001 6.05933 10.3927 6.16667 10.0001 6.16667H6.00008C5.60741 6.16667 5.50008 6.05933 5.50008 5.66667V5C5.50008 4.60733 5.60741 4.5 6.00008 4.5H10.0001C10.3927 4.5 10.5001 4.60733 10.5001 5V5.66667ZM11.3334 9.33333C11.3334 9.70133 11.0347 10 10.6667 10C10.2987 10 10.0001 9.70133 10.0001 9.33333C10.0001 8.96533 10.2987 8.66667 10.6667 8.66667C11.0347 8.66667 11.3334 8.96533 11.3334 9.33333ZM8.66675 9.33333C8.66675 9.70133 8.36808 10 8.00008 10C7.63208 10 7.33341 9.70133 7.33341 9.33333C7.33341 8.96533 7.63208 8.66667 8.00008 8.66667C8.36808 8.66667 8.66675 8.96533 8.66675 9.33333ZM6.00008 9.33333C6.00008 9.70133 5.70141 10 5.33341 10C4.96541 10 4.66675 9.70133 4.66675 9.33333C4.66675 8.96533 4.96541 8.66667 5.33341 8.66667C5.70141 8.66667 6.00008 8.96533 6.00008 9.33333ZM11.3334 11.3333C11.3334 11.7013 11.0347 12 10.6667 12C10.2987 12 10.0001 11.7013 10.0001 11.3333C10.0001 10.9653 10.2987 10.6667 10.6667 10.6667C11.0347 10.6667 11.3334 10.9653 11.3334 11.3333ZM8.66675 11.3333C8.66675 11.7013 8.36808 12 8.00008 12C7.63208 12 7.33341 11.7013 7.33341 11.3333C7.33341 10.9653 7.63208 10.6667 8.00008 10.6667C8.36808 10.6667 8.66675 10.9653 8.66675 11.3333ZM6.00008 11.3333C6.00008 11.7013 5.70141 12 5.33341 12C4.96541 12 4.66675 11.7013 4.66675 11.3333C4.66675 10.9653 4.96541 10.6667 5.33341 10.6667C5.70141 10.6667 6.00008 10.9653 6.00008 11.3333Z" fill="#3B3B3E"/>
</svg>
