<svg width="16" height="16" viewBox="0 0 16 16" fill="none" xmlns="http://www.w3.org/2000/svg">
<path d="M8.00004 0.833008C4.04804 0.833008 0.833374 4.04767 0.833374 7.99967C0.833374 11.9517 4.04804 15.1663 8.00004 15.1663C11.952 15.1663 15.1667 11.9517 15.1667 7.99967C15.1667 4.04767 11.952 0.833008 8.00004 0.833008ZM8.00004 14.1663C4.59937 14.1663 1.83337 11.4003 1.83337 7.99967C1.83337 4.59901 4.59937 1.83301 8.00004 1.83301C11.4007 1.83301 14.1667 4.59901 14.1667 7.99967C14.1667 11.4003 11.4007 14.1663 8.00004 14.1663ZM10.6667 4.66634H6.65401C5.66801 4.66634 5.36202 5.17765 5.17802 5.72965L4.47408 7.84102C4.28541 8.40902 4.33206 8.931 4.60673 9.31234C4.79606 9.57567 5.18274 9.88835 5.95007 9.88835H6.82475V10.527C6.82475 11.0484 7.08404 11.5323 7.51737 11.821C7.69471 11.939 7.89739 11.9997 8.10339 11.9997C8.21273 11.9997 8.32274 11.9823 8.4294 11.9477C8.73874 11.8483 8.98134 11.6163 9.10201 11.293L9.7974 9.18433H10.6667C11.234 9.18433 11.6947 8.72366 11.6947 8.15633V5.69299C11.6947 5.12699 11.234 4.66634 10.6667 4.66634ZM8.96073 8.52836L8.15271 10.9803L8.07206 10.9897C7.9174 10.8863 7.82475 10.7137 7.82475 10.5277V9.389C7.82475 9.113 7.60075 8.889 7.32475 8.889H5.95007C5.68207 8.889 5.49268 8.83235 5.41801 8.72835C5.34001 8.61969 5.34205 8.40166 5.42338 8.15832L6.1274 6.04635C6.23407 5.72501 6.25268 5.66699 6.65401 5.66699L9.1947 5.68433V8.25366C9.08737 8.31299 9.00073 8.40636 8.96073 8.52836ZM10.6947 8.15702L10.1947 8.16833V5.69035L10.6947 5.69368V8.15702Z" fill="#3B3B3E"/>
</svg>
