<svg width="16" height="16" viewBox="0 0 16 16" fill="none" xmlns="http://www.w3.org/2000/svg">
<path d="M14.3532 1.64673C14.1579 1.4514 13.8412 1.4514 13.6459 1.64673L9.83258 5.46006V2.00006C9.83258 1.79273 9.70523 1.6074 9.5119 1.5334C9.31856 1.45873 9.09924 1.51206 8.96124 1.6654L2.96124 8.33206C2.82924 8.4794 2.7959 8.69006 2.87656 8.87006C2.95723 9.05006 3.13589 9.16673 3.33323 9.16673H6.12591L1.64589 13.6467C1.45056 13.8421 1.45056 14.1587 1.64589 14.3541C1.74322 14.4514 1.87124 14.5007 1.99924 14.5007C2.12724 14.5007 2.25522 14.4521 2.35255 14.3541L7.01922 9.6874L9.68589 7.02073L14.3526 2.35407C14.5486 2.15807 14.5486 1.84206 14.3532 1.64673ZM6.66656 8.16673H4.45591L8.83323 3.30272V6.45939L6.99591 8.29673C6.90791 8.21807 6.79389 8.16673 6.66656 8.16673ZM13.1232 7.13007C13.2039 7.31073 13.1699 7.52073 13.0385 7.66806L7.03855 14.3347C6.94188 14.4421 6.80589 14.5001 6.66656 14.5001C6.60656 14.5001 6.54591 14.4894 6.48724 14.4667C6.29391 14.3927 6.16656 14.2067 6.16656 14.0001V12.0001C6.16656 11.7241 6.39056 11.5001 6.66656 11.5001C6.94256 11.5001 7.16656 11.7241 7.16656 12.0001V12.6974L11.5439 7.83339H11.3332C11.0572 7.83339 10.8332 7.60939 10.8332 7.33339C10.8332 7.05739 11.0572 6.83339 11.3332 6.83339H12.6666C12.8639 6.83339 13.0426 6.9494 13.1232 7.13007Z" fill="#3B3B3E"/>
</svg>
