<svg width="16" height="16" viewBox="0 0 16 16" fill="none" xmlns="http://www.w3.org/2000/svg">
<path d="M12.5002 9.99953C12.5002 10.2989 12.4696 10.5915 12.4136 10.8742C13.5949 11.0729 14.5002 12.0955 14.5002 13.3329C14.5002 13.6089 14.2762 13.8329 14.0002 13.8329C13.7242 13.8329 13.5002 13.6089 13.5002 13.3329C13.5002 12.5402 12.8801 11.8955 12.1008 11.8428C11.3948 13.4068 9.82418 14.4995 8.00018 14.4995C6.99085 14.4995 6.00218 14.1556 5.21552 13.5309C4.99952 13.3589 4.96344 13.0448 5.13544 12.8281C5.30611 12.6128 5.62024 12.5756 5.83824 12.7476C6.3249 13.1349 6.89352 13.3722 7.50018 13.4582V10.6662C7.50018 10.3902 7.72418 10.1662 8.00018 10.1662C8.27618 10.1662 8.50018 10.3902 8.50018 10.6662V13.4489C10.1922 13.2036 11.5002 11.7582 11.5002 9.99953V6.66619C11.5002 6.39019 11.7242 6.16619 12.0002 6.16619C12.2762 6.16619 12.5002 6.39019 12.5002 6.66619V8.16619H14.0002C14.2762 8.16619 14.5002 8.39019 14.5002 8.66619C14.5002 8.94219 14.2762 9.16619 14.0002 9.16619H12.5002V9.99953ZM14.3535 2.35288L2.35354 14.3529C2.2562 14.4502 2.12818 14.4995 2.00018 14.4995C1.87218 14.4995 1.74417 14.4509 1.64683 14.3529C1.4515 14.1575 1.4515 13.8409 1.64683 13.6455L3.76955 11.5228C3.59422 11.0361 3.50018 10.5262 3.50018 9.99888V9.16554H2.00018C1.72418 9.16554 1.50018 8.94154 1.50018 8.66554C1.50018 8.38954 1.72418 8.16554 2.00018 8.16554H3.50018V6.66619C3.50018 6.58019 3.51277 6.5042 3.51744 6.42287C2.69077 6.2222 2.00747 5.61678 1.73814 4.78745L1.52623 4.15952C1.43823 3.89752 1.57884 3.61424 1.84084 3.52557C2.10284 3.4389 2.38614 3.57887 2.47414 3.83953L2.68752 4.47283C2.84752 4.9655 3.25084 5.31547 3.73684 5.43947C4.04017 4.74347 4.6362 4.31683 5.49953 4.20216V3.99953C5.49953 2.62086 6.62153 1.49953 7.99953 1.49953C9.37753 1.49953 10.4995 2.62086 10.4995 3.99953V4.21291C10.6695 4.23557 10.8261 4.27091 10.9748 4.31691L13.6462 1.64552C13.8415 1.45019 14.1582 1.45019 14.3535 1.64552C14.5489 1.84086 14.5489 2.15755 14.3535 2.35288ZM6.50018 4.16619H9.50018V3.99953C9.50018 3.17219 8.82685 2.49953 8.00018 2.49953C7.17352 2.49953 6.50018 3.17219 6.50018 3.99953V4.16619ZM4.57489 10.7181L10.1169 5.17612C10.0756 5.17479 10.0435 5.16619 10.0002 5.16619H6.00018C4.94885 5.16619 4.50018 5.61486 4.50018 6.66619V9.99953C4.50018 10.2442 4.52556 10.4841 4.57489 10.7181Z" fill="#3B3B3E"/>
</svg>
