<svg width="16" height="16" viewBox="0 0 16 16" fill="none" xmlns="http://www.w3.org/2000/svg">
<path d="M14.4666 3.67324C14.4466 3.5799 14.4 3.29324 14.1333 3.07324C13.8466 2.83991 13.4866 2.82657 13.38 2.83324C12.8866 2.83991 12.3266 3.02657 9.07328 4.38657C8.00661 4.83324 5.83329 5.77324 2.62662 7.17991C2.13329 7.37991 1.56662 7.67323 1.49995 8.19323C1.40662 8.94657 2.17329 9.18657 2.79329 9.38657L3.03328 9.45991C3.51328 9.61991 4.39328 9.8799 4.89328 9.89324C5.36662 9.90657 5.85328 9.72657 6.38661 9.3599C7.18661 8.8199 7.84662 8.37324 8.39996 7.99991C8.31329 8.07991 8.23329 8.15991 8.16662 8.21991C7.88662 8.48657 7.68662 8.67324 7.64662 8.71324C7.56662 8.79991 7.47996 8.87991 7.39996 8.95991C7.03329 9.31324 6.65995 9.6799 6.70662 10.2066C6.75328 10.7066 7.17995 11.0399 7.49328 11.2466C7.94661 11.5466 8.31329 11.7999 8.67329 12.0466C9.05996 12.3132 9.45329 12.5799 9.95995 12.9132C10.0866 12.9932 10.2 13.0799 10.32 13.1599C10.78 13.4932 11.26 13.8332 11.88 13.8332C11.9333 13.8332 11.9799 13.8332 12.0333 13.8266C12.4599 13.7866 13.0133 13.4866 13.2333 12.2799C13.5866 10.3799 14.3199 6.07324 14.4933 4.25324C14.5133 4.04658 14.4933 3.79991 14.4733 3.67991L14.4666 3.67324ZM13.4933 4.15324C13.3266 5.92657 12.5866 10.2732 12.2466 12.0999C12.1399 12.6932 11.9666 12.8266 11.94 12.8332C11.64 12.8532 11.3466 12.6666 10.9 12.3466C10.7733 12.2599 10.6466 12.1666 10.5133 12.0732C10.0133 11.7466 9.62662 11.4799 9.24662 11.2132C8.87995 10.9599 8.51328 10.7132 8.05328 10.4066C7.77328 10.2199 7.71995 10.1199 7.70662 10.1199C7.73328 10.0266 7.95328 9.81324 8.09995 9.67324C8.18662 9.58657 8.27995 9.49991 8.37328 9.39991C8.41328 9.35324 8.59995 9.18657 8.85329 8.94657C11.4666 6.50657 11.4933 6.39324 11.54 6.17324C11.58 5.9799 11.5533 5.68657 11.3333 5.49991C11.08 5.26657 10.7599 5.33323 10.6599 5.3599C10.5133 5.39323 10.4266 5.41324 5.82661 8.53324C5.47995 8.77324 5.19329 8.90657 4.91996 8.88657C4.65996 8.88657 4.05328 8.73324 3.34661 8.49991L3.09995 8.41991C2.95328 8.37324 2.77995 8.3199 2.63995 8.26657C2.71995 8.2199 2.83996 8.16657 3.00663 8.0999C3.00663 8.0999 3.01329 8.0999 3.01995 8.0999C6.22662 6.6999 8.38661 5.75991 9.45328 5.31324C12.2399 4.14657 13.0533 3.84657 13.3933 3.8399C13.3933 3.8399 13.4666 3.84658 13.4733 3.84658C13.4866 3.91991 13.4933 4.06658 13.4866 4.15991L13.4933 4.15324Z" fill="#3B3B3E"/>
</svg>
