<svg width="16" height="16" viewBox="0 0 16 16" fill="none" xmlns="http://www.w3.org/2000/svg">
<path d="M14 6.49967C13.724 6.49967 13.5 6.72367 13.5 6.99967V7.49967H12.8074C12.7087 6.54167 12.3273 5.66638 11.7507 4.95638L12.2433 4.4637L12.5967 4.81706C12.694 4.91439 12.822 4.9637 12.95 4.9637C13.078 4.9637 13.206 4.91506 13.3033 4.81706C13.4986 4.62172 13.4986 4.30503 13.3033 4.1097L11.8893 2.69499C11.694 2.49965 11.3773 2.49965 11.182 2.69499C10.9866 2.89032 10.9866 3.20701 11.182 3.40234L11.536 3.75635L11.0433 4.24902C10.3333 3.67169 9.458 3.29106 8.5 3.19173V2.49902H9C9.276 2.49902 9.5 2.27502 9.5 1.99902C9.5 1.72302 9.276 1.49902 9 1.49902H7C6.724 1.49902 6.5 1.72302 6.5 1.99902C6.5 2.27502 6.724 2.49902 7 2.49902H7.5V3.19173C6.54133 3.2904 5.66671 3.67169 4.95671 4.24902L4.46403 3.75635L4.81803 3.40234C5.01337 3.20701 5.01337 2.89032 4.81803 2.69499C4.6227 2.49965 4.30601 2.49965 4.11068 2.69499L2.6967 4.1097C2.50136 4.30503 2.50136 4.62172 2.6967 4.81706C2.79403 4.91439 2.92197 4.9637 3.04997 4.9637C3.17797 4.9637 3.30599 4.91506 3.40332 4.81706L3.75667 4.4637L4.24935 4.95638C3.67268 5.66638 3.29129 6.54101 3.19263 7.49967H2.5V6.99967C2.5 6.72367 2.276 6.49967 2 6.49967C1.724 6.49967 1.5 6.72367 1.5 6.99967V8.99967C1.5 9.27567 1.724 9.49967 2 9.49967C2.276 9.49967 2.5 9.27567 2.5 8.99967V8.49967H3.19263C3.29129 9.45767 3.67268 10.333 4.24935 11.043L3.75667 11.5356L3.40332 11.1823C3.20799 10.987 2.8913 10.987 2.69596 11.1823C2.50063 11.3776 2.50063 11.6943 2.69596 11.8896L4.11003 13.3044C4.20736 13.4017 4.3353 13.451 4.4633 13.451C4.5913 13.451 4.71932 13.4024 4.81665 13.3044C5.01198 13.109 5.01198 12.7923 4.81665 12.597L4.46265 12.243L4.95532 11.7503C5.66532 12.3277 6.5407 12.7083 7.4987 12.8076V13.5003H6.9987C6.7227 13.5003 6.4987 13.7243 6.4987 14.0003C6.4987 14.2763 6.7227 14.5003 6.9987 14.5003H8.9987C9.2747 14.5003 9.4987 14.2763 9.4987 14.0003C9.4987 13.7243 9.2747 13.5003 8.9987 13.5003H8.4987V12.8076C9.45736 12.7089 10.332 12.3277 11.042 11.7503L11.5347 12.243L11.1807 12.597C10.9853 12.7923 10.9853 13.109 11.1807 13.3044C11.278 13.4017 11.406 13.451 11.534 13.451C11.662 13.451 11.79 13.4024 11.8874 13.3044L13.3014 11.8896C13.4967 11.6943 13.4967 11.3776 13.3014 11.1823C13.106 10.987 12.7893 10.987 12.594 11.1823L12.2406 11.5356L11.748 11.043C12.3246 10.333 12.706 9.45834 12.8047 8.49967H13.4973V8.99967C13.4973 9.27567 13.7213 9.49967 13.9973 9.49967C14.2733 9.49967 14.4973 9.27567 14.4973 8.99967V6.99967C14.5 6.72367 14.276 6.49967 14 6.49967ZM8 11.833C5.886 11.833 4.16667 10.113 4.16667 7.99967C4.16667 5.88634 5.886 4.16634 8 4.16634C10.114 4.16634 11.8333 5.88634 11.8333 7.99967C11.8333 10.113 10.114 11.833 8 11.833ZM6.83333 7.99967C6.83333 8.45967 6.46 8.83301 6 8.83301C5.54 8.83301 5.16667 8.45967 5.16667 7.99967C5.16667 7.53967 5.54 7.16634 6 7.16634C6.46 7.16634 6.83333 7.53967 6.83333 7.99967ZM10 6.66634C10 7.03434 9.70133 7.33301 9.33333 7.33301C8.96533 7.33301 8.66667 7.03434 8.66667 6.66634C8.66667 6.29834 8.96533 5.99967 9.33333 5.99967C9.70133 5.99967 10 6.29834 10 6.66634ZM9.16667 9.33301C9.16667 9.60901 8.94267 9.83301 8.66667 9.83301C8.39067 9.83301 8.16667 9.60901 8.16667 9.33301C8.16667 9.05701 8.39067 8.83301 8.66667 8.83301C8.94267 8.83301 9.16667 9.05701 9.16667 9.33301Z" fill="#3B3B3E"/>
</svg>
