<svg width="16" height="16" viewBox="0 0 16 16" fill="none" xmlns="http://www.w3.org/2000/svg">
<path d="M8.00016 15.1663C4.04816 15.1663 0.833496 11.9517 0.833496 7.99967C0.833496 4.04767 4.04816 0.833008 8.00016 0.833008C11.9522 0.833008 15.1668 4.04767 15.1668 7.99967C15.1668 11.9517 11.9522 15.1663 8.00016 15.1663ZM8.00016 1.83301C4.5995 1.83301 1.8335 4.59901 1.8335 7.99967C1.8335 11.4003 4.5995 14.1663 8.00016 14.1663C11.4008 14.1663 14.1668 11.4003 14.1668 7.99967C14.1668 4.59901 11.4008 1.83301 8.00016 1.83301ZM6.71216 11.1663H5.95418C5.37418 11.1663 4.99951 10.7957 4.99951 10.2217V5.77702C4.99951 5.20368 5.37418 4.83236 5.95418 4.83236H6.71216C7.29216 4.83236 7.66683 5.20302 7.66683 5.77702V10.2217C7.66683 10.7957 7.29216 11.1663 6.71216 11.1663ZM6.00016 10.1663H6.66414L6.66683 5.83626L6.00285 5.83366L6.00016 10.1663ZM10.0455 11.1663H9.28752C8.70752 11.1663 8.33284 10.7957 8.33284 10.2217V5.77702C8.33284 5.20368 8.70752 4.83236 9.28752 4.83236H10.0455C10.6255 4.83236 11.0002 5.20302 11.0002 5.77702V10.2217C11.0002 10.7957 10.6255 11.1663 10.0455 11.1663ZM9.3335 10.1663H9.99748L10.0002 5.83626L9.33618 5.83366L9.3335 10.1663Z" fill="#3B3B3E"/>
</svg>
