<svg width="16" height="16" viewBox="0 0 16 16" fill="none" xmlns="http://www.w3.org/2000/svg">
<path d="M8 15.1669C7.94667 15.1669 7.89329 15.1582 7.84196 15.1409C6.78263 14.7875 1.5 12.7482 1.5 7.25887V3.33357C1.5 3.09557 1.66802 2.8895 1.90202 2.8435C5.15535 2.19283 6.3087 1.6209 7.76937 0.896236C7.91004 0.826236 8.0973 0.816958 8.2373 0.886958C9.67664 1.61296 10.814 2.18617 14.0986 2.8435C14.3326 2.89017 14.5007 3.09557 14.5007 3.33357V7.25952C14.5007 12.7488 9.21802 14.7882 8.15869 15.1415C8.10669 15.1582 8.05333 15.1669 8 15.1669ZM2.5 3.74161V7.25887C2.5 11.8355 6.77867 13.699 8 14.137C9.22133 13.699 13.5 11.8349 13.5 7.25887V3.74161C10.5513 3.12428 9.31193 2.54617 8.00993 1.89217C6.62526 2.57683 5.42333 3.13095 2.5 3.74161ZM9.528 10.8415C9.39533 10.8415 9.26267 10.8095 9.13867 10.7449L8 10.151L6.86133 10.7449C6.57599 10.8942 6.23668 10.8683 5.97868 10.6783C5.72001 10.4896 5.59328 10.1769 5.64795 9.86157L5.86393 8.61092L4.91471 7.69295C4.69005 7.47561 4.61004 7.1563 4.70671 6.85896C4.80337 6.56096 5.05538 6.34829 5.36605 6.30362L6.68197 6.11352L7.25 4.97159C7.392 4.68559 7.67998 4.50756 8.00065 4.50756C8.32065 4.50756 8.60864 4.68559 8.7513 4.97159L9.31934 6.11352L10.6361 6.30362C10.9461 6.34762 11.1986 6.56096 11.2946 6.85896C11.3913 7.1563 11.3106 7.47561 11.0866 7.69295L10.1374 8.61092L10.354 9.86287C10.408 10.1789 10.2806 10.4909 10.022 10.6796C9.87397 10.7869 9.702 10.8415 9.528 10.8415ZM8 9.12752C8.12933 9.12752 8.25928 9.15829 8.37728 9.22029L9.31006 9.70694L9.13265 8.68351C9.08732 8.41751 9.17529 8.14688 9.36995 7.95955L10.1147 7.2395L9.07861 7.09025C8.81395 7.05158 8.58467 6.8862 8.46533 6.64754L7.9987 5.7089L7.53272 6.64624C7.41272 6.88557 7.18394 7.05158 6.91927 7.09025L5.88265 7.2395L6.62874 7.96085C6.82208 8.14685 6.91075 8.41752 6.86475 8.68286L6.68734 9.70694L7.61995 9.22029C7.74062 9.15896 7.87067 9.12752 8 9.12752ZM5.93538 8.68025C5.93538 8.68025 5.93537 8.6809 5.93604 8.6809L5.93538 8.68025ZM10.0661 8.67895C10.0654 8.67962 10.0661 8.67962 10.0661 8.67895V8.67895ZM10.492 7.29353H10.4987H10.492ZM7.85466 5.41691L7.85531 5.41756L7.85466 5.41691Z" fill="#3B3B3E"/>
</svg>
