<svg width="16" height="16" viewBox="0 0 16 16" fill="none" xmlns="http://www.w3.org/2000/svg">
<path d="M8.50074 13.999C8.50074 14.275 8.27674 14.499 8.00074 14.499C7.06741 14.499 6.12811 14.2917 5.28411 13.899C5.11878 13.8203 4.91211 13.8143 4.70078 13.8823L3.04143 14.4397C2.91877 14.4803 2.79402 14.5003 2.67002 14.5003C2.36535 14.5003 2.06947 14.3803 1.84547 14.1563C1.52947 13.841 1.4208 13.383 1.5608 12.9617L2.12135 11.2943C2.18668 11.0896 2.18076 10.8843 2.1041 10.7223C1.70943 9.87366 1.5027 8.93366 1.5027 8.00033C1.5027 4.41699 4.41806 1.50098 8.0014 1.50098C11.5854 1.50098 14.5007 4.41633 14.5007 8.00033C14.5007 8.27633 14.2767 8.50033 14.0007 8.50033C13.7247 8.50033 13.5007 8.27633 13.5007 8.00033C13.5007 4.96833 11.0341 2.50098 8.0014 2.50098C4.9694 2.50098 2.5027 4.96766 2.5027 8.00033C2.5027 8.78899 2.67804 9.58297 3.00937 10.2963C3.19337 10.6836 3.21735 11.1496 3.07268 11.605L2.51002 13.279C2.48202 13.3623 2.52483 13.4217 2.55283 13.4497C2.58083 13.4777 2.64072 13.5203 2.72405 13.4923L4.38942 12.933C4.85208 12.7856 5.31939 12.8083 5.71005 12.9956C6.41872 13.325 7.21273 13.5003 8.0014 13.5003C8.27673 13.499 8.50074 13.7223 8.50074 13.999ZM14.0001 11.8337H12.8334V10.667C12.8334 10.391 12.6094 10.167 12.3334 10.167C12.0574 10.167 11.8334 10.391 11.8334 10.667V11.8337H10.6668C10.3908 11.8337 10.1668 12.0577 10.1668 12.3337C10.1668 12.6097 10.3908 12.8337 10.6668 12.8337H11.8334V14.0003C11.8334 14.2763 12.0574 14.5003 12.3334 14.5003C12.6094 14.5003 12.8334 14.2763 12.8334 14.0003V12.8337H14.0001C14.2761 12.8337 14.5001 12.6097 14.5001 12.3337C14.5001 12.0577 14.2761 11.8337 14.0001 11.8337ZM8.01344 7.33366H8.00677C7.63877 7.33366 7.34336 7.63233 7.34336 8.00033C7.34336 8.36833 7.64544 8.66699 8.01344 8.66699C8.38211 8.66699 8.68011 8.36833 8.68011 8.00033C8.68011 7.63233 8.38144 7.33366 8.01344 7.33366ZM10.6801 8.66699C11.0488 8.66699 11.3468 8.36833 11.3468 8.00033C11.3468 7.63233 11.0488 7.33366 10.6801 7.33366H10.6734C10.3054 7.33366 10.01 7.63233 10.01 8.00033C10.01 8.36833 10.3121 8.66699 10.6801 8.66699ZM5.3401 7.33366C4.9721 7.33366 4.67669 7.63233 4.67669 8.00033C4.67669 8.36833 4.97877 8.66699 5.34677 8.66699C5.71544 8.66699 6.01344 8.36833 6.01344 8.00033C6.01344 7.63233 5.71544 7.33366 5.34677 7.33366H5.3401Z" fill="#3B3B3E"/>
</svg>
