<svg width="16" height="16" viewBox="0 0 16 16" fill="none" xmlns="http://www.w3.org/2000/svg">
<path d="M14.8734 4.66651C14.6734 3.91985 14.0867 3.33318 13.34 3.13318C12.2667 2.84651 8.43337 2.83984 8.00004 2.83984C7.56671 2.83984 3.73337 2.84651 2.66003 3.13318C1.91337 3.33318 1.32671 3.91985 1.12671 4.66651C0.833376 5.75985 0.833374 7.91985 0.833374 8.01318C0.833374 8.10652 0.833376 10.2665 1.12671 11.3598C1.32004 12.0932 1.91337 12.6732 2.66003 12.8732C3.73337 13.1598 7.56671 13.1665 8.00004 13.1665C8.43337 13.1665 12.2667 13.1598 13.34 12.8732C14.0867 12.6732 14.68 12.0932 14.8734 11.3598C15.1667 10.2665 15.1667 8.10652 15.1667 8.01318C15.1667 7.91985 15.1667 5.75985 14.8734 4.66651ZM13.9067 11.0998C13.8 11.4932 13.4934 11.7998 13.08 11.9065C12.28 12.1198 9.14004 12.1665 8.00004 12.1665C6.86004 12.1665 3.72004 12.1198 2.92004 11.9065C2.50671 11.7932 2.20005 11.4932 2.09338 11.0998C1.83338 10.1332 1.83337 8.03318 1.83337 8.01318C1.83337 7.99318 1.83338 5.89318 2.09338 4.92651C2.20005 4.52651 2.52004 4.20651 2.92004 4.09984C3.72004 3.88651 6.86004 3.83984 8.00004 3.83984C9.14004 3.83984 12.28 3.88651 13.08 4.09984C13.48 4.20651 13.8 4.52651 13.9067 4.92651C14.1667 5.89318 14.1667 7.99318 14.1667 8.01318C14.1667 8.03318 14.1667 10.1332 13.9067 11.0998ZM6.66671 5.99985L10 7.99985L6.66671 9.99985V5.99985Z" fill="#3B3B3E"/>
</svg>
