<svg width="16" height="16" viewBox="0 0 16 16" fill="none" xmlns="http://www.w3.org/2000/svg">
<path d="M7.99996 1.5C4.78329 1.5 2.16663 4.11667 2.16663 7.33333C2.16663 10.7453 5.29795 12.8133 7.36995 14.182L7.72262 14.416C7.80662 14.472 7.90329 14.5 7.99996 14.5C8.09663 14.5 8.1933 14.472 8.2773 14.416L8.62996 14.182C10.702 12.8133 13.8333 10.7453 13.8333 7.33333C13.8333 4.11667 11.2166 1.5 7.99996 1.5ZM8.07931 13.3473L7.99996 13.4001L7.92061 13.3473C5.91395 12.022 3.16663 10.2073 3.16663 7.33333C3.16663 4.668 5.33463 2.5 7.99996 2.5C10.6653 2.5 12.8333 4.668 12.8333 7.33333C12.8333 10.2073 10.0853 12.0227 8.07931 13.3473ZM9.03328 4.83333C8.57195 4.84667 8.24663 5.00259 7.99996 5.22526C7.75196 5.00259 7.40461 4.84533 6.96594 4.83333C6.40528 4.836 5.93527 5.04933 5.60661 5.45133C5.21794 5.926 5.07728 6.612 5.21928 7.33333C5.56928 9.10933 7.70462 10.0827 7.79529 10.1234C7.85995 10.152 7.92998 10.1667 7.99931 10.1667C8.06864 10.1667 8.13862 10.152 8.20329 10.1234C8.29395 10.0827 10.4286 9.10933 10.7793 7.33333C10.9213 6.61133 10.7806 5.92535 10.392 5.45068C10.0646 5.04935 9.59462 4.836 9.03328 4.83333ZM9.79862 7.13932C9.60062 8.14132 8.46996 8.85062 7.99996 9.10596C7.52929 8.85062 6.39863 8.14199 6.20129 7.13932C6.11796 6.71866 6.18531 6.32398 6.38131 6.08398C6.51864 5.91665 6.71129 5.834 6.97062 5.83333C6.97129 5.83333 6.97264 5.83333 6.97331 5.83333C7.35997 5.83333 7.51261 6.21737 7.52661 6.25537C7.59461 6.45604 7.78328 6.58864 7.99528 6.59131C8.21461 6.60264 8.3993 6.45941 8.47196 6.26074C8.48796 6.21674 8.63994 5.83268 9.02661 5.83268C9.02728 5.83268 9.02863 5.83268 9.0293 5.83268C9.2893 5.83402 9.48264 5.916 9.6193 6.08333C9.81464 6.32333 9.88196 6.71799 9.79862 7.13932Z" fill="#3B3B3E"/>
</svg>
