<svg width="16" height="16" viewBox="0 0 16 16" fill="none" xmlns="http://www.w3.org/2000/svg">
<path d="M14.5 4V9.33333C14.5 10.9467 13.6133 11.8333 12 11.8333H11.3333C11.06 11.8333 10.8333 11.6067 10.8333 11.3333C10.8333 11.06 11.06 10.8333 11.3333 10.8333H12C13.0533 10.8333 13.5 10.3867 13.5 9.33333V4C13.5 2.94667 13.0533 2.5 12 2.5H4C2.94667 2.5 2.5 2.94667 2.5 4V9.33333C2.5 10.3867 2.94667 10.8333 4 10.8333H4.66667C4.94 10.8333 5.16667 11.06 5.16667 11.3333C5.16667 11.6067 4.94 11.8333 4.66667 11.8333H4C2.38667 11.8333 1.5 10.9467 1.5 9.33333V4C1.5 2.38667 2.38667 1.5 4 1.5H12C13.6133 1.5 14.5 2.38667 14.5 4ZM10.6667 7.83333C10.94 7.83333 11.1667 7.60667 11.1667 7.33333V5.66667C11.1667 4.84 10.4933 4.16667 9.66667 4.16667H6.33333C5.50667 4.16667 4.83333 4.84 4.83333 5.66667V7.33333C4.83333 7.60667 5.06 7.83333 5.33333 7.83333C5.60667 7.83333 5.83333 7.60667 5.83333 7.33333V5.66667C5.83333 5.39333 6.06 5.16667 6.33333 5.16667H9.66667C9.94 5.16667 10.1667 5.39333 10.1667 5.66667V7.33333C10.1667 7.60667 10.3933 7.83333 10.6667 7.83333ZM10.5 13.9467C10.5267 14.22 10.3267 14.4667 10.0533 14.4933C10.0333 14.4933 10.02 14.4933 10 14.4933C9.74667 14.4933 9.52667 14.3 9.5 14.0467C9.46667 13.7333 9.44668 13.4467 9.42668 13.16H8.49333V13.9933C8.49333 14.2667 8.26666 14.4933 7.99333 14.4933C7.71999 14.4933 7.49333 14.2667 7.49333 13.9933V13.16H6.56002C6.54668 13.44 6.51999 13.7333 6.48665 14.0467C6.45999 14.3067 6.23999 14.4933 5.98665 14.4933C5.96665 14.4933 5.95335 14.4933 5.93335 14.4933C5.66002 14.4667 5.45999 14.22 5.48665 13.9467C5.68665 11.9933 5.55335 10.7333 4.97335 9.16667H4.65332C4.37999 9.16667 4.15332 8.94 4.15332 8.66667C4.15332 8.39333 4.37999 8.16667 4.65332 8.16667H11.32C11.5933 8.16667 11.82 8.39333 11.82 8.66667C11.82 8.94 11.5933 9.16667 11.32 9.16667H11C10.4133 10.74 10.28 11.9933 10.4867 13.9467H10.5ZM9.95333 9.16667H8.50667V10.1667H9.66667C9.74667 9.84 9.83333 9.50667 9.95333 9.16667ZM6.06002 9.16667C6.18002 9.50667 6.26668 9.84 6.34668 10.1667H7.50667V9.16667H6.06002ZM7.50667 12.1667V11.1667H6.52665C6.56665 11.4867 6.58668 11.82 6.59334 12.1667H7.50667ZM8.50667 12.1667H9.42C9.42 11.82 9.44665 11.4867 9.48665 11.1667H8.50667V12.1667Z" fill="#3B3B3E"/>
</svg>
