<svg width="16" height="16" viewBox="0 0 16 16" fill="none" xmlns="http://www.w3.org/2000/svg">
<path d="M12 4.16699H11.0267L10.7026 3.19303C10.498 2.5797 9.92596 2.16699 9.2793 2.16699H6.7207C6.07404 2.16699 5.50203 2.5797 5.29736 3.19303L4.97331 4.16699H4C2.388 4.16699 1.5 5.05499 1.5 6.66699V12.0003C1.5 13.6123 2.388 14.5003 4 14.5003H12C13.612 14.5003 14.5 13.6123 14.5 12.0003V6.66699C14.5 5.05499 13.612 4.16699 12 4.16699ZM13.5 12.0003C13.5 13.0517 13.0513 13.5003 12 13.5003H4C2.94867 13.5003 2.5 13.0517 2.5 12.0003V6.66699C2.5 5.61566 2.94867 5.16699 4 5.16699H5.33333C5.54867 5.16699 5.73928 5.02903 5.80794 4.82503L6.24674 3.5083C6.31474 3.30363 6.50537 3.16634 6.7207 3.16634H9.2793C9.49463 3.16634 9.68526 3.30363 9.75326 3.5083L10.1921 4.82438C10.2607 5.02838 10.4513 5.16634 10.6667 5.16634H12C13.0513 5.16634 13.5 5.61501 13.5 6.66634V12.0003V12.0003ZM8 6.83366C6.622 6.83366 5.5 7.95499 5.5 9.33366C5.5 10.7123 6.622 11.8337 8 11.8337C9.378 11.8337 10.5 10.7123 10.5 9.33366C10.5 7.95499 9.378 6.83366 8 6.83366ZM8 10.8337C7.17333 10.8337 6.5 10.161 6.5 9.33366C6.5 8.50633 7.17333 7.83366 8 7.83366C8.82667 7.83366 9.5 8.50633 9.5 9.33366C9.5 10.161 8.82667 10.8337 8 10.8337ZM12.3333 7.00033C12.3333 7.36833 12.0347 7.66699 11.6667 7.66699C11.2987 7.66699 11 7.36833 11 7.00033C11 6.63233 11.2987 6.33366 11.6667 6.33366C12.0347 6.33366 12.3333 6.63233 12.3333 7.00033Z" fill="#3B3B3E"/>
</svg>
