<svg width="16" height="16" viewBox="0 0 16 16" fill="none" xmlns="http://www.w3.org/2000/svg">
<g clip-path="url(#clip0_36251_7344)">
<path d="M12.6467 12.2332C12.6467 13.6945 11.8367 14.4999 10.3667 14.4999H5.63334C5.23134 14.4999 4.89805 14.4445 4.61405 14.3305C4.35805 14.2278 4.23339 13.9365 4.33606 13.6805C4.43873 13.4239 4.72936 13.2999 4.98669 13.4025C5.14803 13.4672 5.36541 13.4999 5.63407 13.4999H10.3674C11.2761 13.4999 11.6473 13.1332 11.6473 12.2332C11.6473 11.6785 11.4841 9.86189 9.37805 9.76589C9.10205 9.75322 8.88874 9.51916 8.90141 9.24383C8.91407 8.96783 9.16071 8.76185 9.42338 8.76719C11.802 8.87585 12.6467 10.7025 12.6467 12.2332ZM4.20203 12.5045L1.68673 15.0199C1.58939 15.1172 1.46137 15.1665 1.33337 15.1665C1.20537 15.1665 1.07735 15.1179 0.980021 15.0199C0.784688 14.8245 0.784688 14.5078 0.980021 14.3125L3.36601 11.9265C3.47201 10.4919 4.34805 8.90982 6.51339 8.77915L7.50403 7.78851C6.36203 7.55584 5.50004 6.54588 5.50004 5.33921C5.50004 3.95721 6.62471 2.83254 8.00671 2.83254C9.21338 2.83254 10.2233 3.69452 10.456 4.83652L12.4227 2.86989C12.2494 2.64122 11.9747 2.4992 11.6734 2.4992C11.4287 2.4992 11.2047 2.58583 11.0427 2.74383C10.846 2.93716 10.5287 2.93255 10.3354 2.73455C10.1421 2.53655 10.1467 2.22053 10.3447 2.0272C10.694 1.68653 11.166 1.49855 11.6734 1.49855C12.2454 1.49855 12.7694 1.75187 13.1294 2.16253L14.3134 0.978531C14.5087 0.783198 14.8254 0.783198 15.0207 0.978531C15.216 1.17386 15.216 1.49055 15.0207 1.68589L4.20341 12.5032C4.20274 12.5039 4.20269 12.5045 4.20203 12.5045ZM8.56669 6.7265L9.39335 5.89984C9.46468 5.7185 9.50671 5.53119 9.50671 5.33986C9.50671 4.50919 8.83338 3.83319 8.00671 3.83319C7.17605 3.83319 6.50004 4.50919 6.50004 5.33986C6.50004 6.16719 7.17605 6.83986 8.00671 6.83986C8.19805 6.83986 8.38536 6.79783 8.56669 6.7265ZM12.5267 5.78656H12.38C12.104 5.78656 11.88 6.01056 11.88 6.28656C11.88 6.56256 12.104 6.78656 12.38 6.78656H12.5267C14.0074 6.78656 14.1667 7.93787 14.1667 8.4332C14.1667 9.0092 13.9607 9.21315 13.38 9.21315H13.14C12.864 9.21315 12.64 9.43715 12.64 9.71315C12.64 9.98915 12.864 10.2132 13.14 10.2132H13.38C14.5153 10.2132 15.1667 9.56454 15.1667 8.4332C15.1667 7.11587 14.3501 5.78656 12.5267 5.78656ZM3.94804 5.35654C3.98137 5.36321 4.01474 5.36655 4.0474 5.36655C4.28074 5.36655 4.48874 5.20252 4.53674 4.96518C4.59141 4.69452 4.41605 4.4305 4.14539 4.37583C3.70539 4.28716 3.38603 3.89648 3.38603 3.44582C3.38603 2.92382 3.81406 2.4992 4.3394 2.4992C4.5794 2.4992 4.80535 2.58787 4.97668 2.7492C5.17735 2.9392 5.49406 2.92985 5.68339 2.72918C5.87339 2.52852 5.86404 2.21189 5.66337 2.02256C5.3067 1.68522 4.83671 1.4992 4.34005 1.4992C3.26338 1.4992 2.38668 2.37248 2.38668 3.44582C2.38668 4.37048 3.04337 5.17388 3.94804 5.35654ZM2.62008 10.2132H2.85404C3.13004 10.2132 3.35404 9.98915 3.35404 9.71315C3.35404 9.43715 3.13004 9.21315 2.85404 9.21315H2.62008C2.03941 9.21315 1.83337 9.0092 1.83337 8.4332C1.83337 7.93787 1.99268 6.78656 3.47335 6.78656H4.13334C4.40934 6.78656 4.63334 6.56256 4.63334 6.28656C4.63334 6.01056 4.40934 5.78656 4.13334 5.78656H3.47335C1.52468 5.78656 0.833374 7.21254 0.833374 8.4332C0.833374 9.56454 1.48474 10.2132 2.62008 10.2132Z" fill="#3B3B3E"/>
</g>
<defs>
<clipPath id="clip0_36251_7344">
<rect width="16" height="16" fill="white"/>
</clipPath>
</defs>
</svg>
