<svg width="16" height="16" viewBox="0 0 16 16" fill="none" xmlns="http://www.w3.org/2000/svg">
<path d="M9.64182 9.74799C9.57449 9.62933 9.46181 9.54256 9.32981 9.50922C9.19714 9.47589 9.05712 9.49728 8.94179 9.56928C8.38712 9.91528 7.6125 9.91528 7.05784 9.56928C6.9425 9.49728 6.80315 9.47522 6.66982 9.50922C6.53782 9.54256 6.42514 9.62933 6.35781 9.74799L4.73183 12.6285C4.6185 12.8292 4.59114 13.0707 4.65647 13.29C4.72114 13.5053 4.86511 13.6806 5.06378 13.7846C5.98311 14.2593 6.97115 14.5006 7.99981 14.5006C9.02848 14.5006 10.0165 14.2599 10.9358 13.7846C10.9358 13.7846 10.9365 13.7846 10.9365 13.784C11.1345 13.6813 11.2792 13.506 11.3432 13.29C11.4085 13.0707 11.3811 12.8292 11.2678 12.6279L9.64182 9.74799ZM5.68316 12.9759L6.99648 10.65C7.62914 10.892 8.37048 10.892 9.00315 10.65L10.3165 12.9759C8.85513 13.6719 7.14316 13.6719 5.68316 12.9759ZM11.5765 2.30463C11.3878 2.17863 11.1524 2.13722 10.9318 2.18989C10.7058 2.24389 10.5111 2.39186 10.3971 2.59386L8.64451 5.68728C8.57717 5.80462 8.56183 5.94467 8.59983 6.074C8.63783 6.204 8.72651 6.31259 8.84584 6.37592C9.42451 6.68192 9.79114 7.24463 9.82647 7.88129C9.84114 8.14596 10.0738 8.3533 10.3398 8.3533H13.6592C13.8925 8.3533 14.1178 8.25588 14.2765 8.08588C14.4312 7.91988 14.5125 7.69598 14.4985 7.47065C14.3792 5.38398 13.2885 3.4533 11.5765 2.30463ZM10.7571 7.35395C10.6111 6.73262 10.2525 6.17255 9.74583 5.77322L11.1771 3.24523C12.4925 4.19656 13.3431 5.70928 13.4871 7.35395H10.7571ZM6.17315 7.88129C6.20849 7.24463 6.57512 6.68192 7.15379 6.37592C7.27312 6.31259 7.3618 6.204 7.3998 6.074C7.4378 5.94467 7.42179 5.80462 7.35512 5.68728L5.60317 2.59532C5.4885 2.39199 5.29385 2.24389 5.06785 2.18989C4.84851 2.13589 4.61185 2.17862 4.42185 2.30528C2.71185 3.45328 1.61985 5.38458 1.50185 7.46658C1.48652 7.69325 1.56712 7.91855 1.72312 8.08588C1.88179 8.25588 2.10714 8.3533 2.34047 8.3533H5.6738C5.93914 8.35397 6.15782 8.14663 6.17315 7.88129ZM2.51251 7.35395C2.65651 5.70928 3.50782 4.19589 4.82249 3.24523L6.2538 5.77322C5.74713 6.17255 5.38849 6.73262 5.24249 7.35395H2.51251ZM7.99981 7.16726C8.45981 7.16726 8.83315 7.5406 8.83315 8.0006C8.83315 8.4606 8.45981 8.83393 7.99981 8.83393C7.53981 8.83393 7.16648 8.4606 7.16648 8.0006C7.16648 7.5406 7.53981 7.16726 7.99981 7.16726Z" fill="#3B3B3E"/>
</svg>
