<svg width="16" height="16" viewBox="0 0 16 16" fill="none" xmlns="http://www.w3.org/2000/svg">
<path d="M6.84668 14.0003C6.84668 14.4603 6.47335 14.8336 6.01335 14.8336C5.55401 14.8336 5.17668 14.4603 5.17668 14.0003C5.17668 13.5403 5.54667 13.167 6.00667 13.167H6.01335C6.47335 13.167 6.84668 13.5403 6.84668 14.0003ZM11.3467 13.167H11.34C10.88 13.167 10.51 13.5403 10.51 14.0003C10.51 14.4603 10.8867 14.8336 11.3467 14.8336C11.8067 14.8336 12.18 14.4603 12.18 14.0003C12.18 13.5403 11.8067 13.167 11.3467 13.167ZM14.47 5.66164L13.794 9.77231C13.6187 10.7363 13.1827 11.8336 11.3333 11.8336H5.82267C4.91667 11.8336 4.13598 11.157 4.00798 10.2596L3.0013 3.21631C2.94264 2.80831 2.58868 2.50098 2.17668 2.50098H2C1.724 2.50098 1.5 2.27698 1.5 2.00098C1.5 1.72498 1.724 1.50098 2 1.50098H2.17733C3.08333 1.50098 3.86402 2.17764 3.99202 3.07497L4.0533 3.50098H12.6667C13.212 3.50098 13.7254 3.74097 14.0747 4.15964C14.4234 4.57764 14.568 5.12564 14.47 5.66164ZM13.306 4.79964C13.1473 4.60964 12.914 4.5003 12.666 4.5003H4.19531L4.99797 10.1183C5.05663 10.5263 5.41067 10.8336 5.82267 10.8336H11.3333C12.398 10.8336 12.6573 10.4363 12.8087 9.6023L13.4847 5.49097C13.5307 5.23897 13.4647 4.98964 13.306 4.79964ZM11.0994 5.83163C11.4507 6.25963 11.58 6.87964 11.4526 7.53231C11.1466 9.11164 9.28604 9.97498 9.20671 10.011C9.14071 10.041 9.07068 10.0556 8.99935 10.0556C8.92802 10.0556 8.85799 10.041 8.79199 10.011C8.71266 9.97498 6.85198 9.11164 6.54598 7.53231C6.41998 6.87964 6.54865 6.2603 6.89998 5.83163C7.19465 5.47163 7.61398 5.28031 8.11198 5.27831C8.11465 5.27831 8.11737 5.27831 8.12004 5.27831C8.49137 5.27831 8.78136 5.41297 8.9987 5.59497C9.21603 5.41364 9.50669 5.27831 9.87736 5.27831C9.88003 5.27831 9.88267 5.27831 9.88534 5.27831C10.3853 5.28031 10.8047 5.47163 11.0994 5.83163ZM10.3267 6.46564C10.224 6.3403 10.078 6.27898 9.88135 6.27831C9.88068 6.27831 9.87998 6.27831 9.87931 6.27831C9.58931 6.27831 9.47536 6.59697 9.47469 6.59964C9.40602 6.80431 9.21533 6.9423 9 6.9423C8.78467 6.9423 8.59398 6.80431 8.52531 6.59964C8.51531 6.57231 8.40002 6.27831 8.12069 6.27831C8.12002 6.27831 8.11932 6.27831 8.11865 6.27831C7.92265 6.27898 7.77666 6.3403 7.67399 6.46564C7.51732 6.65764 7.46131 6.99297 7.52865 7.34097C7.68665 8.15897 8.58798 8.7563 9.00065 8.99097C9.41465 8.75763 10.312 8.1643 10.4714 7.34163C10.4714 7.34163 10.4714 7.34164 10.4714 7.34097C10.5394 6.99297 10.484 6.65697 10.3267 6.46564Z" fill="#3B3B3E"/>
</svg>
