<svg width="16" height="16" viewBox="0 0 16 16" fill="none" xmlns="http://www.w3.org/2000/svg">
<path d="M13.1667 6.33379V10.3338C13.1667 11.2731 12.606 11.8338 11.6667 11.8338H8.66667C8.39067 11.8338 8.16667 11.6098 8.16667 11.3338C8.16667 11.0578 8.39067 10.8338 8.66667 10.8338H11.6667C12.0593 10.8338 12.1667 10.7265 12.1667 10.3338V6.33379C12.1667 5.94113 12.0593 5.83379 11.6667 5.83379H9.33333C9.05733 5.83379 8.83333 5.60979 8.83333 5.33379C8.83333 5.05779 9.05733 4.83379 9.33333 4.83379H11.6667C12.606 4.83379 13.1667 5.39446 13.1667 6.33379ZM5.33333 10.8338H3C2.60733 10.8338 2.5 10.7265 2.5 10.3338V6.33379C2.5 5.94113 2.60733 5.83379 3 5.83379H6C6.276 5.83379 6.5 5.60979 6.5 5.33379C6.5 5.05779 6.276 4.83379 6 4.83379H3C2.06067 4.83379 1.5 5.39446 1.5 6.33379V10.3338C1.5 11.2731 2.06067 11.8338 3 11.8338H5.33333C5.60933 11.8338 5.83333 11.6098 5.83333 11.3338C5.83333 11.0578 5.60933 10.8338 5.33333 10.8338ZM14 6.83379C13.724 6.83379 13.5 7.05779 13.5 7.33379V9.33379C13.5 9.60979 13.724 9.83379 14 9.83379C14.276 9.83379 14.5 9.60979 14.5 9.33379V7.33379C14.5 7.05779 14.276 6.83379 14 6.83379ZM9.56869 8.44854L7.0166 12.2778C6.92127 12.4205 6.76325 12.5005 6.60059 12.5005C6.53192 12.5005 6.46395 12.4865 6.39795 12.4578C6.17595 12.3592 6.05606 12.1152 6.1154 11.8792L6.69336 9.56719H5.81869C5.49869 9.56719 5.20535 9.39185 5.05469 9.10918C4.90402 8.82652 4.92063 8.48571 5.09863 8.21905L7.65072 4.38978C7.78605 4.18645 8.0467 4.11177 8.26937 4.20977C8.49137 4.30844 8.61125 4.55238 8.55192 4.78838L7.97396 7.1004H8.84863C9.16863 7.1004 9.46196 7.27574 9.61263 7.5584C9.7633 7.84107 9.74669 8.18187 9.56869 8.44854ZM8.59863 8.1004H7.56803C7.3567 8.1004 7.15996 8.00451 7.0293 7.83851C6.91596 7.69385 6.86667 7.51378 6.88867 7.33444L6.06738 8.56719H7.09798C7.30932 8.56719 7.50605 8.66307 7.63672 8.82907C7.75005 8.97374 7.79934 9.15381 7.77734 9.33314L8.59863 8.1004Z" fill="#3B3B3E"/>
</svg>
