<svg width="16" height="16" viewBox="0 0 16 16" fill="none" xmlns="http://www.w3.org/2000/svg">
<path d="M14 5.16681H11.5573L12.152 2.78815C12.2193 2.52015 12.056 2.24882 11.7887 2.18215C11.5187 2.11482 11.2487 2.27814 11.182 2.54614L10.5267 5.16748H6.89067L7.48533 2.78882C7.55266 2.52082 7.38933 2.24947 7.122 2.1828C6.85067 2.11547 6.582 2.27882 6.51533 2.54682L5.86 5.16815H3.33333C3.05733 5.16815 2.83333 5.39215 2.83333 5.66815C2.83333 5.94415 3.05733 6.16815 3.33333 6.16815H5.60933L4.69267 9.83482H2C1.724 9.83482 1.5 10.0588 1.5 10.3348C1.5 10.6108 1.724 10.8348 2 10.8348H4.44267L3.848 13.2135C3.78067 13.4815 3.944 13.7528 4.21133 13.8195C4.25267 13.8295 4.29333 13.8348 4.33333 13.8348C4.55733 13.8348 4.76133 13.6828 4.818 13.4561L5.47334 10.8348H9.10933L8.51467 13.2135C8.44734 13.4815 8.61067 13.7528 8.878 13.8195C8.91933 13.8295 8.96 13.8348 9 13.8348C9.224 13.8348 9.428 13.6828 9.48467 13.4561L10.14 10.8348H12.6667C12.9427 10.8348 13.1667 10.6108 13.1667 10.3348C13.1667 10.0588 12.9427 9.83482 12.6667 9.83482H10.3907L11.3073 6.16815H14C14.276 6.16815 14.5 5.94415 14.5 5.66815C14.5 5.39215 14.276 5.16681 14 5.16681ZM9.35933 9.83348H5.72334L6.64 6.16681H10.276L9.35933 9.83348Z" fill="#3B3B3E"/>
</svg>
