<svg width="16" height="16" viewBox="0 0 16 16" fill="none" xmlns="http://www.w3.org/2000/svg">
<path d="M11.8332 4V8C11.8332 8.276 11.6092 8.5 11.3332 8.5C11.0572 8.5 10.8332 8.276 10.8332 8V5.20736L4.35321 11.6873C4.25587 11.7847 4.12785 11.834 3.99985 11.834C3.87185 11.834 3.74383 11.7853 3.6465 11.6873C3.45117 11.492 3.45117 11.1753 3.6465 10.98L10.1265 4.5H7.33319C7.05719 4.5 6.83319 4.276 6.83319 4C6.83319 3.724 7.05719 3.5 7.33319 3.5H11.3332C11.3985 3.5 11.4633 3.5134 11.5246 3.53874C11.6466 3.5894 11.7439 3.68674 11.7953 3.80941C11.8199 3.87007 11.8332 3.93467 11.8332 4Z" fill="#3B3B3E"/>
</svg>
