<svg width="16" height="16" viewBox="0 0 16 16" fill="none" xmlns="http://www.w3.org/2000/svg">
<path d="M13.1666 4.17464V3C13.1666 2.17267 12.4933 1.5 11.6666 1.5H4.33325C3.50659 1.5 2.83325 2.17267 2.83325 3V4.17074C2.83325 5.62407 3.44661 5.97326 4.09595 6.34326L7.00464 8L4.09595 9.65674C3.44661 10.0267 2.83325 10.3759 2.83325 11.8293V13C2.83325 13.8273 3.50659 14.5 4.33325 14.5H11.6666C12.4933 14.5 13.1666 13.8273 13.1666 13V11.8254C13.1666 10.3767 12.5566 10.0274 11.9099 9.65674L9.01994 8L11.9099 6.34326C12.5566 5.9726 13.1666 5.62331 13.1666 4.17464ZM11.4125 10.5247C11.9918 10.8567 12.1666 10.9567 12.1666 11.826V13.0007C12.1666 13.2767 11.9419 13.5007 11.6666 13.5007H4.33325C4.05792 13.5007 3.83325 13.2767 3.83325 13.0007V11.8301C3.83325 10.9581 4.00924 10.858 4.59058 10.5267L8.01457 8.57666L11.4125 10.5247ZM11.4125 5.47526L8.01392 7.42399L4.58993 5.47396C4.00859 5.14263 3.8326 5.04274 3.8326 4.17074V3C3.8326 2.724 4.05727 2.5 4.3326 2.5H11.6659C11.9413 2.5 12.1659 2.724 12.1659 3V4.17464C12.1666 5.04331 11.9918 5.14326 11.4125 5.47526Z" fill="#3B3B3E"/>
</svg>
