<svg width="16" height="16" viewBox="0 0 16 16" fill="none" xmlns="http://www.w3.org/2000/svg">
<path d="M13.6667 6.16634C14.494 6.16634 15.1667 5.49367 15.1667 4.66634C15.1667 3.83901 14.494 3.16634 13.6667 3.16634C13.016 3.16634 12.466 3.58567 12.2587 4.16634H9.82003C9.75536 3.33034 9.21339 2.83301 8.33272 2.83301H7.66606C6.78539 2.83301 6.24404 3.33034 6.17871 4.16634H3.74003C3.5327 3.58567 2.98336 3.16634 2.33203 3.16634C1.5047 3.16634 0.832031 3.83901 0.832031 4.66634C0.832031 5.49367 1.5047 6.16634 2.33203 6.16634C2.9827 6.16634 3.5327 5.74701 3.74003 5.16634H4.80269C3.63736 6.07301 2.96005 7.57167 2.86072 9.51033C2.00805 9.565 1.49939 10.109 1.49939 10.9997V11.6663C1.49939 12.6057 2.06006 13.1663 2.99939 13.1663H3.66606C4.60539 13.1663 5.16606 12.6057 5.16606 11.6663V10.9997C5.16606 10.1243 4.67402 9.58434 3.84802 9.51367C3.92669 8.129 4.38937 6.21567 6.22937 5.47833C6.39404 6.123 6.90206 6.49967 7.66606 6.49967H8.33272C9.09739 6.49967 9.6047 6.12367 9.76937 5.47833C11.6094 6.21567 12.072 8.129 12.1507 9.51367C11.324 9.58367 10.8327 10.1243 10.8327 10.9997V11.6663C10.8327 12.6057 11.3934 13.1663 12.3327 13.1663H12.9994C13.9387 13.1663 14.4994 12.6057 14.4994 11.6663V10.9997C14.4994 10.109 13.9907 9.565 13.138 9.51033C13.0387 7.57167 12.3614 6.07301 11.196 5.16634H12.2587C12.466 5.74701 13.016 6.16634 13.6667 6.16634ZM4.16671 10.9997V11.6663C4.16671 12.059 4.05937 12.1663 3.66671 12.1663H3.00004C2.60737 12.1663 2.50004 12.059 2.50004 11.6663V10.9997C2.50004 10.607 2.60737 10.4997 3.00004 10.4997H3.66671C4.05937 10.4997 4.16671 10.607 4.16671 10.9997ZM13.5 10.9997V11.6663C13.5 12.059 13.3927 12.1663 13 12.1663H12.3334C11.9407 12.1663 11.8334 12.059 11.8334 11.6663V10.9997C11.8334 10.607 11.9407 10.4997 12.3334 10.4997H13C13.3927 10.4997 13.5 10.607 13.5 10.9997ZM13.6667 4.16634C13.9427 4.16634 14.1667 4.39034 14.1667 4.66634C14.1667 4.94234 13.9427 5.16634 13.6667 5.16634C13.3907 5.16634 13.1667 4.94234 13.1667 4.66634C13.1667 4.39034 13.3907 4.16634 13.6667 4.16634ZM2.33337 5.16634C2.05737 5.16634 1.83337 4.94234 1.83337 4.66634C1.83337 4.39034 2.05737 4.16634 2.33337 4.16634C2.60937 4.16634 2.83337 4.39034 2.83337 4.66634C2.83337 4.94234 2.60937 5.16634 2.33337 5.16634ZM8.83337 4.99967C8.83337 5.39234 8.72604 5.49967 8.33337 5.49967H7.66671C7.27404 5.49967 7.16671 5.39234 7.16671 4.99967V4.33301C7.16671 3.94034 7.27404 3.83301 7.66671 3.83301H8.33337C8.72604 3.83301 8.83337 3.94034 8.83337 4.33301V4.99967Z" fill="#3B3B3E"/>
</svg>
