<svg width="16" height="16" viewBox="0 0 16 16" fill="none" xmlns="http://www.w3.org/2000/svg">
<path d="M3.32658 12.4979C2.99925 12.4979 2.67258 12.4146 2.37858 12.2479C1.79525 11.9152 1.44727 11.3239 1.44727 10.6646V5.33645C1.44727 4.67712 1.79525 4.08512 2.37858 3.75312C2.97458 3.41379 3.71256 3.41988 4.30322 3.76988L8.92196 6.50979C9.45996 6.82913 9.7806 7.38585 9.7806 8.00051C9.7806 8.61518 9.45996 9.1719 8.92196 9.49124L4.30322 12.2311C4.00322 12.4085 3.66525 12.4979 3.32658 12.4979ZM3.32658 4.49986C3.17191 4.49986 3.01596 4.5406 2.87329 4.62193C2.60262 4.77593 2.44661 5.03645 2.44661 5.33645V10.6646C2.44661 10.9646 2.60196 11.2246 2.87329 11.3793C3.16396 11.5446 3.50723 11.5411 3.79256 11.3711L8.41121 8.63121C8.64588 8.49254 8.7806 8.26251 8.7806 8.00051C8.7806 7.73851 8.64588 7.50915 8.41121 7.36982L3.79256 4.62991C3.6479 4.54258 3.48725 4.49986 3.32658 4.49986ZM11.7806 11.6665V4.3332C11.7806 4.0572 11.5566 3.8332 11.2806 3.8332C11.0046 3.8332 10.7806 4.0572 10.7806 4.3332V11.6665C10.7806 11.9425 11.0046 12.1665 11.2806 12.1665C11.5566 12.1665 11.7806 11.9425 11.7806 11.6665ZM14.4473 11.6665V4.3332C14.4473 4.0572 14.2233 3.8332 13.9473 3.8332C13.6713 3.8332 13.4473 4.0572 13.4473 4.3332V11.6665C13.4473 11.9425 13.6713 12.1665 13.9473 12.1665C14.2233 12.1665 14.4473 11.9425 14.4473 11.6665Z" fill="#3B3B3E"/>
</svg>
