<svg width="16" height="16" viewBox="0 0 16 16" fill="none" xmlns="http://www.w3.org/2000/svg">
<path d="M11.6867 11.6864C11.5894 11.7837 11.4613 11.833 11.3333 11.833C11.2053 11.833 11.0773 11.7844 10.98 11.6864L4.5 5.20638V7.99967C4.5 8.27567 4.276 8.49967 4 8.49967C3.724 8.49967 3.5 8.27567 3.5 7.99967V3.99967C3.5 3.93434 3.5134 3.8696 3.53874 3.80827C3.5894 3.68627 3.68674 3.58893 3.80941 3.5376C3.87074 3.51226 3.93532 3.49902 4.00065 3.49902H8.00065C8.27665 3.49902 8.50065 3.72302 8.50065 3.99902C8.50065 4.27502 8.27665 4.49902 8.00065 4.49902H5.20801L11.688 10.979C11.882 11.175 11.882 11.491 11.6867 11.6864Z" fill="#3B3B3E"/>
</svg>
