<svg width="16" height="16" viewBox="0 0 16 16" fill="none" xmlns="http://www.w3.org/2000/svg">
<path d="M7.99998 14.4997C5.15131 14.4997 2.83331 12.1817 2.83331 9.33299C2.83331 5.12432 7.51064 1.735 7.70931 1.593C7.88331 1.469 8.11665 1.469 8.29065 1.593C8.48932 1.735 13.1666 5.12432 13.1666 9.33299C13.1666 12.1817 10.8486 14.4997 7.99998 14.4997ZM7.99998 2.63033C7.00998 3.421 3.83331 6.20099 3.83331 9.33299C3.83331 11.6303 5.70265 13.4997 7.99998 13.4997C10.2973 13.4997 12.1666 11.6303 12.1666 9.33299C12.1666 6.20099 8.98998 3.42033 7.99998 2.63033Z" fill="#3B3B3E"/>
</svg>
