<svg width="16" height="16" viewBox="0 0 16 16" fill="none" xmlns="http://www.w3.org/2000/svg">
<path d="M6.67269 7.16667C5.11002 7.16667 3.83936 5.89533 3.83936 4.33333C3.83936 2.77133 5.11002 1.5 6.67269 1.5C8.23536 1.5 9.50602 2.77133 9.50602 4.33333C9.50602 5.89533 8.23536 7.16667 6.67269 7.16667ZM6.67269 2.5C5.66136 2.5 4.83936 3.322 4.83936 4.33333C4.83936 5.34467 5.66136 6.16667 6.67269 6.16667C7.68402 6.16667 8.50602 5.34467 8.50602 4.33333C8.50602 3.322 7.68336 2.5 6.67269 2.5ZM7.33333 14.5H4C2.388 14.5 1.5 13.6167 1.5 12.0133C1.5 10.2387 2.504 8.16667 5.33333 8.16667H8C8.28067 8.16667 8.52468 8.18397 8.74601 8.21997C9.01868 8.2633 9.20466 8.51998 9.15999 8.79264C9.11666 9.06531 8.85399 9.25071 8.58732 9.20671C8.41932 9.17937 8.22733 9.16667 8 9.16667H5.33333C2.70467 9.16667 2.5 11.346 2.5 12.0133C2.5 13.0553 2.94867 13.5 4 13.5H7.33333C7.60933 13.5 7.83333 13.724 7.83333 14C7.83333 14.276 7.60933 14.5 7.33333 14.5ZM12 15.1193C11.9307 15.1193 11.8607 15.1047 11.7953 15.076C11.6933 15.03 9.28599 13.932 8.89266 11.9386C8.73399 11.1353 8.8893 10.3733 9.32064 9.84668C9.68197 9.40468 10.1994 9.17 10.818 9.16667C10.8214 9.16667 10.8246 9.16667 10.8273 9.16667C11.3406 9.16667 11.7267 9.37671 12 9.64071C12.2733 9.37671 12.6594 9.16667 13.172 9.16667C13.1754 9.16667 13.178 9.16667 13.1813 9.16667C13.8006 9.16933 14.3187 9.40403 14.6794 9.84603C15.11 10.372 15.266 11.1346 15.108 11.9386H15.1073C14.714 13.932 12.3073 15.03 12.2047 15.076C12.1393 15.1047 12.0693 15.1193 12 15.1193ZM10.8267 10.1667C10.8253 10.1667 10.8247 10.1667 10.8233 10.1667C10.508 10.168 10.2627 10.2733 10.094 10.4793C9.85733 10.77 9.77471 11.2426 9.87337 11.744C10.11 12.944 11.4753 13.7787 11.9993 14.0593C12.5233 13.7793 13.8887 12.944 14.1253 11.7446C14.2233 11.242 14.1414 10.7687 13.9047 10.4793C13.736 10.2733 13.4906 10.1687 13.1746 10.1667C13.174 10.1667 13.1726 10.1667 13.1713 10.1667C12.6793 10.1667 12.4907 10.6473 12.4707 10.7026C12.3987 10.9006 12.2093 11.0347 11.9993 11.0347C11.998 11.0347 11.996 11.0347 11.994 11.0347C11.782 11.0327 11.5926 10.8987 11.5253 10.698C11.5086 10.6473 11.3193 10.1667 10.8267 10.1667ZM14.6167 11.8413H14.6234H14.6167Z" fill="#3B3B3E"/>
</svg>
