<svg width="16" height="16" viewBox="0 0 16 16" fill="none" xmlns="http://www.w3.org/2000/svg">
<path d="M9.58531 13.5853C9.25131 14.158 8.65865 14.5 7.99999 14.5C7.34132 14.5 6.74933 14.158 6.41466 13.5853C6.27599 13.3473 6.35599 13.0407 6.59465 12.902C6.83199 12.7627 7.13865 12.8433 7.27865 13.082C7.58465 13.6067 8.41532 13.6067 8.72132 13.082C8.86065 12.8433 9.16732 12.7627 9.40532 12.902C9.64399 13.0407 9.72398 13.3473 9.58531 13.5853ZM13.7833 12.2167C13.7 12.3893 13.5253 12.5 13.3333 12.5H2.66665C2.47465 12.5 2.29999 12.3893 2.21666 12.2167C2.13333 12.0433 2.15665 11.838 2.27599 11.688C2.28865 11.6727 3.50332 10.126 3.50332 8.33333V5.99666C3.50332 3.51733 5.52065 1.5 7.99999 1.5C10.4793 1.5 12.4966 3.51733 12.4966 5.99666V8.33333C12.4966 10.126 13.7113 11.6727 13.724 11.688C13.8433 11.838 13.8666 12.0433 13.7833 12.2167ZM12.4087 11.5C11.996 10.772 11.4966 9.62467 11.4966 8.33333V5.99666C11.4966 4.06866 9.92799 2.5 7.99999 2.5C6.07199 2.5 4.50332 4.06866 4.50332 5.99666V8.33333C4.50332 9.62467 4.00332 10.772 3.59132 11.5H12.4087ZM9.33332 6.83333H8.49999V6C8.49999 5.724 8.27599 5.5 7.99999 5.5C7.72399 5.5 7.49999 5.724 7.49999 6V6.83333H6.66665C6.39065 6.83333 6.16665 7.05733 6.16665 7.33333C6.16665 7.60933 6.39065 7.83333 6.66665 7.83333H7.49999V8.66667C7.49999 8.94267 7.72399 9.16667 7.99999 9.16667C8.27599 9.16667 8.49999 8.94267 8.49999 8.66667V7.83333H9.33332C9.60932 7.83333 9.83332 7.60933 9.83332 7.33333C9.83332 7.05733 9.60932 6.83333 9.33332 6.83333Z" fill="#3B3B3E"/>
</svg>
