<svg width="16" height="16" viewBox="0 0 16 16" fill="none" xmlns="http://www.w3.org/2000/svg">
<path d="M8.00016 15.1663C4.04816 15.1663 0.833496 11.9517 0.833496 7.99967C0.833496 4.04767 4.04816 0.833008 8.00016 0.833008C11.9522 0.833008 15.1668 4.04767 15.1668 7.99967C15.1668 11.9517 11.9522 15.1663 8.00016 15.1663ZM8.00016 1.83301C4.5995 1.83301 1.8335 4.59901 1.8335 7.99967C1.8335 11.4003 4.5995 14.1663 8.00016 14.1663C11.4008 14.1663 14.1668 11.4003 14.1668 7.99967C14.1668 4.59901 11.4008 1.83301 8.00016 1.83301ZM8.84684 5.33301C8.84684 4.87301 8.47351 4.49967 8.01351 4.49967H8.00684C7.54684 4.49967 7.17684 4.87301 7.17684 5.33301C7.17684 5.79301 7.55284 6.16634 8.01351 6.16634C8.47418 6.16634 8.84684 5.79301 8.84684 5.33301ZM8.84684 7.99967C8.84684 7.53967 8.47351 7.16634 8.01351 7.16634H8.00684C7.54684 7.16634 7.17684 7.53967 7.17684 7.99967C7.17684 8.45967 7.55284 8.83301 8.01351 8.83301C8.47418 8.83301 8.84684 8.45967 8.84684 7.99967ZM8.84684 10.6663C8.84684 10.2063 8.47351 9.83301 8.01351 9.83301H8.00684C7.54684 9.83301 7.17684 10.2063 7.17684 10.6663C7.17684 11.1263 7.55284 11.4997 8.01351 11.4997C8.47418 11.4997 8.84684 11.1263 8.84684 10.6663Z" fill="#3B3B3E"/>
</svg>
