<svg width="16" height="16" viewBox="0 0 16 16" fill="none" xmlns="http://www.w3.org/2000/svg">
<path d="M15.1668 7.99967C15.1668 7.51967 15.1202 7.053 15.0268 6.59967C15.0268 6.59967 15.0268 6.59967 15.0268 6.59301C14.7602 5.24634 14.1068 4.03301 13.1935 3.07301C13.1735 3.04634 13.1602 3.033 13.1335 3.00634C11.8335 1.66634 10.0135 0.833008 8.00016 0.833008C5.98683 0.833008 4.22017 1.64634 2.92017 2.953C2.92017 2.953 2.92016 2.95301 2.91349 2.95968C2.24683 3.63301 1.7135 4.43967 1.3535 5.33301C1.34683 5.34634 1.34016 5.36635 1.3335 5.37968C1.0135 6.19301 0.833496 7.07301 0.833496 7.99967C0.833496 11.213 2.96015 13.9463 5.88682 14.8463C5.89349 14.8463 5.90683 14.8463 5.91349 14.8463C6.57349 15.0463 7.2735 15.1597 8.00016 15.1597C8.18683 15.1597 8.36683 15.1463 8.54683 15.133C8.54683 15.133 8.54682 15.133 8.55349 15.133C12.2402 14.8463 15.1602 11.7597 15.1602 7.99301L15.1668 7.99967ZM8.02016 7.433C7.34016 7.04634 6.70683 6.59968 6.12683 6.08634C7.74683 4.63968 9.8135 3.83967 12.0002 3.83967C12.1868 3.83967 12.3735 3.85301 12.5535 3.86634C13.1535 4.52634 13.6202 5.313 13.8935 6.193C13.7135 6.18634 13.5268 6.17968 13.3335 6.17968C11.4802 6.17968 9.65349 6.61967 8.02016 7.44634V7.433ZM3.2135 4.11967C4.26683 5.853 5.72682 7.27967 7.49349 8.27967C7.47349 9.11967 7.3535 9.95301 7.14683 10.753C4.90683 9.77301 3.14017 7.87968 2.34017 5.57301C2.56684 5.04634 2.86682 4.55967 3.22015 4.11967H3.2135ZM11.4068 2.85967C9.17349 2.993 7.08016 3.87301 5.41349 5.37968C4.84683 4.77301 4.35349 4.09967 3.93349 3.37301C5.02016 2.41967 6.44016 1.83301 8.00016 1.83301C9.26016 1.83301 10.4268 2.213 11.4068 2.85967ZM1.8335 7.99967C1.8335 7.69301 1.86015 7.393 1.90682 7.09967C2.95349 9.153 4.70682 10.7997 6.84682 11.7063C6.58682 12.4197 6.24683 13.113 5.8335 13.7597C3.50016 12.8797 1.8335 10.633 1.8335 7.99301V7.99967ZM6.8335 14.053C7.28683 13.293 7.65351 12.4863 7.92684 11.6463C7.92684 11.633 7.94017 11.6263 7.94684 11.613C7.94684 11.5997 7.94684 11.593 7.94684 11.5797C8.28017 10.533 8.46017 9.43301 8.48684 8.31301C9.22684 7.93968 10.0068 7.65301 10.8135 7.45968C10.8268 7.64634 10.8335 7.82635 10.8335 7.99301C10.8335 10.313 9.94016 12.4863 8.32682 14.1463C8.22016 14.1463 8.1135 14.1597 8.00016 14.1597C7.60016 14.1597 7.2135 14.1197 6.8335 14.0463V14.053ZM9.87349 13.873C11.1402 12.1863 11.8335 10.153 11.8335 7.99967C11.8335 7.77301 11.8202 7.53301 11.8068 7.27967C12.3135 7.20634 12.8202 7.16634 13.3335 7.16634C13.6068 7.16634 13.8602 7.17968 14.1068 7.19968C14.1402 7.45968 14.1668 7.72634 14.1668 7.99967C14.1668 10.7463 12.3602 13.0797 9.87349 13.873Z" fill="#3B3B3E"/>
</svg>
