<svg width="16" height="16" viewBox="0 0 16 16" fill="none" xmlns="http://www.w3.org/2000/svg">
<path d="M12 4.16667H11.8333V3.33333C11.8333 3.20067 11.7807 3.07331 11.6867 2.97998L10.3534 1.64665C10.2594 1.55265 10.1327 1.5 10 1.5H5.33333C4.69 1.5 4.16667 2.02333 4.16667 2.66667V4.16667H4C2.388 4.16667 1.5 5.05467 1.5 6.66667V10.3333C1.5 11.1607 2.17333 11.8333 3 11.8333H4.16667V13.3333C4.16667 13.9767 4.69 14.5 5.33333 14.5H10.6667C11.31 14.5 11.8333 13.9767 11.8333 13.3333V11.8333H13C13.8267 11.8333 14.5 11.1607 14.5 10.3333V6.66667C14.5 5.05467 13.612 4.16667 12 4.16667ZM5.16667 2.66667C5.16667 2.57467 5.24133 2.5 5.33333 2.5H9.79264L10.8333 3.54069V4.16667H5.16667V2.66667ZM10.8333 13.3333C10.8333 13.4253 10.7587 13.5 10.6667 13.5H5.33333C5.24133 13.5 5.16667 13.4253 5.16667 13.3333V10.5H10.8333V13.3333ZM13.5 10.3333C13.5 10.6093 13.2753 10.8333 13 10.8333H11.8333V10C11.8333 9.724 11.6093 9.5 11.3333 9.5H4.66667C4.39067 9.5 4.16667 9.724 4.16667 10V10.8333H3C2.72467 10.8333 2.5 10.6093 2.5 10.3333V6.66667C2.5 5.61533 2.94867 5.16667 4 5.16667H12C13.0513 5.16667 13.5 5.61533 13.5 6.66667V10.3333ZM12 7.33333C12 7.70133 11.7013 8 11.3333 8C10.9653 8 10.6667 7.70133 10.6667 7.33333C10.6667 6.96533 10.9653 6.66667 11.3333 6.66667C11.7013 6.66667 12 6.96533 12 7.33333Z" fill="#3B3B3E"/>
</svg>
