<svg width="16" height="16" viewBox="0 0 16 16" fill="none" xmlns="http://www.w3.org/2000/svg">
<path d="M14.3181 6.05619L9.37667 1.99223C8.57867 1.33756 7.42207 1.33689 6.62407 1.99223L1.68274 6.05554C1.47008 6.23087 1.43872 6.54556 1.61406 6.75956C1.78939 6.97356 2.10541 7.00291 2.31808 6.82825L2.83338 6.40425V11.9995C2.83338 13.6115 3.72138 14.4996 5.33338 14.4996H10.6667C12.2787 14.4996 13.1667 13.6115 13.1667 11.9995V6.40425L13.682 6.82825C13.7753 6.90491 13.888 6.94218 14 6.94218C14.144 6.94218 14.2874 6.88021 14.386 6.76021C14.562 6.54621 14.5307 6.23152 14.3181 6.05619ZM12.1667 11.9995C12.1667 13.0509 11.718 13.4996 10.6667 13.4996H5.33338C4.28204 13.4996 3.83338 13.0509 3.83338 11.9995V5.58223L7.2594 2.76558C7.68807 2.41292 8.31275 2.41292 8.74142 2.76558L12.1674 5.58288V11.9995H12.1667ZM7.92941 8.61495L8.77674 9.46081L10.314 7.9709C10.5093 7.77557 10.826 7.77557 11.0214 7.9709C11.2167 8.16624 11.2167 8.48293 11.0214 8.67826L9.53137 10.1682C9.33671 10.3628 9.07739 10.4709 8.80139 10.4709C8.80139 10.4709 8.80141 10.4709 8.80074 10.4709C8.52541 10.4709 8.26601 10.3635 8.07068 10.1688L7.22335 9.32295L5.68738 10.8109C5.59005 10.9082 5.46203 10.9576 5.33403 10.9576C5.20603 10.9576 5.07801 10.9089 4.98068 10.8109C4.78534 10.6156 4.78534 10.2989 4.98068 10.1036L6.46871 8.6156C6.87205 8.2136 7.52674 8.21295 7.92941 8.61495Z" fill="#3B3B3E"/>
</svg>
