<svg width="16" height="16" viewBox="0 0 16 16" fill="none" xmlns="http://www.w3.org/2000/svg">
<path d="M12.6665 4.5H8.55986L8.96651 2.88C9.01985 2.66 9.21983 2.5 9.45317 2.5H11.3398C11.6132 2.5 11.8398 2.27333 11.8398 2C11.8398 1.72667 11.6132 1.5 11.3398 1.5H9.45317C8.7665 1.5 8.1665 1.96666 7.99984 2.63333L7.53316 4.5H3.33984C3.06651 4.5 2.83984 4.72667 2.83984 5C2.83984 5.27333 3.06651 5.5 3.33984 5.5H3.59318L4.41984 13.16C4.49984 13.9267 5.13983 14.5 5.91317 14.5H10.1132C10.8798 14.5 11.5198 13.9267 11.6065 13.16L12.4332 5.5H12.6865C12.9599 5.5 13.1865 5.27333 13.1865 5C13.1865 4.72667 12.9599 4.5 12.6865 4.5H12.6665ZM10.5932 13.0533C10.5665 13.3067 10.3532 13.5 10.0999 13.5H5.89982C5.64649 13.5 5.43316 13.3067 5.40649 13.0533L4.87984 8.16667H11.1265L10.5999 13.0533H10.5932ZM11.2265 7.16667H4.76652L4.58651 5.5H11.4065L11.2265 7.16667Z" fill="#3B3B3E"/>
</svg>
