<svg width="16" height="16" viewBox="0 0 16 16" fill="none" xmlns="http://www.w3.org/2000/svg">
<path d="M8.00004 0.833008C4.04804 0.833008 0.833374 4.04834 0.833374 7.99967C0.833374 11.951 4.04804 15.1663 8.00004 15.1663C11.952 15.1663 15.1667 11.951 15.1667 7.99967C15.1667 4.04834 11.952 0.833008 8.00004 0.833008ZM8.00004 14.1663C4.59937 14.1663 1.83337 11.4003 1.83337 7.99967C1.83337 4.59901 4.59937 1.83301 8.00004 1.83301C11.4007 1.83301 14.1667 4.59901 14.1667 7.99967C14.1667 11.4003 11.4007 14.1663 8.00004 14.1663ZM7.56738 3.07434C5.03805 3.29434 3.05605 5.45767 3.05605 7.99967C3.05605 10.5417 5.03805 12.7057 7.56738 12.925C7.59138 12.927 7.61538 12.9283 7.63938 12.9283C7.85005 12.9283 8.05603 12.8483 8.2147 12.703C8.39603 12.5363 8.50071 12.3003 8.50071 12.0543V3.94434C8.50071 3.69834 8.3967 3.46234 8.2147 3.29567C8.03803 3.13434 7.79938 3.05301 7.56738 3.07434ZM7.50004 11.913C5.55604 11.6657 4.05538 9.97634 4.05538 7.99967C4.05538 6.02367 5.55604 4.33368 7.50004 4.08634V11.913Z" fill="#3B3B3E"/>
</svg>
