<svg width="16" height="16" viewBox="0 0 16 16" fill="none" xmlns="http://www.w3.org/2000/svg">
<path d="M11.75 1.5H4.25C2.47667 1.5 1.5 2.47667 1.5 4.25V11.75C1.5 13.5233 2.47667 14.5 4.25 14.5H11.75C13.5233 14.5 14.5 13.5233 14.5 11.75V4.25C14.5 2.47667 13.5233 1.5 11.75 1.5ZM11.1667 5.83333H13.5V7.5H11.1667V5.83333ZM10.1667 7.5H5.83333V2.5H10.1667V7.5ZM4.83333 7.5H2.5V5.83333H4.83333V7.5ZM2.5 8.5H4.83333V10.1667H2.5V8.5ZM5.83333 8.5H10.1667V13.5H5.83333V8.5ZM11.1667 8.5H13.5V10.1667H11.1667V8.5ZM13.5 4.25V4.83333H11.1667V2.5H11.75C12.9767 2.5 13.5 3.02333 13.5 4.25ZM4.25 2.5H4.83333V4.83333H2.5V4.25C2.5 3.02333 3.02333 2.5 4.25 2.5ZM2.5 11.75V11.1667H4.83333V13.5H4.25C3.02333 13.5 2.5 12.9767 2.5 11.75ZM11.75 13.5H11.1667V11.1667H13.5V11.75C13.5 12.9767 12.9767 13.5 11.75 13.5Z" fill="#3B3B3E"/>
</svg>
