<svg width="16" height="16" viewBox="0 0 16 16" fill="none" xmlns="http://www.w3.org/2000/svg">
<path d="M14.5 7.33301V9.33301C14.5 9.60901 14.276 9.83301 14 9.83301C13.724 9.83301 13.5 9.60901 13.5 9.33301V7.33301C13.5 7.05701 13.724 6.83301 14 6.83301C14.276 6.83301 14.5 7.05701 14.5 7.33301ZM4 6.49967C3.724 6.49967 3.5 6.72367 3.5 6.99967V9.66634C3.5 9.94234 3.724 10.1663 4 10.1663C4.276 10.1663 4.5 9.94234 4.5 9.66634V6.99967C4.5 6.72367 4.276 6.49967 4 6.49967ZM5.66667 6.49967C5.39067 6.49967 5.16667 6.72367 5.16667 6.99967V9.66634C5.16667 9.94234 5.39067 10.1663 5.66667 10.1663C5.94267 10.1663 6.16667 9.94234 6.16667 9.66634V6.99967C6.16667 6.72367 5.94267 6.49967 5.66667 6.49967ZM7.33333 6.49967C7.05733 6.49967 6.83333 6.72367 6.83333 6.99967V9.66634C6.83333 9.94234 7.05733 10.1663 7.33333 10.1663C7.60933 10.1663 7.83333 9.94234 7.83333 9.66634V6.99967C7.83333 6.72367 7.60933 6.49967 7.33333 6.49967ZM9 6.49967C8.724 6.49967 8.5 6.72367 8.5 6.99967V9.66634C8.5 9.94234 8.724 10.1663 9 10.1663C9.276 10.1663 9.5 9.94234 9.5 9.66634V6.99967C9.5 6.72367 9.276 6.49967 9 6.49967ZM10.6667 6.49967C10.3907 6.49967 10.1667 6.72367 10.1667 6.99967V9.66634C10.1667 9.94234 10.3907 10.1663 10.6667 10.1663C10.9427 10.1663 11.1667 9.94234 11.1667 9.66634V6.99967C11.1667 6.72367 10.9427 6.49967 10.6667 6.49967ZM13.1667 6.33301V10.333C13.1667 11.2723 12.606 11.833 11.6667 11.833H3C2.06067 11.833 1.5 11.2723 1.5 10.333V6.33301C1.5 5.39367 2.06067 4.83301 3 4.83301H11.6667C12.606 4.83301 13.1667 5.39367 13.1667 6.33301ZM12.1667 6.33301C12.1667 5.94034 12.0593 5.83301 11.6667 5.83301H3C2.60733 5.83301 2.5 5.94034 2.5 6.33301V10.333C2.5 10.7257 2.60733 10.833 3 10.833H11.6667C12.0593 10.833 12.1667 10.7257 12.1667 10.333V6.33301Z" fill="#3B3B3E"/>
</svg>
