<svg width="16" height="16" viewBox="0 0 16 16" fill="none" xmlns="http://www.w3.org/2000/svg">
<path d="M14.5 11.9997C14.5 12.2757 14.276 12.4997 14 12.4997H10.6667C10.3907 12.4997 10.1667 12.2757 10.1667 11.9997C10.1667 11.7237 10.3907 11.4997 10.6667 11.4997H14C14.276 11.4997 14.5 11.7237 14.5 11.9997ZM8.60727 13.4617C7.6406 13.579 6.60332 13.409 5.70932 12.9937C5.31799 12.8064 4.85135 12.7837 4.38868 12.931L2.72332 13.4904C2.63999 13.5184 2.57993 13.4757 2.55193 13.4477C2.52393 13.4197 2.48129 13.3604 2.50929 13.277L3.07195 11.603C3.21662 11.1477 3.19331 10.6817 3.00864 10.2944C2.67731 9.58102 2.50197 8.78767 2.50197 7.99833C2.50197 4.96633 4.96866 2.49902 8.00066 2.49902C11.0333 2.49902 13.5 4.96567 13.5 7.99833C13.5 8.27433 13.724 8.49833 14 8.49833C14.276 8.49833 14.5 8.27433 14.5 7.99833C14.5 4.415 11.5847 1.49902 8.00066 1.49902C4.41733 1.49902 1.50197 4.41433 1.50197 7.99833C1.50197 8.93167 1.70937 9.871 2.10337 10.7203C2.18003 10.8823 2.18595 11.0877 2.12062 11.2924L1.56007 12.9597C1.42007 13.381 1.52874 13.839 1.84474 14.1543C2.06874 14.3783 2.36462 14.4983 2.66928 14.4983C2.79328 14.4983 2.91804 14.4783 3.0407 14.4377L4.70004 13.8803C4.91204 13.8123 5.11804 13.8183 5.28338 13.897C6.35138 14.393 7.58074 14.5924 8.72674 14.4537C9.0014 14.4204 9.19594 14.171 9.16261 13.897C9.12994 13.6237 8.8766 13.4297 8.60727 13.4617ZM8.00669 7.33301C7.63869 7.33301 7.34327 7.63167 7.34327 7.99967C7.34327 8.36767 7.64536 8.66634 8.01336 8.66634C8.38203 8.66634 8.68003 8.36767 8.68003 7.99967C8.68003 7.63167 8.38203 7.33301 8.01336 7.33301H8.00669ZM10.68 8.66634C11.0487 8.66634 11.3467 8.36767 11.3467 7.99967C11.3467 7.63167 11.0487 7.33301 10.68 7.33301H10.6734C10.3054 7.33301 10.0099 7.63167 10.0099 7.99967C10.0099 8.36767 10.312 8.66634 10.68 8.66634ZM5.34002 7.33301C4.97202 7.33301 4.67661 7.63167 4.67661 7.99967C4.67661 8.36767 4.97869 8.66634 5.34669 8.66634C5.71536 8.66634 6.01336 8.36767 6.01336 7.99967C6.01336 7.63167 5.71536 7.33301 5.34669 7.33301H5.34002Z" fill="#3B3B3E"/>
</svg>
