<svg width="16" height="16" viewBox="0 0 16 16" fill="none" xmlns="http://www.w3.org/2000/svg">
<path d="M14.5 8.00326C14.5 7.04659 13.9754 6.19729 13.158 5.77262C13.164 5.69996 13.1667 5.62467 13.1667 5.54867C13.1667 4.068 12.1307 3.36461 11.6587 3.12061C11.3814 2.45994 10.6473 1.5 9.33333 1.5C8.818 1.5 8.34 1.74199 8 2.11133C7.66 1.74266 7.182 1.5 6.66667 1.5C5.352 1.5 4.61864 2.45994 4.34131 3.12061C3.86931 3.36461 2.83333 4.068 2.83333 5.54867C2.83333 5.62533 2.83596 5.69996 2.84196 5.77262C2.02463 6.19729 1.5 7.04659 1.5 8.00326C1.5 8.34659 1.64929 8.77736 1.75863 9.04736C1.64263 9.29803 1.5 9.71598 1.5 10.258C1.5 11.6233 2.44736 12.7927 3.7487 13.0954C4.15403 14.004 4.94333 14.5 6 14.5C6.85933 14.5 7.55933 14.1426 8 13.5579C8.44067 14.1426 9.14067 14.5 10 14.5C11.0567 14.5 11.846 14.004 12.2513 13.0954C13.5526 12.7927 14.5 11.6233 14.5 10.258C14.5 9.71664 14.3574 9.29803 14.2414 9.04736C14.3507 8.77803 14.5 8.34659 14.5 8.00326ZM6 13.5C5.27267 13.5 4.81131 13.1713 4.58797 12.4959C4.52731 12.3126 4.36664 12.1801 4.17464 12.1567C3.21998 12.0394 2.5 11.2233 2.5 10.258C2.5 9.70664 2.72534 9.354 2.72534 9.354C2.82534 9.208 2.84135 9.01939 2.76668 8.85872C2.65935 8.62939 2.50065 8.19859 2.50065 8.00326C2.50065 7.34592 2.93132 6.75207 3.54932 6.55941C3.80665 6.47874 3.954 6.20875 3.882 5.94808C3.85 5.83275 3.83398 5.69801 3.83398 5.54801C3.83398 4.38068 4.87136 3.97204 4.91203 3.95671C5.05936 3.90337 5.17397 3.7807 5.21997 3.6307C5.23397 3.5847 5.57998 2.49935 6.66732 2.49935C7.05265 2.49935 7.50065 2.86335 7.50065 3.33268V5.97461C7.18865 5.70661 6.91737 5.56525 6.89071 5.55192C6.64471 5.42792 6.34734 5.52859 6.22201 5.77393C6.09801 6.01993 6.19666 6.31998 6.44133 6.44531C6.45266 6.45065 7.50065 6.99935 7.50065 7.99935V9.30794C7.18865 9.03994 6.91737 8.89859 6.89071 8.88525C6.64471 8.76192 6.34734 8.86193 6.22201 9.10726C6.09801 9.35326 6.19666 9.65331 6.44133 9.77865C6.45266 9.78398 7.50065 10.3327 7.50065 11.3327V11.9993C7.49998 12.7253 7.106 13.5 6 13.5ZM13.2713 9.34928C13.274 9.35262 13.5 9.70598 13.5 10.258C13.5 11.2226 12.78 12.0394 11.8254 12.1567C11.6334 12.1807 11.4727 12.3126 11.412 12.4959C11.1887 13.1713 10.7273 13.5 10 13.5C8.894 13.5 8.5 12.7253 8.5 12V11.3333C8.5 10.3393 9.53668 9.7913 9.55868 9.7793C9.80468 9.6553 9.90401 9.35604 9.78068 9.10938C9.65668 8.86271 9.35736 8.76207 9.11003 8.88607C9.08336 8.8994 8.812 9.03993 8.5 9.30859V8C8.5 7.006 9.53668 6.45796 9.55868 6.44596C9.80468 6.32196 9.90401 6.02271 9.78068 5.77604C9.65668 5.52938 9.35736 5.42873 9.11003 5.55273C9.08336 5.56607 8.812 5.70659 8.5 5.97526V3.33333C8.5 2.864 8.948 2.5 9.33333 2.5C10.4207 2.5 10.7667 3.58541 10.78 3.62874C10.824 3.77874 10.9394 3.90071 11.0854 3.95671C11.1294 3.97337 12.1667 4.38132 12.1667 5.54932C12.1667 5.69932 12.1507 5.83405 12.1187 5.94938C12.0467 6.21005 12.194 6.48004 12.4513 6.56071C13.0693 6.75338 13.5 7.34739 13.5 8.00472C13.5 8.20005 13.3413 8.63069 13.234 8.86003C13.1606 9.01536 13.1773 9.20462 13.2713 9.34928Z" fill="#3B3B3E"/>
</svg>
