<svg width="16" height="16" viewBox="0 0 16 16" fill="none" xmlns="http://www.w3.org/2000/svg">
<path d="M12.6667 11.3337C12.6667 11.6097 12.4427 11.8337 12.1667 11.8337H10.5001C10.2241 11.8337 10.0001 11.6097 10.0001 11.3337C10.0001 11.0577 10.2241 10.8337 10.5001 10.8337H12.1667C12.4427 10.8337 12.6667 11.0577 12.6667 11.3337ZM14.5001 11.3337C14.5001 13.0797 13.0794 14.5003 11.3334 14.5003C10.5967 14.5003 9.92674 14.237 9.38874 13.8136C8.70741 14.2283 8.22871 14.4457 8.20604 14.4563C8.14004 14.4857 8.07074 14.5003 8.00007 14.5003C7.9294 14.5003 7.85871 14.4856 7.79271 14.4556C7.57471 14.3563 2.44141 11.9803 1.62141 7.74166C1.30341 6.09899 1.62276 4.49833 2.47476 3.46033C3.16476 2.62033 4.15608 2.17299 5.34341 2.16699C5.34741 2.16699 5.35211 2.16699 5.35611 2.16699C6.71477 2.16699 7.5414 2.93965 8.00007 3.59631C8.45807 2.93965 9.2854 2.16699 10.6427 2.16699C10.6467 2.16699 10.6508 2.16699 10.6554 2.16699C11.8448 2.17299 12.8374 2.61968 13.5268 3.45968C14.3781 4.49701 14.6967 6.09764 14.3781 7.74231C14.2681 8.30231 14.0748 8.85298 13.8114 9.38631C14.2361 9.92498 14.5001 10.5957 14.5001 11.3337ZM8.68806 13.0663C8.36072 12.5677 8.16674 11.9737 8.16674 11.3337C8.16674 9.58766 9.5874 8.16699 11.3334 8.16699C11.9587 8.16699 12.538 8.35499 13.0294 8.66899C13.1887 8.30099 13.3214 7.92832 13.3954 7.55098C13.6581 6.19698 13.4174 4.90432 12.7528 4.09432C12.2514 3.48365 11.5441 3.17166 10.6501 3.16699C10.6474 3.16699 10.6447 3.16699 10.6421 3.16699C9.05808 3.16699 8.49604 4.75298 8.47338 4.82031C8.40404 5.02231 8.2134 5.15967 8.00007 5.15967C7.99874 5.15967 7.99805 5.15967 7.99738 5.15967C7.78338 5.159 7.59339 5.02234 7.52473 4.81901C7.50273 4.75368 6.94071 3.16764 5.35538 3.16764C5.35271 3.16764 5.35007 3.16764 5.3474 3.16764C4.45607 3.17231 3.74938 3.48433 3.24738 4.09566C2.58205 4.907 2.34144 6.19899 2.60277 7.55233C3.23744 10.8363 7.06405 12.9677 8.00072 13.4443C8.15805 13.365 8.40006 13.235 8.68806 13.0663ZM13.5001 11.3337C13.5001 10.139 12.5281 9.16699 11.3334 9.16699C10.1387 9.16699 9.16674 10.139 9.16674 11.3337C9.16674 12.5283 10.1387 13.5003 11.3334 13.5003C12.5281 13.5003 13.5001 12.5283 13.5001 11.3337Z" fill="#3B3B3E"/>
</svg>
