<svg width="16" height="16" viewBox="0 0 16 16" fill="none" xmlns="http://www.w3.org/2000/svg">
<g clip-path="url(#clip0_36251_9030)">
<path d="M14.7198 6.8065C14.6798 6.5665 14.4732 6.38649 14.2265 6.38649H7.97319C7.69985 6.38649 7.47319 6.61316 7.47319 6.88649V9.39317C7.47319 9.6665 7.69985 9.89317 7.97319 9.89317H10.8732C10.6732 10.3198 10.3598 10.6865 9.94649 10.9665C9.39316 11.3398 8.72652 11.5265 7.97319 11.5265C6.50652 11.5265 5.19985 10.5598 4.71985 9.10651C4.59985 8.75984 4.53984 8.3865 4.53984 7.99984C4.53984 7.61317 4.59986 7.25316 4.72652 6.88649C5.20652 5.43983 6.51315 4.47316 7.97982 4.47316C8.83982 4.47316 9.57985 4.75984 10.1799 5.33317C10.3732 5.51984 10.6865 5.51983 10.8798 5.3265L12.7732 3.42651C12.8665 3.33318 12.9198 3.19984 12.9198 3.06651C12.9198 2.93317 12.8598 2.79984 12.7598 2.71318C11.4598 1.48651 9.80648 0.839844 7.97982 0.839844C5.26648 0.839844 2.82649 2.35317 1.60649 4.79317C1.09982 5.80651 0.839844 6.88651 0.839844 8.00651C0.839844 9.12651 1.09982 10.2132 1.60649 11.2198C2.82649 13.6598 5.27315 15.1732 7.97982 15.1732C9.83982 15.1732 11.4732 14.5665 12.7065 13.4265C14.0798 12.1532 14.8332 10.2798 14.8332 8.15983C14.8332 7.71983 14.7998 7.27984 14.7198 6.81984V6.8065ZM12.0199 12.6798C10.9732 13.6532 9.57319 14.1598 7.97319 14.1598C5.63985 14.1598 3.5465 12.8532 2.49316 10.7598C2.05316 9.89318 1.83317 8.95983 1.83317 7.99316C1.83317 7.0265 2.05316 6.09983 2.49316 5.2265C3.5465 3.1265 5.63985 1.8265 7.97319 1.8265C9.35985 1.8265 10.6332 2.25985 11.6799 3.09318L10.4932 4.2865C9.77983 3.7465 8.91985 3.46651 7.97319 3.46651C6.07985 3.46651 4.38649 4.71317 3.77315 6.56651C3.61982 7.03984 3.53984 7.51983 3.53984 7.99316C3.53984 8.4665 3.61982 8.97317 3.77315 9.41984C4.38649 11.2732 6.07319 12.5198 7.97319 12.5198C8.91319 12.5198 9.79318 12.2665 10.5065 11.7865C11.3132 11.2398 11.8598 10.4198 12.0465 9.47984C12.0732 9.33317 12.0398 9.17984 11.9398 9.06651C11.8465 8.95317 11.7065 8.88649 11.5532 8.88649H8.47319V7.37984H13.7932C13.8198 7.63984 13.8332 7.8865 13.8332 8.13983C13.8332 9.97983 13.1932 11.5865 12.0265 12.6732L12.0199 12.6798Z" fill="#3B3B3E"/>
</g>
<defs>
<clipPath id="clip0_36251_9030">
<rect width="16" height="16" fill="white"/>
</clipPath>
</defs>
</svg>
