<svg width="16" height="16" viewBox="0 0 16 16" fill="none" xmlns="http://www.w3.org/2000/svg">
<path d="M2.57145 14.5003C2.47479 14.5003 2.3809 14.499 2.2889 14.4957C1.95557 14.4877 1.66348 14.2743 1.54948 13.9523C1.43481 13.6283 1.52955 13.2757 1.78955 13.0544C2.41088 12.553 2.65944 11.9983 2.75944 11.6177C1.93477 10.6317 1.49951 9.38698 1.49951 8.00098C1.49951 4.56564 4.17285 2.16699 7.99951 2.16699C11.8262 2.16699 14.4995 4.56631 14.4995 8.00098C14.4995 11.4356 11.8262 13.835 7.99951 13.835C7.20818 13.835 6.44948 13.7276 5.73682 13.5156C4.82815 14.307 3.57612 14.5003 2.57145 14.5003ZM2.31885 13.4957C2.32018 13.4957 2.32142 13.4957 2.32275 13.4957C2.32075 13.4964 2.31951 13.4964 2.31885 13.4957ZM8.00016 3.16699C4.76216 3.16699 2.50016 5.15498 2.50016 8.00098C2.50016 9.22498 2.90348 10.309 3.66748 11.1357C3.77081 11.2477 3.81811 11.401 3.79411 11.5523C3.68211 12.2663 3.33023 12.9417 2.7889 13.4957C3.56223 13.4677 4.60219 13.2897 5.24219 12.607C5.37619 12.463 5.58418 12.4117 5.77018 12.4763C6.46018 12.715 7.21016 12.8357 8.00016 12.8357C11.2382 12.8357 13.5002 10.8476 13.5002 8.00163C13.5002 5.15563 11.2382 3.16699 8.00016 3.16699ZM8.00016 11.167C7.93016 11.167 7.85944 11.1523 7.79411 11.123C7.69211 11.077 5.28476 9.96832 4.89209 7.95898C4.73342 7.14632 4.89087 6.37569 5.32487 5.84635C5.6862 5.40502 6.20221 5.17031 6.81755 5.16764C6.82088 5.16764 6.82349 5.16764 6.82682 5.16764C7.34016 5.16764 7.72618 5.37902 7.99951 5.64502C8.27285 5.37902 8.65888 5.16764 9.17155 5.16764C9.17422 5.16764 9.17749 5.16764 9.18083 5.16764C9.79683 5.17031 10.3128 5.40495 10.6742 5.84562C11.1075 6.37495 11.2661 7.14498 11.1068 7.95898C10.7141 9.96832 8.30742 11.077 8.20475 11.123C8.14075 11.1523 8.07016 11.167 8.00016 11.167ZM6.82682 6.16699C6.82549 6.16699 6.8249 6.16699 6.82357 6.16699C6.51157 6.16833 6.26746 6.27367 6.0988 6.479C5.85813 6.773 5.77419 7.25502 5.87419 7.76636C6.11085 8.97836 7.47418 9.8217 7.99951 10.1064C8.52485 9.82236 9.88817 8.97902 10.1248 7.76636C10.2248 7.25369 10.1409 6.77235 9.90023 6.47835C9.73156 6.27302 9.48814 6.16834 9.1748 6.16634C9.17347 6.16634 9.17288 6.16634 9.17155 6.16634C8.68088 6.16634 8.49085 6.65298 8.47152 6.70898C8.40018 6.90765 8.21018 7.04232 7.99951 7.04232C7.99818 7.04232 7.99614 7.04232 7.99414 7.04232C7.78147 7.04032 7.59224 6.90569 7.5249 6.70369C7.50824 6.65369 7.31882 6.16699 6.82682 6.16699ZM10.6169 7.8623H10.6235H10.6169Z" fill="#3B3B3E"/>
</svg>
