<svg width="16" height="16" viewBox="0 0 16 16" fill="none" xmlns="http://www.w3.org/2000/svg">
<path d="M11.75 1.5H4.25C2.47667 1.5 1.5 2.47667 1.5 4.25V11.75C1.5 13.5233 2.47667 14.5 4.25 14.5H11.75C13.5233 14.5 14.5 13.5233 14.5 11.75V4.25C14.5 2.47667 13.5233 1.5 11.75 1.5ZM13.5 11.75C13.5 12.9767 12.9767 13.5 11.75 13.5H4.25C3.02333 13.5 2.5 12.9767 2.5 11.75V4.25C2.5 3.02333 3.02333 2.5 4.25 2.5H11.75C12.9767 2.5 13.5 3.02333 13.5 4.25V11.75ZM11.1667 6.33333C11.1667 6.60933 10.9427 6.83333 10.6667 6.83333H7.33333C7.05733 6.83333 6.83333 6.60933 6.83333 6.33333C6.83333 6.05733 7.05733 5.83333 7.33333 5.83333H10.6667C10.9427 5.83333 11.1667 6.05733 11.1667 6.33333ZM11.1667 9.66667C11.1667 9.94267 10.9427 10.1667 10.6667 10.1667H7.33333C7.05733 10.1667 6.83333 9.94267 6.83333 9.66667C6.83333 9.39067 7.05733 9.16667 7.33333 9.16667H10.6667C10.9427 9.16667 11.1667 9.39067 11.1667 9.66667ZM5.83333 6.33398C5.83333 6.60998 5.60933 6.83398 5.33333 6.83398C5.05733 6.83398 4.83333 6.60998 4.83333 6.33398C4.83333 6.05798 5.05733 5.83398 5.33333 5.83398C5.60933 5.83398 5.83333 6.05798 5.83333 6.33398ZM5.83333 9.66667C5.83333 9.94267 5.60933 10.1667 5.33333 10.1667C5.05733 10.1667 4.83333 9.94267 4.83333 9.66667C4.83333 9.39067 5.05733 9.16667 5.33333 9.16667C5.60933 9.16667 5.83333 9.39067 5.83333 9.66667Z" fill="#3B3B3E"/>
</svg>
