<svg width="16" height="16" viewBox="0 0 16 16" fill="none" xmlns="http://www.w3.org/2000/svg">
<path d="M10 8.50033H6C5.724 8.50033 5.5 8.27633 5.5 8.00033C5.5 7.72433 5.724 7.50033 6 7.50033H10C10.276 7.50033 10.5 7.72433 10.5 8.00033C10.5 8.27633 10.276 8.50033 10 8.50033ZM14.5 8.00033C14.5 5.88633 12.7807 4.16699 10.6667 4.16699H9.33333C9.05733 4.16699 8.83333 4.39099 8.83333 4.66699C8.83333 4.94299 9.05733 5.16699 9.33333 5.16699H10.6667C12.2293 5.16699 13.5 6.43766 13.5 8.00033C13.5 9.56299 12.2293 10.8337 10.6667 10.8337H9.33333C9.05733 10.8337 8.83333 11.0577 8.83333 11.3337C8.83333 11.6097 9.05733 11.8337 9.33333 11.8337H10.6667C12.7807 11.8337 14.5 10.1143 14.5 8.00033ZM7.16667 11.3337C7.16667 11.0577 6.94267 10.8337 6.66667 10.8337H5.33333C3.77067 10.8337 2.5 9.56299 2.5 8.00033C2.5 6.43766 3.77067 5.16699 5.33333 5.16699H6.66667C6.94267 5.16699 7.16667 4.94299 7.16667 4.66699C7.16667 4.39099 6.94267 4.16699 6.66667 4.16699H5.33333C3.21933 4.16699 1.5 5.88633 1.5 8.00033C1.5 10.1143 3.21933 11.8337 5.33333 11.8337H6.66667C6.94267 11.8337 7.16667 11.6097 7.16667 11.3337Z" fill="#3B3B3E"/>
</svg>
