<svg width="16" height="16" viewBox="0 0 16 16" fill="none" xmlns="http://www.w3.org/2000/svg">
<path d="M2 3.83333H4.83333V4.66667C4.83333 4.94267 5.05733 5.16667 5.33333 5.16667C5.60933 5.16667 5.83333 4.94267 5.83333 4.66667V2C5.83333 1.724 5.60933 1.5 5.33333 1.5C5.05733 1.5 4.83333 1.724 4.83333 2V2.83333H2C1.724 2.83333 1.5 3.05733 1.5 3.33333C1.5 3.60933 1.724 3.83333 2 3.83333ZM8 3.83333H14C14.276 3.83333 14.5 3.60933 14.5 3.33333C14.5 3.05733 14.276 2.83333 14 2.83333H8C7.724 2.83333 7.5 3.05733 7.5 3.33333C7.5 3.60933 7.724 3.83333 8 3.83333ZM2 8.5H8C8.276 8.5 8.5 8.276 8.5 8C8.5 7.724 8.276 7.5 8 7.5H2C1.724 7.5 1.5 7.724 1.5 8C1.5 8.276 1.724 8.5 2 8.5ZM14 7.5H11.1667V6.66667C11.1667 6.39067 10.9427 6.16667 10.6667 6.16667C10.3907 6.16667 10.1667 6.39067 10.1667 6.66667V9.33333C10.1667 9.60933 10.3907 9.83333 10.6667 9.83333C10.9427 9.83333 11.1667 9.60933 11.1667 9.33333V8.5H14C14.276 8.5 14.5 8.276 14.5 8C14.5 7.724 14.276 7.5 14 7.5ZM5.33333 10.8333C5.05733 10.8333 4.83333 11.0573 4.83333 11.3333V12.1667H2C1.724 12.1667 1.5 12.3907 1.5 12.6667C1.5 12.9427 1.724 13.1667 2 13.1667H4.83333V14C4.83333 14.276 5.05733 14.5 5.33333 14.5C5.60933 14.5 5.83333 14.276 5.83333 14V11.3333C5.83333 11.0573 5.60933 10.8333 5.33333 10.8333ZM14 12.1667H8C7.724 12.1667 7.5 12.3907 7.5 12.6667C7.5 12.9427 7.724 13.1667 8 13.1667H14C14.276 13.1667 14.5 12.9427 14.5 12.6667C14.5 12.3907 14.276 12.1667 14 12.1667Z" fill="#3B3B3E"/>
</svg>
