<svg width="16" height="16" viewBox="0 0 16 16" fill="none" xmlns="http://www.w3.org/2000/svg">
<path d="M7.16667 8.66667C7.16667 8.94267 6.94267 9.16667 6.66667 9.16667H5.83333V10C5.83333 10.276 5.60933 10.5 5.33333 10.5C5.05733 10.5 4.83333 10.276 4.83333 10V9.16667H4C3.724 9.16667 3.5 8.94267 3.5 8.66667C3.5 8.39067 3.724 8.16667 4 8.16667H4.83333V7.33333C4.83333 7.05733 5.05733 6.83333 5.33333 6.83333C5.60933 6.83333 5.83333 7.05733 5.83333 7.33333V8.16667H6.66667C6.94267 8.16667 7.16667 8.39067 7.16667 8.66667ZM14.5 8.66667V11.3333C14.5 12.9067 13.6413 14.5 12 14.5H11.8273C10.9326 14.5 10.1026 14.056 9.60661 13.312C9.58327 13.2767 9.05 12.5 8 12.5C6.93067 12.5 6.40068 13.2939 6.39535 13.3019C5.89801 14.0533 5.06662 14.5 4.16862 14.5H4C2.35867 14.5 1.5 12.9067 1.5 11.3333V8.66667C1.5 5.84867 2.93267 4.16667 5.33333 4.16667H7.5V4C7.5 3.17267 8.17333 2.5 9 2.5H9.66667C9.942 2.5 10.1667 2.276 10.1667 2C10.1667 1.724 10.3907 1.5 10.6667 1.5C10.9427 1.5 11.1667 1.724 11.1667 2C11.1667 2.82733 10.4933 3.5 9.66667 3.5H9C8.72467 3.5 8.5 3.724 8.5 4V4.16667H10.6667C13.0673 4.16667 14.5 5.84867 14.5 8.66667ZM13.5 8.66667C13.5 6.40933 12.4933 5.16667 10.6667 5.16667H5.33333C3.50667 5.16667 2.5 6.40933 2.5 8.66667V11.3333C2.5 12.3767 2.96933 13.5 4 13.5H4.16862C4.72995 13.5 5.25006 13.2206 5.56006 12.7526C5.59139 12.7039 6.39533 11.5 8 11.5C9.60533 11.5 10.4087 12.7107 10.4421 12.7627C10.7494 13.222 11.268 13.5 11.8273 13.5H12C13.0307 13.5 13.5 12.3767 13.5 11.3333V8.66667ZM9.83333 8.83333C9.46533 8.83333 9.16667 9.132 9.16667 9.5C9.16667 9.868 9.46533 10.1667 9.83333 10.1667C10.2013 10.1667 10.5 9.868 10.5 9.5C10.5 9.132 10.2013 8.83333 9.83333 8.83333ZM11.5 7.16732C11.132 7.16732 10.8333 7.46598 10.8333 7.83398C10.8333 8.20198 11.132 8.50065 11.5 8.50065C11.868 8.50065 12.1667 8.20198 12.1667 7.83398C12.1667 7.46598 11.868 7.16732 11.5 7.16732Z" fill="#3B3B3E"/>
</svg>
