<svg width="16" height="16" viewBox="0 0 16 16" fill="none" xmlns="http://www.w3.org/2000/svg">
<path d="M13.8317 5.65475L9.37699 1.99273C8.57899 1.33739 7.421 1.33673 6.623 1.99273L2.16833 5.65475C1.655 6.07675 1.41034 6.74538 1.52901 7.39938L2.49906 12.7214C2.68706 13.7514 3.58372 14.4994 4.63106 14.4994H11.3677C12.415 14.4994 13.3117 13.7514 13.4997 12.7214L14.4697 7.39938C14.5897 6.74538 14.345 6.07675 13.8317 5.65475ZM13.4864 7.2201L12.5164 12.542C12.4157 13.0967 11.9324 13.4994 11.3684 13.4994H4.63171C4.06771 13.4994 3.58501 13.0967 3.48368 12.542L2.51371 7.22075C2.45904 6.92342 2.5704 6.61938 2.8044 6.42738L7.25899 2.76543C7.47365 2.58877 7.73703 2.5007 8.00036 2.5007C8.26369 2.5007 8.52707 2.58942 8.74173 2.76608L13.1963 6.42803C13.4297 6.61936 13.541 6.92277 13.4864 7.2201ZM9.66703 8.24671V7.4994C9.66703 6.58073 8.91969 5.83273 8.00036 5.83273C7.08103 5.83273 6.33369 6.58073 6.33369 7.4994V8.24671C5.80503 8.41871 5.50036 8.86741 5.50036 9.52341V10.8094C5.50036 11.6587 6.0077 12.1667 6.8577 12.1667H9.14302C9.99302 12.1667 10.5004 11.6594 10.5004 10.8094V9.52341C10.5004 8.86741 10.1957 8.41871 9.66703 8.24671ZM8.00036 6.83273C8.36836 6.83273 8.66703 7.13207 8.66703 7.4994V8.16607H7.33369V7.4994C7.33369 7.13207 7.63236 6.83273 8.00036 6.83273ZM9.50036 10.8087C9.50036 11.1021 9.43702 11.1661 9.14302 11.1661H6.8577C6.5637 11.1661 6.50036 11.1027 6.50036 10.8087V9.52276C6.50036 9.22942 6.5637 9.16542 6.8577 9.16542H9.14302C9.43702 9.16542 9.50036 9.22876 9.50036 9.52276V10.8087Z" fill="#3B3B3E"/>
</svg>
