<svg width="16" height="16" viewBox="0 0 16 16" fill="none" xmlns="http://www.w3.org/2000/svg">
<path d="M9.94283 4.91634L4.6595 7.40234C4.33284 7.55568 4.14083 7.88839 4.17017 8.24772C4.19883 8.60772 4.44218 8.9036 4.78951 9.00293L6.06148 9.36637C6.34015 9.44637 6.55417 9.65965 6.6335 9.93831L6.99683 11.2103C7.09616 11.5576 7.39282 11.8004 7.75216 11.8298C7.77616 11.8318 7.80015 11.8324 7.82349 11.8324C8.15549 11.8324 8.45349 11.6443 8.59749 11.3397L11.0835 6.05697C11.2395 5.72497 11.1728 5.34363 10.9141 5.08496C10.6555 4.82629 10.2742 4.76034 9.94283 4.91634ZM7.85417 10.5716L7.59485 9.66374C7.41951 9.0504 6.94882 8.57963 6.33549 8.4043L5.42749 8.14502L10.0102 5.98893L7.85417 10.5716ZM8.00016 0.833008C4.04816 0.833008 0.833496 4.04767 0.833496 7.99967C0.833496 11.9517 4.04816 15.1663 8.00016 15.1663C11.9522 15.1663 15.1668 11.9517 15.1668 7.99967C15.1668 4.04767 11.9522 0.833008 8.00016 0.833008ZM8.00016 14.1663C4.5995 14.1663 1.8335 11.4003 1.8335 7.99967C1.8335 4.59901 4.5995 1.83301 8.00016 1.83301C11.4008 1.83301 14.1668 4.59901 14.1668 7.99967C14.1668 11.4003 11.4008 14.1663 8.00016 14.1663Z" fill="#3B3B3E"/>
</svg>
