<svg width="16" height="16" viewBox="0 0 16 16" fill="none" xmlns="http://www.w3.org/2000/svg">
<path d="M14.3534 5.46029C13.7668 4.87362 12.5734 4.37362 11.5201 4.48029C11.6268 3.42695 11.1268 2.23362 10.5401 1.64695C10.3468 1.45362 10.0268 1.45362 9.83342 1.64695C9.24009 2.24029 8.72676 3.46694 8.86009 4.53361C7.78676 4.31361 6.6201 4.61363 5.7801 5.44696C5.72676 5.50029 5.68676 5.54695 5.63343 5.60028C5.63343 5.60028 5.6201 5.60696 5.61343 5.61363C5.60676 5.62029 5.60675 5.62696 5.60008 5.63363C4.18008 7.07363 3.16675 8.48695 2.47342 10.0603C2.47342 10.0669 2.47343 10.0736 2.46676 10.0803C2.04676 11.0269 1.74009 12.0269 1.52676 13.1203C1.45343 13.5003 1.57341 13.8869 1.84675 14.1603C2.06675 14.3803 2.36008 14.5003 2.66008 14.5003C2.73341 14.5003 2.80676 14.4936 2.88009 14.4803C4.88009 14.0936 6.56008 13.3869 8.16008 12.2669C8.18008 12.2536 8.20675 12.2403 8.22675 12.227C8.22675 12.227 8.22675 12.2269 8.22675 12.2203C9.01342 11.6603 9.78008 11.0136 10.5534 10.2269C11.3867 9.38695 11.6868 8.22029 11.4668 7.14695C11.5801 7.16029 11.6934 7.17363 11.8134 7.17363C12.7868 7.17363 13.8201 6.70696 14.3534 6.17363C14.5468 5.98029 14.5468 5.66029 14.3534 5.46696V5.46029ZM10.1868 2.86694C10.4268 3.32694 10.6068 3.94696 10.5201 4.46696C10.4734 4.74029 10.3668 4.94695 10.1868 5.10028C10.0068 4.94695 9.90009 4.73363 9.85342 4.46696C9.76675 3.94696 9.94675 3.32694 10.1868 2.86694ZM9.84009 9.52028C9.19343 10.1736 8.55342 10.727 7.91342 11.2136L6.35342 9.65363C6.16009 9.46029 5.84009 9.46029 5.64676 9.65363C5.45342 9.84696 5.45342 10.167 5.64676 10.3603L7.08008 11.7936C5.74675 12.6403 4.34675 13.1803 2.68675 13.5003C2.62009 13.5136 2.57343 13.4803 2.54676 13.4603C2.52676 13.4403 2.49343 13.3936 2.50676 13.3203C2.66009 12.547 2.86009 11.8336 3.10676 11.1536L3.64675 11.6936C3.74675 11.7936 3.87342 11.8403 4.00009 11.8403C4.12675 11.8403 4.25342 11.7936 4.35342 11.6936C4.54675 11.5003 4.54675 11.1803 4.35342 10.987L3.52676 10.1603C4.10676 8.94695 4.90008 7.83362 5.97342 6.68695L6.97342 7.68695C7.07342 7.78695 7.20008 7.83362 7.32675 7.83362C7.45341 7.83362 7.58008 7.78695 7.68008 7.68695C7.87341 7.49362 7.87341 7.17362 7.68008 6.98029L6.68675 5.98696C7.12009 5.64696 7.64009 5.46029 8.16675 5.46029C8.77342 5.46029 9.38009 5.69363 9.84009 6.15363C10.7601 7.07363 10.7601 8.58695 9.84009 9.52028V9.52028ZM11.5268 6.14695C11.2534 6.10029 11.0468 5.99362 10.8934 5.81362C11.0468 5.63362 11.2601 5.52695 11.5268 5.48029C12.0468 5.39362 12.6668 5.57362 13.1334 5.81362C12.6734 6.05362 12.0467 6.23362 11.5334 6.14695H11.5268Z" fill="#3B3B3E"/>
</svg>
