<svg width="16" height="16" viewBox="0 0 16 16" fill="none" xmlns="http://www.w3.org/2000/svg">
<path d="M12.0001 4.16699H8.87411L7.02075 2.31366C6.92675 2.21966 6.80007 2.16699 6.6674 2.16699H4.00073C2.38873 2.16699 1.50073 3.05499 1.50073 4.66699V11.3337C1.50073 12.9457 2.38873 13.8337 4.00073 13.8337H12.0007C13.6127 13.8337 14.5007 12.9457 14.5007 11.3337V6.66699C14.5001 5.05499 13.6121 4.16699 12.0001 4.16699ZM13.5001 11.3337C13.5001 12.385 13.0514 12.8337 12.0001 12.8337H4.00008C2.94875 12.8337 2.50008 12.385 2.50008 11.3337V4.66699C2.50008 3.61566 2.94875 3.16699 4.00008 3.16699H6.45939L8.31274 5.02032C8.40674 5.11432 8.53343 5.16699 8.6661 5.16699H11.9994C13.0508 5.16699 13.4994 5.61566 13.4994 6.66699V11.3337H13.5001ZM9.33276 9.95898C9.58476 9.57432 9.73478 9.11632 9.73478 8.62366C9.73478 7.27566 8.63812 6.179 7.29012 6.179C5.94279 6.179 4.84611 7.27566 4.84611 8.62366C4.84611 9.97166 5.94279 11.0683 7.29012 11.0683C7.78345 11.0683 8.24139 10.919 8.62606 10.6663L9.65942 11.6997C9.75676 11.797 9.88478 11.8463 10.0128 11.8463C10.1408 11.8463 10.2688 11.7977 10.3661 11.6997C10.5615 11.5043 10.5615 11.1877 10.3661 10.9923L9.33276 9.95898ZM5.84611 8.62366C5.84611 7.82699 6.49412 7.179 7.29012 7.179C8.08679 7.179 8.73478 7.82699 8.73478 8.62366C8.73478 9.42032 8.08679 10.0683 7.29012 10.0683C6.49345 10.0683 5.84611 9.42032 5.84611 8.62366Z" fill="#3B3B3E"/>
</svg>
