<svg width="16" height="16" viewBox="0 0 16 16" fill="none" xmlns="http://www.w3.org/2000/svg">
<path d="M2 14.5C1.93533 14.5 1.87059 14.4873 1.80859 14.462C1.62193 14.3847 1.5 14.202 1.5 14V4C1.5 2.388 2.388 1.5 4 1.5H12C13.612 1.5 14.5 2.388 14.5 4V10C14.5 11.612 13.612 12.5 12 12.5H4.20736L2.354 14.3534C2.258 14.4494 2.13 14.5 2 14.5ZM4 2.5C2.94867 2.5 2.5 2.94867 2.5 4V12.7926L3.64665 11.646C3.74065 11.552 3.86733 11.4993 4 11.4993H12C13.0513 11.4993 13.5 11.0507 13.5 9.99935V3.99935C13.5 2.94802 13.0513 2.49935 12 2.49935H4V2.5ZM9.528 10.1667C9.39533 10.1667 9.26266 10.1353 9.13932 10.0706L8 9.47599L6.86133 10.07C6.57599 10.2193 6.23668 10.1933 5.97868 10.0033C5.72001 9.81467 5.59328 9.50202 5.64795 9.18669L5.86393 7.93604L4.91471 7.01799C4.69005 6.80065 4.61004 6.48133 4.70671 6.184C4.80337 5.886 5.05538 5.67333 5.36605 5.62866L6.68197 5.43864L7.25 4.29663C7.392 4.01063 7.67998 3.83268 8.00065 3.83268C8.32065 3.83268 8.60864 4.01063 8.7513 4.29663L9.31934 5.43864L10.6361 5.62866C10.9461 5.67266 11.1986 5.886 11.2946 6.184C11.3913 6.48133 11.3106 6.80065 11.0866 7.01799L10.1374 7.93604L10.354 9.18799C10.408 9.50332 10.2813 9.81597 10.0226 10.0046C9.87462 10.112 9.702 10.1667 9.528 10.1667ZM8 8.45337C8.12933 8.45337 8.25928 8.48398 8.37728 8.54598L9.31006 9.03263L9.13265 8.00863C9.08732 7.74329 9.1753 7.47264 9.3693 7.28597L10.1147 6.5647L9.07861 6.41536C8.81395 6.3767 8.58467 6.21067 8.46533 5.97201L7.9987 5.03402L7.53272 5.97135C7.41272 6.21069 7.18394 6.3767 6.91927 6.41536L5.88265 6.5647L6.62874 7.28597C6.82208 7.47264 6.91075 7.74331 6.86475 8.00798L6.68734 9.03133L7.61995 8.54533C7.74062 8.484 7.87067 8.45337 8 8.45337ZM10.492 6.61865H10.4987H10.492ZM7.85466 4.74268L7.85531 4.74333L7.85466 4.74268Z" fill="#3B3B3E"/>
</svg>
