<svg width="16" height="16" viewBox="0 0 16 16" fill="none" xmlns="http://www.w3.org/2000/svg">
<path d="M13.8113 9.38631C14.0746 8.85231 14.268 8.30231 14.378 7.74231C14.6966 6.09764 14.378 4.49701 13.5266 3.45968C12.838 2.61968 11.8453 2.17299 10.6553 2.16699C10.6506 2.16699 10.6466 2.16699 10.6426 2.16699C9.28527 2.16699 8.45795 2.93965 7.99995 3.59631C7.54128 2.93898 6.71465 2.16699 5.35599 2.16699C5.35199 2.16699 5.34729 2.16699 5.34329 2.16699C4.15662 2.17299 3.16464 2.62033 2.47464 3.46033C1.62264 4.49833 1.30328 6.09899 1.62128 7.74166C2.44062 11.9797 7.57459 14.3563 7.79259 14.4556C7.85859 14.4856 7.92928 14.5003 7.99995 14.5003C8.07061 14.5003 8.13992 14.4857 8.20592 14.4563C8.22859 14.4457 8.70729 14.2283 9.38862 13.8136C9.92729 14.237 10.5973 14.5003 11.3333 14.5003C13.0793 14.5003 14.4999 13.0797 14.4999 11.3337C14.4999 10.5957 14.236 9.92498 13.8113 9.38631ZM8.00125 13.4443C7.06525 12.9677 3.23797 10.8363 2.6033 7.55233C2.3413 6.19833 2.58258 4.90633 3.24791 4.09566C3.74991 3.48433 4.4566 3.17231 5.34793 3.16764C5.3506 3.16764 5.35332 3.16764 5.35599 3.16764C6.94132 3.16764 7.50326 4.75368 7.52526 4.81901C7.59392 5.02234 7.78391 5.159 7.99791 5.15967C7.99858 5.15967 7.99927 5.15967 8.0006 5.15967C8.21393 5.15967 8.40399 5.02298 8.47399 4.82031C8.49665 4.75298 9.05861 3.16699 10.6426 3.16699C10.6453 3.16699 10.6479 3.16699 10.6506 3.16699C11.5446 3.17166 12.252 3.48365 12.7533 4.09432C13.418 4.90365 13.6579 6.19632 13.3959 7.55098C13.3219 7.92898 13.1886 8.30099 13.03 8.66899C12.5386 8.35499 11.9586 8.16699 11.3339 8.16699C9.58793 8.16699 8.16727 9.58766 8.16727 11.3337C8.16727 11.9737 8.36125 12.5677 8.68859 13.0663C8.39992 13.235 8.15792 13.365 8.00125 13.4443ZM11.3333 13.5003C10.1386 13.5003 9.16661 12.5283 9.16661 11.3337C9.16661 10.139 10.1386 9.16699 11.3333 9.16699C12.5279 9.16699 13.4999 10.139 13.4999 11.3337C13.4999 12.5283 12.5279 13.5003 11.3333 13.5003ZM12.52 10.4243C12.7153 10.6196 12.7153 10.9363 12.52 11.1317L11.4086 12.243C11.3146 12.3363 11.188 12.389 11.0553 12.389C10.9226 12.389 10.7953 12.3363 10.7019 12.2423L10.1466 11.687C9.95126 11.4917 9.95126 11.175 10.1466 10.9797C10.3419 10.785 10.6586 10.7843 10.854 10.9797L11.0559 11.1816L11.8139 10.4243C12.0086 10.2296 12.3246 10.2296 12.52 10.4243Z" fill="#3B3B3E"/>
</svg>
