<svg width="16" height="16" viewBox="0 0 16 16" fill="none" xmlns="http://www.w3.org/2000/svg">
<path d="M11.75 1.5H4.25C2.47667 1.5 1.5 2.47667 1.5 4.25V11.75C1.5 13.5233 2.47667 14.5 4.25 14.5H11.75C13.5233 14.5 14.5 13.5233 14.5 11.75V4.25C14.5 2.47667 13.5233 1.5 11.75 1.5ZM13.5 11.75C13.5 12.9767 12.9767 13.5 11.75 13.5H4.25C3.02333 13.5 2.5 12.9767 2.5 11.75V4.25C2.5 3.02333 3.02333 2.5 4.25 2.5H11.75C12.9767 2.5 13.5 3.02333 13.5 4.25V11.75ZM10.3534 6.97998C10.5487 7.17531 10.5487 7.492 10.3534 7.68734L8.35335 9.68734C8.25602 9.78467 8.128 9.83398 8 9.83398C7.872 9.83398 7.74398 9.78534 7.64665 9.68734L5.64665 7.68734C5.45131 7.492 5.45131 7.17531 5.64665 6.97998C5.84198 6.78465 6.15867 6.78465 6.354 6.97998L8.00065 8.62663L9.6473 6.97998C9.84197 6.78465 10.158 6.78465 10.3534 6.97998Z" fill="#3B3B3E"/>
</svg>
