<svg width="16" height="16" viewBox="0 0 16 16" fill="none" xmlns="http://www.w3.org/2000/svg">
<path d="M8.00016 15.1663C4.04683 15.1663 0.833496 11.953 0.833496 7.99967C0.833496 4.04634 4.04683 0.833008 8.00016 0.833008C11.9535 0.833008 15.1668 4.04634 15.1668 7.99967C15.1668 11.953 11.9535 15.1663 8.00016 15.1663ZM8.00016 1.83301C4.60016 1.83301 1.8335 4.59967 1.8335 7.99967C1.8335 11.3997 4.60016 14.1663 8.00016 14.1663C11.4002 14.1663 14.1668 11.3997 14.1668 7.99967C14.1668 4.59967 11.4002 1.83301 8.00016 1.83301ZM8.00016 12.4997C6.44016 12.4997 5.09351 11.3397 4.86684 9.79967C4.83351 9.55301 4.90016 9.31301 5.06016 9.12634C5.22016 8.94634 5.44683 8.83967 5.68683 8.83967H10.3002C10.5402 8.83967 10.7735 8.94634 10.9335 9.12634C11.0935 9.31301 11.1668 9.55967 11.1268 9.79967C10.9002 11.3397 9.55351 12.4997 7.99351 12.4997H8.00016ZM5.89349 9.83301C6.12016 10.793 6.9935 11.4997 8.00016 11.4997C9.00683 11.4997 9.88016 10.793 10.1068 9.83301H5.88684H5.89349ZM11.4068 6.80635C11.6668 6.71301 11.8068 6.433 11.7135 6.173C11.5068 5.573 10.9402 5.16634 10.3002 5.16634C9.66017 5.16634 9.09351 5.56634 8.88684 6.173C8.80017 6.433 8.9335 6.71968 9.1935 6.80635C9.46017 6.89968 9.74018 6.75967 9.82684 6.49967C9.89351 6.30634 10.0868 6.173 10.2935 6.173C10.5002 6.173 10.6935 6.30634 10.7602 6.49967C10.8335 6.70634 11.0268 6.83967 11.2335 6.83967C11.2868 6.83967 11.3402 6.83301 11.4002 6.81301L11.4068 6.80635ZM6.86017 6.80635C7.12017 6.71301 7.26016 6.433 7.16683 6.173C6.96016 5.573 6.3935 5.16634 5.7535 5.16634C5.1135 5.16634 4.54684 5.56634 4.34017 6.173C4.2535 6.433 4.38683 6.71968 4.64683 6.80635C4.9135 6.89968 5.1935 6.75967 5.28017 6.49967C5.34684 6.30634 5.54016 6.173 5.74683 6.173C5.95349 6.173 6.14683 6.30634 6.2135 6.49967C6.28683 6.70634 6.48016 6.83967 6.68683 6.83967C6.74016 6.83967 6.79349 6.83301 6.85349 6.81301L6.86017 6.80635Z" fill="#3B3B3E"/>
</svg>
