<svg width="16" height="16" viewBox="0 0 16 16" fill="none" xmlns="http://www.w3.org/2000/svg">
<path d="M2.67002 14.4993C2.36535 14.4993 2.06947 14.3793 1.84547 14.1553C1.52947 13.84 1.4208 13.382 1.5608 12.9607L2.12135 11.2933C2.18668 11.0887 2.18076 10.8833 2.1041 10.7213C1.70943 9.87265 1.5027 8.93268 1.5027 7.99935C1.5027 4.41602 4.41806 1.5 8.0014 1.5C11.5854 1.5 14.5007 4.41535 14.5007 7.99935C14.5007 8.27535 14.2767 8.49935 14.0007 8.49935C13.7247 8.49935 13.5007 8.27535 13.5007 7.99935C13.5007 4.96735 11.0341 2.5 8.0014 2.5C4.9694 2.5 2.5027 4.96668 2.5027 7.99935C2.5027 8.78802 2.67804 9.58199 3.00937 10.2953C3.19337 10.6827 3.21735 11.1487 3.07268 11.604L2.51002 13.278C2.48202 13.3613 2.52483 13.4206 2.55283 13.4486C2.58083 13.4766 2.64072 13.5193 2.72405 13.4913L4.38942 12.932C4.85208 12.7847 5.31939 12.8073 5.71005 12.9947C6.60472 13.41 7.64083 13.58 8.60817 13.4626C8.8735 13.4306 9.13149 13.6247 9.16416 13.8987C9.19749 14.1727 9.00279 14.422 8.72812 14.4553C7.58212 14.594 6.35276 14.3953 5.28476 13.8987C5.11943 13.82 4.91276 13.814 4.70143 13.882L3.04209 14.4393C2.91875 14.4793 2.79335 14.4993 2.67002 14.4993ZM14.5001 12C14.5001 11.724 14.2761 11.5 14.0001 11.5H10.6668C10.3908 11.5 10.1668 11.724 10.1668 12C10.1668 12.276 10.3908 12.5 10.6668 12.5H14.0001C14.2761 12.5 14.5001 12.276 14.5001 12Z" fill="#3B3B3E"/>
</svg>
