<svg width="16" height="16" viewBox="0 0 16 16" fill="none" xmlns="http://www.w3.org/2000/svg">
<path d="M14.0833 3.70178C13.8907 3.55578 13.55 3.41244 13.0153 3.56311L10.9534 4.14237C10.3587 4.31504 9.94401 4.86509 9.94401 5.48043V8.69039C9.63401 8.50305 9.27535 8.38912 8.88802 8.38912C7.75469 8.38912 6.83268 9.31112 6.83268 10.4445C6.83268 11.5778 7.75469 12.4998 8.88802 12.4998C10.0214 12.4998 10.944 11.5778 10.944 10.4445V8.00045C10.944 7.77845 11.0653 7.58245 11.2273 7.53511L13.644 6.85982C14.172 6.71382 14.4993 6.30586 14.4993 5.79586V4.68437C14.5 4.13303 14.2733 3.84578 14.0833 3.70178ZM8.88867 11.5004C8.30667 11.5004 7.83333 11.0271 7.83333 10.4451C7.83333 9.86311 8.30667 9.38977 8.88867 9.38977C9.47067 9.38977 9.94466 9.86311 9.94466 10.4451C9.94466 11.0271 9.47067 11.5004 8.88867 11.5004ZM13.5 5.79586C13.5 5.82119 13.5 5.86244 13.376 5.89644L10.9534 6.57304C10.95 6.5737 10.9473 6.57447 10.944 6.5758V5.47978C10.944 5.30378 11.06 5.15247 11.228 5.1038L13.286 4.52584C13.4053 4.4925 13.466 4.49976 13.472 4.49442C13.482 4.51442 13.4993 4.5737 13.4993 4.68437V5.79586H13.5ZM1.5 4.66711C1.5 4.39111 1.724 4.16711 2 4.16711H8C8.276 4.16711 8.5 4.39111 8.5 4.66711C8.5 4.94311 8.276 5.16711 8 5.16711H2C1.724 5.16711 1.5 4.94311 1.5 4.66711ZM6.66667 8.50045H2C1.724 8.50045 1.5 8.27645 1.5 8.00045C1.5 7.72445 1.724 7.50045 2 7.50045H6.66667C6.94267 7.50045 7.16667 7.72445 7.16667 8.00045C7.16667 8.27645 6.94267 8.50045 6.66667 8.50045ZM5.16667 11.3338C5.16667 11.6098 4.94267 11.8338 4.66667 11.8338H2C1.724 11.8338 1.5 11.6098 1.5 11.3338C1.5 11.0578 1.724 10.8338 2 10.8338H4.66667C4.94267 10.8338 5.16667 11.0578 5.16667 11.3338Z" fill="#3B3B3E"/>
</svg>
