<svg width="16" height="16" viewBox="0 0 16 16" fill="none" xmlns="http://www.w3.org/2000/svg">
<path d="M9.16671 12.0003C9.16671 12.2763 8.94271 12.5003 8.66671 12.5003H3.33337C1.72137 12.5003 0.833374 11.6123 0.833374 10.0003V4.66699C0.833374 3.05499 1.72137 2.16699 3.33337 2.16699H11.3334C12.9454 2.16699 13.8334 3.05499 13.8334 4.66699V7.33366C13.8334 7.60966 13.6094 7.83366 13.3334 7.83366C13.0574 7.83366 12.8334 7.60966 12.8334 7.33366V4.66699C12.8334 3.61566 12.3847 3.16699 11.3334 3.16699H3.33337C2.28204 3.16699 1.83337 3.61566 1.83337 4.66699V10.0003C1.83337 11.0517 2.28204 11.5003 3.33337 11.5003H8.66671C8.94271 11.5003 9.16671 11.7243 9.16671 12.0003ZM2.66671 7.33366C2.66671 7.70166 2.96537 8.00033 3.33337 8.00033C3.70137 8.00033 4.00004 7.70166 4.00004 7.33366C4.00004 6.96566 3.70137 6.66699 3.33337 6.66699C2.96537 6.66699 2.66671 6.96566 2.66671 7.33366ZM9.83337 7.33366C9.83337 8.71233 8.71204 9.83366 7.33337 9.83366C5.95471 9.83366 4.83337 8.71233 4.83337 7.33366C4.83337 5.95499 5.95471 4.83366 7.33337 4.83366C8.71204 4.83366 9.83337 5.95499 9.83337 7.33366ZM8.83337 7.33366C8.83337 6.50633 8.16071 5.83366 7.33337 5.83366C6.50604 5.83366 5.83337 6.50633 5.83337 7.33366C5.83337 8.16099 6.50604 8.83366 7.33337 8.83366C8.16071 8.83366 8.83337 8.16099 8.83337 7.33366ZM14.6667 12.8337H11.6667C11.3907 12.8337 11.1667 12.6097 11.1667 12.3337V12.0003C11.1667 11.7243 10.9427 11.5003 10.6667 11.5003C10.3907 11.5003 10.1667 11.7243 10.1667 12.0003V12.3337C10.1667 13.161 10.8394 13.8337 11.6667 13.8337H13.528C13.466 14.0097 13.5054 14.213 13.646 14.3537C13.7434 14.451 13.8714 14.5003 13.9994 14.5003C14.1274 14.5003 14.2554 14.4517 14.3527 14.3537L15.0194 13.687C15.162 13.5443 15.2054 13.329 15.1281 13.1423C15.0507 12.9557 14.8687 12.8337 14.6667 12.8337ZM13.6667 9.83366H11.8054C11.8674 9.65766 11.828 9.45431 11.6874 9.31364C11.492 9.11831 11.1754 9.11831 10.98 9.31364L10.3134 9.98031C10.1707 10.123 10.1274 10.3383 10.2047 10.525C10.282 10.7116 10.4647 10.8337 10.6667 10.8337H13.6667C13.9427 10.8337 14.1667 11.0577 14.1667 11.3337V11.667C14.1667 11.943 14.3907 12.167 14.6667 12.167C14.9427 12.167 15.1667 11.943 15.1667 11.667V11.3337C15.1667 10.5063 14.494 9.83366 13.6667 9.83366Z" fill="#3B3B3E"/>
</svg>
