<svg width="16" height="16" viewBox="0 0 16 16" fill="none" xmlns="http://www.w3.org/2000/svg">
<path d="M12 2.16699H4C2.388 2.16699 1.5 3.05499 1.5 4.66699V11.3337C1.5 12.9457 2.388 13.8337 4 13.8337H12C13.612 13.8337 14.5 12.9457 14.5 11.3337V4.66699C14.5 3.05499 13.612 2.16699 12 2.16699ZM2.5 11.3337V4.66699C2.5 3.61566 2.94867 3.16699 4 3.16699H9.5V12.8337H4C2.94867 12.8337 2.5 12.385 2.5 11.3337ZM13.5 11.3337C13.5 12.385 13.0513 12.8337 12 12.8337H10.5V3.16699H12C13.0513 3.16699 13.5 3.61566 13.5 4.66699V11.3337Z" fill="#3B3B3E"/>
</svg>
