<svg width="16" height="16" viewBox="0 0 16 16" fill="none" xmlns="http://www.w3.org/2000/svg">
<path d="M8.00016 0.833008C4.04816 0.833008 0.833496 4.04767 0.833496 7.99967C0.833496 11.9517 4.04816 15.1663 8.00016 15.1663C11.9522 15.1663 15.1668 11.9517 15.1668 7.99967C15.1668 4.04767 11.9522 0.833008 8.00016 0.833008ZM8.00016 14.1663C4.5995 14.1663 1.8335 11.4003 1.8335 7.99967C1.8335 4.59901 4.5995 1.83301 8.00016 1.83301C11.4008 1.83301 14.1668 4.59901 14.1668 7.99967C14.1668 11.4003 11.4008 14.1663 8.00016 14.1663ZM10.0662 6.05501H5.9349C5.50156 6.05501 5.11885 6.29841 4.93685 6.69108C4.75618 7.08108 4.81544 7.52762 5.09277 7.85628L7.03955 10.165C7.27888 10.4484 7.6295 10.6104 8.00016 10.6104C8.37083 10.6104 8.72144 10.4477 8.96077 10.165L10.9076 7.85693C11.1849 7.5276 11.2448 7.08108 11.0635 6.69108C10.8815 6.29908 10.4996 6.05501 10.0662 6.05501ZM10.1436 7.21175L8.19678 9.51969C8.12944 9.59836 8.04483 9.61035 8.00016 9.61035C7.9555 9.61035 7.87021 9.59836 7.80355 9.51969L5.85677 7.21094C5.84677 7.1996 5.81811 7.16565 5.84277 7.11165C5.86011 7.07365 5.89075 7.05501 5.93408 7.05501H10.0654C10.1081 7.05501 10.1389 7.07432 10.1569 7.11165C10.1816 7.16632 10.1529 7.20042 10.1436 7.21175Z" fill="#3B3B3E"/>
</svg>
