<svg width="16" height="16" viewBox="0 0 16 16" fill="none" xmlns="http://www.w3.org/2000/svg">
<path d="M10 1.5C7.51867 1.5 5.5 3.51867 5.5 6C5.5 6.34333 5.53873 6.68206 5.6154 7.01139L1.64665 10.98C1.55265 11.074 1.5 11.2013 1.5 11.3333V14C1.5 14.276 1.724 14.5 2 14.5H4.66667C4.94267 14.5 5.16667 14.276 5.16667 14V12.5H6.66667C6.79933 12.5 6.92669 12.4474 7.02002 12.3534L8.98861 10.3846C9.31727 10.4613 9.656 10.5 10 10.5C12.4813 10.5 14.5 8.48133 14.5 6C14.5 3.51867 12.4813 1.5 10 1.5ZM10 9.5C9.65267 9.5 9.3113 9.4493 8.9873 9.34863C8.8093 9.2933 8.61667 9.34131 8.486 9.47331L6.45931 11.5H4.66667C4.39067 11.5 4.16667 11.724 4.16667 12V13.5H2.5V11.5407L6.52669 7.514C6.65736 7.38266 6.70603 7.19001 6.65137 7.01335C6.55137 6.68935 6.5 6.34798 6.5 6.00065C6.5 4.07065 8.07 2.50065 10 2.50065C11.93 2.50065 13.5 4.07065 13.5 6.00065C13.5 7.93065 11.93 9.5 10 9.5ZM11.5133 5.33333C11.5133 5.79333 11.14 6.16667 10.68 6.16667C10.2207 6.16667 9.84326 5.79333 9.84326 5.33333C9.84326 4.87333 10.2133 4.5 10.6733 4.5H10.68C11.14 4.5 11.5133 4.87333 11.5133 5.33333Z" fill="#3B3B3E"/>
</svg>
