<svg width="16" height="16" viewBox="0 0 16 16" fill="none" xmlns="http://www.w3.org/2000/svg">
<path d="M13.1667 4.91101V4.66634C13.1667 3.65567 12.3447 2.83301 11.3333 2.83301H4.66667C3.65533 2.83301 2.83333 3.65567 2.83333 4.66634V4.91101C2.066 5.13034 1.5 5.82967 1.5 6.66634V9.99967C1.5 11.6117 2.388 12.4997 4 12.4997H4.83333V13.333C4.83333 13.609 5.05733 13.833 5.33333 13.833C5.60933 13.833 5.83333 13.609 5.83333 13.333V12.4997H10.1667V13.333C10.1667 13.609 10.3907 13.833 10.6667 13.833C10.9427 13.833 11.1667 13.609 11.1667 13.333V12.4997H12C13.612 12.4997 14.5 11.6117 14.5 9.99967V6.66634C14.5 5.82967 13.934 5.13034 13.1667 4.91101ZM4.66667 3.83301H11.3333C11.7927 3.83301 12.1667 4.20701 12.1667 4.66634V4.91101C11.3993 5.13034 10.8333 5.82967 10.8333 6.66634V8.83301H5.16667V6.66634C5.16667 5.82967 4.60067 5.13034 3.83333 4.91101V4.66634C3.83333 4.20701 4.20733 3.83301 4.66667 3.83301ZM13.5 9.99967C13.5 11.051 13.0513 11.4997 12 11.4997H4C2.94867 11.4997 2.5 11.051 2.5 9.99967V6.66634C2.5 6.20701 2.874 5.83301 3.33333 5.83301C3.79267 5.83301 4.16667 6.20701 4.16667 6.66634V9.33301C4.16667 9.60901 4.39067 9.83301 4.66667 9.83301H11.3333C11.6093 9.83301 11.8333 9.60901 11.8333 9.33301V6.66634C11.8333 6.20701 12.2073 5.83301 12.6667 5.83301C13.126 5.83301 13.5 6.20701 13.5 6.66634V9.99967Z" fill="#3B3B3E"/>
</svg>
