<svg width="16" height="16" viewBox="0 0 16 16" fill="none" xmlns="http://www.w3.org/2000/svg">
<path d="M11.1668 7.99967C11.1668 9.74567 9.74616 11.1663 8.00016 11.1663C6.79016 11.1663 5.70356 10.4924 5.16423 9.40706C5.04089 9.15973 5.14215 8.85965 5.38949 8.73698C5.63815 8.61365 5.93755 8.71507 6.06022 8.9624C6.42889 9.70507 7.17216 10.1663 8.00016 10.1663C9.19483 10.1663 10.1668 9.19434 10.1668 7.99967C10.1668 6.80501 9.19483 5.83301 8.00016 5.83301C7.3475 5.83301 6.74822 6.13034 6.34489 6.611H6.81543C7.09143 6.611 7.31543 6.835 7.31543 7.111C7.31543 7.387 7.09143 7.611 6.81543 7.611H5.3335C5.0575 7.611 4.8335 7.387 4.8335 7.111V5.62972C4.8335 5.35372 5.0575 5.12972 5.3335 5.12972C5.6095 5.12972 5.8335 5.35372 5.8335 5.62972V5.69499C6.40816 5.15565 7.17683 4.83301 8.00016 4.83301C9.74616 4.83301 11.1668 6.25367 11.1668 7.99967ZM15.1668 7.99967C15.1668 11.9517 11.9522 15.1663 8.00016 15.1663C4.04816 15.1663 0.833496 11.9517 0.833496 7.99967C0.833496 4.04767 4.04816 0.833008 8.00016 0.833008C11.9522 0.833008 15.1668 4.04767 15.1668 7.99967ZM14.1668 7.99967C14.1668 4.59901 11.4008 1.83301 8.00016 1.83301C4.5995 1.83301 1.8335 4.59901 1.8335 7.99967C1.8335 11.4003 4.5995 14.1663 8.00016 14.1663C11.4008 14.1663 14.1668 11.4003 14.1668 7.99967Z" fill="#3B3B3E"/>
</svg>
