<svg width="16" height="16" viewBox="0 0 16 16" fill="none" xmlns="http://www.w3.org/2000/svg">
<path d="M14.3181 6.05619L9.37667 1.99223C8.57867 1.33756 7.42207 1.33689 6.62407 1.99223L1.68274 6.05554C1.47008 6.23087 1.43872 6.54556 1.61406 6.75956C1.78939 6.97356 2.10541 7.00291 2.31808 6.82825L2.83338 6.40425V11.9995C2.83338 13.6115 3.72138 14.4996 5.33338 14.4996H10.6667C12.2787 14.4996 13.1667 13.6115 13.1667 11.9995V6.40425L13.682 6.82825C13.7753 6.90491 13.888 6.94218 14 6.94218C14.144 6.94218 14.2874 6.88021 14.386 6.76021C14.562 6.54621 14.5307 6.23152 14.3181 6.05619ZM12.1667 11.9995C12.1667 13.0509 11.718 13.4996 10.6667 13.4996H5.33338C4.28204 13.4996 3.83338 13.0509 3.83338 11.9995V5.58223L7.2594 2.76558C7.68807 2.41292 8.31275 2.41292 8.74142 2.76558L12.1674 5.58288V11.9995H12.1667ZM5.16671 8.61088C5.16671 9.95888 6.26337 11.0555 7.61137 11.0555C8.1047 11.0555 8.56274 10.9062 8.94674 10.6535L9.97937 11.6862C10.0767 11.7836 10.2047 11.8329 10.3327 11.8329C10.4607 11.8329 10.5887 11.7842 10.6861 11.6862C10.8814 11.4909 10.8814 11.1742 10.6861 10.9789L9.65271 9.94551C9.90471 9.56085 10.0541 9.10291 10.0541 8.60958C10.0541 7.26224 8.9574 6.16492 7.61007 6.16492C6.2634 6.16625 5.16671 7.26288 5.16671 8.61088ZM9.05538 8.61088C9.05538 9.40754 8.40737 10.0555 7.61137 10.0555C6.8147 10.0555 6.16671 9.40754 6.16671 8.61088C6.16671 7.81421 6.8147 7.16622 7.61137 7.16622C8.40737 7.16622 9.05538 7.81421 9.05538 8.61088Z" fill="#3B3B3E"/>
</svg>
