<svg width="16" height="16" viewBox="0 0 16 16" fill="none" xmlns="http://www.w3.org/2000/svg">
<path d="M12.9848 7.99967C13.4262 7.31901 13.7889 6.63969 14.0462 5.98503C14.7109 4.29769 14.6428 2.93367 13.8541 2.14567C13.0655 1.357 11.7028 1.28904 10.0148 1.95304C9.36011 2.21104 8.68013 2.57364 8.00013 3.01497C7.31946 2.57364 6.64015 2.21104 5.98548 1.95304C4.30015 1.28904 2.93612 1.35634 2.14612 2.14567C1.35746 2.93367 1.2894 4.29769 1.95407 5.98503C2.21207 6.63969 2.57476 7.31967 3.01543 7.99967C2.57409 8.68034 2.2114 9.35966 1.95407 10.0143C1.2894 11.7017 1.35746 13.0657 2.14612 13.8537C2.57612 14.283 3.17539 14.499 3.90605 14.499C4.51605 14.499 5.21748 14.3483 5.98548 14.0457C6.64015 13.7877 7.32013 13.425 8.00013 12.9836C8.68079 13.425 9.36011 13.7877 10.0148 14.0457C10.7828 14.3483 11.4842 14.499 12.0942 14.499C12.8242 14.499 13.4241 14.283 13.8541 13.8537C14.6428 13.065 14.7109 11.7017 14.0462 10.0143C13.7889 9.35966 13.4262 8.68034 12.9848 7.99967ZM10.3815 2.88371C11.0328 2.62704 11.6148 2.49837 12.0914 2.49837C12.5494 2.49837 12.9108 2.61638 13.1468 2.85238C13.6294 3.33504 13.6182 4.34301 13.1155 5.61768C12.9249 6.10234 12.6681 6.6037 12.3628 7.1097C11.8848 6.47703 11.3428 5.85101 10.7448 5.25301C10.1468 4.65501 9.52147 4.11301 8.8888 3.63501C9.39547 3.33101 9.89681 3.07504 10.3815 2.88371ZM5.96139 5.96102C6.61872 5.30369 7.30813 4.72103 8.00013 4.22437C8.69213 4.72103 9.38153 5.30369 10.0389 5.96102C10.6962 6.61835 11.2795 7.30767 11.7762 7.99967C11.2795 8.69167 10.6962 9.381 10.0389 10.0383C9.38153 10.6957 8.69213 11.2783 8.00013 11.775C7.30813 11.2783 6.61872 10.6957 5.96139 10.0383C5.30406 9.381 4.72075 8.69167 4.22409 7.99967C4.72142 7.30767 5.30406 6.61835 5.96139 5.96102ZM2.88408 5.61833C2.38141 4.34299 2.37016 3.33503 2.85283 2.85303C3.08883 2.61703 3.45017 2.49902 3.90817 2.49902C4.3855 2.49902 4.96746 2.62769 5.61813 2.88436C6.1028 3.07503 6.60415 3.33171 7.11015 3.63704C6.47749 4.11504 5.8522 4.65638 5.2542 5.25505C4.6562 5.85305 4.1142 6.47832 3.6362 7.11165C3.33153 6.60432 3.07541 6.10299 2.88408 5.61833ZM5.61878 13.1156C4.34411 13.6176 3.33548 13.6296 2.85348 13.147C2.37081 12.6643 2.38206 11.6564 2.88473 10.381C3.0754 9.89636 3.33216 9.395 3.6375 8.889C4.1155 9.52166 4.6575 10.1477 5.2555 10.7457C5.8535 11.3437 6.47879 11.8857 7.11146 12.363C6.60479 12.6684 6.10345 12.9243 5.61878 13.1156ZM13.1474 13.147C12.6648 13.6296 11.6575 13.6183 10.3821 13.1156C9.89746 12.925 9.39612 12.6684 8.88945 12.363C9.52212 11.885 10.1474 11.3437 10.7454 10.7457C11.3434 10.1477 11.8854 9.52233 12.3634 8.889C12.6687 9.395 12.9255 9.89636 13.1162 10.381C13.6188 11.6564 13.6294 12.665 13.1474 13.147ZM7.17672 7.99967C7.17672 7.53967 7.5468 7.16634 8.0068 7.16634H8.01347C8.47347 7.16634 8.84681 7.53967 8.84681 7.99967C8.84681 8.45967 8.47347 8.83301 8.01347 8.83301C7.55347 8.83301 7.17672 8.45967 7.17672 7.99967Z" fill="#3B3B3E"/>
</svg>
