<svg width="16" height="16" viewBox="0 0 16 16" fill="none" xmlns="http://www.w3.org/2000/svg">
<path d="M12 1.5H4C2.388 1.5 1.5 2.388 1.5 4V14C1.5 14.202 1.62193 14.3847 1.80859 14.462C1.87059 14.488 1.93533 14.5 2 14.5C2.13 14.5 2.25802 14.4494 2.35335 14.3534L4.20671 12.5H12C13.612 12.5 14.5 11.612 14.5 10V4C14.5 2.388 13.612 1.5 12 1.5ZM13.5 10C13.5 11.0513 13.0513 11.5 12 11.5H4C3.86733 11.5 3.73998 11.5526 3.64665 11.6466L2.5 12.7933V4C2.5 2.94867 2.94867 2.5 4 2.5H12C13.0513 2.5 13.5 2.94867 13.5 4V10ZM9.65397 7.9467C9.90597 7.56203 10.0553 7.10401 10.0553 6.61068C10.0553 5.26334 8.95866 4.16602 7.61133 4.16602C6.26333 4.16602 5.16667 5.26268 5.16667 6.61068C5.16667 7.95868 6.26333 9.05534 7.61133 9.05534C8.10466 9.05534 8.56261 8.90599 8.94661 8.65332L9.97933 9.68604C10.0767 9.78337 10.2047 9.83268 10.3327 9.83268C10.4607 9.83268 10.5887 9.78404 10.686 9.68604C10.8814 9.4907 10.8814 9.17401 10.686 8.97868L9.65397 7.9467ZM6.16667 6.61133C6.16667 5.81466 6.81466 5.16667 7.61133 5.16667C8.40733 5.16667 9.05534 5.81466 9.05534 6.61133C9.05534 7.408 8.40733 8.05599 7.61133 8.05599C6.81466 8.05532 6.16667 7.40733 6.16667 6.61133Z" fill="#3B3B3E"/>
</svg>
