<svg width="16" height="16" viewBox="0 0 16 16" fill="none" xmlns="http://www.w3.org/2000/svg">
<path d="M14.5001 3.99967V5.99967C14.5001 6.27567 14.2761 6.49967 14.0001 6.49967C13.7241 6.49967 13.5001 6.27567 13.5001 5.99967V3.99967C13.5001 2.94834 13.0514 2.49967 12.0001 2.49967H4.00008C2.94875 2.49967 2.50008 2.94834 2.50008 3.99967V12.7923L3.64673 11.6457C3.74073 11.5517 3.86741 11.499 4.00008 11.499H8.00008C8.27608 11.499 8.50008 11.723 8.50008 11.999C8.50008 12.275 8.27608 12.499 8.00008 12.499H4.20744L2.35409 14.3524C2.25809 14.4484 2.13073 14.499 2.00073 14.499C1.93607 14.499 1.87149 14.4864 1.80949 14.461C1.62282 14.3837 1.50073 14.201 1.50073 13.999V3.99902C1.50073 2.38702 2.38873 1.49902 4.00073 1.49902H12.0007C13.6121 1.49969 14.5001 2.38767 14.5001 3.99967ZM14.0001 9.83301H12.8334V8.66634C12.8334 8.39034 12.6094 8.16634 12.3334 8.16634C12.0574 8.16634 11.8334 8.39034 11.8334 8.66634V9.83301H10.6667C10.3907 9.83301 10.1667 10.057 10.1667 10.333C10.1667 10.609 10.3907 10.833 10.6667 10.833H11.8334V11.9997C11.8334 12.2757 12.0574 12.4997 12.3334 12.4997C12.6094 12.4997 12.8334 12.2757 12.8334 11.9997V10.833H14.0001C14.2761 10.833 14.5001 10.609 14.5001 10.333C14.5001 10.057 14.2761 9.83301 14.0001 9.83301Z" fill="#3B3B3E"/>
</svg>
