<svg width="16" height="16" viewBox="0 0 16 16" fill="none" xmlns="http://www.w3.org/2000/svg">
<path d="M6.16667 3.66699C6.16667 3.39099 6.39067 3.16699 6.66667 3.16699H14C14.276 3.16699 14.5 3.39099 14.5 3.66699C14.5 3.94299 14.276 4.16699 14 4.16699H6.66667C6.39067 4.16699 6.16667 3.94299 6.16667 3.66699ZM14 7.50033H6.66667C6.39067 7.50033 6.16667 7.72433 6.16667 8.00033C6.16667 8.27633 6.39067 8.50033 6.66667 8.50033H14C14.276 8.50033 14.5 8.27633 14.5 8.00033C14.5 7.72433 14.276 7.50033 14 7.50033ZM14 11.8337H6.66667C6.39067 11.8337 6.16667 12.0577 6.16667 12.3337C6.16667 12.6097 6.39067 12.8337 6.66667 12.8337H14C14.276 12.8337 14.5 12.6097 14.5 12.3337C14.5 12.0577 14.276 11.8337 14 11.8337ZM4.5 3.66699C4.5 4.49433 3.82733 5.16699 3 5.16699C2.17267 5.16699 1.5 4.49433 1.5 3.66699C1.5 2.83966 2.17267 2.16699 3 2.16699C3.82733 2.16699 4.5 2.83966 4.5 3.66699ZM3.5 3.66699C3.5 3.39099 3.276 3.16699 3 3.16699C2.724 3.16699 2.5 3.39099 2.5 3.66699C2.5 3.94299 2.724 4.16699 3 4.16699C3.276 4.16699 3.5 3.94299 3.5 3.66699ZM4.5 8.00033C4.5 8.82766 3.82733 9.50033 3 9.50033C2.17267 9.50033 1.5 8.82766 1.5 8.00033C1.5 7.17299 2.17267 6.50033 3 6.50033C3.82733 6.50033 4.5 7.17299 4.5 8.00033ZM3.5 8.00033C3.5 7.72433 3.276 7.50033 3 7.50033C2.724 7.50033 2.5 7.72433 2.5 8.00033C2.5 8.27633 2.724 8.50033 3 8.50033C3.276 8.50033 3.5 8.27633 3.5 8.00033ZM4.5 12.3337C4.5 13.161 3.82733 13.8337 3 13.8337C2.17267 13.8337 1.5 13.161 1.5 12.3337C1.5 11.5063 2.17267 10.8337 3 10.8337C3.82733 10.8337 4.5 11.5063 4.5 12.3337ZM3.5 12.3337C3.5 12.0577 3.276 11.8337 3 11.8337C2.724 11.8337 2.5 12.0577 2.5 12.3337C2.5 12.6097 2.724 12.8337 3 12.8337C3.276 12.8337 3.5 12.6097 3.5 12.3337Z" fill="#3B3B3E"/>
</svg>
