<svg width="16" height="16" viewBox="0 0 16 16" fill="none" xmlns="http://www.w3.org/2000/svg">
<path d="M6.67269 7.16667C8.23536 7.16667 9.50602 5.89533 9.50602 4.33333C9.50602 2.77133 8.23536 1.5 6.67269 1.5C5.11002 1.5 3.83936 2.77133 3.83936 4.33333C3.83936 5.89533 5.11002 7.16667 6.67269 7.16667ZM6.67269 2.5C7.68402 2.5 8.50602 3.322 8.50602 4.33333C8.50602 5.34467 7.68402 6.16667 6.67269 6.16667C5.66136 6.16667 4.83936 5.34467 4.83936 4.33333C4.83936 3.322 5.66136 2.5 6.67269 2.5ZM8 8.16667H5.33333C2.504 8.16667 1.5 10.238 1.5 12.0127C1.5 13.6167 2.3887 14.5 4.00203 14.5H9.3313C10.9446 14.5 11.8333 13.6167 11.8333 12.0127C11.8333 10.238 10.8293 8.16667 8 8.16667ZM9.3313 13.5H4.00203C2.94937 13.5 2.5 13.0554 2.5 12.0127C2.5 11.3454 2.70467 9.16667 5.33333 9.16667H8C10.6287 9.16667 10.8333 11.3447 10.8333 12.0127C10.8333 13.0554 10.384 13.5 9.3313 13.5ZM14.3534 7.66536C14.5487 7.8607 14.5487 8.17731 14.3534 8.37264C14.256 8.46997 14.128 8.51937 14 8.51937C13.872 8.51937 13.744 8.47064 13.6466 8.37264L12.6667 7.39266L11.6867 8.37264C11.5894 8.46997 11.4613 8.51937 11.3333 8.51937C11.2053 8.51937 11.0773 8.47064 10.98 8.37264C10.7846 8.17731 10.7846 7.8607 10.98 7.66536L11.96 6.6853L10.98 5.70532C10.7846 5.50999 10.7846 5.1933 10.98 4.99797C11.1753 4.80263 11.492 4.80263 11.6873 4.99797L12.6673 5.97803L13.6473 4.99797C13.8426 4.80263 14.1593 4.80263 14.3547 4.99797C14.55 5.1933 14.55 5.50999 14.3547 5.70532L13.3747 6.6853L14.3534 7.66536Z" fill="#3B3B3E"/>
</svg>
