<svg width="16" height="16" viewBox="0 0 16 16" fill="none" xmlns="http://www.w3.org/2000/svg">
<path d="M12.7464 5.24634C12.7464 5.24634 12.7464 5.21967 12.7464 5.20634L12.5864 1.94634C12.5531 1.32634 12.0464 0.833008 11.4198 0.833008H4.58642C3.95975 0.833008 3.44642 1.31967 3.41309 1.94634L3.25308 5.20634C3.25308 5.20634 3.25308 5.233 3.25308 5.24634L2.83309 13.9397C2.81975 14.2597 2.93309 14.573 3.15309 14.8063C3.37309 15.0397 3.67975 15.173 3.99975 15.173H5.44642C5.99975 15.173 6.46642 14.793 6.58642 14.253L7.99975 7.82635L9.41309 14.253C9.53309 14.793 9.99975 15.173 10.5531 15.173H11.9998C12.3198 15.173 12.6264 15.0397 12.8464 14.8063C13.0664 14.573 13.1864 14.2597 13.1664 13.9397L12.7464 5.24634V5.24634ZM10.5198 3.49967H11.6598L11.7264 4.82634C11.7264 4.82634 11.6931 4.83301 11.6731 4.83301C11.0264 4.83301 10.5064 4.30634 10.5064 3.66634C10.5064 3.60634 10.5131 3.55301 10.5264 3.49967H10.5198ZM4.58642 1.83301H11.4198C11.5064 1.83301 11.5798 1.89968 11.5864 1.99301L11.6131 2.49967H4.39308L4.41975 1.99301C4.41975 1.89968 4.49975 1.83301 4.59309 1.83301H4.58642ZM5.49975 3.66634C5.49975 4.30634 4.97309 4.83301 4.33309 4.83301C4.31309 4.83301 4.29975 4.82634 4.27975 4.82634L4.34642 3.49967H5.48642C5.49309 3.55301 5.50642 3.60634 5.50642 3.66634H5.49975ZM12.1197 14.113C12.1197 14.113 12.0598 14.1663 11.9931 14.1663H10.5464C10.4664 14.1663 10.3998 14.113 10.3798 14.033L8.61309 5.97968C8.54642 5.68634 8.29309 5.47968 7.99309 5.47968C7.69309 5.47968 7.43975 5.68634 7.37309 5.97968L5.60642 14.033C5.58642 14.113 5.51976 14.1663 5.43976 14.1663H3.99309C3.92642 14.1663 3.88642 14.133 3.86642 14.113C3.84642 14.093 3.81309 14.053 3.81976 13.9863L4.21309 5.81967C4.24642 5.81967 4.27976 5.82634 4.31976 5.82634C5.51309 5.82634 6.48642 4.85301 6.48642 3.65968C6.48642 3.59968 6.47308 3.54634 6.46642 3.49301H9.49975C9.49975 3.54634 9.47975 3.59968 9.47975 3.65968C9.47975 4.85301 10.4531 5.82634 11.6464 5.82634C11.6798 5.82634 11.7131 5.81967 11.7531 5.81967L12.1464 13.9863C12.1464 14.053 12.1197 14.093 12.0997 14.113H12.1197Z" fill="#3B3B3E"/>
</svg>
