<svg width="16" height="16" viewBox="0 0 16 16" fill="none" xmlns="http://www.w3.org/2000/svg">
<path d="M8.00016 15.1663C4.04683 15.1663 0.833496 11.953 0.833496 7.99967C0.833496 4.04634 4.04683 0.833008 8.00016 0.833008C11.9535 0.833008 15.1668 4.04634 15.1668 7.99967C15.1668 11.953 11.9535 15.1663 8.00016 15.1663ZM8.00016 1.83301C4.60016 1.83301 1.8335 4.59967 1.8335 7.99967C1.8335 11.3997 4.60016 14.1663 8.00016 14.1663C11.4002 14.1663 14.1668 11.3997 14.1668 7.99967C14.1668 4.59967 11.4002 1.83301 8.00016 1.83301ZM6.00016 10.4997C5.52016 10.4997 5.16683 10.0063 5.16683 9.33301C5.16683 8.65967 5.52016 8.16634 6.00016 8.16634C6.48016 8.16634 6.8335 8.65967 6.8335 9.33301C6.8335 10.0063 6.48016 10.4997 6.00016 10.4997ZM10.0002 10.4997C9.52016 10.4997 9.16683 10.0063 9.16683 9.33301C9.16683 8.65967 9.52016 8.16634 10.0002 8.16634C10.4802 8.16634 10.8335 8.65967 10.8335 9.33301C10.8335 10.0063 10.4802 10.4997 10.0002 10.4997ZM10.9602 6.39301C11.1802 6.22634 11.2268 5.913 11.0602 5.693C10.3402 4.733 9.1935 4.15968 8.00016 4.15968C6.80683 4.15968 5.67351 4.71967 4.93351 5.693C4.76685 5.913 4.80681 6.22634 5.02681 6.39301C5.24681 6.55967 5.56018 6.51967 5.72685 6.29967C6.27351 5.57967 7.10016 5.16634 7.99349 5.16634C8.88682 5.16634 9.72017 5.59301 10.2535 6.29967C10.3535 6.43301 10.5001 6.49967 10.6535 6.49967C10.7601 6.49967 10.8602 6.46634 10.9535 6.39968L10.9602 6.39301Z" fill="#3B3B3E"/>
</svg>
