<svg width="16" height="16" viewBox="0 0 16 16" fill="none" xmlns="http://www.w3.org/2000/svg">
<path d="M14.5001 3.99967V5.99967C14.5001 6.27567 14.2761 6.49967 14.0001 6.49967C13.7241 6.49967 13.5001 6.27567 13.5001 5.99967V3.99967C13.5001 2.94834 13.0514 2.49967 12.0001 2.49967H4.00008C2.94875 2.49967 2.50008 2.94834 2.50008 3.99967V12.7923L3.64673 11.6457C3.74073 11.5517 3.86741 11.499 4.00008 11.499H8.00008C8.27608 11.499 8.50008 11.723 8.50008 11.999C8.50008 12.275 8.27608 12.499 8.00008 12.499H4.20744L2.35409 14.3524C2.25809 14.4484 2.13073 14.499 2.00073 14.499C1.93607 14.499 1.87149 14.4864 1.80949 14.461C1.62282 14.3837 1.50073 14.201 1.50073 13.999V3.99902C1.50073 2.38702 2.38873 1.49902 4.00073 1.49902H12.0007C13.6121 1.49969 14.5001 2.38767 14.5001 3.99967ZM14.0001 9.49967H10.6667C10.3907 9.49967 10.1667 9.72367 10.1667 9.99967C10.1667 10.2757 10.3907 10.4997 10.6667 10.4997H14.0001C14.2761 10.4997 14.5001 10.2757 14.5001 9.99967C14.5001 9.72367 14.2761 9.49967 14.0001 9.49967ZM8.00675 6.33301C7.63875 6.33301 7.34334 6.63167 7.34334 6.99967C7.34334 7.36767 7.64543 7.66634 8.01343 7.66634C8.38209 7.66634 8.68009 7.36767 8.68009 6.99967C8.68009 6.63167 8.38209 6.33301 8.01343 6.33301H8.00675ZM10.6801 7.66634C11.0488 7.66634 11.3468 7.36767 11.3468 6.99967C11.3468 6.63167 11.0488 6.33301 10.6801 6.33301H10.6734C10.3054 6.33301 10.01 6.63167 10.01 6.99967C10.01 7.36767 10.3121 7.66634 10.6801 7.66634ZM5.34009 6.33301C4.97209 6.33301 4.67668 6.63167 4.67668 6.99967C4.67668 7.36767 4.97876 7.66634 5.34676 7.66634C5.71543 7.66634 6.01343 7.36767 6.01343 6.99967C6.01343 6.63167 5.71543 6.33301 5.34676 6.33301H5.34009Z" fill="#3B3B3E"/>
</svg>
