<svg width="16" height="16" viewBox="0 0 16 16" fill="none" xmlns="http://www.w3.org/2000/svg">
<path d="M13.6866 5.64667L9.68661 1.64667C9.59261 1.55267 9.46592 1.5 9.33325 1.5H5.33325C3.72125 1.5 2.83325 2.388 2.83325 4V12C2.83325 13.612 3.72125 14.5 5.33325 14.5H11.3333C12.9453 14.5 13.8333 13.612 13.8333 12V6C13.8333 5.86733 13.7806 5.74 13.6866 5.64667ZM9.83325 3.20734L12.1259 5.5H11.3333C10.2819 5.5 9.83325 5.05133 9.83325 4V3.20734ZM11.3333 13.5H5.33325C4.28192 13.5 3.83325 13.0513 3.83325 12V4C3.83325 2.94867 4.28192 2.5 5.33325 2.5H8.83325V4C8.83325 5.612 9.72125 6.5 11.3333 6.5H12.8333V12C12.8333 13.0513 12.3846 13.5 11.3333 13.5ZM10.5193 6.82C10.3126 6.61333 10.0386 6.5 9.74731 6.5C9.74665 6.5 9.74585 6.5 9.74585 6.5C9.45385 6.5 9.17856 6.61466 8.97323 6.82133L5.31258 10.4993C5.21858 10.5927 5.16659 10.72 5.16659 10.852V12.3333C5.16659 12.6093 5.39059 12.8333 5.66659 12.8333H7.14852C7.28052 12.8333 7.40789 12.7807 7.50122 12.6873L11.1786 9.02733C11.386 8.82067 11.4993 8.54667 11.4999 8.25467C11.4999 7.96267 11.3866 7.68733 11.1799 7.48066L10.5193 6.82ZM9.74731 7.5C9.76465 7.5 9.78991 7.50467 9.81258 7.52733L10.4726 8.188C10.4952 8.21067 10.4999 8.236 10.4999 8.254C10.4999 8.272 10.4952 8.29667 10.4726 8.31934L10.0486 8.74133L9.2592 7.952L9.68123 7.52801C9.70457 7.50467 9.72998 7.5 9.74731 7.5ZM6.94198 11.8333H6.16659V11.058L8.55396 8.65933L9.33993 9.44533L6.94198 11.8333Z" fill="#3B3B3E"/>
</svg>
