<svg width="16" height="16" viewBox="0 0 16 16" fill="none" xmlns="http://www.w3.org/2000/svg">
<path d="M14 2.5H2C1.724 2.5 1.5 2.276 1.5 2C1.5 1.724 1.724 1.5 2 1.5H14C14.276 1.5 14.5 1.724 14.5 2C14.5 2.276 14.276 2.5 14 2.5ZM14.5 9.33333C14.5 9.05733 14.276 8.83333 14 8.83333H2C1.724 8.83333 1.5 9.05733 1.5 9.33333C1.5 9.60933 1.724 9.83333 2 9.83333H14C14.276 9.83333 14.5 9.60933 14.5 9.33333ZM5.16667 5.66667V5C5.16667 4.06067 4.606 3.5 3.66667 3.5H3C2.06067 3.5 1.5 4.06067 1.5 5V5.66667C1.5 6.606 2.06067 7.16667 3 7.16667H3.66667C4.606 7.16667 5.16667 6.606 5.16667 5.66667ZM3.66667 4.5C4.05933 4.5 4.16667 4.60733 4.16667 5V5.66667C4.16667 6.05933 4.05933 6.16667 3.66667 6.16667H3C2.60733 6.16667 2.5 6.05933 2.5 5.66667V5C2.5 4.60733 2.60733 4.5 3 4.5H3.66667ZM9.83333 5.66667V5C9.83333 4.06067 9.27267 3.5 8.33333 3.5H7.66667C6.72733 3.5 6.16667 4.06067 6.16667 5V5.66667C6.16667 6.606 6.72733 7.16667 7.66667 7.16667H8.33333C9.27267 7.16667 9.83333 6.606 9.83333 5.66667ZM8.33333 4.5C8.726 4.5 8.83333 4.60733 8.83333 5V5.66667C8.83333 6.05933 8.726 6.16667 8.33333 6.16667H7.66667C7.274 6.16667 7.16667 6.05933 7.16667 5.66667V5C7.16667 4.60733 7.274 4.5 7.66667 4.5H8.33333ZM14.5 5.66667V5C14.5 4.06067 13.9393 3.5 13 3.5H12.3333C11.394 3.5 10.8333 4.06067 10.8333 5V5.66667C10.8333 6.606 11.394 7.16667 12.3333 7.16667H13C13.9393 7.16667 14.5 6.606 14.5 5.66667ZM13 4.5C13.3927 4.5 13.5 4.60733 13.5 5V5.66667C13.5 6.05933 13.3927 6.16667 13 6.16667H12.3333C11.9407 6.16667 11.8333 6.05933 11.8333 5.66667V5C11.8333 4.60733 11.9407 4.5 12.3333 4.5H13ZM5.16667 13V12.3333C5.16667 11.394 4.606 10.8333 3.66667 10.8333H3C2.06067 10.8333 1.5 11.394 1.5 12.3333V13C1.5 13.9393 2.06067 14.5 3 14.5H3.66667C4.606 14.5 5.16667 13.9393 5.16667 13ZM3.66667 11.8333C4.05933 11.8333 4.16667 11.9407 4.16667 12.3333V13C4.16667 13.3927 4.05933 13.5 3.66667 13.5H3C2.60733 13.5 2.5 13.3927 2.5 13V12.3333C2.5 11.9407 2.60733 11.8333 3 11.8333H3.66667ZM9.83333 13V12.3333C9.83333 11.394 9.27267 10.8333 8.33333 10.8333H7.66667C6.72733 10.8333 6.16667 11.394 6.16667 12.3333V13C6.16667 13.9393 6.72733 14.5 7.66667 14.5H8.33333C9.27267 14.5 9.83333 13.9393 9.83333 13ZM8.33333 11.8333C8.726 11.8333 8.83333 11.9407 8.83333 12.3333V13C8.83333 13.3927 8.726 13.5 8.33333 13.5H7.66667C7.274 13.5 7.16667 13.3927 7.16667 13V12.3333C7.16667 11.9407 7.274 11.8333 7.66667 11.8333H8.33333ZM14.5 13V12.3333C14.5 11.394 13.9393 10.8333 13 10.8333H12.3333C11.394 10.8333 10.8333 11.394 10.8333 12.3333V13C10.8333 13.9393 11.394 14.5 12.3333 14.5H13C13.9393 14.5 14.5 13.9393 14.5 13ZM13 11.8333C13.3927 11.8333 13.5 11.9407 13.5 12.3333V13C13.5 13.3927 13.3927 13.5 13 13.5H12.3333C11.9407 13.5 11.8333 13.3927 11.8333 13V12.3333C11.8333 11.9407 11.9407 11.8333 12.3333 11.8333H13Z" fill="#3B3B3E"/>
</svg>
