<svg width="16" height="16" viewBox="0 0 16 16" fill="none" xmlns="http://www.w3.org/2000/svg">
<path d="M12.3334 1.5H4.66675C3.05475 1.5 2.16675 2.388 2.16675 4V12C2.16675 13.4953 3.17141 14.5 4.66675 14.5H12.3334C13.1601 14.5 13.8334 13.8273 13.8334 13V9V7.33333V3C13.8334 2.17267 13.1601 1.5 12.3334 1.5ZM4.66675 2.5H12.3334C12.6087 2.5 12.8334 2.724 12.8334 3V7.33333V9C12.8334 9.276 12.6087 9.5 12.3334 9.5H4.66675C4.07941 9.5 3.57141 9.65931 3.16675 9.93864V4C3.16675 2.94867 3.61541 2.5 4.66675 2.5ZM12.3334 13.5H4.66675C3.72741 13.5 3.16675 12.9393 3.16675 12C3.16675 11.0607 3.72741 10.5 4.66675 10.5H12.3334C12.5094 10.5 12.6761 10.464 12.8334 10.408V13C12.8334 13.276 12.6087 13.5 12.3334 13.5ZM5.50008 4.66667C5.50008 4.39067 5.72408 4.16667 6.00008 4.16667H10.0001C10.2761 4.16667 10.5001 4.39067 10.5001 4.66667C10.5001 4.94267 10.2761 5.16667 10.0001 5.16667H6.00008C5.72408 5.16667 5.50008 4.94267 5.50008 4.66667ZM5.50008 6.66667C5.50008 6.39067 5.72408 6.16667 6.00008 6.16667H8.66675C8.94275 6.16667 9.16675 6.39067 9.16675 6.66667C9.16675 6.94267 8.94275 7.16667 8.66675 7.16667H6.00008C5.72408 7.16667 5.50008 6.94267 5.50008 6.66667Z" fill="#3B3B3E"/>
</svg>
