<svg width="16" height="16" viewBox="0 0 16 16" fill="none" xmlns="http://www.w3.org/2000/svg">
<path d="M8.00016 0.833008C4.04816 0.833008 0.833496 4.04767 0.833496 7.99967C0.833496 11.9517 4.04816 15.1663 8.00016 15.1663C11.9522 15.1663 15.1668 11.9517 15.1668 7.99967C15.1668 4.04767 11.9522 0.833008 8.00016 0.833008ZM8.00016 14.1663C4.5995 14.1663 1.8335 11.4003 1.8335 7.99967C1.8335 4.59901 4.5995 1.83301 8.00016 1.83301C11.4008 1.83301 14.1668 4.59901 14.1668 7.99967C14.1668 11.4003 11.4008 14.1663 8.00016 14.1663ZM10.3535 6.97965C10.5488 7.17499 10.5488 7.49168 10.3535 7.68701C10.2562 7.78434 10.1282 7.83366 10.0002 7.83366C9.87216 7.83366 9.74414 7.78501 9.64681 7.68701L8.50016 6.54036V10.6663C8.50016 10.9423 8.27616 11.1663 8.00016 11.1663C7.72416 11.1663 7.50016 10.9423 7.50016 10.6663V6.54036L6.35352 7.68701C6.15818 7.88234 5.84149 7.88234 5.64616 7.68701C5.45083 7.49168 5.45083 7.17499 5.64616 6.97965L7.64616 4.97965C7.69216 4.93365 7.74742 4.89708 7.80876 4.87174C7.93076 4.82108 8.06875 4.82108 8.19075 4.87174C8.25209 4.89708 8.30752 4.93365 8.35352 4.97965L10.3535 6.97965Z" fill="#3B3B3E"/>
</svg>
