<svg width="16" height="16" viewBox="0 0 16 16" fill="none" xmlns="http://www.w3.org/2000/svg">
<path d="M2 14.5C1.93533 14.5 1.87059 14.4873 1.80859 14.462C1.62193 14.3847 1.5 14.202 1.5 14V4C1.5 2.388 2.388 1.5 4 1.5H12C13.612 1.5 14.5 2.388 14.5 4V7.33333C14.5 7.60933 14.276 7.83333 14 7.83333C13.724 7.83333 13.5 7.60933 13.5 7.33333V4C13.5 2.94867 13.0513 2.5 12 2.5H4C2.94867 2.5 2.5 2.94867 2.5 4V12.7926L3.64665 11.646C3.74065 11.552 3.86733 11.4993 4 11.4993H8C8.276 11.4993 8.5 11.7233 8.5 11.9993C8.5 12.2753 8.276 12.4993 8 12.4993H4.20736L2.354 14.3527C2.258 14.4494 2.13 14.5 2 14.5ZM12.1313 12.3534L14.3534 10.1313C14.5487 9.93601 14.5487 9.61932 14.3534 9.42399C14.158 9.22866 13.8413 9.22866 13.646 9.42399L11.7773 11.2926L11.0194 10.5353C10.824 10.34 10.5073 10.34 10.312 10.5353C10.1167 10.7307 10.1167 11.0473 10.312 11.2427L11.4233 12.354C11.5207 12.4513 11.6487 12.5007 11.7767 12.5007C11.9047 12.5007 12.034 12.4514 12.1313 12.3534Z" fill="#3B3B3E"/>
</svg>
