<svg width="16" height="16" viewBox="0 0 16 16" fill="none" xmlns="http://www.w3.org/2000/svg">
<path d="M3.33333 5.16667C2.322 5.16667 1.5 4.34467 1.5 3.33333C1.5 2.322 2.322 1.5 3.33333 1.5C4.34467 1.5 5.16667 2.322 5.16667 3.33333C5.16667 4.34467 4.34467 5.16667 3.33333 5.16667ZM3.33333 2.5C2.874 2.5 2.5 2.874 2.5 3.33333C2.5 3.79267 2.874 4.16667 3.33333 4.16667C3.79267 4.16667 4.16667 3.79267 4.16667 3.33333C4.16667 2.874 3.79267 2.5 3.33333 2.5ZM8 5.16667C6.98867 5.16667 6.16667 4.34467 6.16667 3.33333C6.16667 2.322 6.98867 1.5 8 1.5C9.01133 1.5 9.83333 2.322 9.83333 3.33333C9.83333 4.34467 9.01133 5.16667 8 5.16667ZM8 2.5C7.54067 2.5 7.16667 2.874 7.16667 3.33333C7.16667 3.79267 7.54067 4.16667 8 4.16667C8.45933 4.16667 8.83333 3.79267 8.83333 3.33333C8.83333 2.874 8.45933 2.5 8 2.5ZM12.6667 5.16667C11.6553 5.16667 10.8333 4.34467 10.8333 3.33333C10.8333 2.322 11.6553 1.5 12.6667 1.5C13.678 1.5 14.5 2.322 14.5 3.33333C14.5 4.34467 13.678 5.16667 12.6667 5.16667ZM12.6667 2.5C12.2073 2.5 11.8333 2.874 11.8333 3.33333C11.8333 3.79267 12.2073 4.16667 12.6667 4.16667C13.126 4.16667 13.5 3.79267 13.5 3.33333C13.5 2.874 13.126 2.5 12.6667 2.5ZM3.33333 9.83333C2.322 9.83333 1.5 9.01133 1.5 8C1.5 6.98867 2.322 6.16667 3.33333 6.16667C4.34467 6.16667 5.16667 6.98867 5.16667 8C5.16667 9.01133 4.34467 9.83333 3.33333 9.83333ZM3.33333 7.16667C2.874 7.16667 2.5 7.54067 2.5 8C2.5 8.45933 2.874 8.83333 3.33333 8.83333C3.79267 8.83333 4.16667 8.45933 4.16667 8C4.16667 7.54067 3.79267 7.16667 3.33333 7.16667ZM8 9.83333C6.98867 9.83333 6.16667 9.01133 6.16667 8C6.16667 6.98867 6.98867 6.16667 8 6.16667C9.01133 6.16667 9.83333 6.98867 9.83333 8C9.83333 9.01133 9.01133 9.83333 8 9.83333ZM8 7.16667C7.54067 7.16667 7.16667 7.54067 7.16667 8C7.16667 8.45933 7.54067 8.83333 8 8.83333C8.45933 8.83333 8.83333 8.45933 8.83333 8C8.83333 7.54067 8.45933 7.16667 8 7.16667ZM12.6667 9.83333C11.6553 9.83333 10.8333 9.01133 10.8333 8C10.8333 6.98867 11.6553 6.16667 12.6667 6.16667C13.678 6.16667 14.5 6.98867 14.5 8C14.5 9.01133 13.678 9.83333 12.6667 9.83333ZM12.6667 7.16667C12.2073 7.16667 11.8333 7.54067 11.8333 8C11.8333 8.45933 12.2073 8.83333 12.6667 8.83333C13.126 8.83333 13.5 8.45933 13.5 8C13.5 7.54067 13.126 7.16667 12.6667 7.16667ZM3.33333 14.5C2.322 14.5 1.5 13.678 1.5 12.6667C1.5 11.6553 2.322 10.8333 3.33333 10.8333C4.34467 10.8333 5.16667 11.6553 5.16667 12.6667C5.16667 13.678 4.34467 14.5 3.33333 14.5ZM3.33333 11.8333C2.874 11.8333 2.5 12.2073 2.5 12.6667C2.5 13.126 2.874 13.5 3.33333 13.5C3.79267 13.5 4.16667 13.126 4.16667 12.6667C4.16667 12.2073 3.79267 11.8333 3.33333 11.8333ZM8 14.5C6.98867 14.5 6.16667 13.678 6.16667 12.6667C6.16667 11.6553 6.98867 10.8333 8 10.8333C9.01133 10.8333 9.83333 11.6553 9.83333 12.6667C9.83333 13.678 9.01133 14.5 8 14.5ZM8 11.8333C7.54067 11.8333 7.16667 12.2073 7.16667 12.6667C7.16667 13.126 7.54067 13.5 8 13.5C8.45933 13.5 8.83333 13.126 8.83333 12.6667C8.83333 12.2073 8.45933 11.8333 8 11.8333ZM12.6667 14.5C11.6553 14.5 10.8333 13.678 10.8333 12.6667C10.8333 11.6553 11.6553 10.8333 12.6667 10.8333C13.678 10.8333 14.5 11.6553 14.5 12.6667C14.5 13.678 13.678 14.5 12.6667 14.5ZM12.6667 11.8333C12.2073 11.8333 11.8333 12.2073 11.8333 12.6667C11.8333 13.126 12.2073 13.5 12.6667 13.5C13.126 13.5 13.5 13.126 13.5 12.6667C13.5 12.2073 13.126 11.8333 12.6667 11.8333Z" fill="#3B3B3E"/>
</svg>
