<svg width="16" height="16" viewBox="0 0 16 16" fill="none" xmlns="http://www.w3.org/2000/svg">
<path d="M2.67002 14.4993C2.36535 14.4993 2.06947 14.3793 1.84547 14.1553C1.52947 13.84 1.4208 13.382 1.5608 12.9607L2.12135 11.2933C2.18668 11.0887 2.18076 10.8833 2.1041 10.7213C1.70943 9.87265 1.5027 8.93268 1.5027 7.99935C1.5027 4.41602 4.41806 1.5 8.0014 1.5C11.5854 1.5 14.5007 4.41535 14.5007 7.99935C14.5007 11.5833 11.5854 14.4987 8.0014 14.4987C7.06873 14.4987 6.12876 14.2913 5.28476 13.8987C5.11943 13.8193 4.91276 13.814 4.70143 13.8813L3.04209 14.4387C2.91875 14.4793 2.79335 14.4993 2.67002 14.4993ZM8.00074 2.5C4.96875 2.5 2.50205 4.96668 2.50205 7.99935C2.50205 8.78802 2.67739 9.58199 3.00872 10.2953C3.19272 10.6827 3.2167 11.1487 3.07203 11.604L2.50937 13.278C2.48137 13.3613 2.52401 13.4206 2.55201 13.4486C2.58001 13.4766 2.64007 13.5193 2.7234 13.4913L4.38877 12.932C4.85077 12.7847 5.31805 12.8073 5.71005 12.9947C6.41805 13.324 7.21208 13.4993 8.00074 13.4993C11.0334 13.4993 13.5001 11.0327 13.5001 8C13.5001 4.96733 11.0334 2.5 8.00074 2.5ZM8.68011 10C8.68011 9.632 8.38211 9.33333 8.01344 9.33333H8.00677C7.63877 9.33333 7.34336 9.632 7.34336 10C7.34336 10.368 7.64544 10.6667 8.01344 10.6667C8.38144 10.6667 8.68011 10.368 8.68011 10ZM8.50009 8V6C8.50009 5.724 8.27609 5.5 8.00009 5.5C7.72409 5.5 7.50009 5.724 7.50009 6V8C7.50009 8.276 7.72409 8.5 8.00009 8.5C8.27609 8.5 8.50009 8.276 8.50009 8Z" fill="#3B3B3E"/>
</svg>
