<svg width="16" height="16" viewBox="0 0 16 16" fill="none" xmlns="http://www.w3.org/2000/svg">
<path d="M10.72 6.92635C10.7973 6.66168 11.074 6.50966 11.3407 6.587C11.4014 6.605 11.4727 6.61369 11.56 6.61369C12.1407 6.61369 12.6134 6.1383 12.6134 5.55363C12.6134 5.07563 12.2907 4.65768 11.8274 4.53768C11.56 4.46835 11.3994 4.19499 11.4694 3.92765C11.538 3.66032 11.8094 3.50168 12.0787 3.56901C12.9821 3.80368 13.6134 4.61965 13.6134 5.55298C13.6134 6.68898 12.692 7.61296 11.56 7.61296C11.3767 7.61296 11.2127 7.59097 11.0594 7.54631C10.794 7.46897 10.6427 7.19168 10.72 6.92635ZM12.598 7.95435C12.5914 7.95435 12.5854 7.95435 12.58 7.95435C12.312 7.95435 12.09 8.16636 12.0807 8.43636C12.07 8.71236 12.2861 8.94369 12.5621 8.95369C14.0507 9.00769 14.1667 10.2837 14.1667 10.6737V12.0003C14.1667 12.2763 14.3907 12.5003 14.6667 12.5003C14.9427 12.5003 15.1667 12.2763 15.1667 12.0003V10.6737C15.1667 9.46167 14.494 8.02235 12.598 7.95435ZM4.44674 7.61369C4.63007 7.61369 4.79405 7.59162 4.94739 7.54696C5.21205 7.46896 5.36408 7.19168 5.28674 6.92635C5.20941 6.66168 4.93206 6.50966 4.66606 6.587C4.60539 6.605 4.53407 6.61369 4.44674 6.61369C3.86607 6.61369 3.39335 6.1383 3.39335 5.55363C3.39335 5.07163 3.71868 4.65101 4.18534 4.53101C4.45201 4.46234 4.61405 4.1897 4.54472 3.92236C4.47538 3.65436 4.20201 3.49232 3.93534 3.56299C3.02801 3.79699 2.394 4.61563 2.394 5.55363C2.39334 6.68963 3.31474 7.61369 4.44674 7.61369ZM3.90605 8.43368C3.89471 8.15768 3.66801 7.93968 3.38668 7.95435C1.50201 8.03035 0.833374 9.467 0.833374 10.6737V12.0003C0.833374 12.2763 1.05737 12.5003 1.33337 12.5003C1.60937 12.5003 1.83337 12.2763 1.83337 12.0003V10.6737C1.83337 10.1757 1.9887 9.01103 3.42737 8.95369C3.70337 8.94236 3.91738 8.70968 3.90605 8.43368ZM5.50541 4.66699C5.50541 3.28833 6.62741 2.16699 8.00541 2.16699C9.38341 2.16699 10.5054 3.28833 10.5054 4.66699C10.5054 6.04566 9.38341 7.16699 8.00541 7.16699C6.62741 7.16699 5.50541 6.04566 5.50541 4.66699ZM6.50541 4.66699C6.50541 5.49433 7.17874 6.16699 8.00541 6.16699C8.83208 6.16699 9.50541 5.49433 9.50541 4.66699C9.50541 3.83966 8.83208 3.16699 8.00541 3.16699C7.17874 3.16699 6.50541 3.83966 6.50541 4.66699ZM9.18469 8.09302H6.81474C4.25807 8.09302 3.35136 9.96431 3.35136 11.567V13.3337C3.35136 13.6097 3.57536 13.8337 3.85136 13.8337C4.12736 13.8337 4.35136 13.6097 4.35136 13.3337V11.567C4.35136 10.9863 4.5294 9.09302 6.81474 9.09302H9.18469C11.4707 9.09302 11.6481 10.9863 11.6481 11.567V13.3337C11.6481 13.6097 11.8721 13.8337 12.1481 13.8337C12.4241 13.8337 12.6481 13.6097 12.6481 13.3337V11.567C12.6487 9.96431 11.7414 8.09302 9.18469 8.09302Z" fill="#3B3B3E"/>
</svg>
