<svg width="16" height="16" viewBox="0 0 16 16" fill="none" xmlns="http://www.w3.org/2000/svg">
<path d="M11.75 1.5H4.25C2.47667 1.5 1.5 2.47667 1.5 4.25V11.75C1.5 13.5233 2.47667 14.5 4.25 14.5H11.75C13.5233 14.5 14.5 13.5233 14.5 11.75V4.25C14.5 2.47667 13.5233 1.5 11.75 1.5ZM13.5 11.75C13.5 12.9767 12.9767 13.5 11.75 13.5H4.25C3.02333 13.5 2.5 12.9767 2.5 11.75V4.25C2.5 3.02333 3.02333 2.5 4.25 2.5H11.75C12.9767 2.5 13.5 3.02333 13.5 4.25V11.75ZM10.3534 9.64665C10.5487 9.84198 10.5487 10.1587 10.3534 10.354C10.256 10.4513 10.128 10.5007 10 10.5007C9.872 10.5007 9.74398 10.452 9.64665 10.354L6.5 7.20736V8.66667C6.5 8.94267 6.276 9.16667 6 9.16667C5.724 9.16667 5.5 8.94267 5.5 8.66667V6C5.5 5.93467 5.5134 5.86993 5.53874 5.80859C5.5894 5.68659 5.68674 5.58926 5.80941 5.53792C5.87074 5.51259 5.93532 5.49935 6.00065 5.49935H8.66732C8.94332 5.49935 9.16732 5.72335 9.16732 5.99935C9.16732 6.27535 8.94332 6.49935 8.66732 6.49935H7.20801L10.3534 9.64665Z" fill="#3B3B3E"/>
</svg>
