<svg width="16" height="16" viewBox="0 0 16 16" fill="none" xmlns="http://www.w3.org/2000/svg">
<path d="M2 14.4997C1.93533 14.4997 1.87059 14.487 1.80859 14.4617C1.62193 14.3843 1.5 14.2017 1.5 13.9997V3.99967C1.5 2.38767 2.388 1.49967 4 1.49967H9.33333C9.60933 1.49967 9.83333 1.72367 9.83333 1.99967C9.83333 2.27567 9.60933 2.49967 9.33333 2.49967H4C2.94867 2.49967 2.5 2.94834 2.5 3.99967V12.7923L3.64665 11.6457C3.74065 11.5517 3.86733 11.499 4 11.499H12C13.0513 11.499 13.5 11.0504 13.5 9.99902V6.66569C13.5 6.38969 13.724 6.16569 14 6.16569C14.276 6.16569 14.5 6.38969 14.5 6.66569V9.99902C14.5 11.611 13.612 12.499 12 12.499H4.20736L2.354 14.3524C2.258 14.449 2.13 14.4997 2 14.4997ZM15.1667 2.66634C15.1667 1.65501 14.3447 0.833008 13.3333 0.833008C12.322 0.833008 11.5 1.65501 11.5 2.66634C11.5 3.67767 12.322 4.49967 13.3333 4.49967C14.3447 4.49967 15.1667 3.67767 15.1667 2.66634ZM14.1667 2.66634C14.1667 3.12567 13.7927 3.49967 13.3333 3.49967C12.874 3.49967 12.5 3.12567 12.5 2.66634C12.5 2.20701 12.874 1.83301 13.3333 1.83301C13.7927 1.83301 14.1667 2.20701 14.1667 2.66634Z" fill="#3B3B3E"/>
</svg>
