<svg width="16" height="16" viewBox="0 0 16 16" fill="none" xmlns="http://www.w3.org/2000/svg">
<g clip-path="url(#clip0_36251_7349)">
<path d="M2.00044 7.90397C1.98244 7.90397 1.96375 7.90329 1.94575 7.90129C1.67108 7.87129 1.47246 7.62402 1.50312 7.35002C1.74446 5.13802 3.07911 3.23396 5.07311 2.25529C5.22844 2.17929 5.41114 2.18861 5.55781 2.27995C5.70448 2.37128 5.79381 2.532 5.79381 2.70467V4.73796C5.79381 5.01396 5.56981 5.23796 5.29381 5.23796C5.01781 5.23796 4.79381 5.01396 4.79381 4.73796V3.57731C3.51115 4.46931 2.67043 5.87064 2.4971 7.45931C2.46843 7.71464 2.25244 7.90397 2.00044 7.90397ZM10.9265 13.82C12.9205 12.8413 14.2551 10.9367 14.4964 8.72534C14.5271 8.45067 14.3285 8.20399 14.0538 8.17399C13.7785 8.14599 13.5331 8.34195 13.5031 8.61662C13.3291 10.2053 12.4892 11.6059 11.2065 12.4986V11.338C11.2065 11.062 10.9825 10.838 10.7065 10.838C10.4305 10.838 10.2065 11.062 10.2065 11.338V13.3713C10.2065 13.544 10.2957 13.7046 10.4424 13.796C10.5231 13.846 10.6152 13.8713 10.7065 13.8713C10.7818 13.8713 10.8565 13.854 10.9265 13.82ZM10.3365 4.16732C9.41712 4.16732 8.66979 3.41932 8.66979 2.50065C8.66979 1.58198 9.41712 0.833984 10.3365 0.833984C11.2558 0.833984 12.0031 1.58198 12.0031 2.50065C12.0031 3.41932 11.2558 4.16732 10.3365 4.16732ZM10.3365 1.83398C9.96846 1.83398 9.66979 2.13332 9.66979 2.50065C9.66979 2.86798 9.96846 3.16732 10.3365 3.16732C10.7045 3.16732 11.0031 2.86798 11.0031 2.50065C11.0031 2.13332 10.7045 1.83398 10.3365 1.83398ZM11.6658 8.50065H9.00044C8.0611 8.50065 7.49979 7.94201 7.49979 7.00667C7.49979 5.92467 8.16979 4.83398 9.66645 4.83398H10.9998C12.4965 4.83398 13.1665 5.92534 13.1665 7.00667C13.1665 7.94201 12.6051 8.50065 11.6658 8.50065ZM9.66645 5.83398C8.65179 5.83398 8.49979 6.56867 8.49979 7.00667C8.49979 7.39001 8.61177 7.50065 9.00044 7.50065H11.6658C12.0545 7.50065 12.1665 7.39001 12.1665 7.00667C12.1665 6.56867 12.0145 5.83398 10.9998 5.83398H9.66645ZM5.00312 10.834C4.08379 10.834 3.33646 10.086 3.33646 9.16732C3.33646 8.24865 4.08379 7.50065 5.00312 7.50065C5.92246 7.50065 6.66979 8.24865 6.66979 9.16732C6.66979 10.086 5.92246 10.834 5.00312 10.834ZM5.00312 8.50065C4.63512 8.50065 4.33646 8.79998 4.33646 9.16732C4.33646 9.53465 4.63512 9.83398 5.00312 9.83398C5.37112 9.83398 5.66979 9.53465 5.66979 9.16732C5.66979 8.79998 5.37112 8.50065 5.00312 8.50065ZM6.33247 15.1673H3.6671C2.72777 15.1673 2.16645 14.6087 2.16645 13.6733C2.16645 12.5913 2.83645 11.5007 4.33312 11.5007H5.66645C7.16312 11.5007 7.83312 12.592 7.83312 13.6733C7.83312 14.6087 7.2718 15.1673 6.33247 15.1673ZM4.33312 12.5007C3.31845 12.5007 3.16645 13.2353 3.16645 13.6733C3.16645 14.0567 3.27844 14.1673 3.6671 14.1673H6.33247C6.72114 14.1673 6.83312 14.0567 6.83312 13.6733C6.83312 13.2353 6.68112 12.5007 5.66645 12.5007H4.33312Z" fill="#3B3B3E"/>
</g>
<defs>
<clipPath id="clip0_36251_7349">
<rect width="16" height="16" fill="white"/>
</clipPath>
</defs>
</svg>
