<svg width="16" height="16" viewBox="0 0 16 16" fill="none" xmlns="http://www.w3.org/2000/svg">
<path d="M14 6.83319C13.724 6.83319 13.5 7.05719 13.5 7.33319V8.7925L10.8267 6.11981C10.3867 5.67914 9.61334 5.67914 9.17334 6.11981L6 9.2925L5.49333 8.78647C5.05333 8.34581 4.28001 8.34581 3.84001 8.78647L2.5 10.1265V4.66652C2.5 3.61519 2.94867 3.16652 4 3.16652H9.33333C9.60933 3.16652 9.83333 2.94252 9.83333 2.66652C9.83333 2.39052 9.60933 2.16652 9.33333 2.16652H4C2.388 2.16652 1.5 3.05452 1.5 4.66652V11.3332C1.5 12.9452 2.388 13.8332 4 13.8332H12C13.612 13.8332 14.5 12.9452 14.5 11.3332V7.33319C14.5 7.05719 14.276 6.83319 14 6.83319ZM13.5 11.3332C13.5 12.3845 13.0513 12.8332 12 12.8332H4C3.01867 12.8332 2.56798 12.4358 2.51131 11.5285L4.54663 9.49318C4.6313 9.40918 4.7013 9.40918 4.78597 9.49318L5.41203 10.1192C5.72336 10.4312 6.27602 10.4305 6.58602 10.1192L9.87931 6.82586C9.96398 6.74186 10.034 6.74186 10.1187 6.82586L13.4987 10.2059V11.3332H13.5ZM5.33333 5.16652C5.79333 5.16652 6.16667 5.53985 6.16667 5.99985C6.16667 6.45985 5.79333 6.83319 5.33333 6.83319C4.87333 6.83319 4.5 6.45985 4.5 5.99985C4.5 5.53985 4.87333 5.16652 5.33333 5.16652ZM14.3534 4.31317C14.5487 4.5085 14.5487 4.82519 14.3534 5.02052C14.256 5.11786 14.128 5.16717 14 5.16717C13.872 5.16717 13.744 5.11852 13.6466 5.02052L13 4.37388L12.3534 5.02052C12.256 5.11786 12.128 5.16717 12 5.16717C11.872 5.16717 11.744 5.11852 11.6466 5.02052C11.4513 4.82519 11.4513 4.5085 11.6466 4.31317L12.2933 3.66652L11.6466 3.01987C11.4513 2.82454 11.4513 2.50785 11.6466 2.31252C11.842 2.11718 12.1587 2.11718 12.354 2.31252L13.0007 2.95916L13.6473 2.31252C13.8426 2.11718 14.1593 2.11718 14.3547 2.31252C14.55 2.50785 14.55 2.82454 14.3547 3.01987L13.708 3.66652L14.3534 4.31317Z" fill="#3B3B3E"/>
</svg>
