<svg width="16" height="16" viewBox="0 0 16 16" fill="none" xmlns="http://www.w3.org/2000/svg">
<path d="M14 9.5H13.1667V6.5H14C14.276 6.5 14.5 6.276 14.5 6C14.5 5.724 14.276 5.5 14 5.5H13.1667V4C13.1667 2.388 12.2787 1.5 10.6667 1.5H4C2.388 1.5 1.5 2.388 1.5 4V12C1.5 13.612 2.388 14.5 4 14.5H10.6667C12.2787 14.5 13.1667 13.612 13.1667 12V10.5H14C14.276 10.5 14.5 10.276 14.5 10C14.5 9.724 14.276 9.5 14 9.5ZM12.1667 12C12.1667 13.0513 11.718 13.5 10.6667 13.5H4C2.94867 13.5 2.5 13.0513 2.5 12V4C2.5 2.94867 2.94867 2.5 4 2.5H10.6667C11.718 2.5 12.1667 2.94867 12.1667 4V12ZM7.33333 7.83333C8.34467 7.83333 9.16667 7.01067 9.16667 6C9.16667 4.98933 8.34467 4.16667 7.33333 4.16667C6.322 4.16667 5.5 4.98933 5.5 6C5.5 7.01067 6.322 7.83333 7.33333 7.83333ZM7.33333 5.16667C7.79267 5.16667 8.16667 5.54067 8.16667 6C8.16667 6.45933 7.79267 6.83333 7.33333 6.83333C6.874 6.83333 6.5 6.45933 6.5 6C6.5 5.54067 6.874 5.16667 7.33333 5.16667ZM10.5 10.9067V11.3333C10.5 11.6093 10.276 11.8333 10 11.8333C9.724 11.8333 9.5 11.6093 9.5 11.3333V10.9067C9.5 10.2067 9.00741 9.5 7.90674 9.5H6.75928C5.65928 9.5 5.16602 10.2067 5.16602 10.9067V11.3333C5.16602 11.6093 4.94202 11.8333 4.66602 11.8333C4.39002 11.8333 4.16602 11.6093 4.16602 11.3333V10.9067C4.16602 9.71066 5.05661 8.5 6.75928 8.5H7.90674C9.60941 8.5 10.5 9.71066 10.5 10.9067Z" fill="#3B3B3E"/>
</svg>
