<svg width="16" height="16" viewBox="0 0 16 16" fill="none" xmlns="http://www.w3.org/2000/svg">
<path d="M8.00004 0.833008C4.04804 0.833008 0.833374 4.04767 0.833374 7.99967C0.833374 11.9517 4.04804 15.1663 8.00004 15.1663C11.952 15.1663 15.1667 11.9517 15.1667 7.99967C15.1667 4.04767 11.952 0.833008 8.00004 0.833008ZM8.00004 14.1663C4.59937 14.1663 1.83337 11.4003 1.83337 7.99967C1.83337 4.59901 4.59937 1.83301 8.00004 1.83301C11.4007 1.83301 14.1667 4.59901 14.1667 7.99967C14.1667 11.4003 11.4007 14.1663 8.00004 14.1663ZM8.83337 5.49967C9.15871 5.49967 9.47271 5.56169 9.76737 5.68302C10.024 5.78836 10.3154 5.66704 10.4207 5.4117C10.526 5.15637 10.4047 4.86363 10.1494 4.7583C9.73271 4.5863 9.29004 4.49902 8.83337 4.49902C7.34537 4.49902 6.07937 5.43636 5.57404 6.74902H4.70805C4.43205 6.74902 4.20805 6.97302 4.20805 7.24902C4.20805 7.52502 4.43205 7.74902 4.70805 7.74902H5.35803C5.35203 7.83302 5.3327 7.91369 5.3327 7.99902C5.3327 8.08436 5.35203 8.16502 5.35803 8.24902H4.70805C4.43205 8.24902 4.20805 8.47302 4.20805 8.74902C4.20805 9.02502 4.43205 9.24902 4.70805 9.24902H5.57404C6.07937 10.5617 7.34471 11.499 8.83337 11.499C9.28471 11.499 9.72605 11.4137 10.1447 11.2457C10.4007 11.143 10.5254 10.8516 10.422 10.595C10.3194 10.339 10.0294 10.2137 9.77138 10.3177C9.47205 10.4384 9.15604 10.499 8.8327 10.499C7.91137 10.499 7.11404 9.99236 6.6807 9.24902H8.45805C8.73405 9.24902 8.95805 9.02502 8.95805 8.74902C8.95805 8.47302 8.73405 8.24902 8.45805 8.24902H6.35803C6.34937 8.16569 6.3327 8.08436 6.3327 7.99902C6.3327 7.91369 6.34937 7.83236 6.35803 7.74902H8.45805C8.73405 7.74902 8.95805 7.52502 8.95805 7.24902C8.95805 6.97302 8.73405 6.74902 8.45805 6.74902H6.6807C7.1147 6.00636 7.91204 5.49967 8.83337 5.49967Z" fill="#3B3B3E"/>
</svg>
