<svg width="16" height="16" viewBox="0 0 16 16" fill="none" xmlns="http://www.w3.org/2000/svg">
<path d="M14.1173 6.40488C13.82 5.99154 13.1993 5.49956 11.936 5.49956H9.83199V3.84156C9.83199 3.00423 9.41595 2.2269 8.71928 1.76157C8.32128 1.49623 7.83199 1.42821 7.37732 1.57488C6.92132 1.72155 6.56393 2.06222 6.38993 2.52955L4.97131 6.8329H3.00061C2.17394 6.8329 1.50061 7.50556 1.50061 8.3329V12.9996C1.50061 13.8269 2.17394 14.4996 3.00061 14.4996H10.6033C12.2673 14.4996 12.6746 13.6909 12.9753 12.7902L14.308 8.79021C14.6193 7.85421 14.5513 7.00688 14.1173 6.40488ZM2.49996 12.9996V8.3329C2.49996 8.0569 2.72463 7.8329 2.99996 7.8329H4.33329V13.4996H2.99996C2.72463 13.4996 2.49996 13.2756 2.49996 12.9996ZM13.358 8.47356L12.0253 12.4736C11.7886 13.1849 11.64 13.4996 10.6027 13.4996H5.33329V7.8329C5.54929 7.8329 5.74 7.69422 5.80733 7.48955L7.33199 2.86223C7.39266 2.70157 7.51998 2.57957 7.68331 2.52691C7.84664 2.47357 8.02127 2.49889 8.16394 2.59356C8.58194 2.87222 8.83126 3.3389 8.83126 3.84156V5.99956C8.83126 6.27556 9.05526 6.49956 9.33126 6.49956H11.9353C12.3993 6.49956 13.0139 6.58422 13.3059 6.98955C13.5433 7.31889 13.5633 7.86023 13.358 8.47356Z" fill="#3B3B3E"/>
</svg>
