<svg width="16" height="16" viewBox="0 0 16 16" fill="none" xmlns="http://www.w3.org/2000/svg">
<path d="M7.99675 15.1634C4.04474 15.1634 0.830078 11.9481 0.830078 7.99674C0.830078 4.04541 4.04474 0.830078 7.99675 0.830078C11.9487 0.830078 15.1634 4.04541 15.1634 7.99674C15.1634 11.9481 11.9487 15.1634 7.99675 15.1634ZM7.99675 1.83008C4.59608 1.83008 1.83008 4.59608 1.83008 7.99674C1.83008 11.3974 4.59608 14.1634 7.99675 14.1634C11.3974 14.1634 14.1634 11.3974 14.1634 7.99674C14.1634 4.59608 11.3974 1.83008 7.99675 1.83008ZM11.1634 5.33008C11.1634 5.05408 10.9394 4.83008 10.6634 4.83008H5.33008C5.05408 4.83008 4.83008 5.05408 4.83008 5.33008C4.83008 5.60608 5.05408 5.83008 5.33008 5.83008H10.6634C10.9394 5.83008 11.1634 5.60608 11.1634 5.33008ZM10.1634 7.99674C10.1634 7.72074 9.93941 7.49674 9.66341 7.49674H6.33008C6.05408 7.49674 5.83008 7.72074 5.83008 7.99674C5.83008 8.27274 6.05408 8.49674 6.33008 8.49674H9.66341C9.93941 8.49674 10.1634 8.27274 10.1634 7.99674ZM9.16341 10.6634C9.16341 10.3874 8.93941 10.1634 8.66341 10.1634H7.33008C7.05408 10.1634 6.83008 10.3874 6.83008 10.6634C6.83008 10.9394 7.05408 11.1634 7.33008 11.1634H8.66341C8.93941 11.1634 9.16341 10.9394 9.16341 10.6634Z" fill="#3B3B3E"/>
</svg>
