<svg width="16" height="16" viewBox="0 0 16 16" fill="none" xmlns="http://www.w3.org/2000/svg">
<path d="M10.6667 6.5H5.33333C5.05733 6.5 4.83333 6.276 4.83333 6C4.83333 5.724 5.05733 5.5 5.33333 5.5H10.6667C10.9427 5.5 11.1667 5.724 11.1667 6C11.1667 6.276 10.9427 6.5 10.6667 6.5ZM11.1667 8C11.1667 7.724 10.9427 7.5 10.6667 7.5H5.33333C5.05733 7.5 4.83333 7.724 4.83333 8C4.83333 8.276 5.05733 8.5 5.33333 8.5H10.6667C10.9427 8.5 11.1667 8.276 11.1667 8ZM11.1667 10C11.1667 9.724 10.9427 9.5 10.6667 9.5H5.33333C5.05733 9.5 4.83333 9.724 4.83333 10C4.83333 10.276 5.05733 10.5 5.33333 10.5H10.6667C10.9427 10.5 11.1667 10.276 11.1667 10ZM14.5 11.75V4.25C14.5 2.47667 13.5233 1.5 11.75 1.5H4.25C2.47667 1.5 1.5 2.47667 1.5 4.25V11.75C1.5 13.5233 2.47667 14.5 4.25 14.5H11.75C13.5233 14.5 14.5 13.5233 14.5 11.75ZM11.75 2.5C12.9767 2.5 13.5 3.02333 13.5 4.25V11.75C13.5 12.9767 12.9767 13.5 11.75 13.5H4.25C3.02333 13.5 2.5 12.9767 2.5 11.75V4.25C2.5 3.02333 3.02333 2.5 4.25 2.5H11.75Z" fill="#3B3B3E"/>
</svg>
