<svg width="16" height="16" viewBox="0 0 16 16" fill="none" xmlns="http://www.w3.org/2000/svg">
<path d="M12.9429 14.5003H3.61026C3.33426 14.5003 3.11026 14.2763 3.11026 14.0003C3.11026 13.7243 3.33426 13.5003 3.61026 13.5003H12.9429C13.2189 13.5003 13.4429 13.7243 13.4429 14.0003C13.4429 14.2763 13.2189 14.5003 12.9429 14.5003ZM11.5569 10.667V7.83365H12.6723C13.1509 7.83365 13.5736 7.54632 13.7502 7.10232C13.9269 6.65766 13.8162 6.15896 13.4682 5.83096L9.28555 1.87898C8.75155 1.37498 7.91556 1.37498 7.38223 1.87898L3.19961 5.83096C2.85228 6.15896 2.74088 6.65831 2.91755 7.10298C3.09488 7.54764 3.51684 7.8343 3.99551 7.8343H5.22419V10.667C5.22419 11.3103 5.74752 11.8336 6.39085 11.8336H10.3909C11.0335 11.8336 11.5569 11.3103 11.5569 10.667ZM3.99486 6.83365C3.90486 6.83365 3.86492 6.77898 3.84626 6.73298C3.82826 6.68698 3.8195 6.61965 3.88483 6.55765L8.06761 2.60566C8.21761 2.46499 8.44886 2.46499 8.59886 2.60566L12.7816 6.55765C12.847 6.61898 12.8382 6.68698 12.8202 6.73298C12.8022 6.77898 12.7616 6.83365 12.6716 6.83365H11.0562C10.9236 6.83365 10.7962 6.88629 10.7029 6.98029C10.6095 7.07429 10.5562 7.20098 10.5562 7.33365V10.667C10.5562 10.759 10.4816 10.8336 10.3896 10.8336H6.38955C6.29755 10.8336 6.22289 10.759 6.22289 10.667V7.33365C6.22289 7.20098 6.17024 7.07363 6.07624 6.98029C5.98224 6.88629 5.85555 6.83365 5.72289 6.83365H3.99486Z" fill="#3B3B3E"/>
</svg>
