<svg width="16" height="16" viewBox="0 0 16 16" fill="none" xmlns="http://www.w3.org/2000/svg">
<path d="M14.5 6.00046C14.5 4.98912 13.678 4.16712 12.6667 4.16712H11.2567L9.80933 1.74379C9.66799 1.50779 9.36336 1.42912 9.12402 1.57112C8.88736 1.71246 8.80933 2.01979 8.95133 2.25646L10.0927 4.16645H5.99202L7.14201 2.25779C7.28468 2.02179 7.20869 1.71445 6.97135 1.57179C6.73402 1.42912 6.42732 1.50579 6.28532 1.74246L4.82471 4.16712H3.33333C2.322 4.16712 1.5 4.98912 1.5 6.00046C1.5 6.72646 1.92734 7.34979 2.54134 7.64645L3.0013 12.2491C3.15264 13.7638 3.96602 14.5005 5.48869 14.5005H10.5353C12.058 14.5005 12.872 13.7645 13.0227 12.2491L13.484 7.63245C14.084 7.33045 14.5 6.71579 14.5 6.00046ZM3.33333 5.16712H12.6667C13.126 5.16712 13.5 5.54112 13.5 6.00046C13.5 6.45979 13.126 6.83379 12.6667 6.83379H3.33333C2.874 6.83379 2.5 6.45979 2.5 6.00046C2.5 5.54112 2.874 5.16712 3.33333 5.16712ZM12.0286 12.1498C11.9426 13.0051 11.6713 13.5005 10.536 13.5005H5.48934C4.34801 13.5005 4.08466 13.0258 3.99666 12.1498L3.56535 7.83379H12.4607L12.0286 12.1498ZM9.83333 10.6671C9.83333 10.9431 9.60933 11.1671 9.33333 11.1671H6.66667C6.39067 11.1671 6.16667 10.9431 6.16667 10.6671C6.16667 10.3911 6.39067 10.1671 6.66667 10.1671H9.33333C9.60933 10.1671 9.83333 10.3911 9.83333 10.6671Z" fill="#3B3B3E"/>
</svg>
