<svg width="16" height="16" viewBox="0 0 16 16" fill="none" xmlns="http://www.w3.org/2000/svg">
<path d="M5.16667 8C5.16667 8.276 4.94267 8.5 4.66667 8.5C4.39067 8.5 4.16667 8.276 4.16667 8C4.16667 7.724 4.39067 7.5 4.66667 7.5C4.94267 7.5 5.16667 7.724 5.16667 8ZM4.66667 10.1667C4.39067 10.1667 4.16667 10.3907 4.16667 10.6667C4.16667 10.9427 4.39067 11.1667 4.66667 11.1667C4.94267 11.1667 5.16667 10.9427 5.16667 10.6667C5.16667 10.3907 4.94267 10.1667 4.66667 10.1667ZM9.83333 8C9.83333 7.724 9.60933 7.5 9.33333 7.5H6.33333C6.05733 7.5 5.83333 7.724 5.83333 8C5.83333 8.276 6.05733 8.5 6.33333 8.5H9.33333C9.60933 8.5 9.83333 8.276 9.83333 8ZM7.33333 11.1667C7.60933 11.1667 7.83333 10.9427 7.83333 10.6667C7.83333 10.3907 7.60933 10.1667 7.33333 10.1667H6.33333C6.05733 10.1667 5.83333 10.3907 5.83333 10.6667C5.83333 10.9427 6.05733 11.1667 6.33333 11.1667H7.33333ZM14.5 10.744V12.074C14.5 13.7387 13.2927 14.7487 12.1634 15.1393C12.1107 15.158 12.0553 15.1667 12 15.1667C11.9447 15.1667 11.8893 15.1573 11.8366 15.1393C10.7073 14.7487 9.5 13.7387 9.5 12.074V10.778C9.5 10.556 9.64671 10.3607 9.85938 10.298C10.8734 10.0007 11.3447 9.77734 11.7754 9.55534C11.9194 9.48134 12.0907 9.48133 12.2354 9.55666C12.662 9.77933 13.1267 10.0013 14.1253 10.26C14.346 10.3173 14.5 10.516 14.5 10.744ZM13.5 11.126C12.856 10.942 12.4166 10.764 12.0026 10.56C11.5833 10.7653 11.152 10.944 10.5 11.1487V12.074C10.5 13.3493 11.542 13.9347 12 14.1307C12.458 13.9353 13.5 13.3493 13.5 12.074V11.126ZM9.16667 14C9.16667 14.276 8.94267 14.5 8.66667 14.5H4C2.388 14.5 1.5 13.612 1.5 12V4C1.5 2.388 2.388 1.5 4 1.5H8C8.13267 1.5 8.26002 1.55267 8.35335 1.64667L12.3534 5.64667C12.4474 5.74067 12.5 5.86733 12.5 6V8C12.5 8.276 12.276 8.5 12 8.5C11.724 8.5 11.5 8.276 11.5 8V6.5H10C8.388 6.5 7.5 5.612 7.5 4V2.5H4C2.94867 2.5 2.5 2.94867 2.5 4V12C2.5 13.0513 2.94867 13.5 4 13.5H8.66667C8.94267 13.5 9.16667 13.724 9.16667 14ZM10 5.5H10.7926L8.5 3.20734V4C8.5 5.05133 8.94867 5.5 10 5.5Z" fill="#3B3B3E"/>
</svg>
