<svg width="16" height="16" viewBox="0 0 16 16" fill="none" xmlns="http://www.w3.org/2000/svg">
<path d="M8 15.1669C7.94667 15.1669 7.89329 15.1582 7.84196 15.1409C6.78263 14.7875 1.5 12.7482 1.5 7.25887V3.33357C1.5 3.09557 1.66802 2.8895 1.90202 2.8435C5.15535 2.19283 6.3087 1.6209 7.76937 0.896236C7.9107 0.826236 8.0973 0.816958 8.2373 0.886958C9.67664 1.61296 10.814 2.18617 14.0986 2.8435C14.3326 2.89017 14.5007 3.09557 14.5007 3.33357V7.25952C14.5007 12.7488 9.21802 14.7882 8.15869 15.1415C8.10669 15.1582 8.05333 15.1669 8 15.1669ZM2.5 3.74161V7.25887C2.5 11.8355 6.77867 13.699 8 14.137C9.22133 13.699 13.5 11.8349 13.5 7.25887V3.74161C10.5513 3.12428 9.31193 2.54617 8.00993 1.89217C6.62526 2.57683 5.42333 3.13095 2.5 3.74161ZM8.00407 8.03361C7.12207 8.03361 6.40462 7.31551 6.40462 6.43351C6.40462 5.55151 7.12207 4.83357 8.00407 4.83357C8.88607 4.83357 9.604 5.55151 9.604 6.43351C9.604 7.31551 8.88607 8.03361 8.00407 8.03361ZM8.00407 5.83357C7.6734 5.83357 7.40462 6.10284 7.40462 6.43351C7.40462 6.76417 7.6734 7.03361 8.00407 7.03361C8.33474 7.03361 8.604 6.76417 8.604 6.43351C8.604 6.10284 8.33474 5.83357 8.00407 5.83357ZM10 11.1669C9.724 11.1669 9.5 10.9429 9.5 10.6669V10.4649C9.5 9.98492 9.16873 9.50024 8.42806 9.50024H7.57259C6.83192 9.50024 6.50065 9.98492 6.50065 10.4649V10.6669C6.50065 10.9429 6.27665 11.1669 6.00065 11.1669C5.72465 11.1669 5.50065 10.9429 5.50065 10.6669V10.4649C5.50065 9.48892 6.21192 8.50024 7.57259 8.50024H8.42806C9.78873 8.50024 10.5 9.48825 10.5 10.4649V10.6669C10.5 10.9429 10.276 11.1669 10 11.1669Z" fill="#3B3B3E"/>
</svg>
