<svg width="16" height="16" viewBox="0 0 16 16" fill="none" xmlns="http://www.w3.org/2000/svg">
<path d="M11.606 6.8986C11.36 6.6526 11.2566 6.30193 11.3293 5.96126L11.8966 3.31396C12.008 2.79663 11.922 2.32997 11.656 2.0013C11.4713 1.77264 11.108 1.5 10.43 1.5H5.57064C4.89197 1.5 4.52931 1.77264 4.34465 2.0013C4.07865 2.33064 3.99332 2.79663 4.10398 3.31396L4.67131 5.96126C4.74397 6.30193 4.64065 6.6526 4.39398 6.8986C3.38798 7.9046 2.83331 9.24335 2.83331 10.666C2.83331 10.942 3.05731 11.166 3.33331 11.166H7.49998V13.9993C7.49998 14.2753 7.72398 14.4993 7.99998 14.4993C8.27598 14.4993 8.49998 14.2753 8.49998 13.9993V11.166H12.6666C12.9426 11.166 13.1666 10.942 13.1666 10.666C13.1666 9.24335 12.612 7.90527 11.606 6.8986ZM3.86131 10.1667C3.97197 9.2 4.40265 8.30462 5.10065 7.60596C5.58798 7.11862 5.79264 6.42595 5.64864 5.75195L5.08132 3.10465C5.03665 2.89465 5.05132 2.71738 5.12199 2.63005C5.21399 2.51671 5.44197 2.5 5.57064 2.5H10.43C10.558 2.5 10.7866 2.51671 10.8786 2.63005C10.9486 2.71738 10.964 2.89465 10.9193 3.10465L10.352 5.75195C10.208 6.42595 10.4126 7.11862 10.9 7.60596C11.598 8.30462 12.0287 9.2 12.1393 10.1667H3.86131Z" fill="#3B3B3E"/>
</svg>
