<svg width="16" height="16" viewBox="0 0 16 16" fill="none" xmlns="http://www.w3.org/2000/svg">
<path d="M14.3227 11.576C14.1707 11.8467 13.9433 12.056 13.6647 12.1813L9.27732 14.2187C8.87132 14.4073 8.436 14.502 8 14.502C7.564 14.502 7.12801 14.4073 6.72201 14.2187L2.32933 12.1787C2.05666 12.056 1.82868 11.8473 1.67668 11.576C1.54134 11.3353 1.62734 11.0307 1.86867 10.8953C2.10867 10.7613 2.414 10.846 2.54934 11.0873C2.59667 11.172 2.66067 11.2313 2.74467 11.2687L7.144 13.3113C7.68067 13.5607 8.32 13.5607 8.856 13.3113L13.2493 11.2713C13.3393 11.2307 13.4033 11.1713 13.4507 11.0867C13.5853 10.8453 13.89 10.76 14.1313 10.8947C14.372 11.0307 14.458 11.3353 14.3227 11.576ZM14.1313 8.01332C13.89 7.87866 13.5853 7.96334 13.4507 8.20534C13.4033 8.29001 13.3393 8.34933 13.2493 8.38999L8.856 10.43C8.32 10.6793 7.68067 10.6793 7.144 10.43L2.74467 8.38733C2.66134 8.34999 2.59734 8.29066 2.55001 8.20599C2.41467 7.96466 2.10932 7.88 1.86932 8.014C1.62866 8.14933 1.54266 8.45399 1.67733 8.69466C1.82933 8.96599 2.05666 9.17467 2.33 9.29734L6.72268 11.3373C7.12868 11.526 7.56467 11.6207 8.00067 11.6207C8.43667 11.6207 8.87199 11.526 9.278 11.3373L13.6653 9.30001C13.944 9.17467 14.172 8.96599 14.324 8.69466C14.458 8.45266 14.372 8.14799 14.1313 8.01332ZM1.5 5.11999C1.5 4.55399 1.81866 4.05534 2.33199 3.81734L6.72268 1.782C7.53401 1.406 8.46467 1.406 9.27667 1.782L13.6673 3.81734C14.1807 4.05534 14.4993 4.55466 14.4993 5.11999C14.4993 5.68533 14.1807 6.18467 13.6673 6.42267L9.27667 8.45801C8.87134 8.64601 8.43533 8.73999 7.99933 8.73999C7.56333 8.73999 7.12801 8.64601 6.72201 8.45801L2.33134 6.42267C1.81867 6.18467 1.5 5.68599 1.5 5.11999ZM2.5 5.11999C2.5 5.18533 2.518 5.40666 2.75267 5.51599L7.14333 7.55133C7.688 7.80399 8.31266 7.80333 8.856 7.55133L13.2467 5.51599C13.4813 5.40732 13.4993 5.18533 13.4993 5.11999C13.4993 5.05466 13.4813 4.83333 13.2467 4.724L8.856 2.68866C8.584 2.56266 8.29133 2.49933 7.99933 2.49933C7.70733 2.49933 7.41533 2.56266 7.14266 2.68866L2.75199 4.724C2.51799 4.83333 2.5 5.05466 2.5 5.11999Z" fill="#3B3B3E"/>
</svg>
