<svg width="16" height="16" viewBox="0 0 16 16" fill="none" xmlns="http://www.w3.org/2000/svg">
<g clip-path="url(#clip0_36251_7356)">
<path d="M6.67269 7.16667C5.11002 7.16667 3.83936 5.89533 3.83936 4.33333C3.83936 2.77133 5.11002 1.5 6.67269 1.5C8.23536 1.5 9.50602 2.77133 9.50602 4.33333C9.50602 5.89533 8.23536 7.16667 6.67269 7.16667ZM6.67269 2.5C5.66136 2.5 4.83936 3.322 4.83936 4.33333C4.83936 5.34467 5.66136 6.16667 6.67269 6.16667C7.68402 6.16667 8.50602 5.34467 8.50602 4.33333C8.50602 3.322 7.68336 2.5 6.67269 2.5ZM8 14.5H4C2.388 14.5 1.5 13.6167 1.5 12.0133C1.5 10.2387 2.504 8.16667 5.33333 8.16667H8C8.28067 8.16667 8.52468 8.18397 8.74601 8.21997C9.01868 8.2633 9.20466 8.51998 9.15999 8.79264C9.11666 9.06531 8.85465 9.25071 8.58732 9.20671C8.41932 9.17937 8.22733 9.16667 8 9.16667H5.33333C2.70467 9.16667 2.5 11.346 2.5 12.0133C2.5 13.0553 2.94867 13.5 4 13.5H8C8.276 13.5 8.5 13.724 8.5 14C8.5 14.276 8.276 14.5 8 14.5ZM12.286 15.1667C12.2306 15.1667 12.1753 15.1573 12.1226 15.1393C10.8553 14.7013 9.5 13.5687 9.5 11.704V10.2227C9.5 10.0007 9.64663 9.80534 9.85929 9.74268C11.022 9.40201 11.5647 9.14467 12.062 8.88867C12.2067 8.81467 12.378 8.81464 12.522 8.88997C13.0133 9.14664 13.5507 9.40197 14.6973 9.6993C14.9173 9.75663 15.072 9.95535 15.072 10.1833V11.7034C15.072 13.568 13.7173 14.7007 12.4493 15.1387C12.3966 15.1573 12.3413 15.1667 12.286 15.1667ZM10.5 10.594V11.704C10.5 13.2307 11.7646 13.9147 12.286 14.132C12.8066 13.9153 14.072 13.23 14.072 11.704V10.5667C13.2947 10.348 12.7873 10.142 12.2893 9.89396C11.7913 10.1393 11.284 10.35 10.5 10.594Z" fill="#3B3B3E"/>
</g>
<defs>
<clipPath id="clip0_36251_7356">
<rect width="16" height="16" fill="white"/>
</clipPath>
</defs>
</svg>
