<svg width="16" height="16" viewBox="0 0 16 16" fill="none" xmlns="http://www.w3.org/2000/svg">
<path d="M12 5.5H4C2.388 5.5 1.5 6.388 1.5 8V12.6667C1.5 14.2787 2.388 15.1667 4 15.1667H12C13.612 15.1667 14.5 14.2787 14.5 12.6667V8C14.5 6.388 13.612 5.5 12 5.5ZM13.5 12.6667C13.5 13.718 13.0513 14.1667 12 14.1667H4C2.94867 14.1667 2.5 13.718 2.5 12.6667V8C2.5 6.94867 2.94867 6.5 4 6.5H12C13.0513 6.5 13.5 6.94867 13.5 8V12.6667ZM3.5 4C3.5 3.724 3.724 3.5 4 3.5H12C12.276 3.5 12.5 3.724 12.5 4C12.5 4.276 12.276 4.5 12 4.5H4C3.724 4.5 3.5 4.276 3.5 4ZM4.83333 2C4.83333 1.724 5.05733 1.5 5.33333 1.5H10.6667C10.9427 1.5 11.1667 1.724 11.1667 2C11.1667 2.276 10.9427 2.5 10.6667 2.5H5.33333C5.05733 2.5 4.83333 2.276 4.83333 2ZM9.98202 9.40999L7.8833 8.12533C7.53597 7.91266 7.09801 7.90335 6.74268 8.10335C6.38201 8.30535 6.16732 8.67197 6.16732 9.08464V11.582C6.16732 11.9947 6.38201 12.3613 6.74268 12.5633C6.91401 12.6593 7.10403 12.7074 7.29403 12.7074C7.49869 12.7074 7.70263 12.652 7.8833 12.5413L9.98136 11.2573C10.306 11.0587 10.5 10.7133 10.5 10.3333C10.5 9.95333 10.306 9.60799 9.98202 9.40999ZM9.45931 10.404L7.36068 11.6886C7.30668 11.7213 7.26003 11.7081 7.23136 11.6914C7.20203 11.6747 7.16667 11.6427 7.16667 11.582V9.08464C7.16667 9.02464 7.20203 8.99193 7.23136 8.97526C7.24736 8.96593 7.26934 8.95801 7.29468 8.95801C7.31468 8.95801 7.33733 8.96336 7.36133 8.97803L9.45996 10.2627C9.45996 10.2627 9.46003 10.2627 9.46069 10.2627C9.48669 10.2787 9.50065 10.3027 9.50065 10.3327C9.50065 10.3627 9.48598 10.388 9.45931 10.404Z" fill="#3B3B3E"/>
</svg>
