<svg width="16" height="16" viewBox="0 0 16 16" fill="none" xmlns="http://www.w3.org/2000/svg">
<path d="M11.3334 1.5H4.66675C3.05475 1.5 2.16675 2.388 2.16675 4V12C2.16675 13.612 3.05475 14.5 4.66675 14.5H11.3334C12.9454 14.5 13.8334 13.612 13.8334 12V4C13.8334 2.388 12.9454 1.5 11.3334 1.5ZM12.8334 12C12.8334 13.0513 12.3847 13.5 11.3334 13.5H4.66675C3.61541 13.5 3.16675 13.0513 3.16675 12V4C3.16675 2.94867 3.61541 2.5 4.66675 2.5H11.3334C12.3847 2.5 12.8334 2.94867 12.8334 4V12ZM11.5001 5.33333C11.5001 5.60933 11.2761 5.83333 11.0001 5.83333H8.33341C8.05741 5.83333 7.83341 5.60933 7.83341 5.33333C7.83341 5.05733 8.05741 4.83333 8.33341 4.83333H11.0001C11.2761 4.83333 11.5001 5.05733 11.5001 5.33333ZM11.5001 8C11.5001 8.276 11.2761 8.5 11.0001 8.5H8.33341C8.05741 8.5 7.83341 8.276 7.83341 8C7.83341 7.724 8.05741 7.5 8.33341 7.5H11.0001C11.2761 7.5 11.5001 7.724 11.5001 8ZM6.68677 4.53532C6.8821 4.73065 6.8821 5.04734 6.68677 5.24268L5.7981 6.13135C5.70076 6.22868 5.57274 6.27799 5.44474 6.27799C5.31741 6.27799 5.18872 6.22933 5.09139 6.132L4.64673 5.68734C4.4514 5.492 4.4514 5.17531 4.64673 4.97998C4.8414 4.78531 5.15809 4.78465 5.35409 4.97998L5.44539 5.07133L5.98071 4.53601C6.17538 4.34001 6.49143 4.33999 6.68677 4.53532ZM6.68677 7.20199C6.8821 7.39732 6.8821 7.71401 6.68677 7.90934L5.7981 8.79801C5.70076 8.89535 5.57274 8.94466 5.44474 8.94466C5.31741 8.94466 5.18872 8.896 5.09139 8.79867L4.64673 8.354C4.4514 8.15867 4.4514 7.84198 4.64673 7.64665C4.8414 7.45198 5.15809 7.45131 5.35409 7.64665L5.44539 7.738L5.98071 7.20268C6.17538 7.00668 6.49143 7.00665 6.68677 7.20199ZM11.5001 10.6667C11.5001 10.9427 11.2761 11.1667 11.0001 11.1667H8.33341C8.05741 11.1667 7.83341 10.9427 7.83341 10.6667C7.83341 10.3907 8.05741 10.1667 8.33341 10.1667H11.0001C11.2761 10.1667 11.5001 10.3907 11.5001 10.6667ZM6.68677 9.86865C6.8821 10.064 6.8821 10.3807 6.68677 10.576L5.7981 11.4647C5.70076 11.562 5.57274 11.6113 5.44474 11.6113C5.31741 11.6113 5.18872 11.5627 5.09139 11.4653L4.64673 11.0207C4.4514 10.8253 4.4514 10.5086 4.64673 10.3133C4.8414 10.1186 5.15809 10.118 5.35409 10.3133L5.44539 10.4047L5.98071 9.86934C6.17538 9.67334 6.49143 9.67332 6.68677 9.86865Z" fill="#3B3B3E"/>
</svg>
