<svg width="16" height="16" viewBox="0 0 16 16" fill="none" xmlns="http://www.w3.org/2000/svg">
<path d="M14.3534 4.46144L13.65 3.75815L11.5387 1.64748C11.3433 1.45214 11.0266 1.45214 10.8313 1.64748C10.636 1.84281 10.636 2.1595 10.8313 2.35483L11.1813 2.70477L9.77801 4.1089L9.42799 3.7588C9.42799 3.7588 9.42734 3.75882 9.42734 3.75815L8.9 3.23081C8.70467 3.03548 8.38798 3.03548 8.19264 3.23081C7.99731 3.42614 7.99731 3.74283 8.19264 3.93817L8.36671 4.11216L4.31268 8.16619C4.29401 8.18486 4.28136 8.20417 4.26336 8.22284C4.25803 8.2275 4.25136 8.22956 4.24603 8.23423C4.23536 8.24423 4.232 8.25823 4.22267 8.2689C3.74334 8.78156 3.4827 9.31758 3.4647 9.86558C3.4487 10.3582 3.62803 10.8408 3.98537 11.3081L1.64601 13.6475C1.45068 13.8428 1.45068 14.1595 1.64601 14.3548C1.74335 14.4522 1.87136 14.5015 1.99936 14.5015C2.12736 14.5015 2.25538 14.4528 2.35272 14.3548L4.69134 12.0161C5.14267 12.3615 5.60801 12.5396 6.07334 12.5396C6.67001 12.5396 7.26672 12.2555 7.83538 11.6882L11.888 7.63413L12.0627 7.80877C12.16 7.90611 12.288 7.95558 12.416 7.95558C12.544 7.95558 12.672 7.90677 12.7694 7.80877C12.9647 7.61344 12.9647 7.29691 12.7694 7.10158L12.2414 6.57358L11.8914 6.22349L13.2953 4.81951L13.6454 5.16945C13.7427 5.26678 13.8707 5.31626 13.9987 5.31626C14.1267 5.31626 14.2547 5.26745 14.352 5.16945C14.5487 4.97278 14.5487 4.65677 14.3534 4.46144ZM7.12803 10.9795C6.39003 11.7182 5.75803 11.7182 5.02003 10.9795C4.64137 10.6002 4.45401 10.2362 4.46535 9.89617C4.47135 9.71818 4.53603 9.53214 4.6487 9.34214L5.31935 10.0135C5.41668 10.1109 5.5447 10.1602 5.6727 10.1602C5.80004 10.1602 5.92864 10.1115 6.02598 10.0135C6.22131 9.81886 6.22131 9.5015 6.02598 9.30617L5.30535 8.58547L6.00799 7.88283L6.72536 8.60011C6.82269 8.69745 6.95071 8.74692 7.07871 8.74692C7.20671 8.74692 7.33465 8.69811 7.43198 8.60011C7.62732 8.40478 7.62732 8.08825 7.43198 7.89292L6.7147 7.17547L7.41798 6.47218L8.13869 7.19289C8.23602 7.29022 8.36404 7.33953 8.49204 7.33953C8.62004 7.33953 8.74798 7.29089 8.84531 7.19289C9.04065 6.99755 9.04065 6.68086 8.84531 6.48553L8.12469 5.76483L9.07269 4.81691L10.8294 6.57358C10.8294 6.57358 10.8293 6.57423 10.83 6.57423C10.8307 6.57423 10.8307 6.57422 10.8307 6.57489L11.18 6.92417L7.12803 10.9795ZM11.1853 5.51483L10.4854 4.81479L11.8893 3.41082L12.59 4.11086L11.1853 5.51483Z" fill="#3B3B3E"/>
</svg>
