<svg width="16" height="16" viewBox="0 0 16 16" fill="none" xmlns="http://www.w3.org/2000/svg">
<g clip-path="url(#clip0_36251_7362)">
<path d="M11 15.1667C10.872 15.1667 10.744 15.118 10.6466 15.02L8.97998 13.3534C8.78465 13.158 8.78465 12.8413 8.97998 12.646L10.6466 10.9793C10.842 10.784 11.1587 10.784 11.354 10.9793C11.5493 11.1747 11.5493 11.4914 11.354 11.6867L10.0407 13L11.354 14.3133C11.5493 14.5086 11.5493 14.8253 11.354 15.0207C11.256 15.118 11.128 15.1667 11 15.1667ZM13.3534 15.02L15.02 13.3534C15.2154 13.158 15.2154 12.8413 15.02 12.646L13.3534 10.9793C13.158 10.784 12.8413 10.784 12.646 10.9793C12.4507 11.1747 12.4507 11.4914 12.646 11.6867L13.9593 13L12.646 14.3133C12.4507 14.5086 12.4507 14.8253 12.646 15.0207C12.7433 15.118 12.8713 15.1673 12.9993 15.1673C13.1273 15.1673 13.256 15.118 13.3534 15.02ZM9.50602 4.33333C9.50602 2.77133 8.23536 1.5 6.67269 1.5C5.11002 1.5 3.83936 2.77133 3.83936 4.33333C3.83936 5.89533 5.11002 7.16667 6.67269 7.16667C8.23536 7.16667 9.50602 5.89533 9.50602 4.33333ZM8.50602 4.33333C8.50602 5.34467 7.68402 6.16667 6.67269 6.16667C5.66136 6.16667 4.83936 5.34467 4.83936 4.33333C4.83936 3.322 5.66136 2.5 6.67269 2.5C7.68402 2.5 8.50602 3.322 8.50602 4.33333ZM7.83333 14C7.83333 13.724 7.60933 13.5 7.33333 13.5H4C2.94867 13.5 2.5 13.0553 2.5 12.0133C2.5 11.346 2.70467 9.16667 5.33333 9.16667H8C8.77267 9.16667 9.39934 9.35397 9.86068 9.72331C10.0767 9.89597 10.3906 9.86201 10.564 9.64534C10.7366 9.42934 10.7013 9.11529 10.486 8.94263C9.842 8.42729 9.006 8.16602 8 8.16602H5.33333C2.504 8.16602 1.5 10.238 1.5 12.0127C1.5 13.616 2.388 14.4993 4 14.4993H7.33333C7.60933 14.5 7.83333 14.276 7.83333 14Z" fill="#3B3B3E"/>
</g>
<defs>
<clipPath id="clip0_36251_7362">
<rect width="16" height="16" fill="white"/>
</clipPath>
</defs>
</svg>
