<svg width="16" height="16" viewBox="0 0 16 16" fill="none" xmlns="http://www.w3.org/2000/svg">
<path d="M12.6667 8.66667C12.6667 8.94267 12.4427 9.16667 12.1667 9.16667H10.5001C10.2241 9.16667 10.0001 8.94267 10.0001 8.66667C10.0001 8.39067 10.2241 8.16667 10.5001 8.16667H12.1667C12.4427 8.16667 12.6667 8.39067 12.6667 8.66667ZM14.5001 8.66667C14.5001 10.4127 13.0794 11.8333 11.3334 11.8333C10.7881 11.8333 10.2821 11.682 9.83341 11.438V14C9.83341 14.1893 9.72672 14.3627 9.55672 14.4473C9.48672 14.4827 9.40941 14.5 9.33341 14.5C9.22741 14.5 9.12211 14.466 9.03345 14.4L6.36678 12.4C6.24145 12.3053 6.16675 12.1573 6.16675 12V9.33333C6.16675 9.20067 6.11478 9.07533 6.01945 8.98L2.60677 5.56667C2.32277 5.28334 2.16675 4.90667 2.16675 4.50667V3C2.16675 2.17267 2.84008 1.5 3.66675 1.5H12.3334C13.1601 1.5 13.8334 2.17267 13.8334 3V4.50667C13.8334 4.90667 13.6774 5.28334 13.3934 5.56734L12.9834 5.97734C13.8894 6.53467 14.5001 7.52733 14.5001 8.66667ZM8.83341 13V10.5873C8.42141 10.0527 8.16675 9.392 8.16675 8.66667C8.16675 6.92067 9.58741 5.5 11.3334 5.5C11.5547 5.5 11.7707 5.52334 11.9794 5.56734L12.6868 4.86001C12.7821 4.76534 12.8341 4.64001 12.8341 4.50667V3C12.8341 2.724 12.6094 2.5 12.3341 2.5H3.6674C3.39207 2.5 3.1674 2.724 3.1674 3V4.50667C3.1674 4.63934 3.21945 4.76467 3.31478 4.86001L6.72738 8.27334C7.01138 8.55667 7.1674 8.93333 7.1674 9.33333V11.75L8.83341 13ZM13.5001 8.66667C13.5001 7.472 12.5281 6.5 11.3334 6.5C10.1387 6.5 9.16675 7.472 9.16675 8.66667C9.16675 9.86133 10.1387 10.8333 11.3334 10.8333C12.5281 10.8333 13.5001 9.86133 13.5001 8.66667Z" fill="#3B3B3E"/>
</svg>
