<svg width="16" height="16" viewBox="0 0 16 16" fill="none" xmlns="http://www.w3.org/2000/svg">
<path d="M11.1667 4.84668V2.66667C11.1667 2.02333 10.6433 1.5 10 1.5H6C5.35667 1.5 4.83333 2.02333 4.83333 2.66667V4.84668C3.99733 4.91135 3.5 5.45333 3.5 6.33333V12C3.5 13.612 4.388 14.5 6 14.5H10C11.612 14.5 12.5 13.612 12.5 12V6.33333C12.5 5.45267 12.0027 4.91135 11.1667 4.84668ZM6 2.5H10C10.092 2.5 10.1667 2.57467 10.1667 2.66667V4.83333H5.83333V2.66667C5.83333 2.57467 5.908 2.5 6 2.5ZM11.5 12C11.5 13.0513 11.0513 13.5 10 13.5H6C4.94867 13.5 4.5 13.0513 4.5 12V6.33333C4.5 5.94067 4.60733 5.83333 5 5.83333H11C11.3927 5.83333 11.5 5.94067 11.5 6.33333V12ZM9.5 11.3333C9.5 11.6093 9.276 11.8333 9 11.8333H7C6.724 11.8333 6.5 11.6093 6.5 11.3333C6.5 11.0573 6.724 10.8333 7 10.8333H9C9.276 10.8333 9.5 11.0573 9.5 11.3333ZM6.5 3.66667C6.5 3.39067 6.724 3.16667 7 3.16667C7.276 3.16667 7.5 3.39067 7.5 3.66667C7.5 3.94267 7.276 4.16667 7 4.16667C6.724 4.16667 6.5 3.94267 6.5 3.66667ZM8.5 3.66667C8.5 3.39067 8.724 3.16667 9 3.16667C9.276 3.16667 9.5 3.39067 9.5 3.66667C9.5 3.94267 9.276 4.16667 9 4.16667C8.724 4.16667 8.5 3.94267 8.5 3.66667Z" fill="#3B3B3E"/>
</svg>
