<svg width="16" height="16" viewBox="0 0 16 16" fill="none" xmlns="http://www.w3.org/2000/svg">
<path d="M14.5 6.00016C14.5 4.98883 13.678 4.16683 12.6667 4.16683H11.264L9.82267 1.74416C9.68134 1.50816 9.3747 1.42816 9.13737 1.57016C8.9007 1.71149 8.82196 2.01816 8.9633 2.25549L10.1 4.16616H6L7.15397 2.25816C7.2973 2.02216 7.22135 1.71483 6.98535 1.57149C6.74802 1.42816 6.44133 1.50416 6.29867 1.74016L4.8313 4.1655H3.33333C2.322 4.1655 1.5 4.9875 1.5 5.99883C1.5 6.72483 1.92734 7.34816 2.54134 7.64483L3.0013 12.2475C3.15264 13.7622 3.96602 14.4988 5.48869 14.4988H10.5353C12.058 14.4988 12.872 13.7628 13.0227 12.2475L13.484 7.63083C14.084 7.33016 14.5 6.7155 14.5 6.00016ZM3.33333 5.16683H12.6667C13.126 5.16683 13.5 5.54083 13.5 6.00016C13.5 6.4595 13.126 6.8335 12.6667 6.8335H3.33333C2.874 6.8335 2.5 6.4595 2.5 6.00016C2.5 5.54083 2.874 5.16683 3.33333 5.16683ZM12.0286 12.1495C11.9426 13.0048 11.6713 13.5002 10.536 13.5002H5.48934C4.34801 13.5002 4.08466 13.0255 3.99666 12.1495L3.56535 7.8335H12.4607L12.0286 12.1495ZM9.35335 10.6468C9.54869 10.8422 9.54869 11.1588 9.35335 11.3542L8.35335 12.3542C8.30735 12.4002 8.25201 12.4368 8.19067 12.4622C8.12934 12.4875 8.06468 12.5008 7.99935 12.5008C7.93402 12.5008 7.86936 12.4875 7.80802 12.4622C7.74669 12.4368 7.69135 12.4002 7.64535 12.3542L6.64535 11.3542C6.45001 11.1588 6.45001 10.8422 6.64535 10.6468C6.84068 10.4515 7.15737 10.4515 7.3527 10.6468L7.49935 10.7935V9.3335C7.49935 9.0575 7.72335 8.8335 7.99935 8.8335C8.27535 8.8335 8.49935 9.0575 8.49935 9.3335V10.7928L8.646 10.6462C8.842 10.4515 9.15802 10.4515 9.35335 10.6468Z" fill="#3B3B3E"/>
</svg>
