<svg width="16" height="16" viewBox="0 0 16 16" fill="none" xmlns="http://www.w3.org/2000/svg">
<path d="M8.00002 14.5C7.90335 14.5 7.8067 14.472 7.7227 14.416L7.37002 14.182C5.29802 12.8133 2.16669 10.7453 2.16669 7.33333C2.16669 4.11667 4.78335 1.5 8.00002 1.5C11.2167 1.5 13.8334 4.11667 13.8334 7.33333C13.8334 10.7453 10.702 12.8133 8.63003 14.182L8.27734 14.416C8.19334 14.472 8.09669 14.5 8.00002 14.5ZM8.00002 2.5C5.33469 2.5 3.16669 4.668 3.16669 7.33333C3.16669 10.2073 5.9147 12.0227 7.9207 13.3473L8.00002 13.4001L8.07935 13.3473C10.086 12.022 12.8334 10.2073 12.8334 7.33333C12.8334 4.668 10.6654 2.5 8.00002 2.5ZM10.1667 7.33333C10.1667 7.05733 9.94269 6.83333 9.66669 6.83333H6.33335C6.05735 6.83333 5.83335 7.05733 5.83335 7.33333C5.83335 7.60933 6.05735 7.83333 6.33335 7.83333H9.66669C9.94269 7.83333 10.1667 7.60933 10.1667 7.33333Z" fill="#3B3B3E"/>
</svg>
