<svg width="16" height="16" viewBox="0 0 16 16" fill="none" xmlns="http://www.w3.org/2000/svg">
<path d="M10.3602 10.8602C10.2335 10.8602 10.1061 10.8122 10.0088 10.7155C9.81212 10.5209 9.8108 10.2049 10.0048 10.0082C10.5395 9.46752 10.8335 8.75489 10.8335 7.99956C10.8335 7.24423 10.5395 6.5316 10.0048 5.99093C9.8108 5.79493 9.81212 5.47824 10.0088 5.28358C10.2061 5.08958 10.5228 5.09082 10.7161 5.28748C11.4368 6.01615 11.8341 6.97958 11.8341 7.99891C11.8341 9.01824 11.4368 9.98217 10.7161 10.7102C10.6181 10.8108 10.4889 10.8602 10.3602 10.8602ZM5.99154 10.7155C6.1882 10.5209 6.18952 10.2049 5.99552 10.0082C5.46086 9.46752 5.16683 8.75489 5.16683 7.99956C5.16683 7.24423 5.46086 6.5316 5.99552 5.99093C6.18952 5.79493 6.1882 5.47824 5.99154 5.28358C5.79487 5.08958 5.47818 5.09082 5.28418 5.28748C4.56351 6.01615 4.16618 6.97958 4.16618 7.99891C4.16618 9.01824 4.56351 9.98217 5.28418 10.7102C5.38151 10.8088 5.51082 10.8589 5.63949 10.8589C5.76682 10.8603 5.8942 10.8122 5.99154 10.7155ZM12.8308 12.3355C13.9075 11.1468 14.5002 9.60688 14.5002 8.00021C14.5002 6.39354 13.9075 4.85359 12.8308 3.66492C12.6461 3.46026 12.3295 3.44494 12.1248 3.62961C11.9195 3.81494 11.9042 4.13081 12.0895 4.33615C12.9989 5.34081 13.4995 6.6422 13.4995 8.00086C13.4995 9.35953 12.9989 10.6609 12.0895 11.6656C11.9042 11.8702 11.9195 12.1863 12.1248 12.3723C12.2208 12.4589 12.3401 12.5015 12.4601 12.5015C12.5968 12.5002 12.7328 12.4448 12.8308 12.3355ZM3.87484 12.3708C4.08017 12.1855 4.09549 11.8696 3.91016 11.6643C3.00082 10.6596 2.50016 9.35823 2.50016 7.99956C2.50016 6.64089 3.00082 5.33951 3.91016 4.33485C4.09549 4.13018 4.08017 3.81414 3.87484 3.62814C3.6695 3.44347 3.35353 3.45829 3.16886 3.66362C2.0922 4.85229 1.49951 6.39224 1.49951 7.99891C1.49951 9.60558 2.0922 11.1455 3.16886 12.3342C3.26686 12.4435 3.40347 12.4989 3.53947 12.4989C3.65947 12.5002 3.7795 12.4575 3.87484 12.3708ZM9.50016 8.00021C9.50016 7.17288 8.82683 6.50021 8.00016 6.50021C7.1735 6.50021 6.50016 7.17288 6.50016 8.00021C6.50016 8.82754 7.1735 9.50021 8.00016 9.50021C8.82683 9.50021 9.50016 8.82754 9.50016 8.00021ZM8.50016 8.00021C8.50016 8.27621 8.2755 8.50021 8.00016 8.50021C7.72483 8.50021 7.50016 8.27621 7.50016 8.00021C7.50016 7.72421 7.72483 7.50021 8.00016 7.50021C8.2755 7.50021 8.50016 7.72421 8.50016 8.00021Z" fill="#3B3B3E"/>
</svg>
