<svg width="16" height="16" viewBox="0 0 16 16" fill="none" xmlns="http://www.w3.org/2000/svg">
<path d="M8.00008 14.4998C7.61608 14.4998 7.23212 14.3538 6.93945 14.0611L5.59277 12.7151C5.41744 12.5404 5.13605 12.5211 4.93872 12.6691L4.03345 13.3485C3.67745 13.6151 3.20876 13.6571 2.81209 13.4585C2.41409 13.2598 2.16675 12.8598 2.16675 12.4151V3.58645C2.16675 3.14178 2.41409 2.74178 2.81209 2.54311C3.20876 2.34378 3.67745 2.38645 4.03345 2.65312L4.93945 3.33311C5.13612 3.48111 5.41811 3.46177 5.59277 3.28644L6.93945 1.94045C7.52412 1.35579 8.47604 1.35579 9.06071 1.94045L10.4074 3.28711C10.5827 3.46178 10.8641 3.48111 11.0614 3.33311L11.9667 2.65379C12.3227 2.38712 12.7914 2.34445 13.1881 2.54379C13.5861 2.74245 13.8334 3.14245 13.8334 3.58712V12.4158C13.8334 12.8604 13.5861 13.2604 13.1881 13.4591C12.7914 13.6578 12.3227 13.6158 11.9667 13.3491L11.0607 12.6691C10.864 12.5211 10.5821 12.5404 10.4074 12.7158L9.06071 14.0618C8.76804 14.3538 8.38408 14.4998 8.00008 14.4998ZM5.23739 11.5711C5.62472 11.5711 6.01072 11.7191 6.30005 12.0078L7.64673 13.3545C7.8354 13.5431 8.16475 13.5431 8.35409 13.3545L9.70077 12.0084C10.2254 11.4838 11.0701 11.4251 11.6607 11.8691L12.5674 12.5491C12.6387 12.6038 12.7068 12.5818 12.7421 12.5651C12.7761 12.5478 12.8341 12.5058 12.8341 12.4158V3.58712C12.8341 3.49712 12.7761 3.45512 12.7421 3.43779C12.7068 3.42045 12.6394 3.39911 12.5674 3.45378L11.6614 4.13379C11.068 4.57779 10.2254 4.51912 9.70077 3.99445L8.35409 2.64779C8.15875 2.45312 7.84206 2.45312 7.64673 2.64779L6.30005 3.99378C5.77538 4.51844 4.93142 4.57712 4.34009 4.13312L3.43343 3.45311C3.36143 3.39844 3.29404 3.41978 3.25871 3.43712C3.22471 3.45445 3.16675 3.49645 3.16675 3.58645V12.4151C3.16675 12.5051 3.22471 12.5471 3.25871 12.5645C3.29404 12.5818 3.36076 12.6031 3.43343 12.5484L4.33944 11.8685C4.60544 11.6691 4.92205 11.5711 5.23739 11.5711ZM9.52808 11.1671C9.39541 11.1671 9.26274 11.1351 9.1394 11.0711L8.00008 10.4764L6.86141 11.0705C6.57608 11.2198 6.23743 11.1931 5.97876 11.0045C5.72009 10.8158 5.59345 10.5025 5.64811 10.1878L5.8641 8.93712L4.91471 8.01913C4.69005 7.80179 4.61012 7.48246 4.70679 7.18512C4.80345 6.88712 5.0554 6.67445 5.3654 6.62978L6.68205 6.44045L7.25008 5.29844C7.39208 5.01244 7.68007 4.83378 8.00073 4.83378C8.32073 4.83378 8.60872 5.01178 8.75138 5.29844L9.31942 6.44045L10.6361 6.62978C10.9461 6.67445 11.1988 6.88712 11.2948 7.18512C11.3914 7.48246 11.3108 7.80179 11.0868 8.01913L10.1375 8.93712L10.3541 10.1891C10.4081 10.5044 10.2814 10.8171 10.0221 11.0058C9.87405 11.1124 9.70141 11.1671 9.52808 11.1671ZM8.00008 9.45378C8.12941 9.45378 8.25944 9.48445 8.37744 9.54645L9.31006 10.0331L9.13273 9.00912C9.0874 8.74312 9.17538 8.47312 9.36938 8.28579L10.1147 7.56511L9.07878 7.41577C8.81478 7.37777 8.58541 7.21246 8.46541 6.97313L7.99878 6.03445L7.53272 6.97178C7.41205 7.21178 7.18338 7.37711 6.91805 7.41577L5.88273 7.56511L6.62874 8.28644C6.82208 8.47311 6.91075 8.74311 6.86475 9.00845L6.68742 10.0318L7.62012 9.54578C7.74078 9.48445 7.87075 9.45378 8.00008 9.45378ZM10.0661 9.00511C10.0654 9.00511 10.0654 9.00511 10.0661 9.00511V9.00511ZM10.4915 7.61912H10.4988H10.4915ZM7.85474 5.74313C7.85474 5.74313 7.85539 5.74378 7.85539 5.74445L7.85474 5.74313Z" fill="#3B3B3E"/>
</svg>
