<svg width="16" height="16" viewBox="0 0 16 16" fill="none" xmlns="http://www.w3.org/2000/svg">
<path d="M13.8332 2.66699V6.00033C13.8332 6.27633 13.6092 6.50033 13.3332 6.50033C13.0572 6.50033 12.8332 6.27633 12.8332 6.00033V3.87435L7.68652 9.021C7.58919 9.11833 7.46117 9.16764 7.33317 9.16764C7.20517 9.16764 7.07715 9.119 6.97982 9.021C6.78448 8.82566 6.78448 8.50897 6.97982 8.31364L12.1265 3.16699H9.99984C9.72384 3.16699 9.49984 2.94299 9.49984 2.66699C9.49984 2.39099 9.72384 2.16699 9.99984 2.16699H13.3332C13.3985 2.16699 13.4632 2.1804 13.5246 2.20573C13.6466 2.2564 13.7439 2.35373 13.7952 2.4764C13.8199 2.53707 13.8332 2.60166 13.8332 2.66699ZM13.3332 8.16699C13.0572 8.16699 12.8332 8.39099 12.8332 8.66699V11.3337C12.8332 12.385 12.3845 12.8337 11.3332 12.8337H4.6665C3.61517 12.8337 3.1665 12.385 3.1665 11.3337V4.66699C3.1665 3.61566 3.61517 3.16699 4.6665 3.16699H7.33317C7.60917 3.16699 7.83317 2.94299 7.83317 2.66699C7.83317 2.39099 7.60917 2.16699 7.33317 2.16699H4.6665C3.0545 2.16699 2.1665 3.05499 2.1665 4.66699V11.3337C2.1665 12.9457 3.0545 13.8337 4.6665 13.8337H11.3332C12.9452 13.8337 13.8332 12.9457 13.8332 11.3337V8.66699C13.8332 8.39099 13.6092 8.16699 13.3332 8.16699Z" fill="#3B3B3E"/>
</svg>
