<svg width="16" height="16" viewBox="0 0 16 16" fill="none" xmlns="http://www.w3.org/2000/svg">
<path d="M6.00606 7.16667C7.56873 7.16667 8.8394 5.89533 8.8394 4.33333C8.8394 2.77133 7.56873 1.5 6.00606 1.5C4.4434 1.5 3.17273 2.77133 3.17273 4.33333C3.17273 5.89533 4.4434 7.16667 6.00606 7.16667ZM6.00606 2.5C7.0174 2.5 7.8394 3.322 7.8394 4.33333C7.8394 5.34467 7.0174 6.16667 6.00606 6.16667C4.99473 6.16667 4.17273 5.34467 4.17273 4.33333C4.17273 3.322 4.99473 2.5 6.00606 2.5ZM11.1667 12.0127V14C11.1667 14.276 10.9427 14.5 10.6667 14.5C10.3907 14.5 10.1667 14.276 10.1667 14V12.0127C10.1667 11.3454 9.96204 9.16667 7.33337 9.16667H4.66671C2.03804 9.16667 1.83337 11.3447 1.83337 12.0127V14C1.83337 14.276 1.60937 14.5 1.33337 14.5C1.05737 14.5 0.833374 14.276 0.833374 14V12.0127C0.833374 10.2387 1.83737 8.16667 4.66671 8.16667H7.33337C10.1627 8.16667 11.1667 10.238 11.1667 12.0127ZM9.43673 6.81063C9.23939 6.6173 9.23534 6.30069 9.42867 6.10335C9.62267 5.90602 9.93936 5.90336 10.136 6.09603C10.3754 6.3307 10.6967 6.45996 11.0393 6.45996C11.776 6.45996 12.3534 5.88331 12.3534 5.14665C12.3534 4.42265 11.764 3.83333 11.0393 3.83333C10.834 3.83333 10.6487 3.87534 10.4881 3.95801C10.2434 4.08534 9.9414 3.98736 9.81474 3.74202C9.68807 3.49669 9.78539 3.19535 10.0307 3.06868C10.3347 2.91268 10.674 2.83333 11.0393 2.83333C12.3153 2.83333 13.3534 3.87131 13.3534 5.14665C13.3534 6.42198 12.3153 7.45996 11.0393 7.45996C10.4333 7.45996 9.86473 7.2293 9.43673 6.81063ZM15.1667 11.12V12.6667C15.1667 12.9427 14.9427 13.1667 14.6667 13.1667C14.3907 13.1667 14.1667 12.9427 14.1667 12.6667V11.12C14.1667 10.6274 14.0154 9.02002 12.0734 9.02002H11.066C10.79 9.02002 10.566 8.79602 10.566 8.52002C10.566 8.24402 10.79 8.02002 11.066 8.02002H12.0734C14.3567 8.02002 15.1667 9.69004 15.1667 11.12Z" fill="#3B3B3E"/>
</svg>
