<svg width="16" height="16" viewBox="0 0 16 16" fill="none" xmlns="http://www.w3.org/2000/svg">
<path d="M12 1.5H4C2.38667 1.5 1.5 2.38667 1.5 4V12C1.5 13.6133 2.38667 14.5 4 14.5H12C13.6133 14.5 14.5 13.6133 14.5 12V4C14.5 2.38667 13.6133 1.5 12 1.5ZM13.5 12C13.5 13.0533 13.0533 13.5 12 13.5H4C2.94667 13.5 2.5 13.0533 2.5 12V4C2.5 2.94667 2.94667 2.5 4 2.5H12C13.0533 2.5 13.5 2.94667 13.5 4V12ZM6.05334 10.4667L5.57332 11.3067C5.43332 11.5467 5.12668 11.6333 4.88668 11.4933C4.64668 11.3533 4.56666 11.0467 4.69999 10.8067L5.06002 10.1867C5.46668 10.06 5.79334 10.16 6.05334 10.4733V10.4667ZM12 9.44668C12 9.72668 11.78 9.95333 11.5 9.95333H10.78L11.2667 10.8067C11.4067 11.0467 11.32 11.3533 11.08 11.4933C10.84 11.6333 10.5334 11.5533 10.3934 11.3067C9.57335 9.87333 8.95334 8.8 8.54667 8.08667C8.12667 7.36 8.42668 6.62667 8.72001 6.38001C9.04668 6.94667 9.53999 7.80001 10.1933 8.94668H11.4933C11.7733 8.94668 11.9933 9.17333 11.9933 9.45333L12 9.44668ZM9.04667 9.94668H4.5C4.22 9.94668 4 9.72 4 9.44C4 9.16 4.22 8.93333 4.5 8.93333H5.77332L7.40666 6.08667L6.89998 5.19334C6.75998 4.95334 6.84667 4.64667 7.08667 4.50667C7.32667 4.36667 7.63332 4.44667 7.77332 4.69334L7.99333 5.08L8.21334 4.69334C8.35334 4.45334 8.65998 4.36667 8.89998 4.50667C9.13998 4.64667 9.22 4.95334 9.08667 5.19334L6.93998 8.92668H8.49333C8.99333 8.92668 9.28002 9.52 9.06002 9.93333L9.04667 9.94668Z" fill="#3B3B3E"/>
</svg>
