<svg width="16" height="16" viewBox="0 0 16 16" fill="none" xmlns="http://www.w3.org/2000/svg">
<path d="M13.7867 9.17998C14.1533 8.79331 14.4733 8.45331 14.5 8.05998C14.5267 7.54665 14.2533 7.12665 14.02 6.75332C13.8933 6.55332 13.7733 6.36666 13.7267 6.21332C13.68 6.05332 13.6733 5.83999 13.66 5.61333C13.64 5.13999 13.6133 4.59997 13.2467 4.21997C12.9133 3.85997 12.4467 3.75331 12.0333 3.65998C11.8 3.60664 11.58 3.55998 11.4333 3.47331C11.3 3.39331 11.1533 3.21998 11 3.03998C10.7267 2.71332 10.4133 2.34666 9.92001 2.21332C9.48001 2.09999 9.05335 2.25998 8.67335 2.39331C8.42668 2.47998 8.19335 2.56665 8.00668 2.56665C7.82001 2.56665 7.58668 2.47998 7.34001 2.39331C6.96001 2.25998 6.53334 2.10666 6.08 2.21332C5.6 2.34666 5.28667 2.71332 5.01333 3.03998C4.86 3.21998 4.71333 3.39331 4.57333 3.47331C4.43333 3.55998 4.21334 3.60664 3.98001 3.65998C3.56667 3.75331 3.10001 3.85999 2.77334 4.21332C2.40001 4.59999 2.37334 5.13999 2.35334 5.61333C2.34001 5.83999 2.33334 6.05999 2.28667 6.21332C2.24 6.37332 2.12001 6.55999 1.98668 6.75999C1.74668 7.13333 1.47335 7.55331 1.50668 8.07331C1.53335 8.46664 1.85333 8.79998 2.22 9.18665C2.26 9.23332 2.3 9.27999 2.34667 9.31999C1.98 10.42 1.84667 11.5066 1.80667 12.2466C1.78 12.6666 1.94001 13.0866 2.23334 13.3866C2.52668 13.6866 2.94001 13.8466 3.36001 13.8333C6.79335 13.7066 9.22667 13.7066 12.66 13.8333C12.68 13.8333 12.6933 13.8333 12.7133 13.8333C13.1133 13.8333 13.5 13.6733 13.7867 13.3866C14.08 13.0866 14.24 12.6666 14.2133 12.2466C14.1733 11.5066 14.04 10.42 13.6733 9.31999C13.7133 9.27332 13.76 9.22665 13.8 9.18665L13.7867 9.17998ZM2.50001 7.99998C2.48667 7.81332 2.66 7.54665 2.82667 7.29332C2.98667 7.04665 3.15333 6.78666 3.24 6.48666C3.32 6.21332 3.33333 5.92665 3.34667 5.64665C3.36 5.35332 3.37333 5.01331 3.49333 4.89331C3.62 4.75998 3.90667 4.69333 4.18667 4.63333C4.48667 4.56666 4.8 4.49331 5.07333 4.32664C5.35333 4.15998 5.56002 3.91331 5.76002 3.67998C5.94668 3.45331 6.14668 3.22666 6.32001 3.17332C6.46668 3.13999 6.72668 3.23331 6.98668 3.32664C7.28668 3.43331 7.62667 3.55998 7.99333 3.55998C8.36 3.55998 8.70001 3.43998 9.00001 3.32664C9.25334 3.23331 9.52001 3.13999 9.65335 3.17332C9.84001 3.22666 10.0267 3.44664 10.2267 3.67998C10.4267 3.91331 10.6333 4.15999 10.9067 4.31999C11.1867 4.49332 11.5 4.55999 11.8 4.62665C12.08 4.69332 12.3733 4.75332 12.5067 4.89999C12.62 5.01332 12.6333 5.35332 12.6467 5.64665C12.66 5.92665 12.6733 6.21332 12.7533 6.48666C12.84 6.77999 13.0067 7.03998 13.1667 7.28665C13.3333 7.53998 13.5 7.80665 13.5 7.95331C13.4733 8.01998 13.36 8.15999 13.2333 8.29332C12.3933 6.59999 10.8533 5.11333 7.99333 5.11333C5.13333 5.11333 3.58668 6.59999 2.75334 8.29332C2.63334 8.15999 2.51334 8.03332 2.50001 7.99998ZM13.06 12.68C12.96 12.78 12.8267 12.84 12.6867 12.8266C9.22667 12.7 6.77335 12.7 3.32001 12.8266C3.17335 12.8266 3.04668 12.78 2.94668 12.68C2.84668 12.58 2.79335 12.44 2.80002 12.2933C2.84668 11.4533 2.98667 10.4067 3.35334 9.41999C3.36667 9.39999 3.36667 9.37998 3.37334 9.35332C4.02001 7.63998 5.34001 6.10665 8.00001 6.10665C10.66 6.10665 11.9867 7.64666 12.6333 9.35999C12.64 9.37999 12.64 9.39331 12.6533 9.41331C13.02 10.4066 13.16 11.4533 13.2067 12.2866C13.2133 12.4333 13.1667 12.5667 13.06 12.6733V12.68ZM5.34667 10.6667C5.34667 11.0333 5.04667 11.3333 4.68 11.3333C4.31333 11.3333 4.01333 11.0333 4.01333 10.6667C4.01333 10.3 4.30667 9.99998 4.68 9.99998C5.04667 9.99998 5.34667 10.3 5.34667 10.6667ZM8.01333 10.6667C8.01333 11.0333 7.71333 11.3333 7.34667 11.3333C6.98 11.3333 6.68 11.0333 6.68 10.6667C6.68 10.3 6.97333 9.99998 7.34667 9.99998C7.71333 9.99998 8.01333 10.3 8.01333 10.6667ZM6.68 8.66665C6.68 9.03332 6.38 9.33332 6.01333 9.33332C5.64667 9.33332 5.34667 9.03332 5.34667 8.66665C5.34667 8.29998 5.64 7.99998 6.01333 7.99998C6.38 7.99998 6.68 8.29998 6.68 8.66665Z" fill="#3B3B3E"/>
</svg>
