<svg width="16" height="16" viewBox="0 0 16 16" fill="none" xmlns="http://www.w3.org/2000/svg">
<path d="M9.17333 6.66715C9.17333 6.20715 9.53999 5.83382 10.0067 5.83382C10.4667 5.83382 10.84 6.20715 10.84 6.66715C10.84 7.12715 10.4667 7.50049 10.0067 7.50049C9.54666 7.50049 9.17333 7.12715 9.17333 6.66715ZM6.83999 6.66715C6.83999 6.20715 6.46666 5.83382 6.00666 5.83382C5.54666 5.83382 5.17333 6.20715 5.17333 6.66715C5.17333 7.12715 5.55333 7.50049 6.00666 7.50049C6.45999 7.50049 6.83999 7.12715 6.83999 6.66715ZM9.77333 9.46716C9.65333 9.22049 9.35333 9.12048 9.10667 9.24048C8.42667 9.58048 7.59334 9.58714 6.88 9.24048C6.63334 9.12048 6.33334 9.22715 6.21334 9.47381C6.09334 9.72048 6.2 10.0205 6.44666 10.1405C6.93333 10.3738 7.45333 10.4938 7.98666 10.4938C8.51999 10.4938 9.06667 10.3738 9.54667 10.1338C9.79334 10.0138 9.89333 9.71382 9.77333 9.46049V9.46716ZM15.16 8.00049V8.34049C15.16 9.54049 14.6933 10.6738 13.84 11.5205L11.52 13.8405C10.6667 14.6872 9.53999 15.1605 8.33999 15.1605H8C6.04666 15.1605 4.22666 14.3871 2.85999 12.9938C1.49999 11.5938 0.779997 9.74715 0.833331 7.79382C0.939997 4.06049 4.06 0.933819 7.79333 0.833819C9.76667 0.780485 11.5933 1.50049 12.9933 2.86049C14.3933 4.22049 15.16 6.04715 15.16 8.00049V8.00049ZM8.33333 14.1672C8.73333 14.1672 9.12 14.0872 9.49333 13.9605V12.6672C9.49333 10.9205 10.9133 9.50049 12.66 9.50049H13.9533C14.08 9.13382 14.16 8.74716 14.16 8.34049V8.00049C14.16 6.32049 13.4933 4.75382 12.2933 3.58048C11.1333 2.45382 9.61333 1.83382 7.99333 1.83382C7.93333 1.83382 7.87333 1.83382 7.81999 1.83382C4.60666 1.92049 1.92 4.60716 1.83333 7.82049C1.78666 9.50049 2.40666 11.0938 3.57999 12.2938C4.75333 13.5005 6.32 14.1605 8 14.1605H8.33999L8.33333 14.1672ZM13.1333 10.8205C13.2333 10.7205 13.3067 10.6072 13.3933 10.5005H12.66C11.4667 10.5005 10.4933 11.4738 10.4933 12.6672V13.4005C10.6 13.3138 10.7133 13.2405 10.8133 13.1405L13.1333 10.8205V10.8205Z" fill="#3B3B3E"/>
</svg>
