<svg width="16" height="16" viewBox="0 0 16 16" fill="none" xmlns="http://www.w3.org/2000/svg">
<path d="M8.49993 12.4826V13.4999H10.6666C10.9426 13.4999 11.1666 13.7239 11.1666 13.9999C11.1666 14.2759 10.9426 14.4999 10.6666 14.4999H5.33327C5.05727 14.4999 4.83327 14.2759 4.83327 13.9999C4.83327 13.7239 5.05727 13.4999 5.33327 13.4999H7.49993V12.464C6.20727 12.332 4.99931 11.8119 4.01198 10.9559L3.0206 11.9473C2.82527 12.1426 2.50858 12.1426 2.31325 11.9473C2.11791 11.7519 2.11791 11.4353 2.31325 11.2399L3.64658 9.90659C3.74058 9.81259 3.86727 9.75994 3.99993 9.75994C4.0006 9.75994 4.00124 9.75994 4.00124 9.75994C4.13457 9.75994 4.26257 9.81395 4.35524 9.90862C5.36924 10.9346 6.71792 11.4999 8.15326 11.4999C11.1013 11.4999 13.4999 9.10459 13.4999 6.15992C13.4999 4.72659 12.934 3.37525 11.9073 2.35458C11.7113 2.15992 11.7099 1.84323 11.9046 1.64723C12.0999 1.45123 12.4179 1.45127 12.6119 1.64527C13.8292 2.85461 14.4999 4.45859 14.4999 6.15992C14.4999 9.53926 11.8379 12.3013 8.49993 12.4826ZM3.83327 6.1666C3.83327 3.86926 5.7026 1.99993 7.99993 1.99993C10.2973 1.99993 12.1666 3.86926 12.1666 6.1666C12.1666 8.46393 10.2973 10.3333 7.99993 10.3333C5.7026 10.3333 3.83327 8.46393 3.83327 6.1666ZM4.83327 6.1666C4.83327 7.9126 6.25393 9.33326 7.99993 9.33326C9.74593 9.33326 11.1666 7.9126 11.1666 6.1666C11.1666 4.4206 9.74593 2.99993 7.99993 2.99993C6.25393 2.99993 4.83327 4.4206 4.83327 6.1666Z" fill="#3B3B3E"/>
</svg>
