<svg width="16" height="16" viewBox="0 0 16 16" fill="none" xmlns="http://www.w3.org/2000/svg">
<path d="M8.16671 5.33333C8.16671 5.60933 7.94271 5.83333 7.66671 5.83333H7.00004C6.72404 5.83333 6.50004 5.60933 6.50004 5.33333C6.50004 5.05733 6.72404 4.83333 7.00004 4.83333H7.66671C7.94271 4.83333 8.16671 5.05667 8.16671 5.33333ZM5.00004 4.83333H4.33337C4.05737 4.83333 3.83337 5.05733 3.83337 5.33333C3.83337 5.60933 4.05737 5.83333 4.33337 5.83333H5.00004C5.27604 5.83333 5.50004 5.60933 5.50004 5.33333C5.50004 5.05733 5.27604 4.83333 5.00004 4.83333ZM7.66671 6.83333H7.00004C6.72404 6.83333 6.50004 7.05733 6.50004 7.33333C6.50004 7.60933 6.72404 7.83333 7.00004 7.83333H7.66671C7.94271 7.83333 8.16671 7.60933 8.16671 7.33333C8.16671 7.05733 7.94271 6.83333 7.66671 6.83333ZM5.00004 6.83333H4.33337C4.05737 6.83333 3.83337 7.05733 3.83337 7.33333C3.83337 7.60933 4.05737 7.83333 4.33337 7.83333H5.00004C5.27604 7.83333 5.50004 7.60933 5.50004 7.33333C5.50004 7.05733 5.27604 6.83333 5.00004 6.83333ZM15.1667 14C15.1667 14.276 14.9427 14.5 14.6667 14.5H1.33337C1.05737 14.5 0.833374 14.276 0.833374 14C0.833374 13.724 1.05737 13.5 1.33337 13.5H1.50004V4C1.50004 2.388 2.38804 1.5 4.00004 1.5H8.00004C9.61204 1.5 10.5 2.388 10.5 4V13.5H12.5V11.7554C11.7327 11.536 11.1667 10.8367 11.1667 10V8C11.1667 6.98867 11.9887 6.16667 13 6.16667C14.0114 6.16667 14.8334 6.98867 14.8334 8V10C14.8334 10.8367 14.2674 11.536 13.5 11.7554V13.5H14.6667C14.9427 13.5 15.1667 13.724 15.1667 14ZM13 10.8333C13.4594 10.8333 13.8334 10.4593 13.8334 10V8C13.8334 7.54067 13.4594 7.16667 13 7.16667C12.5407 7.16667 12.1667 7.54067 12.1667 8V10C12.1667 10.4593 12.5407 10.8333 13 10.8333ZM6.83337 11.3333C6.83337 10.874 6.45937 10.5 6.00004 10.5C5.54071 10.5 5.16671 10.874 5.16671 11.3333V13.5H6.83337V11.3333ZM9.50004 13.5V4C9.50004 2.94867 9.05137 2.5 8.00004 2.5H4.00004C2.94871 2.5 2.50004 2.94867 2.50004 4V13.5H4.16671V11.3333C4.16671 10.322 4.98871 9.5 6.00004 9.5C7.01137 9.5 7.83337 10.322 7.83337 11.3333V13.5H9.50004Z" fill="#3B3B3E"/>
</svg>
