<svg width="16" height="16" viewBox="0 0 16 16" fill="none" xmlns="http://www.w3.org/2000/svg">
<path d="M11.3535 6.31299C11.5488 6.50832 11.5488 6.82501 11.3535 7.02034C11.1582 7.21568 10.8415 7.21568 10.6462 7.02034L9.49951 5.8737V9.99967C9.49951 10.2757 9.27551 10.4997 8.99951 10.4997C8.72351 10.4997 8.49951 10.2757 8.49951 9.99967V4.66634C8.49951 4.46434 8.62144 4.2816 8.8081 4.20426C8.99477 4.12693 9.2102 4.16965 9.35286 4.31299L11.3535 6.31299ZM7.00016 5.49967C6.72416 5.49967 6.50016 5.72367 6.50016 5.99967V10.1257L5.35352 8.979C5.15818 8.78367 4.84149 8.78367 4.64616 8.979C4.45083 9.17434 4.45083 9.49103 4.64616 9.68636L6.64616 11.6864C6.74216 11.7824 6.86951 11.833 6.99951 11.833C7.06418 11.833 7.12875 11.8204 7.19075 11.7951C7.37742 11.7178 7.49951 11.535 7.49951 11.333V5.99967C7.50018 5.72367 7.27616 5.49967 7.00016 5.49967ZM15.1668 7.99967C15.1668 11.9517 11.9522 15.1663 8.00016 15.1663C4.04816 15.1663 0.833496 11.9517 0.833496 7.99967C0.833496 4.04767 4.04816 0.833008 8.00016 0.833008C11.9522 0.833008 15.1668 4.04767 15.1668 7.99967ZM14.1668 7.99967C14.1668 4.59901 11.4008 1.83301 8.00016 1.83301C4.5995 1.83301 1.8335 4.59901 1.8335 7.99967C1.8335 11.4003 4.5995 14.1663 8.00016 14.1663C11.4008 14.1663 14.1668 11.4003 14.1668 7.99967Z" fill="#3B3B3E"/>
</svg>
