<svg width="16" height="16" viewBox="0 0 16 16" fill="none" xmlns="http://www.w3.org/2000/svg">
<path d="M14 6.83333C13.724 6.83333 13.5 7.05733 13.5 7.33333V8.79264L10.8267 6.11995C10.3867 5.67929 9.61334 5.67929 9.17334 6.11995L6 9.29264L5.49333 8.78662C5.05333 8.34595 4.28001 8.34595 3.84001 8.78662L2.5 10.1266V4.66667C2.5 3.61533 2.94867 3.16667 4 3.16667H9.33333C9.60933 3.16667 9.83333 2.94267 9.83333 2.66667C9.83333 2.39067 9.60933 2.16667 9.33333 2.16667H4C2.388 2.16667 1.5 3.05467 1.5 4.66667V11.3333C1.5 12.9453 2.388 13.8333 4 13.8333H12C13.612 13.8333 14.5 12.9453 14.5 11.3333V7.33333C14.5 7.05733 14.276 6.83333 14 6.83333ZM12 12.8333H4C3.01867 12.8333 2.56798 12.436 2.51131 11.5286L4.54663 9.49333C4.6313 9.40933 4.7013 9.40933 4.78597 9.49333L5.41203 10.1193C5.72336 10.4313 6.27602 10.4306 6.58602 10.1193L9.87931 6.82601C9.96398 6.74201 10.034 6.74201 10.1187 6.82601L13.4987 10.2061V11.3333C13.5 12.3847 13.0513 12.8333 12 12.8333ZM5.33333 5.16667C5.79333 5.16667 6.16667 5.54 6.16667 6C6.16667 6.46 5.79333 6.83333 5.33333 6.83333C4.87333 6.83333 4.5 6.46 4.5 6C4.5 5.54 4.87333 5.16667 5.33333 5.16667ZM11.6466 4.02002C11.4513 3.82469 11.4513 3.508 11.6466 3.31266C11.842 3.11733 12.1587 3.11733 12.354 3.31266L12.5007 3.45931V2C12.5007 1.724 12.7247 1.5 13.0007 1.5C13.2767 1.5 13.5007 1.724 13.5007 2V3.45931L13.6473 3.31266C13.8426 3.11733 14.1593 3.11733 14.3547 3.31266C14.55 3.508 14.55 3.82469 14.3547 4.02002L13.3547 5.02002C13.3087 5.06602 13.2533 5.1026 13.1926 5.12793C13.132 5.15326 13.0666 5.16667 13.0013 5.16667C12.936 5.16667 12.8713 5.15326 12.81 5.12793C12.7486 5.1026 12.694 5.06602 12.648 5.02002L11.6466 4.02002Z" fill="#3B3B3E"/>
</svg>
