<svg width="16" height="16" viewBox="0 0 16 16" fill="none" xmlns="http://www.w3.org/2000/svg">
<path d="M11.75 1.5H4.25C2.47667 1.5 1.5 2.47667 1.5 4.25V11.75C1.5 13.5233 2.47667 14.5 4.25 14.5H11.75C13.5233 14.5 14.5 13.5233 14.5 11.75V4.25C14.5 2.47667 13.5233 1.5 11.75 1.5ZM13.5 11.75C13.5 12.9767 12.9767 13.5 11.75 13.5H4.25C3.02333 13.5 2.5 12.9767 2.5 11.75V4.25C2.5 3.02333 3.02333 2.5 4.25 2.5H11.75C12.9767 2.5 13.5 3.02333 13.5 4.25V11.75ZM10.3534 8.31331C10.5487 8.50865 10.5487 8.82534 10.3534 9.02067L8.35335 11.0207C8.30735 11.0667 8.25207 11.1034 8.19141 11.1287C8.13074 11.1541 8.06533 11.1673 8 11.1673C7.93467 11.1673 7.86993 11.1541 7.80859 11.1287C7.74726 11.1034 7.69265 11.0667 7.64665 11.0207L5.64665 9.02067C5.45131 8.82534 5.45131 8.50865 5.64665 8.31331C5.84198 8.11798 6.15867 8.11798 6.354 8.31331L7.50065 9.45996V5.33333C7.50065 5.05733 7.72465 4.83333 8.00065 4.83333C8.27665 4.83333 8.50065 5.05733 8.50065 5.33333V9.45931L9.6473 8.31266C9.84197 8.118 10.158 8.11798 10.3534 8.31331Z" fill="#3B3B3E"/>
</svg>
