<svg width="16" height="16" viewBox="0 0 16 16" fill="none" xmlns="http://www.w3.org/2000/svg">
<path d="M11.0197 8.97951C11.215 9.17484 11.215 9.49153 11.0197 9.68686L8.35304 12.3535C8.25571 12.4509 8.12769 12.5002 7.99969 12.5002C7.87169 12.5002 7.74367 12.4515 7.64634 12.3535L4.97967 9.68686C4.78434 9.49153 4.78434 9.17484 4.97967 8.97951C5.175 8.78417 5.49169 8.78417 5.68703 8.97951L8.00034 11.2928L10.3137 8.97951C10.5083 8.78417 10.8244 8.78417 11.0197 8.97951ZM5.68638 7.01955L7.99969 4.70623L10.313 7.01955C10.4103 7.11688 10.5384 7.16619 10.6664 7.16619C10.7944 7.16619 10.9224 7.11755 11.0197 7.01955C11.215 6.82421 11.215 6.50752 11.0197 6.31219L8.35304 3.64552C8.15771 3.45019 7.84102 3.45019 7.64569 3.64552L4.97902 6.31219C4.78369 6.50752 4.78369 6.82421 4.97902 7.01955C5.17435 7.21488 5.49104 7.21488 5.68638 7.01955Z" fill="#3B3B3E"/>
</svg>
