<svg width="16" height="16" viewBox="0 0 16 16" fill="none" xmlns="http://www.w3.org/2000/svg">
<path d="M8.00606 7.16667C6.4434 7.16667 5.17273 5.89533 5.17273 4.33333C5.17273 2.77133 6.4434 1.5 8.00606 1.5C9.56873 1.5 10.8394 2.77133 10.8394 4.33333C10.8394 5.89533 9.56873 7.16667 8.00606 7.16667ZM8.00606 2.5C6.99473 2.5 6.17273 3.322 6.17273 4.33333C6.17273 5.34467 6.99473 6.16667 8.00606 6.16667C9.0174 6.16667 9.8394 5.34467 9.8394 4.33333C9.8394 3.322 9.01673 2.5 8.00606 2.5ZM13.1667 14V12.0127C13.1667 10.2387 12.1627 8.16667 9.33337 8.16667H6.66671C3.83737 8.16667 2.83337 10.238 2.83337 12.0127V14C2.83337 14.276 3.05737 14.5 3.33337 14.5C3.60937 14.5 3.83337 14.276 3.83337 14V12.0127C3.83337 11.3454 4.03804 9.16667 6.66671 9.16667H9.33337C11.962 9.16667 12.1667 11.3447 12.1667 12.0127V14C12.1667 14.276 12.3907 14.5 12.6667 14.5C12.9427 14.5 13.1667 14.276 13.1667 14Z" fill="#3B3B3E"/>
</svg>
