<svg width="16" height="16" viewBox="0 0 16 16" fill="none" xmlns="http://www.w3.org/2000/svg">
<path d="M11.75 1.5H4.25C2.47667 1.5 1.5 2.47667 1.5 4.25V11.75C1.5 13.5233 2.47667 14.5 4.25 14.5H11.75C13.5233 14.5 14.5 13.5233 14.5 11.75V4.25C14.5 2.47667 13.5233 1.5 11.75 1.5ZM13.5 11.75C13.5 12.9767 12.9767 13.5 11.75 13.5H4.25C3.02333 13.5 2.5 12.9767 2.5 11.75V4.25C2.5 3.02333 3.02333 2.5 4.25 2.5H11.75C12.9767 2.5 13.5 3.02333 13.5 4.25V11.75ZM9.68669 7.64665C9.88202 7.84198 9.88202 8.15867 9.68669 8.354L7.68669 10.354C7.58935 10.4513 7.46133 10.5007 7.33333 10.5007C7.20533 10.5007 7.07731 10.452 6.97998 10.354C6.78465 10.1587 6.78465 9.84198 6.97998 9.64665L8.62663 8L6.97998 6.35335C6.78465 6.15802 6.78465 5.84133 6.97998 5.646C7.17531 5.45066 7.492 5.45066 7.68734 5.646L9.68669 7.64665Z" fill="#3B3B3E"/>
</svg>
