<svg width="16" height="16" viewBox="0 0 16 16" fill="none" xmlns="http://www.w3.org/2000/svg">
<path d="M13.3267 6.83344H2.6734C2.34007 6.83344 2.02007 6.98011 1.79341 7.23345C1.57341 7.48678 1.46673 7.82011 1.50673 8.14678C1.5934 8.85344 1.80673 9.54011 2.12007 10.1668C2.12007 10.1868 2.13341 10.2001 2.14008 10.2201C2.70008 11.3468 3.58007 12.3068 4.6934 12.9534C4.7534 12.9868 4.79341 13.0468 4.79341 13.1068V13.3401C4.79341 13.9801 5.32007 14.5068 5.96007 14.5068H10.0401C10.6801 14.5068 11.2067 13.9801 11.2067 13.3401V13.1068C11.2067 13.0468 11.2467 12.9934 11.3067 12.9534C12.4134 12.3068 13.3001 11.3468 13.8601 10.2201C13.8667 10.2068 13.8734 10.1934 13.8801 10.1801C14.1934 9.54677 14.4067 8.86012 14.4934 8.15345C14.5334 7.82012 14.4334 7.48677 14.2067 7.2401C13.9867 6.98677 13.6667 6.84012 13.3267 6.84012V6.83344ZM2.54007 7.89344C2.54007 7.89344 2.60007 7.83344 2.66674 7.83344H13.3201C13.3867 7.83344 13.4334 7.87344 13.4467 7.89344C13.4667 7.91344 13.4934 7.96011 13.4867 8.02011C13.4201 8.53344 13.2734 9.02678 13.0734 9.50011H2.90674C2.70674 9.03344 2.56007 8.53344 2.49341 8.02011C2.48674 7.96011 2.51341 7.91344 2.53341 7.89344H2.54007ZM10.8001 12.0868C10.4267 12.3068 10.2001 12.6868 10.2001 13.1001V13.3334C10.2001 13.4268 10.1267 13.5001 10.0334 13.5001H5.9534C5.86007 13.5001 5.78673 13.4268 5.78673 13.3334V13.1001C5.78673 12.6801 5.56674 12.3001 5.18674 12.0868C4.50007 11.6868 3.92007 11.1401 3.46674 10.5001H12.5134C12.0601 11.1401 11.4801 11.6868 10.7934 12.0868H10.8001ZM3.31341 5.67345L4.4534 5.81344C4.58673 5.82678 4.72007 5.84012 4.84674 5.84012C5.42674 5.84012 5.92007 5.67343 6.28673 5.34677C6.52673 5.13343 6.78674 4.76678 6.8934 4.17345H14.0001C14.2734 4.17345 14.5001 3.94678 14.5001 3.67345C14.5001 3.40011 14.2734 3.17345 14.0001 3.17345H6.8934C6.7934 2.58011 6.52673 2.21344 6.28673 2.00011C5.84007 1.60011 5.20673 1.44011 4.4534 1.52678L3.31341 1.66678C2.28007 1.79344 1.49341 2.65345 1.49341 3.67345C1.49341 4.69345 2.27341 5.55343 3.31341 5.6801V5.67345ZM3.4334 2.65345L4.57341 2.51343C5.02674 2.4601 5.40007 2.5401 5.62674 2.7401C5.84007 2.92677 5.94674 3.24011 5.94674 3.66678C5.94674 4.09344 5.84007 4.40012 5.62674 4.59345C5.40007 4.79345 5.02674 4.87345 4.57341 4.82012L3.4334 4.6801C2.90007 4.61343 2.49341 4.18011 2.49341 3.66678C2.49341 3.15344 2.90007 2.72012 3.4334 2.65345Z" fill="#3B3B3E"/>
</svg>
