<svg width="16" height="16" viewBox="0 0 16 16" fill="none" xmlns="http://www.w3.org/2000/svg">
<path d="M13.2133 6.14018H12.4867C12.3733 6.14018 12.26 6.02684 12.26 5.9135C12.26 3.52017 10.3133 1.50684 8 1.50684H5.76001C3.41334 1.50684 1.5 3.4135 1.5 5.76684V10.2535C1.5 12.6002 3.40668 14.5135 5.76001 14.5135H10.2467C12.5933 14.5135 14.5067 12.6068 14.5067 10.2535V7.4335C14.5067 6.7135 13.94 6.14684 13.22 6.14684L13.2133 6.14018ZM13.5 10.2468C13.5 12.0402 12.04 13.5068 10.24 13.5068H5.75334C3.96 13.5068 2.49333 12.0468 2.49333 10.2468V5.76017C2.49333 3.96684 3.95334 2.50017 5.75334 2.50017H7.99333C9.75999 2.50017 11.2533 4.06017 11.2533 5.90684C11.2533 6.57351 11.8133 7.1335 12.48 7.1335H13.2067C13.38 7.1335 13.4933 7.24684 13.4933 7.42018V10.2402L13.5 10.2468ZM4.97333 5.94018C4.97333 5.54684 5.30666 5.21351 5.69999 5.21351H8.39333C8.78666 5.21351 9.11999 5.54684 9.11999 5.94018C9.11999 6.33351 8.78666 6.66684 8.39333 6.66684H5.69999C5.30666 6.66684 4.97333 6.33351 4.97333 5.94018ZM10.9733 10.3335C10.9733 10.7268 10.64 11.0602 10.2467 11.0602H5.70666C5.31333 11.0602 4.98 10.7268 4.98 10.3335C4.98 9.94017 5.31333 9.60684 5.70666 9.60684H10.2467C10.64 9.60684 10.9733 9.94017 10.9733 10.3335Z" fill="#3B3B3E"/>
</svg>
