<svg width="16" height="16" viewBox="0 0 16 16" fill="none" xmlns="http://www.w3.org/2000/svg">
<path d="M11.75 1.5H4.25C2.47667 1.5 1.5 2.47667 1.5 4.25V11.75C1.5 13.5233 2.47667 14.5 4.25 14.5H11.75C13.5233 14.5 14.5 13.5233 14.5 11.75V4.25C14.5 2.47667 13.5233 1.5 11.75 1.5ZM13.5 11.75C13.5 12.9767 12.9767 13.5 11.75 13.5H4.25C3.02333 13.5 2.5 12.9767 2.5 11.75V4.25C2.5 3.02333 3.02333 2.5 4.25 2.5H11.75C12.9767 2.5 13.5 3.02333 13.5 4.25V11.75ZM7.85661 5.09261C7.52794 4.81528 7.07993 4.75602 6.69059 4.93669C6.29859 5.11869 6.05534 5.5014 6.05534 5.93473V10.0661C6.05534 10.4994 6.29859 10.882 6.69059 11.064C6.83993 11.1333 6.99797 11.1673 7.15397 11.1673C7.4053 11.1673 7.65327 11.0787 7.85661 10.9074L10.1647 8.96126C10.4487 8.72193 10.6113 8.372 10.6113 8C10.6113 7.628 10.4487 7.27805 10.1647 7.03939L7.85661 5.09261ZM9.52002 8.19661L7.21208 10.1434C7.19941 10.1527 7.16798 10.1827 7.11198 10.1574C7.07398 10.1401 7.05534 10.1094 7.05534 10.0661V5.93473C7.05534 5.89207 7.07398 5.86126 7.11198 5.84326C7.12731 5.83593 7.14199 5.83333 7.15332 5.83333C7.18399 5.83333 7.20341 5.84994 7.21208 5.85661L9.52002 7.80339C9.59869 7.87005 9.61133 7.95468 9.61133 7.99935C9.61133 8.04402 9.59869 8.12995 9.52002 8.19661Z" fill="#3B3B3E"/>
</svg>
