<svg width="16" height="16" viewBox="0 0 16 16" fill="none" xmlns="http://www.w3.org/2000/svg">
<g clip-path="url(#clip0_36251_7352)">
<path d="M6.67269 7.16667C8.23536 7.16667 9.50602 5.89533 9.50602 4.33333C9.50602 2.77133 8.23536 1.5 6.67269 1.5C5.11002 1.5 3.83936 2.77133 3.83936 4.33333C3.83936 5.89533 5.11002 7.16667 6.67269 7.16667ZM6.67269 2.5C7.68402 2.5 8.50602 3.322 8.50602 4.33333C8.50602 5.34467 7.68402 6.16667 6.67269 6.16667C5.66136 6.16667 4.83936 5.34467 4.83936 4.33333C4.83936 3.322 5.66136 2.5 6.67269 2.5ZM8.58732 9.20671C8.41932 9.17937 8.22733 9.16667 8 9.16667H5.33333C2.70467 9.16667 2.5 11.346 2.5 12.0133C2.5 13.0553 2.94867 13.5 4 13.5H7.33333C7.60933 13.5 7.83333 13.724 7.83333 14C7.83333 14.276 7.60933 14.5 7.33333 14.5H4C2.388 14.5 1.5 13.6167 1.5 12.0133C1.5 10.2387 2.504 8.16667 5.33333 8.16667H8C8.28067 8.16667 8.52468 8.18397 8.74601 8.21997C9.01868 8.2633 9.20466 8.51998 9.15999 8.79264C9.11666 9.06531 8.85332 9.25004 8.58732 9.20671ZM15.02 14.3133L13.7993 13.0927C14.1 12.6554 14.278 12.1267 14.278 11.556C14.278 10.0553 13.0567 8.83398 11.5553 8.83398C10.0547 8.83398 8.83333 10.0553 8.83333 11.556C8.83333 13.0567 10.0547 14.278 11.5553 14.278C12.1253 14.278 12.654 14.1 13.092 13.7993L14.3127 15.0207C14.41 15.118 14.538 15.1673 14.666 15.1673C14.794 15.1673 14.922 15.1187 15.0194 15.0207C15.2154 14.8247 15.2154 14.5086 15.02 14.3133ZM9.83333 11.5553C9.83333 10.606 10.606 9.83333 11.5553 9.83333C12.5053 9.83333 13.278 10.606 13.278 11.5553C13.278 12.5047 12.5053 13.2773 11.5553 13.2773C10.606 13.278 9.83333 12.5053 9.83333 11.5553Z" fill="#3B3B3E"/>
</g>
<defs>
<clipPath id="clip0_36251_7352">
<rect width="16" height="16" fill="white"/>
</clipPath>
</defs>
</svg>
