<svg width="16" height="16" viewBox="0 0 16 16" fill="none" xmlns="http://www.w3.org/2000/svg">
<path d="M10.3465 6.66699C10.3465 7.03366 10.0465 7.33366 9.67983 7.33366C9.31316 7.33366 9.01316 7.03366 9.01316 6.66699C9.01316 6.30033 9.30649 6.00033 9.67316 6.00033H9.67983C10.0465 6.00033 10.3465 6.30033 10.3465 6.66699ZM14.3532 5.68699L12.6865 7.35366C12.4932 7.54699 12.1731 7.54699 11.9798 7.35366L11.8332 7.20699V13.3337C11.8332 13.607 11.6065 13.8337 11.3332 13.8337H4.66648C4.39315 13.8337 4.16648 13.607 4.16648 13.3337V7.20699L4.01984 7.35366C3.8265 7.54699 3.50646 7.54699 3.31313 7.35366L1.64646 5.68699C1.45313 5.49366 1.45313 5.17366 1.64646 4.98033L3.91982 2.70699C4.26649 2.36032 4.72649 2.16699 5.21316 2.16699H6.00649C6.41982 2.16699 6.77983 2.46032 6.8465 2.85366C6.93983 3.42032 7.41982 3.83366 7.99982 3.83366C8.57982 3.83366 9.0598 3.42032 9.15314 2.85366C9.2198 2.46032 9.57981 2.16699 9.99314 2.16699H10.7865C11.2731 2.16699 11.7398 2.36032 12.0798 2.70699L14.3532 4.98033C14.5465 5.17366 14.5465 5.49366 14.3532 5.68699V5.68699ZM10.8332 9.16699H5.16648V10.167H10.8332V9.16699ZM10.8332 12.8337V11.167H5.16648V12.8337H10.8332ZM13.2932 5.33366L11.3731 3.41366C11.2131 3.25366 11.0065 3.16699 10.7865 3.16699H10.1131C9.88647 4.14033 9.01982 4.83366 8.00649 4.83366C6.99316 4.83366 6.12647 4.14033 5.8998 3.16699H5.2265C5.0065 3.16699 4.79317 3.25366 4.63983 3.41366L2.71983 5.33366L3.67983 6.29366L4.32648 5.64699C4.46648 5.50699 4.68648 5.46032 4.87315 5.54032C5.05982 5.62032 5.17983 5.80033 5.17983 6.00033V8.16699H10.8465V6.00033C10.8465 5.80033 10.9665 5.61366 11.1531 5.54032C11.3398 5.46032 11.5531 5.50699 11.6998 5.64699L12.3465 6.29366L13.3065 5.33366H13.2932Z" fill="#3B3B3E"/>
</svg>
