<svg width="16" height="16" viewBox="0 0 16 16" fill="none" xmlns="http://www.w3.org/2000/svg">
<path d="M13.3333 12.5H2.66663C2.39063 12.5 2.16663 12.276 2.16663 12C2.16663 11.724 2.39063 11.5 2.66663 11.5H13.3333C13.6093 11.5 13.8333 11.724 13.8333 12C13.8333 12.276 13.6093 12.5 13.3333 12.5ZM11.8333 8C11.8333 7.724 11.6093 7.5 11.3333 7.5H4.66663C4.39063 7.5 4.16663 7.724 4.16663 8C4.16663 8.276 4.39063 8.5 4.66663 8.5H11.3333C11.6093 8.5 11.8333 8.276 11.8333 8ZM9.83329 4C9.83329 3.724 9.60929 3.5 9.33329 3.5H6.66663C6.39063 3.5 6.16663 3.724 6.16663 4C6.16663 4.276 6.39063 4.5 6.66663 4.5H9.33329C9.60929 4.5 9.83329 4.276 9.83329 4Z" fill="#3B3B3E"/>
</svg>
