<svg width="16" height="16" viewBox="0 0 16 16" fill="none" xmlns="http://www.w3.org/2000/svg">
<path d="M15.1666 8.66667C15.1666 10.7807 13.4473 12.5 11.3333 12.5H8.66658C8.39058 12.5 8.16658 12.276 8.16658 12C8.16658 11.724 8.39058 11.5 8.66658 11.5H11.3333C12.8959 11.5 14.1666 10.2293 14.1666 8.66667C14.1666 7.104 12.8959 5.83333 11.3333 5.83333C11.1446 5.83333 10.9632 5.85002 10.7792 5.88468C10.5739 5.92335 10.37 5.83201 10.262 5.65601C10.0673 5.34201 9.81996 5.04865 9.52596 4.78532C8.83396 4.17199 7.93592 3.83333 6.99992 3.83333C5.68792 3.83333 4.48266 4.49466 3.77466 5.60266C3.62666 5.83466 3.31789 5.904 3.08455 5.75533C2.85122 5.60666 2.78322 5.29732 2.93188 5.06466C3.82388 3.66799 5.34458 2.83398 6.99992 2.83398C8.18058 2.83398 9.31466 3.262 10.1913 4.04C10.4713 4.29067 10.7173 4.56332 10.9273 4.85466C11.0613 4.84066 11.1959 4.83398 11.3333 4.83398C13.4473 4.83332 15.1666 6.55267 15.1666 8.66667ZM4.74862 9.146L3.5839 9.72799C3.60124 9.81599 3.61125 9.90668 3.61125 9.99935C3.61125 10.092 3.60124 10.1827 3.5839 10.2707L4.74862 10.8527C5.00328 10.5693 5.36791 10.388 5.77791 10.388C6.54325 10.388 7.16658 11.0113 7.16658 11.7767C7.16658 12.5427 6.54325 13.1653 5.77791 13.1653C5.01658 13.1653 4.39789 12.55 4.38989 11.7913L3.03931 11.116C2.80931 11.2847 2.52859 11.3873 2.22192 11.3873C1.45659 11.3873 0.833252 10.764 0.833252 9.99866C0.833252 9.23332 1.45659 8.60999 2.22192 8.60999C2.52859 8.60999 2.80931 8.71268 3.03931 8.88135L4.38989 8.20601C4.39789 7.44735 5.01658 6.83199 5.77791 6.83199C6.54325 6.83199 7.16658 7.45533 7.16658 8.22066C7.16658 8.98666 6.54325 9.60933 5.77791 9.60933C5.36791 9.61133 5.00262 9.42933 4.74862 9.146ZM5.38859 8.22201C5.38859 8.43667 5.56325 8.61068 5.77791 8.61068C5.99191 8.61068 6.16658 8.43601 6.16658 8.22201C6.16658 8.00734 5.99191 7.83333 5.77791 7.83333C5.56325 7.83333 5.38859 8.00801 5.38859 8.22201ZM2.22192 10.3887C2.43659 10.3887 2.61125 10.214 2.61125 10C2.61125 9.786 2.43659 9.61133 2.22192 9.61133C2.00792 9.61133 1.83325 9.786 1.83325 10C1.83325 10.214 2.00792 10.3887 2.22192 10.3887ZM5.38859 11.778C5.38859 11.9927 5.56325 12.1667 5.77791 12.1667C5.99191 12.1667 6.16658 11.992 6.16658 11.778C6.16658 11.5633 5.99191 11.3893 5.77791 11.3893C5.56325 11.3887 5.38859 11.5633 5.38859 11.778Z" fill="#3B3B3E"/>
</svg>
