<svg width="16" height="16" viewBox="0 0 16 16" fill="none" xmlns="http://www.w3.org/2000/svg">
<path d="M10.6667 5.50033C10.5293 5.50033 10.3954 5.507 10.2614 5.521C10.0481 5.223 9.80206 4.94967 9.52539 4.70634C8.64272 3.92901 7.50933 3.50098 6.33333 3.50098C3.668 3.50098 1.5 5.66898 1.5 8.33431C1.5 10.9996 3.668 13.1676 6.33333 13.1676H10.6667C12.7807 13.1676 14.5 11.4483 14.5 9.33431C14.5 7.22031 12.7807 5.50033 10.6667 5.50033ZM10.6667 12.167H6.33333C4.21933 12.167 2.5 10.4477 2.5 8.33366C2.5 6.21966 4.21933 4.50033 6.33333 4.50033C7.26533 4.50033 8.1646 4.83967 8.86393 5.45634C9.14927 5.70834 9.39538 5.99966 9.59538 6.323C9.70271 6.499 9.91063 6.59034 10.1126 6.55168C10.2966 6.51701 10.478 6.50033 10.6667 6.50033C12.2293 6.50033 13.5 7.77099 13.5 9.33366C13.5 10.8963 12.2293 12.167 10.6667 12.167ZM9.83333 9.00033C9.83333 9.27633 9.60933 9.50033 9.33333 9.50033H6.66667C6.39067 9.50033 6.16667 9.27633 6.16667 9.00033C6.16667 8.72433 6.39067 8.50033 6.66667 8.50033H9.33333C9.60933 8.50033 9.83333 8.72433 9.83333 9.00033Z" fill="#3B3B3E"/>
</svg>
