<svg width="16" height="16" viewBox="0 0 16 16" fill="none" xmlns="http://www.w3.org/2000/svg">
<g clip-path="url(#clip0_36251_7629)">
<path d="M11.8335 7.61564V9.53564C11.8335 9.60098 11.8202 9.66572 11.7948 9.72705C11.7442 9.84905 11.6468 9.94639 11.5248 9.99772C11.4635 10.0231 11.3988 10.0363 11.3335 10.0363H9.41349C9.13749 10.0363 8.91349 9.8123 8.91349 9.5363C8.91349 9.2603 9.13749 9.0363 9.41349 9.0363H10.1268L8.61483 7.52433C8.58483 7.495 8.53684 7.49567 8.50684 7.52433L7.52417 8.507C7.10484 8.927 6.42149 8.92633 6.00216 8.507L4.31283 6.81771C4.11749 6.62237 4.11749 6.30568 4.31283 6.11035C4.50816 5.91502 4.82483 5.91502 5.02016 6.11035L6.70949 7.79964C6.73483 7.82497 6.79217 7.82564 6.8175 7.79964L7.80017 6.81698C8.20684 6.41098 8.91616 6.41164 9.32216 6.81698L10.8342 8.32894V7.61564C10.8342 7.33964 11.0582 7.11564 11.3342 7.11564C11.6102 7.11564 11.8335 7.33964 11.8335 7.61564ZM15.1668 7.99967C15.1668 11.9517 11.9522 15.1663 8.00016 15.1663C4.04816 15.1663 0.833496 11.9517 0.833496 7.99967C0.833496 4.04767 4.04816 0.833008 8.00016 0.833008C11.9522 0.833008 15.1668 4.04767 15.1668 7.99967ZM14.1668 7.99967C14.1668 4.59901 11.4008 1.83301 8.00016 1.83301C4.5995 1.83301 1.8335 4.59901 1.8335 7.99967C1.8335 11.4003 4.5995 14.1663 8.00016 14.1663C11.4008 14.1663 14.1668 11.4003 14.1668 7.99967Z" fill="#3B3B3E"/>
</g>
<defs>
<clipPath id="clip0_36251_7629">
<rect width="16" height="16" fill="white"/>
</clipPath>
</defs>
</svg>
