<svg width="16" height="16" viewBox="0 0 16 16" fill="none" xmlns="http://www.w3.org/2000/svg">
<path d="M8.00016 0.833008C4.04816 0.833008 0.833496 4.04767 0.833496 7.99967C0.833496 11.9517 4.04816 15.1663 8.00016 15.1663C11.9522 15.1663 15.1668 11.9517 15.1668 7.99967C15.1668 4.04767 11.9522 0.833008 8.00016 0.833008ZM8.00016 14.1663C4.5995 14.1663 1.8335 11.4003 1.8335 7.99967C1.8335 4.59901 4.5995 1.83301 8.00016 1.83301C11.4008 1.83301 14.1668 4.59901 14.1668 7.99967C14.1668 11.4003 11.4008 14.1663 8.00016 14.1663ZM10.3535 5.64632C10.5488 5.84165 10.5488 6.15834 10.3535 6.35368L7.20687 9.50033H8.66683C8.94283 9.50033 9.16683 9.72432 9.16683 10.0003C9.16683 10.2763 8.94283 10.5003 8.66683 10.5003H6.00016C5.93483 10.5003 5.87009 10.4871 5.80876 10.4618C5.68676 10.4111 5.58957 10.3137 5.5389 10.1917C5.51357 10.1304 5.50016 10.0657 5.50016 10.0003V7.33366C5.50016 7.05766 5.72416 6.83366 6.00016 6.83366C6.27616 6.83366 6.50016 7.05766 6.50016 7.33366V8.79297L9.64681 5.64632C9.84214 5.45099 10.1582 5.45099 10.3535 5.64632Z" fill="#3B3B3E"/>
</svg>
