<svg width="16" height="16" viewBox="0 0 16 16" fill="none" xmlns="http://www.w3.org/2000/svg">
<path d="M8.00016 15.1663C4.04683 15.1663 0.833496 11.953 0.833496 7.99967C0.833496 4.04634 4.04683 0.833008 8.00016 0.833008C11.9535 0.833008 15.1668 4.04634 15.1668 7.99967C15.1668 11.953 11.9535 15.1663 8.00016 15.1663ZM8.00016 1.83301C4.60016 1.83301 1.8335 4.59967 1.8335 7.99967C1.8335 11.3997 4.60016 14.1663 8.00016 14.1663C11.4002 14.1663 14.1668 11.3997 14.1668 7.99967C14.1668 4.59967 11.4002 1.83301 8.00016 1.83301ZM10.8335 6.66634C10.8335 5.99301 10.4802 5.49967 10.0002 5.49967C9.52016 5.49967 9.16683 5.99301 9.16683 6.66634C9.16683 7.33967 9.52016 7.83301 10.0002 7.83301C10.4802 7.83301 10.8335 7.33967 10.8335 6.66634ZM6.8335 6.66634C6.8335 5.99301 6.48016 5.49967 6.00016 5.49967C5.52016 5.49967 5.16683 5.99301 5.16683 6.66634C5.16683 7.33967 5.52016 7.83301 6.00016 7.83301C6.48016 7.83301 6.8335 7.33967 6.8335 6.66634ZM6.08016 11.1597L10.0802 10.493C10.3535 10.4463 10.5335 10.193 10.4935 9.91968C10.4468 9.64634 10.1868 9.45967 9.92017 9.50634L5.92017 10.173C5.64683 10.2197 5.46684 10.473 5.50684 10.7463C5.54684 10.993 5.76016 11.1663 6.00016 11.1663C6.02683 11.1663 6.05349 11.1663 6.08016 11.1597Z" fill="#3B3B3E"/>
</svg>
