<svg width="16" height="16" viewBox="0 0 16 16" fill="none" xmlns="http://www.w3.org/2000/svg">
<path d="M10.3531 6.35286L10.0398 6.66619L10.3531 6.97952C10.5464 7.17286 10.5464 7.49286 10.3531 7.68619C10.2531 7.78619 10.1264 7.83286 9.99976 7.83286C9.87309 7.83286 9.74641 7.78619 9.64641 7.68619L9.33309 7.37285L8.70643 7.99952L9.35311 8.64619C9.54645 8.83952 9.54645 9.15952 9.35311 9.35286C9.25311 9.45286 9.12643 9.49952 8.99976 9.49952C8.87309 9.49952 8.74641 9.45286 8.64641 9.35286L7.99976 8.70619L7.37309 9.33286L7.68645 9.64619C7.87978 9.83952 7.87978 10.1595 7.68645 10.3529C7.58645 10.4529 7.45976 10.4995 7.33309 10.4995C7.20643 10.4995 7.07974 10.4529 6.97974 10.3529L6.66643 10.0395L6.35311 10.3529C6.25311 10.4529 6.12643 10.4995 5.99976 10.4995C5.87309 10.4995 5.74641 10.4529 5.64641 10.3529C5.45307 10.1595 5.45307 9.83952 5.64641 9.64619L5.95976 9.33286L5.64641 9.01952C5.45307 8.82619 5.45307 8.50619 5.64641 8.31286C5.83974 8.11952 6.15978 8.11952 6.35311 8.31286L6.66643 8.62619L7.2931 7.99952L6.64641 7.35286C6.45307 7.15952 6.45307 6.83952 6.64641 6.64619C6.83974 6.45286 7.15978 6.45286 7.35311 6.64619L7.99976 7.29286L8.62643 6.66619L8.31307 6.35286C8.11974 6.15952 8.11974 5.83952 8.31307 5.64619C8.50641 5.45286 8.82645 5.45286 9.01978 5.64619L9.33309 5.95952L9.64641 5.64619C9.83974 5.45286 10.1598 5.45286 10.3531 5.64619C10.5464 5.83952 10.5464 6.15952 10.3531 6.35286ZM14.2664 6.63953C13.8998 8.79953 13.0864 10.5395 11.8131 11.8062C10.0264 13.5929 7.34643 14.4929 3.83309 14.4929C3.75976 14.4929 3.69309 14.4929 3.61976 14.4929C2.46642 14.4795 1.51977 13.5329 1.50643 12.3795C1.4931 11.3729 1.56642 10.4329 1.69975 9.55952C1.69975 9.48619 1.70642 9.41952 1.73975 9.35286C2.10642 7.19286 2.91975 5.45286 4.19308 4.18619C5.48641 2.89286 7.25977 2.07952 9.46644 1.71952C9.5331 1.69286 9.60644 1.67953 9.67977 1.67953C10.5198 1.55286 11.4264 1.49286 12.3931 1.49952C13.5464 1.51286 14.4931 2.45952 14.5064 3.61286C14.5198 4.61952 14.4464 5.55952 14.3131 6.43285C14.3131 6.50619 14.3064 6.57286 14.2731 6.63953H14.2664ZM12.1664 2.49952C11.6664 2.49952 11.1864 2.52619 10.7264 2.56619L13.4264 5.33952C13.4731 4.79285 13.5064 4.22619 13.4998 3.62619C13.4998 3.01286 12.9864 2.50619 12.3731 2.49952C12.3064 2.49952 12.2331 2.49952 12.1664 2.49952ZM5.27308 13.4329L2.57308 10.6595C2.52642 11.2062 2.49309 11.7729 2.49976 12.3729C2.49976 12.9862 3.0131 13.4929 3.62643 13.4995C4.19976 13.4995 4.74641 13.4795 5.27308 13.4329V13.4329ZM13.2598 6.59952L9.48641 2.71952C7.55308 3.05286 6.00645 3.77285 4.89311 4.89285C3.77978 6.01285 3.07975 7.50619 2.73975 9.39953L6.51311 13.2729C8.44644 12.9395 9.99308 12.2195 11.1064 11.1062C12.2197 9.99286 12.9198 8.49285 13.2598 6.59952Z" fill="#3B3B3E"/>
</svg>
