<svg width="16" height="16" viewBox="0 0 16 16" fill="none" xmlns="http://www.w3.org/2000/svg">
<path d="M11.1668 5.62907V7.11035C11.1668 7.38635 10.9428 7.61035 10.6668 7.61035H9.1849C8.9089 7.61035 8.6849 7.38635 8.6849 7.11035C8.6849 6.83435 8.9089 6.61035 9.1849 6.61035H9.65544C9.25277 6.13035 8.65283 5.83236 8.00016 5.83236C6.8055 5.83236 5.8335 6.80436 5.8335 7.99902C5.8335 9.19369 6.8055 10.1657 8.00016 10.1657C8.82816 10.1657 9.57144 9.70442 9.9401 8.96175C10.0628 8.71508 10.3608 8.61299 10.6108 8.73633C10.8582 8.85966 10.9588 9.15908 10.8361 9.40641C10.2968 10.4911 9.21083 11.1657 8.00016 11.1657C6.25416 11.1657 4.8335 9.74502 4.8335 7.99902C4.8335 6.25302 6.25416 4.83236 8.00016 4.83236C8.8235 4.83236 9.59216 5.15434 10.1668 5.69434V5.62907C10.1668 5.35307 10.3908 5.12907 10.6668 5.12907C10.9428 5.12907 11.1668 5.35307 11.1668 5.62907ZM15.1668 7.99967C15.1668 11.9517 11.9522 15.1663 8.00016 15.1663C4.04816 15.1663 0.833496 11.9517 0.833496 7.99967C0.833496 4.04767 4.04816 0.833008 8.00016 0.833008C11.9522 0.833008 15.1668 4.04767 15.1668 7.99967ZM14.1668 7.99967C14.1668 4.59901 11.4008 1.83301 8.00016 1.83301C4.5995 1.83301 1.8335 4.59901 1.8335 7.99967C1.8335 11.4003 4.5995 14.1663 8.00016 14.1663C11.4008 14.1663 14.1668 11.4003 14.1668 7.99967Z" fill="#3B3B3E"/>
</svg>
