<svg width="16" height="16" viewBox="0 0 16 16" fill="none" xmlns="http://www.w3.org/2000/svg">
<path d="M12 13.8337H4C2.388 13.8337 1.5 12.9457 1.5 11.3337V8.83366H2C2.45933 8.83366 2.83333 8.45966 2.83333 8.00033C2.83333 7.54099 2.45933 7.16699 2 7.16699H1.5V4.66699C1.5 3.05499 2.388 2.16699 4 2.16699H12C13.612 2.16699 14.5 3.05499 14.5 4.66699V7.16699H14C13.5407 7.16699 13.1667 7.54099 13.1667 8.00033C13.1667 8.45966 13.5407 8.83366 14 8.83366H14.5V11.3337C14.5 12.9457 13.612 13.8337 12 13.8337ZM2.5 9.76432V11.3337C2.5 12.385 2.94867 12.8337 4 12.8337H12C13.0513 12.8337 13.5 12.385 13.5 11.3337V9.76432C12.7313 9.54632 12.1667 8.83833 12.1667 8.00033C12.1667 7.16233 12.7313 6.45433 13.5 6.23633V4.66699C13.5 3.61566 13.0513 3.16699 12 3.16699H4C2.94867 3.16699 2.5 3.61566 2.5 4.66699V6.23633C3.26867 6.45433 3.83333 7.16233 3.83333 8.00033C3.83333 8.83833 3.26867 9.54632 2.5 9.76432ZM6.68669 10.0203L10.02 6.68699C10.2154 6.49166 10.2154 6.17499 10.02 5.97966C9.82469 5.78432 9.508 5.78432 9.31266 5.97966L5.97933 9.31299C5.784 9.50832 5.784 9.82499 5.97933 10.0203C6.07666 10.1177 6.20468 10.167 6.33268 10.167C6.46068 10.167 6.58935 10.1183 6.68669 10.0203ZM7 6.33366C7 5.96566 6.70264 5.66699 6.33464 5.66699H6.32796C5.9613 5.66699 5.66602 5.96566 5.66602 6.33366C5.66602 6.70166 5.96732 7.00033 6.33398 7.00033C6.70265 7.00033 7 6.70166 7 6.33366ZM10.3333 9.66699C10.3333 9.29899 10.036 9.00033 9.66797 9.00033H9.6613C9.29463 9.00033 8.99935 9.29899 8.99935 9.66699C8.99935 10.035 9.30065 10.3337 9.66732 10.3337C10.036 10.3337 10.3333 10.035 10.3333 9.66699Z" fill="#3B3B3E"/>
</svg>
