<svg width="16" height="16" viewBox="0 0 16 16" fill="none" xmlns="http://www.w3.org/2000/svg">
<g clip-path="url(#clip0_36251_7360)">
<path d="M6.67269 7.16667C8.23536 7.16667 9.50602 5.89533 9.50602 4.33333C9.50602 2.77133 8.23536 1.5 6.67269 1.5C5.11002 1.5 3.83936 2.77133 3.83936 4.33333C3.83936 5.89533 5.11002 7.16667 6.67269 7.16667ZM6.67269 2.5C7.68402 2.5 8.50602 3.322 8.50602 4.33333C8.50602 5.34467 7.68402 6.16667 6.67269 6.16667C5.66136 6.16667 4.83936 5.34467 4.83936 4.33333C4.83936 3.322 5.66136 2.5 6.67269 2.5ZM2.5 12.0133C2.5 13.0553 2.94867 13.5 4 13.5H6.66667C6.94267 13.5 7.16667 13.724 7.16667 14C7.16667 14.276 6.94267 14.5 6.66667 14.5H4C2.388 14.5 1.5 13.6167 1.5 12.0133C1.5 10.2387 2.504 8.16667 5.33333 8.16667H8C8.28067 8.16667 8.52468 8.18397 8.74601 8.21997C9.01868 8.2633 9.20466 8.51998 9.15999 8.79264C9.11666 9.06531 8.85265 9.25071 8.58732 9.20671C8.41932 9.17937 8.22733 9.16667 8 9.16667H5.33333C2.70467 9.16667 2.5 11.346 2.5 12.0133ZM14.9593 11.5846C14.4946 10.8066 13.448 9.5 11.6667 9.5C9.88533 9.5 8.83869 10.806 8.37402 11.584C8.09736 12.046 8.09736 12.62 8.37402 13.082C8.83869 13.86 9.88533 15.1667 11.6667 15.1667C13.448 15.1667 14.4946 13.8607 14.9593 13.082C15.236 12.62 15.236 12.046 14.9593 11.5846ZM14.1013 12.5687C13.7447 13.166 12.9547 14.1667 11.6667 14.1667C10.3787 14.1667 9.58868 13.166 9.23201 12.5687C9.14468 12.4234 9.14468 12.2433 9.23201 12.0973C9.58868 11.5007 10.3787 10.5 11.6667 10.5C12.9547 10.5 13.7447 11.5006 14.1013 12.098C14.1887 12.2433 14.1887 12.4234 14.1013 12.5687ZM12.5133 12.3333C12.5133 12.7933 12.14 13.1667 11.68 13.1667C11.2207 13.1667 10.8433 12.7933 10.8433 12.3333C10.8433 11.8733 11.2133 11.5 11.6733 11.5H11.68C12.14 11.5 12.5133 11.8733 12.5133 12.3333Z" fill="#3B3B3E"/>
</g>
<defs>
<clipPath id="clip0_36251_7360">
<rect width="16" height="16" fill="white"/>
</clipPath>
</defs>
</svg>
