<svg width="16" height="16" viewBox="0 0 16 16" fill="none" xmlns="http://www.w3.org/2000/svg">
<path d="M10.5169 14.5C10.3496 14.5 10.1815 14.46 10.0262 14.3787L8.01025 13.3233L5.97624 14.3773C5.61824 14.564 5.19227 14.5347 4.86361 14.2953C4.53694 14.0573 4.37691 13.662 4.44491 13.264L4.82894 11.0347L3.1429 9.38867C2.86224 9.11601 2.76354 8.71602 2.88354 8.34469C3.00421 7.97269 3.31962 7.70668 3.70695 7.65068L6.03092 7.31466L7.0529 5.27332C7.2329 4.91132 7.59493 4.68669 7.99959 4.68669C8.40426 4.68669 8.76621 4.91132 8.94621 5.27332L9.95361 7.30465L12.2929 7.65133C12.6802 7.70733 12.9962 7.97267 13.1162 8.34534C13.2369 8.71667 13.1376 9.11666 12.8569 9.38932L11.1763 11.02L11.5556 13.2673C11.6242 13.6647 11.4636 14.06 11.1376 14.298C10.9529 14.4313 10.7363 14.5 10.5169 14.5ZM8.00024 12.3207C8.16291 12.3207 8.32555 12.3593 8.47355 12.4373L10.4896 13.4927L10.5702 13.436L10.1855 11.2047C10.1295 10.8727 10.2389 10.536 10.4789 10.302L12.1602 8.67065L9.82495 8.304C9.49228 8.256 9.20488 8.04731 9.05688 7.74731L8.05021 5.71667C8.04488 5.70667 8.03493 5.68534 7.99959 5.68534L6.94157 7.74801C6.79357 8.04734 6.5069 8.25533 6.17423 8.304L3.85026 8.64001L5.52026 10.3014C5.76093 10.536 5.87021 10.8727 5.81421 11.2033L5.43026 13.434L5.51221 13.4913L7.5262 12.4373C7.67487 12.3593 7.83758 12.3207 8.00024 12.3207ZM4.50024 6V2C4.50024 1.724 4.27624 1.5 4.00024 1.5C3.72424 1.5 3.50024 1.724 3.50024 2V6C3.50024 6.276 3.72424 6.5 4.00024 6.5C4.27624 6.5 4.50024 6.276 4.50024 6ZM8.50024 3.33333V2C8.50024 1.724 8.27624 1.5 8.00024 1.5C7.72424 1.5 7.50024 1.724 7.50024 2V3.33333C7.50024 3.60933 7.72424 3.83333 8.00024 3.83333C8.27624 3.83333 8.50024 3.60933 8.50024 3.33333ZM12.5002 6V2C12.5002 1.724 12.2762 1.5 12.0002 1.5C11.7242 1.5 11.5002 1.724 11.5002 2V6C11.5002 6.276 11.7242 6.5 12.0002 6.5C12.2762 6.5 12.5002 6.276 12.5002 6Z" fill="#3B3B3E"/>
</svg>
