<svg width="16" height="16" viewBox="0 0 16 16" fill="none" xmlns="http://www.w3.org/2000/svg">
<path d="M11.75 1.5H4.25C2.47667 1.5 1.5 2.47667 1.5 4.25V11.75C1.5 13.5233 2.47667 14.5 4.25 14.5H11.75C13.5233 14.5 14.5 13.5233 14.5 11.75V4.25C14.5 2.47667 13.5233 1.5 11.75 1.5ZM13.5 4.25V5.5H10.5V2.5H11.75C12.9767 2.5 13.5 3.02333 13.5 4.25ZM6.5 5.5V2.5H9.5V5.5H6.5ZM4.25 2.5H5.5V5.5H2.5V4.25C2.5 3.02333 3.02333 2.5 4.25 2.5ZM11.75 13.5H4.25C3.02333 13.5 2.5 12.9767 2.5 11.75V6.5H13.5V11.75C13.5 12.9767 12.9767 13.5 11.75 13.5ZM9.98202 8.74333L7.8833 7.45866C7.5353 7.24533 7.09801 7.23735 6.74268 7.43669C6.38201 7.63869 6.16732 8.0053 6.16732 8.41797V10.9154C6.16732 11.328 6.38201 11.6946 6.74268 11.8966C6.91401 11.9926 7.10403 12.0407 7.29403 12.0407C7.49869 12.0407 7.70263 11.9853 7.8833 11.8747L9.98136 10.5907C10.306 10.392 10.5 10.0467 10.5 9.66667C10.5 9.28667 10.306 8.94133 9.98202 8.74333ZM9.45931 9.7373L7.36068 11.022C7.30601 11.0546 7.2607 11.0407 7.23136 11.0247C7.20203 11.0081 7.16667 10.976 7.16667 10.9154V8.41797C7.16667 8.35797 7.20203 8.32526 7.23136 8.30859C7.24736 8.29926 7.26934 8.29134 7.29468 8.29134C7.31468 8.29134 7.33733 8.29669 7.36133 8.31136L9.45996 9.59603C9.45996 9.59603 9.46003 9.59603 9.46069 9.59603C9.48669 9.61203 9.50065 9.63602 9.50065 9.66602C9.50065 9.69602 9.48598 9.7213 9.45931 9.7373Z" fill="#3B3B3E"/>
</svg>
