<svg width="16" height="16" viewBox="0 0 16 16" fill="none" xmlns="http://www.w3.org/2000/svg">
<path d="M11.732 5.30868L12.3541 4.68669C12.5494 4.49135 12.5494 4.17466 12.3541 3.97933C12.1588 3.784 11.8421 3.784 11.6467 3.97933L10.9947 4.63135C10.0694 3.92468 8.91808 3.5 7.66675 3.5C4.63408 3.5 2.16675 5.96733 2.16675 9C2.16675 12.0327 4.63408 14.5 7.66675 14.5C10.6994 14.5 13.1667 12.0327 13.1667 9C13.1667 7.57867 12.62 6.28601 11.732 5.30868ZM7.66675 13.5C5.18541 13.5 3.16675 11.4813 3.16675 9C3.16675 6.51867 5.18541 4.5 7.66675 4.5C10.1481 4.5 12.1667 6.51867 12.1667 9C12.1667 11.4813 10.1481 13.5 7.66675 13.5ZM5.50008 2C5.50008 1.724 5.72408 1.5 6.00008 1.5H9.33341C9.60941 1.5 9.83341 1.724 9.83341 2C9.83341 2.276 9.60941 2.5 9.33341 2.5H6.00008C5.72408 2.5 5.50008 2.276 5.50008 2ZM9.83341 9C9.83341 9.276 9.60941 9.5 9.33341 9.5H8.16675V10.6667C8.16675 10.9427 7.94275 11.1667 7.66675 11.1667C7.39075 11.1667 7.16675 10.9427 7.16675 10.6667V9.5H6.00008C5.72408 9.5 5.50008 9.276 5.50008 9C5.50008 8.724 5.72408 8.5 6.00008 8.5H7.16675V7.33333C7.16675 7.05733 7.39075 6.83333 7.66675 6.83333C7.94275 6.83333 8.16675 7.05733 8.16675 7.33333V8.5H9.33341C9.60941 8.5 9.83341 8.724 9.83341 9Z" fill="#3B3B3E"/>
</svg>
