<svg width="16" height="16" viewBox="0 0 16 16" fill="none" xmlns="http://www.w3.org/2000/svg">
<path d="M12.3684 5.64095C12.1364 5.14228 11.6504 4.83301 11.099 4.83301H4.90111C4.34978 4.83301 3.86307 5.14228 3.63174 5.64095C3.40107 6.13695 3.47715 6.70503 3.82982 7.1237L6.75039 10.5856C7.06106 10.9543 7.51639 11.1663 8.00039 11.1663C8.48439 11.1663 8.93973 10.9549 9.25039 10.5856L12.1711 7.1237C12.5231 6.70503 12.5984 6.13695 12.3684 5.64095ZM11.4057 6.479L8.48509 9.94108C8.24443 10.2271 7.75441 10.2271 7.51374 9.94108L4.593 6.479C4.44767 6.307 4.50567 6.13034 4.53767 6.06234C4.56233 6.00834 4.66313 5.83236 4.90046 5.83236H11.0984C11.3357 5.83236 11.4363 6.00834 11.461 6.06234C11.493 6.13034 11.551 6.307 11.4057 6.479Z" fill="#3B3B3E"/>
</svg>
