<svg width="16" height="16" viewBox="0 0 16 16" fill="none" xmlns="http://www.w3.org/2000/svg">
<path d="M8.00066 1.5C4.41733 1.5 1.50197 4.41535 1.50197 7.99935C1.50197 8.93268 1.70937 9.87198 2.10337 10.7213C2.18003 10.8833 2.18595 11.0887 2.12062 11.2933L1.56007 12.9607C1.42007 13.382 1.52874 13.84 1.84474 14.1553C2.06874 14.3793 2.36462 14.4993 2.66928 14.4993C2.79328 14.4993 2.91804 14.4793 3.0407 14.4387L4.70005 13.8813C4.91205 13.814 5.11805 13.8187 5.28338 13.8987C6.12805 14.2913 7.06735 14.4987 8.00001 14.4987C11.584 14.4987 14.4994 11.5833 14.4994 7.99935C14.4994 4.41535 11.5847 1.5 8.00066 1.5ZM8.00066 13.4987C7.212 13.4987 6.41864 13.3234 5.70997 12.994C5.31731 12.8067 4.85135 12.7833 4.38868 12.9313L2.72332 13.4907C2.63999 13.5187 2.57993 13.476 2.55193 13.448C2.52393 13.42 2.48129 13.3607 2.50929 13.2773L3.07195 11.6034C3.21662 11.148 3.19331 10.682 3.00864 10.2947C2.67731 9.58134 2.50197 8.78799 2.50197 7.99866C2.50197 4.96666 4.96866 2.49935 8.00066 2.49935C11.0333 2.49935 13.5 4.96599 13.5 7.99866C13.5 11.0313 11.0333 13.4987 8.00066 13.4987ZM9.72267 6.60335C9.846 7.30469 9.55266 7.93135 8.89666 8.36735C8.52599 8.61335 8.47532 8.73866 8.47332 8.74333C8.39799 8.94466 8.20339 9.07401 7.99806 9.07401C7.94339 9.07401 7.88865 9.06531 7.83465 9.04598C7.57798 8.95465 7.43872 8.68201 7.52605 8.42334C7.66139 8.02267 8.05727 7.724 8.34327 7.53467C8.76727 7.25333 8.77195 6.96732 8.73862 6.77665C8.68662 6.48265 8.4353 6.23132 8.14064 6.17932C7.91664 6.13932 7.69206 6.19667 7.51873 6.342C7.34806 6.48533 7.25066 6.69467 7.25066 6.91667C7.25066 7.19267 7.02666 7.41667 6.75066 7.41667C6.47466 7.41667 6.25066 7.19267 6.25066 6.91667C6.25066 6.398 6.47866 5.91001 6.87599 5.57601C7.27332 5.24268 7.79598 5.10334 8.31398 5.19401C9.01864 5.31801 9.598 5.89735 9.72267 6.60335ZM8.68003 10.3333C8.68003 10.7013 8.38203 11 8.01336 11C7.64536 11 7.34327 10.7013 7.34327 10.3333C7.34327 9.96533 7.63869 9.66667 8.00669 9.66667H8.01336C8.38136 9.66667 8.68003 9.96533 8.68003 10.3333Z" fill="#3B3B3E"/>
</svg>
