<svg width="16" height="16" viewBox="0 0 16 16" fill="none" xmlns="http://www.w3.org/2000/svg">
<path d="M8.00004 0.833008C4.04804 0.833008 0.833374 4.04834 0.833374 7.99967C0.833374 11.951 4.04804 15.1663 8.00004 15.1663C11.952 15.1663 15.1667 11.951 15.1667 7.99967C15.1667 4.04834 11.952 0.833008 8.00004 0.833008ZM12.6954 11.9877L10.7674 10.0597C11.1987 9.48236 11.4634 8.77367 11.4634 7.99967C11.4634 7.22567 11.1987 6.51699 10.7674 5.93966L12.6954 4.01168C13.6107 5.08768 14.1667 6.47901 14.1667 7.99967C14.1667 9.52034 13.6107 10.9117 12.6954 11.9877ZM5.53739 7.99967C5.53739 6.64167 6.64204 5.53703 8.00004 5.53703C9.35804 5.53703 10.4627 6.64167 10.4627 7.99967C10.4627 9.35767 9.35804 10.4623 8.00004 10.4623C6.64204 10.4623 5.53739 9.35767 5.53739 7.99967ZM11.988 3.30501L10.0601 5.23299C9.48272 4.80166 8.77404 4.53768 8.00004 4.53768C7.22604 4.53768 6.51736 4.80232 5.94002 5.23299L4.01204 3.30501C5.08871 2.38901 6.47937 1.83301 8.00004 1.83301C9.52071 1.83301 10.912 2.38901 11.988 3.30501ZM3.30469 4.01168L5.23271 5.93966C4.80137 6.51699 4.5367 7.22567 4.5367 7.99967C4.5367 8.77367 4.80137 9.48236 5.23271 10.0597L3.30469 11.9877C2.38935 10.9117 1.83337 9.52034 1.83337 7.99967C1.83337 6.47901 2.38935 5.08768 3.30469 4.01168ZM4.01204 12.6943L5.94002 10.7664C6.51736 11.1977 7.22604 11.4617 8.00004 11.4617C8.77404 11.4617 9.48272 11.197 10.0601 10.7664L11.988 12.6943C10.9114 13.6103 9.52071 14.1663 8.00004 14.1663C6.47937 14.1663 5.08804 13.6103 4.01204 12.6943Z" fill="#3B3B3E"/>
</svg>
