<svg width="16" height="16" viewBox="0 0 16 16" fill="none" xmlns="http://www.w3.org/2000/svg">
<path d="M11.3333 2.16634H8.20728L7.02059 0.979675C6.92659 0.885675 6.7999 0.833008 6.66724 0.833008H4.66724C3.05524 0.833008 2.16724 1.72101 2.16724 3.33301V7.99967C2.16724 9.61167 3.05524 10.4997 4.66724 10.4997H7.50057V11.5777C6.89324 11.751 6.41853 12.2257 6.2452 12.833H3.33325C3.05725 12.833 2.83325 13.057 2.83325 13.333C2.83325 13.609 3.05725 13.833 3.33325 13.833H6.24455C6.46388 14.5997 7.16325 15.1663 7.99992 15.1663C8.83659 15.1663 9.53596 14.5997 9.75529 13.833H12.6666C12.9426 13.833 13.1666 13.609 13.1666 13.333C13.1666 13.057 12.9426 12.833 12.6666 12.833H9.75529C9.58196 12.2257 9.10725 11.751 8.49992 11.5777V10.4997H11.3333C12.9453 10.4997 13.8333 9.61167 13.8333 7.99967V4.66634C13.8333 3.05434 12.9453 2.16634 11.3333 2.16634ZM8.83325 13.333C8.83325 13.7923 8.45925 14.1663 7.99992 14.1663C7.54059 14.1663 7.16659 13.7923 7.16659 13.333C7.16659 12.8737 7.54059 12.4997 7.99992 12.4997C8.45925 12.4997 8.83325 12.8737 8.83325 13.333ZM12.8333 7.99967C12.8333 9.05101 12.3846 9.49967 11.3333 9.49967H4.66659C3.61525 9.49967 3.16659 9.05101 3.16659 7.99967V3.33301C3.16659 2.28167 3.61525 1.83301 4.66659 1.83301H6.45923L7.64591 3.01967C7.73991 3.11367 7.8666 3.16634 7.99927 3.16634H11.3326C12.3839 3.16634 12.8326 3.61501 12.8326 4.66634V7.99967H12.8333Z" fill="#3B3B3E"/>
</svg>
