<svg width="16" height="16" viewBox="0 0 16 16" fill="none" xmlns="http://www.w3.org/2000/svg">
<path d="M14.2258 4.75152C14.5312 5.64552 14.5825 6.67954 14.3765 7.7422C13.5571 11.9795 8.42456 14.3562 8.20656 14.4555C8.14056 14.4855 8.06987 14.5002 7.9992 14.5002C7.92854 14.5002 7.85719 14.4848 7.79119 14.4548C7.75053 14.4362 6.78917 13.9929 5.6185 13.1689C5.3925 13.0102 5.3385 12.6982 5.49717 12.4722C5.6545 12.2469 5.9672 12.1915 6.19386 12.3508C6.97586 12.9015 7.6672 13.2742 7.9992 13.4428C8.93653 12.9655 12.7599 10.8342 13.3945 7.55153C13.5685 6.65953 13.5278 5.80351 13.2791 5.07484C13.1898 4.81351 13.3292 4.52953 13.5912 4.4402C13.8512 4.34953 14.1365 4.49019 14.2258 4.75152ZM14.3532 2.35288L2.35321 14.3529C2.25587 14.4502 2.12785 14.4995 1.99985 14.4995C1.87185 14.4995 1.74383 14.4509 1.6465 14.3529C1.45117 14.1575 1.45117 13.8409 1.6465 13.6455L3.74123 11.5509C2.59723 10.3615 1.88251 9.08219 1.62184 7.74086C1.30384 6.09819 1.62319 4.49754 2.47519 3.45888C3.16519 2.61888 4.15653 2.17154 5.3432 2.16554C5.3472 2.16554 5.35189 2.16554 5.35589 2.16554C6.71456 2.16554 7.54119 2.9382 7.99985 3.59486C8.45785 2.9382 9.28518 2.16554 10.6425 2.16554C10.6465 2.16554 10.6505 2.16554 10.6552 2.16554C11.3972 2.17154 12.0479 2.35219 12.6072 2.68552L13.6471 1.64552C13.8425 1.45019 14.1592 1.45019 14.3545 1.64552C14.5485 1.84086 14.5485 2.15821 14.3532 2.35288ZM4.4472 10.8449L11.8672 3.42486C11.5105 3.26153 11.1059 3.16953 10.6485 3.16619C10.6459 3.16619 10.6432 3.16619 10.6406 3.16619C9.05789 3.16619 8.49583 4.75218 8.47316 4.81951C8.40383 5.02151 8.21319 5.15887 7.99985 5.15887C7.99852 5.15887 7.99783 5.15887 7.99717 5.15887C7.78317 5.1582 7.59318 5.02155 7.52451 4.81821C7.50251 4.75288 6.94049 3.16685 5.35516 3.16685C5.35249 3.16685 5.34985 3.16685 5.34718 3.16685C4.45585 3.17151 3.74982 3.48353 3.24782 4.09486C2.58248 4.9062 2.34187 6.19818 2.60321 7.55218C2.82587 8.69418 3.4472 9.8002 4.4472 10.8449Z" fill="#3B3B3E"/>
</svg>
