<svg width="16" height="16" viewBox="0 0 16 16" fill="none" xmlns="http://www.w3.org/2000/svg">
<path d="M13.7676 10.0697L12.0057 9.01898C11.1524 8.51098 10.0504 8.75833 9.49706 9.58366L8.98892 10.3417C7.54825 9.63766 6.36302 8.44899 5.65835 7.00232L6.41226 6.501C7.23959 5.951 7.49101 4.85033 6.98501 3.995L5.94302 2.23499C5.61835 1.68765 4.98636 1.40232 4.34569 1.53032C3.38369 1.72298 2.53632 2.31298 2.02098 3.14832C1.50765 3.98032 1.36769 4.95366 1.62369 5.88766C2.75235 9.99499 6.00636 13.247 10.1164 14.375C10.4204 14.4583 10.7283 14.4997 11.0343 14.4997C11.6677 14.4997 12.293 14.323 12.8537 13.977C13.689 13.4617 14.279 12.6143 14.471 11.6523C14.5957 11.0317 14.3136 10.3957 13.7676 10.0697ZM13.4904 11.457C13.3524 12.1477 12.9283 12.7563 12.3283 13.127C11.7363 13.4923 11.045 13.5937 10.381 13.4117C6.61034 12.3763 3.62368 9.39233 2.58902 5.62366C2.40635 4.95966 2.50703 4.26765 2.87303 3.67432C3.24303 3.07365 3.8517 2.65033 4.5537 2.50967C4.58637 2.503 4.61968 2.49966 4.65168 2.49966C4.82635 2.49966 4.99168 2.59098 5.08234 2.74565L6.12434 4.50499C6.35967 4.90165 6.24304 5.41298 5.85904 5.66832L4.75162 6.40499C4.55162 6.53766 4.47504 6.79299 4.56704 7.01365C5.39371 8.99632 7.00105 10.607 8.97639 11.433C9.19372 11.5243 9.45096 11.449 9.5843 11.2503L10.3276 10.1403C10.585 9.75699 11.097 9.64165 11.4936 9.87765L13.255 10.9283C13.4377 11.037 13.5324 11.2497 13.4904 11.457ZM9.53905 6.19098C9.51372 6.12965 9.50031 6.06499 9.50031 5.99966V3.77765C9.50031 3.50165 9.72431 3.27765 10.0003 3.27765C10.2763 3.27765 10.5003 3.50165 10.5003 3.77765V4.79299L12.9803 2.31299C13.1756 2.11766 13.4923 2.11766 13.6876 2.31299C13.883 2.50832 13.883 2.82499 13.6876 3.02033L11.2077 5.50033H12.2223C12.4983 5.50033 12.7223 5.72433 12.7223 6.00033C12.7223 6.27633 12.4983 6.50033 12.2223 6.50033H10.0003C9.93498 6.50033 9.87024 6.48698 9.80891 6.46165C9.68691 6.41032 9.58972 6.31298 9.53905 6.19098Z" fill="#3B3B3E"/>
</svg>
