<svg width="16" height="16" viewBox="0 0 16 16" fill="none" xmlns="http://www.w3.org/2000/svg">
<path d="M8.00008 7.16667C7.72408 7.16667 7.50008 6.94267 7.50008 6.66667V2C7.50008 1.724 7.72408 1.5 8.00008 1.5C8.27608 1.5 8.50008 1.724 8.50008 2V6.66667C8.50008 6.94267 8.27608 7.16667 8.00008 7.16667ZM13.8334 8.66667C13.8334 6.59667 12.7161 4.6606 10.9181 3.61393C10.6807 3.47593 10.3741 3.5566 10.2348 3.7946C10.0961 4.03326 10.1768 4.33936 10.4154 4.47803C11.9068 5.34536 12.8334 6.95002 12.8334 8.66602C12.8334 11.3313 10.6654 13.4993 8.00008 13.4993C5.33475 13.4993 3.16675 11.3313 3.16675 8.66602C3.16675 6.95068 4.09338 5.34603 5.58472 4.47803C5.82338 4.33936 5.90405 4.03326 5.76538 3.7946C5.62671 3.55593 5.32078 3.47527 5.08211 3.61393C3.28411 4.65993 2.16675 6.596 2.16675 8.66667C2.16675 11.8833 4.78341 14.5 8.00008 14.5C11.2167 14.5 13.8334 11.8833 13.8334 8.66667Z" fill="#3B3B3E"/>
</svg>
