<svg width="16" height="16" viewBox="0 0 16 16" fill="none" xmlns="http://www.w3.org/2000/svg">
<path d="M11.9995 13.8337C11.9008 13.8337 11.8009 13.8043 11.7135 13.7437C11.4869 13.5857 11.4322 13.2737 11.5902 13.0477C11.9888 12.4777 12.1662 11.743 12.1662 10.6676V6.66764C12.1662 5.79298 11.9015 4.96228 11.4009 4.26628C11.2395 4.04228 11.2902 3.72969 11.5142 3.56836C11.7395 3.40703 12.0516 3.45829 12.2122 3.68229C12.8369 4.54962 13.1668 5.58231 13.1668 6.66764V10.6676C13.1668 11.961 12.9328 12.8723 12.4095 13.6209C12.3128 13.7589 12.1575 13.8337 11.9995 13.8337ZM3.8335 10.667V6.66699C3.8335 4.36966 5.70283 2.50033 8.00016 2.50033C8.14683 2.50033 8.29277 2.5056 8.4401 2.5236C8.7121 2.5516 8.96276 2.36173 8.99609 2.08773C9.02943 1.81306 8.83422 1.56426 8.56022 1.53092C8.37422 1.50826 8.18683 1.50098 8.00016 1.50098C5.1515 1.50098 2.8335 3.81898 2.8335 6.66764V10.6676C2.8335 10.9436 3.0575 11.1676 3.3335 11.1676C3.6095 11.1676 3.8335 10.943 3.8335 10.667ZM8.27816 14.4163C9.77349 13.417 10.5002 12.0577 10.5002 10.2611V6.66699C10.5002 6.00033 10.2394 5.37307 9.76676 4.89974C9.3161 4.45041 8.69409 4.18299 8.05876 4.16699C7.79142 4.16099 7.55356 4.37896 7.54622 4.6543C7.53956 4.9303 7.75753 5.15966 8.03353 5.16699C8.41419 5.17633 8.78876 5.33693 9.05876 5.60693C9.34276 5.89093 9.49886 6.26699 9.49886 6.66699V10.2603C9.49886 11.7176 8.93353 12.7736 7.72087 13.5843C7.49153 13.7376 7.42951 14.0483 7.58284 14.2783C7.68018 14.4223 7.83818 14.5003 7.99951 14.5003C8.09618 14.5003 8.19282 14.473 8.27816 14.4163ZM5.70947 11.6183C6.21947 10.9543 6.50016 10.1263 6.50016 9.28695V6.66699C6.50016 6.51099 6.52086 6.36429 6.56152 6.24495C6.64886 5.98295 6.50681 5.69962 6.24414 5.61296C5.98214 5.52429 5.69948 5.66769 5.61214 5.92969C5.53814 6.15302 5.50016 6.40164 5.50016 6.66764V9.2876C5.50016 9.9076 5.29283 10.5196 4.91683 11.0096C4.74816 11.2289 4.79012 11.5423 5.00879 11.7109C5.10012 11.7803 5.20683 11.8143 5.31283 11.8143C5.46283 11.8136 5.61147 11.7463 5.70947 11.6183ZM8.50016 10.0003V7.33366C8.50016 7.05766 8.27616 6.83366 8.00016 6.83366C7.72416 6.83366 7.50016 7.05766 7.50016 7.33366V10.0003C7.50016 10.2763 7.72416 10.5003 8.00016 10.5003C8.27616 10.5003 8.50016 10.2763 8.50016 10.0003Z" fill="#3B3B3E"/>
</svg>
