<svg width="16" height="16" viewBox="0 0 16 16" fill="none" xmlns="http://www.w3.org/2000/svg">
<path d="M14.3534 5.01985L7.68669 11.6865C7.59269 11.7805 7.46536 11.8332 7.33336 11.8332C7.33269 11.8332 7.33202 11.8332 7.33136 11.8332C7.19802 11.8325 7.07069 11.7792 6.97669 11.6839L4.31002 8.97585C4.11602 8.77918 4.1187 8.46253 4.31536 8.26853C4.51203 8.0752 4.82936 8.07719 5.02269 8.27386L7.33536 10.6232L13.646 4.31252C13.8414 4.11718 14.158 4.11718 14.3534 4.31252C14.5487 4.50785 14.5487 4.82519 14.3534 5.01985ZM7.33336 9.16652C7.46136 9.16652 7.58936 9.11785 7.68669 9.01985L11.6867 5.01985C11.882 4.82452 11.882 4.50785 11.6867 4.31252C11.4914 4.11718 11.1747 4.11718 10.9794 4.31252L6.97936 8.31252C6.78402 8.50785 6.78402 8.82452 6.97936 9.01985C7.07736 9.11785 7.20536 9.16652 7.33336 9.16652ZM2.35602 8.27585C2.16269 8.07919 1.84603 8.07652 1.6487 8.27052C1.45203 8.46452 1.44936 8.78053 1.64336 8.97786L4.31002 11.6845C4.40736 11.7839 4.53669 11.8339 4.66602 11.8339C4.79269 11.8339 4.91936 11.7859 5.01669 11.6899C5.21336 11.4959 5.21603 11.1799 5.02203 10.9825L2.35602 8.27585Z" fill="#3B3B3E"/>
</svg>
