<svg width="16" height="16" viewBox="0 0 16 16" fill="none" xmlns="http://www.w3.org/2000/svg">
<path d="M11.3333 1.5H4.66663C3.05463 1.5 2.16663 2.388 2.16663 4V12.414C2.16663 12.8587 2.41397 13.2587 2.81197 13.4573C3.20864 13.656 3.67733 13.614 4.03333 13.3473L4.9386 12.668C5.1366 12.52 5.41798 12.5393 5.59265 12.714L6.93933 14.06C7.23133 14.3527 7.61596 14.4987 7.99996 14.4987C8.38396 14.4987 8.76792 14.3527 9.06059 14.06L10.4073 12.714C10.5826 12.5393 10.8646 12.5193 11.0606 12.6673L11.9666 13.3473C12.3226 13.614 12.7906 13.656 13.1879 13.4573C13.5859 13.2587 13.8333 12.8587 13.8333 12.414V4C13.8333 2.388 12.9453 1.5 11.3333 1.5ZM12.8333 12.414C12.8333 12.504 12.7753 12.546 12.7413 12.5633C12.706 12.5807 12.6393 12.602 12.5666 12.5473L11.66 11.8673C11.0686 11.4233 10.224 11.4827 9.69999 12.0067L8.35331 13.3527C8.16465 13.5413 7.83529 13.5413 7.64596 13.3527L6.29928 12.006C6.00994 11.7173 5.62395 11.5693 5.23661 11.5693C4.92061 11.5693 4.6046 11.6673 4.33793 11.8667L3.43193 12.5467C3.36059 12.6013 3.29262 12.5793 3.25728 12.5627C3.22328 12.5453 3.16532 12.5033 3.16532 12.4133V4C3.16532 2.94867 3.61399 2.5 4.66532 2.5H11.332C12.3833 2.5 12.832 2.94867 12.832 4V12.414H12.8333ZM10.02 6.02L6.68665 9.35333C6.58931 9.45067 6.46129 9.5 6.33329 9.5C6.20529 9.5 6.07727 9.45133 5.97994 9.35333C5.78461 9.158 5.78461 8.84133 5.97994 8.646L9.31327 5.31266C9.50861 5.11733 9.8253 5.11733 10.0206 5.31266C10.2153 5.508 10.2153 5.82533 10.02 6.02ZM5.67664 5.66667C5.67664 5.29867 5.97197 5 6.33997 5H6.34664C6.71531 5 7.01331 5.29867 7.01331 5.66667C7.01331 6.03467 6.71531 6.33333 6.34664 6.33333C5.97864 6.33333 5.67664 6.03467 5.67664 5.66667ZM10.3466 9C10.3466 9.368 10.0486 9.66667 9.67997 9.66667C9.31197 9.66667 9.00997 9.368 9.00997 9C9.00997 8.632 9.3053 8.33333 9.6733 8.33333H9.67997C10.048 8.33333 10.3466 8.632 10.3466 9Z" fill="#3B3B3E"/>
</svg>
