<svg width="16" height="16" viewBox="0 0 16 16" fill="none" xmlns="http://www.w3.org/2000/svg">
<path d="M12 3.5H6C5.60467 3.5 5.21796 3.66 4.93929 3.93933L1.93929 6.93933C1.65596 7.22266 1.5 7.59933 1.5 8C1.5 8.40067 1.65596 8.77734 1.93929 9.06067L4.93929 12.0607C5.21796 12.34 5.60467 12.5 6 12.5H12C13.612 12.5 14.5 11.612 14.5 10V6C14.5 4.388 13.612 3.5 12 3.5ZM13.5 10C13.5 11.0513 13.0513 11.5 12 11.5H6C5.86867 11.5 5.73931 11.4467 5.64665 11.3533L2.64665 8.35333C2.55198 8.25867 2.5 8.13333 2.5 8C2.5 7.86667 2.55198 7.74133 2.64665 7.64667L5.64665 4.64667C5.73998 4.554 5.86867 4.50067 6 4.50067H12C13.0513 4.50067 13.5 4.94934 13.5 6.00067V10ZM11.02 7.02L10.04 8L11.02 8.98C11.2154 9.17533 11.2154 9.492 11.02 9.68734C10.9227 9.78467 10.7947 9.834 10.6667 9.834C10.5387 9.834 10.4106 9.78534 10.3133 9.68734L9.33333 8.70734L8.35335 9.68734C8.25602 9.78467 8.128 9.834 8 9.834C7.872 9.834 7.74398 9.78534 7.64665 9.68734C7.45131 9.492 7.45131 9.17533 7.64665 8.98L8.62663 8L7.64665 7.02C7.45131 6.82467 7.45131 6.508 7.64665 6.31266C7.84198 6.11733 8.15867 6.11733 8.354 6.31266L9.33398 7.29266L10.314 6.31266C10.5093 6.11733 10.826 6.11733 11.0213 6.31266C11.2153 6.508 11.2154 6.82533 11.02 7.02Z" fill="#3B3B3E"/>
</svg>
