<svg width="16" height="16" viewBox="0 0 16 16" fill="none" xmlns="http://www.w3.org/2000/svg">
<path d="M11.3802 8.87093C10.9929 10.4183 9.60283 11.4997 8.00016 11.4997C7.0375 11.4997 6.1455 11.0983 5.50016 10.437V10.6663C5.50016 10.9423 5.27616 11.1663 5.00016 11.1663C4.72416 11.1663 4.50016 10.9423 4.50016 10.6663V8.99967C4.50016 8.72367 4.72416 8.49967 5.00016 8.49967H5.19222C5.19755 8.49967 5.20219 8.49967 5.20752 8.49967H6.66683C6.94283 8.49967 7.16683 8.72367 7.16683 8.99967C7.16683 9.27567 6.94283 9.49967 6.66683 9.49967H6.00342C6.46742 10.117 7.2015 10.4997 8.00016 10.4997C9.1435 10.4997 10.1342 9.73042 10.4102 8.62842C10.4775 8.36042 10.7541 8.19964 11.0161 8.26497C11.2848 8.33164 11.4475 8.60293 11.3802 8.87093ZM11.0002 4.83301C10.7242 4.83301 10.5002 5.05701 10.5002 5.33301V5.56234C9.85483 4.901 8.96283 4.49967 8.00016 4.49967C6.3975 4.49967 5.00745 5.58108 4.62012 7.12842C4.55278 7.39642 4.71621 7.66769 4.98421 7.73503C5.02488 7.74503 5.06545 7.74967 5.10612 7.74967C5.33012 7.74967 5.53415 7.59826 5.59082 7.37093C5.86682 6.26893 6.85748 5.49967 8.00081 5.49967C8.79948 5.49967 9.53356 5.88234 9.99756 6.49967H9.3335C9.0575 6.49967 8.8335 6.72367 8.8335 6.99967C8.8335 7.27567 9.0575 7.49967 9.3335 7.49967H10.7909C10.7969 7.50034 10.8028 7.49967 10.8088 7.49967H11.0002C11.2762 7.49967 11.5002 7.27567 11.5002 6.99967V5.33301C11.5002 5.05701 11.2762 4.83301 11.0002 4.83301ZM15.1668 7.99967C15.1668 11.9517 11.9522 15.1663 8.00016 15.1663C4.04816 15.1663 0.833496 11.9517 0.833496 7.99967C0.833496 4.04767 4.04816 0.833008 8.00016 0.833008C11.9522 0.833008 15.1668 4.04767 15.1668 7.99967ZM14.1668 7.99967C14.1668 4.59901 11.4008 1.83301 8.00016 1.83301C4.5995 1.83301 1.8335 4.59901 1.8335 7.99967C1.8335 11.4003 4.5995 14.1663 8.00016 14.1663C11.4008 14.1663 14.1668 11.4003 14.1668 7.99967Z" fill="#3B3B3E"/>
</svg>
