<svg width="16" height="16" viewBox="0 0 16 16" fill="none" xmlns="http://www.w3.org/2000/svg">
<path d="M13.3333 5.83366C12.322 5.83366 11.5 5.01099 11.5 4.00033C11.5 2.98966 12.322 2.16699 13.3333 2.16699C14.3447 2.16699 15.1667 2.98966 15.1667 4.00033C15.1667 5.01099 14.3447 5.83366 13.3333 5.83366ZM13.3333 3.16699C12.874 3.16699 12.5 3.54099 12.5 4.00033C12.5 4.45966 12.874 4.83366 13.3333 4.83366C13.7927 4.83366 14.1667 4.45966 14.1667 4.00033C14.1667 3.54099 13.7927 3.16699 13.3333 3.16699ZM14.5 11.3337V8.00033C14.5 7.72433 14.276 7.50033 14 7.50033C13.724 7.50033 13.5 7.72433 13.5 8.00033V11.3337C13.5 12.385 13.0513 12.8337 12 12.8337H4C2.94867 12.8337 2.5 12.385 2.5 11.3337V5.33366C2.5 4.28233 2.94867 3.83366 4 3.83366H9.33333C9.60933 3.83366 9.83333 3.60966 9.83333 3.33366C9.83333 3.05766 9.60933 2.83366 9.33333 2.83366H4C2.388 2.83366 1.5 3.72166 1.5 5.33366V11.3337C1.5 12.9457 2.388 13.8337 4 13.8337H12C13.612 13.8337 14.5 12.9457 14.5 11.3337ZM8.72933 9.39099L11.646 7.05766C11.8613 6.88499 11.8966 6.57032 11.724 6.35499C11.5513 6.13899 11.2367 6.10499 11.0207 6.27699L8.104 8.61032C8.044 8.65899 7.95533 8.65899 7.896 8.61032L4.97933 6.27699C4.764 6.10499 4.45004 6.13899 4.27604 6.35499C4.10338 6.57032 4.13867 6.88499 4.354 7.05766L7.27067 9.39099C7.48534 9.56299 7.74267 9.64833 8 9.64833C8.25733 9.64833 8.514 9.56299 8.72933 9.39099Z" fill="#3B3B3E"/>
</svg>
