<svg width="16" height="16" viewBox="0 0 16 16" fill="none" xmlns="http://www.w3.org/2000/svg">
<path d="M7.99994 14.4996C7.34128 14.4996 6.74928 14.1576 6.41462 13.5849C6.27595 13.3463 6.35594 13.0403 6.59461 12.9009C6.83194 12.7623 7.13861 12.8423 7.27861 13.0809C7.58461 13.6056 8.41528 13.6056 8.72128 13.0809C8.86061 12.8423 9.16728 12.7623 9.40528 12.9009C9.64394 13.0396 9.7246 13.3463 9.58527 13.5849C9.2506 14.1576 8.65861 14.4996 7.99994 14.4996ZM13.7833 12.2163C13.8666 12.0429 13.8433 11.8376 13.7239 11.6876C13.7113 11.6723 12.4966 10.1256 12.4966 8.33294V5.99627C12.4966 3.51694 10.4793 1.49961 7.99994 1.49961C5.52061 1.49961 3.50328 3.51694 3.50328 5.99627V8.33294C3.50328 10.1256 2.28861 11.6723 2.27594 11.6876C2.15661 11.8376 2.13328 12.0436 2.21662 12.2163C2.29995 12.3889 2.47461 12.4996 2.66661 12.4996H13.3333C13.5253 12.4996 13.6999 12.3889 13.7833 12.2163ZM4.50328 8.33294V5.99627C4.50328 4.06827 6.07194 2.49961 7.99994 2.49961C9.92794 2.49961 11.4966 4.06827 11.4966 5.99627V8.33294C11.4966 9.62361 11.9966 10.7716 12.4086 11.4996H3.5906C4.00327 10.7716 4.50328 9.62361 4.50328 8.33294ZM2.49728 5.38294C2.61128 4.24361 3.07128 3.18827 3.82862 2.33094C4.01128 2.12361 3.99128 1.80761 3.78461 1.62495C3.57728 1.44161 3.26128 1.46161 3.07862 1.66894C2.18262 2.68428 1.63727 3.93427 1.50261 5.28361C1.47461 5.55827 1.67527 5.80361 1.94993 5.83094C1.9666 5.83227 1.98395 5.83362 2.00061 5.83362C2.25395 5.83295 2.47194 5.64028 2.49728 5.38294ZM14.05 5.83028C14.3246 5.80295 14.5253 5.55761 14.4973 5.28295C14.3626 3.93428 13.8173 2.68428 12.9213 1.66828C12.7393 1.46161 12.4226 1.44094 12.2153 1.62427C12.0079 1.80694 11.9886 2.12295 12.1713 2.33028C12.9279 3.18761 13.3886 4.24295 13.5026 5.38228C13.5286 5.64028 13.7459 5.83227 13.9993 5.83227C14.0159 5.83294 14.0326 5.83228 14.05 5.83028Z" fill="#3B3B3E"/>
</svg>
