<svg width="16" height="16" viewBox="0 0 16 16" fill="none" xmlns="http://www.w3.org/2000/svg">
<path d="M14.3181 6.05619L9.37667 1.99223C8.57867 1.33756 7.42207 1.33689 6.62407 1.99223L1.68274 6.05554C1.47008 6.23087 1.43872 6.54556 1.61406 6.75956C1.79072 6.97289 2.10541 7.00291 2.31808 6.82825L2.83338 6.40425V11.9995C2.83338 13.6115 3.72138 14.4996 5.33338 14.4996H10.6667C12.2787 14.4996 13.1667 13.6115 13.1667 11.9995V6.40425L13.682 6.82825C13.7753 6.90491 13.888 6.94218 14 6.94218C14.144 6.94218 14.2874 6.88021 14.386 6.76021C14.562 6.54621 14.5307 6.23152 14.3181 6.05619ZM12.1667 11.9995C12.1667 13.0509 11.718 13.4996 10.6667 13.4996H5.33338C4.28204 13.4996 3.83338 13.0509 3.83338 11.9995V5.58223L7.2594 2.76558C7.68807 2.41292 8.31275 2.41292 8.74142 2.76558L12.1674 5.58288V11.9995H12.1667ZM7.77934 5.88619C7.27134 6.14219 6.71736 6.40024 5.52869 6.74158C5.31469 6.80291 5.16671 6.99887 5.16671 7.22221V8.70349C5.16671 10.5702 6.54738 11.7028 7.84005 12.1402C7.89205 12.1575 7.94604 12.1669 8.00004 12.1669C8.05404 12.1669 8.10804 12.1582 8.16004 12.1402C9.45204 11.7028 10.8334 10.5702 10.8334 8.70349V7.18355C10.8334 6.95488 10.6787 6.75485 10.4567 6.69885C9.28342 6.40085 8.73538 6.14556 8.23271 5.88822C8.09071 5.81489 7.92267 5.81485 7.77934 5.88619ZM9.83338 8.70349C9.83338 10.2342 8.52804 10.9189 8.00004 11.1329C7.47204 10.9189 6.16671 10.2342 6.16671 8.70349V7.59558C6.97271 7.35025 7.49205 7.13824 8.00338 6.89091C8.50671 7.13624 9.03604 7.34758 9.83338 7.56758V8.70349Z" fill="#3B3B3E"/>
</svg>
