<svg width="16" height="16" viewBox="0 0 16 16" fill="none" xmlns="http://www.w3.org/2000/svg">
<g clip-path="url(#clip0_36251_7630)">
<path d="M12.3468 6.88835C12.3468 7.44101 11.8995 7.88835 11.3468 7.88835C11.2542 7.88835 11.1662 7.87166 11.0808 7.84766L10.0842 8.8444C10.1075 8.92973 10.1242 9.01768 10.1242 9.11035C10.1242 9.66302 9.67683 10.1104 9.12417 10.1104C8.5715 10.1104 8.12083 9.66302 8.12083 9.11035C8.12083 9.02435 8.13483 8.94165 8.1555 8.86165L7.1475 7.85433C7.06817 7.87433 6.98683 7.88835 6.90216 7.88835C6.80949 7.88835 6.7215 7.87164 6.63617 7.84831L5.63951 8.8444C5.66284 8.92973 5.6795 9.01768 5.6795 9.11035C5.6795 9.66302 5.23217 10.1104 4.6795 10.1104C4.12684 10.1104 3.67617 9.66302 3.67617 9.11035C3.67617 8.55768 4.12083 8.11035 4.67283 8.11035H4.6795C4.76484 8.11035 4.84616 8.12437 4.9255 8.14437L5.93349 7.13631C5.91283 7.05698 5.89882 6.97435 5.89882 6.88835C5.89882 6.33568 6.34349 5.88835 6.89549 5.88835H6.90216C7.45483 5.88835 7.90216 6.33568 7.90216 6.88835C7.90216 6.98101 7.8855 7.06904 7.86216 7.15438L8.85683 8.14909C8.94016 8.12642 9.02683 8.11035 9.11749 8.11035H9.12417C9.2095 8.11035 9.29082 8.12437 9.37016 8.14437L10.3782 7.13631C10.3575 7.05631 10.3435 6.97435 10.3435 6.88835C10.3435 6.33568 10.7882 5.88835 11.3402 5.88835H11.3468C11.8995 5.88835 12.3468 6.33635 12.3468 6.88835ZM15.1668 7.99967C15.1668 11.9517 11.9522 15.1663 8.00016 15.1663C4.04816 15.1663 0.833496 11.9517 0.833496 7.99967C0.833496 4.04767 4.04816 0.833008 8.00016 0.833008C11.9522 0.833008 15.1668 4.04767 15.1668 7.99967ZM14.1668 7.99967C14.1668 4.59901 11.4008 1.83301 8.00016 1.83301C4.5995 1.83301 1.8335 4.59901 1.8335 7.99967C1.8335 11.4003 4.5995 14.1663 8.00016 14.1663C11.4008 14.1663 14.1668 11.4003 14.1668 7.99967Z" fill="#3B3B3E"/>
</g>
<defs>
<clipPath id="clip0_36251_7630">
<rect width="16" height="16" fill="white"/>
</clipPath>
</defs>
</svg>
