<svg width="16" height="16" viewBox="0 0 16 16" fill="none" xmlns="http://www.w3.org/2000/svg">
<path d="M12 13.8337H4C2.388 13.8337 1.5 12.9457 1.5 11.3337V8.83366H2C2.45933 8.83366 2.83333 8.45966 2.83333 8.00033C2.83333 7.54099 2.45933 7.16699 2 7.16699H1.5V4.66699C1.5 3.05499 2.388 2.16699 4 2.16699H12C13.612 2.16699 14.5 3.05499 14.5 4.66699V7.16699H14C13.5407 7.16699 13.1667 7.54099 13.1667 8.00033C13.1667 8.45966 13.5407 8.83366 14 8.83366H14.5V11.3337C14.5 12.9457 13.612 13.8337 12 13.8337ZM2.5 9.76432V11.3337C2.5 12.385 2.94867 12.8337 4 12.8337H12C13.0513 12.8337 13.5 12.385 13.5 11.3337V9.76432C12.7313 9.54632 12.1667 8.83833 12.1667 8.00033C12.1667 7.16233 12.7313 6.45433 13.5 6.23633V4.66699C13.5 3.61566 13.0513 3.16699 12 3.16699H4C2.94867 3.16699 2.5 3.61566 2.5 4.66699V6.23633C3.26867 6.45433 3.83333 7.16233 3.83333 8.00033C3.83333 8.83833 3.26867 9.54632 2.5 9.76432ZM9.528 11.167C9.39533 11.167 9.26266 11.135 9.13932 11.071L8 10.4763L6.86133 11.0703C6.57599 11.2197 6.23735 11.1937 5.97868 11.0043C5.72001 10.8157 5.59336 10.5023 5.64803 10.1877L5.86401 8.93699L4.91463 8.019C4.68997 7.80167 4.61004 7.48233 4.70671 7.185C4.80337 6.887 5.05532 6.67433 5.36532 6.62966L6.68197 6.44033L7.25 5.29832C7.392 5.01232 7.67998 4.83366 8.00065 4.83366C8.32065 4.83366 8.60864 5.01165 8.7513 5.29832L9.31934 6.44033L10.636 6.62966C10.946 6.67433 11.1987 6.887 11.2947 7.185C11.3913 7.48233 11.3107 7.80167 11.0867 8.019L10.1374 8.93699L10.354 10.189C10.408 10.5043 10.2813 10.817 10.022 11.0057C9.87397 11.1123 9.70133 11.167 9.528 11.167ZM8 9.45365C8.12933 9.45365 8.25936 9.48433 8.37736 9.54633L9.30998 10.033L9.13265 9.00899C9.08732 8.74299 9.1753 8.473 9.3693 8.28567L10.1147 7.56498L9.07869 7.41565C8.81469 7.37765 8.58533 7.21234 8.46533 6.973L7.9987 6.03432L7.53263 6.97166C7.41197 7.21166 7.1833 7.37698 6.91797 7.41565L5.88265 7.56498L6.62866 8.28632C6.822 8.47298 6.91066 8.74299 6.86466 9.00832L6.68734 10.0317L7.62004 9.54565C7.7407 9.48432 7.87067 9.45365 8 9.45365ZM10.066 9.00498C10.0653 9.00498 10.0653 9.00498 10.066 9.00498V9.00498ZM10.4914 7.619H10.4987H10.4914ZM7.85466 5.743C7.85466 5.743 7.85531 5.74366 7.85531 5.74432L7.85466 5.743Z" fill="#3B3B3E"/>
</svg>
