<svg width="16" height="16" viewBox="0 0 16 16" fill="none" xmlns="http://www.w3.org/2000/svg">
<path d="M13.472 5.42718L9.39201 2.00652C8.58601 1.32986 7.41399 1.32986 6.60799 2.00652L2.52799 5.42718C1.89066 5.95584 1.5 6.35187 1.5 7.76653V11.9999C1.5 13.6119 2.388 14.4999 4 14.4999H12C13.612 14.4999 14.5 13.6119 14.5 11.9999V7.76653C14.5 6.35187 14.1093 5.95584 13.472 5.42718ZM13.5 11.9999C13.5 13.0512 13.0513 13.4999 12 13.4999H4C2.94867 13.4999 2.5 13.0512 2.5 11.9999V7.76653C2.5 6.7492 2.66802 6.60988 3.16602 6.19655L7.25 2.77256C7.46733 2.59056 7.734 2.4992 8 2.4992C8.266 2.4992 8.53267 2.59056 8.75 2.77256L12.834 6.19655C13.332 6.60988 13.5 6.7492 13.5 7.76653V11.9999ZM11.128 8.01784C11.1533 8.07917 11.1667 8.14383 11.1667 8.20916V9.87583C11.1667 10.1518 10.9427 10.3758 10.6667 10.3758C10.3907 10.3758 10.1667 10.1518 10.1667 9.87583V9.41587L9.12736 10.4545C8.76536 10.8172 8.13197 10.8172 7.76864 10.4545L6.98267 9.66782L5.68669 11.0192C5.58935 11.1166 5.46133 11.1659 5.33333 11.1659C5.20533 11.1659 5.07731 11.1172 4.97998 11.0192C4.78465 10.8239 4.78465 10.5072 4.97998 10.3119L6.3313 8.96054C6.69397 8.59788 7.32801 8.59788 7.69067 8.96054L8.47599 9.74651L9.4847 8.70786H9C8.724 8.70786 8.5 8.48386 8.5 8.20786C8.5 7.93186 8.724 7.70786 9 7.70786H10.6667C10.732 7.70786 10.7967 7.72118 10.858 7.74651C10.98 7.79851 11.0773 7.89584 11.128 8.01784Z" fill="#3B3B3E"/>
</svg>
