<svg width="16" height="16" viewBox="0 0 16 16" fill="none" xmlns="http://www.w3.org/2000/svg">
<path d="M13.6667 4.83301H12.9607C12.7387 4.40434 12.352 4.0676 11.8726 3.9196C11.5733 3.7876 9.35402 2.83301 7.99935 2.83301C6.64468 2.83301 4.42598 3.78826 4.12598 3.9196C3.64664 4.0676 3.26 4.40434 3.038 4.83301H2.33203C1.50536 4.83301 0.832031 5.50567 0.832031 6.33301V8.66634C0.832031 10.3877 2.21403 11.7857 3.92603 11.8257C4.45203 12.5044 5.1393 13.0624 5.9633 13.4157C6.60996 13.693 7.30403 13.8317 7.9987 13.8317C8.6927 13.8317 9.38733 13.693 10.0347 13.4157C10.8587 13.0624 11.5454 12.5044 12.072 11.8257C13.784 11.7857 15.166 10.3877 15.166 8.66634V6.33301C15.1667 5.50567 14.4933 4.83301 13.6667 4.83301ZM1.83333 8.66634V6.33301C1.83333 6.05701 2.058 5.83301 2.33333 5.83301H2.83333V8.66634C2.83333 9.37967 2.98799 10.0637 3.25732 10.6937C2.42932 10.389 1.83333 9.59901 1.83333 8.66634ZM9.64201 12.4964C8.59801 12.9438 7.40198 12.9438 6.35864 12.4964C4.82398 11.8391 3.83333 10.3357 3.83333 8.66634V5.67236C3.83333 5.30236 4.082 4.97226 4.43734 4.87093C4.46 4.86426 4.48199 4.85634 4.50399 4.84701C5.13599 4.56501 6.99533 3.83301 8 3.83301C9.00467 3.83301 10.864 4.56501 11.496 4.84701C11.5173 4.85634 11.5393 4.86426 11.5627 4.87093C11.918 4.97226 12.1667 5.30236 12.1667 5.67236V8.66634C12.1667 10.335 11.176 11.8384 9.64201 12.4964ZM14.1667 8.66634C14.1667 9.59901 13.5713 10.389 12.7427 10.6937C13.012 10.0637 13.1667 9.37967 13.1667 8.66634V5.83301H13.6667C13.942 5.83301 14.1667 6.05701 14.1667 6.33301V8.66634ZM11.1667 7.66634C11.1667 7.94234 10.9427 8.16634 10.6667 8.16634H5.33333C5.05733 8.16634 4.83333 7.94234 4.83333 7.66634C4.83333 7.39034 5.05733 7.16634 5.33333 7.16634H10.6667C10.9427 7.16634 11.1667 7.39034 11.1667 7.66634ZM10.5 9.66634C10.5 9.94234 10.276 10.1663 10 10.1663H6C5.724 10.1663 5.5 9.94234 5.5 9.66634C5.5 9.39034 5.724 9.16634 6 9.16634H10C10.276 9.16634 10.5 9.39034 10.5 9.66634Z" fill="#3B3B3E"/>
</svg>
