<svg width="16" height="16" viewBox="0 0 16 16" fill="none" xmlns="http://www.w3.org/2000/svg">
<path d="M8.01286 0.833008C4.05952 0.833008 0.846191 4.04634 0.846191 7.99967C0.846191 11.953 4.05952 15.1663 8.01286 15.1663C11.9662 15.1663 15.1795 11.953 15.1795 7.99967C15.1795 4.04634 11.9662 0.833008 8.01286 0.833008ZM8.01286 14.1663C4.61286 14.1663 1.84619 11.3997 1.84619 7.99967C1.84619 4.59967 4.61286 1.83301 8.01286 1.83301C11.4129 1.83301 14.1795 4.59967 14.1795 7.99967C14.1795 11.3997 11.4129 14.1663 8.01286 14.1663ZM7.99951 8.83301C6.98618 8.83301 6.16618 9.65301 6.16618 10.6663C6.16618 11.6797 6.98618 12.4997 7.99951 12.4997C9.01284 12.4997 9.83284 11.6797 9.83284 10.6663C9.83284 9.65301 9.01284 8.83301 7.99951 8.83301ZM7.99951 11.4997C7.53951 11.4997 7.16618 11.1263 7.16618 10.6663C7.16618 10.2063 7.53951 9.83301 7.99951 9.83301C8.45951 9.83301 8.83284 10.2063 8.83284 10.6663C8.83284 11.1263 8.45951 11.4997 7.99951 11.4997ZM11.0195 6.35301L10.7062 6.66634L11.0195 6.97967C11.2129 7.17301 11.2129 7.49301 11.0195 7.68634C10.9195 7.78634 10.7928 7.83301 10.6662 7.83301C10.5395 7.83301 10.4128 7.78634 10.3128 7.68634L9.99951 7.37301L9.6862 7.68634C9.5862 7.78634 9.45951 7.83301 9.33284 7.83301C9.20618 7.83301 9.07949 7.78634 8.97949 7.68634C8.78616 7.49301 8.78616 7.17301 8.97949 6.97967L9.29285 6.66634L8.97949 6.35301C8.78616 6.15967 8.78616 5.83967 8.97949 5.64634C9.17283 5.45301 9.49286 5.45301 9.6862 5.64634L9.99951 5.95968L10.3128 5.64634C10.5062 5.45301 10.8262 5.45301 11.0195 5.64634C11.2129 5.83967 11.2129 6.15967 11.0195 6.35301ZM5.99951 7.37301L5.6862 7.68634C5.5862 7.78634 5.45951 7.83301 5.33284 7.83301C5.20618 7.83301 5.07949 7.78634 4.97949 7.68634C4.78616 7.49301 4.78616 7.17301 4.97949 6.97967L5.29285 6.66634L4.97949 6.35301C4.78616 6.15967 4.78616 5.83967 4.97949 5.64634C5.17283 5.45301 5.49286 5.45301 5.6862 5.64634L5.99951 5.95968L6.31283 5.64634C6.50616 5.45301 6.8262 5.45301 7.01953 5.64634C7.21286 5.83967 7.21286 6.15967 7.01953 6.35301L6.70618 6.66634L7.01953 6.97967C7.21286 7.17301 7.21286 7.49301 7.01953 7.68634C6.91953 7.78634 6.79284 7.83301 6.66618 7.83301C6.53951 7.83301 6.41283 7.78634 6.31283 7.68634L5.99951 7.37301Z" fill="#3B3B3E"/>
</svg>
