<svg width="16" height="16" viewBox="0 0 16 16" fill="none" xmlns="http://www.w3.org/2000/svg">
<path d="M12.3534 11.6867L9.68677 14.3534C9.64077 14.3994 9.58549 14.4359 9.52482 14.4613C9.46415 14.4866 9.39875 14.5 9.33341 14.5C9.26808 14.5 9.20334 14.4866 9.14201 14.4613C9.08067 14.4359 9.02606 14.3994 8.98006 14.3534L6.3134 11.6867C6.11806 11.4914 6.11806 11.1747 6.3134 10.9793C6.50873 10.784 6.82542 10.784 7.02075 10.9793L8.83407 12.7926V4C8.83407 3.17267 8.16073 2.5 7.33407 2.5H4.00073C3.72473 2.5 3.50073 2.276 3.50073 2C3.50073 1.724 3.72473 1.5 4.00073 1.5H7.33407C8.71207 1.5 9.83407 2.62133 9.83407 4V12.7926L11.6474 10.9793C11.8427 10.784 12.1594 10.784 12.3547 10.9793C12.5501 11.1747 12.5488 11.4914 12.3534 11.6867Z" fill="#3B3B3E"/>
</svg>
