<svg width="16" height="16" viewBox="0 0 16 16" fill="none" xmlns="http://www.w3.org/2000/svg">
<path d="M14 6.83333C13.724 6.83333 13.5 7.05733 13.5 7.33333V8.79264L10.8267 6.11995C10.3867 5.67929 9.61334 5.67929 9.17334 6.11995L6 9.29264L5.49333 8.78662C5.05333 8.34595 4.28001 8.34595 3.84001 8.78662L2.5 10.1266V4.66667C2.5 3.61533 2.94867 3.16667 4 3.16667H8.66667C8.94267 3.16667 9.16667 2.94267 9.16667 2.66667C9.16667 2.39067 8.94267 2.16667 8.66667 2.16667H4C2.388 2.16667 1.5 3.05467 1.5 4.66667V11.3333C1.5 12.9453 2.388 13.8333 4 13.8333H12C13.612 13.8333 14.5 12.9453 14.5 11.3333V7.33333C14.5 7.05733 14.276 6.83333 14 6.83333ZM12 12.8333H4C3.01867 12.8333 2.56798 12.436 2.51131 11.5286L4.54663 9.49333C4.6313 9.40933 4.7013 9.40933 4.78597 9.49333L5.41203 10.1193C5.72336 10.4313 6.27602 10.4306 6.58602 10.1193L9.87931 6.82601C9.96398 6.74201 10.034 6.74201 10.1187 6.82601L13.4987 10.2061V11.3333C13.5 12.3847 13.0513 12.8333 12 12.8333ZM5.33333 5.16667C5.79333 5.16667 6.16667 5.54 6.16667 6C6.16667 6.46 5.79333 6.83333 5.33333 6.83333C4.87333 6.83333 4.5 6.46 4.5 6C4.5 5.54 4.87333 5.16667 5.33333 5.16667ZM10.8333 3.33333C10.8333 3.05733 11.0573 2.83333 11.3333 2.83333H12.1667V2C12.1667 1.724 12.3907 1.5 12.6667 1.5C12.9427 1.5 13.1667 1.724 13.1667 2V2.83333H14C14.276 2.83333 14.5 3.05733 14.5 3.33333C14.5 3.60933 14.276 3.83333 14 3.83333H13.1667V4.66667C13.1667 4.94267 12.9427 5.16667 12.6667 5.16667C12.3907 5.16667 12.1667 4.94267 12.1667 4.66667V3.83333H11.3333C11.0573 3.83333 10.8333 3.60933 10.8333 3.33333Z" fill="#3B3B3E"/>
</svg>
