<svg width="16" height="16" viewBox="0 0 16 16" fill="none" xmlns="http://www.w3.org/2000/svg">
<path d="M12.5734 3.36666C12.5134 3.30666 12.4334 3.26 12.3467 3.23334C12.0867 3.14667 11.7667 3.18666 11.3867 3.34666C11.5334 3.25333 11.64 3.09333 11.64 2.91333C11.64 2.73333 11.5334 2.55333 11.38 2.46C10.32 1.81333 9.21336 1.5 7.99336 1.5C6.77336 1.5 5.66669 1.81333 4.60669 2.45333C4.45336 2.55333 4.34669 2.72666 4.34669 2.91333C4.34669 3.1 4.46669 3.27999 4.63336 3.36666C4.21336 3.17999 3.86669 3.14001 3.58669 3.26001C3.58669 3.26001 3.55336 3.27334 3.54002 3.28001C3.48669 3.30668 3.44002 3.34 3.40002 3.38C2.16669 4.61334 1.48669 6.24666 1.48669 7.99333C1.48669 9.40666 1.96003 10.8 2.81336 11.9267C2.94003 12.0867 3.15336 12.1733 3.35336 12.1267C3.37336 12.4933 3.53336 12.7333 3.69336 12.9C4.86003 13.9333 6.3867 14.5067 7.97336 14.5067C9.56003 14.5067 11.0667 13.94 12.28 12.8733C12.42 12.7333 12.5734 12.4867 12.5934 12.1133C12.7867 12.1667 13.0134 12.0733 13.14 11.9133C14 10.7933 14.4667 9.39333 14.4667 7.98C14.4667 6.22667 13.78 4.59333 12.54 3.36666H12.5734ZM9.30002 2.65334C8.75336 2.83334 8.28003 3.06666 8.00003 3.21999C7.72669 3.07332 7.24669 2.84001 6.70003 2.65334C7.52669 2.45334 8.46669 2.45334 9.29336 2.65334H9.30002ZM2.91336 10.0667C2.64669 9.41334 2.50669 8.70666 2.50669 7.99333C2.50669 6.56666 3.04002 5.22666 4.02002 4.19999C4.18002 4.23333 4.68003 4.40667 5.70003 5.36001C5.05336 6.18001 3.48003 8.3 2.91336 10.0667V10.0667ZM11.6267 12.1467C10.6267 13.02 9.34002 13.5 8.00669 13.5C6.67336 13.5 5.37336 13.02 4.41336 12.1667C4.38003 12.1333 4.38003 12.0467 4.38669 12C4.46003 11.0267 6.3667 8.78001 8.01336 7.44668C9.65336 8.78001 11.56 11.0267 11.6334 12C11.6334 12.0467 11.6334 12.1333 11.6334 12.14L11.6267 12.1467ZM8.36669 6.46C8.27336 6.37333 8.15336 6.31333 8.01336 6.31333H8.00669C7.87336 6.31333 7.75336 6.36666 7.66669 6.45333C6.54003 7.31333 4.53336 9.27334 3.73336 10.86C3.96669 9.52667 5.52003 7.11334 6.73336 5.67334C6.8267 5.58001 6.88003 5.45334 6.88003 5.32001C6.88003 5.18001 6.81336 5.04668 6.71336 4.94668C5.93336 4.17334 5.26003 3.65332 4.71336 3.38666C4.80669 3.41999 4.90669 3.43333 5.00669 3.41333C5.90669 3.21333 7.48002 4.03999 7.72669 4.19999C7.88669 4.29999 8.13336 4.29999 8.29336 4.19999C8.54669 4.03999 10.1134 3.21333 11.0134 3.41333C11.1 3.43333 11.1867 3.42667 11.2734 3.4C10.7267 3.66667 10.0667 4.18001 9.3067 4.92668L9.28669 4.94668C9.19335 5.04001 9.14003 5.16667 9.14003 5.30001C9.14003 5.43334 9.19335 5.56001 9.28669 5.65334C10.5334 7.13334 12.0467 9.54 12.28 10.8533C11.48 9.27333 9.50003 7.33333 8.36669 6.45333V6.46ZM13.1 10.0533C12.5334 8.28666 10.96 6.16666 10.32 5.34666C11.3334 4.39999 11.84 4.22667 11.9934 4.18667C12.9734 5.20667 13.5134 6.54666 13.5134 7.97333C13.5134 8.68666 13.3734 9.39334 13.1067 10.0467L13.1 10.0533Z" fill="#3B3B3E"/>
</svg>
