<svg width="16" height="16" viewBox="0 0 16 16" fill="none" xmlns="http://www.w3.org/2000/svg">
<path d="M13.6866 5.64667L9.68661 1.64667C9.59261 1.55267 9.46592 1.5 9.33325 1.5H5.33325C3.72125 1.5 2.83325 2.388 2.83325 4V12C2.83325 13.612 3.72125 14.5 5.33325 14.5H11.3333C12.9453 14.5 13.8333 13.612 13.8333 12V6C13.8333 5.86733 13.7806 5.74 13.6866 5.64667ZM9.83325 3.20734L12.1259 5.5H11.3333C10.2819 5.5 9.83325 5.05133 9.83325 4V3.20734ZM11.3333 13.5H5.33325C4.28192 13.5 3.83325 13.0513 3.83325 12V4C3.83325 2.94867 4.28192 2.5 5.33325 2.5H8.83325V4C8.83325 5.612 9.72125 6.5 11.3333 6.5H12.8333V12C12.8333 13.0513 12.3846 13.5 11.3333 13.5ZM9.98657 10.6133C10.2386 10.2287 10.3886 9.77067 10.3886 9.27801C10.3886 7.93001 9.29191 6.83333 7.94458 6.83333C6.59658 6.83333 5.49992 7.93001 5.49992 9.27801C5.49992 10.6253 6.59658 11.722 7.94458 11.722C8.43791 11.722 8.8952 11.5727 9.27987 11.3207L10.3132 12.3533C10.4106 12.4507 10.5386 12.5 10.6666 12.5C10.7946 12.5 10.9226 12.4513 11.0199 12.3533C11.2153 12.158 11.2153 11.8413 11.0199 11.646L9.98657 10.6133ZM6.49992 9.27801C6.49992 8.48134 7.14791 7.83333 7.94458 7.83333C8.74058 7.83333 9.38859 8.48134 9.38859 9.27801C9.38859 10.074 8.74058 10.722 7.94458 10.722C7.14791 10.722 6.49992 10.074 6.49992 9.27801Z" fill="#3B3B3E"/>
</svg>
