<svg width="16" height="16" viewBox="0 0 16 16" fill="none" xmlns="http://www.w3.org/2000/svg">
<path d="M6.85547 11.1676C6.62214 11.1676 6.38884 11.1076 6.1735 10.987C5.72884 10.7376 5.46346 10.285 5.46346 9.77572V6.22363C5.46346 5.7143 5.72884 5.2617 6.1735 5.01237C6.62084 4.76237 7.14619 4.77238 7.58219 5.03971L10.5682 6.86637C10.9662 7.11037 11.2042 7.53366 11.2042 8.00033C11.2042 8.46699 10.9662 8.89028 10.5682 9.13428L7.58219 10.9609C7.35619 11.0983 7.10614 11.1676 6.85547 11.1676ZM6.85685 5.83301C6.76885 5.83301 6.69819 5.86426 6.66219 5.88493C6.60219 5.91826 6.46281 6.01897 6.46281 6.22363V9.77572C6.46281 9.98105 6.60219 10.0811 6.66219 10.1144C6.72286 10.1484 6.88214 10.2163 7.06014 10.1069L10.0461 8.28027C10.1888 8.19294 10.2042 8.05501 10.2042 7.99967C10.2042 7.94434 10.1888 7.80639 10.0461 7.71973L7.06014 5.89307C6.98747 5.84773 6.91819 5.83301 6.85685 5.83301ZM8.00016 15.1663C4.04816 15.1663 0.833496 11.9517 0.833496 7.99967C0.833496 4.04767 4.04816 0.833008 8.00016 0.833008C11.9522 0.833008 15.1668 4.04767 15.1668 7.99967C15.1668 11.9517 11.9522 15.1663 8.00016 15.1663ZM8.00016 1.83301C4.5995 1.83301 1.8335 4.59901 1.8335 7.99967C1.8335 11.4003 4.5995 14.1663 8.00016 14.1663C11.4008 14.1663 14.1668 11.4003 14.1668 7.99967C14.1668 4.59901 11.4008 1.83301 8.00016 1.83301Z" fill="#3B3B3E"/>
</svg>
