<svg width="16" height="16" viewBox="0 0 16 16" fill="none" xmlns="http://www.w3.org/2000/svg">
<path d="M3.66667 5.16667H3C2.06067 5.16667 1.5 4.606 1.5 3.66667V3C1.5 2.06067 2.06067 1.5 3 1.5H3.66667C4.606 1.5 5.16667 2.06067 5.16667 3V3.66667C5.16667 4.606 4.606 5.16667 3.66667 5.16667ZM3 2.5C2.60733 2.5 2.5 2.60733 2.5 3V3.66667C2.5 4.05933 2.60733 4.16667 3 4.16667H3.66667C4.05933 4.16667 4.16667 4.05933 4.16667 3.66667V3C4.16667 2.60733 4.05933 2.5 3.66667 2.5H3ZM8.33333 5.16667H7.66667C6.72733 5.16667 6.16667 4.606 6.16667 3.66667V3C6.16667 2.06067 6.72733 1.5 7.66667 1.5H8.33333C9.27267 1.5 9.83333 2.06067 9.83333 3V3.66667C9.83333 4.606 9.27267 5.16667 8.33333 5.16667ZM7.66667 2.5C7.274 2.5 7.16667 2.60733 7.16667 3V3.66667C7.16667 4.05933 7.274 4.16667 7.66667 4.16667H8.33333C8.726 4.16667 8.83333 4.05933 8.83333 3.66667V3C8.83333 2.60733 8.726 2.5 8.33333 2.5H7.66667ZM13 5.16667H12.3333C11.394 5.16667 10.8333 4.606 10.8333 3.66667V3C10.8333 2.06067 11.394 1.5 12.3333 1.5H13C13.9393 1.5 14.5 2.06067 14.5 3V3.66667C14.5 4.606 13.9393 5.16667 13 5.16667ZM12.3333 2.5C11.9407 2.5 11.8333 2.60733 11.8333 3V3.66667C11.8333 4.05933 11.9407 4.16667 12.3333 4.16667H13C13.3927 4.16667 13.5 4.05933 13.5 3.66667V3C13.5 2.60733 13.3927 2.5 13 2.5H12.3333ZM3.66667 9.83333H3C2.06067 9.83333 1.5 9.27267 1.5 8.33333V7.66667C1.5 6.72733 2.06067 6.16667 3 6.16667H3.66667C4.606 6.16667 5.16667 6.72733 5.16667 7.66667V8.33333C5.16667 9.27267 4.606 9.83333 3.66667 9.83333ZM3 7.16667C2.60733 7.16667 2.5 7.274 2.5 7.66667V8.33333C2.5 8.726 2.60733 8.83333 3 8.83333H3.66667C4.05933 8.83333 4.16667 8.726 4.16667 8.33333V7.66667C4.16667 7.274 4.05933 7.16667 3.66667 7.16667H3ZM8.33333 9.83333H7.66667C6.72733 9.83333 6.16667 9.27267 6.16667 8.33333V7.66667C6.16667 6.72733 6.72733 6.16667 7.66667 6.16667H8.33333C9.27267 6.16667 9.83333 6.72733 9.83333 7.66667V8.33333C9.83333 9.27267 9.27267 9.83333 8.33333 9.83333ZM7.66667 7.16667C7.274 7.16667 7.16667 7.274 7.16667 7.66667V8.33333C7.16667 8.726 7.274 8.83333 7.66667 8.83333H8.33333C8.726 8.83333 8.83333 8.726 8.83333 8.33333V7.66667C8.83333 7.274 8.726 7.16667 8.33333 7.16667H7.66667ZM13 9.83333H12.3333C11.394 9.83333 10.8333 9.27267 10.8333 8.33333V7.66667C10.8333 6.72733 11.394 6.16667 12.3333 6.16667H13C13.9393 6.16667 14.5 6.72733 14.5 7.66667V8.33333C14.5 9.27267 13.9393 9.83333 13 9.83333ZM12.3333 7.16667C11.9407 7.16667 11.8333 7.274 11.8333 7.66667V8.33333C11.8333 8.726 11.9407 8.83333 12.3333 8.83333H13C13.3927 8.83333 13.5 8.726 13.5 8.33333V7.66667C13.5 7.274 13.3927 7.16667 13 7.16667H12.3333ZM3.66667 14.5H3C2.06067 14.5 1.5 13.9393 1.5 13V12.3333C1.5 11.394 2.06067 10.8333 3 10.8333H3.66667C4.606 10.8333 5.16667 11.394 5.16667 12.3333V13C5.16667 13.9393 4.606 14.5 3.66667 14.5ZM3 11.8333C2.60733 11.8333 2.5 11.9407 2.5 12.3333V13C2.5 13.3927 2.60733 13.5 3 13.5H3.66667C4.05933 13.5 4.16667 13.3927 4.16667 13V12.3333C4.16667 11.9407 4.05933 11.8333 3.66667 11.8333H3ZM8.33333 14.5H7.66667C6.72733 14.5 6.16667 13.9393 6.16667 13V12.3333C6.16667 11.394 6.72733 10.8333 7.66667 10.8333H8.33333C9.27267 10.8333 9.83333 11.394 9.83333 12.3333V13C9.83333 13.9393 9.27267 14.5 8.33333 14.5ZM7.66667 11.8333C7.274 11.8333 7.16667 11.9407 7.16667 12.3333V13C7.16667 13.3927 7.274 13.5 7.66667 13.5H8.33333C8.726 13.5 8.83333 13.3927 8.83333 13V12.3333C8.83333 11.9407 8.726 11.8333 8.33333 11.8333H7.66667ZM13 14.5H12.3333C11.394 14.5 10.8333 13.9393 10.8333 13V12.3333C10.8333 11.394 11.394 10.8333 12.3333 10.8333H13C13.9393 10.8333 14.5 11.394 14.5 12.3333V13C14.5 13.9393 13.9393 14.5 13 14.5ZM12.3333 11.8333C11.9407 11.8333 11.8333 11.9407 11.8333 12.3333V13C11.8333 13.3927 11.9407 13.5 12.3333 13.5H13C13.3927 13.5 13.5 13.3927 13.5 13V12.3333C13.5 11.9407 13.3927 11.8333 13 11.8333H12.3333Z" fill="#3B3B3E"/>
</svg>
