<svg width="16" height="16" viewBox="0 0 16 16" fill="none" xmlns="http://www.w3.org/2000/svg">
<path d="M7.99994 7.16732C8.88861 7.16732 9.61127 6.44466 9.61127 5.55599C9.61127 4.66732 8.88861 3.94466 7.99994 3.94466C7.11127 3.94466 6.38861 4.66732 6.38861 5.55599C6.38861 6.44466 7.11127 7.16732 7.99994 7.16732ZM7.99994 4.94466C8.33661 4.94466 8.61127 5.21866 8.61127 5.55599C8.61127 5.89332 8.33727 6.16732 7.99994 6.16732C7.66261 6.16732 7.38861 5.89332 7.38861 5.55599C7.38861 5.21866 7.66327 4.94466 7.99994 4.94466ZM13.9759 4.91732C13.6373 4.70665 13.2013 4.69405 12.8093 4.88672L12.0406 5.27132C11.8933 3.16799 10.1393 1.5 7.99927 1.5C5.91593 1.5 4.1966 3.07935 3.9706 5.10335L2.4366 5.87337C1.8586 6.16337 1.49927 6.74541 1.49927 7.39274V13C1.49927 13.4087 1.70594 13.7806 2.05127 13.9959C2.39594 14.2106 2.82128 14.2313 3.19061 14.0493L5.45927 12.908C5.51327 12.8827 5.5626 12.8687 5.62526 12.868C5.6926 12.864 5.74061 12.8706 5.79128 12.8906L9.85195 14.4087C10.0119 14.4707 10.1739 14.5013 10.3079 14.5013C10.3406 14.5013 10.3713 14.4999 10.3999 14.4959C10.5886 14.4959 10.7739 14.452 10.9779 14.356L13.5639 13.056C14.1413 12.7653 14.4999 12.1833 14.4999 11.5373V5.92741C14.4999 5.49274 14.3093 5.12465 13.9759 4.91732ZM7.99994 2.5C9.68461 2.5 11.0553 3.87132 11.0553 5.55599C11.0553 5.68866 11.0433 5.81671 11.0253 5.94271V5.94336C10.7979 7.53469 9.20661 8.60402 7.99994 9.40202C6.69727 8.54135 4.9446 7.36466 4.9446 5.55599C4.9446 3.87132 6.31527 2.5 7.99994 2.5ZM2.74593 13.154C2.67193 13.1906 2.60994 13.166 2.57994 13.1466C2.54994 13.128 2.49994 13.084 2.49994 13V7.39274C2.49994 7.12674 2.64795 6.88659 2.88595 6.76725L4.00594 6.2054C4.15194 7.04407 4.56794 7.74868 5.09994 8.34668V11.9813C5.07394 11.9919 5.0486 11.9966 5.02193 12.0093L2.74593 13.154ZM6.14728 11.9561C6.13194 11.9501 6.11527 11.9487 6.09994 11.9434V9.27995C6.57594 9.65861 7.0646 9.98204 7.48794 10.262L7.72262 10.4173C7.80662 10.4733 7.90327 10.5013 7.99994 10.5013C8.09661 10.5013 8.19326 10.4733 8.27726 10.4173L8.51194 10.262C8.93528 9.98271 9.42394 9.65861 9.89994 9.27995V13.3587L6.14728 11.9561ZM13.4999 11.5373C13.4999 11.8033 13.3519 12.0433 13.1146 12.1626L10.8999 13.276V8.34668C11.3833 7.80401 11.7739 7.17325 11.9513 6.43392L13.2539 5.78206C13.3393 5.74006 13.4126 5.74395 13.4479 5.76595C13.4946 5.79528 13.4999 5.88874 13.4999 5.92741V11.5373Z" fill="#3B3B3E"/>
</svg>
