<svg width="16" height="16" viewBox="0 0 16 16" fill="none" xmlns="http://www.w3.org/2000/svg">
<g clip-path="url(#clip0_36251_7350)">
<path d="M13.7946 10.3617C13.3539 10.1123 12.8299 10.1176 12.3939 10.3796L11.0806 11.1676C10.8746 10.585 10.3179 10.1663 9.66593 10.1663H5.99927C5.57193 10.1663 5.18326 10.3197 4.87126 10.5657C4.65726 10.323 4.34793 10.1663 3.99927 10.1663H2.66593C2.0226 10.1663 1.49927 10.6897 1.49927 11.333V13.9997C1.49927 14.643 2.0226 15.1663 2.66593 15.1663H3.99927C4.34727 15.1663 4.65726 15.0097 4.87126 14.767C5.18326 15.013 5.57193 15.1663 5.99927 15.1663H9.73055C10.4472 15.1663 11.1499 14.9197 11.7092 14.4723L13.9779 12.657C14.3093 12.3916 14.4993 11.9957 14.4993 11.5717C14.4999 11.0644 14.2359 10.6123 13.7946 10.3617ZM4.16659 13.9997C4.16659 14.0917 4.09192 14.1663 3.99992 14.1663H2.66659C2.57459 14.1663 2.49992 14.0917 2.49992 13.9997V11.333C2.49992 11.241 2.57459 11.1663 2.66659 11.1663H3.99992C4.09192 11.1663 4.16659 11.241 4.16659 11.333V11.9997V13.333V13.9997ZM13.3533 11.8763L11.0846 13.6916C10.7026 13.9976 10.2213 14.1663 9.73128 14.1663H5.99992C5.54059 14.1663 5.16659 13.7923 5.16659 13.333V11.9997C5.16659 11.5403 5.54059 11.1663 5.99992 11.1663H9.66658C9.94192 11.1663 10.1666 11.3903 10.1666 11.6663C10.1666 11.9423 9.94192 12.1663 9.66658 12.1663H7.33325C7.05725 12.1663 6.83325 12.3903 6.83325 12.6663C6.83325 12.9423 7.05725 13.1663 7.33325 13.1663H9.66658C10.2286 13.1663 10.7192 12.8556 10.9766 12.397L12.9086 11.2377C13.0859 11.131 13.2433 11.199 13.3019 11.233C13.3613 11.2663 13.4999 11.367 13.4999 11.5723C13.4999 11.691 13.4466 11.8023 13.3533 11.8763ZM8.00325 4.16634C8.92259 4.16634 9.66992 3.41834 9.66992 2.49967C9.66992 1.58101 8.92259 0.833008 8.00325 0.833008C7.08392 0.833008 6.33659 1.58101 6.33659 2.49967C6.33659 3.41834 7.08392 4.16634 8.00325 4.16634ZM8.00325 1.83301C8.37125 1.83301 8.66992 2.13234 8.66992 2.49967C8.66992 2.86701 8.37125 3.16634 8.00325 3.16634C7.63525 3.16634 7.33659 2.86701 7.33659 2.49967C7.33659 2.13234 7.63525 1.83301 8.00325 1.83301ZM6.66724 8.49967H9.3326C10.2719 8.49967 10.8333 7.94103 10.8333 7.0057C10.8333 5.9237 10.1633 4.83301 8.66658 4.83301H7.33325C5.83659 4.83301 5.16659 5.92436 5.16659 7.0057C5.16659 7.94103 5.7279 8.49967 6.66724 8.49967ZM7.33325 5.83301H8.66658C9.68125 5.83301 9.83325 6.5677 9.83325 7.0057C9.83325 7.38903 9.72127 7.49967 9.3326 7.49967H6.66724C6.27857 7.49967 6.16659 7.38903 6.16659 7.0057C6.16659 6.5677 6.31859 5.83301 7.33325 5.83301Z" fill="#3B3B3E"/>
</g>
<defs>
<clipPath id="clip0_36251_7350">
<rect width="16" height="16" fill="white"/>
</clipPath>
</defs>
</svg>
