<svg width="16" height="16" viewBox="0 0 16 16" fill="none" xmlns="http://www.w3.org/2000/svg">
<path d="M11.75 1.5H4.25C2.47667 1.5 1.5 2.47667 1.5 4.25V11.75C1.5 13.5233 2.47667 14.5 4.25 14.5H11.75C13.5233 14.5 14.5 13.5233 14.5 11.75V4.25C14.5 2.47667 13.5233 1.5 11.75 1.5ZM13.5 11.75C13.5 12.9767 12.9767 13.5 11.75 13.5H4.25C3.02333 13.5 2.5 12.9767 2.5 11.75V4.25C2.5 3.02333 3.02333 2.5 4.25 2.5H11.75C12.9767 2.5 13.5 3.02333 13.5 4.25V11.75ZM8.96061 5.83464C8.48128 5.26797 7.51807 5.26797 7.03874 5.83464L5.09196 8.14274C4.81463 8.47207 4.7547 8.91859 4.93604 9.30859C5.11804 9.70059 5.50059 9.94466 5.93392 9.94466H10.0653C10.4986 9.94466 10.8813 9.70126 11.0633 9.30859C11.244 8.91859 11.1847 8.47206 10.9074 8.14339L8.96061 5.83464ZM10.1567 8.88737C10.1394 8.92537 10.1086 8.94401 10.0653 8.94401H5.93392C5.89125 8.94401 5.86061 8.9247 5.84261 8.88737C5.81794 8.83337 5.84661 8.79926 5.85661 8.78792L7.80339 6.47998C7.87072 6.40131 7.95533 6.38932 8 6.38932C8.04467 6.38932 8.12995 6.40131 8.19661 6.47998L10.1434 8.78874C10.1527 8.7994 10.1814 8.83337 10.1567 8.88737Z" fill="#3B3B3E"/>
</svg>
