<svg width="16" height="16" viewBox="0 0 16 16" fill="none" xmlns="http://www.w3.org/2000/svg">
<path d="M8.01286 15.1663C4.05952 15.1663 0.846191 11.953 0.846191 7.99967C0.846191 4.04634 4.05952 0.833008 8.01286 0.833008C11.9662 0.833008 15.1795 4.04634 15.1795 7.99967C15.1795 11.953 11.9662 15.1663 8.01286 15.1663ZM8.01286 1.83301C4.61286 1.83301 1.84619 4.59967 1.84619 7.99967C1.84619 11.3997 4.61286 14.1663 8.01286 14.1663C11.4129 14.1663 14.1795 11.3997 14.1795 7.99967C14.1795 4.59967 11.4129 1.83301 8.01286 1.83301ZM10.8328 6.66634C10.8328 5.99301 10.4795 5.49967 9.99951 5.49967C9.51951 5.49967 9.16618 5.99301 9.16618 6.66634C9.16618 7.33967 9.51951 7.83301 9.99951 7.83301C10.4795 7.83301 10.8328 7.33967 10.8328 6.66634ZM6.83284 6.66634C6.83284 5.99301 6.47951 5.49967 5.99951 5.49967C5.51951 5.49967 5.16618 5.99301 5.16618 6.66634C5.16618 7.33967 5.51951 7.83301 5.99951 7.83301C6.47951 7.83301 6.83284 7.33967 6.83284 6.66634ZM7.99951 12.4997C6.98618 12.4997 6.16618 11.6797 6.16618 10.6663C6.16618 9.65301 6.98618 8.83301 7.99951 8.83301C9.01284 8.83301 9.83284 9.65301 9.83284 10.6663C9.83284 11.6797 9.01284 12.4997 7.99951 12.4997ZM7.99951 9.83301C7.53951 9.83301 7.16618 10.2063 7.16618 10.6663C7.16618 11.1263 7.53951 11.4997 7.99951 11.4997C8.45951 11.4997 8.83284 11.1263 8.83284 10.6663C8.83284 10.2063 8.45951 9.83301 7.99951 9.83301Z" fill="#3B3B3E"/>
</svg>
