<svg width="16" height="16" viewBox="0 0 16 16" fill="none" xmlns="http://www.w3.org/2000/svg">
<path d="M14.5 4.66699V8.00033C14.5 8.27633 14.276 8.50033 14 8.50033C13.724 8.50033 13.5 8.27633 13.5 8.00033V4.66699C13.5 3.61566 13.0513 3.16699 12 3.16699H4C2.94867 3.16699 2.5 3.61566 2.5 4.66699V10.0003C2.5 11.0517 2.94867 11.5003 4 11.5003H9.33333C9.60933 11.5003 9.83333 11.7243 9.83333 12.0003C9.83333 12.2763 9.60933 12.5003 9.33333 12.5003H4C2.388 12.5003 1.5 11.6123 1.5 10.0003V4.66699C1.5 3.05499 2.388 2.16699 4 2.16699H12C13.612 2.16699 14.5 3.05499 14.5 4.66699ZM3.33333 7.33366C3.33333 7.70166 3.632 8.00033 4 8.00033C4.368 8.00033 4.66667 7.70166 4.66667 7.33366C4.66667 6.96566 4.368 6.66699 4 6.66699C3.632 6.66699 3.33333 6.96566 3.33333 7.33366ZM8 4.83366C9.37867 4.83366 10.5 5.95499 10.5 7.33366C10.5 8.71233 9.37867 9.83366 8 9.83366C6.62133 9.83366 5.5 8.71233 5.5 7.33366C5.5 5.95499 6.62133 4.83366 8 4.83366ZM8 5.83366C7.17267 5.83366 6.5 6.50633 6.5 7.33366C6.5 8.16099 7.17267 8.83366 8 8.83366C8.82733 8.83366 9.5 8.16099 9.5 7.33366C9.5 6.50633 8.82733 5.83366 8 5.83366ZM13.6466 11.647L13.1667 12.127V10.0003C13.1667 9.72433 12.9427 9.50033 12.6667 9.50033C12.3907 9.50033 12.1667 9.72433 12.1667 10.0003V12.1263L11.6867 11.6463C11.4914 11.451 11.1747 11.451 10.9793 11.6463C10.784 11.8417 10.784 12.1583 10.9793 12.3537L12.3127 13.687C12.3587 13.733 12.414 13.7697 12.4753 13.795C12.5367 13.8203 12.6013 13.8337 12.666 13.8337C12.7307 13.8337 12.796 13.8203 12.8566 13.795C12.918 13.7697 12.9733 13.733 13.0193 13.687L14.3527 12.3537C14.548 12.1583 14.548 11.8417 14.3527 11.6463C14.158 11.4517 13.842 11.4516 13.6466 11.647Z" fill="#3B3B3E"/>
</svg>
