<svg width="16" height="16" viewBox="0 0 16 16" fill="none" xmlns="http://www.w3.org/2000/svg">
<path d="M11.75 14.5H4.25C2.47667 14.5 1.5 13.5233 1.5 11.75V4.25C1.5 2.47667 2.47667 1.5 4.25 1.5H11.75C13.5233 1.5 14.5 2.47667 14.5 4.25V11.75C14.5 13.5233 13.5233 14.5 11.75 14.5ZM4.25 2.5C3.02333 2.5 2.5 3.02333 2.5 4.25V11.75C2.5 12.9767 3.02333 13.5 4.25 13.5H11.75C12.9767 13.5 13.5 12.9767 13.5 11.75V4.25C13.5 3.02333 12.9767 2.5 11.75 2.5H4.25ZM11.1667 6C11.1667 5.724 10.9427 5.5 10.6667 5.5H7.33333C7.05733 5.5 6.83333 5.724 6.83333 6C6.83333 6.276 7.05733 6.5 7.33333 6.5H10.6667C10.9427 6.5 11.1667 6.276 11.1667 6ZM11.1667 8C11.1667 7.724 10.9427 7.5 10.6667 7.5H5.33333C5.05733 7.5 4.83333 7.724 4.83333 8C4.83333 8.276 5.05733 8.5 5.33333 8.5H10.6667C10.9427 8.5 11.1667 8.276 11.1667 8ZM9.16667 10C9.16667 9.724 8.94267 9.5 8.66667 9.5H5.33333C5.05733 9.5 4.83333 9.724 4.83333 10C4.83333 10.276 5.05733 10.5 5.33333 10.5H8.66667C8.94267 10.5 9.16667 10.276 9.16667 10Z" fill="#3B3B3E"/>
</svg>
