<svg width="16" height="16" viewBox="0 0 16 16" fill="none" xmlns="http://www.w3.org/2000/svg">
<path d="M14 13.5003H13.8333V12.6669C13.8333 11.9469 13.386 11.5003 12.6667 11.5003H12.5V7.8336H12.6667C13.386 7.8336 13.8333 7.38693 13.8333 6.66693V4.96087C13.8333 4.51621 13.586 4.11625 13.188 3.91758L8.67065 1.65895C8.24999 1.44962 7.74868 1.44962 7.32935 1.65895L2.81201 3.91758C2.41401 4.11625 2.16667 4.51621 2.16667 4.96087V6.66693C2.16667 7.38693 2.614 7.8336 3.33333 7.8336H3.5V11.5003H3.33333C2.614 11.5003 2.16667 11.9469 2.16667 12.6669V13.5003H2C1.724 13.5003 1.5 13.7243 1.5 14.0003C1.5 14.2763 1.724 14.5003 2 14.5003H14C14.276 14.5003 14.5 14.2763 14.5 14.0003C14.5 13.7243 14.276 13.5003 14 13.5003ZM11.5 11.5003H9.83333V7.8336H11.5V11.5003ZM7.16667 11.5003V7.8336H8.83333V11.5003H7.16667ZM3.18937 6.81553C3.18871 6.81553 3.18871 6.81553 3.18937 6.81553C3.18604 6.8102 3.16667 6.77093 3.16667 6.66693V4.96087C3.16667 4.89754 3.20196 4.84029 3.25863 4.81162L7.77596 2.553C7.91796 2.48233 8.08204 2.48233 8.22404 2.553L12.7414 4.81162C12.798 4.83962 12.8333 4.89687 12.8333 4.96087V6.66693C12.8333 6.77093 12.814 6.80962 12.8153 6.81162C12.81 6.81429 12.7707 6.8336 12.6667 6.8336H3.33333C3.23267 6.8336 3.19271 6.81553 3.18937 6.81553ZM4.5 7.8336H6.16667V11.5003H4.5V7.8336ZM3.16667 12.6669C3.16667 12.5629 3.18599 12.5242 3.18465 12.5222C3.18999 12.5196 3.22933 12.5003 3.33333 12.5003H12.6667C12.788 12.5003 12.812 12.5183 12.8114 12.5183C12.814 12.5243 12.8333 12.5629 12.8333 12.6669V13.5003H3.16667V12.6669ZM7.16667 4.66693C7.16667 4.20693 7.54 3.8336 8 3.8336C8.46 3.8336 8.83333 4.20693 8.83333 4.66693C8.83333 5.12693 8.46 5.50026 8 5.50026C7.54 5.50026 7.16667 5.12693 7.16667 4.66693Z" fill="#3B3B3E"/>
</svg>
