<svg width="16" height="16" viewBox="0 0 16 16" fill="none" xmlns="http://www.w3.org/2000/svg">
<path d="M11.3332 13.8337H4.6665C3.0545 13.8337 2.1665 12.9457 2.1665 11.3337V4.66699C2.1665 3.05499 3.0545 2.16699 4.6665 2.16699H11.3332C12.9452 2.16699 13.8332 3.05499 13.8332 4.66699V11.3337C13.8332 12.9457 12.9452 13.8337 11.3332 13.8337ZM4.6665 3.16699C3.61517 3.16699 3.1665 3.61566 3.1665 4.66699V11.3337C3.1665 12.385 3.61517 12.8337 4.6665 12.8337H11.3332C12.3845 12.8337 12.8332 12.385 12.8332 11.3337V4.66699C12.8332 3.61566 12.3845 3.16699 11.3332 3.16699H4.6665Z" fill="#3B3B3E"/>
</svg>
