<svg width="16" height="16" viewBox="0 0 16 16" fill="none" xmlns="http://www.w3.org/2000/svg">
<path d="M10.3867 4.49334H11.3334C11.6067 4.49334 11.8334 4.26667 11.8334 3.99334V2.14667C11.8334 1.9 11.66 1.69333 11.42 1.65333C11.3867 1.65333 10.5067 1.5 9.65337 1.5C7.59337 1.5 6.31337 2.81334 6.31337 4.92V6.07333H5.33337C5.06004 6.07333 4.83337 6.3 4.83337 6.57333V8.74666C4.83337 9.02 5.06004 9.24666 5.33337 9.24666H6.31337V13.9933C6.31337 14.2667 6.54004 14.4933 6.81337 14.4933H9.16004C9.43338 14.4933 9.66004 14.2667 9.66004 13.9933V9.24666H10.9134C11.16 9.24666 11.3734 9.06666 11.4067 8.82L11.74 6.64667C11.76 6.5 11.72 6.35333 11.6267 6.24666C11.5334 6.14 11.3934 6.07333 11.2467 6.07333H9.66004V5.16667C9.66004 4.69333 9.88004 4.49334 10.3867 4.49334V4.49334ZM9.16004 7.07333H10.66L10.48 8.24666H9.16004C8.88671 8.24666 8.66004 8.47333 8.66004 8.74666V13.4933H7.31337V8.74666C7.31337 8.47333 7.08671 8.24666 6.81337 8.24666H5.83337V7.07333H6.81337C7.08671 7.07333 7.31337 6.84667 7.31337 6.57333V4.92C7.31337 3.38 8.1667 2.5 9.65337 2.5C10.08 2.5 10.5267 2.54 10.8334 2.58V3.49334H10.3867C9.32004 3.49334 8.66004 4.13333 8.66004 5.16667V6.57333C8.66004 6.84667 8.88671 7.07333 9.16004 7.07333V7.07333Z" fill="#3B3B3E"/>
</svg>
