<svg width="16" height="16" viewBox="0 0 16 16" fill="none" xmlns="http://www.w3.org/2000/svg">
<path d="M9.83333 7.33333C9.83333 7.60933 9.60933 7.83333 9.33333 7.83333H6.66667C6.39067 7.83333 6.16667 7.60933 6.16667 7.33333C6.16667 7.05733 6.39067 6.83333 6.66667 6.83333H9.33333C9.60933 6.83333 9.83333 7.05733 9.83333 7.33333ZM13.1667 5.16667V7.56201C13.1667 8.39535 12.8286 9.21129 12.2386 9.80062L9.97933 12.0601C9.886 12.1534 9.83268 12.2821 9.83268 12.4134V14C9.83268 14.276 9.60868 14.5 9.33268 14.5H6.66602C6.39002 14.5 6.16602 14.276 6.16602 14V12.4141C6.16602 12.2827 6.1127 12.1534 6.01937 12.0607L3.75993 9.80127C3.16993 9.21194 2.83203 8.396 2.83203 7.56266V5.16732C2.83203 4.61598 3.2807 4.16732 3.83203 4.16732H5.16536V2C5.16536 1.724 5.38936 1.5 5.66536 1.5C5.94136 1.5 6.16536 1.724 6.16536 2V4.16667H9.83203V2C9.83203 1.724 10.056 1.5 10.332 1.5C10.608 1.5 10.832 1.724 10.832 2V4.16667H12.1654C12.718 4.16667 13.1667 4.61533 13.1667 5.16667ZM12.1667 5.16667H3.83333V7.56201C3.83333 8.13201 4.0646 8.69074 4.46794 9.09408L6.72738 11.3534C7.00671 11.6327 7.16667 12.0194 7.16667 12.4141V13.5H8.83333V12.4141C8.83333 12.0194 8.99329 11.6327 9.27262 11.3534L11.5321 9.09408C11.9354 8.69074 12.1667 8.13201 12.1667 7.56201V5.16667V5.16667Z" fill="#3B3B3E"/>
</svg>
