<svg width="16" height="16" viewBox="0 0 16 16" fill="none" xmlns="http://www.w3.org/2000/svg">
<path d="M14.4613 8.191C14.436 8.25233 14.3994 8.30759 14.3534 8.35359L12.3534 10.3536C12.2561 10.4509 12.1281 10.5002 12.0001 10.5002C11.8721 10.5002 11.7441 10.4516 11.6467 10.3536C11.4514 10.1583 11.4514 9.84157 11.6467 9.64624L12.7934 8.49959H8.50073V12.7922L9.64738 11.6456C9.84271 11.4503 10.1594 11.4503 10.3547 11.6456C10.5501 11.8409 10.5501 12.1576 10.3547 12.3529L8.35473 14.3529C8.30873 14.3989 8.25345 14.4355 8.19279 14.4609C8.13212 14.4862 8.06671 14.4996 8.00138 14.4996C7.93605 14.4996 7.87147 14.4862 7.81014 14.4609C7.7488 14.4355 7.69403 14.3989 7.64803 14.3529L5.64803 12.3529C5.45269 12.1576 5.45269 11.8409 5.64803 11.6456C5.84336 11.4503 6.16005 11.4503 6.35538 11.6456L7.50203 12.7922V8.49959H3.20939L4.35603 9.64624C4.55137 9.84157 4.55137 10.1583 4.35603 10.3536C4.2587 10.4509 4.13068 10.5002 4.00268 10.5002C3.87468 10.5002 3.74682 10.4516 3.64949 10.3536L1.64949 8.35359C1.60349 8.30759 1.56675 8.25233 1.54142 8.191C1.49075 8.069 1.49075 7.931 1.54142 7.809C1.56675 7.74766 1.60349 7.69224 1.64949 7.64624L3.64949 5.64624C3.84482 5.4509 4.16135 5.4509 4.35669 5.64624C4.55202 5.84157 4.55202 6.15826 4.35669 6.35359L3.21004 7.50024H7.50268V3.2076L6.35603 4.35424C6.1607 4.54958 5.84401 4.54958 5.64868 4.35424C5.45334 4.15891 5.45334 3.84222 5.64868 3.64689L7.64868 1.64689C7.69468 1.60089 7.7501 1.56431 7.81144 1.53898C7.93344 1.48831 8.07144 1.48831 8.19344 1.53898C8.25477 1.56431 8.31003 1.60089 8.35603 1.64689L10.356 3.64689C10.5514 3.84222 10.5514 4.15891 10.356 4.35424C10.2587 4.45158 10.1307 4.50089 10.0027 4.50089C9.87468 4.50089 9.74682 4.45224 9.64949 4.35424L8.50268 3.2076V7.50024H12.7955L11.6487 6.35359C11.4533 6.15826 11.4533 5.84157 11.6487 5.64624C11.844 5.4509 12.1607 5.4509 12.356 5.64624L14.356 7.64624C14.402 7.69224 14.4388 7.74766 14.4641 7.809C14.5121 7.931 14.512 8.06833 14.4613 8.191Z" fill="#3B3B3E"/>
</svg>
