<svg width="16" height="16" viewBox="0 0 16 16" fill="none" xmlns="http://www.w3.org/2000/svg">
<path d="M13.3333 2.66613C12.3467 1.67946 10.9533 1.28613 9.59999 1.60613C8.24665 1.92613 7.17333 2.90612 6.73333 4.22612L5.92 6.6728C5.77333 7.1128 5.75332 7.5728 5.85332 8.00613L4.12666 9.7328C4.05333 9.79946 3.95999 9.81946 3.89332 9.79279C3.22666 9.47279 2.29333 9.70612 1.83333 10.3461C1.50666 10.7928 1.41999 11.3661 1.59999 11.9128C1.80666 12.5261 2.32665 12.9461 2.97332 13.0328C3.03332 13.4728 3.26666 13.8728 3.62666 14.1461C3.92666 14.3728 4.28665 14.4928 4.65999 14.4928C4.81332 14.4928 4.97333 14.4728 5.12666 14.4261C5.65333 14.2795 6.09334 13.8728 6.26 13.3595C6.4 12.9595 6.39332 12.5395 6.23998 12.1395C6.20665 12.0595 6.19999 11.9461 6.26665 11.8728L8.00667 10.1395C8.18 10.1795 8.35332 10.1995 8.53332 10.1995C8.79998 10.1995 9.06666 10.1595 9.33333 10.0661L11.78 9.2528C13.1 8.8128 14.08 7.73945 14.4 6.38612C14.72 5.03278 14.32 3.63947 13.34 2.6528L13.3333 2.66613ZM5.54666 11.1861C5.20666 11.5328 5.11333 12.0595 5.3 12.5195C5.36667 12.6928 5.36667 12.8661 5.3 13.0461C5.23333 13.2461 5.05999 13.4128 4.85332 13.4661C4.54666 13.5528 4.32665 13.4328 4.21998 13.3528C4.04665 13.2195 3.94667 13.0195 3.94667 12.7995C3.94667 12.3861 3.61332 12.0528 3.20666 12.0528C2.88666 12.0528 2.63332 11.8861 2.53999 11.6061C2.43332 11.2795 2.55333 11.0461 2.63333 10.9395C2.82667 10.6795 3.15333 10.5595 3.47999 10.7128C3.93333 10.8995 4.46 10.7995 4.82 10.4528L6.29333 8.97946C6.35999 9.07279 6.43999 9.15945 6.51999 9.23945L6.76665 9.48613C6.85332 9.5728 6.94666 9.63946 7.03999 9.70612L5.55332 11.1928L5.54666 11.1861ZM13.42 6.1728C13.18 7.18613 12.4467 7.9928 11.46 8.31947L9.01332 9.1328C8.46665 9.3128 7.87999 9.17279 7.47999 8.77279L7.23333 8.52613C6.82666 8.11946 6.69332 7.53279 6.87332 6.99279L7.68666 4.54613C8.01332 3.55946 8.81999 2.82613 9.83333 2.58613C10.0667 2.5328 10.3 2.50613 10.5267 2.50613C11.3067 2.50613 12.06 2.8128 12.6267 3.37946C13.3667 4.11946 13.66 5.15945 13.42 6.17945V6.1728Z" fill="#3B3B3E"/>
</svg>
