<svg width="16" height="16" viewBox="0 0 16 16" fill="none" xmlns="http://www.w3.org/2000/svg">
<path d="M13.6866 5.64667L9.68661 1.64667C9.59261 1.55267 9.46592 1.5 9.33325 1.5H5.33325C3.72125 1.5 2.83325 2.388 2.83325 4V12C2.83325 13.612 3.72125 14.5 5.33325 14.5H11.3333C12.9453 14.5 13.8333 13.612 13.8333 12V6C13.8333 5.86733 13.7806 5.74 13.6866 5.64667ZM9.83325 3.20734L12.1259 5.5H11.3333C10.2819 5.5 9.83325 5.05133 9.83325 4V3.20734ZM11.3333 13.5H5.33325C4.28192 13.5 3.83325 13.0513 3.83325 12V4C3.83325 2.94867 4.28192 2.5 5.33325 2.5H8.83325V4C8.83325 5.612 9.72125 6.5 11.3333 6.5H12.8333V12C12.8333 13.0513 12.3846 13.5 11.3333 13.5ZM10.5619 7.79533C10.4219 7.56266 10.1246 7.48266 9.88794 7.61466L9.81063 7.65733C9.7133 7.712 9.594 7.71133 9.49666 7.65667C9.40666 7.60667 9.35132 7.51534 9.35132 7.42C9.35132 7.09667 9.08731 6.83266 8.76131 6.83266H7.87199C7.54666 6.83266 7.28198 7.09667 7.28198 7.42C7.28198 7.51667 7.22662 7.60666 7.13729 7.65733C7.03929 7.71266 6.91851 7.712 6.82251 7.65733C6.54651 7.50266 6.18725 7.59666 6.02791 7.86866L5.58 8.61933C5.512 8.73533 5.48395 8.938 5.51929 9.068C5.55995 9.21934 5.6619 9.35 5.79924 9.42667C5.88857 9.47733 5.94458 9.56867 5.94458 9.66533C5.94525 9.762 5.88928 9.85333 5.79728 9.90466C5.65995 9.98266 5.55864 10.114 5.51864 10.266C5.48397 10.3953 5.51328 10.598 5.58195 10.7133L6.02856 11.4633C6.19256 11.7373 6.54066 11.8293 6.82332 11.6733C6.91999 11.6193 7.03932 11.6187 7.13599 11.6733C7.13665 11.6733 7.13664 11.6733 7.13664 11.6733C7.22597 11.724 7.28133 11.814 7.28133 11.9107C7.28133 12.2347 7.54518 12.498 7.87118 12.498H8.76196C9.08663 12.498 9.35132 12.234 9.35132 11.9107C9.35132 11.8147 9.40665 11.724 9.49731 11.6733C9.59331 11.6193 9.7133 11.6187 9.81063 11.6733C10.0913 11.83 10.4385 11.7387 10.6059 11.462L11.0499 10.716C11.1199 10.6 11.1493 10.3967 11.1153 10.266C11.0753 10.1133 10.9732 9.98134 10.8352 9.904C10.8325 9.90267 10.8299 9.90134 10.8272 9.9C10.7419 9.84867 10.6886 9.75933 10.6886 9.666C10.6886 9.56866 10.7446 9.47667 10.8339 9.42601L10.9112 9.38267C11.0285 9.31667 11.1147 9.206 11.1493 9.07534C11.184 8.94534 11.1646 8.80666 11.0959 8.69066L10.5619 7.79533ZM10.0113 10.5087L9.91919 10.662C9.61319 10.6 9.28527 10.6473 9.00594 10.804C8.72861 10.9607 8.52262 11.2107 8.42196 11.5H8.21265C8.11198 11.2107 7.90666 10.9607 7.62866 10.804C7.34933 10.6467 7.02192 10.5987 6.71525 10.6613L6.62394 10.5087C6.82928 10.2773 6.94656 9.978 6.94523 9.66333C6.94456 9.35133 6.82662 9.05467 6.62329 8.82534L6.71525 8.67134C7.02392 8.734 7.34998 8.686 7.62931 8.52934C7.90665 8.37267 8.11198 8.12333 8.21265 7.83333H8.42196C8.52262 8.12267 8.72796 8.37267 9.00529 8.52867C9.28462 8.68667 9.61051 8.73467 9.91984 8.67134L10.0113 8.82467C9.80665 9.05533 9.68921 9.354 9.68921 9.66867C9.68921 9.98134 9.80731 10.2787 10.0113 10.5087ZM9.01327 9.66667C9.01327 10.0347 8.71527 10.3333 8.3466 10.3333C7.9786 10.3333 7.67651 10.0347 7.67651 9.66667C7.67651 9.29867 7.97193 9 8.33993 9H8.3466C8.7146 9 9.01327 9.29867 9.01327 9.66667Z" fill="#3B3B3E"/>
</svg>
