<svg width="16" height="16" viewBox="0 0 16 16" fill="none" xmlns="http://www.w3.org/2000/svg">
<path d="M10.5865 6.75018L7.12394 3.83026C6.70594 3.47759 6.13851 3.40086 5.64185 3.63153C5.14318 3.86353 4.83325 4.35021 4.83325 4.90155V11.0995C4.83325 11.6515 5.14318 12.1382 5.64185 12.3695C5.83185 12.4575 6.03253 12.5008 6.2312 12.5008C6.55053 12.5008 6.86594 12.3889 7.12394 12.1709L10.5865 9.25083C10.9552 8.9395 11.1666 8.48417 11.1666 8.00083C11.1666 7.5175 10.9552 7.06085 10.5865 6.75018ZM9.94198 8.48618L6.47925 11.4061C6.30658 11.5514 6.1319 11.4936 6.06323 11.4623C6.00923 11.4369 5.83325 11.3368 5.83325 11.0988V4.9009C5.83325 4.6629 6.00923 4.56279 6.06323 4.53745C6.0979 4.52212 6.15932 4.49953 6.23332 4.49953C6.30665 4.49953 6.39325 4.52159 6.47925 4.59426L9.94198 7.51418C10.0846 7.63484 10.1666 7.81218 10.1666 8.00018C10.1666 8.18818 10.0846 8.36552 9.94198 8.48618Z" fill="#3B3B3E"/>
</svg>
