<svg width="16" height="16" viewBox="0 0 16 16" fill="none" xmlns="http://www.w3.org/2000/svg">
<path d="M14.3331 8.96046C14.2265 8.86712 14.0865 8.82046 13.9465 8.83379L10.7131 9.16046L9.87981 6.93378L12.7465 6.67378C13.0065 6.65378 13.2398 6.50712 13.3798 6.28712C13.5198 6.06712 13.5465 5.80713 13.4598 5.56713C12.4998 2.91379 9.86646 1.26045 7.05313 1.52712C4.05313 1.81378 1.66648 4.30712 1.50648 7.32045C1.39981 9.22045 2.1598 11.0338 3.5798 12.2871C3.73313 12.4205 3.93313 12.4938 4.1398 12.4938H5.38646C5.98646 12.4938 6.52647 12.8271 6.79314 13.3605C6.93314 13.6405 7.2198 13.8205 7.53313 13.8205H9.4998C9.77314 13.8205 10.0331 13.6871 10.1865 13.4538C10.3398 13.2271 10.3731 12.9338 10.2731 12.6738L9.31981 10.2871L10.0465 10.2138L11.0398 12.8605C11.4065 13.8338 12.3465 14.4805 13.3798 14.4805H13.9931C14.2665 14.4805 14.4931 14.2538 14.4931 13.9805V9.31379C14.4931 9.17379 14.4331 9.04046 14.3265 8.94046L14.3331 8.96046ZM7.6398 12.8271C7.18646 12.0071 6.33313 11.5005 5.38646 11.5005H4.1998C3.0398 10.4471 2.41981 8.94712 2.50648 7.37379C2.64648 4.85379 4.63981 2.76712 7.15314 2.52045C9.43314 2.30045 11.5731 3.60045 12.4398 5.69378L8.6198 6.04045C8.14646 6.08712 7.72647 6.34046 7.4798 6.75379C7.23314 7.16046 7.18646 7.64712 7.36646 8.09379L9.25981 12.8271H7.6398V12.8271ZM8.93981 9.33379L8.29314 7.72046C8.23314 7.57379 8.24647 7.40712 8.33314 7.27379C8.4198 7.14046 8.55314 7.05379 8.71314 7.04045L8.85314 7.02712L9.69314 9.26046L8.94648 9.33379H8.93981ZM13.4998 9.88046V10.8738L11.4398 11.0805L11.0798 10.1271L13.4998 9.88712V9.88046ZM13.3865 13.4938C12.7665 13.4938 12.1998 13.1005 11.9798 12.5205L11.7998 12.0471L13.4931 11.8805V13.4938H13.3798H13.3865ZM6.6798 9.99379C6.6798 10.3605 6.3798 10.6605 6.01313 10.6605C5.64646 10.6605 5.34646 10.3605 5.34646 9.99379C5.34646 9.62713 5.63981 9.32713 6.00648 9.32713H6.01313C6.3798 9.32713 6.6798 9.62713 6.6798 9.99379Z" fill="#3B3B3E"/>
</svg>
