<svg width="16" height="16" viewBox="0 0 16 16" fill="none" xmlns="http://www.w3.org/2000/svg">
<path d="M15.128 9.52474C15.1027 9.58607 15.0661 9.64134 15.0201 9.68734L12.3534 12.354C12.2561 12.4513 12.1281 12.5007 12.0001 12.5007C11.8721 12.5007 11.7441 12.452 11.6467 12.354C11.4514 12.1587 11.4514 11.842 11.6467 11.6466L13.46 9.83333H4.66675C3.28875 9.83333 2.16675 8.712 2.16675 7.33333V4C2.16675 3.724 2.39075 3.5 2.66675 3.5C2.94275 3.5 3.16675 3.724 3.16675 4V7.33333C3.16675 8.16067 3.84008 8.83333 4.66675 8.83333H13.4594L11.6461 7.02002C11.4507 6.82469 11.4507 6.508 11.6461 6.31266C11.8414 6.11733 12.1581 6.11733 12.3534 6.31266L15.0201 8.97933C15.0661 9.02533 15.1027 9.08059 15.128 9.14193C15.1787 9.26459 15.1787 9.40207 15.128 9.52474Z" fill="#3B3B3E"/>
</svg>
