<svg width="16" height="16" viewBox="0 0 16 16" fill="none" xmlns="http://www.w3.org/2000/svg">
<path d="M7.99998 0.833008C4.04798 0.833008 0.833313 4.04834 0.833313 7.99967C0.833313 11.951 4.04798 15.1663 7.99998 15.1663C11.952 15.1663 15.1666 11.951 15.1666 7.99967C15.1666 4.04834 11.952 0.833008 7.99998 0.833008ZM7.99998 14.1663C4.59931 14.1663 1.83331 11.4003 1.83331 7.99967C1.83331 4.59901 4.59931 1.83301 7.99998 1.83301C11.4006 1.83301 14.1666 4.59901 14.1666 7.99967C14.1666 11.4003 11.4006 14.1663 7.99998 14.1663ZM10.6866 6.09033C10.882 6.28567 10.882 6.60236 10.6866 6.79769L7.57532 9.90902C7.47798 10.0063 7.34998 10.0557 7.22198 10.0557C7.09398 10.0557 6.96599 10.007 6.86865 9.90902L5.31331 8.35368C5.11798 8.15834 5.11798 7.84165 5.31331 7.64632C5.50865 7.45099 5.82532 7.45099 6.02065 7.64632L7.22266 8.84835L9.97998 6.09102C10.1753 5.89569 10.4913 5.89567 10.6866 6.09033Z" fill="#3B3B3E"/>
</svg>
