<svg width="16" height="16" viewBox="0 0 16 16" fill="none" xmlns="http://www.w3.org/2000/svg">
<path d="M8 15.1667C7.48733 15.1667 7.01803 14.9313 6.71069 14.522L5.71134 13.1887C5.59601 13.036 5.41334 12.9447 5.22201 12.9447H4.22201C2.46667 12.9447 1.5 11.978 1.5 10.2227V3.55599C1.5 1.80066 2.46667 0.833984 4.22201 0.833984H11.778C13.5333 0.833984 14.5 1.80066 14.5 3.55599V10.2227C14.5 11.978 13.5333 12.9447 11.778 12.9447H10.778C10.5867 12.9447 10.4033 13.036 10.2887 13.1893L9.28866 14.522C8.98199 14.9313 8.51267 15.1667 8 15.1667ZM4.22201 1.83333C3.01467 1.83333 2.5 2.34801 2.5 3.55534V10.222C2.5 11.4293 3.01467 11.944 4.22201 11.944H5.22201C5.72601 11.944 6.20798 12.1847 6.51131 12.588L7.51131 13.922C7.74465 14.2327 8.25669 14.2327 8.48869 13.922L9.48934 12.5887C9.79267 12.1853 10.2746 11.944 10.7786 11.944H11.7786C12.986 11.944 13.5007 11.4287 13.5007 10.222V3.55534C13.5007 2.34801 12.986 1.83333 11.7786 1.83333H4.22201ZM8.00732 10.8333C7.93666 10.8333 7.86597 10.8187 7.79997 10.7887C7.67997 10.734 4.85733 9.42467 4.39933 7.06401C4.21533 6.11401 4.39797 5.21735 4.90063 4.60535C5.31197 4.10401 5.89935 3.83732 6.60002 3.83398C6.60402 3.83398 6.60734 3.83398 6.61068 3.83398C7.26468 3.83398 7.71332 4.13068 8.00732 4.45068C8.30066 4.13068 8.7493 3.83398 9.40397 3.83398C9.4073 3.83398 9.41063 3.83398 9.41463 3.83398C10.116 3.83732 10.7046 4.10401 11.1153 4.60535C11.618 5.21735 11.8 6.11401 11.6153 7.06401C11.1573 9.42467 8.33468 10.734 8.21468 10.7887C8.14868 10.8187 8.07799 10.8333 8.00732 10.8333ZM6.61003 4.83333C6.60803 4.83333 6.60664 4.83333 6.60531 4.83333C6.20597 4.83533 5.89332 4.97198 5.67399 5.23865C5.36532 5.61465 5.256 6.22535 5.382 6.87268C5.68 8.41068 7.40399 9.452 8.00732 9.77266C8.60932 9.45 10.3366 8.40401 10.6333 6.87268C10.7586 6.22535 10.65 5.61465 10.342 5.23865C10.1226 4.97131 9.80868 4.83533 9.40934 4.83333C9.40801 4.83333 9.40604 4.83333 9.4047 4.83333C8.7407 4.83333 8.4913 5.52067 8.48063 5.55001C8.40997 5.75134 8.23599 5.89132 8.00399 5.88599C7.78999 5.88399 7.60063 5.74865 7.53263 5.54598C7.5233 5.52065 7.27403 4.83333 6.61003 4.83333Z" fill="#3B3B3E"/>
</svg>
