<svg width="16" height="16" viewBox="0 0 16 16" fill="none" xmlns="http://www.w3.org/2000/svg">
<g clip-path="url(#clip0_36251_9016)">
<path d="M8.00016 0.833008C4.04683 0.833008 0.833496 4.04634 0.833496 7.99967C0.833496 11.953 4.04683 15.1663 8.00016 15.1663C11.9535 15.1663 15.1668 11.953 15.1668 7.99967C15.1668 4.04634 11.9535 0.833008 8.00016 0.833008ZM8.00016 14.1663C7.4135 14.1663 6.84017 14.0797 6.30017 13.9264C6.5335 13.513 6.78681 13.0063 6.90015 12.573C6.98015 12.2663 7.31348 10.9997 7.31348 10.9997C7.52681 11.413 8.16016 11.7597 8.8335 11.7597C10.8335 11.7597 12.2735 9.91967 12.2735 7.63301C12.2735 5.34634 10.4868 3.79967 8.18685 3.79967C5.32018 3.79967 3.80017 5.71967 3.80017 7.81301C3.80017 8.78634 4.32014 9.99968 5.14681 10.3863C5.27348 10.4463 5.34015 10.4197 5.36682 10.2997C5.38682 10.2063 5.50017 9.75301 5.55351 9.54635C5.57351 9.47968 5.5535 9.40634 5.50684 9.35301C5.2335 9.01967 5.01351 8.413 5.01351 7.83967C5.01351 6.373 6.12017 4.95968 8.00684 4.95968C9.64017 4.95968 10.7802 6.07301 10.7802 7.65968C10.7802 9.45301 9.87348 10.6997 8.69348 10.6997C8.04681 10.6997 7.5535 10.1597 7.7135 9.49967C7.90017 8.71301 8.26017 7.85968 8.26017 7.29301C8.26017 6.77968 7.98683 6.35301 7.42017 6.35301C6.7535 6.35301 6.22017 7.04634 6.22017 7.96634C6.22017 8.55301 6.42017 8.953 6.42017 8.953C6.42017 8.953 5.76018 11.733 5.64018 12.253C5.54018 12.673 5.54683 13.2063 5.58016 13.673C3.38016 12.733 1.8335 10.5463 1.8335 7.99967C1.8335 4.59967 4.60016 1.83301 8.00016 1.83301C11.4002 1.83301 14.1668 4.59967 14.1668 7.99967C14.1668 11.3997 11.4002 14.1663 8.00016 14.1663V14.1663Z" fill="#3B3B3E"/>
</g>
<defs>
<clipPath id="clip0_36251_9016">
<rect width="16" height="16" fill="white"/>
</clipPath>
</defs>
</svg>
