<svg width="16" height="16" viewBox="0 0 16 16" fill="none" xmlns="http://www.w3.org/2000/svg">
<path d="M13.4068 4.62699C12.9468 4.62699 12.6668 5.107 12.5135 5.78033C12.1202 4.87367 11.4868 4.29366 10.7402 4.29366C9.85351 4.29366 9.12684 5.10699 8.78017 6.32699C8.16017 5.05365 6.84684 4.16699 5.34017 4.16699C3.22684 4.16699 1.50684 5.88699 1.50684 8.00033C1.50684 10.1137 3.22684 11.8337 5.34017 11.8337C6.8535 11.8337 8.16017 10.9537 8.78017 9.67367C9.1335 10.8937 9.85351 11.707 10.7402 11.707C11.4868 11.707 12.1202 11.127 12.5135 10.2203C12.6735 10.8936 12.9468 11.3737 13.4068 11.3737C14.3135 11.3737 14.5002 9.54033 14.5002 8.00033C14.5002 6.46033 14.3068 4.62699 13.4068 4.62699ZM5.33351 10.8337C3.77351 10.8337 2.50017 9.56033 2.50017 8.00033C2.50017 6.44033 3.77351 5.16699 5.33351 5.16699C6.89351 5.16699 8.16684 6.44033 8.16684 8.00033C8.16684 9.56033 6.89351 10.8337 5.33351 10.8337ZM10.7402 10.707C10.1802 10.707 9.54684 9.54699 9.54684 8.00033C9.54684 6.45366 10.1735 5.29366 10.7402 5.29366C11.3068 5.29366 11.9335 6.45366 11.9335 8.00033C11.9335 9.54699 11.3068 10.707 10.7402 10.707ZM13.4068 9.52032C13.3535 9.12032 13.3135 8.61366 13.3135 8.00033C13.3135 7.38699 13.3535 6.87366 13.4068 6.48033C13.4602 6.88033 13.5002 7.38699 13.5002 8.00033C13.5002 8.61366 13.4602 9.12699 13.4068 9.52032Z" fill="#3B3B3E"/>
</svg>
