<svg width="16" height="16" viewBox="0 0 16 16" fill="none" xmlns="http://www.w3.org/2000/svg">
<path d="M14.5 5.31869C14.5 4.29868 14.1027 3.33999 13.3814 2.61865C12.6601 1.89732 11.7014 1.5 10.6814 1.5C9.66136 1.5 8.70207 1.89732 7.9814 2.61865L2.61804 7.98193C1.89671 8.70327 1.49939 9.66197 1.49939 10.682C1.49939 11.702 1.89671 12.6607 2.61804 13.382C3.33871 14.1033 4.29807 14.5007 5.31807 14.5007C6.33807 14.5007 7.29736 14.1033 8.01803 13.382L10.692 10.708C10.6987 10.702 10.7067 10.7 10.7133 10.694C10.72 10.688 10.7213 10.6794 10.7273 10.6727L13.3814 8.01872C14.1027 7.29738 14.5 6.33802 14.5 5.31869ZM7.3114 12.6746C6.77873 13.2066 6.07139 13.5 5.31873 13.5C4.56606 13.5 3.85872 13.2066 3.32605 12.6746C2.79338 12.142 2.50069 11.4346 2.50069 10.682C2.50069 9.9293 2.79338 9.22196 3.32605 8.68929L5.66402 6.3514L9.65002 10.3366L7.3114 12.6746ZM10.3567 9.62939L6.37073 5.64404L8.68868 3.32601C9.22135 2.79401 9.92869 2.50065 10.6814 2.50065C11.434 2.50065 12.1414 2.79401 12.674 3.32601C13.2067 3.85868 13.4994 4.56602 13.4994 5.31869C13.4994 6.07135 13.2067 6.77869 12.674 7.31136L10.3567 9.62939ZM5.41606 8.17871C5.61139 8.37404 5.61139 8.69073 5.41606 8.88607L4.90938 9.39274C4.46938 9.83341 4.25204 10.442 4.3127 11.0633C4.34004 11.3386 4.13872 11.5827 3.86405 11.61C3.84805 11.6114 3.83074 11.612 3.81474 11.612C3.56074 11.612 3.34341 11.4193 3.31807 11.1613C3.22674 10.2406 3.54936 9.33805 4.20203 8.68538L4.7087 8.17871C4.90403 7.98338 5.22072 7.98338 5.41606 8.17871Z" fill="#3B3B3E"/>
</svg>
