<svg width="16" height="16" viewBox="0 0 16 16" fill="none" xmlns="http://www.w3.org/2000/svg">
<path d="M11.4867 6C12.1 5.54667 12.5 4.82 12.5 4C12.5 2.62 11.38 1.5 10 1.5H6C4.62 1.5 3.5 2.62 3.5 4C3.5 4.82 3.90001 5.54667 4.51335 6C3.90001 6.45333 3.5 7.18 3.5 8C3.5 8.82 3.90001 9.54667 4.51335 10C3.90001 10.4533 3.5 11.18 3.5 12C3.5 13.38 4.62 14.5 6 14.5C7.38 14.5 8.5 13.38 8.5 12V9.98666C8.92 10.3067 9.43333 10.5 10 10.5C11.38 10.5 12.5 9.38 12.5 8C12.5 7.18 12.1 6.45333 11.4867 6ZM11.5 4C11.5 4.82667 10.8267 5.5 10 5.5H8.5V2.5H10C10.8267 2.5 11.5 3.17333 11.5 4ZM4.5 4C4.5 3.17333 5.17333 2.5 6 2.5H7.5V5.5H6C5.17333 5.5 4.5 4.82667 4.5 4ZM4.5 8C4.5 7.17333 5.17333 6.5 6 6.5H7.5V9.5H6C5.17333 9.5 4.5 8.82667 4.5 8ZM7.5 12C7.5 12.8267 6.82667 13.5 6 13.5C5.17333 13.5 4.5 12.8267 4.5 12C4.5 11.1733 5.17333 10.5 6 10.5H7.5V12ZM10 9.5C9.17333 9.5 8.5 8.82667 8.5 8C8.5 7.17333 9.17333 6.5 10 6.5C10.8267 6.5 11.5 7.17333 11.5 8C11.5 8.82667 10.8267 9.5 10 9.5Z" fill="#3B3B3E"/>
</svg>
