<svg width="16" height="16" viewBox="0 0 16 16" fill="none" xmlns="http://www.w3.org/2000/svg">
<path d="M12 1.5H4C2.388 1.5 1.5 2.388 1.5 4V12C1.5 13.612 2.388 14.5 4 14.5H12C13.612 14.5 14.5 13.612 14.5 12V4C14.5 2.388 13.612 1.5 12 1.5ZM13.5 4V7.5H8.5V2.5H12C13.0513 2.5 13.5 2.94867 13.5 4ZM4 2.5H7.5V7.5H2.5V4C2.5 2.94867 2.94867 2.5 4 2.5ZM2.5 12V8.5H7.5V13.5H4C2.94867 13.5 2.5 13.0513 2.5 12ZM12 13.5H8.5V8.5H13.5V12C13.5 13.0513 13.0513 13.5 12 13.5ZM12.5 10.1667C12.5 10.4427 12.276 10.6667 12 10.6667H10C9.724 10.6667 9.5 10.4427 9.5 10.1667C9.5 9.89067 9.724 9.66667 10 9.66667H12C12.276 9.66667 12.5 9.89067 12.5 10.1667ZM3.5 5C3.5 4.724 3.724 4.5 4 4.5H6C6.276 4.5 6.5 4.724 6.5 5C6.5 5.276 6.276 5.5 6 5.5H4C3.724 5.5 3.5 5.276 3.5 5ZM9.5 5C9.5 4.724 9.724 4.5 10 4.5H10.5V4C10.5 3.724 10.724 3.5 11 3.5C11.276 3.5 11.5 3.724 11.5 4V4.5H12C12.276 4.5 12.5 4.724 12.5 5C12.5 5.276 12.276 5.5 12 5.5H11.5V6C11.5 6.276 11.276 6.5 11 6.5C10.724 6.5 10.5 6.276 10.5 6V5.5H10C9.724 5.5 9.5 5.276 9.5 5ZM6.18667 11.48C6.382 11.6753 6.382 11.992 6.18667 12.1873C6.08933 12.2847 5.96133 12.334 5.83333 12.334C5.70533 12.334 5.57733 12.2853 5.48 12.1873L5 11.7074L4.52 12.1873C4.42267 12.2847 4.29467 12.334 4.16667 12.334C4.03867 12.334 3.91067 12.2853 3.81333 12.1873C3.618 11.992 3.618 11.6753 3.81333 11.48L4.29334 11L3.81333 10.52C3.618 10.3247 3.618 10.008 3.81333 9.81266C4.00867 9.61733 4.32533 9.61733 4.52067 9.81266L5.00067 10.2926L5.48066 9.81266C5.676 9.61733 5.99267 9.61733 6.188 9.81266C6.38333 10.008 6.38333 10.3247 6.188 10.52L5.708 11L6.18667 11.48ZM12.5 11.8333C12.5 12.1093 12.276 12.3333 12 12.3333H10C9.724 12.3333 9.5 12.1093 9.5 11.8333C9.5 11.5573 9.724 11.3333 10 11.3333H12C12.276 11.3333 12.5 11.5573 12.5 11.8333Z" fill="#3B3B3E"/>
</svg>
