<svg width="16" height="16" viewBox="0 0 16 16" fill="none" xmlns="http://www.w3.org/2000/svg">
<path d="M14.2754 5.81134L13.5621 3.31333C13.3074 2.422 13.0441 1.5 11.1588 1.5H4.84204C2.95671 1.5 2.69272 2.422 2.43872 3.31333L1.72542 5.81134C1.57609 6.33267 1.50073 6.872 1.50073 7.414V12C1.50073 13.612 2.38873 14.5 4.00073 14.5H12.0007C13.6127 14.5 14.5007 13.612 14.5007 12V7.41333C14.5001 6.87133 14.4247 6.33267 14.2754 5.81134ZM12.6007 3.58799L13.314 6.086C13.3214 6.11267 13.324 6.14067 13.3314 6.16734H8.50008V2.50067H11.1581C12.2901 2.5 12.3681 2.77399 12.6007 3.58799ZM3.39941 3.58799C3.63275 2.77399 3.71071 2.5 4.84204 2.5H7.50008V6.16667H2.66878C2.67612 6.14 2.67812 6.112 2.68612 6.086L3.39941 3.58799ZM13.5001 12C13.5001 13.0513 13.0514 13.5 12.0001 13.5H4.00008C2.94875 13.5 2.50008 13.0513 2.50008 12V7.41333C2.50008 7.33066 2.51275 7.24867 2.51742 7.16667H13.4827C13.4867 7.24933 13.5001 7.33066 13.5001 7.41333V12V12ZM10.1807 9.00334L9.14144 8.85533L8.69539 7.96999C8.56273 7.70666 8.29543 7.54334 7.99943 7.54334C7.70343 7.54334 7.43605 7.70666 7.30339 7.96999L6.85742 8.85533L5.81738 9.00334C5.52672 9.04467 5.29075 9.24333 5.20142 9.52199C5.11342 9.79799 5.18875 10.094 5.39941 10.2953L6.14404 11.006L5.97542 11.9713C5.92409 12.2613 6.04073 12.55 6.27873 12.7247C6.51806 12.9013 6.83338 12.9267 7.09871 12.79L7.99878 12.3273L8.89941 12.7907C9.01275 12.8493 9.13541 12.878 9.25741 12.878C9.42074 12.878 9.58207 12.8267 9.7194 12.7253C9.95673 12.5507 10.0734 12.262 10.0221 11.9727L9.85343 11.0067L10.5981 10.296C10.8081 10.0953 10.8841 9.79934 10.7961 9.52334C10.7081 9.244 10.4721 9.04534 10.1807 9.00334ZM9.06877 10.374C8.88743 10.548 8.80475 10.7993 8.84741 11.0473L8.96077 11.6967L8.3501 11.3827C8.24076 11.3267 8.12007 11.298 8.00073 11.298C7.8814 11.298 7.76143 11.326 7.6521 11.382L7.04077 11.696L7.15479 11.046C7.19679 10.7987 7.11405 10.5473 6.93205 10.3733L6.46004 9.92267L7.12272 9.828C7.36805 9.79334 7.58141 9.64133 7.69474 9.41866L8.00073 8.81134L8.30811 9.42067C8.42077 9.64067 8.63341 9.79267 8.87874 9.82733L9.54142 9.922L9.06877 10.374Z" fill="#3B3B3E"/>
</svg>
