<svg width="16" height="16" viewBox="0 0 16 16" fill="none" xmlns="http://www.w3.org/2000/svg">
<path d="M2.0006 7.8667C1.9826 7.8667 1.96397 7.86601 1.94531 7.86401C1.67064 7.83401 1.47264 7.58666 1.50264 7.31266C1.74464 5.10133 3.07929 3.19668 5.07263 2.21802C5.22796 2.14202 5.41129 2.15134 5.55729 2.24268C5.70395 2.33401 5.79329 2.49465 5.79329 2.66732V4.70068C5.79329 4.97668 5.56929 5.20068 5.29329 5.20068C5.01729 5.20068 4.79329 4.97668 4.79329 4.70068V3.54004C3.51129 4.43204 2.6706 5.83264 2.49727 7.42131C2.46927 7.67664 2.25194 7.8667 2.0006 7.8667ZM14.0539 8.13664C13.7819 8.1073 13.5333 8.30468 13.5033 8.57935C13.3293 10.168 12.4893 11.5687 11.2066 12.4607V11.3C11.2066 11.024 10.9826 10.8 10.7066 10.8C10.4306 10.8 10.2066 11.024 10.2066 11.3V13.3333C10.2066 13.506 10.296 13.6666 10.4426 13.758C10.5233 13.808 10.6146 13.8333 10.7066 13.8333C10.782 13.8333 10.8573 13.8166 10.9273 13.782C12.9206 12.804 14.2553 10.8993 14.4966 8.68734C14.5273 8.41334 14.3286 8.16664 14.0539 8.13664ZM7.49995 4.66667C7.49995 2.92067 8.92062 1.5 10.6666 1.5C12.4126 1.5 13.8333 2.92067 13.8333 4.66667C13.8333 6.41267 12.4126 7.83333 10.6666 7.83333C8.92062 7.83333 7.49995 6.41267 7.49995 4.66667ZM8.49995 4.66667C8.49995 5.86133 9.47195 6.83333 10.6666 6.83333C11.8613 6.83333 12.8333 5.86133 12.8333 4.66667C12.8333 3.472 11.8613 2.5 10.6666 2.5C9.47195 2.5 8.49995 3.472 8.49995 4.66667ZM8.49995 11.3333C8.49995 13.0793 7.07929 14.5 5.33329 14.5C3.58729 14.5 2.16662 13.0793 2.16662 11.3333C2.16662 9.58733 3.58729 8.16667 5.33329 8.16667C7.07929 8.16667 8.49995 9.58733 8.49995 11.3333ZM7.49995 11.3333C7.49995 10.1387 6.52795 9.16667 5.33329 9.16667C4.13862 9.16667 3.16662 10.1387 3.16662 11.3333C3.16662 12.528 4.13862 13.5 5.33329 13.5C6.52795 13.5 7.49995 12.528 7.49995 11.3333Z" fill="#3B3B3E"/>
</svg>
