<svg width="16" height="16" viewBox="0 0 16 16" fill="none" xmlns="http://www.w3.org/2000/svg">
<path d="M13.0197 7.02026C12.9224 7.11759 12.7944 7.16691 12.6664 7.16691C12.5384 7.16691 12.4103 7.11826 12.313 7.02026L8.49969 3.20695V14.0002C8.49969 14.2762 8.27569 14.5002 7.99969 14.5002C7.72369 14.5002 7.49969 14.2762 7.49969 14.0002V3.2076L3.68638 7.02091C3.49104 7.21624 3.17435 7.21624 2.97902 7.02091C2.78369 6.82558 2.78369 6.50889 2.97902 6.31355L7.64569 1.64689C7.69169 1.60089 7.74695 1.56431 7.80828 1.53898C7.93028 1.48831 8.06828 1.48831 8.19028 1.53898C8.25162 1.56431 8.30704 1.60089 8.35304 1.64689L13.0197 6.31355C13.215 6.50889 13.215 6.82493 13.0197 7.02026Z" fill="#3B3B3E"/>
</svg>
