<svg width="16" height="16" viewBox="0 0 16 16" fill="none" xmlns="http://www.w3.org/2000/svg">
<path d="M7.99992 15.1663C4.04792 15.1663 0.833252 11.951 0.833252 7.99967C0.833252 4.04834 4.04792 0.833008 7.99992 0.833008C11.9519 0.833008 15.1666 4.04834 15.1666 7.99967C15.1666 11.951 11.9519 15.1663 7.99992 15.1663ZM7.99992 1.83301C4.59925 1.83301 1.83325 4.59901 1.83325 7.99967C1.83325 11.4003 4.59925 14.1663 7.99992 14.1663C11.4006 14.1663 14.1666 11.4003 14.1666 7.99967C14.1666 4.59901 11.4006 1.83301 7.99992 1.83301ZM11.1666 10.6663C11.1666 10.3903 10.9426 10.1663 10.6666 10.1663H5.33325C5.05725 10.1663 4.83325 10.3903 4.83325 10.6663C4.83325 10.9423 5.05725 11.1663 5.33325 11.1663H10.6666C10.9426 11.1663 11.1666 10.9423 11.1666 10.6663ZM10.1666 7.99967C10.1666 7.72367 9.94258 7.49967 9.66658 7.49967H6.33325C6.05725 7.49967 5.83325 7.72367 5.83325 7.99967C5.83325 8.27567 6.05725 8.49967 6.33325 8.49967H9.66658C9.94258 8.49967 10.1666 8.27567 10.1666 7.99967ZM9.16658 5.33301C9.16658 5.05701 8.94258 4.83301 8.66658 4.83301H7.33325C7.05725 4.83301 6.83325 5.05701 6.83325 5.33301C6.83325 5.60901 7.05725 5.83301 7.33325 5.83301H8.66658C8.94258 5.83301 9.16658 5.60901 9.16658 5.33301Z" fill="#3B3B3E"/>
</svg>
