<svg width="16" height="16" viewBox="0 0 16 16" fill="none" xmlns="http://www.w3.org/2000/svg">
<path d="M14.5 6.2V5C14.5 4.06 13.94 3.5 13 3.5H11.6666C10.7266 3.5 10.1666 4.06 10.1666 5V6.16667H5.83331V5C5.83331 4.06 5.27331 3.5 4.33331 3.5H2.99998C2.05998 3.5 1.49998 4.06 1.49998 5V6.2C1.11998 6.28 0.833313 6.61334 0.833313 7.04667V8.95333C0.833313 9.38666 1.11998 9.72 1.49998 9.8V11C1.49998 11.94 2.05998 12.5 2.99998 12.5H4.33331C5.27331 12.5 5.83331 11.94 5.83331 11V9.83333H10.1666V11C10.1666 11.94 10.7266 12.5 11.6666 12.5H13C13.94 12.5 14.5 11.94 14.5 11V9.8C14.88 9.72 15.1666 9.38666 15.1666 8.95333V7.04667C15.1666 6.61334 14.88 6.28 14.5 6.2ZM4.83331 11C4.83331 11.3933 4.72665 11.5 4.33331 11.5H2.99998C2.60665 11.5 2.49998 11.3933 2.49998 11V5C2.49998 4.60667 2.60665 4.5 2.99998 4.5H4.33331C4.72665 4.5 4.83331 4.60667 4.83331 5V11ZM5.83331 8.83333V7.16667H10.1666V8.83333H5.83331ZM13.5 11C13.5 11.3933 13.3933 11.5 13 11.5H11.6666C11.2733 11.5 11.1666 11.3933 11.1666 11V5C11.1666 4.60667 11.2733 4.5 11.6666 4.5H13C13.3933 4.5 13.5 4.60667 13.5 5V11Z" fill="#3B3B3E"/>
</svg>
