<svg width="16" height="16" viewBox="0 0 16 16" fill="none" xmlns="http://www.w3.org/2000/svg">
<path d="M13.1667 12.6662C13.1667 12.7315 13.1533 12.7963 13.1279 12.8576C13.0773 12.9796 12.9801 13.0768 12.8581 13.1275C12.7968 13.1528 12.732 13.1662 12.6667 13.1662H6.00002C5.72402 13.1662 5.50002 12.9422 5.50002 12.6662C5.50002 12.3902 5.72402 12.1662 6.00002 12.1662H11.4593L3.64601 4.35288C3.45068 4.15755 3.45068 3.84086 3.64601 3.64552C3.84135 3.45019 4.15804 3.45019 4.35337 3.64552L12.1667 11.4588V5.99953C12.1667 5.72353 12.3907 5.49953 12.6667 5.49953C12.9427 5.49953 13.1667 5.72353 13.1667 5.99953V12.6662Z" fill="#3B3B3E"/>
</svg>
