<svg width="16" height="16" viewBox="0 0 16 16" fill="none" xmlns="http://www.w3.org/2000/svg">
<path d="M10.6668 6.49967H6.66683C6.39083 6.49967 6.16683 6.27567 6.16683 5.99967C6.16683 5.72367 6.39083 5.49967 6.66683 5.49967H10.6668C10.9428 5.49967 11.1668 5.72367 11.1668 5.99967C11.1668 6.27567 10.9428 6.49967 10.6668 6.49967ZM11.1668 7.99967C11.1668 7.72367 10.9428 7.49967 10.6668 7.49967H5.3335C5.0575 7.49967 4.8335 7.72367 4.8335 7.99967C4.8335 8.27567 5.0575 8.49967 5.3335 8.49967H10.6668C10.9428 8.49967 11.1668 8.27567 11.1668 7.99967ZM11.1668 9.99967C11.1668 9.72367 10.9428 9.49967 10.6668 9.49967H8.00016C7.72416 9.49967 7.50016 9.72367 7.50016 9.99967C7.50016 10.2757 7.72416 10.4997 8.00016 10.4997H10.6668C10.9428 10.4997 11.1668 10.2757 11.1668 9.99967ZM15.1668 7.99967C15.1668 4.04767 11.9522 0.833008 8.00016 0.833008C4.04816 0.833008 0.833496 4.04767 0.833496 7.99967C0.833496 11.9517 4.04816 15.1663 8.00016 15.1663C11.9522 15.1663 15.1668 11.9517 15.1668 7.99967ZM14.1668 7.99967C14.1668 11.4003 11.4008 14.1663 8.00016 14.1663C4.5995 14.1663 1.8335 11.4003 1.8335 7.99967C1.8335 4.59901 4.5995 1.83301 8.00016 1.83301C11.4008 1.83301 14.1668 4.59901 14.1668 7.99967Z" fill="#3B3B3E"/>
</svg>
