<svg width="16" height="16" viewBox="0 0 16 16" fill="none" xmlns="http://www.w3.org/2000/svg">
<path d="M5.16667 8C5.16667 8.276 4.94267 8.5 4.66667 8.5C4.39067 8.5 4.16667 8.276 4.16667 8C4.16667 7.724 4.39067 7.5 4.66667 7.5C4.94267 7.5 5.16667 7.724 5.16667 8ZM4.66667 10.1667C4.39067 10.1667 4.16667 10.3907 4.16667 10.6667C4.16667 10.9427 4.39067 11.1667 4.66667 11.1667C4.94267 11.1667 5.16667 10.9427 5.16667 10.6667C5.16667 10.3907 4.94267 10.1667 4.66667 10.1667ZM6.33333 7.5C6.05733 7.5 5.83333 7.724 5.83333 8C5.83333 8.276 6.05733 8.5 6.33333 8.5H9.33333C9.60933 8.5 9.83333 8.276 9.83333 8C9.83333 7.724 9.60933 7.5 9.33333 7.5H6.33333ZM7.33333 10.1667H6.33333C6.05733 10.1667 5.83333 10.3907 5.83333 10.6667C5.83333 10.9427 6.05733 11.1667 6.33333 11.1667H7.33333C7.60933 11.1667 7.83333 10.9427 7.83333 10.6667C7.83333 10.3907 7.60933 10.1667 7.33333 10.1667ZM14.446 12.3333C14.0966 14.1093 11.9613 15.0827 11.8713 15.1233C11.8059 15.1527 11.7367 15.1667 11.6667 15.1667C11.5967 15.1667 11.5274 15.152 11.4621 15.1233C11.3714 15.0827 9.23672 14.1093 8.88672 12.3333C8.74405 11.6113 8.88593 10.9253 9.27393 10.4513C9.60259 10.05 10.0727 9.83667 10.6327 9.834C10.6353 9.834 10.6386 9.834 10.6413 9.834C11.0819 9.834 11.4207 10.0047 11.6667 10.226C11.9127 10.004 12.2514 9.834 12.6921 9.834C12.6947 9.834 12.6974 9.834 12.7007 9.834C13.262 9.83667 13.7321 10.05 14.0601 10.4513C14.4481 10.9253 14.5886 11.6113 14.446 12.3333ZM13.286 11.084C13.1493 10.9167 12.956 10.8347 12.6953 10.8333C12.6946 10.8333 12.694 10.8333 12.6927 10.8333C12.3067 10.8333 12.154 11.2173 12.138 11.2613C12.066 11.458 11.8766 11.592 11.668 11.592C11.6653 11.592 11.6633 11.592 11.6613 11.592C11.4493 11.5893 11.2607 11.4567 11.1934 11.2553C11.1794 11.2173 11.0266 10.8333 10.6406 10.8333C10.6393 10.8333 10.6387 10.8333 10.638 10.8333C10.378 10.8347 10.1853 10.9167 10.048 11.084C9.85201 11.3233 9.78402 11.718 9.86735 12.1393C10.0654 13.1413 11.196 13.8507 11.666 14.1053C12.136 13.85 13.2667 13.1413 13.4647 12.1387C13.548 11.718 13.4813 11.3233 13.286 11.084ZM7.83333 14C7.83333 14.276 7.60933 14.5 7.33333 14.5H4C2.388 14.5 1.5 13.612 1.5 12V4C1.5 2.388 2.388 1.5 4 1.5H8C8.13267 1.5 8.26002 1.55267 8.35335 1.64667L12.3534 5.64667C12.4474 5.74067 12.5 5.86733 12.5 6V8C12.5 8.276 12.276 8.5 12 8.5C11.724 8.5 11.5 8.276 11.5 8V6.5H10C8.388 6.5 7.5 5.612 7.5 4V2.5H4C2.94867 2.5 2.5 2.94867 2.5 4V12C2.5 13.0513 2.94867 13.5 4 13.5H7.33333C7.60933 13.5 7.83333 13.724 7.83333 14ZM10 5.5H10.7926L8.5 3.20734V4C8.5 5.05133 8.94867 5.5 10 5.5Z" fill="#3B3B3E"/>
</svg>
