<svg width="16" height="16" viewBox="0 0 16 16" fill="none" xmlns="http://www.w3.org/2000/svg">
<path d="M12 2.16699H4C2.388 2.16699 1.5 3.10963 1.5 4.82096V9.84635C1.5 11.5577 2.388 12.5003 4 12.5003H12C13.612 12.5003 14.5 11.5577 14.5 9.84635V4.82096C14.5 3.10963 13.612 2.16699 12 2.16699ZM13.5 9.84635C13.5 11.0057 13.0513 11.5003 12 11.5003H4C2.94867 11.5003 2.5 11.0057 2.5 9.84635V4.82096C2.5 3.66163 2.94867 3.16699 4 3.16699H12C13.0513 3.16699 13.5 3.66163 13.5 4.82096V9.84635ZM11.8333 14.0003C11.8333 14.2763 11.6093 14.5003 11.3333 14.5003H4.66667C4.39067 14.5003 4.16667 14.2763 4.16667 14.0003C4.16667 13.7243 4.39067 13.5003 4.66667 13.5003H11.3333C11.6093 13.5003 11.8333 13.7243 11.8333 14.0003ZM9.98193 6.41032L7.8833 5.12565C7.5353 4.91232 7.09801 4.90434 6.74268 5.10368C6.38201 5.30568 6.16732 5.67229 6.16732 6.08496V8.58236C6.16732 8.99502 6.38201 9.36164 6.74268 9.56364C6.91401 9.65964 7.10395 9.70768 7.29395 9.70768C7.49861 9.70768 7.70263 9.65233 7.8833 9.54167L9.98128 8.25765C10.3059 8.05898 10.5 7.71366 10.5 7.33366C10.5 6.95366 10.3059 6.60832 9.98193 6.41032ZM9.45931 7.4043L7.36068 8.68896C7.30601 8.7223 7.26062 8.70773 7.23128 8.69173C7.20195 8.67506 7.16667 8.64302 7.16667 8.58236V6.08496C7.16667 6.02496 7.20195 5.99225 7.23128 5.97559C7.24728 5.96625 7.26926 5.95833 7.2946 5.95833C7.3146 5.95833 7.33733 5.96369 7.36133 5.97835L9.45996 7.26302C9.45996 7.26302 9.45995 7.26302 9.46061 7.26302C9.48661 7.27902 9.50065 7.30301 9.50065 7.33301C9.50065 7.36301 9.48598 7.3883 9.45931 7.4043Z" fill="#3B3B3E"/>
</svg>
