<svg width="16" height="16" viewBox="0 0 16 16" fill="none" xmlns="http://www.w3.org/2000/svg">
<path d="M13.6866 5.64667L9.68661 1.64667C9.59261 1.55267 9.46592 1.5 9.33325 1.5H5.33325C3.72125 1.5 2.83325 2.388 2.83325 4V12C2.83325 13.612 3.72125 14.5 5.33325 14.5H11.3333C12.9453 14.5 13.8333 13.612 13.8333 12V6C13.8333 5.86733 13.7806 5.74 13.6866 5.64667ZM9.83325 3.20734L12.1259 5.5H11.3333C10.2819 5.5 9.83325 5.05133 9.83325 4V3.20734ZM11.3333 13.5H5.33325C4.28192 13.5 3.83325 13.0513 3.83325 12V4C3.83325 2.94867 4.28192 2.5 5.33325 2.5H8.83325V4C8.83325 5.612 9.72125 6.5 11.3333 6.5H12.8333V12C12.8333 13.0513 12.3846 13.5 11.3333 13.5ZM9.01994 9.64667C9.21527 9.842 9.21527 10.1587 9.01994 10.354L7.6866 11.6873C7.6406 11.7333 7.58518 11.77 7.52384 11.7953C7.46251 11.8207 7.39793 11.834 7.3326 11.834C7.26727 11.834 7.20253 11.8207 7.14119 11.7953C7.07986 11.77 7.0246 11.7333 6.9786 11.6873L5.64526 10.354C5.44993 10.1587 5.44993 9.842 5.64526 9.64667C5.8406 9.45133 6.15729 9.45133 6.35262 9.64667L6.8326 10.1267V8C6.8326 7.724 7.0566 7.5 7.3326 7.5C7.6086 7.5 7.8326 7.724 7.8326 8V10.126L8.31258 9.646C8.50858 9.45133 8.8246 9.45133 9.01994 9.64667Z" fill="#3B3B3E"/>
</svg>
