<svg width="16" height="16" viewBox="0 0 16 16" fill="none" xmlns="http://www.w3.org/2000/svg">
<path d="M12.0002 2.16699C11.7242 2.16699 11.5002 2.39099 11.5002 2.66699V6.8444C11.3628 6.61707 11.1962 6.40698 10.9815 6.23698L6.43815 2.64893C5.76415 2.11626 4.86746 2.01959 4.09546 2.39225C3.31746 2.76959 2.8335 3.54361 2.8335 4.41227V11.589C2.8335 12.4577 3.31746 13.2317 4.09546 13.609C4.40613 13.7597 4.73684 13.833 5.06551 13.833C5.55284 13.833 6.03548 13.6697 6.43815 13.3517L10.9815 9.76302C11.1969 9.59302 11.3635 9.38293 11.5002 9.1556V13.3337C11.5002 13.6097 11.7242 13.8337 12.0002 13.8337C12.2762 13.8337 12.5002 13.6097 12.5002 13.3337V2.66699C12.5002 2.39099 12.2762 2.16699 12.0002 2.16699ZM10.3615 8.97835L5.8182 12.5671C5.44286 12.8637 4.96149 12.9157 4.53149 12.7083C4.09483 12.497 3.8335 12.0777 3.8335 11.5884V4.41162C3.8335 3.92229 4.09483 3.503 4.53149 3.29167C4.70549 3.20767 4.8868 3.16634 5.06746 3.16634C5.3328 3.16634 5.5942 3.25628 5.8182 3.43294L10.3615 7.021C10.6615 7.25766 10.8335 7.61501 10.8335 7.99967C10.8335 8.38501 10.6615 8.74169 10.3615 8.97835Z" fill="#3B3B3E"/>
</svg>
