<svg width="16" height="16" viewBox="0 0 16 16" fill="none" xmlns="http://www.w3.org/2000/svg">
<path d="M5.77816 8.27767C5.65016 8.27767 5.52214 8.22902 5.4248 8.13102L4.31348 7.01969C4.26748 6.97369 4.23155 6.91906 4.20622 6.8584C4.18088 6.79773 4.16748 6.73302 4.16748 6.66569C4.16748 6.59836 4.18155 6.53365 4.20622 6.47298C4.23155 6.41231 4.26814 6.35769 4.31348 6.31169L5.4248 5.20036C5.6208 5.00436 5.93749 5.00569 6.13216 5.20036C6.32749 5.39569 6.32749 5.71238 6.13216 5.90771L5.87484 6.16504H10.0002C10.2762 6.16504 10.5002 6.38904 10.5002 6.66504C10.5002 6.94104 10.2762 7.16504 10.0002 7.16504H5.87419L6.13151 7.42236C6.32684 7.61703 6.32684 7.93439 6.13151 8.12972C6.03418 8.22839 5.90616 8.27767 5.77816 8.27767ZM11.7948 9.13769C11.7694 9.07703 11.7328 9.02238 11.6875 8.97705L10.5762 7.86572C10.3808 7.67039 10.0641 7.67039 9.86881 7.86572C9.67348 8.06106 9.67348 8.37775 9.86881 8.57308L10.1261 8.8304H6.00016C5.72416 8.8304 5.50016 9.0544 5.50016 9.3304C5.50016 9.6064 5.72416 9.8304 6.00016 9.8304H10.1261L9.86816 10.0884C9.67283 10.2837 9.67283 10.6004 9.86816 10.7957C9.9655 10.8931 10.0935 10.9424 10.2215 10.9424C10.3495 10.9424 10.4775 10.8937 10.5749 10.7957L11.6862 9.68441C11.7322 9.63841 11.7681 9.58362 11.7935 9.52295C11.8188 9.46228 11.8322 9.39774 11.8322 9.3304C11.8335 9.26374 11.8194 9.19836 11.7948 9.13769ZM15.1668 7.99967C15.1668 11.9517 11.9522 15.1663 8.00016 15.1663C4.04816 15.1663 0.833496 11.9517 0.833496 7.99967C0.833496 4.04767 4.04816 0.833008 8.00016 0.833008C11.9522 0.833008 15.1668 4.04767 15.1668 7.99967ZM14.1668 7.99967C14.1668 4.59901 11.4008 1.83301 8.00016 1.83301C4.5995 1.83301 1.8335 4.59901 1.8335 7.99967C1.8335 11.4003 4.5995 14.1663 8.00016 14.1663C11.4008 14.1663 14.1668 11.4003 14.1668 7.99967Z" fill="#3B3B3E"/>
</svg>
