<svg width="16" height="16" viewBox="0 0 16 16" fill="none" xmlns="http://www.w3.org/2000/svg">
<path d="M13.6866 5.64667L9.68661 1.64667C9.59261 1.55267 9.46592 1.5 9.33325 1.5H5.33325C3.72125 1.5 2.83325 2.388 2.83325 4V12C2.83325 13.612 3.72125 14.5 5.33325 14.5H11.3333C12.9453 14.5 13.8333 13.612 13.8333 12V6C13.8333 5.86733 13.7806 5.74 13.6866 5.64667ZM9.83325 3.20734L12.1259 5.5H11.3333C10.2819 5.5 9.83325 5.05133 9.83325 4V3.20734ZM12.8333 12C12.8333 13.0513 12.3846 13.5 11.3333 13.5H5.33325C4.28192 13.5 3.83325 13.0513 3.83325 12V4C3.83325 2.94867 4.28192 2.5 5.33325 2.5H8.83325V4C8.83325 5.612 9.72125 6.5 11.3333 6.5H12.8333V12ZM8.33325 9.7C9.21525 9.7 9.93319 8.98266 9.93319 8.1C9.93319 7.218 9.21525 6.5 8.33325 6.5C7.45125 6.5 6.73332 7.218 6.73332 8.1C6.73332 8.98266 7.45125 9.7 8.33325 9.7ZM8.33325 7.5C8.66392 7.5 8.93319 7.76933 8.93319 8.1C8.93319 8.43133 8.66392 8.7 8.33325 8.7C8.00259 8.7 7.73332 8.43133 7.73332 8.1C7.73332 7.76933 8.00259 7.5 8.33325 7.5ZM10.8333 12.1313V12.3333C10.8333 12.6093 10.6093 12.8333 10.3333 12.8333C10.0573 12.8333 9.83325 12.6093 9.83325 12.3333V12.1313C9.83325 11.6507 9.50198 11.1667 8.76131 11.1667H7.90584C7.16518 11.1667 6.8339 11.6513 6.8339 12.1313V12.3333C6.8339 12.6093 6.6099 12.8333 6.3339 12.8333C6.0579 12.8333 5.8339 12.6093 5.8339 12.3333V12.1313C5.8339 11.1547 6.54518 10.1667 7.90584 10.1667H8.76131C10.122 10.1667 10.8333 11.1547 10.8333 12.1313Z" fill="#3B3B3E"/>
</svg>
