<svg width="16" height="16" viewBox="0 0 16 16" fill="none" xmlns="http://www.w3.org/2000/svg">
<path d="M13.8332 7.99953C13.8332 4.78286 11.2165 2.16619 7.99985 2.16619C4.78319 2.16619 2.16652 4.78286 2.16652 7.99953C2.16652 9.93619 3.1192 11.6509 4.57586 12.7123L3.64585 13.6468C3.45052 13.8428 3.45182 14.1595 3.64715 14.3542C3.74448 14.4515 3.87252 14.4995 3.99985 14.4995C4.12785 14.4995 4.25652 14.4502 4.35386 14.3522L5.45851 13.2422C6.22785 13.6169 7.08785 13.8329 7.99985 13.8329C8.91185 13.8329 9.77119 13.6169 10.5412 13.2422L11.6458 14.3522C11.7432 14.4502 11.8719 14.4995 11.9999 14.4995C12.1272 14.4995 12.2552 14.4508 12.3526 14.3542C12.5479 14.1595 12.5492 13.8428 12.3539 13.6468L11.4238 12.7123C12.8805 11.6509 13.8332 9.93619 13.8332 7.99953ZM3.16652 7.99953C3.16652 5.33419 5.33452 3.16619 7.99985 3.16619C10.6652 3.16619 12.8332 5.33419 12.8332 7.99953C12.8332 10.6649 10.6652 12.8329 7.99985 12.8329C5.33452 12.8329 3.16652 10.6649 3.16652 7.99953ZM14.3571 3.68288C14.2591 3.78288 14.1292 3.83286 13.9999 3.83286C13.8739 3.83286 13.7473 3.78553 13.6499 3.6902L12.3166 2.38356C12.1199 2.19023 12.1166 1.87354 12.3093 1.6762C12.5039 1.47887 12.8198 1.47555 13.0171 1.66888L14.3504 2.97552C14.5464 3.16885 14.5498 3.48554 14.3571 3.68288ZM2.35321 3.68621C2.25587 3.78355 2.12785 3.83286 1.99985 3.83286C1.87185 3.83286 1.74383 3.78421 1.6465 3.68621C1.45117 3.49088 1.45117 3.17419 1.6465 2.97886L2.97983 1.64552C3.17517 1.45019 3.49186 1.45019 3.68719 1.64552C3.88252 1.84086 3.88252 2.15755 3.68719 2.35288L2.35321 3.68621Z" fill="#3B3B3E"/>
</svg>
