<svg width="16" height="16" viewBox="0 0 16 16" fill="none" xmlns="http://www.w3.org/2000/svg">
<path d="M12 2.83301H4C2.38667 2.83301 1.5 3.71967 1.5 5.33301V10.6663C1.5 12.2797 2.38667 13.1663 4 13.1663H12C13.6133 13.1663 14.5 12.2797 14.5 10.6663V5.33301C14.5 3.71967 13.6133 2.83301 12 2.83301ZM13.5 10.6663C13.5 11.7197 13.0533 12.1663 12 12.1663H4C2.94667 12.1663 2.5 11.7197 2.5 10.6663V5.33301C2.5 4.27967 2.94667 3.83301 4 3.83301H12C13.0533 3.83301 13.5 4.27967 13.5 5.33301V10.6663ZM5.46 10.6663V11.0797H5.31331C5.31331 10.7197 5.34667 10.5397 5.16667 10.5397C4.96 10.5397 5.00667 10.753 5.00667 11.0797H4.86666C4.86666 10.7197 4.90001 10.5397 4.72001 10.5397C4.51334 10.5397 4.56002 10.7397 4.56002 11.0797H4.41333V10.4264H4.56002V10.5063C4.61335 10.433 4.68 10.413 4.74666 10.413C4.84666 10.413 4.92001 10.453 4.96667 10.5263C5.02667 10.433 5.11332 10.413 5.19332 10.413C5.35332 10.413 5.45333 10.5197 5.45333 10.673L5.46 10.6663ZM6.98665 10.8797C6.98665 11.1197 6.60666 11.1463 6.40666 11.013L6.46667 10.8997C6.59334 10.9863 6.83333 10.9997 6.83333 10.8863C6.83333 10.7663 6.42668 10.873 6.42668 10.6197C6.42668 10.3663 6.80001 10.3663 6.96667 10.473L6.90666 10.5863C6.78666 10.5197 6.57332 10.5063 6.57332 10.6063C6.57332 10.733 6.97998 10.6063 6.97998 10.8797H6.98665ZM7.58 10.9264L7.62 11.0463C7.52666 11.1063 7.21334 11.1663 7.21334 10.853V10.553H7.08V10.4197H7.21334V10.2197H7.35999V10.4197H7.59334V10.553H7.35999V10.8463C7.35999 10.9997 7.51333 10.9597 7.58 10.9197V10.9264ZM6.12 10.5063C6.07333 10.4463 6.00666 10.413 5.91333 10.413C5.72666 10.413 5.58667 10.5597 5.58667 10.7597C5.58667 10.9597 5.72666 11.1063 5.91333 11.1063C6.00666 11.1063 6.07333 11.073 6.12 11.013V11.093H6.26001V10.433H6.12V10.513V10.5063ZM5.93335 10.9663C5.80668 10.9663 5.73332 10.873 5.73332 10.7597C5.73332 10.6464 5.80668 10.553 5.93335 10.553C6.04668 10.553 6.12667 10.6464 6.12667 10.7597C6.12667 10.8797 6.04668 10.9663 5.93335 10.9663ZM4 7.37301C4 6.01301 5.10668 4.90633 6.47335 4.90633C6.96001 4.90633 7.43334 5.05302 7.84001 5.31968C6.54667 6.37968 6.54001 8.37967 7.84001 9.433C7.43334 9.69967 6.96001 9.84633 6.47335 9.84633C5.10668 9.84633 4 8.73967 4 7.37301V7.37301ZM8 5.433C9.25333 6.41967 9.26 8.33301 8 9.31968C6.74 8.33968 6.74667 6.42634 8 5.433ZM8.03333 10.413C7.84666 10.413 7.70667 10.553 7.70667 10.7597C7.70667 11.1264 8.11331 11.1863 8.31331 11.013L8.24666 10.9063C8.10666 11.0197 7.90002 11.013 7.85335 10.8197H8.34668C8.34668 10.533 8.21333 10.413 8.03333 10.413V10.413ZM7.85999 10.6997C7.87332 10.6063 7.93332 10.5463 8.02665 10.5463C8.11999 10.5463 8.17999 10.5997 8.19999 10.6997H7.85999ZM11.4733 10.513C11.3267 10.3197 10.94 10.4197 10.94 10.7597C10.94 11.0997 11.34 11.1997 11.4733 11.0063V11.0863H11.6133V10.1663H11.4733V10.513ZM11.2867 10.973C11.1667 10.973 11.0867 10.8797 11.0867 10.7663C11.0867 10.653 11.1667 10.5597 11.2867 10.5597C11.4067 10.5597 11.4867 10.653 11.4867 10.7663C11.4867 10.8797 11.4067 10.973 11.2867 10.973ZM12.0067 7.37968C12.0067 8.74635 10.9 9.85301 9.53333 9.85301C9.05333 9.85301 8.57333 9.70634 8.16667 9.43968C9.47333 8.38634 9.45333 6.37967 8.16667 5.32633C8.57333 5.05967 9.04666 4.913 9.53333 4.913C10.9 4.913 12.0067 6.01968 12.0067 7.37968V7.37968ZM10.9 10.4397L10.86 10.573C10.7933 10.5397 10.6333 10.5263 10.6333 10.7197V11.0863H10.4933V10.433H10.6333V10.513C10.7067 10.3797 10.86 10.413 10.9067 10.433L10.9 10.4397ZM8.92 10.4397L8.88001 10.573C8.82001 10.5397 8.65332 10.513 8.65332 10.7197V11.0863H8.50667V10.433H8.65332V10.513C8.71999 10.3997 8.84001 10.3997 8.92668 10.433L8.92 10.4397ZM9.10665 10.7663C9.10665 10.9663 9.31335 11.033 9.47335 10.9197L9.54 11.033C9.35333 11.193 8.95333 11.1197 8.95333 10.7663C8.95333 10.413 9.33333 10.333 9.54 10.4997L9.47335 10.613C9.31335 10.493 9.10665 10.5597 9.10665 10.7663V10.7663ZM10.1533 10.5197C10.0067 10.3263 9.62 10.433 9.62 10.7663C9.62 11.0997 10.02 11.2063 10.1533 11.013V11.093H10.3V10.433H10.1533V10.513V10.5197ZM9.96668 10.9797C9.84668 10.9797 9.77332 10.8863 9.77332 10.773C9.77332 10.6597 9.84668 10.5663 9.96668 10.5663C10.0867 10.5663 10.1667 10.6597 10.1667 10.773C10.1667 10.8863 10.0867 10.9797 9.96668 10.9797Z" fill="#3B3B3E"/>
</svg>
