<svg width="16" height="16" viewBox="0 0 16 16" fill="none" xmlns="http://www.w3.org/2000/svg">
<path d="M14.428 8.88867L13.4579 3.55273C13.2373 2.34407 12.226 1.5 10.998 1.5H5.00317C3.77451 1.5 2.76388 2.34407 2.54321 3.55273L1.57332 8.88867C1.52532 9.15267 1.50122 9.42401 1.50122 9.69401V10.6667V11.3333V12C1.50122 13.612 2.38922 14.5 4.00122 14.5H12.0012C13.6132 14.5 14.5012 13.612 14.5012 12V11.3333V10.6667V9.69401C14.4999 9.42401 14.476 9.15334 14.428 8.88867ZM3.52661 3.73193C3.66061 2.99527 4.25386 2.5 5.00252 2.5H10.9973C11.746 2.5 12.3392 2.99527 12.4732 3.73193L13.332 8.45394C12.966 8.27061 12.5259 8.16732 11.9999 8.16732H3.99992C3.47392 8.16732 3.03455 8.27127 2.66789 8.45394L3.52661 3.73193ZM13.4999 12C13.4999 13.0513 13.0513 13.5 11.9999 13.5H3.99992C2.94859 13.5 2.49992 13.0513 2.49992 12V11.3333V10.6667C2.49992 9.61533 2.94859 9.16667 3.99992 9.16667H11.9999C13.0513 9.16667 13.4999 9.61533 13.4999 10.6667V11.3333V12ZM9.99992 11.3333C9.99992 11.7013 9.70125 12 9.33325 12C8.96525 12 8.66659 11.7013 8.66659 11.3333C8.66659 10.9653 8.96525 10.6667 9.33325 10.6667C9.70125 10.6667 9.99992 10.9653 9.99992 11.3333ZM11.9999 11.3333C11.9999 11.7013 11.7013 12 11.3333 12C10.9653 12 10.6666 11.7013 10.6666 11.3333C10.6666 10.9653 10.9653 10.6667 11.3333 10.6667C11.7013 10.6667 11.9999 10.9653 11.9999 11.3333Z" fill="#3B3B3E"/>
</svg>
