<svg width="16" height="16" viewBox="0 0 16 16" fill="none" xmlns="http://www.w3.org/2000/svg">
<path d="M8.60906 7.61095C8.38372 7.45161 8.32978 7.13961 8.48845 6.91427C8.64778 6.68894 8.9578 6.63427 9.1858 6.79361L9.34644 6.90694L9.09376 5.47561C9.04576 5.20361 9.22711 4.94428 9.49911 4.89628C9.77178 4.84828 10.0304 5.03028 10.0777 5.30161L10.3324 6.74494L10.4578 6.56694C10.6171 6.34094 10.9278 6.28694 11.1551 6.44628C11.3805 6.60561 11.4344 6.91761 11.2757 7.14294L10.4578 8.30227C10.4558 8.30494 10.4524 8.30628 10.4504 8.30895C10.4091 8.36495 10.3551 8.40961 10.2931 8.44494C10.2697 8.45828 10.2458 8.46361 10.2211 8.47295C10.1925 8.48428 10.1671 8.50094 10.1357 8.50694C10.1064 8.51228 10.0771 8.51494 10.0484 8.51494C10.0464 8.51494 10.0444 8.51361 10.0418 8.51361C9.98976 8.51294 9.93843 8.50361 9.88843 8.48627C9.86777 8.47961 9.8504 8.46761 9.83106 8.45828C9.80773 8.44695 9.78307 8.43894 9.76107 8.42361L8.60906 7.61095ZM5.88909 6.14494C5.74242 5.31494 5.84378 4.66561 6.19711 4.16027C6.55111 3.65427 7.12777 3.33761 7.95777 3.19094L10.3805 2.76361C11.2105 2.61694 11.8584 2.71828 12.3651 3.07161C12.8711 3.42561 13.1871 4.00161 13.3337 4.83161L13.7611 7.25428C13.9077 8.08428 13.8064 8.73361 13.4524 9.23961C13.0991 9.74494 12.5231 10.0623 11.6924 10.2083L9.26978 10.6356C9.03245 10.6776 8.80706 10.6989 8.59506 10.6989C7.34639 10.6989 6.56375 9.97228 6.31641 8.56761L5.88909 6.14494ZM6.87379 5.9716L7.30111 8.39427C7.49511 9.49161 7.99711 9.84427 9.09644 9.65161L11.5191 9.22428C12.0745 9.12628 12.4391 8.94361 12.6331 8.66628C12.8271 8.38894 12.8738 7.98427 12.7765 7.42894L12.3491 5.00627C12.2511 4.45094 12.0684 4.08628 11.7911 3.89228C11.6078 3.76361 11.3678 3.69961 11.0651 3.69961C10.9118 3.69961 10.7411 3.7156 10.5531 3.74894L8.13046 4.17628C7.57513 4.27428 7.21045 4.45695 7.01645 4.73428C6.82245 5.01095 6.77579 5.41627 6.87379 5.9716ZM14.4918 11.0996C14.5398 11.3716 14.3584 11.6309 14.0864 11.6789L7.14242 12.9009C7.02576 13.8003 6.26376 14.4996 5.3331 14.4996C4.32176 14.4996 3.49976 13.6776 3.49976 12.6663C3.49976 11.8396 4.05307 11.1469 4.8064 10.9189L3.44776 3.18628C3.36843 2.73494 2.93309 2.43428 2.47909 2.51161L2.0831 2.57895C1.81643 2.62361 1.55242 2.44161 1.50709 2.16961C1.46109 1.89695 1.64376 1.63894 1.91643 1.59294L2.30974 1.52627C3.29774 1.35361 4.25713 2.01961 4.43246 3.01227L5.8191 10.9056C6.3451 11.0516 6.77645 11.4209 6.99911 11.9103L13.9131 10.6929C14.1858 10.6456 14.4445 10.8276 14.4918 11.0996ZM6.16643 12.6663C6.16643 12.2069 5.79243 11.8329 5.3331 11.8329C4.87376 11.8329 4.49976 12.2069 4.49976 12.6663C4.49976 13.1256 4.87376 13.4996 5.3331 13.4996C5.79243 13.4996 6.16643 13.1256 6.16643 12.6663Z" fill="#3B3B3E"/>
</svg>
