<svg width="16" height="16" viewBox="0 0 16 16" fill="none" xmlns="http://www.w3.org/2000/svg">
<path d="M7.83341 7.45916L12.9801 2.31252C13.1754 2.11718 13.4921 2.11718 13.6874 2.31252C13.8828 2.50785 13.8828 2.82454 13.6874 3.01987L8.54077 8.16652H10.6667C10.9427 8.16652 11.1667 8.39052 11.1667 8.66652C11.1667 8.94252 10.9427 9.16652 10.6667 9.16652H7.33341C7.26808 9.16652 7.20334 9.15312 7.14201 9.12778C7.02001 9.07712 6.92282 8.97993 6.87215 8.85793C6.84682 8.79659 6.83341 8.73185 6.83341 8.66652V5.33319C6.83341 5.05719 7.05741 4.83319 7.33341 4.83319C7.60941 4.83319 7.83341 5.05719 7.83341 5.33319V7.45916ZM13.3334 8.16652C13.0574 8.16652 12.8334 8.39052 12.8334 8.66652V11.3332C12.8334 12.3845 12.3847 12.8332 11.3334 12.8332H4.66675C3.61541 12.8332 3.16675 12.3845 3.16675 11.3332V4.66652C3.16675 3.61519 3.61541 3.16652 4.66675 3.16652H7.33341C7.60941 3.16652 7.83341 2.94252 7.83341 2.66652C7.83341 2.39052 7.60941 2.16652 7.33341 2.16652H4.66675C3.05475 2.16652 2.16675 3.05452 2.16675 4.66652V11.3332C2.16675 12.9452 3.05475 13.8332 4.66675 13.8332H11.3334C12.9454 13.8332 13.8334 12.9452 13.8334 11.3332V8.66652C13.8334 8.39052 13.6094 8.16652 13.3334 8.16652Z" fill="#3B3B3E"/>
</svg>
