<svg width="16" height="16" viewBox="0 0 16 16" fill="none" xmlns="http://www.w3.org/2000/svg">
<path d="M11.6867 3.02001L12.1667 2.54003V4.66666C12.1667 4.94266 12.3907 5.16666 12.6667 5.16666C12.9427 5.16666 13.1667 4.94266 13.1667 4.66666V2.54069L13.6467 3.02067C13.744 3.118 13.872 3.16731 14 3.16731C14.128 3.16731 14.256 3.11867 14.3533 3.02067C14.5487 2.82533 14.5487 2.50864 14.3533 2.31331L13.02 0.979976C12.974 0.933976 12.9187 0.897318 12.8573 0.871984C12.7353 0.821318 12.5973 0.821318 12.4753 0.871984C12.414 0.897318 12.3587 0.933976 12.3127 0.979976L10.9793 2.31331C10.784 2.50864 10.784 2.82533 10.9793 3.02067C11.1747 3.216 11.4913 3.21535 11.6867 3.02001ZM7.76666 5.9073H8.23334C8.61467 5.9073 8.934 6.19397 8.97734 6.57397C9.008 6.84864 9.25334 7.04863 9.53001 7.0153C9.80468 6.98463 10.002 6.73731 9.97133 6.46264C9.88133 5.65998 9.25933 5.04199 8.48199 4.93066V4.66666C8.48199 4.39066 8.25799 4.16666 7.98199 4.16666C7.70599 4.16666 7.48199 4.39066 7.48199 4.66666V4.93668C6.65399 5.07402 6.01933 5.79 6.01933 6.656C6.01933 7.04733 6.15066 7.43001 6.38733 7.72867C6.62466 8.03467 6.96334 8.25597 7.34334 8.35197L8.41532 8.618C8.74932 8.70266 8.98267 9.00132 8.98267 9.34399C8.98267 9.54266 8.90468 9.72998 8.76268 9.87198C8.62068 10.014 8.43333 10.092 8.23466 10.092H7.76801C7.38667 10.092 7.06734 9.80529 7.02401 9.42529C6.99334 9.15062 6.74333 8.9493 6.47133 8.98396C6.19667 9.01463 5.99934 9.26203 6.03001 9.5367C6.11868 10.328 6.724 10.942 7.486 11.0653V11.3333C7.486 11.6093 7.71 11.8333 7.986 11.8333C8.262 11.8333 8.486 11.6093 8.486 11.3333V11.068C8.856 11.014 9.19934 10.85 9.46934 10.58C9.80001 10.2493 9.98267 9.81064 9.98267 9.34464C9.98267 8.54331 9.43934 7.84601 8.65867 7.64868L7.58667 7.38265C7.42134 7.34131 7.28066 7.24869 7.17466 7.11336C7.07466 6.98669 7.01933 6.82399 7.01933 6.65665C7.01866 6.24332 7.354 5.9073 7.76666 5.9073ZM14 6.16666C13.724 6.16666 13.5 6.39066 13.5 6.66666V11.7467C13.5 12.9593 12.9593 13.5 11.7467 13.5H4.25334C3.02467 13.5 2.5 12.9753 2.5 11.7467V4.24666C2.5 3.02266 3.02467 2.5 4.25334 2.5H9.33333C9.60933 2.5 9.83333 2.276 9.83333 2C9.83333 1.724 9.60933 1.5 9.33333 1.5H4.25334C2.478 1.5 1.5 2.47533 1.5 4.24666V11.7467C1.5 13.522 2.478 14.5 4.25334 14.5H11.7467C13.522 14.5 14.5 13.522 14.5 11.7467V6.66666C14.5 6.39066 14.276 6.16666 14 6.16666Z" fill="#3B3B3E"/>
</svg>
