<svg width="16" height="16" viewBox="0 0 16 16" fill="none" xmlns="http://www.w3.org/2000/svg">
<path d="M8 13.5H4C2.94867 13.5 2.5 13.0513 2.5 12V4C2.5 2.94867 2.94867 2.5 4 2.5H7.5V4C7.5 5.612 8.388 6.5 10 6.5H11.5V8C11.5 8.276 11.724 8.5 12 8.5C12.276 8.5 12.5 8.276 12.5 8V6C12.5 5.86733 12.4474 5.74 12.3534 5.64667L8.35335 1.64667C8.25935 1.55267 8.13267 1.5 8 1.5H4C2.388 1.5 1.5 2.388 1.5 4V12C1.5 13.612 2.388 14.5 4 14.5H8C8.276 14.5 8.5 14.276 8.5 14C8.5 13.724 8.276 13.5 8 13.5ZM8.5 4V3.20734L10.7926 5.5H10C8.94867 5.5 8.5 5.05133 8.5 4ZM5.16667 8C5.16667 8.276 4.94267 8.5 4.66667 8.5C4.39067 8.5 4.16667 8.276 4.16667 8C4.16667 7.724 4.39067 7.5 4.66667 7.5C4.94267 7.5 5.16667 7.724 5.16667 8ZM5.16667 10.6667C5.16667 10.9427 4.94267 11.1667 4.66667 11.1667C4.39067 11.1667 4.16667 10.9427 4.16667 10.6667C4.16667 10.3907 4.39067 10.1667 4.66667 10.1667C4.94267 10.1667 5.16667 10.3907 5.16667 10.6667ZM9.33333 8.5H6.33333C6.05733 8.5 5.83333 8.276 5.83333 8C5.83333 7.724 6.05733 7.5 6.33333 7.5H9.33333C9.60933 7.5 9.83333 7.724 9.83333 8C9.83333 8.276 9.60933 8.5 9.33333 8.5ZM6.33333 11.1667C6.05733 11.1667 5.83333 10.9427 5.83333 10.6667C5.83333 10.3907 6.05733 10.1667 6.33333 10.1667H7.33333C7.60933 10.1667 7.83333 10.3907 7.83333 10.6667C7.83333 10.9427 7.60933 11.1667 7.33333 11.1667H6.33333ZM12.3333 9.5C10.7707 9.5 9.5 10.7707 9.5 12.3333C9.5 13.896 10.7707 15.1667 12.3333 15.1667C13.896 15.1667 15.1667 13.896 15.1667 12.3333C15.1667 10.7707 13.896 9.5 12.3333 9.5ZM12.3333 10.5C12.6567 10.5 12.9567 10.5913 13.2207 10.7387L10.7393 13.2207C10.5919 12.9567 10.5 12.6567 10.5 12.3333C10.5 11.3227 11.322 10.5 12.3333 10.5ZM12.3333 14.1667C12.01 14.1667 11.71 14.0753 11.446 13.928L13.9274 11.446C14.0747 11.71 14.1667 12.01 14.1667 12.3333C14.1667 13.344 13.3447 14.1667 12.3333 14.1667Z" fill="#3B3B3E"/>
</svg>
