<svg width="16" height="16" viewBox="0 0 16 16" fill="none" xmlns="http://www.w3.org/2000/svg">
<path d="M8 4.83333C6.254 4.83333 4.83333 6.254 4.83333 8C4.83333 9.746 6.254 11.1667 8 11.1667C9.746 11.1667 11.1667 9.746 11.1667 8C11.1667 6.254 9.746 4.83333 8 4.83333ZM8 10.1667C6.80533 10.1667 5.83333 9.19467 5.83333 8C5.83333 6.80533 6.80533 5.83333 8 5.83333C9.19467 5.83333 10.1667 6.80533 10.1667 8C10.1667 9.19467 9.19467 10.1667 8 10.1667ZM7.5 3.33333V2C7.5 1.724 7.724 1.5 8 1.5C8.276 1.5 8.5 1.724 8.5 2V3.33333C8.5 3.60933 8.276 3.83333 8 3.83333C7.724 3.83333 7.5 3.60933 7.5 3.33333ZM8.5 12.6667V14C8.5 14.276 8.276 14.5 8 14.5C7.724 14.5 7.5 14.276 7.5 14V12.6667C7.5 12.3907 7.724 12.1667 8 12.1667C8.276 12.1667 8.5 12.3907 8.5 12.6667ZM3.33333 8.5H2C1.724 8.5 1.5 8.276 1.5 8C1.5 7.724 1.724 7.5 2 7.5H3.33333C3.60933 7.5 3.83333 7.724 3.83333 8C3.83333 8.276 3.60933 8.5 3.33333 8.5ZM14.5 8C14.5 8.276 14.276 8.5 14 8.5H12.6667C12.3907 8.5 12.1667 8.276 12.1667 8C12.1667 7.724 12.3907 7.5 12.6667 7.5H14C14.276 7.5 14.5 7.724 14.5 8ZM3.40399 4.11066C3.20866 3.91532 3.20866 3.59867 3.40399 3.40334C3.59933 3.20801 3.91599 3.20801 4.11133 3.40334L5.054 4.34601C5.24933 4.54134 5.24933 4.85799 5.054 5.05332C4.95666 5.15066 4.82866 5.19999 4.70066 5.19999C4.57266 5.19999 4.44466 5.15132 4.34733 5.05332L3.40399 4.11066ZM12.596 11.8893C12.7913 12.0847 12.7913 12.4013 12.596 12.5967C12.4987 12.694 12.3707 12.7433 12.2427 12.7433C12.1147 12.7433 11.9867 12.6947 11.8893 12.5967L10.9467 11.654C10.7513 11.4587 10.7513 11.142 10.9467 10.9467C11.142 10.7513 11.4587 10.7513 11.654 10.9467L12.596 11.8893ZM5.054 10.946C5.24933 11.1413 5.24933 11.458 5.054 11.6533L4.11133 12.596C4.01399 12.6933 3.886 12.7427 3.758 12.7427C3.63 12.7427 3.502 12.694 3.40466 12.596C3.20933 12.4007 3.20933 12.084 3.40466 11.8887L4.34733 10.946C4.542 10.7507 4.85866 10.7507 5.054 10.946ZM10.946 5.054C10.7507 4.85866 10.7507 4.54199 10.946 4.34666L11.8887 3.40399C12.084 3.20866 12.4007 3.20866 12.596 3.40399C12.7913 3.59933 12.7913 3.91599 12.596 4.11133L11.6533 5.054C11.556 5.15133 11.428 5.20066 11.3 5.20066C11.172 5.20066 11.044 5.15133 10.946 5.054Z" fill="#3B3B3E"/>
</svg>
