<svg width="16" height="16" viewBox="0 0 16 16" fill="none" xmlns="http://www.w3.org/2000/svg">
<path d="M8.00004 0.833008C4.04804 0.833008 0.833374 4.04767 0.833374 7.99967C0.833374 11.9517 4.04804 15.1663 8.00004 15.1663C11.952 15.1663 15.1667 11.9517 15.1667 7.99967C15.1667 4.04767 11.952 0.833008 8.00004 0.833008ZM8.00004 14.1663C4.59937 14.1663 1.83337 11.4003 1.83337 7.99967C1.83337 4.59901 4.59937 1.83301 8.00004 1.83301C11.4007 1.83301 14.1667 4.59901 14.1667 7.99967C14.1667 11.4003 11.4007 14.1663 8.00004 14.1663ZM10.0361 6.27768H9.33472L9.84269 5.10034C9.96402 4.81901 9.93669 4.49835 9.76803 4.24168C9.60003 3.98568 9.31602 3.83301 9.00936 3.83301H7.18469C6.71936 3.83301 6.31871 4.13101 6.17338 4.56901L5.10205 7.30567C5.01005 7.58167 5.05673 7.88767 5.22672 8.12301C5.39672 8.35901 5.67202 8.49967 5.96269 8.49967H6.68872L5.65739 11.5043C5.58206 11.7243 5.66802 11.967 5.86536 12.0903C5.94736 12.1417 6.03869 12.1663 6.12935 12.1663C6.25869 12.1663 6.38669 12.1163 6.48336 12.0197L10.676 7.82634C10.9367 7.56568 11.0141 7.17768 10.8727 6.83768C10.7341 6.49768 10.4047 6.27768 10.0361 6.27768ZM7.30603 9.78434L7.77938 8.40501C7.85138 8.19701 7.81802 7.96567 7.69002 7.78567C7.56202 7.60634 7.35403 7.499 7.13403 7.499H6.10006L7.11405 4.90835C7.13939 4.83235 7.17072 4.83234 7.18538 4.83234H8.86938L8.22672 6.32234C8.13539 6.53434 8.15605 6.77568 8.28271 6.96834C8.40938 7.16168 8.62338 7.27701 8.85404 7.27701H9.8127L7.30603 9.78434Z" fill="#3B3B3E"/>
</svg>
