<svg width="16" height="16" viewBox="0 0 16 16" fill="none" xmlns="http://www.w3.org/2000/svg">
<path d="M2.67002 14.4993C2.36535 14.4993 2.06947 14.3793 1.84547 14.1553C1.52947 13.84 1.4208 13.382 1.5608 12.9607L2.12135 11.2933C2.18668 11.0887 2.18076 10.8833 2.1041 10.7213C1.70943 9.87265 1.5027 8.93268 1.5027 7.99935C1.5027 4.41602 4.41806 1.5 8.0014 1.5C8.24806 1.5 8.48812 1.51467 8.72812 1.54333C9.00279 1.57667 9.19749 1.82602 9.16416 2.10002C9.13149 2.37402 8.8735 2.56868 8.60817 2.53601C8.4075 2.51134 8.2074 2.49935 8.0014 2.49935C4.9694 2.49935 2.5027 4.96599 2.5027 7.99866C2.5027 8.78732 2.67804 9.58134 3.00937 10.2947C3.19337 10.682 3.21735 11.148 3.07268 11.6034L2.51002 13.2773C2.48202 13.3607 2.52483 13.42 2.55283 13.448C2.58083 13.476 2.64072 13.5187 2.72405 13.4907L4.38942 12.9313C4.85208 12.784 5.31871 12.8067 5.71071 12.994C6.41871 13.3234 7.21273 13.4987 8.0014 13.4987C11.0341 13.4987 13.5007 11.032 13.5007 7.99935C13.5007 7.79335 13.4888 7.59333 13.4648 7.39266C13.4314 7.11866 13.6261 6.86935 13.9008 6.83602C14.1695 6.80335 14.4235 6.99801 14.4568 7.27201C14.4861 7.51201 14.5001 7.75132 14.5001 7.99866C14.5001 11.582 11.5847 14.498 8.00075 14.498C7.06808 14.498 6.12811 14.2907 5.28411 13.898C5.11878 13.8187 4.91278 13.8133 4.70078 13.8807L3.04143 14.438C2.91877 14.4793 2.79335 14.4993 2.67002 14.4993ZM14.5001 3.33333C14.5001 2.32267 13.6781 1.5 12.6668 1.5C11.6554 1.5 10.8334 2.32267 10.8334 3.33333C10.8334 4.344 11.6554 5.16667 12.6668 5.16667C13.6781 5.16667 14.5001 4.344 14.5001 3.33333ZM13.5001 3.33333C13.5001 3.79267 13.1261 4.16667 12.6668 4.16667C12.2074 4.16667 11.8334 3.79267 11.8334 3.33333C11.8334 2.874 12.2074 2.5 12.6668 2.5C13.1261 2.5 13.5001 2.874 13.5001 3.33333ZM8.68011 8C8.68011 7.632 8.38211 7.33333 8.01344 7.33333H8.00677C7.63877 7.33333 7.34336 7.632 7.34336 8C7.34336 8.368 7.64544 8.66667 8.01344 8.66667C8.38144 8.66667 8.68011 8.368 8.68011 8ZM11.3468 8C11.3468 7.632 11.0488 7.33333 10.6801 7.33333H10.6734C10.3054 7.33333 10.01 7.632 10.01 8C10.01 8.368 10.3121 8.66667 10.6801 8.66667C11.0481 8.66667 11.3468 8.368 11.3468 8ZM6.01344 8C6.01344 7.632 5.71544 7.33333 5.34677 7.33333H5.3401C4.9721 7.33333 4.67669 7.632 4.67669 8C4.67669 8.368 4.97877 8.66667 5.34677 8.66667C5.71477 8.66667 6.01344 8.368 6.01344 8Z" fill="#3B3B3E"/>
</svg>
