<svg width="16" height="16" viewBox="0 0 16 16" fill="none" xmlns="http://www.w3.org/2000/svg">
<path d="M8.00016 0.833008C4.04683 0.833008 0.833496 4.04634 0.833496 7.99967C0.833496 11.953 4.04683 15.1663 8.00016 15.1663C11.9535 15.1663 15.1668 11.953 15.1668 7.99967C15.1668 4.04634 11.9535 0.833008 8.00016 0.833008ZM8.00016 14.1663C4.60016 14.1663 1.8335 11.3997 1.8335 7.99967C1.8335 4.59967 4.60016 1.83301 8.00016 1.83301C11.4002 1.83301 14.1668 4.59967 14.1668 7.99967C14.1668 11.3997 11.4002 14.1663 8.00016 14.1663ZM8.00016 8.83301C6.44016 8.83301 5.09349 9.99301 4.86682 11.533C4.83349 11.7797 4.90018 12.0197 5.06018 12.2063C5.22018 12.3863 5.44685 12.493 5.68685 12.493H10.3002C10.5402 12.493 10.7735 12.3863 10.9268 12.2063C11.0868 12.0197 11.1602 11.773 11.1202 11.533C10.8935 9.99301 9.54682 8.83301 7.98682 8.83301H8.00016ZM5.89351 11.4997C6.12018 10.5397 6.9935 9.83301 8.00016 9.83301C9.00683 9.83301 9.88014 10.5397 10.1068 11.4997H5.88684H5.89351ZM11.0202 6.35301L10.7068 6.66634L11.0202 6.97967C11.2135 7.17301 11.2135 7.49301 11.0202 7.68634C10.9202 7.78634 10.7935 7.83301 10.6668 7.83301C10.5402 7.83301 10.4135 7.78634 10.3135 7.68634L10.0002 7.37301L9.68685 7.68634C9.58685 7.78634 9.46016 7.83301 9.3335 7.83301C9.20683 7.83301 9.08014 7.78634 8.98014 7.68634C8.78681 7.49301 8.78681 7.17301 8.98014 6.97967L9.2935 6.66634L8.98014 6.35301C8.78681 6.15967 8.78681 5.83967 8.98014 5.64634C9.17348 5.45301 9.49352 5.45301 9.68685 5.64634L10.0002 5.95968L10.3135 5.64634C10.5068 5.45301 10.8268 5.45301 11.0202 5.64634C11.2135 5.83967 11.2135 6.15967 11.0202 6.35301ZM4.98014 6.97967L5.2935 6.66634L4.98014 6.35301C4.78681 6.15967 4.78681 5.83967 4.98014 5.64634C5.17348 5.45301 5.49352 5.45301 5.68685 5.64634L6.00016 5.95968L6.31348 5.64634C6.50681 5.45301 6.82685 5.45301 7.02018 5.64634C7.21352 5.83967 7.21352 6.15967 7.02018 6.35301L6.70683 6.66634L7.02018 6.97967C7.21352 7.17301 7.21352 7.49301 7.02018 7.68634C6.92018 7.78634 6.7935 7.83301 6.66683 7.83301C6.54016 7.83301 6.41348 7.78634 6.31348 7.68634L6.00016 7.37301L5.68685 7.68634C5.58685 7.78634 5.46016 7.83301 5.3335 7.83301C5.20683 7.83301 5.08014 7.78634 4.98014 7.68634C4.78681 7.49301 4.78681 7.17301 4.98014 6.97967Z" fill="#3B3B3E"/>
</svg>
