<svg width="16" height="16" viewBox="0 0 16 16" fill="none" xmlns="http://www.w3.org/2000/svg">
<path d="M8.49979 7.00033V9.00033C8.49979 9.27633 8.27579 9.50033 7.99979 9.50033C7.72379 9.50033 7.49979 9.27633 7.49979 9.00033V7.00033C7.49979 6.72433 7.72379 6.50033 7.99979 6.50033C8.27579 6.50033 8.49979 6.72433 8.49979 7.00033ZM14.0218 13.0236C13.6085 13.5383 12.9924 13.8337 12.3324 13.8337H3.66712C3.00712 13.8337 2.39112 13.5383 1.97778 13.0236C1.56445 12.5089 1.40912 11.8437 1.55179 11.1991L3.11646 4.12695C3.37979 2.93629 4.28179 2.16699 5.41512 2.16699H10.5851C11.7185 2.16699 12.6205 2.93629 12.8838 4.12695L14.4485 11.1991C14.5905 11.8437 14.4351 12.5089 14.0218 13.0236ZM13.4718 11.415L11.9071 4.34294C11.7444 3.60627 11.2505 3.16699 10.5851 3.16699H8.50046V4.66699C8.50046 4.94299 8.27646 5.16699 8.00046 5.16699C7.72446 5.16699 7.50046 4.94299 7.50046 4.66699V3.16699H5.41578C4.75045 3.16699 4.25646 3.60627 4.09379 4.34294L2.52912 11.415C2.45246 11.7624 2.53579 12.1203 2.75845 12.3976C2.98045 12.675 3.31245 12.8337 3.66779 12.8337H7.50046V11.3337C7.50046 11.0577 7.72446 10.8337 8.00046 10.8337C8.27646 10.8337 8.50046 11.0577 8.50046 11.3337V12.8337H12.3331C12.6885 12.8337 13.0205 12.675 13.2425 12.3976C13.4645 12.1203 13.5484 11.7624 13.4718 11.415Z" fill="#3B3B3E"/>
</svg>
