<svg width="16" height="16" viewBox="0 0 16 16" fill="none" xmlns="http://www.w3.org/2000/svg">
<g clip-path="url(#clip0_36251_8997)">
<path d="M8.00016 0.833008C4.04683 0.833008 0.833496 4.04634 0.833496 7.99967C0.833496 11.553 3.38017 14.5263 6.88017 15.0797C7.02683 15.1063 7.17349 15.0597 7.28016 14.9663C7.39349 14.873 7.45349 14.733 7.45349 14.5863V9.99967C7.45349 9.72634 7.22682 9.49967 6.95349 9.49967H5.84016V8.49967H6.95349C7.22682 8.49967 7.45349 8.27301 7.45349 7.99967V6.53301C7.45349 4.85301 8.5535 4.49967 9.4735 4.49967C9.82683 4.49967 10.1935 4.53301 10.4668 4.56635V5.20634H10.1268C9.14683 5.20634 8.54016 5.79967 8.54016 6.74634V7.99967C8.54016 8.27301 8.76683 8.49967 9.04016 8.49967H10.3868L10.2335 9.49967H9.04016C8.76683 9.49967 8.54016 9.72634 8.54016 9.99967V14.5863C8.54016 14.733 8.60683 14.873 8.7135 14.9663C8.80683 15.0463 8.92016 15.0863 9.04016 15.0863C9.06683 15.0863 9.09349 15.0863 9.12016 15.0863C12.6268 14.5397 15.1668 11.5597 15.1668 8.00634C15.1668 4.053 11.9535 0.839671 8.00016 0.839671V0.833008ZM9.54016 13.973V10.4997H10.6668C10.9135 10.4997 11.1268 10.3197 11.1602 10.073L11.4602 8.07301C11.4802 7.92634 11.4402 7.77967 11.3468 7.673C11.2535 7.56634 11.1135 7.49967 10.9668 7.49967H9.54016V6.74634C9.54016 6.35967 9.70683 6.20634 10.1268 6.20634H10.9668C11.2402 6.20634 11.4668 5.97967 11.4668 5.70634V4.12634C11.4668 3.87968 11.2935 3.67301 11.0535 3.63301C11.0202 3.63301 10.2402 3.49301 9.48016 3.49301C7.62016 3.49301 6.46016 4.653 6.46016 6.52634V7.49301H5.34683C5.0735 7.49301 4.84683 7.71968 4.84683 7.99301V9.99301C4.84683 10.2663 5.0735 10.493 5.34683 10.493H6.46016V13.9663C3.74683 13.273 1.8335 10.853 1.8335 7.99301C1.8335 4.59301 4.60016 1.82634 8.00016 1.82634C11.4002 1.82634 14.1668 4.59301 14.1668 7.99301C14.1668 10.853 12.2535 13.273 9.54016 13.9663V13.973Z" fill="#3B3B3E"/>
</g>
<defs>
<clipPath id="clip0_36251_8997">
<rect width="16" height="16" fill="white"/>
</clipPath>
</defs>
</svg>
