<svg width="16" height="16" viewBox="0 0 16 16" fill="none" xmlns="http://www.w3.org/2000/svg">
<path d="M13.5003 11.2433L10.7323 6.88997C10.5796 6.64864 10.4982 6.37064 10.4982 6.08464V2.5H10.6669C10.9429 2.5 11.1669 2.276 11.1669 2C11.1669 1.724 10.9429 1.5 10.6669 1.5H5.33361C5.05761 1.5 4.83361 1.724 4.83361 2C4.83361 2.276 5.05761 2.5 5.33361 2.5H5.50231V6.08464C5.50231 6.37064 5.4216 6.64864 5.26826 6.88997L2.50028 11.244C2.07895 11.9066 2.05294 12.7127 2.43094 13.4007C2.80828 14.0894 3.50295 14.5 4.28828 14.5H11.7116C12.497 14.5 13.191 14.0894 13.569 13.4014C13.947 12.7134 13.9216 11.9067 13.5003 11.2433ZM6.11226 7.42594C6.36759 7.02461 6.50231 6.56064 6.50231 6.08464V2.5H9.49824V6.08464C9.49824 6.56064 9.63297 7.02461 9.8883 7.42594L10.5709 8.5H5.42891L6.11226 7.42594ZM12.6923 12.9199C12.4929 13.2833 12.1263 13.5 11.7116 13.5H4.28828C3.87362 13.5 3.50692 13.2826 3.30692 12.9193C3.10692 12.5559 3.12096 12.1299 3.34362 11.7806L4.79292 9.50065H11.2063L12.6556 11.7806C12.8783 12.1299 12.8923 12.5559 12.6923 12.9199Z" fill="#3B3B3E"/>
</svg>
