<svg width="16" height="16" viewBox="0 0 16 16" fill="none" xmlns="http://www.w3.org/2000/svg">
<path d="M14.5 9.51265C14.4993 8.18599 12.8113 7.164 10.5 7.03467V3.99333C10.4993 2.27133 8.24 1.5 6 1.5C3.76 1.5 1.50067 2.27066 1.5 3.99333V11.34C1.5 13.062 3.76 13.8333 6 13.8333C6.23133 13.8333 6.46867 13.812 6.70467 13.7887C7.56734 14.2707 8.78533 14.5 10 14.5C12.2393 14.5 14.5 13.7287 14.5 12.0067V9.51265C14.5 9.51332 14.5 9.51332 14.5 9.51265ZM13.5 9.514C13.5 10.2193 12.0033 11.008 10 11.008C7.99667 11.008 6.5 10.2193 6.5 9.514C6.5 9.25533 6.70468 8.98601 7.05868 8.74801C7.07068 8.74134 7.08002 8.73198 7.09135 8.72465C7.70735 8.32465 8.75533 8.02002 10 8.02002C12.0033 8.02002 13.5 8.80866 13.5 9.514ZM9.5 6.35335C9.5 6.65402 9.23599 6.90531 8.98466 7.08065C8.05733 7.19065 7.25667 7.45002 6.65601 7.81535C6.44267 7.83335 6.22798 7.84668 6.00065 7.84668C4.11532 7.84668 2.50065 7.02535 2.50065 6.35335V5.65202C3.36798 6.22002 4.68598 6.488 6.00065 6.488C7.31532 6.488 8.63332 6.22002 9.50065 5.65202V6.35335H9.5ZM2.5 7.89933C3.302 8.442 4.48268 8.78132 5.65934 8.83732C5.55801 9.05132 5.5 9.27668 5.5 9.51335C5.5 9.51335 5.5 9.51333 5.5 9.514V10.3193C3.83867 10.192 2.5 9.45933 2.5 8.84733V7.89933ZM6 2.5C7.72067 2.5 9.5 3.05869 9.5 3.99402C9.5 4.96469 7.69667 5.488 6 5.488C4.30333 5.488 2.5 4.96469 2.5 3.99402C2.5 3.05869 4.27933 2.5 6 2.5ZM2.5 11.34V10.3927C3.266 10.9107 4.376 11.2433 5.5 11.3207V12.0067C5.5 12.31 5.57333 12.582 5.70133 12.8274C4.07933 12.7667 2.5 12.2207 2.5 11.34ZM10 13.5C8.92067 13.5 7.81867 13.28 7.14734 12.8853C6.74801 12.6507 6.50065 12.3547 6.50065 12.0067V11.1174C7.31265 11.668 8.55665 12.008 10.0007 12.008C11.4447 12.008 12.6887 11.668 13.5007 11.1174V12.0067C13.5 12.9413 11.7207 13.5 10 13.5Z" fill="#3B3B3E"/>
</svg>
