<svg width="16" height="16" viewBox="0 0 16 16" fill="none" xmlns="http://www.w3.org/2000/svg">
<path d="M8.49992 2V4.66667C8.49992 6.06 7.49325 7.21333 6.16659 7.44667V14C6.16659 14.2733 5.93992 14.5 5.66659 14.5C5.39325 14.5 5.16659 14.2733 5.16659 14V7.44667C3.83992 7.20667 2.83325 6.05333 2.83325 4.66667V2C2.83325 1.72667 3.05992 1.5 3.33325 1.5C3.60659 1.5 3.83325 1.72667 3.83325 2V4.66667C3.83325 5.68 4.65325 6.5 5.66659 6.5C6.67992 6.5 7.49992 5.68 7.49992 4.66667V2C7.49992 1.72667 7.72658 1.5 7.99992 1.5C8.27325 1.5 8.49992 1.72667 8.49992 2ZM6.33325 5.5C6.60659 5.5 6.83325 5.27333 6.83325 5V2C6.83325 1.72667 6.60659 1.5 6.33325 1.5C6.05992 1.5 5.83325 1.72667 5.83325 2V5C5.83325 5.27333 6.05992 5.5 6.33325 5.5ZM4.99992 5.5C5.27325 5.5 5.49992 5.27333 5.49992 5V2C5.49992 1.72667 5.27325 1.5 4.99992 1.5C4.72659 1.5 4.49992 1.72667 4.49992 2V5C4.49992 5.27333 4.72659 5.5 4.99992 5.5ZM13.1666 2V14C13.1666 14.2733 12.9399 14.5 12.6666 14.5C12.3933 14.5 12.1666 14.2733 12.1666 14V10.5H9.99992C9.53992 10.5 9.16658 10.1267 9.16658 9.66667V6C9.16658 1.55333 12.6333 1.5 12.6666 1.5C12.9399 1.5 13.1666 1.72667 13.1666 2ZM12.1666 2.57333C11.4266 2.76667 10.1666 3.47333 10.1666 6V9.5H12.1666V2.57333Z" fill="#3B3B3E"/>
</svg>
