<svg width="16" height="16" viewBox="0 0 16 16" fill="none" xmlns="http://www.w3.org/2000/svg">
<path d="M11.75 14.5H4.25C2.47667 14.5 1.5 13.5233 1.5 11.75V4.25C1.5 2.47667 2.47667 1.5 4.25 1.5H11.75C13.5233 1.5 14.5 2.47667 14.5 4.25V11.75C14.5 13.5233 13.5233 14.5 11.75 14.5ZM4.25 2.5C3.02333 2.5 2.5 3.02333 2.5 4.25V11.75C2.5 12.9767 3.02333 13.5 4.25 13.5H11.75C12.9767 13.5 13.5 12.9767 13.5 11.75V4.25C13.5 3.02333 12.9767 2.5 11.75 2.5H4.25ZM8.68001 10.3333C8.68001 9.96533 8.38201 9.66667 8.01335 9.66667H8.00667C7.63867 9.66667 7.34326 9.96533 7.34326 10.3333C7.34326 10.7013 7.64535 11 8.01335 11C8.38135 11 8.68001 10.7013 8.68001 10.3333ZM8.5 8.04736V5C8.5 4.724 8.276 4.5 8 4.5C7.724 4.5 7.5 4.724 7.5 5V8.04736C7.5 8.32336 7.724 8.54736 8 8.54736C8.276 8.54736 8.5 8.32336 8.5 8.04736Z" fill="#3B3B3E"/>
</svg>
