<svg width="16" height="16" viewBox="0 0 16 16" fill="none" xmlns="http://www.w3.org/2000/svg">
<path d="M4.94198 14.4997C4.85064 14.4997 4.75931 14.475 4.67798 14.4237C4.48065 14.3004 4.39397 14.057 4.46997 13.837L6.30261 8.49902H4.66862C4.29395 8.49902 3.93994 8.31769 3.72127 8.01369C3.50261 7.71036 3.44328 7.3177 3.56128 6.96303L5.30864 2.50037C5.51064 1.8917 6.03461 1.49902 6.66728 1.49902H9.65328C10.0473 1.49902 10.4113 1.6957 10.628 2.02436C10.8446 2.3537 10.8806 2.76636 10.7246 3.1277L9.70129 5.49902H11.3326C11.806 5.49902 12.2293 5.78169 12.4106 6.21902C12.592 6.65636 12.4926 7.15569 12.158 7.49036L5.29663 14.3524C5.1993 14.4497 5.07131 14.4997 4.94198 14.4997ZM6.66663 2.49969C6.40129 2.49969 6.29063 2.7137 6.24797 2.8417L4.50061 7.30502C4.48594 7.35102 4.51394 7.40503 4.53194 7.43036C4.55061 7.45636 4.5933 7.4997 4.66797 7.4997H6.58195C6.83995 7.4997 7.08328 7.62503 7.23328 7.83436C7.38328 8.04369 7.42261 8.31503 7.33927 8.55903L6.11796 12.1177L11.4506 6.78436C11.5193 6.7157 11.5026 6.64103 11.4866 6.60303C11.4706 6.56503 11.4293 6.50037 11.3326 6.50037H9.3973C9.1273 6.50037 8.87796 6.36569 8.72929 6.14036C8.58062 5.91503 8.55597 5.6317 8.66264 5.3837L9.80664 2.73303C9.83731 2.66103 9.81131 2.60303 9.79264 2.57503C9.77398 2.54703 9.73197 2.49969 9.65397 2.49969H6.66663V2.49969ZM6.58195 8.4997H6.58862H6.58195Z" fill="#3B3B3E"/>
</svg>
