<svg width="16" height="16" viewBox="0 0 16 16" fill="none" xmlns="http://www.w3.org/2000/svg">
<path d="M12 1.5H4C2.388 1.5 1.5 2.388 1.5 4V12C1.5 13.612 2.388 14.5 4 14.5H12C13.612 14.5 14.5 13.612 14.5 12V4C14.5 2.388 13.612 1.5 12 1.5ZM4 2.5H12C13.0513 2.5 13.5 2.94867 13.5 4V7.5H2.5V4C2.5 2.94867 2.94867 2.5 4 2.5ZM12 13.5H4C2.94867 13.5 2.5 13.0513 2.5 12V8.5H13.5V12C13.5 13.0513 13.0513 13.5 12 13.5ZM7.16667 5.33333C7.16667 4.87333 7.54 4.5 8 4.5C8.46 4.5 8.83333 4.87333 8.83333 5.33333C8.83333 5.79333 8.46 6.16667 8 6.16667C7.54 6.16667 7.16667 5.79333 7.16667 5.33333ZM8.83333 10.6667C8.83333 11.1267 8.46 11.5 8 11.5C7.54 11.5 7.16667 11.1267 7.16667 10.6667C7.16667 10.2067 7.54 9.83333 8 9.83333C8.46 9.83333 8.83333 10.2067 8.83333 10.6667Z" fill="#3B3B3E"/>
</svg>
