<svg width="16" height="16" viewBox="0 0 16 16" fill="none" xmlns="http://www.w3.org/2000/svg">
<path d="M14.0027 2.00867C13.5167 1.51867 12.8153 1.36867 12.1713 1.62L6.34799 3.88611C5.24799 4.31411 4.36932 5.18932 3.93665 6.28732L1.62132 12.1654C1.36732 12.8107 1.51532 13.5147 2.00798 14.0027C2.33732 14.3293 2.76199 14.5007 3.19999 14.5007C3.41665 14.5007 3.63665 14.4588 3.84932 14.3728L9.70466 12.0027C10.7707 11.5707 11.6266 10.7108 12.054 9.64344L14.374 3.84331C14.6313 3.20197 14.4887 2.49934 14.0027 2.00867ZM13.446 3.47205L11.126 9.27267C10.7993 10.0887 10.1446 10.7461 9.32998 11.0761L3.47466 13.446C3.20466 13.5547 2.91932 13.498 2.71198 13.2933C2.50465 13.088 2.44532 12.8041 2.55199 12.5328L4.86732 6.65467C5.19798 5.81534 5.86998 5.14606 6.71065 4.81873L12.534 2.55278C12.622 2.51878 12.7107 2.502 12.798 2.502C12.98 2.502 13.154 2.57474 13.292 2.71408C13.4967 2.91808 13.554 3.20272 13.446 3.47205ZM8.81998 7.84005C8.82665 7.89339 8.83332 7.94671 8.83332 8.00005C8.83332 8.05338 8.82665 8.10671 8.81998 8.16004C8.80665 8.21337 8.79332 8.2667 8.76665 8.32003C8.74665 8.3667 8.71998 8.42001 8.69332 8.46001C8.65998 8.50667 8.62666 8.5533 8.58666 8.58663C8.43332 8.74663 8.21999 8.83338 7.99999 8.83338C7.77999 8.83338 7.56665 8.74663 7.41332 8.58663C7.37332 8.5533 7.33999 8.50667 7.30666 8.46001C7.27999 8.42001 7.25332 8.3667 7.23332 8.32003C7.20666 8.2667 7.19332 8.21337 7.17999 8.16004C7.17332 8.10671 7.16665 8.05338 7.16665 8.00005C7.16665 7.94671 7.17332 7.89339 7.17999 7.84005C7.19332 7.78672 7.20666 7.73339 7.23332 7.68006C7.25332 7.63339 7.27999 7.58009 7.30666 7.54009C7.33999 7.49342 7.37332 7.44679 7.41332 7.41346C7.71998 7.10012 8.27999 7.10012 8.58666 7.41346C8.62666 7.44679 8.65998 7.49342 8.69332 7.54009C8.71998 7.58009 8.74665 7.63339 8.76665 7.68006C8.79332 7.73339 8.80665 7.78672 8.81998 7.84005Z" fill="#3B3B3E"/>
</svg>
