<svg width="16" height="16" viewBox="0 0 16 16" fill="none" xmlns="http://www.w3.org/2000/svg">
<path d="M11.3686 14.4996H4.63195C3.58462 14.4996 2.68795 13.7517 2.49995 12.7217L1.52998 7.39963C1.41132 6.74563 1.65597 6.077 2.16931 5.655L6.62398 1.99298C7.42198 1.33698 8.57996 1.33698 9.37796 1.99298L13.8326 5.655C14.346 6.077 14.5906 6.74563 14.472 7.39963L13.502 12.7217C13.3127 13.7517 12.4159 14.4996 11.3686 14.4996ZM7.99995 2.5003C7.73595 2.5003 7.47325 2.58828 7.25858 2.76495L2.80399 6.42698C2.56999 6.61898 2.45863 6.92302 2.5133 7.22035L3.48327 12.5416C3.58394 13.0963 4.0673 13.499 4.6313 13.499H11.368C11.932 13.499 12.4147 13.0963 12.516 12.5416L13.486 7.21962C13.54 6.92229 13.4286 6.61898 13.1953 6.42698L8.7406 2.76495C8.5266 2.58895 8.26329 2.5003 7.99995 2.5003ZM13.0086 12.6316H13.0153H13.0086ZM5.68664 10.3656L7.22261 8.87766L8.06994 9.72296C8.26527 9.91762 8.52465 10.025 8.80065 10.025C9.07665 10.025 9.33663 9.91697 9.53063 9.72231L11.0206 8.23232C11.216 8.03698 11.216 7.72029 11.0206 7.52496C10.8253 7.32963 10.5086 7.32963 10.3133 7.52496L8.77591 9.0143L7.92858 8.169C7.52525 7.76633 6.86997 7.76632 6.46797 8.16965L4.97993 9.65769C4.7846 9.85302 4.7846 10.1696 4.97993 10.365C5.07727 10.4623 5.20529 10.5116 5.33329 10.5116C5.46129 10.5116 5.58931 10.4629 5.68664 10.3656Z" fill="#3B3B3E"/>
</svg>
