<svg width="16" height="16" viewBox="0 0 16 16" fill="none" xmlns="http://www.w3.org/2000/svg">
<path d="M11.3686 14.4996H4.63195C3.58462 14.4996 2.68795 13.7517 2.49995 12.7217L1.52998 7.39963C1.41132 6.74563 1.65597 6.077 2.16931 5.655L6.62398 1.99298C7.42198 1.33698 8.57996 1.33698 9.37796 1.99298L13.8326 5.655C14.346 6.077 14.5906 6.74563 14.472 7.39963L13.502 12.7217C13.3127 13.7517 12.4159 14.4996 11.3686 14.4996ZM7.99995 2.5003C7.73595 2.5003 7.47325 2.58828 7.25858 2.76495L2.80399 6.42698C2.56999 6.61898 2.45863 6.92302 2.5133 7.22035L3.48327 12.5416C3.58394 13.0963 4.0673 13.499 4.6313 13.499H11.368C11.932 13.499 12.4147 13.0963 12.516 12.5416L13.486 7.21962C13.54 6.92229 13.4286 6.61898 13.1953 6.42698L8.7406 2.76495C8.5266 2.58895 8.26329 2.5003 7.99995 2.5003ZM13.0086 12.6316H13.0153H13.0086ZM7.99995 8.69968C7.11795 8.69968 6.39994 7.98167 6.39994 7.09967C6.39994 6.21767 7.11795 5.49965 7.99995 5.49965C8.88195 5.49965 9.59997 6.21767 9.59997 7.09967C9.59997 7.98167 8.88195 8.69968 7.99995 8.69968ZM7.99995 6.49965C7.66929 6.49965 7.39994 6.769 7.39994 7.09967C7.39994 7.43033 7.66929 7.69968 7.99995 7.69968C8.33062 7.69968 8.59997 7.43033 8.59997 7.09967C8.59997 6.769 8.33062 6.49965 7.99995 6.49965ZM9.99995 11.833C9.72395 11.833 9.49995 11.609 9.49995 11.333V11.131C9.49995 10.651 9.1686 10.1663 8.42793 10.1663H7.57263C6.83196 10.1663 6.5006 10.651 6.5006 11.131V11.333C6.5006 11.609 6.2766 11.833 6.0006 11.833C5.7246 11.833 5.5006 11.609 5.5006 11.333V11.131C5.5006 10.155 6.21196 9.16632 7.57263 9.16632H8.42793C9.7886 9.16632 10.5 10.1543 10.5 11.131V11.333C10.5 11.609 10.276 11.833 9.99995 11.833Z" fill="#3B3B3E"/>
</svg>
