<svg width="16" height="16" viewBox="0 0 16 16" fill="none" xmlns="http://www.w3.org/2000/svg">
<path d="M8.00002 14.5C7.90335 14.5 7.80669 14.472 7.72269 14.416L7.37002 14.182C5.29802 12.8133 2.16669 10.7453 2.16669 7.33333C2.16669 4.11667 4.78335 1.5 8.00002 1.5C11.2167 1.5 13.8334 4.11667 13.8334 7.33333C13.8334 10.7453 10.702 12.8133 8.63003 14.182L8.27735 14.416C8.19335 14.472 8.09669 14.5 8.00002 14.5ZM8.00002 2.5C5.33469 2.5 3.16669 4.668 3.16669 7.33333C3.16669 10.2073 5.91468 12.0227 7.92068 13.3473L8.00002 13.4001L8.07936 13.3473C10.086 12.022 12.8334 10.2073 12.8334 7.33333C12.8334 4.668 10.6654 2.5 8.00002 2.5Z" fill="#3B3B3E"/>
</svg>
