<svg width="16" height="16" viewBox="0 0 16 16" fill="none" xmlns="http://www.w3.org/2000/svg">
<path d="M11.0197 5.68627C10.9224 5.78361 10.7944 5.83292 10.6664 5.83292C10.5384 5.83292 10.4103 5.78427 10.313 5.68627L8.49969 3.87296V13.3329C8.49969 13.6089 8.27569 13.8329 7.99969 13.8329C7.72369 13.8329 7.49969 13.6089 7.49969 13.3329V3.87361L5.68638 5.68693C5.49104 5.88226 5.17435 5.88226 4.97902 5.68693C4.78369 5.49159 4.78369 5.1749 4.97902 4.97957L7.64569 2.3129C7.69169 2.2669 7.74695 2.23033 7.80828 2.20499C7.93028 2.15433 8.06828 2.15433 8.19028 2.20499C8.25162 2.23033 8.30704 2.2669 8.35304 2.3129L11.0197 4.97957C11.215 5.1749 11.215 5.49094 11.0197 5.68627Z" fill="#3B3B3E"/>
</svg>
