<svg width="16" height="16" viewBox="0 0 16 16" fill="none" xmlns="http://www.w3.org/2000/svg">
<path d="M11.1399 6.69334C11.2266 6.95334 11.0933 7.23999 10.8333 7.32666C10.5733 7.41333 10.2866 7.28 10.1999 7.02C10.1199 6.78 9.69992 6.78 9.61325 7.02C9.53992 7.22667 9.34659 7.36001 9.13992 7.36001C9.08659 7.36001 9.03325 7.35333 8.97992 7.33333C8.71992 7.24667 8.57992 6.95999 8.66658 6.69999C8.84658 6.17333 9.34659 5.82001 9.90659 5.82001C10.4666 5.82001 10.9599 6.17333 11.1466 6.69999L11.1399 6.69334ZM5.80659 7.02C5.88659 6.78 6.30658 6.78 6.39325 7.02C6.46658 7.22667 6.65992 7.36001 6.86659 7.36001C6.91992 7.36001 6.97325 7.35333 7.02658 7.33333C7.28658 7.24667 7.42658 6.95999 7.33991 6.69999C7.15991 6.17333 6.65991 5.82001 6.09991 5.82001C5.53991 5.82001 5.04658 6.17333 4.85991 6.69999C4.77325 6.95999 4.90659 7.24667 5.16659 7.33333C5.42659 7.42667 5.71325 7.28667 5.79992 7.02667L5.80659 7.02ZM14.7199 10.3867C14.4799 10.6333 14.1666 10.7733 13.8399 10.8133C12.7599 13.06 10.5133 14.5 7.99992 14.5C5.48659 14.5 3.23992 13.06 2.15992 10.8133C1.83326 10.7733 1.51992 10.6267 1.27992 10.3867C0.993251 10.1 0.833252 9.72001 0.833252 9.32001C0.833252 8.92001 0.999923 8.52666 1.30659 8.22666C1.36659 8.16666 1.43325 8.11999 1.50658 8.07332C1.50658 8.04666 1.50658 8.02667 1.50658 8C1.50658 4.41333 4.41991 1.5 8.00658 1.5C11.5932 1.5 14.5066 4.41333 14.5066 8C14.5066 8.02667 14.5066 8.04666 14.5066 8.07332C14.5732 8.11999 14.6466 8.17333 14.7066 8.22666C15.0066 8.52666 15.1733 8.92001 15.1799 9.32001C15.1799 9.72001 15.0266 10.0933 14.7333 10.3867H14.7199ZM1.83325 9.32666C1.83325 9.45333 1.88658 9.57999 1.98658 9.67999C2.08658 9.77999 2.20658 9.83333 2.33991 9.83333C2.47991 9.83333 2.61326 9.77334 2.73326 9.65334C2.92659 9.46001 3.05325 8.99332 3.11991 8.55332C2.79991 8.59999 2.47992 8.68 2.24658 8.79334C2.24658 8.79334 2.23325 8.79334 2.22658 8.80001C2.13992 8.84001 2.06658 8.88667 2.01992 8.94C1.90658 9.05334 1.83991 9.19333 1.83991 9.33333L1.83325 9.32666ZM12.8399 10.58C12.7399 10.52 12.6466 10.4467 12.5666 10.36C11.9133 9.70667 11.8466 8.28666 11.8333 8.01333C11.8333 7.87333 11.8799 7.74667 11.9799 7.64667C12.0799 7.54667 12.2066 7.49333 12.3466 7.5C12.4933 7.5 12.9733 7.52667 13.4799 7.64667C13.2999 4.78 10.9133 2.5 7.99992 2.5C5.08659 2.5 2.69992 4.78 2.51992 7.64667C3.03325 7.52667 3.50658 7.5 3.65325 7.5C3.79325 7.49333 3.91992 7.54667 4.01992 7.64667C4.11992 7.74667 4.16659 7.87333 4.16659 8.01333C4.15992 8.29333 4.08658 9.70667 3.43325 10.36C3.34658 10.4467 3.25326 10.52 3.15992 10.58C4.11326 12.36 5.95325 13.5 7.99992 13.5C10.0466 13.5 11.8866 12.3667 12.8399 10.58ZM14.1666 9.32666C14.1666 9.18666 14.1066 9.05333 13.9866 8.93333C13.9332 8.88 13.8599 8.83334 13.7799 8.79334C13.7799 8.79334 13.7666 8.79333 13.7599 8.78666C13.5266 8.67333 13.1999 8.59334 12.8866 8.54667C12.9533 8.99334 13.0799 9.46 13.2733 9.64667C13.3866 9.76 13.5266 9.82666 13.6666 9.82666C13.7933 9.82666 13.9199 9.77334 14.0199 9.67334C14.1199 9.57334 14.1732 9.44667 14.1732 9.32001L14.1666 9.32666ZM10.3732 9.02C10.5866 9.2 10.6799 9.48668 10.6133 9.76001C10.3333 10.98 9.25992 11.8333 7.99992 11.8333C6.73992 11.8333 5.66659 10.98 5.38659 9.76001C5.32659 9.48668 5.41325 9.20667 5.62659 9.02C5.84659 8.82667 6.15991 8.77332 6.43325 8.88666C7.48658 9.30666 8.50659 9.30666 9.55325 8.88666C9.82659 8.77999 10.1399 8.82667 10.3599 9.02H10.3732ZM9.47326 9.98C8.49992 10.2733 7.51325 10.2733 6.53992 9.98C6.83325 10.5 7.37991 10.8333 8.00658 10.8333C8.63325 10.8333 9.18659 10.5 9.47326 9.98V9.98Z" fill="#3B3B3E"/>
</svg>
