<svg width="16" height="16" viewBox="0 0 16 16" fill="none" xmlns="http://www.w3.org/2000/svg">
<g clip-path="url(#clip0_36251_7358)">
<path d="M6.67269 7.16667C8.23536 7.16667 9.50602 5.89533 9.50602 4.33333C9.50602 2.77133 8.23536 1.5 6.67269 1.5C5.11002 1.5 3.83936 2.77133 3.83936 4.33333C3.83936 5.89533 5.11002 7.16667 6.67269 7.16667ZM6.67269 2.5C7.68402 2.5 8.50602 3.322 8.50602 4.33333C8.50602 5.34467 7.68402 6.16667 6.67269 6.16667C5.66136 6.16667 4.83936 5.34467 4.83936 4.33333C4.83936 3.322 5.66136 2.5 6.67269 2.5ZM8.58732 9.20671C8.41932 9.17937 8.22733 9.16667 8 9.16667H5.33333C2.70467 9.16667 2.5 11.346 2.5 12.0133C2.5 13.0553 2.94867 13.5 4 13.5H7.33333C7.60933 13.5 7.83333 13.724 7.83333 14C7.83333 14.276 7.60933 14.5 7.33333 14.5H4C2.388 14.5 1.5 13.6167 1.5 12.0133C1.5 10.2387 2.504 8.16667 5.33333 8.16667H8C8.28067 8.16667 8.52468 8.18397 8.74601 8.21997C9.01868 8.2633 9.20466 8.51998 9.15999 8.79264C9.11666 9.06531 8.85199 9.25004 8.58732 9.20671ZM14.822 11.6654L14.9106 11.616C15.0286 11.55 15.1147 11.4393 15.1493 11.3093C15.1847 11.1787 15.1647 11.04 15.096 10.924L14.4854 9.89868C14.3467 9.66602 14.05 9.58602 13.8114 9.71802L13.7227 9.76733C13.5913 9.84133 13.4266 9.842 13.2933 9.76733C13.1686 9.69733 13.0913 9.56933 13.0913 9.434C13.0913 9.10333 12.8214 8.83464 12.4887 8.83464H11.4727C11.14 8.83464 10.87 9.10333 10.87 9.434C10.87 9.57 10.7926 9.69733 10.668 9.76733C10.5353 9.842 10.3707 9.842 10.2387 9.76733C9.95469 9.60933 9.59203 9.70598 9.42603 9.98332L8.91732 10.8373C8.83532 10.974 8.81132 11.1413 8.85132 11.2953C8.89199 11.45 8.99534 11.5846 9.13534 11.664C9.14 11.666 9.14402 11.6686 9.14868 11.6713C9.26802 11.7426 9.34131 11.8673 9.34131 12C9.34198 12.1367 9.26465 12.2653 9.13599 12.3373C8.99665 12.4167 8.8933 12.5507 8.85197 12.7047C8.81064 12.86 8.83335 13.0227 8.91602 13.1627L9.42668 14.018C9.59468 14.2993 9.95067 14.3947 10.2393 14.2333C10.3707 14.1593 10.5346 14.1593 10.668 14.234C10.7926 14.304 10.8693 14.4313 10.8693 14.5673C10.8693 14.898 11.1394 15.1667 11.4714 15.1667H12.4893C12.8213 15.1667 13.0913 14.898 13.0913 14.5673C13.0913 14.4313 13.1686 14.304 13.2933 14.234C13.426 14.1593 13.5907 14.1593 13.7227 14.234C14.0073 14.392 14.3687 14.2953 14.5353 14.018L15.0474 13.1593C15.1287 13.0207 15.1506 12.8587 15.1093 12.7034C15.068 12.5474 14.9667 12.4173 14.826 12.3373C14.822 12.3353 14.8173 12.3326 14.8133 12.3306C14.694 12.2593 14.6207 12.134 14.6207 12.0013C14.6214 11.864 14.6987 11.7354 14.822 11.6654ZM14.006 12.9526L13.848 13.218C13.498 13.1347 13.1227 13.1826 12.804 13.362C12.4867 13.5406 12.2567 13.8313 12.1533 14.1667H11.81C11.7073 13.832 11.4773 13.5413 11.1593 13.362C10.8413 13.1826 10.4646 13.1334 10.1153 13.218L9.95736 12.9534C10.2027 12.6974 10.344 12.356 10.3427 11.9967C10.342 11.64 10.2 11.3014 9.95736 11.0474L10.1153 10.782C10.4646 10.8653 10.8407 10.818 11.1593 10.638C11.4767 10.4594 11.7066 10.1687 11.81 9.83333H12.1533C12.256 10.168 12.4867 10.4587 12.804 10.638C13.1234 10.818 13.5 10.866 13.848 10.782L14.006 11.0474C13.762 11.3027 13.6207 11.6433 13.6213 12.0013C13.6213 12.3586 13.7627 12.698 14.006 12.9526ZM12.68 12C12.68 12.368 12.382 12.6667 12.0133 12.6667C11.6453 12.6667 11.3433 12.368 11.3433 12C11.3433 11.632 11.6387 11.3333 12.0067 11.3333H12.0133C12.3813 11.3333 12.68 11.632 12.68 12Z" fill="#3B3B3E"/>
</g>
<defs>
<clipPath id="clip0_36251_7358">
<rect width="16" height="16" fill="white"/>
</clipPath>
</defs>
</svg>
