<svg width="16" height="16" viewBox="0 0 16 16" fill="none" xmlns="http://www.w3.org/2000/svg">
<path d="M11.5002 8.49967C11.5002 9.60234 10.6028 10.4997 9.50016 10.4997H6.00016C5.72416 10.4997 5.50016 10.2757 5.50016 9.99967C5.50016 9.72367 5.72416 9.49967 6.00016 9.49967H9.50016C10.0515 9.49967 10.5002 9.05101 10.5002 8.49967C10.5002 7.94834 10.0515 7.49967 9.50016 7.49967H6.20752L6.35417 7.64632C6.5495 7.84165 6.5495 8.15834 6.35417 8.35368C6.25683 8.45101 6.12881 8.50033 6.00081 8.50033C5.87281 8.50033 5.74479 8.45168 5.64746 8.35368L4.64746 7.35368C4.60146 7.30768 4.56488 7.25241 4.53955 7.19108C4.48888 7.06908 4.48888 6.93108 4.53955 6.80908C4.56488 6.74775 4.60146 6.69232 4.64746 6.64632L5.64746 5.64632C5.84279 5.45099 6.15948 5.45099 6.35482 5.64632C6.55015 5.84165 6.55015 6.15834 6.35482 6.35368L6.20817 6.50033H9.50081C10.6028 6.49966 11.5002 7.39701 11.5002 8.49967ZM15.1668 7.99967C15.1668 11.9517 11.9522 15.1663 8.00016 15.1663C4.04816 15.1663 0.833496 11.9517 0.833496 7.99967C0.833496 4.04767 4.04816 0.833008 8.00016 0.833008C11.9522 0.833008 15.1668 4.04767 15.1668 7.99967ZM14.1668 7.99967C14.1668 4.59901 11.4008 1.83301 8.00016 1.83301C4.5995 1.83301 1.8335 4.59901 1.8335 7.99967C1.8335 11.4003 4.5995 14.1663 8.00016 14.1663C11.4008 14.1663 14.1668 11.4003 14.1668 7.99967Z" fill="#3B3B3E"/>
</svg>
