<svg width="16" height="16" viewBox="0 0 16 16" fill="none" xmlns="http://www.w3.org/2000/svg">
<path d="M8.00002 5.49963C6.62135 5.49963 5.50002 6.62096 5.50002 7.99963C5.50002 9.3783 6.62135 10.4996 8.00002 10.4996C9.37869 10.4996 10.5 9.3783 10.5 7.99963C10.5 6.62096 9.37869 5.49963 8.00002 5.49963ZM8.00002 9.49963C7.17269 9.49963 6.50002 8.82696 6.50002 7.99963C6.50002 7.17229 7.17269 6.49963 8.00002 6.49963C8.82735 6.49963 9.50002 7.17229 9.50002 7.99963C9.50002 8.82696 8.82735 9.49963 8.00002 9.49963ZM12.8154 4.12097L9.14869 1.82895C8.45069 1.39295 7.55002 1.39295 6.85202 1.82895L3.18535 4.12097C2.54735 4.51963 2.16736 5.20629 2.16736 5.95829V10.041C2.16736 10.793 2.54802 11.4796 3.18535 11.8783L6.85202 14.1703C7.20069 14.3883 7.60069 14.497 8.00069 14.497C8.40069 14.497 8.80002 14.3876 9.14935 14.1703L12.816 11.8783C13.454 11.4796 13.834 10.793 13.834 10.041V5.95829C13.8334 5.20629 13.4527 4.51963 12.8154 4.12097ZM12.8334 10.041C12.8334 10.4456 12.628 10.8156 12.2853 11.0303L8.61868 13.3223C8.24335 13.557 7.75735 13.557 7.38202 13.3223L3.71535 11.0303C3.37202 10.8156 3.16736 10.4463 3.16736 10.041V5.95829C3.16736 5.55362 3.37269 5.18363 3.71535 4.96897L7.38202 2.67696C7.57002 2.55962 7.78536 2.50097 8.00069 2.50097C8.21603 2.50097 8.43135 2.55962 8.61935 2.67696L12.286 4.96897C12.6294 5.18363 12.834 5.55295 12.834 5.95829V10.041H12.8334Z" fill="#3B3B3E"/>
</svg>
