<svg width="16" height="16" viewBox="0 0 16 16" fill="none" xmlns="http://www.w3.org/2000/svg">
<path d="M11.75 14.5H4.25C2.47667 14.5 1.5 13.5233 1.5 11.75V4.25C1.5 2.47667 2.47667 1.5 4.25 1.5H11.75C13.5233 1.5 14.5 2.47667 14.5 4.25V11.75C14.5 13.5233 13.5233 14.5 11.75 14.5ZM4.25 2.5C3.02333 2.5 2.5 3.02333 2.5 4.25V11.75C2.5 12.9767 3.02333 13.5 4.25 13.5H11.75C12.9767 13.5 13.5 12.9767 13.5 11.75V4.25C13.5 3.02333 12.9767 2.5 11.75 2.5H4.25ZM11.1667 6.66667C11.1667 6.39067 10.9427 6.16667 10.6667 6.16667H5.33333C5.05733 6.16667 4.83333 6.39067 4.83333 6.66667C4.83333 6.94267 5.05733 7.16667 5.33333 7.16667H10.6667C10.9433 7.16667 11.1667 6.94267 11.1667 6.66667ZM11.1667 9.33333C11.1667 9.05733 10.9427 8.83333 10.6667 8.83333H5.33333C5.05733 8.83333 4.83333 9.05733 4.83333 9.33333C4.83333 9.60933 5.05733 9.83333 5.33333 9.83333H10.6667C10.9433 9.83333 11.1667 9.60933 11.1667 9.33333Z" fill="#3B3B3E"/>
</svg>
