<svg width="16" height="16" viewBox="0 0 16 16" fill="none" xmlns="http://www.w3.org/2000/svg">
<path d="M12.758 6.80798V3C12.758 2.06067 12.1973 1.5 11.258 1.5H4.64465C3.69132 1.5 3.14465 2.04667 3.14465 3V6.87467C2.95932 7.02734 2.83398 7.25002 2.83398 7.50802V7.94666C2.83398 8.71532 3.31932 9.40799 4.06466 9.67733L6.28068 10.362C6.49868 10.4414 6.63265 10.6567 6.60665 10.8873L6.40865 12.6773C6.35732 13.1407 6.50601 13.606 6.81734 13.9533C7.12868 14.3007 7.57465 14.5 8.04065 14.5C8.50732 14.5 8.95266 14.3007 9.264 13.9533C9.57533 13.606 9.72398 13.1407 9.67265 12.6773L9.474 10.8813C9.44867 10.6527 9.58133 10.4373 9.77266 10.366L11.9733 9.67265C12.6873 9.40732 13.1673 8.71669 13.1673 7.95402V7.50802C13.1667 7.20735 12.998 6.95465 12.758 6.80798ZM4.644 2.5H9.50065V4C9.50065 4.276 9.72465 4.5 10.0007 4.5C10.2767 4.5 10.5007 4.276 10.5007 4V2.5H11.2573C11.65 2.5 11.7573 2.60733 11.7573 3V6.67468H4.14335V3C4.14402 2.60733 4.25134 2.5 4.644 2.5ZM12.1667 7.95402C12.1667 8.30069 11.9487 8.61468 11.648 8.72668L9.448 9.42C8.802 9.66 8.404 10.306 8.47933 10.9913L8.67802 12.7874C8.69869 12.9714 8.64198 13.1487 8.51798 13.2867C8.27065 13.562 7.80799 13.5627 7.56132 13.2867C7.43799 13.1487 7.38066 12.9714 7.40133 12.7874L7.59932 10.9973C7.67532 10.3073 7.27331 9.65934 6.59798 9.41467L4.38135 8.72998C4.05335 8.61065 3.83268 8.29599 3.83268 7.94666V7.67468H12.166V7.95402H12.1667Z" fill="#3B3B3E"/>
</svg>
