<svg width="16" height="16" viewBox="0 0 16 16" fill="none" xmlns="http://www.w3.org/2000/svg">
<path d="M7.80876 1.50152C6.48276 1.45952 5.24218 1.94827 4.29818 2.86627C3.35351 3.78427 2.8335 5.01557 2.8335 6.3329C2.8335 7.5029 3.32883 8.65086 4.34749 9.84153C4.84216 10.4202 5.16683 10.8516 5.16683 11.5476V11.9996C5.16683 13.4949 6.17215 14.4996 7.66748 14.4996C9.16281 14.4996 10.1675 13.4949 10.1675 11.9996V11.5442C10.1675 10.8388 10.4949 10.4055 10.9575 9.86887C11.7342 8.96754 12.5255 7.83751 12.4995 6.28684C12.4575 3.72151 10.3528 1.57419 7.80876 1.50152ZM7.66683 13.4996C6.7275 13.4996 6.16683 12.9389 6.16683 11.9996V11.8329H9.16748V11.9996C9.16748 12.9389 8.60616 13.4996 7.66683 13.4996ZM10.1995 9.2162C9.79088 9.6902 9.41413 10.1769 9.25147 10.8329H8.16683V8.87359L9.35352 7.68691C9.54885 7.49157 9.54885 7.17488 9.35352 6.97955C9.15818 6.78422 8.84149 6.78422 8.64616 6.97955L7.66618 7.95953L6.6862 6.97955C6.49086 6.78422 6.17417 6.78422 5.97884 6.97955C5.78351 7.17488 5.78351 7.49157 5.97884 7.68691L7.16553 8.87359V10.8329H6.07943C5.91676 10.1869 5.5401 9.69829 5.10677 9.19163C4.24877 8.18963 3.83219 7.25424 3.83219 6.3329C3.83219 5.28824 4.24481 4.31155 4.99414 3.58355C5.71614 2.88222 6.66021 2.49957 7.66488 2.49957C7.70288 2.49957 7.74081 2.5002 7.77881 2.50087C9.79548 2.55887 11.4642 4.26429 11.4982 6.30295C11.5195 7.51829 10.8535 8.45754 10.1995 9.2162Z" fill="#3B3B3E"/>
</svg>
