<svg width="16" height="16" viewBox="0 0 16 16" fill="none" xmlns="http://www.w3.org/2000/svg">
<path d="M13.3667 6.95333L13.3067 6.5H14C14.2733 6.5 14.5 6.27333 14.5 6C14.5 5.72667 14.2733 5.5 14 5.5H13.18L13.1067 4.92667C12.9467 3.94667 12.76 2.83333 10.64 2.83333H5.36002C3.24002 2.83333 3.05335 3.94667 2.88668 4.94L2.81335 5.5H1.99335C1.72001 5.5 1.49335 5.72667 1.49335 6C1.49335 6.27333 1.72001 6.5 1.99335 6.5H2.68668L2.62668 6.95333C2.30002 7.06667 2.06001 7.24667 1.92001 7.40667C1.58668 7.78667 1.44001 8.31333 1.51335 8.89333L1.77335 10.9733C1.86668 11.7333 2.13335 12.6933 3.16001 13.0267V13.9933C3.16001 14.2667 3.38668 14.4933 3.66001 14.4933C3.93335 14.4933 4.16001 14.2667 4.16001 13.9933V13.16H11.8267V13.9933C11.8267 14.2667 12.0534 14.4933 12.3267 14.4933C12.6 14.4933 12.8267 14.2667 12.8267 13.9933V13.0267C13.8534 12.6867 14.12 11.7333 14.2134 10.9733L14.4734 8.89333C14.5467 8.31333 14.4 7.78667 14.0667 7.40667C13.92 7.24 13.6867 7.06667 13.36 6.95333H13.3667ZM5.36002 3.83333H10.64C11.9133 3.83333 11.9667 4.14667 12.12 5.07333L12.3467 6.83333H3.66001L3.88002 5.08667C4.03335 4.14667 4.08668 3.83333 5.36002 3.83333V3.83333ZM13.2267 10.8533C13.1 11.8467 12.8067 12.1667 12 12.1667H4.00002C3.19335 12.1667 2.89335 11.8467 2.77335 10.8533L2.51335 8.77334C2.48001 8.48667 2.53335 8.23333 2.68001 8.07333C2.82001 7.91333 3.04002 7.83333 3.34002 7.83333H12.6667C12.9667 7.83333 13.1867 7.91333 13.3267 8.07333C13.4667 8.23333 13.5267 8.48 13.4934 8.77334L13.2334 10.8533H13.2267ZM6.50002 2C6.50002 1.72667 6.72668 1.5 7.00002 1.5H9.00002C9.27335 1.5 9.50002 1.72667 9.50002 2C9.50002 2.27333 9.27335 2.5 9.00002 2.5H7.00002C6.72668 2.5 6.50002 2.27333 6.50002 2ZM12.02 9.64667C12.1133 9.74 12.1667 9.86667 12.1667 10C12.1667 10.0667 12.1534 10.1333 12.1267 10.1933C12.1 10.2533 12.0667 10.3067 12.02 10.3533C11.9267 10.4467 11.8 10.5 11.6667 10.5C11.5333 10.5 11.4067 10.4467 11.3133 10.3533C11.2667 10.3067 11.2333 10.2533 11.2067 10.1933C11.18 10.1333 11.1667 10.0667 11.1667 10C11.1667 9.86667 11.22 9.74 11.3133 9.64667C11.5 9.46 11.8333 9.46 12.02 9.64667ZM4.68668 9.64667C4.78001 9.74 4.83335 9.86667 4.83335 10C4.83335 10.0667 4.82002 10.1267 4.79335 10.1933C4.76668 10.2533 4.73335 10.3067 4.68668 10.3533C4.64001 10.4 4.58668 10.4333 4.52668 10.46C4.46668 10.4867 4.40002 10.5 4.33335 10.5C4.20002 10.5 4.07335 10.4467 3.98002 10.3533C3.93335 10.3067 3.90001 10.2533 3.87335 10.1933C3.84668 10.1267 3.83335 10.0667 3.83335 10C3.83335 9.93333 3.84668 9.86667 3.87335 9.80667C3.90001 9.74667 3.93335 9.69333 3.98002 9.64667C4.02668 9.6 4.08001 9.56667 4.14001 9.54C4.26668 9.48667 4.40002 9.48667 4.52668 9.54C4.58668 9.56 4.64001 9.6 4.68668 9.64667V9.64667ZM10.1667 10C10.1667 10.2733 9.94002 10.5 9.66668 10.5H6.33335C6.06002 10.5 5.83335 10.2733 5.83335 10C5.83335 9.72667 6.06002 9.5 6.33335 9.5H9.66668C9.94002 9.5 10.1667 9.72667 10.1667 10Z" fill="#3B3B3E"/>
</svg>
