<svg width="16" height="16" viewBox="0 0 16 16" fill="none" xmlns="http://www.w3.org/2000/svg">
<path d="M5.94263 12.4997C5.55996 12.4997 5.23132 12.2458 5.13599 11.8718L4.30998 8.6231C4.29131 8.5491 4.22468 8.49777 4.14868 8.49777H2C1.724 8.49777 1.5 8.27377 1.5 7.99777C1.5 7.72177 1.724 7.49777 2 7.49777H4.14868C4.68335 7.49777 5.14798 7.859 5.27865 8.377L5.91463 10.8777L7.22331 3.5204C7.29264 3.1264 7.62132 2.84373 8.02132 2.83306C8.42599 2.81306 8.76464 3.08709 8.85531 3.47775L10.1767 9.16167L10.702 8.13368C10.9027 7.74168 11.3 7.49777 11.7414 7.49777H14C14.276 7.49777 14.5 7.72177 14.5 7.99777C14.5 8.27377 14.276 8.49777 14 8.49777H11.7414C11.678 8.49777 11.6214 8.53243 11.5927 8.58843L10.8593 10.023C10.6993 10.3377 10.3694 10.5151 10.016 10.4711C9.6647 10.4284 9.38599 10.1777 9.30599 9.83241L8.06535 4.49435L6.764 11.8111C6.69466 12.2011 6.36931 12.4838 5.97331 12.4984C5.96331 12.4998 5.95329 12.4997 5.94263 12.4997Z" fill="#3B3B3E"/>
</svg>
