<svg width="16" height="16" viewBox="0 0 16 16" fill="none" xmlns="http://www.w3.org/2000/svg">
<path d="M2.00068 7.8667C1.98268 7.8667 1.96403 7.86601 1.94603 7.86401C1.67137 7.83401 1.4727 7.58666 1.50337 7.31266C1.7447 5.10066 3.07935 3.19668 5.07335 2.21802C5.22869 2.14202 5.41135 2.15134 5.55801 2.24268C5.70468 2.33401 5.79402 2.49465 5.79402 2.66732V4.70068C5.79402 4.97668 5.57002 5.20068 5.29402 5.20068C5.01802 5.20068 4.79402 4.97668 4.79402 4.70068V3.54004C3.51135 4.43204 2.67068 5.83337 2.49735 7.42204C2.46868 7.6767 2.25268 7.8667 2.00068 7.8667ZM14.054 8.13664C13.782 8.1073 13.5334 8.30468 13.5034 8.57935C13.3294 10.168 12.4894 11.5687 11.2067 12.4613V11.3007C11.2067 11.0247 10.9827 10.8007 10.7067 10.8007C10.4307 10.8007 10.2067 11.0247 10.2067 11.3007V13.334C10.2067 13.5067 10.296 13.6673 10.4427 13.7586C10.5234 13.8086 10.6154 13.834 10.7067 13.834C10.7814 13.834 10.8574 13.8173 10.9267 13.7826C12.9207 12.8046 14.2554 10.9 14.4967 8.68799C14.5274 8.41332 14.3287 8.16664 14.054 8.13664ZM7.50003 4.66667C7.50003 2.92067 8.9207 1.5 10.6667 1.5C12.4127 1.5 13.8334 2.92067 13.8334 4.66667C13.8334 6.41267 12.4127 7.83333 10.6667 7.83333C8.9207 7.83333 7.50003 6.41267 7.50003 4.66667ZM8.50003 4.66667C8.50003 5.86133 9.47203 6.83333 10.6667 6.83333C11.8614 6.83333 12.8334 5.86133 12.8334 4.66667C12.8334 3.472 11.8614 2.5 10.6667 2.5C9.47203 2.5 8.50003 3.472 8.50003 4.66667ZM9.1667 10.3333V13C9.1667 13.9393 8.60603 14.5 7.6667 14.5H3.6667C2.72736 14.5 2.1667 13.9393 2.1667 13V10.3333C2.1667 9.394 2.72736 8.83333 3.6667 8.83333H7.6667C8.60603 8.83333 9.1667 9.394 9.1667 10.3333ZM3.1667 10.3333V10.5H8.1667V10.3333C8.1667 9.94067 8.05936 9.83333 7.6667 9.83333H3.6667C3.27403 9.83333 3.1667 9.94067 3.1667 10.3333ZM8.1667 13V11.5H3.1667V13C3.1667 13.3927 3.27403 13.5 3.6667 13.5H7.6667C8.05936 13.5 8.1667 13.3927 8.1667 13ZM5.00003 12.1667H4.00003C3.72403 12.1667 3.50003 12.3907 3.50003 12.6667C3.50003 12.9427 3.72403 13.1667 4.00003 13.1667H5.00003C5.27603 13.1667 5.50003 12.9427 5.50003 12.6667C5.50003 12.3907 5.27603 12.1667 5.00003 12.1667Z" fill="#3B3B3E"/>
</svg>
