<svg width="16" height="16" viewBox="0 0 16 16" fill="none" xmlns="http://www.w3.org/2000/svg">
<path d="M14.2753 5.81134L13.562 3.31333C13.3073 2.422 13.044 1.5 11.1587 1.5H4.84192C2.95659 1.5 2.6926 2.422 2.4386 3.31333L1.7253 5.81134C1.57597 6.33267 1.50061 6.872 1.50061 7.414V12C1.50061 13.612 2.38861 14.5 4.00061 14.5H12.0006C13.6126 14.5 14.5006 13.612 14.5006 12V7.41333C14.4999 6.87133 14.4246 6.33267 14.2753 5.81134ZM12.6006 3.58799L13.3139 6.086C13.3213 6.11267 13.3239 6.14067 13.3313 6.16734H8.49996V2.50067H11.158C12.29 2.5 12.368 2.77399 12.6006 3.58799ZM3.39929 3.58799C3.63263 2.77399 3.71059 2.5 4.84192 2.5H7.49996V6.16667H2.66866C2.67599 6.14 2.67799 6.112 2.68599 6.086L3.39929 3.58799ZM13.5 12C13.5 13.0513 13.0513 13.5 12 13.5H3.99996C2.94863 13.5 2.49996 13.0513 2.49996 12V7.41333C2.49996 7.33066 2.51263 7.24867 2.51729 7.16667H13.4826C13.4866 7.24933 13.5 7.33066 13.5 7.41333V12V12ZM7.16663 11.3333C7.16663 11.6093 6.94263 11.8333 6.66663 11.8333H4.66663C4.39063 11.8333 4.16663 11.6093 4.16663 11.3333C4.16663 11.0573 4.39063 10.8333 4.66663 10.8333H6.66663C6.94263 10.8333 7.16663 11.0573 7.16663 11.3333Z" fill="#3B3B3E"/>
</svg>
