<svg width="16" height="16" viewBox="0 0 16 16" fill="none" xmlns="http://www.w3.org/2000/svg">
<path d="M12.667 10.8328C11.6536 10.8328 10.8336 11.6528 10.8336 12.6662C10.8336 13.6795 11.6536 14.4995 12.667 14.4995C13.6803 14.4995 14.5003 13.6795 14.5003 12.6662C14.5003 11.6528 13.6803 10.8328 12.667 10.8328ZM12.667 13.4995C12.207 13.4995 11.8336 13.1262 11.8336 12.6662C11.8336 12.2062 12.207 11.8328 12.667 11.8328C13.127 11.8328 13.5003 12.2062 13.5003 12.6662C13.5003 13.1262 13.127 13.4995 12.667 13.4995ZM9.45364 11.1995C10.1803 11.1395 10.8003 10.8862 11.7803 9.90617L12.4336 9.2595C13.387 8.30617 13.867 7.17284 13.8336 5.97284C13.8003 4.8595 13.3003 3.76616 12.4336 2.89283C11.567 2.02616 10.4736 1.52617 9.35365 1.49284C8.14698 1.4595 7.02032 1.9395 6.06699 2.89283L5.42698 3.5395C4.44698 4.5195 4.19365 5.13949 4.13365 5.85949C4.13365 5.87283 4.13365 5.8795 4.13365 5.89283C4.12031 6.09283 4.11365 6.29949 4.11365 6.52616V6.71284C4.11365 7.11284 4.16698 7.5195 4.28031 7.9195C4.42698 8.4395 4.30031 8.97283 3.95364 9.3195L1.73365 11.5395C1.41365 11.8595 1.41365 12.3728 1.73365 12.6928L2.62698 13.5862C2.78698 13.7462 2.99365 13.8262 3.20032 13.8262C3.40698 13.8262 3.62032 13.7462 3.77365 13.5862L5.99365 11.3662C6.34032 11.0195 6.87365 10.8928 7.39365 11.0395C7.79365 11.1462 8.19364 11.2062 8.60031 11.2062H8.78698C9.01364 11.2062 9.22032 11.2062 9.42032 11.1862C9.42032 11.1862 9.42031 11.1862 9.42698 11.1862C9.42698 11.1862 9.44031 11.1862 9.44698 11.1862L9.45364 11.1995ZM6.14032 4.2595L6.78031 3.61283C7.53365 2.8595 8.42032 2.4795 9.32699 2.50616C10.187 2.53283 11.0403 2.92616 11.727 3.61283C12.4136 4.2995 12.807 5.15284 12.8336 6.01284C12.8603 6.92617 12.4803 7.80616 11.727 8.5595L11.0736 9.20616C10.427 9.85283 10.027 10.0928 9.60698 10.1795L5.16032 5.73284C5.24699 5.31284 5.48698 4.91949 6.13365 4.26616L6.14032 4.2595ZM5.29365 10.6728L3.20698 12.7595L2.58031 12.1328L4.66698 10.0462C5.26698 9.44617 5.49365 8.53283 5.24698 7.67283C5.19365 7.49283 5.16698 7.30616 5.14698 7.11949L8.22032 10.1928C8.03365 10.1728 7.85365 10.1395 7.66698 10.0928C6.80031 9.85283 5.89365 10.0728 5.29365 10.6728Z" fill="#3B3B3E"/>
</svg>
