<svg width="16" height="16" viewBox="0 0 16 16" fill="none" xmlns="http://www.w3.org/2000/svg">
<path d="M11.75 1.5H4.25C2.47667 1.5 1.5 2.47667 1.5 4.25V11.75C1.5 13.5233 2.47667 14.5 4.25 14.5H11.75C13.5233 14.5 14.5 13.5233 14.5 11.75V4.25C14.5 2.47667 13.5233 1.5 11.75 1.5ZM13.5 11.75C13.5 12.9767 12.9767 13.5 11.75 13.5H4.25C3.02333 13.5 2.5 12.9767 2.5 11.75V4.25C2.5 3.02333 3.02333 2.5 4.25 2.5H11.75C12.9767 2.5 13.5 3.02333 13.5 4.25V11.75ZM10.8513 7.09267H9.31466V4.33333C9.31466 4.126 9.18735 3.94067 8.99402 3.86667C8.80135 3.792 8.58199 3.84533 8.44332 3.99867L4.77665 8.07266C4.64465 8.21933 4.61132 8.43 4.69132 8.61067C4.77199 8.79133 4.95135 8.90733 5.14868 8.90733H6.68534V11.6667C6.68534 11.874 6.81265 12.0593 7.00598 12.1333C7.06398 12.156 7.12534 12.1667 7.18534 12.1667C7.32401 12.1667 7.46 12.1087 7.55733 12.0013L11.224 7.92734C11.356 7.78067 11.3893 7.57 11.3093 7.38933C11.228 7.20867 11.0487 7.09267 10.8513 7.09267ZM7.68465 10.364V8.40733C7.68465 8.13066 7.46065 7.90733 7.18465 7.90733H6.27067L8.31466 5.636V7.59267C8.31466 7.86934 8.53866 8.09267 8.81466 8.09267H9.72868L7.68465 10.364Z" fill="#3B3B3E"/>
</svg>
