<svg width="16" height="16" viewBox="0 0 16 16" fill="none" xmlns="http://www.w3.org/2000/svg">
<path d="M12.7273 4.68669L9.9799 1.93929C9.70057 1.65996 9.31386 1.5 8.91919 1.5H5.33325C3.72125 1.5 2.83325 2.388 2.83325 4V12C2.83325 13.612 3.72125 14.5 5.33325 14.5H10.6666C12.2786 14.5 13.1666 13.612 13.1666 12V5.7474C13.1666 5.35273 13.0066 4.96602 12.7273 4.68669ZM12.1666 12C12.1666 13.0513 11.7179 13.5 10.6666 13.5H5.33325C4.28192 13.5 3.83325 13.0513 3.83325 12V4C3.83325 2.94867 4.28192 2.5 5.33325 2.5H8.91919C9.05052 2.5 9.17988 2.55331 9.27254 2.64665L12.0199 5.39404C12.1133 5.48738 12.1666 5.61606 12.1666 5.7474V12ZM9.92863 10.6667C9.92863 10.9427 9.70463 11.1667 9.42863 11.1667H6.962C6.76066 11.1667 6.57987 11.046 6.50187 10.8613C6.4232 10.676 6.46327 10.462 6.60327 10.318C6.60327 10.318 7.32664 9.57472 8.39331 8.50472C8.77131 8.12539 8.86118 7.66406 8.60718 7.40739C8.36584 7.16406 8.10924 7.14608 7.93791 7.17741C7.70524 7.21674 7.50465 7.35992 7.41398 7.55192C7.29531 7.80059 7.00065 7.90807 6.74731 7.78874C6.49798 7.67007 6.39199 7.37207 6.51066 7.12207C6.74333 6.63407 7.21392 6.28607 7.77059 6.19141C8.33859 6.09474 8.89997 6.28195 9.3173 6.70329C9.9673 7.35862 9.87464 8.4366 9.10197 9.21126C8.7413 9.5726 8.42056 9.89665 8.15389 10.1673H9.42928C9.70461 10.1667 9.92863 10.3907 9.92863 10.6667Z" fill="#3B3B3E"/>
</svg>
