<svg width="16" height="16" viewBox="0 0 16 16" fill="none" xmlns="http://www.w3.org/2000/svg">
<g clip-path="url(#clip0_36251_7628)">
<path d="M11.7948 6.27238C11.8202 6.33371 11.8335 6.39837 11.8335 6.4637V8.38363C11.8335 8.65963 11.6095 8.88363 11.3335 8.88363C11.0575 8.88363 10.8335 8.65963 10.8335 8.38363V7.67033L9.32149 9.18229C8.91549 9.58829 8.20617 9.58896 7.7995 9.18229L6.81683 8.19971C6.7915 8.17437 6.73415 8.17437 6.70882 8.19971L5.01949 9.889C4.92216 9.98633 4.79416 10.0356 4.66616 10.0356C4.53816 10.0356 4.41016 9.987 4.31283 9.889C4.11749 9.69366 4.11749 9.37697 4.31283 9.18164L6.00216 7.49235C6.42082 7.07302 7.10417 7.07235 7.52417 7.49235L8.50684 8.47493C8.53684 8.50427 8.58483 8.50493 8.61483 8.47493L10.1268 6.96297H9.41349C9.13749 6.96297 8.91349 6.73897 8.91349 6.46297C8.91349 6.18697 9.13749 5.96297 9.41349 5.96297H11.3335C11.3988 5.96297 11.4635 5.97638 11.5248 6.00171C11.6468 6.05304 11.7442 6.15038 11.7948 6.27238ZM15.1668 7.99967C15.1668 11.9517 11.9522 15.1663 8.00016 15.1663C4.04816 15.1663 0.833496 11.9517 0.833496 7.99967C0.833496 4.04767 4.04816 0.833008 8.00016 0.833008C11.9522 0.833008 15.1668 4.04767 15.1668 7.99967ZM14.1668 7.99967C14.1668 4.59901 11.4008 1.83301 8.00016 1.83301C4.5995 1.83301 1.8335 4.59901 1.8335 7.99967C1.8335 11.4003 4.5995 14.1663 8.00016 14.1663C11.4008 14.1663 14.1668 11.4003 14.1668 7.99967Z" fill="#3B3B3E"/>
</g>
<defs>
<clipPath id="clip0_36251_7628">
<rect width="16" height="16" fill="white"/>
</clipPath>
</defs>
</svg>
