<svg width="16" height="16" viewBox="0 0 16 16" fill="none" xmlns="http://www.w3.org/2000/svg">
<path d="M13 1.5H3C2.06067 1.5 1.5 2.06067 1.5 3V5.33333C1.5 5.60933 1.724 5.83333 2 5.83333H2.16667V12C2.16667 13.612 3.05467 14.5 4.66667 14.5H11.3333C12.9453 14.5 13.8333 13.612 13.8333 12V5.83333H14C14.276 5.83333 14.5 5.60933 14.5 5.33333V3C14.5 2.06067 13.9393 1.5 13 1.5ZM2.5 3C2.5 2.60733 2.60733 2.5 3 2.5H13C13.3927 2.5 13.5 2.60733 13.5 3V4.83333H2.5V3ZM12.8333 12C12.8333 13.0513 12.3847 13.5 11.3333 13.5H4.66667C3.61533 13.5 3.16667 13.0513 3.16667 12V5.83333H12.8333V12ZM6.16667 8C6.16667 7.724 6.39067 7.5 6.66667 7.5H9.33333C9.60933 7.5 9.83333 7.724 9.83333 8C9.83333 8.276 9.60933 8.5 9.33333 8.5H6.66667C6.39067 8.5 6.16667 8.276 6.16667 8Z" fill="#3B3B3E"/>
</svg>
