<svg width="16" height="16" viewBox="0 0 16 16" fill="none" xmlns="http://www.w3.org/2000/svg">
<path d="M11.3686 14.4996H4.63195C3.58462 14.4996 2.68795 13.7517 2.49995 12.7217L1.52998 7.39963C1.41132 6.74563 1.65597 6.077 2.16931 5.655L6.62398 1.99298C7.42198 1.33698 8.57996 1.33698 9.37796 1.99298L13.8326 5.655C14.346 6.077 14.5906 6.74563 14.472 7.39963L13.502 12.7217C13.3127 13.7517 12.4159 14.4996 11.3686 14.4996ZM7.99995 2.5003C7.73595 2.5003 7.47325 2.58828 7.25858 2.76495L2.80399 6.42698C2.56999 6.61898 2.45863 6.92302 2.5133 7.22035L3.48327 12.5416C3.58394 13.0963 4.0673 13.499 4.6313 13.499H11.368C11.932 13.499 12.4147 13.0963 12.516 12.5416L13.486 7.21962C13.54 6.92229 13.4286 6.61898 13.1953 6.42698L8.7406 2.76495C8.5266 2.58895 8.26329 2.5003 7.99995 2.5003ZM13.0086 12.6316H13.0153H13.0086ZM9.52795 12.1663C9.39528 12.1663 9.26261 12.135 9.13928 12.0703L7.99995 11.4763L6.86128 12.0696C6.57595 12.219 6.2373 12.193 5.97863 12.003C5.71997 11.8143 5.59332 11.5017 5.64798 11.1863L5.86397 9.93568L4.91459 9.01763C4.68992 8.8003 4.60999 8.48097 4.70666 8.1843C4.80333 7.8863 5.0546 7.67363 5.36527 7.62896L6.68192 7.43902L7.24995 6.29766C7.39195 6.01166 7.67994 5.83363 8.0006 5.83363C8.3206 5.83363 8.60859 6.01166 8.75126 6.29766L9.31929 7.43902L10.6359 7.62896C10.9466 7.67363 11.1986 7.88697 11.2946 8.1843C11.3913 8.48097 11.3106 8.8003 11.0866 9.01763L10.1373 9.93568L10.354 11.1876C10.408 11.503 10.2813 11.8156 10.0227 12.0043C9.87466 12.1116 9.70195 12.1663 9.52795 12.1663ZM7.99995 10.453C8.12929 10.453 8.25931 10.4836 8.37731 10.5456L9.30993 11.0323L9.1326 10.0083C9.08727 9.74294 9.17526 9.47229 9.36926 9.28562L10.1146 8.56435L9.07865 8.41501C8.81465 8.37768 8.58529 8.21164 8.46529 7.97231L7.99865 7.03367L7.53259 7.971C7.41192 8.211 7.1826 8.37701 6.91727 8.41501L5.8826 8.56435L6.62862 9.28562C6.82195 9.47229 6.91062 9.74296 6.86462 10.0076L6.68729 11.0316L7.61999 10.5456C7.74066 10.4843 7.87062 10.453 7.99995 10.453ZM10.4913 8.6183H10.4979H10.4913ZM7.85461 6.74233L7.85526 6.74298L7.85461 6.74233Z" fill="#3B3B3E"/>
</svg>
