<svg width="16" height="16" viewBox="0 0 16 16" fill="none" xmlns="http://www.w3.org/2000/svg">
<path d="M11.75 14.5H4.25C2.47667 14.5 1.5 13.5233 1.5 11.75V4.25C1.5 2.47667 2.47667 1.5 4.25 1.5H11.75C13.5233 1.5 14.5 2.47667 14.5 4.25V11.75C14.5 13.5233 13.5233 14.5 11.75 14.5ZM4.25 2.5C3.02333 2.5 2.5 3.02333 2.5 4.25V11.75C2.5 12.9767 3.02333 13.5 4.25 13.5H11.75C12.9767 13.5 13.5 12.9767 13.5 11.75V4.25C13.5 3.02333 12.9767 2.5 11.75 2.5H4.25ZM6.18066 8C6.18066 7.54 5.80733 7.16667 5.34733 7.16667H5.34066C4.88066 7.16667 4.51066 7.54 4.51066 8C4.51066 8.46 4.88666 8.83333 5.34733 8.83333C5.808 8.83333 6.18066 8.46 6.18066 8ZM8.84733 8C8.84733 7.54 8.474 7.16667 8.014 7.16667H8.00732C7.54732 7.16667 7.17733 7.54 7.17733 8C7.17733 8.46 7.55333 8.83333 8.014 8.83333C8.47466 8.83333 8.84733 8.46 8.84733 8ZM11.514 8C11.514 7.54 11.1407 7.16667 10.6807 7.16667H10.674C10.214 7.16667 9.84399 7.54 9.84399 8C9.84399 8.46 10.22 8.83333 10.6807 8.83333C11.1413 8.83333 11.514 8.46 11.514 8Z" fill="#3B3B3E"/>
</svg>
