<svg width="16" height="16" viewBox="0 0 16 16" fill="none" xmlns="http://www.w3.org/2000/svg">
<path d="M12.22 2.16699H5.1132C3.7352 2.16699 2.94664 2.88633 2.85197 4.18566C1.55264 4.27966 0.833252 5.067 0.833252 6.445V11.5557C0.833252 13.025 1.64258 13.8337 3.11125 13.8337H10.2219C11.5993 13.8337 12.3872 13.1143 12.4812 11.815C13.7805 11.7203 14.4999 10.9317 14.4999 9.55366V4.44699C14.4999 2.97699 13.69 2.16699 12.22 2.16699ZM11.4999 11.5557C11.4999 12.463 11.1293 12.8337 10.2219 12.8337H3.11125C2.20391 12.8337 1.83325 12.463 1.83325 11.5557V6.445C1.83325 5.53766 2.20391 5.16699 3.11125 5.16699H10.2219C11.1293 5.16699 11.4999 5.53766 11.4999 6.445V11.5557ZM13.4999 9.55366C13.4999 10.3623 13.2039 10.743 12.4999 10.8177V6.44433C12.4999 4.97499 11.6906 4.16632 10.2219 4.16632H3.84855C3.92388 3.46165 4.30455 3.16632 5.11255 3.16632H12.2193C13.128 3.16632 13.4993 3.537 13.4993 4.44633V9.55366H13.4999ZM10.4932 6.86166C10.6559 7.085 10.6066 7.39832 10.3832 7.56032L7.32658 9.78299C7.12925 9.92699 6.89725 9.99832 6.66659 9.99832C6.43592 9.99832 6.20393 9.92699 6.00659 9.78299L2.94995 7.56032C2.72662 7.39832 2.67726 7.08566 2.83993 6.86166C3.00193 6.63966 3.31399 6.58899 3.53866 6.75166L6.5953 8.97432C6.63796 9.00566 6.69519 9.00566 6.73853 8.97432L9.79533 6.75166C10.0193 6.58832 10.3312 6.639 10.4932 6.86166Z" fill="#3B3B3E"/>
</svg>
