<svg width="16" height="16" viewBox="0 0 16 16" fill="none" xmlns="http://www.w3.org/2000/svg">
<path d="M8.00016 15.1663C4.04816 15.1663 0.833496 11.9517 0.833496 7.99967C0.833496 4.04767 4.04816 0.833008 8.00016 0.833008C11.9522 0.833008 15.1668 4.04767 15.1668 7.99967C15.1668 11.9517 11.9522 15.1663 8.00016 15.1663ZM8.00016 1.83301C4.5995 1.83301 1.8335 4.59901 1.8335 7.99967C1.8335 11.4003 4.5995 14.1663 8.00016 14.1663C11.4008 14.1663 14.1668 11.4003 14.1668 7.99967C14.1668 4.59901 11.4008 1.83301 8.00016 1.83301ZM8.68018 10.333C8.68018 9.96501 8.38218 9.66634 8.01351 9.66634H8.00684C7.63884 9.66634 7.34342 9.96501 7.34342 10.333C7.34342 10.701 7.64551 10.9997 8.01351 10.9997C8.38151 10.9997 8.68018 10.701 8.68018 10.333ZM8.50016 8.04704V4.99967C8.50016 4.72367 8.27616 4.49967 8.00016 4.49967C7.72416 4.49967 7.50016 4.72367 7.50016 4.99967V8.04704C7.50016 8.32304 7.72416 8.54704 8.00016 8.54704C8.27616 8.54704 8.50016 8.32304 8.50016 8.04704Z" fill="#3B3B3E"/>
</svg>
