<svg width="16" height="16" viewBox="0 0 16 16" fill="none" xmlns="http://www.w3.org/2000/svg">
<path d="M12.5 4.198V4C12.5 2.388 11.612 1.5 10 1.5H3.33333C2.322 1.5 1.5 2.322 1.5 3.33333V12C1.5 13.612 2.388 14.5 4 14.5H12C13.612 14.5 14.5 13.612 14.5 12V6.66667C14.5 5.23 13.7947 4.36866 12.5 4.198ZM13.5 10.5H11C10.3567 10.5 9.83333 9.97667 9.83333 9.33333C9.83333 8.69 10.3567 8.16667 11 8.16667H13.5V10.5ZM3.33333 2.5H10C11.0513 2.5 11.5 2.94867 11.5 4V4.16667H3.33333C2.874 4.16667 2.5 3.79267 2.5 3.33333C2.5 2.874 2.874 2.5 3.33333 2.5ZM12 13.5H4C2.94867 13.5 2.5 13.0513 2.5 12V4.96598C2.75 5.09398 3.03333 5.16667 3.33333 5.16667H12C13.0513 5.16667 13.5 5.61533 13.5 6.66667V7.16667H11C9.80533 7.16667 8.83333 8.13867 8.83333 9.33333C8.83333 10.528 9.80533 11.5 11 11.5H13.5V12C13.5 13.0513 13.0513 13.5 12 13.5ZM11.34 8.66667H11.3467C11.7153 8.66667 12.0133 8.96533 12.0133 9.33333C12.0133 9.70133 11.7153 10 11.3467 10C10.9787 10 10.6767 9.70133 10.6767 9.33333C10.6767 8.96533 10.972 8.66667 11.34 8.66667Z" fill="#3B3B3E"/>
</svg>
