<svg width="16" height="16" viewBox="0 0 16 16" fill="none" xmlns="http://www.w3.org/2000/svg">
<path d="M8.50016 13.335C8.50016 13.611 8.27616 13.835 8.00016 13.835C7.20883 13.835 6.45013 13.7277 5.73747 13.5157C4.82813 14.307 3.57612 14.5003 2.57145 14.5003C2.47479 14.5003 2.3809 14.499 2.2889 14.4957C1.95557 14.4877 1.66348 14.2743 1.54948 13.9523C1.43481 13.6283 1.52955 13.2757 1.78955 13.0544C2.41088 12.553 2.65944 11.9983 2.75944 11.6177C1.93477 10.6317 1.49951 9.38698 1.49951 8.00098C1.49951 4.56564 4.17285 2.16699 7.99951 2.16699C11.5142 2.16699 14.1095 4.22099 14.4569 7.27832C14.4849 7.50365 14.4995 7.74898 14.4995 8.00098C14.4995 8.27698 14.2755 8.50098 13.9995 8.50098C13.7235 8.50098 13.4995 8.27698 13.4995 8.00098C13.4995 7.79564 13.4875 7.58965 13.4635 7.39632C13.1755 4.86432 10.9802 3.16634 7.99951 3.16634C4.76151 3.16634 2.49951 5.15433 2.49951 8.00033C2.49951 9.22433 2.90283 10.3083 3.66683 11.135C3.77016 11.247 3.81746 11.4003 3.79346 11.5517C3.68146 12.2657 3.32942 12.941 2.78809 13.495C3.56142 13.467 4.60154 13.289 5.24154 12.6064C5.37554 12.4624 5.58353 12.411 5.76953 12.4757C6.45953 12.7143 7.20951 12.835 7.99951 12.835C8.27618 12.835 8.50016 13.059 8.50016 13.335ZM14.0002 11.1663H10.6668C10.3908 11.1663 10.1668 11.3903 10.1668 11.6663C10.1668 11.9423 10.3908 12.1663 10.6668 12.1663H14.0002C14.2762 12.1663 14.5002 11.9423 14.5002 11.6663C14.5002 11.3903 14.2762 11.1663 14.0002 11.1663Z" fill="#3B3B3E"/>
</svg>
