<svg width="16" height="16" viewBox="0 0 16 16" fill="none" xmlns="http://www.w3.org/2000/svg">
<path d="M8.00004 0.833008C4.04804 0.833008 0.833374 4.04767 0.833374 7.99967C0.833374 11.9517 4.04804 15.1663 8.00004 15.1663C11.952 15.1663 15.1667 11.9517 15.1667 7.99967C15.1667 4.04767 11.952 0.833008 8.00004 0.833008ZM8.00004 14.1663C4.59937 14.1663 1.83337 11.4003 1.83337 7.99967C1.83337 4.59901 4.59937 1.83301 8.00004 1.83301C11.4007 1.83301 14.1667 4.59901 14.1667 7.99967C14.1667 11.4003 11.4007 14.1663 8.00004 14.1663ZM10.8521 7.09235H9.3147V4.33301C9.3147 4.12567 9.18739 3.94034 8.99406 3.86634C8.80073 3.79234 8.58203 3.84501 8.44336 3.99834L4.77669 8.07234C4.64469 8.219 4.61139 8.42967 4.69206 8.61034C4.77272 8.79101 4.95139 8.907 5.14872 8.907H6.68603V11.6663C6.68603 11.8737 6.81338 12.059 7.00671 12.133C7.06471 12.1557 7.12537 12.1663 7.18603 12.1663C7.3247 12.1663 7.46136 12.1083 7.55802 12.001L11.2247 7.92701C11.3567 7.78035 11.39 7.56967 11.3094 7.38901C11.228 7.20834 11.0494 7.09235 10.8521 7.09235ZM7.68538 10.3637V8.407C7.68538 8.13034 7.46138 7.907 7.18538 7.907H6.27071L8.3147 5.63567V7.59235C8.3147 7.86901 8.5387 8.09235 8.8147 8.09235H9.72937L7.68538 10.3637Z" fill="#3B3B3E"/>
</svg>
