<svg width="16" height="16" viewBox="0 0 16 16" fill="none" xmlns="http://www.w3.org/2000/svg">
<path d="M7.99992 5.16667C10.0399 5.16667 11.1666 4.04 11.1666 2C11.1666 1.72667 10.9399 1.5 10.6666 1.5C8.62658 1.5 7.49992 2.62667 7.49992 4.66667C7.49992 4.94 7.72658 5.16667 7.99992 5.16667ZM10.1333 2.53333C10.0066 3.49333 9.49324 4.00667 8.53324 4.13334C8.65991 3.17334 9.17326 2.65999 10.1333 2.53333ZM10.4932 5.51333C9.49325 5.30666 8.68658 5.45999 7.99992 5.99333C7.31325 5.45999 6.51326 5.30666 5.50659 5.51333C3.80659 5.85999 2.83325 7.25333 2.83325 9.33333C2.83325 11.66 4.48659 14.5 6.41992 14.5C7.04659 14.5 7.36658 14.3667 7.59991 14.2667C7.75325 14.2 7.83325 14.1667 7.99992 14.1667C8.16658 14.1667 8.24659 14.2 8.39992 14.2667C8.63326 14.3667 8.95325 14.5 9.57991 14.5C11.5132 14.5 13.1666 11.66 13.1666 9.33333C13.1666 7.25333 12.1932 5.85999 10.4932 5.51333ZM9.57991 13.5C9.15325 13.5 8.98658 13.4267 8.78658 13.3467C8.59991 13.2667 8.36658 13.1667 7.99992 13.1667C7.63325 13.1667 7.39992 13.2667 7.21326 13.3467C7.01992 13.4267 6.84659 13.5 6.41992 13.5C5.23326 13.5 3.83325 11.24 3.83325 9.33333C3.83325 8.21333 4.15992 6.81333 5.70658 6.49333C6.69992 6.29333 7.19991 6.55333 7.63991 7.01333C7.82658 7.21333 8.17326 7.21333 8.35992 7.01333C8.79992 6.55333 9.29325 6.28666 10.2933 6.49333C11.8399 6.81333 12.1666 8.21333 12.1666 9.33333C12.1666 11.24 10.7666 13.5 9.57991 13.5V13.5Z" fill="#3B3B3E"/>
</svg>
