<svg width="16" height="16" viewBox="0 0 16 16" fill="none" xmlns="http://www.w3.org/2000/svg">
<path d="M10.6666 14.5H5.33325C3.72125 14.5 2.83325 13.612 2.83325 12V4C2.83325 2.388 3.72125 1.5 5.33325 1.5H10.6666C12.2786 1.5 13.1666 2.388 13.1666 4V12C13.1666 13.612 12.2786 14.5 10.6666 14.5ZM5.33325 2.5C4.28192 2.5 3.83325 2.94867 3.83325 4V12C3.83325 13.0513 4.28192 13.5 5.33325 13.5H10.6666C11.7179 13.5 12.1666 13.0513 12.1666 12V4C12.1666 2.94867 11.7179 2.5 10.6666 2.5H5.33325ZM9.49992 4C9.49992 3.724 9.27592 3.5 8.99992 3.5H6.99992C6.72392 3.5 6.49992 3.724 6.49992 4C6.49992 4.276 6.72392 4.5 6.99992 4.5H8.99992C9.27592 4.5 9.49992 4.276 9.49992 4ZM7.99992 11.3333C7.63192 11.3333 7.33325 11.632 7.33325 12C7.33325 12.368 7.63192 12.6667 7.99992 12.6667C8.36792 12.6667 8.66658 12.368 8.66658 12C8.66658 11.632 8.36792 11.3333 7.99992 11.3333Z" fill="#3B3B3E"/>
</svg>
