<svg width="16" height="16" viewBox="0 0 16 16" fill="none" xmlns="http://www.w3.org/2000/svg">
<path d="M14.4613 8.19093C14.436 8.25227 14.3994 8.30753 14.3534 8.35353L11.6868 11.0202C11.5894 11.1175 11.4614 11.1668 11.3334 11.1668C11.2054 11.1668 11.0774 11.1182 10.9801 11.0202C10.7847 10.8249 10.7847 10.5082 10.9801 10.3128L12.7934 8.49953H3.20743L5.02075 10.3128C5.21608 10.5082 5.21608 10.8249 5.02075 11.0202C4.92341 11.1175 4.79539 11.1668 4.66739 11.1668C4.53939 11.1668 4.41137 11.1182 4.31404 11.0202L1.64737 8.35353C1.60137 8.30753 1.5648 8.25227 1.53946 8.19093C1.4888 8.06893 1.4888 7.93093 1.53946 7.80893C1.5648 7.7476 1.60137 7.69217 1.64737 7.64617L4.31404 4.97951C4.50937 4.78417 4.82607 4.78417 5.0214 4.97951C5.21673 5.17484 5.21673 5.49153 5.0214 5.68686L3.20808 7.50018H12.794L10.9807 5.68686C10.7854 5.49153 10.7854 5.17484 10.9807 4.97951C11.176 4.78417 11.4927 4.78417 11.6881 4.97951L14.3547 7.64617C14.4007 7.69217 14.4375 7.7476 14.4628 7.80893C14.5121 7.93093 14.512 8.06827 14.4613 8.19093Z" fill="#3B3B3E"/>
</svg>
