<svg width="16" height="16" viewBox="0 0 16 16" fill="none" xmlns="http://www.w3.org/2000/svg">
<path d="M8.00016 15.1663C4.04683 15.1663 0.833496 11.953 0.833496 7.99967C0.833496 4.04634 4.04683 0.833008 8.00016 0.833008C11.9535 0.833008 15.1668 4.04634 15.1668 7.99967C15.1668 11.953 11.9535 15.1663 8.00016 15.1663ZM8.00016 1.83301C4.60016 1.83301 1.8335 4.59967 1.8335 7.99967C1.8335 11.3997 4.60016 14.1663 8.00016 14.1663C11.4002 14.1663 14.1668 11.3997 14.1668 7.99967C14.1668 4.59967 11.4002 1.83301 8.00016 1.83301ZM10.8335 6.66634C10.8335 5.99301 10.4802 5.49967 10.0002 5.49967C9.52016 5.49967 9.16683 5.99301 9.16683 6.66634C9.16683 7.33967 9.52016 7.83301 10.0002 7.83301C10.4802 7.83301 10.8335 7.33967 10.8335 6.66634ZM6.8335 6.66634C6.8335 5.99301 6.48016 5.49967 6.00016 5.49967C5.52016 5.49967 5.16683 5.99301 5.16683 6.66634C5.16683 7.33967 5.52016 7.83301 6.00016 7.83301C6.48016 7.83301 6.8335 7.33967 6.8335 6.66634ZM6.35349 11.6863C6.63349 11.4063 7.72016 10.4997 10.0002 10.4997C10.2735 10.4997 10.5002 10.273 10.5002 9.99967C10.5002 9.72634 10.2735 9.49967 10.0002 9.49967C7.40683 9.49967 6.0935 10.533 5.64683 10.9797C5.4535 11.173 5.4535 11.493 5.64683 11.6863C5.74683 11.7863 5.8735 11.833 6.00016 11.833C6.12683 11.833 6.25349 11.7863 6.35349 11.6863Z" fill="#3B3B3E"/>
</svg>
