<svg width="16" height="16" viewBox="0 0 16 16" fill="none" xmlns="http://www.w3.org/2000/svg">
<path d="M14.1914 4.58797C14.1907 4.58663 14.1914 4.58531 14.1907 4.58398C14.1894 4.58064 14.186 4.57864 14.1847 4.57531C13.9267 4.10664 13.5247 3.71997 13.0167 3.49397L9.01672 1.71598C8.37072 1.42931 7.63139 1.42931 6.98539 1.71598L2.98539 3.49397C2.47673 3.71997 2.07534 4.10664 1.81734 4.57531C1.81601 4.57864 1.81273 4.58064 1.8114 4.58398C1.81073 4.58531 1.81134 4.58663 1.81067 4.58797C1.61534 4.9473 1.50208 5.35263 1.50208 5.77797V10.2227C1.50208 11.2093 2.08469 12.106 2.98669 12.5073L6.98669 14.2853C7.30803 14.428 7.65269 14.4986 7.99735 14.5C7.99935 14.5 8.00073 14.5006 8.00273 14.5006C8.00473 14.5006 8.00602 14.5 8.00802 14.5C8.35268 14.4993 8.69734 14.428 9.01868 14.2853L13.0187 12.5073C13.9207 12.1066 14.5034 11.21 14.5034 10.2227V5.77797C14.5 5.35263 14.3867 4.94663 14.1914 4.58797ZM7.39075 2.62931C7.58408 2.54331 7.79271 2.49997 8.00004 2.49997C8.20737 2.49997 8.416 2.54264 8.60933 2.62864L12.6093 4.40663C12.7227 4.4573 12.822 4.52731 12.9174 4.60131L11.0953 5.41131L6.25606 3.13331L7.39075 2.62931ZM5.04871 3.66998L9.88806 5.94797L8.6134 6.51464C8.22274 6.68464 7.77535 6.68463 7.39001 6.51596L3.08272 4.60131C3.17806 4.52731 3.27741 4.45663 3.39075 4.40663L5.04871 3.66998ZM3.39075 11.5926C2.84941 11.352 2.50004 10.814 2.50004 10.222V5.7773C2.50004 5.6673 2.524 5.56198 2.54667 5.45798L6.98669 7.43131C7.15269 7.50331 7.32471 7.55596 7.50004 7.59063V13.4053C7.46404 13.3926 7.42608 13.3853 7.39075 13.37L3.39075 11.5926ZM13.5 10.222C13.5 10.814 13.1507 11.352 12.6093 11.5926L8.60933 13.3706C8.574 13.3866 8.53604 13.3933 8.50004 13.406V7.59063C8.67604 7.5553 8.84941 7.50263 9.01607 7.42997L10.5861 6.73197V7.92665C10.5861 8.20265 10.8101 8.42665 11.0861 8.42665C11.3621 8.42665 11.5861 8.20265 11.5861 7.92665V6.28798L13.4527 5.45863C13.476 5.5633 13.4994 5.66797 13.4994 5.77797V10.222H13.5Z" fill="#3B3B3E"/>
</svg>
