<svg width="16" height="16" viewBox="0 0 16 16" fill="none" xmlns="http://www.w3.org/2000/svg">
<path d="M13.6866 5.64667L9.68661 1.64667C9.59261 1.55267 9.46592 1.5 9.33325 1.5H5.33325C3.72125 1.5 2.83325 2.388 2.83325 4V12C2.83325 13.612 3.72125 14.5 5.33325 14.5H11.3333C12.9453 14.5 13.8333 13.612 13.8333 12V6C13.8333 5.86733 13.7806 5.74 13.6866 5.64667ZM9.83325 3.20734L12.1259 5.5H11.3333C10.2819 5.5 9.83325 5.05133 9.83325 4V3.20734ZM11.3333 13.5H5.33325C4.28192 13.5 3.83325 13.0513 3.83325 12V4C3.83325 2.94867 4.28192 2.5 5.33325 2.5H8.83325V4C8.83325 5.612 9.72125 6.5 11.3333 6.5H12.8333V12C12.8333 13.0513 12.3846 13.5 11.3333 13.5ZM6.49992 8C6.49992 8.276 6.27592 8.5 5.99992 8.5C5.72392 8.5 5.49992 8.276 5.49992 8C5.49992 7.724 5.72392 7.5 5.99992 7.5C6.27592 7.5 6.49992 7.724 6.49992 8ZM6.49992 10.6667C6.49992 10.9427 6.27592 11.1667 5.99992 11.1667C5.72392 11.1667 5.49992 10.9427 5.49992 10.6667C5.49992 10.3907 5.72392 10.1667 5.99992 10.1667C6.27592 10.1667 6.49992 10.3907 6.49992 10.6667ZM11.1666 8C11.1666 8.276 10.9426 8.5 10.6666 8.5H7.66659C7.39059 8.5 7.16659 8.276 7.16659 8C7.16659 7.724 7.39059 7.5 7.66659 7.5H10.6666C10.9426 7.5 11.1666 7.724 11.1666 8ZM11.1666 10.6667C11.1666 10.9427 10.9426 11.1667 10.6666 11.1667H7.66659C7.39059 11.1667 7.16659 10.9427 7.16659 10.6667C7.16659 10.3907 7.39059 10.1667 7.66659 10.1667H10.6666C10.9426 10.1667 11.1666 10.3907 11.1666 10.6667Z" fill="#3B3B3E"/>
</svg>
