<svg width="16" height="16" viewBox="0 0 16 16" fill="none" xmlns="http://www.w3.org/2000/svg">
<path d="M12 14.4999H9.16667V10.9999C9.16667 10.3565 8.64333 9.83318 8 9.83318C7.35667 9.83318 6.83333 10.3565 6.83333 10.9999V14.4999H4C2.388 14.4999 1.5 13.6119 1.5 11.9999V7.76653C1.5 6.3512 1.89066 5.95584 2.52799 5.42718L6.60799 2.00652C7.41399 1.32986 8.58601 1.32986 9.39201 2.00652L13.472 5.42718C14.1093 5.95584 14.5 6.35187 14.5 7.76653V11.9999C14.5 13.6119 13.612 14.4999 12 14.4999ZM10.1667 13.4999H12C13.0513 13.4999 13.5 13.0512 13.5 11.9999V7.76653C13.5 6.7492 13.332 6.60988 12.834 6.19655L8.75 2.77256C8.31533 2.40856 7.68467 2.40856 7.25 2.77256L3.16602 6.19655C2.66802 6.60988 2.5 6.7492 2.5 7.76653V11.9999C2.5 13.0512 2.94867 13.4999 4 13.4999H5.83333V10.9999C5.83333 9.80518 6.80533 8.83318 8 8.83318C9.19467 8.83318 10.1667 9.80518 10.1667 10.9999V13.4999Z" fill="#3B3B3E"/>
</svg>
