<svg width="16" height="16" viewBox="0 0 16 16" fill="none" xmlns="http://www.w3.org/2000/svg">
<path d="M13.02 8.35321L8.35329 13.0199C8.25595 13.1172 8.12793 13.1665 7.99993 13.1665C7.87193 13.1665 7.74391 13.1179 7.64658 13.0199C7.45125 12.8245 7.45125 12.5078 7.64658 12.3125L11.9599 7.9992L7.64658 3.68589C7.45125 3.49055 7.45125 3.17386 7.64658 2.97853C7.84191 2.7832 8.15861 2.7832 8.35394 2.97853L13.0206 7.6452C13.2153 7.84186 13.2153 8.15787 13.02 8.35321ZM8.35329 7.6465L3.68662 2.97983C3.49129 2.7845 3.1746 2.7845 2.97926 2.97983C2.78393 3.17517 2.78393 3.49186 2.97926 3.68719L7.29258 8.0005L2.97926 12.3138C2.78393 12.5092 2.78393 12.8258 2.97926 13.0212C3.0766 13.1185 3.20462 13.1678 3.33262 13.1678C3.46062 13.1678 3.58864 13.1192 3.68597 13.0212L8.35264 8.35451C8.54864 8.15784 8.54862 7.84183 8.35329 7.6465Z" fill="#3B3B3E"/>
</svg>
