<svg width="16" height="16" viewBox="0 0 16 16" fill="none" xmlns="http://www.w3.org/2000/svg">
<path d="M14.4398 12.1802L12.9798 6.73351C12.8998 6.43351 12.7064 6.18684 12.4398 6.02684C12.1731 5.86684 11.8598 5.8335 11.5598 5.9135L11.3664 5.96684L10.3065 3.04017C9.92646 2.14017 9.03978 1.50684 7.99978 1.50684C6.95978 1.50684 6.14644 2.10017 5.74644 2.94684C5.72644 2.97351 5.70643 3.00018 5.69309 3.03351L5.03977 4.83351C4.94644 5.09351 5.07978 5.38018 5.33978 5.47351C5.39312 5.49351 5.45312 5.50017 5.51312 5.50017C5.65979 5.50017 5.79979 5.4335 5.89313 5.32017C6.33313 6.02684 7.11312 6.50017 8.00645 6.50017C8.89978 6.50017 9.64645 6.04684 10.0931 5.36684L10.4064 6.22017L10.2398 6.26684C9.93977 6.34684 9.69311 6.54018 9.53977 6.80684C9.38644 7.07351 9.34645 7.38684 9.42645 7.68684L10.8865 13.1402C11.0131 13.6135 11.3198 14.0135 11.7464 14.2602C12.0331 14.4268 12.3464 14.5068 12.6664 14.5068C12.8264 14.5068 12.9864 14.4868 13.1464 14.4402C13.6198 14.3135 14.0198 14.0068 14.2665 13.5802C14.5131 13.1535 14.5798 12.6602 14.4531 12.1802H14.4398ZM9.49978 4.00017C9.49978 4.82684 8.82644 5.50017 7.99978 5.50017C7.17311 5.50017 6.49978 4.82684 6.49978 4.00017C6.49978 3.17351 7.17311 2.50017 7.99978 2.50017C8.61311 2.50017 9.14644 2.87351 9.37311 3.40684L9.39313 3.4535C9.45979 3.62017 9.49978 3.80684 9.49978 4.00017V4.00017ZM13.3865 13.0802C13.2731 13.2735 13.0931 13.4135 12.8731 13.4735C12.6531 13.5335 12.4264 13.5002 12.2331 13.3868C12.0398 13.2735 11.8998 13.0935 11.8398 12.8735L10.3798 7.42018C10.3598 7.33351 10.4064 7.2535 10.4931 7.22684L11.8198 6.8735C11.8198 6.8735 11.8464 6.8735 11.8598 6.8735C11.8931 6.8735 11.9198 6.88684 11.9398 6.8935C11.9664 6.90684 11.9998 6.9335 12.0131 6.98684L13.4731 12.4335C13.5331 12.6535 13.4998 12.8802 13.3865 13.0735V13.0802ZM5.75979 6.26684L4.43976 5.9135C4.13976 5.8335 3.82646 5.8735 3.55979 6.02684C3.29313 6.18017 3.0998 6.4335 3.0198 6.72684L1.55979 12.1735C1.43313 12.6468 1.49977 13.1468 1.74644 13.5735C1.99311 14.0002 2.38643 14.3068 2.86643 14.4335C3.02643 14.4735 3.18646 14.5002 3.34646 14.5002C3.66646 14.5002 3.97979 14.4135 4.26646 14.2535C4.69313 14.0068 4.99978 13.6135 5.12644 13.1335L6.58645 7.68684C6.66645 7.38684 6.62646 7.07351 6.47312 6.80684C6.31979 6.54018 6.06642 6.34684 5.77309 6.26684H5.75979ZM4.1531 12.8735C4.0931 13.0935 3.95312 13.2735 3.75979 13.3868C3.56645 13.5002 3.33977 13.5268 3.11977 13.4735C2.89977 13.4135 2.71976 13.2735 2.60642 13.0802C2.49309 12.8868 2.46646 12.6602 2.5198 12.4402L3.97976 6.98684C3.99309 6.9335 4.02645 6.90684 4.05312 6.8935C4.06645 6.88684 4.09312 6.8735 4.13312 6.8735C4.14645 6.8735 4.15978 6.8735 4.17312 6.8735L5.4931 7.22684C5.57977 7.24684 5.62642 7.33351 5.60642 7.42018L4.14642 12.8735H4.1531Z" fill="#3B3B3E"/>
</svg>
