<svg width="16" height="16" viewBox="0 0 16 16" fill="none" xmlns="http://www.w3.org/2000/svg">
<path d="M8.31259 14.4999C8.27926 14.4999 8.24527 14.4985 8.21127 14.4958C7.70127 14.4545 7.28126 14.1098 7.14059 13.6185L6.41391 11.0746C6.20657 10.3499 5.65058 9.79378 4.92591 9.58645L2.38192 8.85988C1.88992 8.71922 1.54594 8.29925 1.50461 7.78925C1.46327 7.27925 1.73591 6.80917 2.19858 6.59117L12.7653 1.61916C13.2339 1.39783 13.7753 1.49255 14.1419 1.85988C14.5093 2.22655 14.6032 2.76718 14.3826 3.23651L9.41061 13.8032C9.20594 14.2339 8.78259 14.4999 8.31259 14.4999ZM13.1899 2.52313L2.62326 7.49514C2.50592 7.55047 2.49593 7.65187 2.49993 7.70787C2.50393 7.76387 2.53057 7.86181 2.65524 7.89781L5.19927 8.62453C6.2586 8.9272 7.07191 9.73984 7.37391 10.7992L8.10059 13.3431C8.13659 13.4685 8.23458 13.4946 8.29058 13.4986C8.34658 13.4992 8.44793 13.4932 8.50326 13.3752L13.4753 2.80845C13.5313 2.68912 13.4726 2.60447 13.4326 2.56447C13.3946 2.52581 13.3086 2.46647 13.1899 2.52313Z" fill="#3B3B3E"/>
</svg>
