<svg width="16" height="16" viewBox="0 0 16 16" fill="none" xmlns="http://www.w3.org/2000/svg">
<path d="M8 1.49983C4.29333 1.49983 1.5 4.21982 1.5 7.81982C1.5 9.65316 2.22667 11.3132 3.54667 12.4798L3.58 13.5465C3.6 14.0732 4.03333 14.4932 4.56 14.4932C4.56666 14.4932 4.58 14.4932 4.58667 14.4932C4.71334 14.4932 4.83333 14.4598 4.95333 14.4132L6.13334 13.8865C6.73334 14.0532 7.36667 14.1332 8 14.1332C11.7067 14.1332 14.5 11.4132 14.5 7.81316C14.5 4.21316 11.7067 1.49316 8 1.49316V1.49983ZM8 13.1398C7.45333 13.1398 6.91333 13.0665 6.39333 12.9265C6.17333 12.8665 5.93999 12.8865 5.73999 12.9798L4.58 13.5198L4.54667 12.4598C4.54667 12.1932 4.41999 11.9332 4.21999 11.7532C3.11332 10.7598 2.5 9.36649 2.5 7.81982C2.5 4.78649 4.86667 2.49983 8 2.49983C11.1333 2.49983 13.5 4.78649 13.5 7.81982C13.5 10.8532 11.1333 13.1398 8 13.1398V13.1398ZM11.62 6.44649L9.84666 9.29316C9.57999 9.71983 9.02 9.85316 8.6 9.57982C8.58 9.56649 8.56 9.55316 8.54 9.53983L7.13334 8.46649C7.00667 8.36649 6.82666 8.36649 6.69999 8.46649L4.80001 9.93316C4.54667 10.1265 4.21332 9.81983 4.38666 9.5465L6.15999 6.69316C6.42666 6.26649 6.98666 6.13316 7.40666 6.40649C7.42666 6.41983 7.44667 6.43316 7.46667 6.44649L8.87333 7.51983C9 7.61983 9.17999 7.61983 9.30666 7.51983L11.2067 6.05316C11.46 5.85983 11.7933 6.1665 11.62 6.43983V6.44649Z" fill="#3B3B3E"/>
</svg>
