<svg width="16" height="16" viewBox="0 0 16 16" fill="none" xmlns="http://www.w3.org/2000/svg">
<path d="M13.0534 8C12.5734 7.22 11.4467 5.10667 11.3867 2.25333C11.3801 1.83333 11.0401 1.5 10.6267 1.5H5.38008C4.96008 1.5 4.62674 1.82667 4.62008 2.25333C4.56008 5.10667 3.43341 7.22667 2.95341 8.00667C2.80674 8.24 2.80008 8.54 2.94008 8.78C3.07341 9.02 3.33341 9.17333 3.61341 9.17333H7.51341V13.5067H6.34674C6.07341 13.5067 5.84674 13.7333 5.84674 14.0067C5.84674 14.28 6.07341 14.5067 6.34674 14.5067H9.68008C9.95341 14.5067 10.1801 14.28 10.1801 14.0067C10.1801 13.7333 9.95341 13.5067 9.68008 13.5067H8.51341V9.17333H9.84674V10.6733C9.84674 10.9467 10.0734 11.1733 10.3467 11.1733C10.6201 11.1733 10.8467 10.9467 10.8467 10.6733V9.17333H12.4134C12.6934 9.17333 12.9467 9.02 13.0867 8.78C13.2201 8.54 13.2134 8.24667 13.0667 8.00667L13.0534 8ZM5.60674 2.5H10.3867C10.4467 3.92 10.7467 5.16 11.0934 6.16667H4.90008C5.25341 5.16 5.55341 3.92 5.60674 2.5ZM4.00674 8.16667C4.15341 7.9 4.32674 7.56 4.50674 7.16667H11.4934C11.6667 7.56 11.8401 7.9 11.9934 8.16667H4.00674Z" fill="#3B3B3E"/>
</svg>
