<svg width="16" height="16" viewBox="0 0 16 16" fill="none" xmlns="http://www.w3.org/2000/svg">
<path d="M11.6463 2.35288C11.451 2.15755 11.451 1.84086 11.6463 1.64552C11.8417 1.45019 12.1584 1.45019 12.3537 1.64552L13.687 2.97886C13.8824 3.17419 13.8824 3.49088 13.687 3.68621C13.5897 3.78355 13.4617 3.83286 13.3337 3.83286C13.2057 3.83286 13.0777 3.78421 12.9803 3.68621L11.6463 2.35288ZM3.01971 2.35288C3.21504 2.15755 3.21504 1.84086 3.01971 1.64552C2.82438 1.45019 2.50769 1.45019 2.31235 1.64552L0.97902 2.97886C0.783686 3.17419 0.783686 3.49088 0.97902 3.68621C1.07635 3.78355 1.20437 3.83286 1.33237 3.83286C1.46037 3.83286 1.58839 3.78421 1.68573 3.68621L3.01971 2.35288ZM7.33302 12.8329C4.66769 12.8329 2.49969 10.6649 2.49969 7.99953C2.49969 5.33419 4.66769 3.16619 7.33302 3.16619C9.76836 3.16619 11.8311 4.98422 12.1304 7.39422C12.1644 7.66889 12.4237 7.86154 12.6883 7.82887C12.9623 7.79487 13.1564 7.5455 13.1224 7.2715C12.7611 4.36083 10.2724 2.16619 7.33237 2.16619C4.11571 2.16619 1.49904 4.78286 1.49904 7.99953C1.49904 9.93753 2.45232 11.6522 3.91099 12.7142L2.97902 13.6462C2.78369 13.8415 2.78369 14.1582 2.97902 14.3535C3.07635 14.4509 3.20437 14.5002 3.33237 14.5002C3.46037 14.5002 3.58839 14.4515 3.68573 14.3535L4.7951 13.2442C5.56377 13.6175 6.42237 13.8329 7.33237 13.8329C7.60837 13.8329 7.83237 13.6089 7.83237 13.3329C7.83237 13.0569 7.60902 12.8329 7.33302 12.8329ZM7.33302 4.85955C7.05702 4.85955 6.83302 5.08355 6.83302 5.35955V8.02622C6.83302 8.30222 7.05702 8.52622 7.33302 8.52622C7.60902 8.52622 7.83302 8.30222 7.83302 8.02622V5.35955C7.83302 5.08355 7.60902 4.85955 7.33302 4.85955ZM15.1664 10.5869C15.1657 10.8789 15.0517 11.1536 14.8451 11.3596L11.1677 15.0202C11.0737 15.1135 10.947 15.1655 10.815 15.1655H9.33302C9.05702 15.1655 8.83302 14.9415 8.83302 14.6655V13.1843C8.83302 13.0523 8.88502 12.9249 8.97902 12.8316L12.6397 9.15415C12.8457 8.94682 13.1196 8.83286 13.4116 8.83286C13.4123 8.83286 13.4131 8.83286 13.4138 8.83286C13.7058 8.83286 13.9797 8.94618 14.1857 9.15285L14.8457 9.81284C15.0531 10.0195 15.1664 10.2949 15.1664 10.5869ZM13.3483 9.8602L12.925 10.2855L13.7144 11.0742L14.139 10.6515C14.1617 10.6295 14.1664 10.6034 14.1664 10.5861C14.1664 10.5688 14.1617 10.5429 14.139 10.5202L13.479 9.8602C13.4564 9.83754 13.4311 9.83286 13.4138 9.83286H13.4131C13.3964 9.83286 13.371 9.83754 13.3483 9.8602ZM13.0057 11.7795L12.2197 10.9935L9.83237 13.3908V14.1662H10.6078L13.0057 11.7795Z" fill="#3B3B3E"/>
</svg>
