<svg width="16" height="16" viewBox="0 0 16 16" fill="none" xmlns="http://www.w3.org/2000/svg">
<path d="M8.66667 11.6667C8.66667 12.0347 8.368 12.3333 8 12.3333C7.632 12.3333 7.33333 12.0347 7.33333 11.6667C7.33333 11.2987 7.632 11 8 11C8.368 11 8.66667 11.2987 8.66667 11.6667ZM6 8.16667C6 7.064 6.89733 6.16667 8 6.16667C9.10267 6.16667 10 7.064 10 8.16667C10 9.26933 9.10267 10.1667 8 10.1667C6.89733 10.1667 6 9.26933 6 8.16667ZM7 8.16667C7 8.718 7.44867 9.16667 8 9.16667C8.55133 9.16667 9 8.718 9 8.16667C9 7.61533 8.55133 7.16667 8 7.16667C7.44867 7.16667 7 7.61533 7 8.16667ZM12.1667 4.66667V12C12.1667 13.612 11.2787 14.5 9.66667 14.5H6.33333C4.72133 14.5 3.83333 13.612 3.83333 12V4.66667C3.83333 4.39067 4.05733 4.16667 4.33333 4.16667H11.6667C11.9427 4.16667 12.1667 4.39067 12.1667 4.66667ZM11.1667 5.16667H4.83333V12C4.83333 13.0513 5.282 13.5 6.33333 13.5H9.66667C10.718 13.5 11.1667 13.0513 11.1667 12V5.16667ZM13 1.5H3C2.06067 1.5 1.5 2.06067 1.5 3V7C1.5 7.774 1.88533 8.304 2.55733 8.45467C2.82733 8.51334 3.094 8.34601 3.15466 8.07601C3.21533 7.80668 3.04599 7.53935 2.77665 7.47868C2.65999 7.45268 2.50065 7.41667 2.50065 7V3C2.50065 2.60733 2.60798 2.5 3.00065 2.5H13.0007C13.3933 2.5 13.5007 2.60733 13.5007 3V7C13.5007 7.41667 13.3413 7.45268 13.2247 7.47868C12.9553 7.53935 12.786 7.80601 12.8467 8.07601C12.8987 8.30868 13.1053 8.46668 13.3333 8.46668C13.37 8.46668 13.406 8.46267 13.4433 8.45467C14.1153 8.304 14.5007 7.774 14.5007 7V3C14.5 2.06067 13.9393 1.5 13 1.5Z" fill="#3B3B3E"/>
</svg>
