<svg width="16" height="16" viewBox="0 0 16 16" fill="none" xmlns="http://www.w3.org/2000/svg">
<path d="M11.75 1.5H4.25C2.47667 1.5 1.5 2.47667 1.5 4.25V11.75C1.5 13.5233 2.47667 14.5 4.25 14.5H11.75C13.5233 14.5 14.5 13.5233 14.5 11.75V4.25C14.5 2.47667 13.5233 1.5 11.75 1.5ZM13.5 11.75C13.5 12.9767 12.9767 13.5 11.75 13.5H4.25C3.02333 13.5 2.5 12.9767 2.5 11.75V4.25C2.5 3.02333 3.02333 2.5 4.25 2.5H11.75C12.9767 2.5 13.5 3.02333 13.5 4.25V11.75ZM10.0767 6.11133H9.20264V5.47266C9.20264 4.95132 8.94334 4.46734 8.51001 4.17867C8.23934 3.998 7.90598 3.95334 7.59798 4.052C7.28865 4.15134 7.04596 4.38333 6.92529 4.70667L6.22998 6.81535H5.36068C4.79334 6.81535 4.33268 7.27601 4.33268 7.84334V10.3067C4.33268 10.8733 4.79334 11.3347 5.36068 11.3347H9.37337C10.3587 11.3347 10.6647 10.8233 10.8494 10.2713L11.5533 8.15999C11.742 7.59199 11.6947 7.06932 11.42 6.68799C11.2307 6.42399 10.844 6.11133 10.0767 6.11133ZM5.33333 10.3053V7.81466H5.83333V10.3053H5.33333ZM10.604 7.842L9.90064 9.95333C9.79264 10.2753 9.77404 10.3333 9.37337 10.3333L6.83268 10.316V7.74666C6.94002 7.68666 7.02665 7.59331 7.06665 7.47131L7.87467 5.01933L7.95532 5.01001C8.10999 5.11334 8.20264 5.28601 8.20264 5.47201V6.61068C8.20264 6.88668 8.42664 7.11068 8.70264 7.11068H10.0767C10.3447 7.11068 10.5346 7.16732 10.6086 7.27132C10.6866 7.37999 10.6853 7.59867 10.604 7.842Z" fill="#3B3B3E"/>
</svg>
