<svg width="16" height="16" viewBox="0 0 16 16" fill="none" xmlns="http://www.w3.org/2000/svg">
<path d="M7.01987 5.68621L4.70656 7.99953L7.01987 10.3128C7.21521 10.5082 7.21521 10.8249 7.01987 11.0202C6.92254 11.1175 6.79452 11.1668 6.66652 11.1668C6.53852 11.1668 6.4105 11.1182 6.31317 11.0202L3.6465 8.35353C3.45117 8.1582 3.45117 7.84151 3.6465 7.64617L6.31317 4.97951C6.5085 4.78417 6.82519 4.78417 7.02052 4.97951C7.21586 5.17484 7.21521 5.49088 7.01987 5.68621ZM12.3532 7.64617L9.68654 4.97951C9.49121 4.78417 9.17452 4.78417 8.97918 4.97951C8.78385 5.17484 8.78385 5.49153 8.97918 5.68686L11.2925 8.00018L8.97918 10.3135C8.78385 10.5088 8.78385 10.8255 8.97918 11.0208C9.07652 11.1182 9.20454 11.1675 9.33254 11.1675C9.46054 11.1675 9.58856 11.1188 9.68589 11.0208L12.3526 8.35418C12.5486 8.15752 12.5485 7.84151 12.3532 7.64617Z" fill="#3B3B3E"/>
</svg>
