<svg width="16" height="16" viewBox="0 0 16 16" fill="none" xmlns="http://www.w3.org/2000/svg">
<path d="M7.33325 13.167H3.33325C1.72125 13.167 0.833252 12.279 0.833252 10.667V4.66699C0.833252 3.05499 1.72125 2.16699 3.33325 2.16699H11.3333C12.9453 2.16699 13.8333 3.05499 13.8333 4.66699V6.66699C13.8333 6.94299 13.6093 7.16699 13.3333 7.16699C13.0573 7.16699 12.8333 6.94299 12.8333 6.66699V4.66699C12.8333 3.61566 12.3846 3.16699 11.3333 3.16699H3.33325C2.28192 3.16699 1.83325 3.61566 1.83325 4.66699V10.667C1.83325 11.7183 2.28192 12.167 3.33325 12.167H7.33325C7.60925 12.167 7.83325 12.391 7.83325 12.667C7.83325 12.943 7.60925 13.167 7.33325 13.167ZM8.01929 8.11966L11.2939 5.73832C11.5172 5.57632 11.5666 5.263 11.4039 5.03966C11.2419 4.817 10.93 4.76632 10.7053 4.92966L7.43058 7.31099C7.37192 7.35366 7.29394 7.35366 7.23527 7.31099L3.96053 4.92966C3.7352 4.76632 3.42396 4.81766 3.26196 5.03966C3.0993 5.263 3.14866 5.57566 3.37199 5.73832L6.64657 8.12032C6.8519 8.26965 7.0926 8.34366 7.3326 8.34366C7.5726 8.34366 7.81462 8.26899 8.01929 8.11966ZM15.1666 11.3337C15.1666 9.58766 13.7459 8.16699 11.9999 8.16699C10.2539 8.16699 8.83325 9.58766 8.83325 11.3337C8.83325 13.0797 10.2539 14.5003 11.9999 14.5003C13.7459 14.5003 15.1666 13.0797 15.1666 11.3337ZM14.1666 11.3337C14.1666 12.5283 13.1946 13.5003 11.9999 13.5003C10.8053 13.5003 9.83325 12.5283 9.83325 11.3337C9.83325 10.139 10.8053 9.16699 11.9999 9.16699C13.1946 9.16699 14.1666 10.139 14.1666 11.3337ZM12.0753 12.243L13.1866 11.1317C13.3819 10.9363 13.3819 10.6197 13.1866 10.4243C12.9913 10.229 12.6746 10.229 12.4792 10.4243L11.7213 11.1817L11.5193 10.9797C11.324 10.7843 11.0073 10.7843 10.8119 10.9797C10.6166 11.175 10.6166 11.4917 10.8119 11.687L11.3673 12.2423C11.4613 12.3363 11.588 12.389 11.7206 12.389C11.8546 12.389 11.9819 12.3363 12.0753 12.243Z" fill="#3B3B3E"/>
</svg>
