<svg width="16" height="16" viewBox="0 0 16 16" fill="none" xmlns="http://www.w3.org/2000/svg">
<path d="M12 13.8337H4C2.388 13.8337 1.5 12.9457 1.5 11.3337V4.66699C1.5 3.05499 2.388 2.16699 4 2.16699H6.66667C6.79933 2.16699 6.92669 2.21966 7.02002 2.31366L8.87337 4.16699H12C13.612 4.16699 14.5 5.05499 14.5 6.66699V11.3337C14.5 12.9457 13.612 13.8337 12 13.8337ZM4 3.16699C2.94867 3.16699 2.5 3.61566 2.5 4.66699V11.3337C2.5 12.385 2.94867 12.8337 4 12.8337H12C13.0513 12.8337 13.5 12.385 13.5 11.3337V6.66699C13.5 5.61566 13.0513 5.16699 12 5.16699H8.66667C8.534 5.16699 8.40665 5.11432 8.31331 5.02032L6.45996 3.16699H4ZM9.25863 11.4763C9.13663 11.4763 9.01405 11.4477 8.90072 11.389L8 10.9257L7.09994 11.3883C6.83527 11.525 6.51928 11.5003 6.27995 11.323C6.04195 11.1483 5.92539 10.859 5.97673 10.569L6.14535 9.60366L5.40072 8.89299C5.19072 8.69232 5.11464 8.39565 5.20264 8.11965C5.29197 7.84165 5.52802 7.64299 5.81869 7.60099L6.85872 7.45298L7.30469 6.56767C7.43735 6.30433 7.70465 6.14099 8.00065 6.14099C8.29665 6.14099 8.56395 6.30433 8.69661 6.56767L9.14274 7.45298L10.182 7.60099C10.4733 7.64233 10.7093 7.84098 10.7987 8.11965C10.8867 8.39565 10.8113 8.69167 10.6006 8.89233L9.85596 9.60299L10.0247 10.569C10.0761 10.8583 9.95934 11.147 9.72201 11.3217C9.58334 11.4243 9.42196 11.4763 9.25863 11.4763ZM8 9.89632C8.12 9.89632 8.23995 9.92433 8.34928 9.981L8.95996 10.295L8.84668 9.64565C8.80401 9.39765 8.8867 9.14633 9.06803 8.97233L9.54069 8.521L8.87793 8.42633C8.6326 8.39166 8.41929 8.23965 8.30729 8.01965L8 7.41032L7.69401 8.01766C7.58001 8.23966 7.3674 8.39234 7.12207 8.427L6.45931 8.52167L6.93132 8.97233C7.11332 9.147 7.19597 9.39833 7.15397 9.645L7.04004 10.295L7.65137 9.981C7.7607 9.92433 7.88 9.89632 8 9.89632ZM9.19938 7.56767H9.20605H9.19938ZM7.80273 7.01965C7.8034 7.01965 7.80339 7.02032 7.80339 7.02032L7.80273 7.01965Z" fill="#3B3B3E"/>
</svg>
