<svg width="16" height="16" viewBox="0 0 16 16" fill="none" xmlns="http://www.w3.org/2000/svg">
<path d="M9.17334 6.66667C9.17334 6.20667 9.54001 5.83333 10.0067 5.83333C10.4667 5.83333 10.84 6.20667 10.84 6.66667C10.84 7.12667 10.4667 7.5 10.0067 7.5C9.54667 7.5 9.17334 7.12667 9.17334 6.66667ZM6.84001 6.66667C6.84001 6.20667 6.46667 5.83333 6.00667 5.83333C5.54667 5.83333 5.17334 6.20667 5.17334 6.66667C5.17334 7.12667 5.55334 7.5 6.00667 7.5C6.46001 7.5 6.84001 7.12667 6.84001 6.66667ZM9.77334 9.46668C9.65334 9.22001 9.35334 9.11999 9.10667 9.23999C8.42667 9.57999 7.59334 9.58666 6.88001 9.23999C6.63334 9.11999 6.33334 9.22666 6.21334 9.47333C6.09334 9.71999 6.20001 10.02 6.44668 10.14C6.93334 10.3733 7.45334 10.4933 7.98667 10.4933C8.52001 10.4933 9.06667 10.3733 9.54667 10.1333C9.79334 10.0133 9.89334 9.71334 9.77334 9.46V9.46668ZM14.4933 4.24666V9.16667C14.4933 9.83333 14.2333 10.46 13.76 10.9333L10.9333 13.76C10.4667 14.2267 9.82667 14.4933 9.16667 14.4933H4.24666C2.39333 14.4933 1.5 13.5933 1.5 11.7467V4.24666C1.5 2.39333 2.4 1.5 4.24666 1.5H11.7467C13.6 1.5 14.4933 2.4 14.4933 4.24666ZM9.16667 13.5C9.28 13.5 9.38666 13.4867 9.49333 13.46V12.3333C9.49333 10.7733 10.7667 9.5 12.3267 9.5H13.4533C13.48 9.39333 13.4933 9.28667 13.4933 9.17334V4.25334C13.4933 2.94667 13.0533 2.50667 11.7467 2.50667H4.24666C2.94 2.50667 2.5 2.94667 2.5 4.25334V11.7533C2.5 13.06 2.94 13.5 4.24666 13.5H9.16667ZM12.7867 10.5H12.3267C11.3133 10.5 10.4933 11.32 10.4933 12.3333V12.7933L12.7867 10.5Z" fill="#3B3B3E"/>
</svg>
