<svg width="16" height="16" viewBox="0 0 16 16" fill="none" xmlns="http://www.w3.org/2000/svg">
<path d="M12.3534 5.02026C12.256 5.11759 12.128 5.16691 12 5.16691C11.872 5.16691 11.744 5.11826 11.6466 5.02026L9.83333 3.20695V12.0002C9.83333 13.3789 8.71133 14.5002 7.33333 14.5002H4C3.724 14.5002 3.5 14.2762 3.5 14.0002C3.5 13.7242 3.724 13.5002 4 13.5002H7.33333C8.16 13.5002 8.83333 12.8276 8.83333 12.0002V3.2076L7.02002 5.02091C6.82469 5.21624 6.508 5.21624 6.31266 5.02091C6.11733 4.82558 6.11733 4.50889 6.31266 4.31355L8.97933 1.64689C9.02533 1.60089 9.08059 1.56431 9.14193 1.53898C9.26393 1.48831 9.40193 1.48831 9.52393 1.53898C9.58526 1.56431 9.64069 1.60089 9.68669 1.64689L12.3534 4.31355C12.5487 4.50889 12.5487 4.82493 12.3534 5.02026Z" fill="#3B3B3E"/>
</svg>
