<svg width="16" height="16" viewBox="0 0 16 16" fill="none" xmlns="http://www.w3.org/2000/svg">
<path d="M12.0001 4.16699H8.87411L7.02075 2.31366C6.92675 2.21966 6.80007 2.16699 6.6674 2.16699H4.00073C2.38873 2.16699 1.50073 3.05499 1.50073 4.66699V11.3337C1.50073 12.9457 2.38873 13.8337 4.00073 13.8337H12.0007C13.6127 13.8337 14.5007 12.9457 14.5007 11.3337V6.66699C14.5001 5.05499 13.6121 4.16699 12.0001 4.16699ZM13.5001 11.3337C13.5001 12.385 13.0514 12.8337 12.0001 12.8337H4.00008C2.94875 12.8337 2.50008 12.385 2.50008 11.3337V4.66699C2.50008 3.61566 2.94875 3.16699 4.00008 3.16699H6.45939L8.31274 5.02032C8.40674 5.11432 8.53343 5.16699 8.6661 5.16699H11.9994C13.0508 5.16699 13.4994 5.61566 13.4994 6.66699V11.3337H13.5001ZM9.50008 8.28499V7.66699C9.50008 6.83966 8.82675 6.16699 8.00008 6.16699C7.17341 6.16699 6.50008 6.83966 6.50008 7.66699V8.28499C6.08075 8.46966 5.83341 8.86699 5.83341 9.41699V10.5837C5.83341 11.3543 6.31275 11.8337 7.08341 11.8337H8.91675C9.68741 11.8337 10.1667 11.3543 10.1667 10.5837V9.41699C10.1667 8.86699 9.91941 8.46966 9.50008 8.28499ZM8.00008 7.16699C8.27541 7.16699 8.50008 7.39099 8.50008 7.66699V8.16699H7.50008V7.66699C7.50008 7.39099 7.72475 7.16699 8.00008 7.16699ZM9.16675 10.5837C9.16675 10.8077 9.14141 10.8337 8.91675 10.8337H7.08341C6.85875 10.8337 6.83341 10.8077 6.83341 10.5837V9.41699C6.83341 9.23099 6.85809 9.18366 6.99276 9.17232C6.99542 9.17232 6.99741 9.17367 7.00008 9.17367C7.00475 9.17367 7.00875 9.171 7.01408 9.171C7.03675 9.16967 7.05475 9.16699 7.08341 9.16699H8.91675C8.94608 9.16699 8.96342 9.16967 8.98608 9.171C8.99075 9.171 8.99475 9.17367 9.00008 9.17367C9.00275 9.17367 9.00474 9.17232 9.00741 9.17232C9.14207 9.18366 9.16675 9.23099 9.16675 9.41699V10.5837Z" fill="#3B3B3E"/>
</svg>
