<svg width="16" height="16" viewBox="0 0 16 16" fill="none" xmlns="http://www.w3.org/2000/svg">
<path d="M8.49992 12.667C8.49992 12.943 8.27592 13.167 7.99992 13.167H3.33325C1.72125 13.167 0.833252 12.279 0.833252 10.667V4.66699C0.833252 3.05499 1.72125 2.16699 3.33325 2.16699H11.3333C12.9453 2.16699 13.8333 3.05499 13.8333 4.66699V7.33366C13.8333 7.60966 13.6093 7.83366 13.3333 7.83366C13.0573 7.83366 12.8333 7.60966 12.8333 7.33366V4.66699C12.8333 3.61566 12.3846 3.16699 11.3333 3.16699H3.33325C2.28192 3.16699 1.83325 3.61566 1.83325 4.66699V10.667C1.83325 11.7183 2.28192 12.167 3.33325 12.167H7.99992C8.27592 12.167 8.49992 12.391 8.49992 12.667ZM10.706 4.92966L7.43123 7.31099C7.37257 7.35299 7.29459 7.35299 7.23592 7.31099L3.96118 4.92966C3.73652 4.76632 3.42461 4.81766 3.26261 5.03966C3.09995 5.263 3.14931 5.57632 3.37264 5.73832L6.64722 8.11966C6.85255 8.26899 7.09325 8.34366 7.33325 8.34366C7.57325 8.34366 7.81462 8.26899 8.01929 8.11966L11.2939 5.73832C11.5172 5.57632 11.5666 5.263 11.4039 5.03966C11.2419 4.817 10.9306 4.76566 10.706 4.92966ZM15.0199 14.3537C14.9226 14.451 14.7946 14.5003 14.6666 14.5003C14.5386 14.5003 14.4106 14.4517 14.3132 14.3537L13.2799 13.321C12.8952 13.573 12.4379 13.7223 11.9446 13.7223C10.5966 13.7223 9.49992 12.6257 9.49992 11.2783C9.49992 9.93033 10.5966 8.83366 11.9446 8.83366C13.2919 8.83366 14.3886 9.93033 14.3886 11.2783C14.3886 11.7717 14.2392 12.2297 13.9866 12.6137L15.0199 13.6463C15.2153 13.8423 15.2153 14.1583 15.0199 14.3537ZM11.9446 12.7223C12.7406 12.7223 13.3886 12.0743 13.3886 11.2783C13.3886 10.4817 12.7406 9.83366 11.9446 9.83366C11.1479 9.83366 10.4999 10.4817 10.4999 11.2783C10.4999 12.0743 11.1479 12.7223 11.9446 12.7223Z" fill="#3B3B3E"/>
</svg>
