<svg width="16" height="16" viewBox="0 0 16 16" fill="none" xmlns="http://www.w3.org/2000/svg">
<path d="M10.6666 14.5H5.33325C3.72125 14.5 2.83325 13.612 2.83325 12V4C2.83325 2.388 3.72125 1.5 5.33325 1.5H8.91919C9.31386 1.5 9.70057 1.65996 9.9799 1.93929L12.7273 4.68669C13.0066 4.96602 13.1666 5.35273 13.1666 5.7474V12C13.1666 13.612 12.2786 14.5 10.6666 14.5ZM5.33325 2.5C4.28192 2.5 3.83325 2.94867 3.83325 4V12C3.83325 13.0513 4.28192 13.5 5.33325 13.5H10.6666C11.7179 13.5 12.1666 13.0513 12.1666 12V5.7474C12.1666 5.61606 12.1133 5.48671 12.0199 5.39404L9.27254 2.64665C9.17921 2.55331 9.05052 2.5 8.91919 2.5H5.33325ZM8.49992 10.6667V6.66667C8.49992 6.46533 8.37926 6.28405 8.19393 6.20605C8.00993 6.12672 7.79462 6.16726 7.65129 6.30859L6.65129 7.28402C6.45329 7.47668 6.44918 7.79337 6.64185 7.99137C6.83518 8.18871 7.15187 8.19333 7.3492 8L7.50057 7.8527V10.6667C7.50057 10.9427 7.72457 11.1667 8.00057 11.1667C8.27657 11.1667 8.49992 10.9427 8.49992 10.6667Z" fill="#3B3B3E"/>
</svg>
