<svg width="16" height="16" viewBox="0 0 16 16" fill="none" xmlns="http://www.w3.org/2000/svg">
<path d="M13 2.83381H9.66667C8.84 2.83381 8.16667 3.50714 8.16667 4.33381V7.66714C8.16667 8.49381 8.84 9.16714 9.66667 9.16714H10.5267L9.12667 11.9605C9 12.2205 9.01333 12.5205 9.16667 12.7738C9.32 13.0271 9.58667 13.1671 9.87333 13.1671H11.5867C12.0333 13.1671 12.4333 12.9205 12.6333 12.5205L14.3467 9.10047C14.4533 8.89381 14.5067 8.66048 14.5067 8.42714V4.32715C14.5067 3.50048 13.8333 2.82715 13.0067 2.82715L13 2.83381ZM13.5 8.43381C13.5 8.51381 13.48 8.58715 13.4467 8.66048L11.7333 12.0805C11.7067 12.1405 11.6467 12.1738 11.5867 12.1738H10.14L11.78 8.90048C11.86 8.74715 11.8467 8.56048 11.76 8.41381C11.6667 8.26714 11.5067 8.17381 11.3333 8.17381H9.66667C9.39333 8.17381 9.16667 7.94714 9.16667 7.67381V4.34047C9.16667 4.06714 9.39333 3.84047 9.66667 3.84047H13C13.2733 3.84047 13.5 4.06714 13.5 4.34047V8.44048V8.43381ZM6.33333 2.83381H3C2.17333 2.83381 1.5 3.50714 1.5 4.33381V7.66714C1.5 8.49381 2.17333 9.16714 3 9.16714H3.86L2.46 11.9605C2.33333 12.2205 2.34667 12.5205 2.5 12.7738C2.65333 13.0271 2.92 13.1671 3.20667 13.1671H4.92C5.36667 13.1671 5.76666 12.9205 5.96666 12.5205L7.68 9.10047C7.78667 8.89381 7.84 8.66048 7.84 8.42714V4.32715C7.84 3.50048 7.16666 2.82715 6.34 2.82715L6.33333 2.83381ZM6.83333 8.43381C6.83333 8.51381 6.81333 8.58715 6.78 8.66048L5.06667 12.0805C5.04 12.1405 4.98 12.1738 4.92 12.1738H3.47334L5.11333 8.90048C5.19333 8.74715 5.18 8.56048 5.09333 8.41381C5 8.26714 4.84 8.17381 4.66667 8.17381H3C2.72667 8.17381 2.5 7.94714 2.5 7.67381V4.34047C2.5 4.06714 2.72667 3.84047 3 3.84047H6.33333C6.60667 3.84047 6.83333 4.06714 6.83333 4.34047V8.44048V8.43381Z" fill="#3B3B3E"/>
</svg>
