<svg width="16" height="16" viewBox="0 0 16 16" fill="none" xmlns="http://www.w3.org/2000/svg">
<path d="M7.99999 14.5C7.34132 14.5 6.74933 14.158 6.41466 13.5853C6.27599 13.3467 6.35599 13.0407 6.59465 12.9013C6.83265 12.7627 7.13865 12.8427 7.27865 13.0813C7.58465 13.606 8.41532 13.606 8.72132 13.0813C8.86065 12.8427 9.16732 12.7627 9.40532 12.9013C9.64399 13.04 9.72465 13.3467 9.58531 13.5853C9.25065 14.158 8.65865 14.5 7.99999 14.5ZM13.7833 12.2167C13.8666 12.0433 13.8433 11.838 13.724 11.688C13.7113 11.6727 12.4966 10.126 12.4966 8.33333V5.99666C12.4966 3.51733 10.4793 1.5 7.99999 1.5C5.52065 1.5 3.50332 3.51733 3.50332 5.99666V8.33333C3.50332 10.126 2.28865 11.6727 2.27599 11.688C2.15665 11.838 2.13333 12.044 2.21666 12.2167C2.29999 12.3893 2.47465 12.5 2.66665 12.5H13.3333C13.5253 12.5 13.7 12.3893 13.7833 12.2167ZM4.50332 8.33333V5.99666C4.50332 4.06866 6.07199 2.5 7.99999 2.5C9.92799 2.5 11.4966 4.06866 11.4966 5.99666V8.33333C11.4966 9.624 11.9967 10.772 12.4087 11.5H3.59064C4.00331 10.772 4.50332 9.624 4.50332 8.33333ZM9.83332 7.33333C9.83332 7.05733 9.60932 6.83333 9.33332 6.83333H6.66665C6.39065 6.83333 6.16665 7.05733 6.16665 7.33333C6.16665 7.60933 6.39065 7.83333 6.66665 7.83333H9.33332C9.60932 7.83333 9.83332 7.60933 9.83332 7.33333Z" fill="#3B3B3E"/>
</svg>
