<svg width="16" height="16" viewBox="0 0 16 16" fill="none" xmlns="http://www.w3.org/2000/svg">
<path d="M13.6867 4.52017C13.5934 4.42684 13.4667 4.3735 13.3333 4.3735C12.82 4.3735 12.22 4.21351 11.8667 3.98017C11.32 3.62684 10.94 3.06684 10.8267 2.4335C10.8 2.2935 10.7867 2.14684 10.7933 2.00684C10.7933 1.8735 10.74 1.74684 10.6466 1.6535C10.5533 1.56017 10.4267 1.50684 10.2933 1.50684H8.23332C7.95998 1.50684 7.73332 1.7335 7.73332 2.00684V10.2002C7.73332 10.3268 7.71334 10.4535 7.67334 10.5735C7.57334 10.8935 7.35335 11.1535 7.06002 11.3068C6.76668 11.4602 6.42665 11.4935 6.10665 11.3935C5.78665 11.2935 5.52667 11.0735 5.37333 10.7802C5.22 10.4868 5.18667 10.1468 5.29334 9.82684C5.39334 9.50684 5.61332 9.24684 5.90666 9.09351C6.19999 8.94017 6.53999 8.90684 6.85999 9.00684C7.01332 9.0535 7.18001 9.02684 7.30668 8.9335C7.43335 8.84017 7.51335 8.68684 7.51335 8.53351V6.42684C7.51335 6.18017 7.32666 5.96684 7.08 5.9335C6.88666 5.90684 6.68665 5.8935 6.48665 5.8935C5.33332 5.8935 4.25332 6.34017 3.43998 7.1535C2.62665 7.96684 2.18001 9.04684 2.17334 10.2002C2.17334 12.5802 4.10665 14.5135 6.47998 14.5135C8.85331 14.5135 10.7933 12.5802 10.7933 10.2068V6.88018C11.56 7.23351 12.4533 7.4335 13.3267 7.4335C13.6067 7.4335 13.84 7.2135 13.84 6.9335V4.88684C13.84 4.75351 13.7867 4.62684 13.6933 4.53351L13.6867 4.52017ZM12.8333 6.40018C12.0067 6.31351 11.1733 6.02684 10.58 5.60017C10.4267 5.4935 10.2267 5.4735 10.06 5.56017C9.89335 5.64684 9.78666 5.82017 9.78666 6.00684V10.1935C9.78666 12.0202 8.30001 13.5002 6.47335 13.5002C4.64668 13.5002 3.16667 12.0135 3.16667 10.1868C3.16667 9.30017 3.51335 8.47351 4.14001 7.84684C4.76668 7.22018 5.59331 6.88018 6.47998 6.88018C6.47998 6.88018 6.49333 6.88018 6.5 6.88018V7.94017C6.14667 7.92684 5.76668 8.02017 5.43335 8.1935C4.90002 8.4735 4.50666 8.94018 4.32666 9.51351C4.14666 10.0868 4.19998 10.6935 4.47998 11.2268C4.75998 11.7602 5.22667 12.1535 5.80001 12.3335C6.37334 12.5135 6.98001 12.4602 7.51335 12.1802C8.04668 11.9002 8.44 11.4335 8.62 10.8602C8.68666 10.6402 8.72668 10.4135 8.72668 10.1868V2.49351H9.82666C9.82666 2.53351 9.84001 2.56684 9.84668 2.60684C10.0133 3.51351 10.56 4.31351 11.3267 4.81351C11.72 5.07351 12.28 5.26017 12.84 5.33351V6.38684L12.8333 6.40018Z" fill="#3B3B3E"/>
</svg>
