<svg width="16" height="16" viewBox="0 0 16 16" fill="none" xmlns="http://www.w3.org/2000/svg">
<path d="M14 6.16651H13.3333H11.4327L12.3453 5.13851C12.4433 5.15651 12.5474 5.16584 12.6554 5.16651C12.66 5.16651 12.664 5.16651 12.668 5.16651C13.4333 5.16651 14.0794 4.74323 14.356 4.0599C14.6494 3.33457 14.492 2.55318 13.9447 2.02051C13.3973 1.48718 12.61 1.35186 11.8887 1.66586C11.2467 1.94519 10.8334 2.60043 10.8354 3.35043L7.132 6.16651H2.66667H2C1.724 6.16651 1.5 6.39051 1.5 6.66651C1.5 6.94251 1.724 7.16651 2 7.16651H2.20068C2.36935 9.56317 3.45667 11.3686 5.27401 12.2326C5.11067 12.5506 4.94737 12.9965 4.89071 13.5745C4.86737 13.8125 4.94531 14.0505 5.10531 14.2272C5.26197 14.4005 5.486 14.4998 5.71867 14.4998H10.2867C10.52 14.4998 10.7433 14.4005 10.9 14.2279C11.06 14.0512 11.138 13.8132 11.1147 13.5752C11.058 12.9972 10.8947 12.5506 10.7314 12.2332C12.544 11.3706 13.6293 9.56516 13.7993 7.16716H14C14.276 7.16716 14.5 6.94316 14.5 6.66716C14.5 6.39116 14.276 6.16651 14 6.16651ZM11.4394 4.14714C11.6907 3.95647 11.8347 3.66249 11.8333 3.33382C11.8327 2.99782 12.0113 2.70319 12.288 2.58252C12.634 2.43119 12.9927 2.48849 13.2467 2.73649C13.5007 2.98383 13.568 3.33791 13.428 3.68457C13.3053 3.98657 13.022 4.16586 12.668 4.16586C12.6273 4.16852 12.57 4.16248 12.5227 4.15381C12.21 4.09781 11.8807 4.21391 11.6487 4.46924L10.0986 6.16586H8.78263L11.4394 4.14714ZM5.90731 13.4998C5.98597 12.9925 6.16331 12.6712 6.27865 12.4998H9.72534C9.84267 12.6725 10.0193 12.9938 10.0973 13.4998H5.90731ZM9.87736 11.4998H6.12866C4.39066 10.8838 3.35802 9.35984 3.19002 7.16651H12.81C12.64 9.36184 11.6094 10.8865 9.87736 11.4998Z" fill="#3B3B3E"/>
</svg>
