<svg width="16" height="16" viewBox="0 0 16 16" fill="none" xmlns="http://www.w3.org/2000/svg">
<path d="M14.5 6.00016C14.5 4.98883 13.678 4.16683 12.6667 4.16683H11.3047L9.86336 1.74416C9.72203 1.50816 9.41598 1.42816 9.17798 1.57016C8.94131 1.71149 8.86265 2.01816 9.00399 2.25549L10.1407 4.16616H6.04004L7.19401 2.25816C7.33734 2.02216 7.26131 1.71483 7.02531 1.57149C6.78798 1.42816 6.4807 1.50416 6.3387 1.74016L4.87134 4.1655H3.33333C2.322 4.1655 1.5 4.9875 1.5 5.99883C1.5 6.72483 1.92734 7.34816 2.54134 7.64483L3.0013 12.2475C3.15264 13.7622 3.96602 14.4988 5.48869 14.4988H10.5353C12.058 14.4988 12.872 13.7628 13.0227 12.2475L13.484 7.63083C14.084 7.33016 14.5 6.7155 14.5 6.00016ZM3.33333 5.16683H12.6667C13.126 5.16683 13.5 5.54083 13.5 6.00016C13.5 6.4595 13.126 6.8335 12.6667 6.8335H3.33333C2.874 6.8335 2.5 6.4595 2.5 6.00016C2.5 5.54083 2.874 5.16683 3.33333 5.16683ZM12.0286 12.1495C11.9426 13.0048 11.6713 13.5002 10.536 13.5002H5.48934C4.34801 13.5002 4.08466 13.0255 3.99666 12.1495L3.56535 7.8335H12.4607L12.0286 12.1495ZM8.88664 8.27817C8.51797 8.2655 8.21933 8.4115 8 8.59483C7.78133 8.41216 7.4887 8.2655 7.11336 8.27817C6.61536 8.28017 6.19603 8.47216 5.90137 8.83149C5.55003 9.26016 5.4207 9.8795 5.54736 10.5322C5.85336 12.1115 7.71463 12.9748 7.79329 13.0108C7.85929 13.0408 7.92932 13.0555 8.00065 13.0555C8.07198 13.0555 8.14201 13.0408 8.20801 13.0108C8.28667 12.9748 10.148 12.1115 10.454 10.5322C10.5807 9.8795 10.452 9.25949 10.1007 8.83149C9.80467 8.47149 9.3853 8.28017 8.88664 8.27817ZM9.47135 10.3415C9.31202 11.1655 8.41333 11.7588 8 11.9922C7.58667 11.7588 6.68798 11.1655 6.52865 10.3415C6.46065 9.99349 6.51666 9.65817 6.67399 9.46617C6.77666 9.34083 6.92265 9.2795 7.11865 9.27883C7.11932 9.27883 7.12002 9.27883 7.12069 9.27883C7.40002 9.27883 7.51598 9.57283 7.52531 9.60016C7.59398 9.80483 7.78467 9.94283 8 9.94283C8.21533 9.94283 8.40602 9.80483 8.47469 9.60016C8.47536 9.59683 8.59401 9.28083 8.88135 9.27883C9.07801 9.2795 9.22399 9.34083 9.32666 9.46617C9.48399 9.65683 9.53935 9.99283 9.47135 10.3415Z" fill="#3B3B3E"/>
</svg>
