<svg width="16" height="16" viewBox="0 0 16 16" fill="none" xmlns="http://www.w3.org/2000/svg">
<path d="M7.54862 14.5004C7.17596 14.5004 6.80997 14.3691 6.50997 14.1151L4.04928 12.0303C3.89928 11.903 3.70795 11.8331 3.51062 11.8331H2.33264C1.50597 11.8331 0.832642 11.1604 0.832642 10.3331V5.66705C0.832642 4.83972 1.50597 4.16705 2.33264 4.16705H3.51062C3.70795 4.16705 3.89926 4.09712 4.04993 3.96979L6.51062 1.88499C6.99595 1.47365 7.65466 1.38507 8.23132 1.6524C8.80799 1.91974 9.16598 2.48043 9.16598 3.11643V12.885C9.16598 13.521 8.80799 14.0817 8.23132 14.349C8.01199 14.4504 7.77929 14.5004 7.54862 14.5004ZM2.33329 5.1664C2.05796 5.1664 1.83329 5.3904 1.83329 5.6664V10.3324C1.83329 10.6084 2.05796 10.8324 2.33329 10.8324H3.51127C3.9446 10.8324 4.36526 10.9863 4.69592 11.267L7.15662 13.3518C7.34328 13.5098 7.58725 13.5443 7.81059 13.4403C8.03325 13.337 8.16598 13.129 8.16598 12.8837V3.11513C8.16598 2.8698 8.03325 2.66166 7.81059 2.55833C7.58792 2.45499 7.3426 2.48836 7.15727 2.64703L4.69592 4.73167C4.36526 5.01167 3.9446 5.1664 3.51127 5.1664H2.33329V5.1664ZM15.1666 7.99973C15.1666 7.72373 14.9426 7.49973 14.6666 7.49973H11.3333C11.0573 7.49973 10.8333 7.72373 10.8333 7.99973C10.8333 8.27573 11.0573 8.49973 11.3333 8.49973H14.6666C14.9426 8.49973 15.1666 8.27573 15.1666 7.99973Z" fill="#3B3B3E"/>
</svg>
