<svg width="16" height="16" viewBox="0 0 16 16" fill="none" xmlns="http://www.w3.org/2000/svg">
<path d="M3.90004 10.487C3.4667 10.487 3.04004 10.6537 2.71337 10.9803C2.17337 11.5203 1.66003 13.3337 1.52003 13.8737C1.47337 14.047 1.52003 14.227 1.6467 14.3537C1.74003 14.4537 1.87337 14.507 2.00671 14.507C2.04671 14.507 2.0867 14.507 2.1267 14.4937C2.6467 14.367 4.3867 13.907 4.93336 13.367C5.61336 12.687 5.66003 11.6204 5.03336 10.987C4.72669 10.6804 4.3267 10.507 3.91336 10.4937L3.90004 10.487ZM4.22003 12.647C4.05336 12.8137 3.42002 13.0604 2.74002 13.2737C2.98002 12.5404 3.25338 11.8603 3.42671 11.6803C3.56004 11.547 3.71337 11.4737 3.88004 11.4803C4.04004 11.4803 4.19337 11.5537 4.32004 11.6803C4.56004 11.9203 4.51336 12.3537 4.22003 12.6403V12.647ZM10.1734 3.85368C9.07337 3.85368 8.17337 4.74701 8.17337 5.84701C8.17337 6.94701 9.07337 7.84035 10.1734 7.84035C11.2734 7.84035 12.1734 6.94701 12.1734 5.84701C12.1734 4.74701 11.2734 3.85368 10.1734 3.85368V3.85368ZM10.1734 6.84701C9.62004 6.84701 9.17337 6.40035 9.17337 5.85368C9.17337 5.30701 9.62004 4.86035 10.1734 4.86035C10.7267 4.86035 11.1734 5.30701 11.1734 5.85368C11.1734 6.40035 10.7267 6.84701 10.1734 6.84701ZM14.2934 2.04702C14.2467 1.86702 14.1067 1.72701 13.9267 1.68701C13.7667 1.64701 9.91337 0.747015 7.40004 3.26035C7.06004 3.60035 6.77337 3.93368 6.50671 4.25368L5.11338 4.55368C3.79338 4.76702 2.67336 5.66701 2.18003 6.90035L1.54003 8.49368C1.47337 8.66701 1.50003 8.86035 1.62003 9.00035C1.71336 9.11368 1.85337 9.17368 2.00003 9.17368C2.03337 9.17368 2.07337 9.17368 2.1067 9.16035L4.35337 8.66035C4.32003 8.77368 4.2867 8.88702 4.2467 9.00702C4.16003 9.30702 4.23336 9.62702 4.45336 9.84035L6.13338 11.5203C6.29338 11.6803 6.5067 11.767 6.7267 11.767C6.80003 11.767 6.87337 11.7603 6.94004 11.7403C7.08004 11.7003 7.21336 11.667 7.34669 11.627L6.84004 13.887C6.80004 14.067 6.86004 14.2537 7.00671 14.3737C7.10004 14.4537 7.21337 14.4937 7.33337 14.4937C7.39337 14.4937 7.46003 14.4803 7.52003 14.4603L9.11338 13.8203C10.3534 13.327 11.26 12.207 11.4667 10.9203L11.76 9.57368C12.0934 9.30035 12.4334 9.00702 12.7934 8.64702C15.3067 6.12702 14.3334 2.20702 14.2934 2.04035V2.04702ZM2.82669 7.98702L3.11338 7.27368C3.47338 6.36035 4.30671 5.70035 5.30004 5.54035L5.6667 5.46035C5.50003 5.74035 5.36003 6.02035 5.2267 6.31368C5.22003 6.32702 5.21337 6.34035 5.2067 6.35368C5.0267 6.74035 4.86669 7.14701 4.72003 7.56701L2.82669 7.98702ZM6.78004 10.7537L5.24002 9.21368C5.44002 8.54035 5.63336 7.95368 5.84669 7.40702L8.64003 10.1937C8.09336 10.3937 7.49336 10.567 6.7867 10.7603L6.78004 10.7537ZM10.4867 10.7403C10.3334 11.707 9.6667 12.5337 8.7467 12.8937L8.03336 13.1803L8.45336 11.307C8.90003 11.167 9.31337 11.007 9.7067 10.8403C9.71337 10.8403 9.7267 10.8337 9.73337 10.827C10.02 10.7003 10.2934 10.5603 10.56 10.407L10.4867 10.7403V10.7403ZM9.63338 9.77368L6.27337 6.42035C6.69337 5.60035 7.24004 4.83368 8.1067 3.96702C9.8467 2.22702 12.4934 2.46035 13.3867 2.60035C13.5467 3.50035 13.8334 6.20035 12.0867 7.94701C11.22 8.81368 10.4734 9.36035 9.63338 9.77368Z" fill="#3B3B3E"/>
</svg>
