<svg width="16" height="16" viewBox="0 0 16 16" fill="none" xmlns="http://www.w3.org/2000/svg">
<path d="M8.00016 0.833008C4.04816 0.833008 0.833496 4.04767 0.833496 7.99967C0.833496 11.9517 4.04816 15.1663 8.00016 15.1663C11.9522 15.1663 15.1668 11.9517 15.1668 7.99967C15.1668 4.04767 11.9522 0.833008 8.00016 0.833008ZM8.00016 14.1663C4.5995 14.1663 1.8335 11.4003 1.8335 7.99967C1.8335 4.59901 4.5995 1.83301 8.00016 1.83301C11.4008 1.83301 14.1668 4.59901 14.1668 7.99967C14.1668 11.4003 11.4008 14.1663 8.00016 14.1663ZM9.30957 4.93571C8.92157 4.75504 8.47289 4.8143 8.14355 5.09163L5.83545 7.0376C5.55145 7.27693 5.38883 7.62702 5.38883 7.99902C5.38883 8.37102 5.55145 8.72097 5.83545 8.95963L8.14355 10.9064C8.34689 11.0777 8.59486 11.1663 8.84619 11.1663C9.00219 11.1663 9.1609 11.1323 9.30957 11.063C9.70157 10.881 9.94482 10.4983 9.94482 10.0649V5.93359C9.94482 5.50026 9.70157 5.11838 9.30957 4.93571ZM8.94482 10.0658C8.94482 10.1084 8.92618 10.1391 8.88818 10.1571C8.83218 10.1837 8.79942 10.1531 8.78809 10.1431L6.48014 8.19629C6.40148 8.12962 6.38883 8.04499 6.38883 8.00033C6.38883 7.95566 6.40148 7.87038 6.48014 7.80371L8.78809 5.85693C8.79675 5.85027 8.81618 5.83366 8.84684 5.83366C8.85884 5.83366 8.87285 5.83642 8.88818 5.84375C8.92618 5.86108 8.94482 5.89172 8.94482 5.93506V10.0658Z" fill="#3B3B3E"/>
</svg>
