<svg width="16" height="16" viewBox="0 0 16 16" fill="none" xmlns="http://www.w3.org/2000/svg">
<path d="M7.99985 15.167C7.27585 15.167 6.59583 14.885 6.08383 14.373L1.62647 9.91634C0.570473 8.85967 0.570473 7.14033 1.62647 6.08366L6.08383 1.62695C6.59583 1.11495 7.27585 0.833008 7.99985 0.833008C8.72385 0.833008 9.40386 1.11495 9.91586 1.62695L14.3732 6.08366C15.4292 7.14033 15.4292 8.85967 14.3732 9.91634L9.91586 14.373C9.40386 14.885 8.72385 15.167 7.99985 15.167ZM7.99985 1.83366C7.54251 1.83366 7.11385 2.01164 6.79119 2.33431L2.33383 6.79102C1.66783 7.45768 1.66783 8.54297 2.33383 9.20964L6.79119 13.6663C7.43719 14.313 8.56316 14.313 9.20916 13.6663L13.6665 9.20964C14.3325 8.54297 14.3325 7.45768 13.6665 6.79102L9.20916 2.33431C8.88582 2.01164 8.45718 1.83366 7.99985 1.83366Z" fill="#3B3B3E"/>
</svg>
