<svg width="16" height="16" viewBox="0 0 16 16" fill="none" xmlns="http://www.w3.org/2000/svg">
<path d="M13.472 5.42718L9.39201 2.00652C8.58601 1.32986 7.41399 1.32986 6.60799 2.00652L2.52799 5.42718C1.89066 5.95584 1.5 6.35187 1.5 7.76653V11.9999C1.5 13.6119 2.388 14.4999 4 14.4999H12C13.612 14.4999 14.5 13.6119 14.5 11.9999V7.76653C14.5 6.35187 14.1093 5.95584 13.472 5.42718ZM13.5 11.9999C13.5 13.0512 13.0513 13.4999 12 13.4999H4C2.94867 13.4999 2.5 13.0512 2.5 11.9999V7.76653C2.5 6.7492 2.66802 6.60988 3.16602 6.19655L7.25 2.77256C7.46733 2.59056 7.734 2.4992 8 2.4992C8.266 2.4992 8.53267 2.59056 8.75 2.77256L12.834 6.19655C13.332 6.60988 13.5 6.7492 13.5 7.76653V11.9999ZM9.65397 9.94655C9.90597 9.56188 10.0553 9.10386 10.0553 8.61053C10.0553 7.26319 8.95866 6.16587 7.61133 6.16587C6.26333 6.16587 5.16667 7.26253 5.16667 8.61053C5.16667 9.95853 6.26333 11.0552 7.61133 11.0552C8.10466 11.0552 8.5627 10.9058 8.9467 10.6532L9.97933 11.6859C10.0767 11.7832 10.2047 11.8325 10.3327 11.8325C10.4607 11.8325 10.5887 11.7839 10.686 11.6859C10.8814 11.4906 10.8814 11.1739 10.686 10.9785L9.65397 9.94655ZM6.16667 8.61118C6.16667 7.81451 6.81466 7.16652 7.61133 7.16652C8.40733 7.16652 9.05534 7.81451 9.05534 8.61118C9.05534 9.40785 8.40733 10.0558 7.61133 10.0558C6.81466 10.0552 6.16667 9.40718 6.16667 8.61118Z" fill="#3B3B3E"/>
</svg>
