<svg width="16" height="16" viewBox="0 0 16 16" fill="none" xmlns="http://www.w3.org/2000/svg">
<path d="M8.00004 0.833008C4.04804 0.833008 0.833374 4.04767 0.833374 7.99967C0.833374 11.9517 4.04804 15.1663 8.00004 15.1663C11.952 15.1663 15.1667 11.9517 15.1667 7.99967C15.1667 4.04767 11.952 0.833008 8.00004 0.833008ZM8.00004 14.1663C4.59937 14.1663 1.83337 11.4003 1.83337 7.99967C1.83337 4.59901 4.59937 1.83301 8.00004 1.83301C11.4007 1.83301 14.1667 4.59901 14.1667 7.99967C14.1667 11.4003 11.4007 14.1663 8.00004 14.1663ZM9.94804 7.82967C10.1734 7.53834 10.3127 7.17704 10.3127 6.7797C10.3127 5.94637 9.72204 5.25034 8.94004 5.09367V4.66634C8.94004 4.39034 8.71604 4.16634 8.44004 4.16634C8.16404 4.16634 7.94004 4.39034 7.94004 4.66634V5.05965H7.54604V4.66634C7.54604 4.39034 7.32204 4.16634 7.04604 4.16634C6.77004 4.16634 6.54604 4.39034 6.54604 4.66634V5.05965H5.84338C5.56738 5.05965 5.34338 5.28365 5.34338 5.55965C5.34338 5.83565 5.56738 6.05965 5.84338 6.05965H6.19737V9.9397H5.84338C5.56738 9.9397 5.34338 10.1637 5.34338 10.4397C5.34338 10.7157 5.56738 10.9397 5.84338 10.9397H6.54604V11.333C6.54604 11.609 6.77004 11.833 7.04604 11.833C7.32204 11.833 7.54604 11.609 7.54604 11.333V10.9397H7.94004V11.333C7.94004 11.609 8.16404 11.833 8.44004 11.833C8.71604 11.833 8.94004 11.609 8.94004 11.333V10.9397H8.95137C9.89204 10.9397 10.6567 10.1683 10.6567 9.21964C10.6567 8.64698 10.3754 8.143 9.94804 7.82967ZM9.3127 6.7797C9.3127 7.17704 8.99605 7.49967 8.60738 7.49967H7.19737V6.05965H8.60738C8.99605 6.05965 9.3127 6.38237 9.3127 6.7797ZM8.95137 9.9397H7.19737V8.49967H8.60738H8.95205C9.34071 8.49967 9.65737 8.82231 9.65737 9.21964C9.65737 9.61698 9.34071 9.9397 8.95137 9.9397Z" fill="#3B3B3E"/>
</svg>
