<svg width="16" height="16" viewBox="0 0 16 16" fill="none" xmlns="http://www.w3.org/2000/svg">
<path d="M7.83325 12.667C7.83325 12.943 7.60925 13.167 7.33325 13.167H3.33325C1.72125 13.167 0.833252 12.279 0.833252 10.667V4.66699C0.833252 3.05499 1.72125 2.16699 3.33325 2.16699H11.3333C12.9453 2.16699 13.8333 3.05499 13.8333 4.66699V7.33366C13.8333 7.60966 13.6093 7.83366 13.3333 7.83366C13.0573 7.83366 12.8333 7.60966 12.8333 7.33366V4.66699C12.8333 3.61566 12.3846 3.16699 11.3333 3.16699H3.33325C2.28192 3.16699 1.83325 3.61566 1.83325 4.66699V10.667C1.83325 11.7183 2.28192 12.167 3.33325 12.167H7.33325C7.60925 12.167 7.83325 12.391 7.83325 12.667ZM11.4039 5.03966C11.2419 4.817 10.93 4.76632 10.7053 4.92966L7.43058 7.31099C7.37192 7.35299 7.29394 7.35299 7.23527 7.31099L3.96053 4.92966C3.73586 4.76632 3.42396 4.81766 3.26196 5.03966C3.0993 5.263 3.14866 5.57632 3.37199 5.73832L6.64657 8.11966C6.8519 8.26899 7.0926 8.34366 7.3326 8.34366C7.5726 8.34366 7.81397 8.26899 8.01864 8.11966L11.2932 5.73832C11.5172 5.57566 11.5672 5.263 11.4039 5.03966ZM14.9752 12.6123C14.5558 13.3177 13.6119 14.5003 11.9999 14.5003C10.3879 14.5003 9.44399 13.3177 9.02466 12.6123C8.76933 12.183 8.76933 11.651 9.02466 11.2217C9.44399 10.5163 10.3879 9.33366 11.9999 9.33366C13.6119 9.33366 14.5558 10.5163 14.9752 11.2217C15.2305 11.651 15.2305 12.183 14.9752 12.6123ZM14.116 11.7337C13.8053 11.2103 13.1173 10.3337 11.9999 10.3337C10.8826 10.3337 10.1945 11.2103 9.88387 11.733C9.81587 11.847 9.81587 11.9877 9.88387 12.101C10.1945 12.6243 10.8826 13.501 11.9999 13.501C13.1173 13.501 13.8053 12.6243 14.116 12.1017C14.116 12.1017 14.116 12.1017 14.116 12.101C14.1833 11.987 14.1833 11.847 14.116 11.7337ZM12.0133 11.085H12.0066C11.5473 11.085 11.178 11.4577 11.178 11.917C11.178 12.3763 11.5539 12.749 12.0126 12.749C12.4719 12.749 12.8446 12.3763 12.8446 11.917C12.8446 11.4577 12.4719 11.085 12.0133 11.085Z" fill="#3B3B3E"/>
</svg>
