<svg width="16" height="16" viewBox="0 0 16 16" fill="none" xmlns="http://www.w3.org/2000/svg">
<path d="M13.6866 5.64667L9.68661 1.64667C9.59261 1.55267 9.46592 1.5 9.33325 1.5H5.33325C3.72125 1.5 2.83325 2.388 2.83325 4V12C2.83325 13.612 3.72125 14.5 5.33325 14.5H11.3333C12.9453 14.5 13.8333 13.612 13.8333 12V6C13.8333 5.86733 13.7806 5.74 13.6866 5.64667ZM9.83325 3.20734L12.1259 5.5H11.3333C10.2819 5.5 9.83325 5.05133 9.83325 4V3.20734ZM11.3333 13.5H5.33325C4.28192 13.5 3.83325 13.0513 3.83325 12V4C3.83325 2.94867 4.28192 2.5 5.33325 2.5H8.83325V4C8.83325 5.612 9.72125 6.5 11.3333 6.5H12.8333V12C12.8333 13.0513 12.3846 13.5 11.3333 13.5ZM10.4586 7.59333C9.45991 7.33467 8.99527 7.11334 8.5686 6.89C8.42327 6.81534 8.25198 6.81466 8.10864 6.88866C7.67798 7.11066 7.20663 7.334 6.19263 7.63134C5.97996 7.694 5.83325 7.88934 5.83325 8.11134V9.40733C5.83325 11.0713 7.04051 12.082 8.16984 12.4727C8.22251 12.4907 8.27792 12.5 8.33325 12.5C8.38859 12.5 8.444 12.4907 8.49666 12.4727C9.626 12.082 10.8333 11.0713 10.8333 9.40733V8.07733C10.8333 7.84933 10.6792 7.65067 10.4586 7.59333ZM9.83325 9.40733C9.83325 10.6827 8.79125 11.268 8.33325 11.4633C7.87525 11.268 6.83325 10.6827 6.83325 9.40733V8.48201C7.48525 8.27734 7.91652 8.09866 8.33586 7.89333C8.74986 8.09666 9.18925 8.27466 9.83325 8.45933V9.40733Z" fill="#3B3B3E"/>
</svg>
