<svg width="16" height="16" viewBox="0 0 16 16" fill="none" xmlns="http://www.w3.org/2000/svg">
<path d="M7.99998 0.833008C4.04798 0.833008 0.833313 4.04767 0.833313 7.99967C0.833313 11.9517 4.04798 15.1663 7.99998 15.1663C11.952 15.1663 15.1666 11.9517 15.1666 7.99967C15.1666 4.04767 11.952 0.833008 7.99998 0.833008ZM7.99998 14.1663C4.59931 14.1663 1.83331 11.4003 1.83331 7.99967C1.83331 4.59901 4.59931 1.83301 7.99998 1.83301C11.4006 1.83301 14.1666 4.59901 14.1666 7.99967C14.1666 11.4003 11.4006 14.1663 7.99998 14.1663ZM8.65731 7.6477L7.58531 7.38167C7.41997 7.34034 7.27932 7.24764 7.17332 7.1123C7.07332 6.98564 7.01798 6.82301 7.01798 6.65568C7.01798 6.24301 7.3533 5.90771 7.76597 5.90771H8.23265C8.61398 5.90771 8.93331 6.19438 8.97664 6.57438C9.00731 6.84905 9.25198 7.04771 9.52932 7.01571C9.80398 6.98504 10.0013 6.73764 9.97064 6.46297C9.88064 5.66164 9.26064 5.04366 8.48464 4.93099V4.66634C8.48464 4.39034 8.26064 4.16634 7.98464 4.16634C7.70864 4.16634 7.48464 4.39034 7.48464 4.66634V4.93571C6.65464 5.07171 6.01798 5.7877 6.01798 6.65503C6.01798 7.04636 6.14932 7.42903 6.38599 7.7277C6.62332 8.0337 6.96198 8.25499 7.34198 8.35099L8.41398 8.61702C8.74798 8.70169 8.9813 9.00035 8.9813 9.34302C8.9813 9.54168 8.90331 9.72901 8.76131 9.87101C8.61931 10.013 8.43198 10.091 8.23332 10.091H7.76664C7.38531 10.091 7.06598 9.80432 7.02264 9.42432C6.99198 9.14965 6.7413 8.94966 6.46997 8.98299C6.1953 9.01366 5.99798 9.26098 6.02865 9.53564C6.11731 10.327 6.72264 10.941 7.48464 11.0644V11.333C7.48464 11.609 7.70864 11.833 7.98464 11.833C8.26064 11.833 8.48464 11.609 8.48464 11.333V11.0677C8.85464 11.0137 9.19798 10.8497 9.46798 10.5797C9.79864 10.249 9.9813 9.81032 9.9813 9.34432C9.9813 8.54232 9.43797 7.8457 8.65731 7.6477Z" fill="#3B3B3E"/>
</svg>
