<svg width="16" height="16" viewBox="0 0 16 16" fill="none" xmlns="http://www.w3.org/2000/svg">
<path d="M5.42667 11.153C5.16667 11.1996 5.01333 11.2263 4.79333 11.4463C4.69333 11.5463 4.56667 11.593 4.44 11.593C4.31334 11.593 4.18667 11.5463 4.08667 11.4463C3.89334 11.253 3.89334 10.933 4.08667 10.7397C4.53334 10.293 4.95333 10.2197 5.26 10.1663C5.52 10.1197 5.67333 10.093 5.89333 9.87298C6.11333 9.65298 6.14 9.49965 6.18667 9.23965C6.24 8.93298 6.31333 8.51299 6.76 8.06632C7.20667 7.61965 7.62666 7.54632 7.93333 7.49965C8.19333 7.45298 8.34667 7.42632 8.56667 7.20632C8.78667 6.98632 8.81333 6.83298 8.86 6.57298C8.91333 6.26632 8.98667 5.84632 9.42667 5.39965C9.86667 4.95299 10.2933 4.87965 10.6 4.83298C10.8533 4.78632 11.0133 4.75965 11.2333 4.53965C11.4267 4.34632 11.7467 4.34632 11.94 4.53965C12.1333 4.73298 12.1333 5.05298 11.94 5.24631C11.4933 5.69298 11.0733 5.76632 10.7667 5.81298C10.5133 5.85965 10.3533 5.88632 10.1333 6.10632C9.91333 6.32632 9.88666 6.47965 9.84 6.73965C9.78666 7.04632 9.71334 7.46631 9.27334 7.91298C8.82667 8.35965 8.40666 8.42632 8.1 8.47965C7.84666 8.52632 7.68666 8.55299 7.46666 8.77299C7.24666 8.99299 7.22 9.14632 7.17333 9.40632C7.12 9.71298 7.04666 10.133 6.6 10.5796C6.15333 11.0263 5.73333 11.0996 5.42667 11.153ZM13.96 6.08632C14.66 6.79299 14.66 7.93966 13.96 8.63966L8.62667 13.973C8.28667 14.313 7.82667 14.5063 7.34667 14.5063C6.86 14.5063 6.41333 14.313 6.07333 13.973L5.90667 13.8063C5.42 14.2463 4.80667 14.493 4.14667 14.493C3.44667 14.493 2.78666 14.2196 2.28666 13.7196C1.28666 12.7196 1.26667 11.1263 2.2 10.093L2.03334 9.92632C1.69334 9.59298 1.50667 9.13965 1.5 8.65298C1.5 8.16631 1.68667 7.70632 2.03334 7.36632L7.36 2.03965C8.06666 1.33965 9.21333 1.33965 9.91333 2.03965L10.08 2.20632C11.08 1.28632 12.7533 1.29965 13.72 2.27299C14.72 3.27965 14.7333 4.88632 13.7867 5.91965L13.9533 6.08632H13.96ZM2.5 8.65298C2.5 8.86631 2.58667 9.06632 2.73334 9.21965L2.89333 9.37966L9.36667 2.90632L9.20666 2.74631C8.89333 2.43965 8.38 2.43298 8.06 2.74631L2.73334 8.07298C2.58 8.22632 2.49334 8.43298 2.49334 8.65298H2.5ZM5.3 13.013L5.56 12.753L12.7333 5.57965L13.0067 5.30632C13.64 4.67299 13.64 3.63965 13.0067 3.00631C12.6867 2.68631 12.28 2.51965 11.8467 2.51965C11.4133 2.51965 11 2.68632 10.6933 2.99965L10.4133 3.27965L3.24 10.4463C3.24 10.4463 3.24 10.4463 3.24 10.453C3.24 10.453 3.24 10.453 3.23334 10.453L2.98 10.7063C2.34667 11.3396 2.34667 12.373 2.98 13.013C3.60667 13.6397 4.67333 13.633 5.29333 13.013H5.3ZM13.2467 6.78631L13.0933 6.63298L6.61999 13.1063L6.78 13.2663C6.93333 13.4196 7.13334 13.5063 7.34667 13.5063C7.56667 13.5063 7.76667 13.4196 7.92 13.2663L13.2467 7.93965C13.56 7.62632 13.56 7.11299 13.2467 6.79299V6.78631Z" fill="#3B3B3E"/>
</svg>
