<svg width="16" height="16" viewBox="0 0 16 16" fill="none" xmlns="http://www.w3.org/2000/svg">
<path d="M15.1666 8C15.1666 11.952 11.9519 15.1667 7.99992 15.1667C4.04792 15.1667 0.833252 11.952 0.833252 8C0.833252 7.47533 0.891894 6.94128 1.00789 6.41195C1.06656 6.14195 1.3366 5.97261 1.60327 6.02995C1.8726 6.08861 2.04395 6.35533 1.98462 6.62533C1.88462 7.08466 1.83325 7.54733 1.83325 8C1.83325 11.4007 4.59925 14.1667 7.99992 14.1667C11.4006 14.1667 14.1666 11.4007 14.1666 8C14.1666 4.59933 11.4006 1.83333 7.99992 1.83333C6.51725 1.83333 5.11853 2.35125 4.0092 3.30192L8.35392 7.64665C8.54926 7.84198 8.54926 8.15867 8.35392 8.354C8.15859 8.54934 7.8419 8.54934 7.64657 8.354L2.93595 3.64274C2.74129 3.44807 2.74065 3.13202 2.93465 2.93669C4.28198 1.58069 6.0819 0.833984 8.00057 0.833984C11.9519 0.833318 15.1666 4.048 15.1666 8Z" fill="#3B3B3E"/>
</svg>
