<svg width="16" height="16" viewBox="0 0 16 16" fill="none" xmlns="http://www.w3.org/2000/svg">
<path d="M13.0801 3.00044C13.0801 3.00044 13.0801 3.00043 13.0734 2.99376C13.0667 2.98043 13.0534 2.97377 13.0468 2.96044C10.7868 0.700438 6.68675 1.12709 3.90675 3.90709C1.12675 6.68709 0.70676 10.7871 2.96009 13.0471C3.94009 14.0271 5.26009 14.5004 6.66676 14.5004C8.52009 14.5004 10.5201 13.6804 12.1001 12.1071C14.8668 9.34044 15.2934 5.27378 13.0801 3.00711V3.00044ZM4.61341 4.61378C6.00008 3.22711 7.74676 2.50044 9.33342 2.50044C10.4401 2.50044 11.4668 2.85377 12.2468 3.58043C12.3468 3.99377 12.2801 4.42043 12.0267 4.8671C11.3934 6.00043 9.72678 7.0671 7.89344 7.52044C5.76011 8.0471 3.88675 9.27378 3.12009 10.6538C3.02009 10.8271 2.94677 11.0004 2.88677 11.1804C2.02677 9.2471 2.66009 6.56711 4.62009 4.61378H4.61341ZM11.3934 11.3938C9.04678 13.7404 5.66674 14.1871 3.77341 12.4271C3.67341 12.0138 3.74008 11.5804 3.98675 11.1404C4.61341 10.0138 6.28009 8.9471 8.12676 8.49376C10.2468 7.9671 12.1201 6.74044 12.8934 5.36044C12.9934 5.18711 13.0668 5.01377 13.1268 4.83377C13.9801 6.7671 13.3401 9.44043 11.3868 11.3938H11.3934Z" fill="#3B3B3E"/>
</svg>
