<svg width="16" height="16" viewBox="0 0 16 16" fill="none" xmlns="http://www.w3.org/2000/svg">
<path d="M14 5.83333C13.724 5.83333 13.5 5.60933 13.5 5.33333V3C13.5 2.60733 13.3927 2.5 13 2.5H10.6667C10.3907 2.5 10.1667 2.276 10.1667 2C10.1667 1.724 10.3907 1.5 10.6667 1.5H13C13.9393 1.5 14.5 2.06067 14.5 3V5.33333C14.5 5.60933 14.276 5.83333 14 5.83333ZM2 5.83333C1.724 5.83333 1.5 5.60933 1.5 5.33333V3C1.5 2.06067 2.06067 1.5 3 1.5H5.33333C5.60933 1.5 5.83333 1.724 5.83333 2C5.83333 2.276 5.60933 2.5 5.33333 2.5H3C2.60733 2.5 2.5 2.60733 2.5 3V5.33333C2.5 5.60933 2.276 5.83333 2 5.83333ZM5.33333 14.5H3C2.06067 14.5 1.5 13.9393 1.5 13V10.6667C1.5 10.3907 1.724 10.1667 2 10.1667C2.276 10.1667 2.5 10.3907 2.5 10.6667V13C2.5 13.3927 2.60733 13.5 3 13.5H5.33333C5.60933 13.5 5.83333 13.724 5.83333 14C5.83333 14.276 5.60933 14.5 5.33333 14.5ZM13 14.5H10.6667C10.3907 14.5 10.1667 14.276 10.1667 14C10.1667 13.724 10.3907 13.5 10.6667 13.5H13C13.3927 13.5 13.5 13.3927 13.5 13V10.6667C13.5 10.3907 13.724 10.1667 14 10.1667C14.276 10.1667 14.5 10.3907 14.5 10.6667V13C14.5 13.9393 13.9393 14.5 13 14.5ZM11.2799 12.16C11.7759 11.4513 11.8333 10.6 11.8333 10.0213V7.24268C11.8333 6.45601 11.5946 5.70728 11.1413 5.07861C10.9806 4.85595 10.6687 4.80333 10.4434 4.96533C10.2194 5.12667 10.1687 5.43874 10.3301 5.66341C10.6594 6.12074 10.8333 6.66668 10.8333 7.24268V10.0213C10.8333 10.736 10.7179 11.2187 10.4606 11.5874C10.3026 11.8134 10.3573 12.1254 10.584 12.2834C10.6713 12.344 10.7706 12.3734 10.87 12.3734C11.028 12.3734 11.1826 12.2987 11.2799 12.16ZM5.16667 9.29671V7.24202C5.16667 5.63402 6.58196 4.31732 8.19596 4.51465C8.4613 4.54598 8.71929 4.35263 8.75195 4.07796C8.78529 3.80396 8.59008 3.55464 8.31608 3.52197C8.18008 3.50597 8.04534 3.5 7.90934 3.5C5.84601 3.5 4.16732 5.17869 4.16732 7.24202V9.29671C4.16732 9.57271 4.39132 9.79671 4.66732 9.79671C4.94332 9.79671 5.16667 9.57271 5.16667 9.29671ZM9.7207 7.43473C9.7207 6.47207 8.93726 5.68929 7.97526 5.68929C7.01326 5.68929 6.22998 6.47207 6.22998 7.43473V9.29997C6.22998 9.5533 6.10674 9.99326 5.90674 10.2533C5.74007 10.4733 5.78 10.7866 6 10.9533C6.08667 11.0266 6.1933 11.0601 6.29997 11.0601C6.4533 11.0601 6.60003 10.9934 6.70003 10.86C7.0667 10.3867 7.22998 9.71997 7.22998 9.29997V7.43473C7.22998 7.0234 7.56459 6.68929 7.97526 6.68929C8.38593 6.68929 8.7207 7.0234 8.7207 7.43473L8.72005 9.67334C8.72005 10.3733 8.63335 11.0933 8.02002 11.62C7.81335 11.8 7.78663 12.1133 7.96663 12.3267C8.06663 12.44 8.20668 12.5 8.34668 12.5C8.46001 12.5 8.58001 12.46 8.67334 12.38C9.60001 11.5867 9.72005 10.5133 9.72005 9.67334L9.7207 7.43473Z" fill="#3B3B3E"/>
</svg>
