<svg width="16" height="16" viewBox="0 0 16 16" fill="none" xmlns="http://www.w3.org/2000/svg">
<path d="M11.75 14.5H4.25C2.47667 14.5 1.5 13.5233 1.5 11.75V4.25C1.5 2.47667 2.47667 1.5 4.25 1.5H11.75C13.5233 1.5 14.5 2.47667 14.5 4.25V11.75C14.5 13.5233 13.5233 14.5 11.75 14.5ZM4.25 2.5C3.02333 2.5 2.5 3.02333 2.5 4.25V11.75C2.5 12.9767 3.02333 13.5 4.25 13.5H11.75C12.9767 13.5 13.5 12.9767 13.5 11.75V4.25C13.5 3.02333 12.9767 2.5 11.75 2.5H4.25ZM9.79736 11.6667C9.6547 11.6667 9.51131 11.632 9.37931 11.5627L8 10.8367L6.62199 11.562C6.31666 11.722 5.95533 11.696 5.67733 11.494C5.39866 11.2914 5.26132 10.954 5.31999 10.614L5.58333 9.07735L4.43066 7.95268C4.19133 7.71934 4.10663 7.37598 4.20996 7.05798C4.31329 6.73998 4.58331 6.51268 4.91398 6.46468L6.50667 6.23267L7.19596 4.83398C7.34863 4.52465 7.65598 4.33333 8.00065 4.33333C8.34532 4.33333 8.65334 4.52534 8.80534 4.83468L9.49463 6.23332L11.088 6.46533C11.418 6.51333 11.6873 6.74068 11.7913 7.05868C11.8947 7.37668 11.81 7.72 11.5706 7.95333L10.418 9.078L10.682 10.616C10.74 10.956 10.6026 11.2933 10.324 11.4953C10.166 11.6087 9.9827 11.6667 9.79736 11.6667ZM8 9.81934C8.13933 9.81934 8.27869 9.85267 8.40536 9.92L9.65999 10.5806L9.42065 9.18132C9.37199 8.89798 9.46531 8.60932 9.67131 8.40865L10.6867 7.41732L9.28263 7.21334C8.99863 7.17201 8.75403 6.99335 8.62736 6.73535L8.00065 5.46399L7.37402 6.736C7.24736 6.99334 7.002 7.17201 6.71867 7.21334L5.3147 7.41732L6.33 8.40865C6.536 8.60865 6.62931 8.89798 6.58065 9.18132L6.34131 10.58L7.59603 9.91935C7.72136 9.85269 7.86067 9.81934 8 9.81934ZM10.9434 7.45467H10.95H10.9434ZM7.90731 5.276C7.90731 5.27667 7.90731 5.27667 7.90731 5.276C7.90731 5.27667 7.90731 5.27667 7.90731 5.276Z" fill="#3B3B3E"/>
</svg>
