<svg width="16" height="16" viewBox="0 0 16 16" fill="none" xmlns="http://www.w3.org/2000/svg">
<path d="M12 14.4999H4C2.388 14.4999 1.5 13.6119 1.5 11.9999V7.76653C1.5 6.3512 1.89066 5.95584 2.52799 5.42718L6.60799 2.00652C7.41399 1.32986 8.58601 1.32986 9.39201 2.00652L13.472 5.42718C14.1093 5.95584 14.5 6.35187 14.5 7.76653V11.9999C14.5 13.6119 13.612 14.4999 12 14.4999ZM8 2.49985C7.734 2.49985 7.46733 2.59121 7.25 2.77321L3.16602 6.1972C2.66802 6.61053 2.5 6.74985 2.5 7.76718V12.0005C2.5 13.0518 2.94867 13.5005 4 13.5005H12C13.0513 13.5005 13.5 13.0518 13.5 12.0005V7.76718C13.5 6.74985 13.332 6.61053 12.834 6.1972L8.75 2.77321C8.53267 2.59054 8.266 2.49985 8 2.49985ZM8 12.1665C7.946 12.1665 7.89201 12.1578 7.84001 12.1398C6.54801 11.7025 5.16667 10.5699 5.16667 8.70322V7.22186C5.16667 6.99919 5.31465 6.80322 5.52865 6.74122C6.71731 6.39989 7.2713 6.14184 7.7793 5.88584C7.92263 5.8145 8.09067 5.81522 8.23267 5.88722C8.73533 6.14455 9.28337 6.39985 10.4567 6.69785C10.6787 6.75385 10.8333 6.95388 10.8333 7.18255V8.70249C10.8333 10.5692 9.45266 11.7018 8.15999 12.1392C8.10799 12.1578 8.054 12.1665 8 12.1665ZM6.16667 7.59588V8.70387C6.16667 10.2345 7.472 10.9192 8 11.1332C8.528 10.9192 9.83333 10.2345 9.83333 8.70387V7.56854C9.036 7.34787 8.50667 7.13719 8.00334 6.89186C7.492 7.13853 6.97267 7.35055 6.16667 7.59588Z" fill="#3B3B3E"/>
</svg>
