<svg width="16" height="16" viewBox="0 0 16 16" fill="none" xmlns="http://www.w3.org/2000/svg">
<path d="M8.00066 1.5C4.41733 1.5 1.50197 4.41535 1.50197 7.99935C1.50197 8.93268 1.70937 9.87198 2.10337 10.7213C2.18003 10.8833 2.18595 11.0887 2.12062 11.2933L1.56007 12.9607C1.42007 13.382 1.52874 13.84 1.84474 14.1553C2.06874 14.3793 2.36462 14.4993 2.66928 14.4993C2.79328 14.4993 2.91804 14.4793 3.0407 14.4387L4.70005 13.8813C4.91205 13.814 5.11805 13.8193 5.28338 13.8987C6.12805 14.2913 7.06735 14.4987 8.00001 14.4987C11.584 14.4987 14.4994 11.5833 14.4994 7.99935C14.4994 4.41535 11.5847 1.5 8.00066 1.5ZM8.00066 13.4987C7.212 13.4987 6.41864 13.3234 5.70997 12.994C5.31731 12.8067 4.85135 12.784 4.38868 12.9313L2.72332 13.4907C2.63999 13.5187 2.57993 13.476 2.55193 13.448C2.52393 13.42 2.48129 13.3607 2.50929 13.2773L3.07195 11.6034C3.21662 11.148 3.19331 10.682 3.00864 10.2947C2.67731 9.58134 2.50197 8.78799 2.50197 7.99866C2.50197 4.96666 4.96866 2.49935 8.00066 2.49935C11.0333 2.49935 13.5 4.96599 13.5 7.99866C13.5 11.0313 11.0333 13.4987 8.00066 13.4987ZM10.02 6.68669L8.70672 8L10.02 9.31331C10.2154 9.50865 10.2154 9.82534 10.02 10.0207C9.9227 10.118 9.79468 10.1673 9.66668 10.1673C9.53868 10.1673 9.41066 10.1187 9.31333 10.0207L8.00001 8.70732L6.6867 10.0207C6.58937 10.118 6.46135 10.1673 6.33335 10.1673C6.20535 10.1673 6.07733 10.1187 5.97999 10.0207C5.78466 9.82534 5.78466 9.50865 5.97999 9.31331L7.29331 8L5.97999 6.68669C5.78466 6.49135 5.78466 6.17466 5.97999 5.97933C6.17533 5.784 6.49202 5.784 6.68735 5.97933L8.00066 7.29268L9.31398 5.97933C9.50931 5.784 9.826 5.784 10.0213 5.97933C10.2153 6.17466 10.2154 6.49202 10.02 6.68669Z" fill="#3B3B3E"/>
</svg>
