<svg width="16" height="16" viewBox="0 0 16 16" fill="none" xmlns="http://www.w3.org/2000/svg">
<path d="M8 2.16699C4.17333 2.16699 1.5 4.56631 1.5 8.00098C1.5 9.38698 1.9346 10.6317 2.75993 11.6177C2.65993 11.9977 2.41137 12.553 1.79004 13.0544C1.52937 13.2757 1.4353 13.6283 1.54997 13.9523C1.66397 14.2743 1.95605 14.4877 2.28939 14.4957C2.38139 14.499 2.47527 14.5003 2.57194 14.5003C3.57661 14.5003 4.82862 14.307 5.73796 13.5156C6.44996 13.7276 7.20932 13.835 8.00065 13.835C11.8273 13.835 14.5007 11.4356 14.5007 8.00098C14.5007 4.56631 11.8267 2.16699 8 2.16699ZM8 12.8357C7.21 12.8357 6.46002 12.715 5.77002 12.4763C5.58469 12.4117 5.37602 12.463 5.24202 12.607C4.60202 13.2897 3.56207 13.4684 2.78874 13.4957C3.33007 12.9424 3.68195 12.2663 3.79395 11.5523C3.81728 11.401 3.77065 11.2477 3.66732 11.1357C2.90332 10.309 2.5 9.22498 2.5 8.00098C2.5 5.15431 4.762 3.16699 8 3.16699C11.238 3.16699 13.5 5.15498 13.5 8.00098C13.5 10.847 11.238 12.8357 8 12.8357ZM10.486 5.89836C10.3473 5.66569 10.05 5.58569 9.81201 5.71769L9.72331 5.76701C9.59197 5.84101 9.42728 5.84167 9.29395 5.76701C9.16928 5.69701 9.09196 5.56901 9.09196 5.43367C9.09196 5.10301 8.82192 4.83431 8.48926 4.83431H7.47331C7.14064 4.83431 6.87061 5.10301 6.87061 5.43367C6.87061 5.56967 6.79329 5.69701 6.66862 5.76701C6.53595 5.84167 6.37126 5.84167 6.23926 5.76701C5.95526 5.60901 5.5926 5.70566 5.4266 5.98299L4.91797 6.837C4.83597 6.97366 4.81205 7.141 4.85205 7.295C4.89272 7.44967 4.99607 7.58432 5.13607 7.66366C5.14073 7.66566 5.14475 7.66831 5.14941 7.67098C5.26875 7.74231 5.34196 7.86701 5.34196 7.99967C5.34263 8.13634 5.26539 8.265 5.13672 8.337C4.99739 8.41633 4.89404 8.55035 4.8527 8.70435C4.81137 8.85968 4.834 9.02235 4.91667 9.16235L5.42741 10.0177C5.59541 10.299 5.95074 10.3943 6.24007 10.233C6.37141 10.159 6.53529 10.159 6.66862 10.2336C6.79329 10.3036 6.86995 10.431 6.86995 10.567C6.86995 10.8976 7.14001 11.1663 7.47201 11.1663H8.49007C8.82207 11.1663 9.09196 10.8976 9.09196 10.567C9.09196 10.431 9.16928 10.3036 9.29395 10.2336C9.42661 10.159 9.59131 10.159 9.72331 10.2336C10.0073 10.3916 10.37 10.295 10.536 10.0177L11.048 9.15902C11.1293 9.02035 11.1514 8.8583 11.11 8.70296C11.0687 8.54696 10.9673 8.417 10.8267 8.337C10.8227 8.335 10.818 8.33232 10.814 8.33032C10.6946 8.25899 10.6213 8.13364 10.6213 8.00098C10.6213 7.86431 10.6986 7.73567 10.8226 7.66634L10.9113 7.61702C11.0293 7.55102 11.1154 7.4403 11.1501 7.3103C11.1854 7.17964 11.1653 7.04097 11.0967 6.92497L10.486 5.89836ZM10.006 8.95296L9.84798 9.21834C9.49798 9.13501 9.12204 9.1823 8.80404 9.3623C8.4867 9.54097 8.25665 9.83166 8.15332 10.167H7.81006C7.70739 9.83233 7.47734 9.54164 7.15934 9.3623C6.84068 9.18297 6.4654 9.13368 6.1154 9.21834L5.95736 8.95369C6.20269 8.69769 6.34394 8.35632 6.34261 7.99699C6.34194 7.64032 6.20002 7.30169 5.95736 7.04769L6.1154 6.78231C6.4654 6.86631 6.84134 6.81835 7.15934 6.63835C7.47668 6.45968 7.70673 6.16899 7.81006 5.83366H8.15332C8.25599 6.16833 8.4867 6.45901 8.80404 6.63835C9.1227 6.81835 9.50065 6.86631 9.84798 6.78231L10.006 7.04769C9.76202 7.30302 9.62059 7.64363 9.62126 8.00163C9.62126 8.35896 9.76269 8.6983 10.006 8.95296ZM8.68001 8.00033C8.68001 8.36833 8.38201 8.66699 8.01335 8.66699C7.64535 8.66699 7.34326 8.36833 7.34326 8.00033C7.34326 7.63233 7.63867 7.33366 8.00667 7.33366H8.01335C8.38135 7.33366 8.68001 7.63233 8.68001 8.00033Z" fill="#3B3B3E"/>
</svg>
