<svg width="16" height="16" viewBox="0 0 16 16" fill="none" xmlns="http://www.w3.org/2000/svg">
<path d="M7.99998 0.833008C4.04798 0.833008 0.833313 4.04834 0.833313 7.99967C0.833313 11.951 4.04798 15.1663 7.99998 15.1663C11.952 15.1663 15.1666 11.951 15.1666 7.99967C15.1666 4.04834 11.952 0.833008 7.99998 0.833008ZM7.99998 14.1663C4.59931 14.1663 1.83331 11.4003 1.83331 7.99967C1.83331 4.59901 4.59931 1.83301 7.99998 1.83301C11.4006 1.83301 14.1666 4.59901 14.1666 7.99967C14.1666 11.4003 11.4006 14.1663 7.99998 14.1663ZM9.85264 5.20034C7.31264 6.56567 7.03198 6.84701 6.93931 6.93901C6.65598 7.22234 6.49998 7.59901 6.49998 7.99967C6.49998 8.40034 6.65598 8.77701 6.93931 9.06034C7.22264 9.34368 7.59931 9.49967 7.99998 9.49967C8.40065 9.49967 8.77731 9.34368 9.05998 9.06034C9.15198 8.96901 9.43198 8.68968 10.7993 6.14701C10.9466 5.87301 10.898 5.541 10.678 5.321C10.4586 5.10167 10.1266 5.053 9.85264 5.20034ZM8.35331 8.35301L8.70664 8.70634L8.35331 8.35301C8.16465 8.54167 7.83531 8.54234 7.64598 8.35301C7.55131 8.25834 7.49931 8.13301 7.49931 7.99967C7.49931 7.86634 7.55131 7.74101 7.64598 7.64634C7.75131 7.54301 8.28531 7.20301 9.42997 6.56901C8.58731 8.09234 8.37731 8.32834 8.35331 8.35301ZM4.49998 7.99967C4.49998 8.62967 4.65798 9.21701 4.97064 9.74501C5.11131 9.98301 5.03264 10.289 4.79464 10.4297C4.71464 10.477 4.62732 10.499 4.54065 10.499C4.36998 10.499 4.20332 10.411 4.10999 10.2537C3.71132 9.57902 3.49998 8.79967 3.49998 7.999C3.49998 5.51767 5.51865 3.499 7.99998 3.499C8.32531 3.499 8.64265 3.53301 8.97131 3.60301C9.24131 3.66101 9.41331 3.92635 9.35598 4.19635C9.29864 4.46635 9.03132 4.63768 8.76265 4.58034C6.53932 4.10701 4.49998 5.81567 4.49998 7.99967ZM12.5 7.99967C12.5 8.79967 12.2893 9.579 11.89 10.2543C11.7966 10.4123 11.63 10.4997 11.4593 10.4997C11.3726 10.4997 11.2853 10.4777 11.2053 10.4303C10.968 10.2897 10.8886 9.983 11.0293 9.74567C11.3413 9.21767 11.5 8.63035 11.5 8.00035C11.5 7.74501 11.4727 7.49635 11.4173 7.23901C11.3593 6.96901 11.5313 6.703 11.8013 6.645C12.0726 6.587 12.3373 6.75834 12.3953 7.02834C12.466 7.35501 12.5 7.67301 12.5 7.99967Z" fill="#3B3B3E"/>
</svg>
