<svg width="16" height="16" viewBox="0 0 16 16" fill="none" xmlns="http://www.w3.org/2000/svg">
<path d="M11.75 1.5H4.25C2.47667 1.5 1.5 2.47667 1.5 4.25V11.75C1.5 13.5233 2.47667 14.5 4.25 14.5H8.56869C9.30335 14.5 9.99403 14.214 10.5127 13.6947L13.6947 10.5127C14.214 9.99336 14.5 9.30337 14.5 8.56803V4.25C14.5 2.47667 13.5233 1.5 11.75 1.5ZM4.25 13.5C3.02333 13.5 2.5 12.9767 2.5 11.75V4.25C2.5 3.02333 3.02333 2.5 4.25 2.5H11.75C12.9767 2.5 13.5 3.02333 13.5 4.25V8.56803C13.5 8.7167 13.4753 8.86 13.4399 9H11.25C10.0093 9 9 10.0093 9 11.25V13.44C8.86 13.4754 8.71669 13.5 8.56869 13.5H4.25ZM10 12.7926V11.25C10 10.5607 10.5607 10 11.25 10H12.7926L10 12.7926Z" fill="#3B3B3E"/>
</svg>
