<svg width="16" height="16" viewBox="0 0 16 16" fill="none" xmlns="http://www.w3.org/2000/svg">
<path d="M13.7767 2.22316C12.8447 1.29116 11.2187 1.29183 10.2867 2.22316L5.99536 6.51385C5.56069 6.94852 5.22868 7.48653 5.03402 8.06919L4.85799 8.59784C4.71132 9.0345 4.46269 9.43787 4.13802 9.7632L1.93465 11.9658C1.65399 12.2458 1.5 12.6185 1.5 13.0158C1.5 13.4125 1.65399 13.7851 1.93465 14.0651C2.21465 14.3451 2.5873 14.4999 2.98397 14.4999C3.37997 14.4999 3.7527 14.3458 4.03337 14.0651L6.236 11.8625C6.562 11.5365 6.96537 11.2878 7.40137 11.1424L7.93066 10.9658C8.51333 10.7712 9.05134 10.4386 9.486 10.0046L13.7767 5.71389C14.2427 5.24789 14.5 4.62778 14.5 3.96844C14.5 3.30978 14.2427 2.68983 13.7767 2.22316ZM3.32666 13.3586C3.14266 13.5426 2.82468 13.5419 2.64201 13.3586C2.55001 13.2672 2.5 13.1458 2.5 13.0165C2.5 12.8871 2.55001 12.7658 2.64201 12.6738L3.30404 12.0119L3.98869 12.6965L3.32666 13.3586ZM13.0693 5.00718L8.77865 9.29787C8.45331 9.6232 8.05001 9.87243 7.61401 10.0178L7.08537 10.1939C6.5027 10.3879 5.96398 10.7205 5.52865 11.1551L4.69531 11.9885L4.01066 11.3039L4.84465 10.4699C5.27865 10.0359 5.61066 9.4979 5.80599 8.91457L5.98267 8.38511C6.128 7.94844 6.37665 7.54589 6.70199 7.22056L10.9933 2.92987C11.2707 2.65254 11.6393 2.49986 12.032 2.49986C12.424 2.49986 12.7927 2.65254 13.07 2.92987C13.3473 3.2072 13.5007 3.57578 13.5007 3.96844C13.5007 4.36111 13.3473 4.72985 13.0693 5.00718ZM10.3534 5.64715C10.5487 5.84249 10.5487 6.15918 10.3534 6.35451L9.02002 7.68784C8.92269 7.78518 8.79467 7.83449 8.66667 7.83449C8.53867 7.83449 8.41065 7.78584 8.31331 7.68784C8.11798 7.49251 8.11798 7.17582 8.31331 6.98049L9.64665 5.64715C9.84198 5.45182 10.158 5.45182 10.3534 5.64715ZM12 4.66717C12 5.03517 11.7013 5.33384 11.3333 5.33384C10.9653 5.33384 10.6667 5.03517 10.6667 4.66717C10.6667 4.29917 10.9653 4.00051 11.3333 4.00051C11.7013 4.00051 12 4.29917 12 4.66717Z" fill="#3B3B3E"/>
</svg>
