<svg width="16" height="16" viewBox="0 0 16 16" fill="none" xmlns="http://www.w3.org/2000/svg">
<path d="M14.5 4.66699V8.00033C14.5 8.27633 14.276 8.50033 14 8.50033C13.724 8.50033 13.5 8.27633 13.5 8.00033V4.66699C13.5 3.61566 13.0513 3.16699 12 3.16699H4C2.94867 3.16699 2.5 3.61566 2.5 4.66699V10.0003C2.5 11.0517 2.94867 11.5003 4 11.5003H9.33333C9.60933 11.5003 9.83333 11.7243 9.83333 12.0003C9.83333 12.2763 9.60933 12.5003 9.33333 12.5003H4C2.388 12.5003 1.5 11.6123 1.5 10.0003V4.66699C1.5 3.05499 2.388 2.16699 4 2.16699H12C13.612 2.16699 14.5 3.05499 14.5 4.66699ZM3.33333 7.33366C3.33333 7.70166 3.632 8.00033 4 8.00033C4.368 8.00033 4.66667 7.70166 4.66667 7.33366C4.66667 6.96566 4.368 6.66699 4 6.66699C3.632 6.66699 3.33333 6.96566 3.33333 7.33366ZM8 4.83366C9.37867 4.83366 10.5 5.95499 10.5 7.33366C10.5 8.71233 9.37867 9.83366 8 9.83366C6.62133 9.83366 5.5 8.71233 5.5 7.33366C5.5 5.95499 6.62133 4.83366 8 4.83366ZM8 5.83366C7.17267 5.83366 6.5 6.50633 6.5 7.33366C6.5 8.16099 7.17267 8.83366 8 8.83366C8.82733 8.83366 9.5 8.16099 9.5 7.33366C9.5 6.50633 8.82733 5.83366 8 5.83366ZM13.0207 9.64697C12.9747 9.60097 12.9193 9.56431 12.858 9.53898C12.736 9.48831 12.598 9.48831 12.476 9.53898C12.4147 9.56431 12.3593 9.60097 12.3133 9.64697L10.98 10.9803C10.7846 11.1756 10.7846 11.4923 10.98 11.6877C11.1753 11.883 11.492 11.883 11.6873 11.6877L12.1673 11.2076V13.3337C12.1673 13.6097 12.3913 13.8337 12.6673 13.8337C12.9433 13.8337 13.1673 13.6097 13.1673 13.3337V11.2076L13.6473 11.6877C13.7447 11.785 13.8727 11.8343 14.0007 11.8343C14.1287 11.8343 14.2567 11.7857 14.354 11.6877C14.5493 11.4923 14.5493 11.1756 14.354 10.9803L13.0207 9.64697Z" fill="#3B3B3E"/>
</svg>
