<svg width="16" height="16" viewBox="0 0 16 16" fill="none" xmlns="http://www.w3.org/2000/svg">
<path d="M8.00016 0.833008C4.04683 0.833008 0.833496 4.04634 0.833496 7.99967C0.833496 11.953 4.04683 15.1663 8.00016 15.1663C11.9535 15.1663 15.1668 11.953 15.1668 7.99967C15.1668 4.04634 11.9535 0.833008 8.00016 0.833008ZM8.00016 14.1663C4.60016 14.1663 1.8335 11.3997 1.8335 7.99967C1.8335 4.59967 4.60016 1.83301 8.00016 1.83301C11.4002 1.83301 14.1668 4.59967 14.1668 7.99967C14.1668 11.3997 11.4002 14.1663 8.00016 14.1663ZM9.51349 4.66634C9.51349 5.12634 9.14015 5.49967 8.68015 5.49967C8.22015 5.49967 7.84682 5.12634 7.84682 4.66634C7.84682 4.20634 8.2135 3.83301 8.6735 3.83301H8.68015C9.14015 3.83301 9.51349 4.20634 9.51349 4.66634ZM11.5135 6.66634C11.5135 7.12634 11.1402 7.49967 10.6802 7.49967C10.2202 7.49967 9.84682 7.12634 9.84682 6.66634C9.84682 6.20634 10.2135 5.83301 10.6735 5.83301H10.6802C11.1402 5.83301 11.5135 6.20634 11.5135 6.66634ZM8.84682 7.33301C8.84682 7.79301 8.47349 8.16634 8.01349 8.16634C7.55349 8.16634 7.18016 7.79301 7.18016 7.33301C7.18016 6.87301 7.54684 6.49967 8.00684 6.49967H8.01349C8.47349 6.49967 8.84682 6.87301 8.84682 7.33301Z" fill="#3B3B3E"/>
</svg>
