<svg width="16" height="16" viewBox="0 0 16 16" fill="none" xmlns="http://www.w3.org/2000/svg">
<path d="M12 3.5H11.1667V2.66667C11.1667 2.02333 10.6433 1.5 10 1.5H6C5.35667 1.5 4.83333 2.02333 4.83333 2.66667V3.5H4C2.388 3.5 1.5 4.388 1.5 6V12C1.5 13.612 2.388 14.5 4 14.5H12C13.612 14.5 14.5 13.612 14.5 12V6C14.5 4.388 13.612 3.5 12 3.5ZM5.83333 2.66667C5.83333 2.57467 5.908 2.5 6 2.5H10C10.092 2.5 10.1667 2.57467 10.1667 2.66667V3.5H5.83333V2.66667ZM13.5 12C13.5 13.0513 13.0513 13.5 12 13.5H4C2.94867 13.5 2.5 13.0513 2.5 12V6C2.5 4.94867 2.94867 4.5 4 4.5H12C13.0513 4.5 13.5 4.94867 13.5 6V12ZM8 6.5C6.62133 6.5 5.5 7.62133 5.5 9C5.5 10.3787 6.62133 11.5 8 11.5C9.37867 11.5 10.5 10.3787 10.5 9C10.5 7.62133 9.37867 6.5 8 6.5ZM8 10.5C7.17267 10.5 6.5 9.82733 6.5 9C6.5 8.17267 7.17267 7.5 8 7.5C8.82733 7.5 9.5 8.17267 9.5 9C9.5 9.82733 8.82733 10.5 8 10.5ZM4.66667 9C4.66667 9.368 4.368 9.66667 4 9.66667C3.632 9.66667 3.33333 9.368 3.33333 9C3.33333 8.632 3.632 8.33333 4 8.33333C4.368 8.33333 4.66667 8.632 4.66667 9ZM12.6667 9C12.6667 9.368 12.368 9.66667 12 9.66667C11.632 9.66667 11.3333 9.368 11.3333 9C11.3333 8.632 11.632 8.33333 12 8.33333C12.368 8.33333 12.6667 8.632 12.6667 9Z" fill="#3B3B3E"/>
</svg>
