<svg width="16" height="16" viewBox="0 0 16 16" fill="none" xmlns="http://www.w3.org/2000/svg">
<path d="M7.83331 12.0003C7.83331 12.2763 7.60931 12.5003 7.33331 12.5003H3.33331C1.72131 12.5003 0.833313 11.6123 0.833313 10.0003V4.66699C0.833313 3.05499 1.72131 2.16699 3.33331 2.16699H11.3333C12.9453 2.16699 13.8333 3.05499 13.8333 4.66699V6.66699C13.8333 6.94299 13.6093 7.16699 13.3333 7.16699C13.0573 7.16699 12.8333 6.94299 12.8333 6.66699V4.66699C12.8333 3.61566 12.3846 3.16699 11.3333 3.16699H3.33331C2.28198 3.16699 1.83331 3.61566 1.83331 4.66699V10.0003C1.83331 11.0517 2.28198 11.5003 3.33331 11.5003H7.33331C7.60931 11.5003 7.83331 11.7243 7.83331 12.0003ZM2.66665 7.33366C2.66665 7.70166 2.96531 8.00033 3.33331 8.00033C3.70131 8.00033 3.99998 7.70166 3.99998 7.33366C3.99998 6.96566 3.70131 6.66699 3.33331 6.66699C2.96531 6.66699 2.66665 6.96566 2.66665 7.33366ZM7.33331 4.83366C8.71198 4.83366 9.83331 5.95499 9.83331 7.33366C9.83331 8.71233 8.71198 9.83366 7.33331 9.83366C5.95465 9.83366 4.83331 8.71233 4.83331 7.33366C4.83331 5.95499 5.95465 4.83366 7.33331 4.83366ZM7.33331 5.83366C6.50598 5.83366 5.83331 6.50633 5.83331 7.33366C5.83331 8.16099 6.50598 8.83366 7.33331 8.83366C8.16065 8.83366 8.83331 8.16099 8.83331 7.33366C8.83331 6.50633 8.16065 5.83366 7.33331 5.83366ZM15.1666 11.3337C15.1666 13.0797 13.746 14.5003 12 14.5003C10.254 14.5003 8.83331 13.0797 8.83331 11.3337C8.83331 9.58766 10.254 8.16699 12 8.16699C13.746 8.16699 15.1666 9.58766 15.1666 11.3337ZM14.1666 11.3337C14.1666 10.139 13.1946 9.16699 12 9.16699C10.8053 9.16699 9.83331 10.139 9.83331 11.3337C9.83331 12.5283 10.8053 13.5003 12 13.5003C13.1946 13.5003 14.1666 12.5283 14.1666 11.3337ZM13.02 10.3136C12.8246 10.1183 12.508 10.1183 12.3126 10.3136L11.9993 10.627L11.686 10.3136C11.4907 10.1183 11.174 10.1183 10.9786 10.3136C10.7833 10.509 10.7833 10.8257 10.9786 11.021L11.292 11.3343L10.9786 11.6477C10.7833 11.843 10.7833 12.1596 10.9786 12.355C11.076 12.4523 11.204 12.5017 11.332 12.5017C11.46 12.5017 11.588 12.453 11.6853 12.355L11.9986 12.0417L12.312 12.355C12.4093 12.4523 12.5373 12.5017 12.6653 12.5017C12.7933 12.5017 12.9213 12.453 13.0186 12.355C13.214 12.1596 13.214 11.843 13.0186 11.6477L12.7053 11.3343L13.0186 11.021C13.2153 10.8257 13.2153 10.5083 13.02 10.3136Z" fill="#3B3B3E"/>
</svg>
