<svg width="16" height="16" viewBox="0 0 16 16" fill="none" xmlns="http://www.w3.org/2000/svg">
<path d="M10.6666 5.5H5.83325V4.66667C5.83325 4.09267 6.05928 3.54673 6.46395 3.13607C6.87995 2.72607 7.42525 2.5 7.99992 2.5C8.98992 2.5 9.85195 3.16737 10.0959 4.12337C10.1639 4.39071 10.4399 4.55137 10.7032 4.4847C10.9712 4.41603 11.1332 4.14396 11.0645 3.87663C10.7085 2.47729 9.44792 1.5 7.99992 1.5C7.16125 1.5 6.36724 1.82803 5.75724 2.42936C5.16124 3.03336 4.83325 3.828 4.83325 4.66667V5.53597C3.54125 5.7073 2.83325 6.564 2.83325 8V12C2.83325 13.612 3.72125 14.5 5.33325 14.5H10.6666C12.2786 14.5 13.1666 13.612 13.1666 12V8C13.1666 6.388 12.2786 5.5 10.6666 5.5ZM12.1666 12C12.1666 13.0513 11.7179 13.5 10.6666 13.5H5.33325C4.28192 13.5 3.83325 13.0513 3.83325 12V8C3.83325 6.94867 4.28192 6.5 5.33325 6.5H10.6666C11.7179 6.5 12.1666 6.94867 12.1666 8V12ZM8.8466 9.33333C8.8466 9.608 8.70525 9.84004 8.49992 9.99137V11.3333C8.49992 11.6093 8.27592 11.8333 7.99992 11.8333C7.72392 11.8333 7.49992 11.6093 7.49992 11.3333V9.97461C7.30792 9.82194 7.17651 9.59667 7.17651 9.33333C7.17651 8.87333 7.54659 8.5 8.00659 8.5H8.01326C8.47326 8.5 8.8466 8.87333 8.8466 9.33333Z" fill="#3B3B3E"/>
</svg>
