<svg width="16" height="16" viewBox="0 0 16 16" fill="none" xmlns="http://www.w3.org/2000/svg">
<path d="M8.00008 14.4998C7.61608 14.4998 7.23212 14.3538 6.93945 14.0611L5.59277 12.7151C5.41744 12.5404 5.13672 12.5211 4.93872 12.6691L4.03345 13.3485C3.67745 13.6151 3.20876 13.6571 2.81209 13.4585C2.41409 13.2598 2.16675 12.8598 2.16675 12.4151V3.58645C2.16675 3.14178 2.41409 2.74178 2.81209 2.54311C3.20876 2.34378 3.67745 2.38645 4.03345 2.65312L4.93945 3.33311C5.13679 3.48111 5.41811 3.46177 5.59277 3.28644L6.93945 1.94045C7.52412 1.35579 8.47604 1.35579 9.06071 1.94045L10.4074 3.28711C10.5827 3.46178 10.8634 3.48111 11.0614 3.33311L11.9667 2.65379C12.3227 2.38712 12.7914 2.34445 13.1881 2.54379C13.5861 2.74245 13.8334 3.14245 13.8334 3.58712V12.4158C13.8334 12.8604 13.5861 13.2604 13.1881 13.4591C12.7914 13.6578 12.3227 13.6158 11.9667 13.3491L11.0607 12.6691C10.8634 12.5211 10.5821 12.5404 10.4074 12.7158L9.06071 14.0618C8.76804 14.3538 8.38408 14.4998 8.00008 14.4998ZM5.23739 11.5711C5.62472 11.5711 6.01072 11.7191 6.30005 12.0078L7.64673 13.3545C7.8354 13.5431 8.16475 13.5431 8.35409 13.3545L9.70077 12.0084C10.2254 11.4838 11.0701 11.4251 11.6607 11.8691L12.5674 12.5491C12.6387 12.6038 12.7068 12.5818 12.7421 12.5651C12.7761 12.5478 12.8341 12.5058 12.8341 12.4158V3.58712C12.8341 3.49712 12.7761 3.45512 12.7421 3.43779C12.7068 3.42045 12.6394 3.39911 12.5674 3.45378L11.6614 4.13379C11.0687 4.57779 10.2254 4.51912 9.70077 3.99445L8.35409 2.64779C8.15875 2.45312 7.84206 2.45312 7.64673 2.64779L6.30005 3.99378C5.77605 4.51844 4.93075 4.57712 4.34009 4.13312L3.43343 3.45311C3.36143 3.39844 3.29337 3.41978 3.25871 3.43712C3.22471 3.45445 3.16675 3.49645 3.16675 3.58645V12.4151C3.16675 12.5051 3.22471 12.5471 3.25871 12.5645C3.29337 12.5818 3.36076 12.6031 3.43343 12.5484L4.33944 11.8685C4.60544 11.6691 4.92205 11.5711 5.23739 11.5711ZM8.00008 11.0005C7.93008 11.0005 7.85944 10.9858 7.79411 10.9564C7.69211 10.9104 5.28476 9.80178 4.89209 7.79244C4.73342 6.97978 4.89079 6.20912 5.32479 5.67912C5.68612 5.23845 6.20205 5.00378 6.81738 5.00045C6.82072 5.00045 6.82408 5.00045 6.82674 5.00045C7.34008 5.00045 7.7261 5.21179 7.99943 5.47779C8.27476 5.20979 8.67276 5.01178 9.18009 5.00045C9.79609 5.00312 10.3121 5.23778 10.6734 5.67845C11.1068 6.20778 11.2655 6.97779 11.1061 7.79179C10.7135 9.80179 8.30677 10.9098 8.2041 10.9558C8.14077 10.9858 8.07008 11.0005 8.00008 11.0005ZM6.82674 6.00045C6.82541 6.00045 6.82474 6.00045 6.82341 6.00045C6.51074 6.00178 6.26738 6.10711 6.09871 6.31244C5.85805 6.60644 5.7741 7.08778 5.8741 7.59978C6.11077 8.81244 7.4741 9.65512 7.99943 9.93978C8.52476 9.65578 9.88809 8.81245 10.1248 7.60045C10.2248 7.08778 10.1407 6.60578 9.90007 6.31244C9.7314 6.10711 9.48806 6.00245 9.17472 6.00045C9.17406 6.00045 9.17272 6.00045 9.17139 6.00045C8.68072 6.00045 8.49077 6.48711 8.47144 6.54311C8.4001 6.74178 8.2101 6.87645 7.99943 6.87645C7.9981 6.87645 7.99606 6.87645 7.99406 6.87645C7.78139 6.87445 7.59207 6.73978 7.52474 6.53778C7.50807 6.48712 7.31874 6.00045 6.82674 6.00045ZM10.6168 7.69578H10.6235H10.6168Z" fill="#3B3B3E"/>
</svg>
