<svg width="16" height="16" viewBox="0 0 16 16" fill="none" xmlns="http://www.w3.org/2000/svg">
<path d="M11.75 1.5H4.25C2.47667 1.5 1.5 2.47667 1.5 4.25V11.75C1.5 13.5233 2.47667 14.5 4.25 14.5H11.75C13.5233 14.5 14.5 13.5233 14.5 11.75V4.25C14.5 2.47667 13.5233 1.5 11.75 1.5ZM13.5 11.75C13.5 12.9767 12.9767 13.5 11.75 13.5H4.25C3.02333 13.5 2.5 12.9767 2.5 11.75V4.25C2.5 3.02333 3.02333 2.5 4.25 2.5H11.75C12.9767 2.5 13.5 3.02333 13.5 4.25V11.75ZM10.3534 8.31331C10.5487 8.50865 10.5487 8.82534 10.3534 9.02067C10.256 9.118 10.128 9.16732 10 9.16732C9.872 9.16732 9.74398 9.11867 9.64665 9.02067L8 7.37402L6.35335 9.02067C6.15802 9.216 5.84133 9.216 5.646 9.02067C5.45066 8.82534 5.45066 8.50865 5.646 8.31331L7.646 6.31331C7.84133 6.11798 8.15802 6.11798 8.35335 6.31331L10.3534 8.31331Z" fill="#3B3B3E"/>
</svg>
