<svg width="16" height="16" viewBox="0 0 16 16" fill="none" xmlns="http://www.w3.org/2000/svg">
<path d="M10.222 5.27799H9.84196L9.71273 4.88932C9.56873 4.45732 9.1666 4.16732 8.71126 4.16732H7.28939C6.83405 4.16732 6.43207 4.45734 6.28874 4.88867L6.15869 5.27799H5.77865C4.75465 5.27799 4.16732 5.86532 4.16732 6.88932V10.2227C4.16732 11.2467 4.75465 11.834 5.77865 11.834H10.2227C11.2467 11.834 11.834 11.2467 11.834 10.2227V6.88932C11.8333 5.86466 11.246 5.27799 10.222 5.27799ZM10.8333 10.222C10.8333 10.6847 10.6847 10.8333 10.222 10.8333H5.77799C5.31533 10.8333 5.16667 10.6847 5.16667 10.222V6.88867C5.16667 6.42601 5.31533 6.27734 5.77799 6.27734H6.51807C6.73273 6.27734 6.92402 6.13938 6.99202 5.93538L7.28874 5.16602L8.76335 5.20459L9.00732 5.93538C9.07532 6.13938 9.26662 6.27734 9.48128 6.27734H10.2214C10.684 6.27734 10.8327 6.42601 10.8327 6.88867V10.222H10.8333ZM8 6.94466C7.11133 6.94466 6.38867 7.66732 6.38867 8.55599C6.38867 9.44466 7.11133 10.1673 8 10.1673C8.88867 10.1673 9.61133 9.44466 9.61133 8.55599C9.61133 7.66732 8.88867 6.94466 8 6.94466ZM8 9.16667C7.66267 9.16667 7.38867 8.89267 7.38867 8.55534C7.38867 8.21801 7.66267 7.94401 8 7.94401C8.33733 7.94401 8.61133 8.21801 8.61133 8.55534C8.61133 8.89267 8.33733 9.16667 8 9.16667ZM11.75 1.5H4.25C2.47667 1.5 1.5 2.47667 1.5 4.25V11.75C1.5 13.5233 2.47667 14.5 4.25 14.5H11.75C13.5233 14.5 14.5 13.5233 14.5 11.75V4.25C14.5 2.47667 13.5233 1.5 11.75 1.5ZM13.5 11.75C13.5 12.9767 12.9767 13.5 11.75 13.5H4.25C3.02333 13.5 2.5 12.9767 2.5 11.75V4.25C2.5 3.02333 3.02333 2.5 4.25 2.5H11.75C12.9767 2.5 13.5 3.02333 13.5 4.25V11.75Z" fill="#3B3B3E"/>
</svg>
