<svg width="16" height="16" viewBox="0 0 16 16" fill="none" xmlns="http://www.w3.org/2000/svg">
<path d="M14 3.5H11.6273C11.0267 3.5 11.0013 3.424 10.8367 2.93066L10.702 2.526C10.4973 1.91267 9.926 1.5 9.27934 1.5H6.72066C6.074 1.5 5.50199 1.912 5.29799 2.526L5.16333 2.93066C4.99866 3.42466 4.97333 3.5 4.37266 3.5H2C1.724 3.5 1.5 3.724 1.5 4C1.5 4.276 1.724 4.5 2 4.5H2.86534L3.37667 12.166C3.47534 13.6493 4.38467 14.5 5.87134 14.5H10.1293C11.6153 14.5 12.5247 13.6493 12.624 12.166L13.1353 4.5H14C14.276 4.5 14.5 4.276 14.5 4C14.5 3.724 14.276 3.5 14 3.5ZM6.24666 2.842C6.31533 2.63733 6.50533 2.5 6.72066 2.5H9.27934C9.49467 2.5 9.68534 2.63733 9.75334 2.842L9.888 3.24666C9.91733 3.334 9.94666 3.41867 9.97866 3.5H6.02C6.052 3.418 6.08199 3.33333 6.11133 3.24666L6.24666 2.842ZM11.6253 12.0993C11.562 13.0547 11.086 13.5 10.1287 13.5H5.87067C4.91333 13.5 4.438 13.0553 4.374 12.0993L3.86733 4.5H4.37201C4.45534 4.5 4.52466 4.49134 4.59932 4.486C4.62199 4.48934 4.64266 4.5 4.666 4.5H11.3327C11.3567 4.5 11.3767 4.48934 11.3993 4.486C11.474 4.49134 11.5433 4.5 11.6267 4.5H12.1313L11.6253 12.0993ZM9.68667 8.35333L8.70667 9.33333L9.68667 10.3133C9.882 10.5087 9.882 10.8253 9.68667 11.0207C9.58933 11.118 9.46133 11.1673 9.33333 11.1673C9.20533 11.1673 9.07733 11.1187 8.98 11.0207L8 10.0407L7.02 11.0207C6.92267 11.118 6.79467 11.1673 6.66667 11.1673C6.53867 11.1673 6.41067 11.1187 6.31333 11.0207C6.118 10.8253 6.118 10.5087 6.31333 10.3133L7.29334 9.33333L6.31333 8.35333C6.118 8.158 6.118 7.84133 6.31333 7.646C6.50867 7.45066 6.82534 7.45066 7.02067 7.646L8.00067 8.626L8.98067 7.646C9.17601 7.45066 9.49268 7.45066 9.68801 7.646C9.88334 7.84133 9.882 8.158 9.68667 8.35333Z" fill="#3B3B3E"/>
</svg>
