<svg width="16" height="16" viewBox="0 0 16 16" fill="none" xmlns="http://www.w3.org/2000/svg">
<path d="M12 2.83301H4C2.38667 2.83301 1.5 3.71967 1.5 5.33301V10.6663C1.5 12.2797 2.38667 13.1663 4 13.1663H12C13.6133 13.1663 14.5 12.2797 14.5 10.6663V5.33301C14.5 3.71967 13.6133 2.83301 12 2.83301ZM13.5 10.6663C13.5 11.7197 13.0533 12.1663 12 12.1663H4C2.94667 12.1663 2.5 11.7197 2.5 10.6663V5.33301C2.5 4.27967 2.94667 3.83301 4 3.83301H12C13.0533 3.83301 13.5 4.27967 13.5 5.33301V10.6663ZM7.5 7.573C7.68 7.673 7.88 7.68633 8.08 7.65967C8.31333 7.62633 8.51332 7.52635 8.69332 7.37968C8.69999 7.37968 8.70668 7.36635 8.72001 7.35968C8.72668 7.41968 8.73333 7.47301 8.74666 7.52635C8.75333 7.57301 8.78666 7.60634 8.82666 7.60634C8.91333 7.60634 8.99332 7.60634 9.07332 7.60634C9.11332 7.60634 9.13998 7.57967 9.14665 7.533C9.14665 7.51967 9.14665 7.50633 9.14665 7.493V5.87301C9.14665 5.80634 9.14668 5.73968 9.13334 5.67301C9.10668 5.47301 9.02001 5.31301 8.84668 5.21301C8.74668 5.15301 8.63335 5.11968 8.51335 5.10634C8.46001 5.09968 8.40668 5.09301 8.34668 5.08634H8.16667C8.16667 5.08634 8.14 5.08634 8.12 5.08634C7.97333 5.09301 7.82001 5.11302 7.68001 5.15301C7.58668 5.17968 7.49999 5.213 7.40666 5.23966C7.35332 5.25966 7.32666 5.29968 7.32666 5.35968C7.32666 5.41301 7.32666 5.45967 7.32666 5.513C7.32666 5.58633 7.36002 5.60634 7.43335 5.58634C7.55335 5.55301 7.67334 5.51967 7.79334 5.49967C7.98 5.46634 8.17332 5.45301 8.35999 5.47968C8.45999 5.49301 8.55333 5.52634 8.62 5.60634C8.67333 5.67968 8.69333 5.76634 8.69999 5.85301C8.69999 5.97967 8.69999 6.10635 8.69999 6.23301C8.69999 6.23968 8.69999 6.24634 8.69999 6.25301C8.69333 6.25301 8.68668 6.25301 8.68001 6.25301C8.52001 6.21301 8.35999 6.18633 8.19332 6.17967C8.01999 6.173 7.84669 6.17966 7.68669 6.23966C7.48669 6.30633 7.33332 6.42634 7.23999 6.61967C7.16666 6.773 7.15335 6.92635 7.18001 7.09302C7.21335 7.30635 7.32001 7.473 7.50667 7.57967L7.5 7.573ZM7.65999 6.77968C7.69333 6.65302 7.78666 6.57967 7.90666 6.53967C8.03332 6.49967 8.16 6.49301 8.28666 6.50635C8.41333 6.51968 8.54 6.53967 8.66667 6.55967C8.69333 6.55967 8.69999 6.573 8.69999 6.59967C8.69999 6.673 8.69999 6.74635 8.69999 6.81968C8.69999 6.89301 8.69999 6.96633 8.69999 7.033C8.69999 7.053 8.69334 7.06634 8.67334 7.07967C8.50001 7.20634 8.31335 7.28634 8.10002 7.30634C8.01335 7.313 7.92667 7.30635 7.84001 7.27968C7.74667 7.24635 7.67999 7.173 7.65332 7.073C7.61999 6.973 7.61999 6.87302 7.65332 6.77968H7.65999ZM9.5 5.31968C9.5 5.31968 9.48001 5.25967 9.47335 5.22634C9.46668 5.18634 9.48665 5.15967 9.52665 5.15967C9.64665 5.15967 9.76 5.15967 9.87333 5.15967C9.92 5.15967 9.95335 5.18635 9.97335 5.23301C10.0067 5.31968 10.04 5.40633 10.0667 5.493C10.2667 6.03967 10.46 6.58634 10.66 7.12634C10.66 7.13301 10.6667 7.14633 10.6733 7.15967C10.7133 7.03967 10.7533 6.93301 10.7933 6.81968L11.3267 5.29301C11.3267 5.29301 11.34 5.25301 11.3534 5.23301C11.3734 5.17968 11.4133 5.15301 11.4733 5.15301C11.5733 5.15301 11.6733 5.15301 11.78 5.15301C11.8267 5.15301 11.8467 5.17967 11.8333 5.21967C11.8333 5.24633 11.82 5.273 11.8067 5.30634C11.4467 6.21967 11.0867 7.13301 10.7267 8.04635C10.6867 8.13968 10.64 8.23967 10.5867 8.32633C10.4533 8.553 10.2467 8.65968 9.98665 8.65301C9.89999 8.65301 9.81335 8.63967 9.72668 8.61967C9.64002 8.60634 9.61332 8.56634 9.61332 8.47967C9.61332 8.43301 9.61332 8.37967 9.61332 8.32633C9.61332 8.273 9.63999 8.25301 9.69332 8.25301C9.73332 8.25301 9.76668 8.26634 9.80668 8.26634C9.88668 8.273 9.96667 8.26634 10.04 8.25301C10.1467 8.21968 10.2266 8.14635 10.2733 8.04635C10.3266 7.93301 10.3667 7.81967 10.4133 7.70634C10.44 7.63967 10.4333 7.59301 10.4133 7.52635C10.1133 6.78635 9.81335 6.04634 9.51335 5.30634L9.5 5.31968ZM11.8133 9.72634C11.7733 9.773 11.72 9.80635 11.6667 9.83968C11.2 10.1597 10.6866 10.393 10.1466 10.573C9.77331 10.693 9.39333 10.7797 9 10.8397C8.73333 10.8797 8.46002 10.9063 8.18669 10.913C8.17335 10.913 8.15998 10.913 8.14665 10.913H7.82666C7.82666 10.913 7.8 10.913 7.78666 10.913C7.73333 10.913 7.68 10.913 7.62 10.9063C7.36 10.893 7.10669 10.8663 6.85335 10.8263C6.43335 10.7597 6.02667 10.653 5.62667 10.5063C4.8 10.2063 4.05998 9.76633 3.39998 9.17967C3.37332 9.153 3.35333 9.11968 3.33333 9.09302V9.05967C3.36667 8.99301 3.41331 8.98634 3.47998 9.01967C3.63998 9.10634 3.79333 9.19301 3.95333 9.27301C4.57333 9.58634 5.22665 9.81967 5.89998 9.97967C6.21998 10.053 6.53999 10.1197 6.86666 10.1597C7.34666 10.2263 7.83332 10.253 8.31999 10.2397C8.58665 10.233 8.85332 10.213 9.11332 10.1797C9.97332 10.0797 10.8066 9.85968 11.6066 9.52635C11.6533 9.50635 11.6933 9.49301 11.7467 9.50635C11.8467 9.53301 11.8867 9.64634 11.8067 9.72634H11.8133ZM12.6733 9.00635C12.6733 9.09301 12.6733 9.18634 12.6733 9.27301C12.6667 9.32634 12.6533 9.38634 12.64 9.43968C12.5733 9.74634 12.46 10.0397 12.26 10.2863C12.2067 10.3597 12.1333 10.4263 12.0667 10.493C12.0467 10.513 12.02 10.5263 11.9933 10.533C11.9467 10.5397 11.9267 10.513 11.9333 10.4663C11.9333 10.453 11.94 10.433 11.9467 10.4197C12.04 10.193 12.1267 9.96634 12.1867 9.73301C12.22 9.61968 12.2467 9.49968 12.24 9.37968C12.24 9.29968 12.2 9.23967 12.1267 9.21967C12.0533 9.19967 11.98 9.18633 11.9067 9.17967C11.7333 9.16633 11.56 9.17968 11.38 9.19301L11.0267 9.23301C11.0267 9.23301 11.0067 9.23301 10.9933 9.23301C10.9667 9.23301 10.9466 9.23301 10.94 9.20634C10.94 9.18634 10.94 9.15967 10.9467 9.14634C10.96 9.12634 10.98 9.10635 11 9.09302C11.1867 8.96635 11.3933 8.89301 11.6133 8.85301C11.8133 8.81967 12.0133 8.80633 12.2133 8.82633C12.32 8.833 12.4333 8.853 12.5333 8.88633C12.6 8.90633 12.66 8.93967 12.6733 9.013V9.00635ZM4.63334 8.59967C4.74001 8.59967 4.84666 8.59967 4.95333 8.59967C5 8.59967 5.02665 8.56635 5.02665 8.52635C5.02665 8.51301 5.02665 8.49301 5.02665 8.47967V7.37301C5.02665 7.37301 5.05335 7.39301 5.06002 7.39968C5.33335 7.62634 5.64666 7.69968 5.99333 7.63302C6.30666 7.57302 6.51999 7.37967 6.65999 7.09967C6.76666 6.88634 6.81332 6.65968 6.81999 6.42635C6.82665 6.16635 6.79999 5.90634 6.69332 5.66634C6.56665 5.36634 6.34665 5.16634 6.02665 5.10634C5.97999 5.09301 5.92667 5.09301 5.88001 5.08634H5.75334C5.75334 5.08634 5.70669 5.08635 5.68669 5.09302C5.47335 5.11968 5.27998 5.19967 5.10665 5.32633C5.07332 5.353 5.03333 5.37966 5 5.40633C5 5.39966 4.99999 5.393 4.99333 5.38633C4.98666 5.34633 4.98001 5.29968 4.97335 5.25968C4.96001 5.18635 4.92669 5.15967 4.85335 5.15967H4.67334C4.56667 5.15967 4.54667 5.17967 4.54667 5.28634V8.47967C4.54667 8.47967 4.54667 8.51301 4.54667 8.52635C4.54667 8.57301 4.58 8.59967 4.62 8.59967H4.63334ZM5.03333 6.36633V5.71967C5.03333 5.71967 5.04002 5.68635 5.06002 5.67301C5.26668 5.52635 5.5 5.453 5.75334 5.473C5.98 5.48634 6.16668 5.59967 6.26668 5.86633C6.32668 6.02633 6.34001 6.19967 6.34001 6.37301C6.34001 6.53301 6.32666 6.68635 6.27999 6.83968C6.17332 7.16635 5.94 7.29301 5.62667 7.27301C5.41334 7.26634 5.22668 7.17967 5.05334 7.05967C5.04001 7.04634 5.02665 7.03301 5.02665 7.00635C5.02665 6.79301 5.02665 6.57968 5.02665 6.35968L5.03333 6.36633Z" fill="#3B3B3E"/>
</svg>
