<svg width="16" height="16" viewBox="0 0 16 16" fill="none" xmlns="http://www.w3.org/2000/svg">
<path d="M8.00066 1.5C4.41733 1.5 1.50197 4.41535 1.50197 7.99935C1.50197 8.93268 1.70937 9.87198 2.10337 10.7213C2.18003 10.8833 2.18595 11.0887 2.12062 11.2933L1.56007 12.9607C1.42007 13.382 1.52874 13.84 1.84474 14.1553C2.06874 14.3793 2.36462 14.4993 2.66928 14.4993C2.79328 14.4993 2.91804 14.4793 3.0407 14.4387L4.70005 13.8813C4.91205 13.814 5.11805 13.8193 5.28338 13.8987C6.12805 14.2913 7.06735 14.4987 8.00001 14.4987C11.584 14.4987 14.4994 11.5833 14.4994 7.99935C14.4994 4.41535 11.5847 1.5 8.00066 1.5ZM8.00066 13.4987C7.212 13.4987 6.41864 13.3234 5.70997 12.994C5.31731 12.8067 4.85135 12.784 4.38868 12.9313L2.72332 13.4907C2.63999 13.5187 2.57993 13.476 2.55193 13.448C2.52393 13.42 2.48129 13.3607 2.50929 13.2773L3.07195 11.6034C3.21662 11.148 3.19331 10.682 3.00864 10.2947C2.67731 9.58134 2.50197 8.78799 2.50197 7.99866C2.50197 4.96666 4.96866 2.49935 8.00066 2.49935C11.0333 2.49935 13.5 4.96599 13.5 7.99866C13.5 11.0313 11.0333 13.4987 8.00066 13.4987ZM8.00001 4.83333C6.25401 4.83333 4.83335 6.254 4.83335 8C4.83335 9.746 6.25401 11.1667 8.00001 11.1667C9.74601 11.1667 11.1667 9.746 11.1667 8C11.1667 6.254 9.74601 4.83333 8.00001 4.83333ZM8.00001 10.1667C6.80535 10.1667 5.83335 9.19467 5.83335 8C5.83335 6.80533 6.80535 5.83333 8.00001 5.83333C9.19468 5.83333 10.1667 6.80533 10.1667 8C10.1667 9.19467 9.19468 10.1667 8.00001 10.1667ZM9.02003 8.31331C9.21537 8.50865 9.21537 8.82534 9.02003 9.02067C8.9227 9.118 8.79468 9.16732 8.66668 9.16732C8.53868 9.16732 8.41066 9.11867 8.31333 9.02067L7.64666 8.354C7.55266 8.26 7.50001 8.13332 7.50001 8.00065V7.00065C7.50001 6.72465 7.72401 6.50065 8.00001 6.50065C8.27601 6.50065 8.50001 6.72465 8.50001 7.00065V7.79333L9.02003 8.31331Z" fill="#3B3B3E"/>
</svg>
