<svg width="16" height="16" viewBox="0 0 16 16" fill="none" xmlns="http://www.w3.org/2000/svg">
<path d="M7.33333 12.833H4C2.94867 12.833 2.5 12.3843 2.5 11.333V3.33301C2.5 2.28167 2.94867 1.83301 4 1.83301H7.5V3.33301C7.5 4.94501 8.388 5.83301 10 5.83301H11.5V7.33301C11.5 7.60901 11.724 7.83301 12 7.83301C12.276 7.83301 12.5 7.60901 12.5 7.33301V5.33301C12.5 5.20034 12.4474 5.07301 12.3534 4.97968L8.35335 0.979675C8.25935 0.885675 8.13267 0.833008 8 0.833008H4C2.388 0.833008 1.5 1.72101 1.5 3.33301V11.333C1.5 12.945 2.388 13.833 4 13.833H7.33333C7.60933 13.833 7.83333 13.609 7.83333 13.333C7.83333 13.057 7.60933 12.833 7.33333 12.833ZM8.5 3.33301V2.54034L10.7926 4.83301H10C8.94867 4.83301 8.5 4.38434 8.5 3.33301ZM9.33333 6.83301C9.60933 6.83301 9.83333 7.05701 9.83333 7.33301C9.83333 7.60901 9.60933 7.83301 9.33333 7.83301H4.66667C4.39067 7.83301 4.16667 7.60901 4.16667 7.33301C4.16667 7.05701 4.39067 6.83301 4.66667 6.83301H9.33333ZM7.83333 9.99967C7.83333 10.2757 7.60933 10.4997 7.33333 10.4997H4.66667C4.39067 10.4997 4.16667 10.2757 4.16667 9.99967C4.16667 9.72367 4.39067 9.49967 4.66667 9.49967H7.33333C7.60933 9.49967 7.83333 9.72367 7.83333 9.99967ZM12 8.83301C10.254 8.83301 8.83333 10.2537 8.83333 11.9997C8.83333 13.7457 10.254 15.1663 12 15.1663C13.746 15.1663 15.1667 13.7457 15.1667 11.9997C15.1667 10.2537 13.746 8.83301 12 8.83301ZM12 14.1663C10.8053 14.1663 9.83333 13.1943 9.83333 11.9997C9.83333 10.805 10.8053 9.83301 12 9.83301C13.1947 9.83301 14.1667 10.805 14.1667 11.9997C14.1667 13.1943 13.1947 14.1663 12 14.1663ZM13.02 11.6863L12.7067 11.9997L13.02 12.313C13.2154 12.5083 13.2154 12.825 13.02 13.0203C12.9227 13.1177 12.7947 13.167 12.6667 13.167C12.5387 13.167 12.4106 13.1183 12.3133 13.0203L12 12.707L11.6867 13.0203C11.5894 13.1177 11.4613 13.167 11.3333 13.167C11.2053 13.167 11.0773 13.1183 10.98 13.0203C10.7846 12.825 10.7846 12.5083 10.98 12.313L11.2933 11.9997L10.98 11.6863C10.7846 11.491 10.7846 11.1743 10.98 10.979C11.1753 10.7837 11.492 10.7837 11.6873 10.979L12.0007 11.2923L12.314 10.979C12.5093 10.7837 12.826 10.7837 13.0213 10.979C13.2153 11.1743 13.2154 11.4917 13.02 11.6863Z" fill="#3B3B3E"/>
</svg>
