<svg width="16" height="16" viewBox="0 0 16 16" fill="none" xmlns="http://www.w3.org/2000/svg">
<path d="M12.9999 1.5H5.39716C3.73316 1.5 3.32584 2.30868 3.02517 3.20935L1.69249 7.20935C1.38049 8.14535 1.44851 8.99269 1.88251 9.59469C2.17984 10.008 2.80049 10.5 4.06383 10.5H6.16783V12.158C6.16783 12.9953 6.58387 13.7727 7.28054 14.238C7.54054 14.4114 7.83985 14.5007 8.14252 14.5007C8.30319 14.5007 8.4645 14.4753 8.6225 14.4246C9.0785 14.278 9.43589 13.9373 9.60989 13.47L11.0285 9.16667H12.9992C13.8259 9.16667 14.4992 8.494 14.4992 7.66667V3C14.4999 2.17267 13.8265 1.5 12.9999 1.5ZM10.1925 8.51001L8.66783 13.1373C8.60716 13.298 8.47984 13.42 8.31651 13.4727C8.15251 13.5253 7.97788 13.5007 7.83588 13.406C7.41788 13.1273 7.16856 12.6607 7.16856 12.158V10C7.16856 9.724 6.94456 9.5 6.66856 9.5H4.06456C3.60056 9.5 2.98587 9.41534 2.69387 9.01001C2.45654 8.68001 2.43654 8.13935 2.64187 7.52535L3.97455 3.52535C4.21122 2.81402 4.35983 2.49935 5.39716 2.49935H10.6665V8.16602C10.4505 8.16735 10.2598 8.30534 10.1925 8.51001ZM13.4999 7.66667C13.4999 7.94267 13.2752 8.16667 12.9999 8.16667H11.6665V2.5H12.9999C13.2752 2.5 13.4999 2.724 13.4999 3V7.66667Z" fill="#3B3B3E"/>
</svg>
