<svg width="16" height="16" viewBox="0 0 16 16" fill="none" xmlns="http://www.w3.org/2000/svg">
<path d="M11.9047 2.3916C11.1334 2.01827 10.2353 2.11561 9.56201 2.64827L5.01864 6.23633C4.8033 6.40633 4.63667 6.61625 4.5 6.84359V2.66699C4.5 2.39099 4.276 2.16699 4 2.16699C3.724 2.16699 3.5 2.39099 3.5 2.66699V13.3337C3.5 13.6097 3.724 13.8337 4 13.8337C4.276 13.8337 4.5 13.6097 4.5 13.3337V9.1556C4.63733 9.38293 4.80397 9.59302 5.01864 9.76302L9.56201 13.3517C9.96468 13.6697 10.4467 13.833 10.9347 13.833C11.2633 13.833 11.594 13.759 11.9047 13.609C12.6827 13.2317 13.1667 12.4577 13.1667 11.589V4.41227C13.1667 3.54294 12.6827 2.76893 11.9047 2.3916ZM12.1667 11.5884C12.1667 12.0777 11.9053 12.497 11.4687 12.7083C11.0387 12.9163 10.5586 12.8637 10.182 12.5671L5.63867 8.97835C5.33867 8.74169 5.16667 8.38434 5.16667 7.99967C5.16667 7.61434 5.33867 7.25766 5.63867 7.021L10.182 3.43294C10.558 3.13628 11.0387 3.08433 11.4687 3.29167C11.9053 3.503 12.1667 3.92229 12.1667 4.41162V11.5884Z" fill="#3B3B3E"/>
</svg>
