<svg width="16" height="16" viewBox="0 0 16 16" fill="none" xmlns="http://www.w3.org/2000/svg">
<path d="M8.33325 0.833008C7.50659 0.833008 6.83325 1.50567 6.83325 2.33301C6.83325 3.16034 7.50659 3.83301 8.33325 3.83301C9.15992 3.83301 9.83325 3.16034 9.83325 2.33301C9.83325 1.50567 9.15992 0.833008 8.33325 0.833008ZM8.33325 2.83301C8.05792 2.83301 7.83325 2.60901 7.83325 2.33301C7.83325 2.05701 8.05792 1.83301 8.33325 1.83301C8.60859 1.83301 8.83325 2.05701 8.83325 2.33301C8.83325 2.60901 8.60859 2.83301 8.33325 2.83301ZM12.3333 3.83301C13.1599 3.83301 13.8333 3.16034 13.8333 2.33301C13.8333 1.50567 13.1599 0.833008 12.3333 0.833008C11.5066 0.833008 10.8333 1.50567 10.8333 2.33301C10.8333 3.16034 11.5066 3.83301 12.3333 3.83301ZM12.3333 1.83301C12.6086 1.83301 12.8333 2.05701 12.8333 2.33301C12.8333 2.60901 12.6086 2.83301 12.3333 2.83301C12.0579 2.83301 11.8333 2.60901 11.8333 2.33301C11.8333 2.05701 12.0579 1.83301 12.3333 1.83301ZM4.33325 0.833008C3.50659 0.833008 2.83325 1.50567 2.83325 2.33301C2.83325 3.16034 3.50659 3.83301 4.33325 3.83301C5.15992 3.83301 5.83325 3.16034 5.83325 2.33301C5.83325 1.50567 5.15992 0.833008 4.33325 0.833008ZM4.33325 2.83301C4.05792 2.83301 3.83325 2.60901 3.83325 2.33301C3.83325 2.05701 4.05792 1.83301 4.33325 1.83301C4.60859 1.83301 4.83325 2.05701 4.83325 2.33301C4.83325 2.60901 4.60859 2.83301 4.33325 2.83301ZM8.33325 4.611C7.50659 4.611 6.83325 5.28367 6.83325 6.111C6.83325 6.93834 7.50659 7.611 8.33325 7.611C9.15992 7.611 9.83325 6.93834 9.83325 6.111C9.83325 5.28367 9.15992 4.611 8.33325 4.611ZM8.33325 6.611C8.05792 6.611 7.83325 6.387 7.83325 6.111C7.83325 5.835 8.05792 5.611 8.33325 5.611C8.60859 5.611 8.83325 5.835 8.83325 6.111C8.83325 6.387 8.60859 6.611 8.33325 6.611ZM12.3333 4.611C11.5066 4.611 10.8333 5.28367 10.8333 6.111C10.8333 6.93834 11.5066 7.611 12.3333 7.611C13.1599 7.611 13.8333 6.93834 13.8333 6.111C13.8333 5.28367 13.1599 4.611 12.3333 4.611ZM12.3333 6.611C12.0579 6.611 11.8333 6.387 11.8333 6.111C11.8333 5.835 12.0579 5.611 12.3333 5.611C12.6086 5.611 12.8333 5.835 12.8333 6.111C12.8333 6.387 12.6086 6.611 12.3333 6.611ZM4.33325 4.611C3.50659 4.611 2.83325 5.28367 2.83325 6.111C2.83325 6.93834 3.50659 7.611 4.33325 7.611C5.15992 7.611 5.83325 6.93834 5.83325 6.111C5.83325 5.28367 5.15992 4.611 4.33325 4.611ZM4.33325 6.611C4.05792 6.611 3.83325 6.387 3.83325 6.111C3.83325 5.835 4.05792 5.611 4.33325 5.611C4.60859 5.611 4.83325 5.835 4.83325 6.111C4.83325 6.387 4.60859 6.611 4.33325 6.611ZM8.33325 8.38835C7.50659 8.38835 6.83325 9.06101 6.83325 9.88835C6.83325 10.7157 7.50659 11.3883 8.33325 11.3883C9.15992 11.3883 9.83325 10.7157 9.83325 9.88835C9.83325 9.06101 9.15992 8.38835 8.33325 8.38835ZM8.33325 10.3883C8.05792 10.3883 7.83325 10.1643 7.83325 9.88835C7.83325 9.61235 8.05792 9.38835 8.33325 9.38835C8.60859 9.38835 8.83325 9.61235 8.83325 9.88835C8.83325 10.1643 8.60859 10.3883 8.33325 10.3883ZM12.3333 8.38835C11.5066 8.38835 10.8333 9.06101 10.8333 9.88835C10.8333 10.7157 11.5066 11.3883 12.3333 11.3883C13.1599 11.3883 13.8333 10.7157 13.8333 9.88835C13.8333 9.06101 13.1599 8.38835 12.3333 8.38835ZM12.3333 10.3883C12.0579 10.3883 11.8333 10.1643 11.8333 9.88835C11.8333 9.61235 12.0579 9.38835 12.3333 9.38835C12.6086 9.38835 12.8333 9.61235 12.8333 9.88835C12.8333 10.1643 12.6086 10.3883 12.3333 10.3883ZM4.33325 8.38835C3.50659 8.38835 2.83325 9.06101 2.83325 9.88835C2.83325 10.7157 3.50659 11.3883 4.33325 11.3883C5.15992 11.3883 5.83325 10.7157 5.83325 9.88835C5.83325 9.06101 5.15992 8.38835 4.33325 8.38835ZM4.33325 10.3883C4.05792 10.3883 3.83325 10.1643 3.83325 9.88835C3.83325 9.61235 4.05792 9.38835 4.33325 9.38835C4.60859 9.38835 4.83325 9.61235 4.83325 9.88835C4.83325 10.1643 4.60859 10.3883 4.33325 10.3883ZM8.33325 12.1663C7.50659 12.1663 6.83325 12.839 6.83325 13.6663C6.83325 14.4937 7.50659 15.1663 8.33325 15.1663C9.15992 15.1663 9.83325 14.4937 9.83325 13.6663C9.83325 12.839 9.15992 12.1663 8.33325 12.1663ZM8.33325 14.1663C8.05792 14.1663 7.83325 13.9423 7.83325 13.6663C7.83325 13.3903 8.05792 13.1663 8.33325 13.1663C8.60859 13.1663 8.83325 13.3903 8.83325 13.6663C8.83325 13.9423 8.60859 14.1663 8.33325 14.1663Z" fill="#3B3B3E"/>
</svg>
