<svg width="16" height="16" viewBox="0 0 16 16" fill="none" xmlns="http://www.w3.org/2000/svg">
<path d="M14.4667 10.9935C14.36 10.6402 14.0067 10.4402 13.94 10.4135C13.9067 10.3935 13.88 10.3802 13.84 10.3602C13.4667 10.1802 13.1334 9.9602 12.86 9.7202C12.64 9.5202 12.4534 9.31353 12.3067 9.09353C12.1934 8.92687 12.12 8.7802 12.08 8.66687C12.1934 8.59353 12.32 8.50686 12.44 8.43353C12.5534 8.3602 12.6467 8.3002 12.7067 8.2602C12.9667 8.07353 13.1534 7.8802 13.2734 7.65353C13.44 7.33353 13.4667 6.96687 13.3334 6.62687C13.1267 6.07353 12.5667 5.7602 11.8934 5.87353C11.8934 5.5402 11.8934 5.2002 11.8667 4.9202C11.82 4.4202 11.72 4.0002 11.5467 3.62687C11.3667 3.22687 11.1334 2.94687 10.9734 2.77354C10.8001 2.5802 10.5067 2.29353 10.0667 2.0402C8.84669 1.3402 7.18002 1.33353 5.94002 2.0402C5.47336 2.30686 5.17337 2.61354 5.03337 2.77354C4.86003 2.97354 4.64005 3.24687 4.46672 3.62687C4.29338 4.0002 4.19336 4.42687 4.14669 4.9202C4.12669 5.17354 4.11337 5.49354 4.12004 5.86687C4.03337 5.85354 3.94669 5.84687 3.86003 5.84687C3.31336 5.84687 2.86673 6.14687 2.68673 6.62687C2.55339 6.97353 2.58004 7.33353 2.7467 7.65353C2.86004 7.87353 3.04669 8.07353 3.31336 8.2602C3.37336 8.3002 3.4667 8.36019 3.61336 8.45353C3.70003 8.51353 3.82669 8.59353 3.94002 8.66687C3.89336 8.7802 3.82004 8.92687 3.70671 9.09353C3.56004 9.31353 3.37336 9.52687 3.15336 9.7202C2.87336 9.96687 2.54005 10.1869 2.17338 10.3602C2.14005 10.3735 2.10004 10.3935 2.08671 10.4069C1.98004 10.4602 1.63337 10.6602 1.53337 11.0069C1.41337 11.4269 1.61338 11.8802 2.04671 12.1602C2.40671 12.3935 2.82006 12.5135 3.10006 12.5869H3.12004C3.1867 12.8669 3.33338 13.0869 3.54671 13.2402C3.84005 13.4402 4.1667 13.4535 4.4867 13.4669C4.7467 13.4735 5.06671 13.4869 5.42004 13.6069C5.56004 13.6535 5.70005 13.7402 5.88672 13.8535C6.34005 14.1335 6.96004 14.5135 8.00004 14.5135C9.04004 14.5135 9.66005 14.1335 10.1334 13.8469C10.3067 13.7402 10.4467 13.6535 10.58 13.6135C10.9267 13.5002 11.2334 13.4869 11.5134 13.4735C11.8334 13.4602 12.16 13.4469 12.4534 13.2469C12.6667 13.1002 12.8067 12.8935 12.88 12.6002L12.9467 12.5802C13.1734 12.5202 13.4801 12.4335 13.8534 12.2269C14.4667 11.8735 14.5667 11.3469 14.4667 11.0069V10.9935ZM13.48 11.2535C13.48 11.2535 13.4267 11.3069 13.3667 11.3402C13.1067 11.4869 12.9 11.5469 12.66 11.6069L12.4534 11.6669C12.2867 11.7269 12.1667 11.8069 12.08 11.9202C11.98 12.0602 11.9534 12.2002 11.9334 12.3069C11.9201 12.3802 11.9067 12.4002 11.9 12.4002C11.8467 12.4402 11.6534 12.4469 11.4734 12.4535C11.1667 12.4669 10.7534 12.4869 10.2734 12.6402C10.0334 12.7202 9.83339 12.8402 9.60006 12.9869C9.18672 13.2402 8.76671 13.5002 8.00671 13.5002C7.24671 13.5002 6.8267 13.2402 6.41337 12.9869C6.19337 12.8535 5.9867 12.7269 5.74003 12.6402C5.2467 12.4802 4.81336 12.4602 4.52669 12.4535C4.36003 12.4535 4.17337 12.4402 4.12004 12.4069C4.1067 12.4002 4.10004 12.3735 4.08004 12.2935C4.0667 12.2069 4.04005 12.0602 3.92672 11.9135C3.84005 11.8069 3.71337 11.7202 3.54004 11.6602C3.48671 11.6402 3.42006 11.6269 3.35339 11.6069C3.14006 11.5535 2.83338 11.4602 2.59338 11.3069C2.58005 11.3002 2.56672 11.2869 2.55339 11.2802C2.56672 11.2735 2.59339 11.2602 2.60006 11.2535C3.05339 11.0335 3.46002 10.7669 3.81336 10.4602C4.10002 10.2069 4.34003 9.92687 4.53337 9.6402C4.7667 9.28687 4.8867 8.9802 4.9467 8.77353C4.9867 8.62687 5.00672 8.46687 4.92672 8.27354C4.86672 8.1202 4.7467 8.00686 4.66003 7.94686C4.51337 7.8402 4.2867 7.69353 4.11336 7.5802C4.01336 7.51353 3.92004 7.45354 3.87337 7.4202C3.74671 7.33354 3.66004 7.24686 3.62004 7.17353C3.5867 7.10686 3.58003 7.0402 3.61336 6.96686C3.66003 6.84686 3.82669 6.81354 3.98002 6.84687C4.14669 6.8802 4.30006 6.94687 4.39339 6.97354C4.54673 7.05354 4.74673 7.04019 4.89339 6.95353C5.04673 6.86019 5.14672 6.67354 5.14006 6.49354C5.11339 5.84687 5.11339 5.3402 5.14006 4.99354C5.17339 4.61354 5.24671 4.29353 5.37337 4.02686C5.49337 3.76686 5.65337 3.56686 5.7867 3.41353C5.8667 3.32686 6.08006 3.09353 6.43339 2.89353C7.36672 2.36686 8.64669 2.36686 9.56669 2.89353C9.88669 3.07353 10.0934 3.2802 10.2201 3.4202C10.3467 3.5602 10.5067 3.7602 10.6334 4.03354C10.7534 4.3002 10.8334 4.6202 10.8667 5.0002C10.9 5.42687 10.8934 6.05353 10.8667 6.5202C10.8667 6.69353 10.9667 6.86687 11.1134 6.9602C11.2467 7.0402 11.4267 7.0602 11.5667 7.0002C11.7 6.94687 11.8534 6.88687 12.0134 6.85353C12.2067 6.81353 12.3401 6.85354 12.3867 6.97354C12.4134 7.04687 12.4134 7.11354 12.38 7.1802C12.34 7.2602 12.2534 7.3402 12.1267 7.42687C12.0734 7.4602 11.9867 7.5202 11.84 7.61353C11.6934 7.70686 11.4734 7.85353 11.3267 7.95353C11.26 8.00019 11.1401 8.10687 11.0601 8.27354C11.0001 8.42687 10.9934 8.57353 11.0467 8.77353C11.0934 8.93353 11.2067 9.25353 11.46 9.63353C11.6534 9.92686 11.8934 10.2002 12.1801 10.4602C12.5267 10.7669 12.9334 11.0335 13.3934 11.2535L13.4667 11.2469L13.48 11.2535Z" fill="#3B3B3E"/>
</svg>
