<svg width="16" height="16" viewBox="0 0 16 16" fill="none" xmlns="http://www.w3.org/2000/svg">
<path d="M11.3333 12.5H7.99992C7.72392 12.5 7.49992 12.276 7.49992 12C7.49992 11.724 7.72392 11.5 7.99992 11.5H11.3333C12.8959 11.5 14.1666 10.2293 14.1666 8.66667C14.1666 7.104 12.8959 5.83333 11.3333 5.83333C11.1446 5.83333 10.9632 5.85002 10.7792 5.88468C10.5779 5.92335 10.37 5.83201 10.262 5.65601C10.0673 5.34201 9.81996 5.04865 9.52596 4.78532C8.83396 4.17199 7.93592 3.83333 6.99992 3.83333C5.68792 3.83333 4.48266 4.49466 3.77466 5.60266C3.62666 5.83466 3.31789 5.904 3.08455 5.75533C2.85122 5.60666 2.78322 5.29732 2.93188 5.06466C3.82388 3.66799 5.34458 2.83398 6.99992 2.83398C8.18058 2.83398 9.31466 3.262 10.1913 4.04C10.4713 4.29067 10.7173 4.56332 10.9273 4.85466C11.0613 4.84066 11.1959 4.83398 11.3333 4.83398C13.4473 4.83398 15.1666 6.55332 15.1666 8.66732C15.1666 10.7813 13.4473 12.5 11.3333 12.5ZM3.82658 13.14C5.11858 12.7027 6.49992 11.57 6.49992 9.70333V8.18335C6.49992 7.95468 6.34529 7.75465 6.12329 7.69865C4.94996 7.40065 4.402 7.14531 3.89933 6.88798C3.75733 6.81598 3.58922 6.81468 3.44588 6.88668C2.93788 7.14268 2.3839 7.40067 1.19523 7.74133C0.981231 7.80267 0.833252 7.99867 0.833252 8.22201V9.70333C0.833252 11.57 2.21393 12.7027 3.50659 13.14C3.55859 13.1573 3.61259 13.1667 3.66659 13.1667C3.72059 13.1667 3.77458 13.158 3.82658 13.14ZM3.66984 7.89201C4.17317 8.13668 4.70259 8.34802 5.49992 8.56869V9.70402C5.49992 11.2347 4.19459 11.9193 3.66659 12.1333C3.13859 11.9193 1.83325 11.2347 1.83325 9.70402V8.59599C2.63925 8.35065 3.15851 8.13868 3.66984 7.89201Z" fill="#3B3B3E"/>
</svg>
