<svg width="16" height="16" viewBox="0 0 16 16" fill="none" xmlns="http://www.w3.org/2000/svg">
<g clip-path="url(#clip0_36251_7346)">
<path d="M15.1667 7.99967C15.1667 4.04767 11.952 0.833008 8.00004 0.833008C4.04804 0.833008 0.833374 4.04767 0.833374 7.99967C0.833374 10.313 1.93937 12.3677 3.64604 13.679C3.6487 13.6817 3.65273 13.683 3.6554 13.6857C4.86273 14.6104 6.36602 15.1663 8.00069 15.1663C9.63536 15.1663 11.1387 14.6104 12.3461 13.6857C12.3487 13.683 12.3527 13.6817 12.3553 13.679C14.0607 12.3677 15.1667 10.313 15.1667 7.99967ZM1.83337 7.99967C1.83337 4.59901 4.59937 1.83301 8.00004 1.83301C11.4007 1.83301 14.1667 4.59901 14.1667 7.99967C14.1667 9.68167 13.488 11.2077 12.392 12.321C12.0927 11.0537 11.1347 9.87964 9.14001 9.87964H6.86007C4.8654 9.87964 3.9067 11.0537 3.60803 12.321C2.51203 11.2077 1.83337 9.68167 1.83337 7.99967ZM4.50606 13.0757C4.54473 12.3917 4.8574 10.8796 6.86007 10.8796H9.14001C11.1427 10.8796 11.4554 12.3917 11.494 13.0757C10.5 13.7623 9.29671 14.1663 8.00004 14.1663C6.70337 14.1663 5.50006 13.7617 4.50606 13.0757ZM8.00541 9.16634C9.38341 9.16634 10.5054 8.04501 10.5054 6.66634C10.5054 5.28767 9.38341 4.16634 8.00541 4.16634C6.62741 4.16634 5.50541 5.28767 5.50541 6.66634C5.50541 8.04501 6.62674 9.16634 8.00541 9.16634ZM8.00541 5.16634C8.83208 5.16634 9.50541 5.83901 9.50541 6.66634C9.50541 7.49367 8.83208 8.16634 8.00541 8.16634C7.17874 8.16634 6.50541 7.49367 6.50541 6.66634C6.50541 5.83901 7.17874 5.16634 8.00541 5.16634Z" fill="#3B3B3E"/>
</g>
<defs>
<clipPath id="clip0_36251_7346">
<rect width="16" height="16" fill="white"/>
</clipPath>
</defs>
</svg>
