<svg width="16" height="16" viewBox="0 0 16 16" fill="none" xmlns="http://www.w3.org/2000/svg">
<path d="M13.472 5.42718L9.39201 2.00652C8.58601 1.32986 7.41399 1.32986 6.60799 2.00652L2.52799 5.42718C1.89066 5.95584 1.5 6.35187 1.5 7.76653V11.9999C1.5 13.6119 2.388 14.4999 4 14.4999H12C13.612 14.4999 14.5 13.6119 14.5 11.9999V7.76653C14.5 6.35187 14.1093 5.95584 13.472 5.42718ZM13.5 11.9999C13.5 13.0512 13.0513 13.4999 12 13.4999H4C2.94867 13.4999 2.5 13.0512 2.5 11.9999V7.76653C2.5 6.7492 2.66802 6.60988 3.16602 6.19655L7.25 2.77256C7.46733 2.59056 7.734 2.4992 8 2.4992C8.266 2.4992 8.53267 2.59056 8.75 2.77256L12.834 6.19655C13.332 6.60988 13.5 6.7492 13.5 7.76653V11.9999ZM9.66667 9.74187C9.66667 10.1399 9.51332 10.5152 9.23332 10.7979C9.02998 11.0052 8.776 11.1432 8.5 11.2039V11.3332C8.5 11.6092 8.276 11.8332 8 11.8332C7.724 11.8332 7.5 11.6092 7.5 11.3332V11.2032C6.89 11.0686 6.41469 10.5578 6.34269 9.90651C6.31203 9.63184 6.51 9.38451 6.78467 9.35451C7.052 9.32384 7.30535 9.52181 7.33602 9.79648C7.36402 10.0498 7.57065 10.2405 7.81665 10.2405H8.184C8.31 10.2405 8.42999 10.1892 8.52132 10.0965C8.61599 10.0005 8.66732 9.87521 8.66732 9.74187C8.66732 9.51254 8.51532 9.31317 8.29932 9.25717L7.45467 9.04453C7.13267 8.96119 6.84464 8.77116 6.64331 8.50783C6.44398 8.25249 6.33333 7.92516 6.33333 7.59116C6.33333 6.87449 6.834 6.27585 7.5 6.12851V5.99985C7.5 5.72385 7.724 5.49985 8 5.49985C8.276 5.49985 8.5 5.72385 8.5 5.99985V6.12981C9.11 6.26448 9.58531 6.77519 9.65731 7.42653C9.68797 7.70119 9.49 7.94853 9.21533 7.97853C8.94867 8.0052 8.69465 7.81122 8.66398 7.53655C8.63598 7.28322 8.42935 7.09254 8.18335 7.09254H7.816C7.55 7.09254 7.33268 7.31583 7.33268 7.59116C7.33268 7.70449 7.36867 7.81315 7.434 7.89715C7.50333 7.98781 7.5947 8.04853 7.70003 8.07586L8.54468 8.28851C9.20668 8.45851 9.66667 9.05587 9.66667 9.74187Z" fill="#3B3B3E"/>
</svg>
