<svg width="16" height="16" viewBox="0 0 16 16" fill="none" xmlns="http://www.w3.org/2000/svg">
<path d="M9.33333 11.1664C9.05733 11.1664 8.83333 10.9424 8.83333 10.6664V9.33303C8.83333 9.05703 9.05733 8.83303 9.33333 8.83303C9.60933 8.83303 9.83333 9.05703 9.83333 9.33303V10.6664C9.83333 10.9424 9.60933 11.1664 9.33333 11.1664ZM12.56 5.64103C12.286 5.6217 12.046 5.83036 12.028 6.10636L11.628 12.0984C11.5613 13.0544 11.0847 13.4997 10.1267 13.4997H5.87333C5.54933 13.4997 5.292 13.451 5.08534 13.3504C4.83667 13.2284 4.53733 13.3324 4.41667 13.5804C4.296 13.829 4.39866 14.1277 4.64733 14.249C4.99333 14.4177 5.394 14.4997 5.87333 14.4997H10.1267C11.612 14.4997 12.5227 13.6497 12.626 12.1664L13.026 6.17302C13.044 5.89769 12.8353 5.65903 12.56 5.64103ZM14.3533 2.35303L12.3533 4.35303L7.02 9.68636L2.35333 14.353C2.256 14.4504 2.128 14.4997 2 14.4997C1.872 14.4997 1.744 14.451 1.64667 14.353C1.45133 14.1577 1.45133 13.841 1.64667 13.6457L3.36067 11.9317L2.86534 4.49902H2C1.724 4.49902 1.5 4.27502 1.5 3.99902C1.5 3.72302 1.724 3.49902 2 3.49902H4.37333C4.97066 3.49902 4.99267 3.43436 5.164 2.93236L5.29934 2.5277C5.49667 1.91437 6.06867 1.49902 6.72 1.49902H9.28C9.932 1.49902 10.5033 1.91436 10.7027 2.53236L10.8347 2.92769C11.008 3.43503 11.0293 3.49902 11.6267 3.49902H11.7933L13.6467 1.64569C13.842 1.45036 14.1587 1.45036 14.354 1.64569C14.5493 1.84102 14.5487 2.15769 14.3533 2.35303ZM6.114 3.24436C6.084 3.33236 6.05334 3.41769 6.02067 3.49969H9.97867C9.94733 3.42103 9.918 3.34036 9.88933 3.25636L9.752 2.84503C9.68467 2.63703 9.496 2.49969 9.28 2.49969H6.72C6.504 2.49969 6.31466 2.63636 6.24933 2.83969L6.114 3.24436ZM4.29934 10.993L6.16667 9.12569V7.33303C6.16667 7.05703 6.39067 6.83303 6.66667 6.83303C6.94267 6.83303 7.16667 7.05703 7.16667 7.33303V8.12569L10.7927 4.49969H4.66667C4.64333 4.49969 4.62266 4.48903 4.6 4.48636C4.52533 4.49103 4.45666 4.49969 4.37333 4.49969H3.868L4.29934 10.993Z" fill="#3B3B3E"/>
</svg>
