<svg width="16" height="16" viewBox="0 0 16 16" fill="none" xmlns="http://www.w3.org/2000/svg">
<path d="M8.00005 14.5C7.34138 14.5 6.74939 14.158 6.41472 13.5853C6.27605 13.3467 6.35605 13.0407 6.59471 12.9013C6.83271 12.7627 7.13938 12.8427 7.27871 13.0813C7.58471 13.606 8.41538 13.606 8.72138 13.0813C8.86071 12.8427 9.16672 12.7627 9.40538 12.9013C9.64405 13.04 9.72471 13.3467 9.58537 13.5853C9.25071 14.158 8.65871 14.5 8.00005 14.5ZM13.7834 12.2167C13.8667 12.0433 13.8434 11.838 13.724 11.688C13.7114 11.6727 12.4967 10.126 12.4967 8.33333V5.99666C12.4967 3.51733 10.4794 1.5 8.00005 1.5C5.52071 1.5 3.50338 3.51733 3.50338 5.99666V8.33333C3.50338 10.126 2.28871 11.6727 2.27605 11.688C2.15671 11.838 2.13339 12.044 2.21672 12.2167C2.30006 12.3893 2.47471 12.5 2.66671 12.5H13.3334C13.5254 12.5 13.7 12.3893 13.7834 12.2167ZM4.50338 8.33333V5.99666C4.50338 4.06866 6.07205 2.5 8.00005 2.5C9.92805 2.5 11.4967 4.06866 11.4967 5.99666V8.33333C11.4967 9.624 11.9967 10.772 12.4087 11.5H3.5907C4.00337 10.772 4.50338 9.624 4.50338 8.33333ZM8.50005 7.33333V5.33333C8.50005 5.05733 8.27605 4.83333 8.00005 4.83333C7.72405 4.83333 7.50005 5.05733 7.50005 5.33333V7.33333C7.50005 7.60933 7.72405 7.83333 8.00005 7.83333C8.27605 7.83333 8.50005 7.60933 8.50005 7.33333ZM8.68004 9.33333C8.68004 8.96533 8.38137 8.66667 8.01337 8.66667H8.00672C7.63872 8.66667 7.34339 8.96533 7.34339 9.33333C7.34339 9.70133 7.64537 10 8.01337 10C8.38137 10 8.68004 9.70133 8.68004 9.33333Z" fill="#3B3B3E"/>
</svg>
