<svg width="16" height="16" viewBox="0 0 16 16" fill="none" xmlns="http://www.w3.org/2000/svg">
<path d="M7.99998 0.833008C4.04798 0.833008 0.833313 4.04834 0.833313 7.99967C0.833313 11.951 4.04798 15.1663 7.99998 15.1663C11.952 15.1663 15.1666 11.951 15.1666 7.99967C15.1666 4.04834 11.952 0.833008 7.99998 0.833008ZM7.99998 14.1663C4.59931 14.1663 1.83331 11.4003 1.83331 7.99967C1.83331 4.59901 4.59931 1.83301 7.99998 1.83301C11.4006 1.83301 14.1666 4.59901 14.1666 7.99967C14.1666 11.4003 11.4006 14.1663 7.99998 14.1663ZM6.50131 6.87168L5.37398 7.99967L6.50198 9.12766C6.69732 9.323 6.69732 9.63967 6.50198 9.835C6.40465 9.93233 6.27665 9.98167 6.14865 9.98167C6.02065 9.98167 5.89264 9.933 5.79531 9.835L4.31397 8.35368C4.11864 8.15834 4.11864 7.84167 4.31397 7.64634L5.79531 6.165C5.99064 5.96966 6.30731 5.96966 6.50264 6.165C6.69664 6.35966 6.69665 6.67635 6.50131 6.87168ZM11.6866 7.64634C11.882 7.84167 11.882 8.15834 11.6866 8.35368L10.2053 9.835C10.108 9.93233 9.97998 9.98167 9.85198 9.98167C9.72398 9.98167 9.59598 9.933 9.49865 9.835C9.30331 9.63967 9.30331 9.323 9.49865 9.12766L10.6266 7.99967L9.49865 6.87168C9.30331 6.67635 9.30331 6.35968 9.49865 6.16435C9.69398 5.96901 10.0106 5.96901 10.206 6.16435L11.6866 7.64634ZM9.15198 5.45435L7.81864 10.7877C7.76198 11.015 7.55798 11.1663 7.33398 11.1663C7.29398 11.1663 7.25331 11.1617 7.21197 11.151C6.94397 11.0843 6.78131 10.8123 6.84864 10.545L8.18198 5.21167C8.24864 4.94367 8.51731 4.78101 8.78864 4.84768C9.05598 4.91501 9.21864 5.18635 9.15198 5.45435Z" fill="#3B3B3E"/>
</svg>
