<svg width="16" height="16" viewBox="0 0 16 16" fill="none" xmlns="http://www.w3.org/2000/svg">
<path d="M13.8332 7.99953C13.8332 8.27553 13.6092 8.49953 13.3332 8.49953H3.87394L5.68725 10.3128C5.88258 10.5082 5.88258 10.8249 5.68725 11.0202C5.58992 11.1175 5.4619 11.1668 5.3339 11.1668C5.2059 11.1668 5.07788 11.1182 4.98055 11.0202L2.31388 8.35353C2.26788 8.30753 2.2313 8.25227 2.20597 8.19093C2.1553 8.06893 2.1553 7.93093 2.20597 7.80893C2.2313 7.7476 2.26788 7.69217 2.31388 7.64617L4.98055 4.97951C5.17588 4.78417 5.49257 4.78417 5.6879 4.97951C5.88324 5.17484 5.88324 5.49153 5.6879 5.68686L3.87459 7.50018H13.3332C13.6092 7.49951 13.8332 7.72353 13.8332 7.99953Z" fill="#3B3B3E"/>
</svg>
