<svg width="16" height="16" viewBox="0 0 16 16" fill="none" xmlns="http://www.w3.org/2000/svg">
<path d="M12 14.4999H4C2.388 14.4999 1.5 13.6119 1.5 11.9999V7.76653C1.5 6.3512 1.89066 5.95584 2.52799 5.42718L6.60799 2.00652C7.41399 1.32986 8.58601 1.32986 9.39201 2.00652L13.472 5.42718C14.1093 5.95584 14.5 6.35187 14.5 7.76653V11.9999C14.5 13.6119 13.612 14.4999 12 14.4999ZM8 2.49985C7.734 2.49985 7.46733 2.59121 7.25 2.77321L3.16602 6.1972C2.66802 6.61053 2.5 6.74985 2.5 7.76718V12.0005C2.5 13.0518 2.94867 13.5005 4 13.5005H12C13.0513 13.5005 13.5 13.0518 13.5 12.0005V7.76718C13.5 6.74985 13.332 6.61053 12.834 6.1972L8.75 2.77321C8.53267 2.59054 8.266 2.49985 8 2.49985ZM5.68669 11.0199L7.22266 9.53183L8.06999 10.3779C8.47265 10.7799 9.1273 10.7799 9.5293 10.3772L11.0194 8.88722C11.2147 8.69189 11.2147 8.3752 11.0194 8.17986C10.824 7.98453 10.5073 7.98453 10.312 8.17986L8.77466 9.66985L7.92733 8.82382C7.52466 8.42182 6.86997 8.42256 6.46663 8.82456L4.97868 10.3125C4.78335 10.5078 4.78335 10.8245 4.97868 11.0199C5.07601 11.1172 5.20403 11.1665 5.33203 11.1665C5.46003 11.1665 5.58935 11.1179 5.68669 11.0199Z" fill="#3B3B3E"/>
</svg>
