<svg width="16" height="16" viewBox="0 0 16 16" fill="none" xmlns="http://www.w3.org/2000/svg">
<path d="M12.0001 4.16699H8.87411L7.02075 2.31366C6.92675 2.21966 6.80007 2.16699 6.6674 2.16699H4.00073C2.38873 2.16699 1.50073 3.05499 1.50073 4.66699V11.3337C1.50073 12.9457 2.38873 13.8337 4.00073 13.8337H12.0007C13.6127 13.8337 14.5007 12.9457 14.5007 11.3337V6.66699C14.5001 5.05499 13.6121 4.16699 12.0001 4.16699ZM13.5001 11.3337C13.5001 12.385 13.0514 12.8337 12.0001 12.8337H4.00008C2.94875 12.8337 2.50008 12.385 2.50008 11.3337V4.66699C2.50008 3.61566 2.94875 3.16699 4.00008 3.16699H6.45939L8.31274 5.02032C8.40674 5.11432 8.53343 5.16699 8.6661 5.16699H11.9994C13.0508 5.16699 13.4994 5.61566 13.4994 6.66699V11.3337H13.5001ZM10.378 6.00167C10.1527 5.83167 9.84742 5.78965 9.52075 5.88165L8.14478 6.26833C7.67811 6.40433 7.35213 6.837 7.35213 7.32033V9.19499C7.1848 9.13232 7.00468 9.093 6.81535 9.093C5.96802 9.093 5.27808 9.78233 5.27808 10.6297C5.27808 11.477 5.96735 12.167 6.81535 12.167C7.66268 12.167 8.35213 11.4777 8.35213 10.6297V9.00033C8.35213 8.91366 8.398 8.85699 8.42 8.85099L10.0307 8.401C10.4513 8.28433 10.7227 7.94299 10.7227 7.53099V6.79032C10.7221 6.35366 10.5353 6.12034 10.378 6.00167ZM6.81535 11.167C6.51935 11.167 6.27808 10.9263 6.27808 10.6297C6.27808 10.3337 6.51868 10.093 6.81535 10.093C7.11068 10.093 7.35213 10.3337 7.35213 10.6297C7.35147 10.9263 7.11068 11.167 6.81535 11.167ZM9.72209 7.44832L8.35148 7.83099V7.31966C8.35148 7.27766 8.38067 7.24032 8.42 7.22966L9.72209 6.86965V7.44832Z" fill="#3B3B3E"/>
</svg>
