<svg width="16" height="16" viewBox="0 0 16 16" fill="none" xmlns="http://www.w3.org/2000/svg">
<path d="M14.3181 6.05619L9.37667 1.99223C8.57867 1.33756 7.42207 1.33689 6.62407 1.99223L1.68274 6.05554C1.47008 6.23087 1.43872 6.54556 1.61406 6.75956C1.79072 6.97289 2.10474 7.00291 2.31808 6.82825L2.83338 6.40425V11.9995C2.83338 13.6115 3.72138 14.4996 5.33338 14.4996H10.6667C12.2787 14.4996 13.1667 13.6115 13.1667 11.9995V6.40425L13.682 6.82825C13.7753 6.90491 13.888 6.94218 14 6.94218C14.144 6.94218 14.2874 6.88021 14.386 6.76021C14.562 6.54621 14.5307 6.23152 14.3181 6.05619ZM12.1667 11.9995C12.1667 13.0509 11.718 13.4996 10.6667 13.4996H5.33338C4.28204 13.4996 3.83338 13.0509 3.83338 11.9995V5.58223L7.2594 2.76558C7.68807 2.41292 8.31275 2.41292 8.74142 2.76558L12.1674 5.58288V11.9995H12.1667ZM6.40003 7.4329C6.40003 8.3149 7.11804 9.03292 8.00004 9.03292C8.88204 9.03292 9.60006 8.3149 9.60006 7.4329C9.60006 6.5509 8.88204 5.83288 8.00004 5.83288C7.11804 5.83288 6.40003 6.5509 6.40003 7.4329ZM8.60006 7.4329C8.60006 7.76357 8.33071 8.03292 8.00004 8.03292C7.66938 8.03292 7.40003 7.76357 7.40003 7.4329C7.40003 7.10223 7.66938 6.83288 8.00004 6.83288C8.33071 6.83288 8.60006 7.10223 8.60006 7.4329ZM8.42802 9.49955C9.78869 9.49955 10.5 10.4876 10.5 11.4642V11.6662C10.5 11.9422 10.276 12.1662 10 12.1662C9.72404 12.1662 9.50004 11.9422 9.50004 11.6662V11.4642C9.50004 10.9842 9.16869 10.4995 8.42802 10.4995H7.57272C6.83205 10.4995 6.50069 10.9842 6.50069 11.4642V11.6662C6.50069 11.9422 6.27669 12.1662 6.00069 12.1662C5.72469 12.1662 5.50069 11.9422 5.50069 11.6662V11.4642C5.50069 10.4882 6.21205 9.49955 7.57272 9.49955H8.42802Z" fill="#3B3B3E"/>
</svg>
