<svg width="16" height="16" viewBox="0 0 16 16" fill="none" xmlns="http://www.w3.org/2000/svg">
<path d="M12 2.16699H4C2.388 2.16699 1.5 3.05499 1.5 4.66699V11.3337C1.5 12.9457 2.388 13.8337 4 13.8337H12C13.612 13.8337 14.5 12.9457 14.5 11.3337V4.66699C14.5 3.05499 13.612 2.16699 12 2.16699ZM13.5 11.3337C13.5 12.385 13.0513 12.8337 12 12.8337H4C2.94867 12.8337 2.5 12.385 2.5 11.3337V8.50033H5.33333C5.50067 8.50033 5.65668 8.417 5.74935 8.27767L6.5153 7.12826L7.52531 10.1584C7.58598 10.339 7.74402 10.4703 7.93335 10.4956C7.95535 10.4989 7.97733 10.5003 8 10.5003C8.166 10.5003 8.32202 10.4177 8.41602 10.2777L9.60067 8.50033H10.6667C10.9427 8.50033 11.1667 8.27633 11.1667 8.00033C11.1667 7.72433 10.9427 7.50033 10.6667 7.50033H9.33333C9.166 7.50033 9.00998 7.58365 8.91732 7.72298L8.15137 8.8724L7.14136 5.84229C7.08069 5.66162 6.92265 5.53038 6.73332 5.50505C6.54265 5.47705 6.35732 5.56365 6.25065 5.72298L5.066 7.50033H2.5V4.66699C2.5 3.61566 2.94867 3.16699 4 3.16699H12C13.0513 3.16699 13.5 3.61566 13.5 4.66699V11.3337Z" fill="#3B3B3E"/>
</svg>
