<svg width="16" height="16" viewBox="0 0 16 16" fill="none" xmlns="http://www.w3.org/2000/svg">
<path d="M8.00331 14.5C7.34465 14.5 6.75198 14.158 6.41798 13.5847C6.27931 13.346 6.35997 13.04 6.59864 12.9013C6.83664 12.762 7.14331 12.8427 7.28198 13.082C7.58731 13.6053 8.41865 13.6067 8.72465 13.082C8.86398 12.8433 9.17065 12.7633 9.40865 12.902C9.64732 13.0407 9.72798 13.3473 9.58864 13.586C9.25398 14.158 8.66198 14.5 8.00331 14.5ZM13.784 12.2167C13.8673 12.0433 13.844 11.838 13.724 11.688C13.712 11.6727 12.5006 10.1373 12.5006 8.334V6.66667C12.5006 6.39067 12.2766 6.16667 12.0006 6.16667C11.7246 6.16667 11.5006 6.39067 11.5006 6.66667V8.33333C11.5006 9.624 11.9993 10.772 12.4106 11.5H3.59131C4.00264 10.772 4.50131 9.624 4.50131 8.33333V6C4.50131 4.07 6.07131 2.5 8.00131 2.5C8.27731 2.5 8.50131 2.276 8.50131 2C8.50131 1.724 8.27731 1.5 8.00131 1.5C5.51998 1.5 3.50131 3.51867 3.50131 6V8.33333C3.50131 10.126 2.28931 11.6727 2.27731 11.688C2.15798 11.838 2.13465 12.044 2.21865 12.2167C2.30198 12.3893 2.47665 12.5 2.66865 12.5H13.3353C13.5253 12.5 13.7006 12.39 13.784 12.2167ZM13.1666 3.33333C13.1666 2.32267 12.3446 1.5 11.3333 1.5C10.322 1.5 9.49998 2.32267 9.49998 3.33333C9.49998 4.344 10.322 5.16667 11.3333 5.16667C12.3446 5.16667 13.1666 4.344 13.1666 3.33333ZM12.1666 3.33333C12.1666 3.79267 11.7926 4.16667 11.3333 4.16667C10.874 4.16667 10.5 3.79267 10.5 3.33333C10.5 2.874 10.874 2.5 11.3333 2.5C11.7926 2.5 12.1666 2.874 12.1666 3.33333Z" fill="#3B3B3E"/>
</svg>
