<svg width="16" height="16" viewBox="0 0 16 16" fill="none" xmlns="http://www.w3.org/2000/svg">
<path d="M11.0199 8.31317C11.2152 8.5085 11.2152 8.82519 11.0199 9.02052L8.35321 11.6872C8.25587 11.7845 8.12785 11.8338 7.99985 11.8338C7.87185 11.8338 7.74383 11.7852 7.6465 11.6872L4.97983 9.02052C4.7845 8.82519 4.7845 8.5085 4.97983 8.31317C5.17517 8.11783 5.49186 8.11783 5.68719 8.31317L8.0005 10.6265L10.3138 8.31317C10.5085 8.11783 10.8245 8.11783 11.0199 8.31317ZM7.6465 7.68654C7.74383 7.78387 7.87185 7.83319 7.99985 7.83319C8.12785 7.83319 8.25587 7.78454 8.35321 7.68654L11.0199 5.01987C11.2152 4.82454 11.2152 4.50785 11.0199 4.31252C10.8245 4.11718 10.5078 4.11718 10.3125 4.31252L7.9992 6.62583L5.68589 4.31252C5.49055 4.11718 5.17386 4.11718 4.97853 4.31252C4.7832 4.50785 4.7832 4.82454 4.97853 5.01987L7.6465 7.68654Z" fill="#3B3B3E"/>
</svg>
