<svg width="16" height="16" viewBox="0 0 16 16" fill="none" xmlns="http://www.w3.org/2000/svg">
<path d="M13.6866 5.64667L9.68661 1.64667C9.59261 1.55267 9.46592 1.5 9.33325 1.5H5.33325C3.72125 1.5 2.83325 2.388 2.83325 4V12C2.83325 13.612 3.72125 14.5 5.33325 14.5H11.3333C12.9453 14.5 13.8333 13.612 13.8333 12V6C13.8333 5.86733 13.7806 5.74 13.6866 5.64667ZM9.83325 3.20734L12.1259 5.5H11.3333C10.2819 5.5 9.83325 5.05133 9.83325 4V3.20734ZM11.3333 13.5H5.33325C4.28192 13.5 3.83325 13.0513 3.83325 12V4C3.83325 2.94867 4.28192 2.5 5.33325 2.5H8.83325V4C8.83325 5.612 9.72125 6.5 11.3333 6.5H12.8333V12C12.8333 13.0513 12.3846 13.5 11.3333 13.5ZM10.5139 8.12667L9.47453 7.97867L9.02856 7.09333C8.8959 6.83 8.6286 6.66667 8.3326 6.66667C8.0366 6.66667 7.7693 6.83 7.63664 7.094L7.19051 7.97933L6.15129 8.12733C5.85995 8.16866 5.62457 8.36734 5.53524 8.64534C5.4459 8.922 5.522 9.218 5.73267 9.41867L6.4773 10.1293L6.30851 11.0947C6.25785 11.3847 6.37391 11.6727 6.61125 11.848C6.85191 12.0253 7.16655 12.0507 7.43188 11.9133L8.33195 11.4507L9.23267 11.9133C9.346 11.972 9.46858 12.0007 9.59058 12.0007C9.75391 12.0007 9.91532 11.9487 10.0527 11.848C10.29 11.6727 10.4066 11.3847 10.3552 11.0947L10.1866 10.1287L10.9312 9.418C11.1412 9.21733 11.218 8.92066 11.1287 8.64466C11.0413 8.36666 10.8052 8.168 10.5139 8.12667ZM9.40194 9.49666C9.2206 9.67066 9.13792 9.922 9.18058 10.17L9.29386 10.8193L8.68319 10.5053C8.57385 10.4487 8.45324 10.4207 8.3339 10.4207C8.21457 10.4207 8.0946 10.4487 7.98527 10.5047L7.37394 10.8187L7.48787 10.1687C7.52987 9.92134 7.44722 9.67 7.26522 9.496L6.79321 9.04533L7.45597 8.95066C7.70131 8.916 7.91458 8.764 8.02791 8.542L8.3339 7.93466L8.64119 8.544C8.75386 8.764 8.96666 8.91666 9.212 8.95066L9.87459 9.04533L9.40194 9.49666Z" fill="#3B3B3E"/>
</svg>
