<svg width="16" height="16" viewBox="0 0 16 16" fill="none" xmlns="http://www.w3.org/2000/svg">
<path d="M6.98482 9.01458C7.18016 9.20992 7.18016 9.52661 6.98482 9.72194L6.32271 10.3832C6.22538 10.4806 6.09686 10.5292 5.96952 10.5292C5.84152 10.5292 5.7135 10.4806 5.61617 10.3826C5.42084 10.1873 5.42084 9.87056 5.61617 9.67523L6.27812 9.01393C6.47345 8.81927 6.79016 8.81925 6.98482 9.01458ZM13.3488 7.77793L13.2482 7.87868C13.2422 7.88534 13.2402 7.894 13.2342 7.9C13.2282 7.906 13.2195 7.90866 13.2129 7.914L12.7268 8.39935C11.9868 9.14002 11.2335 9.49733 10.3942 9.49733C10.2895 9.49733 10.18 9.47855 10.0727 9.46722L4.82271 14.0092C4.44671 14.3352 3.97738 14.4959 3.51005 14.4959C2.99338 14.4959 2.47749 14.2992 2.08883 13.9106C1.34816 13.1692 1.30419 11.9679 1.99019 11.1759L6.52616 5.9332C6.4235 4.96054 6.76471 4.10791 7.60071 3.27191L8.22278 2.65C9.75678 1.11667 11.8174 1.11667 13.3494 2.65C14.1221 3.42267 14.5201 4.32989 14.5001 5.27256C14.4808 6.17856 14.0828 7.04393 13.3488 7.77793ZM9.18274 3.14186L12.8582 6.81732C13.2602 6.33198 13.4881 5.79854 13.5001 5.25254C13.5141 4.58854 13.2167 3.93334 12.642 3.35801C11.5794 2.29601 10.2807 2.23186 9.18274 3.14186ZM9.17818 8.91986L7.08085 6.82187L2.74687 11.8313C2.4022 12.2293 2.42485 12.8325 2.79618 13.2045C3.16885 13.5765 3.77141 13.598 4.16874 13.254L9.17818 8.91986ZM12.0195 7.69264L12.1694 7.54258L8.45683 3.83001L8.30676 3.97992C7.54476 4.74192 7.45674 5.34666 7.51607 5.84466L10.1541 8.48268C10.6528 8.54268 11.2582 8.45531 12.0195 7.69264Z" fill="#3B3B3E"/>
</svg>
