<svg width="16" height="16" viewBox="0 0 16 16" fill="none" xmlns="http://www.w3.org/2000/svg">
<path d="M13.6593 7.02433L12.6613 6.02498C12.6579 6.02165 12.6573 6.01701 12.6539 6.01367C12.6506 6.01034 12.646 6.00964 12.6426 6.00631L8.85998 2.21965C8.40398 1.76298 7.77194 1.50098 7.12594 1.50098H3.30131C2.30864 1.50098 1.50061 2.30965 1.50061 3.30298V7.13167C1.50061 7.78701 1.75596 8.403 2.21863 8.86633L6.00264 12.6543C6.00464 12.6563 6.00528 12.659 6.00728 12.661C6.00928 12.663 6.01196 12.6636 6.01396 12.6656L7.01933 13.6717C7.56866 14.2217 8.15196 14.501 8.7533 14.501C9.35396 14.501 9.93728 14.2217 10.4866 13.6717L13.6613 10.4943C14.7773 9.37501 14.7773 8.143 13.6593 7.02433ZM2.49996 7.13098V3.30233C2.49996 2.85966 2.85933 2.50033 3.30066 2.50033H7.12528C7.50728 2.50033 7.88198 2.65566 8.15198 2.92566L11.5913 6.36833L6.36129 11.5983L2.92525 8.15833C2.65459 7.88833 2.49996 7.51365 2.49996 7.13098ZM12.9526 9.78699L9.77795 12.9643C9.06729 13.6756 8.43597 13.6756 7.7253 12.9643L7.06799 12.3063L12.298 7.07633L12.9519 7.731C13.6813 8.461 13.6813 9.05632 12.9526 9.78699ZM5.33329 4.66699C5.33329 5.03499 5.03593 5.33366 4.66793 5.33366C4.30126 5.33366 3.99996 5.03499 3.99996 4.66699C3.99996 4.29899 4.29465 4.00033 4.66199 4.00033H4.66866C5.03599 4.00033 5.33329 4.29899 5.33329 4.66699Z" fill="#3B3B3E"/>
</svg>
