<svg width="16" height="16" viewBox="0 0 16 16" fill="none" xmlns="http://www.w3.org/2000/svg">
<path d="M10.6666 1.5H5.33325C3.72125 1.5 2.83325 2.388 2.83325 4V14C2.83325 14.1787 2.9286 14.3433 3.0826 14.432C3.15993 14.4773 3.24659 14.5 3.33325 14.5C3.41859 14.5 3.50463 14.478 3.5813 14.434L7.99992 11.9087L12.4185 14.4333C12.5739 14.522 12.7646 14.5213 12.9172 14.4313C13.0712 14.342 13.1666 14.1773 13.1666 13.9993V3.99935C13.1666 2.38802 12.2786 1.5 10.6666 1.5ZM12.1666 13.138L8.24797 10.8993C8.09463 10.8113 7.9052 10.8113 7.75187 10.8993L3.83325 13.1387V4C3.83325 2.94867 4.28192 2.5 5.33325 2.5H10.6666C11.7179 2.5 12.1666 2.94867 12.1666 4V13.138V13.138ZM10.0199 5.20199C10.2153 5.39732 10.2153 5.71401 10.0199 5.90934L7.79793 8.13135C7.7006 8.22868 7.57258 8.27799 7.44458 8.27799C7.31658 8.27799 7.18856 8.22935 7.09123 8.13135L5.9799 7.02002C5.78457 6.82535 5.78457 6.508 5.9799 6.31266C6.17523 6.11733 6.49192 6.11733 6.68726 6.31266L7.44523 7.06999L9.31388 5.20133C9.50855 5.00667 9.8246 5.00665 10.0199 5.20199Z" fill="#3B3B3E"/>
</svg>
