<svg width="16" height="16" viewBox="0 0 16 16" fill="none" xmlns="http://www.w3.org/2000/svg">
<path d="M11.6867 4.35288L5.20671 10.8329H8C8.276 10.8329 8.5 11.0569 8.5 11.3329C8.5 11.6089 8.276 11.8329 8 11.8329H4C3.93467 11.8329 3.86993 11.8195 3.80859 11.7941C3.68659 11.7435 3.5894 11.6463 3.53874 11.5243C3.5134 11.4629 3.5 11.3982 3.5 11.3329V7.33286C3.5 7.05686 3.724 6.83286 4 6.83286C4.276 6.83286 4.5 7.05686 4.5 7.33286V10.1255L10.98 3.64552C11.1753 3.45019 11.492 3.45019 11.6873 3.64552C11.8827 3.84086 11.882 4.15755 11.6867 4.35288Z" fill="#3B3B3E"/>
</svg>
