<svg width="16" height="16" viewBox="0 0 16 16" fill="none" xmlns="http://www.w3.org/2000/svg">
<path d="M7.99996 14.4993C7.61596 14.4993 7.232 14.3533 6.93933 14.0607L5.59265 12.7147C5.41732 12.54 5.1366 12.5207 4.9386 12.6687L4.03333 13.348C3.67733 13.6147 3.20864 13.6567 2.81197 13.458C2.41397 13.2593 2.16663 12.8593 2.16663 12.4147V4C2.16663 2.388 3.05463 1.5 4.66663 1.5H11.3333C12.9453 1.5 13.8333 2.388 13.8333 4V12.414C13.8333 12.8587 13.5859 13.2587 13.1879 13.4573C12.7913 13.656 12.3233 13.614 11.9666 13.3473L11.0606 12.6673C10.8633 12.5193 10.5826 12.5387 10.4073 12.714L9.06059 14.06C8.76792 14.3533 8.38396 14.4993 7.99996 14.4993ZM5.23726 11.5707C5.6246 11.5707 6.01059 11.7187 6.29993 12.0073L7.64661 13.354C7.83527 13.5427 8.16463 13.5427 8.35396 13.354L9.70064 12.008C10.2253 11.4833 11.0693 11.4247 11.6606 11.8687L12.5673 12.5487C12.6386 12.6033 12.7067 12.5813 12.742 12.5647C12.776 12.5473 12.8339 12.5053 12.8339 12.4153V4C12.8339 2.94867 12.3853 2.5 11.3339 2.5H4.66728C3.61594 2.5 3.16728 2.94867 3.16728 4V12.414C3.16728 12.504 3.22532 12.546 3.25932 12.5633C3.29465 12.5807 3.36129 12.602 3.43396 12.5473L4.33997 11.8673C4.6053 11.6687 4.92193 11.5707 5.23726 11.5707ZM9.52795 10.5C9.39529 10.5 9.26262 10.468 9.13928 10.404L7.99996 9.80933L6.86129 10.4033C6.57595 10.5527 6.2373 10.5267 5.97864 10.3373C5.71997 10.1487 5.59332 9.83534 5.64799 9.52067L5.86397 8.27L4.91459 7.35201C4.68992 7.13468 4.61 6.81534 4.70667 6.51801C4.80333 6.22001 5.05528 6.00733 5.36528 5.96267L6.68193 5.77334L7.24996 4.63133C7.39196 4.34533 7.67994 4.16667 8.00061 4.16667C8.32061 4.16667 8.60859 4.34466 8.75126 4.63133L9.3193 5.77334L10.6359 5.96267C10.9459 6.00733 11.1986 6.22001 11.2946 6.51801C11.3913 6.81534 11.3106 7.13468 11.0866 7.35201L10.1373 8.27L10.354 9.52199C10.408 9.83733 10.2813 10.15 10.0219 10.3387C9.87393 10.4453 9.70129 10.5 9.52795 10.5ZM7.99996 8.78666C8.12929 8.78666 8.25932 8.81733 8.37732 8.87933L9.30994 9.36601L9.13261 8.342C9.08728 8.076 9.17526 7.80601 9.36926 7.61867L10.1146 6.89799L9.07865 6.74866C8.81465 6.71066 8.58529 6.54534 8.46529 6.30601L7.99866 5.36733L7.53259 6.30467C7.41193 6.54467 7.18326 6.70999 6.91793 6.74866L5.88261 6.89799L6.62862 7.61932C6.82195 7.80599 6.91062 8.076 6.86462 8.34133L6.6873 9.36466L7.62 8.87866C7.74066 8.81733 7.87063 8.78666 7.99996 8.78666ZM10.066 8.33799C10.0653 8.33799 10.0653 8.33799 10.066 8.33799V8.33799ZM10.4913 6.95201H10.4987H10.4913ZM7.85461 5.07601C7.85461 5.07601 7.85527 5.07666 7.85527 5.07733L7.85461 5.07601Z" fill="#3B3B3E"/>
</svg>
