<svg width="16" height="16" viewBox="0 0 16 16" fill="none" xmlns="http://www.w3.org/2000/svg">
<path d="M13.3082 1.75134C12.9589 1.48667 12.4795 1.42867 11.9248 1.58467L8.83415 2.45267C8.04815 2.68067 7.50016 3.40744 7.50016 4.21944V9.52396C7.00483 9.0993 6.3695 8.83272 5.66683 8.83272C4.10416 8.83272 2.8335 10.1041 2.8335 11.6661C2.8335 13.2281 4.10416 14.4994 5.66683 14.4994C7.2295 14.4994 8.50016 13.2281 8.50016 11.6661V7.99939C8.50016 7.55805 8.75815 7.16275 9.10815 7.06075L12.7335 6.0474C13.4121 5.8594 13.8328 5.34009 13.8328 4.69209V3.02543C13.8335 2.44476 13.6562 2.016 13.3082 1.75134ZM5.66683 13.5C4.6555 13.5 3.8335 12.678 3.8335 11.6667C3.8335 10.6554 4.6555 9.83337 5.66683 9.83337C6.67816 9.83337 7.50016 10.6554 7.50016 11.6667C7.50016 12.678 6.67816 13.5 5.66683 13.5ZM12.8335 4.6934C12.8335 4.76473 12.8335 4.98332 12.4655 5.08532L8.83415 6.09997C8.71681 6.13397 8.6055 6.18001 8.50016 6.23734V4.22074C8.50016 3.84541 8.74614 3.52073 9.10881 3.4154L12.1955 2.5487C12.3095 2.5167 12.4149 2.50069 12.5022 2.50069C12.5909 2.50069 12.6608 2.51669 12.7042 2.54935C12.7868 2.61135 12.8335 2.78538 12.8335 3.02738V4.6934V4.6934Z" fill="#3B3B3E"/>
</svg>
