<svg width="16" height="16" viewBox="0 0 16 16" fill="none" xmlns="http://www.w3.org/2000/svg">
<path d="M11.3334 2.83333H11.1534C11.0887 1.99733 10.5474 1.5 9.66675 1.5H6.33341C5.45275 1.5 4.91143 1.99733 4.84676 2.83333H4.66675C3.05475 2.83333 2.16675 3.72133 2.16675 5.33333V12C2.16675 13.612 3.05475 14.5 4.66675 14.5H11.3334C12.9454 14.5 13.8334 13.612 13.8334 12V5.33333C13.8334 3.72133 12.9454 2.83333 11.3334 2.83333ZM5.83341 3C5.83341 2.60733 5.94075 2.5 6.33341 2.5H9.66675C10.0594 2.5 10.1667 2.60733 10.1667 3V3.66667C10.1667 4.05933 10.0594 4.16667 9.66675 4.16667H6.33341C5.94075 4.16667 5.83341 4.05933 5.83341 3.66667V3ZM12.8334 12C12.8334 13.0513 12.3847 13.5 11.3334 13.5H4.66675C3.61541 13.5 3.16675 13.0513 3.16675 12V5.33333C3.16675 4.282 3.61541 3.83333 4.66675 3.83333H4.84676C4.91143 4.66933 5.45275 5.16667 6.33341 5.16667H9.66675C10.5474 5.16667 11.0887 4.66933 11.1534 3.83333H11.3334C12.3847 3.83333 12.8334 4.282 12.8334 5.33333V12ZM10.1667 9C10.1667 9.276 9.94275 9.5 9.66675 9.5H8.50008V10.6667C8.50008 10.9427 8.27608 11.1667 8.00008 11.1667C7.72408 11.1667 7.50008 10.9427 7.50008 10.6667V9.5H6.33341C6.05741 9.5 5.83341 9.276 5.83341 9C5.83341 8.724 6.05741 8.5 6.33341 8.5H7.50008V7.33333C7.50008 7.05733 7.72408 6.83333 8.00008 6.83333C8.27608 6.83333 8.50008 7.05733 8.50008 7.33333V8.5H9.66675C9.94275 8.5 10.1667 8.724 10.1667 9Z" fill="#3B3B3E"/>
</svg>
