<svg width="16" height="16" viewBox="0 0 16 16" fill="none" xmlns="http://www.w3.org/2000/svg">
<path d="M14 6.83366C13.724 6.83366 13.5 7.05766 13.5 7.33366V8.79297L10.8267 6.12028C10.3867 5.67961 9.61334 5.67961 9.17334 6.12028L6 9.29297L5.49333 8.78695C5.05333 8.34628 4.28001 8.34628 3.84001 8.78695L2.5 10.127V4.66699C2.5 3.61566 2.94867 3.16699 4 3.16699H8.66667C8.94267 3.16699 9.16667 2.94299 9.16667 2.66699C9.16667 2.39099 8.94267 2.16699 8.66667 2.16699H4C2.388 2.16699 1.5 3.05499 1.5 4.66699V11.3337C1.5 12.9457 2.388 13.8337 4 13.8337H12C13.612 13.8337 14.5 12.9457 14.5 11.3337V7.33366C14.5 7.05766 14.276 6.83366 14 6.83366ZM12 12.8337H4C3.01867 12.8337 2.56798 12.4363 2.51131 11.529L4.54663 9.49365C4.6313 9.40965 4.7013 9.40965 4.78597 9.49365L5.41203 10.1196C5.72336 10.4316 6.27602 10.431 6.58602 10.1196L9.87931 6.82633C9.96398 6.74233 10.034 6.74233 10.1187 6.82633L13.4987 10.2064V11.3337C13.5 12.385 13.0513 12.8337 12 12.8337ZM5.33333 5.16699C5.79333 5.16699 6.16667 5.54033 6.16667 6.00033C6.16667 6.46033 5.79333 6.83366 5.33333 6.83366C4.87333 6.83366 4.5 6.46033 4.5 6.00033C4.5 5.54033 4.87333 5.16699 5.33333 5.16699ZM10.98 3.90967C10.7846 3.71433 10.7846 3.39764 10.98 3.20231C11.1753 3.00698 11.492 3.00698 11.6873 3.20231L12.2227 3.73763L13.6473 2.31364C13.8426 2.11831 14.1593 2.11831 14.3547 2.31364C14.55 2.50897 14.55 2.82566 14.3547 3.021L12.5767 4.79899C12.4793 4.89632 12.3513 4.94564 12.2233 4.94564C12.0953 4.94564 11.9674 4.89699 11.87 4.79899L10.98 3.90967Z" fill="#3B3B3E"/>
</svg>
