<svg width="16" height="16" viewBox="0 0 16 16" fill="none" xmlns="http://www.w3.org/2000/svg">
<path d="M9.16667 6.66667C9.16667 6.94267 8.94267 7.16667 8.66667 7.16667H7.33333C7.05733 7.16667 6.83333 6.94267 6.83333 6.66667C6.83333 6.39067 7.05733 6.16667 7.33333 6.16667H8.66667C8.94267 6.16667 9.16667 6.39067 9.16667 6.66667ZM14.5 9.33333V12C14.5 12.72 14.0527 13.1667 13.3333 13.1667H12.9574C12.61 14.0307 11.8307 14.5 10.6667 14.5H5.33333C4.16933 14.5 3.38931 14.0307 3.04264 13.1667H2.66667C1.94733 13.1667 1.5 12.72 1.5 12V9.33333C1.5 8.61333 1.94733 8.16667 2.66667 8.16667H2.83333V7.33333C2.83333 5.446 3.88733 4.08467 5.53467 3.65601C5.704 2.44067 6.73933 1.5 8 1.5C9.26067 1.5 10.296 2.44134 10.4653 3.65601C12.1133 4.08467 13.1667 5.446 13.1667 7.33333V8.16667H13.3333C14.0527 8.16667 14.5 8.61333 14.5 9.33333ZM6.59001 3.50667C6.61667 3.50667 6.64 3.5 6.66667 3.5H9.33333C9.36 3.5 9.38333 3.50601 9.40999 3.50667C9.20466 2.92267 8.65333 2.5 8 2.5C7.34667 2.5 6.79534 2.92267 6.59001 3.50667ZM2.84538 12.1667C2.84338 12.11 2.83333 12.0587 2.83333 12V9.16667H2.66667C2.56467 9.16667 2.52393 9.18464 2.5166 9.18864C2.51793 9.19064 2.5 9.23067 2.5 9.33333V12C2.5 12.1027 2.51797 12.1427 2.52197 12.15C2.52664 12.15 2.56733 12.1667 2.66667 12.1667H2.84538ZM10.1667 9.66667C10.1667 9.274 10.0593 9.16667 9.66667 9.16667H6.33333C5.94067 9.16667 5.83333 9.274 5.83333 9.66667V13.5H10.1667V9.66667ZM12.1667 12V7.33333C12.1667 5.612 11.0547 4.5 9.33333 4.5H6.66667C4.94533 4.5 3.83333 5.612 3.83333 7.33333V12C3.83333 12.8633 4.14267 13.3154 4.83333 13.4507V9.66667C4.83333 8.72733 5.394 8.16667 6.33333 8.16667H9.66667C10.606 8.16667 11.1667 8.72733 11.1667 9.66667V13.4507C11.8573 13.3154 12.1667 12.8633 12.1667 12ZM13.5 9.33333C13.5 9.23067 13.482 9.19068 13.478 9.18335C13.4734 9.18335 13.4327 9.16667 13.3333 9.16667H13.1667V12C13.1667 12.0587 13.1566 12.11 13.1546 12.1667H13.3333C13.4353 12.1667 13.4761 12.1487 13.4834 12.1447C13.4821 12.1427 13.5 12.1027 13.5 12V9.33333Z" fill="#3B3B3E"/>
</svg>
