<svg width="16" height="16" viewBox="0 0 16 16" fill="none" xmlns="http://www.w3.org/2000/svg">
<path d="M13.6866 5.64667L9.68661 1.64667C9.59261 1.55267 9.46592 1.5 9.33325 1.5H5.33325C3.72125 1.5 2.83325 2.388 2.83325 4V12C2.83325 13.612 3.72125 14.5 5.33325 14.5H11.3333C12.9453 14.5 13.8333 13.612 13.8333 12V6C13.8333 5.86733 13.7806 5.74 13.6866 5.64667ZM9.83325 3.20734L12.1259 5.5H11.3333C10.2819 5.5 9.83325 5.05133 9.83325 4V3.20734ZM11.3333 13.5H5.33325C4.28192 13.5 3.83325 13.0513 3.83325 12V4C3.83325 2.94867 4.28192 2.5 5.33325 2.5H8.83325V4C8.83325 5.612 9.72125 6.5 11.3333 6.5H12.8333V12C12.8333 13.0513 12.3846 13.5 11.3333 13.5ZM9.36727 7C9.36394 7 9.36131 7 9.35864 7C8.91798 7 8.57925 7.17067 8.33325 7.392C8.08725 7.17 7.74853 7 7.30786 7C7.30519 7 7.3019 7 7.29924 7C6.73924 7.00267 6.26918 7.216 5.94051 7.61733C5.55251 8.092 5.41064 8.778 5.5533 9.5C5.9033 11.2753 8.03866 12.2493 8.12866 12.29C8.194 12.3193 8.26325 12.3333 8.33325 12.3333C8.40325 12.3333 8.47251 12.3193 8.53784 12.29C8.62851 12.2493 10.7632 11.276 11.1125 9.5C11.2552 8.778 11.1146 8.092 10.7266 7.618C10.3986 7.216 9.9286 7.00267 9.36727 7ZM10.1319 9.306C9.93392 10.3087 8.80325 11.0173 8.33325 11.2727C7.86325 11.0173 6.73259 10.3087 6.53459 9.30667C6.45125 8.88534 6.51925 8.49 6.71525 8.25067C6.85258 8.08334 7.04526 8.00133 7.30526 8C7.30592 8 7.30653 8 7.30786 8C7.69386 8 7.8466 8.384 7.8606 8.422C7.9286 8.62333 8.11653 8.756 8.32853 8.75867C8.33053 8.75867 8.33254 8.75867 8.33521 8.75867C8.54387 8.75867 8.73326 8.62467 8.80526 8.428C8.82126 8.384 8.97394 8 9.35994 8C9.36128 8 9.36188 8 9.36255 8C9.62322 8.00133 9.81654 8.08334 9.95321 8.25067C10.1479 8.49 10.2146 8.88467 10.1319 9.306Z" fill="#3B3B3E"/>
</svg>
