<svg width="16" height="16" viewBox="0 0 16 16" fill="none" xmlns="http://www.w3.org/2000/svg">
<path d="M14.4646 8.67598C14.4646 8.67265 14.4666 8.67 14.4666 8.66667C14.4666 8.65733 14.4619 8.65 14.4613 8.64067C14.4539 8.59533 14.4439 8.55001 14.4339 8.50468C14.4293 8.49135 14.4279 8.47735 14.4226 8.46468C14.3953 8.34868 14.3672 8.23265 14.3232 8.11865L13.6313 6.40934C13.3253 5.63401 13.0086 4.83268 11.3126 4.83268H9.8326V3.66602C9.8326 2.83868 9.15927 2.16602 8.3326 2.16602H2.99927C2.1726 2.16602 1.49927 2.83868 1.49927 3.66602V10.9993C1.49927 11.776 2.09457 12.4087 2.85124 12.4847C2.84524 12.5453 2.8326 12.604 2.8326 12.666C2.8326 13.6767 3.6546 14.4993 4.66593 14.4993C5.67727 14.4993 6.49927 13.6767 6.49927 12.666C6.49927 12.6087 6.48725 12.5547 6.48258 12.4993H9.5166C9.51127 12.5547 9.49992 12.6087 9.49992 12.666C9.49992 13.6767 10.3219 14.4993 11.3333 14.4993C12.3446 14.4993 13.1666 13.6767 13.1666 12.666C13.1666 12.604 13.1546 12.5447 13.1479 12.4847C13.9046 12.4087 14.4999 11.776 14.4999 10.9993V9.05265C14.4999 8.92665 14.4833 8.80132 14.4646 8.67598ZM11.3132 5.83333C12.3286 5.83333 12.4233 6.07135 12.7033 6.78068L13.2639 8.16667H9.83325V5.83333H11.3132ZM4.66659 13.5C4.20725 13.5 3.83325 13.126 3.83325 12.6667C3.83325 12.2073 4.20725 11.8333 4.66659 11.8333C5.12592 11.8333 5.49992 12.2073 5.49992 12.6667C5.49992 13.126 5.12592 13.5 4.66659 13.5ZM11.3333 13.5C10.8739 13.5 10.4999 13.126 10.4999 12.6667C10.4999 12.2073 10.8739 11.8333 11.3333 11.8333C11.7926 11.8333 12.1666 12.2073 12.1666 12.6667C12.1666 13.126 11.7926 13.5 11.3333 13.5ZM12.9999 11.5H12.7359C12.3993 11.096 11.8993 10.8333 11.3333 10.8333C10.7673 10.8333 10.2672 11.096 9.93058 11.5H6.0686C5.73194 11.096 5.23193 10.8333 4.66593 10.8333C4.09993 10.8333 3.59993 11.096 3.26327 11.5H2.99927C2.72393 11.5 2.49927 11.276 2.49927 11V9.16667H6.66593C6.94193 9.16667 7.16593 8.94267 7.16593 8.66667C7.16593 8.39067 6.94193 8.16667 6.66593 8.16667H2.49927V3.66667C2.49927 3.39067 2.72393 3.16667 2.99927 3.16667H8.3326C8.60793 3.16667 8.8326 3.39067 8.8326 3.66667V9.16667H13.4993V11C13.4999 11.276 13.2753 11.5 12.9999 11.5Z" fill="#3B3B3E"/>
</svg>
