<svg width="16" height="16" viewBox="0 0 16 16" fill="none" xmlns="http://www.w3.org/2000/svg">
<path d="M11.7946 8.19141C11.7693 8.25274 11.7327 8.308 11.6867 8.354L8.35335 11.6873C8.25602 11.7847 8.128 11.834 8 11.834C7.872 11.834 7.74398 11.7853 7.64665 11.6873C7.45131 11.492 7.45131 11.1753 7.64665 10.98L10.1266 8.5L2 8.5C1.724 8.5 1.5 8.276 1.5 8C1.5 7.724 1.724 7.5 2 7.5L10.126 7.5L7.646 5.02002C7.45066 4.82469 7.45066 4.508 7.646 4.31266C7.84133 4.11733 8.15802 4.11733 8.35335 4.31266L11.6867 7.646C11.7327 7.692 11.7693 7.74726 11.7946 7.80859C11.8453 7.93126 11.8453 8.06874 11.7946 8.19141ZM14 3.5C13.724 3.5 13.5 3.724 13.5 4L13.5 12C13.5 12.276 13.724 12.5 14 12.5C14.276 12.5 14.5 12.276 14.5 12L14.5 4C14.5 3.724 14.276 3.5 14 3.5Z" fill="#3B3B3E"/>
</svg>
