<svg width="16" height="16" viewBox="0 0 16 16" fill="none" xmlns="http://www.w3.org/2000/svg">
<path d="M11.75 1.5H4.25C2.47667 1.5 1.5 2.47667 1.5 4.25V11.75C1.5 13.5233 2.47667 14.5 4.25 14.5H11.75C13.5233 14.5 14.5 13.5233 14.5 11.75V4.25C14.5 2.47667 13.5233 1.5 11.75 1.5ZM13.5 11.75C13.5 12.9767 12.9767 13.5 11.75 13.5H4.25C3.02333 13.5 2.5 12.9767 2.5 11.75V4.25C2.5 3.02333 3.02333 2.5 4.25 2.5H11.75C12.9767 2.5 13.5 3.02333 13.5 4.25V11.75ZM10.3534 5.64665C10.5487 5.84198 10.5487 6.15867 10.3534 6.354L7.20671 9.50065H8.66667C8.94267 9.50065 9.16667 9.72465 9.16667 10.0007C9.16667 10.2767 8.94267 10.5007 8.66667 10.5007H6C5.93467 10.5007 5.86993 10.4874 5.80859 10.4621C5.68659 10.4114 5.5894 10.3141 5.53874 10.1921C5.5134 10.1307 5.5 10.066 5.5 10.0007V7.33398C5.5 7.05798 5.724 6.83398 6 6.83398C6.276 6.83398 6.5 7.05798 6.5 7.33398V8.79329L9.64665 5.64665C9.84198 5.45131 10.158 5.45131 10.3534 5.64665Z" fill="#3B3B3E"/>
</svg>
