<svg width="16" height="16" viewBox="0 0 16 16" fill="none" xmlns="http://www.w3.org/2000/svg">
<path d="M14.5 7.99985V9.99985C14.5 11.3785 13.378 12.4999 12 12.4999H3.20736L4.354 13.6465C4.54934 13.8418 4.54934 14.1585 4.354 14.3539C4.25667 14.4512 4.12865 14.5005 4.00065 14.5005C3.87265 14.5005 3.74463 14.4519 3.6473 14.3539L1.6473 12.3539C1.6013 12.3079 1.56472 12.2526 1.53939 12.1913C1.48872 12.0693 1.48872 11.9313 1.53939 11.8093C1.56472 11.7479 1.6013 11.6925 1.6473 11.6465L3.6473 9.6465C3.84263 9.45117 4.15932 9.45117 4.35466 9.6465C4.54999 9.84183 4.54999 10.1585 4.35466 10.3539L3.20801 11.5005H12C12.8267 11.5005 13.5 10.8278 13.5 10.0005V8.0005C13.5 7.7245 13.724 7.5005 14 7.5005C14.276 7.5005 14.5 7.72385 14.5 7.99985ZM2 8.49985C2.276 8.49985 2.5 8.27585 2.5 7.99985V5.99985C2.5 5.17252 3.17333 4.49985 4 4.49985H12.7926L11.646 5.6465C11.4507 5.84183 11.4507 6.15852 11.646 6.35386C11.7433 6.45119 11.8713 6.5005 11.9993 6.5005C12.1273 6.5005 12.2554 6.45186 12.3527 6.35386L14.3527 4.35386C14.3987 4.30786 14.4353 4.25259 14.4606 4.19126C14.5113 4.06926 14.5113 3.93126 14.4606 3.80926C14.4353 3.74793 14.3987 3.6925 14.3527 3.6465L12.3527 1.6465C12.1574 1.45117 11.8407 1.45117 11.6453 1.6465C11.45 1.84183 11.45 2.15852 11.6453 2.35386L12.792 3.5005H4C2.622 3.5005 1.5 4.62184 1.5 6.0005V8.0005C1.5 8.27584 1.724 8.49985 2 8.49985Z" fill="#3B3B3E"/>
</svg>
