<svg width="16" height="16" viewBox="0 0 16 16" fill="none" xmlns="http://www.w3.org/2000/svg">
<path d="M14.4332 7.68006C14.3466 7.47339 14.1866 7.32006 13.9332 7.21339L12.2066 6.72006C10.8066 6.32672 9.68657 5.21339 9.29323 3.81339L8.79991 2.09339C8.71991 1.82005 8.51322 1.61339 8.23989 1.53339C8.02656 1.47339 7.80656 1.50006 7.61989 1.60672C7.42656 1.71339 7.29322 1.88672 7.23322 2.09339L6.73989 3.81339C6.34656 5.21339 5.22655 6.32672 3.81989 6.72006L2.09324 7.21339C1.81991 7.28673 1.60656 7.50672 1.53322 7.77339C1.41322 8.20672 1.65991 8.66005 2.09324 8.78005L3.81989 9.27339C5.21989 9.66672 6.33988 10.7801 6.73322 12.1801L7.22658 13.9001C7.32658 14.2467 7.64657 14.4934 8.00657 14.4934C8.36657 14.4934 8.68657 14.2534 8.79323 13.9001L9.28656 12.1734C9.67989 10.7734 10.7999 9.66005 12.2066 9.26005L13.9799 8.75339C14.1865 8.67339 14.3532 8.50672 14.4332 8.30005C14.5199 8.09338 14.5132 7.86672 14.4332 7.66672V7.68006ZM11.9332 8.31339C10.1999 8.80005 8.81989 10.1801 8.32656 11.9134L8.01324 13.0201L7.69322 11.9134C7.19988 10.1801 5.8199 8.80005 4.08657 8.31339L2.97988 8.00005L4.08657 7.68672C5.8199 7.20005 7.19988 5.82006 7.69322 4.08672L8.01324 2.98005L8.32656 4.08672C8.81989 5.82006 10.1999 7.20005 11.9332 7.68672L13.0399 8.00005L11.9332 8.31339ZM5.59324 12.1601C5.61324 12.2134 5.59323 12.2667 5.5399 12.2867L5.01992 12.4334C4.54658 12.5667 4.17323 12.9334 4.0399 13.4067L3.89325 13.9267C3.89325 13.9267 3.85989 13.98 3.82656 13.9934C3.77323 14.0067 3.7199 13.9801 3.70656 13.9267L3.55992 13.4067C3.42658 12.9334 3.05323 12.5667 2.57989 12.4334L2.05992 12.2867C2.05992 12.2867 2.00656 12.2534 1.99322 12.2201C1.97989 12.1667 2.00658 12.12 2.05992 12.1L2.57989 11.9534C3.05323 11.82 3.42658 11.4534 3.55992 10.9801L3.70656 10.4601C3.70656 10.4601 3.73988 10.4067 3.77321 10.3934C3.82655 10.3801 3.87992 10.4067 3.89325 10.4601L4.0399 10.9801C4.17323 11.4534 4.54658 11.82 5.01992 11.9534L5.5399 12.1C5.5399 12.1 5.57991 12.1267 5.59324 12.1534V12.1601ZM11.6465 3.25339C11.6465 3.25339 11.6132 3.23339 11.6065 3.21339C11.5999 3.18006 11.6132 3.14672 11.6465 3.13339L11.9932 3.03339C12.3066 2.94672 12.5532 2.70005 12.6465 2.38672L12.7466 2.04005C12.7466 2.04005 12.7666 2.00672 12.7866 2.00005C12.8199 1.99339 12.8532 2.00672 12.8666 2.04005L12.9666 2.38672C13.0532 2.70005 13.2999 2.94672 13.6199 3.03339L13.9666 3.13339C13.9666 3.13339 13.9932 3.15339 13.9999 3.16672C14.0132 3.20005 13.9999 3.24006 13.9666 3.25339L13.6199 3.35339C13.3066 3.44005 13.0599 3.68672 12.9666 4.00005L12.8666 4.34672C12.8666 4.34672 12.8466 4.38006 12.8266 4.38672C12.7932 4.39339 12.7599 4.38006 12.7466 4.34672L12.6465 4.00005C12.5599 3.68672 12.3132 3.44005 11.9932 3.35339L11.6465 3.25339Z" fill="#3B3B3E"/>
</svg>
