<svg width="16" height="16" viewBox="0 0 16 16" fill="none" xmlns="http://www.w3.org/2000/svg">
<path d="M12.8105 5.83636C13.0352 6.04903 13.1658 6.34903 13.1705 6.65903C13.1745 6.97103 13.0532 7.26703 12.8272 7.49236L5.96051 14.3524C5.86384 14.449 5.73583 14.499 5.6065 14.499C5.51517 14.499 5.42385 14.4744 5.34185 14.423C5.14452 14.2997 5.05851 14.0564 5.13385 13.8364L5.62717 12.403C5.71717 12.1424 6.00117 12.003 6.26251 12.093C6.39384 12.1384 6.49451 12.233 6.55051 12.3497L12.1198 6.7857C12.1545 6.75103 12.1712 6.71436 12.1705 6.67236C12.1698 6.63103 12.1525 6.58969 12.1232 6.56236C11.9225 6.37236 11.9139 6.0557 12.1039 5.85503C12.2932 5.65503 12.6099 5.64703 12.8105 5.83636ZM14.3532 2.35303L2.35321 14.353C2.25587 14.4504 2.12785 14.4997 1.99985 14.4997C1.87185 14.4997 1.74383 14.451 1.6465 14.353C1.45117 14.1577 1.45117 13.841 1.6465 13.6457L6.79319 8.49902H5.33319C4.95719 8.49902 4.61386 8.3237 4.39186 8.01903C4.17119 7.7157 4.10852 7.32236 4.22385 6.96503L5.9745 2.50303C6.16917 1.89503 6.69385 1.49902 7.33319 1.49902H10.3198C10.7118 1.49902 11.0752 1.69436 11.2918 2.0217C11.5098 2.35103 11.5479 2.76436 11.3939 3.1277L10.8045 4.48769L13.6465 1.64569C13.8418 1.45036 14.1585 1.45036 14.3539 1.64569C14.5492 1.84102 14.5485 2.15769 14.3532 2.35303ZM7.66786 7.62503L9.31585 5.97703C9.24385 5.78636 9.24452 5.57637 9.32786 5.38237L10.4752 2.73369C10.5052 2.66303 10.4772 2.60302 10.4585 2.57369C10.4405 2.54569 10.3979 2.49902 10.3205 2.49902H7.33319C7.07852 2.49902 6.96587 2.6837 6.91587 2.83903L5.16518 7.3017C5.15118 7.34703 5.18054 7.40369 5.20054 7.43036C5.2192 7.45569 5.26119 7.49902 5.33319 7.49902H7.24652C7.39785 7.49969 7.54186 7.54703 7.66786 7.62503Z" fill="#3B3B3E"/>
</svg>
