<svg width="16" height="16" viewBox="0 0 16 16" fill="none" xmlns="http://www.w3.org/2000/svg">
<path d="M9.16351 13.898C9.19684 14.172 9.00214 14.4213 8.72747 14.4547C7.5808 14.5933 6.35144 14.3947 5.28411 13.898C5.11878 13.8193 4.91278 13.8133 4.70078 13.8813L3.04143 14.4387C2.91877 14.4793 2.79402 14.4993 2.67002 14.4993C2.36535 14.4993 2.06947 14.3793 1.84547 14.1553C1.52947 13.84 1.4208 13.382 1.5608 12.9607L2.12135 11.2933C2.18668 11.0887 2.18076 10.8833 2.1041 10.7213C1.70943 9.87265 1.5027 8.93268 1.5027 7.99935C1.5027 4.41602 4.41806 1.5 8.0014 1.5C11.5854 1.5 14.5007 4.41535 14.5007 7.99935C14.5007 8.24668 14.4868 8.48599 14.4575 8.72599C14.4241 8.99999 14.1748 9.19332 13.9008 9.16199C13.6268 9.12865 13.4314 8.87935 13.4654 8.60535C13.4894 8.40535 13.5014 8.20535 13.5014 7.99935C13.5014 4.96735 11.0347 2.5 8.00205 2.5C4.97005 2.5 2.50335 4.96668 2.50335 7.99935C2.50335 8.78802 2.67869 9.582 3.01002 10.2953C3.19402 10.6827 3.21817 11.1487 3.0735 11.604L2.51084 13.278C2.48284 13.3613 2.52548 13.4206 2.55348 13.4486C2.58148 13.4766 2.64137 13.5193 2.7247 13.4913L4.39007 12.932C4.85273 12.7847 5.32004 12.8073 5.71071 12.9947C6.60537 13.41 7.64148 13.58 8.60882 13.4626C8.87948 13.43 9.13017 13.624 9.16351 13.898ZM14.3534 10.98C14.1581 10.7846 13.8414 10.7846 13.6461 10.98L12.6661 11.96L11.6861 10.98C11.4908 10.7846 11.1741 10.7846 10.9788 10.98C10.7834 11.1753 10.7834 11.492 10.9788 11.6873L11.9588 12.6673L10.9788 13.6473C10.7834 13.8427 10.7834 14.1593 10.9788 14.3547C11.0761 14.452 11.2041 14.5013 11.3321 14.5013C11.4601 14.5013 11.5881 14.4527 11.6855 14.3547L12.6655 13.3747L13.6454 14.3547C13.7428 14.452 13.8708 14.5013 13.9988 14.5013C14.1268 14.5013 14.2548 14.4527 14.3521 14.3547C14.5475 14.1593 14.5475 13.8427 14.3521 13.6473L13.3722 12.6673L14.3521 11.6873C14.5488 11.492 14.5488 11.1746 14.3534 10.98ZM11.1668 6.66667C11.1668 6.39067 10.9428 6.16667 10.6668 6.16667H5.33343C5.05743 6.16667 4.83343 6.39067 4.83343 6.66667C4.83343 6.94267 5.05743 7.16667 5.33343 7.16667H10.6668C10.9428 7.16667 11.1668 6.94267 11.1668 6.66667ZM8.66676 8.83333H5.33343C5.05743 8.83333 4.83343 9.05733 4.83343 9.33333C4.83343 9.60933 5.05743 9.83333 5.33343 9.83333H8.66676C8.94276 9.83333 9.16676 9.60933 9.16676 9.33333C9.16676 9.05733 8.94276 8.83333 8.66676 8.83333Z" fill="#3B3B3E"/>
</svg>
