<svg width="16" height="16" viewBox="0 0 16 16" fill="none" xmlns="http://www.w3.org/2000/svg">
<path d="M8.00008 1.5C5.88675 1.5 4.16675 3.22 4.16675 5.33333V9.66667C4.16675 10.4933 4.84008 11.1667 5.66675 11.1667H7.50008V14C7.50008 14.2733 7.72675 14.5 8.00008 14.5C8.27341 14.5 8.50008 14.2733 8.50008 14V11.1667H10.3334C11.1601 11.1667 11.8334 10.4933 11.8334 9.66667V5.33333C11.8334 3.22 10.1134 1.5 8.00008 1.5ZM10.8334 9.66667C10.8334 9.94 10.6067 10.1667 10.3334 10.1667H5.66675C5.39341 10.1667 5.16675 9.94 5.16675 9.66667V5.33333C5.16675 3.77333 6.44008 2.5 8.00008 2.5C9.56008 2.5 10.8334 3.77333 10.8334 5.33333V9.66667ZM9.50008 4.66667V8.66667C9.50008 8.94 9.27341 9.16667 9.00008 9.16667C8.72675 9.16667 8.50008 8.94 8.50008 8.66667V4.66667C8.50008 4.39333 8.72675 4.16667 9.00008 4.16667C9.27341 4.16667 9.50008 4.39333 9.50008 4.66667ZM7.50008 4.66667V8.66667C7.50008 8.94 7.27341 9.16667 7.00008 9.16667C6.72675 9.16667 6.50008 8.94 6.50008 8.66667V4.66667C6.50008 4.39333 6.72675 4.16667 7.00008 4.16667C7.27341 4.16667 7.50008 4.39333 7.50008 4.66667Z" fill="#3B3B3E"/>
</svg>
