<svg width="16" height="16" viewBox="0 0 16 16" fill="none" xmlns="http://www.w3.org/2000/svg">
<path d="M12 2.5H11.1667V2C11.1667 1.724 10.9427 1.5 10.6667 1.5C10.3907 1.5 10.1667 1.724 10.1667 2V2.5H5.83333V2C5.83333 1.724 5.60933 1.5 5.33333 1.5C5.05733 1.5 4.83333 1.724 4.83333 2V2.5H4C2.388 2.5 1.5 3.388 1.5 5V12C1.5 13.612 2.388 14.5 4 14.5H12C13.612 14.5 14.5 13.612 14.5 12V5C14.5 3.388 13.612 2.5 12 2.5ZM4 3.5H4.83333V4C4.83333 4.276 5.05733 4.5 5.33333 4.5C5.60933 4.5 5.83333 4.276 5.83333 4V3.5H10.1667V4C10.1667 4.276 10.3907 4.5 10.6667 4.5C10.9427 4.5 11.1667 4.276 11.1667 4V3.5H12C13.0513 3.5 13.5 3.94867 13.5 5V5.5H2.5V5C2.5 3.94867 2.94867 3.5 4 3.5ZM12 13.5H4C2.94867 13.5 2.5 13.0513 2.5 12V6.5H13.5V12C13.5 13.0513 13.0513 13.5 12 13.5ZM9.68669 9.02002L8.70671 10L9.68669 10.98C9.88202 11.1753 9.88202 11.492 9.68669 11.6873C9.58935 11.7847 9.46133 11.834 9.33333 11.834C9.20533 11.834 9.07731 11.7853 8.97998 11.6873L8 10.7074L7.02002 11.6873C6.92269 11.7847 6.79467 11.834 6.66667 11.834C6.53867 11.834 6.41065 11.7853 6.31331 11.6873C6.11798 11.492 6.11798 11.1753 6.31331 10.98L7.29329 10L6.31331 9.02002C6.11798 8.82469 6.11798 8.508 6.31331 8.31266C6.50865 8.11733 6.82534 8.11733 7.02067 8.31266L8.00065 9.29264L8.98063 8.31266C9.17597 8.11733 9.49266 8.11733 9.68799 8.31266C9.88332 8.508 9.88202 8.82469 9.68669 9.02002Z" fill="#3B3B3E"/>
</svg>
