<svg width="16" height="16" viewBox="0 0 16 16" fill="none" xmlns="http://www.w3.org/2000/svg">
<path d="M14.0669 1.93332C13.6069 1.47332 12.6135 1.13999 10.5202 2.21999C9.05351 2.97332 7.38018 4.25333 5.82018 5.81333C4.26018 7.37333 2.98018 9.04665 2.22685 10.5133C1.14685 12.6067 1.47352 13.6 1.94018 14.06C2.17352 14.2933 2.54685 14.4933 3.12685 14.4933C3.70685 14.4933 4.46018 14.3067 5.49352 13.7733C6.96019 13.02 8.63351 11.74 10.1935 10.18C11.7535 8.61999 13.0335 6.94666 13.7868 5.48C14.8668 3.38666 14.5402 2.39332 14.0735 1.93332H14.0669ZM12.8869 5.02667C12.1735 6.40667 10.9669 7.98666 9.47352 9.48C6.20019 12.7533 3.24019 13.9667 2.64019 13.36C2.40685 13.1267 2.39351 12.3667 3.11351 10.9733C3.46685 10.2867 3.94018 9.55332 4.51352 8.80666L6.32018 9.34665C6.36685 9.35999 6.41351 9.36665 6.46685 9.36665C6.68018 9.36665 6.88018 9.22665 6.94685 9.01332C7.02685 8.74665 6.87351 8.47333 6.61351 8.39333L5.20018 7.96667C5.40018 7.73334 5.60685 7.49999 5.82018 7.26666L7.80685 7.86665C7.85352 7.87999 7.90018 7.88665 7.95351 7.88665C8.16684 7.88665 8.36684 7.74665 8.43351 7.53332C8.51351 7.26665 8.36018 6.99333 8.10018 6.91333L6.60018 6.46667C6.86018 6.21334 7.11352 5.97332 7.36685 5.73999L9.35351 6.33333C9.40018 6.34666 9.44685 6.35333 9.49352 6.35333C9.70685 6.35333 9.90685 6.21332 9.97352 5.99332C10.0535 5.72666 9.90019 5.45333 9.64019 5.37333L8.26684 4.96667C10.2935 3.30667 12.0268 2.5 12.8935 2.5C13.1068 2.5 13.2735 2.54666 13.3735 2.64666C13.6068 2.88 13.6202 3.63999 12.9002 5.03332L12.8869 5.02667Z" fill="#3B3B3E"/>
</svg>
