<svg width="16" height="16" viewBox="0 0 16 16" fill="none" xmlns="http://www.w3.org/2000/svg">
<path d="M2.57145 14.5003C2.47479 14.5003 2.3809 14.499 2.2889 14.4957C1.95557 14.4877 1.66348 14.2743 1.54948 13.9523C1.43481 13.6283 1.52955 13.2757 1.78955 13.0544C2.41088 12.553 2.65944 11.9983 2.75944 11.6177C1.93477 10.6317 1.49951 9.38698 1.49951 8.00098C1.49951 4.56564 4.17285 2.16699 7.99951 2.16699C11.8262 2.16699 14.4995 4.56631 14.4995 8.00098C14.4995 8.25364 14.4849 8.49899 14.4562 8.72965C14.4216 9.00365 14.1681 9.19566 13.8981 9.16366C13.6241 9.12966 13.4295 8.87963 13.4642 8.60563C13.4882 8.4123 13.5002 8.20631 13.5002 8.00098C13.5002 5.15431 11.2382 3.16699 8.00016 3.16699C4.76216 3.16699 2.50016 5.15498 2.50016 8.00098C2.50016 9.22498 2.90348 10.309 3.66748 11.1357C3.77081 11.2477 3.81811 11.401 3.79411 11.5523C3.68211 12.2663 3.33023 12.9417 2.7889 13.4957C3.56223 13.4677 4.60219 13.2897 5.24219 12.607C5.37619 12.463 5.58352 12.4117 5.77018 12.4763C6.46018 12.715 7.21016 12.8357 8.00016 12.8357C8.27616 12.8357 8.50016 13.0597 8.50016 13.3357C8.50016 13.6117 8.27616 13.8357 8.00016 13.8357C7.20883 13.8357 6.45013 13.7284 5.73747 13.5164C4.82813 14.307 3.57612 14.5003 2.57145 14.5003ZM2.31885 13.4957C2.32018 13.4957 2.32142 13.4957 2.32275 13.4957C2.32075 13.4964 2.31951 13.4964 2.31885 13.4957ZM12.1315 13.687L14.3535 11.465C14.5488 11.2697 14.5488 10.953 14.3535 10.7576C14.1582 10.5623 13.8415 10.5623 13.6462 10.7576L11.7775 12.6263L11.0195 11.869C10.8242 11.6736 10.5075 11.6736 10.3122 11.869C10.1168 12.0643 10.1168 12.381 10.3122 12.5763L11.4235 13.6877C11.5208 13.785 11.6489 13.8343 11.7769 13.8343C11.9049 13.8343 12.0342 13.785 12.1315 13.687Z" fill="#3B3B3E"/>
</svg>
