<svg width="16" height="16" viewBox="0 0 16 16" fill="none" xmlns="http://www.w3.org/2000/svg">
<path d="M13.334 6.09752L11.1667 5.60158V4.53892C11.1667 3.83626 10.6887 3.2355 10.004 3.0775L3.33732 1.53892C2.88932 1.43559 2.42665 1.54018 2.06665 1.82685C1.70665 2.11351 1.5 2.54084 1.5 3.00084V12.6675C1.5 13.8328 2.168 14.5008 3.33333 14.5008H12.6667C13.832 14.5008 14.5 13.8328 14.5 12.6675V7.56024C14.5 6.85624 14.0207 6.25418 13.334 6.09752ZM2.5 12.6669V3.00018C2.5 2.84685 2.56931 2.70424 2.68864 2.60891C2.77864 2.53758 2.88736 2.50018 2.9987 2.50018C3.0367 2.50018 3.07465 2.5042 3.11198 2.51353L9.77865 4.05211C10.0073 4.10477 10.1667 4.30492 10.1667 4.53892V6.00019V13.5002H8.16667V11.3335C8.16667 10.3222 7.34467 9.50019 6.33333 9.50019C5.322 9.50019 4.5 10.3222 4.5 11.3335V13.5002H3.33333C2.718 13.5002 2.5 13.2822 2.5 12.6669ZM7.16667 13.5002H5.5V11.3335C5.5 10.8742 5.874 10.5002 6.33333 10.5002C6.79267 10.5002 7.16667 10.8742 7.16667 11.3335V13.5002ZM13.5 12.6669C13.5 13.2822 13.282 13.5002 12.6667 13.5002H11.1667V6.62746L13.1113 7.07213C13.34 7.12479 13.5 7.32493 13.5 7.55959V12.6669ZM6.83333 6.00019C6.83333 5.72419 7.05733 5.50019 7.33333 5.50019H8C8.276 5.50019 8.5 5.72419 8.5 6.00019C8.5 6.27619 8.276 6.50019 8 6.50019H7.33333C7.05733 6.50019 6.83333 6.27619 6.83333 6.00019ZM4.16667 6.00019C4.16667 5.72419 4.39067 5.50019 4.66667 5.50019H5.33333C5.60933 5.50019 5.83333 5.72419 5.83333 6.00019C5.83333 6.27619 5.60933 6.50019 5.33333 6.50019H4.66667C4.39067 6.50019 4.16667 6.27619 4.16667 6.00019ZM6.83333 8.00019C6.83333 7.72419 7.05733 7.50019 7.33333 7.50019H8C8.276 7.50019 8.5 7.72419 8.5 8.00019C8.5 8.27619 8.276 8.50019 8 8.50019H7.33333C7.05733 8.50019 6.83333 8.27619 6.83333 8.00019ZM4.16667 8.00019C4.16667 7.72419 4.39067 7.50019 4.66667 7.50019H5.33333C5.60933 7.50019 5.83333 7.72419 5.83333 8.00019C5.83333 8.27619 5.60933 8.50019 5.33333 8.50019H4.66667C4.39067 8.50019 4.16667 8.27619 4.16667 8.00019Z" fill="#3B3B3E"/>
</svg>
