<svg width="16" height="16" viewBox="0 0 16 16" fill="none" xmlns="http://www.w3.org/2000/svg">
<path d="M14 5.83333C13.724 5.83333 13.5 5.60933 13.5 5.33333V3C13.5 2.60733 13.3927 2.5 13 2.5H10.6667C10.3907 2.5 10.1667 2.276 10.1667 2C10.1667 1.724 10.3907 1.5 10.6667 1.5H13C13.9393 1.5 14.5 2.06067 14.5 3V5.33333C14.5 5.60933 14.276 5.83333 14 5.83333ZM2.5 5.33333V3C2.5 2.60733 2.60733 2.5 3 2.5H5.33333C5.60933 2.5 5.83333 2.276 5.83333 2C5.83333 1.724 5.60933 1.5 5.33333 1.5H3C2.06067 1.5 1.5 2.06067 1.5 3V5.33333C1.5 5.60933 1.724 5.83333 2 5.83333C2.276 5.83333 2.5 5.60933 2.5 5.33333ZM5.83333 14C5.83333 13.724 5.60933 13.5 5.33333 13.5H3C2.60733 13.5 2.5 13.3927 2.5 13V10.6667C2.5 10.3907 2.276 10.1667 2 10.1667C1.724 10.1667 1.5 10.3907 1.5 10.6667V13C1.5 13.9393 2.06067 14.5 3 14.5H5.33333C5.60933 14.5 5.83333 14.276 5.83333 14ZM14.5 13V10.6667C14.5 10.3907 14.276 10.1667 14 10.1667C13.724 10.1667 13.5 10.3907 13.5 10.6667V13C13.5 13.3927 13.3927 13.5 13 13.5H10.6667C10.3907 13.5 10.1667 13.724 10.1667 14C10.1667 14.276 10.3907 14.5 10.6667 14.5H13C13.9393 14.5 14.5 13.9393 14.5 13ZM10.06 5.55534C10.06 4.42201 9.13732 3.5 8.00399 3.5C6.87065 3.5 5.94865 4.42201 5.94865 5.55534C5.94865 6.68867 6.87065 7.61068 8.00399 7.61068C9.13732 7.61068 10.06 6.68934 10.06 5.55534ZM9.05998 5.55534C9.05998 6.13734 8.58599 6.61068 8.00399 6.61068C7.42199 6.61068 6.94865 6.13734 6.94865 5.55534C6.94865 4.97334 7.42199 4.5 8.00399 4.5C8.58599 4.5 9.05998 4.97334 9.05998 5.55534ZM11.6113 10.6746C11.6113 9.41531 10.8987 7.94401 8.88867 7.94401H7.11133C5.10133 7.94401 4.38867 9.41531 4.38867 10.6746C4.38867 11.8346 5.05731 12.5 6.22331 12.5H9.77669C10.9427 12.5 11.6113 11.8346 11.6113 10.6746ZM8.88867 8.94466C10.4433 8.94466 10.6113 10.1546 10.6113 10.6753C10.6113 11.2846 10.3934 11.5007 9.77669 11.5007H6.22331C5.60664 11.5007 5.38867 11.2846 5.38867 10.6753C5.38867 10.1553 5.55666 8.94466 7.11133 8.94466H8.88867Z" fill="#3B3B3E"/>
</svg>
