<svg width="16" height="16" viewBox="0 0 16 16" fill="none" xmlns="http://www.w3.org/2000/svg">
<path d="M5.16667 8.66645C5.16667 9.86112 6.13867 10.8331 7.33333 10.8331C8.32333 10.8331 9.18532 10.1657 9.42932 9.20975C9.49732 8.94175 9.774 8.78042 10.0367 8.84842C10.3047 8.91709 10.4667 9.18916 10.398 9.45649C10.042 10.8558 8.78133 11.8331 7.33333 11.8331C5.58733 11.8331 4.16667 10.4125 4.16667 8.66645C4.16667 7.21779 5.144 5.95784 6.54334 5.60184C6.808 5.53517 7.08334 5.69517 7.15068 5.96317C7.21934 6.2305 7.05668 6.50308 6.78935 6.57108C5.83401 6.81374 5.16667 7.67579 5.16667 8.66645ZM12.59 7.80985C12.316 7.84118 12.1187 8.0884 12.15 8.36307C12.162 8.4644 12.1667 8.56512 12.1667 8.66645C12.1667 11.3318 9.99867 13.4998 7.33333 13.4998C4.668 13.4998 2.5 11.3318 2.5 8.66645C2.5 6.00112 4.668 3.83312 7.33333 3.83312C7.43467 3.83312 7.53665 3.83839 7.63798 3.84972C7.91931 3.87972 8.15998 3.68249 8.18998 3.40783C8.22065 3.13316 8.02332 2.88576 7.74866 2.85509C7.61066 2.83976 7.47133 2.83247 7.33333 2.83247C4.11667 2.83247 1.5 5.44914 1.5 8.6658C1.5 11.8825 4.11667 14.4991 7.33333 14.4991C10.55 14.4991 13.1667 11.8825 13.1667 8.6658C13.1667 8.52714 13.1587 8.3878 13.1434 8.24914C13.112 7.97514 12.87 7.77918 12.59 7.80985ZM14.3534 5.01981L12.646 6.72716C12.3667 7.0065 11.98 7.16645 11.5853 7.16645H9.54L7.68669 9.01981C7.58935 9.11714 7.46133 9.16645 7.33333 9.16645C7.20533 9.16645 7.07731 9.11781 6.97998 9.01981C6.78465 8.82447 6.78465 8.50778 6.97998 8.31245L8.83333 6.4591V4.41385C8.83333 4.01918 8.99333 3.63247 9.27266 3.35314L10.98 1.64578C11.1233 1.50245 11.338 1.45973 11.5247 1.53706C11.7113 1.61439 11.8333 1.79714 11.8333 1.99914V4.1658H14C14.2027 4.1658 14.3847 4.28773 14.462 4.4744C14.5393 4.66173 14.4967 4.87714 14.3534 5.01981ZM9.83333 4.41385V5.4591L10.8333 4.4591V3.20649L9.97998 4.05985C9.88665 4.15318 9.83333 4.28252 9.83333 4.41385ZM12.7927 5.16645H11.54L10.54 6.16645H11.5853C11.7167 6.16645 11.846 6.11314 11.9387 6.01981L12.7927 5.16645Z" fill="#3B3B3E"/>
</svg>
