<svg width="16" height="16" viewBox="0 0 16 16" fill="none" xmlns="http://www.w3.org/2000/svg">
<path d="M13.7676 10.0707L12.0057 9.02008C11.1524 8.51142 10.0497 8.75876 9.49706 9.58476L8.98892 10.3428C7.54825 9.63876 6.36302 8.45075 5.65835 7.00342L6.41226 6.50208C7.23959 5.95208 7.49101 4.85141 6.98501 3.99608L5.94302 2.23676C5.61835 1.68876 4.98036 1.40475 4.34569 1.53209C3.38369 1.72475 2.53632 2.31475 2.02098 3.15009C1.50765 3.98209 1.36769 4.95543 1.62369 5.88943C2.75235 9.99676 6.00703 13.2488 10.1164 14.3768C10.4204 14.4601 10.7283 14.5014 11.0343 14.5014C11.6677 14.5014 12.293 14.3247 12.8537 13.9787C13.689 13.4634 14.279 12.6161 14.471 11.6541C14.5963 11.0321 14.3136 10.3961 13.7676 10.0707ZM13.4904 11.4574C13.3524 12.1481 12.9283 12.7568 12.3283 13.1274C11.7363 13.4928 11.0443 13.5941 10.381 13.4121C6.61034 12.3774 3.62368 9.39275 2.58902 5.62409C2.40635 4.96009 2.50703 4.26808 2.87303 3.67475C3.2437 3.07408 3.8517 2.65076 4.5537 2.51009C4.58637 2.50343 4.61968 2.50008 4.65168 2.50008C4.82635 2.50008 4.99168 2.59141 5.08234 2.74608L6.12434 4.50541C6.35967 4.90208 6.24304 5.41341 5.85904 5.66874L4.75162 6.40542C4.55228 6.53808 4.47504 6.79341 4.56704 7.01408C5.39438 8.99675 7.00105 10.6081 8.97639 11.4334C9.19372 11.5247 9.45096 11.4494 9.5843 11.2508L10.3276 10.1407C10.5843 9.75742 11.0943 9.64141 11.4936 9.87807L13.2557 10.9288C13.4377 11.0381 13.5324 11.2501 13.4904 11.4574ZM9.64696 6.35342C9.45163 6.15808 9.45163 5.84141 9.64696 5.64608L12.1269 3.16608H11.1123C10.8363 3.16608 10.6123 2.94208 10.6123 2.66608C10.6123 2.39008 10.8363 2.16608 11.1123 2.16608H13.3336C13.399 2.16608 13.4637 2.17942 13.5251 2.20475C13.6471 2.25542 13.7451 2.35276 13.7957 2.47543C13.8211 2.53676 13.8343 2.60142 13.8343 2.66675V4.88876C13.8343 5.16476 13.6103 5.38876 13.3343 5.38876C13.0583 5.38876 12.8343 5.16476 12.8343 4.88876V3.87342L10.3543 6.35342C10.257 6.45075 10.129 6.50008 10.001 6.50008C9.87296 6.50008 9.74429 6.45142 9.64696 6.35342Z" fill="#3B3B3E"/>
</svg>
