<svg width="16" height="16" viewBox="0 0 16 16" fill="none" xmlns="http://www.w3.org/2000/svg">
<path d="M14.428 4.61753C14.476 4.8322 14.5 5.07286 14.5 5.33286V10.6662C14.5 12.2782 13.612 13.1662 12 13.1662H6C5.724 13.1662 5.5 12.9422 5.5 12.6662C5.5 12.3902 5.724 12.1662 6 12.1662H12C13.0513 12.1662 13.5 11.7175 13.5 10.6662V7.16619H12C11.724 7.16619 11.5 6.94219 11.5 6.66619C11.5 6.39019 11.724 6.16619 12 6.16619H13.5V5.33286C13.5 5.14819 13.4833 4.97554 13.452 4.8342C13.392 4.56487 13.562 4.29752 13.8313 4.23752C14.1 4.17819 14.368 4.3482 14.428 4.61753ZM2.35335 14.3529C2.25602 14.4502 2.128 14.4995 2 14.4995C1.872 14.4995 1.74398 14.4509 1.64665 14.3529C1.45131 14.1575 1.45131 13.8409 1.64665 13.6455L2.50134 12.7909C1.85134 12.3862 1.5 11.6582 1.5 10.6655V5.33221C1.5 3.72021 2.388 2.83221 4 2.83221H12C12.152 2.83221 12.2953 2.84285 12.4327 2.85951L13.6466 1.64552C13.842 1.45019 14.1587 1.45019 14.354 1.64552C14.5493 1.84086 14.5493 2.15755 14.354 2.35288L2.35335 14.3529ZM2.5 5.33286V6.16619H9.12602L11.4594 3.83286H4C2.94867 3.83286 2.5 4.28153 2.5 5.33286ZM3.24532 12.0475L4.79334 10.4995H4.66667C4.39067 10.4995 4.16667 10.2755 4.16667 9.99953C4.16667 9.72353 4.39067 9.49953 4.66667 9.49953H5.79268L8.12602 7.16619H2.5V10.6662C2.5 11.5862 2.86065 11.9109 3.24532 12.0475Z" fill="#3B3B3E"/>
</svg>
