<svg width="16" height="16" viewBox="0 0 16 16" fill="none" xmlns="http://www.w3.org/2000/svg">
<path d="M14.4613 6.8576C14.4359 6.91893 14.3994 6.9742 14.3534 7.0202L11.6867 9.68687C11.5894 9.7842 11.4613 9.83351 11.3333 9.83351C11.2053 9.83351 11.0773 9.78487 10.98 9.68687C10.7846 9.49153 10.7846 9.17484 10.98 8.97951L12.7933 7.16619H4C3.17333 7.16619 2.5 7.83886 2.5 8.66619V11.9995C2.5 12.2755 2.276 12.4995 2 12.4995C1.724 12.4995 1.5 12.2755 1.5 11.9995V8.66619C1.5 7.28753 2.622 6.16619 4 6.16619H12.7926L10.9793 4.35288C10.784 4.15755 10.784 3.84086 10.9793 3.64552C11.1747 3.45019 11.4914 3.45019 11.6867 3.64552L14.3534 6.31219C14.3994 6.35819 14.4359 6.41345 14.4613 6.47479C14.5119 6.59745 14.5119 6.73493 14.4613 6.8576Z" fill="#3B3B3E"/>
</svg>
