<svg width="16" height="16" viewBox="0 0 16 16" fill="none" xmlns="http://www.w3.org/2000/svg">
<path d="M2 14.5C1.93533 14.5 1.87059 14.4873 1.80859 14.462C1.62193 14.3847 1.5 14.202 1.5 14V4C1.5 2.388 2.388 1.5 4 1.5H12C13.612 1.5 14.5 2.388 14.5 4V10C14.5 11.612 13.612 12.5 12 12.5H4.20736L2.354 14.3534C2.258 14.4494 2.13 14.5 2 14.5ZM4 2.5C2.94867 2.5 2.5 2.94867 2.5 4V12.7926L3.64665 11.646C3.74065 11.552 3.86733 11.4993 4 11.4993H12C13.0513 11.4993 13.5 11.0507 13.5 9.99935V3.99935C13.5 2.94802 13.0513 2.49935 12 2.49935H4V2.5ZM7.35335 8.68669C7.54869 8.49135 7.54869 8.17466 7.35335 7.97933L6.37337 6.99935L7.35335 6.01937C7.54869 5.82404 7.54869 5.50735 7.35335 5.31201C7.15802 5.11668 6.84133 5.11668 6.646 5.31201L5.31266 6.64535C5.11733 6.84068 5.11733 7.15737 5.31266 7.3527L6.646 8.68604C6.74333 8.78337 6.87135 8.83268 6.99935 8.83268C7.12735 8.83268 7.25602 8.78469 7.35335 8.68669ZM9.35335 8.68669L10.6867 7.35335C10.882 7.15802 10.882 6.84133 10.6867 6.646L9.35335 5.31266C9.15802 5.11733 8.84133 5.11733 8.646 5.31266C8.45066 5.508 8.45066 5.82469 8.646 6.02002L9.62598 7L8.646 7.97998C8.45066 8.17531 8.45066 8.492 8.646 8.68734C8.74333 8.78467 8.87135 8.83398 8.99935 8.83398C9.12735 8.83398 9.25602 8.78469 9.35335 8.68669Z" fill="#3B3B3E"/>
</svg>
