<svg width="16" height="16" viewBox="0 0 16 16" fill="none" xmlns="http://www.w3.org/2000/svg">
<path d="M14.7835 3.34334C14.4502 2.90067 13.9148 2.62535 13.1915 2.52335L6.1508 1.5367C5.42813 1.4347 4.84018 1.55136 4.39884 1.88403C3.95618 2.21736 3.68019 2.75268 3.57886 3.47468L3.48079 4.16544H3.11149C1.64282 4.16544 0.833496 4.9741 0.833496 6.44343V12.2221C0.833496 13.6914 1.64282 14.5001 3.11149 14.5001H10.2235C11.4961 14.5001 12.2715 13.8907 12.4569 12.7733C13.4962 12.6893 14.1581 12.0147 14.3308 10.8153L15.1301 5.09545C15.2335 4.37478 15.1162 3.78534 14.7835 3.34334ZM11.5022 12.2221C11.5022 13.1301 11.1315 13.5001 10.2235 13.5001H3.11149C2.20416 13.5001 1.8335 13.1301 1.8335 12.2221V6.44343C1.8335 5.53543 2.20416 5.16544 3.11149 5.16544H10.2235C11.1315 5.16544 11.5022 5.53543 11.5022 6.44343V12.2221ZM14.1401 4.95613L13.3408 10.6754C13.2435 11.3467 12.9915 11.6847 12.5022 11.7673V6.44343C12.5022 4.9741 11.6928 4.16544 10.2235 4.16544H4.49015L4.5682 3.61547C4.6322 3.1648 4.77683 2.85069 5.00016 2.68269C5.22216 2.51536 5.56282 2.4621 6.01082 2.52677L13.0522 3.51342C13.5028 3.57742 13.8161 3.72207 13.9841 3.94474C14.1521 4.16674 14.2041 4.5068 14.1401 4.95613ZM8.8335 9.33341C8.8335 9.60941 8.6095 9.83341 8.3335 9.83341H7.16683V11.0001C7.16683 11.2761 6.94283 11.5001 6.66683 11.5001C6.39083 11.5001 6.16683 11.2761 6.16683 11.0001V9.83341H5.00016C4.72416 9.83341 4.50016 9.60941 4.50016 9.33341C4.50016 9.05741 4.72416 8.83341 5.00016 8.83341H6.16683V7.66674C6.16683 7.39074 6.39083 7.16674 6.66683 7.16674C6.94283 7.16674 7.16683 7.39074 7.16683 7.66674V8.83341H8.3335C8.6095 8.83341 8.8335 9.05741 8.8335 9.33341Z" fill="#3B3B3E"/>
</svg>
