<svg width="16" height="16" viewBox="0 0 16 16" fill="none" xmlns="http://www.w3.org/2000/svg">
<path d="M14.5 6.00016C14.5 4.98883 13.678 4.16683 12.6667 4.16683H11.2306L9.78931 1.74416C9.64797 1.50816 9.342 1.42816 9.104 1.57016C8.86734 1.71149 8.78868 2.01816 8.93001 2.25549L10.0667 4.16616H5.96598L7.12004 2.25816C7.26337 2.02216 7.18733 1.71483 6.95133 1.57149C6.71333 1.42816 6.40665 1.50416 6.26465 1.74016L4.79736 4.1655H3.33333C2.322 4.1655 1.5 4.9875 1.5 5.99883C1.5 6.72483 1.92734 7.34816 2.54134 7.64483L3.0013 12.2475C3.15264 13.7622 3.96602 14.4988 5.48869 14.4988H10.5353C12.058 14.4988 12.872 13.7628 13.0227 12.2475L13.484 7.63083C14.084 7.33016 14.5 6.7155 14.5 6.00016ZM3.33333 5.16683H12.6667C13.126 5.16683 13.5 5.54083 13.5 6.00016C13.5 6.4595 13.126 6.8335 12.6667 6.8335H3.33333C2.874 6.8335 2.5 6.4595 2.5 6.00016C2.5 5.54083 2.874 5.16683 3.33333 5.16683ZM12.0286 12.1495C11.9426 13.0048 11.6713 13.5002 10.536 13.5002H5.48934C4.34801 13.5002 4.08466 13.0255 3.99666 12.1495L3.56535 7.8335H12.4607L12.0286 12.1495ZM9.35335 9.68683L8.70671 10.3335L9.35335 10.9802C9.54869 11.1755 9.54869 11.4922 9.35335 11.6875C9.25602 11.7848 9.128 11.8342 9 11.8342C8.872 11.8342 8.74398 11.7855 8.64665 11.6875L8 11.0408L7.35335 11.6875C7.25602 11.7848 7.128 11.8342 7 11.8342C6.872 11.8342 6.74398 11.7855 6.64665 11.6875C6.45131 11.4922 6.45131 11.1755 6.64665 10.9802L7.29329 10.3335L6.64665 9.68683C6.45131 9.4915 6.45131 9.17483 6.64665 8.97949C6.84198 8.78416 7.15867 8.78416 7.354 8.97949L8.00065 9.62616L8.6473 8.97949C8.84263 8.78416 9.15932 8.78416 9.35466 8.97949C9.54999 9.17483 9.54869 9.4915 9.35335 9.68683Z" fill="#3B3B3E"/>
</svg>
