<svg width="16" height="16" viewBox="0 0 16 16" fill="none" xmlns="http://www.w3.org/2000/svg">
<path d="M5.28743 11.4198L12.5928 4.1146C12.5928 4.1146 12.5934 4.11445 12.5934 4.11379C12.5934 4.11312 12.5934 4.11313 12.5941 4.11313L14.3534 2.35386C14.5488 2.15852 14.5488 1.84183 14.3534 1.6465C14.1581 1.45117 13.8414 1.45117 13.6461 1.6465L12.2394 3.05324L11.8861 2.69989C11.6907 2.50455 11.374 2.50455 11.1787 2.69989C10.9834 2.89522 10.9834 3.21191 11.1787 3.40724L11.5321 3.7606L11.0461 4.2466C10.3127 3.6526 9.43411 3.2892 8.49878 3.19386V2.5005H8.99878C9.27478 2.5005 9.49878 2.2765 9.49878 2.0005C9.49878 1.7245 9.27478 1.5005 8.99878 1.5005H6.99878C6.72278 1.5005 6.49878 1.7245 6.49878 2.0005C6.49878 2.2765 6.72278 2.5005 6.99878 2.5005H7.49878V3.19386C6.56478 3.28986 5.68607 3.65258 4.95207 4.24725L4.46273 3.75783L4.81673 3.40382C5.01206 3.20849 5.01206 2.8918 4.81673 2.69647C4.6214 2.50113 4.30471 2.50113 4.10937 2.69647L2.69539 4.11118C2.50006 4.30651 2.50006 4.6232 2.69539 4.81854C2.79273 4.91587 2.92075 4.96518 3.04875 4.96518C3.17675 4.96518 3.30477 4.91654 3.4021 4.81854L3.75545 4.46518L4.24406 4.95379C3.65006 5.68713 3.28674 6.56584 3.19141 7.5005H2.49805V7.0005C2.49805 6.7245 2.27405 6.5005 1.99805 6.5005C1.72205 6.5005 1.49805 6.7245 1.49805 7.0005V9.0005C1.49805 9.2765 1.72205 9.5005 1.99805 9.5005C2.27405 9.5005 2.49805 9.2765 2.49805 9.0005V8.5005H3.19141C3.28741 9.43517 3.65004 10.3139 4.24471 11.0472L3.75871 11.5332L3.40544 11.1799C3.21077 10.9852 2.89408 10.9845 2.69808 11.1799C2.50275 11.3745 2.50275 11.6919 2.69808 11.8872L3.05143 12.2406L1.64478 13.6472C1.44944 13.8425 1.44944 14.1592 1.64478 14.3545C1.74211 14.4518 1.87005 14.5012 1.99805 14.5012C2.12605 14.5012 2.25407 14.4525 2.3514 14.3545L5.28206 11.4238C5.28273 11.4232 5.28343 11.4232 5.2841 11.4225C5.28476 11.4219 5.28677 11.4204 5.28743 11.4198ZM4.16675 7.99985C4.16675 6.98185 4.56344 6.02126 5.28011 5.29526C5.28278 5.2926 5.28607 5.29191 5.28874 5.28924C5.2914 5.28724 5.29211 5.28393 5.29411 5.28127C6.02211 4.56327 6.98276 4.16652 7.99943 4.16652C8.85076 4.16652 9.65409 4.45792 10.3228 4.96925L4.96875 10.3233C4.45808 9.65393 4.16675 8.85119 4.16675 7.99985ZM14.5001 6.99985V8.99985C14.5001 9.27585 14.2761 9.49985 14.0001 9.49985C13.7241 9.49985 13.5001 9.27585 13.5001 8.99985V8.49985H12.8067C12.7107 9.43452 12.3481 10.3132 11.7541 11.0466L12.2428 11.5352L12.5961 11.1818C12.7914 10.9865 13.1081 10.9865 13.3034 11.1818C13.4987 11.3772 13.4987 11.6938 13.3034 11.8892L11.8894 13.3039C11.7921 13.4012 11.6641 13.4505 11.5361 13.4505C11.4081 13.4505 11.2801 13.4019 11.1828 13.3039C10.9874 13.1086 10.9874 12.7919 11.1828 12.5965L11.5368 12.2425L11.0474 11.7531C10.3134 12.3478 9.43473 12.7112 8.50073 12.8065V13.4999H9.00073C9.27673 13.4999 9.50073 13.7239 9.50073 13.9999C9.50073 14.2759 9.27673 14.4999 9.00073 14.4999H7.00073C6.72473 14.4999 6.50073 14.2759 6.50073 13.9999C6.50073 13.7239 6.72473 13.4999 7.00073 13.4999H7.50073V12.7918C7.13273 12.7532 6.76744 12.6886 6.41211 12.5666C6.15011 12.4766 6.0114 12.1925 6.1014 11.9312C6.1914 11.6698 6.47808 11.5318 6.73608 11.6205C8.12475 12.0971 9.67074 11.7393 10.7054 10.7193C10.7081 10.7166 10.7088 10.7131 10.7114 10.7105C10.7141 10.7078 10.7174 10.7071 10.7201 10.7044C11.4367 9.97844 11.8334 9.01785 11.8334 7.99985C11.8334 7.57185 11.7621 7.14652 11.6208 6.73586C11.5308 6.47452 11.6694 6.19044 11.9307 6.10044C12.1941 6.01177 12.4767 6.14983 12.5661 6.4105C12.6887 6.76583 12.7534 7.13185 12.7921 7.49985H13.5007V6.99985C13.5007 6.72385 13.7247 6.49985 14.0007 6.49985C14.2767 6.49985 14.5001 6.72385 14.5001 6.99985Z" fill="#3B3B3E"/>
</svg>
