<svg width="16" height="16" viewBox="0 0 16 16" fill="none" xmlns="http://www.w3.org/2000/svg">
<path d="M8 10.8333C6.43733 10.8333 5.16667 9.562 5.16667 8C5.16667 6.438 6.43733 5.16667 8 5.16667C9.56267 5.16667 10.8333 6.438 10.8333 8C10.8333 9.562 9.56267 10.8333 8 10.8333ZM8 6.16667C6.98867 6.16667 6.16667 6.98867 6.16667 8C6.16667 9.01133 6.98867 9.83333 8 9.83333C9.01133 9.83333 9.83333 9.01133 9.83333 8C9.83333 6.98867 9.01133 6.16667 8 6.16667ZM8 14.5C4.416 14.5 1.5 11.584 1.5 8C1.5 4.416 4.416 1.5 8 1.5C11.584 1.5 14.5 4.416 14.5 8C14.5 11.584 11.584 14.5 8 14.5ZM8 2.5C4.96733 2.5 2.5 4.96733 2.5 8C2.5 11.0327 4.96733 13.5 8 13.5C11.0327 13.5 13.5 11.0327 13.5 8C13.5 4.96733 11.0327 2.5 8 2.5ZM8 7.33333C7.632 7.33333 7.33333 7.632 7.33333 8C7.33333 8.368 7.632 8.66667 8 8.66667C8.368 8.66667 8.66667 8.368 8.66667 8C8.66667 7.632 8.368 7.33333 8 7.33333Z" fill="#3B3B3E"/>
</svg>
