<svg width="16" height="16" viewBox="0 0 16 16" fill="none" xmlns="http://www.w3.org/2000/svg">
<path d="M14.3534 13.647C14.5467 13.8403 14.5467 14.1603 14.3534 14.3536C14.2534 14.4536 14.1267 14.5003 14 14.5003C13.8734 14.5003 13.7467 14.4536 13.6467 14.3536L10 10.707L8.58671 12.1203C8.43338 12.2736 8.22671 12.3603 8.00004 12.3603C7.77337 12.3603 7.5667 12.2736 7.41337 12.1203L6.64671 11.3536C6.45338 11.1603 6.45338 10.8403 6.64671 10.647C6.84004 10.4536 7.16004 10.4536 7.35337 10.647L8.00004 11.2936L9.63338 9.66029C9.63338 9.66029 9.64004 9.64696 9.64671 9.64029C9.84004 9.44696 10.1534 9.44029 10.3534 9.64029L14.36 13.647H14.3534ZM4.64671 9.35362C4.74671 9.45362 4.87338 9.50029 5.00004 9.50029C5.12671 9.50029 5.25337 9.45362 5.35337 9.35362C5.54671 9.16028 5.54671 8.84029 5.35337 8.64695L4.9067 8.20029C3.96003 7.26029 3.16671 5.33362 3.16671 4.00029V3.87362L5.65338 6.36028C5.75338 6.46028 5.88005 6.50695 6.00671 6.50695C6.13338 6.50695 6.26005 6.46028 6.36005 6.36028C6.55338 6.16695 6.55338 5.84695 6.36005 5.65362L3.02004 2.31362C2.97337 2.26695 2.92005 2.23362 2.86005 2.20695C2.74005 2.15362 2.60004 2.15362 2.48004 2.20695C2.36004 2.26028 2.26004 2.35362 2.20671 2.48029C2.18004 2.54029 2.16671 2.60695 2.16671 2.67362V4.00695C2.16671 5.62028 3.06003 7.77362 4.20003 8.91362L4.64671 9.36028V9.35362ZM10.3334 8.52028C11.0667 8.52028 11.8 8.24028 12.3534 7.68695L14.3534 5.68695C14.5467 5.49362 14.5467 5.17362 14.3534 4.98029C14.16 4.78695 13.84 4.78695 13.6467 4.98029L11.6467 6.98029C10.92 7.70695 9.74671 7.70695 9.02004 6.98029C8.29337 6.25362 8.29337 5.08029 9.02004 4.35362L11.02 2.35362C11.2134 2.16028 11.2134 1.84029 11.02 1.64695C10.8267 1.45362 10.5067 1.45362 10.3134 1.64695L8.31338 3.64695C7.32004 4.64029 7.22004 6.18695 7.99337 7.30028L1.64671 13.647C1.45338 13.8403 1.45338 14.1603 1.64671 14.3536C1.74671 14.4536 1.87337 14.5003 2.00004 14.5003C2.12671 14.5003 2.25337 14.4536 2.35337 14.3536L8.70003 8.00695C9.1867 8.34695 9.76004 8.52695 10.3334 8.52695V8.52028ZM9.56671 5.44029C9.66671 5.54029 9.79338 5.58696 9.92004 5.58696C10.0467 5.58696 10.1734 5.54029 10.2734 5.44029L12.1867 3.52028C12.38 3.32695 12.38 3.00695 12.1867 2.81362C11.9934 2.62029 11.6734 2.62029 11.48 2.81362L9.56671 4.73362C9.37338 4.92696 9.37338 5.24696 9.56671 5.44029V5.44029ZM10.5667 6.44029C10.6667 6.54029 10.7934 6.58696 10.92 6.58696C11.0467 6.58696 11.1734 6.54029 11.2734 6.44029L13.1867 4.52029C13.38 4.32695 13.38 4.00695 13.1867 3.81362C12.9934 3.62029 12.6734 3.62029 12.48 3.81362L10.5667 5.73362C10.3734 5.92696 10.3734 6.24696 10.5667 6.44029V6.44029Z" fill="#3B3B3E"/>
</svg>
