<svg width="16" height="16" viewBox="0 0 16 16" fill="none" xmlns="http://www.w3.org/2000/svg">
<path d="M12 13.8337H4C2.388 13.8337 1.5 12.9457 1.5 11.3337V4.66699C1.5 3.05499 2.388 2.16699 4 2.16699H6.66667C6.79933 2.16699 6.92669 2.21966 7.02002 2.31366L8.87337 4.16699H12C13.612 4.16699 14.5 5.05499 14.5 6.66699V11.3337C14.5 12.9457 13.612 13.8337 12 13.8337ZM4 3.16699C2.94867 3.16699 2.5 3.61566 2.5 4.66699V11.3337C2.5 12.385 2.94867 12.8337 4 12.8337H12C13.0513 12.8337 13.5 12.385 13.5 11.3337V6.66699C13.5 5.61566 13.0513 5.16699 12 5.16699H8.66667C8.534 5.16699 8.40665 5.11432 8.31331 5.02032L6.45996 3.16699H4ZM8 11.8337C7.93067 11.8337 7.86074 11.819 7.79541 11.7903C7.70474 11.7497 5.57005 10.7763 5.22005 9.00033C5.07739 8.27833 5.21926 7.59233 5.60726 7.11833C5.93593 6.71699 6.40598 6.50366 6.96598 6.501C6.96865 6.501 6.97194 6.501 6.97461 6.501C7.41528 6.501 7.754 6.67165 8 6.89299C8.246 6.67099 8.58472 6.501 9.02539 6.501C9.02806 6.501 9.03068 6.501 9.03402 6.501C9.59535 6.50366 10.0654 6.71699 10.3934 7.11833C10.7814 7.59299 10.922 8.27899 10.7793 9.00033C10.43 10.7763 8.29459 11.7497 8.20459 11.7903C8.13926 11.819 8.06933 11.8337 8 11.8337ZM6.97396 7.50033C6.97263 7.50033 6.97202 7.50033 6.97135 7.50033C6.71135 7.50166 6.51868 7.58366 6.38135 7.751C6.18535 7.99033 6.11735 8.385 6.20068 8.80634C6.39868 9.80834 7.52935 10.5177 7.99935 10.7723C8.46935 10.517 9.60001 9.80833 9.79801 8.80566C9.88068 8.38366 9.81333 7.98966 9.618 7.75033C9.48133 7.58299 9.28801 7.50099 9.02734 7.49965C9.02668 7.49965 9.02607 7.49965 9.02474 7.49965C8.63874 7.49965 8.48605 7.88365 8.47005 7.92765C8.39739 8.12699 8.17866 8.26365 7.99333 8.25832C7.78133 8.25565 7.59272 8.12298 7.52539 7.92165C7.51272 7.88432 7.35996 7.50033 6.97396 7.50033Z" fill="#3B3B3E"/>
</svg>
