<svg width="16" height="16" viewBox="0 0 16 16" fill="none" xmlns="http://www.w3.org/2000/svg">
<path d="M8.00016 0.833008C4.04683 0.833008 0.833496 4.04634 0.833496 7.99967C0.833496 11.953 4.04683 15.1663 8.00016 15.1663C11.9535 15.1663 15.1668 11.953 15.1668 7.99967C15.1668 4.04634 11.9535 0.833008 8.00016 0.833008ZM8.00016 14.1663C4.60016 14.1663 1.8335 11.3997 1.8335 7.99967C1.8335 4.59967 4.60016 1.83301 8.00016 1.83301C11.4002 1.83301 14.1668 4.59967 14.1668 7.99967C14.1668 11.3997 11.4002 14.1663 8.00016 14.1663ZM6.00016 8.49967C5.52016 8.49967 5.16683 8.00634 5.16683 7.33301C5.16683 7.15301 5.19349 6.99301 5.24015 6.84634L4.44684 6.44634C4.20017 6.31967 4.10015 6.01968 4.22015 5.77301C4.34682 5.52634 4.64683 5.42635 4.89349 5.54635L6.16016 6.17968C6.26016 6.19968 6.34684 6.25301 6.42684 6.31301L7.22683 6.71301C7.47349 6.83968 7.57349 7.13968 7.45349 7.38634C7.36682 7.55968 7.18684 7.65968 7.00684 7.65968C6.94017 7.65968 6.88016 7.63967 6.8135 7.61301C6.72683 8.13301 6.4135 8.49301 6.00684 8.49301L6.00016 8.49967ZM9.7335 10.3663C9.90017 10.5863 9.8535 10.8997 9.6335 11.0663C9.54017 11.133 9.44016 11.1663 9.3335 11.1663C9.18016 11.1663 9.03349 11.0997 8.93349 10.9663C8.48682 10.3797 7.52017 10.373 7.06683 10.9663C6.90017 11.1863 6.58682 11.2263 6.36682 11.0597C6.14682 10.893 6.10683 10.5797 6.2735 10.3597C6.6935 9.813 7.32017 9.49301 8.00684 9.49301C8.6935 9.49301 9.32683 9.81967 9.7335 10.3597V10.3663ZM11.7802 5.77967C11.9068 6.02634 11.8068 6.32634 11.5535 6.453L10.7602 6.85301C10.8068 6.99967 10.8335 7.16634 10.8335 7.33967C10.8335 8.013 10.4802 8.50634 10.0002 8.50634C9.58683 8.50634 9.28017 8.15301 9.1935 7.62634C9.1335 7.65301 9.06683 7.673 9.00016 7.673C8.8135 7.673 8.64015 7.57301 8.55349 7.39968C8.42682 7.15301 8.52684 6.85301 8.78017 6.72634L9.58016 6.32634C9.66016 6.26634 9.74682 6.21967 9.84682 6.193L11.1135 5.55967C11.3602 5.43301 11.6602 5.53967 11.7868 5.78634L11.7802 5.77967Z" fill="#3B3B3E"/>
</svg>
