<svg width="16" height="16" viewBox="0 0 16 16" fill="none" xmlns="http://www.w3.org/2000/svg">
<path d="M7.99992 1.5C4.71659 1.5 2.83325 3.38333 2.83325 6.66667V9.33333C2.83325 12.6167 4.71659 14.5 7.99992 14.5C11.2833 14.5 13.1666 12.6167 13.1666 9.33333V6.66667C13.1666 3.38333 11.2833 1.5 7.99992 1.5ZM7.99992 4.83333C8.27525 4.83333 8.49992 5.05733 8.49992 5.33333V6.33333C8.49992 6.60933 8.27525 6.83333 7.99992 6.83333C7.72459 6.83333 7.49992 6.60933 7.49992 6.33333V5.33333C7.49992 5.05733 7.72459 4.83333 7.99992 4.83333ZM12.1666 9.33333C12.1666 12.7773 9.90125 13.5 7.99992 13.5C6.09859 13.5 3.83325 12.7773 3.83325 9.33333V6.66667C3.83325 3.52067 5.72325 2.64802 7.49992 2.52002V3.92529C6.91925 4.13263 6.49992 4.682 6.49992 5.33333V6.33333C6.49992 7.16067 7.17325 7.83333 7.99992 7.83333C8.82658 7.83333 9.49992 7.16067 9.49992 6.33333V5.33333C9.49992 4.68267 9.08058 4.13263 8.49992 3.92529V2.52002C10.2766 2.64802 12.1666 3.52067 12.1666 6.66667V9.33333Z" fill="#3B3B3E"/>
</svg>
