<svg width="16" height="16" viewBox="0 0 16 16" fill="none" xmlns="http://www.w3.org/2000/svg">
<path d="M13.6866 5.64667L9.68661 1.64667C9.59261 1.55267 9.46592 1.5 9.33325 1.5H5.33325C3.72125 1.5 2.83325 2.388 2.83325 4V12C2.83325 13.612 3.72125 14.5 5.33325 14.5H11.3333C12.9453 14.5 13.8333 13.612 13.8333 12V6C13.8333 5.86733 13.7806 5.74 13.6866 5.64667ZM9.83325 3.20734L12.1259 5.5H11.3333C10.2819 5.5 9.83325 5.05133 9.83325 4V3.20734ZM11.3333 13.5H5.33325C4.28192 13.5 3.83325 13.0513 3.83325 12V4C3.83325 2.94867 4.28192 2.5 5.33325 2.5H8.83325V4C8.83325 5.612 9.72125 6.5 11.3333 6.5H12.8333V12C12.8333 13.0513 12.3846 13.5 11.3333 13.5ZM8.33325 6.83333C6.77059 6.83333 5.49992 8.104 5.49992 9.66667C5.49992 11.2293 6.77059 12.5 8.33325 12.5C9.89592 12.5 11.1666 11.2293 11.1666 9.66667C11.1666 8.104 9.89592 6.83333 8.33325 6.83333ZM8.33325 11.5C7.32192 11.5 6.49992 10.678 6.49992 9.66667C6.49992 8.65533 7.32192 7.83333 8.33325 7.83333C9.34459 7.83333 10.1666 8.65533 10.1666 9.66667C10.1666 10.678 9.34459 11.5 8.33325 11.5ZM9.31193 9.938C9.50726 10.1333 9.50726 10.45 9.31193 10.6453C9.2146 10.7427 9.08658 10.792 8.95858 10.792C8.83058 10.792 8.70256 10.7433 8.60522 10.6453L7.9799 10.02C7.8859 9.926 7.83325 9.79933 7.83325 9.66667V8.792C7.83325 8.516 8.05725 8.292 8.33325 8.292C8.60925 8.292 8.83325 8.516 8.83325 8.792V9.46L9.31193 9.938Z" fill="#3B3B3E"/>
</svg>
