<svg width="16" height="16" viewBox="0 0 16 16" fill="none" xmlns="http://www.w3.org/2000/svg">
<path d="M12 14.5H4C2.388 14.5 1.5 13.612 1.5 12V6.48802C1.5 5.76202 1.86068 5.08802 2.46468 4.68535L6.61328 1.92002C7.45595 1.35869 8.54405 1.35869 9.38672 1.92002L13.5353 4.68535C14.1393 5.08802 14.5 5.76202 14.5 6.48802V12C14.5 13.612 13.612 14.5 12 14.5ZM8 2.49935C7.71 2.49935 7.42064 2.58336 7.16797 2.75202L3.01937 5.51735C2.69404 5.73402 2.5 6.09735 2.5 6.48802V12C2.5 13.0514 2.94867 13.5 4 13.5H12C13.0513 13.5 13.5 13.0514 13.5 12V6.48802C13.5 6.09735 13.306 5.73402 12.9806 5.51735L8.83203 2.75202C8.57936 2.58336 8.29 2.49935 8 2.49935ZM8.57129 9.96002L11.6273 7.73736C11.8506 7.57469 11.9 7.26202 11.7373 7.03869C11.5753 6.81602 11.2641 6.76536 11.0387 6.92869L7.9834 9.15069C7.9394 9.18269 7.88204 9.18269 7.8387 9.15136L4.78271 6.92869C4.55805 6.76602 4.24532 6.81602 4.08398 7.03869C3.92132 7.26202 3.97068 7.57469 4.19401 7.73736L7.25 9.96002C7.44733 10.1034 7.67866 10.1754 7.90999 10.1754C8.14199 10.1754 8.37396 10.104 8.57129 9.96002Z" fill="#3B3B3E"/>
</svg>
