<svg width="16" height="16" viewBox="0 0 16 16" fill="none" xmlns="http://www.w3.org/2000/svg">
<path d="M14 1.5H2C1.724 1.5 1.5 1.724 1.5 2C1.5 2.276 1.724 2.5 2 2.5H2.5V8.66667C2.5 10.2787 3.388 11.1667 5 11.1667H7.5V12.3993L5.72267 13.584C5.49267 13.7373 5.43067 14.0473 5.584 14.2773C5.73667 14.5073 6.04667 14.5693 6.27733 14.416L8 13.2673L9.72267 14.416C9.808 14.4727 9.904 14.5 10 14.5C10.1613 14.5 10.32 14.422 10.4167 14.2773C10.57 14.0473 10.508 13.7373 10.278 13.584L8.50067 12.3993V11.1667H11.0007C12.6127 11.1667 13.5007 10.2787 13.5007 8.66667V2.5H14C14.276 2.5 14.5 2.276 14.5 2C14.5 1.724 14.276 1.5 14 1.5ZM12.5 8.66667C12.5 9.718 12.0513 10.1667 11 10.1667H5C3.94867 10.1667 3.5 9.718 3.5 8.66667V2.5H12.5V8.66667ZM4.98 7.91602C4.78467 7.72068 4.78467 7.40399 4.98 7.20866L6.33133 5.85734C6.706 5.48267 7.316 5.48267 7.69 5.85734L8.476 6.64331L9.48467 5.60466H9C8.724 5.60466 8.5 5.38066 8.5 5.10466C8.5 4.82866 8.724 4.60466 9 4.60466H10.6667C10.732 4.60466 10.7967 4.61798 10.858 4.64331C10.98 4.69398 11.0773 4.79131 11.128 4.91398C11.1533 4.97531 11.1667 5.03997 11.1667 5.10531V6.77197C11.1667 7.04797 10.9427 7.27197 10.6667 7.27197C10.3907 7.27197 10.1667 7.04797 10.1667 6.77197V6.31266L9.128 7.35132C8.75333 7.72599 8.14334 7.72599 7.76934 7.35132L6.98334 6.56535L5.68734 7.91667C5.59 8.014 5.462 8.06331 5.334 8.06331C5.206 8.06331 5.07733 8.01335 4.98 7.91602Z" fill="#3B3B3E"/>
</svg>
