<svg width="16" height="16" viewBox="0 0 16 16" fill="none" xmlns="http://www.w3.org/2000/svg">
<path d="M12 1.5H4C2.388 1.5 1.5 2.388 1.5 4V14C1.5 14.202 1.62193 14.3847 1.80859 14.462C1.87059 14.488 1.93533 14.5 2 14.5C2.13 14.5 2.25802 14.4494 2.35335 14.3534L4.20671 12.5H12C13.612 12.5 14.5 11.612 14.5 10V4C14.5 2.388 13.612 1.5 12 1.5ZM13.5 10C13.5 11.0513 13.0513 11.5 12 11.5H4C3.86733 11.5 3.73998 11.5526 3.64665 11.6466L2.5 12.7933V4C2.5 2.94867 2.94867 2.5 4 2.5H12C13.0513 2.5 13.5 2.94867 13.5 4V10ZM9.66667 6.24731V5.5C9.66667 4.58133 8.91933 3.83333 8 3.83333C7.08067 3.83333 6.33333 4.58133 6.33333 5.5V6.24731C5.80467 6.41931 5.5 6.86801 5.5 7.52401V8.80998C5.5 9.65931 6.00726 10.1673 6.85726 10.1673H9.14274C9.99274 10.1673 10.5 9.65998 10.5 8.80998V7.52401C10.5 6.86801 10.1953 6.41931 9.66667 6.24731ZM8 4.83333C8.368 4.83333 8.66667 5.13267 8.66667 5.5V6.16667H7.33333V5.5C7.33333 5.13267 7.632 4.83333 8 4.83333ZM9.5 8.80933C9.5 9.10266 9.43674 9.16667 9.14274 9.16667H6.85726C6.56326 9.16667 6.5 9.10333 6.5 8.80933V7.52336C6.5 7.23002 6.56326 7.16602 6.85726 7.16602H9.14274C9.43674 7.16602 9.5 7.22936 9.5 7.52336V8.80933Z" fill="#3B3B3E"/>
</svg>
