<svg width="16" height="16" viewBox="0 0 16 16" fill="none" xmlns="http://www.w3.org/2000/svg">
<path d="M10.2222 5.27767H9.84212L9.71289 4.889C9.56889 4.457 9.16676 4.16699 8.71143 4.16699H7.28955C6.83422 4.16699 6.43223 4.45701 6.2889 4.88835L6.15885 5.27767H5.77881C4.75481 5.27767 4.16748 5.865 4.16748 6.889V10.2223C4.16748 11.2463 4.75481 11.8337 5.77881 11.8337H10.2228C11.2468 11.8337 11.8341 11.2463 11.8341 10.2223V6.889C11.8335 5.86433 11.2462 5.27767 10.2222 5.27767ZM10.8335 10.2217C10.8335 10.6843 10.6848 10.833 10.2222 10.833H5.77816C5.31549 10.833 5.16683 10.6843 5.16683 10.2217V6.88835C5.16683 6.42568 5.31549 6.27702 5.77816 6.27702H6.51823C6.7329 6.27702 6.92419 6.13906 6.99219 5.93506L7.2889 5.16569L8.76351 5.20426L9.00749 5.93506C9.07549 6.13906 9.26678 6.27702 9.48144 6.27702H10.2215C10.6842 6.27702 10.8328 6.42568 10.8328 6.88835V10.2217H10.8335ZM8.00016 6.94434C7.1115 6.94434 6.38883 7.667 6.38883 8.55566C6.38883 9.44433 7.1115 10.167 8.00016 10.167C8.88883 10.167 9.61149 9.44433 9.61149 8.55566C9.61149 7.667 8.88883 6.94434 8.00016 6.94434ZM8.00016 9.16634C7.66283 9.16634 7.38883 8.89235 7.38883 8.55501C7.38883 8.21768 7.66283 7.94368 8.00016 7.94368C8.3375 7.94368 8.61149 8.21768 8.61149 8.55501C8.61149 8.89235 8.3375 9.16634 8.00016 9.16634ZM8.00016 0.833008C4.04816 0.833008 0.833496 4.04767 0.833496 7.99967C0.833496 11.9517 4.04816 15.1663 8.00016 15.1663C11.9522 15.1663 15.1668 11.9517 15.1668 7.99967C15.1668 4.04767 11.9522 0.833008 8.00016 0.833008ZM8.00016 14.1663C4.5995 14.1663 1.8335 11.4003 1.8335 7.99967C1.8335 4.59901 4.5995 1.83301 8.00016 1.83301C11.4008 1.83301 14.1668 4.59901 14.1668 7.99967C14.1668 11.4003 11.4008 14.1663 8.00016 14.1663Z" fill="#3B3B3E"/>
</svg>
