<svg width="16" height="16" viewBox="0 0 16 16" fill="none" xmlns="http://www.w3.org/2000/svg">
<path d="M13.6866 5.64667L9.68661 1.64667C9.59261 1.55267 9.46592 1.5 9.33325 1.5H5.33325C3.72125 1.5 2.83325 2.388 2.83325 4V12C2.83325 13.612 3.72125 14.5 5.33325 14.5H11.3333C12.9453 14.5 13.8333 13.612 13.8333 12V6C13.8333 5.86733 13.7806 5.74 13.6866 5.64667ZM9.83325 3.20734L12.1259 5.5H11.3333C10.2819 5.5 9.83325 5.05133 9.83325 4V3.20734ZM11.3333 13.5H5.33325C4.28192 13.5 3.83325 13.0513 3.83325 12V4C3.83325 2.94867 4.28192 2.5 5.33325 2.5H8.83325V4C8.83325 5.612 9.72125 6.5 11.3333 6.5H12.8333V12C12.8333 13.0513 12.3846 13.5 11.3333 13.5ZM10.3533 7.86866C10.5486 8.064 10.5486 8.38067 10.3533 8.576L8.13127 10.7987C8.03727 10.8927 7.91058 10.9453 7.77791 10.9453C7.64525 10.9453 7.51789 10.8927 7.42456 10.7987L6.31323 9.68734C6.1179 9.492 6.1179 9.17533 6.31323 8.98C6.50857 8.78467 6.82526 8.78467 7.02059 8.98L7.77856 9.738L9.64722 7.86866C9.84188 7.67333 10.1579 7.67333 10.3533 7.86866Z" fill="#3B3B3E"/>
</svg>
