<svg width="16" height="16" viewBox="0 0 16 16" fill="none" xmlns="http://www.w3.org/2000/svg">
<path d="M4.31331 8.35335C4.11798 8.15802 4.11798 7.84133 4.31331 7.646C4.50865 7.45066 4.82534 7.45066 5.02067 7.646L7.50065 10.126V2C7.50065 1.724 7.72465 1.5 8.00065 1.5C8.27665 1.5 8.50065 1.724 8.50065 2V10.126L10.9806 7.646C11.176 7.45066 11.4927 7.45066 11.688 7.646C11.8833 7.84133 11.8833 8.15802 11.688 8.35335L8.35466 11.6867C8.30866 11.7327 8.25338 11.7693 8.19271 11.7946C8.13204 11.8199 8.06664 11.8333 8.0013 11.8333C7.93597 11.8333 7.87139 11.8199 7.81006 11.7946C7.74873 11.7693 7.69395 11.7327 7.64795 11.6867L4.31331 8.35335ZM12 13.5H4C3.724 13.5 3.5 13.724 3.5 14C3.5 14.276 3.724 14.5 4 14.5H12C12.276 14.5 12.5 14.276 12.5 14C12.5 13.724 12.276 13.5 12 13.5Z" fill="#3B3B3E"/>
</svg>
