<svg width="16" height="16" viewBox="0 0 16 16" fill="none" xmlns="http://www.w3.org/2000/svg">
<path d="M13.9067 9.06017C13.9667 8.70017 14 8.34684 14 8.00684C14 4.70017 11.3067 2.00684 8 2.00684C7.65333 2.00684 7.29999 2.04017 6.94666 2.10017C6.36666 1.7135 5.7 1.50684 5 1.50684C3.06667 1.50684 1.5 3.08017 1.5 5.00684C1.5 5.70684 1.70668 6.3735 2.09334 6.9535C2.03334 7.3135 2 7.6735 2 8.00684C2 11.3135 4.69333 14.0068 8 14.0068C8.34667 14.0068 8.70001 13.9735 9.05334 13.9135C9.63334 14.3002 10.3 14.5068 11 14.5068C12.9333 14.5068 14.5 12.9335 14.5 11.0068C14.5 10.3068 14.3 9.64017 13.9067 9.06017ZM10.9933 13.5002C10.44 13.5002 9.91335 13.3202 9.47335 12.9802C9.38668 12.9135 9.28 12.8735 9.16667 12.8735C9.13333 12.8735 9.10002 12.8735 9.06002 12.8868C8.70002 12.9602 8.33999 13.0002 7.99333 13.0002C5.23333 13.0002 2.99333 10.7602 2.99333 8.00017C2.99333 7.66017 3.03332 7.30017 3.10665 6.92684C3.13332 6.78684 3.10668 6.63351 3.01335 6.52017C2.67335 6.08017 2.49333 5.55351 2.49333 5.00017C2.49333 3.62017 3.61333 2.50017 4.99333 2.50017C5.54666 2.50017 6.07335 2.68017 6.52002 3.02017C6.63335 3.10684 6.78668 3.14684 6.93335 3.11351C7.29335 3.04017 7.65333 3.00017 8 3.00017C10.76 3.00017 13 5.24017 13 8.00017C13 8.34017 12.96 8.70017 12.8867 9.07351C12.86 9.21351 12.8866 9.36684 12.98 9.48017C13.32 9.92017 13.5 10.4468 13.5 11.0002C13.5 12.3802 12.38 13.5002 11 13.5002H10.9933ZM10.9933 9.29351C10.9933 10.8202 9.52002 11.5268 8.10002 11.5268C6.40668 11.5268 4.99333 10.7735 4.99333 9.84684C4.99333 9.43351 5.22667 9.06017 5.75334 9.06017C6.56 9.06017 6.63332 10.2202 8.02665 10.2202C8.68665 10.2202 9.12 9.92684 9.12 9.54017C9.12 9.06017 8.70666 8.98017 8.03333 8.82017C6.41999 8.42017 4.99333 8.25351 4.99333 6.56684C4.99333 5.04018 6.50668 4.47351 7.80668 4.47351C9.22668 4.47351 10.6667 5.04018 10.6667 5.90018C10.6667 6.33351 10.3733 6.72017 9.88668 6.72017C9.15334 6.72017 9.13333 5.85351 7.95333 5.85351C7.29333 5.85351 6.86666 6.0335 6.86666 6.4335C6.86666 6.94684 7.40665 6.9935 8.64665 7.28683C9.71331 7.52683 10.9867 7.98017 10.9867 9.28683L10.9933 9.29351Z" fill="#3B3B3E"/>
</svg>
