<svg width="16" height="16" viewBox="0 0 16 16" fill="none" xmlns="http://www.w3.org/2000/svg">
<path d="M14 11.5003H13.8333V6.66699C13.8333 5.05366 12.9467 4.16699 11.3333 4.16699H11.1667V2.66699C11.1667 2.39366 10.94 2.16699 10.6667 2.16699C10.3933 2.16699 10.1667 2.39366 10.1667 2.66699V4.16699H8.5V2.66699C8.5 2.39366 8.27333 2.16699 8 2.16699C7.72667 2.16699 7.5 2.39366 7.5 2.66699V4.16699H5.83333V2.66699C5.83333 2.39366 5.60667 2.16699 5.33333 2.16699C5.06 2.16699 4.83333 2.39366 4.83333 2.66699V4.16699H4.66667C3.05333 4.16699 2.16667 5.05366 2.16667 6.66699V11.5003H2C1.72667 11.5003 1.5 11.727 1.5 12.0003V13.0003C1.5 13.827 2.17333 14.5003 3 14.5003H13C13.8267 14.5003 14.5 13.827 14.5 13.0003V12.0003C14.5 11.727 14.2733 11.5003 14 11.5003ZM4.66667 5.16699H11.3333C12.3867 5.16699 12.8333 5.61366 12.8333 6.66699V7.43365C12.34 7.63365 11.9133 8.08699 11.6067 8.50033C11.2467 7.95366 10.6467 7.33366 9.78001 7.33366C8.91334 7.33366 8.36667 7.90032 8.00667 8.42699C7.64001 7.90032 7.06 7.33366 6.23334 7.33366C5.40667 7.33366 4.76666 7.95366 4.40666 8.50033C4.09999 8.08699 3.66666 7.63365 3.17999 7.43365V6.66699C3.17999 5.61366 3.62666 5.16699 4.67999 5.16699H4.66667ZM3.16667 8.61366C3.47333 8.90032 3.8 9.36033 4 9.73366C4.09333 9.907 4.28 10.0137 4.48 9.99366C4.68 9.98033 4.84666 9.84699 4.91333 9.66699C4.91333 9.65366 5.42 8.33366 6.22666 8.33366C7.03333 8.33366 7.52666 9.65366 7.53333 9.66699C7.60666 9.86699 7.79334 10.0003 8.00667 10.0003C8.22001 10.0003 8.40667 9.86699 8.48 9.66699C8.6 9.32033 9.1 8.33366 9.78666 8.33366C10.5933 8.33366 11.0933 9.65366 11.1 9.66699C11.1667 9.85366 11.34 9.98033 11.5333 9.99366C11.74 10.0137 11.92 9.907 12.0133 9.73366C12.2133 9.36033 12.54 8.90699 12.8467 8.61366V11.5003H3.17999V8.61366H3.16667ZM13.5 13.0003C13.5 13.2737 13.2733 13.5003 13 13.5003H3C2.72667 13.5003 2.5 13.2737 2.5 13.0003V12.5003H13.5V13.0003Z" fill="#3B3B3E"/>
</svg>
