<svg width="16" height="16" viewBox="0 0 16 16" fill="none" xmlns="http://www.w3.org/2000/svg">
<path d="M7.99992 13.167H3.33325C1.72125 13.167 0.833252 12.279 0.833252 10.667V4.66699C0.833252 3.05499 1.72125 2.16699 3.33325 2.16699H11.3333C12.9453 2.16699 13.8333 3.05499 13.8333 4.66699V7.33366C13.8333 7.60966 13.6093 7.83366 13.3333 7.83366C13.0573 7.83366 12.8333 7.60966 12.8333 7.33366V4.66699C12.8333 3.61566 12.3846 3.16699 11.3333 3.16699H3.33325C2.28192 3.16699 1.83325 3.61566 1.83325 4.66699V10.667C1.83325 11.7183 2.28192 12.167 3.33325 12.167H7.99992C8.27592 12.167 8.49992 12.391 8.49992 12.667C8.49992 12.943 8.27592 13.167 7.99992 13.167ZM8.01929 8.11966L11.2939 5.73832C11.5172 5.57632 11.5666 5.263 11.4039 5.03966C11.2426 4.817 10.93 4.76632 10.7053 4.92966L7.43058 7.31099C7.37192 7.35366 7.29394 7.35366 7.23527 7.31099L3.96053 4.92966C3.73586 4.76632 3.4233 4.81766 3.26196 5.03966C3.0993 5.263 3.14866 5.57566 3.37199 5.73832L6.64657 8.12032C6.8519 8.26965 7.0926 8.34366 7.3326 8.34366C7.5726 8.34366 7.81462 8.26899 8.01929 8.11966ZM14.054 14.3477C14.2913 14.173 14.4079 13.8843 14.3565 13.595L14.1879 12.629L14.9325 11.9183C15.1425 11.7177 15.2193 11.421 15.13 11.145C15.0406 10.867 14.8052 10.6683 14.5139 10.627L13.4745 10.479L13.0286 9.59366C12.8959 9.33032 12.6286 9.16699 12.3326 9.16699C12.0366 9.16699 11.7693 9.33032 11.6366 9.59366L11.1905 10.479L10.1513 10.627C9.85995 10.6683 9.62457 10.867 9.53524 11.145C9.4459 11.4217 9.522 11.7177 9.73267 11.9183L10.4773 12.629L10.3085 13.5943C10.2578 13.8843 10.3739 14.173 10.6112 14.3477C10.8519 14.5243 11.1672 14.5503 11.4319 14.413L12.3319 13.9503L13.2327 14.4137C13.346 14.4723 13.4686 14.501 13.5906 14.501C13.7552 14.5003 13.9166 14.449 14.054 14.3477ZM11.9846 13.005L11.3733 13.319L11.4872 12.669C11.5292 12.4217 11.4466 12.1703 11.2646 11.9963L10.7926 11.5457L11.4553 11.451C11.7007 11.4163 11.9139 11.2643 12.0273 11.0417L12.3333 10.4343L12.6405 11.0437C12.7532 11.2637 12.9658 11.4157 13.2112 11.4503L13.8739 11.545L13.4013 11.9963C13.22 12.1703 13.1373 12.4217 13.1799 12.6697L13.2932 13.319L12.6825 13.005C12.5732 12.949 12.4526 12.9203 12.3333 12.9203C12.2139 12.9203 12.094 12.949 11.9846 13.005ZM13.5326 10.5923H13.5393H13.5326ZM12.1366 10.045C12.1366 10.045 12.1367 10.0443 12.136 10.0443L12.1366 10.045Z" fill="#3B3B3E"/>
</svg>
