<svg width="16" height="16" viewBox="0 0 16 16" fill="none" xmlns="http://www.w3.org/2000/svg">
<path d="M8.00016 0.833008C4.04816 0.833008 0.833496 4.04767 0.833496 7.99967C0.833496 11.9517 4.04816 15.1663 8.00016 15.1663C11.9522 15.1663 15.1668 11.9517 15.1668 7.99967C15.1668 4.04767 11.9522 0.833008 8.00016 0.833008ZM8.00016 14.1663C4.5995 14.1663 1.8335 11.4003 1.8335 7.99967C1.8335 4.59901 4.5995 1.83301 8.00016 1.83301C11.4008 1.83301 14.1668 4.59901 14.1668 7.99967C14.1668 11.4003 11.4008 14.1663 8.00016 14.1663ZM11.7269 5.67301C11.4556 5.54301 11.1422 5.57894 10.9076 5.76628L10.3115 6.243C10.2075 5.40767 9.64824 4.93294 8.73291 4.93294H5.43343C4.41676 4.93294 3.8335 5.51637 3.8335 6.53304V9.46631C3.8335 10.483 4.41676 11.0664 5.43343 11.0664H8.73291C9.64758 11.0664 10.2075 10.591 10.3115 9.7557L10.9069 10.2316C11.0482 10.3449 11.2181 10.403 11.3901 10.403C11.5041 10.403 11.6196 10.377 11.7269 10.3257C11.9982 10.1957 12.1668 9.92762 12.1668 9.62695V6.37093C12.1668 6.07093 11.9982 5.80368 11.7269 5.67301ZM9.3335 9.46631C9.3335 9.92564 9.19356 10.0664 8.73356 10.0664H5.43408C4.97408 10.0664 4.83415 9.92631 4.83415 9.46631V6.53304C4.83415 6.07371 4.97408 5.93294 5.43408 5.93294H8.73356C9.19356 5.93294 9.3335 6.07304 9.3335 6.53304V9.46631ZM11.1668 9.15902L10.3335 8.49235V7.50635L11.1668 6.83968V9.15902Z" fill="#3B3B3E"/>
</svg>
