<svg width="16" height="16" viewBox="0 0 16 16" fill="none" xmlns="http://www.w3.org/2000/svg">
<path d="M14 3.5C13.724 3.5 13.5 3.724 13.5 4V6.33203L10.4054 3.88802C9.86202 3.45935 9.13937 3.38065 8.51603 3.68132C7.88937 3.98532 7.5 4.60859 7.5 5.30859V6.33138L4.40535 3.88737C3.86202 3.4587 3.13937 3.38 2.51603 3.68066C1.88937 3.98466 1.5 4.60794 1.5 5.30794V10.6899C1.5 11.3899 1.88937 12.0134 2.51603 12.3174C2.7667 12.4387 3.03333 12.498 3.29867 12.498C3.692 12.498 4.08069 12.3667 4.40535 12.11L7.5 9.66602V10.6893C7.5 11.3893 7.88937 12.0127 8.51603 12.3167C8.7667 12.4381 9.03333 12.4974 9.29867 12.4974C9.692 12.4974 10.0807 12.366 10.4054 12.1094L13.5 9.66536V12C13.5 12.276 13.724 12.5 14 12.5C14.276 12.5 14.5 12.276 14.5 12V4C14.5 3.724 14.276 3.5 14 3.5ZM7.19336 8.63607L3.78597 11.3273C3.54264 11.52 3.23197 11.5539 2.95264 11.4193C2.6693 11.2819 2.5 11.0101 2.5 10.6921V5.31006C2.5 4.99139 2.6693 4.72002 2.95264 4.58268C3.0653 4.52802 3.1833 4.5013 3.29997 4.5013C3.47197 4.5013 3.6413 4.55999 3.78597 4.67399L7.19336 7.36475C7.38803 7.51875 7.5 7.75065 7.5 8.00065C7.5 8.25065 7.38803 8.48207 7.19336 8.63607ZM13.1934 8.63607L9.78597 11.3273C9.54264 11.52 9.23197 11.5539 8.95264 11.4193C8.6693 11.2819 8.5 11.0101 8.5 10.6921V5.31006C8.5 4.99139 8.6693 4.72002 8.95264 4.58268C9.0653 4.52802 9.1833 4.5013 9.29997 4.5013C9.47197 4.5013 9.6413 4.55999 9.78597 4.67399L13.1934 7.36475C13.388 7.51875 13.5 7.75065 13.5 8.00065C13.5 8.25065 13.388 8.48207 13.1934 8.63607Z" fill="#3B3B3E"/>
</svg>
