<svg width="16" height="16" viewBox="0 0 16 16" fill="none" xmlns="http://www.w3.org/2000/svg">
<path d="M6.17329 3.66667C6.17329 3.39333 6.39329 3.16667 6.67329 3.16667C6.95329 3.16667 7.17329 3.39333 7.17329 3.66667C7.17329 3.94 6.95329 4.16667 6.67329 4.16667C6.39329 4.16667 6.17329 3.94 6.17329 3.66667ZM9.33996 4.16667C9.61996 4.16667 9.83996 3.94 9.83996 3.66667C9.83996 3.39333 9.61996 3.16667 9.33996 3.16667C9.06663 3.16667 8.83996 3.39333 8.83996 3.66667C8.83996 3.94 9.06663 4.16667 9.33996 4.16667ZM8.00663 4.83333C8.28663 4.83333 8.50663 4.60667 8.50663 4.33333C8.50663 4.06 8.28663 3.83333 8.00663 3.83333C7.73329 3.83333 7.50663 4.06 7.50663 4.33333C7.50663 4.60667 7.73329 4.83333 8.00663 4.83333ZM12.36 12.5C12.4066 13.0133 12.2333 13.52 11.8866 13.9C11.5399 14.28 11.0466 14.5 10.5333 14.5H5.45328C4.93995 14.5 4.44662 14.28 4.09995 13.9C3.75328 13.52 3.57996 13.0067 3.62662 12.5L4.15995 6.63999V5.33333C4.15995 3.22 5.87995 1.5 7.99328 1.5C10.1066 1.5 11.8266 3.22 11.8266 5.33333V6.63999L12.36 12.5V12.5ZM5.15995 5.33333V6.16667H10.8266V5.33333C10.8266 3.77333 9.55328 2.5 7.99328 2.5C6.43328 2.5 5.15995 3.77333 5.15995 5.33333ZM11.36 12.5933L10.8666 7.16667H5.1133L4.61995 12.5933C4.59995 12.8267 4.67329 13.0533 4.83329 13.2333C4.99329 13.4067 5.2133 13.5067 5.44663 13.5067H10.5266C10.7666 13.5067 10.9799 13.4133 11.1399 13.2333C11.2999 13.06 11.3733 12.8333 11.3533 12.5933H11.36ZM6.65995 8.16667C6.38661 8.16667 6.15995 8.39333 6.15995 8.66667V12C6.15995 12.2733 6.38661 12.5 6.65995 12.5C6.93328 12.5 7.15995 12.2733 7.15995 12V8.66667C7.15995 8.39333 6.93328 8.16667 6.65995 8.16667ZM9.32661 8.16667C9.05328 8.16667 8.82661 8.39333 8.82661 8.66667V12C8.82661 12.2733 9.05328 12.5 9.32661 12.5C9.59995 12.5 9.82661 12.2733 9.82661 12V8.66667C9.82661 8.39333 9.59995 8.16667 9.32661 8.16667Z" fill="#3B3B3E"/>
</svg>
