<svg width="16" height="16" viewBox="0 0 16 16" fill="none" xmlns="http://www.w3.org/2000/svg">
<path d="M7.83329 13.4128V7.5908C8.00929 7.55547 8.18266 7.5028 8.34932 7.43014L12.7859 5.4588C12.8093 5.56414 12.8333 5.66949 12.8333 5.78015V7.33281C12.8333 7.60881 13.0573 7.83281 13.3333 7.83281C13.6093 7.83281 13.8333 7.60881 13.8333 7.33281V5.78015C13.8333 5.35549 13.7199 4.95081 13.5253 4.59214C13.5239 4.58948 13.5246 4.58682 13.5233 4.58415C13.5206 4.57748 13.5146 4.57349 13.5113 4.56749C13.2526 4.10415 12.854 3.72148 12.3493 3.49748L8.35128 1.71881C7.70328 1.42881 6.96194 1.42814 6.31661 1.71814L2.31661 3.49748C1.81261 3.72148 1.41333 4.10415 1.15466 4.56749C1.15133 4.57415 1.14529 4.57815 1.14262 4.58482C1.14129 4.58749 1.142 4.59015 1.14067 4.59282C0.945999 4.95148 0.832642 5.35614 0.832642 5.7808V10.2188C0.832642 11.2048 1.41528 12.1008 2.31661 12.5015L6.31466 14.2795C6.64066 14.4261 6.98793 14.5001 7.33459 14.5001C7.61659 14.5001 7.89865 14.4515 8.16931 14.3535C8.42931 14.2595 8.56328 13.9728 8.46928 13.7135C8.37661 13.4548 8.08996 13.3215 7.83329 13.4128ZM6.7253 2.63147C7.1113 2.45747 7.55465 2.45814 7.94332 2.63214L11.9433 4.41148C12.0553 4.46148 12.1533 4.53081 12.2479 4.60415L10.4293 5.41215L5.59265 3.13548L6.7253 2.63147ZM4.38529 3.67214L9.22131 5.94881L7.94666 6.51548C7.55599 6.68548 7.1086 6.68481 6.72327 6.51681L2.41866 4.60415C2.51266 4.53081 2.61127 4.46148 2.72327 4.41148L4.38529 3.67214ZM2.72327 11.5875C2.1826 11.3475 1.83329 10.8095 1.83329 10.2181V5.78015C1.83329 5.66949 1.85732 5.56414 1.88066 5.4588L6.3206 7.43148C6.4866 7.50348 6.65861 7.55613 6.83394 7.5908V13.4041C6.79728 13.3908 6.76 13.3828 6.724 13.3668L2.72327 11.5875ZM12 8.16614C10.254 8.16614 8.83329 9.58681 8.83329 11.3328C8.83329 13.0788 10.254 14.4995 12 14.4995C13.746 14.4995 15.1666 13.0788 15.1666 11.3328C15.1666 9.58681 13.746 8.16614 12 8.16614ZM12 13.4995C10.8053 13.4995 9.83329 12.5275 9.83329 11.3328C9.83329 10.1381 10.8053 9.16614 12 9.16614C13.1946 9.16614 14.1666 10.1381 14.1666 11.3328C14.1666 12.5275 13.1946 13.4995 12 13.4995ZM13.02 11.0195L12.7067 11.3328L13.02 11.6461C13.2153 11.8415 13.2153 12.1581 13.02 12.3535C12.9226 12.4508 12.7946 12.5001 12.6666 12.5001C12.5386 12.5001 12.4106 12.4515 12.3133 12.3535L12 12.0401L11.6866 12.3535C11.5893 12.4508 11.4613 12.5001 11.3333 12.5001C11.2053 12.5001 11.0773 12.4515 10.9799 12.3535C10.7846 12.1581 10.7846 11.8415 10.9799 11.6461L11.2933 11.3328L10.9799 11.0195C10.7846 10.8241 10.7846 10.5075 10.9799 10.3121C11.1753 10.1168 11.492 10.1168 11.6873 10.3121L12.0006 10.6255L12.3139 10.3121C12.5093 10.1168 12.8259 10.1168 13.0213 10.3121C13.2153 10.5075 13.2153 10.8241 13.02 11.0195Z" fill="#3B3B3E"/>
</svg>
