<svg width="16" height="16" viewBox="0 0 16 16" fill="none" xmlns="http://www.w3.org/2000/svg">
<path d="M11.236 13.038C11.0087 13.3487 10.6047 13.5 10 13.5H4C2.94867 13.5 2.5 13.0513 2.5 12V4C2.5 2.94867 2.94867 2.5 4 2.5H7.5V4C7.5 5.612 8.388 6.5 10 6.5H11.5V8C11.5 8.276 11.724 8.5 12 8.5C12.276 8.5 12.5 8.276 12.5 8V6C12.5 5.86733 12.4474 5.74 12.3534 5.64667L8.35335 1.64667C8.25935 1.55267 8.13267 1.5 8 1.5H4C2.388 1.5 1.5 2.388 1.5 4V12C1.5 13.612 2.388 14.5 4 14.5H10C10.9327 14.5 11.6206 14.2073 12.0433 13.6287C12.206 13.406 12.1581 13.0933 11.9354 12.93C11.7107 12.766 11.4 12.816 11.236 13.038ZM8.5 4V3.20734L10.7926 5.5H10C8.94867 5.5 8.5 5.05133 8.5 4ZM15.1667 10.6667C15.1667 10.9427 14.9427 11.1667 14.6667 11.1667H9.87402L10.354 11.6467C10.5493 11.842 10.5493 12.1587 10.354 12.354C10.2567 12.4513 10.1287 12.5007 10.0007 12.5007C9.87265 12.5007 9.74463 12.452 9.6473 12.354L8.31397 11.0207C8.26797 10.9747 8.23139 10.9193 8.20605 10.858C8.15539 10.736 8.15539 10.598 8.20605 10.476C8.23139 10.4147 8.26797 10.3593 8.31397 10.3133L9.6473 8.98C9.84263 8.78467 10.1593 8.78467 10.3547 8.98C10.55 9.17533 10.55 9.492 10.3547 9.68734L9.87467 10.1673H14.6667C14.9427 10.1667 15.1667 10.3907 15.1667 10.6667Z" fill="#3B3B3E"/>
</svg>
