<svg width="16" height="16" viewBox="0 0 16 16" fill="none" xmlns="http://www.w3.org/2000/svg">
<path d="M8.00016 15.1663C4.04816 15.1663 0.833496 11.9517 0.833496 7.99967C0.833496 4.04767 4.04816 0.833008 8.00016 0.833008C11.9522 0.833008 15.1668 4.04767 15.1668 7.99967C15.1668 11.9517 11.9522 15.1663 8.00016 15.1663ZM8.00016 1.83301C4.5995 1.83301 1.8335 4.59901 1.8335 7.99967C1.8335 11.4003 4.5995 14.1663 8.00016 14.1663C11.4008 14.1663 14.1668 11.4003 14.1668 7.99967C14.1668 4.59901 11.4008 1.83301 8.00016 1.83301ZM9.45882 10.833H6.54215C5.68149 10.833 5.16748 10.319 5.16748 9.45833V6.54167C5.16748 5.68033 5.68149 5.16699 6.54215 5.16699H9.45882C10.3195 5.16699 10.8335 5.681 10.8335 6.54167V9.45833C10.8335 10.319 10.3195 10.833 9.45882 10.833ZM6.5415 6.16634C6.23284 6.16634 6.16683 6.23302 6.16683 6.54102V9.45768C6.16683 9.76568 6.2335 9.83236 6.5415 9.83236H9.45817C9.76684 9.83236 9.83284 9.76568 9.83284 9.45768V6.54102C9.83284 6.23302 9.76617 6.16634 9.45817 6.16634H6.5415Z" fill="#3B3B3E"/>
</svg>
