<svg width="16" height="16" viewBox="0 0 16 16" fill="none" xmlns="http://www.w3.org/2000/svg">
<path d="M7.83008 13.9213C7.86208 14.196 7.66593 14.444 7.39193 14.4766C7.25859 14.4926 7.13333 14.5 7 14.5C3.96733 14.5 1.5 12.0327 1.5 9C1.5 5.96733 3.96733 3.5 7 3.5C8.23267 3.5 9.38872 3.922 10.3241 4.63534L10.98 3.97933C11.1753 3.784 11.492 3.784 11.6873 3.97933C11.8827 4.17466 11.8827 4.49135 11.6873 4.68669L11.0586 5.31535C11.5399 5.84602 11.9327 6.46397 12.1787 7.16797C12.27 7.42864 12.1327 7.71401 11.8721 7.80534C11.6107 7.89467 11.326 7.7587 11.2347 7.4987C10.6067 5.70536 8.90467 4.5 7 4.5C4.51867 4.5 2.5 6.51867 2.5 9C2.5 11.4813 4.51867 13.5 7 13.5C7.09333 13.5 7.18141 13.4946 7.27474 13.484C7.55074 13.4453 7.79741 13.6473 7.83008 13.9213ZM6.5 6.66667V9C6.5 9.276 6.724 9.5 7 9.5C7.276 9.5 7.5 9.276 7.5 9V6.66667C7.5 6.39067 7.276 6.16667 7 6.16667C6.724 6.16667 6.5 6.39067 6.5 6.66667ZM5.33333 2.5H8.66667C8.94267 2.5 9.16667 2.276 9.16667 2C9.16667 1.724 8.94267 1.5 8.66667 1.5H5.33333C5.05733 1.5 4.83333 1.724 4.83333 2C4.83333 2.276 5.05733 2.5 5.33333 2.5ZM15.1667 10.5873C15.166 10.8793 15.052 11.154 14.8454 11.36L11.168 15.0207C11.074 15.114 10.9473 15.166 10.8153 15.166H9.33333C9.05733 15.166 8.83333 14.942 8.83333 14.666V13.1847C8.83333 13.0527 8.88533 12.9254 8.97933 12.832L12.64 9.1547C12.846 8.94737 13.1199 8.83333 13.4119 8.83333C13.4126 8.83333 13.4134 8.83333 13.4141 8.83333C13.7061 8.83333 13.98 8.94665 14.186 9.15332L14.846 9.81331C15.0534 10.02 15.1667 10.2953 15.1667 10.5873ZM13.3486 9.86068L12.9253 10.286L13.7147 11.0747L14.1393 10.652C14.162 10.63 14.1667 10.604 14.1667 10.5867C14.1667 10.5693 14.162 10.5433 14.1393 10.5207L13.4793 9.86068C13.4567 9.83801 13.4314 9.83333 13.4141 9.83333H13.4134C13.3967 9.83333 13.3713 9.83801 13.3486 9.86068ZM13.006 11.78L12.2201 10.994L9.83268 13.3914V14.1667H10.6081L13.006 11.78Z" fill="#3B3B3E"/>
</svg>
