<svg width="16" height="16" viewBox="0 0 16 16" fill="none" xmlns="http://www.w3.org/2000/svg">
<path d="M13.7273 4.41299L8.89071 1.73102C8.33204 1.42169 7.66736 1.42169 7.11003 1.73102L2.27271 4.41299C1.79604 4.67699 1.5 5.17968 1.5 5.72435V13.0004C1.5 13.8277 2.17333 14.5004 3 14.5004H13C13.8267 14.5004 14.5 13.8277 14.5 13.0004V5.72435C14.5 5.17968 14.204 4.67699 13.7273 4.41299ZM4.83333 10.5004H11.1667V11.5004H4.83333V10.5004ZM11.1667 9.50039H4.83333V9.00039C4.83333 8.60773 4.94067 8.50039 5.33333 8.50039H10.6667C11.0593 8.50039 11.1667 8.60773 11.1667 9.00039V9.50039ZM4.83333 12.5004H11.1667V13.5004H4.83333V12.5004ZM13.5 13.0004C13.5 13.2764 13.2753 13.5004 13 13.5004H12.1667V9.00039C12.1667 8.06106 11.606 7.50039 10.6667 7.50039H5.33333C4.394 7.50039 3.83333 8.06106 3.83333 9.00039V13.5004H3C2.72467 13.5004 2.5 13.2764 2.5 13.0004V5.72435C2.5 5.54302 2.59799 5.37568 2.75732 5.28701L7.5953 2.60505C7.7213 2.53505 7.86067 2.49974 8 2.49974C8.13933 2.49974 8.27869 2.53505 8.40536 2.60505L13.2427 5.28701C13.4013 5.37501 13.5 5.54235 13.5 5.72435V13.0004ZM9.5 5.33373C9.5 5.60973 9.276 5.83373 9 5.83373H7C6.724 5.83373 6.5 5.60973 6.5 5.33373C6.5 5.05773 6.724 4.83373 7 4.83373H9C9.276 4.83373 9.5 5.05773 9.5 5.33373Z" fill="#3B3B3E"/>
</svg>
