<svg width="16" height="16" viewBox="0 0 16 16" fill="none" xmlns="http://www.w3.org/2000/svg">
<path d="M8.00016 15.1663C4.04683 15.1663 0.833496 11.953 0.833496 7.99967C0.833496 4.04634 4.04683 0.833008 8.00016 0.833008C11.9535 0.833008 15.1668 4.04634 15.1668 7.99967C15.1668 11.953 11.9535 15.1663 8.00016 15.1663ZM8.00016 1.83301C4.60016 1.83301 1.8335 4.59967 1.8335 7.99967C1.8335 11.3997 4.60016 14.1663 8.00016 14.1663C11.4002 14.1663 14.1668 11.3997 14.1668 7.99967C14.1668 4.59967 11.4002 1.83301 8.00016 1.83301ZM10.8335 6.66634C10.8335 5.99301 10.4802 5.49967 10.0002 5.49967C9.52016 5.49967 9.16683 5.99301 9.16683 6.66634C9.16683 7.33967 9.52016 7.83301 10.0002 7.83301C10.4802 7.83301 10.8335 7.33967 10.8335 6.66634ZM6.8335 6.66634C6.8335 5.99301 6.48016 5.49967 6.00016 5.49967C5.52016 5.49967 5.16683 5.99301 5.16683 6.66634C5.16683 7.33967 5.52016 7.83301 6.00016 7.83301C6.48016 7.83301 6.8335 7.33967 6.8335 6.66634ZM11.0668 10.2997C11.2335 10.0797 11.1935 9.76634 10.9735 9.59967C10.7535 9.433 10.4402 9.473 10.2735 9.693C9.72683 10.413 8.90016 10.8263 8.00683 10.8263C7.11349 10.8263 6.28016 10.3997 5.74683 9.693C5.58016 9.473 5.26683 9.42634 5.04683 9.59301C4.82683 9.75967 4.78016 10.073 4.94683 10.293C5.66683 11.253 6.81349 11.8263 8.00683 11.8263C9.20016 11.8263 10.3335 11.2663 11.0735 10.293L11.0668 10.2997Z" fill="#3B3B3E"/>
</svg>
