<svg width="16" height="16" viewBox="0 0 16 16" fill="none" xmlns="http://www.w3.org/2000/svg">
<path d="M15.0747 10.4667C14.8633 9.52203 14.304 8.73069 13.5407 8.29669C10.1393 6.36269 6.064 6.33203 2.63733 8.21403C1.78467 8.6827 1.16325 9.49402 0.93258 10.44C0.701913 11.384 0.879922 12.388 1.42526 13.2014C1.69192 13.602 2.13925 13.8327 2.60592 13.8327C2.72325 13.8327 2.84134 13.818 2.95667 13.7887L4.77259 13.324C5.67659 13.0927 6.2406 12.194 6.0566 11.278L5.90133 10.504C7.26533 10.042 8.76737 10.04 10.1287 10.4987L9.97392 11.2827C9.79259 12.198 10.358 13.0934 11.2614 13.3214L13.0874 13.7833C13.6534 13.926 14.2493 13.7147 14.5713 13.258C15.1153 12.4833 15.2987 11.466 15.0747 10.4667ZM13.7526 12.682C13.6686 12.8007 13.4967 12.8547 13.3313 12.8134L11.5053 12.3514C11.1187 12.2534 10.8766 11.8694 10.9539 11.4767L11.1914 10.276C11.238 10.0414 11.1119 9.80669 10.8906 9.71602C9.06592 8.96736 6.96801 8.97003 5.13668 9.7227C4.91535 9.81336 4.78922 10.0487 4.83655 10.284L5.07597 11.4754C5.15531 11.87 4.91335 12.2567 4.52535 12.356L2.70927 12.8207C2.53394 12.8647 2.35528 12.7947 2.25061 12.638C1.86061 12.056 1.73728 11.3593 1.90328 10.6773C2.06728 10.0033 2.50996 9.42468 3.11796 9.09135C4.6553 8.24668 6.33461 7.82536 8.01461 7.82536C9.74528 7.82536 11.474 8.27268 13.0454 9.16602C13.564 9.46135 13.9479 10.0147 14.0979 10.6854C14.2593 11.3994 14.1292 12.146 13.7526 12.682ZM4.16663 4.66669V2.66669C4.16663 2.60135 4.18003 2.5367 4.20537 2.47536C4.25603 2.3527 4.35337 2.25536 4.47604 2.20469C4.53737 2.17936 4.60195 2.16602 4.66728 2.16602H6.66728C6.94328 2.16602 7.16728 2.39002 7.16728 2.66602C7.16728 2.94202 6.94328 3.16602 6.66728 3.16602H5.87464L7.41191 4.70335C7.73724 5.02802 8.26462 5.02802 8.59062 4.70335L10.9812 2.31268C11.1766 2.11735 11.4933 2.11735 11.6886 2.31268C11.8839 2.50802 11.8839 2.82469 11.6886 3.02002L9.29798 5.41069C8.94064 5.76802 8.47125 5.9467 8.00192 5.9467C7.53258 5.9467 7.06335 5.76802 6.70602 5.41069L5.16858 3.87335V4.66669C5.16858 4.94269 4.94458 5.16669 4.66858 5.16669C4.39258 5.16669 4.16663 4.94269 4.16663 4.66669Z" fill="#3B3B3E"/>
</svg>
