<svg width="16" height="16" viewBox="0 0 16 16" fill="none" xmlns="http://www.w3.org/2000/svg">
<path d="M13.472 5.42718L9.39201 2.00652C8.58601 1.32986 7.41399 1.32986 6.60799 2.00652L2.52799 5.42718C1.89066 5.95584 1.5 6.35187 1.5 7.76653V11.9999C1.5 13.6119 2.388 14.4999 4 14.4999H12C13.612 14.4999 14.5 13.6119 14.5 11.9999V7.76653C14.5 6.35187 14.1093 5.95584 13.472 5.42718ZM13.5 11.9999C13.5 13.0512 13.0513 13.4999 12 13.4999H4C2.94867 13.4999 2.5 13.0512 2.5 11.9999V7.76653C2.5 6.7492 2.66802 6.60988 3.16602 6.19655L7.25 2.77256C7.46733 2.59056 7.734 2.4992 8 2.4992C8.266 2.4992 8.53267 2.59056 8.75 2.77256L12.834 6.19655C13.332 6.60988 13.5 6.7492 13.5 7.76653V11.9999ZM10.6347 7.62916L9.31803 7.43922L8.75 6.29786C8.608 6.0112 8.32002 5.83318 7.99935 5.83318C7.67868 5.83318 7.3907 6.01121 7.2487 6.29721L6.68066 7.43922L5.36401 7.62916C5.05335 7.67383 4.80132 7.88717 4.70532 8.1845C4.60866 8.48117 4.68933 8.8005 4.91333 9.01784L5.86263 9.93589L5.64665 11.1865C5.59198 11.5012 5.71863 11.8139 5.9773 12.0032C6.23663 12.1925 6.57469 12.2185 6.86003 12.0698L7.9987 11.4765L9.13802 12.0705C9.26135 12.1345 9.39403 12.1665 9.52669 12.1665C9.70069 12.1665 9.87335 12.1118 10.02 12.0045C10.2787 11.8158 10.4053 11.5038 10.3513 11.1878L10.1347 9.93589L11.084 9.01784C11.3087 8.8005 11.3887 8.48117 11.292 8.1845C11.1973 7.88717 10.9454 7.67383 10.6347 7.62916ZM9.37069 9.28582C9.17669 9.47315 9.08803 9.74314 9.13403 10.0085L9.31136 11.0325L8.37996 10.5465C8.26063 10.4838 8.13065 10.4532 8.00065 10.4532C7.87132 10.4532 7.74136 10.4838 7.62402 10.5458L6.69133 11.0318L6.86865 10.0078C6.91399 9.74249 6.82598 9.47249 6.63265 9.28582L5.88664 8.56455L6.92131 8.41521C7.18597 8.37721 7.41604 8.21187 7.5367 7.9712L8.00269 7.03322L8.46932 7.97186C8.58932 8.21119 8.81868 8.37648 9.08268 8.41448L10.1187 8.56382L9.37069 9.28582Z" fill="#3B3B3E"/>
</svg>
