<svg width="16" height="16" viewBox="0 0 16 16" fill="none" xmlns="http://www.w3.org/2000/svg">
<path d="M12 13.833H4C2.388 13.833 1.5 12.945 1.5 11.333V5.33301C1.5 3.72101 2.388 2.83301 4 2.83301H12C13.612 2.83301 14.5 3.72101 14.5 5.33301V11.333C14.5 12.945 13.612 13.833 12 13.833ZM4 3.83301C2.94867 3.83301 2.5 4.28167 2.5 5.33301V11.333C2.5 12.3843 2.94867 12.833 4 12.833H12C13.0513 12.833 13.5 12.3843 13.5 11.333V5.33301C13.5 4.28167 13.0513 3.83301 12 3.83301H4ZM8.68604 8.78568L11.9606 6.40434C12.1839 6.24234 12.2333 5.92901 12.0706 5.70568C11.9086 5.48301 11.5967 5.43234 11.3721 5.59567L8.09733 7.97701C8.03866 8.01968 7.96069 8.01968 7.90202 7.97701L4.62728 5.59567C4.40195 5.43234 4.09071 5.48368 3.92871 5.70568C3.76604 5.92901 3.8154 6.24167 4.03874 6.40434L7.31331 8.78634C7.51865 8.93567 7.75935 9.00967 7.99935 9.00967C8.23935 9.00967 8.48137 8.93501 8.68604 8.78568Z" fill="#3B3B3E"/>
</svg>
