<svg width="16" height="16" viewBox="0 0 16 16" fill="none" xmlns="http://www.w3.org/2000/svg">
<path d="M11.75 1.5H4.25C2.47667 1.5 1.5 2.47667 1.5 4.25V11.75C1.5 13.5233 2.47667 14.5 4.25 14.5H11.75C13.5233 14.5 14.5 13.5233 14.5 11.75V4.25C14.5 2.47667 13.5233 1.5 11.75 1.5ZM13.5 11.75C13.5 12.9767 12.9767 13.5 11.75 13.5H4.25C3.02333 13.5 2.5 12.9767 2.5 11.75V4.25C2.5 3.02333 3.02333 2.5 4.25 2.5H11.75C12.9767 2.5 13.5 3.02333 13.5 4.25V11.75ZM11.7267 5.67334C11.4561 5.54334 11.1414 5.57927 10.9074 5.7666L10.3114 6.24333C10.2074 5.40799 9.64808 4.93327 8.73275 4.93327H5.43327C4.4166 4.93327 3.83333 5.5167 3.83333 6.53337V9.46663C3.83333 10.4833 4.4166 11.0667 5.43327 11.0667H8.73275C9.64741 11.0667 10.2074 10.5914 10.3114 9.75602L10.9067 10.2319C11.0481 10.3453 11.218 10.4033 11.39 10.4033C11.504 10.4033 11.6194 10.3773 11.7267 10.326C11.9981 10.196 12.1667 9.92795 12.1667 9.62728V6.37126C12.1667 6.07126 11.9981 5.80401 11.7267 5.67334ZM9.33333 9.46663C9.33333 9.92597 9.1934 10.0667 8.7334 10.0667H5.43392C4.97392 10.0667 4.83398 9.92663 4.83398 9.46663V6.53337C4.83398 6.07403 4.97392 5.93327 5.43392 5.93327H8.7334C9.1934 5.93327 9.33333 6.07337 9.33333 6.53337V9.46663ZM11.1667 9.15934L10.3333 8.49268V7.50667L11.1667 6.84001V9.15934Z" fill="#3B3B3E"/>
</svg>
