<svg width="16" height="16" viewBox="0 0 16 16" fill="none" xmlns="http://www.w3.org/2000/svg">
<path d="M11.75 1.5H4.25C2.47667 1.5 1.5 2.47667 1.5 4.25V11.75C1.5 13.5233 2.47667 14.5 4.25 14.5H11.75C13.5233 14.5 14.5 13.5233 14.5 11.75V4.25C14.5 2.47667 13.5233 1.5 11.75 1.5ZM13.5 11.75C13.5 12.9767 12.9767 13.5 11.75 13.5H4.25C3.02333 13.5 2.5 12.9767 2.5 11.75V4.25C2.5 3.02333 3.02333 2.5 4.25 2.5H11.75C12.9767 2.5 13.5 3.02333 13.5 4.25V11.75ZM11.4621 8.70996C11.5387 8.89663 11.4967 9.11205 11.3534 9.25472L9.55339 11.0547C9.45605 11.152 9.32803 11.2013 9.20003 11.2013C9.07203 11.2013 8.94401 11.1527 8.84668 11.0547C8.65135 10.8594 8.65135 10.5427 8.84668 10.3473L9.79329 9.40137H6.20003C5.92403 9.40137 5.70003 9.17737 5.70003 8.90137C5.70003 8.62537 5.92403 8.40137 6.20003 8.40137H11C11.2027 8.40137 11.3847 8.52329 11.4621 8.70996ZM9.79997 7.6014H5C4.79733 7.6014 4.61526 7.47931 4.53792 7.29264C4.46126 7.10598 4.50331 6.89071 4.64665 6.74805L6.44661 4.94808C6.64195 4.75275 6.95864 4.75275 7.15397 4.94808C7.3493 5.14341 7.3493 5.45994 7.15397 5.65527L6.20736 6.60205H9.80062C10.0766 6.60205 10.3006 6.82605 10.3006 7.10205C10.3006 7.37805 10.076 7.6014 9.79997 7.6014Z" fill="#3B3B3E"/>
</svg>
