<svg width="16" height="16" viewBox="0 0 16 16" fill="none" xmlns="http://www.w3.org/2000/svg">
<path d="M11.6667 9.49992H10.36C9.96666 9.49992 9.60667 9.69325 9.38667 10.0199L9.06667 10.4999H5.6L5.28 10.0199C5.06 9.69325 4.7 9.49992 4.30667 9.49992H3C2.17333 9.49992 1.5 10.1733 1.5 10.9999V12.9999C1.5 13.8266 2.17333 14.4999 3 14.4999H4.30667C4.7 14.4999 5.06 14.3066 5.28 13.9799L5.6 13.4999H9.06667L9.38667 13.9799C9.60667 14.3066 9.96666 14.4999 10.36 14.4999H11.6733C12.5 14.4999 13.1733 13.8266 13.1733 12.9999V10.9999C13.1733 10.1733 12.5 9.49992 11.6733 9.49992H11.6667ZM12.1667 12.9999C12.1667 13.2733 11.94 13.4999 11.6667 13.4999H10.3533C10.3 13.4999 10.2467 13.4733 10.2133 13.4266L9.80667 12.8133C9.67334 12.6199 9.46 12.4999 9.22666 12.4999H5.44C5.20667 12.4999 4.98666 12.6133 4.86 12.8133L4.45333 13.4266C4.41999 13.4733 4.37333 13.4999 4.31333 13.4999H3.00666C2.73333 13.4999 2.50666 13.2733 2.50666 12.9999V10.9999C2.50666 10.7266 2.73333 10.4999 3.00666 10.4999H4.31333C4.36667 10.4999 4.41999 10.5266 4.45333 10.5733L4.86 11.1866C4.99333 11.3799 5.20667 11.4999 5.44 11.4999H9.22666C9.46 11.4999 9.68 11.3866 9.80667 11.1866L10.2133 10.5733C10.2467 10.5266 10.2933 10.4999 10.3533 10.4999H11.66C11.9333 10.4999 12.16 10.7266 12.16 10.9999V12.9999H12.1667ZM14.42 4.41325L13.78 2.51992C13.6533 2.13992 13.38 1.83325 13.0267 1.65325C12.6667 1.47325 12.26 1.44658 11.88 1.57992L10.64 1.99992C10.2667 2.12659 9.98667 2.42658 9.88667 2.79992L9.74 3.35991L6.46 4.46658L6 4.11325C5.69333 3.87325 5.28666 3.80658 4.91333 3.93325L3.67333 4.35325C3.29333 4.47992 2.98667 4.74659 2.80667 5.10659C2.62667 5.46659 2.6 5.87326 2.73334 6.25326L3.37333 8.14659C3.58666 8.77325 4.16667 9.16659 4.79333 9.16659C4.95333 9.16659 5.11334 9.13992 5.27334 9.08659L6.51334 8.66659C6.88667 8.53992 7.16666 8.23992 7.26666 7.86659L7.42 7.30659L10.7 6.19992L11.16 6.55325C11.4667 6.79325 11.8733 6.85992 12.2467 6.73326L13.4867 6.31325C14.2667 6.04659 14.6933 5.19325 14.4267 4.41325H14.42ZM13.16 5.36659L11.92 5.78658C11.8667 5.80658 11.8067 5.79325 11.7667 5.75992L11.18 5.30659C10.9933 5.16659 10.7533 5.12659 10.5267 5.19992L6.94 6.41325C6.72 6.48658 6.54666 6.66658 6.48666 6.89325L6.29333 7.60659C6.28 7.65992 6.24 7.69992 6.18667 7.71992L4.94667 8.13992C4.68667 8.22659 4.4 8.08659 4.31333 7.82659L3.67333 5.93325C3.63333 5.80658 3.64 5.67325 3.7 5.55325C3.76 5.43325 3.86 5.34658 3.98666 5.29992L5.22666 4.87992C5.22666 4.87992 5.26 4.87325 5.28 4.87325C5.31333 4.87325 5.35334 4.88659 5.38 4.90659L5.96666 5.35991C6.15333 5.50658 6.39999 5.54659 6.61999 5.47326L10.2067 4.25992C10.4267 4.18659 10.5933 4.00658 10.66 3.77992L10.8533 3.06659C10.8667 3.01326 10.9067 2.96658 10.96 2.95325L12.2 2.53325C12.3267 2.49325 12.46 2.49992 12.58 2.55992C12.7 2.61992 12.7867 2.71992 12.8333 2.84659L13.4733 4.73992C13.56 4.99992 13.42 5.28658 13.16 5.37325V5.36659Z" fill="#3B3B3E"/>
</svg>
