<svg width="16" height="16" viewBox="0 0 16 16" fill="none" xmlns="http://www.w3.org/2000/svg">
<path d="M11.75 1.5H4.25C2.47667 1.5 1.5 2.47667 1.5 4.25V11.75C1.5 13.5233 2.47667 14.5 4.25 14.5H11.75C13.5233 14.5 14.5 13.5233 14.5 11.75V4.25C14.5 2.47667 13.5233 1.5 11.75 1.5ZM13.5 11.75C13.5 12.9767 12.9767 13.5 11.75 13.5H4.25C3.02333 13.5 2.5 12.9767 2.5 11.75V4.25C2.5 3.02333 3.02333 2.5 4.25 2.5H11.75C12.9767 2.5 13.5 3.02333 13.5 4.25V11.75ZM12.3467 6.88867C12.3467 7.44134 11.8993 7.88867 11.3467 7.88867C11.254 7.88867 11.166 7.87198 11.0807 7.84798L10.084 8.84473C10.1073 8.93006 10.124 9.01801 10.124 9.11068C10.124 9.66334 9.67667 10.1107 9.124 10.1107C8.57134 10.1107 8.12067 9.66334 8.12067 9.11068C8.12067 9.02468 8.13467 8.94198 8.15533 8.86198L7.14734 7.85466C7.06801 7.87466 6.98666 7.88867 6.902 7.88867C6.80933 7.88867 6.72134 7.87197 6.63601 7.84863L5.63934 8.84473C5.66268 8.93006 5.67934 9.01801 5.67934 9.11068C5.67934 9.66334 5.23201 10.1107 4.67934 10.1107C4.12668 10.1107 3.67601 9.66334 3.67601 9.11068C3.67601 8.55801 4.12067 8.11068 4.67267 8.11068H4.67934C4.76468 8.11068 4.846 8.12469 4.92533 8.14469L5.93333 7.13672C5.91266 7.05739 5.89866 6.97467 5.89866 6.88867C5.89866 6.33601 6.34332 5.88867 6.89532 5.88867H6.902C7.45466 5.88867 7.902 6.33601 7.902 6.88867C7.902 6.98134 7.88533 7.06929 7.862 7.15462L8.85667 8.14941C8.94 8.12675 9.02666 8.11068 9.11733 8.11068H9.124C9.20934 8.11068 9.29066 8.12469 9.37 8.14469L10.378 7.13672C10.3573 7.05672 10.3433 6.97467 10.3433 6.88867C10.3433 6.33601 10.788 5.88867 11.34 5.88867H11.3467C11.8993 5.88867 12.3467 6.33667 12.3467 6.88867Z" fill="#3B3B3E"/>
</svg>
