<svg width="16" height="16" viewBox="0 0 16 16" fill="none" xmlns="http://www.w3.org/2000/svg">
<path d="M13.4737 6.40051L5.09367 1.80052C4.81367 1.62052 4.45365 1.52051 4.07365 1.52051C3.22698 1.52051 2.47366 2.06052 2.25366 2.82052C2.25366 2.82718 2.25366 2.8405 2.24699 2.84717C2.24699 2.8605 2.23364 2.88051 2.23364 2.89384C2.19364 3.06051 2.18701 3.2405 2.18701 3.36717V12.7138C2.18701 12.8738 2.18698 13.0338 2.24032 13.1872C2.24032 13.1938 2.24032 13.2005 2.24699 13.2072C2.24699 13.2072 2.24699 13.2138 2.24699 13.2205C2.50032 13.9872 3.24031 14.5205 4.06698 14.5205C4.43364 14.5205 4.76701 14.4272 5.02035 14.2605L13.4937 9.6405C14.1137 9.3205 14.507 8.68051 14.507 7.98051C14.4603 7.31384 14.0603 6.70717 13.467 6.39384L13.4737 6.40051ZM4.07365 2.52051C4.26032 2.52051 4.43366 2.56718 4.58032 2.65385L9.84701 5.54718L7.99365 7.31384L3.31364 2.88717C3.47364 2.66717 3.76698 2.52051 4.07365 2.52051V2.52051ZM3.18034 11.9005V4.1405L7.26701 8.00718L3.18034 11.9005ZM4.51367 13.4072C4.39367 13.4872 4.24698 13.5272 4.07365 13.5272C3.77365 13.5272 3.49365 13.3805 3.32699 13.1472L8.00033 8.69385L9.887 10.4805L4.52035 13.4072H4.51367ZM13.027 8.76717L10.807 9.98051L8.72034 8.00718L10.7603 6.06051L12.987 7.28717C12.987 7.28717 12.987 7.28717 12.9937 7.28717C13.2803 7.4405 13.487 7.74051 13.507 8.02718C13.507 8.32051 13.3137 8.61384 13.0203 8.76717H13.027Z" fill="#3B3B3E"/>
</svg>
