<svg width="16" height="16" viewBox="0 0 16 16" fill="none" xmlns="http://www.w3.org/2000/svg">
<path d="M8 1.5C4.41333 1.5 1.5 4.41333 1.5 8C1.5 11.5867 4.41333 14.5 8 14.5C11.5867 14.5 14.5 11.5867 14.5 8C14.5 4.41333 11.5867 1.5 8 1.5ZM9.48665 13.2933C9.48665 13.02 9.48665 12.4467 9.48665 11.76C9.48665 11.2 9.29333 10.8333 9.08 10.6467C10.4133 10.5 11.82 9.99333 11.82 7.68667C11.82 7.03333 11.5867 6.5 11.2 6.08C11.2667 5.92666 11.4733 5.31334 11.1466 4.48667C11.1466 4.48667 10.64 4.32667 9.49333 5.10667C9.01333 4.97334 8.49999 4.90667 7.99333 4.9C7.47999 4.90667 6.96666 4.97334 6.49333 5.10667C5.34666 4.32667 4.84001 4.48667 4.84001 4.48667C4.51334 5.31334 4.71999 5.92666 4.77999 6.08C4.39999 6.5 4.16667 7.03333 4.16667 7.68667C4.16667 9.98667 5.56665 10.5 6.89998 10.6533C6.72665 10.8 6.57335 11.0667 6.52002 11.4533C6.17335 11.6067 5.30665 11.8733 4.77332 10.9533C4.77332 10.9533 4.45335 10.38 3.85335 10.34C3.85335 10.34 3.26665 10.3333 3.81331 10.7C3.81331 10.7 4.20665 10.8867 4.47998 11.58C4.47998 11.58 4.82667 12.6533 6.5 12.2867C6.5 12.7 6.5 13.08 6.5 13.2933C4.18667 12.64 2.48665 10.52 2.48665 8C2.48665 4.96667 4.95332 2.5 7.98665 2.5C11.02 2.5 13.4867 4.96667 13.4867 8C13.4867 10.52 11.7867 12.64 9.47335 13.2933H9.48665Z" fill="#3B3B3E"/>
</svg>
