<svg width="16" height="16" viewBox="0 0 16 16" fill="none" xmlns="http://www.w3.org/2000/svg">
<path d="M11.75 1.5H4.25C2.47667 1.5 1.5 2.47667 1.5 4.25V11.75C1.5 13.5233 2.47667 14.5 4.25 14.5H11.75C13.5233 14.5 14.5 13.5233 14.5 11.75V4.25C14.5 2.47667 13.5233 1.5 11.75 1.5ZM13.5 11.75C13.5 12.9767 12.9767 13.5 11.75 13.5H4.25C3.02333 13.5 2.5 12.9767 2.5 11.75V4.25C2.5 3.02333 3.02333 2.5 4.25 2.5H11.75C12.9767 2.5 13.5 3.02333 13.5 4.25V11.75ZM11.1434 8.31063C11.1414 8.30396 11.1433 8.29801 11.1407 8.29134C11.1373 8.28201 11.13 8.27537 11.126 8.26603C11.1187 8.2467 11.114 8.22666 11.104 8.20866L8.75667 3.94735C8.60401 3.67135 8.31399 3.5 7.99866 3.5C7.68332 3.5 7.39335 3.67135 7.24068 3.94735L4.89335 8.20866C4.88335 8.22666 4.87934 8.24737 4.87134 8.26603C4.86734 8.27537 4.85998 8.28201 4.85665 8.29134C4.85465 8.29801 4.856 8.30396 4.854 8.31063C4.83734 8.3673 4.82935 8.42467 4.83268 8.48267C4.83335 8.492 4.83668 8.50068 4.83801 8.51001C4.84401 8.55801 4.85734 8.60402 4.87667 8.64868C4.88334 8.66468 4.89067 8.67869 4.89933 8.69336C4.90733 8.70736 4.91132 8.72202 4.92065 8.73535L7.288 12.1287C7.44934 12.3613 7.71465 12.4993 7.99731 12.4993C8.27998 12.4993 8.54535 12.3606 8.70601 12.1293L11.074 8.73535C11.0833 8.72202 11.0873 8.70736 11.0953 8.69336C11.104 8.67869 11.1113 8.66402 11.118 8.64868C11.1373 8.60402 11.1507 8.55801 11.1567 8.51001C11.158 8.50068 11.1613 8.492 11.162 8.48267C11.1687 8.42467 11.16 8.3673 11.1434 8.31063ZM8 4.64469L9.93933 8.16536L8 8.81136L6.06067 8.16536L8 4.64469ZM8 11.3987L6.60665 9.40137L7.842 9.81266C7.89333 9.83 7.94667 9.8387 8 9.8387C8.05333 9.8387 8.10667 9.83 8.158 9.81266L9.39335 9.40137L8 11.3987Z" fill="#3B3B3E"/>
</svg>
