<svg width="16" height="16" viewBox="0 0 16 16" fill="none" xmlns="http://www.w3.org/2000/svg">
<path d="M14.5 7.99967C14.5 11.5837 11.584 14.4997 8 14.4997C4.416 14.4997 1.5 11.5837 1.5 7.99967C1.5 6.42834 2.05667 4.94905 3.06934 3.77572L2.31331 3.01969C2.11798 2.82436 2.11798 2.50767 2.31331 2.31234C2.50865 2.117 2.82534 2.117 3.02067 2.31234L4.11466 3.40641C4.11466 3.40641 4.11532 3.4064 4.11532 3.40706C4.11532 3.40773 4.11534 3.40771 4.11601 3.40771L7.74601 7.0376C7.82935 7.01493 7.91601 6.99902 8.00667 6.99902H8.01335C8.56601 6.99902 9.01335 7.44636 9.01335 7.99902C9.01335 8.55169 8.56601 8.99902 8.01335 8.99902C7.46068 8.99902 7.01001 8.55169 7.01001 7.99902C7.01001 7.91302 7.02401 7.83033 7.04468 7.75033L5.43998 6.14632C5.05132 6.68632 4.83333 7.32502 4.83333 7.99902C4.83333 9.74502 6.254 11.1657 8 11.1657C8.84333 11.1657 9.64 10.8371 10.2447 10.2397C10.838 9.63975 11.1667 8.84236 11.1667 7.99902C11.1667 6.25302 9.746 4.83236 8 4.83236C7.724 4.83236 7.5 4.60836 7.5 4.33236C7.5 4.05636 7.724 3.83236 8 3.83236C10.2973 3.83236 12.1667 5.70169 12.1667 7.99902C12.1667 9.10769 11.7353 10.1543 10.9513 10.9463C10.1553 11.7336 9.108 12.1657 8 12.1657C5.70267 12.1657 3.83333 10.2964 3.83333 7.99902C3.83333 7.05769 4.14731 6.1624 4.72131 5.42773L3.776 4.48242C2.95067 5.46442 2.49935 6.69502 2.49935 7.99902C2.49935 11.0317 4.96668 13.499 7.99935 13.499C11.032 13.499 13.4993 11.0317 13.4993 7.99902C13.4993 4.96636 11.032 2.49902 7.99935 2.49902C7.72335 2.49902 7.49935 2.27502 7.49935 1.99902C7.49935 1.72302 7.72335 1.49902 7.99935 1.49902C11.584 1.49969 14.5 4.41567 14.5 7.99967Z" fill="#3B3B3E"/>
</svg>
