<svg width="16" height="16" viewBox="0 0 16 16" fill="none" xmlns="http://www.w3.org/2000/svg">
<path d="M2 14.5C1.93533 14.5 1.87059 14.4873 1.80859 14.462C1.62193 14.3847 1.5 14.202 1.5 14V4C1.5 2.388 2.388 1.5 4 1.5H12C13.612 1.5 14.5 2.388 14.5 4V10C14.5 11.612 13.612 12.5 12 12.5H4.20736L2.354 14.3534C2.258 14.4494 2.13 14.5 2 14.5ZM4 2.5C2.94867 2.5 2.5 2.94867 2.5 4V12.7926L3.64665 11.646C3.74065 11.552 3.86733 11.4993 4 11.4993H12C13.0513 11.4993 13.5 11.0507 13.5 9.99935V3.99935C13.5 2.94802 13.0513 2.49935 12 2.49935H4V2.5ZM8 10.1667C7.946 10.1667 7.89201 10.158 7.84001 10.14C6.54801 9.70264 5.16667 8.57004 5.16667 6.70337V5.22201C5.16667 4.99934 5.31465 4.80337 5.52865 4.74137C6.71731 4.40004 7.2713 4.14199 7.7793 3.88599C7.92263 3.81465 8.09075 3.81537 8.23275 3.88737C8.73541 4.1447 9.28337 4.4 10.4567 4.698C10.6787 4.754 10.8333 4.95403 10.8333 5.1827V6.70264C10.8333 8.5693 9.45266 9.70199 8.15999 10.1393C8.10799 10.158 8.054 10.1667 8 10.1667ZM6.16667 5.59603V6.70402C6.16667 8.23469 7.472 8.9193 8 9.1333C8.528 8.9193 9.83333 8.23469 9.83333 6.70402V5.56869C9.036 5.34802 8.50659 5.13734 8.00326 4.89201C7.49192 5.13868 6.97267 5.3507 6.16667 5.59603Z" fill="#3B3B3E"/>
</svg>
