<svg width="16" height="16" viewBox="0 0 16 16" fill="none" xmlns="http://www.w3.org/2000/svg">
<path d="M14.5001 3.99967V6.66634C14.5001 6.94234 14.2761 7.16634 14.0001 7.16634C13.7241 7.16634 13.5001 6.94234 13.5001 6.66634V3.99967C13.5001 2.94834 13.0514 2.49967 12.0001 2.49967H4.00008C2.94875 2.49967 2.50008 2.94834 2.50008 3.99967V12.7923L3.64673 11.6457C3.74073 11.5517 3.86741 11.499 4.00008 11.499H8.66675C8.94275 11.499 9.16675 11.723 9.16675 11.999C9.16675 12.275 8.94275 12.499 8.66675 12.499H4.20744L2.35409 14.3524C2.25809 14.4484 2.13073 14.499 2.00073 14.499C1.93607 14.499 1.87149 14.4864 1.80949 14.461C1.62282 14.3837 1.50073 14.201 1.50073 13.999V3.99902C1.50073 2.38702 2.38873 1.49902 4.00073 1.49902H12.0007C13.6121 1.49969 14.5001 2.38767 14.5001 3.99967ZM14.3534 8.97966C14.1581 8.78432 13.8414 8.78432 13.6461 8.97966L12.6661 9.95964L11.6861 8.97966C11.4908 8.78432 11.1741 8.78432 10.9788 8.97966C10.7834 9.17499 10.7834 9.49168 10.9788 9.68701L11.9587 10.667L10.9788 11.647C10.7834 11.8423 10.7834 12.159 10.9788 12.3543C11.0761 12.4517 11.2041 12.501 11.3321 12.501C11.4601 12.501 11.5881 12.4523 11.6855 12.3543L12.6654 11.3743L13.6454 12.3543C13.7428 12.4517 13.8708 12.501 13.9988 12.501C14.1268 12.501 14.2548 12.4523 14.3521 12.3543C14.5475 12.159 14.5475 11.8423 14.3521 11.647L13.3722 10.667L14.3521 9.68701C14.5488 9.49101 14.5488 9.17499 14.3534 8.97966ZM8.00675 6.33301C7.63875 6.33301 7.34334 6.63167 7.34334 6.99967C7.34334 7.36767 7.64543 7.66634 8.01343 7.66634C8.38209 7.66634 8.68009 7.36767 8.68009 6.99967C8.68009 6.63167 8.38209 6.33301 8.01343 6.33301H8.00675ZM11.3468 6.99967C11.3468 6.63167 11.0488 6.33301 10.6801 6.33301H10.6734C10.3054 6.33301 10.01 6.63167 10.01 6.99967C10.01 7.36767 10.3121 7.66634 10.6801 7.66634C11.0481 7.66634 11.3468 7.36767 11.3468 6.99967ZM5.34009 6.33301C4.97209 6.33301 4.67668 6.63167 4.67668 6.99967C4.67668 7.36767 4.97876 7.66634 5.34676 7.66634C5.71543 7.66634 6.01343 7.36767 6.01343 6.99967C6.01343 6.63167 5.71543 6.33301 5.34676 6.33301H5.34009Z" fill="#3B3B3E"/>
</svg>
