<svg width="16" height="16" viewBox="0 0 16 16" fill="none" xmlns="http://www.w3.org/2000/svg">
<path d="M14.5001 4.00033V7.33366C14.5001 8.71233 13.3781 9.83366 12.0001 9.83366H3.20743L5.02075 11.647C5.21608 11.8423 5.21608 12.159 5.02075 12.3543C4.92341 12.4517 4.79539 12.501 4.66739 12.501C4.53939 12.501 4.41138 12.4523 4.31404 12.3543L1.64738 9.68766C1.60138 9.64166 1.5648 9.5864 1.53946 9.52507C1.4888 9.40307 1.4888 9.26507 1.53946 9.14307C1.5648 9.08173 1.60138 9.02631 1.64738 8.98031L4.31404 6.31364C4.50938 6.11831 4.82607 6.11831 5.0214 6.31364C5.21673 6.50897 5.21673 6.82566 5.0214 7.021L3.20808 8.83431H12.0001C12.8267 8.83431 13.5001 8.16164 13.5001 7.33431V4.00098C13.5001 3.72498 13.7241 3.50098 14.0001 3.50098C14.2761 3.50098 14.5001 3.72433 14.5001 4.00033Z" fill="#3B3B3E"/>
</svg>
