<svg width="16" height="16" viewBox="0 0 16 16" fill="none" xmlns="http://www.w3.org/2000/svg">
<path d="M8.00277 7.16667C6.4401 7.16667 5.16943 5.89533 5.16943 4.33333C5.16943 2.77133 6.4401 1.5 8.00277 1.5C9.56543 1.5 10.8361 2.77133 10.8361 4.33333C10.8361 5.89533 9.56543 7.16667 8.00277 7.16667ZM8.00277 2.5C6.99143 2.5 6.16943 3.322 6.16943 4.33333C6.16943 5.34467 6.99143 6.16667 8.00277 6.16667C9.0141 6.16667 9.8361 5.34467 9.8361 4.33333C9.8361 3.322 9.01343 2.5 8.00277 2.5ZM10.6614 14.5H5.33211C3.71878 14.5 2.83008 13.6167 2.83008 12.0127C2.83008 10.2387 3.83408 8.16667 6.66341 8.16667H9.33008C12.1594 8.16667 13.1634 10.238 13.1634 12.0127C13.1634 13.6167 12.2747 14.5 10.6614 14.5ZM6.66341 9.16667C4.03474 9.16667 3.83008 11.3447 3.83008 12.0127C3.83008 13.0554 4.27945 13.5 5.33211 13.5H10.6614C11.714 13.5 12.1634 13.0554 12.1634 12.0127C12.1634 11.3454 11.9587 9.16667 9.33008 9.16667H6.66341Z" fill="#3B3B3E"/>
</svg>
