<svg width="16" height="16" viewBox="0 0 16 16" fill="none" xmlns="http://www.w3.org/2000/svg">
<path d="M13.3335 5.16634C12.3868 5.16634 11.6668 4.433 11.6668 3.453C11.6668 2.393 12.8402 1.12634 12.9735 0.986338C13.1602 0.786338 13.5068 0.786338 13.7002 0.986338C13.8335 1.12634 15.0068 2.393 15.0068 3.453C15.0068 4.42634 14.2868 5.16634 13.3402 5.16634H13.3335ZM13.3335 2.10634C12.9935 2.55301 12.6668 3.10634 12.6668 3.453C12.6668 3.873 12.9402 4.16634 13.3335 4.16634C13.7268 4.16634 14.0002 3.873 14.0002 3.453C14.0002 3.10634 13.6735 2.55301 13.3335 2.10634ZM15.1668 7.99967C15.1668 7.43301 15.1002 6.88634 14.9735 6.35967C14.9068 6.093 14.6402 5.92634 14.3668 5.99301C14.1002 6.05968 13.9335 6.32634 14.0002 6.59967C14.1135 7.04634 14.1668 7.51301 14.1668 7.99967C14.1668 11.3997 11.4002 14.1663 8.00016 14.1663C4.60016 14.1663 1.8335 11.3997 1.8335 7.99967C1.8335 4.59967 4.60016 1.83301 8.00016 1.83301C8.60683 1.83301 9.21349 1.91967 9.78682 2.09967C10.0535 2.17967 10.3335 2.033 10.4135 1.76634C10.4935 1.49967 10.3468 1.21968 10.0802 1.13968C9.40683 0.933012 8.70683 0.833008 8.00016 0.833008C4.04683 0.833008 0.833496 4.04634 0.833496 7.99967C0.833496 11.953 4.04683 15.1663 8.00016 15.1663C11.9535 15.1663 15.1668 11.953 15.1668 7.99967V7.99967ZM8.00016 12.4997C6.48683 12.4997 5.19352 11.473 4.85352 9.99967C4.78685 9.70634 4.88682 9.39968 5.12016 9.19968C5.36682 8.99301 5.70016 8.93301 6.00016 9.05301C7.34683 9.59301 8.64682 9.59301 9.99349 9.05301C10.2935 8.93301 10.6335 8.98634 10.8735 9.19968C11.1068 9.39968 11.2068 9.70634 11.1402 9.99967C10.8002 11.473 9.50682 12.4997 7.99349 12.4997H8.00016ZM5.92684 10.093C6.25351 10.933 7.06683 11.4997 8.00016 11.4997C8.9335 11.4997 9.74682 10.933 10.0735 10.093C8.69349 10.573 7.30017 10.573 5.92684 10.093ZM11.3802 6.80635C11.6402 6.71301 11.7802 6.433 11.6868 6.173C11.4802 5.573 10.9135 5.16634 10.2735 5.16634C9.63348 5.16634 9.06681 5.56634 8.86015 6.173C8.77348 6.433 8.90683 6.71968 9.16683 6.80635C9.4335 6.89968 9.7135 6.75967 9.80017 6.49967C9.86684 6.30634 10.0602 6.173 10.2668 6.173C10.4735 6.173 10.6668 6.30634 10.7335 6.49967C10.8068 6.70634 11.0002 6.83967 11.2068 6.83967C11.2602 6.83967 11.3135 6.83301 11.3735 6.81301L11.3802 6.80635ZM6.8335 6.80635C7.0935 6.71301 7.23351 6.433 7.14018 6.173C6.93351 5.573 6.36685 5.16634 5.72685 5.16634C5.08685 5.16634 4.52014 5.56634 4.31348 6.173C4.22681 6.433 4.36016 6.71968 4.62016 6.80635C4.88682 6.89968 5.16683 6.75967 5.2535 6.49967C5.32017 6.30634 5.51351 6.173 5.72017 6.173C5.92684 6.173 6.12018 6.30634 6.18685 6.49967C6.26018 6.70634 6.45349 6.83967 6.66016 6.83967C6.71349 6.83967 6.76682 6.83301 6.82682 6.81301L6.8335 6.80635Z" fill="#3B3B3E"/>
</svg>
