<svg width="16" height="16" viewBox="0 0 16 16" fill="none" xmlns="http://www.w3.org/2000/svg">
<path d="M7.33337 11.5003H3.33337C2.28204 11.5003 1.83337 11.0517 1.83337 10.0003V6.50033H12.8334V6.66699C12.8334 6.94299 13.0574 7.16699 13.3334 7.16699C13.6094 7.16699 13.8334 6.94299 13.8334 6.66699V4.66699C13.8334 3.05499 12.9454 2.16699 11.3334 2.16699H3.33337C1.72137 2.16699 0.833374 3.05499 0.833374 4.66699V10.0003C0.833374 11.6123 1.72137 12.5003 3.33337 12.5003H7.33337C7.60937 12.5003 7.83337 12.2763 7.83337 12.0003C7.83337 11.7243 7.60937 11.5003 7.33337 11.5003ZM3.33337 3.16699H11.3334C12.3847 3.16699 12.8334 3.61566 12.8334 4.66699V5.50033H1.83337V4.66699C1.83337 3.61566 2.28204 3.16699 3.33337 3.16699ZM6.00004 8.83366C6.27604 8.83366 6.50004 9.05766 6.50004 9.33366C6.50004 9.60966 6.27604 9.83366 6.00004 9.83366H4.00004C3.72404 9.83366 3.50004 9.60966 3.50004 9.33366C3.50004 9.05766 3.72404 8.83366 4.00004 8.83366H6.00004ZM14.8467 9.14697L14.1867 8.48698C13.98 8.28031 13.706 8.16699 13.414 8.16699C13.4134 8.16699 13.4134 8.16699 13.4127 8.16699C13.1207 8.16699 12.8454 8.28165 12.6394 8.48832L8.9787 12.1656C8.88536 12.2596 8.83337 12.3863 8.83337 12.5183V14.0003C8.83337 14.2763 9.05737 14.5003 9.33337 14.5003H10.8147C10.9467 14.5003 11.074 14.4476 11.1674 14.355L14.8447 10.6943C15.052 10.4883 15.166 10.2136 15.166 9.92098C15.166 9.62831 15.0534 9.35364 14.8467 9.14697ZM13.414 9.16699C13.408 9.16566 13.4567 9.171 13.48 9.19434L14.14 9.85433C14.1627 9.877 14.1674 9.90233 14.1674 9.92033C14.1674 9.93833 14.1627 9.96368 14.14 9.98568L13.7154 10.4083L12.926 9.61898L13.3487 9.19434C13.3707 9.17167 13.396 9.16699 13.414 9.16699ZM10.6087 13.5003H9.83337V12.725L12.22 10.327L13.006 11.113L10.6087 13.5003Z" fill="#3B3B3E"/>
</svg>
