<svg width="16" height="16" viewBox="0 0 16 16" fill="none" xmlns="http://www.w3.org/2000/svg">
<path d="M10.6465 5.50033C10.5098 5.50033 10.3752 5.507 10.2419 5.521C10.0292 5.22366 9.78253 4.95101 9.50586 4.70634C8.62319 3.92901 7.4898 3.50098 6.3138 3.50098C3.64847 3.50098 1.48047 5.66898 1.48047 8.33431C1.48047 10.9996 3.64847 13.1676 6.3138 13.1676H10.6471C12.7611 13.1676 14.4805 11.4483 14.4805 9.33431C14.4805 7.22031 12.7605 5.50033 10.6465 5.50033ZM10.6465 12.167H6.31315C4.19915 12.167 2.47982 10.4477 2.47982 8.33366C2.47982 6.21966 4.19915 4.50033 6.31315 4.50033C7.24515 4.50033 8.14458 4.83967 8.84391 5.45634C9.13058 5.70901 9.37654 6.00033 9.57454 6.323C9.68188 6.499 9.88511 6.59033 10.0924 6.55233C10.2764 6.51766 10.4585 6.50098 10.6465 6.50098C12.2092 6.50098 13.4798 7.77164 13.4798 9.33431C13.4798 10.897 12.2085 12.167 10.6465 12.167ZM9.83317 9.00033C9.83317 9.27633 9.60917 9.50033 9.33317 9.50033H8.49984V10.3337C8.49984 10.6097 8.27584 10.8337 7.99984 10.8337C7.72384 10.8337 7.49984 10.6097 7.49984 10.3337V9.50033H6.6665C6.3905 9.50033 6.1665 9.27633 6.1665 9.00033C6.1665 8.72433 6.3905 8.50033 6.6665 8.50033H7.49984V7.66699C7.49984 7.39099 7.72384 7.16699 7.99984 7.16699C8.27584 7.16699 8.49984 7.39099 8.49984 7.66699V8.50033H9.33317C9.60917 8.50033 9.83317 8.72433 9.83317 9.00033Z" fill="#3B3B3E"/>
</svg>
