<svg width="16" height="16" viewBox="0 0 16 16" fill="none" xmlns="http://www.w3.org/2000/svg">
<path d="M12.0001 4.16699H8.87411L7.02075 2.31366C6.92675 2.21966 6.80007 2.16699 6.6674 2.16699H4.00073C2.38873 2.16699 1.50073 3.05499 1.50073 4.66699V11.3337C1.50073 12.9457 2.38873 13.8337 4.00073 13.8337H12.0007C13.6127 13.8337 14.5007 12.9457 14.5007 11.3337V6.66699C14.5001 5.05499 13.6121 4.16699 12.0001 4.16699ZM13.5001 11.3337C13.5001 12.385 13.0514 12.8337 12.0001 12.8337H4.00008C2.94875 12.8337 2.50008 12.385 2.50008 11.3337V4.66699C2.50008 3.61566 2.94875 3.16699 4.00008 3.16699H6.45939L8.31274 5.02032C8.40674 5.11432 8.53343 5.16699 8.6661 5.16699H11.9994C13.0508 5.16699 13.4994 5.61566 13.4994 6.66699V11.3337H13.5001ZM8.46134 9.14233C8.51201 9.26433 8.51201 9.40233 8.46134 9.52433C8.43601 9.58567 8.39943 9.64099 8.35343 9.68699L7.0201 11.0203C6.92277 11.1177 6.79475 11.167 6.66675 11.167C6.53875 11.167 6.41073 11.1183 6.3134 11.0203C6.11806 10.825 6.11806 10.5083 6.3134 10.313L6.79338 9.83299H4.66675C4.39075 9.83299 4.16675 9.60899 4.16675 9.33299C4.16675 9.05699 4.39075 8.83299 4.66675 8.83299H6.79272L6.31274 8.35299C6.11741 8.15765 6.11741 7.84098 6.31274 7.64565C6.50808 7.45032 6.82477 7.45032 7.0201 7.64565L8.35343 8.97898C8.39943 9.02632 8.43601 9.08167 8.46134 9.14233Z" fill="#3B3B3E"/>
</svg>
