<svg width="16" height="16" viewBox="0 0 16 16" fill="none" xmlns="http://www.w3.org/2000/svg">
<path d="M12.5133 8.00007C12.5133 8.27341 12.2933 8.50007 12.0133 8.50007C11.7333 8.50007 11.5133 8.27341 11.5133 8.00007C11.5133 7.72674 11.7333 7.50007 12.0133 7.50007C12.2933 7.50007 12.5133 7.72674 12.5133 8.00007ZM14.1933 8.92008C13.1733 10.2601 11.84 11.1734 10.3467 11.5867C10.3467 11.5867 10.34 11.5867 10.3333 11.5934C10.3067 11.6001 10.28 11.6001 10.2533 11.6067C9.86001 11.7067 9.45334 11.7867 9.04668 11.8201L6.56 13.1134C6.48667 13.1534 6.40668 13.1667 6.32668 13.1667C6.22668 13.1667 6.13334 13.1401 6.04668 13.0801C5.89334 12.9801 5.81334 12.8001 5.82668 12.6201L5.96667 11.1801C5.41334 10.9134 4.73334 10.5134 4.13334 9.94675L2.43334 10.8867C2.19334 11.0267 1.89334 10.9867 1.69334 10.7934C1.48667 10.6001 1.43334 10.3001 1.56 10.0467L2.58667 8.00007L1.56 5.9534C1.43334 5.70007 1.48667 5.40007 1.69334 5.20674C1.90001 5.0134 2.20001 4.98007 2.44001 5.12007L4.13334 6.0534C4.74 5.48673 5.42 5.08675 5.96667 4.82008L5.82668 3.38008C5.80668 3.20008 5.89334 3.02008 6.04668 2.92008C6.20001 2.82008 6.39334 2.80674 6.56 2.8934L9.04668 4.18674C9.46668 4.22007 9.87334 4.29341 10.2733 4.40008C10.2933 4.40008 10.3133 4.40006 10.3333 4.40673C10.3333 4.40673 10.34 4.40674 10.3467 4.4134C11.8333 4.82674 13.1733 5.7334 14.1933 7.08007C14.6067 7.62007 14.6067 8.38008 14.1933 8.92008V8.92008ZM9.51334 10.7534C8.94001 8.92674 8.94001 7.08007 9.51334 5.24674C9.29334 5.2134 9.08001 5.18008 8.88667 5.17341C8.81334 5.17341 8.74667 5.1534 8.68667 5.12007L6.92667 4.20674L7.01334 5.08007C7.03334 5.2934 6.91334 5.50008 6.71334 5.58674C6.18001 5.82008 5.40001 6.22674 4.76001 6.85341C4.49334 7.11341 4.1 7.16673 3.78 6.9934L3.00001 6.56007L3.60668 7.77341C3.68001 7.91341 3.68001 8.08006 3.60668 8.22006L3.00001 9.4334L3.78 9.00007C3.90667 8.93341 4.04 8.90008 4.18 8.90008C4.39334 8.90008 4.60001 8.98007 4.76667 9.14007C5.41334 9.76673 6.18667 10.1801 6.72001 10.4067C6.92001 10.4934 7.04001 10.7001 7.02001 10.9134L6.93334 11.7867L8.69333 10.8734C8.75333 10.8401 8.82667 10.8201 8.89334 10.8201C9.08667 10.8067 9.30001 10.7801 9.52001 10.7467L9.51334 10.7534ZM13.4 7.68674C12.48 6.47341 11.44 5.82673 10.4867 5.4934C9.95334 7.16007 9.95334 8.84673 10.4867 10.5134C11.44 10.1801 12.48 9.53341 13.4 8.32008C13.54 8.13341 13.54 7.87341 13.4 7.68674V7.68674Z" fill="#3B3B3E"/>
</svg>
