<svg width="16" height="16" viewBox="0 0 16 16" fill="none" xmlns="http://www.w3.org/2000/svg">
<path d="M13.1667 4.33346V11.6668C13.1667 12.4941 12.494 13.1668 11.6667 13.1668H10.6667C10.3907 13.1668 10.1667 12.9428 10.1667 12.6668C10.1667 12.3908 10.3907 12.1668 10.6667 12.1668H11.6667C11.9427 12.1668 12.1667 11.9428 12.1667 11.6668V4.33346C12.1667 4.05746 11.9427 3.83346 11.6667 3.83346H10.6667C10.3907 3.83346 10.1667 3.60946 10.1667 3.33346C10.1667 3.05746 10.3907 2.83346 10.6667 2.83346H11.6667C12.494 2.83346 13.1667 3.50612 13.1667 4.33346ZM9.27201 1.83012C9.62868 2.11612 9.83333 2.54279 9.83333 3.00013V13.0001C9.83333 13.4575 9.62868 13.8841 9.27201 14.1701C9.00268 14.3861 8.674 14.5001 8.33667 14.5001C8.22734 14.5001 8.11733 14.4881 8.00867 14.4641L4.00867 13.5755C3.31667 13.4215 2.83398 12.8194 2.83398 12.1108V3.88947C2.83398 3.1808 3.31733 2.57879 4.00867 2.42479L8.00867 1.53612C8.456 1.43678 8.91535 1.54479 9.27201 1.83012ZM8.83333 3.00013C8.83333 2.84746 8.76466 2.70546 8.646 2.61013C8.556 2.53813 8.44665 2.50013 8.33398 2.50013C8.29732 2.50013 8.26132 2.50413 8.22465 2.51213L4.22465 3.4008C3.99398 3.45213 3.83333 3.6528 3.83333 3.8888V12.1101C3.83333 12.3461 3.99465 12.5468 4.22465 12.5981L8.22465 13.4868C8.37398 13.5201 8.52733 13.4841 8.646 13.3888C8.76466 13.2935 8.83333 13.1514 8.83333 12.9988V3.00013ZM7.01335 7.33346H7.00667C6.63867 7.33346 6.34334 7.63213 6.34334 8.00013C6.34334 8.36813 6.64535 8.66679 7.01335 8.66679C7.38135 8.66679 7.68001 8.36813 7.68001 8.00013C7.68001 7.63213 7.38135 7.33346 7.01335 7.33346Z" fill="#3B3B3E"/>
</svg>
