<svg width="16" height="16" viewBox="0 0 16 16" fill="none" xmlns="http://www.w3.org/2000/svg">
<path d="M11.75 1.5H4.25C2.47667 1.5 1.5 2.47667 1.5 4.25V11.75C1.5 13.5233 2.47667 14.5 4.25 14.5H11.75C13.5233 14.5 14.5 13.5233 14.5 11.75V4.25C14.5 2.47667 13.5233 1.5 11.75 1.5ZM13.5 11.75C13.5 12.9767 12.9767 13.5 11.75 13.5H4.25C3.02333 13.5 2.5 12.9767 2.5 11.75V4.25C2.5 3.02333 3.02333 2.5 4.25 2.5H11.75C12.9767 2.5 13.5 3.02333 13.5 4.25V11.75ZM11.38 8.87126C10.9927 10.4186 9.60267 11.5 8 11.5C7.03733 11.5 6.14533 11.0987 5.5 10.4373V10.6667C5.5 10.9427 5.276 11.1667 5 11.1667C4.724 11.1667 4.5 10.9427 4.5 10.6667V9C4.5 8.724 4.724 8.5 5 8.5H5.18864C5.19531 8.5 5.20264 8.49933 5.20931 8.5H6.66667C6.94267 8.5 7.16667 8.724 7.16667 9C7.16667 9.276 6.94267 9.5 6.66667 9.5H6.00326C6.46726 10.1173 7.20133 10.5 8 10.5C9.14333 10.5 10.134 9.73074 10.41 8.62874C10.4773 8.36074 10.754 8.19997 11.016 8.2653C11.2846 8.33197 11.4474 8.60326 11.38 8.87126ZM11.5 5.33333V7C11.5 7.276 11.276 7.5 11 7.5H10.8053C10.8013 7.5 10.7973 7.5 10.7926 7.5H9.33333C9.05733 7.5 8.83333 7.276 8.83333 7C8.83333 6.724 9.05733 6.5 9.33333 6.5H9.99675C9.53275 5.88267 8.79867 5.5 8 5.5C6.85667 5.5 5.86601 6.26926 5.59001 7.37126C5.53334 7.59859 5.32931 7.75 5.10531 7.75C5.06464 7.75 5.02407 7.74535 4.9834 7.73535C4.7154 7.66802 4.55264 7.39674 4.6193 7.12874C5.00664 5.58141 6.39668 4.5 7.99935 4.5C8.96202 4.5 9.85402 4.90133 10.4993 5.56266V5.33333C10.4993 5.05733 10.7233 4.83333 10.9993 4.83333C11.2753 4.83333 11.5 5.05733 11.5 5.33333Z" fill="#3B3B3E"/>
</svg>
