<svg width="16" height="16" viewBox="0 0 16 16" fill="none" xmlns="http://www.w3.org/2000/svg">
<path d="M13.9515 2.0483C13.4835 1.5803 12.8207 1.3963 12.1767 1.55696L3.43489 3.74231C2.26955 4.03364 1.49214 5.03629 1.5008 6.23763C1.50947 7.43896 2.30022 8.43029 3.46955 8.70563L6.56688 9.4343L7.29556 12.531C7.5709 13.7003 8.56217 14.491 9.7635 14.4996C9.7695 14.4996 9.77622 14.4996 9.78222 14.4996C10.9749 14.4996 11.9681 13.7243 12.2581 12.5656L14.4435 3.82363C14.6035 3.18029 14.4202 2.51696 13.9515 2.0483ZM13.4728 3.58097L11.2874 12.323C11.0681 13.1983 10.3609 13.505 9.76952 13.4996C9.20619 13.4956 8.47554 13.1796 8.26887 12.3023L7.53287 9.17497L10.3535 6.35364C10.5488 6.1583 10.5488 5.84163 10.3535 5.6463C10.1582 5.45097 9.84148 5.45097 9.64615 5.6463L6.82486 8.46763L3.69742 7.73163C2.81942 7.52496 2.5035 6.79364 2.4995 6.2303C2.4955 5.66697 2.80143 4.93096 3.6761 4.7123L12.4181 2.52695C12.4895 2.50895 12.5615 2.5003 12.6322 2.5003C12.8588 2.5003 13.0775 2.58963 13.2435 2.75563C13.4615 2.97297 13.5475 3.28164 13.4728 3.58097Z" fill="#3B3B3E"/>
</svg>
