<svg width="16" height="16" viewBox="0 0 16 16" fill="none" xmlns="http://www.w3.org/2000/svg">
<path d="M11.8334 4.4V2C11.8334 1.72667 11.6067 1.5 11.3267 1.5H9.22668C9.09335 1.5 8.97336 1.55333 8.88003 1.63999L8.65336 1.86001C8.62003 1.89334 8.58668 1.94 8.56002 1.98L7.56002 3.86001L7.48669 3.9H3.99335C3.72001 3.9 3.49335 4.12667 3.49335 4.4V7.4C3.49335 7.67334 3.72001 7.9 3.99335 7.9H5.40002L3.54669 11.3733C3.50669 11.4467 3.48669 11.5267 3.48669 11.6067V14C3.48669 14.1333 3.54003 14.26 3.63336 14.3533C3.7267 14.4467 3.85336 14.5 3.98669 14.5H6.09336C6.2267 14.5 6.34669 14.4467 6.44002 14.36L6.66669 14.14C6.70669 14.1067 6.73336 14.06 6.76003 14.02L7.76668 12.14L7.83335 12.1H11.3267C11.6 12.1 11.8267 11.8733 11.8267 11.6V8.60667C11.8267 8.33334 11.6 8.10667 11.3267 8.10667H9.92002L11.7667 4.63999C11.8067 4.56666 11.8267 4.48666 11.8267 4.40666L11.8334 4.4ZM10.8334 4.27334L8.75336 8.17334C8.64669 8.36667 8.68668 8.61333 8.84668 8.76666L9.04002 8.96C9.13335 9.05334 9.26002 9.1 9.39335 9.1H10.8334V11.0933H7.70669C7.62002 11.0933 7.53336 11.1133 7.46002 11.16L7.15336 11.3333C7.07336 11.38 7.00669 11.4467 6.96002 11.5333L5.9267 13.4733L4.50002 13.5V11.7333L6.58002 7.83333C6.68668 7.64 6.64669 7.39999 6.48669 7.23999L6.28668 7.04C6.19335 6.94667 6.06668 6.89333 5.93335 6.89333H4.50002V4.89333H7.62669C7.71336 4.89333 7.80002 4.87333 7.87335 4.82666L8.18669 4.64667C8.26669 4.6 8.33336 4.53334 8.38003 4.44668L9.41335 2.50667L10.8334 2.48667V4.26001V4.27334Z" fill="#3B3B3E"/>
</svg>
