<svg width="16" height="16" viewBox="0 0 16 16" fill="none" xmlns="http://www.w3.org/2000/svg">
<path d="M9.17334 6.66667C9.17334 6.20667 9.54001 5.83333 10.0067 5.83333C10.4667 5.83333 10.84 6.20667 10.84 6.66667C10.84 7.12667 10.4667 7.5 10.0067 7.5C9.54667 7.5 9.17334 7.12667 9.17334 6.66667ZM6.84001 6.66667C6.84001 6.20667 6.46667 5.83333 6.00667 5.83333C5.54667 5.83333 5.17334 6.20667 5.17334 6.66667C5.17334 7.12667 5.55334 7.5 6.00667 7.5C6.46001 7.5 6.84001 7.12667 6.84001 6.66667ZM9.78001 10.2067C9.90001 9.96 9.79334 9.66 9.54667 9.54C8.55334 9.06667 7.4 9.07999 6.44 9.55332C6.19334 9.67332 6.09334 9.97333 6.21334 10.2267C6.30001 10.4 6.47999 10.5067 6.65999 10.5067C6.73333 10.5067 6.81334 10.4933 6.88001 10.4533C7.56001 10.1133 8.39334 10.1067 9.10667 10.4533C9.35334 10.5733 9.65334 10.4667 9.77334 10.22L9.78001 10.2067ZM14.4933 4.24666V9.16667C14.4933 9.83333 14.2333 10.46 13.76 10.9333L10.9333 13.76C10.4667 14.2267 9.82667 14.4933 9.16667 14.4933H4.24666C2.39333 14.4933 1.5 13.5933 1.5 11.7467V4.24666C1.5 2.39333 2.4 1.5 4.24666 1.5H11.7467C13.6 1.5 14.4933 2.4 14.4933 4.24666ZM9.16667 13.5C9.28 13.5 9.38666 13.4867 9.49333 13.46V12.3333C9.49333 10.7733 10.7667 9.5 12.3267 9.5H13.4533C13.48 9.39333 13.4933 9.28667 13.4933 9.17334V4.25334C13.4933 2.94667 13.0533 2.50667 11.7467 2.50667H4.24666C2.94 2.50667 2.5 2.94667 2.5 4.25334V11.7533C2.5 13.06 2.94 13.5 4.24666 13.5H9.16667ZM12.7867 10.5H12.3267C11.3133 10.5 10.4933 11.32 10.4933 12.3333V12.7933L12.7867 10.5Z" fill="#3B3B3E"/>
</svg>
