<svg width="16" height="16" viewBox="0 0 16 16" fill="none" xmlns="http://www.w3.org/2000/svg">
<path d="M8.50004 12.0003C8.50004 12.2763 8.27604 12.5003 8.00004 12.5003H3.33337C1.72137 12.5003 0.833374 11.6123 0.833374 10.0003V4.66699C0.833374 3.05499 1.72137 2.16699 3.33337 2.16699H11.3334C12.9454 2.16699 13.8334 3.05499 13.8334 4.66699V7.33366C13.8334 7.60966 13.6094 7.83366 13.3334 7.83366C13.0574 7.83366 12.8334 7.60966 12.8334 7.33366V4.66699C12.8334 3.61566 12.3847 3.16699 11.3334 3.16699H3.33337C2.28204 3.16699 1.83337 3.61566 1.83337 4.66699V10.0003C1.83337 11.0517 2.28204 11.5003 3.33337 11.5003H8.00004C8.27604 11.5003 8.50004 11.7243 8.50004 12.0003ZM2.66671 7.33366C2.66671 7.70166 2.96537 8.00033 3.33337 8.00033C3.70137 8.00033 4.00004 7.70166 4.00004 7.33366C4.00004 6.96566 3.70137 6.66699 3.33337 6.66699C2.96537 6.66699 2.66671 6.96566 2.66671 7.33366ZM9.83337 7.33366C9.83337 8.71233 8.71204 9.83366 7.33337 9.83366C5.95471 9.83366 4.83337 8.71233 4.83337 7.33366C4.83337 5.95499 5.95471 4.83366 7.33337 4.83366C8.71204 4.83366 9.83337 5.95499 9.83337 7.33366ZM8.83337 7.33366C8.83337 6.50633 8.16071 5.83366 7.33337 5.83366C6.50604 5.83366 5.83337 6.50633 5.83337 7.33366C5.83337 8.16099 6.50604 8.83366 7.33337 8.83366C8.16071 8.83366 8.83337 8.16099 8.83337 7.33366ZM15.1667 11.667C15.1667 13.2297 13.8954 14.5003 12.3334 14.5003C10.7714 14.5003 9.50004 13.2297 9.50004 11.667C9.50004 10.1043 10.7714 8.83366 12.3334 8.83366C13.8954 8.83366 15.1667 10.1043 15.1667 11.667ZM10.5 11.667C10.5 11.9903 10.5914 12.2903 10.7387 12.5543L13.2207 10.073C12.9567 9.92566 12.6567 9.83366 12.3334 9.83366C11.322 9.83366 10.5 10.6563 10.5 11.667ZM14.1667 11.667C14.1667 11.3437 14.0754 11.0437 13.928 10.7797L11.446 13.261C11.71 13.4083 12.01 13.5003 12.3334 13.5003C13.3447 13.5003 14.1667 12.6777 14.1667 11.667Z" fill="#3B3B3E"/>
</svg>
