<svg width="16" height="16" viewBox="0 0 16 16" fill="none" xmlns="http://www.w3.org/2000/svg">
<path d="M14.0147 11.8653C13.9833 11.768 13.9587 11.6233 14.0194 11.4913C14.3341 10.8167 14.5 10.0707 14.5 9.33333C14.5 7.294 13.2634 5.43533 11.4087 4.61999C10.6147 2.78666 8.78867 1.5 6.66733 1.5C3.81933 1.5 1.50132 3.81735 1.50132 6.66602C1.50132 7.40802 1.66598 8.15466 1.98065 8.83C2.02798 8.93066 2.02994 9.06202 1.98927 9.19202L1.5534 10.4893C1.43074 10.8573 1.52595 11.2566 1.80129 11.532C1.99729 11.728 2.25601 11.832 2.52134 11.832C2.62934 11.832 2.73873 11.8147 2.84539 11.7793L4.13397 11.346C4.2713 11.302 4.40199 11.3047 4.50799 11.354C4.54133 11.3693 4.57736 11.38 4.61069 11.3953C5.42536 13.2567 7.28933 14.4993 9.334 14.4993C10.0713 14.4993 10.818 14.3333 11.4886 14.0207C11.624 13.9587 11.7687 13.9833 11.862 14.0133L13.1581 14.4473C13.5267 14.568 13.926 14.4727 14.2 14.198C14.474 13.9233 14.5693 13.5247 14.4473 13.1533L14.0147 11.8653ZM4.32472 10.316C4.16006 10.316 3.99062 10.3426 3.82196 10.3966L2.50132 10.8067L2.93931 9.50269C3.06064 9.12202 3.03995 8.73001 2.88462 8.40401C2.63395 7.86401 2.50132 7.26266 2.50132 6.66532C2.50132 4.36799 4.37067 2.49935 6.66733 2.49935C8.964 2.49935 10.8333 4.36799 10.8333 6.66532C10.8333 8.96266 8.964 10.8313 6.66733 10.8313C6.07 10.8313 5.46863 10.6987 4.93263 10.45C4.74597 10.3613 4.54006 10.316 4.32472 10.316ZM13.0661 12.1787L13.472 13.4987L12.1747 13.064C11.7973 12.9413 11.4054 12.9587 11.0694 13.1127C10.5267 13.3653 9.92602 13.4993 9.33335 13.4993C7.96535 13.4993 6.73597 12.844 5.9673 11.7773C6.1993 11.8093 6.43333 11.8313 6.66733 11.8313C9.51533 11.8313 11.8333 9.51399 11.8333 6.66532C11.8333 6.43199 11.8127 6.20401 11.7821 5.97868C12.8347 6.75068 13.5 7.99268 13.5 9.33268C13.5 9.92535 13.3667 10.5253 13.112 11.0713C12.9587 11.406 12.9421 11.798 13.0661 12.1787ZM6.00002 6.66667C6.00002 6.29867 6.29463 6 6.66196 6H6.66864C7.03597 6 7.334 6.29867 7.334 6.66667C7.334 7.03467 7.03664 7.33333 6.66864 7.33333C6.3013 7.33333 6.00002 7.03467 6.00002 6.66667ZM7.99676 6.66667C7.99676 6.29867 8.29201 6 8.66001 6H8.66668C9.03535 6 9.33335 6.29867 9.33335 6.66667C9.33335 7.03467 9.03535 7.33333 8.66668 7.33333C8.29868 7.33333 7.99676 7.03467 7.99676 6.66667ZM4.66668 7.33333C4.29868 7.33333 3.99676 7.03467 3.99676 6.66667C3.99676 6.29867 4.29201 6 4.66001 6H4.66668C5.03535 6 5.33335 6.29867 5.33335 6.66667C5.33335 7.03467 5.03535 7.33333 4.66668 7.33333Z" fill="#3B3B3E"/>
</svg>
