<svg width="16" height="16" viewBox="0 0 16 16" fill="none" xmlns="http://www.w3.org/2000/svg">
<path d="M11.3333 11.14H10.2733C9.78663 11.14 9.55996 11.0267 9.55996 10.3933V7.79334H11.2466C11.52 7.79334 11.7466 7.56667 11.7466 7.29334V5.05333C11.7466 4.78 11.52 4.55333 11.2466 4.55333H9.55996V2C9.55996 1.72667 9.33329 1.5 9.05996 1.5H7.18663C6.91996 1.5 6.70663 1.70666 6.68663 1.96666C6.62663 2.86 6.27329 4.43334 4.53996 4.88C4.31996 4.94 4.16663 5.13334 4.16663 5.36667V7.29334C4.16663 7.56667 4.39329 7.79334 4.66663 7.79334H5.67995V10.8533C5.67995 13.14 7.04663 14.5 9.33329 14.5H11.34C11.6133 14.5 11.84 14.2733 11.84 14V11.64C11.84 11.3667 11.6133 11.14 11.34 11.14H11.3333ZM10.8333 13.5H9.32662C8.11995 13.5 6.6733 13.04 6.6733 10.8533V7.29334C6.6733 7.02 6.44663 6.79334 6.1733 6.79334H5.15995V5.73334C6.51995 5.24 7.39329 4.09333 7.62663 2.5H8.55328V5.05333C8.55328 5.32667 8.77995 5.55333 9.05328 5.55333H10.7399V6.79334H9.05328C8.77995 6.79334 8.55328 7.02 8.55328 7.29334V10.3933C8.55328 11.52 9.15996 12.14 10.2666 12.14H10.8266V13.5H10.8333Z" fill="#3B3B3E"/>
</svg>
