<svg width="16" height="16" viewBox="0 0 16 16" fill="none" xmlns="http://www.w3.org/2000/svg">
<path d="M11.3733 3.51334C10.7133 2.28 9.42667 1.5 8 1.5C6.57333 1.5 5.28667 2.28 4.62667 3.51334C2.93334 3.34 1.5 4.67333 1.5 6.33333C1.5 7.58667 2.33333 8.68 3.5 9.04V13C3.5 13.8267 4.17333 14.5 5 14.5H11C11.8267 14.5 12.5 13.8267 12.5 13V9.04C13.6667 8.68 14.5 7.58667 14.5 6.33333C14.5 4.67333 13.0667 3.34 11.3733 3.51334ZM11 13.5H5C4.72667 13.5 4.5 13.2733 4.5 13V11.1667H11.5V13C11.5 13.2733 11.2733 13.5 11 13.5ZM11.9267 8.14667C11.68 8.18 11.5 8.39334 11.5 8.64V10.1667H10.26L10.4933 8.74666C10.54 8.47333 10.3533 8.21333 10.08 8.17333C9.81333 8.12666 9.55334 8.31334 9.50667 8.58667L9.23999 10.1667H8.5V8C8.5 7.72667 8.27333 7.5 8 7.5C7.72667 7.5 7.5 7.72667 7.5 8V10.1667H6.76001L6.49333 8.58667C6.44666 8.31334 6.18667 8.13333 5.92 8.17333C5.64667 8.22 5.46667 8.47333 5.50667 8.74666L5.73999 10.1667H4.5V8.64C4.5 8.39334 4.31999 8.18 4.07332 8.14667C3.17999 8.02 2.5 7.24 2.5 6.33333C2.5 5.32 3.32 4.5 4.33333 4.5C4.48 4.5 4.64 4.52 4.79334 4.56C5.03334 4.62 5.28667 4.49333 5.38 4.26666C5.81334 3.19333 6.84667 2.50666 8.00667 2.50666C9.16667 2.50666 10.1933 3.2 10.6333 4.26666C10.7267 4.5 10.9733 4.62666 11.22 4.56C12.4333 4.26 13.5133 5.17333 13.5133 6.33333C13.5133 7.24 12.84 8.02 11.94 8.14667H11.9267Z" fill="#3B3B3E"/>
</svg>
