<svg width="16" height="16" viewBox="0 0 16 16" fill="none" xmlns="http://www.w3.org/2000/svg">
<path d="M12.3535 12.3537C12.2562 12.451 12.1282 12.5003 12.0002 12.5003C11.8722 12.5003 11.7441 12.4517 11.6468 12.3537L3.8335 4.54036V10.0003C3.8335 10.2763 3.6095 10.5003 3.3335 10.5003C3.0575 10.5003 2.8335 10.2763 2.8335 10.0003V3.33366C2.8335 3.26833 2.8469 3.20359 2.87223 3.14225C2.9229 3.02025 3.02024 2.92292 3.1429 2.87158C3.20424 2.84625 3.26881 2.83301 3.33415 2.83301H10.0008C10.2768 2.83301 10.5008 3.05701 10.5008 3.33301C10.5008 3.60901 10.2768 3.83301 10.0008 3.83301H4.5415L12.3548 11.6463C12.5488 11.8423 12.5488 12.1583 12.3535 12.3537Z" fill="#3B3B3E"/>
</svg>
