<svg width="16" height="16" viewBox="0 0 16 16" fill="none" xmlns="http://www.w3.org/2000/svg">
<path d="M14.1253 10.26C13.1267 10.0013 12.662 9.77999 12.2354 9.55666C12.09 9.48133 11.9187 9.48067 11.7754 9.55534C11.3447 9.77734 10.8734 10.0007 9.85938 10.298C9.64671 10.3607 9.5 10.556 9.5 10.778V12.074C9.5 13.7387 10.7073 14.7487 11.8366 15.1393C11.8893 15.158 11.9447 15.1667 12 15.1667C12.0553 15.1667 12.1107 15.1573 12.1634 15.1393C13.2927 14.7487 14.5 13.7387 14.5 12.074V10.744C14.5 10.516 14.346 10.3173 14.1253 10.26ZM13.5 12.074C13.5 13.3493 12.458 13.9347 12 14.1307C11.542 13.9353 10.5 13.3493 10.5 12.074V11.1487C11.152 10.944 11.5833 10.7653 12.0026 10.56C12.4166 10.7633 12.856 10.9413 13.5 11.126V12.074ZM8.66667 13.5H4C2.94867 13.5 2.5 13.0513 2.5 12V4C2.5 2.94867 2.94867 2.5 4 2.5H7.5V4C7.5 5.612 8.388 6.5 10 6.5H11.5V8C11.5 8.276 11.724 8.5 12 8.5C12.276 8.5 12.5 8.276 12.5 8V6C12.5 5.86733 12.4474 5.74 12.3534 5.64667L8.35335 1.64667C8.25935 1.55267 8.13267 1.5 8 1.5H4C2.388 1.5 1.5 2.388 1.5 4V12C1.5 13.612 2.388 14.5 4 14.5H8.66667C8.94267 14.5 9.16667 14.276 9.16667 14C9.16667 13.724 8.94267 13.5 8.66667 13.5ZM8.5 4V3.20734L10.7926 5.5H10C8.94867 5.5 8.5 5.05133 8.5 4ZM9.33333 8.5H4.66667C4.39067 8.5 4.16667 8.276 4.16667 8C4.16667 7.724 4.39067 7.5 4.66667 7.5H9.33333C9.60933 7.5 9.83333 7.724 9.83333 8C9.83333 8.276 9.60933 8.5 9.33333 8.5ZM4.66667 11.1667C4.39067 11.1667 4.16667 10.9427 4.16667 10.6667C4.16667 10.3907 4.39067 10.1667 4.66667 10.1667H7.33333C7.60933 10.1667 7.83333 10.3907 7.83333 10.6667C7.83333 10.9427 7.60933 11.1667 7.33333 11.1667H4.66667Z" fill="#3B3B3E"/>
</svg>
