<svg width="16" height="16" viewBox="0 0 16 16" fill="none" xmlns="http://www.w3.org/2000/svg">
<path d="M14.18 9.14634L13.52 8.48635C13.3134 8.27968 13.0394 8.16634 12.748 8.16634C12.7474 8.16634 12.7467 8.16634 12.7467 8.16634C12.4547 8.16634 12.1793 8.28101 11.974 8.48834L8.31331 12.1657C8.21931 12.259 8.16732 12.3864 8.16732 12.5184V13.9997C8.16732 14.2757 8.39132 14.4997 8.66732 14.4997H10.1494C10.2814 14.4997 10.4086 14.447 10.502 14.3537L14.1794 10.693C14.3867 10.487 14.5 10.2123 14.5007 9.92035C14.5 9.62835 14.3867 9.35368 14.18 9.14634ZM12.7474 9.16634C12.7647 9.16634 12.79 9.171 12.8127 9.19366L13.4727 9.85368C13.4953 9.87635 13.5 9.90234 13.5 9.91968C13.5 9.93701 13.4953 9.96234 13.4727 9.98501L13.0487 10.407L12.2593 9.61768L12.6813 9.19366C12.7046 9.171 12.7301 9.16634 12.7474 9.16634ZM9.94206 13.4997H9.16667V12.7243L11.554 10.3263L12.34 11.1123L9.94206 13.4997ZM6.66667 12.833H4C2.94867 12.833 2.5 12.3843 2.5 11.333V3.33301C2.5 2.28167 2.94867 1.83301 4 1.83301H7.5V3.33301C7.5 4.94501 8.388 5.83301 10 5.83301H11.5V6.66634C11.5 6.94234 11.724 7.16634 12 7.16634C12.276 7.16634 12.5 6.94234 12.5 6.66634V5.33301C12.5 5.20034 12.4474 5.07301 12.3534 4.97968L8.35335 0.979675C8.25935 0.885675 8.13267 0.833008 8 0.833008H4C2.388 0.833008 1.5 1.72101 1.5 3.33301V11.333C1.5 12.945 2.388 13.833 4 13.833H6.66667C6.94267 13.833 7.16667 13.609 7.16667 13.333C7.16667 13.057 6.94267 12.833 6.66667 12.833ZM8.5 3.33301V2.54034L10.7926 4.83301H10C8.94867 4.83301 8.5 4.38434 8.5 3.33301ZM4.66667 6.83301C4.39067 6.83301 4.16667 7.05701 4.16667 7.33301C4.16667 7.60901 4.39067 7.83301 4.66667 7.83301H9.33333C9.60933 7.83301 9.83333 7.60901 9.83333 7.33301C9.83333 7.05701 9.60933 6.83301 9.33333 6.83301H4.66667ZM7.33333 9.49967H4.66667C4.39067 9.49967 4.16667 9.72367 4.16667 9.99967C4.16667 10.2757 4.39067 10.4997 4.66667 10.4997H7.33333C7.60933 10.4997 7.83333 10.2757 7.83333 9.99967C7.83333 9.72367 7.60933 9.49967 7.33333 9.49967Z" fill="#3B3B3E"/>
</svg>
