<svg width="16" height="16" viewBox="0 0 16 16" fill="none" xmlns="http://www.w3.org/2000/svg">
<path d="M14.5 6.00016C14.5 4.98883 13.678 4.16683 12.6667 4.16683H11.218L9.77596 1.74416C9.63463 1.5075 9.32799 1.42816 9.09066 1.57016C8.85399 1.71149 8.77533 2.01816 8.91667 2.25549L10.054 4.16616H5.95337L7.10734 2.25816C7.25067 2.02216 7.17464 1.71483 6.93864 1.57149C6.70064 1.42816 6.3947 1.50416 6.25203 1.74016L4.78467 4.1655H3.33333C2.322 4.1655 1.5 4.9875 1.5 5.99883C1.5 6.72483 1.92734 7.34816 2.54134 7.64483L3.0013 12.2475C3.15264 13.7622 3.96602 14.4988 5.48869 14.4988H10.5353C12.058 14.4988 12.872 13.7628 13.0227 12.2475L13.484 7.63083C14.084 7.33016 14.5 6.7155 14.5 6.00016ZM3.33333 5.16683H12.6667C13.126 5.16683 13.5 5.54083 13.5 6.00016C13.5 6.4595 13.126 6.8335 12.6667 6.8335H3.33333C2.874 6.8335 2.5 6.4595 2.5 6.00016C2.5 5.54083 2.874 5.16683 3.33333 5.16683ZM12.0286 12.1495C11.9426 13.0048 11.6713 13.5002 10.536 13.5002H5.48934C4.34801 13.5002 4.08466 13.0255 3.99666 12.1495L3.56535 7.8335H12.4607L12.0286 12.1495ZM9.68669 9.18617C9.88202 9.3815 9.88202 9.69816 9.68669 9.8935L7.90869 11.6715C7.81469 11.7655 7.68801 11.8182 7.55534 11.8182C7.42267 11.8182 7.29532 11.7655 7.20199 11.6715L6.31331 10.7828C6.11798 10.5875 6.11798 10.2708 6.31331 10.0755C6.50865 9.88017 6.82534 9.88084 7.02067 10.0755L7.55599 10.6108L8.98063 9.18683C9.1753 8.99083 9.49135 8.99084 9.68669 9.18617Z" fill="#3B3B3E"/>
</svg>
