<svg width="16" height="16" viewBox="0 0 16 16" fill="none" xmlns="http://www.w3.org/2000/svg">
<path d="M12.3332 7.16699H3.6665C2.72717 7.16699 2.1665 6.60633 2.1665 5.66699V3.66699C2.1665 2.72766 2.72717 2.16699 3.6665 2.16699H12.3332C13.2725 2.16699 13.8332 2.72766 13.8332 3.66699V5.66699C13.8332 6.60633 13.2725 7.16699 12.3332 7.16699ZM3.6665 3.16699C3.27384 3.16699 3.1665 3.27433 3.1665 3.66699V5.66699C3.1665 6.05966 3.27384 6.16699 3.6665 6.16699H12.3332C12.7258 6.16699 12.8332 6.05966 12.8332 5.66699V3.66699C12.8332 3.27433 12.7258 3.16699 12.3332 3.16699H3.6665ZM12.3332 13.8337H3.6665C2.72717 13.8337 2.1665 13.273 2.1665 12.3337V10.3337C2.1665 9.39433 2.72717 8.83366 3.6665 8.83366H12.3332C13.2725 8.83366 13.8332 9.39433 13.8332 10.3337V12.3337C13.8332 13.273 13.2725 13.8337 12.3332 13.8337ZM3.6665 9.83366C3.27384 9.83366 3.1665 9.94099 3.1665 10.3337V12.3337C3.1665 12.7263 3.27384 12.8337 3.6665 12.8337H12.3332C12.7258 12.8337 12.8332 12.7263 12.8332 12.3337V10.3337C12.8332 9.94099 12.7258 9.83366 12.3332 9.83366H3.6665Z" fill="#3B3B3E"/>
</svg>
