<svg width="16" height="16" viewBox="0 0 16 16" fill="none" xmlns="http://www.w3.org/2000/svg">
<path d="M8.00016 0.833008C4.04816 0.833008 0.833496 4.04767 0.833496 7.99967C0.833496 11.9517 4.04816 15.1663 8.00016 15.1663C11.9522 15.1663 15.1668 11.9517 15.1668 7.99967C15.1668 4.04767 11.9522 0.833008 8.00016 0.833008ZM8.00016 14.1663C4.5995 14.1663 1.8335 11.4003 1.8335 7.99967C1.8335 4.59901 4.5995 1.83301 8.00016 1.83301C11.4008 1.83301 14.1668 4.59901 14.1668 7.99967C14.1668 11.4003 11.4008 14.1663 8.00016 14.1663ZM10.5002 6.66634C10.5002 5.65501 9.67816 4.83301 8.66683 4.83301H6.00016C5.72416 4.83301 5.50016 5.05701 5.50016 5.33301V10.6663C5.50016 10.9423 5.72416 11.1663 6.00016 11.1663C6.27616 11.1663 6.50016 10.9423 6.50016 10.6663V8.49967H8.35742L9.5529 10.8896C9.6409 11.065 9.81681 11.1663 10.0008 11.1663C10.0755 11.1663 10.1521 11.1496 10.2235 11.1136C10.4708 10.9896 10.5708 10.6897 10.4474 10.443L9.39876 8.3457C10.0461 8.0617 10.5002 7.41701 10.5002 6.66634ZM8.66683 7.49967H6.50016V5.83301H8.66683C9.12616 5.83301 9.50016 6.20701 9.50016 6.66634C9.50016 7.12567 9.12616 7.49967 8.66683 7.49967Z" fill="#3B3B3E"/>
</svg>
