<svg width="16" height="16" viewBox="0 0 16 16" fill="none" xmlns="http://www.w3.org/2000/svg">
<path d="M2 14.5C1.93533 14.5 1.87059 14.4873 1.80859 14.462C1.62193 14.3847 1.5 14.202 1.5 14V4C1.5 2.388 2.388 1.5 4 1.5H12C13.612 1.5 14.5 2.388 14.5 4V10C14.5 11.612 13.612 12.5 12 12.5H4.20736L2.354 14.3534C2.258 14.4494 2.13 14.5 2 14.5ZM4 2.5C2.94867 2.5 2.5 2.94867 2.5 4V12.7926L3.64665 11.646C3.74065 11.552 3.86733 11.4993 4 11.4993H12C13.0513 11.4993 13.5 11.0507 13.5 9.99935V3.99935C13.5 2.94802 13.0513 2.49935 12 2.49935H4V2.5ZM8 10.1667C6.254 10.1667 4.83333 8.746 4.83333 7C4.83333 5.254 6.254 3.83333 8 3.83333C9.746 3.83333 11.1667 5.254 11.1667 7C11.1667 8.746 9.746 10.1667 8 10.1667ZM8 4.83333C6.80533 4.83333 5.83333 5.80533 5.83333 7C5.83333 8.19467 6.80533 9.16667 8 9.16667C9.19467 9.16667 10.1667 8.19467 10.1667 7C10.1667 5.80533 9.19467 4.83333 8 4.83333ZM9.02002 8.02002C9.21535 7.82469 9.21535 7.508 9.02002 7.31266L8.5 6.79264V6C8.5 5.724 8.276 5.5 8 5.5C7.724 5.5 7.5 5.724 7.5 6V7C7.5 7.13267 7.55265 7.26002 7.64665 7.35335L8.31331 8.02002C8.41065 8.11735 8.53867 8.16667 8.66667 8.16667C8.79467 8.16667 8.92269 8.11802 9.02002 8.02002Z" fill="#3B3B3E"/>
</svg>
