<svg width="16" height="16" viewBox="0 0 16 16" fill="none" xmlns="http://www.w3.org/2000/svg">
<path d="M8.00016 0.833008C4.04816 0.833008 0.833496 4.04767 0.833496 7.99967C0.833496 11.9517 4.04816 15.1663 8.00016 15.1663C11.9522 15.1663 15.1668 11.9517 15.1668 7.99967C15.1668 4.04767 11.9522 0.833008 8.00016 0.833008ZM8.00016 14.1663C4.5995 14.1663 1.8335 11.4003 1.8335 7.99967C1.8335 4.59901 4.5995 1.83301 8.00016 1.83301C11.4008 1.83301 14.1668 4.59901 14.1668 7.99967C14.1668 11.4003 11.4008 14.1663 8.00016 14.1663ZM10.3535 8.31299C10.5488 8.50832 10.5488 8.82501 10.3535 9.02034C10.2562 9.11768 10.1282 9.16699 10.0002 9.16699C9.87216 9.16699 9.74414 9.11834 9.64681 9.02034L8.00016 7.3737L6.35352 9.02034C6.15818 9.21568 5.84149 9.21568 5.64616 9.02034C5.45083 8.82501 5.45083 8.50832 5.64616 8.31299L7.64616 6.31299C7.84149 6.11765 8.15818 6.11765 8.35352 6.31299L10.3535 8.31299Z" fill="#3B3B3E"/>
</svg>
