<svg width="16" height="16" viewBox="0 0 16 16" fill="none" xmlns="http://www.w3.org/2000/svg">
<path d="M14.5 7.33333C14.5 9.15133 13.2093 10.7313 11.432 11.09C11.3986 11.0967 11.3653 11.1 11.3327 11.1C11.0993 11.1 10.8913 10.936 10.8433 10.6986C10.7886 10.428 10.964 10.164 11.2347 10.11C12.548 9.84532 13.5 8.67733 13.5 7.33333C13.5 5.77067 12.2293 4.5 10.6667 4.5C10.478 4.5 10.2966 4.51668 10.1126 4.55135C9.9093 4.59002 9.70338 4.49867 9.59538 4.32267C9.40071 4.00867 9.15338 3.71532 8.85938 3.45199C8.16738 2.83865 7.26933 2.5 6.33333 2.5C4.21933 2.5 2.5 4.21933 2.5 6.33333C2.5 7.88533 3.42604 9.27399 4.85938 9.87199C5.11404 9.97799 5.23393 10.2713 5.12793 10.526C5.02193 10.7813 4.72796 10.9007 4.47396 10.7947C2.66729 10.0413 1.5 8.29 1.5 6.33333C1.5 3.668 3.668 1.5 6.33333 1.5C7.514 1.5 8.64807 1.92801 9.52474 2.70601C9.80474 2.95668 10.0507 3.22934 10.2607 3.52067C10.3947 3.50667 10.5293 3.5 10.6667 3.5C12.7807 3.5 14.5 5.21933 14.5 7.33333ZM8.97998 12.3133L8.5 12.7933V7.33333C8.5 7.05733 8.276 6.83333 8 6.83333C7.724 6.83333 7.5 7.05733 7.5 7.33333V12.7927L7.02002 12.3127C6.82469 12.1173 6.508 12.1173 6.31266 12.3127C6.11733 12.508 6.11733 12.8247 6.31266 13.02L7.646 14.3534C7.692 14.3994 7.74726 14.436 7.80859 14.4613C7.86993 14.4867 7.93467 14.5 8 14.5C8.06533 14.5 8.13007 14.4867 8.19141 14.4613C8.25274 14.436 8.308 14.3994 8.354 14.3534L9.68734 13.02C9.88267 12.8247 9.88267 12.508 9.68734 12.3127C9.49134 12.118 9.17531 12.118 8.97998 12.3133Z" fill="#3B3B3E"/>
</svg>
