<svg width="16" height="16" viewBox="0 0 16 16" fill="none" xmlns="http://www.w3.org/2000/svg">
<path d="M14.0607 4.68669L11.3133 1.93929C11.034 1.65996 10.6473 1.5 10.2526 1.5H5.7474C5.35273 1.5 4.96602 1.65996 4.68669 1.93929L1.93929 4.68669C1.65996 4.96602 1.5 5.35273 1.5 5.7474V10.2526C1.5 10.6473 1.65996 11.034 1.93929 11.3133L4.68669 14.0607C4.96602 14.34 5.35273 14.5 5.7474 14.5H10.2526C10.6473 14.5 11.034 14.34 11.3133 14.0607L14.0607 11.3133C14.34 11.034 14.5 10.6473 14.5 10.2526V5.7474C14.5 5.35273 14.34 4.96602 14.0607 4.68669ZM13.5 10.2526C13.5 10.3839 13.4467 10.5133 13.3534 10.606L10.606 13.3534C10.5126 13.4467 10.3839 13.5 10.2526 13.5H5.7474C5.61606 13.5 5.48671 13.4467 5.39404 13.3534L2.64665 10.606C2.55331 10.5126 2.5 10.3839 2.5 10.2526V5.7474C2.5 5.61606 2.55331 5.48671 2.64665 5.39404L5.39404 2.64665C5.48738 2.55331 5.61606 2.5 5.7474 2.5H10.2526C10.3839 2.5 10.5133 2.55331 10.606 2.64665L13.3534 5.39404C13.4467 5.48738 13.5 5.61606 13.5 5.7474V10.2526ZM10.02 6.68669L8.70671 8L10.02 9.31331C10.2154 9.50865 10.2154 9.82534 10.02 10.0207C9.92269 10.118 9.79467 10.1673 9.66667 10.1673C9.53867 10.1673 9.41065 10.1187 9.31331 10.0207L8 8.70736L6.68669 10.0207C6.58935 10.118 6.46133 10.1673 6.33333 10.1673C6.20533 10.1673 6.07731 10.1187 5.97998 10.0207C5.78465 9.82534 5.78465 9.50865 5.97998 9.31331L7.29329 8L5.97998 6.68669C5.78465 6.49135 5.78465 6.17466 5.97998 5.97933C6.17531 5.784 6.492 5.784 6.68734 5.97933L8.00065 7.29264L9.31397 5.97933C9.5093 5.784 9.82599 5.784 10.0213 5.97933C10.2167 6.17466 10.2154 6.49135 10.02 6.68669Z" fill="#3B3B3E"/>
</svg>
