<svg width="16" height="16" viewBox="0 0 16 16" fill="none" xmlns="http://www.w3.org/2000/svg">
<path d="M8.00066 1.5C4.41733 1.5 1.50197 4.41535 1.50197 7.99935C1.50197 8.93268 1.70937 9.87198 2.10337 10.7213C2.18003 10.8833 2.18595 11.0887 2.12062 11.2933L1.56007 12.9607C1.42007 13.382 1.52874 13.84 1.84474 14.1553C2.06874 14.3793 2.36462 14.4993 2.66928 14.4993C2.79328 14.4993 2.91804 14.4793 3.0407 14.4387L4.70005 13.8813C4.91138 13.814 5.11805 13.8193 5.28338 13.8987C6.12805 14.2913 7.06735 14.4987 8.00001 14.4987C11.584 14.4987 14.4994 11.5833 14.4994 7.99935C14.4994 4.41535 11.5847 1.5 8.00066 1.5ZM8.00066 13.4987C7.212 13.4987 6.41864 13.3234 5.70997 12.994C5.31731 12.8067 4.85135 12.784 4.38868 12.9313L2.72332 13.4907C2.63999 13.5187 2.57993 13.476 2.55193 13.448C2.52393 13.42 2.48129 13.3607 2.50929 13.2773L3.07195 11.6034C3.21662 11.148 3.19331 10.682 3.00864 10.2947C2.67731 9.58134 2.50197 8.78799 2.50197 7.99866C2.50197 4.96666 4.96866 2.49935 8.00066 2.49935C11.0333 2.49935 13.5 4.96599 13.5 7.99866C13.5 11.0313 11.0333 13.4987 8.00066 13.4987ZM9.66668 7.24731V6.5C9.66668 5.58133 8.91935 4.83333 8.00001 4.83333C7.08068 4.83333 6.33335 5.58133 6.33335 6.5V7.24731C5.80468 7.41931 5.50001 7.86801 5.50001 8.52401V9.81002C5.50001 10.66 6.00727 11.1673 6.85727 11.1673H9.14275C9.99275 11.1673 10.5 10.66 10.5 9.81002V8.52401C10.5 7.86801 10.1953 7.41931 9.66668 7.24731ZM8.00001 5.83333C8.36801 5.83333 8.66668 6.132 8.66668 6.5V7.16667H7.33335V6.5C7.33335 6.132 7.63201 5.83333 8.00001 5.83333ZM9.50001 9.80933C9.50001 10.1027 9.43675 10.1667 9.14275 10.1667H6.85727C6.56327 10.1667 6.50001 10.1033 6.50001 9.80933V8.52332C6.50001 8.22998 6.56327 8.16602 6.85727 8.16602H9.14275C9.43675 8.16602 9.50001 8.22932 9.50001 8.52332V9.80933Z" fill="#3B3B3E"/>
</svg>
