<svg width="16" height="16" viewBox="0 0 16 16" fill="none" xmlns="http://www.w3.org/2000/svg">
<path d="M12.4602 4.54016C12.4135 4.50683 12.3668 4.48683 12.3202 4.46016C12.3002 4.22016 12.2602 3.98017 12.1868 3.7335C12.1335 3.58017 12.0602 3.42017 11.9802 3.2735C11.4002 2.18683 10.2002 1.50684 8.84682 1.50684H5.14016C4.72016 1.50684 4.36684 1.80682 4.30017 2.22015L2.84682 11.2002C2.84016 11.2468 2.8335 11.2935 2.8335 11.3268C2.8335 11.7602 3.18682 12.1068 3.62016 12.1068H5.18683L4.94017 13.6135C4.9135 13.8202 4.96684 14.0335 5.09351 14.2002C5.22017 14.3668 5.40017 14.4735 5.60683 14.4935C5.64683 14.4935 5.68682 14.5068 5.72015 14.5068H7.57349C7.98682 14.5068 8.34683 14.2002 8.41349 13.7935L8.88017 10.9068H9.8535C11.8268 10.9068 13.4802 9.52017 13.7868 7.61351C13.9802 6.41351 13.4668 5.2335 12.4535 4.54683L12.4602 4.54016ZM5.26683 2.50016H8.84682C9.84682 2.50016 10.6868 2.96017 11.1002 3.7335C11.1535 3.84017 11.2068 3.94683 11.2402 4.04683C11.3135 4.28017 11.3468 4.51349 11.3402 4.74683V4.76017C11.3402 4.85351 11.3268 4.95349 11.3135 5.05349C11.3002 5.12015 11.2802 5.18016 11.2668 5.24683C10.9668 6.54016 9.77349 7.4935 8.39349 7.50016C8.38683 7.50016 8.38016 7.50016 8.37349 7.50016H6.6735C6.5535 7.50016 6.44684 7.52682 6.34017 7.57349C6.0735 7.68682 5.87349 7.92017 5.82682 8.2135L5.3535 11.1002H3.88017L5.2735 2.50016H5.26683ZM12.8068 7.44684C12.5802 8.86684 11.3402 9.90017 9.86017 9.90017H8.7735C8.34683 9.90017 7.99351 10.2002 7.92684 10.6135L7.46016 13.5002H5.98016L6.7935 8.50016H8.37349C8.61349 8.50016 8.84682 8.48017 9.07349 8.44017C9.14682 8.42683 9.22016 8.40015 9.28682 8.38682C9.44016 8.35349 9.58683 8.32016 9.7335 8.26683C9.8135 8.24016 9.89349 8.20016 9.97349 8.16683C10.1002 8.1135 10.2268 8.06016 10.3402 7.99349C10.4202 7.94682 10.4935 7.89349 10.5735 7.84682C10.6802 7.77349 10.7868 7.70683 10.8935 7.62683C10.9668 7.56683 11.0335 7.50683 11.1002 7.44017C11.1935 7.3535 11.2868 7.26684 11.3668 7.1735C11.4268 7.10017 11.4868 7.02682 11.5468 6.95349C11.6268 6.85349 11.6935 6.75349 11.7668 6.64016C11.8135 6.56016 11.8602 6.48016 11.9068 6.39349C11.9668 6.28016 12.0202 6.16016 12.0668 6.04016C12.1002 5.95349 12.1335 5.86683 12.1668 5.7735C12.1802 5.72017 12.2068 5.67349 12.2202 5.62016C12.7068 6.10016 12.9268 6.7535 12.8135 7.44017L12.8068 7.44684Z" fill="#3B3B3E"/>
</svg>
