<svg width="16" height="16" viewBox="0 0 16 16" fill="none" xmlns="http://www.w3.org/2000/svg">
<path d="M13.7676 10.0707L12.0057 9.02008C11.1517 8.51142 10.0497 8.75876 9.49706 9.58476L8.98892 10.3428C7.54825 9.63876 6.36302 8.45075 5.65835 7.00342L6.41226 6.50208C7.23959 5.95208 7.49101 4.85141 6.98501 3.99608L5.94302 2.23676C5.61835 1.68876 4.98236 1.40475 4.34569 1.53209C3.38369 1.72475 2.53632 2.31475 2.02098 3.15009C1.50765 3.98209 1.36769 4.95543 1.62369 5.88943C2.75235 9.99676 6.00703 13.2488 10.1164 14.3768C10.4204 14.4601 10.7283 14.5014 11.0343 14.5014C11.6677 14.5014 12.293 14.3247 12.8537 13.9787C13.689 13.4634 14.279 12.6161 14.471 11.6541C14.5963 11.0321 14.3136 10.3961 13.7676 10.0707ZM13.4904 11.4574C13.3524 12.1481 12.9283 12.7568 12.3283 13.1274C11.7363 13.4928 11.045 13.5941 10.381 13.4121C6.61034 12.3774 3.62368 9.39275 2.58902 5.62409C2.40635 4.96009 2.50703 4.26808 2.87303 3.67475C3.2437 3.07408 3.8517 2.65076 4.5537 2.51009C4.58637 2.50343 4.61968 2.50008 4.65168 2.50008C4.82635 2.50008 4.99168 2.59141 5.08234 2.74608L6.12434 4.50541C6.35967 4.90208 6.24304 5.41341 5.85904 5.66874L4.75162 6.40542C4.55228 6.53808 4.47504 6.79341 4.56704 7.01408C5.39438 8.99675 7.00105 10.6081 8.97639 11.4334C9.19372 11.5247 9.45096 11.4494 9.5843 11.2508L10.3276 10.1407C10.5836 9.75742 11.095 9.64141 11.4936 9.87807L13.2557 10.9288C13.4377 11.0381 13.5324 11.2501 13.4904 11.4574ZM10.3136 4.98008L11.2936 4.00008L10.3136 3.02008C10.1183 2.82475 10.1183 2.50808 10.3136 2.31275C10.509 2.11741 10.8257 2.11741 11.021 2.31275L12.001 3.29275L12.9809 2.31275C13.1763 2.11741 13.493 2.11741 13.6883 2.31275C13.8836 2.50808 13.8836 2.82475 13.6883 3.02008L12.7083 4.00008L13.6883 4.98008C13.8836 5.17542 13.8836 5.49209 13.6883 5.68742C13.591 5.78475 13.4629 5.83409 13.3349 5.83409C13.2069 5.83409 13.0789 5.78542 12.9816 5.68742L12.0016 4.70742L11.0216 5.68742C10.9243 5.78475 10.7963 5.83409 10.6683 5.83409C10.5403 5.83409 10.4123 5.78542 10.3149 5.68742C10.1183 5.49209 10.1183 5.17475 10.3136 4.98008Z" fill="#3B3B3E"/>
</svg>
