<svg width="16" height="16" viewBox="0 0 16 16" fill="none" xmlns="http://www.w3.org/2000/svg">
<path d="M13.472 5.42718L9.39201 2.00652C8.58601 1.32986 7.41399 1.32986 6.60799 2.00652L2.52799 5.42718C1.89066 5.95584 1.5 6.35187 1.5 7.76653V11.9999C1.5 13.6119 2.388 14.4999 4 14.4999H12C13.612 14.4999 14.5 13.6119 14.5 11.9999V7.76653C14.5 6.35187 14.1093 5.95584 13.472 5.42718ZM13.5 11.9999C13.5 13.0512 13.0513 13.4999 12 13.4999H4C2.94867 13.4999 2.5 13.0512 2.5 11.9999V7.76653C2.5 6.7492 2.66802 6.60988 3.16602 6.19655L7.25 2.77256C7.46733 2.59056 7.734 2.4992 8 2.4992C8.266 2.4992 8.53267 2.59056 8.75 2.77256L12.834 6.19655C13.332 6.60988 13.5 6.7492 13.5 7.76653V11.9999ZM9.18066 6.16652C9.17733 6.16652 9.17397 6.16652 9.17131 6.16652C8.65864 6.16652 8.27268 6.37781 7.99935 6.64381C7.72602 6.37781 7.33999 6.16652 6.82666 6.16652C6.82399 6.16652 6.82063 6.16652 6.8173 6.16652C6.20197 6.16918 5.68602 6.40381 5.32536 6.84515C4.89069 7.37515 4.73268 8.14518 4.89201 8.95851C5.28468 10.9678 7.69136 12.0765 7.79403 12.1225C7.85936 12.1518 7.92933 12.1665 8 12.1665C8.07067 12.1665 8.14064 12.1518 8.20597 12.1225C8.30797 12.0765 10.7153 10.9678 11.108 8.95851C11.2667 8.14451 11.1086 7.37448 10.6753 6.84515C10.3133 6.40381 9.79666 6.16918 9.18066 6.16652ZM10.1253 8.76588C9.88866 9.97788 8.52533 10.8212 8 11.1059C7.47467 10.8219 6.11134 9.97855 5.87467 8.76588C5.77467 8.25388 5.85868 7.77253 6.10002 7.47853C6.26802 7.27253 6.51197 7.16785 6.82397 7.16652C6.82531 7.16652 6.82598 7.16652 6.82731 7.16652C7.31864 7.16652 7.50803 7.65319 7.52669 7.70452C7.59469 7.90652 7.78335 8.04048 7.99601 8.04314C7.99801 8.04314 7.99997 8.04314 8.0013 8.04314C8.21197 8.04314 8.40197 7.90848 8.47331 7.70981C8.49264 7.65448 8.68201 7.16717 9.17334 7.16717C9.17467 7.16717 9.17534 7.16717 9.17668 7.16717C9.49001 7.1685 9.73335 7.27385 9.90202 7.47918C10.142 7.77251 10.226 8.25388 10.1253 8.76588Z" fill="#3B3B3E"/>
</svg>
