<svg width="16" height="16" viewBox="0 0 16 16" fill="none" xmlns="http://www.w3.org/2000/svg">
<path d="M5.74646 9.20641C5.74646 9.48641 5.5198 9.71308 5.24646 9.71308C4.97313 9.71308 4.73979 9.48641 4.73979 9.20641C4.73979 8.92641 4.96646 8.70641 5.24646 8.70641C5.52646 8.70641 5.74646 8.93308 5.74646 9.20641ZM10.7531 8.70641C10.4798 8.70641 10.2531 8.92641 10.2531 9.20641C10.2531 9.48641 10.4731 9.71308 10.7531 9.71308C11.0331 9.71308 11.2598 9.48641 11.2598 9.20641C11.2598 8.92641 11.0331 8.70641 10.7531 8.70641ZM14.4998 11.2798C14.5131 11.4198 14.4665 11.5597 14.3731 11.6664C14.2798 11.7731 14.1465 11.8331 13.9998 11.8331H1.9998C1.8598 11.8331 1.7198 11.7731 1.62647 11.6664C1.53313 11.5597 1.48647 11.4198 1.4998 11.2798C1.71313 9.19309 2.90646 7.35308 4.69979 6.31308L3.84648 4.8264C3.75315 4.6664 3.81314 4.46641 3.96647 4.37308C4.12647 4.27974 4.32647 4.33307 4.4198 4.49307L5.28646 6.00642C6.97979 5.25308 9.02645 5.25975 10.6931 6.00642L11.5598 4.49307C11.6532 4.33307 11.8598 4.27974 12.0131 4.37308C12.1731 4.46641 12.2265 4.6664 12.1331 4.8264L11.2798 6.31308C13.0798 7.35974 14.2664 9.19309 14.4798 11.2798H14.4998ZM13.4198 10.8331C13.0931 9.25308 12.1065 7.88642 10.6865 7.11309L10.3465 6.93975C8.93315 6.28641 7.08645 6.27975 5.64645 6.94642L5.29981 7.11974C3.89981 7.88641 2.90647 9.25308 2.58647 10.8331H13.4198Z" fill="#3B3B3E"/>
</svg>
