<svg width="16" height="16" viewBox="0 0 16 16" fill="none" xmlns="http://www.w3.org/2000/svg">
<path d="M13.472 5.42718L9.39201 2.00652C8.58601 1.32986 7.41399 1.32986 6.60799 2.00652L2.52799 5.42718C1.89066 5.95584 1.5 6.35187 1.5 7.76653V11.9999C1.5 13.6119 2.388 14.4999 4 14.4999H12C13.612 14.4999 14.5 13.6119 14.5 11.9999V7.76653C14.5 6.35187 14.1093 5.95584 13.472 5.42718ZM13.5 11.9999C13.5 13.0512 13.0513 13.4999 12 13.4999H4C2.94867 13.4999 2.5 13.0512 2.5 11.9999V7.76653C2.5 6.7492 2.66802 6.60988 3.16602 6.19655L7.25 2.77256C7.46733 2.59056 7.734 2.4992 8 2.4992C8.266 2.4992 8.53267 2.59056 8.75 2.77256L12.834 6.19655C13.332 6.60988 13.5 6.7492 13.5 7.76653V11.9999ZM11.1667 8.99985V10.6665C11.1667 10.7319 11.1533 10.7965 11.128 10.8578C11.0773 10.9798 10.98 11.0772 10.858 11.1279C10.7967 11.1532 10.732 11.1665 10.6667 11.1665H9C8.724 11.1665 8.5 10.9425 8.5 10.6665C8.5 10.3905 8.724 10.1665 9 10.1665H9.45931L8.42065 9.12786L7.69002 9.91383C7.32802 10.2758 6.69465 10.2772 6.33065 9.91383L4.97998 8.56251C4.78465 8.36718 4.78465 8.05049 4.97998 7.85516C5.17531 7.65982 5.492 7.65982 5.68734 7.85516L7.03866 9.20656L7.76937 8.4205C8.1327 8.05717 8.76533 8.05784 9.12866 8.4205L10.1673 9.45916V8.99985C10.1673 8.72385 10.3913 8.49985 10.6673 8.49985C10.9433 8.49985 11.1667 8.72385 11.1667 8.99985Z" fill="#3B3B3E"/>
</svg>
