<svg width="16" height="16" viewBox="0 0 16 16" fill="none" xmlns="http://www.w3.org/2000/svg">
<path d="M13.7944 8.19158C13.7691 8.25292 13.7325 8.30818 13.6865 8.35418L11.0199 11.0208C10.9225 11.1182 10.7945 11.1675 10.6665 11.1675C10.5385 11.1675 10.4105 11.1188 10.3132 11.0208C10.1178 10.8255 10.1178 10.5088 10.3132 10.3135L12.1265 8.50018H2.6665C2.3905 8.50018 2.1665 8.27618 2.1665 8.00018C2.1665 7.72418 2.3905 7.50018 2.6665 7.50018H12.1258L10.3125 5.68686C10.1172 5.49153 10.1172 5.17484 10.3125 4.97951C10.5078 4.78417 10.8245 4.78417 11.0199 4.97951L13.6865 7.64617C13.7325 7.69217 13.7691 7.74744 13.7944 7.80877C13.8451 7.93144 13.8451 8.06892 13.7944 8.19158Z" fill="#3B3B3E"/>
</svg>
