<svg width="16" height="16" viewBox="0 0 16 16" fill="none" xmlns="http://www.w3.org/2000/svg">
<path d="M11.236 14.5C11.0433 14.5 10.85 14.454 10.6706 14.36L8.07869 13.0033C8.02936 12.9773 7.97063 12.9773 7.9213 13.0033L5.33129 14.3587C4.91863 14.5747 4.42803 14.5387 4.05069 14.264C3.67536 13.99 3.49001 13.536 3.56868 13.078L4.06266 10.2107C4.07199 10.1567 4.05396 10.102 4.01529 10.064L1.85465 7.96667C1.53398 7.65534 1.42002 7.19732 1.55802 6.77132C1.69602 6.34532 2.0573 6.04066 2.5013 5.97599L5.48933 5.54399C5.544 5.53599 5.59066 5.502 5.61466 5.45333L6.90999 2.84135C7.11665 2.42468 7.53401 2.16602 7.99934 2.16602C8.46468 2.16602 8.88203 2.42468 9.0887 2.84135L10.3833 5.45268C10.408 5.50201 10.4547 5.53599 10.5094 5.54399L13.4973 5.97599C13.9413 6.03999 14.3027 6.34466 14.4407 6.77132C14.5787 7.19732 14.4646 7.65534 14.144 7.96667L11.984 10.0633C11.944 10.102 11.9267 10.1567 11.936 10.2107L12.43 13.0793C12.5087 13.5367 12.3246 13.9907 11.9486 14.264C11.7366 14.4207 11.4867 14.5 11.236 14.5ZM7.99999 11.984C8.18599 11.984 8.37265 12.028 8.54199 12.1167L11.134 13.4733C11.2374 13.528 11.3213 13.486 11.3613 13.4567C11.4013 13.428 11.4646 13.362 11.4453 13.25L10.9513 10.3807C10.886 10.0007 11.0126 9.61399 11.2893 9.34599L13.4486 7.25C13.5133 7.18733 13.5026 7.11665 13.4906 7.08065C13.4786 7.04398 13.4453 6.98001 13.3553 6.96667L10.3673 6.53467C9.98668 6.48 9.65803 6.24134 9.48803 5.89734L8.194 3.28666C8.14267 3.18266 8.05065 3.16732 8.00065 3.16732C7.95065 3.16732 7.8587 3.18266 7.80737 3.28666L6.51269 5.89799C6.34336 6.24132 6.01469 6.48 5.63403 6.53467L2.64599 6.96667C2.55599 6.98001 2.52199 7.04331 2.51066 7.08065C2.49866 7.11731 2.48865 7.18733 2.55265 7.25L4.71264 9.34668C4.98864 9.61401 5.1153 10.0007 5.04996 10.3807L4.55598 13.248C4.53665 13.3607 4.6007 13.4267 4.6407 13.456C4.68203 13.4853 4.7633 13.5267 4.8693 13.4727L7.4593 12.1174C7.6273 12.0287 7.81399 11.984 7.99999 11.984Z" fill="#3B3B3E"/>
</svg>
