<svg width="16" height="16" viewBox="0 0 16 16" fill="none" xmlns="http://www.w3.org/2000/svg">
<path d="M14.2988 5.09699L12.6575 2.24966C12.4575 1.90233 12.1348 1.65427 11.7475 1.55093C11.3608 1.44693 10.9561 1.50033 10.6108 1.701L9.44819 2.37304C9.04485 2.60637 8.79748 3.00234 8.72748 3.42968L2.29617 7.80695C1.51083 8.34495 1.26937 9.41232 1.74604 10.2363L1.91807 10.5343C2.25274 11.1203 2.87347 11.4551 3.5128 11.4551C3.7768 11.4551 4.04418 11.3977 4.29552 11.2777L6.86404 10.0503L4.90473 13.7669C4.77606 14.0109 4.86939 14.3137 5.11339 14.4424C5.35805 14.5717 5.66084 14.4771 5.78884 14.2331L8.00141 10.0363L10.2307 14.2344C10.3207 14.4037 10.4941 14.4997 10.6728 14.4997C10.7515 14.4997 10.8315 14.4811 10.9068 14.4417C11.1508 14.3124 11.2434 14.0096 11.114 13.7656L8.68142 9.18228L11.3274 7.91828C11.3708 7.93428 11.4108 7.9543 11.4562 7.9663C11.5848 8.00096 11.7161 8.01838 11.8461 8.01838C12.1061 8.01838 12.362 7.94973 12.5927 7.81639L13.7527 7.14566C14.466 6.73166 14.7114 5.81233 14.2988 5.09699ZM6.1614 9.27701L4.95876 7.2036L8.94347 4.49169L10.5055 7.201L6.1614 9.27701ZM3.86339 10.375C3.47339 10.5617 2.99944 10.4136 2.78477 10.0363L2.61143 9.73567C2.39477 9.361 2.50481 8.8763 2.85948 8.63296L4.1308 7.76773L5.25678 9.70897L3.86339 10.375ZM13.2501 6.27961L12.0901 6.9497C11.9768 7.01703 11.8428 7.035 11.7128 6.99966C11.5842 6.965 11.4768 6.88306 11.4101 6.76773L9.76736 3.91763C9.63069 3.6803 9.71217 3.3756 9.94884 3.23827L11.1114 2.56639C11.1874 2.52173 11.2728 2.49901 11.3595 2.49901C11.4021 2.49901 11.446 2.50426 11.4887 2.51626C11.6174 2.55093 11.7248 2.63303 11.7914 2.74836L13.4327 5.59569C13.5701 5.83503 13.4881 6.14161 13.2501 6.27961Z" fill="#3B3B3E"/>
</svg>
