<svg width="16" height="16" viewBox="0 0 16 16" fill="none" xmlns="http://www.w3.org/2000/svg">
<path d="M2.57145 14.5003C2.47479 14.5003 2.3809 14.499 2.2889 14.4957C1.95557 14.4877 1.66348 14.2743 1.54948 13.9523C1.43481 13.6283 1.52955 13.2757 1.78955 13.0544C2.41088 12.553 2.65944 11.9983 2.75944 11.6177C1.93477 10.6317 1.49951 9.38698 1.49951 8.00098C1.49951 4.56564 4.17285 2.16699 7.99951 2.16699C11.8262 2.16699 14.4995 4.56631 14.4995 8.00098C14.4995 11.4356 11.8262 13.835 7.99951 13.835C7.20818 13.835 6.44948 13.7276 5.73682 13.5156C4.82815 14.307 3.57612 14.5003 2.57145 14.5003ZM2.31885 13.4957C2.32018 13.4957 2.32142 13.4957 2.32275 13.4957C2.32075 13.4964 2.31951 13.4964 2.31885 13.4957ZM8.00016 3.16699C4.76216 3.16699 2.50016 5.15498 2.50016 8.00098C2.50016 9.22498 2.90348 10.309 3.66748 11.1357C3.77081 11.2477 3.81811 11.401 3.79411 11.5523C3.68211 12.2663 3.33023 12.9417 2.7889 13.4957C3.56223 13.4677 4.60219 13.2897 5.24219 12.607C5.37619 12.463 5.58418 12.4117 5.77018 12.4763C6.46018 12.715 7.21016 12.8357 8.00016 12.8357C11.2382 12.8357 13.5002 10.8476 13.5002 8.00163C13.5002 5.15563 11.2382 3.16699 8.00016 3.16699ZM9.52816 11.167C9.39549 11.167 9.26282 11.1356 9.13949 11.071L8.00016 10.477L6.86149 11.0703C6.57616 11.2196 6.23684 11.1937 5.97884 11.0037C5.72017 10.815 5.59345 10.5023 5.64811 10.187L5.8641 8.93636L4.91488 8.01831C4.69021 7.80098 4.6102 7.48164 4.70687 7.18498C4.80354 6.88698 5.05489 6.67431 5.36556 6.62964L6.68213 6.4397L7.25016 5.29769C7.39216 5.01169 7.68015 4.83366 8.00081 4.83366C8.32148 4.83366 8.60947 5.01167 8.75147 5.29834L9.3195 6.4397L10.6362 6.62964C10.9469 6.67431 11.1988 6.88764 11.2948 7.18498C11.3914 7.48164 11.3108 7.80098 11.0868 8.01831L10.1375 8.93636L10.3542 10.1883C10.4082 10.5036 10.2815 10.8163 10.0228 11.005C9.87479 11.1123 9.70216 11.167 9.52816 11.167ZM8.0861 10.4323C8.08543 10.4323 8.08543 10.4323 8.0861 10.4323V10.4323ZM7.99951 9.45369C8.12951 9.45369 8.26024 9.48429 8.37891 9.54696L9.31022 10.033L9.13281 9.00895C9.08748 8.74362 9.17547 8.47296 9.36947 8.2863L10.1149 7.56502L9.07878 7.41569C8.81478 7.37836 8.5855 7.21231 8.46549 6.97298L7.99886 6.03434L7.53288 6.97233C7.41221 7.21233 7.18281 7.37834 6.91748 7.41634L5.88281 7.56567L6.62891 8.28703C6.82224 8.47369 6.91091 8.74428 6.86491 9.00895L6.6875 10.033L7.62012 9.54696C7.74012 9.48429 7.87018 9.45369 7.99951 9.45369ZM10.4915 7.61898H10.4982H10.4915Z" fill="#3B3B3E"/>
</svg>
