<svg width="16" height="16" viewBox="0 0 16 16" fill="none" xmlns="http://www.w3.org/2000/svg">
<path d="M12.1027 2.83333H9.16666V2C9.16666 1.724 8.94266 1.5 8.66666 1.5C8.39066 1.5 8.16666 1.724 8.16666 2V2.83333H5.47133C5.07066 2.83333 4.69399 2.98929 4.41066 3.27262L2.50799 5.17529C2.05333 5.62996 2.05333 6.37002 2.50799 6.82536L4.41066 8.72803C4.69399 9.01136 5.07066 9.16732 5.47133 9.16732H8.16666V13.5007H6.66666C6.39066 13.5007 6.16666 13.7247 6.16666 14.0007C6.16666 14.2767 6.39066 14.5007 6.66666 14.5007H10.6667C10.9427 14.5007 11.1667 14.2767 11.1667 14.0007C11.1667 13.7247 10.9427 13.5007 10.6667 13.5007H9.16666V9.16732H12.1027C13.2027 9.16732 13.8333 8.53669 13.8333 7.43669V4.56462C13.8333 3.46395 13.2027 2.83333 12.1027 2.83333ZM12.8333 7.43604C12.8333 7.9827 12.6493 8.16667 12.1027 8.16667H5.47133C5.338 8.16667 5.212 8.11469 5.118 8.02002L3.21533 6.11735C3.15066 6.05202 3.15066 5.94668 3.21533 5.88135L5.118 3.97868C5.21266 3.88401 5.338 3.83203 5.47133 3.83203H12.1027C12.6493 3.83203 12.8333 4.016 12.8333 4.56266V7.43604Z" fill="#3B3B3E"/>
</svg>
