<svg width="16" height="16" viewBox="0 0 16 16" fill="none" xmlns="http://www.w3.org/2000/svg">
<path d="M13.1306 12.7603C13.234 13.0163 13.1093 13.3076 12.8533 13.411C12.156 13.6916 11.4206 13.8337 10.6666 13.8337C8.09131 13.8337 5.90398 12.1537 5.13265 9.83366H3.33331C3.05731 9.83366 2.83331 9.60966 2.83331 9.33366C2.83331 9.05766 3.05731 8.83366 3.33331 8.83366H4.89998C4.86065 8.56099 4.83331 8.28433 4.83331 8.00033C4.83331 7.71633 4.86065 7.43966 4.89998 7.16699H3.33331C3.05731 7.16699 2.83331 6.94299 2.83331 6.66699C2.83331 6.39099 3.05731 6.16699 3.33331 6.16699H5.13265C5.90332 3.84699 8.09065 2.16699 10.6666 2.16699C11.428 2.16699 12.1646 2.31232 12.8573 2.59766C13.1126 2.70299 13.234 2.99566 13.1286 3.25033C13.0233 3.50566 12.732 3.62765 12.476 3.52165C11.9053 3.28565 11.296 3.16634 10.6666 3.16634C8.65065 3.16634 6.92065 4.40834 6.19665 6.16634H9.99998C10.276 6.16634 10.5 6.39034 10.5 6.66634C10.5 6.94234 10.276 7.16634 9.99998 7.16634H5.91064C5.86331 7.43767 5.83331 7.71501 5.83331 7.99967C5.83331 8.28434 5.86264 8.56167 5.91064 8.83301H9.99998C10.276 8.83301 10.5 9.05701 10.5 9.33301C10.5 9.60901 10.276 9.83301 9.99998 9.83301H6.19665C6.92065 11.591 8.65065 12.833 10.6666 12.833C11.292 12.833 11.902 12.715 12.48 12.4823C12.736 12.3797 13.0273 12.5043 13.1306 12.7603Z" fill="#3B3B3E"/>
</svg>
