<svg width="16" height="16" viewBox="0 0 16 16" fill="none" xmlns="http://www.w3.org/2000/svg">
<path d="M13.8317 5.65475L9.37699 1.99273C8.57899 1.33739 7.421 1.33673 6.623 1.99273L2.16833 5.65475C1.655 6.07675 1.41034 6.74538 1.52901 7.39938L2.49906 12.7214C2.68706 13.7514 3.58372 14.4994 4.63106 14.4994H11.3677C12.415 14.4994 13.3117 13.7514 13.4997 12.7214L14.4697 7.39938C14.5897 6.74538 14.345 6.07675 13.8317 5.65475ZM13.4864 7.2201L12.5164 12.542C12.4157 13.0967 11.9324 13.4994 11.3684 13.4994H4.63171C4.06771 13.4994 3.58501 13.0967 3.48368 12.542L2.51371 7.22075C2.45904 6.92342 2.5704 6.61938 2.8044 6.42738L7.25899 2.76543C7.47365 2.58877 7.73703 2.5007 8.00036 2.5007C8.26369 2.5007 8.52707 2.58942 8.74173 2.76608L13.1963 6.42803C13.4297 6.61936 13.541 6.92277 13.4864 7.2201ZM9.66703 9.74142C9.66703 10.1394 9.51368 10.5147 9.23368 10.7974C9.03034 11.0047 8.77636 11.1428 8.50036 11.2034V11.3327C8.50036 11.6087 8.27636 11.8327 8.00036 11.8327C7.72436 11.8327 7.50036 11.6087 7.50036 11.3327V11.2028C6.89036 11.0681 6.41505 10.5574 6.34305 9.90606C6.31239 9.63139 6.51036 9.38406 6.78503 9.35406C7.05236 9.32472 7.30571 9.52136 7.33638 9.79603C7.36438 10.0494 7.57101 10.24 7.81701 10.24H8.18436C8.31036 10.24 8.43035 10.1887 8.52168 10.0961C8.61635 10.0001 8.66768 9.87476 8.66768 9.74142C8.66768 9.51209 8.51568 9.31272 8.29968 9.25672L7.45503 9.04408C7.13303 8.96074 6.845 8.77071 6.64367 8.50738C6.44434 8.25204 6.33369 7.92471 6.33369 7.59071C6.33369 6.87404 6.83436 6.2754 7.50036 6.12806V5.9994C7.50036 5.7234 7.72436 5.4994 8.00036 5.4994C8.27636 5.4994 8.50036 5.7234 8.50036 5.9994V6.12936C9.11036 6.26403 9.58567 6.77474 9.65767 7.42608C9.68834 7.70074 9.49036 7.94808 9.21569 7.97808C8.94903 8.00608 8.69501 7.81077 8.66434 7.5361C8.63634 7.28277 8.42971 7.09209 8.18371 7.09209H7.81636C7.55036 7.09209 7.33304 7.31538 7.33304 7.59071C7.33304 7.70404 7.36903 7.8127 7.43436 7.8967C7.50369 7.98736 7.59506 8.04808 7.70039 8.07541L8.54504 8.28806C9.20704 8.45806 9.66703 9.05542 9.66703 9.74142Z" fill="#3B3B3E"/>
</svg>
