<svg width="16" height="16" viewBox="0 0 16 16" fill="none" xmlns="http://www.w3.org/2000/svg">
<g clip-path="url(#clip0_36251_7319)">
<path d="M5.33329 10.1667C5.20529 10.1667 5.07727 10.118 4.97994 10.02C4.78461 9.82469 4.78461 9.508 4.97994 9.31266L10.3133 3.97933C10.5086 3.784 10.8253 3.784 11.0206 3.97933C11.216 4.17466 11.216 4.49135 11.0206 4.68669L5.6873 10.02C5.5893 10.118 5.46129 10.1667 5.33329 10.1667ZM11.1666 8.83333C11.1666 8.098 10.5686 7.5 9.83329 7.5C9.09796 7.5 8.49996 8.098 8.49996 8.83333C8.49996 9.56867 9.09796 10.1667 9.83329 10.1667C10.5686 10.1667 11.1666 9.56867 11.1666 8.83333ZM10.1666 8.83333C10.1666 9.01733 10.0173 9.16667 9.83329 9.16667C9.64929 9.16667 9.49996 9.01733 9.49996 8.83333C9.49996 8.64933 9.64929 8.5 9.83329 8.5C10.0173 8.5 10.1666 8.64933 10.1666 8.83333ZM7.49996 5.16667C7.49996 4.43133 6.90196 3.83333 6.16663 3.83333C5.43129 3.83333 4.83329 4.43133 4.83329 5.16667C4.83329 5.902 5.43129 6.5 6.16663 6.5C6.90196 6.5 7.49996 5.902 7.49996 5.16667ZM6.49996 5.16667C6.49996 5.35067 6.35063 5.5 6.16663 5.5C5.98263 5.5 5.83329 5.35067 5.83329 5.16667C5.83329 4.98267 5.98263 4.83333 6.16663 4.83333C6.35063 4.83333 6.49996 4.98267 6.49996 5.16667ZM9.28931 14.5227L10.2893 13.1894C10.404 13.0367 10.5866 12.9447 10.778 12.9447H11.778C13.5333 12.9447 14.5 11.978 14.5 10.2227V3.55599C14.5 1.80066 13.5333 0.833984 11.778 0.833984H4.22262C2.46728 0.833984 1.50061 1.80066 1.50061 3.55599V10.2227C1.50061 11.978 2.46728 12.9447 4.22262 12.9447H5.22262C5.41395 12.9447 5.59664 13.036 5.7113 13.1894L6.7113 14.5227C7.01797 14.932 7.48863 15.1667 7.99996 15.1667C8.51129 15.1667 8.98197 14.932 9.28931 14.5227ZM11.778 1.83333C12.9853 1.83333 13.5 2.34801 13.5 3.55534V10.222C13.5 11.4293 12.9853 11.944 11.778 11.944H10.778C10.2733 11.944 9.79196 12.1854 9.4893 12.5887L8.4893 13.922C8.2553 14.2327 7.74398 14.2327 7.51131 13.922L6.51131 12.5887C6.20864 12.1854 5.72728 11.944 5.22262 11.944H4.22262C3.01528 11.944 2.50061 11.4293 2.50061 10.222V3.55534C2.50061 2.34801 3.01528 1.83333 4.22262 1.83333H11.778Z" fill="#3B3B3E"/>
</g>
<defs>
<clipPath id="clip0_36251_7319">
<rect width="16" height="16" fill="white"/>
</clipPath>
</defs>
</svg>
