<svg width="16" height="16" viewBox="0 0 16 16" fill="none" xmlns="http://www.w3.org/2000/svg">
<path d="M8.00004 15.1663C4.04804 15.1663 0.833374 11.951 0.833374 7.99967C0.833374 4.04834 4.04804 0.833008 8.00004 0.833008C11.952 0.833008 15.1667 4.04834 15.1667 7.99967C15.1667 11.951 11.952 15.1663 8.00004 15.1663ZM8.00004 1.83301C4.59937 1.83301 1.83337 4.59901 1.83337 7.99967C1.83337 11.4003 4.59937 14.1663 8.00004 14.1663C11.4007 14.1663 14.1667 11.4003 14.1667 7.99967C14.1667 4.59901 11.4007 1.83301 8.00004 1.83301ZM9.7974 11.6663C9.65474 11.6663 9.51135 11.6317 9.37935 11.5623L8.00004 10.8363L6.62203 11.5617C6.31736 11.7217 5.95537 11.6957 5.67737 11.4937C5.3987 11.291 5.26136 10.9537 5.32003 10.6137L5.58337 9.07703L4.4307 7.95235C4.19137 7.71902 4.10667 7.37566 4.21 7.05766C4.31333 6.73966 4.58335 6.51236 4.91402 6.46436L6.50671 6.23234L7.196 4.83366C7.34867 4.52433 7.65602 4.33301 8.00069 4.33301C8.34536 4.33301 8.65338 4.52502 8.80538 4.83435L9.49467 6.23299L11.088 6.46501C11.418 6.51301 11.6874 6.74035 11.7914 7.05835C11.8947 7.37635 11.81 7.71967 11.5707 7.953L10.418 9.07768L10.682 10.6157C10.74 10.9557 10.6027 11.293 10.324 11.495C10.166 11.6083 9.98274 11.6663 9.7974 11.6663ZM8.00004 9.81901C8.13937 9.81901 8.27873 9.85234 8.4054 9.91968L9.66003 10.5803L9.42069 9.18099C9.37203 8.89766 9.46535 8.60899 9.67135 8.40832L10.6867 7.41699L9.28267 7.21301C8.99867 7.17168 8.75407 6.99303 8.6274 6.73503L8.00069 5.46366L7.37406 6.73568C7.2474 6.99301 7.00204 7.17168 6.71871 7.21301L5.31474 7.41699L6.33004 8.40832C6.53604 8.60832 6.62935 8.89766 6.58069 9.18099L6.34135 10.5797L7.59607 9.91903C7.7214 9.85236 7.86071 9.81901 8.00004 9.81901ZM10.9434 7.45435H10.9501H10.9434ZM7.90735 5.27568C7.90735 5.27634 7.90735 5.27634 7.90735 5.27568C7.90735 5.27634 7.90735 5.27634 7.90735 5.27568Z" fill="#3B3B3E"/>
</svg>
