<svg width="16" height="16" viewBox="0 0 16 16" fill="none" xmlns="http://www.w3.org/2000/svg">
<path d="M14.5 6.00016C14.5 4.98883 13.678 4.16683 12.6667 4.16683H11.2446L9.80265 1.74416C9.66132 1.5075 9.35535 1.42816 9.11735 1.57016C8.88068 1.71149 8.80203 2.01816 8.94336 2.25549L10.0806 4.16616H5.97998L7.13403 2.25816C7.27737 2.02216 7.20133 1.71483 6.96533 1.57149C6.72733 1.42816 6.42131 1.50416 6.27865 1.74016L4.81136 4.1655H3.33333C2.322 4.1655 1.5 4.9875 1.5 5.99883C1.5 6.72483 1.92734 7.34816 2.54134 7.64483L3.0013 12.2475C3.15264 13.7622 3.96602 14.4988 5.48869 14.4988H10.5353C12.058 14.4988 12.872 13.7628 13.0227 12.2475L13.484 7.63083C14.084 7.33016 14.5 6.7155 14.5 6.00016ZM3.33333 5.16683H12.6667C13.126 5.16683 13.5 5.54083 13.5 6.00016C13.5 6.4595 13.126 6.8335 12.6667 6.8335H3.33333C2.874 6.8335 2.5 6.4595 2.5 6.00016C2.5 5.54083 2.874 5.16683 3.33333 5.16683ZM12.0286 12.1495C11.9426 13.0048 11.6713 13.5002 10.536 13.5002H5.48934C4.34801 13.5002 4.08466 13.0255 3.99666 12.1495L3.56535 7.8335H12.4607L12.0286 12.1495ZM9.83333 10.6668C9.83333 10.9428 9.60933 11.1668 9.33333 11.1668H8.5V12.0002C8.5 12.2762 8.276 12.5002 8 12.5002C7.724 12.5002 7.5 12.2762 7.5 12.0002V11.1668H6.66667C6.39067 11.1668 6.16667 10.9428 6.16667 10.6668C6.16667 10.3908 6.39067 10.1668 6.66667 10.1668H7.5V9.3335C7.5 9.0575 7.724 8.8335 8 8.8335C8.276 8.8335 8.5 9.0575 8.5 9.3335V10.1668H9.33333C9.60933 10.1668 9.83333 10.3908 9.83333 10.6668Z" fill="#3B3B3E"/>
</svg>
