<svg width="16" height="16" viewBox="0 0 16 16" fill="none" xmlns="http://www.w3.org/2000/svg">
<path d="M14 4.5H6.66667C6.39067 4.5 6.16667 4.276 6.16667 4C6.16667 3.724 6.39067 3.5 6.66667 3.5H14C14.276 3.5 14.5 3.724 14.5 4C14.5 4.276 14.276 4.5 14 4.5ZM14.5 8C14.5 7.724 14.276 7.5 14 7.5H2C1.724 7.5 1.5 7.724 1.5 8C1.5 8.276 1.724 8.5 2 8.5H14C14.276 8.5 14.5 8.276 14.5 8ZM9.83333 12C9.83333 11.724 9.60933 11.5 9.33333 11.5H2C1.724 11.5 1.5 11.724 1.5 12C1.5 12.276 1.724 12.5 2 12.5H9.33333C9.60933 12.5 9.83333 12.276 9.83333 12Z" fill="#3B3B3E"/>
</svg>
