<svg width="16" height="16" viewBox="0 0 16 16" fill="none" xmlns="http://www.w3.org/2000/svg">
<path d="M14.4594 8.67234C14.4594 8.67034 14.4607 8.66834 14.4607 8.66634C14.4607 8.66034 14.4574 8.65567 14.4574 8.64967C14.4494 8.60234 14.4401 8.555 14.4288 8.50767C14.4235 8.49167 14.4208 8.47568 14.4141 8.46034C14.3821 8.33568 14.3501 8.21167 14.2987 8.09167L12.9794 5.01434C12.6454 4.23501 12.3301 3.499 10.6814 3.499C10.4054 3.499 10.1814 3.723 10.1814 3.999C10.1814 4.275 10.4054 4.499 10.6814 4.499C11.6707 4.499 11.7608 4.70967 12.0601 5.40834L13.2421 8.16566H11.3634C10.53 8.16566 9.75749 8.63566 9.29549 9.42366C9.02816 9.88099 8.53141 10.1657 8.00008 10.1657C7.46875 10.1657 6.972 9.88101 6.70467 9.42301C6.24334 8.63568 5.47013 8.16566 4.6368 8.16566H2.75806L3.94002 5.40834C4.23936 4.70967 4.32943 4.499 5.31877 4.499C5.59477 4.499 5.81877 4.275 5.81877 3.999C5.81877 3.723 5.59477 3.499 5.31877 3.499C3.66943 3.499 3.35475 4.23501 3.02075 5.01434L1.70142 8.091C1.65008 8.211 1.61737 8.33566 1.58537 8.46099C1.57937 8.47433 1.57735 8.48901 1.57202 8.50301C1.56069 8.55167 1.55074 8.60034 1.54207 8.64967C1.54207 8.65501 1.53882 8.65966 1.53882 8.66499C1.53882 8.66699 1.53947 8.66834 1.53947 8.67034C1.51747 8.80368 1.49878 8.93835 1.49878 9.07568V11.9997C1.49878 13.6117 2.38678 14.4997 3.99878 14.4997H11.9988C13.6108 14.4997 14.4988 13.6117 14.4988 11.9997V9.077C14.5001 8.93967 14.4814 8.80567 14.4594 8.67234ZM12.0001 13.4997H4.00008C2.94875 13.4997 2.50008 13.051 2.50008 11.9997V9.16634H4.6368C5.11147 9.16634 5.56139 9.45168 5.84139 9.92901C6.28739 10.6923 7.11475 11.1663 8.00008 11.1663C8.88541 11.1663 9.71277 10.6923 10.1588 9.92966C10.4388 9.45166 10.8887 9.16634 11.3634 9.16634H13.5001V11.9997C13.5001 13.051 13.0514 13.4997 12.0001 13.4997ZM6.3134 3.01967C6.11806 2.82434 6.11806 2.50767 6.3134 2.31233L7.64673 0.978999C7.69273 0.932999 7.74816 0.896341 7.80949 0.871008C7.93149 0.820341 8.06949 0.820341 8.19149 0.871008C8.25282 0.896341 8.30809 0.932999 8.35409 0.978999L9.68742 2.31233C9.88275 2.50767 9.88275 2.82434 9.68742 3.01967C9.59009 3.117 9.46207 3.16634 9.33407 3.16634C9.20607 3.16634 9.07805 3.11767 8.98071 3.01967L8.50073 2.53967V6.66634C8.50073 6.94234 8.27673 7.16634 8.00073 7.16634C7.72473 7.16634 7.50073 6.94234 7.50073 6.66634V2.54034L7.02075 3.02034C6.82475 3.21501 6.50873 3.215 6.3134 3.01967Z" fill="#3B3B3E"/>
</svg>
