<svg width="16" height="16" viewBox="0 0 16 16" fill="none" xmlns="http://www.w3.org/2000/svg">
<path d="M9.58533 13.5853C9.25133 14.158 8.65866 14.5 7.99999 14.5C7.34133 14.5 6.74932 14.158 6.41466 13.5853C6.27599 13.3473 6.35599 13.0407 6.59466 12.902C6.83266 12.7627 7.13933 12.8433 7.27866 13.082C7.58466 13.6067 8.41533 13.6067 8.72133 13.082C8.86066 12.8433 9.16666 12.7627 9.40533 12.902C9.64399 13.0407 9.724 13.3473 9.58533 13.5853ZM13.7833 12.2167C13.7 12.3893 13.5253 12.5 13.3333 12.5H2.66666C2.47466 12.5 2.29999 12.3893 2.21666 12.2167C2.13332 12.0433 2.15666 11.838 2.27599 11.688C2.28866 11.6727 3.50333 10.126 3.50333 8.33333V5.99666C3.50333 3.51733 5.52066 1.5 7.99999 1.5C10.4793 1.5 12.4967 3.51733 12.4967 5.99666V8.33333C12.4967 10.126 13.7113 11.6727 13.724 11.688C13.8433 11.838 13.8667 12.0433 13.7833 12.2167ZM12.4087 11.5C11.996 10.772 11.4967 9.62467 11.4967 8.33333V5.99666C11.4967 4.06866 9.92799 2.5 7.99999 2.5C6.07199 2.5 4.50333 4.06866 4.50333 5.99666V8.33333C4.50333 9.62467 4.00332 10.772 3.59132 11.5H12.4087ZM9.35333 5.98C9.15799 5.78467 8.84132 5.78467 8.64599 5.98L7.99932 6.62667L7.35266 5.98C7.15733 5.78467 6.84066 5.78467 6.64533 5.98C6.44999 6.17533 6.44999 6.492 6.64533 6.68734L7.292 7.334L6.64533 7.98066C6.44999 8.176 6.44999 8.49267 6.64533 8.688C6.74266 8.78533 6.87066 8.83467 6.99866 8.83467C7.12666 8.83467 7.25466 8.786 7.35199 8.688L7.99866 8.04133L8.64533 8.688C8.74266 8.78533 8.87066 8.83467 8.99866 8.83467C9.12666 8.83467 9.25466 8.786 9.35199 8.688C9.54733 8.49267 9.54733 8.176 9.35199 7.98066L8.70533 7.334L9.35199 6.68734C9.54866 6.49134 9.54866 6.17533 9.35333 5.98Z" fill="#3B3B3E"/>
</svg>
