<svg width="16" height="16" viewBox="0 0 16 16" fill="none" xmlns="http://www.w3.org/2000/svg">
<path d="M12.6667 1.5C11.6533 1.5 10.8333 2.32 10.8333 3.33333V8.66667C10.8333 8.94 11.06 9.16667 11.3333 9.16667H12.1667V11C12.1667 12.0133 11.3467 12.8333 10.3333 12.8333C9.32 12.8333 8.5 12.0133 8.5 11V5C8.5 3.44 7.22667 2.16667 5.66667 2.16667C4.10667 2.16667 2.83333 3.44 2.83333 5V6.83333H2C1.72667 6.83333 1.5 7.06 1.5 7.33333V12.6667C1.5 13.68 2.32 14.5 3.33333 14.5C4.34667 14.5 5.16667 13.68 5.16667 12.6667V7.33333C5.16667 7.06 4.94 6.83333 4.66667 6.83333H3.83333V5C3.83333 3.98667 4.65333 3.16667 5.66667 3.16667C6.68 3.16667 7.5 3.98667 7.5 5V11C7.5 12.56 8.77333 13.8333 10.3333 13.8333C11.8933 13.8333 13.1667 12.56 13.1667 11V9.16667H14C14.2733 9.16667 14.5 8.94 14.5 8.66667V3.33333C14.5 2.32 13.68 1.5 12.6667 1.5ZM3.33333 13.5C2.87333 13.5 2.5 13.1267 2.5 12.6667V9.83333H4.16667V12.6667C4.16667 13.1267 3.79333 13.5 3.33333 13.5ZM4.16667 8.83333H2.5V7.83333H4.16667V8.83333ZM12.6667 2.5C13.1267 2.5 13.5 2.87333 13.5 3.33333V6.16667H11.8333V3.33333C11.8333 2.87333 12.2067 2.5 12.6667 2.5ZM11.8333 8.16667V7.16667H13.5V8.16667H11.8333Z" fill="#3B3B3E"/>
</svg>
