<svg width="16" height="16" viewBox="0 0 16 16" fill="none" xmlns="http://www.w3.org/2000/svg">
<g clip-path="url(#clip0_36251_7343)">
<path d="M6.00606 7.16619C7.56873 7.16619 8.8394 5.89486 8.8394 4.33286C8.8394 2.77086 7.56873 1.49953 6.00606 1.49953C4.4434 1.49953 3.17273 2.77086 3.17273 4.33286C3.17273 5.89486 4.4434 7.16619 6.00606 7.16619ZM6.00606 2.49953C7.0174 2.49953 7.8394 3.32153 7.8394 4.33286C7.8394 5.34419 7.0174 6.16619 6.00606 6.16619C4.99473 6.16619 4.17273 5.34419 4.17273 4.33286C4.17273 3.32153 4.99473 2.49953 6.00606 2.49953ZM11.1667 12.0129C11.1667 13.6162 10.2787 14.4995 8.66671 14.4995H4.59338C4.31738 14.4995 4.09338 14.2755 4.09338 13.9995C4.09338 13.7235 4.31738 13.4995 4.59338 13.4995H8.66671C9.71804 13.4995 10.1667 13.0549 10.1667 12.0129C10.1667 11.6355 10.0894 10.3488 9.09469 9.65684C8.86802 9.49884 8.81201 9.18754 8.97001 8.96087C9.12734 8.7342 9.43806 8.67755 9.66606 8.83555C10.6054 9.49021 11.1667 10.6775 11.1667 12.0129ZM12.9881 5.64756C13.1694 5.82089 13.1954 6.09489 13.056 6.29355C12.8367 6.67355 12.52 6.98023 12.1387 7.18223C12.0614 7.22556 11.9747 7.24823 11.8887 7.24823C11.7607 7.24823 11.6334 7.2002 11.5367 7.10353C11.3414 6.9082 11.3381 6.59484 11.5334 6.39951C11.5694 6.36351 11.6174 6.32683 11.6627 6.30283C11.8921 6.1835 12.0733 6.00483 12.2027 5.7715C12.2233 5.73417 12.2487 5.69955 12.278 5.66888C12.468 5.46821 12.7881 5.45756 12.9881 5.64756ZM15.1667 11.1196C15.1667 12.4202 14.4161 13.1662 13.1067 13.1662H12.6534C12.3774 13.1662 12.1534 12.9422 12.1534 12.6662C12.1534 12.3902 12.3774 12.1662 12.6534 12.1662H13.1067C13.8701 12.1662 14.1667 11.8729 14.1667 11.1196C14.1667 10.6269 14.0154 9.01955 12.0734 9.01955H11.066C10.79 9.01955 10.566 8.79555 10.566 8.51955C10.566 8.24355 10.79 8.01955 11.066 8.01955H12.0734C14.3567 8.01955 15.1667 9.68956 15.1667 11.1196ZM14.3534 2.35288C14.5487 2.15755 14.5487 1.84086 14.3534 1.64552C14.1581 1.45019 13.8414 1.45019 13.646 1.64552L12.1621 3.12949C11.5094 2.77549 10.6707 2.73888 10.0307 3.06821C9.78539 3.19421 9.68807 3.49622 9.81474 3.74155C9.94007 3.98689 10.2434 4.08487 10.4881 3.95753C10.7487 3.8242 11.0853 3.81488 11.394 3.89821L7.12602 8.16619H4.66671C1.83737 8.16619 0.833374 10.2382 0.833374 12.0129C0.833374 12.8022 1.04739 13.4082 1.46139 13.8316L0.980021 14.3128C0.784688 14.5082 0.784688 14.8249 0.980021 15.0202C1.07735 15.1175 1.20537 15.1668 1.33337 15.1668C1.46137 15.1668 1.58939 15.1182 1.68673 15.0202L14.3534 2.35288ZM1.83337 12.0129C1.83337 11.3455 2.03804 9.16619 4.66671 9.16619H6.12602L2.16606 13.1262C1.98672 12.9355 1.83337 12.6122 1.83337 12.0129Z" fill="#3B3B3E"/>
</g>
<defs>
<clipPath id="clip0_36251_7343">
<rect width="16" height="16" fill="white"/>
</clipPath>
</defs>
</svg>
