<svg width="16" height="16" viewBox="0 0 16 16" fill="none" xmlns="http://www.w3.org/2000/svg">
<path d="M11.75 1.5H4.25C2.47667 1.5 1.5 2.47667 1.5 4.25V11.75C1.5 13.5233 2.47667 14.5 4.25 14.5H11.75C13.5233 14.5 14.5 13.5233 14.5 11.75V4.25C14.5 2.47667 13.5233 1.5 11.75 1.5ZM13.5 11.75C13.5 12.9767 12.9767 13.5 11.75 13.5H4.25C3.02333 13.5 2.5 12.9767 2.5 11.75V4.25C2.5 3.02333 3.02333 2.5 4.25 2.5H11.75C12.9767 2.5 13.5 3.02333 13.5 4.25V11.75ZM10.3534 6.35335L8.70667 8L10.3534 9.64665C10.5487 9.84198 10.5487 10.1587 10.3534 10.354C10.256 10.4513 10.128 10.5007 10 10.5007C9.872 10.5007 9.74398 10.452 9.64665 10.354L8 8.70732L6.35335 10.354C6.25602 10.4513 6.128 10.5007 6 10.5007C5.872 10.5007 5.74398 10.452 5.64665 10.354C5.45131 10.1587 5.45131 9.84198 5.64665 9.64665L7.29334 8L5.64665 6.35335C5.45131 6.15802 5.45131 5.84133 5.64665 5.646C5.84198 5.45066 6.15867 5.45066 6.354 5.646L8.00065 7.29268L9.64734 5.646C9.84267 5.45066 10.1593 5.45066 10.3547 5.646C10.5487 5.84133 10.5487 6.15869 10.3534 6.35335Z" fill="#3B3B3E"/>
</svg>
