<svg width="16" height="16" viewBox="0 0 16 16" fill="none" xmlns="http://www.w3.org/2000/svg">
<path d="M7.99992 13.167H3.33325C1.72125 13.167 0.833252 12.279 0.833252 10.667V4.66699C0.833252 3.05499 1.72125 2.16699 3.33325 2.16699H11.3333C12.9453 2.16699 13.8333 3.05499 13.8333 4.66699V7.33366C13.8333 7.60966 13.6093 7.83366 13.3333 7.83366C13.0573 7.83366 12.8333 7.60966 12.8333 7.33366V4.66699C12.8333 3.61566 12.3846 3.16699 11.3333 3.16699H3.33325C2.28192 3.16699 1.83325 3.61566 1.83325 4.66699V10.667C1.83325 11.7183 2.28192 12.167 3.33325 12.167H7.99992C8.27592 12.167 8.49992 12.391 8.49992 12.667C8.49992 12.943 8.27592 13.167 7.99992 13.167ZM8.01929 8.11966L11.2939 5.73832C11.5172 5.57632 11.5666 5.263 11.4039 5.03966C11.2419 4.817 10.93 4.76632 10.7053 4.92966L7.43058 7.31099C7.37192 7.35366 7.29394 7.35366 7.23527 7.31099L3.96053 4.92966C3.7352 4.76632 3.42396 4.81766 3.26196 5.03966C3.0993 5.263 3.14866 5.57566 3.37199 5.73832L6.64657 8.12032C6.8519 8.26965 7.0926 8.34366 7.3326 8.34366C7.5726 8.34366 7.81462 8.26899 8.01929 8.11966ZM12.5378 14.457C12.6285 14.4163 14.7632 13.443 15.1125 11.667C15.2552 10.945 15.1146 10.259 14.7266 9.78499C14.3986 9.38366 13.9286 9.17033 13.3673 9.16766C13.3639 9.16766 13.3613 9.16766 13.3586 9.16766C12.918 9.16766 12.5793 9.33833 12.3333 9.55966C12.0859 9.33699 11.7612 9.16433 11.2992 9.16766C10.7392 9.17033 10.2692 9.38366 9.94051 9.78499C9.55251 10.2597 9.41064 10.9457 9.5533 11.667C9.9033 13.4423 12.0387 14.4163 12.1287 14.457C12.194 14.4863 12.2633 14.5003 12.3333 14.5003C12.4033 14.5003 12.4725 14.4857 12.5378 14.457ZM11.8599 10.589C11.9279 10.7897 12.1159 10.9223 12.3279 10.9257C12.5105 10.9257 12.7306 10.7943 12.8046 10.595C12.8206 10.551 12.9733 10.167 13.3593 10.167C13.3606 10.167 13.3612 10.167 13.3619 10.167C13.6226 10.1683 13.8159 10.2503 13.9526 10.4177C14.1479 10.657 14.2152 11.0517 14.1326 11.473C13.9346 12.4757 12.8039 13.1843 12.3339 13.4397C11.8639 13.1843 10.7332 12.4757 10.5352 11.4737C10.4519 11.0523 10.5199 10.6577 10.7159 10.4183C10.8532 10.251 11.0459 10.1683 11.3059 10.1677C11.3066 10.1677 11.3072 10.1677 11.3085 10.1677C11.6932 10.167 11.8459 10.551 11.8599 10.589Z" fill="#3B3B3E"/>
</svg>
