<svg width="16" height="16" viewBox="0 0 16 16" fill="none" xmlns="http://www.w3.org/2000/svg">
<path d="M9.00016 4.49967C7.62216 4.49967 6.50016 5.62101 6.50016 6.99967C6.50016 7.14234 6.5128 7.28435 6.53613 7.42301L4.64681 9.31234C4.55281 9.40634 4.50016 9.53369 4.50016 9.66569V10.999C4.50016 11.275 4.72416 11.499 5.00016 11.499H6.3335C6.6095 11.499 6.8335 11.275 6.8335 10.999V10.499H7.3335C7.46616 10.499 7.59352 10.4464 7.68685 10.3524L8.57682 9.46305C8.71549 9.48705 8.8575 9.49902 9.00016 9.49902C10.3782 9.49902 11.5002 8.37769 11.5002 6.99902C11.5002 5.62036 10.3782 4.49967 9.00016 4.49967ZM9.00016 8.49967C8.8515 8.49967 8.70621 8.47772 8.56755 8.43506C8.39155 8.37972 8.19756 8.4284 8.06689 8.55973L7.12679 9.49967H6.33415C6.05815 9.49967 5.83415 9.72367 5.83415 9.99967V10.4997H5.50081V9.8737L7.44075 7.93359C7.57142 7.80226 7.6201 7.60962 7.56543 7.43229C7.52276 7.29429 7.50081 7.14899 7.50081 7.00033C7.50081 6.17299 8.17415 5.50033 9.00081 5.50033C9.82748 5.50033 10.5008 6.17299 10.5008 7.00033C10.5008 7.82766 9.82683 8.49967 9.00016 8.49967ZM9.84684 6.66634C9.84684 6.94234 9.62351 7.16634 9.34684 7.16634C9.07084 7.16634 8.84342 6.94234 8.84342 6.66634C8.84342 6.39034 9.06417 6.16634 9.34017 6.16634H9.34684C9.62351 6.16634 9.84684 6.39034 9.84684 6.66634ZM8.00016 0.833008C4.04816 0.833008 0.833496 4.04767 0.833496 7.99967C0.833496 11.9517 4.04816 15.1663 8.00016 15.1663C11.9522 15.1663 15.1668 11.9517 15.1668 7.99967C15.1668 4.04767 11.9522 0.833008 8.00016 0.833008ZM8.00016 14.1663C4.5995 14.1663 1.8335 11.4003 1.8335 7.99967C1.8335 4.59901 4.5995 1.83301 8.00016 1.83301C11.4008 1.83301 14.1668 4.59901 14.1668 7.99967C14.1668 11.4003 11.4008 14.1663 8.00016 14.1663Z" fill="#3B3B3E"/>
</svg>
