<svg width="16" height="16" viewBox="0 0 16 16" fill="none" xmlns="http://www.w3.org/2000/svg">
<path d="M11.4862 8.71761C11.5502 8.98628 11.3842 9.25566 11.1149 9.31966C11.0756 9.32899 11.0375 9.33301 10.9989 9.33301C10.7722 9.33301 10.5675 9.1784 10.5129 8.9484C10.2415 7.80107 9.22422 6.99967 8.03955 6.99967C7.23488 6.99967 6.49217 7.38234 6.02083 7.99967H6.49951C6.77551 7.99967 6.99951 8.22367 6.99951 8.49967C6.99951 8.77567 6.77551 8.99967 6.49951 8.99967H4.99951C4.72351 8.99967 4.49951 8.77567 4.49951 8.49967V7.00098C4.49951 6.72498 4.72351 6.50098 4.99951 6.50098C5.27551 6.50098 5.49951 6.72498 5.49951 7.00098V7.08626C6.15351 6.41093 7.0622 5.99967 8.0402 5.99967C9.69087 5.99967 11.1082 7.11761 11.4862 8.71761ZM15.1668 7.99967C15.1668 11.9517 11.9522 15.1663 8.00016 15.1663C4.04816 15.1663 0.833496 11.9517 0.833496 7.99967C0.833496 4.04767 4.04816 0.833008 8.00016 0.833008C11.9522 0.833008 15.1668 4.04767 15.1668 7.99967ZM14.1668 7.99967C14.1668 4.59901 11.4008 1.83301 8.00016 1.83301C4.5995 1.83301 1.8335 4.59901 1.8335 7.99967C1.8335 11.4003 4.5995 14.1663 8.00016 14.1663C11.4008 14.1663 14.1668 11.4003 14.1668 7.99967Z" fill="#3B3B3E"/>
</svg>
