<svg width="16" height="16" viewBox="0 0 16 16" fill="none" xmlns="http://www.w3.org/2000/svg">
<path d="M11.3686 14.4996H4.63195C3.58462 14.4996 2.68795 13.7517 2.49995 12.7217L1.52998 7.39963C1.41132 6.74563 1.65597 6.077 2.16931 5.655L6.62398 1.99298C7.42198 1.33698 8.57996 1.33698 9.37796 1.99298L13.8326 5.655C14.346 6.077 14.5906 6.74563 14.472 7.39963L13.502 12.7217C13.3127 13.7517 12.4159 14.4996 11.3686 14.4996ZM7.99995 2.5003C7.73595 2.5003 7.47325 2.58828 7.25858 2.76495L2.80399 6.42698C2.56999 6.61898 2.45863 6.92302 2.5133 7.22035L3.48327 12.5416C3.58394 13.0963 4.0673 13.499 4.6313 13.499H11.368C11.932 13.499 12.4147 13.0963 12.516 12.5416L13.486 7.21962C13.54 6.92229 13.4286 6.61898 13.1953 6.42698L8.7406 2.76495C8.5266 2.58895 8.26329 2.5003 7.99995 2.5003ZM13.0086 12.6316H13.0153H13.0086ZM7.99995 12.1663C7.92995 12.1663 7.85931 12.1516 7.79398 12.1223C7.69198 12.0763 5.28463 10.9676 4.89196 8.95831C4.7333 8.14564 4.89066 7.37501 5.32466 6.84568C5.68599 6.40434 6.20192 6.16963 6.81726 6.16697C7.34859 6.17163 7.72399 6.37634 7.99865 6.64434C8.27199 6.37834 8.65794 6.16697 9.17061 6.16697C9.17327 6.16697 9.17663 6.16697 9.17997 6.16697C9.79597 6.16963 10.312 6.40428 10.6733 6.84495C11.1066 7.37428 11.2653 8.14431 11.106 8.95831C10.7133 10.9676 8.30664 12.0763 8.20397 12.1223C8.14064 12.1516 8.06995 12.1663 7.99995 12.1663ZM6.82661 7.16632C6.82528 7.16632 6.82461 7.16632 6.82328 7.16632C6.51128 7.16765 6.26725 7.27299 6.09859 7.47833C5.85792 7.77233 5.77398 8.25435 5.87398 8.76568C6.11064 9.97768 7.47397 10.821 7.9993 11.1057C8.52464 10.8217 9.88796 9.97835 10.1246 8.76568C10.2246 8.25301 10.1406 7.77168 9.89994 7.47768C9.73127 7.27234 9.48793 7.16766 9.1746 7.16566C8.7046 7.149 8.49131 7.65231 8.47131 7.70831C8.39997 7.90697 8.20997 8.04164 7.9993 8.04164C7.99797 8.04164 7.99593 8.04164 7.99393 8.04164C7.78126 8.03964 7.59195 7.90502 7.52461 7.70302C7.50795 7.65302 7.31861 7.16632 6.82661 7.16632ZM10.6167 8.86163H10.6233H10.6167Z" fill="#3B3B3E"/>
</svg>
