<svg width="16" height="16" viewBox="0 0 16 16" fill="none" xmlns="http://www.w3.org/2000/svg">
<path d="M13.4167 7.49967H11.7127C11.792 7.28167 11.8334 7.03101 11.8334 6.74967V2.58301C11.8334 1.47101 11.1954 0.833008 10.0834 0.833008H5.91671C4.80471 0.833008 4.16671 1.47101 4.16671 2.58301V6.74967C4.16671 7.03101 4.20806 7.28167 4.28739 7.49967H2.58337C1.47137 7.49967 0.833374 8.13767 0.833374 9.24967V13.4163C0.833374 14.5283 1.47137 15.1663 2.58337 15.1663H6.75004C7.28271 15.1663 7.70271 15.0163 8.00004 14.7417C8.29737 15.0163 8.71737 15.1663 9.25004 15.1663H13.4167C14.5287 15.1663 15.1667 14.5283 15.1667 13.4163V9.24967C15.1667 8.13767 14.5287 7.49967 13.4167 7.49967ZM10.8334 8.49967H11.8334V9.73234L11.6107 9.58368C11.4427 9.47168 11.224 9.47168 11.056 9.58368L10.8334 9.73234V8.49967V8.49967ZM7.50004 1.83301H8.50004V3.06567L8.27738 2.91701C8.10938 2.80501 7.8907 2.80501 7.7227 2.91701L7.50004 3.06567V1.83301V1.83301ZM5.16671 2.58301C5.16671 2.02901 5.36271 1.83301 5.91671 1.83301H6.50004V3.99967C6.50004 4.18434 6.60137 4.35368 6.76404 4.44035C6.92537 4.52701 7.12472 4.51767 7.27738 4.41567L8.00004 3.93367L8.7227 4.41567C8.8067 4.47167 8.90337 4.49967 9.00004 4.49967C9.08071 4.49967 9.16204 4.48035 9.23604 4.44035C9.39871 4.35301 9.50004 4.18367 9.50004 3.99967V1.83301H10.0834C10.6374 1.83301 10.8334 2.02901 10.8334 2.58301V6.74967C10.8334 7.30367 10.6374 7.49967 10.0834 7.49967H9.25004H6.75004H5.91671C5.36271 7.49967 5.16671 7.30367 5.16671 6.74967V2.58301ZM4.16671 8.49967H5.16671V9.73234L4.94405 9.58368C4.77605 9.47168 4.55736 9.47168 4.38936 9.58368L4.16671 9.73234V8.49967V8.49967ZM6.75004 14.1663H2.58337C2.02937 14.1663 1.83337 13.9703 1.83337 13.4163V9.24967C1.83337 8.69567 2.02937 8.49967 2.58337 8.49967H3.16671V10.6663C3.16671 10.851 3.26804 11.0203 3.4307 11.107C3.59204 11.1943 3.79072 11.1843 3.94405 11.0823L4.66671 10.6003L5.38936 11.0823C5.47336 11.1383 5.57004 11.1663 5.66671 11.1663C5.74737 11.1663 5.82871 11.147 5.90271 11.107C6.06538 11.0197 6.16671 10.8503 6.16671 10.6663V8.49967H6.75004C7.30404 8.49967 7.50004 8.69567 7.50004 9.24967V13.4163C7.50004 13.9703 7.30404 14.1663 6.75004 14.1663ZM14.1667 13.4163C14.1667 13.9703 13.9707 14.1663 13.4167 14.1663H9.25004C8.69604 14.1663 8.50004 13.9703 8.50004 13.4163V9.24967C8.50004 8.69567 8.69604 8.49967 9.25004 8.49967H9.83337V10.6663C9.83337 10.851 9.9347 11.0203 10.0974 11.107C10.2587 11.1943 10.4574 11.1843 10.6107 11.0823L11.3334 10.6003L12.056 11.0823C12.14 11.1383 12.2367 11.1663 12.3334 11.1663C12.414 11.1663 12.4954 11.147 12.5694 11.107C12.732 11.0197 12.8334 10.8503 12.8334 10.6663V8.49967H13.4167C13.9707 8.49967 14.1667 8.69567 14.1667 9.24967V13.4163Z" fill="#3B3B3E"/>
</svg>
