<svg width="16" height="16" viewBox="0 0 16 16" fill="none" xmlns="http://www.w3.org/2000/svg">
<path d="M8.00016 0.833008C4.04816 0.833008 0.833496 4.04767 0.833496 7.99967C0.833496 11.9517 4.04816 15.1663 8.00016 15.1663C11.9522 15.1663 15.1668 11.9517 15.1668 7.99967C15.1668 4.04767 11.9522 0.833008 8.00016 0.833008ZM8.00016 1.83301C9.52083 1.83301 10.9115 2.38903 11.9881 3.30436L3.3055 11.9876C2.3895 10.911 1.8335 9.52034 1.8335 7.99967C1.8335 4.59901 4.5995 1.83301 8.00016 1.83301ZM8.00016 14.1663C6.4795 14.1663 5.08887 13.6103 4.01221 12.695L12.6948 4.01172C13.6108 5.08839 14.1668 6.47901 14.1668 7.99967C14.1668 11.4003 11.4008 14.1663 8.00016 14.1663Z" fill="#3B3B3E"/>
</svg>
