<svg width="16" height="16" viewBox="0 0 16 16" fill="none" xmlns="http://www.w3.org/2000/svg">
<path d="M11.75 1.5H4.25C2.47667 1.5 1.5 2.47667 1.5 4.25V11.75C1.5 13.5233 2.47667 14.5 4.25 14.5H11.75C13.5233 14.5 14.5 13.5233 14.5 11.75V4.25C14.5 2.47667 13.5233 1.5 11.75 1.5ZM13.5 11.75C13.5 12.9767 12.9767 13.5 11.75 13.5H4.25C3.02333 13.5 2.5 12.9767 2.5 11.75V4.25C2.5 3.02333 3.02333 2.5 4.25 2.5H11.75C12.9767 2.5 13.5 3.02333 13.5 4.25V11.75ZM9.948 7.83C10.1733 7.53866 10.3127 7.17736 10.3127 6.78003C10.3127 5.9467 9.72198 5.25066 8.93998 5.09399V4.66667C8.93998 4.39067 8.71598 4.16667 8.43998 4.16667C8.16398 4.16667 7.93998 4.39067 7.93998 4.66667V5.05998H7.54598V4.66667C7.54598 4.39067 7.32198 4.16667 7.04598 4.16667C6.76998 4.16667 6.54598 4.39067 6.54598 4.66667V5.05998H5.84334C5.56734 5.05998 5.34334 5.28398 5.34334 5.55998C5.34334 5.83598 5.56734 6.05998 5.84334 6.05998H6.19735V9.94002H5.84334C5.56734 9.94002 5.34334 10.164 5.34334 10.44C5.34334 10.716 5.56734 10.94 5.84334 10.94H6.54598V11.3333C6.54598 11.6093 6.76998 11.8333 7.04598 11.8333C7.32198 11.8333 7.54598 11.6093 7.54598 11.3333V10.94H7.93998V11.3333C7.93998 11.6093 8.16398 11.8333 8.43998 11.8333C8.71598 11.8333 8.93998 11.6093 8.93998 11.3333V10.94H8.95133C9.892 10.94 10.6567 10.1686 10.6567 9.21997C10.6567 8.6473 10.3753 8.14333 9.948 7.83ZM9.31266 6.78003C9.31266 7.17736 8.99601 7.5 8.60734 7.5H7.19735V6.05998H8.60734C8.99601 6.05998 9.31266 6.3827 9.31266 6.78003ZM8.95133 9.94002H7.19735V8.5H8.60734H8.95199C9.34065 8.5 9.65735 8.82264 9.65735 9.21997C9.65735 9.6173 9.34067 9.94002 8.95133 9.94002Z" fill="#3B3B3E"/>
</svg>
