<svg width="16" height="16" viewBox="0 0 16 16" fill="none" xmlns="http://www.w3.org/2000/svg">
<path d="M9.83333 5.33333C9.83333 5.60933 9.60933 5.83333 9.33333 5.83333H7C6.724 5.83333 6.5 5.60933 6.5 5.33333C6.5 5.05733 6.724 4.83333 7 4.83333H9.33333C9.60933 4.83333 9.83333 5.05733 9.83333 5.33333ZM9.33333 7.5H7C6.724 7.5 6.5 7.724 6.5 8C6.5 8.276 6.724 8.5 7 8.5H9.33333C9.60933 8.5 9.83333 8.276 9.83333 8C9.83333 7.724 9.60933 7.5 9.33333 7.5ZM9.33333 10.1667H7C6.724 10.1667 6.5 10.3907 6.5 10.6667C6.5 10.9427 6.724 11.1667 7 11.1667H9.33333C9.60933 11.1667 9.83333 10.9427 9.83333 10.6667C9.83333 10.3907 9.60933 10.1667 9.33333 10.1667ZM4.64665 4.64665L4.33268 4.96065C4.13668 4.78465 3.83465 4.79198 3.64665 4.97998C3.45131 5.17531 3.45131 5.492 3.64665 5.68734L3.97998 6.02067C4.07731 6.118 4.20533 6.16732 4.33333 6.16732C4.46133 6.16732 4.58935 6.11867 4.68669 6.02067L5.35335 5.354C5.54869 5.15867 5.54869 4.84198 5.35335 4.64665C5.15802 4.45131 4.84198 4.45131 4.64665 4.64665ZM4.64665 7.31331L4.33268 7.62732C4.13668 7.45132 3.83465 7.45865 3.64665 7.64665C3.45131 7.84198 3.45131 8.15867 3.64665 8.354L3.97998 8.68734C4.07731 8.78467 4.20533 8.83398 4.33333 8.83398C4.46133 8.83398 4.58935 8.78534 4.68669 8.68734L5.35335 8.02067C5.54869 7.82534 5.54869 7.50865 5.35335 7.31331C5.15802 7.11798 4.84198 7.11798 4.64665 7.31331ZM4.64665 9.97998L4.33268 10.294C4.13668 10.118 3.83465 10.1253 3.64665 10.3133C3.45131 10.5086 3.45131 10.8253 3.64665 11.0207L3.97998 11.354C4.07731 11.4513 4.20533 11.5007 4.33333 11.5007C4.46133 11.5007 4.58935 11.452 4.68669 11.354L5.35335 10.6873C5.54869 10.492 5.54869 10.1753 5.35335 9.97998C5.15802 9.78465 4.84198 9.78465 4.64665 9.97998ZM14.5 7.66667V12.6667C14.5 13.678 13.678 14.5 12.6667 14.5H4C2.388 14.5 1.5 13.612 1.5 12V4C1.5 2.388 2.388 1.5 4 1.5H9.33333C10.9453 1.5 11.8333 2.388 11.8333 4V6.16667H13C13.8267 6.16667 14.5 6.83933 14.5 7.66667ZM11.034 13.5C10.906 13.25 10.8333 12.9667 10.8333 12.6667V4C10.8333 2.94867 10.3847 2.5 9.33333 2.5H4C2.94867 2.5 2.5 2.94867 2.5 4V12C2.5 13.0513 2.94867 13.5 4 13.5H11.034ZM13.5 7.66667C13.5 7.39067 13.2753 7.16667 13 7.16667H11.8333V12.6667C11.8333 13.126 12.2073 13.5 12.6667 13.5C13.126 13.5 13.5 13.126 13.5 12.6667V7.66667Z" fill="#3B3B3E"/>
</svg>
