<svg width="16" height="16" viewBox="0 0 16 16" fill="none" xmlns="http://www.w3.org/2000/svg">
<path d="M14 13.5H13.1234L12.5393 7.07666C13.286 6.84466 13.8333 6.156 13.8333 5.33333V2.33333C13.8333 1.874 13.4593 1.5 13 1.5H11.6667C11.2073 1.5 10.8333 1.874 10.8333 2.33333V3.33333C10.8333 3.60933 10.6087 3.83333 10.3333 3.83333C10.058 3.83333 9.83333 3.60933 9.83333 3.33333V2.33333C9.83333 1.874 9.45933 1.5 9 1.5H7C6.54067 1.5 6.16667 1.874 6.16667 2.33333V3.33333C6.16667 3.60933 5.942 3.83333 5.66667 3.83333C5.39133 3.83333 5.16667 3.60933 5.16667 3.33333V2.33333C5.16667 1.874 4.79267 1.5 4.33333 1.5H3C2.54067 1.5 2.16667 1.874 2.16667 2.33333V5.33333C2.16667 6.15533 2.71403 6.84466 3.46069 7.07666L2.87663 13.5H2C1.724 13.5 1.5 13.724 1.5 14C1.5 14.276 1.724 14.5 2 14.5H3.33333H3.7133H6.66667C6.94267 14.5 7.16667 14.276 7.16667 14V11.3333C7.16667 10.874 7.54067 10.5 8 10.5C8.45933 10.5 8.83333 10.874 8.83333 11.3333V14C8.83333 14.276 9.05733 14.5 9.33333 14.5H12.2867H12.6667H14C14.276 14.5 14.5 14.276 14.5 14C14.5 13.724 14.276 13.5 14 13.5ZM3.16667 5.33333V2.5H4.16667V3.33333C4.16667 4.16067 4.84 4.83333 5.66667 4.83333C6.49333 4.83333 7.16667 4.16067 7.16667 3.33333V2.5H8.83333V3.33333C8.83333 4.16067 9.50667 4.83333 10.3333 4.83333C11.16 4.83333 11.8333 4.16067 11.8333 3.33333V2.5H12.8333V5.33333C12.8333 5.79267 12.4593 6.16667 12 6.16667H4C3.54067 6.16667 3.16667 5.79267 3.16667 5.33333ZM8 9.5C6.98867 9.5 6.16667 10.322 6.16667 11.3333V13.5H3.8807L4.45597 7.16667H11.5433L12.1187 13.5H9.83268V11.3333C9.83335 10.322 9.01133 9.5 8 9.5Z" fill="#3B3B3E"/>
</svg>
