<svg width="16" height="16" viewBox="0 0 16 16" fill="none" xmlns="http://www.w3.org/2000/svg">
<g clip-path="url(#clip0_36251_7696)">
<path d="M8.00016 3.83388C6.62216 3.83388 5.50016 4.95521 5.50016 6.33388C5.50016 7.71255 6.62216 8.83388 8.00016 8.83388C9.37816 8.83388 10.5002 7.71255 10.5002 6.33388C10.5002 4.95521 9.37816 3.83388 8.00016 3.83388ZM8.00016 7.83388C7.1735 7.83388 6.50016 7.16121 6.50016 6.33388C6.50016 5.50655 7.1735 4.83388 8.00016 4.83388C8.82683 4.83388 9.50016 5.50655 9.50016 6.33388C9.50016 7.16121 8.82683 7.83388 8.00016 7.83388ZM8.50016 5.58388V6.33388C8.50016 6.60988 8.27616 6.83388 8.00016 6.83388C7.72416 6.83388 7.50016 6.60988 7.50016 6.33388V5.58388C7.50016 5.30788 7.72416 5.08388 8.00016 5.08388C8.27616 5.08388 8.50016 5.30788 8.50016 5.58388ZM14.6668 14.1672H14.5002V9.00055C14.5002 8.17321 13.8268 7.50055 13.0002 7.50055H12.5002V4.71523L13.0575 5.08453C13.1422 5.14053 13.2382 5.16786 13.3328 5.16786C13.4948 5.16786 13.6535 5.08924 13.7502 4.94391C13.9028 4.71391 13.8401 4.40321 13.6095 4.25055L8.83219 1.08583C8.32753 0.749167 7.67418 0.748516 7.16951 1.08518L2.39087 4.25055C2.1602 4.40321 2.0975 4.71324 2.25016 4.94391C2.40283 5.17391 2.71279 5.2372 2.94279 5.08453L3.50016 4.71523V7.50055H3.00016C2.1735 7.50055 1.50016 8.17321 1.50016 9.00055V14.1672H1.3335C1.0575 14.1672 0.833496 14.3912 0.833496 14.6672C0.833496 14.9432 1.0575 15.1672 1.3335 15.1672H2.00016H14.0002H14.6668C14.9428 15.1672 15.1668 14.9432 15.1668 14.6672C15.1668 14.3912 14.9428 14.1672 14.6668 14.1672ZM7.16683 14.1672V12.0005C7.16683 11.5412 7.54083 11.1672 8.00016 11.1672C8.4595 11.1672 8.8335 11.5412 8.8335 12.0005V14.1672H7.16683ZM9.8335 14.1672V12.0005C9.8335 10.9892 9.0115 10.1672 8.00016 10.1672C6.98883 10.1672 6.16683 10.9892 6.16683 12.0005V14.1672H2.50016V9.00055C2.50016 8.72455 2.72483 8.50055 3.00016 8.50055H4.00016C4.27616 8.50055 4.50016 8.27655 4.50016 8.00055V4.05247L7.72282 1.91786C7.89149 1.80586 8.10881 1.80518 8.27881 1.91852L11.5002 4.05247V8.00055C11.5002 8.27655 11.7242 8.50055 12.0002 8.50055H13.0002C13.2755 8.50055 13.5002 8.72455 13.5002 9.00055V14.1672H9.8335ZM4.8335 10.3339C4.8335 10.6099 4.6095 10.8339 4.3335 10.8339C4.0575 10.8339 3.8335 10.6099 3.8335 10.3339C3.8335 10.0579 4.0575 9.83388 4.3335 9.83388C4.6095 9.83388 4.8335 10.0579 4.8335 10.3339ZM4.8335 12.0005C4.8335 12.2765 4.6095 12.5005 4.3335 12.5005C4.0575 12.5005 3.8335 12.2765 3.8335 12.0005C3.8335 11.7245 4.0575 11.5005 4.3335 11.5005C4.6095 11.5005 4.8335 11.7245 4.8335 12.0005ZM12.1668 10.3339C12.1668 10.6099 11.9428 10.8339 11.6668 10.8339C11.3908 10.8339 11.1668 10.6099 11.1668 10.3339C11.1668 10.0579 11.3908 9.83388 11.6668 9.83388C11.9428 9.83388 12.1668 10.0579 12.1668 10.3339ZM12.1668 12.0005C12.1668 12.2765 11.9428 12.5005 11.6668 12.5005C11.3908 12.5005 11.1668 12.2765 11.1668 12.0005C11.1668 11.7245 11.3908 11.5005 11.6668 11.5005C11.9428 11.5005 12.1668 11.7245 12.1668 12.0005Z" fill="#3B3B3E"/>
</g>
<defs>
<clipPath id="clip0_36251_7696">
<rect width="16" height="16" fill="white"/>
</clipPath>
</defs>
</svg>
