<svg width="16" height="16" viewBox="0 0 16 16" fill="none" xmlns="http://www.w3.org/2000/svg">
<path d="M14.3181 6.05619L9.37667 1.99223C8.57867 1.33756 7.42207 1.33689 6.62407 1.99223L1.68274 6.05554C1.47008 6.23087 1.43872 6.54556 1.61406 6.75956C1.78939 6.97356 2.10474 7.00291 2.31808 6.82825L2.83338 6.40425V11.9995C2.83338 13.6115 3.72138 14.4996 5.33338 14.4996H10.6667C12.2787 14.4996 13.1667 13.6115 13.1667 11.9995V6.40425L13.682 6.82825C13.7753 6.90491 13.888 6.94218 14 6.94218C14.144 6.94218 14.2874 6.88021 14.386 6.76021C14.562 6.54621 14.5307 6.23152 14.3181 6.05619ZM12.1667 11.9995C12.1667 13.0509 11.718 13.4996 10.6667 13.4996H5.33338C4.28204 13.4996 3.83338 13.0509 3.83338 11.9995V5.58223L7.2594 2.76558C7.68807 2.41292 8.31275 2.41292 8.74142 2.76558L12.1674 5.58288V11.9995H12.1667ZM6.81873 6.49955C6.2034 6.50222 5.68739 6.73685 5.32605 7.17818C4.89205 7.70818 4.73402 8.47822 4.89335 9.29089C5.28602 11.3002 7.69271 12.409 7.79537 12.455C7.86071 12.4843 7.93068 12.4989 8.00135 12.4989C8.07201 12.4989 8.14207 12.4843 8.2074 12.455C8.3094 12.409 10.7167 11.3002 11.1093 9.29089C11.268 8.47689 11.1101 7.70686 10.6767 7.17753C10.3154 6.73686 9.79939 6.50222 9.18339 6.49955C9.18006 6.49955 9.1767 6.49955 9.17403 6.49955C8.66137 6.49955 8.27541 6.71085 8.00208 6.97685C7.72541 6.70885 7.3494 6.47422 6.81873 6.49955ZM8.4727 8.04219C8.49203 7.98686 8.6814 7.49955 9.17273 7.49955C9.17407 7.49955 9.17474 7.49955 9.17607 7.49955C9.4894 7.50088 9.73274 7.60623 9.90141 7.81156C10.1421 8.10556 10.226 8.58682 10.126 9.09948C9.88935 10.3115 8.52603 11.1548 8.00069 11.4395C7.47536 11.1555 6.11204 10.3122 5.87537 9.09948C5.77537 8.58748 5.85939 8.10621 6.10006 7.81221C6.26873 7.60688 6.51275 7.50153 6.82475 7.5002C6.82608 7.5002 6.82667 7.5002 6.82801 7.5002C7.31934 7.5002 7.50872 7.98695 7.52739 8.03829C7.59539 8.24029 7.78404 8.37416 7.99671 8.37683C7.99871 8.37683 8.00074 8.37683 8.00208 8.37683C8.21141 8.3755 8.40137 8.24086 8.4727 8.04219Z" fill="#3B3B3E"/>
</svg>
