<svg width="16" height="16" viewBox="0 0 16 16" fill="none" xmlns="http://www.w3.org/2000/svg">
<path d="M7.49998 7.78272V11.3333C7.49998 11.6093 7.72398 11.8333 7.99998 11.8333C8.27598 11.8333 8.49998 11.6093 8.49998 11.3333V7.78272C10.008 7.54072 11.1666 6.24133 11.1666 4.66667C11.1666 2.92067 9.74598 1.5 7.99998 1.5C6.25398 1.5 4.83331 2.92067 4.83331 4.66667C4.83331 6.24133 5.99198 7.54138 7.49998 7.78272ZM7.99998 2.5C9.19465 2.5 10.1666 3.472 10.1666 4.66667C10.1666 5.86133 9.19465 6.83333 7.99998 6.83333C6.80531 6.83333 5.83331 5.86133 5.83331 4.66667C5.83331 3.472 6.80531 2.5 7.99998 2.5ZM13.1666 12C13.1666 13.4253 10.9453 14.5 7.99998 14.5C5.05465 14.5 2.83331 13.4253 2.83331 12C2.83331 11.094 3.69398 10.3234 5.19331 9.88672C5.45865 9.81072 5.73598 9.96139 5.81331 10.2267C5.89065 10.4921 5.73798 10.7693 5.47332 10.8467C4.34065 11.1767 3.83331 11.664 3.83331 12C3.83331 12.6113 5.45665 13.5 7.99998 13.5C10.5433 13.5 12.1666 12.6113 12.1666 12C12.1666 11.664 11.6593 11.1767 10.5266 10.8467C10.262 10.7693 10.1093 10.4921 10.1866 10.2267C10.264 9.96139 10.5427 9.81072 10.8067 9.88672C12.306 10.3234 13.1666 11.094 13.1666 12Z" fill="#3B3B3E"/>
</svg>
