<svg width="16" height="16" viewBox="0 0 16 16" fill="none" xmlns="http://www.w3.org/2000/svg">
<path fill-rule="evenodd" clip-rule="evenodd" d="M8.00012 1.5C4.41346 1.5 1.50012 4.41333 1.50012 8C1.50012 9.09333 1.78013 10.1667 2.30013 11.1267L1.27344 14.7267L4.87345 13.7C5.83345 14.2267 6.90679 14.5 8.00012 14.5C11.5868 14.5 14.5001 11.5867 14.5001 8C14.5001 4.41333 11.5868 1.5 8.00012 1.5V1.5ZM8.00012 13.5C7.01346 13.5 6.04677 13.2333 5.19344 12.7333L5.0068 12.62L2.72681 13.2733L3.38013 10.9933L3.27344 10.8067C2.76677 9.96 2.50012 8.98667 2.50012 8C2.50012 4.96667 4.96679 2.5 8.00012 2.5C11.0335 2.5 13.5001 4.96667 13.5001 8C13.5001 11.0333 11.0335 13.5 8.00012 13.5V13.5ZM11.3134 9.50666C11.3534 9.57333 11.3535 9.90667 11.2201 10.2933C11.0801 10.6867 10.4134 11.0467 10.1134 11.08C9.81344 11.1133 9.53344 11.22 8.14677 10.6733C6.4801 10.0067 5.42013 8.28667 5.34013 8.18C5.26013 8.07334 4.67346 7.28667 4.67346 6.47334C4.67346 5.66 5.09345 5.26667 5.24679 5.09333C5.40012 4.92667 5.58014 4.88667 5.68681 4.88667C5.80014 4.88667 5.9068 4.88666 6.0068 4.89333C6.12013 4.89333 6.25345 4.89333 6.37345 5.17333C6.52012 5.5 6.83345 6.31333 6.87345 6.38667C6.91345 6.46667 6.94013 6.56666 6.8868 6.67333C6.8268 6.78 6.80013 6.85333 6.72013 6.94667C6.64013 7.04 6.5468 7.16 6.47347 7.23334C6.3868 7.31334 6.30677 7.4 6.40011 7.56667C6.50011 7.72667 6.82677 8.27333 7.31344 8.70667C7.9401 9.27333 8.4668 9.44666 8.63346 9.52666C8.79346 9.60666 8.89344 9.59333 8.98678 9.48666C9.08678 9.38 9.40013 9.00666 9.5068 8.84C9.61346 8.68 9.72012 8.70667 9.87345 8.76C10.0268 8.81333 10.8268 9.22 10.9934 9.3C11.1534 9.38666 11.2668 9.42667 11.3068 9.49334L11.3134 9.50666Z" fill="#3B3B3E"/>
</svg>
