<svg width="16" height="16" viewBox="0 0 16 16" fill="none" xmlns="http://www.w3.org/2000/svg">
<path d="M5.6665 13.8337H3.6665C2.72717 13.8337 2.1665 13.273 2.1665 12.3337V3.66699C2.1665 2.72766 2.72717 2.16699 3.6665 2.16699H5.6665C6.60584 2.16699 7.1665 2.72766 7.1665 3.66699V12.3337C7.1665 13.273 6.60584 13.8337 5.6665 13.8337ZM3.6665 3.16699C3.27384 3.16699 3.1665 3.27433 3.1665 3.66699V12.3337C3.1665 12.7263 3.27384 12.8337 3.6665 12.8337H5.6665C6.05917 12.8337 6.1665 12.7263 6.1665 12.3337V3.66699C6.1665 3.27433 6.05917 3.16699 5.6665 3.16699H3.6665ZM12.3332 13.8337H10.3332C9.39384 13.8337 8.83317 13.273 8.83317 12.3337V3.66699C8.83317 2.72766 9.39384 2.16699 10.3332 2.16699H12.3332C13.2725 2.16699 13.8332 2.72766 13.8332 3.66699V12.3337C13.8332 13.273 13.2725 13.8337 12.3332 13.8337ZM10.3332 3.16699C9.9405 3.16699 9.83317 3.27433 9.83317 3.66699V12.3337C9.83317 12.7263 9.9405 12.8337 10.3332 12.8337H12.3332C12.7258 12.8337 12.8332 12.7263 12.8332 12.3337V3.66699C12.8332 3.27433 12.7258 3.16699 12.3332 3.16699H10.3332Z" fill="#3B3B3E"/>
</svg>
