<svg width="16" height="16" viewBox="0 0 16 16" fill="none" xmlns="http://www.w3.org/2000/svg">
<path d="M8.00016 0.833008C4.04683 0.833008 0.833496 4.04634 0.833496 7.99967C0.833496 11.953 4.04683 15.1663 8.00016 15.1663C11.9535 15.1663 15.1668 11.953 15.1668 7.99967C15.1668 4.04634 11.9535 0.833008 8.00016 0.833008ZM8.00016 14.1663C4.60016 14.1663 1.8335 11.3997 1.8335 7.99967C1.8335 4.59967 4.60016 1.83301 8.00016 1.83301C11.4002 1.83301 14.1668 4.59967 14.1668 7.99967C14.1668 11.3997 11.4002 14.1663 8.00016 14.1663ZM8.00016 3.83301C5.70016 3.83301 3.8335 5.69967 3.8335 7.99967C3.8335 10.2997 5.70016 12.1663 8.00016 12.1663C10.3002 12.1663 12.1668 10.2997 12.1668 7.99967C12.1668 5.69967 10.3002 3.83301 8.00016 3.83301ZM8.00016 11.1663C6.2535 11.1663 4.8335 9.74634 4.8335 7.99967C4.8335 6.25301 6.2535 4.83301 8.00016 4.83301C9.74683 4.83301 11.1668 6.25301 11.1668 7.99967C11.1668 9.74634 9.74683 11.1663 8.00016 11.1663ZM8.00016 5.49967C7.1735 5.49967 6.50016 6.17301 6.50016 6.99967C6.50016 7.38634 6.65349 7.73301 6.89349 7.99967C6.65349 8.26634 6.50016 8.61301 6.50016 8.99967C6.50016 9.82634 7.1735 10.4997 8.00016 10.4997C8.82683 10.4997 9.50016 9.82634 9.50016 8.99967C9.50016 8.61301 9.34683 8.26634 9.10683 7.99967C9.34683 7.73301 9.50016 7.38634 9.50016 6.99967C9.50016 6.17301 8.82683 5.49967 8.00016 5.49967ZM8.00016 6.49967C8.2735 6.49967 8.50016 6.72634 8.50016 6.99967C8.50016 7.27301 8.2735 7.49967 8.00016 7.49967C7.72683 7.49967 7.50016 7.27301 7.50016 6.99967C7.50016 6.72634 7.72683 6.49967 8.00016 6.49967ZM8.00016 9.49967C7.72683 9.49967 7.50016 9.27301 7.50016 8.99967C7.50016 8.72634 7.72683 8.49967 8.00016 8.49967C8.2735 8.49967 8.50016 8.72634 8.50016 8.99967C8.50016 9.27301 8.2735 9.49967 8.00016 9.49967Z" fill="#3B3B3E"/>
</svg>
