<svg width="16" height="16" viewBox="0 0 16 16" fill="none" xmlns="http://www.w3.org/2000/svg">
<path d="M10.6668 7.16634H5.3335C5.0575 7.16634 4.8335 6.94234 4.8335 6.66634C4.8335 6.39034 5.0575 6.16634 5.3335 6.16634H10.6668C10.9428 6.16634 11.1668 6.39034 11.1668 6.66634C11.1668 6.94234 10.9428 7.16634 10.6668 7.16634ZM11.1668 9.33301C11.1668 9.05701 10.9428 8.83301 10.6668 8.83301H5.3335C5.0575 8.83301 4.8335 9.05701 4.8335 9.33301C4.8335 9.60901 5.0575 9.83301 5.3335 9.83301H10.6668C10.9428 9.83301 11.1668 9.60901 11.1668 9.33301ZM15.1668 7.99967C15.1668 4.04767 11.9522 0.833008 8.00016 0.833008C4.04816 0.833008 0.833496 4.04767 0.833496 7.99967C0.833496 11.9517 4.04816 15.1663 8.00016 15.1663C11.9522 15.1663 15.1668 11.9517 15.1668 7.99967ZM14.1668 7.99967C14.1668 11.4003 11.4008 14.1663 8.00016 14.1663C4.5995 14.1663 1.8335 11.4003 1.8335 7.99967C1.8335 4.59901 4.5995 1.83301 8.00016 1.83301C11.4008 1.83301 14.1668 4.59901 14.1668 7.99967Z" fill="#3B3B3E"/>
</svg>
