<svg width="16" height="16" viewBox="0 0 16 16" fill="none" xmlns="http://www.w3.org/2000/svg">
<path d="M7.01987 7.64683C7.21521 7.84216 7.21521 8.15885 7.01987 8.35418L4.35321 11.0208C4.25587 11.1182 4.12785 11.1675 3.99985 11.1675C3.87185 11.1675 3.74383 11.1188 3.6465 11.0208C3.45117 10.8255 3.45117 10.5088 3.6465 10.3135L5.95981 8.00018L3.6465 5.68686C3.45117 5.49153 3.45117 5.17484 3.6465 4.97951C3.84183 4.78417 4.15852 4.78417 4.35386 4.97951L7.01987 7.64683ZM10.0405 8.00018L12.3539 5.68686C12.5492 5.49153 12.5492 5.17484 12.3539 4.97951C12.1585 4.78417 11.8418 4.78417 11.6465 4.97951L8.97983 7.64617C8.7845 7.84151 8.7845 8.1582 8.97983 8.35353L11.6465 11.0202C11.7438 11.1175 11.8719 11.1668 11.9999 11.1668C12.1279 11.1668 12.2559 11.1182 12.3532 11.0202C12.5485 10.8249 12.5485 10.5082 12.3532 10.3128L10.0405 8.00018Z" fill="#3B3B3E"/>
</svg>
