<svg width="16" height="16" viewBox="0 0 16 16" fill="none" xmlns="http://www.w3.org/2000/svg">
<path d="M11.75 14.5H4.25C2.47667 14.5 1.5 13.5233 1.5 11.75V4.25C1.5 2.47667 2.47667 1.5 4.25 1.5H11.75C13.5233 1.5 14.5 2.47667 14.5 4.25V11.75C14.5 13.5233 13.5233 14.5 11.75 14.5ZM4.25 2.5C3.02333 2.5 2.5 3.02333 2.5 4.25V11.75C2.5 12.9767 3.02333 13.5 4.25 13.5H11.75C12.9767 13.5 13.5 12.9767 13.5 11.75V4.25C13.5 3.02333 12.9767 2.5 11.75 2.5H4.25ZM8 11.8333C7.92933 11.8333 7.85864 11.8187 7.79264 11.7887C7.67264 11.734 4.85001 10.4247 4.39201 8.06401C4.21068 7.12867 4.39733 6.20935 4.89266 5.60535C5.30399 5.10401 5.89203 4.83667 6.59269 4.83333C6.59669 4.83333 6.60002 4.83333 6.60335 4.83333C7.25735 4.83333 7.706 5.12999 8 5.44999C8.29333 5.12999 8.74198 4.83333 9.39665 4.83333C9.39998 4.83333 9.40331 4.83333 9.40731 4.83333C10.1086 4.83667 10.6967 5.10334 11.1073 5.604C11.61 6.216 11.792 7.11265 11.608 8.06331C11.15 10.4246 8.32736 11.734 8.20736 11.788C8.14136 11.8187 8.07067 11.8333 8 11.8333ZM6.6027 5.83333C6.6007 5.83333 6.59932 5.83333 6.59798 5.83333C6.19865 5.83533 5.88602 5.97201 5.66602 6.23934C5.35802 6.61534 5.24869 7.22601 5.37402 7.87268C5.67202 9.41068 7.39602 10.452 7.99935 10.7733C8.60135 10.4506 10.3287 9.40467 10.6253 7.87333C10.7507 7.22533 10.6413 6.61465 10.3333 6.23865C10.114 5.97198 9.8007 5.83533 9.40137 5.83333C9.40003 5.83333 9.39798 5.83333 9.39665 5.83333C8.73265 5.83333 8.48332 6.52067 8.47266 6.55001C8.40132 6.75134 8.19868 6.87932 7.99601 6.88599C7.78201 6.88399 7.59266 6.74865 7.52466 6.54598C7.51599 6.52065 7.2667 5.83333 6.6027 5.83333ZM11.1167 7.96802H11.1234H11.1167Z" fill="#3B3B3E"/>
</svg>
