<svg width="16" height="16" viewBox="0 0 16 16" fill="none" xmlns="http://www.w3.org/2000/svg">
<path d="M13.5192 5.45638C13.7272 6.05905 13.8332 6.69034 13.8332 7.33301C13.8332 10.745 10.7018 12.813 8.62984 14.1816L8.27716 14.4157C8.19316 14.4717 8.0965 14.4997 7.99983 14.4997C7.90383 14.4997 7.80784 14.4717 7.7245 14.417L7.5205 14.283C6.9725 13.923 6.35183 13.5149 5.72383 13.0376C5.50383 12.8709 5.46116 12.5571 5.62782 12.3371C5.79449 12.1171 6.10784 12.0744 6.32851 12.241C6.90251 12.677 7.48116 13.0604 7.99849 13.3997L8.07851 13.3464C10.0852 12.021 12.8325 10.2064 12.8325 7.33236C12.8325 6.80169 12.7452 6.27972 12.5732 5.78239C12.4832 5.52172 12.6212 5.23699 12.8825 5.14632C13.1432 5.05632 13.4285 5.19505 13.5192 5.45638ZM14.3532 2.35303L2.35317 14.353C2.25583 14.4504 2.12783 14.4997 1.99983 14.4997C1.87183 14.4997 1.74383 14.451 1.6465 14.353C1.45117 14.1577 1.45117 13.841 1.6465 13.6457L3.89117 11.401C2.73584 10.1277 2.1665 8.79369 2.1665 7.33236C2.1665 4.11569 4.78317 1.49902 7.99983 1.49902C9.5485 1.49902 11.0118 2.11302 12.0985 3.19368L13.6465 1.64567C13.8418 1.45034 14.1585 1.45034 14.3538 1.64567C14.5492 1.841 14.5485 2.15769 14.3532 2.35303ZM4.59783 10.6943L11.3925 3.89974C10.4925 3.00641 9.28117 2.49902 7.99983 2.49902C5.3345 2.49902 3.1665 4.66702 3.1665 7.33236C3.1665 8.51969 3.6385 9.62367 4.59783 10.6943Z" fill="#3B3B3E"/>
</svg>
