<svg width="16" height="16" viewBox="0 0 16 16" fill="none" xmlns="http://www.w3.org/2000/svg">
<path d="M11.3333 4.83301C10.272 4.83301 9.33606 5.36234 8.76139 6.16634H3.33333C2.83867 6.16634 2.37728 6.35968 2.04395 6.70101C1.69328 7.04301 1.5 7.50434 1.5 7.99967C1.5 9.01101 2.322 9.83301 3.33333 9.83301H8.76139C9.33606 10.637 10.272 11.1663 11.3333 11.1663C13.0793 11.1663 14.5 9.74567 14.5 7.99967C14.5 6.25367 13.0793 4.83301 11.3333 4.83301ZM3.33333 8.83301C2.874 8.83301 2.5 8.45901 2.5 7.99967C2.5 7.77634 2.58597 7.5697 2.7513 7.40837C2.90397 7.25237 3.11 7.16634 3.33333 7.16634H8.29199C8.21866 7.43367 8.16667 7.70967 8.16667 7.99967C8.16667 8.29034 8.21866 8.56567 8.29199 8.83301H3.33333ZM11.3333 10.1663C10.1387 10.1663 9.16667 9.19434 9.16667 7.99967C9.16667 6.80501 10.1387 5.83301 11.3333 5.83301C12.528 5.83301 13.5 6.80501 13.5 7.99967C13.5 9.19434 12.528 10.1663 11.3333 10.1663Z" fill="#3B3B3E"/>
</svg>
