<svg width="16" height="16" viewBox="0 0 16 16" fill="none" xmlns="http://www.w3.org/2000/svg">
<path d="M10.36 12.3607C9.85331 12.8673 9.18466 13.148 8.47332 13.162V14C8.47332 14.276 8.24932 14.5 7.97332 14.5C7.69732 14.5 7.47332 14.276 7.47332 14V13.1567C6.12199 13.104 5.00265 12.0793 4.84999 10.7227C4.81932 10.448 5.01665 10.2007 5.29065 10.17C5.56732 10.1353 5.81265 10.3367 5.84332 10.6107C5.94332 11.498 6.68998 12.1667 7.57998 12.1667H8.41999C8.88399 12.1667 9.32199 11.9847 9.65265 11.6527C9.98465 11.3213 10.1667 10.884 10.1667 10.4194C10.1667 9.61869 9.62266 8.92137 8.84399 8.72404L6.91331 8.24463C6.31731 8.0933 5.78532 7.74603 5.41265 7.26603C5.04065 6.7947 4.83398 6.19535 4.83398 5.57935C4.83398 4.10135 6.00998 2.90068 7.47398 2.84334V2C7.47398 1.724 7.69798 1.5 7.97398 1.5C8.24998 1.5 8.47398 1.724 8.47398 2V2.83797C9.84932 2.86531 10.996 3.90201 11.1506 5.27734C11.1813 5.55201 10.984 5.79933 10.71 5.83C10.4293 5.86266 10.188 5.66332 10.1573 5.38932C10.0573 4.50199 9.31065 3.83333 8.42065 3.83333H7.58065C6.61732 3.83333 5.83399 4.61666 5.83399 5.58C5.83399 5.97133 5.96398 6.35132 6.19932 6.64998C6.43865 6.95865 6.77799 7.17931 7.15665 7.27531L9.08799 7.75464C10.3133 8.06531 11.1673 9.16134 11.1673 10.42C11.1667 11.1513 10.88 11.8407 10.36 12.3607Z" fill="#3B3B3E"/>
</svg>
