<svg width="16" height="16" viewBox="0 0 16 16" fill="none" xmlns="http://www.w3.org/2000/svg">
<path d="M8.00016 0.833008C4.04816 0.833008 0.833496 4.04767 0.833496 7.99967C0.833496 11.9517 4.04816 15.1663 8.00016 15.1663C11.9522 15.1663 15.1668 11.9517 15.1668 7.99967C15.1668 4.04767 11.9522 0.833008 8.00016 0.833008ZM8.00016 14.1663C4.5995 14.1663 1.8335 11.4003 1.8335 7.99967C1.8335 4.59901 4.5995 1.83301 8.00016 1.83301C11.4008 1.83301 14.1668 4.59901 14.1668 7.99967C14.1668 11.4003 11.4008 14.1663 8.00016 14.1663ZM11.1281 8.19108C11.1028 8.25241 11.0662 8.30768 11.0202 8.35368L9.02018 10.3537C8.92285 10.451 8.79483 10.5003 8.66683 10.5003C8.53883 10.5003 8.41081 10.4517 8.31348 10.3537C8.11814 10.1583 8.11814 9.84165 8.31348 9.64632L9.46012 8.49967H5.3335C5.0575 8.49967 4.8335 8.27567 4.8335 7.99967C4.8335 7.72367 5.0575 7.49967 5.3335 7.49967H9.45947L8.31283 6.35303C8.11749 6.15769 8.11749 5.841 8.31283 5.64567C8.50816 5.45034 8.82485 5.45034 9.02018 5.64567L11.0202 7.64567C11.0662 7.69167 11.1028 7.74693 11.1281 7.80827C11.1788 7.93093 11.1788 8.06841 11.1281 8.19108Z" fill="#3B3B3E"/>
</svg>
