<svg width="16" height="16" viewBox="0 0 16 16" fill="none" xmlns="http://www.w3.org/2000/svg">
<path d="M8.00002 1.5C4.78335 1.5 2.16669 4.11667 2.16669 7.33333C2.16669 10.7453 5.29802 12.8133 7.37002 14.182L7.72269 14.416C7.80669 14.472 7.90335 14.5 8.00002 14.5C8.09669 14.5 8.19335 14.472 8.27735 14.416L8.63003 14.182C10.702 12.8133 13.8334 10.7453 13.8334 7.33333C13.8334 4.11667 11.2167 1.5 8.00002 1.5ZM8.07936 13.3473L8.00002 13.4001L7.92068 13.3473C5.91402 12.022 3.16669 10.2073 3.16669 7.33333C3.16669 4.668 5.33469 2.5 8.00002 2.5C10.6654 2.5 12.8334 4.668 12.8334 7.33333C12.8334 10.2073 10.0854 12.0227 8.07936 13.3473ZM8.00002 5.16667C6.80535 5.16667 5.83335 6.13867 5.83335 7.33333C5.83335 8.528 6.80535 9.5 8.00002 9.5C9.19469 9.5 10.1667 8.528 10.1667 7.33333C10.1667 6.13867 9.19469 5.16667 8.00002 5.16667ZM8.00002 8.5C7.35669 8.5 6.83335 7.97667 6.83335 7.33333C6.83335 6.69 7.35669 6.16667 8.00002 6.16667C8.64335 6.16667 9.16669 6.69 9.16669 7.33333C9.16669 7.97667 8.64335 8.5 8.00002 8.5Z" fill="#3B3B3E"/>
</svg>
