<svg width="16" height="16" viewBox="0 0 16 16" fill="none" xmlns="http://www.w3.org/2000/svg">
<path d="M10.6666 1.5H5.33325C3.72125 1.5 2.83325 2.388 2.83325 4V12C2.83325 13.612 3.72125 14.5 5.33325 14.5H10.6666C12.2786 14.5 13.1666 13.612 13.1666 12V4C13.1666 2.388 12.2786 1.5 10.6666 1.5ZM12.1666 12C12.1666 13.0513 11.7179 13.5 10.6666 13.5H5.33325C4.28192 13.5 3.83325 13.0513 3.83325 12V4C3.83325 2.94867 4.28192 2.5 5.33325 2.5H10.6666C11.7179 2.5 12.1666 2.94867 12.1666 4V12ZM7.99992 6.83333C6.43725 6.83333 5.16659 8.10467 5.16659 9.66667C5.16659 11.2287 6.43725 12.5 7.99992 12.5C9.56258 12.5 10.8333 11.2287 10.8333 9.66667C10.8333 8.10467 9.56258 6.83333 7.99992 6.83333ZM7.99992 11.5C6.98859 11.5 6.16659 10.678 6.16659 9.66667C6.16659 8.65533 6.98859 7.83333 7.99992 7.83333C9.01125 7.83333 9.83325 8.65533 9.83325 9.66667C9.83325 10.678 9.01125 11.5 7.99992 11.5ZM7.33325 4.66667C7.33325 4.29867 7.63192 4 7.99992 4C8.36792 4 8.66658 4.29867 8.66658 4.66667C8.66658 5.03467 8.36792 5.33333 7.99992 5.33333C7.63192 5.33333 7.33325 5.03467 7.33325 4.66667ZM8.83325 9.66667C8.83325 10.1267 8.45992 10.5 7.99992 10.5C7.53992 10.5 7.16659 10.1267 7.16659 9.66667C7.16659 9.20667 7.53992 8.83333 7.99992 8.83333C8.45992 8.83333 8.83325 9.20667 8.83325 9.66667Z" fill="#3B3B3E"/>
</svg>
