<svg width="16" height="16" viewBox="0 0 16 16" fill="none" xmlns="http://www.w3.org/2000/svg">
<path d="M14.6001 4.13835C14.2494 3.97035 13.8448 4.01629 13.5415 4.25895L11.8335 5.62565V5.33301C11.8335 3.72101 10.9455 2.83301 9.3335 2.83301H3.3335C1.7215 2.83301 0.833496 3.72101 0.833496 5.33301V10.6663C0.833496 12.2783 1.7215 13.1663 3.3335 13.1663H9.3335C10.9455 13.1663 11.8335 12.2783 11.8335 10.6663V10.3737L13.5422 11.741C13.7235 11.8864 13.9429 11.9609 14.1649 11.9609C14.3122 11.9609 14.4601 11.9283 14.6001 11.861C14.9488 11.693 15.1668 11.347 15.1668 10.9596V5.04036C15.1668 4.65236 14.9494 4.30701 14.6001 4.13835ZM10.8335 10.6663C10.8335 11.7177 10.3848 12.1663 9.3335 12.1663H3.3335C2.28216 12.1663 1.8335 11.7177 1.8335 10.6663V5.33301C1.8335 4.28167 2.28216 3.83301 3.3335 3.83301H9.3335C10.3848 3.83301 10.8335 4.28167 10.8335 5.33301V10.6663ZM14.1668 10.9596L11.8335 9.09294V6.90706L14.1668 5.04036V10.9596ZM8.46143 6.1416C8.48676 6.20293 8.50016 6.26767 8.50016 6.33301V8.33301C8.50016 8.60901 8.27616 8.83301 8.00016 8.83301C7.72416 8.83301 7.50016 8.60901 7.50016 8.33301V7.54036L5.02018 10.0203C4.92285 10.1177 4.79483 10.167 4.66683 10.167C4.53883 10.167 4.41081 10.1183 4.31348 10.0203C4.11814 9.82501 4.11814 9.50832 4.31348 9.31299L6.79346 6.83301H6.00016C5.72416 6.83301 5.50016 6.60901 5.50016 6.33301C5.50016 6.05701 5.72416 5.83301 6.00016 5.83301H8.00016C8.0655 5.83301 8.13024 5.84641 8.19157 5.87174C8.31357 5.92241 8.41076 6.0196 8.46143 6.1416Z" fill="#3B3B3E"/>
</svg>
