<svg width="16" height="16" viewBox="0 0 16 16" fill="none" xmlns="http://www.w3.org/2000/svg">
<path d="M7.99983 14.4997C7.92916 14.4997 7.85847 14.4851 7.79247 14.4551C7.57447 14.3557 2.44383 11.9763 1.62116 7.73893C1.30316 6.0996 1.62252 4.50042 2.47452 3.46175C3.16518 2.62042 4.15714 2.17233 5.34447 2.16699C5.35047 2.16699 5.35649 2.16699 5.36115 2.16699C6.71582 2.16699 7.54184 2.93839 7.99917 3.59505C8.45651 2.93905 9.28253 2.16699 10.6372 2.16699C10.6425 2.16699 10.6485 2.16699 10.6538 2.16699C11.8418 2.17299 12.8345 2.62042 13.5251 3.46175C14.3765 4.49975 14.6951 6.09908 14.3765 7.73975C13.5551 11.9771 8.4238 14.3564 8.2058 14.4557C8.14113 14.4851 8.07049 14.4997 7.99983 14.4997ZM5.36115 3.16634C5.35715 3.16634 5.35317 3.16634 5.34984 3.16634C4.45784 3.17034 3.75119 3.4837 3.24852 4.0957C2.58252 4.90704 2.34184 6.19767 2.60318 7.54834C3.24118 10.8383 7.06184 12.9657 7.99917 13.443C8.93651 12.965 12.7592 10.8317 13.3958 7.54834C13.6585 6.19701 13.4178 4.90637 12.7532 4.0957C12.2505 3.4837 11.5438 3.17099 10.6498 3.16699C10.6465 3.16699 10.6425 3.16699 10.6385 3.16699C9.04183 3.16699 8.47985 4.80106 8.47452 4.81706C8.40585 5.02172 8.21516 5.15902 7.99983 5.15902C7.78449 5.15902 7.5938 5.02106 7.52513 4.81706C7.50313 4.75106 6.94182 3.16634 5.36115 3.16634ZM9.08251 10.6104L10.2672 8.83301H11.3332C11.6092 8.83301 11.8332 8.60901 11.8332 8.33301C11.8332 8.05701 11.6092 7.83301 11.3332 7.83301H9.99983C9.83249 7.83301 9.67648 7.91633 9.58381 8.05566L8.81786 9.20508L7.80785 6.17497C7.74718 5.9943 7.58914 5.86306 7.39981 5.83773C7.21181 5.81039 7.02381 5.89633 6.91714 6.05566L5.73249 7.83301H4.66649C4.39049 7.83301 4.16649 8.05701 4.16649 8.33301C4.16649 8.60901 4.39049 8.83301 4.66649 8.83301H5.99983C6.16716 8.83301 6.32317 8.74969 6.41584 8.61035L7.18179 7.46094L8.1918 10.491C8.25247 10.6717 8.41051 10.803 8.59984 10.8283C8.62184 10.8316 8.64383 10.833 8.66649 10.833C8.83249 10.833 8.98851 10.7504 9.08251 10.6104Z" fill="#3B3B3E"/>
</svg>
