<svg width="16" height="16" viewBox="0 0 16 16" fill="none" xmlns="http://www.w3.org/2000/svg">
<path d="M11.75 1.5H4.25C2.47667 1.5 1.5 2.47667 1.5 4.25V11.75C1.5 13.5233 2.47667 14.5 4.25 14.5H11.75C13.5233 14.5 14.5 13.5233 14.5 11.75V4.25C14.5 2.47667 13.5233 1.5 11.75 1.5ZM13.5 11.75C13.5 12.9767 12.9767 13.5 11.75 13.5H4.25C3.02333 13.5 2.5 12.9767 2.5 11.75V4.25C2.5 3.02333 3.02333 2.5 4.25 2.5H11.75C12.9767 2.5 13.5 3.02333 13.5 4.25V11.75ZM11.5 7.0026V8.5013C11.5 8.7773 11.276 9.0013 11 9.0013H10.7913C10.7913 9.0013 10.7907 9.0013 10.79 9.0013H9.5C9.224 9.0013 9 8.7773 9 8.5013C9 8.2253 9.224 8.0013 9.5 8.0013H9.97868C9.50668 7.38397 8.76396 7.0013 7.95996 7.0013C6.77529 7.0013 5.75799 7.8027 5.48665 8.95003C5.43265 9.18003 5.22732 9.33464 5.00065 9.33464C4.96198 9.33464 4.92394 9.33062 4.8846 9.32129C4.61594 9.25729 4.45001 8.98807 4.51335 8.7194C4.89135 7.1194 6.30864 6.0013 7.95931 6.0013C8.93731 6.0013 9.84533 6.41272 10.5 7.08805V7.0026C10.5 6.7266 10.724 6.5026 11 6.5026C11.276 6.5026 11.5 6.7266 11.5 7.0026Z" fill="#3B3B3E"/>
</svg>
