<svg width="16" height="16" viewBox="0 0 16 16" fill="none" xmlns="http://www.w3.org/2000/svg">
<path d="M11.778 8.27799C11.65 8.27799 11.522 8.22935 11.4246 8.13135L10.3133 7.02002C10.118 6.82535 10.118 6.508 10.3133 6.31266C10.5086 6.11733 10.8253 6.11733 11.0207 6.31266L11.7786 7.06999L13.6473 5.20133C13.8426 5.006 14.1593 5.006 14.3547 5.20133C14.55 5.39667 14.55 5.71336 14.3547 5.90869L12.1327 8.1307C12.034 8.2287 11.906 8.27799 11.778 8.27799ZM9.50602 4.33333C9.50602 2.77133 8.23536 1.5 6.67269 1.5C5.11002 1.5 3.83936 2.77133 3.83936 4.33333C3.83936 5.89533 5.11002 7.16667 6.67269 7.16667C8.23536 7.16667 9.50602 5.89533 9.50602 4.33333ZM8.50602 4.33333C8.50602 5.34467 7.68402 6.16667 6.67269 6.16667C5.66136 6.16667 4.83936 5.34467 4.83936 4.33333C4.83936 3.322 5.66136 2.5 6.67269 2.5C7.68402 2.5 8.50602 3.322 8.50602 4.33333ZM11.8333 14V12.0127C11.8333 10.2387 10.8293 8.16667 8 8.16667H5.33333C2.504 8.16667 1.5 10.238 1.5 12.0127V14C1.5 14.276 1.724 14.5 2 14.5C2.276 14.5 2.5 14.276 2.5 14V12.0127C2.5 11.3454 2.70467 9.16667 5.33333 9.16667H8C10.6287 9.16667 10.8333 11.3447 10.8333 12.0127V14C10.8333 14.276 11.0573 14.5 11.3333 14.5C11.6093 14.5 11.8333 14.276 11.8333 14Z" fill="#3B3B3E"/>
</svg>
