<svg width="16" height="16" viewBox="0 0 16 16" fill="none" xmlns="http://www.w3.org/2000/svg">
<path d="M11.8332 7.33365V12.887C11.8332 13.521 11.4765 14.081 10.9019 14.3476C10.6812 14.4503 10.4485 14.5003 10.2179 14.5003C9.8452 14.5003 9.47917 14.3697 9.17783 14.1157L6.74782 12.055C6.61449 11.965 6.52655 11.813 6.52655 11.6403C6.52655 11.3643 6.75055 11.1403 7.02655 11.1403C7.16321 11.1403 7.30722 11.2029 7.40122 11.3022L9.82318 13.3524C10.0112 13.511 10.2565 13.5436 10.4798 13.4409C10.7005 13.3382 10.8325 13.131 10.8325 12.887V7.33365C10.8325 7.05765 11.0565 6.83365 11.3325 6.83365C11.6085 6.83365 11.8332 7.05765 11.8332 7.33365ZM14.3532 2.35367L2.35321 14.3537C2.25587 14.451 2.12785 14.5003 1.99985 14.5003C1.87185 14.5003 1.74383 14.4517 1.6465 14.3537C1.45117 14.1583 1.45117 13.8416 1.6465 13.6463L3.92384 11.369C3.66118 11.0963 3.5005 10.7283 3.5005 10.333V5.66633C3.5005 4.839 4.17384 4.16633 5.0005 4.16633H6.18052C6.37652 4.16633 6.56789 4.09624 6.72056 3.96891L9.17783 1.88492C9.66517 1.47292 10.3252 1.38369 10.9032 1.65169C11.4778 1.91835 11.8345 2.4783 11.8345 3.1123V3.45898L13.6479 1.64566C13.8432 1.45033 14.1598 1.45033 14.3552 1.64566C14.5505 1.841 14.5485 2.15834 14.3532 2.35367ZM10.8332 3.1136C10.8332 2.8696 10.7012 2.66239 10.4805 2.55973C10.2558 2.45573 10.0112 2.48958 9.82253 2.64892L7.36387 4.73437C7.0292 5.0137 6.60985 5.16633 6.18052 5.16633H5.0005C4.72517 5.16633 4.5005 5.39033 4.5005 5.66633V10.333C4.5005 10.4603 4.5512 10.5736 4.6312 10.6623L10.8338 4.45963V3.1136H10.8332Z" fill="#3B3B3E"/>
</svg>
