<svg width="16" height="16" viewBox="0 0 16 16" fill="none" xmlns="http://www.w3.org/2000/svg">
<path d="M11.75 14.5H4.25C2.47667 14.5 1.5 13.5233 1.5 11.75V4.25C1.5 2.47667 2.47667 1.5 4.25 1.5H11.75C13.5233 1.5 14.5 2.47667 14.5 4.25V11.75C14.5 13.5233 13.5233 14.5 11.75 14.5ZM4.25 2.5C3.02333 2.5 2.5 3.02333 2.5 4.25V11.75C2.5 12.9767 3.02333 13.5 4.25 13.5H11.75C12.9767 13.5 13.5 12.9767 13.5 11.75V4.25C13.5 3.02333 12.9767 2.5 11.75 2.5H4.25ZM11.1667 10.6667C11.1667 10.3907 10.9427 10.1667 10.6667 10.1667H5.33333C5.05733 10.1667 4.83333 10.3907 4.83333 10.6667C4.83333 10.9427 5.05733 11.1667 5.33333 11.1667H10.6667C10.9427 11.1667 11.1667 10.9427 11.1667 10.6667ZM10.1667 8C10.1667 7.724 9.94267 7.5 9.66667 7.5H6.33333C6.05733 7.5 5.83333 7.724 5.83333 8C5.83333 8.276 6.05733 8.5 6.33333 8.5H9.66667C9.94267 8.5 10.1667 8.276 10.1667 8ZM9.16667 5.33333C9.16667 5.05733 8.94267 4.83333 8.66667 4.83333H7.33333C7.05733 4.83333 6.83333 5.05733 6.83333 5.33333C6.83333 5.60933 7.05733 5.83333 7.33333 5.83333H8.66667C8.94267 5.83333 9.16667 5.60933 9.16667 5.33333Z" fill="#3B3B3E"/>
</svg>
