<svg width="16" height="16" viewBox="0 0 16 16" fill="none" xmlns="http://www.w3.org/2000/svg">
<path d="M13.8532 4.81284C14.2825 5.24217 14.4999 5.86553 14.4999 6.66619V10.3329C14.4999 11.1602 13.8265 11.8329 12.9999 11.8329H11.8332V13.3329C11.8332 13.9762 11.3099 14.4995 10.6665 14.4995H5.33319C5.02719 14.4995 4.74447 14.3854 4.5158 14.1694C4.31514 13.9794 4.30726 13.6636 4.4966 13.4623C4.6866 13.2616 5.00246 13.2536 5.20379 13.4429C5.25646 13.4929 5.29919 13.4995 5.33319 13.4995H10.6665C10.7572 13.4995 10.8332 13.4235 10.8332 13.3329V10.4995H8.66652C8.39052 10.4995 8.16652 10.2755 8.16652 9.99953C8.16652 9.72353 8.39052 9.49953 8.66652 9.49953H11.3332C11.6092 9.49953 11.8332 9.72353 11.8332 9.99953V10.8329H12.9999C13.2752 10.8329 13.4999 10.6089 13.4999 10.3329V6.66619C13.4999 6.14019 13.3805 5.75421 13.1465 5.51955C12.9512 5.32421 12.9512 5.00752 13.1465 4.81219C13.3418 4.61686 13.6579 4.61751 13.8532 4.81284ZM2.35321 14.3529C2.25587 14.4502 2.12785 14.4995 1.99985 14.4995C1.87185 14.4995 1.74383 14.4509 1.6465 14.3529C1.45117 14.1575 1.45117 13.8409 1.6465 13.6455L3.45981 11.8322H3.0005C2.17384 11.8322 1.5005 11.1595 1.5005 10.3322V6.66554C1.5005 5.05354 2.3885 4.16554 4.0005 4.16554H4.16717V2.66619C4.16717 2.02286 4.6905 1.49953 5.33384 1.49953H10.0005C10.1332 1.49953 10.2605 1.55217 10.3539 1.64617L11.6872 2.97951C11.7812 3.07351 11.8338 3.20086 11.8338 3.33286V3.45884L13.6471 1.64552C13.8425 1.45019 14.1592 1.45019 14.3545 1.64552C14.5498 1.84086 14.5498 2.15755 14.3545 2.35288L2.35321 14.3529ZM5.16652 4.16619H10.8332V3.54022L9.7925 2.49953H5.33319C5.24119 2.49953 5.16652 2.57419 5.16652 2.66619V4.16619ZM2.99985 10.8329H4.16652V9.99953C4.16652 9.72353 4.39052 9.49953 4.66652 9.49953H5.7925L10.1258 5.16619H3.99985C2.94852 5.16619 2.49985 5.61486 2.49985 6.66619V10.3329C2.49985 10.6089 2.72452 10.8329 2.99985 10.8329Z" fill="#3B3B3E"/>
</svg>
