<svg width="16" height="16" viewBox="0 0 16 16" fill="none" xmlns="http://www.w3.org/2000/svg">
<path d="M11.02 11.0203L8.35337 13.687C8.30737 13.733 8.25209 13.7696 8.19142 13.7949C8.13076 13.8203 8.06535 13.8337 8.00002 13.8337C7.93468 13.8337 7.86994 13.8203 7.80861 13.7949C7.74728 13.7696 7.69266 13.733 7.64666 13.687L4.98 11.0203C4.78466 10.825 4.78466 10.5083 4.98 10.313C5.17533 10.1177 5.49202 10.1177 5.68735 10.313L7.50067 12.1263V2.66699C7.50067 2.39099 7.72467 2.16699 8.00067 2.16699C8.27667 2.16699 8.50067 2.39099 8.50067 2.66699V12.1263L10.314 10.313C10.5093 10.1177 10.826 10.1177 11.0213 10.313C11.2167 10.5083 11.2154 10.825 11.02 11.0203Z" fill="#3B3B3E"/>
</svg>
