<svg width="16" height="16" viewBox="0 0 16 16" fill="none" xmlns="http://www.w3.org/2000/svg">
<g clip-path="url(#clip0_36251_9067)">
<path d="M8.00016 0.833008C4.04683 0.833008 0.833496 4.04634 0.833496 7.99967C0.833496 11.953 4.04683 15.1663 8.00016 15.1663C11.9535 15.1663 15.1668 11.953 15.1668 7.99967C15.1668 4.04634 11.9535 0.833008 8.00016 0.833008ZM8.00016 14.1663C5.06683 14.1663 2.61349 12.1063 1.99349 9.36634L2.31348 9.68634C2.41348 9.78634 2.54016 9.83301 2.66683 9.83301C2.7935 9.83301 2.92018 9.78634 3.02018 9.68634C3.21352 9.49301 3.21352 9.17301 3.02018 8.97967L2.35352 8.31301C2.21352 8.17301 2.02017 8.13968 1.84017 8.19968C1.84017 8.13301 1.82682 8.06634 1.82682 7.99967C1.82682 4.59967 4.59349 1.83301 7.99349 1.83301C10.0202 1.83301 11.8202 2.81967 12.9468 4.33967L12.3068 4.97968C12.1135 5.17301 12.1135 5.49301 12.3068 5.68634C12.4068 5.78634 12.5335 5.83301 12.6602 5.83301C12.7868 5.83301 12.9135 5.78634 13.0135 5.68634L13.4868 5.21301C13.9135 6.05301 14.1602 6.99967 14.1602 7.99967C14.1602 11.3997 11.3935 14.1663 7.99349 14.1663H8.00016ZM8.00016 5.16634C6.44016 5.16634 5.16683 6.43967 5.16683 7.99967C5.16683 9.55967 6.44016 10.833 8.00016 10.833C9.56016 10.833 10.8335 9.55967 10.8335 7.99967C10.8335 6.43967 9.56016 5.16634 8.00016 5.16634ZM8.00016 9.83301C6.98683 9.83301 6.16683 9.01301 6.16683 7.99967C6.16683 6.98634 6.98683 6.16634 8.00016 6.16634C9.0135 6.16634 9.8335 6.98634 9.8335 7.99967C9.8335 9.01301 9.0135 9.83301 8.00016 9.83301ZM5.02018 5.68634L4.35352 6.35301C4.25352 6.45301 4.12683 6.49967 4.00016 6.49967C3.8735 6.49967 3.74681 6.45301 3.64681 6.35301C3.45348 6.15967 3.45348 5.83967 3.64681 5.64634L4.31348 4.97968C4.50681 4.78634 4.82685 4.78634 5.02018 4.97968C5.21352 5.17301 5.21352 5.49301 5.02018 5.68634ZM7.68685 11.6463C7.88018 11.8397 7.88018 12.1597 7.68685 12.353L7.02018 13.0197C6.92018 13.1197 6.7935 13.1663 6.66683 13.1663C6.54016 13.1663 6.41348 13.1197 6.31348 13.0197C6.12014 12.8263 6.12014 12.5063 6.31348 12.313L6.98014 11.6463C7.17348 11.453 7.49352 11.453 7.68685 11.6463ZM12.3535 10.313C12.5468 10.5063 12.5468 10.8263 12.3535 11.0197C12.2535 11.1197 12.1268 11.1663 12.0002 11.1663C11.8735 11.1663 11.7468 11.1197 11.6468 11.0197L10.9801 10.353C10.7868 10.1597 10.7868 9.83967 10.9801 9.64634C11.1735 9.45301 11.4935 9.45301 11.6868 9.64634L12.3535 10.313ZM8.31348 3.68634C8.12014 3.49301 8.12014 3.17301 8.31348 2.97968C8.50681 2.78634 8.82685 2.78634 9.02018 2.97968L9.68685 3.64634C9.88018 3.83968 9.88018 4.15967 9.68685 4.35301C9.58685 4.45301 9.46016 4.49967 9.3335 4.49967C9.20683 4.49967 9.08014 4.45301 8.98014 4.35301L8.31348 3.68634Z" fill="#3B3B3E"/>
</g>
<defs>
<clipPath id="clip0_36251_9067">
<rect width="16" height="16" fill="white"/>
</clipPath>
</defs>
</svg>
