<svg width="16" height="16" viewBox="0 0 16 16" fill="none" xmlns="http://www.w3.org/2000/svg">
<path d="M7.3809 11.4547C7.64757 11.7067 7.99022 11.8327 8.33289 11.8327C8.67555 11.8327 9.01754 11.7067 9.28487 11.4547L13.4675 7.50269C13.8148 7.17469 13.9262 6.67534 13.7496 6.23067C13.5722 5.78601 13.1503 5.49935 12.6716 5.49935H11.4429V2.66667C11.4429 2.02333 10.9196 1.5 10.2762 1.5H6.27624C5.63291 1.5 5.10958 2.02333 5.10958 2.66667V5.5H3.99418C3.51551 5.5 3.09289 5.78732 2.91622 6.23132C2.73955 6.67599 2.85028 7.17469 3.19828 7.50269L7.3809 11.4547ZM3.84623 6.60067C3.86423 6.55467 3.90483 6.5 3.99483 6.5H5.61023C5.7429 6.5 5.87025 6.44735 5.96358 6.35335C6.05692 6.25935 6.11023 6.13267 6.11023 6V2.66667C6.11023 2.57467 6.1849 2.5 6.2769 2.5H10.2769C10.3689 2.5 10.4436 2.57467 10.4436 2.66667V6C10.4436 6.13267 10.4962 6.26002 10.5902 6.35335C10.6842 6.44735 10.8109 6.5 10.9436 6.5H12.6722C12.7622 6.5 12.8022 6.55467 12.8208 6.60067C12.8388 6.64667 12.8476 6.714 12.7823 6.776L8.59949 10.728C8.44949 10.8687 8.21824 10.8687 8.06824 10.728L3.88562 6.776C3.81895 6.714 3.82757 6.64667 3.84623 6.60067ZM13.4996 14C13.4996 14.276 13.2756 14.5 12.9996 14.5H3.66622C3.39022 14.5 3.16622 14.276 3.16622 14C3.16622 13.724 3.39022 13.5 3.66622 13.5H12.9996C13.2756 13.5 13.4996 13.724 13.4996 14Z" fill="#3B3B3E"/>
</svg>
