<svg width="16" height="16" viewBox="0 0 16 16" fill="none" xmlns="http://www.w3.org/2000/svg">
<path d="M14.153 9.24546C13.2757 10.7095 11.307 13.1668 8.00033 13.1668C7.35833 13.1668 6.72438 13.0695 6.11638 12.8768C5.85305 12.7935 5.70769 12.5129 5.79102 12.2495C5.87369 11.9855 6.15697 11.8415 6.4183 11.9235C6.9283 12.0849 7.46033 12.1668 8.00033 12.1668C10.815 12.1668 12.5271 10.0135 13.2964 8.72951C13.5684 8.27884 13.5684 7.72083 13.2977 7.2715C13.067 6.88283 12.785 6.48548 12.4803 6.11948C12.3036 5.90681 12.3331 5.59154 12.5457 5.41554C12.7591 5.23888 13.0737 5.26816 13.2503 5.48016C13.5877 5.88616 13.9009 6.32815 14.1556 6.75815C14.6176 7.52282 14.6177 8.47746 14.153 9.24546ZM6.70899 9.99888L2.35369 14.3542C2.25635 14.4515 2.12833 14.5008 2.00033 14.5008C1.87233 14.5008 1.74431 14.4522 1.64698 14.3542C1.45165 14.1588 1.45165 13.8422 1.64698 13.6468L3.76368 11.5301C2.87835 10.7668 2.23503 9.89149 1.84636 9.24416C1.38369 8.47749 1.38366 7.52288 1.84766 6.75555C2.725 5.29155 4.69367 2.83416 8.00033 2.83416C9.22367 2.83416 10.377 3.18012 11.437 3.85679L13.6463 1.64748C13.8417 1.45214 14.1584 1.45214 14.3537 1.64748C14.549 1.84281 14.549 2.1595 14.3537 2.35483L6.71029 9.99823C6.71029 9.99823 6.71031 9.99888 6.70964 9.99888C6.70898 9.99888 6.70899 9.99821 6.70899 9.99888ZM6.40626 8.88755L8.8877 6.4061C8.6197 6.25477 8.319 6.1675 8.00033 6.1675C6.98967 6.1675 6.16765 6.9895 6.16765 8.00083C6.16765 8.31883 6.25559 8.61955 6.40626 8.88755ZM4.47169 10.8215L5.67969 9.61346C5.34969 9.14479 5.16765 8.58819 5.16765 7.99953C5.16765 6.43753 6.43833 5.16619 8.00033 5.16619C8.58967 5.16619 9.1456 5.34824 9.61426 5.67824L10.7017 4.59084C9.85833 4.09684 8.955 3.83221 8.00033 3.83221C5.18567 3.83221 3.4736 5.98555 2.70427 7.26955C2.43227 7.72021 2.4323 8.27822 2.70297 8.72755C3.06097 9.32555 3.65569 10.1341 4.47169 10.8215ZM9.80567 8.29022C9.68567 9.06355 9.06302 9.68683 8.29102 9.80617C8.01836 9.84817 7.83105 10.1035 7.87305 10.3762C7.91172 10.6235 8.12438 10.8001 8.36638 10.8001C8.39171 10.8001 8.41771 10.7981 8.44304 10.7941C9.66104 10.6061 10.6056 9.66155 10.7936 8.44289C10.8356 8.16955 10.649 7.91492 10.3757 7.87225C10.109 7.83158 9.84767 8.01688 9.80567 8.29022Z" fill="#3B3B3E"/>
</svg>
