<svg width="16" height="16" viewBox="0 0 16 16" fill="none" xmlns="http://www.w3.org/2000/svg">
<path d="M8.71785 7.83301H6.61532C5.92732 7.83301 5.49992 8.26034 5.49992 8.94834V10.3843C5.49992 11.0723 5.92732 11.4997 6.61532 11.4997H8.71785C9.40585 11.4997 9.83325 11.0723 9.83325 10.3843V8.94834C9.83325 8.26034 9.40585 7.83301 8.71785 7.83301ZM8.83325 10.3843C8.83325 10.4463 8.82523 10.4797 8.82723 10.4877C8.81323 10.4923 8.77985 10.5003 8.71785 10.5003H6.61532C6.56065 10.5003 6.52785 10.4943 6.51652 10.4943C6.51452 10.4943 6.51328 10.4943 6.51261 10.4943C6.50795 10.4797 6.49992 10.4463 6.49992 10.3843V8.94834C6.49992 8.88634 6.50794 8.85301 6.50594 8.84501C6.51994 8.84034 6.55332 8.83234 6.61532 8.83234H8.71785C8.78185 8.83234 8.81522 8.83967 8.82056 8.83834C8.82522 8.85301 8.83325 8.88634 8.83325 8.94834V10.3843ZM13.1666 8.66634C13.1666 8.94234 12.9426 9.16634 12.6666 9.16634H11.3333C11.0573 9.16634 10.8333 8.94234 10.8333 8.66634C10.8333 8.39034 11.0573 8.16634 11.3333 8.16634H12.6666C12.9426 8.16634 13.1666 8.39034 13.1666 8.66634ZM13.1666 10.6663C13.1666 10.9423 12.9426 11.1663 12.6666 11.1663H11.3333C11.0573 11.1663 10.8333 10.9423 10.8333 10.6663C10.8333 10.3903 11.0573 10.1663 11.3333 10.1663H12.6666C12.9426 10.1663 13.1666 10.3903 13.1666 10.6663ZM13.1666 5.99967C13.1666 6.27567 12.9426 6.49967 12.6666 6.49967H5.99992C5.72392 6.49967 5.49992 6.27567 5.49992 5.99967C5.49992 5.72367 5.72392 5.49967 5.99992 5.49967H12.6666C12.9426 5.49967 13.1666 5.72367 13.1666 5.99967ZM12.6666 2.83301H5.99992C4.38792 2.83301 3.49992 3.72101 3.49992 5.33301V5.49967H2.66659C1.65525 5.49967 0.833252 6.32234 0.833252 7.33301V11.9997C0.833252 13.0103 1.65525 13.833 2.66659 13.833H12.6666C14.2786 13.833 15.1666 12.945 15.1666 11.333V5.33301C15.1666 3.72101 14.2786 2.83301 12.6666 2.83301ZM3.49992 11.9997C3.49992 12.459 3.12592 12.833 2.66659 12.833C2.20725 12.833 1.83325 12.459 1.83325 11.9997V7.33301C1.83325 6.87367 2.20725 6.49967 2.66659 6.49967H3.49992V11.9997ZM14.1666 11.333C14.1666 12.3843 13.7179 12.833 12.6666 12.833H4.29923C4.42723 12.583 4.49992 12.2997 4.49992 11.9997V5.33301C4.49992 4.28167 4.94859 3.83301 5.99992 3.83301H12.6666C13.7179 3.83301 14.1666 4.28167 14.1666 5.33301V11.333Z" fill="#3B3B3E"/>
</svg>
