<svg width="16" height="16" viewBox="0 0 16 16" fill="none" xmlns="http://www.w3.org/2000/svg">
<path d="M13.3333 5.83366C14.0527 5.83366 14.5 5.38699 14.5 4.66699V3.33366C14.5 2.61366 14.0527 2.16699 13.3333 2.16699H2.66667C1.94733 2.16699 1.5 2.61366 1.5 3.33366V4.66699C1.5 5.38699 1.94733 5.83366 2.66667 5.83366H2.83333V12.8337H2C1.724 12.8337 1.5 13.0577 1.5 13.3337C1.5 13.6097 1.724 13.8337 2 13.8337H6C6.276 13.8337 6.5 13.6097 6.5 13.3337V10.0003C6.5 9.17299 7.17333 8.50033 8 8.50033C8.82667 8.50033 9.5 9.17299 9.5 10.0003V13.3337C9.5 13.6097 9.724 13.8337 10 13.8337H14C14.276 13.8337 14.5 13.6097 14.5 13.3337C14.5 13.0577 14.276 12.8337 14 12.8337H13.1667V5.83366H13.3333ZM2.52271 4.81559C2.52204 4.81559 2.52204 4.81559 2.52271 4.81559C2.51937 4.81026 2.5 4.77099 2.5 4.66699V3.33366C2.5 3.22966 2.51932 3.19096 2.51799 3.18896C2.52332 3.1863 2.56267 3.16699 2.66667 3.16699H13.3333C13.4547 3.16699 13.4787 3.18439 13.478 3.18506C13.4807 3.19106 13.5 3.22966 13.5 3.33366V4.66699C13.5 4.77099 13.4807 4.80969 13.482 4.81169C13.4767 4.81435 13.4373 4.83366 13.3333 4.83366H12.6667H3.33333H2.66667C2.566 4.83366 2.52604 4.81559 2.52271 4.81559ZM12.1667 12.8337H10.5V10.0003C10.5 8.62166 9.378 7.50033 8 7.50033C6.622 7.50033 5.5 8.62166 5.5 10.0003V12.8337H3.83333V5.83366H12.1667V12.8337Z" fill="#3B3B3E"/>
</svg>
