<svg width="16" height="16" viewBox="0 0 16 16" fill="none" xmlns="http://www.w3.org/2000/svg">
<path d="M4.97991 7.68654C4.78458 7.49121 4.78458 7.17452 4.97991 6.97918L7.64658 4.31252C7.84191 4.11718 8.1586 4.11718 8.35394 4.31252L11.0206 6.97918C11.2159 7.17452 11.2159 7.49121 11.0206 7.68654C10.9233 7.78387 10.7953 7.83319 10.6673 7.83319C10.5393 7.83319 10.4112 7.78454 10.3139 7.68654L8.00059 5.37323L5.68727 7.68654C5.49127 7.88187 5.17525 7.88187 4.97991 7.68654ZM8.35329 8.31317C8.15795 8.11783 7.84126 8.11783 7.64593 8.31317L4.97926 10.9798C4.78393 11.1752 4.78393 11.4919 4.97926 11.6872C5.1746 11.8825 5.49129 11.8825 5.68662 11.6872L7.99993 9.37388L10.3132 11.6872C10.4106 11.7845 10.5386 11.8338 10.6666 11.8338C10.7946 11.8338 10.9226 11.7852 11.02 11.6872C11.2153 11.4919 11.2153 11.1752 11.02 10.9798L8.35329 8.31317Z" fill="#3B3B3E"/>
</svg>
