<svg width="16" height="16" viewBox="0 0 16 16" fill="none" xmlns="http://www.w3.org/2000/svg">
<path d="M13.32 10.36C13.2066 9.54667 12.82 8.77334 12.2333 8.19334L10.5 6.46V3.09334C10.5 2.05334 9.94665 1.5 8.90665 1.5H4.42665C3.38665 1.5 2.83331 2.05334 2.83331 3.09334V10.24C2.83331 11.2667 3.36665 11.8133 4.37998 11.8333C5.20665 13.24 5.67998 13.72 6.31331 14.36C6.41331 14.46 6.53998 14.5067 6.66665 14.5067C6.79331 14.5067 6.91998 14.46 7.01998 14.36C7.21331 14.1667 7.21331 13.8467 7.01998 13.6533C6.48665 13.12 6.11998 12.7467 5.54665 11.84H8.90665C9.31331 11.84 9.61331 11.7533 9.83331 11.62L10.24 12.2733C10.3866 12.5067 10.6933 12.58 10.9266 12.4333C11.16 12.2867 11.2333 11.98 11.0866 11.7467L8.19331 7.11999C8.05331 6.89999 8.08665 6.62 8.27332 6.44C8.48665 6.22667 8.83331 6.22667 9.05331 6.44L11.5266 8.91333C11.96 9.34666 12.24 9.91333 12.3267 10.5133L12.8333 14.08C12.8666 14.3267 13.08 14.5067 13.3267 14.5067C13.3533 14.5067 13.3733 14.5067 13.4 14.5067C13.6733 14.4667 13.8667 14.2133 13.8267 13.94L13.32 10.3733V10.36ZM7.57331 5.71999C7.05998 6.23332 6.97331 7.01999 7.35331 7.63999L9.30665 10.7667C9.23332 10.8067 9.11331 10.8333 8.90665 10.8333H4.42665C3.94665 10.8333 3.83331 10.72 3.83331 10.24V3.09334C3.83331 2.61334 3.94665 2.5 4.42665 2.5H8.90665C9.38665 2.5 9.49998 2.61334 9.49998 3.09334V5.52C8.90665 5.15333 8.07331 5.22 7.57331 5.72666V5.71999Z" fill="#3B3B3E"/>
</svg>
