<svg width="16" height="16" viewBox="0 0 16 16" fill="none" xmlns="http://www.w3.org/2000/svg">
<path d="M13.1665 7.33366C13.1665 10.0137 11.1152 12.2223 8.49985 12.4749V14.0003C8.49985 14.2763 8.27585 14.5003 7.99985 14.5003C7.72385 14.5003 7.49985 14.2763 7.49985 14.0003V12.4683C7.22519 12.4416 6.95378 12.4011 6.69044 12.3304C6.42444 12.2591 6.26525 11.9843 6.33725 11.7183C6.40859 11.4523 6.68122 11.2943 6.94989 11.3643C7.28722 11.4549 7.64052 11.501 7.99985 11.501C10.2972 11.501 12.1665 9.63164 12.1665 7.33431C12.1665 7.05831 12.3905 6.83431 12.6665 6.83431C12.9425 6.83431 13.1665 7.05766 13.1665 7.33366ZM8.94256 10.3576C9.93523 10.0483 10.7131 9.27037 11.0238 8.27637C11.0384 8.22837 11.0466 8.17762 11.0466 8.12695V8.12028C11.0466 7.84428 10.8226 7.6237 10.5466 7.6237C10.3179 7.6237 10.1245 7.77958 10.0651 7.98958C9.85379 8.65292 9.33788 9.1736 8.67921 9.3916C8.45521 9.44093 8.28989 9.64104 8.28989 9.88037C8.28989 10.1564 8.51715 10.3804 8.79315 10.3804C8.84448 10.3804 8.89456 10.3729 8.94256 10.3576ZM14.3532 2.35368L2.35321 14.3537C2.25587 14.451 2.12785 14.5003 1.99985 14.5003C1.87185 14.5003 1.74383 14.4517 1.6465 14.3537C1.45117 14.1583 1.45117 13.8417 1.6465 13.6463L4.32716 10.9657C3.36383 9.99232 2.83319 8.70367 2.83319 7.33301C2.83319 7.05701 3.05719 6.83301 3.33319 6.83301C3.60919 6.83301 3.83319 7.05701 3.83319 7.33301C3.83319 8.43634 4.26054 9.47363 5.03387 10.2583L5.7466 9.54574C5.16993 8.9604 4.83319 8.16969 4.83319 7.33236V4.66569C4.83319 3.82702 5.16118 3.03239 5.75718 2.42839C6.36718 1.82772 7.16119 1.49902 7.99985 1.49902C9.57785 1.49902 10.8792 2.66297 11.1172 4.17497L13.6465 1.64567C13.8418 1.45034 14.1585 1.45034 14.3539 1.64567C14.5492 1.841 14.5485 2.15835 14.3532 2.35368ZM6.45721 8.83561L10.1665 5.1263V4.66699C10.1665 3.47233 9.19452 2.50033 7.99985 2.50033C7.42585 2.50033 6.87988 2.72639 6.46388 3.13639C6.05922 3.54706 5.83319 4.09299 5.83319 4.66699V7.33366C5.83319 7.90299 6.06654 8.43628 6.45721 8.83561Z" fill="#3B3B3E"/>
</svg>
