<svg width="16" height="16" viewBox="0 0 16 16" fill="none" xmlns="http://www.w3.org/2000/svg">
<path d="M12.4667 14.0871C12.424 14.3291 12.2127 14.4997 11.9754 14.4997C11.9461 14.4997 11.9168 14.4977 11.8874 14.4924C11.6161 14.4444 11.4341 14.1849 11.4827 13.9123C11.4887 13.8769 11.526 13.5977 11.4767 13.1663H5.74209C5.46609 13.1663 5.24209 12.9423 5.24209 12.6663C5.24209 12.3903 5.46609 12.1663 5.74209 12.1663H11.2354C11.1214 11.8503 10.9627 11.5083 10.7361 11.1463H8.00007C7.72407 11.1463 7.50007 10.9223 7.50007 10.6463C7.50007 10.3703 7.72407 10.1463 8.00007 10.1463H9.95409C9.41809 9.57432 8.70803 8.98963 7.7447 8.43229C3.1607 5.77896 3.52408 2.09837 3.54141 1.94303C3.57274 1.66837 3.81471 1.46826 4.09471 1.50293C4.36805 1.53426 4.56472 1.78038 4.53539 2.05371C4.53139 2.09171 4.50806 2.38567 4.57339 2.83301H10.0001C10.2761 2.83301 10.5001 3.05701 10.5001 3.33301C10.5001 3.60901 10.2761 3.83301 10.0001 3.83301H4.8321C4.9461 4.14501 5.09671 4.48034 5.31005 4.83301H8.00007C8.27607 4.83301 8.50007 5.05701 8.50007 5.33301C8.50007 5.60901 8.27607 5.83301 8.00007 5.83301H6.06005C6.54005 6.36701 7.1754 6.90427 8.00007 7.41227C11.7221 5.12094 11.4787 2.18038 11.4654 2.05371C11.4374 1.77971 11.6361 1.53373 11.9094 1.50439C12.1741 1.47573 12.4287 1.67035 12.4594 1.94368C12.476 2.09102 12.7914 5.39763 8.93407 8.00163C13.0001 10.715 12.492 13.9437 12.4667 14.0871ZM6.51472 9.68441C6.72005 9.49974 6.73609 9.18369 6.55142 8.97835C6.36675 8.77302 6.0487 8.75772 5.84536 8.94238C3.10003 11.419 3.51338 13.9789 3.53205 14.0863C3.57405 14.3283 3.78477 14.4984 4.02277 14.4984C4.05011 14.4984 4.07876 14.4964 4.10676 14.491C4.37809 14.4457 4.56142 14.1877 4.51675 13.9163C4.50408 13.8297 4.20138 11.7717 6.51472 9.68441Z" fill="#3B3B3E"/>
</svg>
