<svg width="16" height="16" viewBox="0 0 16 16" fill="none" xmlns="http://www.w3.org/2000/svg">
<path d="M14.157 6.7583C13.2816 5.2923 11.3169 2.83301 8.00024 2.83301C4.68357 2.83301 2.71883 5.2923 1.8435 6.7583C1.3855 7.52363 1.3855 8.47505 1.8435 9.24105C2.71883 10.707 4.68357 13.1663 8.00024 13.1663C11.3169 13.1663 13.2816 10.707 14.157 9.24105C14.615 8.47505 14.615 7.5243 14.157 6.7583ZM13.2989 8.7277C12.5322 10.0117 10.8236 12.1663 8.00024 12.1663C5.17691 12.1663 3.46824 10.0124 2.70157 8.7277C2.43357 8.27837 2.43357 7.72033 2.70157 7.271C3.46824 5.987 5.17691 3.83236 8.00024 3.83236C10.8236 3.83236 12.5322 5.98633 13.2989 7.271C13.5676 7.721 13.5676 8.27837 13.2989 8.7277ZM8.00024 5.16634C6.43757 5.16634 5.16691 6.43767 5.16691 7.99967C5.16691 9.56167 6.43757 10.833 8.00024 10.833C9.56291 10.833 10.8336 9.56167 10.8336 7.99967C10.8336 6.43767 9.56291 5.16634 8.00024 5.16634ZM8.00024 9.83301C6.98891 9.83301 6.16691 9.01101 6.16691 7.99967C6.16691 6.98834 6.98891 6.16634 8.00024 6.16634C9.01157 6.16634 9.83357 6.98834 9.83357 7.99967C9.83357 9.01101 9.01157 9.83301 8.00024 9.83301Z" fill="#3B3B3E"/>
</svg>
