<svg width="16" height="16" viewBox="0 0 16 16" fill="none" xmlns="http://www.w3.org/2000/svg">
<path d="M10.2154 14.5004C9.84271 14.5004 9.47672 14.3691 9.17672 14.1151L6.71602 12.0303C6.56602 11.903 6.3747 11.8331 6.17737 11.8331H4.99939C4.17272 11.8331 3.49939 11.1604 3.49939 10.3331V5.66705C3.49939 4.83972 4.17272 4.16705 4.99939 4.16705H6.17737C6.3747 4.16705 6.56601 4.09712 6.71667 3.96979L9.17737 1.88499C9.6627 1.47365 10.3214 1.38507 10.8981 1.6524C11.4747 1.91974 11.8327 2.48043 11.8327 3.11643V12.885C11.8327 13.521 11.4747 14.0817 10.8981 14.349C10.6787 14.4504 10.446 14.5004 10.2154 14.5004ZM5.00004 5.1664C4.72471 5.1664 4.50004 5.3904 4.50004 5.6664V10.3324C4.50004 10.6084 4.72471 10.8324 5.00004 10.8324H6.17802C6.61135 10.8324 7.032 10.9863 7.36267 11.267L9.82336 13.3518C10.01 13.5098 10.2547 13.5443 10.4773 13.4403C10.7 13.337 10.8327 13.129 10.8327 12.8837V3.11513C10.8327 2.8698 10.7 2.66166 10.4773 2.55833C10.2553 2.45499 10.01 2.48836 9.82401 2.64703L7.36267 4.73167C7.032 5.01167 6.61135 5.1664 6.17802 5.1664H5.00004V5.1664Z" fill="#3B3B3E"/>
</svg>
