<svg width="16" height="16" viewBox="0 0 16 16" fill="none" xmlns="http://www.w3.org/2000/svg">
<path d="M4.16675 2.5V4.11475C4.16675 4.28541 4.19141 4.45339 4.20874 4.62272C4.20741 4.63805 4.20011 4.65133 4.20011 4.66667C4.20011 4.704 4.21344 4.73731 4.22144 4.77197C4.33744 5.64397 4.67014 6.48259 5.20614 7.18392C5.39547 7.43125 5.50008 7.74538 5.50008 8.06738V12.9993C5.50008 13.826 6.17275 14.4993 7.00008 14.4993H9.00008C9.82741 14.4993 10.5001 13.826 10.5001 12.9993V8.06738C10.5001 7.74538 10.6047 7.43125 10.794 7.18392C11.33 6.48259 11.6627 5.64397 11.7787 4.77197C11.7867 4.73664 11.8 4.704 11.8 4.66667C11.8 4.65133 11.7928 4.63805 11.7914 4.62272C11.8088 4.45339 11.8334 4.28541 11.8334 4.11475V2.5C11.8334 1.94867 11.3847 1.5 10.8334 1.5H5.16675C4.61541 1.5 4.16675 1.94867 4.16675 2.5ZM9.50008 8.06803V13C9.50008 13.2753 9.27608 13.5 9.00008 13.5H7.00008C6.72408 13.5 6.50008 13.2753 6.50008 13V8.06803C6.50008 7.52737 6.32275 6.99866 6.00008 6.57666C5.67941 6.15799 5.45675 5.67398 5.31942 5.16732H10.6801C10.5428 5.67465 10.3201 6.15799 9.99943 6.57666C9.67743 6.99799 9.50008 7.52737 9.50008 8.06803ZM10.8334 2.5V4.11475C10.8334 4.13208 10.8293 4.14933 10.8293 4.16667H5.17147C5.17147 4.14933 5.1674 4.13208 5.1674 4.11475V2.5H10.8334ZM5.16675 2.5V2V2.5ZM8.00008 8.16667C8.27608 8.16667 8.50008 8.39067 8.50008 8.66667V10C8.50008 10.276 8.27608 10.5 8.00008 10.5C7.72408 10.5 7.50008 10.276 7.50008 10V8.66667C7.50008 8.39067 7.72408 8.16667 8.00008 8.16667Z" fill="#3B3B3E"/>
</svg>
