<svg width="16" height="16" viewBox="0 0 16 16" fill="none" xmlns="http://www.w3.org/2000/svg">
<path d="M13.7947 9.69531C13.3533 9.44531 12.8307 9.45196 12.3947 9.7133L11.0813 10.5013C10.8753 9.91864 10.3187 9.5 9.66667 9.5H6C5.57267 9.5 5.18401 9.65333 4.87201 9.89933C4.65801 9.65667 4.34867 9.5 4 9.5H2.66667C2.02333 9.5 1.5 10.0233 1.5 10.6667V13.3333C1.5 13.9767 2.02333 14.5 2.66667 14.5H4C4.348 14.5 4.65801 14.3433 4.87201 14.1007C5.18401 14.3467 5.57267 14.5 6 14.5H9.73132C10.4473 14.5 11.15 14.2533 11.71 13.806L13.9787 11.9906C14.31 11.7253 14.5 11.3294 14.5 10.9054C14.5 10.398 14.236 9.94531 13.7947 9.69531ZM4.16667 13.3333C4.16667 13.4253 4.092 13.5 4 13.5H2.66667C2.57467 13.5 2.5 13.4253 2.5 13.3333V10.6667C2.5 10.5747 2.57467 10.5 2.66667 10.5H4C4.092 10.5 4.16667 10.5747 4.16667 10.6667V11.3333V12.6667V13.3333ZM13.3533 11.21L11.0847 13.0247C10.702 13.3307 10.2213 13.4993 9.73067 13.4993H6C5.54067 13.4993 5.16667 13.1253 5.16667 12.666V11.3327C5.16667 10.8733 5.54067 10.4993 6 10.4993H9.66667C9.94267 10.4993 10.1667 10.7233 10.1667 10.9993C10.1667 11.2753 9.94267 11.4993 9.66667 11.4993H7.33333C7.05733 11.4993 6.83333 11.7233 6.83333 11.9993C6.83333 12.2753 7.05733 12.4993 7.33333 12.4993H9.66667C10.2287 12.4993 10.72 12.1886 10.9767 11.73L12.9093 10.5706C13.084 10.4646 13.2427 10.532 13.302 10.5653C13.3613 10.5993 13.5 10.7 13.5 10.9054C13.5 11.0247 13.4467 11.136 13.3533 11.21ZM6.50867 4.78735C6.28933 4.50935 6.16667 4.15404 6.16667 3.79004C6.16667 2.99871 6.73601 2.34001 7.48667 2.19735V2C7.48667 1.724 7.71067 1.5 7.98667 1.5C8.26267 1.5 8.48667 1.724 8.48667 2V2.19263C9.18667 2.31329 9.74132 2.88134 9.82332 3.61068C9.85399 3.88534 9.65667 4.13266 9.38267 4.16333C9.114 4.19666 8.86066 3.99732 8.83 3.72266C8.794 3.40532 8.52734 3.16667 8.21 3.16667H7.79C7.446 3.16667 7.16667 3.44604 7.16667 3.79004C7.16667 3.92937 7.21267 4.06467 7.296 4.17C7.384 4.28334 7.50201 4.36003 7.63934 4.39469L8.604 4.63403C9.32867 4.81737 9.83333 5.46531 9.83333 6.20931C9.83333 6.64198 9.664 7.04936 9.35667 7.35669C9.11667 7.59669 8.81401 7.74932 8.48667 7.80599V8C8.48667 8.276 8.26267 8.5 7.98667 8.5C7.71067 8.5 7.48667 8.276 7.48667 8V7.80534C6.79867 7.67534 6.25734 7.10999 6.17668 6.38932C6.14601 6.11466 6.34333 5.86734 6.61733 5.83667C6.88533 5.804 7.13934 6.00268 7.17 6.27734C7.206 6.59468 7.47267 6.83333 7.79 6.83333H8.21C8.37534 6.83333 8.53133 6.76798 8.64933 6.64998C8.768 6.53132 8.83333 6.37529 8.83333 6.20996C8.83333 5.92396 8.63866 5.67532 8.36066 5.60466L7.396 5.36532C7.044 5.27598 6.72933 5.07069 6.50867 4.78735Z" fill="#3B3B3E"/>
</svg>
