<svg width="16" height="16" viewBox="0 0 16 16" fill="none" xmlns="http://www.w3.org/2000/svg">
<path d="M14 9.5H13.1667V6.5H14C14.276 6.5 14.5 6.276 14.5 6C14.5 5.724 14.276 5.5 14 5.5H13.1667V5.33333C13.1667 3.72133 12.2787 2.83333 10.6667 2.83333H10.5V2C10.5 1.724 10.276 1.5 10 1.5C9.724 1.5 9.5 1.724 9.5 2V2.83333H6.5V2C6.5 1.724 6.276 1.5 6 1.5C5.724 1.5 5.5 1.724 5.5 2V2.83333H5.33333C3.72133 2.83333 2.83333 3.72133 2.83333 5.33333V5.5H2C1.724 5.5 1.5 5.724 1.5 6C1.5 6.276 1.724 6.5 2 6.5H2.83333V9.5H2C1.724 9.5 1.5 9.724 1.5 10C1.5 10.276 1.724 10.5 2 10.5H2.83333V10.6667C2.83333 12.2787 3.72133 13.1667 5.33333 13.1667H5.5V14C5.5 14.276 5.724 14.5 6 14.5C6.276 14.5 6.5 14.276 6.5 14V13.1667H9.5V14C9.5 14.276 9.724 14.5 10 14.5C10.276 14.5 10.5 14.276 10.5 14V13.1667H10.6667C12.2787 13.1667 13.1667 12.2787 13.1667 10.6667V10.5H14C14.276 10.5 14.5 10.276 14.5 10C14.5 9.724 14.276 9.5 14 9.5ZM12.1667 10.6667C12.1667 11.718 11.718 12.1667 10.6667 12.1667H5.33333C4.282 12.1667 3.83333 11.718 3.83333 10.6667V5.33333C3.83333 4.282 4.282 3.83333 5.33333 3.83333H10.6667C11.718 3.83333 12.1667 4.282 12.1667 5.33333V10.6667ZM9.33333 5.16667H6.66667C5.72733 5.16667 5.16667 5.72733 5.16667 6.66667V9.33333C5.16667 10.2727 5.72733 10.8333 6.66667 10.8333H9.33333C10.2727 10.8333 10.8333 10.2727 10.8333 9.33333V6.66667C10.8333 5.72733 10.2727 5.16667 9.33333 5.16667ZM9.83333 9.33333C9.83333 9.726 9.726 9.83333 9.33333 9.83333H6.66667C6.274 9.83333 6.16667 9.726 6.16667 9.33333V6.66667C6.16667 6.274 6.274 6.16667 6.66667 6.16667H9.33333C9.726 6.16667 9.83333 6.274 9.83333 6.66667V9.33333Z" fill="#3B3B3E"/>
</svg>
