<svg width="16" height="16" viewBox="0 0 16 16" fill="none" xmlns="http://www.w3.org/2000/svg">
<path d="M11.75 1.5H4.25C2.47667 1.5 1.5 2.47667 1.5 4.25V11.75C1.5 13.5233 2.47667 14.5 4.25 14.5H11.75C13.5233 14.5 14.5 13.5233 14.5 11.75V4.25C14.5 2.47667 13.5233 1.5 11.75 1.5ZM13.5 11.75C13.5 12.9767 12.9767 13.5 11.75 13.5H4.25C3.02333 13.5 2.5 12.9767 2.5 11.75V4.25C2.5 3.02333 3.02333 2.5 4.25 2.5H11.75C12.9767 2.5 13.5 3.02333 13.5 4.25V11.75ZM11.0534 6.44727C11.2487 6.6426 11.2487 6.95929 11.0534 7.15462C10.8581 7.34996 10.5414 7.34996 10.346 7.15462L9.39941 6.20866V9.80127C9.39941 10.0773 9.17541 10.3013 8.89941 10.3013C8.62341 10.3013 8.39941 10.0773 8.39941 9.80127V5.0013C8.39941 4.7993 8.52134 4.61672 8.70801 4.53939C8.89467 4.46205 9.10994 4.50462 9.2526 4.64795L11.0534 6.44727ZM7.59994 6.20133V11.0013C7.59994 11.2033 7.47801 11.386 7.29134 11.4634C7.22934 11.4894 7.1646 11.5013 7.09994 11.5013C6.96994 11.5013 6.84208 11.4507 6.74674 11.3547L4.94661 9.55469C4.75128 9.35935 4.75128 9.04266 4.94661 8.84733C5.14195 8.652 5.45864 8.652 5.65397 8.84733L6.60059 9.79395V6.20068C6.60059 5.92468 6.82459 5.70068 7.10059 5.70068C7.37659 5.70068 7.59994 5.92533 7.59994 6.20133Z" fill="#3B3B3E"/>
</svg>
