<svg width="16" height="16" viewBox="0 0 16 16" fill="none" xmlns="http://www.w3.org/2000/svg">
<path d="M8.00016 0.833008C4.04816 0.833008 0.833496 4.04767 0.833496 7.99967C0.833496 11.9517 4.04816 15.1663 8.00016 15.1663C11.9522 15.1663 15.1668 11.9517 15.1668 7.99967C15.1668 4.04767 11.9522 0.833008 8.00016 0.833008ZM8.00016 14.1663C4.5995 14.1663 1.8335 11.4003 1.8335 7.99967C1.8335 4.59901 4.5995 1.83301 8.00016 1.83301C11.4008 1.83301 14.1668 4.59901 14.1668 7.99967C14.1668 11.4003 11.4008 14.1663 8.00016 14.1663ZM7.50016 7.29574V4.33301C7.50016 4.05701 7.72416 3.83301 8.00016 3.83301C8.27616 3.83301 8.50016 4.05701 8.50016 4.33301V7.29574C8.50016 7.57174 8.27616 7.79574 8.00016 7.79574C7.72416 7.79574 7.50016 7.57174 7.50016 7.29574ZM10.4455 5.58838C11.1015 6.24505 11.4629 7.11428 11.4629 8.03695C11.4629 9.94628 9.9095 11.4997 8.00016 11.4997C6.09083 11.4997 4.53743 9.94628 4.53743 8.03695C4.53743 7.11428 4.89885 6.24505 5.55485 5.58838C5.74952 5.39371 6.06621 5.39238 6.26221 5.58838C6.45754 5.78305 6.45754 6.1004 6.26221 6.29574C5.79487 6.76307 5.53743 7.38161 5.53743 8.03695C5.53743 9.39495 6.64216 10.4997 8.00016 10.4997C9.35816 10.4997 10.4629 9.39495 10.4629 8.03695C10.4629 7.38161 10.2055 6.76307 9.73812 6.29574C9.54278 6.1004 9.54278 5.78371 9.73812 5.58838C9.93412 5.39238 10.2508 5.39371 10.4455 5.58838Z" fill="#3B3B3E"/>
</svg>
