<svg width="16" height="16" viewBox="0 0 16 16" fill="none" xmlns="http://www.w3.org/2000/svg">
<path d="M4.69334 5.91969H2.16667C1.89334 5.91969 1.66667 6.14636 1.66667 6.41969V13.9997C1.66667 14.273 1.89334 14.4997 2.16667 14.4997H4.69334C4.96667 14.4997 5.19334 14.273 5.19334 13.9997V6.41969C5.19334 6.14636 4.96667 5.91969 4.69334 5.91969ZM4.19334 13.4997H2.66667V6.91969H4.19334V13.4997ZM3.52667 1.49969C2.99334 1.48636 2.5 1.67302 2.11334 2.03969C1.73334 2.39969 1.51334 2.89303 1.49334 3.41969C1.48001 3.94636 1.66667 4.44636 2.03334 4.83302C2.39334 5.21302 2.88667 5.43302 3.41334 5.45302C3.42667 5.45302 3.43334 5.45302 3.44667 5.45302C4.53334 5.45302 5.42667 4.57303 5.44667 3.47969C5.44667 2.40636 4.60667 1.53969 3.52667 1.50635V1.49969ZM3.44667 4.44636H3.44001C3.18001 4.43969 2.94 4.33303 2.76667 4.1397C2.58667 3.95303 2.49334 3.70636 2.50001 3.44636C2.50667 3.18636 2.61334 2.94635 2.80668 2.76635C2.99334 2.58635 3.23334 2.49969 3.50001 2.49969C4.03334 2.51302 4.44667 2.93969 4.44667 3.46636C4.44001 4.01302 3.99334 4.44636 3.44667 4.44636V4.44636ZM14.4667 9.41969C14.4667 6.77969 12.7467 5.83969 11.1533 5.83969C10.5133 5.81302 9.88001 5.99969 9.35334 6.33969C9.31334 6.09969 9.10667 5.91969 8.86 5.91969H6.42001C6.14668 5.91969 5.92001 6.14636 5.92001 6.41969V13.9997C5.92001 14.273 6.14668 14.4997 6.42001 14.4997H8.94667C9.22001 14.4997 9.44667 14.273 9.44667 13.9997V10.0064C9.44667 10.0064 9.44667 9.93969 9.44667 9.90636C9.42667 9.64636 9.51334 9.39969 9.68667 9.20636C9.85334 9.01302 10.0933 8.89303 10.3133 8.8797C10.5133 8.8797 10.9733 8.87969 10.9733 10.0064V13.9997C10.9733 14.273 11.2 14.4997 11.4733 14.4997H14C14.1333 14.4997 14.26 14.4464 14.3533 14.353C14.4467 14.2597 14.5 14.133 14.5 13.9997L14.4667 9.41969V9.41969ZM11.9733 13.4997V10.0064C11.9733 8.09302 10.82 7.8797 10.28 7.8797C9.75334 7.91303 9.28 8.15303 8.93334 8.54636C8.58667 8.9397 8.42001 9.44635 8.44667 9.93302C8.44667 9.99302 8.44667 10.0464 8.44667 10.0597V13.493H6.92001V6.91302H8.36V7.50635C8.36 7.72635 8.50667 7.91969 8.72001 7.98636C8.93334 8.05302 9.16001 7.96636 9.28001 7.77969C9.68001 7.16636 10.3867 6.80636 11.1333 6.82636C11.8333 6.82636 13.46 7.07969 13.46 9.41302L13.4867 13.493H11.9667L11.9733 13.4997Z" fill="#3B3B3E"/>
</svg>
