<svg width="16" height="16" viewBox="0 0 16 16" fill="none" xmlns="http://www.w3.org/2000/svg">
<path d="M8 2.16699C4.17333 2.16699 1.5 4.56631 1.5 8.00098C1.5 9.38698 1.9346 10.6317 2.75993 11.6177C2.65993 11.9977 2.41137 12.553 1.79004 13.0544C1.52937 13.2757 1.4353 13.6283 1.54997 13.9523C1.66397 14.2743 1.95605 14.4877 2.28939 14.4957C2.38139 14.499 2.47527 14.5003 2.57194 14.5003C3.57661 14.5003 4.82862 14.307 5.73796 13.5156C6.44996 13.7276 7.20932 13.835 8.00065 13.835C11.8273 13.835 14.5007 11.4356 14.5007 8.00098C14.5007 4.56631 11.8267 2.16699 8 2.16699ZM8 12.8357C7.21 12.8357 6.46002 12.715 5.77002 12.4763C5.58469 12.4117 5.37602 12.463 5.24202 12.607C4.60202 13.2897 3.56207 13.4684 2.78874 13.4957C3.33007 12.9424 3.68195 12.2663 3.79395 11.5523C3.81728 11.401 3.77065 11.2477 3.66732 11.1357C2.90332 10.309 2.5 9.22498 2.5 8.00098C2.5 5.15431 4.762 3.16699 8 3.16699C11.238 3.16699 13.5 5.15498 13.5 8.00098C13.5 10.847 11.238 12.8357 8 12.8357ZM8 4.83366C6.254 4.83366 4.83333 6.25433 4.83333 8.00033C4.83333 9.74633 6.254 11.167 8 11.167C9.746 11.167 11.1667 9.74633 11.1667 8.00033C11.1667 6.25433 9.746 4.83366 8 4.83366ZM8 10.167C6.80533 10.167 5.83333 9.19499 5.83333 8.00033C5.83333 6.80566 6.80533 5.83366 8 5.83366C9.19467 5.83366 10.1667 6.80566 10.1667 8.00033C10.1667 9.19499 9.19467 10.167 8 10.167ZM9.02002 8.31364C9.21535 8.50897 9.21535 8.82566 9.02002 9.021C8.92269 9.11833 8.79467 9.16764 8.66667 9.16764C8.53867 9.16764 8.41065 9.119 8.31331 9.021L7.64665 8.35433C7.55265 8.26033 7.5 8.13298 7.5 8.00098V7.00098C7.5 6.72498 7.724 6.50098 8 6.50098C8.276 6.50098 8.5 6.72498 8.5 7.00098V7.79362L9.02002 8.31364Z" fill="#3B3B3E"/>
</svg>
