<svg width="16" height="16" viewBox="0 0 16 16" fill="none" xmlns="http://www.w3.org/2000/svg">
<path d="M12.0001 4.16699H8.87411L7.02075 2.31366C6.92675 2.21966 6.80007 2.16699 6.6674 2.16699H4.00073C2.38873 2.16699 1.50073 3.05499 1.50073 4.66699V11.3337C1.50073 12.9457 2.38873 13.8337 4.00073 13.8337H12.0007C13.6127 13.8337 14.5007 12.9457 14.5007 11.3337V6.66699C14.5001 5.05499 13.6121 4.16699 12.0001 4.16699ZM13.5001 11.3337C13.5001 12.385 13.0514 12.8337 12.0001 12.8337H4.00008C2.94875 12.8337 2.50008 12.385 2.50008 11.3337V4.66699C2.50008 3.61566 2.94875 3.16699 4.00008 3.16699H6.45939L8.31274 5.02032C8.40674 5.11432 8.53343 5.16699 8.6661 5.16699H11.9994C13.0508 5.16699 13.4994 5.61566 13.4994 6.66699V11.3337H13.5001ZM6.35343 8.35366L5.37345 9.33366L6.35343 10.3137C6.54877 10.509 6.54877 10.8257 6.35343 11.021C6.2561 11.1183 6.12808 11.1677 6.00008 11.1677C5.87208 11.1677 5.74406 11.119 5.64673 11.021L4.3134 9.68766C4.11806 9.49233 4.11806 9.17566 4.3134 8.98033L5.64673 7.64699C5.84206 7.45166 6.15875 7.45166 6.35409 7.64699C6.54875 7.84166 6.54877 8.15899 6.35343 8.35366ZM9.68677 8.98033C9.8821 9.17566 9.8821 9.49233 9.68677 9.68766L8.35343 11.021C8.2561 11.1183 8.12808 11.1677 8.00008 11.1677C7.87208 11.1677 7.74406 11.119 7.64673 11.021C7.4514 10.8257 7.4514 10.509 7.64673 10.3137L8.62671 9.33366L7.64673 8.35366C7.4514 8.15832 7.4514 7.84166 7.64673 7.64632C7.84206 7.45099 8.15875 7.45099 8.35409 7.64632L9.68677 8.98033Z" fill="#3B3B3E"/>
</svg>
