<svg width="16" height="16" viewBox="0 0 16 16" fill="none" xmlns="http://www.w3.org/2000/svg">
<path d="M14.4333 6.177C14.1626 6.23233 13.9886 6.49634 14.0433 6.76701C14.1253 7.16901 14.1666 7.58433 14.1666 8.00033C14.1666 11.401 11.4006 14.167 7.99997 14.167C4.59931 14.167 1.83331 11.401 1.83331 8.00033C1.83331 4.59966 4.59931 1.83366 7.99997 1.83366C8.63131 1.83366 9.25331 1.92902 9.84931 2.11702C10.114 2.19902 10.3933 2.0537 10.4766 1.79036C10.56 1.52703 10.4133 1.24634 10.15 1.163C9.45598 0.944338 8.7333 0.833008 7.9993 0.833008C4.0473 0.833008 0.832642 4.04767 0.832642 7.99967C0.832642 11.9517 4.0473 15.1663 7.9993 15.1663C11.9513 15.1663 15.166 11.9517 15.166 7.99967C15.166 7.51634 15.118 7.03432 15.0226 6.56632C14.968 6.29632 14.7033 6.12233 14.4333 6.177ZM7.98531 11.8337C8.26131 11.8337 8.48531 11.6097 8.48531 11.3337V11.0684C8.85531 11.0144 9.19864 10.8503 9.46864 10.5803C9.79931 10.2497 9.98198 9.81097 9.98198 9.34497C9.98198 8.54364 9.43864 7.84634 8.65797 7.64901L7.58597 7.38297C7.42064 7.34164 7.27998 7.24902 7.17398 7.11369C7.07398 6.98702 7.01864 6.82432 7.01864 6.65698C7.01864 6.24432 7.35397 5.90902 7.76664 5.90902H8.23331C8.61464 5.90902 8.93398 6.19568 8.97731 6.57568C9.00798 6.85035 9.25597 7.05034 9.52997 7.01701C9.80464 6.98634 10.002 6.73902 9.97131 6.46436C9.88131 5.66302 9.26131 5.04496 8.48531 4.93229V4.66699C8.48531 4.39099 8.26131 4.16699 7.98531 4.16699C7.70931 4.16699 7.48531 4.39099 7.48531 4.66699V4.93636C6.65531 5.07236 6.01864 5.78835 6.01864 6.65568C6.01864 7.04701 6.14998 7.42969 6.38664 7.72835C6.62398 8.03435 6.96265 8.25564 7.34265 8.35164L8.41464 8.61768C8.74864 8.70234 8.98198 9.001 8.98198 9.34367C8.98198 9.54233 8.90398 9.72966 8.76198 9.87166C8.61998 10.0137 8.43264 10.0916 8.23397 10.0916H7.76731C7.38597 10.0916 7.06664 9.80497 7.02331 9.42497C6.99264 9.1503 6.7453 8.94898 6.47064 8.98364C6.19597 9.01431 5.99865 9.26163 6.02931 9.5363C6.11798 10.3276 6.72331 10.9417 7.48531 11.065V11.3337C7.48531 11.6097 7.70864 11.8337 7.98531 11.8337ZM12.98 5.02034C13.026 5.06634 13.0813 5.103 13.1426 5.12834C13.204 5.15367 13.2686 5.16699 13.334 5.16699C13.3993 5.16699 13.464 5.15367 13.5253 5.12834C13.5866 5.103 13.642 5.06634 13.688 5.02034L15.0213 3.68701C15.2166 3.49168 15.2166 3.17499 15.0213 2.97965C14.826 2.78432 14.5093 2.78432 14.314 2.97965L13.834 3.45964V1.33366C13.834 1.05766 13.61 0.833659 13.334 0.833659C13.058 0.833659 12.834 1.05766 12.834 1.33366V3.45964L12.354 2.97965C12.1586 2.78432 11.842 2.78432 11.6466 2.97965C11.4513 3.17499 11.4513 3.49168 11.6466 3.68701L12.98 5.02034Z" fill="#3B3B3E"/>
</svg>
