<svg width="16" height="16" viewBox="0 0 16 16" fill="none" xmlns="http://www.w3.org/2000/svg">
<path d="M8.00004 0.833008C4.04804 0.833008 0.833374 4.04767 0.833374 7.99967C0.833374 11.9517 4.04804 15.1663 8.00004 15.1663C11.952 15.1663 15.1667 11.9517 15.1667 7.99967C15.1667 4.04767 11.952 0.833008 8.00004 0.833008ZM8.00004 14.1663C4.59937 14.1663 1.83337 11.4003 1.83337 7.99967C1.83337 4.59901 4.59937 1.83301 8.00004 1.83301C11.4007 1.83301 14.1667 4.59901 14.1667 7.99967C14.1667 11.4003 11.4007 14.1663 8.00004 14.1663ZM10.0767 6.111H9.20268V5.47233C9.20268 4.951 8.94338 4.46701 8.51005 4.17834C8.23872 3.99768 7.90602 3.95301 7.59802 4.05168C7.28869 4.15101 7.046 4.38301 6.92533 4.70634L6.23002 6.81502H5.36072C4.79338 6.81502 4.33272 7.27568 4.33272 7.84302V10.3064C4.33272 10.873 4.79338 11.3343 5.36072 11.3343H9.37341C10.3587 11.3343 10.6647 10.823 10.8494 10.271L11.5533 8.15967C11.742 7.59167 11.6947 7.069 11.42 6.68766C11.2307 6.42366 10.844 6.111 10.0767 6.111ZM5.33337 10.305V7.81433H5.83337V10.305H5.33337ZM10.604 7.84167L9.90067 9.953C9.79267 10.275 9.77408 10.333 9.37341 10.333L6.83272 10.3157V7.74634C6.94006 7.68634 7.02669 7.59299 7.06669 7.47099L7.87471 5.019L7.95536 5.00968C8.11003 5.11302 8.20268 5.28568 8.20268 5.47168V6.61035C8.20268 6.88635 8.42668 7.11035 8.70268 7.11035H10.0767C10.3447 7.11035 10.5347 7.167 10.6087 7.271C10.6867 7.37966 10.6854 7.59834 10.604 7.84167Z" fill="#3B3B3E"/>
</svg>
