<svg width="16" height="16" viewBox="0 0 16 16" fill="none" xmlns="http://www.w3.org/2000/svg">
<path d="M10.6867 6.09066C10.882 6.28599 10.882 6.60268 10.6867 6.79801L7.57532 9.90934C7.47798 10.0067 7.35001 10.056 7.22201 10.056C7.09401 10.056 6.96599 10.0073 6.86865 9.90934L5.31331 8.354C5.11798 8.15867 5.11798 7.84198 5.31331 7.64665C5.50865 7.45131 5.82534 7.45131 6.02067 7.64665L7.22266 8.84867L9.97998 6.09135C10.1753 5.89602 10.4914 5.89599 10.6867 6.09066ZM14.5 4.25V11.75C14.5 13.5233 13.5233 14.5 11.75 14.5H4.25C2.47667 14.5 1.5 13.5233 1.5 11.75V4.25C1.5 2.47667 2.47667 1.5 4.25 1.5H11.75C13.5233 1.5 14.5 2.47667 14.5 4.25ZM13.5 4.25C13.5 3.02333 12.9767 2.5 11.75 2.5H4.25C3.02333 2.5 2.5 3.02333 2.5 4.25V11.75C2.5 12.9767 3.02333 13.5 4.25 13.5H11.75C12.9767 13.5 13.5 12.9767 13.5 11.75V4.25Z" fill="#3B3B3E"/>
</svg>
