<svg width="16" height="16" viewBox="0 0 16 16" fill="none" xmlns="http://www.w3.org/2000/svg">
<path d="M10.618 5.66667L13.0707 2.29395C13.1814 2.14195 13.1974 1.94061 13.112 1.77327C13.0267 1.60594 12.8547 1.5 12.6667 1.5H5.33337C3.72137 1.5 2.83337 2.388 2.83337 4V13.972C2.83337 14.248 3.05737 14.472 3.33337 14.472C3.60937 14.472 3.83337 14.248 3.83337 13.972V9.83333H12.6667C12.8547 9.83333 13.0274 9.72806 13.112 9.56006C13.1967 9.39206 13.1814 9.19139 13.0707 9.03939L10.618 5.66667ZM3.83337 8.83333V4C3.83337 2.94867 4.28204 2.5 5.33337 2.5H11.6847L9.59538 5.37272C9.46804 5.54805 9.46804 5.78528 9.59538 5.96061L11.6847 8.83333H3.83337V8.83333Z" fill="#3B3B3E"/>
</svg>
