<svg width="16" height="16" viewBox="0 0 16 16" fill="none" xmlns="http://www.w3.org/2000/svg">
<path d="M7.83325 12.667C7.83325 12.943 7.60925 13.167 7.33325 13.167H3.33325C1.72125 13.167 0.833252 12.279 0.833252 10.667V4.66699C0.833252 3.05499 1.72125 2.16699 3.33325 2.16699H11.3333C12.9453 2.16699 13.8333 3.05499 13.8333 4.66699V6.66699C13.8333 6.94299 13.6093 7.16699 13.3333 7.16699C13.0573 7.16699 12.8333 6.94299 12.8333 6.66699V4.66699C12.8333 3.61566 12.3846 3.16699 11.3333 3.16699H3.33325C2.28192 3.16699 1.83325 3.61566 1.83325 4.66699V10.667C1.83325 11.7183 2.28192 12.167 3.33325 12.167H7.33325C7.60925 12.167 7.83325 12.391 7.83325 12.667ZM11.4039 5.03966C11.2426 4.817 10.93 4.76632 10.7053 4.92966L7.43058 7.31099C7.37192 7.35299 7.29394 7.35299 7.23527 7.31099L3.96053 4.92966C3.73586 4.76632 3.4233 4.81766 3.26196 5.03966C3.0993 5.263 3.14866 5.57632 3.37199 5.73832L6.64657 8.11966C6.8519 8.26899 7.0926 8.34366 7.3326 8.34366C7.5726 8.34366 7.81397 8.26899 8.01864 8.11966L11.2932 5.73832C11.5172 5.57566 11.5672 5.263 11.4039 5.03966ZM15.1666 11.3337C15.1666 13.0797 13.7459 14.5003 11.9999 14.5003C10.2539 14.5003 8.83325 13.0797 8.83325 11.3337C8.83325 9.58766 10.2539 8.16699 11.9999 8.16699C13.7459 8.16699 15.1666 9.58766 15.1666 11.3337ZM14.1666 11.3337C14.1666 10.139 13.1946 9.16699 11.9999 9.16699C10.8053 9.16699 9.83325 10.139 9.83325 11.3337C9.83325 12.5283 10.8053 13.5003 11.9999 13.5003C13.1946 13.5003 14.1666 12.5283 14.1666 11.3337ZM13.0199 10.3137C12.8246 10.1183 12.5079 10.1183 12.3126 10.3137L11.9993 10.627L11.686 10.3137C11.4906 10.1183 11.1739 10.1183 10.9786 10.3137C10.7833 10.509 10.7833 10.8257 10.9786 11.021L11.2919 11.3343L10.9786 11.6477C10.7833 11.843 10.7833 12.1597 10.9786 12.355C11.0759 12.4523 11.2039 12.5017 11.3319 12.5017C11.4599 12.5017 11.588 12.453 11.6853 12.355L11.9986 12.0417L12.3119 12.355C12.4093 12.4523 12.5373 12.5017 12.6653 12.5017C12.7933 12.5017 12.9213 12.453 13.0186 12.355C13.214 12.1597 13.214 11.843 13.0186 11.6477L12.7053 11.3343L13.0186 11.021C13.2153 10.825 13.2153 10.509 13.0199 10.3137Z" fill="#3B3B3E"/>
</svg>
