<svg width="16" height="16" viewBox="0 0 16 16" fill="none" xmlns="http://www.w3.org/2000/svg">
<path d="M15.3466 6C15.3466 6.736 14.7493 7.33333 14.0133 7.33333C13.8253 7.33333 13.6466 7.29331 13.484 7.22331L11.2366 9.4707C11.3073 9.63337 11.3473 9.81133 11.3473 10C11.3473 10.736 10.75 11.3333 10.014 11.3333C9.27798 11.3333 8.67732 10.736 8.67732 10C8.67732 9.818 8.71398 9.64467 8.77998 9.486L6.52465 7.23063C6.36731 7.29596 6.19464 7.33268 6.01398 7.33268C5.82598 7.33268 5.64732 7.29266 5.48465 7.22266L3.23731 9.47005C3.30798 9.63272 3.34798 9.81068 3.34798 9.99935C3.34798 10.7353 2.75065 11.3327 2.01465 11.3327C1.27865 11.3327 0.677979 10.7353 0.677979 9.99935C0.677979 9.26335 1.27131 8.66602 2.00798 8.66602H2.01465C2.19598 8.66602 2.36798 8.70273 2.52531 8.76807L4.78131 6.51204C4.71531 6.35404 4.67798 6.18068 4.67798 5.99935C4.67798 5.26335 5.27131 4.66602 6.00798 4.66602H6.01465C6.75065 4.66602 7.34798 5.26335 7.34798 5.99935C7.34798 6.18735 7.30798 6.36598 7.23732 6.52865L9.48265 8.77393C9.64331 8.70459 9.82065 8.66602 10.0073 8.66602H10.014C10.1953 8.66602 10.3673 8.70273 10.5246 8.76807L12.7807 6.51204C12.7147 6.35404 12.6773 6.18068 12.6773 5.99935C12.6773 5.26335 13.2706 4.66602 14.0073 4.66602H14.014C14.75 4.66668 15.3466 5.264 15.3466 6Z" fill="#3B3B3E"/>
</svg>
