<svg width="16" height="16" viewBox="0 0 16 16" fill="none" xmlns="http://www.w3.org/2000/svg">
<path d="M13.1879 2.54158C12.7913 2.34225 12.3226 2.38492 11.9666 2.65159L11.0613 3.33093C10.8633 3.47893 10.5819 3.4596 10.4073 3.28493L9.06059 1.93825C8.47592 1.35425 7.524 1.35358 6.93933 1.93825L5.59265 3.28426C5.41732 3.45959 5.13533 3.47893 4.93933 3.33093L4.03333 2.65092C3.67666 2.38425 3.20864 2.3416 2.81197 2.54093C2.41397 2.7396 2.16663 3.1396 2.16663 3.58427V12.4129C2.16663 12.8576 2.41397 13.2576 2.81197 13.4563C3.20864 13.6549 3.67666 13.6129 4.03333 13.3463L4.9386 12.6669C5.1366 12.5189 5.41798 12.5383 5.59265 12.7129L6.93933 14.0589C7.23133 14.3516 7.61596 14.4976 7.99996 14.4976C8.38396 14.4976 8.76792 14.3516 9.06059 14.0589L10.4073 12.7129C10.5826 12.5383 10.8646 12.5183 11.0606 12.6663L11.9666 13.3463C12.3226 13.6129 12.7913 13.6549 13.1879 13.4563C13.5859 13.2576 13.8333 12.8576 13.8333 12.4129V3.58427C13.8333 3.14027 13.5859 2.74092 13.1879 2.54158ZM12.8333 12.4136C12.8333 12.5036 12.7753 12.5456 12.7413 12.5629C12.7067 12.5803 12.6393 12.6016 12.5666 12.5469L11.66 11.8669C11.068 11.4229 10.2247 11.4823 9.69999 12.0063L8.35331 13.3523C8.16465 13.5409 7.83529 13.5409 7.64596 13.3523L6.29928 12.0056C6.00994 11.7169 5.62395 11.5689 5.23661 11.5689C4.92061 11.5689 4.6046 11.6669 4.33793 11.8662L3.43193 12.5463C3.35993 12.6009 3.29262 12.5789 3.25728 12.5623C3.22328 12.5449 3.16532 12.5029 3.16532 12.4129V3.58427C3.16532 3.49427 3.22328 3.45227 3.25728 3.43493C3.29262 3.4176 3.35926 3.39626 3.43193 3.45093L4.33866 4.13092C4.93066 4.57492 5.77396 4.51559 6.29862 3.99159L7.6453 2.64559C7.84064 2.45092 8.15733 2.45092 8.35266 2.64559L9.69926 3.99227C10.2246 4.51693 11.068 4.57559 11.66 4.13159L12.566 3.4516C12.638 3.39693 12.7059 3.41825 12.7406 3.43558C12.7746 3.45292 12.8326 3.49492 12.8326 3.58492V12.4136H12.8333ZM11.1666 6.66626C11.1666 6.94226 10.9426 7.16626 10.6666 7.16626H7.33329C7.05729 7.16626 6.83329 6.94226 6.83329 6.66626C6.83329 6.39026 7.05729 6.16626 7.33329 6.16626H10.6666C10.9426 6.16626 11.1666 6.39026 11.1666 6.66626ZM11.1666 9.33292C11.1666 9.60892 10.9426 9.83292 10.6666 9.83292H7.33329C7.05729 9.83292 6.83329 9.60892 6.83329 9.33292C6.83329 9.05692 7.05729 8.83292 7.33329 8.83292H10.6666C10.9426 8.83292 11.1666 9.05692 11.1666 9.33292ZM5.83329 6.66626C5.83329 6.94226 5.60929 7.16626 5.33329 7.16626C5.05729 7.16626 4.83329 6.94226 4.83329 6.66626C4.83329 6.39026 5.05729 6.16626 5.33329 6.16626C5.60929 6.16626 5.83329 6.39026 5.83329 6.66626ZM5.83329 9.33292C5.83329 9.60892 5.60929 9.83292 5.33329 9.83292C5.05729 9.83292 4.83329 9.60892 4.83329 9.33292C4.83329 9.05692 5.05729 8.83292 5.33329 8.83292C5.60929 8.83292 5.83329 9.05692 5.83329 9.33292Z" fill="#3B3B3E"/>
</svg>
