<svg width="16" height="16" viewBox="0 0 16 16" fill="none" xmlns="http://www.w3.org/2000/svg">
<path d="M11.71 9.53025C11.5827 9.53025 11.4547 9.48159 11.3573 9.38492C11.162 9.19026 11.1607 8.87359 11.356 8.67759L12.6674 7.35892C13.2061 6.82692 13.5001 6.1136 13.5001 5.34826C13.5001 4.58426 13.2047 3.86825 12.6687 3.33158C11.5594 2.22158 9.75267 2.22158 8.64201 3.33158L7.33081 4.64959C7.13614 4.84559 6.81945 4.84625 6.62345 4.65159C6.42812 4.45692 6.42667 4.14025 6.62134 3.94425L7.934 2.62559C9.436 1.12425 11.8761 1.12558 13.3754 2.62491C14.1007 3.34958 14.5001 4.31693 14.5001 5.34826C14.5001 6.38293 14.1001 7.34826 13.3741 8.06693L12.0653 9.38293C11.9667 9.4816 11.8387 9.53025 11.71 9.53025ZM8.06616 13.3749L9.38533 12.0629C9.58067 11.8683 9.58213 11.5516 9.3868 11.3556C9.19213 11.1596 8.87544 11.1596 8.67944 11.3536L7.36011 12.6669C6.25077 13.7769 4.44408 13.7769 3.33341 12.6669C2.22341 11.5569 2.22343 9.75093 3.33276 8.6416L4.6521 7.32959C4.84743 7.13492 4.84873 6.81825 4.6534 6.62225C4.45873 6.42625 4.14204 6.42626 3.94604 6.62026L2.62671 7.93359C1.12671 9.43359 1.12671 11.8736 2.62671 13.3736C3.37738 14.1236 4.36275 14.4982 5.34741 14.4982C6.33208 14.4982 7.31683 14.1242 8.06616 13.3749ZM6.35343 10.3529L10.3707 6.33626C10.566 6.14093 10.566 5.82426 10.3707 5.62892C10.176 5.43426 9.85949 5.43292 9.66349 5.62892L5.64608 9.64558C5.45074 9.84092 5.45074 10.1576 5.64608 10.3529C5.74341 10.4503 5.87143 10.4996 5.99943 10.4996C6.12743 10.4996 6.2561 10.4509 6.35343 10.3529Z" fill="#3B3B3E"/>
</svg>
