<svg width="16" height="16" viewBox="0 0 16 16" fill="none" xmlns="http://www.w3.org/2000/svg">
<path d="M10.6667 5.50033C10.5293 5.50033 10.3954 5.507 10.2614 5.521C10.0481 5.223 9.80206 4.94967 9.52539 4.70634C8.64272 3.92901 7.50933 3.50098 6.33333 3.50098C3.668 3.50098 1.5 5.66898 1.5 8.33431C1.5 10.9996 3.668 13.1676 6.33333 13.1676H10.6667C12.7807 13.1676 14.5 11.4483 14.5 9.33431C14.5 7.22031 12.7807 5.50033 10.6667 5.50033ZM10.6667 12.167H6.33333C4.21933 12.167 2.5 10.4477 2.5 8.33366C2.5 6.21966 4.21933 4.50033 6.33333 4.50033C7.26533 4.50033 8.1646 4.83967 8.86393 5.45634C9.14927 5.70834 9.39538 5.99966 9.59538 6.323C9.70338 6.499 9.9113 6.59034 10.1126 6.55168C10.2966 6.51701 10.478 6.50033 10.6667 6.50033C12.2293 6.50033 13.5 7.77099 13.5 9.33366C13.5 10.8963 12.2293 12.167 10.6667 12.167ZM9.35335 8.35368L8.70671 9.00033L9.35335 9.64697C9.54869 9.84231 9.54869 10.159 9.35335 10.3543C9.25602 10.4517 9.128 10.501 9 10.501C8.872 10.501 8.74398 10.4523 8.64665 10.3543L8 9.70764L7.35335 10.3543C7.25602 10.4517 7.128 10.501 7 10.501C6.872 10.501 6.74398 10.4523 6.64665 10.3543C6.45131 10.159 6.45131 9.84231 6.64665 9.64697L7.29329 9.00033L6.64665 8.35368C6.45131 8.15835 6.45131 7.84166 6.64665 7.64632C6.84198 7.45099 7.15867 7.45099 7.354 7.64632L8.00065 8.29301L8.6473 7.64632C8.84263 7.45099 9.15932 7.45099 9.35466 7.64632C9.54866 7.84166 9.54869 8.15901 9.35335 8.35368Z" fill="#3B3B3E"/>
</svg>
