<svg width="16" height="16" viewBox="0 0 16 16" fill="none" xmlns="http://www.w3.org/2000/svg">
<path d="M14.3181 6.05619L9.37667 1.99223C8.57867 1.33756 7.42207 1.33689 6.62407 1.99223L1.68274 6.05554C1.47008 6.23087 1.43872 6.54556 1.61406 6.75956C1.78939 6.97356 2.10474 7.00291 2.31808 6.82825L2.83338 6.40425V11.9995C2.83338 13.6115 3.72138 14.4996 5.33338 14.4996H10.6667C12.2787 14.4996 13.1667 13.6115 13.1667 11.9995V6.40425L13.682 6.82825C13.7753 6.90491 13.888 6.94218 14 6.94218C14.144 6.94218 14.2874 6.88021 14.386 6.76021C14.562 6.54621 14.5307 6.23152 14.3181 6.05619ZM12.1667 11.9995C12.1667 13.0509 11.718 13.4996 10.6667 13.4996H5.33338C4.28204 13.4996 3.83338 13.0509 3.83338 11.9995V5.58223L7.2594 2.76558C7.68807 2.41292 8.31275 2.41292 8.74142 2.76558L12.1674 5.58288V11.9995H12.1667ZM6.33338 7.49955V8.24695C5.80471 8.41895 5.50004 8.86748 5.50004 9.52348V10.8096C5.50004 11.6589 6.00738 12.1669 6.85738 12.1669H9.1427C9.9927 12.1669 10.5 11.6596 10.5 10.8096V9.52348C10.5 8.86814 10.1954 8.41895 9.66671 8.24695V7.49955C9.66671 6.58088 8.91938 5.83288 8.00004 5.83288C7.08071 5.83288 6.33338 6.58088 6.33338 7.49955ZM9.50004 10.809C9.50004 11.1023 9.4367 11.1662 9.1427 11.1662H6.85738C6.56338 11.1662 6.50004 11.103 6.50004 10.809V9.52282C6.50004 9.22949 6.56338 9.16557 6.85738 9.16557H9.1427C9.4367 9.16557 9.50004 9.22882 9.50004 9.52282V10.809ZM8.66671 7.49955V8.16622H7.33338V7.49955C7.33338 7.13222 7.63204 6.83288 8.00004 6.83288C8.36804 6.83288 8.66671 7.13222 8.66671 7.49955Z" fill="#3B3B3E"/>
</svg>
