<svg width="16" height="16" viewBox="0 0 16 16" fill="none" xmlns="http://www.w3.org/2000/svg">
<path d="M10.87 7.77799C11.456 7.25866 11.8333 6.50867 11.8333 5.66667C11.8333 4.16133 10.65 2.93868 9.16667 2.85002V2C9.16667 1.724 8.94267 1.5 8.66667 1.5C8.39067 1.5 8.16667 1.724 8.16667 2V2.83333H6.5V2C6.5 1.724 6.276 1.5 6 1.5C5.724 1.5 5.5 1.724 5.5 2V2.83333H4C3.724 2.83333 3.5 3.05733 3.5 3.33333C3.5 3.60933 3.724 3.83333 4 3.83333H4.83333V12.1667H4C3.724 12.1667 3.5 12.3907 3.5 12.6667C3.5 12.9427 3.724 13.1667 4 13.1667H5.5V14C5.5 14.276 5.724 14.5 6 14.5C6.276 14.5 6.5 14.276 6.5 14V13.1667H8.16667V14C8.16667 14.276 8.39067 14.5 8.66667 14.5C8.94267 14.5 9.16667 14.276 9.16667 14V13.1667H9.66667C11.2287 13.1667 12.5 11.8953 12.5 10.3333C12.5 9.20267 11.83 8.23266 10.87 7.77799ZM9 3.83333C10.0113 3.83333 10.8333 4.65533 10.8333 5.66667C10.8333 6.678 10.0113 7.5 9 7.5H5.83333V3.83333H9ZM9.66667 12.1667H5.83333V8.5H9H9.66667C10.678 8.5 11.5 9.322 11.5 10.3333C11.5 11.3447 10.678 12.1667 9.66667 12.1667Z" fill="#3B3B3E"/>
</svg>
