<svg width="16" height="16" viewBox="0 0 16 16" fill="none" xmlns="http://www.w3.org/2000/svg">
<path d="M6.00606 7.16667C4.4434 7.16667 3.17273 5.89533 3.17273 4.33333C3.17273 2.77133 4.4434 1.5 6.00606 1.5C7.56873 1.5 8.8394 2.77133 8.8394 4.33333C8.8394 5.89533 7.56873 7.16667 6.00606 7.16667ZM6.00606 2.5C4.99473 2.5 4.17273 3.322 4.17273 4.33333C4.17273 5.34467 4.99473 6.16667 6.00606 6.16667C7.0174 6.16667 7.8394 5.34467 7.8394 4.33333C7.8394 3.322 7.01673 2.5 6.00606 2.5ZM8.66467 14.5H3.33541C1.72208 14.5 0.833374 13.6167 0.833374 12.0127C0.833374 10.2387 1.83737 8.16667 4.66671 8.16667H7.33337C10.1627 8.16667 11.1667 10.238 11.1667 12.0127C11.1667 13.6167 10.278 14.5 8.66467 14.5ZM4.66671 9.16667C2.03804 9.16667 1.83337 11.3447 1.83337 12.0127C1.83337 13.0554 2.28274 13.5 3.33541 13.5H8.66467C9.71734 13.5 10.1667 13.0554 10.1667 12.0127C10.1667 11.3454 9.96204 9.16667 7.33337 9.16667H4.66671ZM11.0401 7.45996C10.4341 7.45996 9.86471 7.2293 9.43738 6.81063C9.24004 6.6173 9.23607 6.30069 9.4294 6.10335C9.6234 5.90602 9.94001 5.90336 10.1367 6.09603C10.376 6.3307 10.6974 6.45996 11.0401 6.45996C11.7767 6.45996 12.354 5.88331 12.354 5.14665C12.354 4.42265 11.7647 3.83333 11.0401 3.83333C10.8347 3.83333 10.6494 3.87534 10.4887 3.95801C10.2441 4.08467 9.94206 3.98736 9.81539 3.74202C9.68872 3.49669 9.78604 3.19535 10.0314 3.06868C10.3354 2.91268 10.6747 2.83333 11.0401 2.83333C12.3161 2.83333 13.354 3.87131 13.354 5.14665C13.3534 6.42198 12.3161 7.45996 11.0401 7.45996ZM13.1067 13.1667H12.6534C12.3774 13.1667 12.1534 12.9427 12.1534 12.6667C12.1534 12.3907 12.3774 12.1667 12.6534 12.1667H13.1067C13.8701 12.1667 14.1667 11.8734 14.1667 11.12C14.1667 10.6274 14.0154 9.02002 12.0734 9.02002H11.066C10.79 9.02002 10.566 8.79602 10.566 8.52002C10.566 8.24402 10.79 8.02002 11.066 8.02002H12.0734C14.3567 8.02002 15.1667 9.69004 15.1667 11.12C15.1667 12.4207 14.4161 13.1667 13.1067 13.1667Z" fill="#3B3B3E"/>
</svg>
