<svg width="16" height="16" viewBox="0 0 16 16" fill="none" xmlns="http://www.w3.org/2000/svg">
<path d="M14.3721 8.20099L12.9307 3.87632C12.5793 2.82166 11.712 2.16699 10.6667 2.16699H5.33333C4.28867 2.16699 3.42134 2.82166 3.06934 3.87632L1.62874 8.20032C1.54341 8.45498 1.5 8.72166 1.5 8.99166V12.0003C1.5 13.6123 2.388 14.5003 4 14.5003H12C13.612 14.5003 14.5 13.6123 14.5 12.0003V8.99166C14.5 8.72166 14.4567 8.45499 14.3721 8.20099ZM4.01872 4.19232C4.23205 3.55032 4.724 3.16699 5.33333 3.16699H10.6667C11.276 3.16699 11.7673 3.55032 11.9813 4.19232L13.3066 8.16699H11.3639C10.5306 8.16699 9.75806 8.63699 9.29606 9.42499C9.02873 9.88232 8.53198 10.167 8.00065 10.167C7.46932 10.167 6.97274 9.88232 6.7054 9.42432C6.24407 8.63698 5.4707 8.16699 4.63737 8.16699H2.69466L4.01872 4.19232ZM12 13.5003H4C2.94867 13.5003 2.5 13.0517 2.5 12.0003V9.16699H4.63672C5.11139 9.16699 5.56131 9.45233 5.84131 9.92967C6.28731 10.693 7.11467 11.167 8 11.167C8.88533 11.167 9.71269 10.693 10.1587 9.93032C10.4387 9.45232 10.8886 9.16699 11.3633 9.16699H13.5V12.0003C13.5 13.0517 13.0513 13.5003 12 13.5003Z" fill="#3B3B3E"/>
</svg>
