<svg width="16" height="16" viewBox="0 0 16 16" fill="none" xmlns="http://www.w3.org/2000/svg">
<path d="M9.33341 4.5H6.66675C6.39075 4.5 6.16675 4.276 6.16675 4C6.16675 3.724 6.39075 3.5 6.66675 3.5H9.33341C9.60941 3.5 9.83341 3.724 9.83341 4C9.83341 4.276 9.60941 4.5 9.33341 4.5ZM13.8334 12V4C13.8334 2.388 12.9454 1.5 11.3334 1.5H4.66675C3.05475 1.5 2.16675 2.388 2.16675 4V12C2.16675 13.612 3.05475 14.5 4.66675 14.5H11.3334C12.9454 14.5 13.8334 13.612 13.8334 12ZM11.3334 2.5C12.3847 2.5 12.8334 2.94867 12.8334 4V12C12.8334 13.0513 12.3847 13.5 11.3334 13.5H4.66675C3.61541 13.5 3.16675 13.0513 3.16675 12V4C3.16675 2.94867 3.61541 2.5 4.66675 2.5H11.3334ZM8.00008 11.3333C7.63208 11.3333 7.33341 11.632 7.33341 12C7.33341 12.368 7.63208 12.6667 8.00008 12.6667C8.36808 12.6667 8.66675 12.368 8.66675 12C8.66675 11.632 8.36808 11.3333 8.00008 11.3333Z" fill="#3B3B3E"/>
</svg>
