<svg width="16" height="16" viewBox="0 0 16 16" fill="none" xmlns="http://www.w3.org/2000/svg">
<path d="M8.00016 15.1663C4.04816 15.1663 0.833496 11.9517 0.833496 7.99967C0.833496 4.04767 4.04816 0.833008 8.00016 0.833008C11.9522 0.833008 15.1668 4.04767 15.1668 7.99967C15.1668 11.9517 11.9522 15.1663 8.00016 15.1663ZM8.00016 1.83301C4.5995 1.83301 1.8335 4.59901 1.8335 7.99967C1.8335 11.4003 4.5995 14.1663 8.00016 14.1663C11.4008 14.1663 14.1668 11.4003 14.1668 7.99967C14.1668 4.59901 11.4008 1.83301 8.00016 1.83301ZM8.00016 12.4997C5.51883 12.4997 3.50016 10.481 3.50016 7.99967C3.50016 5.51834 5.51883 3.49967 8.00016 3.49967C10.4815 3.49967 12.5002 5.51834 12.5002 7.99967C12.5002 10.481 10.4815 12.4997 8.00016 12.4997ZM8.00016 4.49967C6.07016 4.49967 4.50016 6.06967 4.50016 7.99967C4.50016 9.92967 6.07016 11.4997 8.00016 11.4997C9.93016 11.4997 11.5002 9.92967 11.5002 7.99967C11.5002 6.06967 9.93016 4.49967 8.00016 4.49967Z" fill="#3B3B3E"/>
</svg>
