<svg width="16" height="16" viewBox="0 0 16 16" fill="none" xmlns="http://www.w3.org/2000/svg">
<path d="M14.158 10.118L12.5486 8.50867C12.4846 8.44467 12.4393 8.36467 12.4173 8.27667L11.4687 4.48267C11.2273 3.518 10.438 2.788 9.45665 2.62333L2.84332 1.514C2.48265 1.458 2.13132 1.57199 1.86798 1.82066C1.85865 1.82866 1.84731 1.83134 1.83865 1.84001C1.82998 1.84867 1.82665 1.86066 1.81865 1.87C1.57065 2.13333 1.45732 2.48534 1.51332 2.85134L2.62198 9.45801C2.78665 10.4387 3.51665 11.228 4.48132 11.4693L8.27531 12.418C8.36331 12.44 8.44331 12.4853 8.50798 12.5493L10.1167 14.158C10.3373 14.3787 10.63 14.5 10.9413 14.5C11.2533 14.5 11.546 14.3787 11.766 14.158L14.1566 11.7673C14.6133 11.3127 14.6133 10.5727 14.158 10.118ZM3.60998 9.29199L2.60665 3.31266L5.71198 6.41801C5.69131 6.49801 5.67732 6.58 5.67732 6.66667C5.67732 7.21867 6.12798 7.66667 6.68065 7.66667C7.23331 7.66667 7.68065 7.21867 7.68065 6.66667C7.68065 6.11467 7.23331 5.66667 6.68065 5.66667H6.67398C6.58332 5.66667 6.49665 5.68268 6.41331 5.70534L3.31465 2.60667L9.29332 3.61001C9.88198 3.70867 10.3553 4.14668 10.5007 4.72534L11.448 8.51333L8.51465 11.4467L4.72665 10.5C4.14665 10.3547 3.70864 9.88066 3.60998 9.29199ZM13.4513 11.0607L11.0607 13.4513C10.976 13.536 10.9107 13.536 10.8253 13.4513L9.37399 12L12 9.374L13.4513 10.8253C13.516 10.89 13.516 10.9953 13.4513 11.0607Z" fill="#3B3B3E"/>
</svg>
