<svg width="16" height="16" viewBox="0 0 16 16" fill="none" xmlns="http://www.w3.org/2000/svg">
<path d="M12.0487 12.5C11.89 12.5 11.7294 12.462 11.582 12.384L9.75203 11.4267L7.9493 12.3833C7.60863 12.562 7.20204 12.532 6.89071 12.3053C6.57937 12.0787 6.42736 11.7027 6.49202 11.324L6.84066 9.30066L5.32397 7.84733C5.05731 7.58733 4.96198 7.20666 5.07731 6.85266C5.19198 6.49866 5.49265 6.24466 5.86198 6.19132L7.97135 5.88599L8.86401 4.05868C9.03468 3.71401 9.3793 3.5 9.7653 3.5C10.15 3.5 10.4953 3.71401 10.666 4.05868L11.58 5.90202L13.668 6.19132C14.0373 6.24466 14.338 6.49799 14.4526 6.85266C14.568 7.20666 14.4726 7.588 14.206 7.84733L12.6807 9.32735L13.0387 11.326C13.104 11.7053 12.9507 12.0807 12.6393 12.3067C12.4627 12.4347 12.2567 12.5 12.0487 12.5ZM9.764 10.43C9.91866 10.43 10.074 10.4667 10.2153 10.5413L12.0453 11.4987L11.7026 9.47066C11.648 9.156 11.752 8.83332 11.9827 8.60999L13.508 7.13L11.414 6.87602C11.0973 6.83068 10.8233 6.632 10.682 6.34534L9.76864 4.50334C9.7673 4.50067 9.76603 4.49935 9.76603 4.49935L8.84464 6.34668C8.70398 6.63201 8.43003 6.83067 8.11336 6.87667L6.00399 7.18201L7.54533 8.61068C7.77466 8.83334 7.88001 9.15466 7.82601 9.47066L7.47729 11.4953L9.31331 10.542C9.45531 10.4667 9.61 10.43 9.764 10.43ZM5.16667 11.3333C5.16667 11.0573 4.94267 10.8333 4.66667 10.8333H2C1.724 10.8333 1.5 11.0573 1.5 11.3333C1.5 11.6093 1.724 11.8333 2 11.8333H4.66667C4.94267 11.8333 5.16667 11.6093 5.16667 11.3333ZM3.83333 8C3.83333 7.724 3.60933 7.5 3.33333 7.5H2C1.724 7.5 1.5 7.724 1.5 8C1.5 8.276 1.724 8.5 2 8.5H3.33333C3.60933 8.5 3.83333 8.276 3.83333 8ZM5.16667 4.66667C5.16667 4.39067 4.94267 4.16667 4.66667 4.16667H2C1.724 4.16667 1.5 4.39067 1.5 4.66667C1.5 4.94267 1.724 5.16667 2 5.16667H4.66667C4.94267 5.16667 5.16667 4.94267 5.16667 4.66667Z" fill="#3B3B3E"/>
</svg>
