<svg width="16" height="16" viewBox="0 0 16 16" fill="none" xmlns="http://www.w3.org/2000/svg">
<path d="M12 1.5H4C2.388 1.5 1.5 2.388 1.5 4V14C1.5 14.202 1.62193 14.3847 1.80859 14.462C1.87059 14.488 1.93533 14.5 2 14.5C2.13 14.5 2.25802 14.4494 2.35335 14.3534L4.20671 12.5H12C13.612 12.5 14.5 11.612 14.5 10V4C14.5 2.388 13.612 1.5 12 1.5ZM13.5 10C13.5 11.0513 13.0513 11.5 12 11.5H4C3.86733 11.5 3.73998 11.5526 3.64665 11.6466L2.5 12.7933V4C2.5 2.94867 2.94867 2.5 4 2.5H12C13.0513 2.5 13.5 2.94867 13.5 4V10ZM10.02 5.68669L8.70671 7L10.02 8.31331C10.2154 8.50865 10.2154 8.82534 10.02 9.02067C9.92269 9.118 9.79467 9.16732 9.66667 9.16732C9.53867 9.16732 9.41065 9.11867 9.31331 9.02067L8 7.70736L6.68669 9.02067C6.58935 9.118 6.46133 9.16732 6.33333 9.16732C6.20533 9.16732 6.07731 9.11867 5.97998 9.02067C5.78465 8.82534 5.78465 8.50865 5.97998 8.31331L7.29329 7L5.97998 5.68669C5.78465 5.49135 5.78465 5.17466 5.97998 4.97933C6.17531 4.784 6.492 4.784 6.68734 4.97933L8.00065 6.29264L9.31397 4.97933C9.5093 4.784 9.82599 4.784 10.0213 4.97933C10.2167 5.17466 10.2154 5.49135 10.02 5.68669Z" fill="#3B3B3E"/>
</svg>
