<svg width="16" height="16" viewBox="0 0 16 16" fill="none" xmlns="http://www.w3.org/2000/svg">
<path d="M14 4.5H5.33333C5.05733 4.5 4.83333 4.276 4.83333 4C4.83333 3.724 5.05733 3.5 5.33333 3.5H14C14.276 3.5 14.5 3.724 14.5 4C14.5 4.276 14.276 4.5 14 4.5ZM14.5 8C14.5 7.724 14.276 7.5 14 7.5H2C1.724 7.5 1.5 7.724 1.5 8C1.5 8.276 1.724 8.5 2 8.5H14C14.276 8.5 14.5 8.276 14.5 8ZM14.5 12C14.5 11.724 14.276 11.5 14 11.5H8C7.724 11.5 7.5 11.724 7.5 12C7.5 12.276 7.724 12.5 8 12.5H14C14.276 12.5 14.5 12.276 14.5 12Z" fill="#3B3B3E"/>
</svg>
