<svg width="16" height="16" viewBox="0 0 16 16" fill="none" xmlns="http://www.w3.org/2000/svg">
<path d="M14.4932 8.14646C14.5332 7.81313 14.4332 7.4798 14.2066 7.23313C13.9866 6.9798 13.6666 6.83313 13.3266 6.83313H2.67323C2.33989 6.83313 2.0199 6.9798 1.79323 7.23313C1.57323 7.48647 1.46656 7.8198 1.50656 8.14646C1.59323 8.85313 1.80656 9.5398 2.11989 10.1665C2.11989 10.1865 2.13323 10.1998 2.1399 10.2198C2.6999 11.3465 3.57989 12.3065 4.69322 12.9531C4.75322 12.9865 4.79323 13.0465 4.79323 13.1065V13.3398C4.79323 13.9798 5.3199 14.5065 5.9599 14.5065H10.0399C10.6799 14.5065 11.2066 13.9798 11.2066 13.3398V13.1065C11.2066 13.0465 11.2466 12.9931 11.3066 12.9531C12.4132 12.3065 13.2999 11.3465 13.8599 10.2198C13.8666 10.2065 13.8732 10.1931 13.8799 10.1798C14.1932 9.54646 14.4066 8.8598 14.4932 8.15314V8.14646ZM2.54657 7.89313C2.54657 7.89313 2.60656 7.83313 2.67323 7.83313H13.3266C13.3932 7.83313 13.4399 7.87313 13.4532 7.89313C13.4732 7.91313 13.4999 7.9598 13.4932 8.0198C13.4266 8.53313 13.2799 9.02646 13.0799 9.4998H2.91323C2.71323 9.03313 2.56656 8.53313 2.4999 8.0198C2.49323 7.9598 2.51989 7.91313 2.53989 7.89313H2.54657ZM10.8066 12.0865C10.4332 12.3065 10.2066 12.6865 10.2066 13.0998V13.3331C10.2066 13.4265 10.1332 13.4998 10.0399 13.4998H5.9599C5.86656 13.4998 5.79323 13.4265 5.79323 13.3331V13.0998C5.79323 12.6798 5.57322 12.2998 5.19322 12.0865C4.50656 11.6865 3.92657 11.1398 3.47323 10.4998H12.5199C12.0666 11.1398 11.4866 11.6865 10.7999 12.0865H10.8066ZM7.44656 4.25313C6.94656 3.74647 6.94656 2.9198 7.44656 2.4198L7.54657 2.3198C7.7399 2.12647 8.0599 2.12647 8.25323 2.3198C8.44657 2.51314 8.45323 2.83314 8.25323 3.02647L8.15323 3.12647C8.03323 3.24647 8.03323 3.43312 8.15323 3.55312L8.35323 3.75313C8.85323 4.2598 8.85323 5.08647 8.35323 5.58647L8.25323 5.68646C8.15323 5.78646 8.02657 5.83313 7.8999 5.83313C7.77323 5.83313 7.64657 5.78646 7.54657 5.68646C7.35323 5.49313 7.34657 5.17313 7.54657 4.9798L7.64656 4.8798C7.76656 4.7598 7.76656 4.57313 7.64656 4.45313L7.44656 4.25313ZM10.7799 4.25313C10.2799 3.74647 10.2799 2.9198 10.7799 2.4198L10.8799 2.3198C11.0732 2.12647 11.3932 2.12647 11.5866 2.3198C11.7799 2.51314 11.7866 2.83314 11.5866 3.02647L11.4866 3.12647C11.3666 3.24647 11.3666 3.43312 11.4866 3.55312L11.6866 3.75313C12.1866 4.2598 12.1866 5.08647 11.6866 5.58647L11.5866 5.68646C11.4866 5.78646 11.3599 5.83313 11.2332 5.83313C11.1066 5.83313 10.9799 5.78646 10.8799 5.68646C10.6866 5.49313 10.6799 5.17313 10.8799 4.9798L10.9799 4.8798C11.0999 4.7598 11.0999 4.57313 10.9799 4.45313L10.7799 4.25313ZM4.11323 4.25313C3.61323 3.74647 3.61323 2.9198 4.11323 2.4198L4.21323 2.3198C4.40657 2.12647 4.72657 2.12647 4.9199 2.3198C5.11323 2.51314 5.1199 2.83314 4.9199 3.02647L4.81989 3.12647C4.69989 3.24647 4.69989 3.43312 4.81989 3.55312L5.0199 3.75313C5.51989 4.2598 5.51989 5.08647 5.0199 5.58647L4.9199 5.68646C4.8199 5.78646 4.69323 5.83313 4.56657 5.83313C4.4399 5.83313 4.31323 5.78646 4.21323 5.68646C4.0199 5.49313 4.01323 5.17313 4.21323 4.9798L4.31323 4.8798C4.43323 4.7598 4.43323 4.57313 4.31323 4.45313L4.11323 4.25313Z" fill="#3B3B3E"/>
</svg>
