<svg width="16" height="16" viewBox="0 0 16 16" fill="none" xmlns="http://www.w3.org/2000/svg">
<path d="M12 4.16667H8.5V4C8.5 3.724 8.72467 3.5 9 3.5H9.66667C10.4933 3.5 11.1667 2.82733 11.1667 2C11.1667 1.724 10.9427 1.5 10.6667 1.5C10.3907 1.5 10.1667 1.724 10.1667 2C10.1667 2.276 9.942 2.5 9.66667 2.5H9C8.17333 2.5 7.5 3.17267 7.5 4V4.16667H4C2.388 4.16667 1.5 5.05467 1.5 6.66667V11.3333C1.5 12.9453 2.388 13.8333 4 13.8333H12C13.612 13.8333 14.5 12.9453 14.5 11.3333V6.66667C14.5 5.05467 13.612 4.16667 12 4.16667ZM13.5 11.3333C13.5 12.3847 13.0513 12.8333 12 12.8333H4C2.94867 12.8333 2.5 12.3847 2.5 11.3333V6.66667C2.5 5.61533 2.94867 5.16667 4 5.16667H12C13.0513 5.16667 13.5 5.61533 13.5 6.66667V11.3333ZM12.6667 7.33333C12.6667 7.60933 12.4427 7.83333 12.1667 7.83333H11C10.724 7.83333 10.5 7.60933 10.5 7.33333C10.5 7.05733 10.724 6.83333 11 6.83333H12.1667C12.4427 6.83333 12.6667 7.05733 12.6667 7.33333ZM11.8333 9.33333C11.8333 9.60933 11.6093 9.83333 11.3333 9.83333H10.3333C10.0573 9.83333 9.83333 9.60933 9.83333 9.33333C9.83333 9.05733 10.0573 8.83333 10.3333 8.83333H11.3333C11.6093 8.83333 11.8333 9.05733 11.8333 9.33333ZM10.5 11.3333C10.5 11.6093 10.276 11.8333 10 11.8333H6C5.724 11.8333 5.5 11.6093 5.5 11.3333C5.5 11.0573 5.724 10.8333 6 10.8333H10C10.276 10.8333 10.5 11.0573 10.5 11.3333ZM4.66667 7.33333C4.66667 7.70133 4.368 8 4 8C3.632 8 3.33333 7.70133 3.33333 7.33333C3.33333 6.96533 3.632 6.66667 4 6.66667C4.368 6.66667 4.66667 6.96533 4.66667 7.33333ZM5.66667 7.33333C5.66667 6.96533 5.96533 6.66667 6.33333 6.66667C6.70133 6.66667 7 6.96533 7 7.33333C7 7.70133 6.70133 8 6.33333 8C5.96533 8 5.66667 7.70133 5.66667 7.33333ZM8 7.33333C8 6.96533 8.29867 6.66667 8.66667 6.66667C9.03467 6.66667 9.33333 6.96533 9.33333 7.33333C9.33333 7.70133 9.03467 8 8.66667 8C8.29867 8 8 7.70133 8 7.33333ZM7.33333 9.33333C7.33333 8.96533 7.632 8.66667 8 8.66667C8.368 8.66667 8.66667 8.96533 8.66667 9.33333C8.66667 9.70133 8.368 10 8 10C7.632 10 7.33333 9.70133 7.33333 9.33333ZM5.66667 10C5.29867 10 5 9.70133 5 9.33333C5 8.96533 5.29867 8.66667 5.66667 8.66667C6.03467 8.66667 6.33333 8.96533 6.33333 9.33333C6.33333 9.70133 6.03467 10 5.66667 10Z" fill="#3B3B3E"/>
</svg>
