<svg width="16" height="16" viewBox="0 0 16 16" fill="none" xmlns="http://www.w3.org/2000/svg">
<path d="M12.6198 6.3135C12.3132 6.32683 12.0132 6.4135 11.7532 6.56683C10.7932 5.98017 9.71318 5.6335 8.63985 5.54683L9.09984 3.52684L10.3398 3.7735C10.4465 4.44017 11.0198 4.96016 11.7198 4.96016C12.4932 4.96016 13.1198 4.33349 13.1198 3.56016C13.1198 2.78683 12.4932 2.16016 11.7198 2.16016C11.2265 2.16016 10.7999 2.4135 10.5465 2.80017L8.81984 2.45349C8.55318 2.40016 8.29318 2.56683 8.23318 2.8335L7.61984 5.52016C6.41984 5.5535 5.25985 5.89349 4.23318 6.51349C3.93985 6.34016 3.61318 6.25349 3.25318 6.26683C2.76651 6.28016 2.31984 6.48684 1.98651 6.84017C1.29984 7.56684 1.33318 8.72015 2.06652 9.40682C2.12652 9.46015 2.18651 9.51349 2.25318 9.56016C2.25318 9.60016 2.25318 9.64017 2.25318 9.6735C2.25318 11.9668 4.83317 13.8335 8.00651 13.8335C11.1798 13.8335 13.7598 11.9668 13.7598 9.7135C13.7598 9.66017 13.7665 9.60683 13.7665 9.54683C14.2198 9.20017 14.4998 8.64683 14.4865 8.06016C14.4465 7.06016 13.5865 6.28016 12.6065 6.3135H12.6198ZM11.7198 3.16683C11.9398 3.16683 12.1198 3.34683 12.1198 3.56683C12.1198 3.78683 11.9398 3.96684 11.7198 3.96684C11.4998 3.96684 11.3198 3.78683 11.3198 3.56683C11.3198 3.34683 11.4998 3.16683 11.7198 3.16683ZM13.0465 8.8335C12.8665 8.92683 12.7532 9.12017 12.7732 9.32017C12.7798 9.42684 12.7798 9.53349 12.7732 9.68016C12.7732 11.4202 10.6398 12.8402 8.01984 12.8402C5.39984 12.8402 3.26651 11.4268 3.26651 9.64016C3.25984 9.53349 3.25984 9.42684 3.26651 9.32017C3.27984 9.1135 3.16651 8.91349 2.97985 8.82682C2.89985 8.78682 2.82651 8.74016 2.75984 8.68016C2.43318 8.37349 2.41984 7.8535 2.72651 7.52684C2.87318 7.36684 3.07985 7.28017 3.29318 7.2735C3.29985 7.2735 3.31318 7.2735 3.31984 7.2735C3.52651 7.2735 3.72652 7.35349 3.87985 7.49349C4.05318 7.65349 4.30651 7.67349 4.49984 7.54016C5.45985 6.88683 6.57985 6.5335 7.73318 6.52016H8.25318C9.35318 6.54683 10.5065 6.92684 11.4932 7.59351C11.6865 7.72684 11.9532 7.70683 12.1198 7.54016C12.2665 7.40016 12.4532 7.32016 12.6532 7.3135C13.0998 7.2935 13.4798 7.64683 13.4998 8.08683C13.4998 8.40017 13.3265 8.69349 13.0465 8.82682V8.8335ZM5.89318 9.88682C5.39318 9.88682 4.99318 9.48017 4.99318 8.98684C4.99318 8.4935 5.39318 8.08683 5.89318 8.08683C6.39318 8.08683 6.79318 8.4935 6.79318 8.98684C6.79318 9.48017 6.39318 9.88682 5.89318 9.88682ZM10.2332 11.1468C10.3332 11.2468 10.3265 11.4068 10.2332 11.5002C10.2332 11.5002 9.33984 12.1602 8.00651 12.1602C7.20651 12.1935 6.41984 11.9468 5.77984 11.4668C5.69318 11.3602 5.70651 11.2068 5.81318 11.1268C5.89985 11.0535 6.03317 11.0535 6.11984 11.1268C6.65984 11.5268 7.22652 11.6935 7.99318 11.6935C8.75985 11.6935 9.32651 11.5335 9.87318 11.1468C9.97318 11.0468 10.1332 11.0535 10.2265 11.1468H10.2332ZM10.9665 8.98684C10.9665 9.48684 10.5665 9.88682 10.0665 9.88682C9.56652 9.88682 9.16651 9.48017 9.16651 8.98684C9.16651 8.4935 9.57318 8.08683 10.0665 8.08683C10.5598 8.08683 10.9665 8.4935 10.9665 8.98684Z" fill="#3B3B3E"/>
</svg>
