<svg width="16" height="16" viewBox="0 0 16 16" fill="none" xmlns="http://www.w3.org/2000/svg">
<path d="M13.8044 10.2904C14.1771 10.977 14.1237 11.7757 13.6564 12.3797C13.2704 12.8817 12.6997 13.167 12.0864 13.167C12.069 13.167 12.0511 13.167 12.0337 13.1663C11.4084 13.1497 10.8244 12.8324 10.469 12.3171C10.3284 12.1104 10.2237 11.8664 10.1664 11.6097C10.137 11.445 10.0237 11.3324 9.87966 11.3044L8.00035 10.943L6.12104 11.3044C5.97704 11.3324 5.86371 11.445 5.83971 11.585C5.77704 11.8663 5.67233 12.1103 5.53233 12.3156C5.177 12.8316 4.59239 13.149 3.96772 13.1663C3.33839 13.1857 2.74238 12.8964 2.34304 12.3791C1.87504 11.7737 1.82303 10.9724 2.19436 10.2904C1.78636 9.95103 1.5357 9.45699 1.50304 8.91032C1.46637 8.29632 1.71703 7.7077 2.19103 7.29704C2.67369 6.8877 3.34171 6.73559 3.93704 6.89893C4.41837 7.03359 4.81039 7.31429 5.07506 7.71029C5.17173 7.85829 5.31968 7.93165 5.46568 7.90365L7.22504 7.51302C7.49304 7.45502 7.76106 7.62307 7.82172 7.89307C7.88172 8.16307 7.71101 8.42958 7.44168 8.48958L5.66767 8.88298C5.11234 8.98831 4.55566 8.74307 4.24099 8.26107C4.11233 8.06773 3.91966 7.93229 3.67166 7.86296C3.39499 7.78696 3.06971 7.86298 2.84304 8.05632C2.60704 8.26165 2.48365 8.54573 2.50165 8.85173C2.51965 9.14973 2.6697 9.41572 2.91303 9.58105C3.2797 9.83772 3.37102 10.3323 3.12169 10.6877C2.88502 11.0417 2.88705 11.4491 3.13439 11.7684C3.33972 12.0344 3.63169 12.1663 3.94103 12.1676C4.24703 12.159 4.53372 12.0036 4.70706 11.751C4.77639 11.651 4.82833 11.5263 4.85899 11.3916C4.94833 10.8683 5.38167 10.4297 5.93167 10.3237L7.90571 9.94369C7.96837 9.93102 8.03168 9.93102 8.09435 9.94369L10.0684 10.3237C10.6184 10.4297 11.0523 10.8684 11.1463 11.4157C11.1717 11.5257 11.2236 11.6503 11.2936 11.7516C11.467 12.003 11.753 12.159 12.0597 12.167C12.3743 12.1663 12.661 12.0337 12.8644 11.769C13.1124 11.4484 13.115 11.0417 12.8723 10.6797C12.6297 10.3324 12.7203 9.83696 13.081 9.58496C13.3303 9.41563 13.4803 9.14973 13.4983 8.85173C13.5163 8.54573 13.3937 8.26158 13.153 8.05225C12.9297 7.86291 12.6017 7.78761 12.3251 7.86361C12.0804 7.93227 11.8877 8.06763 11.7557 8.26563C11.4444 8.74363 10.8937 8.98891 10.347 8.88558L8.55772 8.48893C8.28839 8.42893 8.11768 8.16225 8.17768 7.89225C8.23768 7.62292 8.50369 7.4557 8.77436 7.51237L10.5484 7.9056C10.6784 7.93227 10.827 7.85902 10.9217 7.71436C11.189 7.31369 11.581 7.03374 12.059 6.89974C12.661 6.73507 13.3257 6.88697 13.8044 7.29297C14.2824 7.70764 14.533 8.29565 14.4964 8.91032C14.4644 9.45499 14.2151 9.94836 13.8044 10.2904ZM8.00035 5.16699C8.27635 5.16699 8.50035 4.94299 8.50035 4.66699V2.66699C8.50035 2.39099 8.27635 2.16699 8.00035 2.16699C7.72435 2.16699 7.50035 2.39099 7.50035 2.66699V4.66699C7.50035 4.94299 7.72435 5.16699 8.00035 5.16699ZM10.0004 5.83366C10.1284 5.83366 10.2564 5.78501 10.3537 5.68701L11.687 4.35368C11.8824 4.15835 11.8824 3.84166 11.687 3.64632C11.4917 3.45099 11.175 3.45099 10.9797 3.64632L9.64635 4.97966C9.45101 5.17499 9.45101 5.49168 9.64635 5.68701C9.74435 5.78501 9.87235 5.83366 10.0004 5.83366ZM5.647 5.68701C5.74433 5.78435 5.87235 5.83366 6.00035 5.83366C6.12835 5.83366 6.25637 5.78501 6.35371 5.68701C6.54904 5.49168 6.54904 5.17499 6.35371 4.97966L5.02037 3.64632C4.82504 3.45099 4.50835 3.45099 4.31302 3.64632C4.11768 3.84166 4.11768 4.15835 4.31302 4.35368L5.647 5.68701Z" fill="#3B3B3E"/>
</svg>
