<svg width="16" height="16" viewBox="0 0 16 16" fill="none" xmlns="http://www.w3.org/2000/svg">
<path d="M13.6022 6.41933L5.9975 1.87134C4.97817 1.26 3.73349 1.42133 2.90082 2.26733C2.07282 3.10933 1.93473 4.34934 2.5574 5.35201L4.20209 8L2.5574 10.648C1.93406 11.6507 2.07215 12.8907 2.90082 13.7327C3.39615 14.236 4.03671 14.4967 4.69005 14.4967C5.13405 14.4967 5.58483 14.376 5.9975 14.1287L13.6022 9.58067C14.1648 9.24467 14.5001 8.65333 14.5001 8C14.5001 7.34667 14.1648 6.75533 13.6022 6.41933ZM13.0895 8.72268L5.4848 13.2707C4.72547 13.724 4.00204 13.426 3.61404 13.0313C3.23004 12.6407 2.94484 11.92 3.40684 11.1753L5.06879 8.49933H8.66677C8.94277 8.49933 9.16677 8.27533 9.16677 7.99933C9.16677 7.72333 8.94277 7.49933 8.66677 7.49933H5.06879L3.40684 4.82332C2.94484 4.07866 3.22937 3.35799 3.61404 2.96732C3.86337 2.71399 4.2507 2.5 4.69737 2.5C4.94604 2.5 5.2128 2.56599 5.4848 2.72866L13.0895 7.27667C13.3468 7.43067 13.5001 7.70066 13.5001 7.99933C13.5001 8.29799 13.3468 8.56868 13.0895 8.72268Z" fill="#3B3B3E"/>
</svg>
