<svg width="16" height="16" viewBox="0 0 16 16" fill="none" xmlns="http://www.w3.org/2000/svg">
<path d="M11.4614 7.19108C11.4361 7.25241 11.3995 7.30768 11.3535 7.35368L10.3535 8.35368C10.2562 8.45101 10.1282 8.50033 10.0002 8.50033C9.87216 8.50033 9.74414 8.45168 9.64681 8.35368C9.45148 8.15834 9.45148 7.84165 9.64681 7.64632L9.79346 7.49967H6.50081C5.94948 7.49967 5.50081 7.94834 5.50081 8.49967C5.50081 9.05101 5.94948 9.49967 6.50081 9.49967H10.0008C10.2768 9.49967 10.5008 9.72367 10.5008 9.99967C10.5008 10.2757 10.2768 10.4997 10.0008 10.4997H6.50081C5.39815 10.4997 4.50081 9.60234 4.50081 8.49967C4.50081 7.39701 5.39815 6.49967 6.50081 6.49967H9.79346L9.64681 6.35303C9.45148 6.15769 9.45148 5.841 9.64681 5.64567C9.84214 5.45034 10.1588 5.45034 10.3542 5.64567L11.3542 6.64567C11.4002 6.69167 11.4369 6.74693 11.4622 6.80827C11.5122 6.93093 11.5121 7.06841 11.4614 7.19108ZM15.1668 7.99967C15.1668 11.9517 11.9522 15.1663 8.00016 15.1663C4.04816 15.1663 0.833496 11.9517 0.833496 7.99967C0.833496 4.04767 4.04816 0.833008 8.00016 0.833008C11.9522 0.833008 15.1668 4.04767 15.1668 7.99967ZM14.1668 7.99967C14.1668 4.59901 11.4008 1.83301 8.00016 1.83301C4.5995 1.83301 1.8335 4.59901 1.8335 7.99967C1.8335 11.4003 4.5995 14.1663 8.00016 14.1663C11.4008 14.1663 14.1668 11.4003 14.1668 7.99967Z" fill="#3B3B3E"/>
</svg>
