<svg width="16" height="16" viewBox="0 0 16 16" fill="none" xmlns="http://www.w3.org/2000/svg">
<path d="M12.8334 5.33333V3.87402L8.70744 8L12.8334 12.126V10.6667C12.8334 10.3907 13.0574 10.1667 13.3334 10.1667C13.6094 10.1667 13.8334 10.3907 13.8334 10.6667V13.3333C13.8334 13.3987 13.82 13.4634 13.7947 13.5247C13.744 13.6467 13.6468 13.7439 13.5248 13.7946C13.4635 13.8199 13.3987 13.8333 13.3334 13.8333H10.6667C10.3907 13.8333 10.1667 13.6093 10.1667 13.3333C10.1667 13.0573 10.3907 12.8333 10.6667 12.8333H12.1261L8.00008 8.70736L3.8741 12.8333H5.33341C5.60941 12.8333 5.83341 13.0573 5.83341 13.3333C5.83341 13.6093 5.60941 13.8333 5.33341 13.8333H2.66675C2.60141 13.8333 2.53668 13.8199 2.47534 13.7946C2.35334 13.7439 2.25615 13.6467 2.20549 13.5247C2.18015 13.4634 2.16675 13.3987 2.16675 13.3333V10.6667C2.16675 10.3907 2.39075 10.1667 2.66675 10.1667C2.94275 10.1667 3.16675 10.3907 3.16675 10.6667V12.126L7.29272 8L3.16675 3.87402V5.33333C3.16675 5.60933 2.94275 5.83333 2.66675 5.83333C2.39075 5.83333 2.16675 5.60933 2.16675 5.33333V2.66667C2.16675 2.60133 2.18015 2.53659 2.20549 2.47526C2.25615 2.35326 2.35349 2.25592 2.47616 2.20459C2.53749 2.17926 2.60207 2.16602 2.6674 2.16602H5.33407C5.61007 2.16602 5.83407 2.39002 5.83407 2.66602C5.83407 2.94202 5.61007 3.16602 5.33407 3.16602H3.87476L8.00073 7.29199L12.1267 3.16602H10.6667C10.3907 3.16602 10.1667 2.94202 10.1667 2.66602C10.1667 2.39002 10.3907 2.16602 10.6667 2.16602H13.3334C13.3987 2.16602 13.4635 2.17926 13.5248 2.20459C13.6468 2.25526 13.7442 2.35259 13.7955 2.47526C13.8208 2.53659 13.8341 2.60133 13.8341 2.66667V5.33333C13.8341 5.60933 13.6101 5.83333 13.3341 5.83333C13.0581 5.83333 12.8334 5.60933 12.8334 5.33333Z" fill="#3B3B3E"/>
</svg>
