<svg width="16" height="16" viewBox="0 0 16 16" fill="none" xmlns="http://www.w3.org/2000/svg">
<path d="M14 6.83341C13.724 6.83341 13.5 7.05741 13.5 7.33341V8.79272L10.8267 6.12003C10.3867 5.67936 9.61334 5.67936 9.17334 6.12003L6 9.29272L5.49333 8.7867C5.05333 8.34603 4.28001 8.34603 3.84001 8.7867L2.5 10.1267V4.66674C2.5 3.61541 2.94867 3.16674 4 3.16674H9.33333C9.60933 3.16674 9.83333 2.94274 9.83333 2.66674C9.83333 2.39074 9.60933 2.16674 9.33333 2.16674H4C2.388 2.16674 1.5 3.05474 1.5 4.66674V11.3334C1.5 12.9454 2.388 13.8334 4 13.8334H12C13.612 13.8334 14.5 12.9454 14.5 11.3334V7.33341C14.5 7.05741 14.276 6.83341 14 6.83341ZM12 12.8334H4C3.01867 12.8334 2.56798 12.4361 2.51131 11.5287L4.54663 9.4934C4.6313 9.4094 4.7013 9.4094 4.78597 9.4934L5.41203 10.1194C5.72336 10.4314 6.27602 10.4307 6.58602 10.1194L9.87931 6.82609C9.96398 6.74209 10.034 6.74209 10.1187 6.82609L13.4987 10.2061V11.3334C13.5 12.3847 13.0513 12.8334 12 12.8334ZM11.6466 3.35343C11.4513 3.1581 11.4513 2.84141 11.6466 2.64607L12.6466 1.64607C12.6926 1.60007 12.748 1.56333 12.8093 1.538C12.9313 1.48733 13.0693 1.48733 13.1913 1.538C13.2527 1.56333 13.308 1.60007 13.354 1.64607L14.354 2.64607C14.5493 2.84141 14.5493 3.1581 14.354 3.35343C14.2567 3.45076 14.1287 3.50008 14.0007 3.50008C13.8727 3.50008 13.7446 3.45143 13.6473 3.35343L13.5007 3.20678V4.66674C13.5007 4.94274 13.2767 5.16674 13.0007 5.16674C12.7247 5.16674 12.5007 4.94274 12.5007 4.66674V3.20743L12.354 3.35408C12.158 3.54875 11.842 3.54876 11.6466 3.35343ZM5.33333 5.16674C5.79333 5.16674 6.16667 5.54008 6.16667 6.00008C6.16667 6.46008 5.79333 6.83341 5.33333 6.83341C4.87333 6.83341 4.5 6.46008 4.5 6.00008C4.5 5.54008 4.87333 5.16674 5.33333 5.16674Z" fill="#3B3B3E"/>
</svg>
