<svg width="16" height="16" viewBox="0 0 16 16" fill="none" xmlns="http://www.w3.org/2000/svg">
<path d="M8.00016 0.833008C4.04816 0.833008 0.833496 4.04767 0.833496 7.99967C0.833496 11.9517 4.04816 15.1663 8.00016 15.1663C11.9522 15.1663 15.1668 11.9517 15.1668 7.99967C15.1668 4.04767 11.9522 0.833008 8.00016 0.833008ZM8.00016 14.1663C4.5995 14.1663 1.8335 11.4003 1.8335 7.99967C1.8335 4.59901 4.5995 1.83301 8.00016 1.83301C11.4008 1.83301 14.1668 4.59901 14.1668 7.99967C14.1668 11.4003 11.4008 14.1663 8.00016 14.1663ZM10.3535 6.97965C10.5488 7.17499 10.5488 7.49168 10.3535 7.68701L8.35352 9.68701C8.25618 9.78434 8.12816 9.83366 8.00016 9.83366C7.87216 9.83366 7.74414 9.78501 7.64681 9.68701L5.64681 7.68701C5.45148 7.49168 5.45148 7.17499 5.64681 6.97965C5.84214 6.78432 6.15883 6.78432 6.35417 6.97965L8.00081 8.6263L9.64746 6.97965C9.84213 6.78432 10.1582 6.78432 10.3535 6.97965Z" fill="#3B3B3E"/>
</svg>
