<svg width="16" height="16" viewBox="0 0 16 16" fill="none" xmlns="http://www.w3.org/2000/svg">
<path d="M12 14.4999H4C2.388 14.4999 1.5 13.6119 1.5 11.9999V7.76653C1.5 6.3512 1.89066 5.95584 2.52799 5.42718L6.60799 2.00652C7.41399 1.32986 8.58601 1.32986 9.39201 2.00652L13.472 5.42718C14.1093 5.95584 14.5 6.35187 14.5 7.76653V11.9999C14.5 13.6119 13.612 14.4999 12 14.4999ZM8 2.49985C7.734 2.49985 7.46733 2.59121 7.25 2.77321L3.16602 6.1972C2.66802 6.61053 2.5 6.74985 2.5 7.76718V12.0005C2.5 13.0518 2.94867 13.5005 4 13.5005H12C13.0513 13.5005 13.5 13.0518 13.5 12.0005V7.76718C13.5 6.74985 13.332 6.61053 12.834 6.1972L8.75 2.77321C8.53267 2.59054 8.266 2.49985 8 2.49985ZM8 8.69988C7.118 8.69988 6.39998 7.98187 6.39998 7.09987C6.39998 6.21787 7.118 5.49985 8 5.49985C8.882 5.49985 9.60002 6.21787 9.60002 7.09987C9.60002 7.98187 8.882 8.69988 8 8.69988ZM8 6.49985C7.66933 6.49985 7.39998 6.7692 7.39998 7.09987C7.39998 7.43053 7.66933 7.69988 8 7.69988C8.33067 7.69988 8.60002 7.43053 8.60002 7.09987C8.60002 6.7692 8.33067 6.49985 8 6.49985ZM10 11.8332C9.724 11.8332 9.5 11.6092 9.5 11.3332V11.1312C9.5 10.6512 9.16865 10.1665 8.42798 10.1665H7.57267C6.83201 10.1665 6.50065 10.6512 6.50065 11.1312V11.3332C6.50065 11.6092 6.27665 11.8332 6.00065 11.8332C5.72465 11.8332 5.50065 11.6092 5.50065 11.3332V11.1312C5.50065 10.1552 6.21201 9.16652 7.57267 9.16652H8.42798C9.78865 9.16652 10.5 10.1545 10.5 11.1312V11.3332C10.5 11.6092 10.276 11.8332 10 11.8332Z" fill="#3B3B3E"/>
</svg>
