<svg width="16" height="16" viewBox="0 0 16 16" fill="none" xmlns="http://www.w3.org/2000/svg">
<g clip-path="url(#clip0_36251_7342)">
<path d="M13.1666 12.0133C13.1666 13.6167 12.2786 14.5 10.6666 14.5H5.33323C5.07323 14.5 4.83255 14.476 4.61855 14.428C4.34855 14.3686 4.17858 14.1013 4.23858 13.8313C4.29925 13.562 4.56459 13.3913 4.83526 13.452C4.97726 13.4833 5.14921 13.5 5.33388 13.5H10.6672C11.7185 13.5 12.1672 13.0553 12.1672 12.0133C12.1672 11.4267 12.0032 9.49065 9.8932 9.20199C9.61987 9.16465 9.42856 8.91267 9.46523 8.63867C9.50323 8.36467 9.75787 8.17269 10.0285 8.21069C12.3445 8.52803 13.1666 10.4573 13.1666 12.0133ZM14.3532 2.35335L1.68658 15.02C1.58925 15.1174 1.46123 15.1667 1.33323 15.1667C1.20523 15.1667 1.07721 15.118 0.979874 15.02C0.784541 14.8247 0.784541 14.508 0.979874 14.3127L2.87457 12.418C2.85857 12.284 2.83323 12.1573 2.83323 12.0133C2.83323 10.2387 3.83723 8.16667 6.66656 8.16667H7.12587L8.13922 7.15332C8.09388 7.15532 8.05127 7.16667 8.00527 7.16667C6.4426 7.16667 5.17193 5.89533 5.17193 4.33333C5.17193 2.77133 6.4426 1.5 8.00527 1.5C9.56793 1.5 10.8386 2.77133 10.8386 4.33333C10.8386 4.37933 10.8273 4.42203 10.8253 4.46737L13.6459 1.64665C13.8412 1.45131 14.1579 1.45131 14.3532 1.64665C14.5486 1.84198 14.5486 2.15802 14.3532 2.35335ZM8.00592 6.16667C9.01725 6.16667 9.83925 5.34467 9.83925 4.33333C9.83925 3.322 9.01725 2.5 8.00592 2.5C6.99458 2.5 6.17258 3.322 6.17258 4.33333C6.17258 5.34467 6.99458 6.16667 8.00592 6.16667ZM3.88588 11.4073L6.08119 9.212C4.49586 9.44266 4.01988 10.5993 3.88588 11.4073Z" fill="#3B3B3E"/>
</g>
<defs>
<clipPath id="clip0_36251_7342">
<rect width="16" height="16" fill="white"/>
</clipPath>
</defs>
</svg>
