<svg width="16" height="16" viewBox="0 0 16 16" fill="none" xmlns="http://www.w3.org/2000/svg">
<path d="M13.3334 13.5H12.4007L9.99536 2.67464C9.77936 1.70398 9.08002 1.5 8.53135 1.5H7.46869C6.92002 1.5 6.22068 1.70398 6.00468 2.67464L3.59934 13.5H2.66669C2.39069 13.5 2.16669 13.724 2.16669 14C2.16669 14.276 2.39069 14.5 2.66669 14.5H13.3334C13.6094 14.5 13.8334 14.276 13.8334 14C13.8334 13.724 13.6094 13.5 13.3334 13.5ZM6.03068 7.16667H9.96936L10.636 10.1667H5.36401L6.03068 7.16667ZM6.98069 2.89193C7.04603 2.59793 7.12602 2.5 7.46869 2.5H8.53135C8.87469 2.5 8.95402 2.59794 9.01935 2.89128L9.74736 6.16667H6.25269L6.98069 2.89193ZM5.14203 11.1667H10.8587L11.3774 13.5H4.62402L5.14203 11.1667Z" fill="#3B3B3E"/>
</svg>
