<svg width="16" height="16" viewBox="0 0 16 16" fill="none" xmlns="http://www.w3.org/2000/svg">
<path d="M9 4.5C7.622 4.5 6.5 5.62133 6.5 7C6.5 7.14267 6.51264 7.28467 6.53597 7.42334L4.64665 9.31266C4.55265 9.40666 4.5 9.53402 4.5 9.66602V10.9993C4.5 11.2753 4.724 11.4993 5 11.4993H6.33333C6.60933 11.4993 6.83333 11.2753 6.83333 10.9993V10.4993H7.33333C7.466 10.4993 7.59335 10.4467 7.68669 10.3527L8.57666 9.46338C8.71533 9.48738 8.85733 9.49935 9 9.49935C10.378 9.49935 11.5 8.37802 11.5 6.99935C11.5 5.62068 10.378 4.5 9 4.5ZM9 8.5C8.85133 8.5 8.70605 8.47805 8.56738 8.43538C8.39138 8.38005 8.1974 8.42873 8.06673 8.56006L7.12663 9.5H6.33398C6.05798 9.5 5.83398 9.724 5.83398 10V10.5H5.50065V9.87402L7.44059 7.93392C7.57126 7.80259 7.61993 7.60995 7.56527 7.43262C7.5226 7.29462 7.50065 7.14932 7.50065 7.00065C7.50065 6.17332 8.17398 5.50065 9.00065 5.50065C9.82732 5.50065 10.5007 6.17332 10.5007 7.00065C10.5007 7.82798 9.82667 8.5 9 8.5ZM9.84668 6.66667C9.84668 6.94267 9.62335 7.16667 9.34668 7.16667C9.07068 7.16667 8.84326 6.94267 8.84326 6.66667C8.84326 6.39067 9.06401 6.16667 9.34001 6.16667H9.34668C9.62335 6.16667 9.84668 6.39067 9.84668 6.66667ZM11.75 1.5H4.25C2.47667 1.5 1.5 2.47667 1.5 4.25V11.75C1.5 13.5233 2.47667 14.5 4.25 14.5H11.75C13.5233 14.5 14.5 13.5233 14.5 11.75V4.25C14.5 2.47667 13.5233 1.5 11.75 1.5ZM13.5 11.75C13.5 12.9767 12.9767 13.5 11.75 13.5H4.25C3.02333 13.5 2.5 12.9767 2.5 11.75V4.25C2.5 3.02333 3.02333 2.5 4.25 2.5H11.75C12.9767 2.5 13.5 3.02333 13.5 4.25V11.75Z" fill="#3B3B3E"/>
</svg>
