<svg width="16" height="16" viewBox="0 0 16 16" fill="none" xmlns="http://www.w3.org/2000/svg">
<path d="M11.3334 2.83333H11.1534C11.0887 1.99733 10.5474 1.5 9.66675 1.5H6.33341C5.45275 1.5 4.91143 1.99733 4.84676 2.83333H4.66675C3.05475 2.83333 2.16675 3.72133 2.16675 5.33333V12C2.16675 13.612 3.05475 14.5 4.66675 14.5H11.3334C12.9454 14.5 13.8334 13.612 13.8334 12V5.33333C13.8334 3.72133 12.9454 2.83333 11.3334 2.83333ZM5.83341 3C5.83341 2.60733 5.94075 2.5 6.33341 2.5H9.66675C10.0594 2.5 10.1667 2.60733 10.1667 3V3.66667C10.1667 4.05933 10.0594 4.16667 9.66675 4.16667H6.33341C5.94075 4.16667 5.83341 4.05933 5.83341 3.66667V3ZM12.8334 12C12.8334 13.0513 12.3847 13.5 11.3334 13.5H4.66675C3.61541 13.5 3.16675 13.0513 3.16675 12V5.33333C3.16675 4.282 3.61541 3.83333 4.66675 3.83333H4.84676C4.91143 4.66933 5.45275 5.16667 6.33341 5.16667H9.66675C10.5474 5.16667 11.0887 4.66933 11.1534 3.83333H11.3334C12.3847 3.83333 12.8334 4.282 12.8334 5.33333V12ZM10.1807 7.96L9.14136 7.81201L8.69539 6.92668C8.56273 6.66334 8.29543 6.5 7.99943 6.5C7.70343 6.5 7.43613 6.66334 7.30347 6.92668L6.85734 7.81201L5.81812 7.96C5.52678 8.00134 5.2914 8.19999 5.20207 8.47799C5.11273 8.75399 5.18816 9.05066 5.3995 9.25199L6.14412 9.96265L5.97534 10.928C5.92468 11.218 6.04074 11.5066 6.27808 11.6813C6.51874 11.858 6.83405 11.884 7.09871 11.7467L7.99878 11.284L8.8995 11.7473C9.01283 11.806 9.13541 11.8347 9.25741 11.8347C9.42074 11.8347 9.58215 11.7833 9.71948 11.682C9.95682 11.5073 10.0734 11.2187 10.0221 10.9293L9.85343 9.96334L10.5987 9.25269C10.8087 9.05135 10.8848 8.75533 10.7955 8.47933C10.7082 8.2 10.4721 8.00134 10.1807 7.96ZM9.06877 9.33C8.88743 9.504 8.80475 9.75534 8.84741 10.0033L8.96069 10.6527L8.35002 10.3387C8.24068 10.2827 8.12007 10.254 8.00073 10.254C7.8814 10.254 7.76143 10.282 7.6521 10.338L7.04077 10.6527L7.1547 10.002C7.1967 9.75533 7.11405 9.50401 6.93205 9.32935L6.46004 8.87866L7.12215 8.78467C7.36749 8.75 7.58074 8.59799 7.69474 8.37533L8.00073 7.76799L8.30802 8.37801C8.42069 8.59868 8.63416 8.75067 8.87883 8.78467L9.54142 8.87931L9.06877 9.33Z" fill="#3B3B3E"/>
</svg>
