<svg width="16" height="16" viewBox="0 0 16 16" fill="none" xmlns="http://www.w3.org/2000/svg">
<path d="M7.99996 1.5C4.78329 1.5 2.16663 4.11667 2.16663 7.33333C2.16663 10.7453 5.29795 12.8133 7.36995 14.182L7.72264 14.416C7.80664 14.472 7.90329 14.5 7.99996 14.5C8.09663 14.5 8.19328 14.472 8.27728 14.416L8.62996 14.182C10.702 12.8133 13.8333 10.7453 13.8333 7.33333C13.8333 4.11667 11.2166 1.5 7.99996 1.5ZM8.07928 13.3473L7.99996 13.4001L7.92063 13.3473C5.91397 12.022 3.16663 10.2073 3.16663 7.33333C3.16663 4.668 5.33463 2.5 7.99996 2.5C10.6653 2.5 12.8333 4.668 12.8333 7.33333C12.8333 10.2073 10.0853 12.0227 8.07928 13.3473ZM9.65395 8.27995C9.90595 7.89528 10.056 7.43734 10.056 6.94401C10.056 5.59668 8.95929 4.49935 7.61129 4.49935C6.26395 4.49935 5.16663 5.59601 5.16663 6.94401C5.16663 8.29201 6.26329 9.38867 7.61129 9.38867C8.10462 9.38867 8.56262 9.23932 8.94729 8.98665L9.97996 10.0194C10.0773 10.1167 10.2053 10.166 10.3333 10.166C10.4613 10.166 10.5893 10.1174 10.6866 10.0194C10.882 9.82404 10.882 9.50735 10.6866 9.31201L9.65395 8.27995ZM6.16663 6.94466C6.16663 6.14799 6.81462 5.5 7.61129 5.5C8.40795 5.5 9.05597 6.14799 9.05597 6.94466C9.05597 7.74133 8.40795 8.38932 7.61129 8.38932C6.81462 8.38932 6.16663 7.74066 6.16663 6.94466Z" fill="#3B3B3E"/>
</svg>
