<svg width="16" height="16" viewBox="0 0 16 16" fill="none" xmlns="http://www.w3.org/2000/svg">
<path d="M14.4333 6.177C14.1626 6.23233 13.9886 6.49634 14.0433 6.76701C14.1253 7.16901 14.1666 7.58433 14.1666 8.00033C14.1666 11.401 11.4006 14.167 7.99998 14.167C4.59931 14.167 1.83331 11.401 1.83331 8.00033C1.83331 4.59966 4.59931 1.83366 7.99998 1.83366C8.63131 1.83366 9.25331 1.92902 9.84931 2.11702C10.1146 2.19902 10.3933 2.0537 10.4766 1.79036C10.56 1.52703 10.4133 1.24634 10.15 1.163C9.45598 0.944338 8.73331 0.833008 7.99931 0.833008C4.04731 0.833008 0.832642 4.04767 0.832642 7.99967C0.832642 11.9517 4.04731 15.1663 7.99931 15.1663C11.9513 15.1663 15.166 11.9517 15.166 7.99967C15.166 7.51634 15.118 7.03432 15.0226 6.56632C14.968 6.29632 14.7046 6.12233 14.4333 6.177ZM12.3533 3.02034L12.8333 2.54036V4.66699C12.8333 4.94299 13.0573 5.16699 13.3333 5.16699C13.6093 5.16699 13.8333 4.94299 13.8333 4.66699V2.54102L14.3133 3.021C14.4106 3.11833 14.5386 3.16764 14.6666 3.16764C14.7946 3.16764 14.9226 3.119 15.02 3.021C15.2153 2.82566 15.2153 2.50897 15.02 2.31364L13.6866 0.980306C13.6406 0.934306 13.5853 0.897648 13.524 0.872314C13.402 0.821648 13.264 0.821648 13.142 0.872314C13.0806 0.897648 13.0253 0.934306 12.9793 0.980306L11.646 2.31364C11.4506 2.50897 11.4506 2.82566 11.646 3.021C11.8413 3.21633 12.158 3.21568 12.3533 3.02034ZM7.98531 11.8337C8.26131 11.8337 8.48531 11.6097 8.48531 11.3337V11.0684C8.85531 11.0144 9.19865 10.8503 9.46865 10.5803C9.79931 10.2497 9.98198 9.81097 9.98198 9.34497C9.98198 8.54364 9.43865 7.84634 8.65798 7.64901L7.58598 7.38297C7.42064 7.34164 7.27998 7.24902 7.17398 7.11369C7.07398 6.98702 7.01865 6.82432 7.01865 6.65698C7.01865 6.24432 7.35398 5.90902 7.76664 5.90902H8.23332C8.61465 5.90902 8.93398 6.19568 8.97731 6.57568C9.00798 6.85035 9.25531 7.05034 9.52998 7.01701C9.80464 6.98634 10.002 6.73902 9.97131 6.46436C9.88131 5.66302 9.26131 5.04496 8.48531 4.93229V4.66699C8.48531 4.39099 8.26131 4.16699 7.98531 4.16699C7.70931 4.16699 7.48531 4.39099 7.48531 4.66699V4.93636C6.65531 5.07236 6.01865 5.78835 6.01865 6.65568C6.01865 7.04701 6.14998 7.42969 6.38665 7.72835C6.62398 8.03435 6.96265 8.25564 7.34265 8.35164L8.41464 8.61768C8.74864 8.70234 8.98198 9.001 8.98198 9.34367C8.98198 9.54233 8.90398 9.72966 8.76198 9.87166C8.61998 10.0137 8.43264 10.0916 8.23398 10.0916H7.76731C7.38598 10.0916 7.06665 9.80497 7.02332 9.42497C6.99265 9.1503 6.74464 8.94898 6.47064 8.98364C6.19598 9.01431 5.99865 9.26163 6.02932 9.5363C6.11798 10.3276 6.72331 10.9417 7.48531 11.065V11.3337C7.48531 11.6097 7.70864 11.8337 7.98531 11.8337Z" fill="#3B3B3E"/>
</svg>
