<svg width="16" height="16" viewBox="0 0 16 16" fill="none" xmlns="http://www.w3.org/2000/svg">
<path d="M14.4613 6.19093C14.4359 6.25227 14.3994 6.30753 14.3534 6.35353L12.3534 8.35353C12.256 8.45086 12.128 8.50018 12 8.50018C11.872 8.50018 11.744 8.45153 11.6466 8.35353C11.4513 8.1582 11.4513 7.84151 11.6466 7.64617L12.7933 6.49953H5C3.622 6.49953 2.5 7.62086 2.5 8.99953C2.5 10.3782 3.622 11.4995 5 11.4995H12C12.276 11.4995 12.5 11.7235 12.5 11.9995C12.5 12.2755 12.276 12.4995 12 12.4995H5C3.07 12.4995 1.5 10.9295 1.5 8.99953C1.5 7.06953 3.07 5.49953 5 5.49953H12.7926L11.646 4.35288C11.4507 4.15755 11.4507 3.84086 11.646 3.64552C11.8413 3.45019 12.158 3.45019 12.3534 3.64552L14.3534 5.64552C14.3994 5.69152 14.4359 5.74679 14.4613 5.80812C14.5119 5.93079 14.5119 6.06827 14.4613 6.19093Z" fill="#3B3B3E"/>
</svg>
