<svg width="16" height="16" viewBox="0 0 16 16" fill="none" xmlns="http://www.w3.org/2000/svg">
<path d="M13.4299 11.1665C13.3133 11.1665 13.1952 11.1525 13.0792 11.1231L11.2607 10.6564C10.354 10.4238 9.78921 9.52245 9.97454 8.60512L10.0527 8.21913C8.72734 7.81913 7.30325 7.81912 5.96592 8.21779L6.04258 8.61112C6.22191 9.52712 5.6533 10.4238 4.74863 10.6525L2.92132 11.1151C2.34199 11.2611 1.72534 11.0264 1.39267 10.5331C0.868008 9.74578 0.70262 8.73312 0.93662 7.75246C1.15862 6.82379 1.7239 6.0438 2.48724 5.61313C3.34724 5.1278 4.26792 4.75846 5.22259 4.51446C8.03526 3.79646 10.9779 4.1898 13.5073 5.6218C14.2739 6.0558 14.8419 6.84113 15.0646 7.77646C15.2972 8.7518 15.134 9.75579 14.616 10.5318C14.3513 10.9331 13.9019 11.1665 13.4299 11.1665ZM8.01133 6.91845C8.95999 6.91845 9.90597 7.08446 10.804 7.41646C11.0353 7.50179 11.1699 7.74312 11.1212 7.98512L10.9553 8.80379C10.8753 9.19912 11.1185 9.5878 11.5092 9.6878L13.3253 10.1538C13.5033 10.1978 13.6819 10.1311 13.7799 9.98246C14.1485 9.43112 14.2605 8.71379 14.0925 8.00779C13.9339 7.34179 13.5412 6.7898 13.0159 6.49247C10.7119 5.18847 8.03129 4.8298 5.47129 5.4838C4.60195 5.7058 3.76325 6.04245 2.97991 6.48445C2.45791 6.77912 2.06858 7.32579 1.91058 7.98512C1.74258 8.68579 1.85989 9.42978 2.22389 9.97578C2.32323 10.1218 2.50063 10.1884 2.6793 10.1451L4.5053 9.68312C4.8953 9.58445 5.13993 9.19778 5.0626 8.80311L4.9013 7.9778C4.85463 7.73646 4.98997 7.49646 5.22064 7.4118C6.12197 7.08313 7.06799 6.91845 8.01133 6.91845Z" fill="#3B3B3E"/>
</svg>
