<svg width="16" height="16" viewBox="0 0 16 16" fill="none" xmlns="http://www.w3.org/2000/svg">
<path d="M11.75 1.5H4.25C2.47667 1.5 1.5 2.47667 1.5 4.25V11.75C1.5 13.5233 2.47667 14.5 4.25 14.5H11.75C13.5233 14.5 14.5 13.5233 14.5 11.75V4.25C14.5 2.47667 13.5233 1.5 11.75 1.5ZM13.5 11.75C13.5 12.9767 12.9767 13.5 11.75 13.5H4.25C3.02333 13.5 2.5 12.9767 2.5 11.75V4.25C2.5 3.02333 3.02333 2.5 4.25 2.5H11.75C12.9767 2.5 13.5 3.02333 13.5 4.25V11.75ZM8.13265 9.86865C8.32798 10.064 8.32798 10.3807 8.13265 10.576L7.02132 11.6873C6.97532 11.7333 6.92004 11.7701 6.85938 11.7954C6.79871 11.8207 6.7333 11.834 6.66797 11.834C6.60264 11.834 6.53806 11.8207 6.47673 11.7954C6.41539 11.7701 6.36062 11.7333 6.31462 11.6873L5.20329 10.576C5.00795 10.3813 5.00795 10.064 5.20329 9.86865C5.39862 9.67332 5.71531 9.67332 5.91064 9.86865L6.16862 10.126V6C6.16862 5.724 6.39262 5.5 6.66862 5.5C6.94462 5.5 7.16862 5.724 7.16862 6V10.1266L7.4266 9.8693C7.62193 9.6733 7.93798 9.67399 8.13265 9.86865ZM10.7967 5.42399C10.992 5.61866 10.992 5.93601 10.7967 6.13135C10.6994 6.22868 10.5714 6.27799 10.4434 6.27799C10.3154 6.27799 10.1873 6.22935 10.09 6.13135L9.83203 5.87402V10.0007C9.83203 10.2767 9.60803 10.5007 9.33203 10.5007C9.05603 10.5007 8.83203 10.2767 8.83203 10.0007V5.87402L8.57406 6.13135C8.37806 6.32668 8.06137 6.32601 7.8667 6.13135C7.67137 5.93601 7.67137 5.61932 7.8667 5.42399L8.97803 4.31266C9.02403 4.26666 9.07929 4.22992 9.14063 4.20459C9.26263 4.15392 9.40062 4.15392 9.52262 4.20459C9.58396 4.22992 9.63938 4.26666 9.68538 4.31266L10.7967 5.42399Z" fill="#3B3B3E"/>
</svg>
