<svg width="16" height="16" viewBox="0 0 16 16" fill="none" xmlns="http://www.w3.org/2000/svg">
<path d="M10.6667 10.5C12.7807 10.5 14.5 8.78067 14.5 6.66667C14.5 4.55267 12.7807 2.83333 10.6667 2.83333C10.5293 2.83333 10.3954 2.84 10.2614 2.854C10.0481 2.556 9.80206 2.28268 9.52539 2.03935C8.64272 1.26201 7.50933 0.833984 6.33333 0.833984C3.668 0.833984 1.5 3.00198 1.5 5.66732C1.5 8.33265 3.668 10.5007 6.33333 10.5007H7.5V11.5787C6.89267 11.752 6.41796 12.2267 6.24463 12.834H3.33333C3.05733 12.834 2.83333 13.058 2.83333 13.334C2.83333 13.61 3.05733 13.834 3.33333 13.834H6.24463C6.46396 14.6007 7.16333 15.1673 8 15.1673C8.83667 15.1673 9.53604 14.6007 9.75537 13.834H12.6667C12.9427 13.834 13.1667 13.61 13.1667 13.334C13.1667 13.058 12.9427 12.834 12.6667 12.834H9.75537C9.58204 12.2267 9.10733 11.752 8.5 11.5787V10.5007H10.6667V10.5ZM8.83333 13.3333C8.83333 13.7927 8.45933 14.1667 8 14.1667C7.54067 14.1667 7.16667 13.7927 7.16667 13.3333C7.16667 12.874 7.54067 12.5 8 12.5C8.45933 12.5 8.83333 12.874 8.83333 13.3333ZM2.5 5.66667C2.5 3.55267 4.21933 1.83333 6.33333 1.83333C7.26533 1.83333 8.1646 2.17268 8.86393 2.78935C9.14927 3.04135 9.39538 3.33267 9.59538 3.65601C9.70338 3.83201 9.90796 3.92335 10.1126 3.88468C10.2966 3.85002 10.478 3.83333 10.6667 3.83333C12.2293 3.83333 13.5 5.104 13.5 6.66667C13.5 8.22933 12.2293 9.5 10.6667 9.5H6.33333C4.21933 9.5 2.5 7.78067 2.5 5.66667Z" fill="#3B3B3E"/>
</svg>
