<svg width="16" height="16" viewBox="0 0 16 16" fill="none" xmlns="http://www.w3.org/2000/svg">
<path d="M12 2.5H11.1667V2C11.1667 1.724 10.9427 1.5 10.6667 1.5C10.3907 1.5 10.1667 1.724 10.1667 2V2.5H5.83333V2C5.83333 1.724 5.60933 1.5 5.33333 1.5C5.05733 1.5 4.83333 1.724 4.83333 2V2.5H4C2.388 2.5 1.5 3.388 1.5 5V12C1.5 13.612 2.388 14.5 4 14.5H12C13.612 14.5 14.5 13.612 14.5 12V5C14.5 3.388 13.612 2.5 12 2.5ZM4 3.5H4.83333V4C4.83333 4.276 5.05733 4.5 5.33333 4.5C5.60933 4.5 5.83333 4.276 5.83333 4V3.5H10.1667V4C10.1667 4.276 10.3907 4.5 10.6667 4.5C10.9427 4.5 11.1667 4.276 11.1667 4V3.5H12C13.0513 3.5 13.5 3.94867 13.5 5V5.5H2.5V5C2.5 3.94867 2.94867 3.5 4 3.5ZM12 13.5H4C2.94867 13.5 2.5 13.0513 2.5 12V6.5H13.5V12C13.5 13.0513 13.0513 13.5 12 13.5ZM10.1807 8.79329L9.14128 8.64535L8.69531 7.75993C8.56265 7.49593 8.29535 7.33268 7.99935 7.33268C7.70335 7.33268 7.43605 7.49593 7.30339 7.75993L6.85726 8.64535L5.81803 8.79329C5.5267 8.83463 5.29132 9.03336 5.20199 9.31136C5.11265 9.58736 5.18808 9.88329 5.39941 10.0853L6.14404 10.7954L5.97526 11.7607C5.92393 12.0507 6.04065 12.3393 6.27865 12.514C6.51798 12.6907 6.83397 12.7159 7.09863 12.5793L7.9987 12.1167L8.8986 12.5793C9.0126 12.6379 9.13531 12.6673 9.25798 12.6673C9.42064 12.6673 9.58207 12.616 9.7194 12.5146C9.95673 12.3393 10.0733 12.0507 10.022 11.7614L9.85335 10.7954L10.5986 10.0846C10.8086 9.88397 10.8847 9.58736 10.7954 9.31136C10.7081 9.03336 10.472 8.83463 10.1807 8.79329ZM9.06869 10.1634C8.88735 10.3374 8.80466 10.5886 8.84733 10.8366L8.96061 11.486L8.35059 11.172C8.12992 11.058 7.86803 11.0594 7.65137 11.1714L7.04004 11.486L7.15397 10.8353C7.19597 10.588 7.11332 10.3366 6.93132 10.1619L6.45931 9.71208L7.12207 9.61735C7.3674 9.58268 7.58068 9.43001 7.69401 9.20801L8 8.60059L8.30729 9.21061C8.41996 9.43061 8.6326 9.58268 8.87793 9.61735L9.54069 9.71208L9.06869 10.1634Z" fill="#3B3B3E"/>
</svg>
