<svg width="16" height="16" viewBox="0 0 16 16" fill="none" xmlns="http://www.w3.org/2000/svg">
<path d="M8 5.83333C6.80533 5.83333 5.83333 6.80533 5.83333 8C5.83333 9.19467 6.80533 10.1667 8 10.1667C9.19467 10.1667 10.1667 9.19467 10.1667 8C10.1667 6.80533 9.19467 5.83333 8 5.83333ZM8 9.16667C7.35667 9.16667 6.83333 8.64333 6.83333 8C6.83333 7.35667 7.35667 6.83333 8 6.83333C8.64333 6.83333 9.16667 7.35667 9.16667 8C9.16667 8.64333 8.64333 9.16667 8 9.16667ZM14 7.5H13.1413C12.9047 5.04933 10.9507 3.09539 8.5 2.85872V2C8.5 1.724 8.276 1.5 8 1.5C7.724 1.5 7.5 1.724 7.5 2V2.85872C5.04933 3.09539 3.09535 5.04933 2.85868 7.5H2C1.724 7.5 1.5 7.724 1.5 8C1.5 8.276 1.724 8.5 2 8.5H2.85868C3.09535 10.9507 5.04933 12.9046 7.5 13.1413V14C7.5 14.276 7.724 14.5 8 14.5C8.276 14.5 8.5 14.276 8.5 14V13.1413C10.9507 12.9046 12.9047 10.9507 13.1413 8.5H14C14.276 8.5 14.5 8.276 14.5 8C14.5 7.724 14.276 7.5 14 7.5ZM8 12.1667C5.70267 12.1667 3.83333 10.2973 3.83333 8C3.83333 5.70267 5.70267 3.83333 8 3.83333C10.2973 3.83333 12.1667 5.70267 12.1667 8C12.1667 10.2973 10.2973 12.1667 8 12.1667Z" fill="#3B3B3E"/>
</svg>
