<svg width="16" height="16" viewBox="0 0 16 16" fill="none" xmlns="http://www.w3.org/2000/svg">
<path d="M13.7333 2.5996L10.8466 1.54627C10.64 1.47294 10.4 1.4796 10.2 1.5796C9.99997 1.6796 9.84664 1.84627 9.77997 2.0596C9.5733 2.67293 9.09997 3.39961 8.00664 3.39961C6.91331 3.39961 6.43997 2.67293 6.2333 2.0596C6.15997 1.84627 6.01331 1.67961 5.81331 1.58627C5.61331 1.48627 5.37331 1.4796 5.16664 1.55294L2.27997 2.60627C1.81997 2.77294 1.51331 3.21294 1.51331 3.69961V5.78627C1.51331 6.15293 1.67997 6.49294 1.97997 6.7196C2.27331 6.9396 2.64664 7.01293 2.99997 6.91293L3.84664 6.67293V13.0129C3.84664 13.8396 4.51997 14.5129 5.34664 14.5129H10.68C11.5066 14.5129 12.18 13.8396 12.18 13.0129V6.67293L13.0266 6.91293C13.38 7.01293 13.7533 6.94627 14.0466 6.7196C14.34 6.4996 14.5133 6.1596 14.5133 5.78627V3.69961C14.5133 3.21294 14.2066 2.77294 13.7466 2.60627L13.7333 2.5996ZM13.5 5.7796C13.5 5.85294 13.46 5.89293 13.4333 5.91293C13.4066 5.93293 13.3533 5.95961 13.2866 5.93961L11.8 5.51294C11.6466 5.47294 11.4866 5.4996 11.36 5.59294C11.2333 5.68627 11.16 5.83294 11.16 5.99294V12.9929C11.16 13.2663 10.9333 13.4929 10.66 13.4929H5.32664C5.05331 13.4929 4.82664 13.2663 4.82664 12.9929V5.99294C4.82664 5.83294 4.7533 5.68627 4.62664 5.59294C4.53997 5.52627 4.43331 5.49294 4.32664 5.49294C4.27997 5.49294 4.2333 5.49294 4.18664 5.51294L2.69997 5.93961C2.6333 5.95961 2.57997 5.93293 2.55331 5.91293C2.52664 5.89293 2.48664 5.85294 2.48664 5.7796V3.69293C2.48664 3.62627 2.5333 3.55961 2.5933 3.53294L5.32664 2.5396C5.59331 3.20627 6.29997 4.38627 7.98664 4.38627C9.67331 4.38627 10.38 3.1996 10.6466 2.5396L13.38 3.53294C13.4466 3.55961 13.4866 3.6196 13.4866 3.69293V5.7796H13.5Z" fill="#3B3B3E"/>
</svg>
