<svg width="16" height="16" viewBox="0 0 16 16" fill="none" xmlns="http://www.w3.org/2000/svg">
<path d="M11.9979 9.83311H4.00197C3.27864 9.83311 2.64058 9.42312 2.33791 8.76312C2.03325 8.09912 2.13926 7.3425 2.61526 6.78916L6.6133 2.1378C7.30797 1.32713 8.69129 1.3258 9.38796 2.1378L13.3846 6.78916C13.8606 7.3425 13.9666 8.09912 13.662 8.76312C13.3593 9.42312 12.7212 9.83311 11.9979 9.83311ZM8.00059 2.49978C7.75926 2.49978 7.52926 2.60515 7.37193 2.78982L3.37331 7.44118C3.15198 7.69852 3.10525 8.03712 3.24725 8.34646C3.38725 8.65179 3.66996 8.83311 4.00263 8.83311H11.9986C12.3313 8.83311 12.6139 8.65112 12.7539 8.34646C12.8959 8.03712 12.8493 7.69852 12.628 7.44118L8.63064 2.78982H8.6299C8.47124 2.60515 8.24126 2.49978 8.00059 2.49978ZM12.5333 14.4998H3.46657C2.65257 14.4998 2.16661 14.0138 2.16661 13.1998V12.1331C2.16661 11.3191 2.65257 10.8331 3.46657 10.8331H12.5333C13.3473 10.8331 13.8333 11.3191 13.8333 12.1331V13.1998C13.8333 14.0138 13.3473 14.4998 12.5333 14.4998ZM3.46657 11.8331C3.20857 11.8331 3.16661 11.8751 3.16661 12.1331V13.1998C3.16661 13.4578 3.20857 13.4998 3.46657 13.4998H12.5333C12.7913 13.4998 12.8333 13.4578 12.8333 13.1998V12.1331C12.8333 11.8751 12.7913 11.8331 12.5333 11.8331H3.46657Z" fill="#3B3B3E"/>
</svg>
