<svg width="16" height="16" viewBox="0 0 16 16" fill="none" xmlns="http://www.w3.org/2000/svg">
<path d="M13.8333 11.6113V10.9933C13.8333 10.166 13.16 9.49333 12.3333 9.49333C11.5067 9.49333 10.8333 10.166 10.8333 10.9933V11.6113C10.414 11.7967 10.1667 12.1933 10.1667 12.7433V13.91C10.1667 14.6807 10.646 15.16 11.4167 15.16H13.25C14.0207 15.16 14.5 14.6807 14.5 13.91V12.7433C14.5 12.1933 14.2527 11.796 13.8333 11.6113ZM12.3333 10.4933C12.6087 10.4933 12.8333 10.7173 12.8333 10.9933V11.4933H11.8333V10.9933C11.8333 10.7173 12.058 10.4933 12.3333 10.4933ZM13.5 13.91C13.5 14.134 13.4747 14.16 13.25 14.16H11.4167C11.192 14.16 11.1667 14.134 11.1667 13.91V12.7433C11.1667 12.5573 11.1913 12.51 11.326 12.4987C11.3287 12.4987 11.3307 12.5 11.3333 12.5C11.338 12.5 11.342 12.4973 11.3473 12.4973C11.37 12.496 11.388 12.4933 11.4167 12.4933H13.25C13.2793 12.4933 13.2967 12.496 13.3193 12.4973C13.324 12.4973 13.328 12.5 13.3333 12.5C13.336 12.5 13.338 12.4987 13.3407 12.4987C13.4753 12.51 13.5 12.5573 13.5 12.7433V13.91ZM11.5 8C11.5 8.276 11.724 8.5 12 8.5C12.276 8.5 12.5 8.276 12.5 8V6C12.5 5.86733 12.4474 5.74 12.3534 5.64667L8.35335 1.64667C8.25935 1.55267 8.13267 1.5 8 1.5H4C2.388 1.5 1.5 2.388 1.5 4V12C1.5 13.612 2.388 14.5 4 14.5H8.66667C8.94267 14.5 9.16667 14.276 9.16667 14C9.16667 13.724 8.94267 13.5 8.66667 13.5H4C2.94867 13.5 2.5 13.0513 2.5 12V4C2.5 2.94867 2.94867 2.5 4 2.5H7.5V4C7.5 5.612 8.388 6.5 10 6.5H11.5V8ZM8.5 4V3.20734L10.7926 5.5H10C8.94867 5.5 8.5 5.05133 8.5 4ZM9.83333 8C9.83333 8.276 9.60933 8.5 9.33333 8.5H4.66667C4.39067 8.5 4.16667 8.276 4.16667 8C4.16667 7.724 4.39067 7.5 4.66667 7.5H9.33333C9.60933 7.5 9.83333 7.724 9.83333 8ZM7.33333 10.1667C7.60933 10.1667 7.83333 10.3907 7.83333 10.6667C7.83333 10.9427 7.60933 11.1667 7.33333 11.1667H4.66667C4.39067 11.1667 4.16667 10.9427 4.16667 10.6667C4.16667 10.3907 4.39067 10.1667 4.66667 10.1667H7.33333Z" fill="#3B3B3E"/>
</svg>
