<svg width="16" height="16" viewBox="0 0 16 16" fill="none" xmlns="http://www.w3.org/2000/svg">
<path d="M12 1.5H4C2.388 1.5 1.5 2.388 1.5 4V14C1.5 14.202 1.62193 14.3847 1.80859 14.462C1.87059 14.488 1.93533 14.5 2 14.5C2.13 14.5 2.25802 14.4494 2.35335 14.3534L4.20671 12.5H12C13.612 12.5 14.5 11.612 14.5 10V4C14.5 2.388 13.612 1.5 12 1.5ZM13.5 10C13.5 11.0513 13.0513 11.5 12 11.5H4C3.86733 11.5 3.73998 11.5526 3.64665 11.6466L2.5 12.7933V4C2.5 2.94867 2.94867 2.5 4 2.5H12C13.0513 2.5 13.5 2.94867 13.5 4V10ZM10.486 4.89803C10.3473 4.66536 10.05 4.58537 9.81201 4.71737L9.72331 4.76668C9.59197 4.84068 9.4266 4.84135 9.2946 4.76668C9.16926 4.69668 9.09196 4.56868 9.09196 4.43335C9.09196 4.10268 8.82192 3.83398 8.48926 3.83398H7.47331C7.14064 3.83398 6.87061 4.10268 6.87061 4.43335C6.87061 4.56868 6.79329 4.69668 6.66862 4.76668C6.53595 4.84068 6.37126 4.84135 6.23926 4.76668C5.95526 4.60868 5.5926 4.70533 5.4266 4.98267L4.91732 5.83732C4.83532 5.97465 4.81204 6.14196 4.8527 6.29663C4.89337 6.4513 4.99801 6.58531 5.13867 6.66398C5.26401 6.73398 5.34196 6.86203 5.34196 6.9987C5.34263 7.13536 5.26534 7.2633 5.13867 7.33464C4.99867 7.4133 4.8947 7.5473 4.8527 7.70264C4.81137 7.8573 4.83533 8.02396 4.91667 8.1613L5.42741 9.01733C5.59541 9.29867 5.95074 9.394 6.24007 9.23267C6.37141 9.15867 6.53529 9.15865 6.66862 9.23332C6.79329 9.30332 6.86995 9.43065 6.86995 9.56665C6.86995 9.89732 7.14001 10.166 7.47201 10.166H8.49007C8.82207 10.166 9.09196 9.89732 9.09196 9.56665C9.09196 9.43065 9.16928 9.30332 9.29395 9.23332C9.42661 9.15865 9.59131 9.15865 9.72331 9.23332C10.0073 9.39132 10.37 9.29467 10.536 9.01733L11.0487 8.15731C11.13 8.01864 11.1514 7.85667 11.11 7.70133C11.068 7.546 10.9674 7.41603 10.8241 7.33537C10.6987 7.26537 10.6213 7.13732 10.6213 7.00065C10.6213 6.86398 10.6986 6.73535 10.8226 6.66602L10.9113 6.6167C11.0293 6.5507 11.1154 6.43998 11.1501 6.30998C11.1854 6.17931 11.1653 6.04064 11.0967 5.92464L10.486 4.89803ZM10.006 7.95264L9.84798 8.21802C9.49798 8.13402 9.12204 8.18198 8.80404 8.36198C8.4867 8.54065 8.25665 8.83133 8.15332 9.16667H7.81006C7.70739 8.832 7.47734 8.54131 7.15934 8.36198C6.84068 8.18198 6.4654 8.13335 6.1154 8.21802L5.95736 7.95264C6.20269 7.6973 6.34394 7.35535 6.34261 6.99601C6.34194 6.64001 6.20069 6.30136 5.95736 6.04736L6.1154 5.78198C6.46473 5.86532 6.84066 5.81735 7.15999 5.63802C7.47666 5.45869 7.70673 5.168 7.81006 4.83333H8.15332C8.25599 5.168 8.4867 5.45869 8.80404 5.63802C9.12337 5.81802 9.49932 5.86532 9.84798 5.78198L10.006 6.04736C9.76202 6.3027 9.62059 6.6433 9.62126 7.0013C9.62126 7.35864 9.76269 7.69864 10.006 7.95264ZM8.68001 7C8.68001 7.368 8.38201 7.66667 8.01335 7.66667C7.64535 7.66667 7.34326 7.368 7.34326 7C7.34326 6.632 7.63867 6.33333 8.00667 6.33333H8.01335C8.38135 6.33333 8.68001 6.632 8.68001 7Z" fill="#3B3B3E"/>
</svg>
