<svg width="16" height="16" viewBox="0 0 16 16" fill="none" xmlns="http://www.w3.org/2000/svg">
<path d="M13.6866 5.64667L9.68661 1.64667C9.59261 1.55267 9.46592 1.5 9.33325 1.5H5.33325C3.72125 1.5 2.83325 2.388 2.83325 4V12C2.83325 13.612 3.72125 14.5 5.33325 14.5H11.3333C12.9453 14.5 13.8333 13.612 13.8333 12V6C13.8333 5.86733 13.7806 5.74 13.6866 5.64667ZM9.83325 3.20734L12.1259 5.5H11.3333C10.2819 5.5 9.83325 5.05133 9.83325 4V3.20734ZM11.3333 13.5H5.33325C4.28192 13.5 3.83325 13.0513 3.83325 12V4C3.83325 2.94867 4.28192 2.5 5.33325 2.5H8.83325V4C8.83325 5.612 9.72125 6.5 11.3333 6.5H12.8333V12C12.8333 13.0513 12.3846 13.5 11.3333 13.5ZM9.83325 8.95133V8.33333C9.83325 7.506 9.15992 6.83333 8.33325 6.83333C7.50659 6.83333 6.83325 7.506 6.83325 8.33333V8.95133C6.41392 9.136 6.16659 9.534 6.16659 10.0833V11.25C6.16659 12.0207 6.64592 12.5 7.41659 12.5H9.24992C10.0206 12.5 10.4999 12.0207 10.4999 11.25V10.0833C10.4999 9.53333 10.2526 9.136 9.83325 8.95133ZM8.33325 7.83333C8.60859 7.83333 8.83325 8.05733 8.83325 8.33333V8.83333H7.83325V8.33333C7.83325 8.05733 8.05792 7.83333 8.33325 7.83333ZM9.49992 11.25C9.49992 11.474 9.47459 11.5 9.24992 11.5H7.41659C7.19192 11.5 7.16659 11.474 7.16659 11.25V10.0833C7.16659 9.89733 7.19126 9.85 7.32593 9.83866C7.32859 9.83866 7.33059 9.84 7.33325 9.84C7.33792 9.84 7.34192 9.83733 7.34725 9.83733C7.36992 9.836 7.38792 9.83333 7.41659 9.83333H9.24992C9.27925 9.83333 9.29659 9.836 9.31925 9.83733C9.32392 9.83733 9.32792 9.84 9.33325 9.84C9.33592 9.84 9.33791 9.83866 9.34058 9.83866C9.47524 9.85 9.49992 9.89733 9.49992 10.0833V11.25Z" fill="#3B3B3E"/>
</svg>
