<svg width="16" height="16" viewBox="0 0 16 16" fill="none" xmlns="http://www.w3.org/2000/svg">
<path d="M7.33931 7.16667C5.77665 7.16667 4.50598 5.89533 4.50598 4.33333C4.50598 2.77133 5.77665 1.5 7.33931 1.5C8.90198 1.5 10.1726 2.77133 10.1726 4.33333C10.1726 5.89533 8.90198 7.16667 7.33931 7.16667ZM7.33931 2.5C6.32798 2.5 5.50598 3.322 5.50598 4.33333C5.50598 5.34467 6.32798 6.16667 7.33931 6.16667C8.35065 6.16667 9.17265 5.34467 9.17265 4.33333C9.17265 3.322 8.34998 2.5 7.33931 2.5ZM9.83329 14C9.83329 13.724 9.60929 13.5 9.33329 13.5H4.66663C3.61529 13.5 3.16663 13.0553 3.16663 12.0133C3.16663 11.346 3.37129 9.16667 5.99996 9.16667H8.66663C9.75729 9.16667 10.5487 9.53802 11.0193 10.27C11.1687 10.5027 11.4779 10.57 11.7099 10.4207C11.9426 10.2713 12.0093 9.96198 11.8606 9.72998C11.402 9.01665 10.4766 8.16667 8.66663 8.16667H5.99996C3.17063 8.16667 2.16663 10.2387 2.16663 12.0133C2.16663 13.6167 3.05463 14.5 4.66663 14.5H9.33329C9.60929 14.5 9.83329 14.276 9.83329 14ZM12.5753 14.1313L14.3533 12.3534C14.5486 12.158 14.5486 11.8413 14.3533 11.646C14.158 11.4507 13.8413 11.4507 13.646 11.646L12.2213 13.07L11.686 12.5347C11.4907 12.3393 11.174 12.3393 10.9786 12.5347C10.7833 12.73 10.7833 13.0467 10.9786 13.242L11.8673 14.1307C11.9646 14.228 12.0927 14.2773 12.2207 14.2773C12.3487 14.2773 12.478 14.2287 12.5753 14.1313Z" fill="#3B3B3E"/>
</svg>
