<svg width="16" height="16" viewBox="0 0 16 16" fill="none" xmlns="http://www.w3.org/2000/svg">
<path d="M12 2.5H11.1667V2C11.1667 1.724 10.9427 1.5 10.6667 1.5C10.3907 1.5 10.1667 1.724 10.1667 2V2.5H5.83333V2C5.83333 1.724 5.60933 1.5 5.33333 1.5C5.05733 1.5 4.83333 1.724 4.83333 2V2.5H4C2.388 2.5 1.5 3.388 1.5 5V12C1.5 13.612 2.388 14.5 4 14.5H12C13.612 14.5 14.5 13.612 14.5 12V5C14.5 3.388 13.612 2.5 12 2.5ZM4 3.5H4.83333V4C4.83333 4.276 5.05733 4.5 5.33333 4.5C5.60933 4.5 5.83333 4.276 5.83333 4V3.5H10.1667V4C10.1667 4.276 10.3907 4.5 10.6667 4.5C10.9427 4.5 11.1667 4.276 11.1667 4V3.5H12C13.0513 3.5 13.5 3.94867 13.5 5V5.5H2.5V5C2.5 3.94867 2.94867 3.5 4 3.5ZM12 13.5H4C2.94867 13.5 2.5 13.0513 2.5 12V6.5H13.5V12C13.5 13.0513 13.0513 13.5 12 13.5ZM9.65397 10.9466C9.90597 10.5619 10.0553 10.104 10.0553 9.61068C10.0553 8.26334 8.95866 7.16602 7.61133 7.16602C6.26333 7.16602 5.16667 8.26268 5.16667 9.61068C5.16667 10.9587 6.26333 12.0553 7.61133 12.0553C8.10466 12.0553 8.56261 11.906 8.94661 11.6533L9.97933 12.686C10.0767 12.7834 10.2047 12.8327 10.3327 12.8327C10.4607 12.8327 10.5887 12.784 10.686 12.686C10.8814 12.4907 10.8814 12.174 10.686 11.9787L9.65397 10.9466ZM6.16667 9.61133C6.16667 8.81466 6.81466 8.16667 7.61133 8.16667C8.40733 8.16667 9.05534 8.81466 9.05534 9.61133C9.05534 10.408 8.40733 11.056 7.61133 11.056C6.81466 11.0553 6.16667 10.4073 6.16667 9.61133Z" fill="#3B3B3E"/>
</svg>
