<svg width="16" height="16" viewBox="0 0 16 16" fill="none" xmlns="http://www.w3.org/2000/svg">
<path d="M12.0001 4.16699H8.87411L7.02075 2.31366C6.92675 2.21966 6.80007 2.16699 6.6674 2.16699H4.00073C2.38873 2.16699 1.50073 3.05499 1.50073 4.66699V11.3337C1.50073 12.9457 2.38873 13.8337 4.00073 13.8337H12.0007C13.6127 13.8337 14.5007 12.9457 14.5007 11.3337V6.66699C14.5001 5.05499 13.6121 4.16699 12.0001 4.16699ZM13.5001 11.3337C13.5001 12.385 13.0514 12.8337 12.0001 12.8337H4.00008C2.94875 12.8337 2.50008 12.385 2.50008 11.3337V4.66699C2.50008 3.61566 2.94875 3.16699 4.00008 3.16699H6.45939L8.31274 5.02032C8.40674 5.11432 8.53343 5.16699 8.6661 5.16699H11.9994C13.0508 5.16699 13.4994 5.61566 13.4994 6.66699V11.3337H13.5001ZM8.0201 8.98033C8.21543 9.17566 8.21543 9.49233 8.0201 9.68766L6.68677 11.021C6.64077 11.067 6.58534 11.1037 6.52401 11.129C6.46267 11.1543 6.3981 11.1677 6.33276 11.1677C6.26743 11.1677 6.20269 11.1543 6.14136 11.129C6.08002 11.1037 6.02476 11.067 5.97876 11.021L4.64543 9.68766C4.45009 9.49233 4.45009 9.17566 4.64543 8.98033C4.84076 8.78499 5.15745 8.78499 5.35278 8.98033L5.83276 9.46033V7.33366C5.83276 7.05766 6.05676 6.83366 6.33276 6.83366C6.60876 6.83366 6.83276 7.05766 6.83276 7.33366V9.45966L7.31274 8.97966C7.50874 8.78499 7.82477 8.78499 8.0201 8.98033Z" fill="#3B3B3E"/>
</svg>
