<svg width="16" height="16" viewBox="0 0 16 16" fill="none" xmlns="http://www.w3.org/2000/svg">
<path d="M2 14.5C1.93533 14.5 1.87059 14.4873 1.80859 14.462C1.62193 14.3847 1.5 14.202 1.5 14V4C1.5 2.388 2.388 1.5 4 1.5H12C13.612 1.5 14.5 2.388 14.5 4V10C14.5 11.612 13.612 12.5 12 12.5H4.20736L2.354 14.3534C2.258 14.4494 2.13 14.5 2 14.5ZM4 2.5C2.94867 2.5 2.5 2.94867 2.5 4V12.7926L3.64665 11.646C3.74065 11.552 3.86733 11.4993 4 11.4993H12C13.0513 11.4993 13.5 11.0507 13.5 9.99935V3.99935C13.5 2.94802 13.0513 2.49935 12 2.49935H4V2.5ZM8.68001 7C8.68001 6.632 8.38201 6.33333 8.01335 6.33333H8.00667C7.63867 6.33333 7.34326 6.632 7.34326 7C7.34326 7.368 7.64535 7.66667 8.01335 7.66667C8.38135 7.66667 8.68001 7.368 8.68001 7ZM11.3467 7C11.3467 6.632 11.0487 6.33333 10.68 6.33333H10.6733C10.3053 6.33333 10.0099 6.632 10.0099 7C10.0099 7.368 10.312 7.66667 10.68 7.66667C11.048 7.66667 11.3467 7.368 11.3467 7ZM6.01335 7C6.01335 6.632 5.71535 6.33333 5.34668 6.33333H5.34001C4.97201 6.33333 4.6766 6.632 4.6766 7C4.6766 7.368 4.97868 7.66667 5.34668 7.66667C5.71468 7.66667 6.01335 7.368 6.01335 7Z" fill="#3B3B3E"/>
</svg>
