<svg width="16" height="16" viewBox="0 0 16 16" fill="none" xmlns="http://www.w3.org/2000/svg">
<path d="M14 3.5H11.6273C11.0267 3.5 11.0013 3.424 10.8367 2.93066L10.702 2.526C10.4973 1.91267 9.926 1.5 9.27934 1.5H6.72066C6.074 1.5 5.50201 1.912 5.29801 2.526L5.16333 2.93066C4.99866 3.42466 4.97335 3.5 4.37268 3.5H2C1.724 3.5 1.5 3.724 1.5 4C1.5 4.276 1.724 4.5 2 4.5H2.86532L3.37667 12.166C3.47534 13.6493 4.38467 14.5 5.87134 14.5H10.1293C11.6153 14.5 12.5246 13.6493 12.624 12.166L13.1353 4.5H14C14.276 4.5 14.5 4.276 14.5 4C14.5 3.724 14.276 3.5 14 3.5ZM6.24666 2.842C6.31533 2.63733 6.50533 2.5 6.72066 2.5H9.27934C9.49467 2.5 9.68534 2.63733 9.75334 2.842L9.88798 3.24666C9.91731 3.334 9.94668 3.41867 9.97868 3.5H6.02002C6.05202 3.418 6.08199 3.33333 6.11133 3.24666L6.24666 2.842ZM11.6253 12.0993C11.562 13.0547 11.086 13.5 10.1287 13.5H5.87069C4.91335 13.5 4.43798 13.0553 4.37398 12.0993L3.86735 4.5H4.37199C4.45532 4.5 4.52466 4.49134 4.59932 4.486C4.62199 4.48934 4.64268 4.5 4.66602 4.5H11.3327C11.3567 4.5 11.3767 4.48934 11.3993 4.486C11.474 4.49134 11.5433 4.5 11.6267 4.5H12.1313L11.6253 12.0993ZM10.02 7.88067C10.2154 8.076 10.2154 8.39267 10.02 8.588L9.11934 9.48867C9.02201 9.586 8.89399 9.63534 8.76599 9.63534C8.63799 9.63534 8.51001 9.58667 8.41268 9.48867C8.21735 9.294 8.21735 8.97666 8.41268 8.78133L8.57532 8.618C8.12732 8.62733 7.68733 8.80933 7.35799 9.148C6.91066 9.61067 6.73334 10.2593 6.88534 10.8813C6.95067 11.1493 6.78665 11.4207 6.51799 11.4853C6.47799 11.4953 6.438 11.4993 6.39933 11.4993C6.174 11.4993 5.96931 11.3467 5.91398 11.118C5.68065 10.16 5.95201 9.164 6.64001 8.452C7.11401 7.96466 7.73465 7.69 8.37732 7.63466C8.22532 7.43866 8.23132 7.15933 8.41199 6.97933C8.60732 6.784 8.92401 6.784 9.11934 6.97933L10.02 7.88067Z" fill="#3B3B3E"/>
</svg>
