<svg width="16" height="16" viewBox="0 0 16 16" fill="none" xmlns="http://www.w3.org/2000/svg">
<path d="M3.33333 7.16667C2.322 7.16667 1.5 6.34467 1.5 5.33333C1.5 4.322 2.322 3.5 3.33333 3.5C4.34467 3.5 5.16667 4.322 5.16667 5.33333C5.16667 6.34467 4.34467 7.16667 3.33333 7.16667ZM3.33333 4.5C2.874 4.5 2.5 4.874 2.5 5.33333C2.5 5.79267 2.874 6.16667 3.33333 6.16667C3.79267 6.16667 4.16667 5.79267 4.16667 5.33333C4.16667 4.874 3.79267 4.5 3.33333 4.5ZM8 7.16667C6.98867 7.16667 6.16667 6.34467 6.16667 5.33333C6.16667 4.322 6.98867 3.5 8 3.5C9.01133 3.5 9.83333 4.322 9.83333 5.33333C9.83333 6.34467 9.01133 7.16667 8 7.16667ZM8 4.5C7.54067 4.5 7.16667 4.874 7.16667 5.33333C7.16667 5.79267 7.54067 6.16667 8 6.16667C8.45933 6.16667 8.83333 5.79267 8.83333 5.33333C8.83333 4.874 8.45933 4.5 8 4.5ZM12.6667 7.16667C11.6553 7.16667 10.8333 6.34467 10.8333 5.33333C10.8333 4.322 11.6553 3.5 12.6667 3.5C13.678 3.5 14.5 4.322 14.5 5.33333C14.5 6.34467 13.678 7.16667 12.6667 7.16667ZM12.6667 4.5C12.2073 4.5 11.8333 4.874 11.8333 5.33333C11.8333 5.79267 12.2073 6.16667 12.6667 6.16667C13.126 6.16667 13.5 5.79267 13.5 5.33333C13.5 4.874 13.126 4.5 12.6667 4.5ZM3.33333 12.5C2.322 12.5 1.5 11.678 1.5 10.6667C1.5 9.65533 2.322 8.83333 3.33333 8.83333C4.34467 8.83333 5.16667 9.65533 5.16667 10.6667C5.16667 11.678 4.34467 12.5 3.33333 12.5ZM3.33333 9.83333C2.874 9.83333 2.5 10.2073 2.5 10.6667C2.5 11.126 2.874 11.5 3.33333 11.5C3.79267 11.5 4.16667 11.126 4.16667 10.6667C4.16667 10.2073 3.79267 9.83333 3.33333 9.83333ZM8 12.5C6.98867 12.5 6.16667 11.678 6.16667 10.6667C6.16667 9.65533 6.98867 8.83333 8 8.83333C9.01133 8.83333 9.83333 9.65533 9.83333 10.6667C9.83333 11.678 9.01133 12.5 8 12.5ZM8 9.83333C7.54067 9.83333 7.16667 10.2073 7.16667 10.6667C7.16667 11.126 7.54067 11.5 8 11.5C8.45933 11.5 8.83333 11.126 8.83333 10.6667C8.83333 10.2073 8.45933 9.83333 8 9.83333ZM12.6667 12.5C11.6553 12.5 10.8333 11.678 10.8333 10.6667C10.8333 9.65533 11.6553 8.83333 12.6667 8.83333C13.678 8.83333 14.5 9.65533 14.5 10.6667C14.5 11.678 13.678 12.5 12.6667 12.5ZM12.6667 9.83333C12.2073 9.83333 11.8333 10.2073 11.8333 10.6667C11.8333 11.126 12.2073 11.5 12.6667 11.5C13.126 11.5 13.5 11.126 13.5 10.6667C13.5 10.2073 13.126 9.83333 12.6667 9.83333Z" fill="#3B3B3E"/>
</svg>
