<svg width="16" height="16" viewBox="0 0 16 16" fill="none" xmlns="http://www.w3.org/2000/svg">
<path d="M11.75 1.5H4.25C2.47667 1.5 1.5 2.47667 1.5 4.25V11.75C1.5 13.5233 2.47667 14.5 4.25 14.5H11.75C13.5233 14.5 14.5 13.5233 14.5 11.75V4.25C14.5 2.47667 13.5233 1.5 11.75 1.5ZM13.5 11.75C13.5 12.9767 12.9767 13.5 11.75 13.5H4.25C3.02333 13.5 2.5 12.9767 2.5 11.75V4.25C2.5 3.02333 3.02333 2.5 4.25 2.5H11.75C12.9767 2.5 13.5 3.02333 13.5 4.25V11.75ZM11.8333 7.61605V9.53597C11.8333 9.6013 11.82 9.66604 11.7947 9.72738C11.744 9.84938 11.6467 9.94671 11.5247 9.99805C11.4633 10.0234 11.3987 10.0366 11.3333 10.0366H9.41333C9.13733 10.0366 8.91333 9.81262 8.91333 9.53662C8.91333 9.26062 9.13733 9.03662 9.41333 9.03662H10.1267L8.61466 7.52474C8.58466 7.49541 8.53667 7.49607 8.50667 7.52474L7.52401 8.50732C7.10467 8.92732 6.42133 8.92732 6.00199 8.50732L4.31266 6.81803C4.11733 6.6227 4.11733 6.30601 4.31266 6.11068C4.508 5.91534 4.82467 5.91534 5.02 6.11068L6.70933 7.79997C6.73466 7.8253 6.79201 7.82597 6.81734 7.79997L7.80001 6.81738C8.20668 6.41138 8.916 6.41205 9.322 6.81738L10.834 8.32926V7.61605C10.834 7.34005 11.058 7.11605 11.334 7.11605C11.61 7.11605 11.8333 7.34005 11.8333 7.61605Z" fill="#3B3B3E"/>
</svg>
