<svg width="16" height="16" viewBox="0 0 16 16" fill="none" xmlns="http://www.w3.org/2000/svg">
<path d="M11.7956 8.80827C11.8722 8.99493 11.8302 9.21036 11.6868 9.35303L9.68685 11.353C9.58952 11.4504 9.4615 11.4997 9.3335 11.4997C9.2055 11.4997 9.07748 11.451 8.98014 11.353C8.78481 11.1577 8.78481 10.841 8.98014 10.6457L10.1268 9.49902H6.00016C5.72416 9.49902 5.50016 9.27502 5.50016 8.99902C5.50016 8.72302 5.72416 8.49902 6.00016 8.49902H11.3335C11.5362 8.49969 11.7182 8.6216 11.7956 8.80827ZM10.5002 6.99967C10.5002 6.72367 10.2762 6.49967 10.0002 6.49967H5.87419L7.02083 5.35303C7.21617 5.15769 7.21617 4.841 7.02083 4.64567C6.8255 4.45034 6.50881 4.45034 6.31348 4.64567L4.31348 6.64567C4.17014 6.78834 4.12809 7.0036 4.20475 7.19027C4.28209 7.37693 4.46483 7.49902 4.66683 7.49902H10.0002C10.2762 7.49969 10.5002 7.27567 10.5002 6.99967ZM15.1668 7.99967C15.1668 11.9517 11.9522 15.1663 8.00016 15.1663C4.04816 15.1663 0.833496 11.9517 0.833496 7.99967C0.833496 4.04767 4.04816 0.833008 8.00016 0.833008C11.9522 0.833008 15.1668 4.04767 15.1668 7.99967ZM14.1668 7.99967C14.1668 4.59901 11.4008 1.83301 8.00016 1.83301C4.5995 1.83301 1.8335 4.59901 1.8335 7.99967C1.8335 11.4003 4.5995 14.1663 8.00016 14.1663C11.4008 14.1663 14.1668 11.4003 14.1668 7.99967Z" fill="#3B3B3E"/>
</svg>
