<svg width="16" height="16" viewBox="0 0 16 16" fill="none" xmlns="http://www.w3.org/2000/svg">
<path d="M9.16667 8.13968C8.90667 8.04635 8.76665 7.76634 8.85998 7.50634C9.06665 6.90634 9.63331 6.49967 10.2733 6.49967C10.9133 6.49967 11.48 6.89967 11.6867 7.50634C11.7734 7.76634 11.64 8.05301 11.38 8.13968C11.3267 8.15968 11.2733 8.16634 11.2133 8.16634C11.0067 8.16634 10.8133 8.03968 10.74 7.82634C10.6733 7.63301 10.48 7.49967 10.2733 7.49967C10.0666 7.49967 9.87335 7.63301 9.80668 7.82634C9.72001 8.08634 9.43334 8.22634 9.17334 8.13301L9.16667 8.13968ZM7.13334 7.50634C6.92667 6.90634 6.36001 6.49967 5.72001 6.49967C5.08001 6.49967 4.51335 6.89967 4.30668 7.50634C4.22001 7.76634 4.35332 8.05301 4.61332 8.13968C4.87999 8.23301 5.16 8.09301 5.24666 7.83301C5.31333 7.63967 5.50667 7.50634 5.71334 7.50634C5.92 7.50634 6.11335 7.63967 6.18001 7.83301C6.25335 8.03967 6.44665 8.173 6.65332 8.173C6.70665 8.173 6.75999 8.16634 6.81999 8.14634C7.07999 8.05301 7.22 7.77301 7.12667 7.51301L7.13334 7.50634ZM6.49333 10.9997C6.49333 10.173 7.16666 9.49967 7.99333 9.49967C8.81999 9.49967 9.49333 10.173 9.49333 10.9997C9.49333 11.8263 8.81999 12.4997 7.99333 12.4997C7.16666 12.4997 6.49333 11.8263 6.49333 10.9997ZM7.49333 10.9997C7.49333 11.273 7.71999 11.4997 7.99333 11.4997C8.26666 11.4997 8.49333 11.273 8.49333 10.9997C8.49333 10.7263 8.26666 10.4997 7.99333 10.4997C7.71999 10.4997 7.49333 10.7263 7.49333 10.9997ZM14.36 5.99301C14.0933 6.05968 13.9267 6.32634 13.9933 6.59967C14.1067 7.04634 14.16 7.51301 14.16 7.99967C14.16 11.3997 11.3933 14.1663 7.99333 14.1663C4.59333 14.1663 1.82666 11.3997 1.82666 7.99967C1.82666 4.59967 4.59333 1.83301 7.99333 1.83301C8.59999 1.83301 9.20665 1.91967 9.77999 2.09967C10.0467 2.17967 10.3267 2.033 10.4067 1.76634C10.4867 1.49967 10.34 1.21968 10.0733 1.13968C9.39999 0.933012 8.69999 0.833008 7.99333 0.833008C4.03999 0.833008 0.82666 4.04634 0.82666 7.99967C0.82666 11.953 4.03999 15.1663 7.99333 15.1663C11.9467 15.1663 15.16 11.953 15.16 7.99967C15.16 7.43301 15.0933 6.88634 14.9667 6.35967C14.9 6.093 14.6267 5.92634 14.36 5.99301V5.99301ZM12.7933 1.83301H13.4533L12.44 2.84634C12.3 2.98634 12.2533 3.20634 12.3333 3.39301C12.4133 3.57967 12.5933 3.69968 12.7933 3.69968H14.66C14.9333 3.69968 15.16 3.47301 15.16 3.19968C15.16 2.92634 14.9333 2.69968 14.66 2.69968H14L15.0133 1.68634C15.1533 1.54634 15.2 1.32635 15.12 1.13968C15.04 0.953012 14.86 0.833008 14.66 0.833008H12.7933C12.52 0.833008 12.2933 1.05967 12.2933 1.33301C12.2933 1.60634 12.52 1.83301 12.7933 1.83301ZM9.49333 3.51301C9.49333 3.78634 9.71999 4.01301 9.99333 4.01301H10.34L9.64001 4.71301C9.50001 4.85301 9.45332 5.07301 9.53332 5.25967C9.61332 5.44634 9.79333 5.56634 9.99333 5.56634H11.5467C11.82 5.56634 12.0467 5.33968 12.0467 5.06634C12.0467 4.79301 11.82 4.56634 11.5467 4.56634H11.2L11.9 3.86634C12.04 3.72634 12.0867 3.50634 12.0067 3.31967C11.9267 3.133 11.7467 3.01301 11.5467 3.01301H9.99333C9.71999 3.01301 9.49333 3.23968 9.49333 3.51301Z" fill="#3B3B3E"/>
</svg>
