<svg width="16" height="16" viewBox="0 0 16 16" fill="none" xmlns="http://www.w3.org/2000/svg">
<path d="M4.90739 6.33301C4.90739 6.05701 5.13139 5.83301 5.40739 5.83301H10.6667C10.9427 5.83301 11.1667 6.05701 11.1667 6.33301C11.1667 6.60901 10.9427 6.83301 10.6667 6.83301H5.40739C5.13139 6.83301 4.90739 6.60901 4.90739 6.33301ZM8 8.83301H5.33333C5.05733 8.83301 4.83333 9.05701 4.83333 9.33301C4.83333 9.60901 5.05733 9.83301 5.33333 9.83301H8C8.276 9.83301 8.5 9.60901 8.5 9.33301C8.5 9.05701 8.276 8.83301 8 8.83301ZM15.1667 7.8763C15.1667 9.1643 14.6654 10.3756 13.7547 11.2856L11.286 13.7543C10.3753 14.665 9.16395 15.1663 7.87728 15.1663C3.99328 15.1663 0.833984 12.007 0.833984 8.12305V7.8763C0.833984 3.9923 3.99328 0.833008 7.87728 0.833008H8.12337C12.0074 0.833008 15.1667 3.9923 15.1667 7.8763ZM7.87663 14.1663C8.25863 14.1663 8.62595 14.093 8.98128 13.9857V12.4437C8.98128 10.5344 10.5347 8.98104 12.444 8.98104H13.9854C14.0927 8.6257 14.166 8.2583 14.166 7.8763C14.166 4.54364 11.4554 1.83301 8.12272 1.83301H7.87663C4.54396 1.83301 1.83333 4.54364 1.83333 7.8763V8.12305C1.83333 11.4557 4.54396 14.1663 7.87663 14.1663ZM13.0474 10.5784C13.232 10.3944 13.394 10.1937 13.5347 9.98104H12.4447C11.0867 9.98104 9.98193 11.0857 9.98193 12.4437V13.5337C10.1939 13.393 10.3946 13.231 10.5793 13.047L13.0474 10.5784Z" fill="#3B3B3E"/>
</svg>
