<svg width="16" height="16" viewBox="0 0 16 16" fill="none" xmlns="http://www.w3.org/2000/svg">
<path d="M14 7.1853H10.6667C10.3907 7.1853 10.1667 6.9613 10.1667 6.6853C10.1667 6.4093 10.3907 6.1853 10.6667 6.1853H14C14.276 6.1853 14.5 6.4093 14.5 6.6853C14.5 6.9613 14.276 7.1853 14 7.1853ZM9.50602 4.33333C9.50602 2.77133 8.23536 1.5 6.67269 1.5C5.11002 1.5 3.83936 2.77133 3.83936 4.33333C3.83936 5.89533 5.11002 7.16667 6.67269 7.16667C8.23536 7.16667 9.50602 5.89533 9.50602 4.33333ZM8.50602 4.33333C8.50602 5.34467 7.68402 6.16667 6.67269 6.16667C5.66136 6.16667 4.83936 5.34467 4.83936 4.33333C4.83936 3.322 5.66136 2.5 6.67269 2.5C7.68402 2.5 8.50602 3.322 8.50602 4.33333ZM11.8333 12.0127C11.8333 10.2387 10.8293 8.16667 8 8.16667H5.33333C2.504 8.16667 1.5 10.238 1.5 12.0127C1.5 13.6167 2.3887 14.5 4.00203 14.5H9.3313C10.9446 14.5 11.8333 13.6167 11.8333 12.0127ZM8 9.16667C10.6287 9.16667 10.8333 11.3447 10.8333 12.0127C10.8333 13.0554 10.384 13.5 9.3313 13.5H4.00203C2.94937 13.5 2.5 13.0554 2.5 12.0127C2.5 11.3454 2.70467 9.16667 5.33333 9.16667H8Z" fill="#3B3B3E"/>
</svg>
