<svg width="16" height="16" viewBox="0 0 16 16" fill="none" xmlns="http://www.w3.org/2000/svg">
<path d="M11.75 14.5H4.25C2.47667 14.5 1.5 13.5233 1.5 11.75V4.25C1.5 2.47667 2.47667 1.5 4.25 1.5H11.75C13.5233 1.5 14.5 2.47667 14.5 4.25V11.75C14.5 13.5233 13.5233 14.5 11.75 14.5ZM4.25 2.5C3.02333 2.5 2.5 3.02333 2.5 4.25V11.75C2.5 12.9767 3.02333 13.5 4.25 13.5H11.75C12.9767 13.5 13.5 12.9767 13.5 11.75V4.25C13.5 3.02333 12.9767 2.5 11.75 2.5H4.25ZM10.4113 9.618C10.568 9.39133 10.5113 9.07936 10.2847 8.92269C10.0573 8.76469 9.7467 8.82265 9.5887 9.04932C9.2487 9.54065 8.68926 9.83398 8.09326 9.83398C7.08193 9.83398 6.25993 9.01198 6.25993 8.00065C6.25993 6.98932 7.08193 6.16732 8.09326 6.16732C8.68993 6.16732 9.2487 6.46065 9.5887 6.95199C9.7467 7.17865 10.0573 7.23728 10.2847 7.07861C10.512 6.92128 10.5686 6.60997 10.4113 6.3833C9.88396 5.62197 9.01728 5.16797 8.09261 5.16797C6.52994 5.16797 5.25928 6.4393 5.25928 8.0013C5.25928 9.5633 6.52994 10.8346 8.09261 10.8346C9.01728 10.8333 9.88396 10.3787 10.4113 9.618Z" fill="#3B3B3E"/>
</svg>
