<svg width="16" height="16" viewBox="0 0 16 16" fill="none" xmlns="http://www.w3.org/2000/svg">
<path d="M13.966 4.64866C13.5273 4.33266 12.954 4.32201 12.5047 4.62201L10.9607 5.65133C10.91 5.68533 10.86 5.67866 10.8353 5.67133C10.81 5.66466 10.7647 5.64467 10.7387 5.59001L9.15802 2.236C8.94402 1.782 8.50002 1.5 7.99802 1.5C7.99802 1.5 7.998 1.5 7.99733 1.5C7.49533 1.5 7.05134 1.78267 6.83734 2.23667L5.26137 5.58933C5.23537 5.64467 5.18933 5.66399 5.164 5.67133C5.13933 5.67866 5.09001 5.68533 5.03867 5.65133L3.49469 4.62201C3.04535 4.32268 2.47134 4.33333 2.03334 4.64866C1.59534 4.96466 1.40403 5.50533 1.54469 6.02L2.75734 10.708C2.92801 11.37 3.52537 11.8327 4.20937 11.8327H11.7894C12.4734 11.8327 13.0707 11.37 13.2413 10.708L14.452 6.026C14.5953 5.506 14.404 4.96466 13.966 4.64866ZM13.4867 5.77L12.274 10.4587C12.2174 10.6793 12.018 10.8333 11.79 10.8333H4.21002C3.98202 10.8333 3.78268 10.6793 3.72601 10.4587L2.51202 5.764C2.46535 5.59333 2.57136 5.49534 2.61936 5.46067C2.64869 5.43934 2.70936 5.40466 2.78603 5.40466C2.83269 5.40466 2.88534 5.418 2.94134 5.45467L4.48537 6.48401C4.7647 6.67068 5.11203 6.72533 5.43337 6.63533C5.7567 6.54533 6.024 6.31934 6.16733 6.01534L7.74334 2.66266C7.81201 2.51666 7.94467 2.50067 7.99867 2.50067C8.05267 2.50067 8.18534 2.51666 8.254 2.66266L9.83469 6.01666C9.97736 6.32 10.2447 6.54533 10.568 6.63533C10.8913 6.72467 11.2367 6.67001 11.516 6.48401L13.06 5.45467C13.2074 5.35667 13.334 5.42601 13.382 5.46067C13.4287 5.49467 13.5347 5.59333 13.4867 5.77ZM12.8334 13.3333C12.8334 13.6093 12.6094 13.8333 12.3334 13.8333H3.66668C3.39068 13.8333 3.16668 13.6093 3.16668 13.3333C3.16668 13.0573 3.39068 12.8333 3.66668 12.8333H12.3334C12.6094 12.8333 12.8334 13.0573 12.8334 13.3333Z" fill="#3B3B3E"/>
</svg>
