<svg width="16" height="16" viewBox="0 0 16 16" fill="none" xmlns="http://www.w3.org/2000/svg">
<path d="M6.67269 7.16667C5.11002 7.16667 3.83936 5.89533 3.83936 4.33333C3.83936 2.77133 5.11002 1.5 6.67269 1.5C8.23536 1.5 9.50602 2.77133 9.50602 4.33333C9.50602 5.89533 8.23536 7.16667 6.67269 7.16667ZM6.67269 2.5C5.66136 2.5 4.83936 3.322 4.83936 4.33333C4.83936 5.34467 5.66136 6.16667 6.67269 6.16667C7.68402 6.16667 8.50602 5.34467 8.50602 4.33333C8.50602 3.322 7.68336 2.5 6.67269 2.5ZM7.33333 14.5H4C2.388 14.5 1.5 13.6167 1.5 12.0133C1.5 10.2387 2.504 8.16667 5.33333 8.16667H8C8.568 8.16667 9.07536 8.24936 9.50936 8.41203C9.76802 8.50936 9.89868 8.79732 9.80135 9.05599C9.70402 9.31466 9.41664 9.44532 9.15731 9.34798C8.83731 9.22732 8.44733 9.16667 8 9.16667H5.33333C2.70467 9.16667 2.5 11.346 2.5 12.0133C2.5 13.0553 2.94867 13.5 4 13.5H7.33333C7.60933 13.5 7.83333 13.724 7.83333 14C7.83333 14.276 7.60933 14.5 7.33333 14.5ZM13.438 15.1193C13.31 15.1193 13.1807 15.0893 13.0614 15.0273L12 14.4814L10.9394 15.0273C10.6587 15.1713 10.3274 15.144 10.0754 14.958C9.82536 14.774 9.70332 14.4707 9.75732 14.1667L9.95671 13.0267L9.07869 12.188C8.85803 11.9787 8.77869 11.668 8.87069 11.3787C8.96402 11.0867 9.212 10.878 9.51733 10.8346L10.7414 10.6606L11.268 9.61532C11.4073 9.33865 11.688 9.16732 12 9.16732C12.312 9.16732 12.5927 9.3393 12.732 9.61597L13.2586 10.6613L14.4827 10.8354C14.788 10.8787 15.036 11.0866 15.1293 11.3793C15.222 11.6693 15.1426 11.9794 14.9213 12.1894L14.044 13.0273L14.244 14.1687C14.2973 14.4734 14.1746 14.776 13.9253 14.96C13.78 15.0653 13.6093 15.1193 13.438 15.1193ZM12 13.4567C12.126 13.4567 12.252 13.486 12.3673 13.5453L13.1934 13.9707L13.0387 13.0867C12.994 12.8253 13.0806 12.562 13.272 12.38L13.918 11.764L13.0146 11.636C12.7553 11.5993 12.5306 11.438 12.4146 11.2053L12.0013 10.3853L11.5873 11.2067C11.4713 11.438 11.2467 11.5987 10.988 11.636L10.0846 11.764L10.7306 12.3807C10.9213 12.5627 11.0087 12.826 10.9647 13.0854L10.81 13.9707L11.636 13.5453C11.748 13.486 11.874 13.4567 12 13.4567ZM14.342 11.8247H14.3486H14.342ZM10.6926 10.7567L10.692 10.7573L10.6926 10.7567ZM13.3066 10.7554L13.3074 10.756C13.3067 10.756 13.3066 10.7554 13.3066 10.7554Z" fill="#3B3B3E"/>
</svg>
