<svg width="16" height="16" viewBox="0 0 16 16" fill="none" xmlns="http://www.w3.org/2000/svg">
<path d="M11.75 1.5H4.25C2.47667 1.5 1.5 2.47667 1.5 4.25V11.75C1.5 13.5233 2.47667 14.5 4.25 14.5H11.75C13.5233 14.5 14.5 13.5233 14.5 11.75V4.25C14.5 2.47667 13.5233 1.5 11.75 1.5ZM13.5 11.75C13.5 12.9767 12.9767 13.5 11.75 13.5H4.25C3.02333 13.5 2.5 12.9767 2.5 11.75V4.25C2.5 3.02333 3.02333 2.5 4.25 2.5H11.75C12.9767 2.5 13.5 3.02333 13.5 4.25V11.75ZM11.1667 8C11.1667 8.276 10.9427 8.5 10.6667 8.5H6.54069L7.68734 9.64665C7.88267 9.84198 7.88267 10.1587 7.68734 10.354C7.59 10.4513 7.46198 10.5007 7.33398 10.5007C7.20598 10.5007 7.07797 10.452 6.98063 10.354L4.98063 8.354C4.93463 8.308 4.89805 8.25274 4.87272 8.19141C4.82205 8.06941 4.82205 7.93141 4.87272 7.80941C4.89805 7.74807 4.93463 7.69265 4.98063 7.64665L6.98063 5.64665C7.17597 5.45131 7.49266 5.45131 7.68799 5.64665C7.88332 5.84198 7.88332 6.15867 7.68799 6.354L6.54134 7.50065H10.6667C10.9427 7.49998 11.1667 7.724 11.1667 8Z" fill="#3B3B3E"/>
</svg>
