<svg width="16" height="16" viewBox="0 0 16 16" fill="none" xmlns="http://www.w3.org/2000/svg">
<path d="M14 1.5H2C1.724 1.5 1.5 1.724 1.5 2C1.5 2.276 1.724 2.5 2 2.5H2.5V8.66667C2.5 10.2787 3.388 11.1667 5 11.1667H7.5V12.3993L5.72266 13.584C5.49266 13.7373 5.43065 14.0473 5.58398 14.2773C5.73665 14.5067 6.04668 14.5693 6.27734 14.416L8 13.2673L9.72266 14.416C9.80799 14.4727 9.90402 14.5 9.99935 14.5C10.1607 14.5 10.3193 14.422 10.416 14.2773C10.5687 14.0473 10.5073 13.7373 10.2773 13.584L8.5 12.3993V11.1667H11C12.612 11.1667 13.5 10.2787 13.5 8.66667V2.5H14C14.276 2.5 14.5 2.276 14.5 2C14.5 1.724 14.276 1.5 14 1.5ZM12.5 8.66667C12.5 9.718 12.0513 10.1667 11 10.1667H5C3.94867 10.1667 3.5 9.718 3.5 8.66667V2.5H12.5V8.66667ZM6.64335 6.17464C6.44402 5.91931 6.33333 5.59198 6.33333 5.25798C6.33333 4.54131 6.834 3.94266 7.5 3.79533V3.66667C7.5 3.39067 7.724 3.16667 8 3.16667C8.276 3.16667 8.5 3.39067 8.5 3.66667V3.79663C9.11 3.9313 9.58535 4.44201 9.65735 5.09334C9.68802 5.36801 9.49 5.61535 9.21533 5.64535C8.948 5.67335 8.69398 5.47804 8.66398 5.20337C8.63598 4.95004 8.42935 4.75936 8.18335 4.75936H7.816C7.55 4.75936 7.33268 4.98264 7.33268 5.25798C7.33268 5.37131 7.36867 5.47996 7.434 5.56396C7.50333 5.65463 7.59466 5.71534 7.69999 5.74268L8.54468 5.95532C9.20534 6.12532 9.66602 6.72269 9.66602 7.40869C9.66602 7.80669 9.51267 8.18201 9.23267 8.46468C9.02933 8.67201 8.77535 8.81002 8.49935 8.87069V8.99935C8.49935 9.27535 8.27535 9.49935 7.99935 9.49935C7.72335 9.49935 7.49935 9.27535 7.49935 8.99935V8.8693C6.88935 8.73464 6.414 8.22401 6.342 7.57267C6.31133 7.29801 6.50935 7.05067 6.78402 7.02067C7.05535 6.99134 7.30533 7.18798 7.33533 7.46265C7.36333 7.71598 7.57 7.90666 7.816 7.90666H8.18335C8.30935 7.90666 8.42934 7.85536 8.52067 7.7627C8.61534 7.6667 8.66667 7.54137 8.66667 7.40804C8.66667 7.17871 8.51467 6.97934 8.29867 6.92334L7.45402 6.71069C7.13202 6.62803 6.84468 6.43798 6.64335 6.17464Z" fill="#3B3B3E"/>
</svg>
