<svg width="16" height="16" viewBox="0 0 16 16" fill="none" xmlns="http://www.w3.org/2000/svg">
<path d="M3.52018 7.71382V12.3338C3.52018 12.6071 3.29352 12.8338 3.02018 12.8338C2.74685 12.8338 2.52018 12.6071 2.52018 12.3338V7.71382C1.55352 7.48715 0.833496 6.62714 0.833496 5.59381V3.66714C0.833496 3.39381 1.06016 3.16714 1.3335 3.16714C1.60683 3.16714 1.8335 3.39381 1.8335 3.66714V5.59381C1.8335 6.06714 2.11352 6.47381 2.52018 6.66714V3.67381C2.52018 3.40047 2.74685 3.17381 3.02018 3.17381C3.29352 3.17381 3.52018 3.40047 3.52018 3.67381V6.66714C3.92685 6.48048 4.20683 6.07381 4.20683 5.59381V3.66714C4.20683 3.39381 4.43349 3.16714 4.70683 3.16714C4.98016 3.16714 5.20683 3.39381 5.20683 3.66714V5.59381C5.20683 6.62714 4.48685 7.48715 3.52018 7.71382ZM15.1668 3.33381V12.6671C15.1668 12.9405 14.9402 13.1671 14.6668 13.1671C14.3935 13.1671 14.1668 12.9405 14.1668 12.6671V9.83381H12.5935C12.1735 9.83381 11.8335 9.49381 11.8335 9.07381V6.44714C11.8335 2.88048 14.6402 2.83381 14.6668 2.83381C14.9402 2.83381 15.1668 3.06048 15.1668 3.33381V3.33381ZM14.1668 3.93381C13.6202 4.13381 12.8335 4.71381 12.8335 6.44714V8.83381H14.1668V3.93381V3.93381ZM11.4135 10.3805C10.6402 11.5005 9.36016 12.1671 8.00016 12.1671C6.64016 12.1671 5.36017 11.5005 4.59351 10.3871C4.44017 10.1605 4.12681 10.1005 3.90015 10.2605C3.67348 10.4138 3.61348 10.7271 3.77348 10.9538C4.72681 12.3405 6.30684 13.1738 8.00684 13.1738C9.70684 13.1738 11.2868 12.3471 12.2468 10.9605C12.4068 10.7338 12.3468 10.4205 12.1202 10.2671C11.8935 10.1071 11.5802 10.1671 11.4268 10.3938L11.4135 10.3805ZM6.2135 4.23382C6.76683 3.96715 7.36682 3.82715 7.99349 3.82715C9.08682 3.82715 10.1201 4.24715 10.9001 5.01381C11.0001 5.10715 11.1268 5.16048 11.2535 5.16048C11.3802 5.16048 11.5135 5.11381 11.6068 5.01381C11.8001 4.81381 11.8001 4.50048 11.6068 4.30715C10.6401 3.35382 9.35349 2.82715 7.99349 2.82715C7.21349 2.82715 6.46681 2.99382 5.77348 3.32715C5.52681 3.44715 5.42016 3.74715 5.54016 3.99382C5.66016 4.24048 5.96016 4.34714 6.20683 4.22714L6.2135 4.23382ZM7.99349 5.16048C9.55349 5.16048 10.8268 6.43382 10.8268 7.99382C10.8268 9.55382 9.55349 10.8271 7.99349 10.8271C6.43349 10.8271 5.16016 9.55382 5.16016 7.99382C5.16016 6.43382 6.43349 5.16048 7.99349 5.16048ZM7.99349 6.16048C6.98016 6.16048 6.16016 6.98048 6.16016 7.99382C6.16016 9.00715 6.98016 9.82715 7.99349 9.82715C9.00682 9.82715 9.82682 9.00715 9.82682 7.99382C9.82682 6.98048 9.00682 6.16048 7.99349 6.16048Z" fill="#3B3B3E"/>
</svg>
