<svg width="16" height="16" viewBox="0 0 16 16" fill="none" xmlns="http://www.w3.org/2000/svg">
<path d="M7.99992 13.167H3.33325C1.72125 13.167 0.833252 12.279 0.833252 10.667V4.66699C0.833252 3.05499 1.72125 2.16699 3.33325 2.16699H11.3333C12.9453 2.16699 13.8333 3.05499 13.8333 4.66699V7.33366C13.8333 7.60966 13.6093 7.83366 13.3333 7.83366C13.0573 7.83366 12.8333 7.60966 12.8333 7.33366V4.66699C12.8333 3.61566 12.3846 3.16699 11.3333 3.16699H3.33325C2.28192 3.16699 1.83325 3.61566 1.83325 4.66699V10.667C1.83325 11.7183 2.28192 12.167 3.33325 12.167H7.99992C8.27592 12.167 8.49992 12.391 8.49992 12.667C8.49992 12.943 8.27592 13.167 7.99992 13.167ZM8.01929 8.11966L11.2939 5.73832C11.5172 5.57632 11.5666 5.263 11.4039 5.03966C11.2426 4.817 10.93 4.76632 10.7053 4.92966L7.43058 7.31099C7.37192 7.35366 7.29394 7.35366 7.23527 7.31099L3.96053 4.92966C3.73586 4.76632 3.4233 4.81766 3.26196 5.03966C3.0993 5.263 3.14866 5.57566 3.37199 5.73832L6.64657 8.12032C6.8519 8.26965 7.0926 8.34366 7.3326 8.34366C7.5726 8.34366 7.81462 8.26899 8.01929 8.11966ZM13.3513 13.913C13.3513 13.817 13.4066 13.7263 13.4973 13.6757C13.5933 13.621 13.7133 13.6203 13.8106 13.6757C14.0906 13.833 14.4392 13.741 14.6059 13.4643L15.0499 12.7183C15.1199 12.6023 15.1493 12.399 15.1153 12.2677C15.0753 12.115 14.9732 11.9837 14.8352 11.9063C14.8325 11.905 14.8299 11.9037 14.8272 11.9023C14.7419 11.851 14.6886 11.7617 14.6886 11.6683C14.6886 11.571 14.7446 11.479 14.8339 11.4283L14.9112 11.385C15.0285 11.319 15.1147 11.2083 15.1493 11.0783C15.184 10.9483 15.1646 10.809 15.0959 10.6937L14.5613 9.79633C14.4219 9.56366 14.124 9.48366 13.8873 9.61566L13.81 9.659C13.7126 9.71366 13.5932 9.71299 13.4958 9.65832C13.4058 9.60832 13.3505 9.51699 13.3505 9.42099C13.3505 9.09699 13.0867 8.83366 12.7607 8.83366H11.8712C11.5458 8.83366 11.2813 9.09699 11.2813 9.42099C11.2813 9.51699 11.226 9.60832 11.1366 9.65832C11.0386 9.71366 10.9179 9.71233 10.8219 9.659C10.5452 9.50433 10.1866 9.59832 10.0273 9.87032L9.57918 10.6217C9.51118 10.7377 9.4833 10.9403 9.51864 11.0703C9.5593 11.2217 9.66125 11.3523 9.79858 11.429C9.88792 11.4797 9.94391 11.571 9.94458 11.667C9.94458 11.7643 9.88863 11.8557 9.79663 11.9077C9.6593 11.985 9.55798 12.117 9.51798 12.269C9.48332 12.3983 9.51263 12.601 9.5813 12.7163L10.0279 13.4663C10.1912 13.7397 10.5405 13.833 10.8225 13.6763C10.9192 13.6223 11.0385 13.6217 11.1352 13.6763C11.2245 13.7263 11.2805 13.817 11.2805 13.9137C11.2805 14.2377 11.5445 14.501 11.8705 14.501H12.7613C13.0873 14.5003 13.3513 14.237 13.3513 13.913ZM11.6278 12.8043C11.3485 12.6463 11.0213 12.599 10.7146 12.6617L10.6233 12.509C10.8286 12.2783 10.9459 11.9783 10.9452 11.663C10.9439 11.3517 10.826 11.055 10.6226 10.8257L10.7146 10.6717C11.0233 10.7343 11.3493 10.6863 11.6287 10.5297C11.906 10.373 12.1113 10.1237 12.212 9.83366H12.4213C12.522 10.123 12.7273 10.373 13.0046 10.529C13.284 10.687 13.6099 10.7343 13.9192 10.6717L14.0107 10.825C13.806 11.0557 13.6886 11.3543 13.6886 11.669C13.6892 11.9817 13.8073 12.279 14.0107 12.5083L13.9185 12.6617C13.6125 12.5997 13.2846 12.6463 13.0053 12.8043C12.728 12.961 12.522 13.211 12.4213 13.5003H12.212C12.1113 13.211 11.9058 12.961 11.6278 12.8043ZM10.8892 10.379L10.8866 10.3837C10.8873 10.3823 10.8886 10.381 10.8892 10.379ZM13.0133 11.667C13.0133 11.299 12.7153 11.0003 12.3466 11.0003H12.3399C11.9719 11.0003 11.6765 11.299 11.6765 11.667C11.6765 12.035 11.9786 12.3337 12.3466 12.3337C12.7146 12.3337 13.0133 12.035 13.0133 11.667Z" fill="#3B3B3E"/>
</svg>
