<svg width="16" height="16" viewBox="0 0 16 16" fill="none" xmlns="http://www.w3.org/2000/svg">
<path d="M2.67002 14.4993C2.36535 14.4993 2.06947 14.3793 1.84547 14.1553C1.52947 13.84 1.4208 13.382 1.5608 12.9607L2.12135 11.2933C2.18668 11.0887 2.18076 10.8833 2.1041 10.7213C1.70943 9.87265 1.5027 8.93268 1.5027 7.99935C1.5027 4.41602 4.41806 1.5 8.0014 1.5C11.5854 1.5 14.5007 4.41535 14.5007 7.99935C14.5007 8.24668 14.4868 8.48599 14.4575 8.72599C14.4241 8.99999 14.1828 9.19332 13.9008 9.16199C13.6268 9.12865 13.4314 8.87935 13.4654 8.60535C13.4894 8.40535 13.5014 8.20535 13.5014 7.99935C13.5014 4.96735 11.0347 2.5 8.00205 2.5C4.97005 2.5 2.50335 4.96668 2.50335 7.99935C2.50335 8.78802 2.67869 9.582 3.01002 10.2953C3.19402 10.6827 3.21817 11.1487 3.0735 11.604L2.51084 13.278C2.48284 13.3613 2.52548 13.4206 2.55348 13.4486C2.58148 13.4766 2.64137 13.5193 2.7247 13.4913L4.39007 12.932C4.85273 12.7847 5.32004 12.8073 5.71071 12.9947C6.41937 13.324 7.21338 13.4993 8.00205 13.4993C8.27805 13.4993 8.50205 13.7233 8.50205 13.9993C8.50205 14.2753 8.27805 14.4993 8.00205 14.4993C7.06871 14.4993 6.12941 14.292 5.28541 13.8993C5.12008 13.8207 4.91408 13.8147 4.70208 13.8827L3.04274 14.44C2.91874 14.4793 2.79335 14.4993 2.67002 14.4993ZM12.1314 14.3534L14.3534 12.1313C14.5488 11.936 14.5488 11.6193 14.3534 11.424C14.1581 11.2287 13.8414 11.2287 13.6461 11.424L11.7774 13.2927L11.0195 12.5353C10.8241 12.34 10.5074 12.34 10.3121 12.5353C10.1168 12.7307 10.1168 13.0473 10.3121 13.2427L11.4234 14.354C11.5208 14.4513 11.6488 14.5007 11.7768 14.5007C11.9048 14.5007 12.0341 14.4514 12.1314 14.3534Z" fill="#3B3B3E"/>
</svg>
