<svg width="16" height="16" viewBox="0 0 16 16" fill="none" xmlns="http://www.w3.org/2000/svg">
<path d="M13.6866 5.64667L9.68661 1.64667C9.59261 1.55267 9.46592 1.5 9.33325 1.5H5.33325C3.72125 1.5 2.83325 2.388 2.83325 4V12C2.83325 13.612 3.72125 14.5 5.33325 14.5H11.3333C12.9453 14.5 13.8333 13.612 13.8333 12V6C13.8333 5.86733 13.7806 5.74 13.6866 5.64667ZM9.83325 3.20734L12.1259 5.5H11.3333C10.2819 5.5 9.83325 5.05133 9.83325 4V3.20734ZM11.3333 13.5H5.33325C4.28192 13.5 3.83325 13.0513 3.83325 12V4C3.83325 2.94867 4.28192 2.5 5.33325 2.5H8.83325V4C8.83325 5.612 9.72125 6.5 11.3333 6.5H12.8333V12C12.8333 13.0513 12.3846 13.5 11.3333 13.5ZM7.01994 9.68667L6.03996 10.6667L7.01994 11.6467C7.21527 11.842 7.21527 12.1587 7.01994 12.354C6.9226 12.4513 6.79459 12.5007 6.66659 12.5007C6.53859 12.5007 6.41057 12.452 6.31323 12.354L4.9799 11.0207C4.78457 10.8253 4.78457 10.5087 4.9799 10.3133L6.31323 8.98C6.50857 8.78467 6.82526 8.78467 7.02059 8.98C7.21592 9.17533 7.21527 9.49133 7.01994 9.68667ZM10.3533 10.3133C10.5486 10.5087 10.5486 10.8253 10.3533 11.0207L9.01994 12.354C8.92261 12.4513 8.79459 12.5007 8.66659 12.5007C8.53859 12.5007 8.41057 12.452 8.31323 12.354C8.1179 12.1587 8.1179 11.842 8.31323 11.6467L9.29321 10.6667L8.31323 9.68667C8.1179 9.49133 8.1179 9.17466 8.31323 8.97933C8.50857 8.784 8.82526 8.784 9.02059 8.97933L10.3533 10.3133Z" fill="#3B3B3E"/>
</svg>
