<svg width="16" height="16" viewBox="0 0 16 16" fill="none" xmlns="http://www.w3.org/2000/svg">
<path d="M2.66663 13.8332C2.53863 13.8332 2.41063 13.7845 2.31329 13.6865C2.11796 13.4912 2.11796 13.1745 2.31329 12.9792L12.98 2.31252C13.1753 2.11718 13.492 2.11718 13.6873 2.31252C13.8826 2.50785 13.8826 2.82454 13.6873 3.01987L3.02063 13.6865C2.92263 13.7845 2.79463 13.8332 2.66663 13.8332ZM13.8333 11.6665C13.8333 10.4719 12.8613 9.49985 11.6666 9.49985C10.472 9.49985 9.49996 10.4719 9.49996 11.6665C9.49996 12.8612 10.472 13.8332 11.6666 13.8332C12.8613 13.8332 13.8333 12.8612 13.8333 11.6665ZM12.8333 11.6665C12.8333 12.3099 12.31 12.8332 11.6666 12.8332C11.0233 12.8332 10.5 12.3099 10.5 11.6665C10.5 11.0232 11.0233 10.4999 11.6666 10.4999C12.31 10.4999 12.8333 11.0232 12.8333 11.6665ZM6.49996 4.33319C6.49996 3.13852 5.52796 2.16652 4.33329 2.16652C3.13863 2.16652 2.16663 3.13852 2.16663 4.33319C2.16663 5.52785 3.13863 6.49985 4.33329 6.49985C5.52796 6.49985 6.49996 5.52785 6.49996 4.33319ZM5.49996 4.33319C5.49996 4.97652 4.97663 5.49985 4.33329 5.49985C3.68996 5.49985 3.16663 4.97652 3.16663 4.33319C3.16663 3.68985 3.68996 3.16652 4.33329 3.16652C4.97663 3.16652 5.49996 3.68985 5.49996 4.33319Z" fill="#3B3B3E"/>
</svg>
