<svg width="16" height="16" viewBox="0 0 16 16" fill="none" xmlns="http://www.w3.org/2000/svg">
<path d="M10.6667 13.1667H6.33333C3.668 13.1667 1.5 10.9987 1.5 8.33333C1.5 5.668 3.668 3.5 6.33333 3.5C7.50933 3.5 8.64272 3.92799 9.52539 4.70532C9.80139 4.94866 10.0474 5.22202 10.2614 5.52002C10.3954 5.50602 10.5293 5.49935 10.6667 5.49935C12.7807 5.49935 14.5 7.21868 14.5 9.33268C14.5 11.4467 12.7807 13.1667 10.6667 13.1667ZM6.33333 4.5C4.21933 4.5 2.5 6.21933 2.5 8.33333C2.5 10.4473 4.21933 12.1667 6.33333 12.1667H10.6667C12.2293 12.1667 13.5 10.896 13.5 9.33333C13.5 7.77067 12.2293 6.5 10.6667 6.5C10.478 6.5 10.2966 6.51668 10.1126 6.55135C9.9113 6.59002 9.70338 6.49867 9.59538 6.32267C9.39538 5.99934 9.14927 5.70735 8.86393 5.45601C8.1646 4.83935 7.26533 4.5 6.33333 4.5ZM7.90869 10.2427L9.68669 8.46468C9.88202 8.26935 9.88202 7.95266 9.68669 7.75732C9.49135 7.56199 9.17466 7.56199 8.97933 7.75732L7.55469 9.18132L7.01937 8.646C6.82404 8.45066 6.50735 8.45066 6.31201 8.646C6.11668 8.84133 6.11668 9.15802 6.31201 9.35335L7.20068 10.242C7.29468 10.336 7.42137 10.3887 7.55404 10.3887C7.68804 10.3887 7.81536 10.336 7.90869 10.2427Z" fill="#3B3B3E"/>
</svg>
