<svg width="16" height="16" viewBox="0 0 16 16" fill="none" xmlns="http://www.w3.org/2000/svg">
<path d="M12 1.5H4C2.388 1.5 1.5 2.388 1.5 4V14C1.5 14.202 1.62193 14.3847 1.80859 14.462C1.87059 14.488 1.93533 14.5 2 14.5C2.13 14.5 2.25802 14.4494 2.35335 14.3534L4.20671 12.5H12C13.612 12.5 14.5 11.612 14.5 10V4C14.5 2.388 13.612 1.5 12 1.5ZM13.5 10C13.5 11.0513 13.0513 11.5 12 11.5H4C3.86733 11.5 3.73998 11.5526 3.64665 11.6466L2.5 12.7933V4C2.5 2.94867 2.94867 2.5 4 2.5H12C13.0513 2.5 13.5 2.94867 13.5 4V10ZM9.72266 5.60335C9.84599 6.30469 9.55265 6.93135 8.89665 7.36735C8.52598 7.61402 8.47531 7.73864 8.47331 7.74398C8.39797 7.94531 8.20338 8.07471 7.99805 8.07471C7.94338 8.07471 7.88864 8.06531 7.83464 8.04598C7.57797 7.95465 7.43871 7.68201 7.52604 7.42334C7.66138 7.02334 8.0566 6.72467 8.34326 6.53467C8.76726 6.25267 8.77194 5.96669 8.73861 5.77669C8.68661 5.48269 8.43529 5.2307 8.14063 5.17936C7.91663 5.1387 7.69205 5.19663 7.51872 5.34196C7.34805 5.48529 7.25065 5.69467 7.25065 5.91667C7.25065 6.19267 7.02665 6.41667 6.75065 6.41667C6.47465 6.41667 6.25065 6.19267 6.25065 5.91667C6.25065 5.398 6.47864 4.90934 6.87598 4.57601C7.27331 4.24268 7.79597 4.10268 8.31397 4.19401C9.01863 4.31801 9.59799 4.89735 9.72266 5.60335ZM8.68001 9.33333C8.68001 9.70133 8.38201 10 8.01335 10C7.64535 10 7.34326 9.70133 7.34326 9.33333C7.34326 8.96533 7.63867 8.66667 8.00667 8.66667H8.01335C8.38135 8.66667 8.68001 8.96533 8.68001 9.33333Z" fill="#3B3B3E"/>
</svg>
