<svg width="16" height="16" viewBox="0 0 16 16" fill="none" xmlns="http://www.w3.org/2000/svg">
<path d="M9.16488 13.2643C9.18954 13.5397 8.98609 13.7823 8.71143 13.807C7.70743 13.8976 6.66747 13.793 5.73747 13.5156C4.82813 14.307 3.57612 14.5003 2.57145 14.5003C2.47479 14.5003 2.3809 14.499 2.2889 14.4957C1.95557 14.4877 1.66348 14.2743 1.54948 13.9523C1.43481 13.6283 1.52955 13.2757 1.78955 13.0544C2.41088 12.553 2.65944 11.9983 2.75944 11.6177C1.93477 10.6317 1.49951 9.38698 1.49951 8.00098C1.49951 4.56564 4.17285 2.16699 7.99951 2.16699C11.8262 2.16699 14.4995 4.56631 14.4995 8.00098C14.4995 8.27698 14.2755 8.50098 13.9995 8.50098C13.7235 8.50098 13.4995 8.27698 13.4995 8.00098C13.4995 5.15431 11.2375 3.16699 7.99951 3.16699C4.76151 3.16699 2.49951 5.15498 2.49951 8.00098C2.49951 9.22498 2.90283 10.309 3.66683 11.1357C3.77016 11.2477 3.81746 11.401 3.79346 11.5523C3.68146 12.2663 3.32942 12.9417 2.78809 13.4957C3.56142 13.4677 4.60154 13.2897 5.24154 12.607C5.37554 12.463 5.58353 12.4117 5.76953 12.4763C6.6442 12.779 7.6501 12.8983 8.62077 12.811C8.89344 12.7836 9.14021 12.989 9.16488 13.2643ZM14.3535 10.3136C14.1582 10.1183 13.8415 10.1183 13.6462 10.3136L12.6662 11.2936L11.6862 10.3136C11.4909 10.1183 11.1742 10.1183 10.9788 10.3136C10.7835 10.509 10.7835 10.8257 10.9788 11.021L11.9588 12.001L10.9788 12.981C10.7835 13.1763 10.7835 13.493 10.9788 13.6883C11.0762 13.7856 11.2042 13.835 11.3322 13.835C11.4602 13.835 11.5882 13.7863 11.6855 13.6883L12.6655 12.7083L13.6455 13.6883C13.7428 13.7856 13.8709 13.835 13.9989 13.835C14.1269 13.835 14.2549 13.7863 14.3522 13.6883C14.5475 13.493 14.5475 13.1763 14.3522 12.981L13.3722 12.001L14.3522 11.021C14.5489 10.825 14.5488 10.509 14.3535 10.3136Z" fill="#3B3B3E"/>
</svg>
