<svg width="16" height="16" viewBox="0 0 16 16" fill="none" xmlns="http://www.w3.org/2000/svg">
<path d="M11.75 1.5H4.25C2.47667 1.5 1.5 2.47667 1.5 4.25V11.75C1.5 13.5233 2.47667 14.5 4.25 14.5H11.75C13.5233 14.5 14.5 13.5233 14.5 11.75V4.25C14.5 2.47667 13.5233 1.5 11.75 1.5ZM13.5 11.75C13.5 12.9767 12.9767 13.5 11.75 13.5H4.25C3.02333 13.5 2.5 12.9767 2.5 11.75V4.25C2.5 3.02333 3.02333 2.5 4.25 2.5H11.75C12.9767 2.5 13.5 3.02333 13.5 4.25V11.75ZM9.30941 4.93604C8.92141 4.75537 8.47273 4.81463 8.14339 5.09196L5.83529 7.03792C5.55129 7.27726 5.38867 7.62735 5.38867 7.99935C5.38867 8.37135 5.55129 8.72129 5.83529 8.95996L8.14339 10.9067C8.34673 11.0781 8.5947 11.1667 8.84603 11.1667C9.00203 11.1667 9.16074 11.1326 9.30941 11.0633C9.70141 10.8813 9.94466 10.4986 9.94466 10.0653V5.93392C9.94466 5.50059 9.70141 5.1187 9.30941 4.93604ZM8.94466 10.0661C8.94466 10.1087 8.92602 10.1394 8.88802 10.1574C8.83202 10.1841 8.79926 10.1534 8.78792 10.1434L6.47998 8.19661C6.40131 8.12995 6.38867 8.04532 6.38867 8.00065C6.38867 7.95598 6.40131 7.8707 6.47998 7.80404L8.78792 5.85726C8.79659 5.85059 8.81601 5.83398 8.84668 5.83398C8.85868 5.83398 8.87269 5.83674 8.88802 5.84408C8.92602 5.86141 8.94466 5.89205 8.94466 5.93538V10.0661Z" fill="#3B3B3E"/>
</svg>
