<svg width="16" height="16" viewBox="0 0 16 16" fill="none" xmlns="http://www.w3.org/2000/svg">
<path d="M13.3333 10.8333H2.66667C2.20667 10.8333 1.83333 11.2067 1.83333 11.6667V12C1.83333 13.6133 2.72 14.5 4.33333 14.5H11.6667C13.28 14.5 14.1667 13.6133 14.1667 12V11.6667C14.1667 11.2067 13.7933 10.8333 13.3333 10.8333ZM13.1667 12C13.1667 13.0533 12.72 13.5 11.6667 13.5H4.33333C3.28 13.5 2.83333 13.0533 2.83333 12V11.8333H13.1667V12ZM2.66667 7.83333H13.3333C13.7933 7.83333 14.1667 7.46 14.1667 7V6.66667C14.1667 3.52667 11.7467 1.5 8 1.5C4.25333 1.5 1.83333 3.52667 1.83333 6.66667V7C1.83333 7.46 2.20667 7.83333 2.66667 7.83333ZM2.83333 6.66667C2.83333 4.1 4.81333 2.5 8 2.5C11.1867 2.5 13.1667 4.1 13.1667 6.66667V6.83333H2.83333V6.66667ZM14.5 9.33333C14.5 9.60667 14.2733 9.83333 14 9.83333H2C1.72667 9.83333 1.5 9.60667 1.5 9.33333C1.5 9.06 1.72667 8.83333 2 8.83333H14C14.2733 8.83333 14.5 9.06 14.5 9.33333ZM5.79334 4.47334C5.82 4.54 5.83333 4.6 5.83333 4.66667C5.83333 4.8 5.78 4.92667 5.68667 5.02C5.64 5.06667 5.58667 5.1 5.52667 5.12667C5.46001 5.15334 5.4 5.16667 5.33333 5.16667C5.26667 5.16667 5.19999 5.15334 5.13999 5.12667C5.07999 5.1 5.02667 5.06667 4.98 5.02C4.93333 4.97333 4.9 4.92 4.87333 4.86C4.84667 4.8 4.83333 4.73333 4.83333 4.66667C4.83333 4.6 4.84667 4.53334 4.87333 4.47334C4.9 4.41334 4.93333 4.36 4.98 4.31333C5.12 4.17333 5.34001 4.12667 5.52667 4.20667C5.58667 4.23333 5.64 4.26667 5.68667 4.31333C5.73333 4.36 5.76667 4.41334 5.79334 4.47334V4.47334ZM8.46 3.80667C8.48667 3.86667 8.5 3.93333 8.5 4C8.5 4.06667 8.48667 4.13333 8.46 4.19333C8.43334 4.25333 8.4 4.30667 8.35333 4.35333C8.26 4.44667 8.13333 4.5 8 4.5C7.93333 4.5 7.86666 4.48667 7.80666 4.46C7.74666 4.43334 7.69333 4.4 7.64667 4.35333C7.6 4.30667 7.56667 4.25333 7.54 4.19333C7.51333 4.13333 7.5 4.06667 7.5 4C7.5 3.93333 7.51333 3.86667 7.54 3.80667C7.56 3.74667 7.6 3.69333 7.64667 3.64667C7.69333 3.6 7.74666 3.56667 7.80666 3.54C7.99333 3.46 8.21333 3.50667 8.35333 3.64667C8.4 3.69333 8.43334 3.74667 8.46 3.80667ZM11.1267 4.47334C11.1533 4.53334 11.1667 4.6 11.1667 4.66667C11.1667 4.8 11.1133 4.92667 11.02 5.02C10.9733 5.06667 10.92 5.1 10.86 5.12667C10.7933 5.15334 10.7333 5.16667 10.6667 5.16667C10.6 5.16667 10.5333 5.15334 10.4733 5.12667C10.4133 5.1 10.36 5.06667 10.3133 5.02C10.22 4.92667 10.1667 4.8 10.1667 4.66667C10.1667 4.6 10.18 4.53334 10.2067 4.47334C10.2267 4.41334 10.2667 4.36 10.3133 4.31333C10.36 4.26667 10.4133 4.23333 10.4733 4.20667C10.6 4.15333 10.7333 4.15333 10.86 4.20667C10.92 4.23333 10.9733 4.26667 11.02 4.31333C11.0667 4.36 11.1 4.41334 11.1267 4.47334V4.47334Z" fill="#3B3B3E"/>
</svg>
