<svg width="16" height="16" viewBox="0 0 16 16" fill="none" xmlns="http://www.w3.org/2000/svg">
<path d="M8.00004 0.833008C4.04804 0.833008 0.833374 4.04834 0.833374 7.99967C0.833374 11.951 4.04804 15.1663 8.00004 15.1663C11.952 15.1663 15.1667 11.951 15.1667 7.99967C15.1667 4.04834 11.952 0.833008 8.00004 0.833008ZM14.1414 7.49967H11.4414C11.354 5.67101 10.7914 3.80768 9.81803 2.10701C12.18 2.83768 13.9354 4.95301 14.1414 7.49967ZM8.48671 1.85767C9.65738 3.59833 10.3394 5.57301 10.4414 7.49967H5.55872C5.66005 5.57301 6.3427 3.59833 7.51337 1.85767C7.6747 1.845 7.83604 1.83301 8.00004 1.83301C8.16404 1.83301 8.32605 1.845 8.48671 1.85767ZM6.18205 2.10701C5.20871 3.80768 4.64605 5.67101 4.55872 7.49967H1.8587C2.0647 4.95301 3.82005 2.83768 6.18205 2.10701ZM1.8587 8.49967H4.55872C4.64605 10.3283 5.20871 12.1917 6.18205 13.8923C3.82005 13.1617 2.0647 11.0463 1.8587 8.49967ZM7.51337 14.1417C6.3427 12.401 5.66072 10.4263 5.55872 8.49967H10.4414C10.34 10.4263 9.65738 12.401 8.48671 14.1417C8.32538 14.1543 8.16404 14.1663 8.00004 14.1663C7.83604 14.1663 7.67403 14.1543 7.51337 14.1417ZM9.81803 13.8923C10.7914 12.1917 11.354 10.3283 11.4414 8.49967H14.1414C13.9354 11.0463 12.18 13.1617 9.81803 13.8923Z" fill="#3B3B3E"/>
</svg>
