<svg width="16" height="16" viewBox="0 0 16 16" fill="none" xmlns="http://www.w3.org/2000/svg">
<path d="M11.75 1.5H4.25C2.47667 1.5 1.5 2.47667 1.5 4.25V11.75C1.5 13.5233 2.47667 14.5 4.25 14.5H11.75C13.5233 14.5 14.5 13.5233 14.5 11.75V4.25C14.5 2.47667 13.5233 1.5 11.75 1.5ZM13.5 11.75C13.5 12.9767 12.9767 13.5 11.75 13.5H4.25C3.02333 13.5 2.5 12.9767 2.5 11.75V4.25C2.5 3.02333 3.02333 2.5 4.25 2.5H11.75C12.9767 2.5 13.5 3.02333 13.5 4.25V11.75ZM8 5.5C7.17333 5.5 6.5 6.17267 6.5 7C6.5 7.65067 6.91933 8.20071 7.5 8.40804V10.6667C7.5 10.9427 7.724 11.1667 8 11.1667C8.276 11.1667 8.5 10.9427 8.5 10.6667V8.40804C9.08067 8.20071 9.5 7.65133 9.5 7C9.5 6.17267 8.82667 5.5 8 5.5ZM8 7.5C7.72467 7.5 7.5 7.276 7.5 7C7.5 6.724 7.72467 6.5 8 6.5C8.27533 6.5 8.5 6.724 8.5 7C8.5 7.276 8.27533 7.5 8 7.5Z" fill="#3B3B3E"/>
</svg>
