<svg width="16" height="16" viewBox="0 0 16 16" fill="none" xmlns="http://www.w3.org/2000/svg">
<path d="M12 4.16619H9.20736L11.0207 2.35288C11.216 2.15755 11.216 1.84086 11.0207 1.64552C10.8253 1.45019 10.5086 1.45019 10.3133 1.64552L8 3.95884L5.68669 1.64552C5.49135 1.45019 5.17466 1.45019 4.97933 1.64552C4.784 1.84086 4.784 2.15755 4.97933 2.35288L6.79264 4.16619H4C2.388 4.16619 1.5 5.05419 1.5 6.66619V11.9995C1.5 13.6115 2.388 14.4995 4 14.4995H12C13.612 14.4995 14.5 13.6115 14.5 11.9995V6.66619C14.5 5.05419 13.612 4.16619 12 4.16619ZM13.5 11.9995C13.5 13.0509 13.0513 13.4995 12 13.4995H4C2.94867 13.4995 2.5 13.0509 2.5 11.9995V6.66619C2.5 5.61486 2.94867 5.16619 4 5.16619H12C13.0513 5.16619 13.5 5.61486 13.5 6.66619V11.9995ZM9 6.16619H5C4.06067 6.16619 3.5 6.72686 3.5 7.66619V10.9995C3.5 11.9389 4.06067 12.4995 5 12.4995H9C9.93933 12.4995 10.5 11.9389 10.5 10.9995V7.66619C10.5 6.72686 9.93933 6.16619 9 6.16619ZM9.5 10.9995C9.5 11.3922 9.39267 11.4995 9 11.4995H5C4.60733 11.4995 4.5 11.3922 4.5 10.9995V7.66619C4.5 7.27353 4.60733 7.16619 5 7.16619H9C9.39267 7.16619 9.5 7.27353 9.5 7.66619V10.9995ZM12.6667 7.33286C12.6667 7.70086 12.368 7.99953 12 7.99953C11.632 7.99953 11.3333 7.70086 11.3333 7.33286C11.3333 6.96486 11.632 6.66619 12 6.66619C12.368 6.66619 12.6667 6.96486 12.6667 7.33286ZM12.6667 9.33286C12.6667 9.70086 12.368 9.99953 12 9.99953C11.632 9.99953 11.3333 9.70086 11.3333 9.33286C11.3333 8.96486 11.632 8.66619 12 8.66619C12.368 8.66619 12.6667 8.96486 12.6667 9.33286Z" fill="#3B3B3E"/>
</svg>
