<svg width="16" height="16" viewBox="0 0 16 16" fill="none" xmlns="http://www.w3.org/2000/svg">
<path d="M14 3.5H11.6273C11.0267 3.5 11.0013 3.424 10.8367 2.93066L10.702 2.526C10.4973 1.91267 9.926 1.5 9.27934 1.5H6.72066C6.074 1.5 5.50199 1.912 5.29799 2.526L5.16333 2.93066C4.99866 3.42466 4.97333 3.5 4.37266 3.5H2C1.724 3.5 1.5 3.724 1.5 4C1.5 4.276 1.724 4.5 2 4.5H2.86534L3.37667 12.166C3.47534 13.6493 4.38467 14.5 5.87134 14.5H10.1293C11.6153 14.5 12.5247 13.6493 12.624 12.166L13.1353 4.5H14C14.276 4.5 14.5 4.276 14.5 4C14.5 3.724 14.276 3.5 14 3.5ZM6.24666 2.842C6.31533 2.63733 6.50533 2.5 6.72066 2.5H9.27934C9.49467 2.5 9.68534 2.63733 9.75334 2.842L9.888 3.24666C9.91733 3.334 9.94666 3.41867 9.97866 3.5H6.02C6.052 3.418 6.08199 3.33333 6.11133 3.24666L6.24666 2.842ZM11.6253 12.0993C11.562 13.0547 11.086 13.5 10.1287 13.5H5.87067C4.91333 13.5 4.438 13.0553 4.374 12.0993L3.86733 4.5H4.37201C4.45534 4.5 4.52466 4.49134 4.59932 4.486C4.62199 4.48934 4.64266 4.5 4.666 4.5H11.3327C11.3567 4.5 11.3767 4.48934 11.3993 4.486C11.474 4.49134 11.5433 4.5 11.6267 4.5H12.1313L11.6253 12.0993ZM9.35866 8.45133C10.048 9.164 10.3193 10.1607 10.086 11.118C10.0307 11.3467 9.826 11.4993 9.60067 11.4993C9.56133 11.4993 9.52133 11.4947 9.48199 11.4853C9.21399 11.42 9.04933 11.1493 9.11466 10.8813C9.26666 10.2593 9.08934 9.61133 8.64134 9.14733C8.31334 8.80933 7.87333 8.62733 7.42533 8.61866L7.58799 8.782C7.78333 8.97734 7.78333 9.294 7.58799 9.48933C7.49066 9.58666 7.36266 9.636 7.23466 9.636C7.10666 9.636 6.97866 9.58733 6.88133 9.48933L5.98067 8.58866C5.78534 8.39333 5.78534 8.07667 5.98067 7.88134L6.88133 6.98C7.07666 6.78467 7.39333 6.78467 7.58866 6.98C7.76866 7.16 7.77467 7.43866 7.62333 7.63466C8.26467 7.69 8.88533 7.96467 9.35866 8.45133Z" fill="#3B3B3E"/>
</svg>
