<svg width="16" height="16" viewBox="0 0 16 16" fill="none" xmlns="http://www.w3.org/2000/svg">
<path d="M12.4652 6.43953C12.9305 7.42553 13.1665 8.39886 13.1665 9.33286C13.1665 12.1815 10.8485 14.4995 7.99983 14.4995C6.97783 14.4995 5.9945 14.2055 5.1565 13.6495C4.9265 13.4969 4.86383 13.1862 5.0165 12.9562C5.16916 12.7262 5.4805 12.6642 5.70983 12.8162C6.38383 13.2629 7.17517 13.4995 8.0005 13.4995C10.2978 13.4995 12.1672 11.6302 12.1672 9.33286C12.1672 8.54753 11.9632 7.71752 11.5618 6.86619C11.4438 6.61619 11.5505 6.3182 11.8005 6.20086C12.0485 6.08286 12.3472 6.18953 12.4652 6.43953ZM14.3532 2.35286L2.35317 14.3529C2.25583 14.4502 2.12783 14.4995 1.99983 14.4995C1.87183 14.4995 1.74383 14.4509 1.6465 14.3529C1.45117 14.1575 1.45117 13.8409 1.6465 13.6455L3.47916 11.8122C3.06383 11.0575 2.83317 10.2122 2.83317 9.33219C2.83317 5.12352 7.5105 1.7342 7.70916 1.5922C7.8825 1.4682 8.11583 1.4682 8.28983 1.5922C8.3545 1.6382 9.7605 2.65553 11.0445 4.24753L13.6465 1.64552C13.8418 1.45019 14.1585 1.45019 14.3538 1.64552C14.5485 1.84086 14.5485 2.15819 14.3532 2.35286ZM4.21383 11.0782L10.3345 4.95754C9.45183 3.84487 8.47517 3.00753 7.99983 2.62953C7.0105 3.41953 3.83249 6.20019 3.83249 9.33286C3.83316 9.94419 3.9645 10.5375 4.21383 11.0782Z" fill="#3B3B3E"/>
</svg>
