<svg width="16" height="16" viewBox="0 0 16 16" fill="none" xmlns="http://www.w3.org/2000/svg">
<g clip-path="url(#clip0_36251_7353)">
<path d="M6.67269 7.16667C8.23536 7.16667 9.50602 5.89533 9.50602 4.33333C9.50602 2.77133 8.23536 1.5 6.67269 1.5C5.11002 1.5 3.83936 2.77133 3.83936 4.33333C3.83936 5.89533 5.11002 7.16667 6.67269 7.16667ZM6.67269 2.5C7.68402 2.5 8.50602 3.322 8.50602 4.33333C8.50602 5.34467 7.68402 6.16667 6.67269 6.16667C5.66136 6.16667 4.83936 5.34467 4.83936 4.33333C4.83936 3.322 5.66136 2.5 6.67269 2.5ZM9.80135 9.05534C9.70402 9.314 9.41597 9.44466 9.15731 9.34733C8.83731 9.22666 8.44733 9.16602 8 9.16602H5.33333C2.70467 9.16602 2.5 11.3454 2.5 12.0127C2.5 13.0547 2.94867 13.4993 4 13.4993H8.66667C8.94267 13.4993 9.16667 13.7233 9.16667 13.9993C9.16667 14.2753 8.94267 14.4993 8.66667 14.4993H4C2.388 14.4993 1.5 13.616 1.5 12.0127C1.5 10.238 2.504 8.16602 5.33333 8.16602H8C8.568 8.16602 9.07536 8.24863 9.50936 8.4113C9.76736 8.50863 9.89868 8.79667 9.80135 9.05534ZM14.3333 11.2473V10.5C14.3333 9.58133 13.586 8.83333 12.6667 8.83333C11.7473 8.83333 11 9.58133 11 10.5V11.2473C10.4713 11.4193 10.1667 11.868 10.1667 12.524V13.81C10.1667 14.6593 10.674 15.1673 11.524 15.1673H13.8093C14.6593 15.1673 15.1667 14.66 15.1667 13.81V12.524C15.1667 11.868 14.862 11.4193 14.3333 11.2473ZM12.6667 9.83333C13.0347 9.83333 13.3333 10.1327 13.3333 10.5V11.1667H12V10.5C12 10.1327 12.2987 9.83333 12.6667 9.83333ZM14.1667 13.8093C14.1667 14.1027 14.1033 14.1667 13.8093 14.1667H11.524C11.23 14.1667 11.1667 14.1033 11.1667 13.8093V12.5234C11.1667 12.23 11.23 12.166 11.524 12.166H13.8093C14.1033 12.166 14.1667 12.2294 14.1667 12.5234V13.8093Z" fill="#3B3B3E"/>
</g>
<defs>
<clipPath id="clip0_36251_7353">
<rect width="16" height="16" fill="white"/>
</clipPath>
</defs>
</svg>
