<svg width="16" height="16" viewBox="0 0 16 16" fill="none" xmlns="http://www.w3.org/2000/svg">
<path d="M11.75 1.5H4.25C2.47667 1.5 1.5 2.47667 1.5 4.25V11.75C1.5 13.5233 2.47667 14.5 4.25 14.5H11.75C13.5233 14.5 14.5 13.5233 14.5 11.75V4.25C14.5 2.47667 13.5233 1.5 11.75 1.5ZM13.5 11.75C13.5 12.9767 12.9767 13.5 11.75 13.5H4.25C3.02333 13.5 2.5 12.9767 2.5 11.75V4.25C2.5 3.02333 3.02333 2.5 4.25 2.5H11.75C12.9767 2.5 13.5 3.02333 13.5 4.25V11.75ZM10.0661 6.05534H5.93473C5.50207 6.05534 5.11934 6.29859 4.93734 6.69059C4.756 7.08059 4.81528 7.52727 5.09261 7.85661L7.03939 10.1654C7.27872 10.4487 7.62933 10.6107 8 10.6107C8.37067 10.6107 8.72128 10.448 8.96061 10.1654L10.9074 7.85726C11.1847 7.52793 11.2446 7.08141 11.0633 6.69141C10.8813 6.29941 10.4994 6.05534 10.0661 6.05534ZM10.1434 7.21208L8.19661 9.52002C8.12928 9.59869 8.04467 9.61068 8 9.61068C7.95533 9.61068 7.87005 9.59869 7.80339 9.52002L5.85661 7.21208C5.84727 7.20074 5.81794 7.16598 5.84261 7.11198C5.85994 7.07465 5.89059 7.05534 5.93392 7.05534H10.0653C10.1079 7.05534 10.1387 7.07465 10.1567 7.11198C10.1814 7.16665 10.1527 7.20074 10.1434 7.21208Z" fill="#3B3B3E"/>
</svg>
