<svg width="16" height="16" viewBox="0 0 16 16" fill="none" xmlns="http://www.w3.org/2000/svg">
<path d="M10.2288 7.12899C10.0894 6.89632 9.7921 6.81632 9.55477 6.94832L9.47746 6.99166C9.38012 7.04633 9.26083 7.04565 9.16349 6.99099C9.07349 6.94099 9.01815 6.84966 9.01815 6.75366C9.01815 6.42966 8.75414 6.16632 8.42814 6.16632H7.53882C7.21349 6.16632 6.94881 6.42966 6.94881 6.75366C6.94881 6.84966 6.89345 6.94099 6.80412 6.99099C6.70678 7.04632 6.58601 7.04499 6.48934 6.99166C6.21334 6.83633 5.85474 6.93098 5.69474 7.20298L5.24683 7.95433C5.17883 8.07033 5.15078 8.27299 5.18612 8.40299C5.22678 8.55433 5.32873 8.68499 5.46606 8.76166C5.5554 8.81232 5.61139 8.90365 5.61206 8.99965C5.61206 9.09699 5.55611 9.18832 5.46411 9.24032C5.32678 9.31765 5.22547 9.44966 5.18547 9.60166C5.1508 9.731 5.18011 9.93366 5.24878 10.049L5.69539 10.799C5.85939 11.0723 6.20815 11.165 6.49015 11.009C6.58682 10.955 6.70615 10.9543 6.80282 11.009C6.80348 11.009 6.80347 11.009 6.80347 11.009C6.8928 11.059 6.94816 11.1497 6.94816 11.2463C6.94816 11.5703 7.212 11.8337 7.538 11.8337H8.42879C8.75346 11.8337 9.01815 11.5703 9.01815 11.2463C9.01815 11.1503 9.07349 11.0597 9.16349 11.009C9.26083 10.9543 9.38012 10.9543 9.47746 11.0083C9.75746 11.165 10.1054 11.0737 10.2727 10.797L10.7167 10.051C10.7867 9.93498 10.8161 9.73166 10.7821 9.60032C10.7421 9.44766 10.64 9.31633 10.502 9.23899C10.4994 9.23766 10.4967 9.23632 10.4941 9.23499C10.4087 9.18365 10.3554 9.09433 10.3554 9.001C10.3554 8.90366 10.4114 8.81165 10.5007 8.76099L10.578 8.71765C10.6954 8.65165 10.7815 8.54099 10.8162 8.41099C10.8508 8.28099 10.8314 8.14166 10.7628 8.02633L10.2288 7.12899ZM9.67814 9.84165L9.58602 9.995C9.28002 9.93233 8.9521 9.97965 8.67277 10.137C8.39544 10.2937 8.18945 10.5437 8.08879 10.833H7.87948C7.77881 10.5437 7.57349 10.2937 7.29549 10.137C7.01616 9.97898 6.68808 9.93232 6.38208 9.99432L6.29077 9.84165C6.4961 9.61099 6.61338 9.311 6.61271 8.99567C6.61138 8.68433 6.49345 8.38766 6.29012 8.15833L6.38208 8.00433C6.69075 8.067 7.01681 8.01899 7.29614 7.86233C7.57348 7.70566 7.77881 7.45632 7.87948 7.16632H8.08879C8.18945 7.45565 8.39477 7.70565 8.67277 7.86165C8.9521 8.01965 9.28002 8.06633 9.58602 8.00433L9.67814 8.15765C9.47347 8.38832 9.35604 8.687 9.35604 9.00167C9.35604 9.315 9.47414 9.61232 9.67814 9.84165ZM8.68009 9.00033C8.68009 9.36833 8.38209 9.66699 8.01343 9.66699C7.64543 9.66699 7.34334 9.36833 7.34334 9.00033C7.34334 8.63233 7.63875 8.33366 8.00675 8.33366H8.01343C8.38143 8.33366 8.68009 8.63233 8.68009 9.00033ZM12.0001 4.16699H8.87411L7.02075 2.31366C6.92675 2.21966 6.80007 2.16699 6.6674 2.16699H4.00073C2.38873 2.16699 1.50073 3.05499 1.50073 4.66699V11.3337C1.50073 12.9457 2.38873 13.8337 4.00073 13.8337H12.0007C13.6127 13.8337 14.5007 12.9457 14.5007 11.3337V6.66699C14.5001 5.05499 13.6121 4.16699 12.0001 4.16699ZM13.5001 11.3337C13.5001 12.385 13.0514 12.8337 12.0001 12.8337H4.00008C2.94875 12.8337 2.50008 12.385 2.50008 11.3337V4.66699C2.50008 3.61566 2.94875 3.16699 4.00008 3.16699H6.45939L8.31274 5.02032C8.40674 5.11432 8.53343 5.16699 8.6661 5.16699H11.9994C13.0508 5.16699 13.4994 5.61566 13.4994 6.66699V11.3337H13.5001Z" fill="#3B3B3E"/>
</svg>
