<svg width="16" height="16" viewBox="0 0 16 16" fill="none" xmlns="http://www.w3.org/2000/svg">
<path d="M14.5 3V5.33333C14.5 5.60933 14.276 5.83333 14 5.83333C13.724 5.83333 13.5 5.60933 13.5 5.33333V3C13.5 2.60733 13.3927 2.5 13 2.5H10.6667C10.3907 2.5 10.1667 2.276 10.1667 2C10.1667 1.724 10.3907 1.5 10.6667 1.5H13C13.9393 1.5 14.5 2.06067 14.5 3ZM2 5.83333C2.276 5.83333 2.5 5.60933 2.5 5.33333V3C2.5 2.60733 2.60733 2.5 3 2.5H5.33333C5.60933 2.5 5.83333 2.276 5.83333 2C5.83333 1.724 5.60933 1.5 5.33333 1.5H3C2.06067 1.5 1.5 2.06067 1.5 3V5.33333C1.5 5.60933 1.724 5.83333 2 5.83333ZM5.33333 13.5H3C2.60733 13.5 2.5 13.3927 2.5 13V10.6667C2.5 10.3907 2.276 10.1667 2 10.1667C1.724 10.1667 1.5 10.3907 1.5 10.6667V13C1.5 13.9393 2.06067 14.5 3 14.5H5.33333C5.60933 14.5 5.83333 14.276 5.83333 14C5.83333 13.724 5.60933 13.5 5.33333 13.5ZM14 10.1667C13.724 10.1667 13.5 10.3907 13.5 10.6667V13C13.5 13.3927 13.3927 13.5 13 13.5H10.6667C10.3907 13.5 10.1667 13.724 10.1667 14C10.1667 14.276 10.3907 14.5 10.6667 14.5H13C13.9393 14.5 14.5 13.9393 14.5 13V10.6667C14.5 10.3907 14.276 10.1667 14 10.1667ZM8.16667 6.83333V5.16667C8.16667 4.55933 8.55933 4.16667 9.16667 4.16667H10.8333C11.4407 4.16667 11.8333 4.55933 11.8333 5.16667V6.83333C11.8333 7.44067 11.4407 7.83333 10.8333 7.83333H9.16667C8.55933 7.83333 8.16667 7.44067 8.16667 6.83333ZM9.16667 6.83333H10.828L10.8333 5.172L9.17204 5.16667L9.16667 6.83333ZM7.83333 5.16667V6.83333C7.83333 7.44067 7.44067 7.83333 6.83333 7.83333H5.16667C4.55933 7.83333 4.16667 7.44067 4.16667 6.83333V5.16667C4.16667 4.55933 4.55933 4.16667 5.16667 4.16667H6.83333C7.44067 4.16667 7.83333 4.55933 7.83333 5.16667ZM6.83333 5.172L5.17204 5.16667L5.16667 6.83333H6.82796L6.83333 5.172ZM10.8333 11.8333H9.16667C8.55933 11.8333 8.16667 11.4407 8.16667 10.8333V9.16667C8.16667 8.55933 8.55933 8.16667 9.16667 8.16667H10.8333C11.4407 8.16667 11.8333 8.55933 11.8333 9.16667V10.8333C11.8333 11.4407 11.4407 11.8333 10.8333 11.8333ZM10.828 10.8333L10.8333 9.172L9.17204 9.16667L9.16667 10.8333H10.828ZM7.83333 9.16667V10.8333C7.83333 11.4407 7.44067 11.8333 6.83333 11.8333H5.16667C4.55933 11.8333 4.16667 11.4407 4.16667 10.8333V9.16667C4.16667 8.55933 4.55933 8.16667 5.16667 8.16667H6.83333C7.44067 8.16667 7.83333 8.55933 7.83333 9.16667ZM6.83333 9.172L5.17204 9.16667L5.16667 10.8333H6.82796L6.83333 9.172Z" fill="#3B3B3E"/>
</svg>
