<svg width="16" height="16" viewBox="0 0 16 16" fill="none" xmlns="http://www.w3.org/2000/svg">
<path d="M5.33333 14.5C4.322 14.5 3.5 13.678 3.5 12.6667C3.5 11.6553 4.322 10.8333 5.33333 10.8333C6.34467 10.8333 7.16667 11.6553 7.16667 12.6667C7.16667 13.678 6.34467 14.5 5.33333 14.5ZM5.33333 11.8333C4.874 11.8333 4.5 12.2073 4.5 12.6667C4.5 13.126 4.874 13.5 5.33333 13.5C5.79267 13.5 6.16667 13.126 6.16667 12.6667C6.16667 12.2073 5.79267 11.8333 5.33333 11.8333ZM5.33333 9.83333C4.322 9.83333 3.5 9.01133 3.5 8C3.5 6.98867 4.322 6.16667 5.33333 6.16667C6.34467 6.16667 7.16667 6.98867 7.16667 8C7.16667 9.01133 6.34467 9.83333 5.33333 9.83333ZM5.33333 7.16667C4.874 7.16667 4.5 7.54067 4.5 8C4.5 8.45933 4.874 8.83333 5.33333 8.83333C5.79267 8.83333 6.16667 8.45933 6.16667 8C6.16667 7.54067 5.79267 7.16667 5.33333 7.16667ZM5.33333 5.16667C4.322 5.16667 3.5 4.34467 3.5 3.33333C3.5 2.322 4.322 1.5 5.33333 1.5C6.34467 1.5 7.16667 2.322 7.16667 3.33333C7.16667 4.34467 6.34467 5.16667 5.33333 5.16667ZM5.33333 2.5C4.874 2.5 4.5 2.874 4.5 3.33333C4.5 3.79267 4.874 4.16667 5.33333 4.16667C5.79267 4.16667 6.16667 3.79267 6.16667 3.33333C6.16667 2.874 5.79267 2.5 5.33333 2.5ZM10.6667 14.5C9.65533 14.5 8.83333 13.678 8.83333 12.6667C8.83333 11.6553 9.65533 10.8333 10.6667 10.8333C11.678 10.8333 12.5 11.6553 12.5 12.6667C12.5 13.678 11.678 14.5 10.6667 14.5ZM10.6667 11.8333C10.2073 11.8333 9.83333 12.2073 9.83333 12.6667C9.83333 13.126 10.2073 13.5 10.6667 13.5C11.126 13.5 11.5 13.126 11.5 12.6667C11.5 12.2073 11.126 11.8333 10.6667 11.8333ZM10.6667 9.83333C9.65533 9.83333 8.83333 9.01133 8.83333 8C8.83333 6.98867 9.65533 6.16667 10.6667 6.16667C11.678 6.16667 12.5 6.98867 12.5 8C12.5 9.01133 11.678 9.83333 10.6667 9.83333ZM10.6667 7.16667C10.2073 7.16667 9.83333 7.54067 9.83333 8C9.83333 8.45933 10.2073 8.83333 10.6667 8.83333C11.126 8.83333 11.5 8.45933 11.5 8C11.5 7.54067 11.126 7.16667 10.6667 7.16667ZM10.6667 5.16667C9.65533 5.16667 8.83333 4.34467 8.83333 3.33333C8.83333 2.322 9.65533 1.5 10.6667 1.5C11.678 1.5 12.5 2.322 12.5 3.33333C12.5 4.34467 11.678 5.16667 10.6667 5.16667ZM10.6667 2.5C10.2073 2.5 9.83333 2.874 9.83333 3.33333C9.83333 3.79267 10.2073 4.16667 10.6667 4.16667C11.126 4.16667 11.5 3.79267 11.5 3.33333C11.5 2.874 11.126 2.5 10.6667 2.5Z" fill="#3B3B3E"/>
</svg>
