<svg width="16" height="16" viewBox="0 0 16 16" fill="none" xmlns="http://www.w3.org/2000/svg">
<path d="M14.5 6V4C14.5 2.388 13.612 1.5 12 1.5H4C2.388 1.5 1.5 2.388 1.5 4V6C1.5 6.91067 1.79274 7.58133 2.33008 8C1.79274 8.41867 1.5 9.08933 1.5 10V12C1.5 13.612 2.388 14.5 4 14.5H12C13.612 14.5 14.5 13.612 14.5 12V10C14.5 9.08933 14.2073 8.41867 13.6699 8C14.2073 7.58133 14.5 6.91067 14.5 6ZM13.5 10V12C13.5 13.0513 13.0513 13.5 12 13.5H4C2.94867 13.5 2.5 13.0513 2.5 12V10C2.5 8.94867 2.94867 8.5 4 8.5H12C13.0513 8.5 13.5 8.94867 13.5 10ZM4 7.5C2.94867 7.5 2.5 7.05133 2.5 6V4C2.5 2.94867 2.94867 2.5 4 2.5H12C13.0513 2.5 13.5 2.94867 13.5 4V6C13.5 7.05133 13.0513 7.5 12 7.5H4ZM10.3333 5.00798C10.3333 5.37598 10.0347 5.67464 9.66667 5.67464C9.29867 5.67464 9 5.37598 9 5.00798C9 4.63998 9.29867 4.34131 9.66667 4.34131C10.0347 4.34131 10.3333 4.63998 10.3333 5.00798ZM12.3333 5.00798C12.3333 5.37598 12.0347 5.67464 11.6667 5.67464C11.2987 5.67464 11 5.37598 11 5.00798C11 4.63998 11.2987 4.34131 11.6667 4.34131C12.0347 4.34131 12.3333 4.63998 12.3333 5.00798ZM9 11C9 10.632 9.29867 10.3333 9.66667 10.3333C10.0347 10.3333 10.3333 10.632 10.3333 11C10.3333 11.368 10.0347 11.6667 9.66667 11.6667C9.29867 11.6667 9 11.368 9 11ZM11 11C11 10.632 11.2987 10.3333 11.6667 10.3333C12.0347 10.3333 12.3333 10.632 12.3333 11C12.3333 11.368 12.0347 11.6667 11.6667 11.6667C11.2987 11.6667 11 11.368 11 11Z" fill="#3B3B3E"/>
</svg>
