<svg width="16" height="16" viewBox="0 0 16 16" fill="none" xmlns="http://www.w3.org/2000/svg">
<path d="M8 2.83301C4.35533 2.83301 1.5 4.37034 1.5 6.33301V9.66634C1.5 11.825 3.99067 13.1663 8 13.1663C12.0093 13.1663 14.5 11.825 14.5 9.66634V6.33301C14.5 4.37034 11.6447 2.83301 8 2.83301ZM8 3.83301C11.2413 3.83301 13.5 5.15034 13.5 6.33301C13.5 7.51567 11.2413 8.83301 8 8.83301C4.75867 8.83301 2.5 7.51567 2.5 6.33301C2.5 5.15034 4.75867 3.83301 8 3.83301ZM7.5 9.81966V12.1577C6.70867 12.131 5.89867 12.039 5.16667 11.8663V9.49036C5.87867 9.67236 6.664 9.78699 7.5 9.81966ZM8.5 9.81966C9.336 9.78699 10.1213 9.67236 10.8333 9.49036V11.8663C10.1013 12.0383 9.29133 12.1303 8.5 12.1577V9.81966ZM2.5 9.66634V8.217C2.93733 8.59167 3.50267 8.91501 4.16667 9.17301V11.5537C3.18133 11.157 2.5 10.549 2.5 9.66634ZM11.8333 11.5537V9.17301C12.4973 8.91501 13.0627 8.59167 13.5 8.217V9.66634C13.5 10.549 12.8187 11.157 11.8333 11.5537Z" fill="#3B3B3E"/>
</svg>
