<svg width="16" height="16" viewBox="0 0 16 16" fill="none" xmlns="http://www.w3.org/2000/svg">
<path d="M12.6414 1.7515C12.2927 1.48683 11.8146 1.42885 11.262 1.58418L6.17131 3.01029C5.30864 3.25229 4.83333 3.8775 4.83333 4.77217V10.5135C4.496 10.2962 4.09667 10.1669 3.66667 10.1669C2.472 10.1669 1.5 11.1389 1.5 12.3335C1.5 13.5282 2.472 14.5002 3.66667 14.5002C4.86133 14.5002 5.83333 13.5282 5.83333 12.3335V7.76615L12.1667 5.99287V8.51354C11.8293 8.29621 11.43 8.16686 11 8.16686C9.80533 8.16686 8.83333 9.13886 8.83333 10.3335C8.83333 11.5282 9.80533 12.5002 11 12.5002C12.1907 12.5002 13.1594 11.5343 13.1654 10.3449C13.1654 10.3429 13.1667 10.3416 13.1667 10.3396V3.02689C13.1667 2.44422 12.99 2.0155 12.6414 1.7515ZM3.66667 13.4995C3.02333 13.4995 2.5 12.9762 2.5 12.3329C2.5 11.6895 3.02333 11.1662 3.66667 11.1662C4.31 11.1662 4.83333 11.6895 4.83333 12.3329C4.83333 12.9762 4.31 13.4995 3.66667 13.4995ZM5.83333 6.72692V4.77152C5.83333 4.31952 6.00401 4.09485 6.44067 3.97285L11.5313 2.54691C11.7587 2.48357 11.952 2.48421 12.0374 2.54821C12.12 2.61021 12.1667 2.78427 12.1667 3.02493V4.95283L5.83333 6.72692ZM11 11.4995C10.3567 11.4995 9.83333 10.9762 9.83333 10.3329C9.83333 9.68954 10.3567 9.16621 11 9.16621C11.6433 9.16621 12.1667 9.68954 12.1667 10.3329C12.1667 10.9762 11.6433 11.4995 11 11.4995Z" fill="#3B3B3E"/>
</svg>
