<svg width="16" height="16" viewBox="0 0 16 16" fill="none" xmlns="http://www.w3.org/2000/svg">
<path d="M14 6.16634C13.724 6.16634 13.5 6.39034 13.5 6.66634V11.7463C13.5 12.959 12.9593 13.4997 11.7467 13.4997H4.25334C3.02467 13.4997 2.5 12.975 2.5 11.7463V4.24634C2.5 3.02234 3.02467 2.49967 4.25334 2.49967H9.33333C9.60933 2.49967 9.83333 2.27567 9.83333 1.99967C9.83333 1.72367 9.60933 1.49967 9.33333 1.49967H4.25334C2.478 1.49967 1.5 2.475 1.5 4.24634V11.7463C1.5 13.5217 2.478 14.4997 4.25334 14.4997H11.7467C13.522 14.4997 14.5 13.5217 14.5 11.7463V6.66634C14.5 6.39034 14.276 6.16634 14 6.16634ZM12.3133 5.01969C12.3593 5.06569 12.4147 5.10235 12.476 5.12769C12.5373 5.15302 12.602 5.16634 12.6673 5.16634C12.7327 5.16634 12.7973 5.15302 12.8587 5.12769C12.92 5.10235 12.9753 5.06569 13.0213 5.01969L14.3547 3.68636C14.55 3.49103 14.55 3.17434 14.3547 2.979C14.1593 2.78367 13.8427 2.78367 13.6473 2.979L13.1673 3.45898V1.33301C13.1673 1.05701 12.9433 0.833008 12.6673 0.833008C12.3913 0.833008 12.1673 1.05701 12.1673 1.33301V3.45898L11.6873 2.979C11.492 2.78367 11.1753 2.78367 10.98 2.979C10.7847 3.17434 10.7847 3.49103 10.98 3.68636L12.3133 5.01969ZM7.76666 5.90698H8.23334C8.61467 5.90698 8.934 6.19365 8.97734 6.57365C9.008 6.84832 9.254 7.04831 9.53 7.01497C9.80466 6.98431 10.002 6.73699 9.97133 6.46232C9.88133 5.66099 9.26133 5.04301 8.48533 4.93034V4.66634C8.48533 4.39034 8.26133 4.16634 7.98533 4.16634C7.70933 4.16634 7.48533 4.39034 7.48533 4.66634V4.93571C6.65533 5.07171 6.01867 5.7877 6.01867 6.65503C6.01867 7.04636 6.15 7.42904 6.38667 7.7277C6.624 8.0337 6.96267 8.25499 7.34267 8.35099L8.41466 8.61702C8.74866 8.70169 8.982 9.00035 8.982 9.34302C8.982 9.54168 8.904 9.72901 8.762 9.87101C8.62 10.013 8.43266 10.091 8.234 10.091H7.76733C7.386 10.091 7.06667 9.80432 7.02334 9.42432C6.99267 9.14965 6.744 8.94833 6.47066 8.98299C6.196 9.01366 5.99867 9.26098 6.02934 9.53564C6.118 10.327 6.72333 10.941 7.48533 11.0644V11.333C7.48533 11.609 7.70933 11.833 7.98533 11.833C8.26133 11.833 8.48533 11.609 8.48533 11.333V11.0677C8.85533 11.0137 9.19867 10.8497 9.46867 10.5797C9.79933 10.249 9.982 9.81032 9.982 9.34432C9.982 8.54299 9.43867 7.84569 8.658 7.64836L7.586 7.38232C7.42066 7.34099 7.28 7.24837 7.174 7.11304C7.074 6.98637 7.01867 6.82366 7.01867 6.65633C7.01867 6.243 7.354 5.90698 7.76666 5.90698Z" fill="#3B3B3E"/>
</svg>
