<svg width="16" height="16" viewBox="0 0 16 16" fill="none" xmlns="http://www.w3.org/2000/svg">
<path d="M14.2274 4.66309C14.408 5.02509 14.5 5.47501 14.5 5.99967V11.333C14.5 12.945 13.612 13.833 12 13.833H5.33333C5.05733 13.833 4.83333 13.609 4.83333 13.333C4.83333 13.057 5.05733 12.833 5.33333 12.833H12C13.0513 12.833 13.5 12.3843 13.5 11.333V5.99967C13.5 5.63167 13.444 5.33237 13.3327 5.1097C13.2087 4.86237 13.3093 4.5623 13.5566 4.43896C13.8033 4.31563 14.104 4.41642 14.2274 4.66309ZM9.5 8.66634C9.5 9.49367 8.82667 10.1663 8 10.1663C7.724 10.1663 7.5 10.3903 7.5 10.6663C7.5 10.9423 7.724 11.1663 8 11.1663C9.378 11.1663 10.5 10.045 10.5 8.66634C10.5 8.39034 10.276 8.16634 10 8.16634C9.724 8.16634 9.5 8.39034 9.5 8.66634ZM2.35335 14.353C2.25602 14.4504 2.128 14.4997 2 14.4997C1.872 14.4997 1.74398 14.451 1.64665 14.353C1.45131 14.1577 1.45131 13.841 1.64665 13.6457L2.13005 13.1623C1.78405 12.8036 1.5 12.239 1.5 11.3324V5.99902C1.5 4.38702 2.388 3.49902 4 3.49902H4.97331L5.29932 2.52702C5.49732 1.91435 6.06872 1.49902 6.72005 1.49902H9.27995C9.93128 1.49902 10.5026 1.9144 10.7026 2.53174L11.0267 3.49902H11.7926L13.646 1.64567C13.8413 1.45034 14.158 1.45034 14.3534 1.64567C14.5487 1.841 14.5487 2.15769 14.3534 2.35303L2.35335 14.353ZM2.83333 12.459L5.68669 9.60563C5.56602 9.3103 5.5 8.99234 5.5 8.66634C5.5 7.28767 6.622 6.16634 8 6.16634C8.32667 6.16634 8.64396 6.23236 8.93929 6.35303L10.7926 4.49967H10.6667C10.452 4.49967 10.2614 4.36237 10.1927 4.15837L9.7526 2.84505C9.6846 2.63639 9.49595 2.49967 9.27995 2.49967H6.72005C6.50405 2.49967 6.31535 2.63635 6.24935 2.83968L5.80729 4.15837C5.73863 4.36237 5.548 4.49967 5.33333 4.49967H4C2.94867 4.49967 2.5 4.94834 2.5 5.99967V11.333C2.5 11.941 2.654 12.267 2.83333 12.459ZM8.11133 7.18164C8.07399 7.17897 8.038 7.16634 8 7.16634C7.17333 7.16634 6.5 7.83901 6.5 8.66634C6.5 8.70434 6.51263 8.73967 6.5153 8.77767L8.11133 7.18164Z" fill="#3B3B3E"/>
</svg>
