<svg width="16" height="16" viewBox="0 0 16 16" fill="none" xmlns="http://www.w3.org/2000/svg">
<path d="M15.1668 7.99967C15.1668 4.04634 11.9535 0.833008 8.00016 0.833008C4.04683 0.833008 0.833496 4.04634 0.833496 7.99967C0.833496 10.513 2.14014 12.7263 4.10681 14.0063C4.12014 14.0197 4.14015 14.0263 4.15348 14.033C5.26682 14.7463 6.58683 15.1663 8.00016 15.1663C9.4135 15.1663 10.6602 14.7664 11.7535 14.093C11.7535 14.093 11.7535 14.093 11.7602 14.093C13.8002 12.8264 15.1668 10.573 15.1668 8.00634V7.99967ZM12.1868 12.513L12.4535 9.83967C12.4602 9.73967 12.4535 9.63967 12.4401 9.53967L14.1535 8.31301C14.0668 9.97301 13.3335 11.453 12.1868 12.513V12.513ZM8.00016 1.83301C11.1002 1.83301 13.6668 4.13967 14.1002 7.11967L11.8668 8.71968C11.8668 8.71968 11.8335 8.69301 11.8135 8.67968L8.82015 7.18634C8.30682 6.93301 7.69351 6.93301 7.18018 7.18634L4.18685 8.68634C4.18685 8.68634 4.1535 8.713 4.1335 8.72634L1.90682 7.13301C2.33349 4.14634 4.90017 1.84634 8.00684 1.84634L8.00016 1.83301ZM1.84684 8.31301L3.56018 9.53967C3.54685 9.63967 3.5335 9.73967 3.54683 9.83967L3.81348 12.513C2.67348 11.453 1.93351 9.96634 1.84684 8.31301V8.31301ZM4.89351 13.3197L4.54016 9.74634C4.54016 9.713 4.54018 9.67301 4.56018 9.64634C4.57351 9.61967 4.60016 9.593 4.62683 9.57967L7.62016 8.08634C7.85349 7.97301 8.13349 7.97301 8.36682 8.08634L11.3535 9.57967C11.3535 9.57967 11.4135 9.61967 11.4268 9.653C11.4402 9.67967 11.4535 9.71968 11.4468 9.75301L11.0935 13.333C10.1802 13.8663 9.12016 14.1797 7.99349 14.1797C6.86682 14.1797 5.80685 13.8663 4.89351 13.333V13.3197ZM9.16016 11.9997C9.16016 12.273 8.93349 12.4997 8.66016 12.4997H7.32682C7.05349 12.4997 6.82682 12.273 6.82682 11.9997C6.82682 11.7263 7.05349 11.4997 7.32682 11.4997H8.66016C8.93349 11.4997 9.16016 11.7263 9.16016 11.9997ZM8.85352 5.83967C9.06018 5.23967 9.62685 4.83301 10.2668 4.83301C10.9068 4.83301 11.4735 5.233 11.6802 5.83967C11.7668 6.09967 11.6335 6.38635 11.3735 6.47301C11.3202 6.49301 11.2668 6.49967 11.2068 6.49967C11.0002 6.49967 10.8068 6.37301 10.7335 6.15968C10.6668 5.96634 10.4735 5.83301 10.2668 5.83301C10.0602 5.83301 9.86684 5.96634 9.80017 6.15968C9.7135 6.41968 9.42683 6.55967 9.16683 6.46634C8.90683 6.37301 8.76681 6.09301 8.86015 5.83301L8.85352 5.83967ZM4.30684 5.83967C4.51351 5.23967 5.08017 4.83301 5.72017 4.83301C6.36017 4.83301 6.92684 5.233 7.1335 5.83967C7.22017 6.09967 7.08682 6.38635 6.82682 6.47301C6.77349 6.49301 6.72016 6.49967 6.66016 6.49967C6.45349 6.49967 6.26018 6.37301 6.18685 6.15968C6.12018 5.96634 5.92684 5.83301 5.72017 5.83301C5.51351 5.83301 5.32017 5.96634 5.2535 6.15968C5.16683 6.41968 4.88016 6.55967 4.62016 6.46634C4.36016 6.37301 4.22014 6.09301 4.31348 5.83301L4.30684 5.83967Z" fill="#3B3B3E"/>
</svg>
