<svg width="16" height="16" viewBox="0 0 16 16" fill="none" xmlns="http://www.w3.org/2000/svg">
<path d="M10.2526 14.5H5.7474C5.35273 14.5 4.96602 14.34 4.68669 14.0607L1.93929 11.3133C1.65996 11.034 1.5 10.6473 1.5 10.2526V5.7474C1.5 5.35273 1.65996 4.96602 1.93929 4.68669L4.68669 1.93929C4.96602 1.65996 5.35273 1.5 5.7474 1.5H10.2526C10.6473 1.5 11.034 1.65996 11.3133 1.93929L14.0607 4.68669C14.34 4.96602 14.5 5.35273 14.5 5.7474V10.2526C14.5 10.6473 14.34 11.034 14.0607 11.3133L11.3133 14.0607C11.034 14.34 10.6473 14.5 10.2526 14.5ZM5.7474 2.5C5.61606 2.5 5.48671 2.55331 5.39404 2.64665L2.64665 5.39404C2.55331 5.48738 2.5 5.61606 2.5 5.7474V10.2526C2.5 10.3839 2.55331 10.5133 2.64665 10.606L5.39404 13.3534C5.48738 13.4467 5.61606 13.5 5.7474 13.5H10.2526C10.3839 13.5 10.5133 13.4467 10.606 13.3534L13.3534 10.606C13.4467 10.5126 13.5 10.3839 13.5 10.2526V5.7474C13.5 5.61606 13.4467 5.48671 13.3534 5.39404L10.606 2.64665C10.5126 2.55331 10.3839 2.5 10.2526 2.5H5.7474ZM8.68001 10C8.68001 9.632 8.38201 9.33333 8.01335 9.33333H8.00667C7.63867 9.33333 7.34326 9.632 7.34326 10C7.34326 10.368 7.64535 10.6667 8.01335 10.6667C8.38135 10.6667 8.68001 10.368 8.68001 10ZM8.5 8V5.33333C8.5 5.05733 8.276 4.83333 8 4.83333C7.724 4.83333 7.5 5.05733 7.5 5.33333V8C7.5 8.276 7.724 8.5 8 8.5C8.276 8.5 8.5 8.276 8.5 8Z" fill="#3B3B3E"/>
</svg>
