<svg width="16" height="16" viewBox="0 0 16 16" fill="none" xmlns="http://www.w3.org/2000/svg">
<path d="M13.4838 3.68182C12.8605 3.38048 12.1378 3.45984 11.5945 3.88917L8.49984 6.33253V5.30991C8.49984 4.60991 8.11047 3.98647 7.4838 3.68247C6.86047 3.38113 6.13782 3.46049 5.59448 3.88982L2.18717 6.58058C1.75117 6.92525 1.50049 7.44315 1.50049 8.00115C1.50049 8.55915 1.75117 9.07722 2.18717 9.42189L5.59448 12.1138C5.91915 12.3698 6.30784 12.5018 6.70117 12.5018C6.96584 12.5018 7.23314 12.4418 7.4838 12.3211C8.11047 12.0171 8.49984 11.3939 8.49984 10.6939V9.67042L11.5945 12.1152C11.9191 12.3712 12.3078 12.5031 12.7012 12.5031C12.9658 12.5031 13.2331 12.4431 13.4838 12.3224C14.1105 12.0184 14.4998 11.3952 14.4998 10.6952V5.31316C14.4998 4.60916 14.1105 3.98582 13.4838 3.68182ZM7.49984 10.6919C7.49984 11.0106 7.33053 11.2818 7.0472 11.4191C6.76853 11.5545 6.4572 11.5191 6.21387 11.3278L2.80648 8.63657C2.61181 8.48257 2.49984 8.2505 2.49984 8.0005C2.49984 7.7505 2.61181 7.51843 2.80648 7.36443L6.21387 4.67384C6.4572 4.48184 6.7692 4.44788 7.0472 4.58188C7.33053 4.71922 7.49984 4.9911 7.49984 5.3091V10.6919ZM13.4998 10.6919C13.4998 11.0106 13.3305 11.2818 13.0472 11.4191C12.7679 11.5545 12.4572 11.5191 12.2139 11.3278L8.80648 8.63657C8.61181 8.48257 8.49984 8.2505 8.49984 8.0005C8.49984 7.7505 8.61181 7.51843 8.80648 7.36443L12.2139 4.67384C12.4572 4.48184 12.7685 4.44788 13.0472 4.58188C13.3305 4.71922 13.4998 4.9911 13.4998 5.3091V10.6919Z" fill="#3B3B3E"/>
</svg>
