<svg width="16" height="16" viewBox="0 0 16 16" fill="none" xmlns="http://www.w3.org/2000/svg">
<path d="M14.0607 6.93933L11.0607 3.93933C10.782 3.66 10.3953 3.5 10 3.5H4C2.388 3.5 1.5 4.388 1.5 6V10C1.5 11.612 2.388 12.5 4 12.5H10C10.3953 12.5 10.782 12.34 11.0607 12.0607L14.0607 9.06067C14.344 8.77734 14.5 8.40067 14.5 8C14.5 7.59933 14.344 7.22266 14.0607 6.93933ZM13.3534 8.35333L10.3534 11.3533C10.26 11.446 10.1313 11.4993 10 11.4993H4C2.94867 11.4993 2.5 11.0507 2.5 9.99933V5.99933C2.5 4.948 2.94867 4.49933 4 4.49933H10C10.1313 4.49933 10.2607 4.55266 10.3534 4.646L13.3534 7.646C13.448 7.74066 13.5 7.866 13.5 7.99933C13.5 8.13266 13.448 8.25867 13.3534 8.35333ZM8.35335 7.02L7.37337 8L8.35335 8.98C8.54869 9.17533 8.54869 9.492 8.35335 9.68734C8.25602 9.78467 8.128 9.834 8 9.834C7.872 9.834 7.74398 9.78534 7.64665 9.68734L6.66667 8.70734L5.68669 9.68734C5.58935 9.78467 5.46133 9.834 5.33333 9.834C5.20533 9.834 5.07731 9.78534 4.97998 9.68734C4.78465 9.492 4.78465 9.17533 4.97998 8.98L5.95996 8L4.97998 7.02C4.78465 6.82467 4.78465 6.508 4.97998 6.31266C5.17531 6.11733 5.492 6.11733 5.68734 6.31266L6.66732 7.29266L7.6473 6.31266C7.84263 6.11733 8.15932 6.11733 8.35466 6.31266C8.54866 6.508 8.54869 6.82533 8.35335 7.02Z" fill="#3B3B3E"/>
</svg>
