<svg width="16" height="16" viewBox="0 0 16 16" fill="none" xmlns="http://www.w3.org/2000/svg">
<path d="M8.00016 0.833008C4.04816 0.833008 0.833496 4.04767 0.833496 7.99967C0.833496 11.9517 4.04816 15.1663 8.00016 15.1663C11.9522 15.1663 15.1668 11.9517 15.1668 7.99967C15.1668 4.04767 11.9522 0.833008 8.00016 0.833008ZM8.00016 14.1663C4.5995 14.1663 1.8335 11.4003 1.8335 7.99967C1.8335 4.59901 4.5995 1.83301 8.00016 1.83301C11.4008 1.83301 14.1668 4.59901 14.1668 7.99967C14.1668 11.4003 11.4008 14.1663 8.00016 14.1663ZM11.1668 7.99967C11.1668 8.27567 10.9428 8.49967 10.6668 8.49967H6.54085L7.6875 9.64632C7.88283 9.84165 7.88283 10.1583 7.6875 10.3537C7.59017 10.451 7.46215 10.5003 7.33415 10.5003C7.20615 10.5003 7.07813 10.4517 6.98079 10.3537L4.98079 8.35368C4.93479 8.30768 4.89822 8.25241 4.87288 8.19108C4.82222 8.06908 4.82222 7.93108 4.87288 7.80908C4.89822 7.74775 4.93479 7.69232 4.98079 7.64632L6.98079 5.64632C7.17613 5.45099 7.49282 5.45099 7.68815 5.64632C7.88348 5.84165 7.88348 6.15834 7.68815 6.35368L6.5415 7.50033H10.6668C10.9428 7.49966 11.1668 7.72367 11.1668 7.99967Z" fill="#3B3B3E"/>
</svg>
