<svg width="16" height="16" viewBox="0 0 16 16" fill="none" xmlns="http://www.w3.org/2000/svg">
<path d="M9.58518 13.5853C9.25118 14.158 8.65852 14.5 7.99985 14.5C7.34119 14.5 6.74919 14.158 6.41453 13.5853C6.27586 13.3473 6.35587 13.0407 6.59454 12.902C6.83254 12.7627 7.13854 12.8433 7.27854 13.082C7.58454 13.6067 8.41517 13.6067 8.72117 13.082C8.8605 12.8433 9.16717 12.7627 9.40517 12.902C9.64383 13.0407 9.72385 13.3473 9.58518 13.5853ZM12.4999 8.33333V6.66667C12.4999 6.39067 12.2759 6.16667 11.9999 6.16667C11.7239 6.16667 11.4999 6.39067 11.4999 6.66667V8.33333C11.4999 9.62467 11.9985 10.772 12.4098 11.5H6.66652C6.39052 11.5 6.16652 11.724 6.16652 12C6.16652 12.276 6.39052 12.5 6.66652 12.5H13.3332C13.5252 12.5 13.7005 12.39 13.7839 12.2167C13.8672 12.0433 13.8439 11.838 13.7239 11.6873C13.7112 11.6727 12.4999 10.1373 12.4999 8.33333ZM14.3532 2.35333L4.35321 12.3533L2.35321 14.3533C2.25587 14.4507 2.12785 14.5 1.99985 14.5C1.87185 14.5 1.74383 14.4513 1.6465 14.3533C1.45117 14.158 1.45117 13.8413 1.6465 13.646L2.79319 12.4993H2.66652C2.47452 12.4993 2.29986 12.3893 2.21653 12.216C2.13319 12.0433 2.15587 11.838 2.2752 11.6873C2.28787 11.672 3.4992 10.1253 3.4992 8.33266V6C3.4992 3.51867 5.51787 1.5 7.9992 1.5C9.52654 1.5 10.9359 2.28066 11.7599 3.53266L13.6458 1.64667C13.8412 1.45133 14.1579 1.45133 14.3532 1.64667C14.5485 1.842 14.5485 2.158 14.3532 2.35333ZM11.0298 4.26334C10.4105 3.18534 9.25919 2.5 7.99985 2.5C6.06985 2.5 4.49985 4.07 4.49985 6V8.33333C4.49985 9.62467 4.00119 10.772 3.58986 11.5H3.79254L11.0298 4.26334Z" fill="#3B3B3E"/>
</svg>
