<svg width="16" height="16" viewBox="0 0 16 16" fill="none" xmlns="http://www.w3.org/2000/svg">
<path d="M11.75 1.5H4.25C2.47667 1.5 1.5 2.47667 1.5 4.25V11.75C1.5 13.5233 2.47667 14.5 4.25 14.5H11.75C13.5233 14.5 14.5 13.5233 14.5 11.75V4.25C14.5 2.47667 13.5233 1.5 11.75 1.5ZM11.5 13.5H4.5V13.2467C4.5 12.6913 4.67003 10.88 6.86003 10.88H9.13997C11.33 10.88 11.5 12.6913 11.5 13.2467V13.5ZM13.5 11.75C13.5 12.6873 13.1913 13.2113 12.5 13.4073V13.2467C12.5 11.6933 11.62 9.87996 9.13997 9.87996H6.86003C4.38003 9.87996 3.5 11.694 3.5 13.2467V13.4073C2.80867 13.2113 2.5 12.6867 2.5 11.75V4.25C2.5 3.02333 3.02333 2.5 4.25 2.5H11.75C12.9767 2.5 13.5 3.02333 13.5 4.25V11.75ZM8.00537 4.16667C6.62737 4.16667 5.50537 5.288 5.50537 6.66667C5.50537 8.04533 6.62737 9.16667 8.00537 9.16667C9.38337 9.16667 10.5054 8.04533 10.5054 6.66667C10.5054 5.288 9.38337 4.16667 8.00537 4.16667ZM8.00537 8.16667C7.1787 8.16667 6.50537 7.494 6.50537 6.66667C6.50537 5.83933 7.1787 5.16667 8.00537 5.16667C8.83204 5.16667 9.50537 5.83933 9.50537 6.66667C9.50537 7.494 8.83204 8.16667 8.00537 8.16667Z" fill="#3B3B3E"/>
</svg>
