<svg width="16" height="16" viewBox="0 0 16 16" fill="none" xmlns="http://www.w3.org/2000/svg">
<path d="M12.3532 11.6472C12.5485 11.8425 12.5485 12.1592 12.3532 12.3545C12.2558 12.4518 12.1278 12.5012 11.9998 12.5012C11.8718 12.5012 11.7438 12.4525 11.6465 12.3545L7.99983 8.70782L4.35317 12.3545C4.25583 12.4518 4.12783 12.5012 3.99983 12.5012C3.87183 12.5012 3.74383 12.4525 3.6465 12.3545C3.45117 12.1592 3.45117 11.8425 3.6465 11.6472L7.29317 8.0005L3.6465 4.35386C3.45117 4.15853 3.45117 3.84183 3.6465 3.6465C3.84183 3.45117 4.1585 3.45117 4.35384 3.6465L8.0005 7.29319L11.6472 3.6465C11.8425 3.45117 12.1592 3.45117 12.3545 3.6465C12.5498 3.84183 12.5498 4.15853 12.3545 4.35386L8.70783 8.0005L12.3532 11.6472Z" fill="#3B3B3E"/>
</svg>
