<svg width="16" height="16" viewBox="0 0 16 16" fill="none" xmlns="http://www.w3.org/2000/svg">
<path d="M14.0981 2.84373C10.8135 2.18707 9.67615 1.61386 8.23682 0.887191C8.09615 0.817191 7.90955 0.825802 7.76888 0.896469C6.30888 1.62047 5.15486 2.19307 1.90153 2.84373C1.66753 2.8904 1.49951 3.09581 1.49951 3.33381V7.25975C1.49951 12.7491 6.78214 14.7884 7.84147 15.1417C7.8928 15.1591 7.94618 15.1678 7.99951 15.1678C8.05285 15.1678 8.10622 15.1591 8.15755 15.1417C9.21689 14.7884 14.4995 12.7491 14.4995 7.25975V3.33381C14.5002 3.09581 14.3321 2.88973 14.0981 2.84373ZM13.5002 7.25975C13.5002 11.8364 9.2215 13.6998 8.00016 14.1378C6.77883 13.6998 2.50016 11.8357 2.50016 7.25975V3.7425C5.4235 3.13183 6.62542 2.57788 8.01009 1.89321C9.31209 2.54721 10.5515 3.12516 13.5002 3.7425V7.25975ZM4.95085 8.57453C5.03151 8.75519 5.21087 8.87108 5.4082 8.87108H6.75944V11.3338C6.75944 11.5411 6.88691 11.7264 7.08024 11.8004C7.13824 11.8231 7.19944 11.8338 7.25944 11.8338C7.39811 11.8338 7.53418 11.7758 7.63151 11.6684L10.9648 7.9645C11.0968 7.81784 11.1301 7.60642 11.0501 7.42642C10.9695 7.24575 10.7901 7.12987 10.5928 7.12987H9.24154V4.66714C9.24154 4.45981 9.11423 4.2745 8.9209 4.2005C8.72757 4.12584 8.50878 4.1785 8.37012 4.3325L5.03678 8.03644C4.90345 8.18311 4.87085 8.39386 4.95085 8.57453ZM8.24089 5.97052V7.63052C8.24089 7.90652 8.46489 8.13052 8.74089 8.13052H9.47022L7.75944 10.0311V8.37108C7.75944 8.09508 7.53544 7.87108 7.25944 7.87108H6.53011L8.24089 5.97052Z" fill="#3B3B3E"/>
</svg>
