<svg width="16" height="16" viewBox="0 0 16 16" fill="none" xmlns="http://www.w3.org/2000/svg">
<path d="M12.25 14.5H6.41667C4.96533 14.5 4.16667 13.7013 4.16667 12.25V6.41667C4.16667 4.96533 4.96533 4.16667 6.41667 4.16667H12.25C13.7013 4.16667 14.5 4.96533 14.5 6.41667V12.25C14.5 13.7013 13.7013 14.5 12.25 14.5ZM6.41667 5.16667C5.52867 5.16667 5.16667 5.52867 5.16667 6.41667V12.25C5.16667 13.138 5.52867 13.5 6.41667 13.5H12.25C13.138 13.5 13.5 13.138 13.5 12.25V6.41667C13.5 5.52867 13.138 5.16667 12.25 5.16667H6.41667ZM2.5 10V3.75C2.5 2.862 2.862 2.5 3.75 2.5H10C10.276 2.5 10.5 2.276 10.5 2C10.5 1.724 10.276 1.5 10 1.5H3.75C2.29867 1.5 1.5 2.29867 1.5 3.75V10C1.5 10.276 1.724 10.5 2 10.5C2.276 10.5 2.5 10.276 2.5 10Z" fill="#3B3B3E"/>
</svg>
