<svg width="16" height="16" viewBox="0 0 16 16" fill="none" xmlns="http://www.w3.org/2000/svg">
<path d="M13.6866 5.64667L9.68661 1.64667C9.59261 1.55267 9.46592 1.5 9.33325 1.5H5.33325C3.72125 1.5 2.83325 2.388 2.83325 4V12C2.83325 13.612 3.72125 14.5 5.33325 14.5H11.3333C12.9453 14.5 13.8333 13.612 13.8333 12V6C13.8333 5.86733 13.7806 5.74 13.6866 5.64667ZM9.83325 3.20734L12.1259 5.5H11.3333C10.2819 5.5 9.83325 5.05133 9.83325 4V3.20734ZM11.3333 13.5H5.33325C4.28192 13.5 3.83325 13.0513 3.83325 12V4C3.83325 2.94867 4.28192 2.5 5.33325 2.5H8.83325V4C8.83325 5.612 9.72125 6.5 11.3333 6.5H12.8333V12C12.8333 13.0513 12.3846 13.5 11.3333 13.5ZM9.01994 8.98C9.21527 9.17533 9.21527 9.492 9.01994 9.68734C8.92261 9.78467 8.79459 9.834 8.66659 9.834C8.53859 9.834 8.41057 9.78534 8.31323 9.68734L7.83325 9.20734V11.3333C7.83325 11.6093 7.60925 11.8333 7.33325 11.8333C7.05725 11.8333 6.83325 11.6093 6.83325 11.3333V9.20734L6.35327 9.68734C6.15794 9.88267 5.84125 9.88267 5.64591 9.68734C5.45058 9.492 5.45058 9.17533 5.64591 8.98L6.97925 7.64667C7.02525 7.60067 7.08051 7.564 7.14185 7.53867C7.26385 7.488 7.40184 7.488 7.52384 7.53867C7.58518 7.564 7.6406 7.60067 7.6866 7.64667L9.01994 8.98Z" fill="#3B3B3E"/>
</svg>
