<svg width="16" height="16" viewBox="0 0 16 16" fill="none" xmlns="http://www.w3.org/2000/svg">
<path d="M14 3.5H11.6273C11.0267 3.5 11.0013 3.424 10.8367 2.93066L10.702 2.526C10.4973 1.91267 9.926 1.5 9.27934 1.5H6.72066C6.074 1.5 5.502 1.912 5.298 2.526L5.16333 2.93066C4.99866 3.42466 4.97334 3.5 4.37267 3.5H2C1.724 3.5 1.5 3.724 1.5 4C1.5 4.276 1.724 4.5 2 4.5H2.86534L3.37667 12.166C3.47534 13.6493 4.38467 14.5 5.87134 14.5H10.1293C11.6153 14.5 12.5247 13.6493 12.624 12.166L13.1353 4.5H14C14.276 4.5 14.5 4.276 14.5 4C14.5 3.724 14.276 3.5 14 3.5ZM6.24666 2.842C6.31533 2.63733 6.50533 2.5 6.72066 2.5H9.27934C9.49467 2.5 9.68534 2.63733 9.75334 2.842L9.888 3.24666C9.91733 3.334 9.94667 3.41867 9.97867 3.5H6.02C6.052 3.418 6.08201 3.33333 6.11134 3.24666L6.24666 2.842ZM11.6253 12.0993C11.562 13.0547 11.086 13.5 10.1287 13.5H5.87067C4.91333 13.5 4.438 13.0553 4.374 12.0993L3.86733 4.5H4.372C4.45533 4.5 4.52467 4.49134 4.59933 4.486C4.622 4.48934 4.64266 4.5 4.666 4.5H11.3327C11.3567 4.5 11.3767 4.48934 11.3993 4.486C11.474 4.49134 11.5433 4.5 11.6267 4.5H12.1313L11.6253 12.0993ZM10.02 7.86866C10.2153 8.064 10.2153 8.38067 10.02 8.576L7.798 10.7987C7.704 10.8927 7.57667 10.9453 7.44467 10.9453C7.31267 10.9453 7.18466 10.8927 7.09133 10.7987L5.98 9.68734C5.78467 9.492 5.78467 9.17533 5.98 8.98C6.17533 8.78467 6.492 8.78467 6.68734 8.98L7.44467 9.73734L9.31333 7.86866C9.50867 7.67333 9.82467 7.67333 10.02 7.86866Z" fill="#3B3B3E"/>
</svg>
