<svg width="16" height="16" viewBox="0 0 16 16" fill="none" xmlns="http://www.w3.org/2000/svg">
<path d="M12.2026 8.90646L10.564 6.80047C10.9153 6.7278 11.2186 6.50716 11.3806 6.17449C11.5793 5.76716 11.53 5.29247 11.2513 4.9358L8.9253 1.95248C8.4773 1.37782 7.52264 1.37782 7.07464 1.95248L4.74863 4.9358C4.46996 5.29313 4.42063 5.76782 4.6193 6.17449C4.78196 6.50716 5.08463 6.7278 5.43597 6.80047L3.79664 8.90715C3.46531 9.33382 3.40731 9.90049 3.64397 10.3845C3.88064 10.8672 4.3613 11.1671 4.89863 11.1671H7.49997V13.9998C7.49997 14.2758 7.72397 14.4998 7.99997 14.4998C8.27597 14.4998 8.49997 14.2758 8.49997 13.9998V11.1665H11.1013C11.6386 11.1665 12.1193 10.8665 12.356 10.3838C12.5926 9.8998 12.5346 9.3338 12.2026 8.90646ZM5.5373 5.54981L7.86331 2.56646C7.90865 2.50779 7.96864 2.49916 8.00064 2.49916C8.03264 2.49916 8.09197 2.50779 8.13797 2.56646L10.464 5.54981C10.5226 5.62515 10.5013 5.69783 10.4833 5.73516C10.4653 5.77183 10.4213 5.83314 10.3273 5.83314H5.67531C5.58064 5.83314 5.53663 5.77183 5.5193 5.73516C5.49997 5.69849 5.47864 5.62515 5.5373 5.54981ZM11.458 9.94382C11.4253 10.0105 11.3246 10.1665 11.1013 10.1665H4.89863C4.6753 10.1665 4.5753 10.0111 4.54196 9.94382C4.50863 9.87648 4.44664 9.69983 4.58597 9.51983L6.67665 6.83249H9.32264L11.4126 9.51913C11.5526 9.6998 11.4906 9.87648 11.458 9.94382Z" fill="#3B3B3E"/>
</svg>
