<svg width="16" height="16" viewBox="0 0 16 16" fill="none" xmlns="http://www.w3.org/2000/svg">
<path d="M14.4613 8.19141C14.436 8.25274 14.3994 8.308 14.3534 8.354L11.0201 11.6873C10.9228 11.7847 10.7947 11.834 10.6667 11.834C10.5387 11.834 10.4107 11.7853 10.3134 11.6873C10.1181 11.492 10.1181 11.1753 10.3134 10.98L12.7934 8.5H4.66675C4.39075 8.5 4.16675 8.276 4.16675 8C4.16675 7.724 4.39075 7.5 4.66675 7.5H12.7927L10.3127 5.02002C10.1174 4.82469 10.1174 4.508 10.3127 4.31266C10.5081 4.11733 10.8248 4.11733 11.0201 4.31266L14.3534 7.646C14.3994 7.692 14.436 7.74726 14.4613 7.80859C14.512 7.93126 14.512 8.06874 14.4613 8.19141ZM2.66675 3.5C2.39075 3.5 2.16675 3.724 2.16675 4V12C2.16675 12.276 2.39075 12.5 2.66675 12.5C2.94275 12.5 3.16675 12.276 3.16675 12V4C3.16675 3.724 2.94275 3.5 2.66675 3.5Z" fill="#3B3B3E"/>
</svg>
