<svg width="16" height="16" viewBox="0 0 16 16" fill="none" xmlns="http://www.w3.org/2000/svg">
<path d="M12 1.5H4C2.388 1.5 1.5 2.388 1.5 4V14C1.5 14.202 1.62193 14.3847 1.80859 14.462C1.87059 14.488 1.93533 14.5 2 14.5C2.13 14.5 2.25802 14.4494 2.35335 14.3534L4.20671 12.5H12C13.612 12.5 14.5 11.612 14.5 10V4C14.5 2.388 13.612 1.5 12 1.5ZM13.5 10C13.5 11.0513 13.0513 11.5 12 11.5H4C3.86733 11.5 3.73998 11.5526 3.64665 11.6466L2.5 12.7933V4C2.5 2.94867 2.94867 2.5 4 2.5H12C13.0513 2.5 13.5 2.94867 13.5 4V10ZM8.68001 9C8.68001 9.368 8.38201 9.66667 8.01335 9.66667C7.64535 9.66667 7.34326 9.368 7.34326 9C7.34326 8.632 7.63867 8.33333 8.00667 8.33333H8.01335C8.38135 8.33333 8.68001 8.632 8.68001 9ZM7.5 7V5C7.5 4.724 7.724 4.5 8 4.5C8.276 4.5 8.5 4.724 8.5 5V7C8.5 7.276 8.276 7.5 8 7.5C7.724 7.5 7.5 7.276 7.5 7Z" fill="#3B3B3E"/>
</svg>
