<svg width="16" height="16" viewBox="0 0 16 16" fill="none" xmlns="http://www.w3.org/2000/svg">
<path d="M12 1.5H4C2.388 1.5 1.5 2.388 1.5 4V14C1.5 14.202 1.62193 14.3847 1.80859 14.462C1.87059 14.488 1.93533 14.5 2 14.5C2.13 14.5 2.25802 14.4494 2.35335 14.3534L4.20671 12.5H12C13.612 12.5 14.5 11.612 14.5 10V4C14.5 2.388 13.612 1.5 12 1.5ZM13.5 10C13.5 11.0513 13.0513 11.5 12 11.5H4C3.86733 11.5 3.73998 11.5526 3.64665 11.6466L2.5 12.7933V4C2.5 2.94867 2.94867 2.5 4 2.5H12C13.0513 2.5 13.5 2.94867 13.5 4V10ZM10.3687 5.31331C10.564 5.50865 10.564 5.82534 10.3687 6.02067L7.70199 8.68734C7.60465 8.78467 7.47663 8.83398 7.34863 8.83398C7.22063 8.83398 7.09261 8.78534 6.99528 8.68734L5.66195 7.354C5.46661 7.15867 5.46661 6.84198 5.66195 6.64665C5.85728 6.45131 6.17397 6.45131 6.3693 6.64665L7.34928 7.62663L9.6626 5.31331C9.8566 5.11798 10.1733 5.11798 10.3687 5.31331Z" fill="#3B3B3E"/>
</svg>
