<svg width="16" height="16" viewBox="0 0 16 16" fill="none" xmlns="http://www.w3.org/2000/svg">
<path d="M9.02018 6.35303L7.37353 7.99967L9.02018 9.64632C9.21552 9.84165 9.21552 10.1583 9.02018 10.3537C8.92285 10.451 8.79483 10.5003 8.66683 10.5003C8.53883 10.5003 8.41081 10.4517 8.31348 10.3537L6.31348 8.35368C6.11814 8.15834 6.11814 7.84165 6.31348 7.64632L8.31348 5.64632C8.50881 5.45099 8.8255 5.45099 9.02083 5.64632C9.21617 5.84165 9.21552 6.15769 9.02018 6.35303ZM15.1668 7.99967C15.1668 11.9517 11.9522 15.1663 8.00016 15.1663C4.04816 15.1663 0.833496 11.9517 0.833496 7.99967C0.833496 4.04767 4.04816 0.833008 8.00016 0.833008C11.9522 0.833008 15.1668 4.04767 15.1668 7.99967ZM14.1668 7.99967C14.1668 4.59901 11.4008 1.83301 8.00016 1.83301C4.5995 1.83301 1.8335 4.59901 1.8335 7.99967C1.8335 11.4003 4.5995 14.1663 8.00016 14.1663C11.4008 14.1663 14.1668 11.4003 14.1668 7.99967Z" fill="#3B3B3E"/>
</svg>
