<svg width="16" height="16" viewBox="0 0 16 16" fill="none" xmlns="http://www.w3.org/2000/svg">
<path d="M10.1667 3.85368C9.06667 3.85368 8.16667 4.74701 8.16667 5.84701C8.16667 6.94701 9.06667 7.84035 10.1667 7.84035C11.2667 7.84035 12.1667 6.94701 12.1667 5.84701C12.1667 4.74701 11.2667 3.85368 10.1667 3.85368V3.85368ZM10.1667 6.84701C9.61333 6.84701 9.16667 6.40035 9.16667 5.85368C9.16667 5.30701 9.61333 4.86035 10.1667 4.86035C10.72 4.86035 11.1667 5.30701 11.1667 5.85368C11.1667 6.40035 10.72 6.84701 10.1667 6.84701ZM14.2867 2.04702C14.24 1.86702 14.1 1.72701 13.92 1.68701C13.76 1.64701 9.90666 0.747015 7.39333 3.26035C7.05333 3.60035 6.76667 3.93368 6.5 4.25368L5.10667 4.55368C3.78667 4.76702 2.66666 5.66701 2.17333 6.90035L1.53333 8.49368C1.46667 8.66701 1.49333 8.86035 1.61333 9.00035C1.70666 9.11368 1.84667 9.17368 1.99334 9.17368C2.02667 9.17368 2.06666 9.17368 2.1 9.16035L4.34667 8.66035C4.31334 8.77368 4.28 8.88702 4.24 9.00702C4.15333 9.30702 4.22666 9.62702 4.44666 9.84035L6.12667 11.5203C6.28667 11.6803 6.5 11.767 6.72 11.767C6.79333 11.767 6.86666 11.7603 6.93333 11.7403C7.07333 11.7003 7.20666 11.667 7.34 11.627L6.83333 13.887C6.79333 14.067 6.85333 14.2537 7 14.3737C7.09333 14.4537 7.20667 14.4937 7.32667 14.4937C7.38667 14.4937 7.45334 14.4803 7.51334 14.4603L9.10667 13.8203C10.3467 13.327 11.2533 12.207 11.46 10.9203L11.7533 9.57368C12.0867 9.30035 12.4267 9.00702 12.7867 8.64702C15.3 6.12702 14.3267 2.20702 14.2867 2.04035V2.04702ZM2.82 7.98702L3.10667 7.27368C3.46667 6.36035 4.3 5.70035 5.29333 5.54035L5.66 5.46035C5.49334 5.74035 5.35333 6.02035 5.22 6.31368C5.21333 6.32702 5.20667 6.34035 5.2 6.35368C5.02 6.74035 4.86 7.14701 4.71334 7.56701L2.82 7.98702V7.98702ZM6.77333 10.7537L5.23334 9.21368C5.43334 8.54035 5.62666 7.95368 5.84 7.40702L8.63333 10.1937C8.08666 10.3937 7.48666 10.567 6.78 10.7603L6.77333 10.7537ZM10.48 10.7403C10.3267 11.707 9.66 12.5337 8.74 12.8937L8.02666 13.1803L8.44666 11.307C8.89333 11.167 9.30667 11.007 9.7 10.8403C9.70667 10.8403 9.72 10.8337 9.72666 10.827C10.0133 10.7003 10.2867 10.5603 10.5533 10.407L10.48 10.7403V10.7403ZM9.62667 9.77368L6.26666 6.42035C6.68666 5.60035 7.23333 4.83368 8.09999 3.96702C9.83999 2.22702 12.4867 2.46035 13.38 2.60035C13.54 3.50035 13.8267 6.20035 12.08 7.94701C11.2133 8.81368 10.4667 9.36035 9.62667 9.77368Z" fill="#3B3B3E"/>
</svg>
