<svg width="16" height="16" viewBox="0 0 16 16" fill="none" xmlns="http://www.w3.org/2000/svg">
<path d="M13.6866 5.64667L9.68661 1.64667C9.59261 1.55267 9.46592 1.5 9.33325 1.5H5.33325C3.72125 1.5 2.83325 2.388 2.83325 4V12C2.83325 13.612 3.72125 14.5 5.33325 14.5H11.3333C12.9453 14.5 13.8333 13.612 13.8333 12V6C13.8333 5.86733 13.7806 5.74 13.6866 5.64667ZM9.83325 3.20734L12.1259 5.5H11.3333C10.2819 5.5 9.83325 5.05133 9.83325 4V3.20734ZM11.3333 13.5H5.33325C4.28192 13.5 3.83325 13.0513 3.83325 12V4C3.83325 2.94867 4.28192 2.5 5.33325 2.5H8.83325V4C8.83325 5.612 9.72125 6.5 11.3333 6.5H12.8333V12C12.8333 13.0513 12.3846 13.5 11.3333 13.5ZM10.0199 8.35333L9.03996 9.33333L10.0199 10.3133C10.2153 10.5087 10.2153 10.8253 10.0199 11.0207C9.92261 11.118 9.79459 11.1673 9.66659 11.1673C9.53859 11.1673 9.41057 11.1187 9.31323 11.0207L8.33325 10.0407L7.35327 11.0207C7.25594 11.118 7.12792 11.1673 6.99992 11.1673C6.87192 11.1673 6.7439 11.1187 6.64657 11.0207C6.45123 10.8253 6.45123 10.5087 6.64657 10.3133L7.62655 9.33333L6.64657 8.35333C6.45123 8.158 6.45123 7.84133 6.64657 7.646C6.8419 7.45066 7.15859 7.45066 7.35392 7.646L8.3339 8.626L9.31388 7.646C9.50922 7.45066 9.82591 7.45066 10.0212 7.646C10.2166 7.84133 10.2153 8.158 10.0199 8.35333Z" fill="#3B3B3E"/>
</svg>
