<svg width="16" height="16" viewBox="0 0 16 16" fill="none" xmlns="http://www.w3.org/2000/svg">
<path d="M8.00003 5.50031C6.62136 5.50031 5.50003 6.62164 5.50003 8.00031C5.50003 9.37897 6.62136 10.5003 8.00003 10.5003C9.3787 10.5003 10.5 9.37897 10.5 8.00031C10.5 6.62164 9.3787 5.50031 8.00003 5.50031ZM8.00003 9.50031C7.1727 9.50031 6.50003 8.82764 6.50003 8.00031C6.50003 7.17297 7.1727 6.50031 8.00003 6.50031C8.82736 6.50031 9.50003 7.17297 9.50003 8.00031C9.50003 8.82764 8.82736 9.50031 8.00003 9.50031ZM14.1387 9.30231C13.676 9.03431 13.388 8.53564 13.3874 8.00031C13.3867 7.46631 13.6727 6.96831 14.1414 6.69698C14.4847 6.49765 14.602 6.05563 14.4034 5.71163L13.2887 3.78764C13.09 3.44431 12.648 3.32631 12.304 3.52431C11.838 3.79298 11.2587 3.79298 10.7914 3.52165C10.3307 3.25431 10.044 2.75764 10.044 2.22498C10.044 1.82564 9.7187 1.50098 9.31937 1.50098H6.68269C6.28269 1.50098 5.95804 1.82564 5.95804 2.22498C5.95804 2.75764 5.67136 3.2543 5.20936 3.52297C4.74336 3.79297 4.1647 3.79363 3.6987 3.52496C3.35403 3.3263 2.91271 3.44498 2.71404 3.78831L1.59803 5.71431C1.39937 6.05765 1.51736 6.49896 1.86402 6.7003C2.32602 6.96763 2.61403 7.46563 2.61537 7.99963C2.6167 8.5343 2.33003 9.03364 1.86203 9.30497C1.69536 9.40164 1.57536 9.55697 1.52603 9.74363C1.4767 9.92963 1.50204 10.1236 1.5987 10.291L2.7127 12.2136C2.91136 12.5576 3.35337 12.677 3.6987 12.4776C4.1647 12.209 4.7427 12.2096 5.20204 12.4756L5.20336 12.4763C5.20536 12.4776 5.20736 12.479 5.21003 12.4803C5.6707 12.7476 5.95669 13.2443 5.95602 13.7776C5.95602 14.177 6.28069 14.5016 6.68002 14.5016H9.31937C9.7187 14.5016 10.0434 14.177 10.0434 13.7783C10.0434 13.245 10.33 12.7483 10.7927 12.4796C11.258 12.2096 11.8367 12.2083 12.3034 12.4776C12.6474 12.6763 13.0887 12.5583 13.288 12.215L14.404 10.289C14.602 9.94431 14.484 9.50231 14.1387 9.30231ZM12.554 11.485C11.8274 11.1683 10.984 11.2116 10.2894 11.6136C9.60069 12.013 9.14603 12.719 9.05803 13.5003H6.94003C6.85337 12.719 6.39736 12.0116 5.70869 11.613C5.01536 11.211 4.1707 11.1683 3.44603 11.485L2.59537 10.0163C3.23203 9.54763 3.61669 8.79565 3.61402 7.99565C3.61202 7.20098 3.22803 6.4543 2.5947 5.98564L3.44603 4.5163C4.17137 4.8323 5.01604 4.78963 5.7107 4.38696C6.3987 3.9883 6.85336 3.28164 6.94136 2.50098H9.05803C9.14537 3.28231 9.6007 3.98831 10.2907 4.38831C10.9834 4.79031 11.828 4.83297 12.554 4.51697L13.4054 5.98564C12.77 6.45364 12.386 7.2043 12.3874 8.00297C12.388 8.79897 12.772 9.54697 13.406 10.017L12.554 11.485Z" fill="#3B3B3E"/>
</svg>
