<svg width="16" height="16" viewBox="0 0 16 16" fill="none" xmlns="http://www.w3.org/2000/svg">
<path d="M14.5 8C14.5 8.276 14.276 8.5 14 8.5H13.1413C12.9047 10.9507 10.9507 12.9046 8.5 13.1413V14C8.5 14.276 8.276 14.5 8 14.5C7.724 14.5 7.5 14.276 7.5 14V13.1419C7.03267 13.0966 6.57466 12.99 6.13399 12.82C5.87599 12.7213 5.748 12.4313 5.84733 12.174C5.94666 11.9167 6.23599 11.788 6.49333 11.8874C6.97599 12.0734 7.48267 12.1673 8 12.1673C10.2973 12.1673 12.1667 10.298 12.1667 8.00065C12.1667 7.48332 12.0727 6.97598 11.8867 6.49398C11.7873 6.23598 11.9153 5.94665 12.1733 5.84798C12.4293 5.74865 12.72 5.8766 12.8193 6.1346C12.9893 6.57594 13.0967 7.03398 13.1413 7.50065H14C14.276 7.49998 14.5 7.724 14.5 8ZM2.35335 14.3534C2.25602 14.4507 2.128 14.5 2 14.5C1.872 14.5 1.74398 14.4514 1.64665 14.3534C1.45131 14.158 1.45131 13.8413 1.64665 13.646L4.01001 11.2827C3.35401 10.488 2.95534 9.526 2.85734 8.5H2C1.724 8.5 1.5 8.276 1.5 8C1.5 7.724 1.724 7.5 2 7.5H2.85868C3.09535 5.04933 5.04933 3.09539 7.5 2.85872V2C7.5 1.724 7.724 1.5 8 1.5C8.276 1.5 8.5 1.724 8.5 2V2.85807C9.526 2.95607 10.488 3.35408 11.2827 4.01074L13.646 1.6473C13.8413 1.45196 14.158 1.45196 14.3534 1.6473C14.5487 1.84263 14.5487 2.15932 14.3534 2.35465L2.35335 14.3534ZM6.90332 8.38932L8.38932 6.90332C8.26532 6.85999 8.13533 6.83333 8 6.83333C7.35667 6.83333 6.83333 7.35667 6.83333 8C6.83333 8.13533 6.85999 8.26599 6.90332 8.38932ZM4.72335 10.57L6.15865 9.1346C5.95065 8.7966 5.83333 8.40867 5.83333 8C5.83333 6.80533 6.80533 5.83333 8 5.83333C8.40867 5.83333 8.79668 5.95002 9.13468 6.15869L10.57 4.72331C9.83932 4.14797 8.94467 3.83333 8 3.83333C5.70267 3.83333 3.83333 5.70267 3.83333 8C3.83333 8.94467 4.14801 9.83932 4.72335 10.57Z" fill="#3B3B3E"/>
</svg>
