<svg width="16" height="16" viewBox="0 0 16 16" fill="none" xmlns="http://www.w3.org/2000/svg">
<path d="M4.6665 7.16699C3.2885 7.16699 2.1665 6.04566 2.1665 4.66699C2.1665 3.28833 3.2885 2.16699 4.6665 2.16699C6.0445 2.16699 7.1665 3.28833 7.1665 4.66699C7.1665 6.04566 6.0445 7.16699 4.6665 7.16699ZM4.6665 3.16699C3.83984 3.16699 3.1665 3.83966 3.1665 4.66699C3.1665 5.49433 3.83984 6.16699 4.6665 6.16699C5.49317 6.16699 6.1665 5.49433 6.1665 4.66699C6.1665 3.83966 5.49317 3.16699 4.6665 3.16699ZM11.3332 7.16699C9.95517 7.16699 8.83317 6.04566 8.83317 4.66699C8.83317 3.28833 9.95517 2.16699 11.3332 2.16699C12.7112 2.16699 13.8332 3.28833 13.8332 4.66699C13.8332 6.04566 12.7112 7.16699 11.3332 7.16699ZM11.3332 3.16699C10.5065 3.16699 9.83317 3.83966 9.83317 4.66699C9.83317 5.49433 10.5065 6.16699 11.3332 6.16699C12.1598 6.16699 12.8332 5.49433 12.8332 4.66699C12.8332 3.83966 12.1598 3.16699 11.3332 3.16699ZM4.6665 13.8337C3.2885 13.8337 2.1665 12.7123 2.1665 11.3337C2.1665 9.95499 3.2885 8.83366 4.6665 8.83366C6.0445 8.83366 7.1665 9.95499 7.1665 11.3337C7.1665 12.7123 6.0445 13.8337 4.6665 13.8337ZM4.6665 9.83366C3.83984 9.83366 3.1665 10.5063 3.1665 11.3337C3.1665 12.161 3.83984 12.8337 4.6665 12.8337C5.49317 12.8337 6.1665 12.161 6.1665 11.3337C6.1665 10.5063 5.49317 9.83366 4.6665 9.83366ZM11.3332 13.8337C9.95517 13.8337 8.83317 12.7123 8.83317 11.3337C8.83317 9.95499 9.95517 8.83366 11.3332 8.83366C12.7112 8.83366 13.8332 9.95499 13.8332 11.3337C13.8332 12.7123 12.7112 13.8337 11.3332 13.8337ZM11.3332 9.83366C10.5065 9.83366 9.83317 10.5063 9.83317 11.3337C9.83317 12.161 10.5065 12.8337 11.3332 12.8337C12.1598 12.8337 12.8332 12.161 12.8332 11.3337C12.8332 10.5063 12.1598 9.83366 11.3332 9.83366Z" fill="#3B3B3E"/>
</svg>
