<svg width="16" height="16" viewBox="0 0 16 16" fill="none" xmlns="http://www.w3.org/2000/svg">
<path d="M6.66672 14.5002C6.60672 14.5002 6.54606 14.4895 6.4874 14.4669C6.29406 14.3929 6.16672 14.2069 6.16672 14.0002V9.16686H3.33338C3.13605 9.16686 2.95739 9.05085 2.87672 8.87018C2.79605 8.68952 2.83006 8.47886 2.96139 8.33219L8.96139 1.66552C9.10006 1.51152 9.31872 1.45886 9.51205 1.53352C9.70539 1.60752 9.83273 1.79352 9.83273 2.00019V6.83352H12.6667C12.864 6.83352 13.0427 6.94953 13.1234 7.13019C13.204 7.31086 13.17 7.52152 13.0387 7.66819L7.03871 14.3349C6.94204 14.4422 6.80538 14.5002 6.66672 14.5002ZM4.45606 8.16686H6.66672C6.94272 8.16686 7.16672 8.39086 7.16672 8.66686V12.6975L11.544 7.83352H9.33338C9.05738 7.83352 8.83338 7.60952 8.83338 7.33352V3.30285L4.45606 8.16686Z" fill="#3B3B3E"/>
</svg>
