<svg width="16" height="16" viewBox="0 0 16 16" fill="none" xmlns="http://www.w3.org/2000/svg">
<path d="M11.8332 8C11.8332 8.276 11.6092 8.5 11.3332 8.5H3.20719L5.68717 10.98C5.8825 11.1753 5.8825 11.492 5.68717 11.6873C5.58984 11.7847 5.46182 11.834 5.33382 11.834C5.20582 11.834 5.0778 11.7853 4.98046 11.6873L1.64713 8.354C1.60113 8.308 1.56455 8.25274 1.53922 8.19141C1.48855 8.06941 1.48855 7.93141 1.53922 7.80941C1.56455 7.74807 1.60113 7.69265 1.64713 7.64665L4.98046 4.31331C5.1758 4.11798 5.49249 4.11798 5.68782 4.31331C5.88315 4.50865 5.88315 4.82534 5.68782 5.02067L3.20784 7.50065H11.3332C11.6092 7.49998 11.8332 7.724 11.8332 8ZM13.9998 3.5C13.7238 3.5 13.4998 3.724 13.4998 4V12C13.4998 12.276 13.7238 12.5 13.9998 12.5C14.2758 12.5 14.4998 12.276 14.4998 12V4C14.4998 3.724 14.2758 3.5 13.9998 3.5Z" fill="#3B3B3E"/>
</svg>
