<svg width="16" height="16" viewBox="0 0 16 16" fill="none" xmlns="http://www.w3.org/2000/svg">
<path d="M9.33329 14.5C9.22729 14.5 9.12199 14.466 9.03333 14.4L6.36666 12.4C6.24133 12.3053 6.16663 12.1573 6.16663 12V9.33333C6.16663 9.2 6.11465 9.074 6.01998 8.97933L2.606 5.56533C2.32266 5.28133 2.16663 4.90533 2.16663 4.50466V3C2.16663 2.17267 2.83996 1.5 3.66663 1.5H12.3333C13.16 1.5 13.8333 2.17267 13.8333 3V4.50466C13.8333 4.90533 13.6773 5.28199 13.3939 5.56533L9.97994 8.97933C9.88527 9.074 9.83329 9.19933 9.83329 9.33333V14C9.83329 14.1893 9.7266 14.3627 9.5566 14.4473C9.48593 14.4827 9.40929 14.5 9.33329 14.5ZM7.16663 11.75L8.83329 13V9.33333C8.83329 8.93267 8.98933 8.556 9.27266 8.27266L12.6866 4.85866C12.7813 4.764 12.8333 4.63866 12.8333 4.50466V3C12.8333 2.724 12.6086 2.5 12.3333 2.5H3.66663C3.39129 2.5 3.16663 2.724 3.16663 3V4.50466C3.16663 4.63799 3.21861 4.764 3.31327 4.85866L6.72725 8.27266C7.01059 8.55666 7.16663 8.93267 7.16663 9.33333V11.75V11.75Z" fill="#3B3B3E"/>
</svg>
