<svg width="16" height="16" viewBox="0 0 16 16" fill="none" xmlns="http://www.w3.org/2000/svg">
<path d="M14.7113 8.07342C14.6859 8.13476 14.6494 8.19002 14.6034 8.23602L9.93669 12.9027C9.83935 13 9.71133 13.0493 9.58333 13.0493C9.45533 13.0493 9.32731 13.0007 9.22998 12.9027C9.03465 12.7074 9.03465 12.3907 9.22998 12.1953L13.0433 8.38202H2.25C1.974 8.38202 1.75 8.15801 1.75 7.88201C1.75 7.60601 1.974 7.38201 2.25 7.38201H13.0426L9.22933 3.5687C9.03399 3.37337 9.03399 3.05668 9.22933 2.86134C9.42466 2.66601 9.74135 2.66601 9.93669 2.86134L14.6034 7.52801C14.6494 7.57401 14.6859 7.62928 14.7113 7.69061C14.7619 7.81328 14.7619 7.95076 14.7113 8.07342Z" fill="#3B3B3E"/>
</svg>
