<svg width="16" height="16" viewBox="0 0 16 16" fill="none" xmlns="http://www.w3.org/2000/svg">
<path d="M12 1.5H4C2.388 1.5 1.5 2.388 1.5 4V14C1.5 14.202 1.62193 14.3847 1.80859 14.462C1.87059 14.488 1.93533 14.5 2 14.5C2.13 14.5 2.25802 14.4494 2.35335 14.3534L4.20671 12.5H12C13.612 12.5 14.5 11.612 14.5 10V4C14.5 2.388 13.612 1.5 12 1.5ZM13.5 10C13.5 11.0513 13.0513 11.5 12 11.5H4C3.86733 11.5 3.73998 11.5526 3.64665 11.6466L2.5 12.7933V4C2.5 2.94867 2.94867 2.5 4 2.5H12C13.0513 2.5 13.5 2.94867 13.5 4V10ZM10.186 4.15332C9.97937 3.94665 9.7054 3.83333 9.41406 3.83333C9.4134 3.83333 9.41261 3.83333 9.41195 3.83333C9.11995 3.83333 8.84531 3.94804 8.63997 4.1547L4.97933 7.83203C4.88533 7.92603 4.83333 8.05265 4.83333 8.18465V9.66602C4.83333 9.94202 5.05733 10.166 5.33333 10.166H6.81527C6.94727 10.166 7.07464 10.1133 7.16797 10.0207L10.8454 6.36003C11.0527 6.15403 11.166 5.87999 11.1667 5.58732C11.1673 5.29465 11.0533 5.01933 10.8467 4.81266L10.186 4.15332ZM9.41341 4.83333C9.43075 4.83333 9.456 4.83801 9.47933 4.86068L10.1393 5.52067C10.162 5.54334 10.1667 5.56934 10.1667 5.58667C10.1667 5.604 10.162 5.62937 10.1393 5.65137L9.71533 6.07397L8.9266 5.28532L9.34928 4.86068C9.37128 4.83801 9.39675 4.83333 9.41341 4.83333ZM6.60872 9.16667H5.83333V8.39136L8.2207 5.99333L9.00602 6.7793L6.60872 9.16667Z" fill="#3B3B3E"/>
</svg>
