<svg width="16" height="16" viewBox="0 0 16 16" fill="none" xmlns="http://www.w3.org/2000/svg">
<path d="M13.9931 2.00699C13.5397 1.55366 12.8731 1.387 12.2598 1.58033L2.85976 4.50699C2.33976 4.66699 1.91308 5.04033 1.67975 5.53367C1.44642 6.03367 1.4331 6.61367 1.6531 7.127C2.3331 8.74033 3.30642 10.1937 4.55975 11.447C5.81309 12.7003 7.25976 13.6737 8.87976 14.347C9.12643 14.447 9.38642 14.5003 9.64642 14.5003C9.92642 14.5003 10.2131 14.4403 10.4731 14.3203C10.9664 14.0937 11.3398 13.6603 11.4998 13.1403L14.4264 3.74033C14.6198 3.127 14.4531 2.46033 13.9998 2.00699H13.9931ZM10.0464 13.407C9.79976 13.5203 9.51975 13.527 9.26642 13.4203C7.77309 12.7937 6.42642 11.887 5.26642 10.7337C4.10642 9.57367 3.20642 8.23367 2.57975 6.74033C2.47309 6.487 2.47977 6.20033 2.5931 5.95366C2.70643 5.71366 2.90642 5.53367 3.15975 5.46033L3.33976 5.407C3.88643 7.10033 4.83309 8.647 6.09975 9.91366C7.36642 11.1803 8.91309 12.1203 10.6064 12.6737L10.5531 12.847C10.4731 13.1003 10.2997 13.3003 10.0531 13.4137L10.0464 13.407ZM13.4664 3.44033L10.8931 11.707C9.35975 11.207 7.94643 10.347 6.79977 9.19366C5.64643 8.04699 4.79309 6.63366 4.29309 5.10033L12.5598 2.52699C12.8264 2.44699 13.0931 2.51366 13.2931 2.707C13.4864 2.90033 13.5531 3.17367 13.4731 3.44033H13.4664ZM8.17975 5.99367C8.17975 6.45367 7.80642 6.827 7.34642 6.827C6.88642 6.827 6.51308 6.45367 6.51308 5.99367C6.51308 5.53367 6.87975 5.16034 7.34642 5.16034C7.80642 5.16034 8.17975 5.53367 8.17975 5.99367ZM10.6797 8.66034C10.6797 9.027 10.3797 9.327 10.0131 9.327C9.64642 9.327 9.34642 9.027 9.34642 8.66034C9.34642 8.29367 9.63975 7.99367 10.0131 7.99367C10.3797 7.99367 10.6797 8.29367 10.6797 8.66034ZM11.1797 5.327C11.1797 5.60034 10.9597 5.827 10.6797 5.827C10.3997 5.827 10.1797 5.60034 10.1797 5.327C10.1797 5.05367 10.3997 4.827 10.6797 4.827C10.9597 4.827 11.1797 5.05367 11.1797 5.327Z" fill="#3B3B3E"/>
</svg>
