<svg width="16" height="16" viewBox="0 0 16 16" fill="none" xmlns="http://www.w3.org/2000/svg">
<path d="M8.50002 3.33333V2C8.50002 1.72667 8.72668 1.5 9.00002 1.5C9.27335 1.5 9.50002 1.72667 9.50002 2V3.33333C9.50002 3.60667 9.27335 3.83333 9.00002 3.83333C8.72668 3.83333 8.50002 3.60667 8.50002 3.33333ZM10.6667 4.33333C10.7934 4.33333 10.92 4.28667 11.02 4.18667L11.6867 3.52C11.88 3.32667 11.88 3.00667 11.6867 2.81333C11.4934 2.62 11.1733 2.62 10.98 2.81333L10.3133 3.48C10.12 3.67333 10.12 3.99333 10.3133 4.18667C10.4133 4.28667 10.54 4.33333 10.6667 4.33333ZM6.98 4.18667C7.08 4.28667 7.20668 4.33333 7.33335 4.33333C7.46002 4.33333 7.5867 4.28667 7.6867 4.18667C7.88004 3.99333 7.88004 3.67333 7.6867 3.48L7.02004 2.81333C6.8267 2.62 6.50667 2.62 6.31333 2.81333C6.12 3.00667 6.12 3.32667 6.31333 3.52L6.98 4.18667ZM7.29335 8.70667C7.64002 9.05333 7.83335 9.51333 7.83335 10C7.83335 10.4867 7.64002 10.9533 7.29335 11.2933C6.93335 11.6533 6.46668 11.8267 6.00002 11.8267C5.53335 11.8267 5.06002 11.6467 4.70668 11.2933C4.36002 10.9467 4.16668 10.4867 4.16668 10C4.16668 9.51333 4.36002 9.04667 4.70668 8.70667C5.42002 7.99333 6.58669 7.99333 7.30003 8.70667H7.29335ZM6.83335 10C6.83335 9.78 6.74669 9.56666 6.58669 9.41333C6.42669 9.25333 6.21335 9.16667 6.00002 9.16667C5.78668 9.16667 5.57335 9.24666 5.41335 9.41333C5.25335 9.57333 5.16668 9.78 5.16668 10C5.16668 10.22 5.25335 10.4333 5.41335 10.5867C5.74001 10.9133 6.26669 10.9133 6.59336 10.5867C6.75336 10.4267 6.84002 10.22 6.84002 10H6.83335ZM14.5 6.33333V8.41333C14.5 8.78666 14.2534 9.11334 13.8934 9.21334L10.4933 10.1867C10.4467 11.3067 9.98003 12.38 9.18003 13.18C8.33336 14.0333 7.20668 14.5 6.00002 14.5C4.80002 14.5 3.66667 14.0333 2.82 13.18C1.96667 12.3333 1.50002 11.2 1.50002 10C1.50002 9.14667 1.74003 8.34 2.18003 7.63333L1.94 7.39333C1.35333 6.80666 1.35333 5.86 1.94 5.27334C2.52667 4.68667 3.47337 4.68667 4.06004 5.27334L4.53334 5.74666C5.00001 5.58666 5.49335 5.5 6.00002 5.5H7.76003C8.12003 5.5 8.43336 5.72667 8.55336 6.06667L8.69334 6.5H9.3067L9.44667 6.06667C9.56001 5.72667 9.88001 5.5 10.24 5.5H13.6667C14.1267 5.5 14.5 5.87333 14.5 6.33333V6.33333ZM2.80003 6.84C2.80003 6.84 2.81334 6.82666 2.82 6.82C3.05334 6.58666 3.30668 6.38667 3.58001 6.20667L3.35337 5.98C3.15337 5.78 2.84667 5.78 2.64667 5.98C2.44667 6.18 2.44667 6.48667 2.64667 6.68667L2.80003 6.84ZM13.5 6.5H10.36L10.22 6.93333C10.1067 7.27333 9.78669 7.5 9.42669 7.5H8.57334C8.21334 7.5 7.90001 7.27333 7.78001 6.93333L7.64003 6.5H6.00002C5.52002 6.5 5.05335 6.6 4.62669 6.78C4.61335 6.78 4.60003 6.79333 4.59336 6.8C4.20003 6.97333 3.84001 7.21333 3.53334 7.52666C2.86668 8.18666 2.50002 9.06667 2.50002 10C2.50002 10.9333 2.86667 11.8133 3.52667 12.4733C4.18667 13.14 5.06668 13.5 6.00002 13.5C6.93335 13.5 7.81337 13.1333 8.47337 12.4733C9.17337 11.78 9.54001 10.82 9.49334 9.84C9.48001 9.60666 9.63337 9.4 9.85337 9.33333L13.4933 8.29334V6.50666L13.5 6.5Z" fill="#3B3B3E"/>
</svg>
