<svg width="16" height="16" viewBox="0 0 16 16" fill="none" xmlns="http://www.w3.org/2000/svg">
<path d="M15.1465 7.42726C14.8665 3.90726 12.1065 1.14726 8.57983 0.853929C8.23317 0.827262 7.85983 0.827266 7.51316 0.847266C7.47983 0.847266 7.44651 0.847258 7.41984 0.860592C3.90651 1.14059 1.09317 3.98726 0.85317 7.5206C0.846503 7.6806 0.839844 7.8406 0.839844 8.0006C0.839844 8.19393 0.84651 8.38726 0.859843 8.57393C1.13984 12.0939 3.89985 14.8539 7.42651 15.1473C7.61318 15.1606 7.81318 15.1673 8.00651 15.1673C8.17318 15.1673 8.33316 15.1606 8.49316 15.1539C8.5265 15.1539 8.55984 15.1539 8.58651 15.1406C12.0998 14.8606 14.9132 12.0139 15.1532 8.4806C15.1598 8.3206 15.1665 8.1606 15.1665 8.0006C15.1665 7.80726 15.1598 7.61393 15.1465 7.42726ZM8.49316 14.1406C8.49316 14.0939 8.49984 14.0473 8.49984 14.0006C8.49984 13.4673 8.43317 12.9406 8.3065 12.4273C8.23983 12.1606 7.9665 11.9939 7.69983 12.0606C7.43316 12.1273 7.2665 12.4006 7.33317 12.6673C7.4465 13.1006 7.49984 13.5473 7.49984 14.0006C7.49984 14.0473 7.49316 14.1006 7.49316 14.1473C4.47316 13.8939 2.11318 11.5339 1.85984 8.5206C2.30651 8.51393 2.7465 8.53393 3.17983 8.62726C3.4465 8.68726 3.71317 8.51393 3.77317 8.24726C3.83317 7.97393 3.65983 7.70726 3.39317 7.64726C2.89317 7.5406 2.37318 7.49393 1.85984 7.50726C2.09984 4.50726 4.51316 2.09393 7.51316 1.86059C7.51316 1.90726 7.50651 1.95393 7.50651 2.0006C7.50651 2.53393 7.57316 3.0606 7.69983 3.57393C7.75983 3.8006 7.95984 3.95392 8.1865 3.95392C8.2265 3.95392 8.2665 3.94727 8.3065 3.9406C8.57317 3.87393 8.73984 3.6006 8.67318 3.33393C8.55984 2.9006 8.50651 2.45393 8.50651 2.0006C8.50651 1.95393 8.51316 1.9006 8.51316 1.85393C11.5332 2.10726 13.8932 4.46726 14.1465 7.4806C13.6998 7.48726 13.2598 7.46726 12.8265 7.37393C12.5598 7.31393 12.2932 7.48727 12.2332 7.75393C12.1732 8.02727 12.3465 8.29393 12.6132 8.35393C13.0665 8.44726 13.5332 8.5006 13.9998 8.5006C14.0465 8.5006 14.0998 8.49393 14.1465 8.49393C13.9065 11.4939 11.4932 13.9073 8.49316 14.1406V14.1406ZM11.2998 7.3806C11.2065 7.53393 11.0398 7.62059 10.8732 7.62059C10.7865 7.62059 10.6932 7.59393 10.6132 7.54727C10.2065 7.29393 9.81983 6.99393 9.47317 6.6606L9.45984 6.64726L9.40649 6.59393C9.08649 6.27393 8.8065 5.9206 8.55984 5.54727C8.4065 5.3206 8.47317 5.00726 8.7065 4.86059C8.93317 4.70726 9.2465 4.77393 9.39317 5.0006C9.6065 5.3206 9.84651 5.61393 10.1132 5.88726L10.1665 5.9406C10.1665 5.9406 10.1798 5.94726 10.1798 5.95392C10.4732 6.23392 10.7932 6.48059 11.1332 6.69393C11.3732 6.83393 11.4465 7.14727 11.2998 7.3806V7.3806ZM7.43984 10.4539C7.59317 10.6806 7.52651 10.9939 7.29317 11.1406C7.21317 11.2006 7.11317 11.2273 7.01984 11.2273C6.85984 11.2273 6.69984 11.1473 6.60651 11.0006C6.39317 10.6806 6.15316 10.3873 5.8865 10.1139L5.83317 10.0606C5.83317 10.0606 5.81984 10.0539 5.81984 10.0473C5.52651 9.76727 5.2065 9.5206 4.8665 9.30727C4.6265 9.16727 4.55316 8.85393 4.69983 8.62059C4.83983 8.38726 5.15316 8.31393 5.3865 8.45393C5.79316 8.70726 6.17984 9.00726 6.52651 9.34059L6.53984 9.35393L6.59318 9.40726C6.91318 9.72726 7.19317 10.0806 7.43984 10.4539V10.4539Z" fill="#3B3B3E"/>
</svg>
