<svg width="16" height="16" viewBox="0 0 16 16" fill="none" xmlns="http://www.w3.org/2000/svg">
<g clip-path="url(#clip0_36251_7631)">
<path d="M5.3335 11.1663C5.0575 11.1663 4.8335 10.9423 4.8335 10.6663V7.33301C4.8335 7.05701 5.0575 6.83301 5.3335 6.83301C5.6095 6.83301 5.8335 7.05701 5.8335 7.33301V10.6663C5.8335 10.9423 5.6095 11.1663 5.3335 11.1663ZM8.50016 10.6663V5.33301C8.50016 5.05701 8.27616 4.83301 8.00016 4.83301C7.72416 4.83301 7.50016 5.05701 7.50016 5.33301V10.6663C7.50016 10.9423 7.72416 11.1663 8.00016 11.1663C8.27616 11.1663 8.50016 10.9423 8.50016 10.6663ZM11.1668 10.6663V8.66634C11.1668 8.39034 10.9428 8.16634 10.6668 8.16634C10.3908 8.16634 10.1668 8.39034 10.1668 8.66634V10.6663C10.1668 10.9423 10.3908 11.1663 10.6668 11.1663C10.9428 11.1663 11.1668 10.9423 11.1668 10.6663ZM15.1668 7.99967C15.1668 4.04767 11.9522 0.833008 8.00016 0.833008C4.04816 0.833008 0.833496 4.04767 0.833496 7.99967C0.833496 11.9517 4.04816 15.1663 8.00016 15.1663C11.9522 15.1663 15.1668 11.9517 15.1668 7.99967ZM14.1668 7.99967C14.1668 11.4003 11.4008 14.1663 8.00016 14.1663C4.5995 14.1663 1.8335 11.4003 1.8335 7.99967C1.8335 4.59901 4.5995 1.83301 8.00016 1.83301C11.4008 1.83301 14.1668 4.59901 14.1668 7.99967Z" fill="#3B3B3E"/>
</g>
<defs>
<clipPath id="clip0_36251_7631">
<rect width="16" height="16" fill="white"/>
</clipPath>
</defs>
</svg>
