<svg width="16" height="16" viewBox="0 0 16 16" fill="none" xmlns="http://www.w3.org/2000/svg">
<g clip-path="url(#clip0_36251_7632)">
<path d="M4.8335 5.33301C4.8335 5.05701 5.0575 4.83301 5.3335 4.83301H8.66683C8.94283 4.83301 9.16683 5.05701 9.16683 5.33301C9.16683 5.60901 8.94283 5.83301 8.66683 5.83301H5.3335C5.0575 5.83301 4.8335 5.60901 4.8335 5.33301ZM10.6668 7.49967H5.3335C5.0575 7.49967 4.8335 7.72367 4.8335 7.99967C4.8335 8.27567 5.0575 8.49967 5.3335 8.49967H10.6668C10.9428 8.49967 11.1668 8.27567 11.1668 7.99967C11.1668 7.72367 10.9428 7.49967 10.6668 7.49967ZM7.3335 10.1663H5.3335C5.0575 10.1663 4.8335 10.3903 4.8335 10.6663C4.8335 10.9423 5.0575 11.1663 5.3335 11.1663H7.3335C7.6095 11.1663 7.8335 10.9423 7.8335 10.6663C7.8335 10.3903 7.6095 10.1663 7.3335 10.1663ZM15.1668 7.99967C15.1668 11.9517 11.9522 15.1663 8.00016 15.1663C4.04816 15.1663 0.833496 11.9517 0.833496 7.99967C0.833496 4.04767 4.04816 0.833008 8.00016 0.833008C11.9522 0.833008 15.1668 4.04767 15.1668 7.99967ZM14.1668 7.99967C14.1668 4.59901 11.4008 1.83301 8.00016 1.83301C4.5995 1.83301 1.8335 4.59901 1.8335 7.99967C1.8335 11.4003 4.5995 14.1663 8.00016 14.1663C11.4008 14.1663 14.1668 11.4003 14.1668 7.99967Z" fill="#3B3B3E"/>
</g>
<defs>
<clipPath id="clip0_36251_7632">
<rect width="16" height="16" fill="white"/>
</clipPath>
</defs>
</svg>
