<svg width="16" height="16" viewBox="0 0 16 16" fill="none" xmlns="http://www.w3.org/2000/svg">
<path d="M11.75 14.5H4.25C2.47667 14.5 1.5 13.5233 1.5 11.75V4.25C1.5 2.47667 2.47667 1.5 4.25 1.5H11.75C13.5233 1.5 14.5 2.47667 14.5 4.25V11.75C14.5 13.5233 13.5233 14.5 11.75 14.5ZM4.25 2.5C3.02333 2.5 2.5 3.02333 2.5 4.25V11.75C2.5 12.9767 3.02333 13.5 4.25 13.5H11.75C12.9767 13.5 13.5 12.9767 13.5 11.75V4.25C13.5 3.02333 12.9767 2.5 11.75 2.5H4.25ZM5.83333 10.6667V7.33333C5.83333 7.05733 5.60933 6.83333 5.33333 6.83333C5.05733 6.83333 4.83333 7.05733 4.83333 7.33333V10.6667C4.83333 10.9427 5.05733 11.1667 5.33333 11.1667C5.60933 11.1667 5.83333 10.9427 5.83333 10.6667ZM8.5 10.6667V5.33333C8.5 5.05733 8.276 4.83333 8 4.83333C7.724 4.83333 7.5 5.05733 7.5 5.33333V10.6667C7.5 10.9427 7.724 11.1667 8 11.1667C8.276 11.1667 8.5 10.9427 8.5 10.6667ZM11.1667 10.6667V8.66667C11.1667 8.39067 10.9427 8.16667 10.6667 8.16667C10.3907 8.16667 10.1667 8.39067 10.1667 8.66667V10.6667C10.1667 10.9427 10.3907 11.1667 10.6667 11.1667C10.9427 11.1667 11.1667 10.9427 11.1667 10.6667Z" fill="#3B3B3E"/>
</svg>
