<svg width="16" height="16" viewBox="0 0 16 16" fill="none" xmlns="http://www.w3.org/2000/svg">
<g clip-path="url(#clip0_36251_7633)">
<path d="M8.50016 9.33301V11.333C8.50016 11.609 8.27616 11.833 8.00016 11.833C7.72416 11.833 7.50016 11.609 7.50016 11.333V9.33301C7.50016 9.05701 7.72416 8.83301 8.00016 8.83301C8.27616 8.83301 8.50016 9.05701 8.50016 9.33301ZM10.6668 7.49967C10.3908 7.49967 10.1668 7.72367 10.1668 7.99967V11.333C10.1668 11.609 10.3908 11.833 10.6668 11.833C10.9428 11.833 11.1668 11.609 11.1668 11.333V7.99967C11.1668 7.72367 10.9428 7.49967 10.6668 7.49967ZM5.3335 9.83301C5.0575 9.83301 4.8335 10.057 4.8335 10.333V11.333C4.8335 11.609 5.0575 11.833 5.3335 11.833C5.6095 11.833 5.8335 11.609 5.8335 11.333V10.333C5.8335 10.057 5.6095 9.83301 5.3335 9.83301ZM10.8582 4.205C10.7968 4.17966 10.7322 4.16634 10.6668 4.16634H9.20015C8.92415 4.16634 8.70015 4.39034 8.70015 4.66634C8.70015 4.94234 8.92415 5.16634 9.20015 5.16634H9.46016L8.26082 6.36564L7.40816 5.51302C7.01816 5.12369 6.38349 5.12302 5.99349 5.51302L4.98014 6.52637C4.78481 6.7217 4.78481 7.03831 4.98014 7.23364C5.07748 7.33098 5.2055 7.38037 5.3335 7.38037C5.4615 7.38037 5.58952 7.33164 5.68685 7.23364L6.70015 6.22038L7.55282 7.073C7.93015 7.451 8.58949 7.45166 8.96749 7.073L10.1668 5.8737V6.13371C10.1668 6.40971 10.3908 6.63371 10.6668 6.63371C10.9428 6.63371 11.1668 6.40971 11.1668 6.13371V4.66699C11.1668 4.60166 11.1535 4.537 11.1282 4.47567C11.0775 4.353 10.9802 4.25566 10.8582 4.205ZM15.1668 7.99967C15.1668 11.9517 11.9522 15.1663 8.00016 15.1663C4.04816 15.1663 0.833496 11.9517 0.833496 7.99967C0.833496 4.04767 4.04816 0.833008 8.00016 0.833008C11.9522 0.833008 15.1668 4.04767 15.1668 7.99967ZM14.1668 7.99967C14.1668 4.59901 11.4008 1.83301 8.00016 1.83301C4.5995 1.83301 1.8335 4.59901 1.8335 7.99967C1.8335 11.4003 4.5995 14.1663 8.00016 14.1663C11.4008 14.1663 14.1668 11.4003 14.1668 7.99967Z" fill="#3B3B3E"/>
</g>
<defs>
<clipPath id="clip0_36251_7633">
<rect width="16" height="16" fill="white"/>
</clipPath>
</defs>
</svg>
