<svg width="16" height="16" viewBox="0 0 16 16" fill="none" xmlns="http://www.w3.org/2000/svg">
<path d="M11.75 1.5H4.25C2.47667 1.5 1.5 2.47667 1.5 4.25V11.75C1.5 13.5233 2.47667 14.5 4.25 14.5H11.75C13.5233 14.5 14.5 13.5233 14.5 11.75V4.25C14.5 2.47667 13.5233 1.5 11.75 1.5ZM13.5 11.75C13.5 12.9767 12.9767 13.5 11.75 13.5H4.25C3.02333 13.5 2.5 12.9767 2.5 11.75V4.25C2.5 3.02333 3.02333 2.5 4.25 2.5H11.75C12.9767 2.5 13.5 3.02333 13.5 4.25V11.75ZM8.5 9.33333V11.3333C8.5 11.6093 8.276 11.8333 8 11.8333C7.724 11.8333 7.5 11.6093 7.5 11.3333V9.33333C7.5 9.05733 7.724 8.83333 8 8.83333C8.276 8.83333 8.5 9.05733 8.5 9.33333ZM11.1667 8V11.3333C11.1667 11.6093 10.9427 11.8333 10.6667 11.8333C10.3907 11.8333 10.1667 11.6093 10.1667 11.3333V8C10.1667 7.724 10.3907 7.5 10.6667 7.5C10.9427 7.5 11.1667 7.724 11.1667 8ZM5.83333 10.3333V11.3333C5.83333 11.6093 5.60933 11.8333 5.33333 11.8333C5.05733 11.8333 4.83333 11.6093 4.83333 11.3333V10.3333C4.83333 10.0573 5.05733 9.83333 5.33333 9.83333C5.60933 9.83333 5.83333 10.0573 5.83333 10.3333ZM11.128 4.47526C11.1533 4.53659 11.1667 4.60133 11.1667 4.66667V6.1333C11.1667 6.4093 10.9427 6.6333 10.6667 6.6333C10.3907 6.6333 10.1667 6.4093 10.1667 6.1333V5.87337L8.96733 7.07259C8.58999 7.45059 7.92999 7.44992 7.55265 7.07259L6.69999 6.22005L5.68669 7.2334C5.58935 7.33073 5.46133 7.38005 5.33333 7.38005C5.20533 7.38005 5.07731 7.3314 4.97998 7.2334C4.78465 7.03807 4.78465 6.72138 4.97998 6.52604L5.99333 5.5127C6.38333 5.1227 7.018 5.12336 7.408 5.5127L8.26066 6.3654L9.46 5.16602H9.19999C8.92399 5.16602 8.69999 4.94202 8.69999 4.66602C8.69999 4.39002 8.92399 4.16602 9.19999 4.16602H10.6667C10.732 4.16602 10.7967 4.17926 10.858 4.20459C10.98 4.25592 11.0773 4.35326 11.128 4.47526Z" fill="#3B3B3E"/>
</svg>
