<svg width="16" height="16" viewBox="0 0 16 16" fill="none" xmlns="http://www.w3.org/2000/svg">
<g clip-path="url(#clip0_36251_7634)">
<path d="M8.50016 9.33301V11.333C8.50016 11.609 8.27616 11.833 8.00016 11.833C7.72416 11.833 7.50016 11.609 7.50016 11.333V9.33301C7.50016 9.05701 7.72416 8.83301 8.00016 8.83301C8.27616 8.83301 8.50016 9.05701 8.50016 9.33301ZM5.3335 7.49967C5.0575 7.49967 4.8335 7.72367 4.8335 7.99967V11.333C4.8335 11.609 5.0575 11.833 5.3335 11.833C5.6095 11.833 5.8335 11.609 5.8335 11.333V7.99967C5.8335 7.72367 5.6095 7.49967 5.3335 7.49967ZM10.6668 9.83301C10.3908 9.83301 10.1668 10.057 10.1668 10.333V11.333C10.1668 11.609 10.3908 11.833 10.6668 11.833C10.9428 11.833 11.1668 11.609 11.1668 11.333V10.333C11.1668 10.057 10.9428 9.83301 10.6668 9.83301ZM10.6668 4.913C10.3908 4.913 10.1668 5.137 10.1668 5.413V5.6757L8.96281 4.47632C8.57548 4.09032 7.94416 4.08838 7.55416 4.47371L6.69617 5.32235L5.68685 4.31299C5.49152 4.11765 5.17483 4.11765 4.97949 4.31299C4.78416 4.50832 4.78416 4.82501 4.97949 5.02034L5.98881 6.0297C6.37681 6.4177 7.00951 6.41902 7.39884 6.03369L8.25684 5.18498L9.45618 6.38037H9.20015C8.92415 6.38037 8.70015 6.60437 8.70015 6.88037C8.70015 7.15637 8.92415 7.38037 9.20015 7.38037H10.6668C10.7322 7.38037 10.7968 7.36697 10.8582 7.34163C10.9195 7.3163 10.9748 7.27964 11.0208 7.23364C11.0208 7.23364 11.0208 7.23364 11.0215 7.23364C11.0262 7.22898 11.0282 7.22171 11.0328 7.21704C11.0722 7.17437 11.1062 7.12636 11.1288 7.0717C11.1515 7.01636 11.1615 6.95832 11.1635 6.89966C11.1635 6.89299 11.1675 6.88769 11.1675 6.88102V5.41431C11.1668 5.13697 10.9428 4.913 10.6668 4.913ZM15.1668 7.99967C15.1668 11.9517 11.9522 15.1663 8.00016 15.1663C4.04816 15.1663 0.833496 11.9517 0.833496 7.99967C0.833496 4.04767 4.04816 0.833008 8.00016 0.833008C11.9522 0.833008 15.1668 4.04767 15.1668 7.99967ZM14.1668 7.99967C14.1668 4.59901 11.4008 1.83301 8.00016 1.83301C4.5995 1.83301 1.8335 4.59901 1.8335 7.99967C1.8335 11.4003 4.5995 14.1663 8.00016 14.1663C11.4008 14.1663 14.1668 11.4003 14.1668 7.99967Z" fill="#3B3B3E"/>
</g>
<defs>
<clipPath id="clip0_36251_7634">
<rect width="16" height="16" fill="white"/>
</clipPath>
</defs>
</svg>
