<svg width="16" height="16" viewBox="0 0 16 16" fill="none" xmlns="http://www.w3.org/2000/svg">
<path d="M14.5 4.66699V7.43636C14.5 7.71236 14.276 7.93636 14 7.93636C13.724 7.93636 13.5 7.71236 13.5 7.43636V5.87435L9.49134 9.88298C9.03601 10.3383 8.29667 10.3383 7.84134 9.88298L6.11734 8.15902C6.05201 8.09368 5.94668 8.09368 5.88135 8.15902L2.35268 11.6877C2.25534 11.785 2.12734 11.8343 1.99934 11.8343C1.87134 11.8343 1.74335 11.7857 1.64601 11.6877C1.45068 11.4923 1.45068 11.1756 1.64601 10.9803L5.17468 7.45166C5.63001 6.99633 6.36934 6.99633 6.82468 7.45166L8.54868 9.17562C8.61401 9.24095 8.71935 9.24095 8.78468 9.17562L12.7933 5.16699H11.2313C10.9553 5.16699 10.7313 4.94299 10.7313 4.66699C10.7313 4.39099 10.9553 4.16699 11.2313 4.16699H14C14.0653 4.16699 14.13 4.1804 14.1913 4.20573C14.3133 4.2564 14.4107 4.35373 14.4613 4.4764C14.4867 4.53707 14.5 4.60166 14.5 4.66699Z" fill="#3B3B3E"/>
</svg>
