<svg width="16" height="16" viewBox="0 0 16 16" fill="none" xmlns="http://www.w3.org/2000/svg">
<path d="M14.4997 11.3335C14.4997 11.3988 14.4864 11.4636 14.461 11.5249C14.4104 11.6469 14.313 11.7443 14.191 11.7956C14.1297 11.8209 14.065 11.8342 13.9997 11.8342H11.2304C10.9544 11.8342 10.7304 11.6102 10.7304 11.3342C10.7304 11.0582 10.9544 10.8342 11.2304 10.8342H12.7924L8.7837 6.82554C8.71836 6.7602 8.61304 6.7602 8.5477 6.82554L6.82369 8.54949C6.36836 9.00483 5.62903 9.00483 5.1737 8.54949L1.64504 5.02085C1.4497 4.82552 1.4497 4.50883 1.64504 4.31349C1.84037 4.11816 2.15704 4.11816 2.35237 4.31349L5.88104 7.84214C5.94637 7.90747 6.0517 7.90747 6.11703 7.84214L7.84103 6.11818C8.29636 5.66285 9.0357 5.66285 9.49103 6.11818L13.4997 10.1268V8.56479C13.4997 8.28879 13.7237 8.06479 13.9997 8.06479C14.2757 8.06479 14.4997 8.28879 14.4997 8.56479V11.3335Z" fill="#3B3B3E"/>
</svg>
