<svg width="105" height="24" viewBox="0 0 105 24" fill="none" xmlns="http://www.w3.org/2000/svg">
<path d="M28.3739 23.4305V0.566628H42.8435V5.07408H32.8814V8.92828H40.6551V13.4357H32.8814V18.9231H42.8435V23.4305H28.3739Z" fill="#3B3B3E"/>
<path d="M54.7064 23.8552C53.1604 23.8552 51.7069 23.5503 50.3459 22.9406C48.985 22.32 47.7873 21.4653 46.753 20.3766C45.7296 19.2878 44.9239 18.0303 44.336 16.604C43.7589 15.1669 43.4704 13.6317 43.4704 11.9986C43.4704 10.3546 43.7589 8.81941 44.336 7.39314C44.9239 5.95598 45.7296 4.69846 46.753 3.62059C47.7873 2.53184 48.985 1.6826 50.3459 1.0729C51.7069 0.452308 53.1604 0.142012 54.7064 0.142012C56.5573 0.142012 58.2612 0.572071 59.8181 1.43219C61.375 2.28142 62.6652 3.41917 63.6886 4.84545L59.6711 7.01752C59.0614 6.29894 58.3265 5.72734 57.4664 5.30272C56.6063 4.86722 55.6863 4.64947 54.7064 4.64947C53.7809 4.64947 52.9099 4.84 52.0934 5.22107C51.2768 5.60213 50.5582 6.13018 49.9376 6.80521C49.3279 7.48024 48.8489 8.2587 48.5005 9.14059C48.1521 10.0225 47.9779 10.9751 47.9779 11.9986C47.9779 13.0111 48.1521 13.9638 48.5005 14.8566C48.8489 15.7385 49.3279 16.5169 49.9376 17.192C50.5582 17.8561 51.2768 18.3841 52.0934 18.7761C52.9099 19.1572 53.7809 19.3477 54.7064 19.3477C55.6972 19.3477 56.6172 19.1299 57.4664 18.6944C58.3265 18.2589 59.0614 17.6819 59.6711 16.9633L63.6886 19.1517C62.6652 20.5671 61.375 21.7049 59.8181 22.565C58.2612 23.4251 56.5573 23.8552 54.7064 23.8552Z" fill="#3B3B3E"/>
<path d="M75.4586 23.8552C73.9126 23.8552 72.4591 23.5503 71.0982 22.9406C69.7372 22.32 68.5396 21.4653 67.5053 20.3766C66.4709 19.2878 65.6598 18.0303 65.0719 16.604C64.4839 15.1669 64.19 13.6317 64.19 11.9986C64.19 10.3654 64.4839 8.83574 65.0719 7.40947C65.6598 5.97231 66.4709 4.70935 67.5053 3.62059C68.5396 2.53184 69.7372 1.6826 71.0982 1.0729C72.4591 0.452308 73.9126 0.142012 75.4586 0.142012C77.0155 0.142012 78.4745 0.452308 79.8354 1.0729C81.1964 1.6826 82.394 2.53184 83.4283 3.62059C84.4627 4.70935 85.2683 5.97231 85.8454 7.40947C86.4333 8.83574 86.7273 10.3654 86.7273 11.9986C86.7273 13.6317 86.4333 15.1669 85.8454 16.604C85.2683 18.0303 84.4627 19.2878 83.4283 20.3766C82.394 21.4653 81.1964 22.32 79.8354 22.9406C78.4745 23.5503 77.0155 23.8552 75.4586 23.8552ZM75.4586 19.3477C76.3841 19.3477 77.2551 19.1572 78.0716 18.7761C78.8882 18.3841 79.6068 17.8507 80.2274 17.1756C80.848 16.5006 81.3325 15.7221 81.6809 14.8402C82.0402 13.9583 82.2198 13.0111 82.2198 11.9986C82.2198 10.986 82.0402 10.0388 81.6809 9.15693C81.3325 8.26414 80.848 7.48568 80.2274 6.82154C79.6068 6.14651 78.8882 5.61846 78.0716 5.2374C77.2551 4.84544 76.3841 4.64947 75.4586 4.64947C74.5332 4.64947 73.6622 4.84544 72.8456 5.2374C72.029 5.61846 71.3105 6.14651 70.6899 6.82154C70.0693 7.49657 69.5793 8.27503 69.22 9.15693C68.8716 10.0388 68.6974 10.986 68.6974 11.9986C68.6974 13.0111 68.8716 13.9638 69.22 14.8566C69.5793 15.7385 70.0693 16.5169 70.6899 17.192C71.3105 17.8561 72.029 18.3841 72.8456 18.7761C73.6622 19.1572 74.5332 19.3477 75.4586 19.3477Z" fill="#3B3B3E"/>
<path d="M87.8913 23.4305V0.566628H96.9716C98.2127 0.566628 99.3342 0.882368 100.336 1.51385C101.348 2.13444 102.149 2.97278 102.737 4.02888C103.335 5.07408 103.635 6.23361 103.635 7.50746C103.635 8.50911 103.461 9.44 103.112 10.3001C102.764 11.1494 102.274 11.8951 101.642 12.5375C101.011 13.1799 100.276 13.6807 99.4376 14.04L104.876 23.4305H99.6826L94.4729 14.4483H92.3988V23.4305H87.8913ZM92.3988 9.94083H96.4326C96.9226 9.94083 97.369 9.82107 97.7718 9.58154C98.1855 9.33113 98.5121 8.99905 98.7517 8.58533C99.0021 8.16071 99.1273 7.69255 99.1273 7.18083C99.1273 6.68 99.0021 6.22272 98.7517 5.809C98.5121 5.38438 98.1855 5.04687 97.7718 4.79645C97.369 4.54604 96.9226 4.42083 96.4326 4.42083H92.3988V9.94083Z" fill="#3B3B3E"/>
<path d="M10.0673 13.6861L2.16568 0H14.8757C21.5032 0 26.8757 5.37258 26.8757 12C26.8757 18.6274 21.5032 24 14.8757 24H5.92899V23.9999L5.92891 23.9999L0 13.7041L6.07096 13.704L7.51567 16.1881L8.99224 18.7456H14.8757C18.6012 18.7456 21.6213 15.7255 21.6213 12C21.6213 8.27453 18.6012 5.25444 14.8757 5.25444H11.2532L16.0118 13.6861H10.0673Z" fill="#3B3B3E"/>
<path d="M75.4438 16.2604C74.8836 16.2604 74.357 16.1508 73.8639 15.9317C73.3708 15.7087 72.9369 15.4016 72.5621 15.0104C72.1874 14.6192 71.8935 14.1673 71.6805 13.6548C71.4675 13.1384 71.3609 12.5868 71.3609 12C71.3609 11.4132 71.4675 10.8635 71.6805 10.351C71.8935 9.83461 72.1874 9.3808 72.5621 8.98958C72.9369 8.59837 73.3708 8.29322 73.8639 8.07414C74.357 7.85114 74.8836 7.73965 75.4438 7.73965C76.0079 7.73965 76.5365 7.85114 77.0296 8.07414C77.5227 8.29322 77.9566 8.59837 78.3314 8.98958C78.7061 9.3808 78.998 9.83461 79.2071 10.351C79.4201 10.8635 79.5266 11.4132 79.5266 12C79.5266 12.5868 79.4201 13.1384 79.2071 13.6548C78.998 14.1673 78.7061 14.6192 78.3314 15.0104C77.9566 15.4016 77.5227 15.7087 77.0296 15.9317C76.5365 16.1508 76.0079 16.2604 75.4438 16.2604Z" fill="#3B3B3E"/>
</svg>
